<?xml version="1.0" encoding="UTF-8" standalone="no"?>
<!DOCTYPE svg PUBLIC "-//W3C//DTD SVG 1.1//EN"
 "http://www.w3.org/Graphics/SVG/1.1/DTD/svg11.dtd">
<!-- Generated by graphviz version 2.38.0 (20140413.2041)
 -->
<!-- Title: ar_internal_metadata Pages: 1 -->
<svg width="299pt" height="148pt"
 viewBox="0.00 0.00 299.00 148.00" xmlns="http://www.w3.org/2000/svg" xmlns:xlink="http://www.w3.org/1999/xlink">
<g id="graph0" class="graph" transform="scale(1 1) rotate(0) translate(4 144)">
<title>ar_internal_metadata</title>
<polygon fill="#ffffff" stroke="none" points="-4,4 -4,-144 295,-144 295,4 -4,4"/>
<!-- ar_internal_metadata -->
<g id="node1" class="node"><title>ar_internal_metadata</title>
<g id="a_node1"><a xlink:href="../../tables/ar_internal_metadata.html" xlink:title="ar_internal_metadata" target="_top">
<polygon fill="#ffffff" stroke="none" points="8,-4 8,-136 283,-136 283,-4 8,-4"/>
<polygon fill="#f5f5f5" stroke="none" points="10.5,-112 10.5,-134 281.5,-134 281.5,-112 10.5,-112"/>
<polygon fill="none" stroke="black" points="10.5,-112 10.5,-134 281.5,-134 281.5,-112 10.5,-112"/>
<text text-anchor="start" x="15.5" y="-121.2" font-family="Helvetica,sans-Serif" font-weight="bold" font-size="11.00">ar_internal_metadata</text>
<text text-anchor="start" x="242.5" y="-120.2" font-family="Helvetica,sans-Serif" font-size="11.00">[table]</text>
<polygon fill="none" stroke="black" points="10.5,-90 10.5,-112 160.5,-112 160.5,-90 10.5,-90"/>
<image xlink:href="../../images/primaryKeys.png" width="11px" height="12px" preserveAspectRatio="xMinYMin meet" x="15.5" y="-107"/>
<text text-anchor="start" x="30.5" y="-98.2" font-family="Helvetica,sans-Serif" font-size="11.00">key</text>
<polygon fill="none" stroke="black" points="160.5,-90 160.5,-112 281.5,-112 281.5,-90 160.5,-90"/>
<text text-anchor="start" x="163.5" y="-98.2" font-family="Helvetica,sans-Serif" font-size="11.00">varchar[2147483647]</text>
<polygon fill="none" stroke="black" points="10.5,-68 10.5,-90 160.5,-90 160.5,-68 10.5,-68"/>
<text text-anchor="start" x="30.5" y="-76.2" font-family="Helvetica,sans-Serif" font-size="11.00">value</text>
<polygon fill="none" stroke="black" points="160.5,-68 160.5,-90 281.5,-90 281.5,-68 160.5,-68"/>
<text text-anchor="start" x="163.5" y="-76.2" font-family="Helvetica,sans-Serif" font-size="11.00">varchar[2147483647]</text>
<polygon fill="none" stroke="black" points="10.5,-46 10.5,-68 160.5,-68 160.5,-46 10.5,-46"/>
<text text-anchor="start" x="30.5" y="-54.2" font-family="Helvetica,sans-Serif" font-size="11.00">created_at</text>
<polygon fill="none" stroke="black" points="160.5,-46 160.5,-68 281.5,-68 281.5,-46 160.5,-46"/>
<text text-anchor="start" x="163.5" y="-54.2" font-family="Helvetica,sans-Serif" font-size="11.00">timestamp[29,6]</text>
<polygon fill="none" stroke="black" points="10.5,-24 10.5,-46 160.5,-46 160.5,-24 10.5,-24"/>
<text text-anchor="start" x="30.5" y="-32.2" font-family="Helvetica,sans-Serif" font-size="11.00">updated_at</text>
<polygon fill="none" stroke="black" points="160.5,-24 160.5,-46 281.5,-46 281.5,-24 160.5,-24"/>
<text text-anchor="start" x="163.5" y="-32.2" font-family="Helvetica,sans-Serif" font-size="11.00">timestamp[29,6]</text>
<polygon fill="#ffffff" stroke="none" points="10.5,-6 10.5,-24 90.5,-24 90.5,-6 10.5,-6"/>
<polygon fill="none" stroke="black" points="10.5,-6 10.5,-24 90.5,-24 90.5,-6 10.5,-6"/>
<text text-anchor="start" x="13.5" y="-12.2" font-family="Helvetica,sans-Serif" font-size="11.00">&lt; 0</text>
<polygon fill="#ffffff" stroke="none" points="90.5,-6 90.5,-24 160.5,-24 160.5,-6 90.5,-6"/>
<polygon fill="none" stroke="black" points="90.5,-6 90.5,-24 160.5,-24 160.5,-6 90.5,-6"/>
<text text-anchor="start" x="150.5" y="-12.2" font-family="Helvetica,sans-Serif" font-size="11.00"> &#160;</text>
<polygon fill="#ffffff" stroke="none" points="160.5,-6 160.5,-24 281.5,-24 281.5,-6 160.5,-6"/>
<polygon fill="none" stroke="black" points="160.5,-6 160.5,-24 281.5,-24 281.5,-6 160.5,-6"/>
<text text-anchor="start" x="261.5" y="-12.2" font-family="Helvetica,sans-Serif" font-size="11.00">0 &gt;</text>
<polygon fill="none" stroke="black" stroke-width="2" points="9,-5 9,-135 282,-135 282,-5 9,-5"/>
</a>
</g>
</g>
</g>
</svg>
