<?xml version="1.0" encoding="UTF-8" standalone="no"?>
<!DOCTYPE svg PUBLIC "-//W3C//DTD SVG 1.1//EN"
 "http://www.w3.org/Graphics/SVG/1.1/DTD/svg11.dtd">
<!-- Generated by graphviz version 2.38.0 (20140413.2041)
 -->
<!-- Title: asset_details Pages: 1 -->
<svg width="301pt" height="500pt"
 viewBox="0.00 0.00 301.00 500.00" xmlns="http://www.w3.org/2000/svg" xmlns:xlink="http://www.w3.org/1999/xlink">
<g id="graph0" class="graph" transform="scale(1 1) rotate(0) translate(4 496)">
<title>asset_details</title>
<polygon fill="#ffffff" stroke="none" points="-4,4 -4,-496 297,-496 297,4 -4,4"/>
<!-- asset_details -->
<g id="node1" class="node"><title>asset_details</title>
<g id="a_node1"><a xlink:href="../../tables/asset_details.html" xlink:title="asset_details" target="_top">
<polygon fill="#ffffff" stroke="none" points="8,-4 8,-488 285,-488 285,-4 8,-4"/>
<polygon fill="#f5f5f5" stroke="none" points="10.5,-464 10.5,-486 283.5,-486 283.5,-464 10.5,-464"/>
<polygon fill="none" stroke="black" points="10.5,-464 10.5,-486 283.5,-486 283.5,-464 10.5,-464"/>
<text text-anchor="start" x="15.5" y="-473.2" font-family="Helvetica,sans-Serif" font-weight="bold" font-size="11.00">asset_details</text>
<text text-anchor="start" x="244.5" y="-472.2" font-family="Helvetica,sans-Serif" font-size="11.00">[table]</text>
<polygon fill="none" stroke="black" points="10.5,-442 10.5,-464 162.5,-464 162.5,-442 10.5,-442"/>
<image xlink:href="../../images/primaryKeys.png" width="11px" height="12px" preserveAspectRatio="xMinYMin meet" x="15.5" y="-459"/>
<text text-anchor="start" x="30.5" y="-450.2" font-family="Helvetica,sans-Serif" font-size="11.00">id</text>
<polygon fill="none" stroke="black" points="162.5,-442 162.5,-464 283.5,-464 283.5,-442 162.5,-442"/>
<text text-anchor="start" x="165.5" y="-450.2" font-family="Helvetica,sans-Serif" font-size="11.00">bigserial[19]</text>
<polygon fill="none" stroke="black" points="10.5,-420 10.5,-442 162.5,-442 162.5,-420 10.5,-420"/>
<text text-anchor="start" x="30.5" y="-428.2" font-family="Helvetica,sans-Serif" font-size="11.00">description</text>
<polygon fill="none" stroke="black" points="162.5,-420 162.5,-442 283.5,-442 283.5,-420 162.5,-420"/>
<text text-anchor="start" x="165.5" y="-428.2" font-family="Helvetica,sans-Serif" font-size="11.00">text[2147483647]</text>
<polygon fill="none" stroke="black" points="10.5,-398 10.5,-420 162.5,-420 162.5,-398 10.5,-398"/>
<text text-anchor="start" x="30.5" y="-406.2" font-family="Helvetica,sans-Serif" font-size="11.00">contact</text>
<polygon fill="none" stroke="black" points="162.5,-398 162.5,-420 283.5,-420 283.5,-398 162.5,-398"/>
<text text-anchor="start" x="165.5" y="-406.2" font-family="Helvetica,sans-Serif" font-size="11.00">text[2147483647]</text>
<polygon fill="none" stroke="black" points="10.5,-376 10.5,-398 162.5,-398 162.5,-376 10.5,-376"/>
<text text-anchor="start" x="30.5" y="-384.2" font-family="Helvetica,sans-Serif" font-size="11.00">location</text>
<polygon fill="none" stroke="black" points="162.5,-376 162.5,-398 283.5,-398 283.5,-376 162.5,-376"/>
<text text-anchor="start" x="165.5" y="-384.2" font-family="Helvetica,sans-Serif" font-size="11.00">text[2147483647]</text>
<polygon fill="none" stroke="black" points="10.5,-354 10.5,-376 162.5,-376 162.5,-354 10.5,-354"/>
<text text-anchor="start" x="30.5" y="-362.2" font-family="Helvetica,sans-Serif" font-size="11.00">room</text>
<polygon fill="none" stroke="black" points="162.5,-354 162.5,-376 283.5,-376 283.5,-354 162.5,-354"/>
<text text-anchor="start" x="165.5" y="-362.2" font-family="Helvetica,sans-Serif" font-size="11.00">text[2147483647]</text>
<polygon fill="none" stroke="black" points="10.5,-332 10.5,-354 162.5,-354 162.5,-332 10.5,-332"/>
<text text-anchor="start" x="30.5" y="-340.2" font-family="Helvetica,sans-Serif" font-size="11.00">rack_name</text>
<polygon fill="none" stroke="black" points="162.5,-332 162.5,-354 283.5,-354 283.5,-332 162.5,-332"/>
<text text-anchor="start" x="165.5" y="-340.2" font-family="Helvetica,sans-Serif" font-size="11.00">text[2147483647]</text>
<polygon fill="none" stroke="black" points="10.5,-310 10.5,-332 162.5,-332 162.5,-310 10.5,-310"/>
<text text-anchor="start" x="30.5" y="-318.2" font-family="Helvetica,sans-Serif" font-size="11.00">lowest_rack_unit</text>
<polygon fill="none" stroke="black" points="162.5,-310 162.5,-332 283.5,-332 283.5,-310 162.5,-310"/>
<text text-anchor="start" x="165.5" y="-318.2" font-family="Helvetica,sans-Serif" font-size="11.00">text[2147483647]</text>
<polygon fill="#ffffff" stroke="none" points="10.5,-288 10.5,-310 162.5,-310 162.5,-288 10.5,-288"/>
<polygon fill="none" stroke="black" points="10.5,-288 10.5,-310 162.5,-310 162.5,-288 10.5,-288"/>
<text text-anchor="start" x="30.5" y="-296.2" font-family="Helvetica,sans-Serif" font-size="11.00">resource_id</text>
<polygon fill="none" stroke="black" points="162.5,-288 162.5,-310 283.5,-310 283.5,-288 162.5,-288"/>
<text text-anchor="start" x="165.5" y="-296.2" font-family="Helvetica,sans-Serif" font-size="11.00">int8[19]</text>
<polygon fill="#ffffff" stroke="none" points="10.5,-266 10.5,-288 162.5,-288 162.5,-266 10.5,-266"/>
<polygon fill="none" stroke="black" points="10.5,-266 10.5,-288 162.5,-288 162.5,-266 10.5,-266"/>
<text text-anchor="start" x="30.5" y="-274.2" font-family="Helvetica,sans-Serif" font-size="11.00">resource_type</text>
<polygon fill="none" stroke="black" points="162.5,-266 162.5,-288 283.5,-288 283.5,-266 162.5,-266"/>
<text text-anchor="start" x="165.5" y="-274.2" font-family="Helvetica,sans-Serif" font-size="11.00">varchar[2147483647]</text>
<polygon fill="none" stroke="black" points="10.5,-244 10.5,-266 162.5,-266 162.5,-244 10.5,-244"/>
<text text-anchor="start" x="30.5" y="-252.2" font-family="Helvetica,sans-Serif" font-size="11.00">created_at</text>
<polygon fill="none" stroke="black" points="162.5,-244 162.5,-266 283.5,-266 283.5,-244 162.5,-244"/>
<text text-anchor="start" x="165.5" y="-252.2" font-family="Helvetica,sans-Serif" font-size="11.00">timestamp[29,6]</text>
<polygon fill="none" stroke="black" points="10.5,-222 10.5,-244 162.5,-244 162.5,-222 10.5,-222"/>
<text text-anchor="start" x="30.5" y="-230.2" font-family="Helvetica,sans-Serif" font-size="11.00">updated_at</text>
<polygon fill="none" stroke="black" points="162.5,-222 162.5,-244 283.5,-244 283.5,-222 162.5,-222"/>
<text text-anchor="start" x="165.5" y="-230.2" font-family="Helvetica,sans-Serif" font-size="11.00">timestamp[29,6]</text>
<polygon fill="none" stroke="black" points="10.5,-200 10.5,-222 162.5,-222 162.5,-200 10.5,-200"/>
<text text-anchor="start" x="30.5" y="-208.2" font-family="Helvetica,sans-Serif" font-size="11.00">product_name</text>
<polygon fill="none" stroke="black" points="162.5,-200 162.5,-222 283.5,-222 283.5,-200 162.5,-200"/>
<text text-anchor="start" x="165.5" y="-208.2" font-family="Helvetica,sans-Serif" font-size="11.00">varchar[2147483647]</text>
<polygon fill="none" stroke="black" points="10.5,-178 10.5,-200 162.5,-200 162.5,-178 10.5,-178"/>
<text text-anchor="start" x="30.5" y="-186.2" font-family="Helvetica,sans-Serif" font-size="11.00">manufacturer</text>
<polygon fill="none" stroke="black" points="162.5,-178 162.5,-200 283.5,-200 283.5,-178 162.5,-178"/>
<text text-anchor="start" x="165.5" y="-186.2" font-family="Helvetica,sans-Serif" font-size="11.00">varchar[2147483647]</text>
<polygon fill="none" stroke="black" points="10.5,-156 10.5,-178 162.5,-178 162.5,-156 10.5,-156"/>
<text text-anchor="start" x="30.5" y="-164.2" font-family="Helvetica,sans-Serif" font-size="11.00">machine_type</text>
<polygon fill="none" stroke="black" points="162.5,-156 162.5,-178 283.5,-178 283.5,-156 162.5,-156"/>
<text text-anchor="start" x="165.5" y="-164.2" font-family="Helvetica,sans-Serif" font-size="11.00">varchar[2147483647]</text>
<polygon fill="none" stroke="black" points="10.5,-134 10.5,-156 162.5,-156 162.5,-134 10.5,-134"/>
<text text-anchor="start" x="30.5" y="-142.2" font-family="Helvetica,sans-Serif" font-size="11.00">model</text>
<polygon fill="none" stroke="black" points="162.5,-134 162.5,-156 283.5,-156 283.5,-134 162.5,-134"/>
<text text-anchor="start" x="165.5" y="-142.2" font-family="Helvetica,sans-Serif" font-size="11.00">varchar[2147483647]</text>
<polygon fill="none" stroke="black" points="10.5,-112 10.5,-134 162.5,-134 162.5,-112 10.5,-112"/>
<text text-anchor="start" x="30.5" y="-120.2" font-family="Helvetica,sans-Serif" font-size="11.00">serial_number</text>
<polygon fill="none" stroke="black" points="162.5,-112 162.5,-134 283.5,-134 283.5,-112 162.5,-112"/>
<text text-anchor="start" x="165.5" y="-120.2" font-family="Helvetica,sans-Serif" font-size="11.00">varchar[2147483647]</text>
<polygon fill="none" stroke="black" points="10.5,-90 10.5,-112 162.5,-112 162.5,-90 10.5,-90"/>
<text text-anchor="start" x="30.5" y="-98.2" font-family="Helvetica,sans-Serif" font-size="11.00">field_replaceable_unit</text>
<polygon fill="none" stroke="black" points="162.5,-90 162.5,-112 283.5,-112 283.5,-90 162.5,-90"/>
<text text-anchor="start" x="165.5" y="-98.2" font-family="Helvetica,sans-Serif" font-size="11.00">varchar[2147483647]</text>
<polygon fill="none" stroke="black" points="10.5,-68 10.5,-90 162.5,-90 162.5,-68 10.5,-68"/>
<text text-anchor="start" x="30.5" y="-76.2" font-family="Helvetica,sans-Serif" font-size="11.00">part_number</text>
<polygon fill="none" stroke="black" points="162.5,-68 162.5,-90 283.5,-90 283.5,-68 162.5,-68"/>
<text text-anchor="start" x="165.5" y="-76.2" font-family="Helvetica,sans-Serif" font-size="11.00">varchar[2147483647]</text>
<polygon fill="none" stroke="black" points="10.5,-46 10.5,-68 162.5,-68 162.5,-46 10.5,-46"/>
<text text-anchor="start" x="30.5" y="-54.2" font-family="Helvetica,sans-Serif" font-size="11.00">location_led_ems_ref</text>
<polygon fill="none" stroke="black" points="162.5,-46 162.5,-68 283.5,-68 283.5,-46 162.5,-46"/>
<text text-anchor="start" x="165.5" y="-54.2" font-family="Helvetica,sans-Serif" font-size="11.00">varchar[2147483647]</text>
<polygon fill="none" stroke="black" points="10.5,-24 10.5,-46 162.5,-46 162.5,-24 10.5,-24"/>
<text text-anchor="start" x="30.5" y="-32.2" font-family="Helvetica,sans-Serif" font-size="11.00">location_led_state</text>
<polygon fill="none" stroke="black" points="162.5,-24 162.5,-46 283.5,-46 283.5,-24 162.5,-24"/>
<text text-anchor="start" x="165.5" y="-32.2" font-family="Helvetica,sans-Serif" font-size="11.00">varchar[2147483647]</text>
<polygon fill="#ffffff" stroke="none" points="10.5,-6 10.5,-24 91.5,-24 91.5,-6 10.5,-6"/>
<polygon fill="none" stroke="black" points="10.5,-6 10.5,-24 91.5,-24 91.5,-6 10.5,-6"/>
<text text-anchor="start" x="13.5" y="-12.2" font-family="Helvetica,sans-Serif" font-size="11.00">&lt; 0</text>
<polygon fill="#ffffff" stroke="none" points="91.5,-6 91.5,-24 162.5,-24 162.5,-6 91.5,-6"/>
<polygon fill="none" stroke="black" points="91.5,-6 91.5,-24 162.5,-24 162.5,-6 91.5,-6"/>
<text text-anchor="start" x="152.5" y="-12.2" font-family="Helvetica,sans-Serif" font-size="11.00"> &#160;</text>
<polygon fill="#ffffff" stroke="none" points="162.5,-6 162.5,-24 283.5,-24 283.5,-6 162.5,-6"/>
<polygon fill="none" stroke="black" points="162.5,-6 162.5,-24 283.5,-24 283.5,-6 162.5,-6"/>
<text text-anchor="start" x="263.5" y="-12.2" font-family="Helvetica,sans-Serif" font-size="11.00">0 &gt;</text>
<polygon fill="none" stroke="black" stroke-width="2" points="9,-5 9,-487 284,-487 284,-5 9,-5"/>
</a>
</g>
</g>
</g>
</svg>
