<?xml version="1.0" encoding="UTF-8" standalone="no"?>
<!DOCTYPE svg PUBLIC "-//W3C//DTD SVG 1.1//EN"
 "http://www.w3.org/Graphics/SVG/1.1/DTD/svg11.dtd">
<!-- Generated by graphviz version 2.38.0 (20140413.2041)
 -->
<!-- Title: blacklisted_events Pages: 1 -->
<svg width="280pt" height="236pt"
 viewBox="0.00 0.00 280.00 236.00" xmlns="http://www.w3.org/2000/svg" xmlns:xlink="http://www.w3.org/1999/xlink">
<g id="graph0" class="graph" transform="scale(1 1) rotate(0) translate(4 232)">
<title>blacklisted_events</title>
<polygon fill="#ffffff" stroke="none" points="-4,4 -4,-232 276,-232 276,4 -4,4"/>
<!-- blacklisted_events -->
<g id="node1" class="node"><title>blacklisted_events</title>
<g id="a_node1"><a xlink:href="../../tables/blacklisted_events.html" xlink:title="blacklisted_events" target="_top">
<polygon fill="#ffffff" stroke="none" points="8,-4 8,-224 264,-224 264,-4 8,-4"/>
<polygon fill="#f5f5f5" stroke="none" points="10,-200 10,-222 262,-222 262,-200 10,-200"/>
<polygon fill="none" stroke="black" points="10,-200 10,-222 262,-222 262,-200 10,-200"/>
<text text-anchor="start" x="15" y="-209.2" font-family="Helvetica,sans-Serif" font-weight="bold" font-size="11.00">blacklisted_events</text>
<text text-anchor="start" x="223" y="-208.2" font-family="Helvetica,sans-Serif" font-size="11.00">[table]</text>
<polygon fill="none" stroke="black" points="10,-178 10,-200 141,-200 141,-178 10,-178"/>
<image xlink:href="../../images/primaryKeys.png" width="11px" height="12px" preserveAspectRatio="xMinYMin meet" x="15" y="-195"/>
<text text-anchor="start" x="30" y="-186.2" font-family="Helvetica,sans-Serif" font-size="11.00">id</text>
<polygon fill="none" stroke="black" points="141,-178 141,-200 262,-200 262,-178 141,-178"/>
<text text-anchor="start" x="144" y="-186.2" font-family="Helvetica,sans-Serif" font-size="11.00">bigserial[19]</text>
<polygon fill="none" stroke="black" points="10,-156 10,-178 141,-178 141,-156 10,-156"/>
<text text-anchor="start" x="30" y="-164.2" font-family="Helvetica,sans-Serif" font-size="11.00">event_name</text>
<polygon fill="none" stroke="black" points="141,-156 141,-178 262,-178 262,-156 141,-156"/>
<text text-anchor="start" x="144" y="-164.2" font-family="Helvetica,sans-Serif" font-size="11.00">varchar[2147483647]</text>
<polygon fill="none" stroke="black" points="10,-134 10,-156 141,-156 141,-134 10,-134"/>
<text text-anchor="start" x="30" y="-142.2" font-family="Helvetica,sans-Serif" font-size="11.00">provider_model</text>
<polygon fill="none" stroke="black" points="141,-134 141,-156 262,-156 262,-134 141,-134"/>
<text text-anchor="start" x="144" y="-142.2" font-family="Helvetica,sans-Serif" font-size="11.00">varchar[2147483647]</text>
<polygon fill="#ffffff" stroke="none" points="10,-112 10,-134 141,-134 141,-112 10,-112"/>
<polygon fill="none" stroke="black" points="10,-112 10,-134 141,-134 141,-112 10,-112"/>
<text text-anchor="start" x="30" y="-120.2" font-family="Helvetica,sans-Serif" font-size="11.00">ems_id</text>
<polygon fill="none" stroke="black" points="141,-112 141,-134 262,-134 262,-112 141,-112"/>
<text text-anchor="start" x="144" y="-120.2" font-family="Helvetica,sans-Serif" font-size="11.00">int8[19]</text>
<polygon fill="none" stroke="black" points="10,-90 10,-112 141,-112 141,-90 10,-90"/>
<text text-anchor="start" x="30" y="-98.2" font-family="Helvetica,sans-Serif" font-size="11.00">system</text>
<polygon fill="none" stroke="black" points="141,-90 141,-112 262,-112 262,-90 141,-90"/>
<text text-anchor="start" x="144" y="-98.2" font-family="Helvetica,sans-Serif" font-size="11.00">bool[1]</text>
<polygon fill="#ffffff" stroke="none" points="10,-68 10,-90 141,-90 141,-68 10,-68"/>
<polygon fill="none" stroke="black" points="10,-68 10,-90 141,-90 141,-68 10,-68"/>
<text text-anchor="start" x="30" y="-76.2" font-family="Helvetica,sans-Serif" font-size="11.00">enabled</text>
<polygon fill="none" stroke="black" points="141,-68 141,-90 262,-90 262,-68 141,-68"/>
<text text-anchor="start" x="144" y="-76.2" font-family="Helvetica,sans-Serif" font-size="11.00">bool[1]</text>
<polygon fill="none" stroke="black" points="10,-46 10,-68 141,-68 141,-46 10,-46"/>
<text text-anchor="start" x="30" y="-54.2" font-family="Helvetica,sans-Serif" font-size="11.00">created_at</text>
<polygon fill="none" stroke="black" points="141,-46 141,-68 262,-68 262,-46 141,-46"/>
<text text-anchor="start" x="144" y="-54.2" font-family="Helvetica,sans-Serif" font-size="11.00">timestamp[29,6]</text>
<polygon fill="none" stroke="black" points="10,-24 10,-46 141,-46 141,-24 10,-24"/>
<text text-anchor="start" x="30" y="-32.2" font-family="Helvetica,sans-Serif" font-size="11.00">updated_at</text>
<polygon fill="none" stroke="black" points="141,-24 141,-46 262,-46 262,-24 141,-24"/>
<text text-anchor="start" x="144" y="-32.2" font-family="Helvetica,sans-Serif" font-size="11.00">timestamp[29,6]</text>
<polygon fill="#ffffff" stroke="none" points="10,-6 10,-24 80,-24 80,-6 10,-6"/>
<polygon fill="none" stroke="black" points="10,-6 10,-24 80,-24 80,-6 10,-6"/>
<text text-anchor="start" x="13" y="-12.2" font-family="Helvetica,sans-Serif" font-size="11.00">&lt; 0</text>
<polygon fill="#ffffff" stroke="none" points="80,-6 80,-24 141,-24 141,-6 80,-6"/>
<polygon fill="none" stroke="black" points="80,-6 80,-24 141,-24 141,-6 80,-6"/>
<text text-anchor="start" x="131" y="-12.2" font-family="Helvetica,sans-Serif" font-size="11.00"> &#160;</text>
<polygon fill="#ffffff" stroke="none" points="141,-6 141,-24 262,-24 262,-6 141,-6"/>
<polygon fill="none" stroke="black" points="141,-6 141,-24 262,-24 262,-6 141,-6"/>
<text text-anchor="start" x="242" y="-12.2" font-family="Helvetica,sans-Serif" font-size="11.00">0 &gt;</text>
<polygon fill="none" stroke="black" stroke-width="2" points="9,-5 9,-223 263,-223 263,-5 9,-5"/>
</a>
</g>
</g>
</g>
</svg>
