<?xml version="1.0" encoding="UTF-8" standalone="no"?>
<!DOCTYPE svg PUBLIC "-//W3C//DTD SVG 1.1//EN"
 "http://www.w3.org/Graphics/SVG/1.1/DTD/svg11.dtd">
<!-- Generated by graphviz version 2.38.0 (20140413.2041)
 -->
<!-- Title: cloud_volume_types Pages: 1 -->
<svg width="289pt" height="280pt"
 viewBox="0.00 0.00 289.00 280.00" xmlns="http://www.w3.org/2000/svg" xmlns:xlink="http://www.w3.org/1999/xlink">
<g id="graph0" class="graph" transform="scale(1 1) rotate(0) translate(4 276)">
<title>cloud_volume_types</title>
<polygon fill="#ffffff" stroke="none" points="-4,4 -4,-276 285,-276 285,4 -4,4"/>
<!-- cloud_volume_types -->
<g id="node1" class="node"><title>cloud_volume_types</title>
<g id="a_node1"><a xlink:href="../../tables/cloud_volume_types.html" xlink:title="cloud_volume_types" target="_top">
<polygon fill="#ffffff" stroke="none" points="8,-4 8,-268 273,-268 273,-4 8,-4"/>
<polygon fill="#f5f5f5" stroke="none" points="10.5,-244 10.5,-266 271.5,-266 271.5,-244 10.5,-244"/>
<polygon fill="none" stroke="black" points="10.5,-244 10.5,-266 271.5,-266 271.5,-244 10.5,-244"/>
<text text-anchor="start" x="15.5" y="-253.2" font-family="Helvetica,sans-Serif" font-weight="bold" font-size="11.00">cloud_volume_types</text>
<text text-anchor="start" x="232.5" y="-252.2" font-family="Helvetica,sans-Serif" font-size="11.00">[table]</text>
<polygon fill="none" stroke="black" points="10.5,-222 10.5,-244 150.5,-244 150.5,-222 10.5,-222"/>
<image xlink:href="../../images/primaryKeys.png" width="11px" height="12px" preserveAspectRatio="xMinYMin meet" x="15.5" y="-239"/>
<text text-anchor="start" x="30.5" y="-230.2" font-family="Helvetica,sans-Serif" font-size="11.00">id</text>
<polygon fill="none" stroke="black" points="150.5,-222 150.5,-244 271.5,-244 271.5,-222 150.5,-222"/>
<text text-anchor="start" x="153.5" y="-230.2" font-family="Helvetica,sans-Serif" font-size="11.00">bigserial[19]</text>
<polygon fill="none" stroke="black" points="10.5,-200 10.5,-222 150.5,-222 150.5,-200 10.5,-200"/>
<text text-anchor="start" x="30.5" y="-208.2" font-family="Helvetica,sans-Serif" font-size="11.00">description</text>
<polygon fill="none" stroke="black" points="150.5,-200 150.5,-222 271.5,-222 271.5,-200 150.5,-200"/>
<text text-anchor="start" x="153.5" y="-208.2" font-family="Helvetica,sans-Serif" font-size="11.00">text[2147483647]</text>
<polygon fill="none" stroke="black" points="10.5,-178 10.5,-200 150.5,-200 150.5,-178 10.5,-178"/>
<text text-anchor="start" x="30.5" y="-186.2" font-family="Helvetica,sans-Serif" font-size="11.00">name</text>
<polygon fill="none" stroke="black" points="150.5,-178 150.5,-200 271.5,-200 271.5,-178 150.5,-178"/>
<text text-anchor="start" x="153.5" y="-186.2" font-family="Helvetica,sans-Serif" font-size="11.00">varchar[2147483647]</text>
<polygon fill="none" stroke="black" points="10.5,-156 10.5,-178 150.5,-178 150.5,-156 10.5,-156"/>
<text text-anchor="start" x="30.5" y="-164.2" font-family="Helvetica,sans-Serif" font-size="11.00">type</text>
<polygon fill="none" stroke="black" points="150.5,-156 150.5,-178 271.5,-178 271.5,-156 150.5,-156"/>
<text text-anchor="start" x="153.5" y="-164.2" font-family="Helvetica,sans-Serif" font-size="11.00">varchar[2147483647]</text>
<polygon fill="none" stroke="black" points="10.5,-134 10.5,-156 150.5,-156 150.5,-134 10.5,-134"/>
<text text-anchor="start" x="30.5" y="-142.2" font-family="Helvetica,sans-Serif" font-size="11.00">backend_name</text>
<polygon fill="none" stroke="black" points="150.5,-134 150.5,-156 271.5,-156 271.5,-134 150.5,-134"/>
<text text-anchor="start" x="153.5" y="-142.2" font-family="Helvetica,sans-Serif" font-size="11.00">varchar[2147483647]</text>
<polygon fill="none" stroke="black" points="10.5,-112 10.5,-134 150.5,-134 150.5,-112 10.5,-112"/>
<text text-anchor="start" x="30.5" y="-120.2" font-family="Helvetica,sans-Serif" font-size="11.00">ems_ref</text>
<polygon fill="none" stroke="black" points="150.5,-112 150.5,-134 271.5,-134 271.5,-112 150.5,-112"/>
<text text-anchor="start" x="153.5" y="-120.2" font-family="Helvetica,sans-Serif" font-size="11.00">varchar[2147483647]</text>
<polygon fill="none" stroke="black" points="10.5,-90 10.5,-112 150.5,-112 150.5,-90 10.5,-90"/>
<text text-anchor="start" x="30.5" y="-98.2" font-family="Helvetica,sans-Serif" font-size="11.00">ems_id</text>
<polygon fill="none" stroke="black" points="150.5,-90 150.5,-112 271.5,-112 271.5,-90 150.5,-90"/>
<text text-anchor="start" x="153.5" y="-98.2" font-family="Helvetica,sans-Serif" font-size="11.00">int8[19]</text>
<polygon fill="none" stroke="black" points="10.5,-68 10.5,-90 150.5,-90 150.5,-68 10.5,-68"/>
<text text-anchor="start" x="30.5" y="-76.2" font-family="Helvetica,sans-Serif" font-size="11.00">public</text>
<polygon fill="none" stroke="black" points="150.5,-68 150.5,-90 271.5,-90 271.5,-68 150.5,-68"/>
<text text-anchor="start" x="153.5" y="-76.2" font-family="Helvetica,sans-Serif" font-size="11.00">bool[1]</text>
<polygon fill="none" stroke="black" points="10.5,-46 10.5,-68 150.5,-68 150.5,-46 10.5,-46"/>
<text text-anchor="start" x="30.5" y="-54.2" font-family="Helvetica,sans-Serif" font-size="11.00">created_at</text>
<polygon fill="none" stroke="black" points="150.5,-46 150.5,-68 271.5,-68 271.5,-46 150.5,-46"/>
<text text-anchor="start" x="153.5" y="-54.2" font-family="Helvetica,sans-Serif" font-size="11.00">timestamp[29,6]</text>
<polygon fill="none" stroke="black" points="10.5,-24 10.5,-46 150.5,-46 150.5,-24 10.5,-24"/>
<text text-anchor="start" x="30.5" y="-32.2" font-family="Helvetica,sans-Serif" font-size="11.00">updated_at</text>
<polygon fill="none" stroke="black" points="150.5,-24 150.5,-46 271.5,-46 271.5,-24 150.5,-24"/>
<text text-anchor="start" x="153.5" y="-32.2" font-family="Helvetica,sans-Serif" font-size="11.00">timestamp[29,6]</text>
<polygon fill="#ffffff" stroke="none" points="10.5,-6 10.5,-24 85.5,-24 85.5,-6 10.5,-6"/>
<polygon fill="none" stroke="black" points="10.5,-6 10.5,-24 85.5,-24 85.5,-6 10.5,-6"/>
<text text-anchor="start" x="13.5" y="-12.2" font-family="Helvetica,sans-Serif" font-size="11.00">&lt; 0</text>
<polygon fill="#ffffff" stroke="none" points="85.5,-6 85.5,-24 150.5,-24 150.5,-6 85.5,-6"/>
<polygon fill="none" stroke="black" points="85.5,-6 85.5,-24 150.5,-24 150.5,-6 85.5,-6"/>
<text text-anchor="start" x="140.5" y="-12.2" font-family="Helvetica,sans-Serif" font-size="11.00"> &#160;</text>
<polygon fill="#ffffff" stroke="none" points="150.5,-6 150.5,-24 271.5,-24 271.5,-6 150.5,-6"/>
<polygon fill="none" stroke="black" points="150.5,-6 150.5,-24 271.5,-24 271.5,-6 150.5,-6"/>
<text text-anchor="start" x="251.5" y="-12.2" font-family="Helvetica,sans-Serif" font-size="11.00">0 &gt;</text>
<polygon fill="none" stroke="black" stroke-width="2" points="9,-5 9,-267 272,-267 272,-5 9,-5"/>
</a>
</g>
</g>
</g>
</svg>
