<?xml version="1.0" encoding="UTF-8" standalone="no"?>
<!DOCTYPE svg PUBLIC "-//W3C//DTD SVG 1.1//EN"
 "http://www.w3.org/Graphics/SVG/1.1/DTD/svg11.dtd">
<!-- Generated by graphviz version 2.38.0 (20140413.2041)
 -->
<!-- Title: custom_buttons Pages: 1 -->
<svg width="312pt" height="390pt"
 viewBox="0.00 0.00 312.00 390.00" xmlns="http://www.w3.org/2000/svg" xmlns:xlink="http://www.w3.org/1999/xlink">
<g id="graph0" class="graph" transform="scale(1 1) rotate(0) translate(4 386)">
<title>custom_buttons</title>
<polygon fill="#ffffff" stroke="none" points="-4,4 -4,-386 308,-386 308,4 -4,4"/>
<!-- custom_buttons -->
<g id="node1" class="node"><title>custom_buttons</title>
<g id="a_node1"><a xlink:href="../../tables/custom_buttons.html" xlink:title="custom_buttons" target="_top">
<polygon fill="#ffffff" stroke="none" points="8,-4 8,-378 296,-378 296,-4 8,-4"/>
<polygon fill="#f5f5f5" stroke="none" points="10,-354 10,-376 294,-376 294,-354 10,-354"/>
<polygon fill="none" stroke="black" points="10,-354 10,-376 294,-376 294,-354 10,-354"/>
<text text-anchor="start" x="15" y="-363.2" font-family="Helvetica,sans-Serif" font-weight="bold" font-size="11.00">custom_buttons</text>
<text text-anchor="start" x="255" y="-362.2" font-family="Helvetica,sans-Serif" font-size="11.00">[table]</text>
<polygon fill="none" stroke="black" points="10,-332 10,-354 173,-354 173,-332 10,-332"/>
<image xlink:href="../../images/primaryKeys.png" width="11px" height="12px" preserveAspectRatio="xMinYMin meet" x="15" y="-349"/>
<text text-anchor="start" x="30" y="-340.2" font-family="Helvetica,sans-Serif" font-size="11.00">id</text>
<polygon fill="none" stroke="black" points="173,-332 173,-354 294,-354 294,-332 173,-332"/>
<text text-anchor="start" x="176" y="-340.2" font-family="Helvetica,sans-Serif" font-size="11.00">bigserial[19]</text>
<polygon fill="none" stroke="black" points="10,-310 10,-332 173,-332 173,-310 10,-310"/>
<text text-anchor="start" x="30" y="-318.2" font-family="Helvetica,sans-Serif" font-size="11.00">guid</text>
<polygon fill="none" stroke="black" points="173,-310 173,-332 294,-332 294,-310 173,-310"/>
<text text-anchor="start" x="176" y="-318.2" font-family="Helvetica,sans-Serif" font-size="11.00">varchar[2147483647]</text>
<polygon fill="none" stroke="black" points="10,-288 10,-310 173,-310 173,-288 10,-288"/>
<text text-anchor="start" x="30" y="-296.2" font-family="Helvetica,sans-Serif" font-size="11.00">description</text>
<polygon fill="none" stroke="black" points="173,-288 173,-310 294,-310 294,-288 173,-288"/>
<text text-anchor="start" x="176" y="-296.2" font-family="Helvetica,sans-Serif" font-size="11.00">varchar[2147483647]</text>
<polygon fill="none" stroke="black" points="10,-266 10,-288 173,-288 173,-266 10,-266"/>
<text text-anchor="start" x="30" y="-274.2" font-family="Helvetica,sans-Serif" font-size="11.00">applies_to_class</text>
<polygon fill="none" stroke="black" points="173,-266 173,-288 294,-288 294,-266 173,-266"/>
<text text-anchor="start" x="176" y="-274.2" font-family="Helvetica,sans-Serif" font-size="11.00">varchar[2147483647]</text>
<polygon fill="none" stroke="black" points="10,-244 10,-266 173,-266 173,-244 10,-244"/>
<text text-anchor="start" x="30" y="-252.2" font-family="Helvetica,sans-Serif" font-size="11.00">visibility_expression</text>
<polygon fill="none" stroke="black" points="173,-244 173,-266 294,-266 294,-244 173,-244"/>
<text text-anchor="start" x="176" y="-252.2" font-family="Helvetica,sans-Serif" font-size="11.00">text[2147483647]</text>
<polygon fill="none" stroke="black" points="10,-222 10,-244 173,-244 173,-222 10,-222"/>
<text text-anchor="start" x="30" y="-230.2" font-family="Helvetica,sans-Serif" font-size="11.00">options</text>
<polygon fill="none" stroke="black" points="173,-222 173,-244 294,-244 294,-222 173,-222"/>
<text text-anchor="start" x="176" y="-230.2" font-family="Helvetica,sans-Serif" font-size="11.00">text[2147483647]</text>
<polygon fill="none" stroke="black" points="10,-200 10,-222 173,-222 173,-200 10,-200"/>
<text text-anchor="start" x="30" y="-208.2" font-family="Helvetica,sans-Serif" font-size="11.00">userid</text>
<polygon fill="none" stroke="black" points="173,-200 173,-222 294,-222 294,-200 173,-200"/>
<text text-anchor="start" x="176" y="-208.2" font-family="Helvetica,sans-Serif" font-size="11.00">varchar[2147483647]</text>
<polygon fill="none" stroke="black" points="10,-178 10,-200 173,-200 173,-178 10,-178"/>
<text text-anchor="start" x="30" y="-186.2" font-family="Helvetica,sans-Serif" font-size="11.00">wait_for_complete</text>
<polygon fill="none" stroke="black" points="173,-178 173,-200 294,-200 294,-178 173,-178"/>
<text text-anchor="start" x="176" y="-186.2" font-family="Helvetica,sans-Serif" font-size="11.00">bool[1]</text>
<polygon fill="none" stroke="black" points="10,-156 10,-178 173,-178 173,-156 10,-156"/>
<text text-anchor="start" x="30" y="-164.2" font-family="Helvetica,sans-Serif" font-size="11.00">created_on</text>
<polygon fill="none" stroke="black" points="173,-156 173,-178 294,-178 294,-156 173,-156"/>
<text text-anchor="start" x="176" y="-164.2" font-family="Helvetica,sans-Serif" font-size="11.00">timestamp[29,6]</text>
<polygon fill="none" stroke="black" points="10,-134 10,-156 173,-156 173,-134 10,-134"/>
<text text-anchor="start" x="30" y="-142.2" font-family="Helvetica,sans-Serif" font-size="11.00">updated_on</text>
<polygon fill="none" stroke="black" points="173,-134 173,-156 294,-156 294,-134 173,-134"/>
<text text-anchor="start" x="176" y="-142.2" font-family="Helvetica,sans-Serif" font-size="11.00">timestamp[29,6]</text>
<polygon fill="none" stroke="black" points="10,-112 10,-134 173,-134 173,-112 10,-112"/>
<text text-anchor="start" x="30" y="-120.2" font-family="Helvetica,sans-Serif" font-size="11.00">name</text>
<polygon fill="none" stroke="black" points="173,-112 173,-134 294,-134 294,-112 173,-112"/>
<text text-anchor="start" x="176" y="-120.2" font-family="Helvetica,sans-Serif" font-size="11.00">varchar[2147483647]</text>
<polygon fill="none" stroke="black" points="10,-90 10,-112 173,-112 173,-90 10,-90"/>
<text text-anchor="start" x="30" y="-98.2" font-family="Helvetica,sans-Serif" font-size="11.00">visibility</text>
<polygon fill="none" stroke="black" points="173,-90 173,-112 294,-112 294,-90 173,-90"/>
<text text-anchor="start" x="176" y="-98.2" font-family="Helvetica,sans-Serif" font-size="11.00">text[2147483647]</text>
<polygon fill="none" stroke="black" points="10,-68 10,-90 173,-90 173,-68 10,-68"/>
<text text-anchor="start" x="30" y="-76.2" font-family="Helvetica,sans-Serif" font-size="11.00">applies_to_id</text>
<polygon fill="none" stroke="black" points="173,-68 173,-90 294,-90 294,-68 173,-68"/>
<text text-anchor="start" x="176" y="-76.2" font-family="Helvetica,sans-Serif" font-size="11.00">int8[19]</text>
<polygon fill="none" stroke="black" points="10,-46 10,-68 173,-68 173,-46 10,-46"/>
<text text-anchor="start" x="30" y="-54.2" font-family="Helvetica,sans-Serif" font-size="11.00">enablement_expression</text>
<polygon fill="none" stroke="black" points="173,-46 173,-68 294,-68 294,-46 173,-46"/>
<text text-anchor="start" x="176" y="-54.2" font-family="Helvetica,sans-Serif" font-size="11.00">text[2147483647]</text>
<polygon fill="none" stroke="black" points="10,-24 10,-46 173,-46 173,-24 10,-24"/>
<text text-anchor="start" x="30" y="-32.2" font-family="Helvetica,sans-Serif" font-size="11.00">disabled_text</text>
<polygon fill="none" stroke="black" points="173,-24 173,-46 294,-46 294,-24 173,-24"/>
<text text-anchor="start" x="176" y="-32.2" font-family="Helvetica,sans-Serif" font-size="11.00">text[2147483647]</text>
<polygon fill="#ffffff" stroke="none" points="10,-6 10,-24 96,-24 96,-6 10,-6"/>
<polygon fill="none" stroke="black" points="10,-6 10,-24 96,-24 96,-6 10,-6"/>
<text text-anchor="start" x="13" y="-12.2" font-family="Helvetica,sans-Serif" font-size="11.00">&lt; 0</text>
<polygon fill="#ffffff" stroke="none" points="96,-6 96,-24 173,-24 173,-6 96,-6"/>
<polygon fill="none" stroke="black" points="96,-6 96,-24 173,-24 173,-6 96,-6"/>
<text text-anchor="start" x="163" y="-12.2" font-family="Helvetica,sans-Serif" font-size="11.00"> &#160;</text>
<polygon fill="#ffffff" stroke="none" points="173,-6 173,-24 294,-24 294,-6 173,-6"/>
<polygon fill="none" stroke="black" points="173,-6 173,-24 294,-24 294,-6 173,-6"/>
<text text-anchor="start" x="274" y="-12.2" font-family="Helvetica,sans-Serif" font-size="11.00">0 &gt;</text>
<polygon fill="none" stroke="black" stroke-width="2" points="9,-5 9,-377 295,-377 295,-5 9,-5"/>
</a>
</g>
</g>
</g>
</svg>
