<?xml version="1.0" encoding="UTF-8" standalone="no"?>
<!DOCTYPE svg PUBLIC "-//W3C//DTD SVG 1.1//EN"
 "http://www.w3.org/Graphics/SVG/1.1/DTD/svg11.dtd">
<!-- Generated by graphviz version 2.38.0 (20140413.2041)
 -->
<!-- Title: customization_specs Pages: 1 -->
<svg width="293pt" height="258pt"
 viewBox="0.00 0.00 293.00 258.00" xmlns="http://www.w3.org/2000/svg" xmlns:xlink="http://www.w3.org/1999/xlink">
<g id="graph0" class="graph" transform="scale(1 1) rotate(0) translate(4 254)">
<title>customization_specs</title>
<polygon fill="#ffffff" stroke="none" points="-4,4 -4,-254 289,-254 289,4 -4,4"/>
<!-- customization_specs -->
<g id="node1" class="node"><title>customization_specs</title>
<g id="a_node1"><a xlink:href="../../tables/customization_specs.html" xlink:title="customization_specs" target="_top">
<polygon fill="#ffffff" stroke="none" points="8,-4 8,-246 277,-246 277,-4 8,-4"/>
<polygon fill="#f5f5f5" stroke="none" points="10.5,-222 10.5,-244 275.5,-244 275.5,-222 10.5,-222"/>
<polygon fill="none" stroke="black" points="10.5,-222 10.5,-244 275.5,-244 275.5,-222 10.5,-222"/>
<text text-anchor="start" x="15.5" y="-231.2" font-family="Helvetica,sans-Serif" font-weight="bold" font-size="11.00">customization_specs</text>
<text text-anchor="start" x="236.5" y="-230.2" font-family="Helvetica,sans-Serif" font-size="11.00">[table]</text>
<polygon fill="none" stroke="black" points="10.5,-200 10.5,-222 154.5,-222 154.5,-200 10.5,-200"/>
<image xlink:href="../../images/primaryKeys.png" width="11px" height="12px" preserveAspectRatio="xMinYMin meet" x="15.5" y="-217"/>
<text text-anchor="start" x="30.5" y="-208.2" font-family="Helvetica,sans-Serif" font-size="11.00">id</text>
<polygon fill="none" stroke="black" points="154.5,-200 154.5,-222 275.5,-222 275.5,-200 154.5,-200"/>
<text text-anchor="start" x="157.5" y="-208.2" font-family="Helvetica,sans-Serif" font-size="11.00">bigserial[19]</text>
<polygon fill="none" stroke="black" points="10.5,-178 10.5,-200 154.5,-200 154.5,-178 10.5,-178"/>
<text text-anchor="start" x="30.5" y="-186.2" font-family="Helvetica,sans-Serif" font-size="11.00">name</text>
<polygon fill="none" stroke="black" points="154.5,-178 154.5,-200 275.5,-200 275.5,-178 154.5,-178"/>
<text text-anchor="start" x="157.5" y="-186.2" font-family="Helvetica,sans-Serif" font-size="11.00">varchar[2147483647]</text>
<polygon fill="#ffffff" stroke="none" points="10.5,-156 10.5,-178 154.5,-178 154.5,-156 10.5,-156"/>
<polygon fill="none" stroke="black" points="10.5,-156 10.5,-178 154.5,-178 154.5,-156 10.5,-156"/>
<text text-anchor="start" x="30.5" y="-164.2" font-family="Helvetica,sans-Serif" font-size="11.00">ems_id</text>
<polygon fill="none" stroke="black" points="154.5,-156 154.5,-178 275.5,-178 275.5,-156 154.5,-156"/>
<text text-anchor="start" x="157.5" y="-164.2" font-family="Helvetica,sans-Serif" font-size="11.00">int8[19]</text>
<polygon fill="none" stroke="black" points="10.5,-134 10.5,-156 154.5,-156 154.5,-134 10.5,-134"/>
<text text-anchor="start" x="30.5" y="-142.2" font-family="Helvetica,sans-Serif" font-size="11.00">typ</text>
<polygon fill="none" stroke="black" points="154.5,-134 154.5,-156 275.5,-156 275.5,-134 154.5,-134"/>
<text text-anchor="start" x="157.5" y="-142.2" font-family="Helvetica,sans-Serif" font-size="11.00">varchar[2147483647]</text>
<polygon fill="none" stroke="black" points="10.5,-112 10.5,-134 154.5,-134 154.5,-112 10.5,-112"/>
<text text-anchor="start" x="30.5" y="-120.2" font-family="Helvetica,sans-Serif" font-size="11.00">description</text>
<polygon fill="none" stroke="black" points="154.5,-112 154.5,-134 275.5,-134 275.5,-112 154.5,-112"/>
<text text-anchor="start" x="157.5" y="-120.2" font-family="Helvetica,sans-Serif" font-size="11.00">text[2147483647]</text>
<polygon fill="none" stroke="black" points="10.5,-90 10.5,-112 154.5,-112 154.5,-90 10.5,-90"/>
<text text-anchor="start" x="30.5" y="-98.2" font-family="Helvetica,sans-Serif" font-size="11.00">last_update_time</text>
<polygon fill="none" stroke="black" points="154.5,-90 154.5,-112 275.5,-112 275.5,-90 154.5,-90"/>
<text text-anchor="start" x="157.5" y="-98.2" font-family="Helvetica,sans-Serif" font-size="11.00">timestamp[29,6]</text>
<polygon fill="none" stroke="black" points="10.5,-68 10.5,-90 154.5,-90 154.5,-68 10.5,-68"/>
<text text-anchor="start" x="30.5" y="-76.2" font-family="Helvetica,sans-Serif" font-size="11.00">spec</text>
<polygon fill="none" stroke="black" points="154.5,-68 154.5,-90 275.5,-90 275.5,-68 154.5,-68"/>
<text text-anchor="start" x="157.5" y="-76.2" font-family="Helvetica,sans-Serif" font-size="11.00">text[2147483647]</text>
<polygon fill="none" stroke="black" points="10.5,-46 10.5,-68 154.5,-68 154.5,-46 10.5,-46"/>
<text text-anchor="start" x="30.5" y="-54.2" font-family="Helvetica,sans-Serif" font-size="11.00">created_at</text>
<polygon fill="none" stroke="black" points="154.5,-46 154.5,-68 275.5,-68 275.5,-46 154.5,-46"/>
<text text-anchor="start" x="157.5" y="-54.2" font-family="Helvetica,sans-Serif" font-size="11.00">timestamp[29,6]</text>
<polygon fill="none" stroke="black" points="10.5,-24 10.5,-46 154.5,-46 154.5,-24 10.5,-24"/>
<text text-anchor="start" x="30.5" y="-32.2" font-family="Helvetica,sans-Serif" font-size="11.00">updated_at</text>
<polygon fill="none" stroke="black" points="154.5,-24 154.5,-46 275.5,-46 275.5,-24 154.5,-24"/>
<text text-anchor="start" x="157.5" y="-32.2" font-family="Helvetica,sans-Serif" font-size="11.00">timestamp[29,6]</text>
<polygon fill="#ffffff" stroke="none" points="10.5,-6 10.5,-24 87.5,-24 87.5,-6 10.5,-6"/>
<polygon fill="none" stroke="black" points="10.5,-6 10.5,-24 87.5,-24 87.5,-6 10.5,-6"/>
<text text-anchor="start" x="13.5" y="-12.2" font-family="Helvetica,sans-Serif" font-size="11.00">&lt; 0</text>
<polygon fill="#ffffff" stroke="none" points="87.5,-6 87.5,-24 154.5,-24 154.5,-6 87.5,-6"/>
<polygon fill="none" stroke="black" points="87.5,-6 87.5,-24 154.5,-24 154.5,-6 87.5,-6"/>
<text text-anchor="start" x="144.5" y="-12.2" font-family="Helvetica,sans-Serif" font-size="11.00"> &#160;</text>
<polygon fill="#ffffff" stroke="none" points="154.5,-6 154.5,-24 275.5,-24 275.5,-6 154.5,-6"/>
<polygon fill="none" stroke="black" points="154.5,-6 154.5,-24 275.5,-24 275.5,-6 154.5,-6"/>
<text text-anchor="start" x="255.5" y="-12.2" font-family="Helvetica,sans-Serif" font-size="11.00">0 &gt;</text>
<polygon fill="none" stroke="black" stroke-width="2" points="9,-5 9,-245 276,-245 276,-5 9,-5"/>
</a>
</g>
</g>
</g>
</svg>
