<?xml version="1.0" encoding="UTF-8" standalone="no"?>
<!DOCTYPE svg PUBLIC "-//W3C//DTD SVG 1.1//EN"
 "http://www.w3.org/Graphics/SVG/1.1/DTD/svg11.dtd">
<!-- Generated by graphviz version 2.38.0 (20140413.2041)
 -->
<!-- Title: dialog_field_associations Pages: 1 -->
<svg width="266pt" height="126pt"
 viewBox="0.00 0.00 266.00 126.00" xmlns="http://www.w3.org/2000/svg" xmlns:xlink="http://www.w3.org/1999/xlink">
<g id="graph0" class="graph" transform="scale(1 1) rotate(0) translate(4 122)">
<title>dialog_field_associations</title>
<polygon fill="#ffffff" stroke="none" points="-4,4 -4,-122 262,-122 262,4 -4,4"/>
<!-- dialog_field_associations -->
<g id="node1" class="node"><title>dialog_field_associations</title>
<g id="a_node1"><a xlink:href="../../tables/dialog_field_associations.html" xlink:title="dialog_field_associations" target="_top">
<polygon fill="#ffffff" stroke="none" points="8,-4 8,-114 250,-114 250,-4 8,-4"/>
<polygon fill="#f5f5f5" stroke="none" points="10,-90 10,-112 248,-112 248,-90 10,-90"/>
<polygon fill="none" stroke="black" points="10,-90 10,-112 248,-112 248,-90 10,-90"/>
<text text-anchor="start" x="15" y="-99.2" font-family="Helvetica,sans-Serif" font-weight="bold" font-size="11.00">dialog_field_associations</text>
<text text-anchor="start" x="209" y="-98.2" font-family="Helvetica,sans-Serif" font-size="11.00">[table]</text>
<polygon fill="none" stroke="black" points="10,-68 10,-90 177,-90 177,-68 10,-68"/>
<image xlink:href="../../images/primaryKeys.png" width="11px" height="12px" preserveAspectRatio="xMinYMin meet" x="15" y="-85"/>
<text text-anchor="start" x="30" y="-76.2" font-family="Helvetica,sans-Serif" font-size="11.00">id</text>
<polygon fill="none" stroke="black" points="177,-68 177,-90 248,-90 248,-68 177,-68"/>
<text text-anchor="start" x="180" y="-76.2" font-family="Helvetica,sans-Serif" font-size="11.00">bigserial[19]</text>
<polygon fill="none" stroke="black" points="10,-46 10,-68 177,-68 177,-46 10,-46"/>
<text text-anchor="start" x="30" y="-54.2" font-family="Helvetica,sans-Serif" font-size="11.00">trigger_id</text>
<polygon fill="none" stroke="black" points="177,-46 177,-68 248,-68 248,-46 177,-46"/>
<text text-anchor="start" x="180" y="-54.2" font-family="Helvetica,sans-Serif" font-size="11.00">int8[19]</text>
<polygon fill="none" stroke="black" points="10,-24 10,-46 177,-46 177,-24 10,-24"/>
<text text-anchor="start" x="30" y="-32.2" font-family="Helvetica,sans-Serif" font-size="11.00">respond_id</text>
<polygon fill="none" stroke="black" points="177,-24 177,-46 248,-46 248,-24 177,-24"/>
<text text-anchor="start" x="180" y="-32.2" font-family="Helvetica,sans-Serif" font-size="11.00">int8[19]</text>
<polygon fill="#ffffff" stroke="none" points="10,-6 10,-24 98,-24 98,-6 10,-6"/>
<polygon fill="none" stroke="black" points="10,-6 10,-24 98,-24 98,-6 10,-6"/>
<text text-anchor="start" x="13" y="-12.2" font-family="Helvetica,sans-Serif" font-size="11.00">&lt; 0</text>
<polygon fill="#ffffff" stroke="none" points="98,-6 98,-24 177,-24 177,-6 98,-6"/>
<polygon fill="none" stroke="black" points="98,-6 98,-24 177,-24 177,-6 98,-6"/>
<text text-anchor="start" x="167" y="-12.2" font-family="Helvetica,sans-Serif" font-size="11.00"> &#160;</text>
<polygon fill="#ffffff" stroke="none" points="177,-6 177,-24 248,-24 248,-6 177,-6"/>
<polygon fill="none" stroke="black" points="177,-6 177,-24 248,-24 248,-6 177,-6"/>
<text text-anchor="start" x="228" y="-12.2" font-family="Helvetica,sans-Serif" font-size="11.00">0 &gt;</text>
<polygon fill="none" stroke="black" stroke-width="2" points="9,-5 9,-113 249,-113 249,-5 9,-5"/>
</a>
</g>
</g>
</g>
</svg>
