<?xml version="1.0" encoding="UTF-8" standalone="no"?>
<!DOCTYPE svg PUBLIC "-//W3C//DTD SVG 1.1//EN"
 "http://www.w3.org/Graphics/SVG/1.1/DTD/svg11.dtd">
<!-- Generated by graphviz version 2.38.0 (20140413.2041)
 -->
<!-- Title: drift_states Pages: 1 -->
<svg width="254pt" height="170pt"
 viewBox="0.00 0.00 254.00 170.00" xmlns="http://www.w3.org/2000/svg" xmlns:xlink="http://www.w3.org/1999/xlink">
<g id="graph0" class="graph" transform="scale(1 1) rotate(0) translate(4 166)">
<title>drift_states</title>
<polygon fill="#ffffff" stroke="none" points="-4,4 -4,-166 250,-166 250,4 -4,4"/>
<!-- drift_states -->
<g id="node1" class="node"><title>drift_states</title>
<g id="a_node1"><a xlink:href="../../tables/drift_states.html" xlink:title="drift_states" target="_top">
<polygon fill="#ffffff" stroke="none" points="8,-4 8,-158 238,-158 238,-4 8,-4"/>
<polygon fill="#f5f5f5" stroke="none" points="10,-134 10,-156 236,-156 236,-134 10,-134"/>
<polygon fill="none" stroke="black" points="10,-134 10,-156 236,-156 236,-134 10,-134"/>
<text text-anchor="start" x="15" y="-143.2" font-family="Helvetica,sans-Serif" font-weight="bold" font-size="11.00">drift_states</text>
<text text-anchor="start" x="197" y="-142.2" font-family="Helvetica,sans-Serif" font-size="11.00">[table]</text>
<polygon fill="none" stroke="black" points="10,-112 10,-134 115,-134 115,-112 10,-112"/>
<image xlink:href="../../images/primaryKeys.png" width="11px" height="12px" preserveAspectRatio="xMinYMin meet" x="15" y="-129"/>
<text text-anchor="start" x="30" y="-120.2" font-family="Helvetica,sans-Serif" font-size="11.00">id</text>
<polygon fill="none" stroke="black" points="115,-112 115,-134 236,-134 236,-112 115,-112"/>
<text text-anchor="start" x="118" y="-120.2" font-family="Helvetica,sans-Serif" font-size="11.00">bigserial[19]</text>
<polygon fill="#ffffff" stroke="none" points="10,-90 10,-112 115,-112 115,-90 10,-90"/>
<polygon fill="none" stroke="black" points="10,-90 10,-112 115,-112 115,-90 10,-90"/>
<text text-anchor="start" x="30" y="-98.2" font-family="Helvetica,sans-Serif" font-size="11.00">timestamp</text>
<polygon fill="none" stroke="black" points="115,-90 115,-112 236,-112 236,-90 115,-90"/>
<text text-anchor="start" x="118" y="-98.2" font-family="Helvetica,sans-Serif" font-size="11.00">timestamp[29,6]</text>
<polygon fill="#ffffff" stroke="none" points="10,-68 10,-90 115,-90 115,-68 10,-68"/>
<polygon fill="none" stroke="black" points="10,-68 10,-90 115,-90 115,-68 10,-68"/>
<text text-anchor="start" x="30" y="-76.2" font-family="Helvetica,sans-Serif" font-size="11.00">resource_id</text>
<polygon fill="none" stroke="black" points="115,-68 115,-90 236,-90 236,-68 115,-68"/>
<text text-anchor="start" x="118" y="-76.2" font-family="Helvetica,sans-Serif" font-size="11.00">int8[19]</text>
<polygon fill="#ffffff" stroke="none" points="10,-46 10,-68 115,-68 115,-46 10,-46"/>
<polygon fill="none" stroke="black" points="10,-46 10,-68 115,-68 115,-46 10,-46"/>
<text text-anchor="start" x="30" y="-54.2" font-family="Helvetica,sans-Serif" font-size="11.00">resource_type</text>
<polygon fill="none" stroke="black" points="115,-46 115,-68 236,-68 236,-46 115,-46"/>
<text text-anchor="start" x="118" y="-54.2" font-family="Helvetica,sans-Serif" font-size="11.00">varchar[2147483647]</text>
<polygon fill="none" stroke="black" points="10,-24 10,-46 115,-46 115,-24 10,-24"/>
<text text-anchor="start" x="30" y="-32.2" font-family="Helvetica,sans-Serif" font-size="11.00">data</text>
<polygon fill="none" stroke="black" points="115,-24 115,-46 236,-46 236,-24 115,-24"/>
<text text-anchor="start" x="118" y="-32.2" font-family="Helvetica,sans-Serif" font-size="11.00">text[2147483647]</text>
<polygon fill="#ffffff" stroke="none" points="10,-6 10,-24 67,-24 67,-6 10,-6"/>
<polygon fill="none" stroke="black" points="10,-6 10,-24 67,-24 67,-6 10,-6"/>
<text text-anchor="start" x="13" y="-12.2" font-family="Helvetica,sans-Serif" font-size="11.00">&lt; 0</text>
<polygon fill="#ffffff" stroke="none" points="67,-6 67,-24 115,-24 115,-6 67,-6"/>
<polygon fill="none" stroke="black" points="67,-6 67,-24 115,-24 115,-6 67,-6"/>
<text text-anchor="start" x="105" y="-12.2" font-family="Helvetica,sans-Serif" font-size="11.00"> &#160;</text>
<polygon fill="#ffffff" stroke="none" points="115,-6 115,-24 236,-24 236,-6 115,-6"/>
<polygon fill="none" stroke="black" points="115,-6 115,-24 236,-24 236,-6 115,-6"/>
<text text-anchor="start" x="216" y="-12.2" font-family="Helvetica,sans-Serif" font-size="11.00">0 &gt;</text>
<polygon fill="none" stroke="black" stroke-width="2" points="9,-5 9,-157 237,-157 237,-5 9,-5"/>
</a>
</g>
</g>
</g>
</svg>
