<?xml version="1.0" encoding="UTF-8" standalone="no"?>
<!DOCTYPE svg PUBLIC "-//W3C//DTD SVG 1.1//EN"
 "http://www.w3.org/Graphics/SVG/1.1/DTD/svg11.dtd">
<!-- Generated by graphviz version 2.38.0 (20140413.2041)
 -->
<!-- Title: ems_folders Pages: 1 -->
<svg width="248pt" height="280pt"
 viewBox="0.00 0.00 248.00 280.00" xmlns="http://www.w3.org/2000/svg" xmlns:xlink="http://www.w3.org/1999/xlink">
<g id="graph0" class="graph" transform="scale(1 1) rotate(0) translate(4 276)">
<title>ems_folders</title>
<polygon fill="#ffffff" stroke="none" points="-4,4 -4,-276 244,-276 244,4 -4,4"/>
<!-- ems_folders -->
<g id="node1" class="node"><title>ems_folders</title>
<g id="a_node1"><a xlink:href="../../tables/ems_folders.html" xlink:title="ems_folders" target="_top">
<polygon fill="#ffffff" stroke="none" points="8,-4 8,-268 232,-268 232,-4 8,-4"/>
<polygon fill="#f5f5f5" stroke="none" points="10,-244 10,-266 230,-266 230,-244 10,-244"/>
<polygon fill="none" stroke="black" points="10,-244 10,-266 230,-266 230,-244 10,-244"/>
<text text-anchor="start" x="15" y="-253.2" font-family="Helvetica,sans-Serif" font-weight="bold" font-size="11.00">ems_folders</text>
<text text-anchor="start" x="191" y="-252.2" font-family="Helvetica,sans-Serif" font-size="11.00">[table]</text>
<polygon fill="none" stroke="black" points="10,-222 10,-244 109,-244 109,-222 10,-222"/>
<image xlink:href="../../images/primaryKeys.png" width="11px" height="12px" preserveAspectRatio="xMinYMin meet" x="15" y="-239"/>
<text text-anchor="start" x="30" y="-230.2" font-family="Helvetica,sans-Serif" font-size="11.00">id</text>
<polygon fill="none" stroke="black" points="109,-222 109,-244 230,-244 230,-222 109,-222"/>
<text text-anchor="start" x="112" y="-230.2" font-family="Helvetica,sans-Serif" font-size="11.00">bigserial[19]</text>
<polygon fill="none" stroke="black" points="10,-200 10,-222 109,-222 109,-200 10,-200"/>
<text text-anchor="start" x="30" y="-208.2" font-family="Helvetica,sans-Serif" font-size="11.00">name</text>
<polygon fill="none" stroke="black" points="109,-200 109,-222 230,-222 230,-200 109,-200"/>
<text text-anchor="start" x="112" y="-208.2" font-family="Helvetica,sans-Serif" font-size="11.00">varchar[2147483647]</text>
<polygon fill="#ffffff" stroke="none" points="10,-178 10,-200 109,-200 109,-178 10,-178"/>
<polygon fill="none" stroke="black" points="10,-178 10,-200 109,-200 109,-178 10,-178"/>
<text text-anchor="start" x="30" y="-186.2" font-family="Helvetica,sans-Serif" font-size="11.00">ems_id</text>
<polygon fill="none" stroke="black" points="109,-178 109,-200 230,-200 230,-178 109,-178"/>
<text text-anchor="start" x="112" y="-186.2" font-family="Helvetica,sans-Serif" font-size="11.00">int8[19]</text>
<polygon fill="none" stroke="black" points="10,-156 10,-178 109,-178 109,-156 10,-156"/>
<text text-anchor="start" x="30" y="-164.2" font-family="Helvetica,sans-Serif" font-size="11.00">created_on</text>
<polygon fill="none" stroke="black" points="109,-156 109,-178 230,-178 230,-156 109,-156"/>
<text text-anchor="start" x="112" y="-164.2" font-family="Helvetica,sans-Serif" font-size="11.00">timestamp[29,6]</text>
<polygon fill="none" stroke="black" points="10,-134 10,-156 109,-156 109,-134 10,-134"/>
<text text-anchor="start" x="30" y="-142.2" font-family="Helvetica,sans-Serif" font-size="11.00">updated_on</text>
<polygon fill="none" stroke="black" points="109,-134 109,-156 230,-156 230,-134 109,-134"/>
<text text-anchor="start" x="112" y="-142.2" font-family="Helvetica,sans-Serif" font-size="11.00">timestamp[29,6]</text>
<polygon fill="#ffffff" stroke="none" points="10,-112 10,-134 109,-134 109,-112 10,-112"/>
<polygon fill="none" stroke="black" points="10,-112 10,-134 109,-134 109,-112 10,-112"/>
<text text-anchor="start" x="30" y="-120.2" font-family="Helvetica,sans-Serif" font-size="11.00">uid_ems</text>
<polygon fill="none" stroke="black" points="109,-112 109,-134 230,-134 230,-112 109,-112"/>
<text text-anchor="start" x="112" y="-120.2" font-family="Helvetica,sans-Serif" font-size="11.00">varchar[2147483647]</text>
<polygon fill="none" stroke="black" points="10,-90 10,-112 109,-112 109,-90 10,-90"/>
<text text-anchor="start" x="30" y="-98.2" font-family="Helvetica,sans-Serif" font-size="11.00">ems_ref</text>
<polygon fill="none" stroke="black" points="109,-90 109,-112 230,-112 230,-90 109,-90"/>
<text text-anchor="start" x="112" y="-98.2" font-family="Helvetica,sans-Serif" font-size="11.00">varchar[2147483647]</text>
<polygon fill="#ffffff" stroke="none" points="10,-68 10,-90 109,-90 109,-68 10,-68"/>
<polygon fill="none" stroke="black" points="10,-68 10,-90 109,-90 109,-68 10,-68"/>
<text text-anchor="start" x="30" y="-76.2" font-family="Helvetica,sans-Serif" font-size="11.00">type</text>
<polygon fill="none" stroke="black" points="109,-68 109,-90 230,-90 230,-68 109,-68"/>
<text text-anchor="start" x="112" y="-76.2" font-family="Helvetica,sans-Serif" font-size="11.00">varchar[2147483647]</text>
<polygon fill="none" stroke="black" points="10,-46 10,-68 109,-68 109,-46 10,-46"/>
<text text-anchor="start" x="30" y="-54.2" font-family="Helvetica,sans-Serif" font-size="11.00">hidden</text>
<polygon fill="none" stroke="black" points="109,-46 109,-68 230,-68 230,-46 109,-46"/>
<text text-anchor="start" x="112" y="-54.2" font-family="Helvetica,sans-Serif" font-size="11.00">bool[1]</text>
<polygon fill="none" stroke="black" points="10,-24 10,-46 109,-46 109,-24 10,-24"/>
<text text-anchor="start" x="30" y="-32.2" font-family="Helvetica,sans-Serif" font-size="11.00">ems_ref_type</text>
<polygon fill="none" stroke="black" points="109,-24 109,-46 230,-46 230,-24 109,-24"/>
<text text-anchor="start" x="112" y="-32.2" font-family="Helvetica,sans-Serif" font-size="11.00">varchar[2147483647]</text>
<polygon fill="#ffffff" stroke="none" points="10,-6 10,-24 64,-24 64,-6 10,-6"/>
<polygon fill="none" stroke="black" points="10,-6 10,-24 64,-24 64,-6 10,-6"/>
<text text-anchor="start" x="13" y="-12.2" font-family="Helvetica,sans-Serif" font-size="11.00">&lt; 0</text>
<polygon fill="#ffffff" stroke="none" points="64,-6 64,-24 109,-24 109,-6 64,-6"/>
<polygon fill="none" stroke="black" points="64,-6 64,-24 109,-24 109,-6 64,-6"/>
<text text-anchor="start" x="99" y="-12.2" font-family="Helvetica,sans-Serif" font-size="11.00"> &#160;</text>
<polygon fill="#ffffff" stroke="none" points="109,-6 109,-24 230,-24 230,-6 109,-6"/>
<polygon fill="none" stroke="black" points="109,-6 109,-24 230,-24 230,-6 109,-6"/>
<text text-anchor="start" x="210" y="-12.2" font-family="Helvetica,sans-Serif" font-size="11.00">0 &gt;</text>
<polygon fill="none" stroke="black" stroke-width="2" points="9,-5 9,-267 231,-267 231,-5 9,-5"/>
</a>
</g>
</g>
</g>
</svg>
