<?xml version="1.0" encoding="UTF-8" standalone="no"?>
<!DOCTYPE svg PUBLIC "-//W3C//DTD SVG 1.1//EN"
 "http://www.w3.org/Graphics/SVG/1.1/DTD/svg11.dtd">
<!-- Generated by graphviz version 2.38.0 (20140413.2041)
 -->
<!-- Title: miq_enterprises Pages: 1 -->
<svg width="266pt" height="192pt"
 viewBox="0.00 0.00 266.00 192.00" xmlns="http://www.w3.org/2000/svg" xmlns:xlink="http://www.w3.org/1999/xlink">
<g id="graph0" class="graph" transform="scale(1 1) rotate(0) translate(4 188)">
<title>miq_enterprises</title>
<polygon fill="#ffffff" stroke="none" points="-4,4 -4,-188 262,-188 262,4 -4,4"/>
<!-- miq_enterprises -->
<g id="node1" class="node"><title>miq_enterprises</title>
<g id="a_node1"><a xlink:href="../../tables/miq_enterprises.html" xlink:title="miq_enterprises" target="_top">
<polygon fill="#ffffff" stroke="none" points="8,-4 8,-180 250,-180 250,-4 8,-4"/>
<polygon fill="#f5f5f5" stroke="none" points="10,-156 10,-178 248,-178 248,-156 10,-156"/>
<polygon fill="none" stroke="black" points="10,-156 10,-178 248,-178 248,-156 10,-156"/>
<text text-anchor="start" x="15" y="-165.2" font-family="Helvetica,sans-Serif" font-weight="bold" font-size="11.00">miq_enterprises</text>
<text text-anchor="start" x="209" y="-164.2" font-family="Helvetica,sans-Serif" font-size="11.00">[table]</text>
<polygon fill="none" stroke="black" points="10,-134 10,-156 127,-156 127,-134 10,-134"/>
<image xlink:href="../../images/primaryKeys.png" width="11px" height="12px" preserveAspectRatio="xMinYMin meet" x="15" y="-151"/>
<text text-anchor="start" x="30" y="-142.2" font-family="Helvetica,sans-Serif" font-size="11.00">id</text>
<polygon fill="none" stroke="black" points="127,-134 127,-156 248,-156 248,-134 127,-134"/>
<text text-anchor="start" x="130" y="-142.2" font-family="Helvetica,sans-Serif" font-size="11.00">bigserial[19]</text>
<polygon fill="none" stroke="black" points="10,-112 10,-134 127,-134 127,-112 10,-112"/>
<text text-anchor="start" x="30" y="-120.2" font-family="Helvetica,sans-Serif" font-size="11.00">name</text>
<polygon fill="none" stroke="black" points="127,-112 127,-134 248,-134 248,-112 127,-112"/>
<text text-anchor="start" x="130" y="-120.2" font-family="Helvetica,sans-Serif" font-size="11.00">varchar[2147483647]</text>
<polygon fill="none" stroke="black" points="10,-90 10,-112 127,-112 127,-90 10,-90"/>
<text text-anchor="start" x="30" y="-98.2" font-family="Helvetica,sans-Serif" font-size="11.00">description</text>
<polygon fill="none" stroke="black" points="127,-90 127,-112 248,-112 248,-90 127,-90"/>
<text text-anchor="start" x="130" y="-98.2" font-family="Helvetica,sans-Serif" font-size="11.00">varchar[2147483647]</text>
<polygon fill="none" stroke="black" points="10,-68 10,-90 127,-90 127,-68 10,-68"/>
<text text-anchor="start" x="30" y="-76.2" font-family="Helvetica,sans-Serif" font-size="11.00">created_on</text>
<polygon fill="none" stroke="black" points="127,-68 127,-90 248,-90 248,-68 127,-68"/>
<text text-anchor="start" x="130" y="-76.2" font-family="Helvetica,sans-Serif" font-size="11.00">timestamp[29,6]</text>
<polygon fill="none" stroke="black" points="10,-46 10,-68 127,-68 127,-46 10,-46"/>
<text text-anchor="start" x="30" y="-54.2" font-family="Helvetica,sans-Serif" font-size="11.00">updated_on</text>
<polygon fill="none" stroke="black" points="127,-46 127,-68 248,-68 248,-46 127,-46"/>
<text text-anchor="start" x="130" y="-54.2" font-family="Helvetica,sans-Serif" font-size="11.00">timestamp[29,6]</text>
<polygon fill="none" stroke="black" points="10,-24 10,-46 127,-46 127,-24 10,-24"/>
<text text-anchor="start" x="30" y="-32.2" font-family="Helvetica,sans-Serif" font-size="11.00">settings</text>
<polygon fill="none" stroke="black" points="127,-24 127,-46 248,-46 248,-24 127,-24"/>
<text text-anchor="start" x="130" y="-32.2" font-family="Helvetica,sans-Serif" font-size="11.00">text[2147483647]</text>
<polygon fill="#ffffff" stroke="none" points="10,-6 10,-24 73,-24 73,-6 10,-6"/>
<polygon fill="none" stroke="black" points="10,-6 10,-24 73,-24 73,-6 10,-6"/>
<text text-anchor="start" x="13" y="-12.2" font-family="Helvetica,sans-Serif" font-size="11.00">&lt; 0</text>
<polygon fill="#ffffff" stroke="none" points="73,-6 73,-24 127,-24 127,-6 73,-6"/>
<polygon fill="none" stroke="black" points="73,-6 73,-24 127,-24 127,-6 73,-6"/>
<text text-anchor="start" x="117" y="-12.2" font-family="Helvetica,sans-Serif" font-size="11.00"> &#160;</text>
<polygon fill="#ffffff" stroke="none" points="127,-6 127,-24 248,-24 248,-6 127,-6"/>
<polygon fill="none" stroke="black" points="127,-6 127,-24 248,-24 248,-6 127,-6"/>
<text text-anchor="start" x="228" y="-12.2" font-family="Helvetica,sans-Serif" font-size="11.00">0 &gt;</text>
<polygon fill="none" stroke="black" stroke-width="2" points="9,-5 9,-179 249,-179 249,-5 9,-5"/>
</a>
</g>
</g>
</g>
</svg>
