<?xml version="1.0" encoding="UTF-8" standalone="no"?>
<!DOCTYPE svg PUBLIC "-//W3C//DTD SVG 1.1//EN"
 "http://www.w3.org/Graphics/SVG/1.1/DTD/svg11.dtd">
<!-- Generated by graphviz version 2.38.0 (20140413.2041)
 -->
<!-- Title: miq_databases Pages: 1 -->
<svg width="295pt" height="192pt"
 viewBox="0.00 0.00 295.00 192.00" xmlns="http://www.w3.org/2000/svg" xmlns:xlink="http://www.w3.org/1999/xlink">
<g id="graph0" class="graph" transform="scale(1 1) rotate(0) translate(4 188)">
<title>miq_databases</title>
<polygon fill="#ffffff" stroke="none" points="-4,4 -4,-188 291,-188 291,4 -4,4"/>
<!-- miq_databases -->
<g id="node1" class="node"><title>miq_databases</title>
<g id="a_node1"><a xlink:href="../../tables/miq_databases.html" xlink:title="miq_databases" target="_top">
<polygon fill="#ffffff" stroke="none" points="8,-4 8,-180 279,-180 279,-4 8,-4"/>
<polygon fill="#f5f5f5" stroke="none" points="10.5,-156 10.5,-178 277.5,-178 277.5,-156 10.5,-156"/>
<polygon fill="none" stroke="black" points="10.5,-156 10.5,-178 277.5,-178 277.5,-156 10.5,-156"/>
<text text-anchor="start" x="15.5" y="-165.2" font-family="Helvetica,sans-Serif" font-weight="bold" font-size="11.00">miq_databases</text>
<text text-anchor="start" x="238.5" y="-164.2" font-family="Helvetica,sans-Serif" font-size="11.00">[table]</text>
<polygon fill="none" stroke="black" points="10.5,-134 10.5,-156 156.5,-156 156.5,-134 10.5,-134"/>
<image xlink:href="../../images/primaryKeys.png" width="11px" height="12px" preserveAspectRatio="xMinYMin meet" x="15.5" y="-151"/>
<text text-anchor="start" x="30.5" y="-142.2" font-family="Helvetica,sans-Serif" font-size="11.00">id</text>
<polygon fill="none" stroke="black" points="156.5,-134 156.5,-156 277.5,-156 277.5,-134 156.5,-134"/>
<text text-anchor="start" x="159.5" y="-142.2" font-family="Helvetica,sans-Serif" font-size="11.00">bigserial[19]</text>
<polygon fill="none" stroke="black" points="10.5,-112 10.5,-134 156.5,-134 156.5,-112 10.5,-112"/>
<text text-anchor="start" x="30.5" y="-120.2" font-family="Helvetica,sans-Serif" font-size="11.00">created_at</text>
<polygon fill="none" stroke="black" points="156.5,-112 156.5,-134 277.5,-134 277.5,-112 156.5,-112"/>
<text text-anchor="start" x="159.5" y="-120.2" font-family="Helvetica,sans-Serif" font-size="11.00">timestamp[29,6]</text>
<polygon fill="none" stroke="black" points="10.5,-90 10.5,-112 156.5,-112 156.5,-90 10.5,-90"/>
<text text-anchor="start" x="30.5" y="-98.2" font-family="Helvetica,sans-Serif" font-size="11.00">updated_at</text>
<polygon fill="none" stroke="black" points="156.5,-90 156.5,-112 277.5,-112 277.5,-90 156.5,-90"/>
<text text-anchor="start" x="159.5" y="-98.2" font-family="Helvetica,sans-Serif" font-size="11.00">timestamp[29,6]</text>
<polygon fill="none" stroke="black" points="10.5,-68 10.5,-90 156.5,-90 156.5,-68 10.5,-68"/>
<text text-anchor="start" x="30.5" y="-76.2" font-family="Helvetica,sans-Serif" font-size="11.00">session_secret_token</text>
<polygon fill="none" stroke="black" points="156.5,-68 156.5,-90 277.5,-90 277.5,-68 156.5,-68"/>
<text text-anchor="start" x="159.5" y="-76.2" font-family="Helvetica,sans-Serif" font-size="11.00">varchar[2147483647]</text>
<polygon fill="none" stroke="black" points="10.5,-46 10.5,-68 156.5,-68 156.5,-46 10.5,-46"/>
<text text-anchor="start" x="30.5" y="-54.2" font-family="Helvetica,sans-Serif" font-size="11.00">csrf_secret_token</text>
<polygon fill="none" stroke="black" points="156.5,-46 156.5,-68 277.5,-68 277.5,-46 156.5,-46"/>
<text text-anchor="start" x="159.5" y="-54.2" font-family="Helvetica,sans-Serif" font-size="11.00">varchar[2147483647]</text>
<polygon fill="none" stroke="black" points="10.5,-24 10.5,-46 156.5,-46 156.5,-24 10.5,-24"/>
<text text-anchor="start" x="30.5" y="-32.2" font-family="Helvetica,sans-Serif" font-size="11.00">guid</text>
<polygon fill="none" stroke="black" points="156.5,-24 156.5,-46 277.5,-46 277.5,-24 156.5,-24"/>
<text text-anchor="start" x="159.5" y="-32.2" font-family="Helvetica,sans-Serif" font-size="11.00">varchar[36]</text>
<polygon fill="#ffffff" stroke="none" points="10.5,-6 10.5,-24 88.5,-24 88.5,-6 10.5,-6"/>
<polygon fill="none" stroke="black" points="10.5,-6 10.5,-24 88.5,-24 88.5,-6 10.5,-6"/>
<text text-anchor="start" x="13.5" y="-12.2" font-family="Helvetica,sans-Serif" font-size="11.00">&lt; 0</text>
<polygon fill="#ffffff" stroke="none" points="88.5,-6 88.5,-24 156.5,-24 156.5,-6 88.5,-6"/>
<polygon fill="none" stroke="black" points="88.5,-6 88.5,-24 156.5,-24 156.5,-6 88.5,-6"/>
<text text-anchor="start" x="146.5" y="-12.2" font-family="Helvetica,sans-Serif" font-size="11.00"> &#160;</text>
<polygon fill="#ffffff" stroke="none" points="156.5,-6 156.5,-24 277.5,-24 277.5,-6 156.5,-6"/>
<polygon fill="none" stroke="black" points="156.5,-6 156.5,-24 277.5,-24 277.5,-6 156.5,-6"/>
<text text-anchor="start" x="257.5" y="-12.2" font-family="Helvetica,sans-Serif" font-size="11.00">0 &gt;</text>
<polygon fill="none" stroke="black" stroke-width="2" points="9,-5 9,-179 278,-179 278,-5 9,-5"/>
</a>
</g>
</g>
</g>
</svg>
