<?xml version="1.0" encoding="UTF-8" standalone="no"?>
<!DOCTYPE svg PUBLIC "-//W3C//DTD SVG 1.1//EN"
 "http://www.w3.org/Graphics/SVG/1.1/DTD/svg11.dtd">
<!-- Generated by graphviz version 2.38.0 (20140413.2041)
 -->
<!-- Title: miq_dialogs Pages: 1 -->
<svg width="240pt" height="280pt"
 viewBox="0.00 0.00 240.00 280.00" xmlns="http://www.w3.org/2000/svg" xmlns:xlink="http://www.w3.org/1999/xlink">
<g id="graph0" class="graph" transform="scale(1 1) rotate(0) translate(4 276)">
<title>miq_dialogs</title>
<polygon fill="#ffffff" stroke="none" points="-4,4 -4,-276 236,-276 236,4 -4,4"/>
<!-- miq_dialogs -->
<g id="node1" class="node"><title>miq_dialogs</title>
<g id="a_node1"><a xlink:href="../../tables/miq_dialogs.html" xlink:title="miq_dialogs" target="_top">
<polygon fill="#ffffff" stroke="none" points="8,-4 8,-268 224,-268 224,-4 8,-4"/>
<polygon fill="#f5f5f5" stroke="none" points="10,-244 10,-266 222,-266 222,-244 10,-244"/>
<polygon fill="none" stroke="black" points="10,-244 10,-266 222,-266 222,-244 10,-244"/>
<text text-anchor="start" x="15" y="-253.2" font-family="Helvetica,sans-Serif" font-weight="bold" font-size="11.00">miq_dialogs</text>
<text text-anchor="start" x="183" y="-252.2" font-family="Helvetica,sans-Serif" font-size="11.00">[table]</text>
<polygon fill="none" stroke="black" points="10,-222 10,-244 101,-244 101,-222 10,-222"/>
<image xlink:href="../../images/primaryKeys.png" width="11px" height="12px" preserveAspectRatio="xMinYMin meet" x="15" y="-239"/>
<text text-anchor="start" x="30" y="-230.2" font-family="Helvetica,sans-Serif" font-size="11.00">id</text>
<polygon fill="none" stroke="black" points="101,-222 101,-244 222,-244 222,-222 101,-222"/>
<text text-anchor="start" x="104" y="-230.2" font-family="Helvetica,sans-Serif" font-size="11.00">bigserial[19]</text>
<polygon fill="none" stroke="black" points="10,-200 10,-222 101,-222 101,-200 10,-200"/>
<text text-anchor="start" x="30" y="-208.2" font-family="Helvetica,sans-Serif" font-size="11.00">name</text>
<polygon fill="none" stroke="black" points="101,-200 101,-222 222,-222 222,-200 101,-200"/>
<text text-anchor="start" x="104" y="-208.2" font-family="Helvetica,sans-Serif" font-size="11.00">varchar[2147483647]</text>
<polygon fill="none" stroke="black" points="10,-178 10,-200 101,-200 101,-178 10,-178"/>
<text text-anchor="start" x="30" y="-186.2" font-family="Helvetica,sans-Serif" font-size="11.00">description</text>
<polygon fill="none" stroke="black" points="101,-178 101,-200 222,-200 222,-178 101,-178"/>
<text text-anchor="start" x="104" y="-186.2" font-family="Helvetica,sans-Serif" font-size="11.00">varchar[2147483647]</text>
<polygon fill="none" stroke="black" points="10,-156 10,-178 101,-178 101,-156 10,-156"/>
<text text-anchor="start" x="30" y="-164.2" font-family="Helvetica,sans-Serif" font-size="11.00">dialog_type</text>
<polygon fill="none" stroke="black" points="101,-156 101,-178 222,-178 222,-156 101,-156"/>
<text text-anchor="start" x="104" y="-164.2" font-family="Helvetica,sans-Serif" font-size="11.00">varchar[2147483647]</text>
<polygon fill="none" stroke="black" points="10,-134 10,-156 101,-156 101,-134 10,-134"/>
<text text-anchor="start" x="30" y="-142.2" font-family="Helvetica,sans-Serif" font-size="11.00">content</text>
<polygon fill="none" stroke="black" points="101,-134 101,-156 222,-156 222,-134 101,-134"/>
<text text-anchor="start" x="104" y="-142.2" font-family="Helvetica,sans-Serif" font-size="11.00">text[2147483647]</text>
<polygon fill="none" stroke="black" points="10,-112 10,-134 101,-134 101,-112 10,-112"/>
<text text-anchor="start" x="30" y="-120.2" font-family="Helvetica,sans-Serif" font-size="11.00">default</text>
<polygon fill="none" stroke="black" points="101,-112 101,-134 222,-134 222,-112 101,-112"/>
<text text-anchor="start" x="104" y="-120.2" font-family="Helvetica,sans-Serif" font-size="11.00">bool[1]</text>
<polygon fill="none" stroke="black" points="10,-90 10,-112 101,-112 101,-90 10,-90"/>
<text text-anchor="start" x="30" y="-98.2" font-family="Helvetica,sans-Serif" font-size="11.00">filename</text>
<polygon fill="none" stroke="black" points="101,-90 101,-112 222,-112 222,-90 101,-90"/>
<text text-anchor="start" x="104" y="-98.2" font-family="Helvetica,sans-Serif" font-size="11.00">varchar[2147483647]</text>
<polygon fill="none" stroke="black" points="10,-68 10,-90 101,-90 101,-68 10,-68"/>
<text text-anchor="start" x="30" y="-76.2" font-family="Helvetica,sans-Serif" font-size="11.00">file_mtime</text>
<polygon fill="none" stroke="black" points="101,-68 101,-90 222,-90 222,-68 101,-68"/>
<text text-anchor="start" x="104" y="-76.2" font-family="Helvetica,sans-Serif" font-size="11.00">timestamp[29,6]</text>
<polygon fill="none" stroke="black" points="10,-46 10,-68 101,-68 101,-46 10,-46"/>
<text text-anchor="start" x="30" y="-54.2" font-family="Helvetica,sans-Serif" font-size="11.00">created_at</text>
<polygon fill="none" stroke="black" points="101,-46 101,-68 222,-68 222,-46 101,-46"/>
<text text-anchor="start" x="104" y="-54.2" font-family="Helvetica,sans-Serif" font-size="11.00">timestamp[29,6]</text>
<polygon fill="none" stroke="black" points="10,-24 10,-46 101,-46 101,-24 10,-24"/>
<text text-anchor="start" x="30" y="-32.2" font-family="Helvetica,sans-Serif" font-size="11.00">updated_at</text>
<polygon fill="none" stroke="black" points="101,-24 101,-46 222,-46 222,-24 101,-24"/>
<text text-anchor="start" x="104" y="-32.2" font-family="Helvetica,sans-Serif" font-size="11.00">timestamp[29,6]</text>
<polygon fill="#ffffff" stroke="none" points="10,-6 10,-24 60,-24 60,-6 10,-6"/>
<polygon fill="none" stroke="black" points="10,-6 10,-24 60,-24 60,-6 10,-6"/>
<text text-anchor="start" x="13" y="-12.2" font-family="Helvetica,sans-Serif" font-size="11.00">&lt; 0</text>
<polygon fill="#ffffff" stroke="none" points="60,-6 60,-24 101,-24 101,-6 60,-6"/>
<polygon fill="none" stroke="black" points="60,-6 60,-24 101,-24 101,-6 60,-6"/>
<text text-anchor="start" x="91" y="-12.2" font-family="Helvetica,sans-Serif" font-size="11.00"> &#160;</text>
<polygon fill="#ffffff" stroke="none" points="101,-6 101,-24 222,-24 222,-6 101,-6"/>
<polygon fill="none" stroke="black" points="101,-6 101,-24 222,-24 222,-6 101,-6"/>
<text text-anchor="start" x="202" y="-12.2" font-family="Helvetica,sans-Serif" font-size="11.00">0 &gt;</text>
<polygon fill="none" stroke="black" stroke-width="2" points="9,-5 9,-267 223,-267 223,-5 9,-5"/>
</a>
</g>
</g>
</g>
</svg>
