<?xml version="1.0" encoding="UTF-8" standalone="no"?>
<!DOCTYPE svg PUBLIC "-//W3C//DTD SVG 1.1//EN"
 "http://www.w3.org/Graphics/SVG/1.1/DTD/svg11.dtd">
<!-- Generated by graphviz version 2.38.0 (20140413.2041)
 -->
<!-- Title: miq_ae_methods Pages: 1 -->
<svg width="291pt" height="434pt"
 viewBox="0.00 0.00 291.00 434.00" xmlns="http://www.w3.org/2000/svg" xmlns:xlink="http://www.w3.org/1999/xlink">
<g id="graph0" class="graph" transform="scale(1 1) rotate(0) translate(4 430)">
<title>miq_ae_methods</title>
<polygon fill="#ffffff" stroke="none" points="-4,4 -4,-430 287,-430 287,4 -4,4"/>
<!-- miq_ae_methods -->
<g id="node1" class="node"><title>miq_ae_methods</title>
<g id="a_node1"><a xlink:href="../../tables/miq_ae_methods.html" xlink:title="miq_ae_methods" target="_top">
<polygon fill="#ffffff" stroke="none" points="8,-4 8,-422 275,-422 275,-4 8,-4"/>
<polygon fill="#f5f5f5" stroke="none" points="10.5,-398 10.5,-420 273.5,-420 273.5,-398 10.5,-398"/>
<polygon fill="none" stroke="black" points="10.5,-398 10.5,-420 273.5,-420 273.5,-398 10.5,-398"/>
<text text-anchor="start" x="15.5" y="-407.2" font-family="Helvetica,sans-Serif" font-weight="bold" font-size="11.00">miq_ae_methods</text>
<text text-anchor="start" x="234.5" y="-406.2" font-family="Helvetica,sans-Serif" font-size="11.00">[table]</text>
<polygon fill="none" stroke="black" points="10.5,-376 10.5,-398 152.5,-398 152.5,-376 10.5,-376"/>
<image xlink:href="../../images/primaryKeys.png" width="11px" height="12px" preserveAspectRatio="xMinYMin meet" x="15.5" y="-393"/>
<text text-anchor="start" x="30.5" y="-384.2" font-family="Helvetica,sans-Serif" font-size="11.00">id</text>
<polygon fill="none" stroke="black" points="152.5,-376 152.5,-398 273.5,-398 273.5,-376 152.5,-376"/>
<text text-anchor="start" x="155.5" y="-384.2" font-family="Helvetica,sans-Serif" font-size="11.00">bigserial[19]</text>
<polygon fill="none" stroke="black" points="10.5,-354 10.5,-376 152.5,-376 152.5,-354 10.5,-354"/>
<text text-anchor="start" x="30.5" y="-362.2" font-family="Helvetica,sans-Serif" font-size="11.00">name</text>
<polygon fill="none" stroke="black" points="152.5,-354 152.5,-376 273.5,-376 273.5,-354 152.5,-354"/>
<text text-anchor="start" x="155.5" y="-362.2" font-family="Helvetica,sans-Serif" font-size="11.00">varchar[2147483647]</text>
<polygon fill="#ffffff" stroke="none" points="10.5,-332 10.5,-354 152.5,-354 152.5,-332 10.5,-332"/>
<polygon fill="none" stroke="black" points="10.5,-332 10.5,-354 152.5,-354 152.5,-332 10.5,-332"/>
<text text-anchor="start" x="30.5" y="-340.2" font-family="Helvetica,sans-Serif" font-size="11.00">class_id</text>
<polygon fill="none" stroke="black" points="152.5,-332 152.5,-354 273.5,-354 273.5,-332 152.5,-332"/>
<text text-anchor="start" x="155.5" y="-340.2" font-family="Helvetica,sans-Serif" font-size="11.00">int8[19]</text>
<polygon fill="none" stroke="black" points="10.5,-310 10.5,-332 152.5,-332 152.5,-310 10.5,-310"/>
<text text-anchor="start" x="30.5" y="-318.2" font-family="Helvetica,sans-Serif" font-size="11.00">display_name</text>
<polygon fill="none" stroke="black" points="152.5,-310 152.5,-332 273.5,-332 273.5,-310 152.5,-310"/>
<text text-anchor="start" x="155.5" y="-318.2" font-family="Helvetica,sans-Serif" font-size="11.00">varchar[2147483647]</text>
<polygon fill="none" stroke="black" points="10.5,-288 10.5,-310 152.5,-310 152.5,-288 10.5,-288"/>
<text text-anchor="start" x="30.5" y="-296.2" font-family="Helvetica,sans-Serif" font-size="11.00">description</text>
<polygon fill="none" stroke="black" points="152.5,-288 152.5,-310 273.5,-310 273.5,-288 152.5,-288"/>
<text text-anchor="start" x="155.5" y="-296.2" font-family="Helvetica,sans-Serif" font-size="11.00">text[2147483647]</text>
<polygon fill="none" stroke="black" points="10.5,-266 10.5,-288 152.5,-288 152.5,-266 10.5,-266"/>
<text text-anchor="start" x="30.5" y="-274.2" font-family="Helvetica,sans-Serif" font-size="11.00">scope</text>
<polygon fill="none" stroke="black" points="152.5,-266 152.5,-288 273.5,-288 273.5,-266 152.5,-266"/>
<text text-anchor="start" x="155.5" y="-274.2" font-family="Helvetica,sans-Serif" font-size="11.00">varchar[2147483647]</text>
<polygon fill="none" stroke="black" points="10.5,-244 10.5,-266 152.5,-266 152.5,-244 10.5,-244"/>
<text text-anchor="start" x="30.5" y="-252.2" font-family="Helvetica,sans-Serif" font-size="11.00">language</text>
<polygon fill="none" stroke="black" points="152.5,-244 152.5,-266 273.5,-266 273.5,-244 152.5,-244"/>
<text text-anchor="start" x="155.5" y="-252.2" font-family="Helvetica,sans-Serif" font-size="11.00">varchar[2147483647]</text>
<polygon fill="none" stroke="black" points="10.5,-222 10.5,-244 152.5,-244 152.5,-222 10.5,-222"/>
<text text-anchor="start" x="30.5" y="-230.2" font-family="Helvetica,sans-Serif" font-size="11.00">location</text>
<polygon fill="none" stroke="black" points="152.5,-222 152.5,-244 273.5,-244 273.5,-222 152.5,-222"/>
<text text-anchor="start" x="155.5" y="-230.2" font-family="Helvetica,sans-Serif" font-size="11.00">varchar[2147483647]</text>
<polygon fill="none" stroke="black" points="10.5,-200 10.5,-222 152.5,-222 152.5,-200 10.5,-200"/>
<text text-anchor="start" x="30.5" y="-208.2" font-family="Helvetica,sans-Serif" font-size="11.00">data</text>
<polygon fill="none" stroke="black" points="152.5,-200 152.5,-222 273.5,-222 273.5,-200 152.5,-200"/>
<text text-anchor="start" x="155.5" y="-208.2" font-family="Helvetica,sans-Serif" font-size="11.00">text[2147483647]</text>
<polygon fill="none" stroke="black" points="10.5,-178 10.5,-200 152.5,-200 152.5,-178 10.5,-178"/>
<text text-anchor="start" x="30.5" y="-186.2" font-family="Helvetica,sans-Serif" font-size="11.00">created_on</text>
<polygon fill="none" stroke="black" points="152.5,-178 152.5,-200 273.5,-200 273.5,-178 152.5,-178"/>
<text text-anchor="start" x="155.5" y="-186.2" font-family="Helvetica,sans-Serif" font-size="11.00">timestamp[29,6]</text>
<polygon fill="none" stroke="black" points="10.5,-156 10.5,-178 152.5,-178 152.5,-156 10.5,-156"/>
<text text-anchor="start" x="30.5" y="-164.2" font-family="Helvetica,sans-Serif" font-size="11.00">updated_on</text>
<polygon fill="none" stroke="black" points="152.5,-156 152.5,-178 273.5,-178 273.5,-156 152.5,-156"/>
<text text-anchor="start" x="155.5" y="-164.2" font-family="Helvetica,sans-Serif" font-size="11.00">timestamp[29,6]</text>
<polygon fill="none" stroke="black" points="10.5,-134 10.5,-156 152.5,-156 152.5,-134 10.5,-134"/>
<text text-anchor="start" x="30.5" y="-142.2" font-family="Helvetica,sans-Serif" font-size="11.00">updated_by</text>
<polygon fill="none" stroke="black" points="152.5,-134 152.5,-156 273.5,-156 273.5,-134 152.5,-134"/>
<text text-anchor="start" x="155.5" y="-142.2" font-family="Helvetica,sans-Serif" font-size="11.00">varchar[2147483647]</text>
<polygon fill="#ffffff" stroke="none" points="10.5,-112 10.5,-134 152.5,-134 152.5,-112 10.5,-112"/>
<polygon fill="none" stroke="black" points="10.5,-112 10.5,-134 152.5,-134 152.5,-112 10.5,-112"/>
<text text-anchor="start" x="30.5" y="-120.2" font-family="Helvetica,sans-Serif" font-size="11.00">updated_by_user_id</text>
<polygon fill="none" stroke="black" points="152.5,-112 152.5,-134 273.5,-134 273.5,-112 152.5,-112"/>
<text text-anchor="start" x="155.5" y="-120.2" font-family="Helvetica,sans-Serif" font-size="11.00">int8[19]</text>
<polygon fill="none" stroke="black" points="10.5,-90 10.5,-112 152.5,-112 152.5,-90 10.5,-90"/>
<text text-anchor="start" x="30.5" y="-98.2" font-family="Helvetica,sans-Serif" font-size="11.00">embedded_methods</text>
<polygon fill="none" stroke="black" points="152.5,-90 152.5,-112 273.5,-112 273.5,-90 152.5,-90"/>
<text text-anchor="start" x="155.5" y="-98.2" font-family="Helvetica,sans-Serif" font-size="11.00">_text[2147483647]</text>
<polygon fill="none" stroke="black" points="10.5,-68 10.5,-90 152.5,-90 152.5,-68 10.5,-68"/>
<text text-anchor="start" x="30.5" y="-76.2" font-family="Helvetica,sans-Serif" font-size="11.00">options</text>
<polygon fill="none" stroke="black" points="152.5,-68 152.5,-90 273.5,-90 273.5,-68 152.5,-68"/>
<text text-anchor="start" x="155.5" y="-76.2" font-family="Helvetica,sans-Serif" font-size="11.00">text[2147483647]</text>
<polygon fill="none" stroke="black" points="10.5,-46 10.5,-68 152.5,-68 152.5,-46 10.5,-46"/>
<text text-anchor="start" x="30.5" y="-54.2" font-family="Helvetica,sans-Serif" font-size="11.00">domain_id</text>
<polygon fill="none" stroke="black" points="152.5,-46 152.5,-68 273.5,-68 273.5,-46 152.5,-46"/>
<text text-anchor="start" x="155.5" y="-54.2" font-family="Helvetica,sans-Serif" font-size="11.00">int8[19]</text>
<polygon fill="#ffffff" stroke="none" points="10.5,-24 10.5,-46 152.5,-46 152.5,-24 10.5,-24"/>
<polygon fill="none" stroke="black" points="10.5,-24 10.5,-46 152.5,-46 152.5,-24 10.5,-24"/>
<text text-anchor="start" x="30.5" y="-32.2" font-family="Helvetica,sans-Serif" font-size="11.00">relative_path</text>
<polygon fill="none" stroke="black" points="152.5,-24 152.5,-46 273.5,-46 273.5,-24 152.5,-24"/>
<text text-anchor="start" x="155.5" y="-32.2" font-family="Helvetica,sans-Serif" font-size="11.00">varchar[2147483647]</text>
<polygon fill="#ffffff" stroke="none" points="10.5,-6 10.5,-24 86.5,-24 86.5,-6 10.5,-6"/>
<polygon fill="none" stroke="black" points="10.5,-6 10.5,-24 86.5,-24 86.5,-6 10.5,-6"/>
<text text-anchor="start" x="13.5" y="-12.2" font-family="Helvetica,sans-Serif" font-size="11.00">&lt; 0</text>
<polygon fill="#ffffff" stroke="none" points="86.5,-6 86.5,-24 152.5,-24 152.5,-6 86.5,-6"/>
<polygon fill="none" stroke="black" points="86.5,-6 86.5,-24 152.5,-24 152.5,-6 86.5,-6"/>
<text text-anchor="start" x="142.5" y="-12.2" font-family="Helvetica,sans-Serif" font-size="11.00"> &#160;</text>
<polygon fill="#ffffff" stroke="none" points="152.5,-6 152.5,-24 273.5,-24 273.5,-6 152.5,-6"/>
<polygon fill="none" stroke="black" points="152.5,-6 152.5,-24 273.5,-24 273.5,-6 152.5,-6"/>
<text text-anchor="start" x="253.5" y="-12.2" font-family="Helvetica,sans-Serif" font-size="11.00">0 &gt;</text>
<polygon fill="none" stroke="black" stroke-width="2" points="9,-5 9,-421 274,-421 274,-5 9,-5"/>
</a>
</g>
</g>
</g>
</svg>
