<?xml version="1.0" encoding="UTF-8" standalone="no"?>
<!DOCTYPE svg PUBLIC "-//W3C//DTD SVG 1.1//EN"
 "http://www.w3.org/Graphics/SVG/1.1/DTD/svg11.dtd">
<!-- Generated by graphviz version 2.38.0 (20140413.2041)
 -->
<!-- Title: orchestration_stack_parameters Pages: 1 -->
<svg width="364pt" height="170pt"
 viewBox="0.00 0.00 364.00 170.00" xmlns="http://www.w3.org/2000/svg" xmlns:xlink="http://www.w3.org/1999/xlink">
<g id="graph0" class="graph" transform="scale(1 1) rotate(0) translate(4 166)">
<title>orchestration_stack_parameters</title>
<polygon fill="#ffffff" stroke="none" points="-4,4 -4,-166 360,-166 360,4 -4,4"/>
<!-- orchestration_stack_parameters -->
<g id="node1" class="node"><title>orchestration_stack_parameters</title>
<g id="a_node1"><a xlink:href="../../tables/orchestration_stack_parameters.html" xlink:title="orchestration_stack_parameters" target="_top">
<polygon fill="#ffffff" stroke="none" points="8,-4 8,-158 348,-158 348,-4 8,-4"/>
<polygon fill="#f5f5f5" stroke="none" points="10,-134 10,-156 346,-156 346,-134 10,-134"/>
<polygon fill="none" stroke="black" points="10,-134 10,-156 346,-156 346,-134 10,-134"/>
<text text-anchor="start" x="15" y="-143.2" font-family="Helvetica,sans-Serif" font-weight="bold" font-size="11.00">orchestration_stack_parameters</text>
<text text-anchor="start" x="307" y="-142.2" font-family="Helvetica,sans-Serif" font-size="11.00">[table]</text>
<polygon fill="none" stroke="black" points="10,-112 10,-134 225,-134 225,-112 10,-112"/>
<image xlink:href="../../images/primaryKeys.png" width="11px" height="12px" preserveAspectRatio="xMinYMin meet" x="15" y="-129"/>
<text text-anchor="start" x="30" y="-120.2" font-family="Helvetica,sans-Serif" font-size="11.00">id</text>
<polygon fill="none" stroke="black" points="225,-112 225,-134 346,-134 346,-112 225,-112"/>
<text text-anchor="start" x="228" y="-120.2" font-family="Helvetica,sans-Serif" font-size="11.00">bigserial[19]</text>
<polygon fill="none" stroke="black" points="10,-90 10,-112 225,-112 225,-90 10,-90"/>
<text text-anchor="start" x="30" y="-98.2" font-family="Helvetica,sans-Serif" font-size="11.00">name</text>
<polygon fill="none" stroke="black" points="225,-90 225,-112 346,-112 346,-90 225,-90"/>
<text text-anchor="start" x="228" y="-98.2" font-family="Helvetica,sans-Serif" font-size="11.00">varchar[2147483647]</text>
<polygon fill="none" stroke="black" points="10,-68 10,-90 225,-90 225,-68 10,-68"/>
<text text-anchor="start" x="30" y="-76.2" font-family="Helvetica,sans-Serif" font-size="11.00">value</text>
<polygon fill="none" stroke="black" points="225,-68 225,-90 346,-90 346,-68 225,-68"/>
<text text-anchor="start" x="228" y="-76.2" font-family="Helvetica,sans-Serif" font-size="11.00">text[2147483647]</text>
<polygon fill="#ffffff" stroke="none" points="10,-46 10,-68 225,-68 225,-46 10,-46"/>
<polygon fill="none" stroke="black" points="10,-46 10,-68 225,-68 225,-46 10,-46"/>
<text text-anchor="start" x="30" y="-54.2" font-family="Helvetica,sans-Serif" font-size="11.00">stack_id</text>
<polygon fill="none" stroke="black" points="225,-46 225,-68 346,-68 346,-46 225,-46"/>
<text text-anchor="start" x="228" y="-54.2" font-family="Helvetica,sans-Serif" font-size="11.00">int8[19]</text>
<polygon fill="none" stroke="black" points="10,-24 10,-46 225,-46 225,-24 10,-24"/>
<text text-anchor="start" x="30" y="-32.2" font-family="Helvetica,sans-Serif" font-size="11.00">ems_ref</text>
<polygon fill="none" stroke="black" points="225,-24 225,-46 346,-46 346,-24 225,-24"/>
<text text-anchor="start" x="228" y="-32.2" font-family="Helvetica,sans-Serif" font-size="11.00">text[2147483647]</text>
<polygon fill="#ffffff" stroke="none" points="10,-6 10,-24 122,-24 122,-6 10,-6"/>
<polygon fill="none" stroke="black" points="10,-6 10,-24 122,-24 122,-6 10,-6"/>
<text text-anchor="start" x="13" y="-12.2" font-family="Helvetica,sans-Serif" font-size="11.00">&lt; 0</text>
<polygon fill="#ffffff" stroke="none" points="122,-6 122,-24 225,-24 225,-6 122,-6"/>
<polygon fill="none" stroke="black" points="122,-6 122,-24 225,-24 225,-6 122,-6"/>
<text text-anchor="start" x="215" y="-12.2" font-family="Helvetica,sans-Serif" font-size="11.00"> &#160;</text>
<polygon fill="#ffffff" stroke="none" points="225,-6 225,-24 346,-24 346,-6 225,-6"/>
<polygon fill="none" stroke="black" points="225,-6 225,-24 346,-24 346,-6 225,-6"/>
<text text-anchor="start" x="326" y="-12.2" font-family="Helvetica,sans-Serif" font-size="11.00">0 &gt;</text>
<polygon fill="none" stroke="black" stroke-width="2" points="9,-5 9,-157 347,-157 347,-5 9,-5"/>
</a>
</g>
</g>
</g>
</svg>
