<?xml version="1.0" encoding="UTF-8" standalone="no"?>
<!DOCTYPE svg PUBLIC "-//W3C//DTD SVG 1.1//EN"
 "http://www.w3.org/Graphics/SVG/1.1/DTD/svg11.dtd">
<!-- Generated by graphviz version 2.38.0 (20140413.2041)
 -->
<!-- Title: physical_server_profile_templates Pages: 1 -->
<svg width="372pt" height="214pt"
 viewBox="0.00 0.00 372.00 214.00" xmlns="http://www.w3.org/2000/svg" xmlns:xlink="http://www.w3.org/1999/xlink">
<g id="graph0" class="graph" transform="scale(1 1) rotate(0) translate(4 210)">
<title>physical_server_profile_templates</title>
<polygon fill="#ffffff" stroke="none" points="-4,4 -4,-210 368,-210 368,4 -4,4"/>
<!-- physical_server_profile_templates -->
<g id="node1" class="node"><title>physical_server_profile_templates</title>
<g id="a_node1"><a xlink:href="../../tables/physical_server_profile_templates.html" xlink:title="physical_server_profile_templates" target="_top">
<polygon fill="#ffffff" stroke="none" points="8,-4 8,-202 356,-202 356,-4 8,-4"/>
<polygon fill="#f5f5f5" stroke="none" points="10,-178 10,-200 354,-200 354,-178 10,-178"/>
<polygon fill="none" stroke="black" points="10,-178 10,-200 354,-200 354,-178 10,-178"/>
<text text-anchor="start" x="15" y="-187.2" font-family="Helvetica,sans-Serif" font-weight="bold" font-size="11.00">physical_server_profile_templates</text>
<text text-anchor="start" x="315" y="-186.2" font-family="Helvetica,sans-Serif" font-size="11.00">[table]</text>
<polygon fill="none" stroke="black" points="10,-156 10,-178 233,-178 233,-156 10,-156"/>
<image xlink:href="../../images/primaryKeys.png" width="11px" height="12px" preserveAspectRatio="xMinYMin meet" x="15" y="-173"/>
<text text-anchor="start" x="30" y="-164.2" font-family="Helvetica,sans-Serif" font-size="11.00">id</text>
<polygon fill="none" stroke="black" points="233,-156 233,-178 354,-178 354,-156 233,-156"/>
<text text-anchor="start" x="236" y="-164.2" font-family="Helvetica,sans-Serif" font-size="11.00">bigserial[19]</text>
<polygon fill="#ffffff" stroke="none" points="10,-134 10,-156 233,-156 233,-134 10,-134"/>
<polygon fill="none" stroke="black" points="10,-134 10,-156 233,-156 233,-134 10,-134"/>
<text text-anchor="start" x="30" y="-142.2" font-family="Helvetica,sans-Serif" font-size="11.00">ems_id</text>
<polygon fill="none" stroke="black" points="233,-134 233,-156 354,-156 354,-134 233,-134"/>
<text text-anchor="start" x="236" y="-142.2" font-family="Helvetica,sans-Serif" font-size="11.00">int8[19]</text>
<polygon fill="none" stroke="black" points="10,-112 10,-134 233,-134 233,-112 10,-112"/>
<text text-anchor="start" x="30" y="-120.2" font-family="Helvetica,sans-Serif" font-size="11.00">ems_ref</text>
<polygon fill="none" stroke="black" points="233,-112 233,-134 354,-134 354,-112 233,-112"/>
<text text-anchor="start" x="236" y="-120.2" font-family="Helvetica,sans-Serif" font-size="11.00">varchar[2147483647]</text>
<polygon fill="none" stroke="black" points="10,-90 10,-112 233,-112 233,-90 10,-90"/>
<text text-anchor="start" x="30" y="-98.2" font-family="Helvetica,sans-Serif" font-size="11.00">name</text>
<polygon fill="none" stroke="black" points="233,-90 233,-112 354,-112 354,-90 233,-90"/>
<text text-anchor="start" x="236" y="-98.2" font-family="Helvetica,sans-Serif" font-size="11.00">varchar[2147483647]</text>
<polygon fill="#ffffff" stroke="none" points="10,-68 10,-90 233,-90 233,-68 10,-68"/>
<polygon fill="none" stroke="black" points="10,-68 10,-90 233,-90 233,-68 10,-68"/>
<text text-anchor="start" x="30" y="-76.2" font-family="Helvetica,sans-Serif" font-size="11.00">type</text>
<polygon fill="none" stroke="black" points="233,-68 233,-90 354,-90 354,-68 233,-68"/>
<text text-anchor="start" x="236" y="-76.2" font-family="Helvetica,sans-Serif" font-size="11.00">varchar[2147483647]</text>
<polygon fill="none" stroke="black" points="10,-46 10,-68 233,-68 233,-46 10,-46"/>
<text text-anchor="start" x="30" y="-54.2" font-family="Helvetica,sans-Serif" font-size="11.00">created_at</text>
<polygon fill="none" stroke="black" points="233,-46 233,-68 354,-68 354,-46 233,-46"/>
<text text-anchor="start" x="236" y="-54.2" font-family="Helvetica,sans-Serif" font-size="11.00">timestamp[29,6]</text>
<polygon fill="none" stroke="black" points="10,-24 10,-46 233,-46 233,-24 10,-24"/>
<text text-anchor="start" x="30" y="-32.2" font-family="Helvetica,sans-Serif" font-size="11.00">updated_at</text>
<polygon fill="none" stroke="black" points="233,-24 233,-46 354,-46 354,-24 233,-24"/>
<text text-anchor="start" x="236" y="-32.2" font-family="Helvetica,sans-Serif" font-size="11.00">timestamp[29,6]</text>
<polygon fill="#ffffff" stroke="none" points="10,-6 10,-24 126,-24 126,-6 10,-6"/>
<polygon fill="none" stroke="black" points="10,-6 10,-24 126,-24 126,-6 10,-6"/>
<text text-anchor="start" x="13" y="-12.2" font-family="Helvetica,sans-Serif" font-size="11.00">&lt; 0</text>
<polygon fill="#ffffff" stroke="none" points="126,-6 126,-24 233,-24 233,-6 126,-6"/>
<polygon fill="none" stroke="black" points="126,-6 126,-24 233,-24 233,-6 126,-6"/>
<text text-anchor="start" x="223" y="-12.2" font-family="Helvetica,sans-Serif" font-size="11.00"> &#160;</text>
<polygon fill="#ffffff" stroke="none" points="233,-6 233,-24 354,-24 354,-6 233,-6"/>
<polygon fill="none" stroke="black" points="233,-6 233,-24 354,-24 354,-6 233,-6"/>
<text text-anchor="start" x="334" y="-12.2" font-family="Helvetica,sans-Serif" font-size="11.00">0 &gt;</text>
<polygon fill="none" stroke="black" stroke-width="2" points="9,-5 9,-201 355,-201 355,-5 9,-5"/>
</a>
</g>
</g>
</g>
</svg>
