<?xml version="1.0" encoding="UTF-8" standalone="no"?>
<!DOCTYPE svg PUBLIC "-//W3C//DTD SVG 1.1//EN"
 "http://www.w3.org/Graphics/SVG/1.1/DTD/svg11.dtd">
<!-- Generated by graphviz version 2.38.0 (20140413.2041)
 -->
<!-- Title: physical_server_profiles Pages: 1 -->
<svg width="312pt" height="258pt"
 viewBox="0.00 0.00 312.00 258.00" xmlns="http://www.w3.org/2000/svg" xmlns:xlink="http://www.w3.org/1999/xlink">
<g id="graph0" class="graph" transform="scale(1 1) rotate(0) translate(4 254)">
<title>physical_server_profiles</title>
<polygon fill="#ffffff" stroke="none" points="-4,4 -4,-254 308,-254 308,4 -4,4"/>
<!-- physical_server_profiles -->
<g id="node1" class="node"><title>physical_server_profiles</title>
<g id="a_node1"><a xlink:href="../../tables/physical_server_profiles.html" xlink:title="physical_server_profiles" target="_top">
<polygon fill="#ffffff" stroke="none" points="8,-4 8,-246 296,-246 296,-4 8,-4"/>
<polygon fill="#f5f5f5" stroke="none" points="10,-222 10,-244 294,-244 294,-222 10,-222"/>
<polygon fill="none" stroke="black" points="10,-222 10,-244 294,-244 294,-222 10,-222"/>
<text text-anchor="start" x="15" y="-231.2" font-family="Helvetica,sans-Serif" font-weight="bold" font-size="11.00">physical_server_profiles</text>
<text text-anchor="start" x="255" y="-230.2" font-family="Helvetica,sans-Serif" font-size="11.00">[table]</text>
<polygon fill="none" stroke="black" points="10,-200 10,-222 173,-222 173,-200 10,-200"/>
<image xlink:href="../../images/primaryKeys.png" width="11px" height="12px" preserveAspectRatio="xMinYMin meet" x="15" y="-217"/>
<text text-anchor="start" x="30" y="-208.2" font-family="Helvetica,sans-Serif" font-size="11.00">id</text>
<polygon fill="none" stroke="black" points="173,-200 173,-222 294,-222 294,-200 173,-200"/>
<text text-anchor="start" x="176" y="-208.2" font-family="Helvetica,sans-Serif" font-size="11.00">bigserial[19]</text>
<polygon fill="#ffffff" stroke="none" points="10,-178 10,-200 173,-200 173,-178 10,-178"/>
<polygon fill="none" stroke="black" points="10,-178 10,-200 173,-200 173,-178 10,-178"/>
<text text-anchor="start" x="30" y="-186.2" font-family="Helvetica,sans-Serif" font-size="11.00">ems_id</text>
<polygon fill="none" stroke="black" points="173,-178 173,-200 294,-200 294,-178 173,-178"/>
<text text-anchor="start" x="176" y="-186.2" font-family="Helvetica,sans-Serif" font-size="11.00">int8[19]</text>
<polygon fill="none" stroke="black" points="10,-156 10,-178 173,-178 173,-156 10,-156"/>
<text text-anchor="start" x="30" y="-164.2" font-family="Helvetica,sans-Serif" font-size="11.00">ems_ref</text>
<polygon fill="none" stroke="black" points="173,-156 173,-178 294,-178 294,-156 173,-156"/>
<text text-anchor="start" x="176" y="-164.2" font-family="Helvetica,sans-Serif" font-size="11.00">varchar[2147483647]</text>
<polygon fill="none" stroke="black" points="10,-134 10,-156 173,-156 173,-134 10,-134"/>
<text text-anchor="start" x="30" y="-142.2" font-family="Helvetica,sans-Serif" font-size="11.00">name</text>
<polygon fill="none" stroke="black" points="173,-134 173,-156 294,-156 294,-134 173,-134"/>
<text text-anchor="start" x="176" y="-142.2" font-family="Helvetica,sans-Serif" font-size="11.00">varchar[2147483647]</text>
<polygon fill="#ffffff" stroke="none" points="10,-112 10,-134 173,-134 173,-112 10,-112"/>
<polygon fill="none" stroke="black" points="10,-112 10,-134 173,-134 173,-112 10,-112"/>
<text text-anchor="start" x="30" y="-120.2" font-family="Helvetica,sans-Serif" font-size="11.00">type</text>
<polygon fill="none" stroke="black" points="173,-112 173,-134 294,-134 294,-112 173,-112"/>
<text text-anchor="start" x="176" y="-120.2" font-family="Helvetica,sans-Serif" font-size="11.00">varchar[2147483647]</text>
<polygon fill="#ffffff" stroke="none" points="10,-90 10,-112 173,-112 173,-90 10,-90"/>
<polygon fill="none" stroke="black" points="10,-90 10,-112 173,-112 173,-90 10,-90"/>
<text text-anchor="start" x="30" y="-98.2" font-family="Helvetica,sans-Serif" font-size="11.00">assigned_server_id</text>
<polygon fill="none" stroke="black" points="173,-90 173,-112 294,-112 294,-90 173,-90"/>
<text text-anchor="start" x="176" y="-98.2" font-family="Helvetica,sans-Serif" font-size="11.00">int8[19]</text>
<polygon fill="#ffffff" stroke="none" points="10,-68 10,-90 173,-90 173,-68 10,-68"/>
<polygon fill="none" stroke="black" points="10,-68 10,-90 173,-90 173,-68 10,-68"/>
<text text-anchor="start" x="30" y="-76.2" font-family="Helvetica,sans-Serif" font-size="11.00">associated_server_id</text>
<polygon fill="none" stroke="black" points="173,-68 173,-90 294,-90 294,-68 173,-68"/>
<text text-anchor="start" x="176" y="-76.2" font-family="Helvetica,sans-Serif" font-size="11.00">int8[19]</text>
<polygon fill="none" stroke="black" points="10,-46 10,-68 173,-68 173,-46 10,-46"/>
<text text-anchor="start" x="30" y="-54.2" font-family="Helvetica,sans-Serif" font-size="11.00">created_at</text>
<polygon fill="none" stroke="black" points="173,-46 173,-68 294,-68 294,-46 173,-46"/>
<text text-anchor="start" x="176" y="-54.2" font-family="Helvetica,sans-Serif" font-size="11.00">timestamp[29,6]</text>
<polygon fill="none" stroke="black" points="10,-24 10,-46 173,-46 173,-24 10,-24"/>
<text text-anchor="start" x="30" y="-32.2" font-family="Helvetica,sans-Serif" font-size="11.00">updated_at</text>
<polygon fill="none" stroke="black" points="173,-24 173,-46 294,-46 294,-24 173,-24"/>
<text text-anchor="start" x="176" y="-32.2" font-family="Helvetica,sans-Serif" font-size="11.00">timestamp[29,6]</text>
<polygon fill="#ffffff" stroke="none" points="10,-6 10,-24 96,-24 96,-6 10,-6"/>
<polygon fill="none" stroke="black" points="10,-6 10,-24 96,-24 96,-6 10,-6"/>
<text text-anchor="start" x="13" y="-12.2" font-family="Helvetica,sans-Serif" font-size="11.00">&lt; 0</text>
<polygon fill="#ffffff" stroke="none" points="96,-6 96,-24 173,-24 173,-6 96,-6"/>
<polygon fill="none" stroke="black" points="96,-6 96,-24 173,-24 173,-6 96,-6"/>
<text text-anchor="start" x="163" y="-12.2" font-family="Helvetica,sans-Serif" font-size="11.00"> &#160;</text>
<polygon fill="#ffffff" stroke="none" points="173,-6 173,-24 294,-24 294,-6 173,-6"/>
<polygon fill="none" stroke="black" points="173,-6 173,-24 294,-24 294,-6 173,-6"/>
<text text-anchor="start" x="274" y="-12.2" font-family="Helvetica,sans-Serif" font-size="11.00">0 &gt;</text>
<polygon fill="none" stroke="black" stroke-width="2" points="9,-5 9,-245 295,-245 295,-5 9,-5"/>
</a>
</g>
</g>
</g>
</svg>
