<?xml version="1.0" encoding="UTF-8" standalone="no"?>
<!DOCTYPE svg PUBLIC "-//W3C//DTD SVG 1.1//EN"
 "http://www.w3.org/Graphics/SVG/1.1/DTD/svg11.dtd">
<!-- Generated by graphviz version 2.38.0 (20140413.2041)
 -->
<!-- Title: san_addresses Pages: 1 -->
<svg width="255pt" height="346pt"
 viewBox="0.00 0.00 255.00 346.00" xmlns="http://www.w3.org/2000/svg" xmlns:xlink="http://www.w3.org/1999/xlink">
<g id="graph0" class="graph" transform="scale(1 1) rotate(0) translate(4 342)">
<title>san_addresses</title>
<polygon fill="#ffffff" stroke="none" points="-4,4 -4,-342 251,-342 251,4 -4,4"/>
<!-- san_addresses -->
<g id="node1" class="node"><title>san_addresses</title>
<g id="a_node1"><a xlink:href="../../tables/san_addresses.html" xlink:title="san_addresses" target="_top">
<polygon fill="#ffffff" stroke="none" points="8,-4 8,-334 239,-334 239,-4 8,-4"/>
<polygon fill="#f5f5f5" stroke="none" points="10.5,-310 10.5,-332 237.5,-332 237.5,-310 10.5,-310"/>
<polygon fill="none" stroke="black" points="10.5,-310 10.5,-332 237.5,-332 237.5,-310 10.5,-310"/>
<text text-anchor="start" x="15.5" y="-319.2" font-family="Helvetica,sans-Serif" font-weight="bold" font-size="11.00">san_addresses</text>
<text text-anchor="start" x="198.5" y="-318.2" font-family="Helvetica,sans-Serif" font-size="11.00">[table]</text>
<polygon fill="none" stroke="black" points="10.5,-288 10.5,-310 116.5,-310 116.5,-288 10.5,-288"/>
<image xlink:href="../../images/primaryKeys.png" width="11px" height="12px" preserveAspectRatio="xMinYMin meet" x="15.5" y="-305"/>
<text text-anchor="start" x="30.5" y="-296.2" font-family="Helvetica,sans-Serif" font-size="11.00">id</text>
<polygon fill="none" stroke="black" points="116.5,-288 116.5,-310 237.5,-310 237.5,-288 116.5,-288"/>
<text text-anchor="start" x="119.5" y="-296.2" font-family="Helvetica,sans-Serif" font-size="11.00">bigserial[19]</text>
<polygon fill="#ffffff" stroke="none" points="10.5,-266 10.5,-288 116.5,-288 116.5,-266 10.5,-266"/>
<polygon fill="none" stroke="black" points="10.5,-266 10.5,-288 116.5,-288 116.5,-266 10.5,-266"/>
<text text-anchor="start" x="30.5" y="-274.2" font-family="Helvetica,sans-Serif" font-size="11.00">ems_id</text>
<polygon fill="none" stroke="black" points="116.5,-266 116.5,-288 237.5,-288 237.5,-266 116.5,-266"/>
<text text-anchor="start" x="119.5" y="-274.2" font-family="Helvetica,sans-Serif" font-size="11.00">int8[19]</text>
<polygon fill="none" stroke="black" points="10.5,-244 10.5,-266 116.5,-266 116.5,-244 10.5,-244"/>
<text text-anchor="start" x="30.5" y="-252.2" font-family="Helvetica,sans-Serif" font-size="11.00">ems_ref</text>
<polygon fill="none" stroke="black" points="116.5,-244 116.5,-266 237.5,-266 237.5,-244 116.5,-244"/>
<text text-anchor="start" x="119.5" y="-252.2" font-family="Helvetica,sans-Serif" font-size="11.00">varchar[2147483647]</text>
<polygon fill="#ffffff" stroke="none" points="10.5,-222 10.5,-244 116.5,-244 116.5,-222 10.5,-222"/>
<polygon fill="none" stroke="black" points="10.5,-222 10.5,-244 116.5,-244 116.5,-222 10.5,-222"/>
<text text-anchor="start" x="30.5" y="-230.2" font-family="Helvetica,sans-Serif" font-size="11.00">owner_type</text>
<polygon fill="none" stroke="black" points="116.5,-222 116.5,-244 237.5,-244 237.5,-222 116.5,-222"/>
<text text-anchor="start" x="119.5" y="-230.2" font-family="Helvetica,sans-Serif" font-size="11.00">varchar[2147483647]</text>
<polygon fill="#ffffff" stroke="none" points="10.5,-200 10.5,-222 116.5,-222 116.5,-200 10.5,-200"/>
<polygon fill="none" stroke="black" points="10.5,-200 10.5,-222 116.5,-222 116.5,-200 10.5,-200"/>
<text text-anchor="start" x="30.5" y="-208.2" font-family="Helvetica,sans-Serif" font-size="11.00">owner_id</text>
<polygon fill="none" stroke="black" points="116.5,-200 116.5,-222 237.5,-222 237.5,-200 116.5,-200"/>
<text text-anchor="start" x="119.5" y="-208.2" font-family="Helvetica,sans-Serif" font-size="11.00">int8[19]</text>
<polygon fill="none" stroke="black" points="10.5,-178 10.5,-200 116.5,-200 116.5,-178 10.5,-178"/>
<text text-anchor="start" x="30.5" y="-186.2" font-family="Helvetica,sans-Serif" font-size="11.00">iqn</text>
<polygon fill="none" stroke="black" points="116.5,-178 116.5,-200 237.5,-200 237.5,-178 116.5,-178"/>
<text text-anchor="start" x="119.5" y="-186.2" font-family="Helvetica,sans-Serif" font-size="11.00">varchar[2147483647]</text>
<polygon fill="none" stroke="black" points="10.5,-156 10.5,-178 116.5,-178 116.5,-156 10.5,-156"/>
<text text-anchor="start" x="30.5" y="-164.2" font-family="Helvetica,sans-Serif" font-size="11.00">chap_name</text>
<polygon fill="none" stroke="black" points="116.5,-156 116.5,-178 237.5,-178 237.5,-156 116.5,-156"/>
<text text-anchor="start" x="119.5" y="-164.2" font-family="Helvetica,sans-Serif" font-size="11.00">varchar[2147483647]</text>
<polygon fill="none" stroke="black" points="10.5,-134 10.5,-156 116.5,-156 116.5,-134 10.5,-134"/>
<text text-anchor="start" x="30.5" y="-142.2" font-family="Helvetica,sans-Serif" font-size="11.00">chap_secret</text>
<polygon fill="none" stroke="black" points="116.5,-134 116.5,-156 237.5,-156 237.5,-134 116.5,-134"/>
<text text-anchor="start" x="119.5" y="-142.2" font-family="Helvetica,sans-Serif" font-size="11.00">varchar[2147483647]</text>
<polygon fill="none" stroke="black" points="10.5,-112 10.5,-134 116.5,-134 116.5,-112 10.5,-112"/>
<text text-anchor="start" x="30.5" y="-120.2" font-family="Helvetica,sans-Serif" font-size="11.00">wwpn</text>
<polygon fill="none" stroke="black" points="116.5,-112 116.5,-134 237.5,-134 237.5,-112 116.5,-112"/>
<text text-anchor="start" x="119.5" y="-120.2" font-family="Helvetica,sans-Serif" font-size="11.00">varchar[2147483647]</text>
<polygon fill="none" stroke="black" points="10.5,-90 10.5,-112 116.5,-112 116.5,-90 10.5,-90"/>
<text text-anchor="start" x="30.5" y="-98.2" font-family="Helvetica,sans-Serif" font-size="11.00">wwnn</text>
<polygon fill="none" stroke="black" points="116.5,-90 116.5,-112 237.5,-112 237.5,-90 116.5,-90"/>
<text text-anchor="start" x="119.5" y="-98.2" font-family="Helvetica,sans-Serif" font-size="11.00">varchar[2147483647]</text>
<polygon fill="none" stroke="black" points="10.5,-68 10.5,-90 116.5,-90 116.5,-68 10.5,-68"/>
<text text-anchor="start" x="30.5" y="-76.2" font-family="Helvetica,sans-Serif" font-size="11.00">type</text>
<polygon fill="none" stroke="black" points="116.5,-68 116.5,-90 237.5,-90 237.5,-68 116.5,-68"/>
<text text-anchor="start" x="119.5" y="-76.2" font-family="Helvetica,sans-Serif" font-size="11.00">varchar[2147483647]</text>
<polygon fill="none" stroke="black" points="10.5,-46 10.5,-68 116.5,-68 116.5,-46 10.5,-46"/>
<text text-anchor="start" x="30.5" y="-54.2" font-family="Helvetica,sans-Serif" font-size="11.00">created_at</text>
<polygon fill="none" stroke="black" points="116.5,-46 116.5,-68 237.5,-68 237.5,-46 116.5,-46"/>
<text text-anchor="start" x="119.5" y="-54.2" font-family="Helvetica,sans-Serif" font-size="11.00">timestamp[29,6]</text>
<polygon fill="none" stroke="black" points="10.5,-24 10.5,-46 116.5,-46 116.5,-24 10.5,-24"/>
<text text-anchor="start" x="30.5" y="-32.2" font-family="Helvetica,sans-Serif" font-size="11.00">updated_at</text>
<polygon fill="none" stroke="black" points="116.5,-24 116.5,-46 237.5,-46 237.5,-24 116.5,-24"/>
<text text-anchor="start" x="119.5" y="-32.2" font-family="Helvetica,sans-Serif" font-size="11.00">timestamp[29,6]</text>
<polygon fill="#ffffff" stroke="none" points="10.5,-6 10.5,-24 68.5,-24 68.5,-6 10.5,-6"/>
<polygon fill="none" stroke="black" points="10.5,-6 10.5,-24 68.5,-24 68.5,-6 10.5,-6"/>
<text text-anchor="start" x="13.5" y="-12.2" font-family="Helvetica,sans-Serif" font-size="11.00">&lt; 0</text>
<polygon fill="#ffffff" stroke="none" points="68.5,-6 68.5,-24 116.5,-24 116.5,-6 68.5,-6"/>
<polygon fill="none" stroke="black" points="68.5,-6 68.5,-24 116.5,-24 116.5,-6 68.5,-6"/>
<text text-anchor="start" x="106.5" y="-12.2" font-family="Helvetica,sans-Serif" font-size="11.00"> &#160;</text>
<polygon fill="#ffffff" stroke="none" points="116.5,-6 116.5,-24 237.5,-24 237.5,-6 116.5,-6"/>
<polygon fill="none" stroke="black" points="116.5,-6 116.5,-24 237.5,-24 237.5,-6 116.5,-6"/>
<text text-anchor="start" x="217.5" y="-12.2" font-family="Helvetica,sans-Serif" font-size="11.00">0 &gt;</text>
<polygon fill="none" stroke="black" stroke-width="2" points="9,-5 9,-333 238,-333 238,-5 9,-5"/>
</a>
</g>
</g>
</g>
</svg>
