<?xml version="1.0" encoding="UTF-8" standalone="no"?>
<!DOCTYPE svg PUBLIC "-//W3C//DTD SVG 1.1//EN"
 "http://www.w3.org/Graphics/SVG/1.1/DTD/svg11.dtd">
<!-- Generated by graphviz version 2.38.0 (20140413.2041)
 -->
<!-- Title: schema_migrations Pages: 1 -->
<svg width="286pt" height="82pt"
 viewBox="0.00 0.00 286.00 82.00" xmlns="http://www.w3.org/2000/svg" xmlns:xlink="http://www.w3.org/1999/xlink">
<g id="graph0" class="graph" transform="scale(1 1) rotate(0) translate(4 78)">
<title>schema_migrations</title>
<polygon fill="#ffffff" stroke="none" points="-4,4 -4,-78 282,-78 282,4 -4,4"/>
<!-- schema_migrations -->
<g id="node1" class="node"><title>schema_migrations</title>
<g id="a_node1"><a xlink:href="../../tables/schema_migrations.html" xlink:title="schema_migrations" target="_top">
<polygon fill="#ffffff" stroke="none" points="8,-4 8,-70 270,-70 270,-4 8,-4"/>
<polygon fill="#f5f5f5" stroke="none" points="10,-46 10,-68 268,-68 268,-46 10,-46"/>
<polygon fill="none" stroke="black" points="10,-46 10,-68 268,-68 268,-46 10,-46"/>
<text text-anchor="start" x="15" y="-55.2" font-family="Helvetica,sans-Serif" font-weight="bold" font-size="11.00">schema_migrations</text>
<text text-anchor="start" x="229" y="-54.2" font-family="Helvetica,sans-Serif" font-size="11.00">[table]</text>
<polygon fill="none" stroke="black" points="10,-24 10,-46 147,-46 147,-24 10,-24"/>
<image xlink:href="../../images/primaryKeys.png" width="11px" height="12px" preserveAspectRatio="xMinYMin meet" x="15" y="-41"/>
<text text-anchor="start" x="30" y="-32.2" font-family="Helvetica,sans-Serif" font-size="11.00">version</text>
<polygon fill="none" stroke="black" points="147,-24 147,-46 268,-46 268,-24 147,-24"/>
<text text-anchor="start" x="150" y="-32.2" font-family="Helvetica,sans-Serif" font-size="11.00">varchar[2147483647]</text>
<polygon fill="#ffffff" stroke="none" points="10,-6 10,-24 83,-24 83,-6 10,-6"/>
<polygon fill="none" stroke="black" points="10,-6 10,-24 83,-24 83,-6 10,-6"/>
<text text-anchor="start" x="13" y="-12.2" font-family="Helvetica,sans-Serif" font-size="11.00">&lt; 0</text>
<polygon fill="#ffffff" stroke="none" points="83,-6 83,-24 147,-24 147,-6 83,-6"/>
<polygon fill="none" stroke="black" points="83,-6 83,-24 147,-24 147,-6 83,-6"/>
<text text-anchor="start" x="137" y="-12.2" font-family="Helvetica,sans-Serif" font-size="11.00"> &#160;</text>
<polygon fill="#ffffff" stroke="none" points="147,-6 147,-24 268,-24 268,-6 147,-6"/>
<polygon fill="none" stroke="black" points="147,-6 147,-24 268,-24 268,-6 147,-6"/>
<text text-anchor="start" x="248" y="-12.2" font-family="Helvetica,sans-Serif" font-size="11.00">0 &gt;</text>
<polygon fill="none" stroke="black" stroke-width="2" points="9,-5 9,-69 269,-69 269,-5 9,-5"/>
</a>
</g>
</g>
</g>
</svg>
