<?xml version="1.0" encoding="UTF-8" standalone="no"?>
<!DOCTYPE svg PUBLIC "-//W3C//DTD SVG 1.1//EN"
 "http://www.w3.org/Graphics/SVG/1.1/DTD/svg11.dtd">
<!-- Generated by graphviz version 2.38.0 (20140413.2041)
 -->
<!-- Title: schema_migrations_ran Pages: 1 -->
<svg width="311pt" height="126pt"
 viewBox="0.00 0.00 311.00 126.00" xmlns="http://www.w3.org/2000/svg" xmlns:xlink="http://www.w3.org/1999/xlink">
<g id="graph0" class="graph" transform="scale(1 1) rotate(0) translate(4 122)">
<title>schema_migrations_ran</title>
<polygon fill="#ffffff" stroke="none" points="-4,4 -4,-122 307,-122 307,4 -4,4"/>
<!-- schema_migrations_ran -->
<g id="node1" class="node"><title>schema_migrations_ran</title>
<g id="a_node1"><a xlink:href="../../tables/schema_migrations_ran.html" xlink:title="schema_migrations_ran" target="_top">
<polygon fill="#ffffff" stroke="none" points="8,-4 8,-114 295,-114 295,-4 8,-4"/>
<polygon fill="#f5f5f5" stroke="none" points="10.5,-90 10.5,-112 293.5,-112 293.5,-90 10.5,-90"/>
<polygon fill="none" stroke="black" points="10.5,-90 10.5,-112 293.5,-112 293.5,-90 10.5,-90"/>
<text text-anchor="start" x="15.5" y="-99.2" font-family="Helvetica,sans-Serif" font-weight="bold" font-size="11.00">schema_migrations_ran</text>
<text text-anchor="start" x="254.5" y="-98.2" font-family="Helvetica,sans-Serif" font-size="11.00">[table]</text>
<polygon fill="none" stroke="black" points="10.5,-68 10.5,-90 172.5,-90 172.5,-68 10.5,-68"/>
<image xlink:href="../../images/primaryKeys.png" width="11px" height="12px" preserveAspectRatio="xMinYMin meet" x="15.5" y="-85"/>
<text text-anchor="start" x="30.5" y="-76.2" font-family="Helvetica,sans-Serif" font-size="11.00">id</text>
<polygon fill="none" stroke="black" points="172.5,-68 172.5,-90 293.5,-90 293.5,-68 172.5,-68"/>
<text text-anchor="start" x="175.5" y="-76.2" font-family="Helvetica,sans-Serif" font-size="11.00">bigserial[19]</text>
<polygon fill="none" stroke="black" points="10.5,-46 10.5,-68 172.5,-68 172.5,-46 10.5,-46"/>
<text text-anchor="start" x="30.5" y="-54.2" font-family="Helvetica,sans-Serif" font-size="11.00">version</text>
<polygon fill="none" stroke="black" points="172.5,-46 172.5,-68 293.5,-68 293.5,-46 172.5,-46"/>
<text text-anchor="start" x="175.5" y="-54.2" font-family="Helvetica,sans-Serif" font-size="11.00">varchar[2147483647]</text>
<polygon fill="none" stroke="black" points="10.5,-24 10.5,-46 172.5,-46 172.5,-24 10.5,-24"/>
<text text-anchor="start" x="30.5" y="-32.2" font-family="Helvetica,sans-Serif" font-size="11.00">created_at</text>
<polygon fill="none" stroke="black" points="172.5,-24 172.5,-46 293.5,-46 293.5,-24 172.5,-24"/>
<text text-anchor="start" x="175.5" y="-32.2" font-family="Helvetica,sans-Serif" font-size="11.00">timestamp[29,6]</text>
<polygon fill="#ffffff" stroke="none" points="10.5,-6 10.5,-24 96.5,-24 96.5,-6 10.5,-6"/>
<polygon fill="none" stroke="black" points="10.5,-6 10.5,-24 96.5,-24 96.5,-6 10.5,-6"/>
<text text-anchor="start" x="13.5" y="-12.2" font-family="Helvetica,sans-Serif" font-size="11.00">&lt; 0</text>
<polygon fill="#ffffff" stroke="none" points="96.5,-6 96.5,-24 172.5,-24 172.5,-6 96.5,-6"/>
<polygon fill="none" stroke="black" points="96.5,-6 96.5,-24 172.5,-24 172.5,-6 96.5,-6"/>
<text text-anchor="start" x="162.5" y="-12.2" font-family="Helvetica,sans-Serif" font-size="11.00"> &#160;</text>
<polygon fill="#ffffff" stroke="none" points="172.5,-6 172.5,-24 293.5,-24 293.5,-6 172.5,-6"/>
<polygon fill="none" stroke="black" points="172.5,-6 172.5,-24 293.5,-24 293.5,-6 172.5,-6"/>
<text text-anchor="start" x="273.5" y="-12.2" font-family="Helvetica,sans-Serif" font-size="11.00">0 &gt;</text>
<polygon fill="none" stroke="black" stroke-width="2" points="9,-5 9,-113 294,-113 294,-5 9,-5"/>
</a>
</g>
</g>
</g>
</svg>
