<?xml version="1.0" encoding="UTF-8" standalone="no"?>
<!DOCTYPE svg PUBLIC "-//W3C//DTD SVG 1.1//EN"
 "http://www.w3.org/Graphics/SVG/1.1/DTD/svg11.dtd">
<!-- Generated by graphviz version 2.38.0 (20140413.2041)
 -->
<!-- Title: settings_changes Pages: 1 -->
<svg width="271pt" height="214pt"
 viewBox="0.00 0.00 271.00 214.00" xmlns="http://www.w3.org/2000/svg" xmlns:xlink="http://www.w3.org/1999/xlink">
<g id="graph0" class="graph" transform="scale(1 1) rotate(0) translate(4 210)">
<title>settings_changes</title>
<polygon fill="#ffffff" stroke="none" points="-4,4 -4,-210 267,-210 267,4 -4,4"/>
<!-- settings_changes -->
<g id="node1" class="node"><title>settings_changes</title>
<g id="a_node1"><a xlink:href="../../tables/settings_changes.html" xlink:title="settings_changes" target="_top">
<polygon fill="#ffffff" stroke="none" points="8,-4 8,-202 255,-202 255,-4 8,-4"/>
<polygon fill="#f5f5f5" stroke="none" points="10.5,-178 10.5,-200 253.5,-200 253.5,-178 10.5,-178"/>
<polygon fill="none" stroke="black" points="10.5,-178 10.5,-200 253.5,-200 253.5,-178 10.5,-178"/>
<text text-anchor="start" x="15.5" y="-187.2" font-family="Helvetica,sans-Serif" font-weight="bold" font-size="11.00">settings_changes</text>
<text text-anchor="start" x="214.5" y="-186.2" font-family="Helvetica,sans-Serif" font-size="11.00">[table]</text>
<polygon fill="none" stroke="black" points="10.5,-156 10.5,-178 132.5,-178 132.5,-156 10.5,-156"/>
<image xlink:href="../../images/primaryKeys.png" width="11px" height="12px" preserveAspectRatio="xMinYMin meet" x="15.5" y="-173"/>
<text text-anchor="start" x="30.5" y="-164.2" font-family="Helvetica,sans-Serif" font-size="11.00">id</text>
<polygon fill="none" stroke="black" points="132.5,-156 132.5,-178 253.5,-178 253.5,-156 132.5,-156"/>
<text text-anchor="start" x="135.5" y="-164.2" font-family="Helvetica,sans-Serif" font-size="11.00">bigserial[19]</text>
<polygon fill="#ffffff" stroke="none" points="10.5,-134 10.5,-156 132.5,-156 132.5,-134 10.5,-134"/>
<polygon fill="none" stroke="black" points="10.5,-134 10.5,-156 132.5,-156 132.5,-134 10.5,-134"/>
<text text-anchor="start" x="30.5" y="-142.2" font-family="Helvetica,sans-Serif" font-size="11.00">resource_type</text>
<polygon fill="none" stroke="black" points="132.5,-134 132.5,-156 253.5,-156 253.5,-134 132.5,-134"/>
<text text-anchor="start" x="135.5" y="-142.2" font-family="Helvetica,sans-Serif" font-size="11.00">varchar[2147483647]</text>
<polygon fill="#ffffff" stroke="none" points="10.5,-112 10.5,-134 132.5,-134 132.5,-112 10.5,-112"/>
<polygon fill="none" stroke="black" points="10.5,-112 10.5,-134 132.5,-134 132.5,-112 10.5,-112"/>
<text text-anchor="start" x="30.5" y="-120.2" font-family="Helvetica,sans-Serif" font-size="11.00">resource_id</text>
<polygon fill="none" stroke="black" points="132.5,-112 132.5,-134 253.5,-134 253.5,-112 132.5,-112"/>
<text text-anchor="start" x="135.5" y="-120.2" font-family="Helvetica,sans-Serif" font-size="11.00">int8[19]</text>
<polygon fill="#ffffff" stroke="none" points="10.5,-90 10.5,-112 132.5,-112 132.5,-90 10.5,-90"/>
<polygon fill="none" stroke="black" points="10.5,-90 10.5,-112 132.5,-112 132.5,-90 10.5,-90"/>
<text text-anchor="start" x="30.5" y="-98.2" font-family="Helvetica,sans-Serif" font-size="11.00">key</text>
<polygon fill="none" stroke="black" points="132.5,-90 132.5,-112 253.5,-112 253.5,-90 132.5,-90"/>
<text text-anchor="start" x="135.5" y="-98.2" font-family="Helvetica,sans-Serif" font-size="11.00">varchar[2147483647]</text>
<polygon fill="none" stroke="black" points="10.5,-68 10.5,-90 132.5,-90 132.5,-68 10.5,-68"/>
<text text-anchor="start" x="30.5" y="-76.2" font-family="Helvetica,sans-Serif" font-size="11.00">value</text>
<polygon fill="none" stroke="black" points="132.5,-68 132.5,-90 253.5,-90 253.5,-68 132.5,-68"/>
<text text-anchor="start" x="135.5" y="-76.2" font-family="Helvetica,sans-Serif" font-size="11.00">text[2147483647]</text>
<polygon fill="none" stroke="black" points="10.5,-46 10.5,-68 132.5,-68 132.5,-46 10.5,-46"/>
<text text-anchor="start" x="30.5" y="-54.2" font-family="Helvetica,sans-Serif" font-size="11.00">created_at</text>
<polygon fill="none" stroke="black" points="132.5,-46 132.5,-68 253.5,-68 253.5,-46 132.5,-46"/>
<text text-anchor="start" x="135.5" y="-54.2" font-family="Helvetica,sans-Serif" font-size="11.00">timestamp[29,6]</text>
<polygon fill="none" stroke="black" points="10.5,-24 10.5,-46 132.5,-46 132.5,-24 10.5,-24"/>
<text text-anchor="start" x="30.5" y="-32.2" font-family="Helvetica,sans-Serif" font-size="11.00">updated_at</text>
<polygon fill="none" stroke="black" points="132.5,-24 132.5,-46 253.5,-46 253.5,-24 132.5,-24"/>
<text text-anchor="start" x="135.5" y="-32.2" font-family="Helvetica,sans-Serif" font-size="11.00">timestamp[29,6]</text>
<polygon fill="#ffffff" stroke="none" points="10.5,-6 10.5,-24 76.5,-24 76.5,-6 10.5,-6"/>
<polygon fill="none" stroke="black" points="10.5,-6 10.5,-24 76.5,-24 76.5,-6 10.5,-6"/>
<text text-anchor="start" x="13.5" y="-12.2" font-family="Helvetica,sans-Serif" font-size="11.00">&lt; 0</text>
<polygon fill="#ffffff" stroke="none" points="76.5,-6 76.5,-24 132.5,-24 132.5,-6 76.5,-6"/>
<polygon fill="none" stroke="black" points="76.5,-6 76.5,-24 132.5,-24 132.5,-6 76.5,-6"/>
<text text-anchor="start" x="122.5" y="-12.2" font-family="Helvetica,sans-Serif" font-size="11.00"> &#160;</text>
<polygon fill="#ffffff" stroke="none" points="132.5,-6 132.5,-24 253.5,-24 253.5,-6 132.5,-6"/>
<polygon fill="none" stroke="black" points="132.5,-6 132.5,-24 253.5,-24 253.5,-6 132.5,-6"/>
<text text-anchor="start" x="233.5" y="-12.2" font-family="Helvetica,sans-Serif" font-size="11.00">0 &gt;</text>
<polygon fill="none" stroke="black" stroke-width="2" points="9,-5 9,-201 254,-201 254,-5 9,-5"/>
</a>
</g>
</g>
</g>
</svg>
