<?xml version="1.0" encoding="UTF-8" standalone="no"?>
<!DOCTYPE svg PUBLIC "-//W3C//DTD SVG 1.1//EN"
 "http://www.w3.org/Graphics/SVG/1.1/DTD/svg11.dtd">
<!-- Generated by graphviz version 2.38.0 (20140413.2041)
 -->
<!-- Title: vim_performance_states Pages: 1 -->
<svg width="316pt" height="192pt"
 viewBox="0.00 0.00 316.00 192.00" xmlns="http://www.w3.org/2000/svg" xmlns:xlink="http://www.w3.org/1999/xlink">
<g id="graph0" class="graph" transform="scale(1 1) rotate(0) translate(4 188)">
<title>vim_performance_states</title>
<polygon fill="#ffffff" stroke="none" points="-4,4 -4,-188 312,-188 312,4 -4,4"/>
<!-- vim_performance_states -->
<g id="node1" class="node"><title>vim_performance_states</title>
<g id="a_node1"><a xlink:href="../../tables/vim_performance_states.html" xlink:title="vim_performance_states" target="_top">
<polygon fill="#ffffff" stroke="none" points="8,-4 8,-180 300,-180 300,-4 8,-4"/>
<polygon fill="#f5f5f5" stroke="none" points="10,-156 10,-178 298,-178 298,-156 10,-156"/>
<polygon fill="none" stroke="black" points="10,-156 10,-178 298,-178 298,-156 10,-156"/>
<text text-anchor="start" x="15" y="-165.2" font-family="Helvetica,sans-Serif" font-weight="bold" font-size="11.00">vim_performance_states</text>
<text text-anchor="start" x="259" y="-164.2" font-family="Helvetica,sans-Serif" font-size="11.00">[table]</text>
<polygon fill="none" stroke="black" points="10,-134 10,-156 177,-156 177,-134 10,-134"/>
<image xlink:href="../../images/primaryKeys.png" width="11px" height="12px" preserveAspectRatio="xMinYMin meet" x="15" y="-151"/>
<text text-anchor="start" x="30" y="-142.2" font-family="Helvetica,sans-Serif" font-size="11.00">id</text>
<polygon fill="none" stroke="black" points="177,-134 177,-156 298,-156 298,-134 177,-134"/>
<text text-anchor="start" x="180" y="-142.2" font-family="Helvetica,sans-Serif" font-size="11.00">bigserial[19]</text>
<polygon fill="#ffffff" stroke="none" points="10,-112 10,-134 177,-134 177,-112 10,-112"/>
<polygon fill="none" stroke="black" points="10,-112 10,-134 177,-134 177,-112 10,-112"/>
<text text-anchor="start" x="30" y="-120.2" font-family="Helvetica,sans-Serif" font-size="11.00">timestamp</text>
<polygon fill="none" stroke="black" points="177,-112 177,-134 298,-134 298,-112 177,-112"/>
<text text-anchor="start" x="180" y="-120.2" font-family="Helvetica,sans-Serif" font-size="11.00">timestamp[29,6]</text>
<polygon fill="none" stroke="black" points="10,-90 10,-112 177,-112 177,-90 10,-90"/>
<text text-anchor="start" x="30" y="-98.2" font-family="Helvetica,sans-Serif" font-size="11.00">capture_interval</text>
<polygon fill="none" stroke="black" points="177,-90 177,-112 298,-112 298,-90 177,-90"/>
<text text-anchor="start" x="180" y="-98.2" font-family="Helvetica,sans-Serif" font-size="11.00">int4[10]</text>
<polygon fill="#ffffff" stroke="none" points="10,-68 10,-90 177,-90 177,-68 10,-68"/>
<polygon fill="none" stroke="black" points="10,-68 10,-90 177,-90 177,-68 10,-68"/>
<text text-anchor="start" x="30" y="-76.2" font-family="Helvetica,sans-Serif" font-size="11.00">resource_type</text>
<polygon fill="none" stroke="black" points="177,-68 177,-90 298,-90 298,-68 177,-68"/>
<text text-anchor="start" x="180" y="-76.2" font-family="Helvetica,sans-Serif" font-size="11.00">varchar[2147483647]</text>
<polygon fill="#ffffff" stroke="none" points="10,-46 10,-68 177,-68 177,-46 10,-46"/>
<polygon fill="none" stroke="black" points="10,-46 10,-68 177,-68 177,-46 10,-46"/>
<text text-anchor="start" x="30" y="-54.2" font-family="Helvetica,sans-Serif" font-size="11.00">resource_id</text>
<polygon fill="none" stroke="black" points="177,-46 177,-68 298,-68 298,-46 177,-46"/>
<text text-anchor="start" x="180" y="-54.2" font-family="Helvetica,sans-Serif" font-size="11.00">int8[19]</text>
<polygon fill="none" stroke="black" points="10,-24 10,-46 177,-46 177,-24 10,-24"/>
<text text-anchor="start" x="30" y="-32.2" font-family="Helvetica,sans-Serif" font-size="11.00">state_data</text>
<polygon fill="none" stroke="black" points="177,-24 177,-46 298,-46 298,-24 177,-24"/>
<text text-anchor="start" x="180" y="-32.2" font-family="Helvetica,sans-Serif" font-size="11.00">text[2147483647]</text>
<polygon fill="#ffffff" stroke="none" points="10,-6 10,-24 98,-24 98,-6 10,-6"/>
<polygon fill="none" stroke="black" points="10,-6 10,-24 98,-24 98,-6 10,-6"/>
<text text-anchor="start" x="13" y="-12.2" font-family="Helvetica,sans-Serif" font-size="11.00">&lt; 0</text>
<polygon fill="#ffffff" stroke="none" points="98,-6 98,-24 177,-24 177,-6 98,-6"/>
<polygon fill="none" stroke="black" points="98,-6 98,-24 177,-24 177,-6 98,-6"/>
<text text-anchor="start" x="167" y="-12.2" font-family="Helvetica,sans-Serif" font-size="11.00"> &#160;</text>
<polygon fill="#ffffff" stroke="none" points="177,-6 177,-24 298,-24 298,-6 177,-6"/>
<polygon fill="none" stroke="black" points="177,-6 177,-24 298,-24 298,-6 177,-6"/>
<text text-anchor="start" x="278" y="-12.2" font-family="Helvetica,sans-Serif" font-size="11.00">0 &gt;</text>
<polygon fill="none" stroke="black" stroke-width="2" points="9,-5 9,-179 299,-179 299,-5 9,-5"/>
</a>
</g>
</g>
</g>
</svg>
