<?xml version="1.0" encoding="UTF-8" standalone="no"?>
<!DOCTYPE svg PUBLIC "-//W3C//DTD SVG 1.1//EN"
 "http://www.w3.org/Graphics/SVG/1.1/DTD/svg11.dtd">
<!-- Generated by graphviz version 2.38.0 (20140413.2041)
 -->
<!-- Title: oneDegreeRelationshipsDiagram Pages: 1 -->
<svg width="480pt" height="296pt"
 viewBox="0.00 0.00 480.00 296.00" xmlns="http://www.w3.org/2000/svg" xmlns:xlink="http://www.w3.org/1999/xlink">
<g id="graph0" class="graph" transform="scale(1 1) rotate(0) translate(4 292)">
<title>oneDegreeRelationshipsDiagram</title>
<polygon fill="#ffffff" stroke="none" points="-4,4 -4,-292 476,-292 476,4 -4,4"/>
<text text-anchor="middle" x="74.5" y="-7.2" font-family="Helvetica,sans-Serif" font-size="11.00">Generated by SchemaSpy</text>
<!-- assigned_server_roles -->
<g id="node1" class="node"><title>assigned_server_roles</title>
<g id="a_node1"><a xlink:href="../../tables/assigned_server_roles.html" xlink:title="assigned_server_roles" target="_top">
<polygon fill="#ffffff" stroke="none" points="239,-81 239,-235 464,-235 464,-81 239,-81"/>
<polygon fill="#f5f5f5" stroke="none" points="241.5,-211 241.5,-233 462.5,-233 462.5,-211 241.5,-211"/>
<polygon fill="none" stroke="black" points="241.5,-211 241.5,-233 462.5,-233 462.5,-211 241.5,-211"/>
<text text-anchor="start" x="246.5" y="-220.2" font-family="Helvetica,sans-Serif" font-weight="bold" font-size="11.00">assigned_server_roles</text>
<text text-anchor="start" x="423.5" y="-219.2" font-family="Helvetica,sans-Serif" font-size="11.00">[table]</text>
<polygon fill="none" stroke="black" points="241.5,-189 241.5,-211 391.5,-211 391.5,-189 241.5,-189"/>
<image xlink:href="../../images/primaryKeys.png" width="11px" height="12px" preserveAspectRatio="xMinYMin meet" x="246.5" y="-206"/>
<text text-anchor="start" x="261.5" y="-197.2" font-family="Helvetica,sans-Serif" font-size="11.00">id</text>
<polygon fill="none" stroke="black" points="391.5,-189 391.5,-211 462.5,-211 462.5,-189 391.5,-189"/>
<text text-anchor="start" x="394.5" y="-197.2" font-family="Helvetica,sans-Serif" font-size="11.00">bigserial[19]</text>
<polygon fill="#ffffff" stroke="none" points="241.5,-167 241.5,-189 391.5,-189 391.5,-167 241.5,-167"/>
<polygon fill="none" stroke="black" points="241.5,-167 241.5,-189 391.5,-189 391.5,-167 241.5,-167"/>
<image xlink:href="../../images/foreignKeys.png" width="11px" height="12px" preserveAspectRatio="xMinYMin meet" x="246.5" y="-184"/>
<text text-anchor="start" x="261.5" y="-175.2" font-family="Helvetica,sans-Serif" font-size="11.00">miq_server_id</text>
<polygon fill="none" stroke="black" points="391.5,-167 391.5,-189 462.5,-189 462.5,-167 391.5,-167"/>
<text text-anchor="start" x="394.5" y="-175.2" font-family="Helvetica,sans-Serif" font-size="11.00">int8[19]</text>
<polygon fill="#ffffff" stroke="none" points="241.5,-145 241.5,-167 391.5,-167 391.5,-145 241.5,-145"/>
<polygon fill="none" stroke="black" points="241.5,-145 241.5,-167 391.5,-167 391.5,-145 241.5,-145"/>
<image xlink:href="../../images/foreignKeys.png" width="11px" height="12px" preserveAspectRatio="xMinYMin meet" x="246.5" y="-162"/>
<text text-anchor="start" x="261.5" y="-153.2" font-family="Helvetica,sans-Serif" font-size="11.00">server_role_id</text>
<polygon fill="none" stroke="black" points="391.5,-145 391.5,-167 462.5,-167 462.5,-145 391.5,-145"/>
<text text-anchor="start" x="394.5" y="-153.2" font-family="Helvetica,sans-Serif" font-size="11.00">int8[19]</text>
<polygon fill="none" stroke="black" points="241.5,-123 241.5,-145 391.5,-145 391.5,-123 241.5,-123"/>
<text text-anchor="start" x="261.5" y="-131.2" font-family="Helvetica,sans-Serif" font-size="11.00">active</text>
<polygon fill="none" stroke="black" points="391.5,-123 391.5,-145 462.5,-145 462.5,-123 391.5,-123"/>
<text text-anchor="start" x="394.5" y="-131.2" font-family="Helvetica,sans-Serif" font-size="11.00">bool[1]</text>
<polygon fill="none" stroke="black" points="241.5,-101 241.5,-123 391.5,-123 391.5,-101 241.5,-101"/>
<text text-anchor="start" x="261.5" y="-109.2" font-family="Helvetica,sans-Serif" font-size="11.00">priority</text>
<polygon fill="none" stroke="black" points="391.5,-101 391.5,-123 462.5,-123 462.5,-101 391.5,-101"/>
<text text-anchor="start" x="394.5" y="-109.2" font-family="Helvetica,sans-Serif" font-size="11.00">int4[10]</text>
<polygon fill="#ffffff" stroke="none" points="241.5,-83 241.5,-101 321.5,-101 321.5,-83 241.5,-83"/>
<polygon fill="none" stroke="black" points="241.5,-83 241.5,-101 321.5,-101 321.5,-83 241.5,-83"/>
<text text-anchor="start" x="244.5" y="-89.2" font-family="Helvetica,sans-Serif" font-size="11.00">&lt; 2</text>
<polygon fill="#ffffff" stroke="none" points="321.5,-83 321.5,-101 391.5,-101 391.5,-83 321.5,-83"/>
<polygon fill="none" stroke="black" points="321.5,-83 321.5,-101 391.5,-101 391.5,-83 321.5,-83"/>
<text text-anchor="start" x="381.5" y="-89.2" font-family="Helvetica,sans-Serif" font-size="11.00"> &#160;</text>
<polygon fill="#ffffff" stroke="none" points="391.5,-83 391.5,-101 462.5,-101 462.5,-83 391.5,-83"/>
<polygon fill="none" stroke="black" points="391.5,-83 391.5,-101 462.5,-101 462.5,-83 391.5,-83"/>
<text text-anchor="start" x="442.5" y="-89.2" font-family="Helvetica,sans-Serif" font-size="11.00">0 &gt;</text>
<polygon fill="none" stroke="black" stroke-width="2" points="240,-82 240,-234 463,-234 463,-82 240,-82"/>
</a>
</g>
</g>
<!-- miq_servers -->
<g id="node2" class="node"><title>miq_servers</title>
<g id="a_node2"><a xlink:href="../../tables/miq_servers.html" xlink:title="miq_servers" target="_top">
<polygon fill="#ffffff" stroke="none" points="8,-138 8,-284 190,-284 190,-138 8,-138"/>
<polygon fill="#f5f5f5" stroke="none" points="8,-262 8,-284 190,-284 190,-262 8,-262"/>
<polygon fill="none" stroke="black" points="8,-262 8,-284 190,-284 190,-262 8,-262"/>
<text text-anchor="start" x="13" y="-271.2" font-family="Helvetica,sans-Serif" font-weight="bold" font-size="11.00">miq_servers</text>
<text text-anchor="start" x="151" y="-270.2" font-family="Helvetica,sans-Serif" font-size="11.00">[table]</text>
<polygon fill="none" stroke="black" points="8,-240 8,-262 190,-262 190,-240 8,-240"/>
<image xlink:href="../../images/primaryKeys.png" width="11px" height="12px" preserveAspectRatio="xMinYMin meet" x="13" y="-257"/>
<text text-anchor="start" x="28" y="-248.2" font-family="Helvetica,sans-Serif" font-size="11.00">id</text>
<polygon fill="#ffffff" stroke="none" points="8,-218 8,-240 190,-240 190,-218 8,-218"/>
<polygon fill="none" stroke="black" points="8,-218 8,-240 190,-240 190,-218 8,-218"/>
<text text-anchor="start" x="28" y="-226.2" font-family="Helvetica,sans-Serif" font-size="11.00">guid</text>
<polygon fill="#ffffff" stroke="none" points="8,-196 8,-218 190,-218 190,-196 8,-196"/>
<polygon fill="none" stroke="black" points="8,-196 8,-218 190,-218 190,-196 8,-196"/>
<image xlink:href="../../images/foreignKeys.png" width="11px" height="12px" preserveAspectRatio="xMinYMin meet" x="13" y="-213"/>
<text text-anchor="start" x="28" y="-204.2" font-family="Helvetica,sans-Serif" font-size="11.00">zone_id</text>
<polygon fill="#ffffff" stroke="none" points="8,-174 8,-196 190,-196 190,-174 8,-174"/>
<polygon fill="none" stroke="black" points="8,-174 8,-196 190,-196 190,-174 8,-174"/>
<image xlink:href="../../images/foreignKeys.png" width="11px" height="12px" preserveAspectRatio="xMinYMin meet" x="13" y="-191"/>
<text text-anchor="start" x="28" y="-182.2" font-family="Helvetica,sans-Serif" font-size="11.00">vm_id</text>
<polygon fill="none" stroke="black" points="8,-156 8,-174 190,-174 190,-156 8,-156"/>
<text text-anchor="start" x="11" y="-162.2" font-family="Helvetica,sans-Serif" font-size="11.00">...</text>
<polygon fill="#ffffff" stroke="none" points="8,-138 8,-156 92,-156 92,-138 8,-138"/>
<polygon fill="none" stroke="black" points="8,-138 8,-156 92,-156 92,-138 8,-138"/>
<text text-anchor="start" x="11" y="-144.2" font-family="Helvetica,sans-Serif" font-size="11.00">&lt; 2</text>
<polygon fill="#ffffff" stroke="none" points="92,-138 92,-156 136,-156 136,-138 92,-138"/>
<polygon fill="none" stroke="black" points="92,-138 92,-156 136,-156 136,-138 92,-138"/>
<text text-anchor="start" x="126" y="-144.2" font-family="Helvetica,sans-Serif" font-size="11.00"> &#160;</text>
<polygon fill="#ffffff" stroke="none" points="136,-138 136,-156 190,-156 190,-138 136,-138"/>
<polygon fill="none" stroke="black" points="136,-138 136,-156 190,-156 190,-138 136,-138"/>
<text text-anchor="start" x="170" y="-144.2" font-family="Helvetica,sans-Serif" font-size="11.00">4 &gt;</text>
</a>
</g>
</g>
<!-- assigned_server_roles&#45;&gt;miq_servers -->
<g id="edge1" class="edge"><title>assigned_server_roles:miq_server_id:w&#45;&gt;miq_servers:id:e</title>
<path fill="none" stroke="black" d="M226.593,-182.79C208.669,-199.03 224.075,-251 191,-251"/>
<polygon fill="black" stroke="black" points="232.936,-180.605 241.672,-181.404 236.718,-179.303 240.5,-178 240.5,-178 240.5,-178 236.718,-179.303 239.328,-174.596 232.936,-180.605 232.936,-180.605"/>
<ellipse fill="none" stroke="black" cx="229.91" cy="-181.647" rx="3.20001" ry="3.20001"/>
</g>
<!-- server_roles -->
<g id="node3" class="node"><title>server_roles</title>
<g id="a_node3"><a xlink:href="../../tables/server_roles.html" xlink:title="server_roles" target="_top">
<polygon fill="#ffffff" stroke="none" points="38,-37 38,-117 160,-117 160,-37 38,-37"/>
<polygon fill="#f5f5f5" stroke="none" points="38,-95 38,-117 160,-117 160,-95 38,-95"/>
<polygon fill="none" stroke="black" points="38,-95 38,-117 160,-117 160,-95 38,-95"/>
<text text-anchor="start" x="43" y="-104.2" font-family="Helvetica,sans-Serif" font-weight="bold" font-size="11.00">server_roles</text>
<text text-anchor="start" x="121" y="-103.2" font-family="Helvetica,sans-Serif" font-size="11.00">[table]</text>
<polygon fill="none" stroke="black" points="38,-73 38,-95 160,-95 160,-73 38,-73"/>
<image xlink:href="../../images/primaryKeys.png" width="11px" height="12px" preserveAspectRatio="xMinYMin meet" x="43" y="-90"/>
<text text-anchor="start" x="58" y="-81.2" font-family="Helvetica,sans-Serif" font-size="11.00">id</text>
<polygon fill="none" stroke="black" points="38,-55 38,-73 160,-73 160,-55 38,-55"/>
<text text-anchor="start" x="41" y="-61.2" font-family="Helvetica,sans-Serif" font-size="11.00">...</text>
<polygon fill="#ffffff" stroke="none" points="38,-37 38,-55 87,-55 87,-37 38,-37"/>
<polygon fill="none" stroke="black" points="38,-37 38,-55 87,-55 87,-37 38,-37"/>
<text text-anchor="start" x="41" y="-43.2" font-family="Helvetica,sans-Serif" font-size="11.00"> &#160;</text>
<polygon fill="#ffffff" stroke="none" points="87,-37 87,-55 118,-55 118,-37 87,-37"/>
<polygon fill="none" stroke="black" points="87,-37 87,-55 118,-55 118,-37 87,-37"/>
<text text-anchor="start" x="108" y="-43.2" font-family="Helvetica,sans-Serif" font-size="11.00"> &#160;</text>
<polygon fill="#ffffff" stroke="none" points="118,-37 118,-55 160,-55 160,-37 118,-37"/>
<polygon fill="none" stroke="black" points="118,-37 118,-55 160,-55 160,-37 118,-37"/>
<text text-anchor="start" x="140" y="-43.2" font-family="Helvetica,sans-Serif" font-size="11.00">1 &gt;</text>
</a>
</g>
</g>
<!-- assigned_server_roles&#45;&gt;server_roles -->
<g id="edge2" class="edge"><title>assigned_server_roles:server_role_id:w&#45;&gt;server_roles:id:e</title>
<path fill="none" stroke="black" d="M226.153,-153.265C195.67,-140.114 203.084,-84 161,-84"/>
<polygon fill="black" stroke="black" points="232.641,-154.502 239.826,-159.536 236.571,-155.251 240.5,-156 240.5,-156 240.5,-156 236.571,-155.251 241.174,-152.464 232.641,-154.502 232.641,-154.502"/>
<ellipse fill="none" stroke="black" cx="229.498" cy="-153.903" rx="3.2" ry="3.2"/>
</g>
</g>
</svg>
