<?xml version="1.0" encoding="UTF-8" standalone="no"?>
<!DOCTYPE svg PUBLIC "-//W3C//DTD SVG 1.1//EN"
 "http://www.w3.org/Graphics/SVG/1.1/DTD/svg11.dtd">
<!-- Generated by graphviz version 2.38.0 (20140413.2041)
 -->
<!-- Title: oneDegreeRelationshipsDiagram Pages: 1 -->
<svg width="585pt" height="263pt"
 viewBox="0.00 0.00 585.00 263.00" xmlns="http://www.w3.org/2000/svg" xmlns:xlink="http://www.w3.org/1999/xlink">
<g id="graph0" class="graph" transform="scale(1 1) rotate(0) translate(4 259)">
<title>oneDegreeRelationshipsDiagram</title>
<polygon fill="#ffffff" stroke="none" points="-4,4 -4,-259 581,-259 581,4 -4,4"/>
<text text-anchor="middle" x="74.5" y="-7.2" font-family="Helvetica,sans-Serif" font-size="11.00">Generated by SchemaSpy</text>
<!-- authentication_configuration_script_bases -->
<g id="node1" class="node"><title>authentication_configuration_script_bases</title>
<g id="a_node1"><a xlink:href="../../tables/authentication_configuration_script_bases.html" xlink:title="authentication_configuration_script_bases" target="_top">
<polygon fill="#ffffff" stroke="none" points="220,-141 220,-251 569,-251 569,-141 220,-141"/>
<polygon fill="#f5f5f5" stroke="none" points="222.5,-227 222.5,-249 567.5,-249 567.5,-227 222.5,-227"/>
<polygon fill="none" stroke="black" points="222.5,-227 222.5,-249 567.5,-249 567.5,-227 222.5,-227"/>
<text text-anchor="start" x="227.5" y="-236.2" font-family="Helvetica,sans-Serif" font-weight="bold" font-size="11.00">authentication_configuration_script_bases</text>
<text text-anchor="start" x="528.5" y="-235.2" font-family="Helvetica,sans-Serif" font-size="11.00">[table]</text>
<polygon fill="none" stroke="black" points="222.5,-205 222.5,-227 496.5,-227 496.5,-205 222.5,-205"/>
<image xlink:href="../../images/primaryKeys.png" width="11px" height="12px" preserveAspectRatio="xMinYMin meet" x="227.5" y="-222"/>
<text text-anchor="start" x="242.5" y="-213.2" font-family="Helvetica,sans-Serif" font-size="11.00">id</text>
<polygon fill="none" stroke="black" points="496.5,-205 496.5,-227 567.5,-227 567.5,-205 496.5,-205"/>
<text text-anchor="start" x="499.5" y="-213.2" font-family="Helvetica,sans-Serif" font-size="11.00">bigserial[19]</text>
<polygon fill="none" stroke="black" points="222.5,-183 222.5,-205 496.5,-205 496.5,-183 222.5,-183"/>
<image xlink:href="../../images/foreignKeys.png" width="11px" height="12px" preserveAspectRatio="xMinYMin meet" x="227.5" y="-200"/>
<text text-anchor="start" x="242.5" y="-191.2" font-family="Helvetica,sans-Serif" font-size="11.00">authentication_id</text>
<polygon fill="none" stroke="black" points="496.5,-183 496.5,-205 567.5,-205 567.5,-183 496.5,-183"/>
<text text-anchor="start" x="499.5" y="-191.2" font-family="Helvetica,sans-Serif" font-size="11.00">int8[19]</text>
<polygon fill="#ffffff" stroke="none" points="222.5,-161 222.5,-183 496.5,-183 496.5,-161 222.5,-161"/>
<polygon fill="none" stroke="black" points="222.5,-161 222.5,-183 496.5,-183 496.5,-161 222.5,-161"/>
<text text-anchor="start" x="242.5" y="-169.2" font-family="Helvetica,sans-Serif" font-size="11.00">configuration_script_base_id</text>
<polygon fill="none" stroke="black" points="496.5,-161 496.5,-183 567.5,-183 567.5,-161 496.5,-161"/>
<text text-anchor="start" x="499.5" y="-169.2" font-family="Helvetica,sans-Serif" font-size="11.00">int8[19]</text>
<polygon fill="#ffffff" stroke="none" points="222.5,-143 222.5,-161 364.5,-161 364.5,-143 222.5,-143"/>
<polygon fill="none" stroke="black" points="222.5,-143 222.5,-161 364.5,-161 364.5,-143 222.5,-143"/>
<text text-anchor="start" x="225.5" y="-149.2" font-family="Helvetica,sans-Serif" font-size="11.00">&lt; 1</text>
<polygon fill="#ffffff" stroke="none" points="364.5,-143 364.5,-161 496.5,-161 496.5,-143 364.5,-143"/>
<polygon fill="none" stroke="black" points="364.5,-143 364.5,-161 496.5,-161 496.5,-143 364.5,-143"/>
<text text-anchor="start" x="486.5" y="-149.2" font-family="Helvetica,sans-Serif" font-size="11.00"> &#160;</text>
<polygon fill="#ffffff" stroke="none" points="496.5,-143 496.5,-161 567.5,-161 567.5,-143 496.5,-143"/>
<polygon fill="none" stroke="black" points="496.5,-143 496.5,-161 567.5,-161 567.5,-143 496.5,-143"/>
<text text-anchor="start" x="547.5" y="-149.2" font-family="Helvetica,sans-Serif" font-size="11.00">0 &gt;</text>
<polygon fill="none" stroke="black" stroke-width="2" points="221,-142 221,-250 568,-250 568,-142 221,-142"/>
</a>
</g>
</g>
<!-- authentications -->
<g id="node2" class="node"><title>authentications</title>
<g id="a_node2"><a xlink:href="../../tables/authentications.html" xlink:title="authentications" target="_top">
<polygon fill="#ffffff" stroke="none" points="8,-37 8,-227 171,-227 171,-37 8,-37"/>
<polygon fill="#f5f5f5" stroke="none" points="8.5,-205 8.5,-227 171.5,-227 171.5,-205 8.5,-205"/>
<polygon fill="none" stroke="black" points="8.5,-205 8.5,-227 171.5,-227 171.5,-205 8.5,-205"/>
<text text-anchor="start" x="13.5" y="-214.2" font-family="Helvetica,sans-Serif" font-weight="bold" font-size="11.00">authentications</text>
<text text-anchor="start" x="132.5" y="-213.2" font-family="Helvetica,sans-Serif" font-size="11.00">[table]</text>
<polygon fill="none" stroke="black" points="8.5,-183 8.5,-205 171.5,-205 171.5,-183 8.5,-183"/>
<image xlink:href="../../images/primaryKeys.png" width="11px" height="12px" preserveAspectRatio="xMinYMin meet" x="13.5" y="-200"/>
<text text-anchor="start" x="28.5" y="-191.2" font-family="Helvetica,sans-Serif" font-size="11.00">id</text>
<polygon fill="#ffffff" stroke="none" points="8.5,-161 8.5,-183 171.5,-183 171.5,-161 8.5,-161"/>
<polygon fill="none" stroke="black" points="8.5,-161 8.5,-183 171.5,-183 171.5,-161 8.5,-161"/>
<text text-anchor="start" x="28.5" y="-169.2" font-family="Helvetica,sans-Serif" font-size="11.00">resource_id</text>
<polygon fill="#ffffff" stroke="none" points="8.5,-139 8.5,-161 171.5,-161 171.5,-139 8.5,-139"/>
<polygon fill="none" stroke="black" points="8.5,-139 8.5,-161 171.5,-161 171.5,-139 8.5,-139"/>
<text text-anchor="start" x="28.5" y="-147.2" font-family="Helvetica,sans-Serif" font-size="11.00">resource_type</text>
<polygon fill="#ffffff" stroke="none" points="8.5,-117 8.5,-139 171.5,-139 171.5,-117 8.5,-117"/>
<polygon fill="none" stroke="black" points="8.5,-117 8.5,-139 171.5,-139 171.5,-117 8.5,-117"/>
<text text-anchor="start" x="28.5" y="-125.2" font-family="Helvetica,sans-Serif" font-size="11.00">type</text>
<polygon fill="none" stroke="black" points="8.5,-95 8.5,-117 171.5,-117 171.5,-95 8.5,-95"/>
<image xlink:href="../../images/foreignKeys.png" width="11px" height="12px" preserveAspectRatio="xMinYMin meet" x="13.5" y="-112"/>
<text text-anchor="start" x="28.5" y="-103.2" font-family="Helvetica,sans-Serif" font-size="11.00">miq_group_id</text>
<polygon fill="none" stroke="black" points="8.5,-73 8.5,-95 171.5,-95 171.5,-73 8.5,-73"/>
<image xlink:href="../../images/foreignKeys.png" width="11px" height="12px" preserveAspectRatio="xMinYMin meet" x="13.5" y="-90"/>
<text text-anchor="start" x="28.5" y="-81.2" font-family="Helvetica,sans-Serif" font-size="11.00">tenant_id</text>
<polygon fill="none" stroke="black" points="8.5,-55 8.5,-73 171.5,-73 171.5,-55 8.5,-55"/>
<text text-anchor="start" x="11.5" y="-61.2" font-family="Helvetica,sans-Serif" font-size="11.00">...</text>
<polygon fill="#ffffff" stroke="none" points="8.5,-37 8.5,-55 83.5,-55 83.5,-37 8.5,-37"/>
<polygon fill="none" stroke="black" points="8.5,-37 8.5,-55 83.5,-55 83.5,-37 8.5,-37"/>
<text text-anchor="start" x="11.5" y="-43.2" font-family="Helvetica,sans-Serif" font-size="11.00">&lt; 2</text>
<polygon fill="#ffffff" stroke="none" points="83.5,-37 83.5,-55 122.5,-55 122.5,-37 83.5,-37"/>
<polygon fill="none" stroke="black" points="83.5,-37 83.5,-55 122.5,-55 122.5,-37 83.5,-37"/>
<text text-anchor="start" x="112.5" y="-43.2" font-family="Helvetica,sans-Serif" font-size="11.00"> &#160;</text>
<polygon fill="#ffffff" stroke="none" points="122.5,-37 122.5,-55 171.5,-55 171.5,-37 122.5,-37"/>
<polygon fill="none" stroke="black" points="122.5,-37 122.5,-55 171.5,-55 171.5,-37 122.5,-37"/>
<text text-anchor="start" x="151.5" y="-43.2" font-family="Helvetica,sans-Serif" font-size="11.00">5 &gt;</text>
</a>
</g>
</g>
<!-- authentication_configuration_script_bases&#45;&gt;authentications -->
<g id="edge1" class="edge"><title>authentication_configuration_script_bases:authentication_id:w&#45;&gt;authentications:id:e</title>
<path fill="none" stroke="black" d="M206.991,-194C195.677,-194 188.493,-194 172.5,-194"/>
<polygon fill="black" stroke="black" points="213.5,-194 221.5,-197.6 217.5,-194 221.5,-194 221.5,-194 221.5,-194 217.5,-194 221.5,-190.4 213.5,-194 213.5,-194"/>
<ellipse fill="none" stroke="black" cx="210.3" cy="-194" rx="3.2" ry="3.2"/>
</g>
</g>
</svg>
