<?xml version="1.0" encoding="UTF-8" standalone="no"?>
<!DOCTYPE svg PUBLIC "-//W3C//DTD SVG 1.1//EN"
 "http://www.w3.org/Graphics/SVG/1.1/DTD/svg11.dtd">
<!-- Generated by graphviz version 2.38.0 (20140413.2041)
 -->
<!-- Title: twoDegreesRelationshipsDiagram Pages: 1 -->
<svg width="1149pt" height="423pt"
 viewBox="0.00 0.00 1149.00 423.00" xmlns="http://www.w3.org/2000/svg" xmlns:xlink="http://www.w3.org/1999/xlink">
<g id="graph0" class="graph" transform="scale(1 1) rotate(0) translate(4 419)">
<title>twoDegreesRelationshipsDiagram</title>
<polygon fill="#ffffff" stroke="none" points="-4,4 -4,-419 1145,-419 1145,4 -4,4"/>
<text text-anchor="middle" x="74.5" y="-7.2" font-family="Helvetica,sans-Serif" font-size="11.00">Generated by SchemaSpy</text>
<!-- authentication_configuration_script_bases -->
<g id="node1" class="node"><title>authentication_configuration_script_bases</title>
<g id="a_node1"><a xlink:href="../../tables/authentication_configuration_script_bases.html" xlink:title="authentication_configuration_script_bases" target="_top">
<polygon fill="#ffffff" stroke="none" points="525,-301 525,-411 874,-411 874,-301 525,-301"/>
<polygon fill="#f5f5f5" stroke="none" points="527.5,-387 527.5,-409 872.5,-409 872.5,-387 527.5,-387"/>
<polygon fill="none" stroke="black" points="527.5,-387 527.5,-409 872.5,-409 872.5,-387 527.5,-387"/>
<text text-anchor="start" x="532.5" y="-396.2" font-family="Helvetica,sans-Serif" font-weight="bold" font-size="11.00">authentication_configuration_script_bases</text>
<text text-anchor="start" x="833.5" y="-395.2" font-family="Helvetica,sans-Serif" font-size="11.00">[table]</text>
<polygon fill="none" stroke="black" points="527.5,-365 527.5,-387 801.5,-387 801.5,-365 527.5,-365"/>
<image xlink:href="../../images/primaryKeys.png" width="11px" height="12px" preserveAspectRatio="xMinYMin meet" x="532.5" y="-382"/>
<text text-anchor="start" x="547.5" y="-373.2" font-family="Helvetica,sans-Serif" font-size="11.00">id</text>
<polygon fill="none" stroke="black" points="801.5,-365 801.5,-387 872.5,-387 872.5,-365 801.5,-365"/>
<text text-anchor="start" x="804.5" y="-373.2" font-family="Helvetica,sans-Serif" font-size="11.00">bigserial[19]</text>
<polygon fill="none" stroke="black" points="527.5,-343 527.5,-365 801.5,-365 801.5,-343 527.5,-343"/>
<image xlink:href="../../images/foreignKeys.png" width="11px" height="12px" preserveAspectRatio="xMinYMin meet" x="532.5" y="-360"/>
<text text-anchor="start" x="547.5" y="-351.2" font-family="Helvetica,sans-Serif" font-size="11.00">authentication_id</text>
<polygon fill="none" stroke="black" points="801.5,-343 801.5,-365 872.5,-365 872.5,-343 801.5,-343"/>
<text text-anchor="start" x="804.5" y="-351.2" font-family="Helvetica,sans-Serif" font-size="11.00">int8[19]</text>
<polygon fill="#ffffff" stroke="none" points="527.5,-321 527.5,-343 801.5,-343 801.5,-321 527.5,-321"/>
<polygon fill="none" stroke="black" points="527.5,-321 527.5,-343 801.5,-343 801.5,-321 527.5,-321"/>
<text text-anchor="start" x="547.5" y="-329.2" font-family="Helvetica,sans-Serif" font-size="11.00">configuration_script_base_id</text>
<polygon fill="none" stroke="black" points="801.5,-321 801.5,-343 872.5,-343 872.5,-321 801.5,-321"/>
<text text-anchor="start" x="804.5" y="-329.2" font-family="Helvetica,sans-Serif" font-size="11.00">int8[19]</text>
<polygon fill="#ffffff" stroke="none" points="527.5,-303 527.5,-321 669.5,-321 669.5,-303 527.5,-303"/>
<polygon fill="none" stroke="black" points="527.5,-303 527.5,-321 669.5,-321 669.5,-303 527.5,-303"/>
<text text-anchor="start" x="530.5" y="-309.2" font-family="Helvetica,sans-Serif" font-size="11.00">&lt; 1</text>
<polygon fill="#ffffff" stroke="none" points="669.5,-303 669.5,-321 801.5,-321 801.5,-303 669.5,-303"/>
<polygon fill="none" stroke="black" points="669.5,-303 669.5,-321 801.5,-321 801.5,-303 669.5,-303"/>
<text text-anchor="start" x="791.5" y="-309.2" font-family="Helvetica,sans-Serif" font-size="11.00"> &#160;</text>
<polygon fill="#ffffff" stroke="none" points="801.5,-303 801.5,-321 872.5,-321 872.5,-303 801.5,-303"/>
<polygon fill="none" stroke="black" points="801.5,-303 801.5,-321 872.5,-321 872.5,-303 801.5,-303"/>
<text text-anchor="start" x="852.5" y="-309.2" font-family="Helvetica,sans-Serif" font-size="11.00">0 &gt;</text>
<polygon fill="none" stroke="black" stroke-width="2" points="526,-302 526,-410 873,-410 873,-302 526,-302"/>
</a>
</g>
</g>
<!-- authentications -->
<g id="node2" class="node"><title>authentications</title>
<g id="a_node2"><a xlink:href="../../tables/authentications.html" xlink:title="authentications" target="_top">
<polygon fill="#ffffff" stroke="none" points="313,-41 313,-231 476,-231 476,-41 313,-41"/>
<polygon fill="#f5f5f5" stroke="none" points="313.5,-209 313.5,-231 476.5,-231 476.5,-209 313.5,-209"/>
<polygon fill="none" stroke="black" points="313.5,-209 313.5,-231 476.5,-231 476.5,-209 313.5,-209"/>
<text text-anchor="start" x="318.5" y="-218.2" font-family="Helvetica,sans-Serif" font-weight="bold" font-size="11.00">authentications</text>
<text text-anchor="start" x="437.5" y="-217.2" font-family="Helvetica,sans-Serif" font-size="11.00">[table]</text>
<polygon fill="none" stroke="black" points="313.5,-187 313.5,-209 476.5,-209 476.5,-187 313.5,-187"/>
<image xlink:href="../../images/primaryKeys.png" width="11px" height="12px" preserveAspectRatio="xMinYMin meet" x="318.5" y="-204"/>
<text text-anchor="start" x="333.5" y="-195.2" font-family="Helvetica,sans-Serif" font-size="11.00">id</text>
<polygon fill="#ffffff" stroke="none" points="313.5,-165 313.5,-187 476.5,-187 476.5,-165 313.5,-165"/>
<polygon fill="none" stroke="black" points="313.5,-165 313.5,-187 476.5,-187 476.5,-165 313.5,-165"/>
<text text-anchor="start" x="333.5" y="-173.2" font-family="Helvetica,sans-Serif" font-size="11.00">resource_id</text>
<polygon fill="#ffffff" stroke="none" points="313.5,-143 313.5,-165 476.5,-165 476.5,-143 313.5,-143"/>
<polygon fill="none" stroke="black" points="313.5,-143 313.5,-165 476.5,-165 476.5,-143 313.5,-143"/>
<text text-anchor="start" x="333.5" y="-151.2" font-family="Helvetica,sans-Serif" font-size="11.00">resource_type</text>
<polygon fill="#ffffff" stroke="none" points="313.5,-121 313.5,-143 476.5,-143 476.5,-121 313.5,-121"/>
<polygon fill="none" stroke="black" points="313.5,-121 313.5,-143 476.5,-143 476.5,-121 313.5,-121"/>
<text text-anchor="start" x="333.5" y="-129.2" font-family="Helvetica,sans-Serif" font-size="11.00">type</text>
<polygon fill="none" stroke="black" points="313.5,-99 313.5,-121 476.5,-121 476.5,-99 313.5,-99"/>
<image xlink:href="../../images/foreignKeys.png" width="11px" height="12px" preserveAspectRatio="xMinYMin meet" x="318.5" y="-116"/>
<text text-anchor="start" x="333.5" y="-107.2" font-family="Helvetica,sans-Serif" font-size="11.00">miq_group_id</text>
<polygon fill="none" stroke="black" points="313.5,-77 313.5,-99 476.5,-99 476.5,-77 313.5,-77"/>
<image xlink:href="../../images/foreignKeys.png" width="11px" height="12px" preserveAspectRatio="xMinYMin meet" x="318.5" y="-94"/>
<text text-anchor="start" x="333.5" y="-85.2" font-family="Helvetica,sans-Serif" font-size="11.00">tenant_id</text>
<polygon fill="none" stroke="black" points="313.5,-59 313.5,-77 476.5,-77 476.5,-59 313.5,-59"/>
<text text-anchor="start" x="316.5" y="-65.2" font-family="Helvetica,sans-Serif" font-size="11.00">...</text>
<polygon fill="#ffffff" stroke="none" points="313.5,-41 313.5,-59 388.5,-59 388.5,-41 313.5,-41"/>
<polygon fill="none" stroke="black" points="313.5,-41 313.5,-59 388.5,-59 388.5,-41 313.5,-41"/>
<text text-anchor="start" x="316.5" y="-47.2" font-family="Helvetica,sans-Serif" font-size="11.00">&lt; 2</text>
<polygon fill="#ffffff" stroke="none" points="388.5,-41 388.5,-59 427.5,-59 427.5,-41 388.5,-41"/>
<polygon fill="none" stroke="black" points="388.5,-41 388.5,-59 427.5,-59 427.5,-41 388.5,-41"/>
<text text-anchor="start" x="417.5" y="-47.2" font-family="Helvetica,sans-Serif" font-size="11.00"> &#160;</text>
<polygon fill="#ffffff" stroke="none" points="427.5,-41 427.5,-59 476.5,-59 476.5,-41 427.5,-41"/>
<polygon fill="none" stroke="black" points="427.5,-41 427.5,-59 476.5,-59 476.5,-41 427.5,-41"/>
<text text-anchor="start" x="456.5" y="-47.2" font-family="Helvetica,sans-Serif" font-size="11.00">5 &gt;</text>
</a>
</g>
</g>
<!-- authentication_configuration_script_bases&#45;&gt;authentications -->
<g id="edge1" class="edge"><title>authentication_configuration_script_bases:authentication_id:w&#45;&gt;authentications:id:e</title>
<path fill="none" stroke="black" d="M512.119,-351.159C468.173,-330.016 544.354,-198 477.5,-198"/>
<polygon fill="black" stroke="black" points="518.652,-352.45 525.802,-357.532 522.576,-353.225 526.5,-354 526.5,-354 526.5,-354 522.576,-353.225 527.198,-350.468 518.652,-352.45 518.652,-352.45"/>
<ellipse fill="none" stroke="black" cx="515.512" cy="-351.829" rx="3.2" ry="3.2"/>
</g>
<!-- miq_groups -->
<g id="node4" class="node"><title>miq_groups</title>
<g id="a_node4"><a xlink:href="../../tables/miq_groups.html" xlink:title="miq_groups" target="_top">
<polygon fill="#ffffff" stroke="none" points="150,-98 150,-156 264,-156 264,-98 150,-98"/>
<polygon fill="#f5f5f5" stroke="none" points="150,-134 150,-156 264,-156 264,-134 150,-134"/>
<polygon fill="none" stroke="black" points="150,-134 150,-156 264,-156 264,-134 150,-134"/>
<text text-anchor="start" x="155" y="-143.2" font-family="Helvetica,sans-Serif" font-weight="bold" font-size="11.00">miq_groups</text>
<text text-anchor="start" x="225" y="-142.2" font-family="Helvetica,sans-Serif" font-size="11.00">[table]</text>
<polygon fill="none" stroke="black" points="150,-116 150,-134 264,-134 264,-116 150,-116"/>
<text text-anchor="start" x="153" y="-122.2" font-family="Helvetica,sans-Serif" font-size="11.00">...</text>
<polygon fill="#ffffff" stroke="none" points="150,-98 150,-116 197,-116 197,-98 150,-98"/>
<polygon fill="none" stroke="black" points="150,-98 150,-116 197,-116 197,-98 150,-98"/>
<text text-anchor="start" x="153" y="-104.2" font-family="Helvetica,sans-Serif" font-size="11.00">&lt; 1</text>
<polygon fill="#ffffff" stroke="none" points="197,-98 197,-116 222,-116 222,-98 197,-98"/>
<polygon fill="none" stroke="black" points="197,-98 197,-116 222,-116 222,-98 197,-98"/>
<text text-anchor="start" x="212" y="-104.2" font-family="Helvetica,sans-Serif" font-size="11.00"> &#160;</text>
<polygon fill="#ffffff" stroke="none" points="222,-98 222,-116 264,-116 264,-98 222,-98"/>
<polygon fill="none" stroke="black" points="222,-98 222,-116 264,-116 264,-98 222,-98"/>
<text text-anchor="start" x="237" y="-104.2" font-family="Helvetica,sans-Serif" font-size="11.00">10 &gt;</text>
</a>
</g>
</g>
<!-- authentications&#45;&gt;miq_groups -->
<g id="edge3" class="edge"><title>authentications:miq_group_id:w&#45;&gt;miq_groups:elipses:e</title>
<path fill="none" stroke="black" d="M298.153,-112.613C287.315,-116.91 281.258,-125 265,-125"/>
<polygon fill="black" stroke="black" points="304.629,-111.433 313.145,-113.542 308.565,-110.717 312.5,-110 312.5,-110 312.5,-110 308.565,-110.717 311.855,-106.458 304.629,-111.433 304.629,-111.433"/>
<ellipse fill="none" stroke="black" cx="301.481" cy="-112.007" rx="3.2" ry="3.2"/>
</g>
<!-- tenants -->
<g id="node5" class="node"><title>tenants</title>
<g id="a_node5"><a xlink:href="../../tables/tenants.html" xlink:title="tenants" target="_top">
<polygon fill="#ffffff" stroke="none" points="8,-72 8,-130 101,-130 101,-72 8,-72"/>
<polygon fill="#f5f5f5" stroke="none" points="8.5,-108 8.5,-130 101.5,-130 101.5,-108 8.5,-108"/>
<polygon fill="none" stroke="black" points="8.5,-108 8.5,-130 101.5,-130 101.5,-108 8.5,-108"/>
<text text-anchor="start" x="13.5" y="-117.2" font-family="Helvetica,sans-Serif" font-weight="bold" font-size="11.00">tenants</text>
<text text-anchor="start" x="62.5" y="-116.2" font-family="Helvetica,sans-Serif" font-size="11.00">[table]</text>
<polygon fill="none" stroke="black" points="8.5,-90 8.5,-108 101.5,-108 101.5,-90 8.5,-90"/>
<text text-anchor="start" x="11.5" y="-96.2" font-family="Helvetica,sans-Serif" font-size="11.00">...</text>
<polygon fill="#ffffff" stroke="none" points="8.5,-72 8.5,-90 39.5,-90 39.5,-72 8.5,-72"/>
<polygon fill="none" stroke="black" points="8.5,-72 8.5,-90 39.5,-90 39.5,-72 8.5,-72"/>
<text text-anchor="start" x="11.5" y="-78.2" font-family="Helvetica,sans-Serif" font-size="11.00"> &#160;</text>
<polygon fill="#ffffff" stroke="none" points="39.5,-72 39.5,-90 61.5,-90 61.5,-72 39.5,-72"/>
<polygon fill="none" stroke="black" points="39.5,-72 39.5,-90 61.5,-90 61.5,-72 39.5,-72"/>
<text text-anchor="start" x="51.5" y="-78.2" font-family="Helvetica,sans-Serif" font-size="11.00"> &#160;</text>
<polygon fill="#ffffff" stroke="none" points="61.5,-72 61.5,-90 101.5,-90 101.5,-72 61.5,-72"/>
<polygon fill="none" stroke="black" points="61.5,-72 61.5,-90 101.5,-90 101.5,-72 61.5,-72"/>
<text text-anchor="start" x="74.5" y="-78.2" font-family="Helvetica,sans-Serif" font-size="11.00">20 &gt;</text>
</a>
</g>
</g>
<!-- authentications&#45;&gt;tenants -->
<g id="edge4" class="edge"><title>authentications:tenant_id:w&#45;&gt;tenants:elipses:e</title>
<path fill="none" stroke="black" d="M297.709,-87.8412C233.761,-86.4497 211.833,-76.6266 142,-87 123.851,-89.6959 120.848,-99 102.5,-99"/>
<polygon fill="black" stroke="black" points="304.5,-87.9141 312.461,-91.5998 308.5,-87.957 312.5,-88 312.5,-88 312.5,-88 308.5,-87.957 312.539,-84.4002 304.5,-87.9141 304.5,-87.9141"/>
<ellipse fill="none" stroke="black" cx="301.301" cy="-87.8797" rx="3.2" ry="3.2"/>
</g>
<!-- authentication_orchestration_stacks -->
<g id="node3" class="node"><title>authentication_orchestration_stacks</title>
<g id="a_node3"><a xlink:href="../../tables/authentication_orchestration_stacks.html" xlink:title="authentication_orchestration_stacks" target="_top">
<polygon fill="#ffffff" stroke="none" points="571,-222 571,-280 828,-280 828,-222 571,-222"/>
<polygon fill="#f5f5f5" stroke="none" points="571.5,-258 571.5,-280 828.5,-280 828.5,-258 571.5,-258"/>
<polygon fill="none" stroke="black" points="571.5,-258 571.5,-280 828.5,-280 828.5,-258 571.5,-258"/>
<text text-anchor="start" x="576.5" y="-267.2" font-family="Helvetica,sans-Serif" font-weight="bold" font-size="11.00">authentication_orchestration_stacks</text>
<text text-anchor="start" x="789.5" y="-266.2" font-family="Helvetica,sans-Serif" font-size="11.00">[table]</text>
<polygon fill="none" stroke="black" points="571.5,-240 571.5,-258 828.5,-258 828.5,-240 571.5,-240"/>
<text text-anchor="start" x="574.5" y="-246.2" font-family="Helvetica,sans-Serif" font-size="11.00">...</text>
<polygon fill="#ffffff" stroke="none" points="571.5,-222 571.5,-240 698.5,-240 698.5,-222 571.5,-222"/>
<polygon fill="none" stroke="black" points="571.5,-222 571.5,-240 698.5,-240 698.5,-222 571.5,-222"/>
<text text-anchor="start" x="574.5" y="-228.2" font-family="Helvetica,sans-Serif" font-size="11.00">&lt; 2</text>
<polygon fill="#ffffff" stroke="none" points="698.5,-222 698.5,-240 763.5,-240 763.5,-222 698.5,-222"/>
<polygon fill="none" stroke="black" points="698.5,-222 698.5,-240 763.5,-240 763.5,-222 698.5,-222"/>
<text text-anchor="start" x="753.5" y="-228.2" font-family="Helvetica,sans-Serif" font-size="11.00"> &#160;</text>
<polygon fill="#ffffff" stroke="none" points="763.5,-222 763.5,-240 828.5,-240 828.5,-222 763.5,-222"/>
<polygon fill="none" stroke="black" points="763.5,-222 763.5,-240 828.5,-240 828.5,-222 763.5,-222"/>
<text text-anchor="start" x="818.5" y="-228.2" font-family="Helvetica,sans-Serif" font-size="11.00"> &#160;</text>
</a>
</g>
</g>
<!-- authentication_orchestration_stacks&#45;&gt;authentications -->
<g id="edge2" class="edge"><title>authentication_orchestration_stacks:elipses:w&#45;&gt;authentications:id:e</title>
<path fill="none" stroke="black" d="M556.203,-247.185C523.028,-238.1 519.3,-198 477.5,-198"/>
<polygon fill="black" stroke="black" points="562.564,-247.992 570.047,-252.571 566.532,-248.496 570.5,-249 570.5,-249 570.5,-249 566.532,-248.496 570.953,-245.429 562.564,-247.992 562.564,-247.992"/>
<ellipse fill="none" stroke="black" cx="559.389" cy="-247.589" rx="3.2" ry="3.2"/>
</g>
<!-- miq_groups&#45;&gt;tenants -->
<g id="edge9" class="edge"><title>miq_groups:elipses:w&#45;&gt;tenants:elipses:e</title>
<path fill="none" stroke="black" d="M135.075,-120.938C124.217,-113.625 120.258,-99 102.5,-99"/>
<polygon fill="black" stroke="black" points="141.32,-122.759 147.992,-128.456 145.16,-123.88 149,-125 149,-125 149,-125 145.16,-123.88 150.008,-121.544 141.32,-122.759 141.32,-122.759"/>
<ellipse fill="none" stroke="black" cx="138.248" cy="-121.863" rx="3.20001" ry="3.20001"/>
</g>
<!-- configuration_script_sources -->
<g id="node6" class="node"><title>configuration_script_sources</title>
<g id="a_node6"><a xlink:href="../../tables/configuration_script_sources.html" xlink:title="configuration_script_sources" target="_top">
<polygon fill="#ffffff" stroke="none" points="923,-143 923,-201 1133,-201 1133,-143 923,-143"/>
<polygon fill="#f5f5f5" stroke="none" points="923,-179 923,-201 1133,-201 1133,-179 923,-179"/>
<polygon fill="none" stroke="black" points="923,-179 923,-201 1133,-201 1133,-179 923,-179"/>
<text text-anchor="start" x="928" y="-188.2" font-family="Helvetica,sans-Serif" font-weight="bold" font-size="11.00">configuration_script_sources</text>
<text text-anchor="start" x="1094" y="-187.2" font-family="Helvetica,sans-Serif" font-size="11.00">[table]</text>
<polygon fill="none" stroke="black" points="923,-161 923,-179 1133,-179 1133,-161 923,-161"/>
<text text-anchor="start" x="926" y="-167.2" font-family="Helvetica,sans-Serif" font-size="11.00">...</text>
<polygon fill="#ffffff" stroke="none" points="923,-143 923,-161 1021,-161 1021,-143 923,-143"/>
<polygon fill="none" stroke="black" points="923,-143 923,-161 1021,-161 1021,-143 923,-143"/>
<text text-anchor="start" x="926" y="-149.2" font-family="Helvetica,sans-Serif" font-size="11.00">&lt; 2</text>
<polygon fill="#ffffff" stroke="none" points="1021,-143 1021,-161 1072,-161 1072,-143 1021,-143"/>
<polygon fill="none" stroke="black" points="1021,-143 1021,-161 1072,-161 1072,-143 1021,-143"/>
<text text-anchor="start" x="1062" y="-149.2" font-family="Helvetica,sans-Serif" font-size="11.00"> &#160;</text>
<polygon fill="#ffffff" stroke="none" points="1072,-143 1072,-161 1133,-161 1133,-143 1072,-143"/>
<polygon fill="none" stroke="black" points="1072,-143 1072,-161 1133,-161 1133,-143 1072,-143"/>
<text text-anchor="start" x="1113" y="-149.2" font-family="Helvetica,sans-Serif" font-size="11.00">1 &gt;</text>
</a>
</g>
</g>
<!-- configuration_script_sources&#45;&gt;authentications -->
<g id="edge5" class="edge"><title>configuration_script_sources:elipses:w&#45;&gt;authentications:id:e</title>
<path fill="none" stroke="black" d="M907.785,-172.86C899.817,-176.465 894.659,-182.494 882,-185 705.554,-219.932 657.371,-198 477.5,-198"/>
<polygon fill="black" stroke="black" points="914.157,-171.578 922.71,-173.529 918.079,-170.789 922,-170 922,-170 922,-170 918.079,-170.789 921.29,-166.471 914.157,-171.578 914.157,-171.578"/>
<ellipse fill="none" stroke="black" cx="911.02" cy="-172.209" rx="3.2" ry="3.2"/>
</g>
<!-- git_repositories -->
<g id="node7" class="node"><title>git_repositories</title>
<g id="a_node7"><a xlink:href="../../tables/git_repositories.html" xlink:title="git_repositories" target="_top">
<polygon fill="#ffffff" stroke="none" points="631.5,-116 631.5,-174 767.5,-174 767.5,-116 631.5,-116"/>
<polygon fill="#f5f5f5" stroke="none" points="631.5,-152 631.5,-174 767.5,-174 767.5,-152 631.5,-152"/>
<polygon fill="none" stroke="black" points="631.5,-152 631.5,-174 767.5,-174 767.5,-152 631.5,-152"/>
<text text-anchor="start" x="636.5" y="-161.2" font-family="Helvetica,sans-Serif" font-weight="bold" font-size="11.00">git_repositories</text>
<text text-anchor="start" x="728.5" y="-160.2" font-family="Helvetica,sans-Serif" font-size="11.00">[table]</text>
<polygon fill="none" stroke="black" points="631.5,-134 631.5,-152 767.5,-152 767.5,-134 631.5,-134"/>
<text text-anchor="start" x="634.5" y="-140.2" font-family="Helvetica,sans-Serif" font-size="11.00">...</text>
<polygon fill="#ffffff" stroke="none" points="631.5,-116 631.5,-134 692.5,-134 692.5,-116 631.5,-116"/>
<polygon fill="none" stroke="black" points="631.5,-116 631.5,-134 692.5,-134 692.5,-116 631.5,-116"/>
<text text-anchor="start" x="634.5" y="-122.2" font-family="Helvetica,sans-Serif" font-size="11.00">&lt; 1</text>
<polygon fill="#ffffff" stroke="none" points="692.5,-116 692.5,-134 724.5,-134 724.5,-116 692.5,-116"/>
<polygon fill="none" stroke="black" points="692.5,-116 692.5,-134 724.5,-134 724.5,-116 692.5,-116"/>
<text text-anchor="start" x="714.5" y="-122.2" font-family="Helvetica,sans-Serif" font-size="11.00"> &#160;</text>
<polygon fill="#ffffff" stroke="none" points="724.5,-116 724.5,-134 767.5,-134 767.5,-116 724.5,-116"/>
<polygon fill="none" stroke="black" points="724.5,-116 724.5,-134 767.5,-134 767.5,-116 724.5,-116"/>
<text text-anchor="start" x="747.5" y="-122.2" font-family="Helvetica,sans-Serif" font-size="11.00">3 &gt;</text>
</a>
</g>
</g>
<!-- configuration_script_sources&#45;&gt;git_repositories -->
<g id="edge6" class="edge"><title>configuration_script_sources:elipses:w&#45;&gt;git_repositories:elipses:e</title>
<path fill="none" stroke="black" d="M907.43,-169.576C850.211,-166.141 832.628,-143 768.5,-143"/>
<polygon fill="black" stroke="black" points="914.003,-169.767 921.895,-173.598 918.002,-169.884 922,-170 922,-170 922,-170 918.002,-169.884 922.105,-166.402 914.003,-169.767 914.003,-169.767"/>
<ellipse fill="none" stroke="black" cx="910.805" cy="-169.674" rx="3.2" ry="3.2"/>
</g>
<!-- git_repositories&#45;&gt;authentications -->
<g id="edge7" class="edge"><title>git_repositories:elipses:w&#45;&gt;authentications:id:e</title>
<path fill="none" stroke="black" d="M616.104,-145.089C576.059,-155.135 509.396,-198 477.5,-198"/>
<polygon fill="black" stroke="black" points="622.583,-144.149 631.017,-146.563 626.541,-143.574 630.5,-143 630.5,-143 630.5,-143 626.541,-143.574 629.983,-139.437 622.583,-144.149 622.583,-144.149"/>
<ellipse fill="none" stroke="black" cx="619.416" cy="-144.608" rx="3.2" ry="3.2"/>
</g>
<!-- key_pairs_vms -->
<g id="node8" class="node"><title>key_pairs_vms</title>
<g id="a_node8"><a xlink:href="../../tables/key_pairs_vms.html" xlink:title="key_pairs_vms" target="_top">
<polygon fill="#ffffff" stroke="none" points="634.5,-37 634.5,-95 764.5,-95 764.5,-37 634.5,-37"/>
<polygon fill="#f5f5f5" stroke="none" points="634.5,-73 634.5,-95 764.5,-95 764.5,-73 634.5,-73"/>
<polygon fill="none" stroke="black" points="634.5,-73 634.5,-95 764.5,-95 764.5,-73 634.5,-73"/>
<text text-anchor="start" x="639.5" y="-82.2" font-family="Helvetica,sans-Serif" font-weight="bold" font-size="11.00">key_pairs_vms</text>
<text text-anchor="start" x="725.5" y="-81.2" font-family="Helvetica,sans-Serif" font-size="11.00">[table]</text>
<polygon fill="none" stroke="black" points="634.5,-55 634.5,-73 764.5,-73 764.5,-55 634.5,-55"/>
<text text-anchor="start" x="637.5" y="-61.2" font-family="Helvetica,sans-Serif" font-size="11.00">...</text>
<polygon fill="#ffffff" stroke="none" points="634.5,-37 634.5,-55 697.5,-55 697.5,-37 634.5,-37"/>
<polygon fill="none" stroke="black" points="634.5,-37 634.5,-55 697.5,-55 697.5,-37 634.5,-37"/>
<text text-anchor="start" x="637.5" y="-43.2" font-family="Helvetica,sans-Serif" font-size="11.00">&lt; 2</text>
<polygon fill="#ffffff" stroke="none" points="697.5,-37 697.5,-55 730.5,-55 730.5,-37 697.5,-37"/>
<polygon fill="none" stroke="black" points="697.5,-37 697.5,-55 730.5,-55 730.5,-37 697.5,-37"/>
<text text-anchor="start" x="720.5" y="-43.2" font-family="Helvetica,sans-Serif" font-size="11.00"> &#160;</text>
<polygon fill="#ffffff" stroke="none" points="730.5,-37 730.5,-55 764.5,-55 764.5,-37 730.5,-37"/>
<polygon fill="none" stroke="black" points="730.5,-37 730.5,-55 764.5,-55 764.5,-37 730.5,-37"/>
<text text-anchor="start" x="754.5" y="-43.2" font-family="Helvetica,sans-Serif" font-size="11.00"> &#160;</text>
</a>
</g>
</g>
<!-- key_pairs_vms&#45;&gt;authentications -->
<g id="edge8" class="edge"><title>key_pairs_vms:elipses:w&#45;&gt;authentications:id:e</title>
<path fill="none" stroke="black" d="M618.897,-64.1158C574.4,-64.9437 553.269,-70.955 517,-105 484.258,-135.734 522.407,-198 477.5,-198"/>
<polygon fill="black" stroke="black" points="625.5,-64.0635 633.529,-67.5999 629.5,-64.0318 633.5,-64 633.5,-64 633.5,-64 629.5,-64.0318 633.471,-60.4001 625.5,-64.0635 625.5,-64.0635"/>
<ellipse fill="none" stroke="black" cx="622.3" cy="-64.0889" rx="3.2" ry="3.2"/>
</g>
</g>
</svg>
