<?xml version="1.0" encoding="UTF-8" standalone="no"?>
<!DOCTYPE svg PUBLIC "-//W3C//DTD SVG 1.1//EN"
 "http://www.w3.org/Graphics/SVG/1.1/DTD/svg11.dtd">
<!-- Generated by graphviz version 2.38.0 (20140413.2041)
 -->
<!-- Title: oneDegreeRelationshipsDiagram Pages: 1 -->
<svg width="1320pt" height="968pt"
 viewBox="0.00 0.00 1320.00 968.00" xmlns="http://www.w3.org/2000/svg" xmlns:xlink="http://www.w3.org/1999/xlink">
<g id="graph0" class="graph" transform="scale(1 1) rotate(0) translate(4 964)">
<title>oneDegreeRelationshipsDiagram</title>
<polygon fill="#ffffff" stroke="none" points="-4,4 -4,-964 1316,-964 1316,4 -4,4"/>
<text text-anchor="middle" x="74.5" y="-7.2" font-family="Helvetica,sans-Serif" font-size="11.00">Generated by SchemaSpy</text>
<!-- authentication_configuration_script_bases -->
<g id="node1" class="node"><title>authentication_configuration_script_bases</title>
<g id="a_node1"><a xlink:href="../../tables/authentication_configuration_script_bases.html" xlink:title="authentication_configuration_script_bases" target="_top">
<polygon fill="#ffffff" stroke="none" points="756,-850 756,-956 1045,-956 1045,-850 756,-850"/>
<polygon fill="#f5f5f5" stroke="none" points="756.5,-934 756.5,-956 1045.5,-956 1045.5,-934 756.5,-934"/>
<polygon fill="none" stroke="black" points="756.5,-934 756.5,-956 1045.5,-956 1045.5,-934 756.5,-934"/>
<text text-anchor="start" x="761.5" y="-943.2" font-family="Helvetica,sans-Serif" font-weight="bold" font-size="11.00">authentication_configuration_script_bases</text>
<text text-anchor="start" x="1006.5" y="-942.2" font-family="Helvetica,sans-Serif" font-size="11.00">[table]</text>
<polygon fill="none" stroke="black" points="756.5,-912 756.5,-934 1045.5,-934 1045.5,-912 756.5,-912"/>
<image xlink:href="../../images/primaryKeys.png" width="11px" height="12px" preserveAspectRatio="xMinYMin meet" x="761.5" y="-929"/>
<text text-anchor="start" x="784.5" y="-920.2" font-family="Helvetica,sans-Serif" font-size="11.00">id</text>
<polygon fill="none" stroke="black" points="756.5,-890 756.5,-912 1045.5,-912 1045.5,-890 756.5,-890"/>
<image xlink:href="../../images/foreignKeys.png" width="11px" height="12px" preserveAspectRatio="xMinYMin meet" x="761.5" y="-907"/>
<text text-anchor="start" x="784.5" y="-898.2" font-family="Helvetica,sans-Serif" font-size="11.00">authentication_id</text>
<polygon fill="#ffffff" stroke="none" points="756.5,-868 756.5,-890 1045.5,-890 1045.5,-868 756.5,-868"/>
<polygon fill="none" stroke="black" points="756.5,-868 756.5,-890 1045.5,-890 1045.5,-868 756.5,-868"/>
<text text-anchor="start" x="784.5" y="-876.2" font-family="Helvetica,sans-Serif" font-size="11.00">configuration_script_base_id</text>
<polygon fill="#ffffff" stroke="none" points="756.5,-850 756.5,-868 899.5,-868 899.5,-850 756.5,-850"/>
<polygon fill="none" stroke="black" points="756.5,-850 756.5,-868 899.5,-868 899.5,-850 756.5,-850"/>
<text text-anchor="start" x="759.5" y="-856.2" font-family="Helvetica,sans-Serif" font-size="11.00">&lt; 1</text>
<polygon fill="#ffffff" stroke="none" points="899.5,-850 899.5,-868 972.5,-868 972.5,-850 899.5,-850"/>
<polygon fill="none" stroke="black" points="899.5,-850 899.5,-868 972.5,-868 972.5,-850 899.5,-850"/>
<text text-anchor="start" x="962.5" y="-856.2" font-family="Helvetica,sans-Serif" font-size="11.00"> &#160;</text>
<polygon fill="#ffffff" stroke="none" points="972.5,-850 972.5,-868 1045.5,-868 1045.5,-850 972.5,-850"/>
<polygon fill="none" stroke="black" points="972.5,-850 972.5,-868 1045.5,-868 1045.5,-850 972.5,-850"/>
<text text-anchor="start" x="1035.5" y="-856.2" font-family="Helvetica,sans-Serif" font-size="11.00"> &#160;</text>
</a>
</g>
</g>
<!-- authentications -->
<g id="node2" class="node"><title>authentications</title>
<g id="a_node2"><a xlink:href="../../tables/authentications.html" xlink:title="authentications" target="_top">
<polygon fill="#ffffff" stroke="none" points="419,-52 419,-734 707,-734 707,-52 419,-52"/>
<polygon fill="#f5f5f5" stroke="none" points="421,-710 421,-732 705,-732 705,-710 421,-710"/>
<polygon fill="none" stroke="black" points="421,-710 421,-732 705,-732 705,-710 421,-710"/>
<text text-anchor="start" x="426" y="-719.2" font-family="Helvetica,sans-Serif" font-weight="bold" font-size="11.00">authentications</text>
<text text-anchor="start" x="666" y="-718.2" font-family="Helvetica,sans-Serif" font-size="11.00">[table]</text>
<polygon fill="none" stroke="black" points="421,-688 421,-710 584,-710 584,-688 421,-688"/>
<image xlink:href="../../images/primaryKeys.png" width="11px" height="12px" preserveAspectRatio="xMinYMin meet" x="426" y="-705"/>
<text text-anchor="start" x="441" y="-696.2" font-family="Helvetica,sans-Serif" font-size="11.00">id</text>
<polygon fill="none" stroke="black" points="584,-688 584,-710 705,-710 705,-688 584,-688"/>
<text text-anchor="start" x="587" y="-696.2" font-family="Helvetica,sans-Serif" font-size="11.00">bigserial[19]</text>
<polygon fill="none" stroke="black" points="421,-666 421,-688 584,-688 584,-666 421,-666"/>
<text text-anchor="start" x="441" y="-674.2" font-family="Helvetica,sans-Serif" font-size="11.00">name</text>
<polygon fill="none" stroke="black" points="584,-666 584,-688 705,-688 705,-666 584,-666"/>
<text text-anchor="start" x="587" y="-674.2" font-family="Helvetica,sans-Serif" font-size="11.00">varchar[2147483647]</text>
<polygon fill="none" stroke="black" points="421,-644 421,-666 584,-666 584,-644 421,-644"/>
<text text-anchor="start" x="441" y="-652.2" font-family="Helvetica,sans-Serif" font-size="11.00">authtype</text>
<polygon fill="none" stroke="black" points="584,-644 584,-666 705,-666 705,-644 584,-644"/>
<text text-anchor="start" x="587" y="-652.2" font-family="Helvetica,sans-Serif" font-size="11.00">varchar[2147483647]</text>
<polygon fill="none" stroke="black" points="421,-622 421,-644 584,-644 584,-622 421,-622"/>
<text text-anchor="start" x="441" y="-630.2" font-family="Helvetica,sans-Serif" font-size="11.00">userid</text>
<polygon fill="none" stroke="black" points="584,-622 584,-644 705,-644 705,-622 584,-622"/>
<text text-anchor="start" x="587" y="-630.2" font-family="Helvetica,sans-Serif" font-size="11.00">varchar[2147483647]</text>
<polygon fill="none" stroke="black" points="421,-600 421,-622 584,-622 584,-600 421,-600"/>
<text text-anchor="start" x="441" y="-608.2" font-family="Helvetica,sans-Serif" font-size="11.00">password</text>
<polygon fill="none" stroke="black" points="584,-600 584,-622 705,-622 705,-600 584,-600"/>
<text text-anchor="start" x="587" y="-608.2" font-family="Helvetica,sans-Serif" font-size="11.00">varchar[2147483647]</text>
<polygon fill="#ffffff" stroke="none" points="421,-578 421,-600 584,-600 584,-578 421,-578"/>
<polygon fill="none" stroke="black" points="421,-578 421,-600 584,-600 584,-578 421,-578"/>
<text text-anchor="start" x="441" y="-586.2" font-family="Helvetica,sans-Serif" font-size="11.00">resource_id</text>
<polygon fill="none" stroke="black" points="584,-578 584,-600 705,-600 705,-578 584,-578"/>
<text text-anchor="start" x="587" y="-586.2" font-family="Helvetica,sans-Serif" font-size="11.00">int8[19]</text>
<polygon fill="#ffffff" stroke="none" points="421,-556 421,-578 584,-578 584,-556 421,-556"/>
<polygon fill="none" stroke="black" points="421,-556 421,-578 584,-578 584,-556 421,-556"/>
<text text-anchor="start" x="441" y="-564.2" font-family="Helvetica,sans-Serif" font-size="11.00">resource_type</text>
<polygon fill="none" stroke="black" points="584,-556 584,-578 705,-578 705,-556 584,-556"/>
<text text-anchor="start" x="587" y="-564.2" font-family="Helvetica,sans-Serif" font-size="11.00">varchar[2147483647]</text>
<polygon fill="none" stroke="black" points="421,-534 421,-556 584,-556 584,-534 421,-534"/>
<text text-anchor="start" x="441" y="-542.2" font-family="Helvetica,sans-Serif" font-size="11.00">created_on</text>
<polygon fill="none" stroke="black" points="584,-534 584,-556 705,-556 705,-534 584,-534"/>
<text text-anchor="start" x="587" y="-542.2" font-family="Helvetica,sans-Serif" font-size="11.00">timestamp[29,6]</text>
<polygon fill="none" stroke="black" points="421,-512 421,-534 584,-534 584,-512 421,-512"/>
<text text-anchor="start" x="441" y="-520.2" font-family="Helvetica,sans-Serif" font-size="11.00">updated_on</text>
<polygon fill="none" stroke="black" points="584,-512 584,-534 705,-534 705,-512 584,-512"/>
<text text-anchor="start" x="587" y="-520.2" font-family="Helvetica,sans-Serif" font-size="11.00">timestamp[29,6]</text>
<polygon fill="none" stroke="black" points="421,-490 421,-512 584,-512 584,-490 421,-490"/>
<text text-anchor="start" x="441" y="-498.2" font-family="Helvetica,sans-Serif" font-size="11.00">last_valid_on</text>
<polygon fill="none" stroke="black" points="584,-490 584,-512 705,-512 705,-490 584,-490"/>
<text text-anchor="start" x="587" y="-498.2" font-family="Helvetica,sans-Serif" font-size="11.00">timestamp[29,6]</text>
<polygon fill="none" stroke="black" points="421,-468 421,-490 584,-490 584,-468 421,-468"/>
<text text-anchor="start" x="441" y="-476.2" font-family="Helvetica,sans-Serif" font-size="11.00">last_invalid_on</text>
<polygon fill="none" stroke="black" points="584,-468 584,-490 705,-490 705,-468 584,-468"/>
<text text-anchor="start" x="587" y="-476.2" font-family="Helvetica,sans-Serif" font-size="11.00">timestamp[29,6]</text>
<polygon fill="none" stroke="black" points="421,-446 421,-468 584,-468 584,-446 421,-446"/>
<text text-anchor="start" x="441" y="-454.2" font-family="Helvetica,sans-Serif" font-size="11.00">credentials_changed_on</text>
<polygon fill="none" stroke="black" points="584,-446 584,-468 705,-468 705,-446 584,-446"/>
<text text-anchor="start" x="587" y="-454.2" font-family="Helvetica,sans-Serif" font-size="11.00">timestamp[29,6]</text>
<polygon fill="none" stroke="black" points="421,-424 421,-446 584,-446 584,-424 421,-424"/>
<text text-anchor="start" x="441" y="-432.2" font-family="Helvetica,sans-Serif" font-size="11.00">status</text>
<polygon fill="none" stroke="black" points="584,-424 584,-446 705,-446 705,-424 584,-424"/>
<text text-anchor="start" x="587" y="-432.2" font-family="Helvetica,sans-Serif" font-size="11.00">varchar[2147483647]</text>
<polygon fill="none" stroke="black" points="421,-402 421,-424 584,-424 584,-402 421,-402"/>
<text text-anchor="start" x="441" y="-410.2" font-family="Helvetica,sans-Serif" font-size="11.00">status_details</text>
<polygon fill="none" stroke="black" points="584,-402 584,-424 705,-424 705,-402 584,-402"/>
<text text-anchor="start" x="587" y="-410.2" font-family="Helvetica,sans-Serif" font-size="11.00">varchar[2147483647]</text>
<polygon fill="#ffffff" stroke="none" points="421,-380 421,-402 584,-402 584,-380 421,-380"/>
<polygon fill="none" stroke="black" points="421,-380 421,-402 584,-402 584,-380 421,-380"/>
<text text-anchor="start" x="441" y="-388.2" font-family="Helvetica,sans-Serif" font-size="11.00">type</text>
<polygon fill="none" stroke="black" points="584,-380 584,-402 705,-402 705,-380 584,-380"/>
<text text-anchor="start" x="587" y="-388.2" font-family="Helvetica,sans-Serif" font-size="11.00">varchar[2147483647]</text>
<polygon fill="none" stroke="black" points="421,-358 421,-380 584,-380 584,-358 421,-358"/>
<text text-anchor="start" x="441" y="-366.2" font-family="Helvetica,sans-Serif" font-size="11.00">auth_key</text>
<polygon fill="none" stroke="black" points="584,-358 584,-380 705,-380 705,-358 584,-358"/>
<text text-anchor="start" x="587" y="-366.2" font-family="Helvetica,sans-Serif" font-size="11.00">text[2147483647]</text>
<polygon fill="none" stroke="black" points="421,-336 421,-358 584,-358 584,-336 421,-336"/>
<text text-anchor="start" x="441" y="-344.2" font-family="Helvetica,sans-Serif" font-size="11.00">fingerprint</text>
<polygon fill="none" stroke="black" points="584,-336 584,-358 705,-358 705,-336 584,-336"/>
<text text-anchor="start" x="587" y="-344.2" font-family="Helvetica,sans-Serif" font-size="11.00">varchar[2147483647]</text>
<polygon fill="none" stroke="black" points="421,-314 421,-336 584,-336 584,-314 421,-314"/>
<text text-anchor="start" x="441" y="-322.2" font-family="Helvetica,sans-Serif" font-size="11.00">service_account</text>
<polygon fill="none" stroke="black" points="584,-314 584,-336 705,-336 705,-314 584,-314"/>
<text text-anchor="start" x="587" y="-322.2" font-family="Helvetica,sans-Serif" font-size="11.00">varchar[2147483647]</text>
<polygon fill="none" stroke="black" points="421,-292 421,-314 584,-314 584,-292 421,-292"/>
<text text-anchor="start" x="441" y="-300.2" font-family="Helvetica,sans-Serif" font-size="11.00">public_key</text>
<polygon fill="none" stroke="black" points="584,-292 584,-314 705,-314 705,-292 584,-292"/>
<text text-anchor="start" x="587" y="-300.2" font-family="Helvetica,sans-Serif" font-size="11.00">text[2147483647]</text>
<polygon fill="none" stroke="black" points="421,-270 421,-292 584,-292 584,-270 421,-270"/>
<text text-anchor="start" x="441" y="-278.2" font-family="Helvetica,sans-Serif" font-size="11.00">manager_ref</text>
<polygon fill="none" stroke="black" points="584,-270 584,-292 705,-292 705,-270 584,-270"/>
<text text-anchor="start" x="587" y="-278.2" font-family="Helvetica,sans-Serif" font-size="11.00">varchar[2147483647]</text>
<polygon fill="none" stroke="black" points="421,-248 421,-270 584,-270 584,-248 421,-248"/>
<text text-anchor="start" x="441" y="-256.2" font-family="Helvetica,sans-Serif" font-size="11.00">options</text>
<polygon fill="none" stroke="black" points="584,-248 584,-270 705,-270 705,-248 584,-248"/>
<text text-anchor="start" x="587" y="-256.2" font-family="Helvetica,sans-Serif" font-size="11.00">text[2147483647]</text>
<polygon fill="none" stroke="black" points="421,-226 421,-248 584,-248 584,-226 421,-226"/>
<text text-anchor="start" x="441" y="-234.2" font-family="Helvetica,sans-Serif" font-size="11.00">evm_owner_id</text>
<polygon fill="none" stroke="black" points="584,-226 584,-248 705,-248 705,-226 584,-226"/>
<text text-anchor="start" x="587" y="-234.2" font-family="Helvetica,sans-Serif" font-size="11.00">int8[19]</text>
<polygon fill="none" stroke="black" points="421,-204 421,-226 584,-226 584,-204 421,-204"/>
<image xlink:href="../../images/foreignKeys.png" width="11px" height="12px" preserveAspectRatio="xMinYMin meet" x="426" y="-221"/>
<text text-anchor="start" x="441" y="-212.2" font-family="Helvetica,sans-Serif" font-size="11.00">miq_group_id</text>
<polygon fill="none" stroke="black" points="584,-204 584,-226 705,-226 705,-204 584,-204"/>
<text text-anchor="start" x="587" y="-212.2" font-family="Helvetica,sans-Serif" font-size="11.00">int8[19]</text>
<polygon fill="none" stroke="black" points="421,-182 421,-204 584,-204 584,-182 421,-182"/>
<image xlink:href="../../images/foreignKeys.png" width="11px" height="12px" preserveAspectRatio="xMinYMin meet" x="426" y="-199"/>
<text text-anchor="start" x="441" y="-190.2" font-family="Helvetica,sans-Serif" font-size="11.00">tenant_id</text>
<polygon fill="none" stroke="black" points="584,-182 584,-204 705,-204 705,-182 584,-182"/>
<text text-anchor="start" x="587" y="-190.2" font-family="Helvetica,sans-Serif" font-size="11.00">int8[19]</text>
<polygon fill="none" stroke="black" points="421,-160 421,-182 584,-182 584,-160 421,-160"/>
<text text-anchor="start" x="441" y="-168.2" font-family="Helvetica,sans-Serif" font-size="11.00">become_username</text>
<polygon fill="none" stroke="black" points="584,-160 584,-182 705,-182 705,-160 584,-160"/>
<text text-anchor="start" x="587" y="-168.2" font-family="Helvetica,sans-Serif" font-size="11.00">varchar[2147483647]</text>
<polygon fill="none" stroke="black" points="421,-138 421,-160 584,-160 584,-138 421,-138"/>
<text text-anchor="start" x="441" y="-146.2" font-family="Helvetica,sans-Serif" font-size="11.00">become_password</text>
<polygon fill="none" stroke="black" points="584,-138 584,-160 705,-160 705,-138 584,-138"/>
<text text-anchor="start" x="587" y="-146.2" font-family="Helvetica,sans-Serif" font-size="11.00">varchar[2147483647]</text>
<polygon fill="none" stroke="black" points="421,-116 421,-138 584,-138 584,-116 421,-116"/>
<text text-anchor="start" x="441" y="-124.2" font-family="Helvetica,sans-Serif" font-size="11.00">auth_key_password</text>
<polygon fill="none" stroke="black" points="584,-116 584,-138 705,-138 705,-116 584,-116"/>
<text text-anchor="start" x="587" y="-124.2" font-family="Helvetica,sans-Serif" font-size="11.00">varchar[2147483647]</text>
<polygon fill="none" stroke="black" points="421,-94 421,-116 584,-116 584,-94 421,-94"/>
<text text-anchor="start" x="441" y="-102.2" font-family="Helvetica,sans-Serif" font-size="11.00">ems_ref</text>
<polygon fill="none" stroke="black" points="584,-94 584,-116 705,-116 705,-94 584,-94"/>
<text text-anchor="start" x="587" y="-102.2" font-family="Helvetica,sans-Serif" font-size="11.00">varchar[2147483647]</text>
<polygon fill="none" stroke="black" points="421,-72 421,-94 584,-94 584,-72 421,-72"/>
<text text-anchor="start" x="441" y="-80.2" font-family="Helvetica,sans-Serif" font-size="11.00">become_method</text>
<polygon fill="none" stroke="black" points="584,-72 584,-94 705,-94 705,-72 584,-72"/>
<text text-anchor="start" x="587" y="-80.2" font-family="Helvetica,sans-Serif" font-size="11.00">varchar[2147483647]</text>
<polygon fill="#ffffff" stroke="none" points="421,-54 421,-72 507,-72 507,-54 421,-54"/>
<polygon fill="none" stroke="black" points="421,-54 421,-72 507,-72 507,-54 421,-54"/>
<text text-anchor="start" x="424" y="-60.2" font-family="Helvetica,sans-Serif" font-size="11.00">&lt; 2</text>
<polygon fill="#ffffff" stroke="none" points="507,-54 507,-72 584,-72 584,-54 507,-54"/>
<polygon fill="none" stroke="black" points="507,-54 507,-72 584,-72 584,-54 507,-54"/>
<text text-anchor="start" x="574" y="-60.2" font-family="Helvetica,sans-Serif" font-size="11.00"> &#160;</text>
<polygon fill="#ffffff" stroke="none" points="584,-54 584,-72 705,-72 705,-54 584,-54"/>
<polygon fill="none" stroke="black" points="584,-54 584,-72 705,-72 705,-54 584,-54"/>
<text text-anchor="start" x="685" y="-60.2" font-family="Helvetica,sans-Serif" font-size="11.00">5 &gt;</text>
<polygon fill="none" stroke="black" stroke-width="2" points="420,-53 420,-733 706,-733 706,-53 420,-53"/>
</a>
</g>
</g>
<!-- authentication_configuration_script_bases&#45;&gt;authentications -->
<g id="edge1" class="edge"><title>authentication_configuration_script_bases:authentication_id:w&#45;&gt;authentications:id.type:e</title>
<path fill="none" stroke="black" d="M741.114,-898.868C678.623,-877.28 792.837,-699 706,-699"/>
<polygon fill="black" stroke="black" points="747.586,-899.827 754.972,-904.561 751.543,-900.414 755.5,-901 755.5,-901 755.5,-901 751.543,-900.414 756.028,-897.439 747.586,-899.827 747.586,-899.827"/>
<ellipse fill="none" stroke="black" cx="744.421" cy="-899.358" rx="3.2" ry="3.2"/>
</g>
<!-- miq_groups -->
<g id="node4" class="node"><title>miq_groups</title>
<g id="a_node4"><a xlink:href="../../tables/miq_groups.html" xlink:title="miq_groups" target="_top">
<polygon fill="#ffffff" stroke="none" points="228,-182 228,-284 370,-284 370,-182 228,-182"/>
<polygon fill="#f5f5f5" stroke="none" points="228,-262 228,-284 370,-284 370,-262 228,-262"/>
<polygon fill="none" stroke="black" points="228,-262 228,-284 370,-284 370,-262 228,-262"/>
<text text-anchor="start" x="233" y="-271.2" font-family="Helvetica,sans-Serif" font-weight="bold" font-size="11.00">miq_groups</text>
<text text-anchor="start" x="331" y="-270.2" font-family="Helvetica,sans-Serif" font-size="11.00">[table]</text>
<polygon fill="none" stroke="black" points="228,-240 228,-262 370,-262 370,-240 228,-240"/>
<image xlink:href="../../images/primaryKeys.png" width="11px" height="12px" preserveAspectRatio="xMinYMin meet" x="233" y="-257"/>
<text text-anchor="start" x="248" y="-248.2" font-family="Helvetica,sans-Serif" font-size="11.00">id</text>
<polygon fill="none" stroke="black" points="228,-218 228,-240 370,-240 370,-218 228,-218"/>
<image xlink:href="../../images/foreignKeys.png" width="11px" height="12px" preserveAspectRatio="xMinYMin meet" x="233" y="-235"/>
<text text-anchor="start" x="248" y="-226.2" font-family="Helvetica,sans-Serif" font-size="11.00">tenant_id</text>
<polygon fill="none" stroke="black" points="228,-200 228,-218 370,-218 370,-200 228,-200"/>
<text text-anchor="start" x="231" y="-206.2" font-family="Helvetica,sans-Serif" font-size="11.00">...</text>
<polygon fill="#ffffff" stroke="none" points="228,-182 228,-200 289,-200 289,-182 228,-182"/>
<polygon fill="none" stroke="black" points="228,-182 228,-200 289,-200 289,-182 228,-182"/>
<text text-anchor="start" x="231" y="-188.2" font-family="Helvetica,sans-Serif" font-size="11.00">&lt; 1</text>
<polygon fill="#ffffff" stroke="none" points="289,-182 289,-200 321,-200 321,-182 289,-182"/>
<polygon fill="none" stroke="black" points="289,-182 289,-200 321,-200 321,-182 289,-182"/>
<text text-anchor="start" x="311" y="-188.2" font-family="Helvetica,sans-Serif" font-size="11.00"> &#160;</text>
<polygon fill="#ffffff" stroke="none" points="321,-182 321,-200 370,-200 370,-182 321,-182"/>
<polygon fill="none" stroke="black" points="321,-182 321,-200 370,-200 370,-182 321,-182"/>
<text text-anchor="start" x="343" y="-188.2" font-family="Helvetica,sans-Serif" font-size="11.00">10 &gt;</text>
</a>
</g>
</g>
<!-- authentications&#45;&gt;miq_groups -->
<g id="edge3" class="edge"><title>authentications:miq_group_id:w&#45;&gt;miq_groups:id:e</title>
<path fill="none" stroke="black" d="M406.198,-219.414C393.65,-229.027 392.112,-251 371,-251"/>
<polygon fill="black" stroke="black" points="412.38,-217.437 421.097,-218.429 416.19,-216.219 420,-215 420,-215 420,-215 416.19,-216.219 418.903,-211.571 412.38,-217.437 412.38,-217.437"/>
<ellipse fill="none" stroke="black" cx="409.332" cy="-218.412" rx="3.20001" ry="3.20001"/>
</g>
<!-- tenants -->
<g id="node5" class="node"><title>tenants</title>
<g id="a_node5"><a xlink:href="../../tables/tenants.html" xlink:title="tenants" target="_top">
<polygon fill="#ffffff" stroke="none" points="8,-37 8,-227 179,-227 179,-37 8,-37"/>
<polygon fill="#f5f5f5" stroke="none" points="8.5,-205 8.5,-227 179.5,-227 179.5,-205 8.5,-205"/>
<polygon fill="none" stroke="black" points="8.5,-205 8.5,-227 179.5,-227 179.5,-205 8.5,-205"/>
<text text-anchor="start" x="13.5" y="-214.2" font-family="Helvetica,sans-Serif" font-weight="bold" font-size="11.00">tenants</text>
<text text-anchor="start" x="140.5" y="-213.2" font-family="Helvetica,sans-Serif" font-size="11.00">[table]</text>
<polygon fill="none" stroke="black" points="8.5,-183 8.5,-205 179.5,-205 179.5,-183 8.5,-183"/>
<image xlink:href="../../images/primaryKeys.png" width="11px" height="12px" preserveAspectRatio="xMinYMin meet" x="13.5" y="-200"/>
<text text-anchor="start" x="28.5" y="-191.2" font-family="Helvetica,sans-Serif" font-size="11.00">id</text>
<polygon fill="#ffffff" stroke="none" points="8.5,-161 8.5,-183 179.5,-183 179.5,-161 8.5,-161"/>
<polygon fill="none" stroke="black" points="8.5,-161 8.5,-183 179.5,-183 179.5,-161 8.5,-161"/>
<text text-anchor="start" x="28.5" y="-169.2" font-family="Helvetica,sans-Serif" font-size="11.00">domain</text>
<polygon fill="#ffffff" stroke="none" points="8.5,-139 8.5,-161 179.5,-161 179.5,-139 8.5,-139"/>
<polygon fill="none" stroke="black" points="8.5,-139 8.5,-161 179.5,-161 179.5,-139 8.5,-139"/>
<text text-anchor="start" x="28.5" y="-147.2" font-family="Helvetica,sans-Serif" font-size="11.00">subdomain</text>
<polygon fill="#ffffff" stroke="none" points="8.5,-117 8.5,-139 179.5,-139 179.5,-117 8.5,-117"/>
<polygon fill="none" stroke="black" points="8.5,-117 8.5,-139 179.5,-139 179.5,-117 8.5,-117"/>
<text text-anchor="start" x="28.5" y="-125.2" font-family="Helvetica,sans-Serif" font-size="11.00">ancestry</text>
<polygon fill="#ffffff" stroke="none" points="8.5,-95 8.5,-117 179.5,-117 179.5,-95 8.5,-95"/>
<polygon fill="none" stroke="black" points="8.5,-95 8.5,-117 179.5,-117 179.5,-95 8.5,-95"/>
<text text-anchor="start" x="28.5" y="-103.2" font-family="Helvetica,sans-Serif" font-size="11.00">source_type</text>
<polygon fill="#ffffff" stroke="none" points="8.5,-73 8.5,-95 179.5,-95 179.5,-73 8.5,-73"/>
<polygon fill="none" stroke="black" points="8.5,-73 8.5,-95 179.5,-95 179.5,-73 8.5,-73"/>
<text text-anchor="start" x="28.5" y="-81.2" font-family="Helvetica,sans-Serif" font-size="11.00">source_id</text>
<polygon fill="none" stroke="black" points="8.5,-55 8.5,-73 179.5,-73 179.5,-55 8.5,-55"/>
<text text-anchor="start" x="11.5" y="-61.2" font-family="Helvetica,sans-Serif" font-size="11.00">...</text>
<polygon fill="#ffffff" stroke="none" points="8.5,-37 8.5,-55 78.5,-55 78.5,-37 8.5,-37"/>
<polygon fill="none" stroke="black" points="8.5,-37 8.5,-55 78.5,-55 78.5,-37 8.5,-37"/>
<text text-anchor="start" x="11.5" y="-43.2" font-family="Helvetica,sans-Serif" font-size="11.00"> &#160;</text>
<polygon fill="#ffffff" stroke="none" points="78.5,-37 78.5,-55 120.5,-55 120.5,-37 78.5,-37"/>
<polygon fill="none" stroke="black" points="78.5,-37 78.5,-55 120.5,-55 120.5,-37 78.5,-37"/>
<text text-anchor="start" x="110.5" y="-43.2" font-family="Helvetica,sans-Serif" font-size="11.00"> &#160;</text>
<polygon fill="#ffffff" stroke="none" points="120.5,-37 120.5,-55 179.5,-55 179.5,-37 120.5,-37"/>
<polygon fill="none" stroke="black" points="120.5,-37 120.5,-55 179.5,-55 179.5,-37 120.5,-37"/>
<text text-anchor="start" x="152.5" y="-43.2" font-family="Helvetica,sans-Serif" font-size="11.00">20 &gt;</text>
</a>
</g>
</g>
<!-- authentications&#45;&gt;tenants -->
<g id="edge4" class="edge"><title>authentications:tenant_id:w&#45;&gt;tenants:id:e</title>
<path fill="none" stroke="black" d="M405.911,-189.445C396.988,-184.189 392.547,-174.579 378,-171 309.812,-154.222 287.796,-152.7 220,-171 200.387,-176.294 200.815,-194 180.5,-194"/>
<polygon fill="black" stroke="black" points="412.243,-191.043 419.119,-196.491 416.122,-192.021 420,-193 420,-193 420,-193 416.122,-192.021 420.881,-189.509 412.243,-191.043 412.243,-191.043"/>
<ellipse fill="none" stroke="black" cx="409.14" cy="-190.26" rx="3.2" ry="3.2"/>
</g>
<!-- authentication_orchestration_stacks -->
<g id="node3" class="node"><title>authentication_orchestration_stacks</title>
<g id="a_node3"><a xlink:href="../../tables/authentication_orchestration_stacks.html" xlink:title="authentication_orchestration_stacks" target="_top">
<polygon fill="#ffffff" stroke="none" points="772,-723 772,-829 1029,-829 1029,-723 772,-723"/>
<polygon fill="#f5f5f5" stroke="none" points="772.5,-807 772.5,-829 1029.5,-829 1029.5,-807 772.5,-807"/>
<polygon fill="none" stroke="black" points="772.5,-807 772.5,-829 1029.5,-829 1029.5,-807 772.5,-807"/>
<text text-anchor="start" x="777.5" y="-816.2" font-family="Helvetica,sans-Serif" font-weight="bold" font-size="11.00">authentication_orchestration_stacks</text>
<text text-anchor="start" x="990.5" y="-815.2" font-family="Helvetica,sans-Serif" font-size="11.00">[table]</text>
<polygon fill="none" stroke="black" points="772.5,-785 772.5,-807 1029.5,-807 1029.5,-785 772.5,-785"/>
<image xlink:href="../../images/primaryKeys.png" width="11px" height="12px" preserveAspectRatio="xMinYMin meet" x="777.5" y="-802"/>
<text text-anchor="start" x="801.5" y="-793.2" font-family="Helvetica,sans-Serif" font-size="11.00">id</text>
<polygon fill="#ffffff" stroke="none" points="772.5,-763 772.5,-785 1029.5,-785 1029.5,-763 772.5,-763"/>
<polygon fill="none" stroke="black" points="772.5,-763 772.5,-785 1029.5,-785 1029.5,-763 772.5,-763"/>
<image xlink:href="../../images/foreignKeys.png" width="11px" height="12px" preserveAspectRatio="xMinYMin meet" x="777.5" y="-780"/>
<text text-anchor="start" x="801.5" y="-771.2" font-family="Helvetica,sans-Serif" font-size="11.00">authentication_id</text>
<polygon fill="#ffffff" stroke="none" points="772.5,-741 772.5,-763 1029.5,-763 1029.5,-741 772.5,-741"/>
<polygon fill="none" stroke="black" points="772.5,-741 772.5,-763 1029.5,-763 1029.5,-741 772.5,-741"/>
<image xlink:href="../../images/foreignKeys.png" width="11px" height="12px" preserveAspectRatio="xMinYMin meet" x="777.5" y="-758"/>
<text text-anchor="start" x="801.5" y="-749.2" font-family="Helvetica,sans-Serif" font-size="11.00">orchestration_stack_id</text>
<polygon fill="#ffffff" stroke="none" points="772.5,-723 772.5,-741 899.5,-741 899.5,-723 772.5,-723"/>
<polygon fill="none" stroke="black" points="772.5,-723 772.5,-741 899.5,-741 899.5,-723 772.5,-723"/>
<text text-anchor="start" x="775.5" y="-729.2" font-family="Helvetica,sans-Serif" font-size="11.00">&lt; 2</text>
<polygon fill="#ffffff" stroke="none" points="899.5,-723 899.5,-741 964.5,-741 964.5,-723 899.5,-723"/>
<polygon fill="none" stroke="black" points="899.5,-723 899.5,-741 964.5,-741 964.5,-723 899.5,-723"/>
<text text-anchor="start" x="954.5" y="-729.2" font-family="Helvetica,sans-Serif" font-size="11.00"> &#160;</text>
<polygon fill="#ffffff" stroke="none" points="964.5,-723 964.5,-741 1029.5,-741 1029.5,-723 964.5,-723"/>
<polygon fill="none" stroke="black" points="964.5,-723 964.5,-741 1029.5,-741 1029.5,-723 964.5,-723"/>
<text text-anchor="start" x="1019.5" y="-729.2" font-family="Helvetica,sans-Serif" font-size="11.00"> &#160;</text>
</a>
</g>
</g>
<!-- authentication_orchestration_stacks&#45;&gt;authentications -->
<g id="edge2" class="edge"><title>authentication_orchestration_stacks:authentication_id:w&#45;&gt;authentications:id.type:e</title>
<path fill="none" stroke="black" d="M757.451,-770.583C732.059,-755.91 744.551,-699 706,-699"/>
<polygon fill="black" stroke="black" points="763.727,-772.109 770.649,-777.498 767.613,-773.055 771.5,-774 771.5,-774 771.5,-774 767.613,-773.055 772.351,-770.502 763.727,-772.109 763.727,-772.109"/>
<ellipse fill="none" stroke="black" cx="760.617" cy="-771.353" rx="3.2" ry="3.2"/>
</g>
<!-- miq_groups&#45;&gt;tenants -->
<g id="edge9" class="edge"><title>miq_groups:tenant_id:w&#45;&gt;tenants:id:e</title>
<path fill="none" stroke="black" d="M213.137,-224.133C201.878,-214.516 200.304,-194 180.5,-194"/>
<polygon fill="black" stroke="black" points="219.452,-226.35 225.808,-232.397 223.226,-227.675 227,-229 227,-229 227,-229 223.226,-227.675 228.192,-225.603 219.452,-226.35 219.452,-226.35"/>
<ellipse fill="none" stroke="black" cx="216.432" cy="-225.29" rx="3.20001" ry="3.20001"/>
</g>
<!-- configuration_script_sources -->
<g id="node6" class="node"><title>configuration_script_sources</title>
<g id="a_node6"><a xlink:href="../../tables/configuration_script_sources.html" xlink:title="configuration_script_sources" target="_top">
<polygon fill="#ffffff" stroke="none" points="1094,-612 1094,-758 1304,-758 1304,-612 1094,-612"/>
<polygon fill="#f5f5f5" stroke="none" points="1094,-736 1094,-758 1304,-758 1304,-736 1094,-736"/>
<polygon fill="none" stroke="black" points="1094,-736 1094,-758 1304,-758 1304,-736 1094,-736"/>
<text text-anchor="start" x="1099" y="-745.2" font-family="Helvetica,sans-Serif" font-weight="bold" font-size="11.00">configuration_script_sources</text>
<text text-anchor="start" x="1265" y="-744.2" font-family="Helvetica,sans-Serif" font-size="11.00">[table]</text>
<polygon fill="none" stroke="black" points="1094,-714 1094,-736 1304,-736 1304,-714 1094,-714"/>
<image xlink:href="../../images/primaryKeys.png" width="11px" height="12px" preserveAspectRatio="xMinYMin meet" x="1099" y="-731"/>
<text text-anchor="start" x="1123" y="-722.2" font-family="Helvetica,sans-Serif" font-size="11.00">id</text>
<polygon fill="#ffffff" stroke="none" points="1094,-692 1094,-714 1304,-714 1304,-692 1094,-692"/>
<polygon fill="none" stroke="black" points="1094,-692 1094,-714 1304,-714 1304,-692 1094,-692"/>
<text text-anchor="start" x="1123" y="-700.2" font-family="Helvetica,sans-Serif" font-size="11.00">manager_id</text>
<polygon fill="none" stroke="black" points="1094,-670 1094,-692 1304,-692 1304,-670 1094,-670"/>
<image xlink:href="../../images/foreignKeys.png" width="11px" height="12px" preserveAspectRatio="xMinYMin meet" x="1099" y="-687"/>
<text text-anchor="start" x="1123" y="-678.2" font-family="Helvetica,sans-Serif" font-size="11.00">authentication_id</text>
<polygon fill="none" stroke="black" points="1094,-648 1094,-670 1304,-670 1304,-648 1094,-648"/>
<image xlink:href="../../images/foreignKeys.png" width="11px" height="12px" preserveAspectRatio="xMinYMin meet" x="1099" y="-665"/>
<text text-anchor="start" x="1123" y="-656.2" font-family="Helvetica,sans-Serif" font-size="11.00">git_repository_id</text>
<polygon fill="none" stroke="black" points="1094,-630 1094,-648 1304,-648 1304,-630 1094,-630"/>
<text text-anchor="start" x="1097" y="-636.2" font-family="Helvetica,sans-Serif" font-size="11.00">...</text>
<polygon fill="#ffffff" stroke="none" points="1094,-612 1094,-630 1192,-630 1192,-612 1094,-612"/>
<polygon fill="none" stroke="black" points="1094,-612 1094,-630 1192,-630 1192,-612 1094,-612"/>
<text text-anchor="start" x="1097" y="-618.2" font-family="Helvetica,sans-Serif" font-size="11.00">&lt; 2</text>
<polygon fill="#ffffff" stroke="none" points="1192,-612 1192,-630 1243,-630 1243,-612 1192,-612"/>
<polygon fill="none" stroke="black" points="1192,-612 1192,-630 1243,-630 1243,-612 1192,-612"/>
<text text-anchor="start" x="1233" y="-618.2" font-family="Helvetica,sans-Serif" font-size="11.00"> &#160;</text>
<polygon fill="#ffffff" stroke="none" points="1243,-612 1243,-630 1304,-630 1304,-612 1243,-612"/>
<polygon fill="none" stroke="black" points="1243,-612 1243,-630 1304,-630 1304,-612 1243,-612"/>
<text text-anchor="start" x="1284" y="-618.2" font-family="Helvetica,sans-Serif" font-size="11.00">1 &gt;</text>
</a>
</g>
</g>
<!-- configuration_script_sources&#45;&gt;authentications -->
<g id="edge5" class="edge"><title>configuration_script_sources:authentication_id:w&#45;&gt;authentications:id.type:e</title>
<path fill="none" stroke="black" d="M1078.54,-681.988C1070.71,-683.149 1064.86,-685.039 1053,-686 899.174,-698.472 860.33,-699 706,-699"/>
<polygon fill="black" stroke="black" points="1085.02,-681.546 1093.25,-684.592 1089.01,-681.273 1093,-681 1093,-681 1093,-681 1089.01,-681.273 1092.75,-677.408 1085.02,-681.546 1085.02,-681.546"/>
<ellipse fill="none" stroke="black" cx="1081.83" cy="-681.764" rx="3.2" ry="3.2"/>
</g>
<!-- git_repositories -->
<g id="node7" class="node"><title>git_repositories</title>
<g id="a_node7"><a xlink:href="../../tables/git_repositories.html" xlink:title="git_repositories" target="_top">
<polygon fill="#ffffff" stroke="none" points="832.5,-573 832.5,-675 968.5,-675 968.5,-573 832.5,-573"/>
<polygon fill="#f5f5f5" stroke="none" points="832.5,-653 832.5,-675 968.5,-675 968.5,-653 832.5,-653"/>
<polygon fill="none" stroke="black" points="832.5,-653 832.5,-675 968.5,-675 968.5,-653 832.5,-653"/>
<text text-anchor="start" x="837.5" y="-662.2" font-family="Helvetica,sans-Serif" font-weight="bold" font-size="11.00">git_repositories</text>
<text text-anchor="start" x="929.5" y="-661.2" font-family="Helvetica,sans-Serif" font-size="11.00">[table]</text>
<polygon fill="none" stroke="black" points="832.5,-631 832.5,-653 968.5,-653 968.5,-631 832.5,-631"/>
<image xlink:href="../../images/primaryKeys.png" width="11px" height="12px" preserveAspectRatio="xMinYMin meet" x="837.5" y="-648"/>
<text text-anchor="start" x="857.5" y="-639.2" font-family="Helvetica,sans-Serif" font-size="11.00">id</text>
<polygon fill="none" stroke="black" points="832.5,-609 832.5,-631 968.5,-631 968.5,-609 832.5,-609"/>
<image xlink:href="../../images/foreignKeys.png" width="11px" height="12px" preserveAspectRatio="xMinYMin meet" x="837.5" y="-626"/>
<text text-anchor="start" x="857.5" y="-617.2" font-family="Helvetica,sans-Serif" font-size="11.00">authentication_id</text>
<polygon fill="none" stroke="black" points="832.5,-591 832.5,-609 968.5,-609 968.5,-591 832.5,-591"/>
<text text-anchor="start" x="835.5" y="-597.2" font-family="Helvetica,sans-Serif" font-size="11.00">...</text>
<polygon fill="#ffffff" stroke="none" points="832.5,-573 832.5,-591 893.5,-591 893.5,-573 832.5,-573"/>
<polygon fill="none" stroke="black" points="832.5,-573 832.5,-591 893.5,-591 893.5,-573 832.5,-573"/>
<text text-anchor="start" x="835.5" y="-579.2" font-family="Helvetica,sans-Serif" font-size="11.00">&lt; 1</text>
<polygon fill="#ffffff" stroke="none" points="893.5,-573 893.5,-591 925.5,-591 925.5,-573 893.5,-573"/>
<polygon fill="none" stroke="black" points="893.5,-573 893.5,-591 925.5,-591 925.5,-573 893.5,-573"/>
<text text-anchor="start" x="915.5" y="-579.2" font-family="Helvetica,sans-Serif" font-size="11.00"> &#160;</text>
<polygon fill="#ffffff" stroke="none" points="925.5,-573 925.5,-591 968.5,-591 968.5,-573 925.5,-573"/>
<polygon fill="none" stroke="black" points="925.5,-573 925.5,-591 968.5,-591 968.5,-573 925.5,-573"/>
<text text-anchor="start" x="948.5" y="-579.2" font-family="Helvetica,sans-Serif" font-size="11.00">3 &gt;</text>
</a>
</g>
</g>
<!-- configuration_script_sources&#45;&gt;git_repositories -->
<g id="edge6" class="edge"><title>configuration_script_sources:git_repository_id:w&#45;&gt;git_repositories:id:e</title>
<path fill="none" stroke="black" d="M1078.47,-658.58C1034.84,-655.962 1019.71,-642 969.5,-642"/>
<polygon fill="black" stroke="black" points="1085,-658.769 1092.9,-662.598 1089,-658.884 1093,-659 1093,-659 1093,-659 1089,-658.884 1093.1,-655.402 1085,-658.769 1085,-658.769"/>
<ellipse fill="none" stroke="black" cx="1081.8" cy="-658.676" rx="3.2" ry="3.2"/>
</g>
<!-- git_repositories&#45;&gt;authentications -->
<g id="edge7" class="edge"><title>git_repositories:authentication_id:w&#45;&gt;authentications:id.type:e</title>
<path fill="none" stroke="black" d="M816.982,-621.439C766.14,-632.146 766.631,-699 706,-699"/>
<polygon fill="black" stroke="black" points="823.539,-620.789 831.855,-623.582 827.519,-620.394 831.5,-620 831.5,-620 831.5,-620 827.519,-620.394 831.145,-616.418 823.539,-620.789 823.539,-620.789"/>
<ellipse fill="none" stroke="black" cx="820.355" cy="-621.104" rx="3.2" ry="3.2"/>
</g>
<!-- key_pairs_vms -->
<g id="node8" class="node"><title>key_pairs_vms</title>
<g id="a_node8"><a xlink:href="../../tables/key_pairs_vms.html" xlink:title="key_pairs_vms" target="_top">
<polygon fill="#ffffff" stroke="none" points="835.5,-446 835.5,-552 965.5,-552 965.5,-446 835.5,-446"/>
<polygon fill="#f5f5f5" stroke="none" points="835.5,-530 835.5,-552 965.5,-552 965.5,-530 835.5,-530"/>
<polygon fill="none" stroke="black" points="835.5,-530 835.5,-552 965.5,-552 965.5,-530 835.5,-530"/>
<text text-anchor="start" x="840.5" y="-539.2" font-family="Helvetica,sans-Serif" font-weight="bold" font-size="11.00">key_pairs_vms</text>
<text text-anchor="start" x="926.5" y="-538.2" font-family="Helvetica,sans-Serif" font-size="11.00">[table]</text>
<polygon fill="none" stroke="black" points="835.5,-508 835.5,-530 965.5,-530 965.5,-508 835.5,-508"/>
<image xlink:href="../../images/primaryKeys.png" width="11px" height="12px" preserveAspectRatio="xMinYMin meet" x="840.5" y="-525"/>
<text text-anchor="start" x="857.5" y="-516.2" font-family="Helvetica,sans-Serif" font-size="11.00">id</text>
<polygon fill="none" stroke="black" points="835.5,-486 835.5,-508 965.5,-508 965.5,-486 835.5,-486"/>
<image xlink:href="../../images/foreignKeys.png" width="11px" height="12px" preserveAspectRatio="xMinYMin meet" x="840.5" y="-503"/>
<text text-anchor="start" x="857.5" y="-494.2" font-family="Helvetica,sans-Serif" font-size="11.00">authentication_id</text>
<polygon fill="#ffffff" stroke="none" points="835.5,-464 835.5,-486 965.5,-486 965.5,-464 835.5,-464"/>
<polygon fill="none" stroke="black" points="835.5,-464 835.5,-486 965.5,-486 965.5,-464 835.5,-464"/>
<image xlink:href="../../images/foreignKeys.png" width="11px" height="12px" preserveAspectRatio="xMinYMin meet" x="840.5" y="-481"/>
<text text-anchor="start" x="857.5" y="-472.2" font-family="Helvetica,sans-Serif" font-size="11.00">vm_id</text>
<polygon fill="#ffffff" stroke="none" points="835.5,-446 835.5,-464 898.5,-464 898.5,-446 835.5,-446"/>
<polygon fill="none" stroke="black" points="835.5,-446 835.5,-464 898.5,-464 898.5,-446 835.5,-446"/>
<text text-anchor="start" x="838.5" y="-452.2" font-family="Helvetica,sans-Serif" font-size="11.00">&lt; 2</text>
<polygon fill="#ffffff" stroke="none" points="898.5,-446 898.5,-464 931.5,-464 931.5,-446 898.5,-446"/>
<polygon fill="none" stroke="black" points="898.5,-446 898.5,-464 931.5,-464 931.5,-446 898.5,-446"/>
<text text-anchor="start" x="921.5" y="-452.2" font-family="Helvetica,sans-Serif" font-size="11.00"> &#160;</text>
<polygon fill="#ffffff" stroke="none" points="931.5,-446 931.5,-464 965.5,-464 965.5,-446 931.5,-446"/>
<polygon fill="none" stroke="black" points="931.5,-446 931.5,-464 965.5,-464 965.5,-446 931.5,-446"/>
<text text-anchor="start" x="955.5" y="-452.2" font-family="Helvetica,sans-Serif" font-size="11.00"> &#160;</text>
</a>
</g>
</g>
<!-- key_pairs_vms&#45;&gt;authentications -->
<g id="edge8" class="edge"><title>key_pairs_vms:authentication_id:w&#45;&gt;authentications:id.type:e</title>
<path fill="none" stroke="black" d="M819.92,-497.928C783.647,-502.922 772.647,-527.681 748,-563 711.797,-614.878 769.261,-699 706,-699"/>
<polygon fill="black" stroke="black" points="826.516,-497.508 834.729,-500.593 830.508,-497.254 834.5,-497 834.5,-497 834.5,-497 830.508,-497.254 834.271,-493.407 826.516,-497.508 826.516,-497.508"/>
<ellipse fill="none" stroke="black" cx="823.323" cy="-497.712" rx="3.2" ry="3.2"/>
</g>
</g>
</svg>
