<?xml version="1.0" encoding="UTF-8" standalone="no"?>
<!DOCTYPE svg PUBLIC "-//W3C//DTD SVG 1.1//EN"
 "http://www.w3.org/Graphics/SVG/1.1/DTD/svg11.dtd">
<!-- Generated by graphviz version 2.38.0 (20140413.2041)
 -->
<!-- Title: oneDegreeRelationshipsDiagram Pages: 1 -->
<svg width="435pt" height="219pt"
 viewBox="0.00 0.00 435.00 219.00" xmlns="http://www.w3.org/2000/svg" xmlns:xlink="http://www.w3.org/1999/xlink">
<g id="graph0" class="graph" transform="scale(1 1) rotate(0) translate(4 215)">
<title>oneDegreeRelationshipsDiagram</title>
<polygon fill="#ffffff" stroke="none" points="-4,4 -4,-215 431,-215 431,4 -4,4"/>
<text text-anchor="middle" x="74.5" y="-7.2" font-family="Helvetica,sans-Serif" font-size="11.00">Generated by SchemaSpy</text>
<!-- binary_blob_parts -->
<g id="node1" class="node"><title>binary_blob_parts</title>
<g id="a_node1"><a xlink:href="../../tables/binary_blob_parts.html" xlink:title="binary_blob_parts" target="_top">
<polygon fill="#ffffff" stroke="none" points="178,-97 178,-207 419,-207 419,-97 178,-97"/>
<polygon fill="#f5f5f5" stroke="none" points="180.5,-183 180.5,-205 417.5,-205 417.5,-183 180.5,-183"/>
<polygon fill="none" stroke="black" points="180.5,-183 180.5,-205 417.5,-205 417.5,-183 180.5,-183"/>
<text text-anchor="start" x="185.5" y="-192.2" font-family="Helvetica,sans-Serif" font-weight="bold" font-size="11.00">binary_blob_parts</text>
<text text-anchor="start" x="378.5" y="-191.2" font-family="Helvetica,sans-Serif" font-size="11.00">[table]</text>
<polygon fill="none" stroke="black" points="180.5,-161 180.5,-183 307.5,-183 307.5,-161 180.5,-161"/>
<image xlink:href="../../images/primaryKeys.png" width="11px" height="12px" preserveAspectRatio="xMinYMin meet" x="185.5" y="-178"/>
<text text-anchor="start" x="200.5" y="-169.2" font-family="Helvetica,sans-Serif" font-size="11.00">id</text>
<polygon fill="none" stroke="black" points="307.5,-161 307.5,-183 417.5,-183 417.5,-161 307.5,-161"/>
<text text-anchor="start" x="310.5" y="-169.2" font-family="Helvetica,sans-Serif" font-size="11.00">bigserial[19]</text>
<polygon fill="none" stroke="black" points="180.5,-139 180.5,-161 307.5,-161 307.5,-139 180.5,-139"/>
<text text-anchor="start" x="200.5" y="-147.2" font-family="Helvetica,sans-Serif" font-size="11.00">data</text>
<polygon fill="none" stroke="black" points="307.5,-139 307.5,-161 417.5,-161 417.5,-139 307.5,-139"/>
<text text-anchor="start" x="310.5" y="-147.2" font-family="Helvetica,sans-Serif" font-size="11.00">bytea[2147483647]</text>
<polygon fill="#ffffff" stroke="none" points="180.5,-117 180.5,-139 307.5,-139 307.5,-117 180.5,-117"/>
<polygon fill="none" stroke="black" points="180.5,-117 180.5,-139 307.5,-139 307.5,-117 180.5,-117"/>
<image xlink:href="../../images/foreignKeys.png" width="11px" height="12px" preserveAspectRatio="xMinYMin meet" x="185.5" y="-134"/>
<text text-anchor="start" x="200.5" y="-125.2" font-family="Helvetica,sans-Serif" font-size="11.00">binary_blob_id</text>
<polygon fill="none" stroke="black" points="307.5,-117 307.5,-139 417.5,-139 417.5,-117 307.5,-117"/>
<text text-anchor="start" x="310.5" y="-125.2" font-family="Helvetica,sans-Serif" font-size="11.00">int8[19]</text>
<polygon fill="#ffffff" stroke="none" points="180.5,-99 180.5,-117 248.5,-117 248.5,-99 180.5,-99"/>
<polygon fill="none" stroke="black" points="180.5,-99 180.5,-117 248.5,-117 248.5,-99 180.5,-99"/>
<text text-anchor="start" x="183.5" y="-105.2" font-family="Helvetica,sans-Serif" font-size="11.00">&lt; 1</text>
<polygon fill="#ffffff" stroke="none" points="248.5,-99 248.5,-117 307.5,-117 307.5,-99 248.5,-99"/>
<polygon fill="none" stroke="black" points="248.5,-99 248.5,-117 307.5,-117 307.5,-99 248.5,-99"/>
<text text-anchor="start" x="297.5" y="-105.2" font-family="Helvetica,sans-Serif" font-size="11.00"> &#160;</text>
<polygon fill="#ffffff" stroke="none" points="307.5,-99 307.5,-117 417.5,-117 417.5,-99 307.5,-99"/>
<polygon fill="none" stroke="black" points="307.5,-99 307.5,-117 417.5,-117 417.5,-99 307.5,-99"/>
<text text-anchor="start" x="397.5" y="-105.2" font-family="Helvetica,sans-Serif" font-size="11.00">0 &gt;</text>
<polygon fill="none" stroke="black" stroke-width="2" points="179,-98 179,-206 418,-206 418,-98 179,-98"/>
</a>
</g>
</g>
<!-- binary_blobs -->
<g id="node2" class="node"><title>binary_blobs</title>
<g id="a_node2"><a xlink:href="../../tables/binary_blobs.html" xlink:title="binary_blobs" target="_top">
<polygon fill="#ffffff" stroke="none" points="8,-37 8,-161 129,-161 129,-37 8,-37"/>
<polygon fill="#f5f5f5" stroke="none" points="8.5,-139 8.5,-161 129.5,-161 129.5,-139 8.5,-139"/>
<polygon fill="none" stroke="black" points="8.5,-139 8.5,-161 129.5,-161 129.5,-139 8.5,-139"/>
<text text-anchor="start" x="13.5" y="-148.2" font-family="Helvetica,sans-Serif" font-weight="bold" font-size="11.00">binary_blobs</text>
<text text-anchor="start" x="90.5" y="-147.2" font-family="Helvetica,sans-Serif" font-size="11.00">[table]</text>
<polygon fill="none" stroke="black" points="8.5,-117 8.5,-139 129.5,-139 129.5,-117 8.5,-117"/>
<image xlink:href="../../images/primaryKeys.png" width="11px" height="12px" preserveAspectRatio="xMinYMin meet" x="13.5" y="-134"/>
<text text-anchor="start" x="36.5" y="-125.2" font-family="Helvetica,sans-Serif" font-size="11.00">id</text>
<polygon fill="#ffffff" stroke="none" points="8.5,-95 8.5,-117 129.5,-117 129.5,-95 8.5,-95"/>
<polygon fill="none" stroke="black" points="8.5,-95 8.5,-117 129.5,-117 129.5,-95 8.5,-95"/>
<text text-anchor="start" x="36.5" y="-103.2" font-family="Helvetica,sans-Serif" font-size="11.00">resource_type</text>
<polygon fill="#ffffff" stroke="none" points="8.5,-73 8.5,-95 129.5,-95 129.5,-73 8.5,-73"/>
<polygon fill="none" stroke="black" points="8.5,-73 8.5,-95 129.5,-95 129.5,-73 8.5,-73"/>
<text text-anchor="start" x="36.5" y="-81.2" font-family="Helvetica,sans-Serif" font-size="11.00">resource_id</text>
<polygon fill="none" stroke="black" points="8.5,-55 8.5,-73 129.5,-73 129.5,-55 8.5,-55"/>
<text text-anchor="start" x="11.5" y="-61.2" font-family="Helvetica,sans-Serif" font-size="11.00">...</text>
<polygon fill="#ffffff" stroke="none" points="8.5,-37 8.5,-55 57.5,-55 57.5,-37 8.5,-37"/>
<polygon fill="none" stroke="black" points="8.5,-37 8.5,-55 57.5,-55 57.5,-37 8.5,-37"/>
<text text-anchor="start" x="11.5" y="-43.2" font-family="Helvetica,sans-Serif" font-size="11.00"> &#160;</text>
<polygon fill="#ffffff" stroke="none" points="57.5,-37 57.5,-55 88.5,-55 88.5,-37 57.5,-37"/>
<polygon fill="none" stroke="black" points="57.5,-37 57.5,-55 88.5,-55 88.5,-37 57.5,-37"/>
<text text-anchor="start" x="78.5" y="-43.2" font-family="Helvetica,sans-Serif" font-size="11.00"> &#160;</text>
<polygon fill="#ffffff" stroke="none" points="88.5,-37 88.5,-55 129.5,-55 129.5,-37 88.5,-37"/>
<polygon fill="none" stroke="black" points="88.5,-37 88.5,-55 129.5,-55 129.5,-37 88.5,-37"/>
<text text-anchor="start" x="109.5" y="-43.2" font-family="Helvetica,sans-Serif" font-size="11.00">1 &gt;</text>
</a>
</g>
</g>
<!-- binary_blob_parts&#45;&gt;binary_blobs -->
<g id="edge1" class="edge"><title>binary_blob_parts:binary_blob_id:w&#45;&gt;binary_blobs:id:e</title>
<path fill="none" stroke="black" d="M164.991,-128C153.677,-128 146.493,-128 130.5,-128"/>
<polygon fill="black" stroke="black" points="171.5,-128 179.5,-131.6 175.5,-128 179.5,-128 179.5,-128 179.5,-128 175.5,-128 179.5,-124.4 171.5,-128 171.5,-128"/>
<ellipse fill="none" stroke="black" cx="168.3" cy="-128" rx="3.2" ry="3.2"/>
</g>
</g>
</svg>
