<?xml version="1.0" encoding="UTF-8" standalone="no"?>
<!DOCTYPE svg PUBLIC "-//W3C//DTD SVG 1.1//EN"
 "http://www.w3.org/Graphics/SVG/1.1/DTD/svg11.dtd">
<!-- Generated by graphviz version 2.38.0 (20140413.2041)
 -->
<!-- Title: oneDegreeRelationshipsDiagram Pages: 1 -->
<svg width="454pt" height="333pt"
 viewBox="0.00 0.00 454.00 333.00" xmlns="http://www.w3.org/2000/svg" xmlns:xlink="http://www.w3.org/1999/xlink">
<g id="graph0" class="graph" transform="scale(1 1) rotate(0) translate(4 329)">
<title>oneDegreeRelationshipsDiagram</title>
<polygon fill="#ffffff" stroke="none" points="-4,4 -4,-329 450,-329 450,4 -4,4"/>
<text text-anchor="middle" x="74.5" y="-7.2" font-family="Helvetica,sans-Serif" font-size="11.00">Generated by SchemaSpy</text>
<!-- binary_blob_parts -->
<g id="node1" class="node"><title>binary_blob_parts</title>
<g id="a_node1"><a xlink:href="../../tables/binary_blob_parts.html" xlink:title="binary_blob_parts" target="_top">
<polygon fill="#ffffff" stroke="none" points="287,-219 287,-321 438,-321 438,-219 287,-219"/>
<polygon fill="#f5f5f5" stroke="none" points="287.5,-299 287.5,-321 438.5,-321 438.5,-299 287.5,-299"/>
<polygon fill="none" stroke="black" points="287.5,-299 287.5,-321 438.5,-321 438.5,-299 287.5,-299"/>
<text text-anchor="start" x="292.5" y="-308.2" font-family="Helvetica,sans-Serif" font-weight="bold" font-size="11.00">binary_blob_parts</text>
<text text-anchor="start" x="399.5" y="-307.2" font-family="Helvetica,sans-Serif" font-size="11.00">[table]</text>
<polygon fill="none" stroke="black" points="287.5,-277 287.5,-299 438.5,-299 438.5,-277 287.5,-277"/>
<image xlink:href="../../images/primaryKeys.png" width="11px" height="12px" preserveAspectRatio="xMinYMin meet" x="292.5" y="-294"/>
<text text-anchor="start" x="319.5" y="-285.2" font-family="Helvetica,sans-Serif" font-size="11.00">id</text>
<polygon fill="#ffffff" stroke="none" points="287.5,-255 287.5,-277 438.5,-277 438.5,-255 287.5,-255"/>
<polygon fill="none" stroke="black" points="287.5,-255 287.5,-277 438.5,-277 438.5,-255 287.5,-255"/>
<image xlink:href="../../images/foreignKeys.png" width="11px" height="12px" preserveAspectRatio="xMinYMin meet" x="292.5" y="-272"/>
<text text-anchor="start" x="319.5" y="-263.2" font-family="Helvetica,sans-Serif" font-size="11.00">binary_blob_id</text>
<polygon fill="none" stroke="black" points="287.5,-237 287.5,-255 438.5,-255 438.5,-237 287.5,-237"/>
<text text-anchor="start" x="290.5" y="-243.2" font-family="Helvetica,sans-Serif" font-size="11.00">...</text>
<polygon fill="#ffffff" stroke="none" points="287.5,-219 287.5,-237 361.5,-237 361.5,-219 287.5,-219"/>
<polygon fill="none" stroke="black" points="287.5,-219 287.5,-237 361.5,-237 361.5,-219 287.5,-219"/>
<text text-anchor="start" x="290.5" y="-225.2" font-family="Helvetica,sans-Serif" font-size="11.00">&lt; 1</text>
<polygon fill="#ffffff" stroke="none" points="361.5,-219 361.5,-237 399.5,-237 399.5,-219 361.5,-219"/>
<polygon fill="none" stroke="black" points="361.5,-219 361.5,-237 399.5,-237 399.5,-219 361.5,-219"/>
<text text-anchor="start" x="389.5" y="-225.2" font-family="Helvetica,sans-Serif" font-size="11.00"> &#160;</text>
<polygon fill="#ffffff" stroke="none" points="399.5,-219 399.5,-237 438.5,-237 438.5,-219 399.5,-219"/>
<polygon fill="none" stroke="black" points="399.5,-219 399.5,-237 438.5,-237 438.5,-219 399.5,-219"/>
<text text-anchor="start" x="428.5" y="-225.2" font-family="Helvetica,sans-Serif" font-size="11.00"> &#160;</text>
</a>
</g>
</g>
<!-- binary_blobs -->
<g id="node2" class="node"><title>binary_blobs</title>
<g id="a_node2"><a xlink:href="../../tables/binary_blobs.html" xlink:title="binary_blobs" target="_top">
<polygon fill="#ffffff" stroke="none" points="8,-37 8,-301 238,-301 238,-37 8,-37"/>
<polygon fill="#f5f5f5" stroke="none" points="10,-277 10,-299 236,-299 236,-277 10,-277"/>
<polygon fill="none" stroke="black" points="10,-277 10,-299 236,-299 236,-277 10,-277"/>
<text text-anchor="start" x="15" y="-286.2" font-family="Helvetica,sans-Serif" font-weight="bold" font-size="11.00">binary_blobs</text>
<text text-anchor="start" x="197" y="-285.2" font-family="Helvetica,sans-Serif" font-size="11.00">[table]</text>
<polygon fill="none" stroke="black" points="10,-255 10,-277 115,-277 115,-255 10,-255"/>
<image xlink:href="../../images/primaryKeys.png" width="11px" height="12px" preserveAspectRatio="xMinYMin meet" x="15" y="-272"/>
<text text-anchor="start" x="30" y="-263.2" font-family="Helvetica,sans-Serif" font-size="11.00">id</text>
<polygon fill="none" stroke="black" points="115,-255 115,-277 236,-277 236,-255 115,-255"/>
<text text-anchor="start" x="118" y="-263.2" font-family="Helvetica,sans-Serif" font-size="11.00">bigserial[19]</text>
<polygon fill="#ffffff" stroke="none" points="10,-233 10,-255 115,-255 115,-233 10,-233"/>
<polygon fill="none" stroke="black" points="10,-233 10,-255 115,-255 115,-233 10,-233"/>
<text text-anchor="start" x="30" y="-241.2" font-family="Helvetica,sans-Serif" font-size="11.00">resource_type</text>
<polygon fill="none" stroke="black" points="115,-233 115,-255 236,-255 236,-233 115,-233"/>
<text text-anchor="start" x="118" y="-241.2" font-family="Helvetica,sans-Serif" font-size="11.00">varchar[2147483647]</text>
<polygon fill="#ffffff" stroke="none" points="10,-211 10,-233 115,-233 115,-211 10,-211"/>
<polygon fill="none" stroke="black" points="10,-211 10,-233 115,-233 115,-211 10,-211"/>
<text text-anchor="start" x="30" y="-219.2" font-family="Helvetica,sans-Serif" font-size="11.00">resource_id</text>
<polygon fill="none" stroke="black" points="115,-211 115,-233 236,-233 236,-211 115,-211"/>
<text text-anchor="start" x="118" y="-219.2" font-family="Helvetica,sans-Serif" font-size="11.00">int8[19]</text>
<polygon fill="none" stroke="black" points="10,-189 10,-211 115,-211 115,-189 10,-189"/>
<text text-anchor="start" x="30" y="-197.2" font-family="Helvetica,sans-Serif" font-size="11.00">md5</text>
<polygon fill="none" stroke="black" points="115,-189 115,-211 236,-211 236,-189 115,-189"/>
<text text-anchor="start" x="118" y="-197.2" font-family="Helvetica,sans-Serif" font-size="11.00">varchar[2147483647]</text>
<polygon fill="none" stroke="black" points="10,-167 10,-189 115,-189 115,-167 10,-167"/>
<text text-anchor="start" x="30" y="-175.2" font-family="Helvetica,sans-Serif" font-size="11.00">size</text>
<polygon fill="none" stroke="black" points="115,-167 115,-189 236,-189 236,-167 115,-167"/>
<text text-anchor="start" x="118" y="-175.2" font-family="Helvetica,sans-Serif" font-size="11.00">numeric[20]</text>
<polygon fill="none" stroke="black" points="10,-145 10,-167 115,-167 115,-145 10,-145"/>
<text text-anchor="start" x="30" y="-153.2" font-family="Helvetica,sans-Serif" font-size="11.00">part_size</text>
<polygon fill="none" stroke="black" points="115,-145 115,-167 236,-167 236,-145 115,-145"/>
<text text-anchor="start" x="118" y="-153.2" font-family="Helvetica,sans-Serif" font-size="11.00">numeric[20]</text>
<polygon fill="none" stroke="black" points="10,-123 10,-145 115,-145 115,-123 10,-123"/>
<text text-anchor="start" x="30" y="-131.2" font-family="Helvetica,sans-Serif" font-size="11.00">name</text>
<polygon fill="none" stroke="black" points="115,-123 115,-145 236,-145 236,-123 115,-123"/>
<text text-anchor="start" x="118" y="-131.2" font-family="Helvetica,sans-Serif" font-size="11.00">varchar[2147483647]</text>
<polygon fill="none" stroke="black" points="10,-101 10,-123 115,-123 115,-101 10,-101"/>
<text text-anchor="start" x="30" y="-109.2" font-family="Helvetica,sans-Serif" font-size="11.00">data_type</text>
<polygon fill="none" stroke="black" points="115,-101 115,-123 236,-123 236,-101 115,-101"/>
<text text-anchor="start" x="118" y="-109.2" font-family="Helvetica,sans-Serif" font-size="11.00">varchar[2147483647]</text>
<polygon fill="none" stroke="black" points="10,-79 10,-101 115,-101 115,-79 10,-79"/>
<text text-anchor="start" x="30" y="-87.2" font-family="Helvetica,sans-Serif" font-size="11.00">created_at</text>
<polygon fill="none" stroke="black" points="115,-79 115,-101 236,-101 236,-79 115,-79"/>
<text text-anchor="start" x="118" y="-87.2" font-family="Helvetica,sans-Serif" font-size="11.00">timestamp[29,6]</text>
<polygon fill="none" stroke="black" points="10,-57 10,-79 115,-79 115,-57 10,-57"/>
<text text-anchor="start" x="30" y="-65.2" font-family="Helvetica,sans-Serif" font-size="11.00">updated_at</text>
<polygon fill="none" stroke="black" points="115,-57 115,-79 236,-79 236,-57 115,-57"/>
<text text-anchor="start" x="118" y="-65.2" font-family="Helvetica,sans-Serif" font-size="11.00">timestamp[29,6]</text>
<polygon fill="#ffffff" stroke="none" points="10,-39 10,-57 67,-57 67,-39 10,-39"/>
<polygon fill="none" stroke="black" points="10,-39 10,-57 67,-57 67,-39 10,-39"/>
<text text-anchor="start" x="13" y="-45.2" font-family="Helvetica,sans-Serif" font-size="11.00">&lt; 0</text>
<polygon fill="#ffffff" stroke="none" points="67,-39 67,-57 115,-57 115,-39 67,-39"/>
<polygon fill="none" stroke="black" points="67,-39 67,-57 115,-57 115,-39 67,-39"/>
<text text-anchor="start" x="105" y="-45.2" font-family="Helvetica,sans-Serif" font-size="11.00"> &#160;</text>
<polygon fill="#ffffff" stroke="none" points="115,-39 115,-57 236,-57 236,-39 115,-39"/>
<polygon fill="none" stroke="black" points="115,-39 115,-57 236,-57 236,-39 115,-39"/>
<text text-anchor="start" x="216" y="-45.2" font-family="Helvetica,sans-Serif" font-size="11.00">1 &gt;</text>
<polygon fill="none" stroke="black" stroke-width="2" points="9,-38 9,-300 237,-300 237,-38 9,-38"/>
</a>
</g>
</g>
<!-- binary_blob_parts&#45;&gt;binary_blobs -->
<g id="edge1" class="edge"><title>binary_blob_parts:binary_blob_id:w&#45;&gt;binary_blobs:id.type:e</title>
<path fill="none" stroke="black" d="M271.843,-266C260.414,-266 253.156,-266 237,-266"/>
<polygon fill="black" stroke="black" points="278.5,-266 286.5,-269.6 282.5,-266 286.5,-266 286.5,-266 286.5,-266 282.5,-266 286.5,-262.4 278.5,-266 278.5,-266"/>
<ellipse fill="none" stroke="black" cx="275.3" cy="-266" rx="3.2" ry="3.2"/>
</g>
</g>
</svg>
