<?xml version="1.0" encoding="UTF-8" standalone="no"?>
<!DOCTYPE svg PUBLIC "-//W3C//DTD SVG 1.1//EN"
 "http://www.w3.org/Graphics/SVG/1.1/DTD/svg11.dtd">
<!-- Generated by graphviz version 2.38.0 (20140413.2041)
 -->
<!-- Title: oneDegreeRelationshipsDiagram Pages: 1 -->
<svg width="784pt" height="612pt"
 viewBox="0.00 0.00 784.00 612.00" xmlns="http://www.w3.org/2000/svg" xmlns:xlink="http://www.w3.org/1999/xlink">
<g id="graph0" class="graph" transform="scale(1 1) rotate(0) translate(4 608)">
<title>oneDegreeRelationshipsDiagram</title>
<polygon fill="#ffffff" stroke="none" points="-4,4 -4,-608 780,-608 780,4 -4,4"/>
<text text-anchor="middle" x="74.5" y="-7.2" font-family="Helvetica,sans-Serif" font-size="11.00">Generated by SchemaSpy</text>
<!-- canisters -->
<g id="node1" class="node"><title>canisters</title>
<g id="a_node1"><a xlink:href="../../tables/canisters.html" xlink:title="canisters" target="_top">
<polygon fill="#ffffff" stroke="none" points="236,-37 236,-499 560,-499 560,-37 236,-37"/>
<polygon fill="#f5f5f5" stroke="none" points="238,-475 238,-497 558,-497 558,-475 238,-475"/>
<polygon fill="none" stroke="black" points="238,-475 238,-497 558,-497 558,-475 238,-475"/>
<text text-anchor="start" x="243" y="-484.2" font-family="Helvetica,sans-Serif" font-weight="bold" font-size="11.00">canisters</text>
<text text-anchor="start" x="519" y="-483.2" font-family="Helvetica,sans-Serif" font-size="11.00">[table]</text>
<polygon fill="none" stroke="black" points="238,-453 238,-475 437,-475 437,-453 238,-453"/>
<image xlink:href="../../images/primaryKeys.png" width="11px" height="12px" preserveAspectRatio="xMinYMin meet" x="243" y="-470"/>
<text text-anchor="start" x="258" y="-461.2" font-family="Helvetica,sans-Serif" font-size="11.00">id</text>
<polygon fill="none" stroke="black" points="437,-453 437,-475 558,-475 558,-453 437,-453"/>
<text text-anchor="start" x="440" y="-461.2" font-family="Helvetica,sans-Serif" font-size="11.00">bigserial[19]</text>
<polygon fill="none" stroke="black" points="238,-431 238,-453 437,-453 437,-431 238,-431"/>
<text text-anchor="start" x="258" y="-439.2" font-family="Helvetica,sans-Serif" font-size="11.00">ems_ref</text>
<polygon fill="none" stroke="black" points="437,-431 437,-453 558,-453 558,-431 437,-431"/>
<text text-anchor="start" x="440" y="-439.2" font-family="Helvetica,sans-Serif" font-size="11.00">varchar[2147483647]</text>
<polygon fill="none" stroke="black" points="238,-409 238,-431 437,-431 437,-409 238,-409"/>
<text text-anchor="start" x="258" y="-417.2" font-family="Helvetica,sans-Serif" font-size="11.00">serial_number</text>
<polygon fill="none" stroke="black" points="437,-409 437,-431 558,-431 558,-409 437,-409"/>
<text text-anchor="start" x="440" y="-417.2" font-family="Helvetica,sans-Serif" font-size="11.00">varchar[2147483647]</text>
<polygon fill="none" stroke="black" points="238,-387 238,-409 437,-409 437,-387 238,-387"/>
<text text-anchor="start" x="258" y="-395.2" font-family="Helvetica,sans-Serif" font-size="11.00">name</text>
<polygon fill="none" stroke="black" points="437,-387 437,-409 558,-409 558,-387 437,-387"/>
<text text-anchor="start" x="440" y="-395.2" font-family="Helvetica,sans-Serif" font-size="11.00">varchar[2147483647]</text>
<polygon fill="none" stroke="black" points="238,-365 238,-387 437,-387 437,-365 238,-365"/>
<text text-anchor="start" x="258" y="-373.2" font-family="Helvetica,sans-Serif" font-size="11.00">position</text>
<polygon fill="none" stroke="black" points="437,-365 437,-387 558,-387 558,-365 437,-365"/>
<text text-anchor="start" x="440" y="-373.2" font-family="Helvetica,sans-Serif" font-size="11.00">varchar[2147483647]</text>
<polygon fill="none" stroke="black" points="238,-343 238,-365 437,-365 437,-343 238,-343"/>
<text text-anchor="start" x="258" y="-351.2" font-family="Helvetica,sans-Serif" font-size="11.00">status</text>
<polygon fill="none" stroke="black" points="437,-343 437,-365 558,-365 558,-343 437,-343"/>
<text text-anchor="start" x="440" y="-351.2" font-family="Helvetica,sans-Serif" font-size="11.00">varchar[2147483647]</text>
<polygon fill="none" stroke="black" points="238,-321 238,-343 437,-343 437,-321 238,-321"/>
<text text-anchor="start" x="258" y="-329.2" font-family="Helvetica,sans-Serif" font-size="11.00">health_state</text>
<polygon fill="none" stroke="black" points="437,-321 437,-343 558,-343 558,-321 437,-321"/>
<text text-anchor="start" x="440" y="-329.2" font-family="Helvetica,sans-Serif" font-size="11.00">varchar[2147483647]</text>
<polygon fill="none" stroke="black" points="238,-299 238,-321 437,-321 437,-299 238,-299"/>
<text text-anchor="start" x="258" y="-307.2" font-family="Helvetica,sans-Serif" font-size="11.00">disk_bus_type</text>
<polygon fill="none" stroke="black" points="437,-299 437,-321 558,-321 558,-299 437,-299"/>
<text text-anchor="start" x="440" y="-307.2" font-family="Helvetica,sans-Serif" font-size="11.00">varchar[2147483647]</text>
<polygon fill="none" stroke="black" points="238,-277 238,-299 437,-299 437,-277 238,-277"/>
<text text-anchor="start" x="258" y="-285.2" font-family="Helvetica,sans-Serif" font-size="11.00">phy_isolation</text>
<polygon fill="none" stroke="black" points="437,-277 437,-299 558,-299 558,-277 437,-277"/>
<text text-anchor="start" x="440" y="-285.2" font-family="Helvetica,sans-Serif" font-size="11.00">varchar[2147483647]</text>
<polygon fill="none" stroke="black" points="238,-255 238,-277 437,-277 437,-255 238,-255"/>
<text text-anchor="start" x="258" y="-263.2" font-family="Helvetica,sans-Serif" font-size="11.00">controller_redundancy_status</text>
<polygon fill="none" stroke="black" points="437,-255 437,-277 558,-277 558,-255 437,-255"/>
<text text-anchor="start" x="440" y="-263.2" font-family="Helvetica,sans-Serif" font-size="11.00">varchar[2147483647]</text>
<polygon fill="none" stroke="black" points="238,-233 238,-255 437,-255 437,-233 238,-233"/>
<text text-anchor="start" x="258" y="-241.2" font-family="Helvetica,sans-Serif" font-size="11.00">disks</text>
<polygon fill="none" stroke="black" points="437,-233 437,-255 558,-255 558,-233 437,-233"/>
<text text-anchor="start" x="440" y="-241.2" font-family="Helvetica,sans-Serif" font-size="11.00">int4[10]</text>
<polygon fill="none" stroke="black" points="238,-211 238,-233 437,-233 437,-211 238,-211"/>
<text text-anchor="start" x="258" y="-219.2" font-family="Helvetica,sans-Serif" font-size="11.00">disk_channel</text>
<polygon fill="none" stroke="black" points="437,-211 437,-233 558,-233 558,-211 437,-211"/>
<text text-anchor="start" x="440" y="-219.2" font-family="Helvetica,sans-Serif" font-size="11.00">int4[10]</text>
<polygon fill="none" stroke="black" points="238,-189 238,-211 437,-211 437,-189 238,-189"/>
<text text-anchor="start" x="258" y="-197.2" font-family="Helvetica,sans-Serif" font-size="11.00">system_cache_memory</text>
<polygon fill="none" stroke="black" points="437,-189 437,-211 558,-211 558,-189 437,-189"/>
<text text-anchor="start" x="440" y="-197.2" font-family="Helvetica,sans-Serif" font-size="11.00">int4[10]</text>
<polygon fill="none" stroke="black" points="238,-167 238,-189 437,-189 437,-167 238,-167"/>
<text text-anchor="start" x="258" y="-175.2" font-family="Helvetica,sans-Serif" font-size="11.00">power_state</text>
<polygon fill="none" stroke="black" points="437,-167 437,-189 558,-189 558,-167 437,-167"/>
<text text-anchor="start" x="440" y="-175.2" font-family="Helvetica,sans-Serif" font-size="11.00">varchar[2147483647]</text>
<polygon fill="none" stroke="black" points="238,-145 238,-167 437,-167 437,-145 238,-145"/>
<text text-anchor="start" x="258" y="-153.2" font-family="Helvetica,sans-Serif" font-size="11.00">host_ports</text>
<polygon fill="none" stroke="black" points="437,-145 437,-167 558,-167 558,-145 437,-145"/>
<text text-anchor="start" x="440" y="-153.2" font-family="Helvetica,sans-Serif" font-size="11.00">varchar[2147483647]</text>
<polygon fill="none" stroke="black" points="238,-123 238,-145 437,-145 437,-123 238,-123"/>
<text text-anchor="start" x="258" y="-131.2" font-family="Helvetica,sans-Serif" font-size="11.00">hardware_version</text>
<polygon fill="none" stroke="black" points="437,-123 437,-145 558,-145 558,-123 437,-123"/>
<text text-anchor="start" x="440" y="-131.2" font-family="Helvetica,sans-Serif" font-size="11.00">varchar[2147483647]</text>
<polygon fill="none" stroke="black" points="238,-101 238,-123 437,-123 437,-101 238,-101"/>
<image xlink:href="../../images/foreignKeys.png" width="11px" height="12px" preserveAspectRatio="xMinYMin meet" x="243" y="-118"/>
<text text-anchor="start" x="258" y="-109.2" font-family="Helvetica,sans-Serif" font-size="11.00">physical_storage_id</text>
<polygon fill="none" stroke="black" points="437,-101 437,-123 558,-123 558,-101 437,-101"/>
<text text-anchor="start" x="440" y="-109.2" font-family="Helvetica,sans-Serif" font-size="11.00">int8[19]</text>
<polygon fill="none" stroke="black" points="238,-79 238,-101 437,-101 437,-79 238,-79"/>
<text text-anchor="start" x="258" y="-87.2" font-family="Helvetica,sans-Serif" font-size="11.00">created_at</text>
<polygon fill="none" stroke="black" points="437,-79 437,-101 558,-101 558,-79 437,-79"/>
<text text-anchor="start" x="440" y="-87.2" font-family="Helvetica,sans-Serif" font-size="11.00">timestamp[29,6]</text>
<polygon fill="none" stroke="black" points="238,-57 238,-79 437,-79 437,-57 238,-57"/>
<text text-anchor="start" x="258" y="-65.2" font-family="Helvetica,sans-Serif" font-size="11.00">updated_at</text>
<polygon fill="none" stroke="black" points="437,-57 437,-79 558,-79 558,-57 437,-57"/>
<text text-anchor="start" x="440" y="-65.2" font-family="Helvetica,sans-Serif" font-size="11.00">timestamp[29,6]</text>
<polygon fill="#ffffff" stroke="none" points="238,-39 238,-57 342,-57 342,-39 238,-39"/>
<polygon fill="none" stroke="black" points="238,-39 238,-57 342,-57 342,-39 238,-39"/>
<text text-anchor="start" x="241" y="-45.2" font-family="Helvetica,sans-Serif" font-size="11.00">&lt; 1</text>
<polygon fill="#ffffff" stroke="none" points="342,-39 342,-57 437,-57 437,-39 342,-39"/>
<polygon fill="none" stroke="black" points="342,-39 342,-57 437,-57 437,-39 342,-39"/>
<text text-anchor="start" x="427" y="-45.2" font-family="Helvetica,sans-Serif" font-size="11.00"> &#160;</text>
<polygon fill="#ffffff" stroke="none" points="437,-39 437,-57 558,-57 558,-39 437,-39"/>
<polygon fill="none" stroke="black" points="437,-39 437,-57 558,-57 558,-39 437,-39"/>
<text text-anchor="start" x="538" y="-45.2" font-family="Helvetica,sans-Serif" font-size="11.00">2 &gt;</text>
<polygon fill="none" stroke="black" stroke-width="2" points="237,-38 237,-498 559,-498 559,-38 237,-38"/>
</a>
</g>
</g>
<!-- physical_storages -->
<g id="node2" class="node"><title>physical_storages</title>
<g id="a_node2"><a xlink:href="../../tables/physical_storages.html" xlink:title="physical_storages" target="_top">
<polygon fill="#ffffff" stroke="none" points="8,-226 8,-350 187,-350 187,-226 8,-226"/>
<polygon fill="#f5f5f5" stroke="none" points="8.5,-328 8.5,-350 187.5,-350 187.5,-328 8.5,-328"/>
<polygon fill="none" stroke="black" points="8.5,-328 8.5,-350 187.5,-350 187.5,-328 8.5,-328"/>
<text text-anchor="start" x="13.5" y="-337.2" font-family="Helvetica,sans-Serif" font-weight="bold" font-size="11.00">physical_storages</text>
<text text-anchor="start" x="148.5" y="-336.2" font-family="Helvetica,sans-Serif" font-size="11.00">[table]</text>
<polygon fill="none" stroke="black" points="8.5,-306 8.5,-328 187.5,-328 187.5,-306 8.5,-306"/>
<image xlink:href="../../images/primaryKeys.png" width="11px" height="12px" preserveAspectRatio="xMinYMin meet" x="13.5" y="-323"/>
<text text-anchor="start" x="28.5" y="-314.2" font-family="Helvetica,sans-Serif" font-size="11.00">id</text>
<polygon fill="none" stroke="black" points="8.5,-284 8.5,-306 187.5,-306 187.5,-284 8.5,-284"/>
<image xlink:href="../../images/foreignKeys.png" width="11px" height="12px" preserveAspectRatio="xMinYMin meet" x="13.5" y="-301"/>
<text text-anchor="start" x="28.5" y="-292.2" font-family="Helvetica,sans-Serif" font-size="11.00">physical_rack_id</text>
<polygon fill="#ffffff" stroke="none" points="8.5,-262 8.5,-284 187.5,-284 187.5,-262 8.5,-262"/>
<polygon fill="none" stroke="black" points="8.5,-262 8.5,-284 187.5,-284 187.5,-262 8.5,-262"/>
<image xlink:href="../../images/foreignKeys.png" width="11px" height="12px" preserveAspectRatio="xMinYMin meet" x="13.5" y="-279"/>
<text text-anchor="start" x="28.5" y="-270.2" font-family="Helvetica,sans-Serif" font-size="11.00">physical_storage_family_id</text>
<polygon fill="none" stroke="black" points="8.5,-244 8.5,-262 187.5,-262 187.5,-244 8.5,-244"/>
<text text-anchor="start" x="11.5" y="-250.2" font-family="Helvetica,sans-Serif" font-size="11.00">...</text>
<polygon fill="#ffffff" stroke="none" points="8.5,-226 8.5,-244 91.5,-244 91.5,-226 8.5,-226"/>
<polygon fill="none" stroke="black" points="8.5,-226 8.5,-244 91.5,-244 91.5,-226 8.5,-226"/>
<text text-anchor="start" x="11.5" y="-232.2" font-family="Helvetica,sans-Serif" font-size="11.00">&lt; 2</text>
<polygon fill="#ffffff" stroke="none" points="91.5,-226 91.5,-244 134.5,-244 134.5,-226 91.5,-226"/>
<polygon fill="none" stroke="black" points="91.5,-226 91.5,-244 134.5,-244 134.5,-226 91.5,-226"/>
<text text-anchor="start" x="124.5" y="-232.2" font-family="Helvetica,sans-Serif" font-size="11.00"> &#160;</text>
<polygon fill="#ffffff" stroke="none" points="134.5,-226 134.5,-244 187.5,-244 187.5,-226 134.5,-226"/>
<polygon fill="none" stroke="black" points="134.5,-226 134.5,-244 187.5,-244 187.5,-226 134.5,-226"/>
<text text-anchor="start" x="167.5" y="-232.2" font-family="Helvetica,sans-Serif" font-size="11.00">7 &gt;</text>
</a>
</g>
</g>
<!-- canisters&#45;&gt;physical_storages -->
<g id="edge1" class="edge"><title>canisters:physical_storage_id:w&#45;&gt;physical_storages:id:e</title>
<path fill="none" stroke="black" d="M222.446,-114.164C159.324,-136.073 276.457,-317 188.5,-317"/>
<polygon fill="black" stroke="black" points="229.087,-113.176 237.529,-115.561 233.043,-112.588 237,-112 237,-112 237,-112 233.043,-112.588 236.471,-108.439 229.087,-113.176 229.087,-113.176"/>
<ellipse fill="none" stroke="black" cx="225.922" cy="-113.647" rx="3.2" ry="3.2"/>
</g>
<!-- hardwares -->
<g id="node3" class="node"><title>hardwares</title>
<g id="a_node3"><a xlink:href="../../tables/hardwares.html" xlink:title="hardwares" target="_top">
<polygon fill="#ffffff" stroke="none" points="609,-243 609,-433 768,-433 768,-243 609,-243"/>
<polygon fill="#f5f5f5" stroke="none" points="609.5,-411 609.5,-433 768.5,-433 768.5,-411 609.5,-411"/>
<polygon fill="none" stroke="black" points="609.5,-411 609.5,-433 768.5,-433 768.5,-411 609.5,-411"/>
<text text-anchor="start" x="614.5" y="-420.2" font-family="Helvetica,sans-Serif" font-weight="bold" font-size="11.00">hardwares</text>
<text text-anchor="start" x="729.5" y="-419.2" font-family="Helvetica,sans-Serif" font-size="11.00">[table]</text>
<polygon fill="none" stroke="black" points="609.5,-389 609.5,-411 768.5,-411 768.5,-389 609.5,-389"/>
<image xlink:href="../../images/primaryKeys.png" width="11px" height="12px" preserveAspectRatio="xMinYMin meet" x="614.5" y="-406"/>
<text text-anchor="start" x="629.5" y="-397.2" font-family="Helvetica,sans-Serif" font-size="11.00">id</text>
<polygon fill="#ffffff" stroke="none" points="609.5,-367 609.5,-389 768.5,-389 768.5,-367 609.5,-367"/>
<polygon fill="none" stroke="black" points="609.5,-367 609.5,-389 768.5,-389 768.5,-367 609.5,-367"/>
<text text-anchor="start" x="629.5" y="-375.2" font-family="Helvetica,sans-Serif" font-size="11.00">vm_or_template_id</text>
<polygon fill="#ffffff" stroke="none" points="609.5,-345 609.5,-367 768.5,-367 768.5,-345 609.5,-345"/>
<polygon fill="none" stroke="black" points="609.5,-345 609.5,-367 768.5,-367 768.5,-345 609.5,-345"/>
<image xlink:href="../../images/foreignKeys.png" width="11px" height="12px" preserveAspectRatio="xMinYMin meet" x="614.5" y="-362"/>
<text text-anchor="start" x="629.5" y="-353.2" font-family="Helvetica,sans-Serif" font-size="11.00">host_id</text>
<polygon fill="#ffffff" stroke="none" points="609.5,-323 609.5,-345 768.5,-345 768.5,-323 609.5,-323"/>
<polygon fill="none" stroke="black" points="609.5,-323 609.5,-345 768.5,-345 768.5,-323 609.5,-323"/>
<image xlink:href="../../images/foreignKeys.png" width="11px" height="12px" preserveAspectRatio="xMinYMin meet" x="614.5" y="-340"/>
<text text-anchor="start" x="629.5" y="-331.2" font-family="Helvetica,sans-Serif" font-size="11.00">computer_system_id</text>
<polygon fill="none" stroke="black" points="609.5,-301 609.5,-323 768.5,-323 768.5,-301 609.5,-301"/>
<image xlink:href="../../images/foreignKeys.png" width="11px" height="12px" preserveAspectRatio="xMinYMin meet" x="614.5" y="-318"/>
<text text-anchor="start" x="629.5" y="-309.2" font-family="Helvetica,sans-Serif" font-size="11.00">switch_id</text>
<polygon fill="none" stroke="black" points="609.5,-279 609.5,-301 768.5,-301 768.5,-279 609.5,-279"/>
<image xlink:href="../../images/foreignKeys.png" width="11px" height="12px" preserveAspectRatio="xMinYMin meet" x="614.5" y="-296"/>
<text text-anchor="start" x="629.5" y="-287.2" font-family="Helvetica,sans-Serif" font-size="11.00">canister_id</text>
<polygon fill="none" stroke="black" points="609.5,-261 609.5,-279 768.5,-279 768.5,-261 609.5,-261"/>
<text text-anchor="start" x="612.5" y="-267.2" font-family="Helvetica,sans-Serif" font-size="11.00">...</text>
<polygon fill="#ffffff" stroke="none" points="609.5,-243 609.5,-261 682.5,-261 682.5,-243 609.5,-243"/>
<polygon fill="none" stroke="black" points="609.5,-243 609.5,-261 682.5,-261 682.5,-243 609.5,-243"/>
<text text-anchor="start" x="612.5" y="-249.2" font-family="Helvetica,sans-Serif" font-size="11.00">&lt; 4</text>
<polygon fill="#ffffff" stroke="none" points="682.5,-243 682.5,-261 720.5,-261 720.5,-243 682.5,-243"/>
<polygon fill="none" stroke="black" points="682.5,-243 682.5,-261 720.5,-261 720.5,-243 682.5,-243"/>
<text text-anchor="start" x="710.5" y="-249.2" font-family="Helvetica,sans-Serif" font-size="11.00"> &#160;</text>
<polygon fill="#ffffff" stroke="none" points="720.5,-243 720.5,-261 768.5,-261 768.5,-243 720.5,-243"/>
<polygon fill="none" stroke="black" points="720.5,-243 720.5,-261 768.5,-261 768.5,-243 720.5,-243"/>
<text text-anchor="start" x="748.5" y="-249.2" font-family="Helvetica,sans-Serif" font-size="11.00">5 &gt;</text>
</a>
</g>
</g>
<!-- hardwares&#45;&gt;canisters -->
<g id="edge2" class="edge"><title>hardwares:canister_id:w&#45;&gt;canisters:id.type:e</title>
<path fill="none" stroke="black" d="M594.25,-292.46C542.803,-313.609 633.749,-464 559,-464"/>
<polygon fill="black" stroke="black" points="600.617,-291.361 609.112,-293.548 604.558,-290.68 608.5,-290 608.5,-290 608.5,-290 604.558,-290.68 607.888,-286.452 600.617,-291.361 600.617,-291.361"/>
<ellipse fill="none" stroke="black" cx="597.463" cy="-291.905" rx="3.2" ry="3.2"/>
</g>
<!-- physical_disks -->
<g id="node4" class="node"><title>physical_disks</title>
<g id="a_node4"><a xlink:href="../../tables/physical_disks.html" xlink:title="physical_disks" target="_top">
<polygon fill="#ffffff" stroke="none" points="620.5,-454 620.5,-600 756.5,-600 756.5,-454 620.5,-454"/>
<polygon fill="#f5f5f5" stroke="none" points="620.5,-578 620.5,-600 756.5,-600 756.5,-578 620.5,-578"/>
<polygon fill="none" stroke="black" points="620.5,-578 620.5,-600 756.5,-600 756.5,-578 620.5,-578"/>
<text text-anchor="start" x="625.5" y="-587.2" font-family="Helvetica,sans-Serif" font-weight="bold" font-size="11.00">physical_disks</text>
<text text-anchor="start" x="717.5" y="-586.2" font-family="Helvetica,sans-Serif" font-size="11.00">[table]</text>
<polygon fill="none" stroke="black" points="620.5,-556 620.5,-578 756.5,-578 756.5,-556 620.5,-556"/>
<image xlink:href="../../images/primaryKeys.png" width="11px" height="12px" preserveAspectRatio="xMinYMin meet" x="625.5" y="-573"/>
<text text-anchor="start" x="640.5" y="-564.2" font-family="Helvetica,sans-Serif" font-size="11.00">id</text>
<polygon fill="#ffffff" stroke="none" points="620.5,-534 620.5,-556 756.5,-556 756.5,-534 620.5,-534"/>
<polygon fill="none" stroke="black" points="620.5,-534 620.5,-556 756.5,-556 756.5,-534 620.5,-534"/>
<text text-anchor="start" x="640.5" y="-542.2" font-family="Helvetica,sans-Serif" font-size="11.00">location</text>
<polygon fill="#ffffff" stroke="none" points="620.5,-512 620.5,-534 756.5,-534 756.5,-512 620.5,-512"/>
<polygon fill="none" stroke="black" points="620.5,-512 620.5,-534 756.5,-534 756.5,-512 620.5,-512"/>
<image xlink:href="../../images/foreignKeys.png" width="11px" height="12px" preserveAspectRatio="xMinYMin meet" x="625.5" y="-529"/>
<text text-anchor="start" x="640.5" y="-520.2" font-family="Helvetica,sans-Serif" font-size="11.00">physical_storage_id</text>
<polygon fill="#ffffff" stroke="none" points="620.5,-490 620.5,-512 756.5,-512 756.5,-490 620.5,-490"/>
<polygon fill="none" stroke="black" points="620.5,-490 620.5,-512 756.5,-512 756.5,-490 620.5,-490"/>
<image xlink:href="../../images/foreignKeys.png" width="11px" height="12px" preserveAspectRatio="xMinYMin meet" x="625.5" y="-507"/>
<text text-anchor="start" x="640.5" y="-498.2" font-family="Helvetica,sans-Serif" font-size="11.00">canister_id</text>
<polygon fill="none" stroke="black" points="620.5,-472 620.5,-490 756.5,-490 756.5,-472 620.5,-472"/>
<text text-anchor="start" x="623.5" y="-478.2" font-family="Helvetica,sans-Serif" font-size="11.00">...</text>
<polygon fill="#ffffff" stroke="none" points="620.5,-454 620.5,-472 686.5,-472 686.5,-454 620.5,-454"/>
<polygon fill="none" stroke="black" points="620.5,-454 620.5,-472 686.5,-472 686.5,-454 620.5,-454"/>
<text text-anchor="start" x="623.5" y="-460.2" font-family="Helvetica,sans-Serif" font-size="11.00">&lt; 2</text>
<polygon fill="#ffffff" stroke="none" points="686.5,-454 686.5,-472 721.5,-472 721.5,-454 686.5,-454"/>
<polygon fill="none" stroke="black" points="686.5,-454 686.5,-472 721.5,-472 721.5,-454 686.5,-454"/>
<text text-anchor="start" x="711.5" y="-460.2" font-family="Helvetica,sans-Serif" font-size="11.00"> &#160;</text>
<polygon fill="#ffffff" stroke="none" points="721.5,-454 721.5,-472 756.5,-472 756.5,-454 721.5,-454"/>
<polygon fill="none" stroke="black" points="721.5,-454 721.5,-472 756.5,-472 756.5,-454 721.5,-454"/>
<text text-anchor="start" x="746.5" y="-460.2" font-family="Helvetica,sans-Serif" font-size="11.00"> &#160;</text>
</a>
</g>
</g>
<!-- physical_disks&#45;&gt;canisters -->
<g id="edge3" class="edge"><title>physical_disks:canister_id:w&#45;&gt;canisters:id.type:e</title>
<path fill="none" stroke="black" d="M605.413,-497.845C587.794,-488.898 584.855,-464 559,-464"/>
<polygon fill="black" stroke="black" points="611.693,-499.252 618.713,-504.513 615.597,-500.126 619.5,-501 619.5,-501 619.5,-501 615.597,-500.126 620.287,-497.487 611.693,-499.252 611.693,-499.252"/>
<ellipse fill="none" stroke="black" cx="608.571" cy="-498.552" rx="3.2" ry="3.2"/>
</g>
<!-- physical_disks&#45;&gt;physical_storages -->
<g id="edge4" class="edge"><title>physical_disks:physical_storage_id:w&#45;&gt;physical_storages:id:e</title>
<path fill="none" stroke="black" d="M604.921,-523.232C440.586,-528.455 357.27,-619.116 228,-510 161.093,-453.524 276.056,-317 188.5,-317"/>
<polygon fill="black" stroke="black" points="611.501,-523.127 619.557,-526.6 615.501,-523.064 619.5,-523 619.5,-523 619.5,-523 615.501,-523.064 619.443,-519.4 611.501,-523.127 611.501,-523.127"/>
<ellipse fill="none" stroke="black" cx="608.301" cy="-523.178" rx="3.2" ry="3.2"/>
</g>
</g>
</svg>
