<?xml version="1.0" encoding="UTF-8" standalone="no"?>
<!DOCTYPE svg PUBLIC "-//W3C//DTD SVG 1.1//EN"
 "http://www.w3.org/Graphics/SVG/1.1/DTD/svg11.dtd">
<!-- Generated by graphviz version 2.38.0 (20140413.2041)
 -->
<!-- Title: twoDegreesRelationshipsDiagram Pages: 1 -->
<svg width="1147pt" height="331pt"
 viewBox="0.00 0.00 1147.00 331.00" xmlns="http://www.w3.org/2000/svg" xmlns:xlink="http://www.w3.org/1999/xlink">
<g id="graph0" class="graph" transform="scale(1 1) rotate(0) translate(4 327)">
<title>twoDegreesRelationshipsDiagram</title>
<polygon fill="#ffffff" stroke="none" points="-4,4 -4,-327 1143,-327 1143,4 -4,4"/>
<text text-anchor="middle" x="74.5" y="-7.2" font-family="Helvetica,sans-Serif" font-size="11.00">Generated by SchemaSpy</text>
<!-- chargeable_fields -->
<g id="node1" class="node"><title>chargeable_fields</title>
<g id="a_node1"><a xlink:href="../../tables/chargeable_fields.html" xlink:title="chargeable_fields" target="_top">
<polygon fill="#ffffff" stroke="none" points="297,-37 297,-213 655,-213 655,-37 297,-37"/>
<polygon fill="#f5f5f5" stroke="none" points="299,-189 299,-211 653,-211 653,-189 299,-189"/>
<polygon fill="none" stroke="black" points="299,-189 299,-211 653,-211 653,-189 299,-189"/>
<text text-anchor="start" x="304" y="-198.2" font-family="Helvetica,sans-Serif" font-weight="bold" font-size="11.00">chargeable_fields</text>
<text text-anchor="start" x="614" y="-197.2" font-family="Helvetica,sans-Serif" font-size="11.00">[table]</text>
<polygon fill="none" stroke="black" points="299,-167 299,-189 532,-189 532,-167 299,-167"/>
<image xlink:href="../../images/primaryKeys.png" width="11px" height="12px" preserveAspectRatio="xMinYMin meet" x="304" y="-184"/>
<text text-anchor="start" x="319" y="-175.2" font-family="Helvetica,sans-Serif" font-size="11.00">id</text>
<polygon fill="none" stroke="black" points="532,-167 532,-189 653,-189 653,-167 532,-167"/>
<text text-anchor="start" x="535" y="-175.2" font-family="Helvetica,sans-Serif" font-size="11.00">bigserial[19]</text>
<polygon fill="none" stroke="black" points="299,-145 299,-167 532,-167 532,-145 299,-145"/>
<image xlink:href="../../images/foreignKeys.png" width="11px" height="12px" preserveAspectRatio="xMinYMin meet" x="304" y="-162"/>
<text text-anchor="start" x="319" y="-153.2" font-family="Helvetica,sans-Serif" font-size="11.00">chargeback_rate_detail_measure_id</text>
<polygon fill="none" stroke="black" points="532,-145 532,-167 653,-167 653,-145 532,-145"/>
<text text-anchor="start" x="535" y="-153.2" font-family="Helvetica,sans-Serif" font-size="11.00">int8[19]</text>
<polygon fill="none" stroke="black" points="299,-123 299,-145 532,-145 532,-123 299,-123"/>
<text text-anchor="start" x="319" y="-131.2" font-family="Helvetica,sans-Serif" font-size="11.00">metric</text>
<polygon fill="none" stroke="black" points="532,-123 532,-145 653,-145 653,-123 532,-123"/>
<text text-anchor="start" x="535" y="-131.2" font-family="Helvetica,sans-Serif" font-size="11.00">varchar[2147483647]</text>
<polygon fill="none" stroke="black" points="299,-101 299,-123 532,-123 532,-101 299,-101"/>
<text text-anchor="start" x="319" y="-109.2" font-family="Helvetica,sans-Serif" font-size="11.00">group</text>
<polygon fill="none" stroke="black" points="532,-101 532,-123 653,-123 653,-101 532,-101"/>
<text text-anchor="start" x="535" y="-109.2" font-family="Helvetica,sans-Serif" font-size="11.00">varchar[2147483647]</text>
<polygon fill="none" stroke="black" points="299,-79 299,-101 532,-101 532,-79 299,-79"/>
<text text-anchor="start" x="319" y="-87.2" font-family="Helvetica,sans-Serif" font-size="11.00">source</text>
<polygon fill="none" stroke="black" points="532,-79 532,-101 653,-101 653,-79 532,-79"/>
<text text-anchor="start" x="535" y="-87.2" font-family="Helvetica,sans-Serif" font-size="11.00">varchar[2147483647]</text>
<polygon fill="none" stroke="black" points="299,-57 299,-79 532,-79 532,-57 299,-57"/>
<text text-anchor="start" x="319" y="-65.2" font-family="Helvetica,sans-Serif" font-size="11.00">description</text>
<polygon fill="none" stroke="black" points="532,-57 532,-79 653,-79 653,-57 532,-57"/>
<text text-anchor="start" x="535" y="-65.2" font-family="Helvetica,sans-Serif" font-size="11.00">varchar[2147483647]</text>
<polygon fill="#ffffff" stroke="none" points="299,-39 299,-57 420,-57 420,-39 299,-39"/>
<polygon fill="none" stroke="black" points="299,-39 299,-57 420,-57 420,-39 299,-39"/>
<text text-anchor="start" x="302" y="-45.2" font-family="Helvetica,sans-Serif" font-size="11.00">&lt; 1</text>
<polygon fill="#ffffff" stroke="none" points="420,-39 420,-57 532,-57 532,-39 420,-39"/>
<polygon fill="none" stroke="black" points="420,-39 420,-57 532,-57 532,-39 420,-39"/>
<text text-anchor="start" x="522" y="-45.2" font-family="Helvetica,sans-Serif" font-size="11.00"> &#160;</text>
<polygon fill="#ffffff" stroke="none" points="532,-39 532,-57 653,-57 653,-39 532,-39"/>
<polygon fill="none" stroke="black" points="532,-39 532,-57 653,-57 653,-39 532,-39"/>
<text text-anchor="start" x="633" y="-45.2" font-family="Helvetica,sans-Serif" font-size="11.00">1 &gt;</text>
<polygon fill="none" stroke="black" stroke-width="2" points="298,-38 298,-212 654,-212 654,-38 298,-38"/>
</a>
</g>
</g>
<!-- chargeback_rate_detail_measures -->
<g id="node2" class="node"><title>chargeback_rate_detail_measures</title>
<g id="a_node2"><a xlink:href="../../tables/chargeback_rate_detail_measures.html" xlink:title="chargeback_rate_detail_measures" target="_top">
<polygon fill="#ffffff" stroke="none" points="8,-149 8,-229 248,-229 248,-149 8,-149"/>
<polygon fill="#f5f5f5" stroke="none" points="8,-207 8,-229 248,-229 248,-207 8,-207"/>
<polygon fill="none" stroke="black" points="8,-207 8,-229 248,-229 248,-207 8,-207"/>
<text text-anchor="start" x="13" y="-216.2" font-family="Helvetica,sans-Serif" font-weight="bold" font-size="11.00">chargeback_rate_detail_measures</text>
<text text-anchor="start" x="209" y="-215.2" font-family="Helvetica,sans-Serif" font-size="11.00">[table]</text>
<polygon fill="none" stroke="black" points="8,-185 8,-207 248,-207 248,-185 8,-185"/>
<image xlink:href="../../images/primaryKeys.png" width="11px" height="12px" preserveAspectRatio="xMinYMin meet" x="13" y="-202"/>
<text text-anchor="start" x="37" y="-193.2" font-family="Helvetica,sans-Serif" font-size="11.00">id</text>
<polygon fill="none" stroke="black" points="8,-167 8,-185 248,-185 248,-167 8,-167"/>
<text text-anchor="start" x="11" y="-173.2" font-family="Helvetica,sans-Serif" font-size="11.00">...</text>
<polygon fill="#ffffff" stroke="none" points="8,-149 8,-167 116,-167 116,-149 8,-149"/>
<polygon fill="none" stroke="black" points="8,-149 8,-167 116,-167 116,-149 8,-149"/>
<text text-anchor="start" x="11" y="-155.2" font-family="Helvetica,sans-Serif" font-size="11.00"> &#160;</text>
<polygon fill="#ffffff" stroke="none" points="116,-149 116,-167 177,-167 177,-149 116,-149"/>
<polygon fill="none" stroke="black" points="116,-149 116,-167 177,-167 177,-149 116,-149"/>
<text text-anchor="start" x="167" y="-155.2" font-family="Helvetica,sans-Serif" font-size="11.00"> &#160;</text>
<polygon fill="#ffffff" stroke="none" points="177,-149 177,-167 248,-167 248,-149 177,-149"/>
<polygon fill="none" stroke="black" points="177,-149 177,-167 248,-167 248,-149 177,-149"/>
<text text-anchor="start" x="228" y="-155.2" font-family="Helvetica,sans-Serif" font-size="11.00">2 &gt;</text>
</a>
</g>
</g>
<!-- chargeable_fields&#45;&gt;chargeback_rate_detail_measures -->
<g id="edge1" class="edge"><title>chargeable_fields:chargeback_rate_detail_measure_id:w&#45;&gt;chargeback_rate_detail_measures:id:e</title>
<path fill="none" stroke="black" d="M284.264,-160.589C271.363,-171.095 271.183,-196 249,-196"/>
<polygon fill="black" stroke="black" points="290.412,-158.535 299.141,-159.415 294.206,-157.267 298,-156 298,-156 298,-156 294.206,-157.267 296.859,-152.585 290.412,-158.535 290.412,-158.535"/>
<ellipse fill="none" stroke="black" cx="287.377" cy="-159.549" rx="3.20001" ry="3.20001"/>
</g>
<!-- chargeback_rate_details -->
<g id="node3" class="node"><title>chargeback_rate_details</title>
<g id="a_node3"><a xlink:href="../../tables/chargeback_rate_details.html" xlink:title="chargeback_rate_details" target="_top">
<polygon fill="#ffffff" stroke="none" points="704,-168 704,-314 937,-314 937,-168 704,-168"/>
<polygon fill="#f5f5f5" stroke="none" points="704.5,-292 704.5,-314 937.5,-314 937.5,-292 704.5,-292"/>
<polygon fill="none" stroke="black" points="704.5,-292 704.5,-314 937.5,-314 937.5,-292 704.5,-292"/>
<text text-anchor="start" x="709.5" y="-301.2" font-family="Helvetica,sans-Serif" font-weight="bold" font-size="11.00">chargeback_rate_details</text>
<text text-anchor="start" x="898.5" y="-300.2" font-family="Helvetica,sans-Serif" font-size="11.00">[table]</text>
<polygon fill="none" stroke="black" points="704.5,-270 704.5,-292 937.5,-292 937.5,-270 704.5,-270"/>
<image xlink:href="../../images/primaryKeys.png" width="11px" height="12px" preserveAspectRatio="xMinYMin meet" x="709.5" y="-287"/>
<text text-anchor="start" x="724.5" y="-278.2" font-family="Helvetica,sans-Serif" font-size="11.00">id</text>
<polygon fill="#ffffff" stroke="none" points="704.5,-248 704.5,-270 937.5,-270 937.5,-248 704.5,-248"/>
<polygon fill="none" stroke="black" points="704.5,-248 704.5,-270 937.5,-270 937.5,-248 704.5,-248"/>
<image xlink:href="../../images/foreignKeys.png" width="11px" height="12px" preserveAspectRatio="xMinYMin meet" x="709.5" y="-265"/>
<text text-anchor="start" x="724.5" y="-256.2" font-family="Helvetica,sans-Serif" font-size="11.00">chargeback_rate_id</text>
<polygon fill="none" stroke="black" points="704.5,-226 704.5,-248 937.5,-248 937.5,-226 704.5,-226"/>
<image xlink:href="../../images/foreignKeys.png" width="11px" height="12px" preserveAspectRatio="xMinYMin meet" x="709.5" y="-243"/>
<text text-anchor="start" x="724.5" y="-234.2" font-family="Helvetica,sans-Serif" font-size="11.00">chargeback_rate_detail_measure_id</text>
<polygon fill="none" stroke="black" points="704.5,-204 704.5,-226 937.5,-226 937.5,-204 704.5,-204"/>
<image xlink:href="../../images/foreignKeys.png" width="11px" height="12px" preserveAspectRatio="xMinYMin meet" x="709.5" y="-221"/>
<text text-anchor="start" x="724.5" y="-212.2" font-family="Helvetica,sans-Serif" font-size="11.00">chargeable_field_id</text>
<polygon fill="none" stroke="black" points="704.5,-186 704.5,-204 937.5,-204 937.5,-186 704.5,-186"/>
<text text-anchor="start" x="707.5" y="-192.2" font-family="Helvetica,sans-Serif" font-size="11.00">...</text>
<polygon fill="#ffffff" stroke="none" points="704.5,-168 704.5,-186 814.5,-186 814.5,-168 704.5,-168"/>
<polygon fill="none" stroke="black" points="704.5,-168 704.5,-186 814.5,-186 814.5,-168 704.5,-168"/>
<text text-anchor="start" x="707.5" y="-174.2" font-family="Helvetica,sans-Serif" font-size="11.00">&lt; 3</text>
<polygon fill="#ffffff" stroke="none" points="814.5,-168 814.5,-186 870.5,-186 870.5,-168 814.5,-168"/>
<polygon fill="none" stroke="black" points="814.5,-168 814.5,-186 870.5,-186 870.5,-168 814.5,-168"/>
<text text-anchor="start" x="860.5" y="-174.2" font-family="Helvetica,sans-Serif" font-size="11.00"> &#160;</text>
<polygon fill="#ffffff" stroke="none" points="870.5,-168 870.5,-186 937.5,-186 937.5,-168 870.5,-168"/>
<polygon fill="none" stroke="black" points="870.5,-168 870.5,-186 937.5,-186 937.5,-168 870.5,-168"/>
<text text-anchor="start" x="917.5" y="-174.2" font-family="Helvetica,sans-Serif" font-size="11.00">1 &gt;</text>
</a>
</g>
</g>
<!-- chargeback_rate_details&#45;&gt;chargeable_fields -->
<g id="edge2" class="edge"><title>chargeback_rate_details:chargeable_field_id:w&#45;&gt;chargeable_fields:id.type:e</title>
<path fill="none" stroke="black" d="M689.509,-210.463C676.836,-200.583 675.458,-178 654,-178"/>
<polygon fill="black" stroke="black" points="695.89,-212.532 702.39,-218.424 699.695,-213.766 703.5,-215 703.5,-215 703.5,-215 699.695,-213.766 704.61,-211.576 695.89,-212.532 695.89,-212.532"/>
<ellipse fill="none" stroke="black" cx="692.846" cy="-211.545" rx="3.20001" ry="3.20001"/>
</g>
<!-- chargeback_rate_details&#45;&gt;chargeback_rate_detail_measures -->
<g id="edge3" class="edge"><title>chargeback_rate_details:chargeback_rate_detail_measure_id:w&#45;&gt;chargeback_rate_detail_measures:id:e</title>
<path fill="none" stroke="black" d="M689.013,-237.108C588.756,-238.463 372.178,-251.66 289,-224 268.408,-217.152 270.701,-196 249,-196"/>
<polygon fill="black" stroke="black" points="695.5,-237.06 703.527,-240.6 699.5,-237.03 703.5,-237 703.5,-237 703.5,-237 699.5,-237.03 703.473,-233.4 695.5,-237.06 695.5,-237.06"/>
<ellipse fill="none" stroke="black" cx="692.3" cy="-237.083" rx="3.2" ry="3.2"/>
</g>
<!-- chargeback_rates -->
<g id="node4" class="node"><title>chargeback_rates</title>
<g id="a_node4"><a xlink:href="../../tables/chargeback_rates.html" xlink:title="chargeback_rates" target="_top">
<polygon fill="#ffffff" stroke="none" points="402,-261 402,-319 550,-319 550,-261 402,-261"/>
<polygon fill="#f5f5f5" stroke="none" points="402,-297 402,-319 550,-319 550,-297 402,-297"/>
<polygon fill="none" stroke="black" points="402,-297 402,-319 550,-319 550,-297 402,-297"/>
<text text-anchor="start" x="407" y="-306.2" font-family="Helvetica,sans-Serif" font-weight="bold" font-size="11.00">chargeback_rates</text>
<text text-anchor="start" x="511" y="-305.2" font-family="Helvetica,sans-Serif" font-size="11.00">[table]</text>
<polygon fill="none" stroke="black" points="402,-279 402,-297 550,-297 550,-279 402,-279"/>
<text text-anchor="start" x="405" y="-285.2" font-family="Helvetica,sans-Serif" font-size="11.00">...</text>
<polygon fill="#ffffff" stroke="none" points="402,-261 402,-279 464,-279 464,-261 402,-261"/>
<polygon fill="none" stroke="black" points="402,-261 402,-279 464,-279 464,-261 402,-261"/>
<text text-anchor="start" x="405" y="-267.2" font-family="Helvetica,sans-Serif" font-size="11.00"> &#160;</text>
<polygon fill="#ffffff" stroke="none" points="464,-261 464,-279 502,-279 502,-261 464,-261"/>
<polygon fill="none" stroke="black" points="464,-261 464,-279 502,-279 502,-261 464,-261"/>
<text text-anchor="start" x="492" y="-267.2" font-family="Helvetica,sans-Serif" font-size="11.00"> &#160;</text>
<polygon fill="#ffffff" stroke="none" points="502,-261 502,-279 550,-279 550,-261 502,-261"/>
<polygon fill="none" stroke="black" points="502,-261 502,-279 550,-279 550,-261 502,-261"/>
<text text-anchor="start" x="530" y="-267.2" font-family="Helvetica,sans-Serif" font-size="11.00">1 &gt;</text>
</a>
</g>
</g>
<!-- chargeback_rate_details&#45;&gt;chargeback_rates -->
<g id="edge4" class="edge"><title>chargeback_rate_details:chargeback_rate_id:w&#45;&gt;chargeback_rates:elipses:e</title>
<path fill="none" stroke="black" d="M688.994,-259.456C632.053,-263.145 614.872,-288 551,-288"/>
<polygon fill="black" stroke="black" points="695.504,-259.251 703.613,-262.598 699.502,-259.126 703.5,-259 703.5,-259 703.5,-259 699.502,-259.126 703.387,-255.402 695.504,-259.251 695.504,-259.251"/>
<ellipse fill="none" stroke="black" cx="692.306" cy="-259.352" rx="3.2" ry="3.2"/>
</g>
<!-- chargeback_tiers -->
<g id="node5" class="node"><title>chargeback_tiers</title>
<g id="a_node5"><a xlink:href="../../tables/chargeback_tiers.html" xlink:title="chargeback_tiers" target="_top">
<polygon fill="#ffffff" stroke="none" points="986,-254 986,-312 1131,-312 1131,-254 986,-254"/>
<polygon fill="#f5f5f5" stroke="none" points="986.5,-290 986.5,-312 1131.5,-312 1131.5,-290 986.5,-290"/>
<polygon fill="none" stroke="black" points="986.5,-290 986.5,-312 1131.5,-312 1131.5,-290 986.5,-290"/>
<text text-anchor="start" x="991.5" y="-299.2" font-family="Helvetica,sans-Serif" font-weight="bold" font-size="11.00">chargeback_tiers</text>
<text text-anchor="start" x="1092.5" y="-298.2" font-family="Helvetica,sans-Serif" font-size="11.00">[table]</text>
<polygon fill="none" stroke="black" points="986.5,-272 986.5,-290 1131.5,-290 1131.5,-272 986.5,-272"/>
<text text-anchor="start" x="989.5" y="-278.2" font-family="Helvetica,sans-Serif" font-size="11.00">...</text>
<polygon fill="#ffffff" stroke="none" points="986.5,-254 986.5,-272 1057.5,-272 1057.5,-254 986.5,-254"/>
<polygon fill="none" stroke="black" points="986.5,-254 986.5,-272 1057.5,-272 1057.5,-254 986.5,-254"/>
<text text-anchor="start" x="989.5" y="-260.2" font-family="Helvetica,sans-Serif" font-size="11.00">&lt; 1</text>
<polygon fill="#ffffff" stroke="none" points="1057.5,-254 1057.5,-272 1094.5,-272 1094.5,-254 1057.5,-254"/>
<polygon fill="none" stroke="black" points="1057.5,-254 1057.5,-272 1094.5,-272 1094.5,-254 1057.5,-254"/>
<text text-anchor="start" x="1084.5" y="-260.2" font-family="Helvetica,sans-Serif" font-size="11.00"> &#160;</text>
<polygon fill="#ffffff" stroke="none" points="1094.5,-254 1094.5,-272 1131.5,-272 1131.5,-254 1094.5,-254"/>
<polygon fill="none" stroke="black" points="1094.5,-254 1094.5,-272 1131.5,-272 1131.5,-254 1094.5,-254"/>
<text text-anchor="start" x="1121.5" y="-260.2" font-family="Helvetica,sans-Serif" font-size="11.00"> &#160;</text>
</a>
</g>
</g>
<!-- chargeback_tiers&#45;&gt;chargeback_rate_details -->
<g id="edge5" class="edge"><title>chargeback_tiers:elipses:w&#45;&gt;chargeback_rate_details:id:e</title>
<path fill="none" stroke="black" d="M970.896,-281C960.434,-281 953.514,-281 938.5,-281"/>
<polygon fill="black" stroke="black" points="977.5,-281 985.5,-284.6 981.5,-281 985.5,-281 985.5,-281 985.5,-281 981.5,-281 985.5,-277.4 977.5,-281 977.5,-281"/>
<ellipse fill="none" stroke="black" cx="974.3" cy="-281" rx="3.2" ry="3.2"/>
</g>
</g>
</svg>
