<?xml version="1.0" encoding="UTF-8" standalone="no"?>
<!DOCTYPE svg PUBLIC "-//W3C//DTD SVG 1.1//EN"
 "http://www.w3.org/Graphics/SVG/1.1/DTD/svg11.dtd">
<!-- Generated by graphviz version 2.38.0 (20140413.2041)
 -->
<!-- Title: oneDegreeRelationshipsDiagram Pages: 1 -->
<svg width="556pt" height="267pt"
 viewBox="0.00 0.00 556.00 267.00" xmlns="http://www.w3.org/2000/svg" xmlns:xlink="http://www.w3.org/1999/xlink">
<g id="graph0" class="graph" transform="scale(1 1) rotate(0) translate(4 263)">
<title>oneDegreeRelationshipsDiagram</title>
<polygon fill="#ffffff" stroke="none" points="-4,4 -4,-263 552,-263 552,4 -4,4"/>
<text text-anchor="middle" x="74.5" y="-7.2" font-family="Helvetica,sans-Serif" font-size="11.00">Generated by SchemaSpy</text>
<!-- chargeback_rate_details -->
<g id="node1" class="node"><title>chargeback_rate_details</title>
<g id="a_node1"><a xlink:href="../../tables/chargeback_rate_details.html" xlink:title="chargeback_rate_details" target="_top">
<polygon fill="#ffffff" stroke="none" points="307,-109 307,-255 540,-255 540,-109 307,-109"/>
<polygon fill="#f5f5f5" stroke="none" points="307.5,-233 307.5,-255 540.5,-255 540.5,-233 307.5,-233"/>
<polygon fill="none" stroke="black" points="307.5,-233 307.5,-255 540.5,-255 540.5,-233 307.5,-233"/>
<text text-anchor="start" x="312.5" y="-242.2" font-family="Helvetica,sans-Serif" font-weight="bold" font-size="11.00">chargeback_rate_details</text>
<text text-anchor="start" x="501.5" y="-241.2" font-family="Helvetica,sans-Serif" font-size="11.00">[table]</text>
<polygon fill="none" stroke="black" points="307.5,-211 307.5,-233 540.5,-233 540.5,-211 307.5,-211"/>
<image xlink:href="../../images/primaryKeys.png" width="11px" height="12px" preserveAspectRatio="xMinYMin meet" x="312.5" y="-228"/>
<text text-anchor="start" x="327.5" y="-219.2" font-family="Helvetica,sans-Serif" font-size="11.00">id</text>
<polygon fill="#ffffff" stroke="none" points="307.5,-189 307.5,-211 540.5,-211 540.5,-189 307.5,-189"/>
<polygon fill="none" stroke="black" points="307.5,-189 307.5,-211 540.5,-211 540.5,-189 307.5,-189"/>
<image xlink:href="../../images/foreignKeys.png" width="11px" height="12px" preserveAspectRatio="xMinYMin meet" x="312.5" y="-206"/>
<text text-anchor="start" x="327.5" y="-197.2" font-family="Helvetica,sans-Serif" font-size="11.00">chargeback_rate_id</text>
<polygon fill="none" stroke="black" points="307.5,-167 307.5,-189 540.5,-189 540.5,-167 307.5,-167"/>
<image xlink:href="../../images/foreignKeys.png" width="11px" height="12px" preserveAspectRatio="xMinYMin meet" x="312.5" y="-184"/>
<text text-anchor="start" x="327.5" y="-175.2" font-family="Helvetica,sans-Serif" font-size="11.00">chargeback_rate_detail_measure_id</text>
<polygon fill="none" stroke="black" points="307.5,-145 307.5,-167 540.5,-167 540.5,-145 307.5,-145"/>
<image xlink:href="../../images/foreignKeys.png" width="11px" height="12px" preserveAspectRatio="xMinYMin meet" x="312.5" y="-162"/>
<text text-anchor="start" x="327.5" y="-153.2" font-family="Helvetica,sans-Serif" font-size="11.00">chargeable_field_id</text>
<polygon fill="none" stroke="black" points="307.5,-127 307.5,-145 540.5,-145 540.5,-127 307.5,-127"/>
<text text-anchor="start" x="310.5" y="-133.2" font-family="Helvetica,sans-Serif" font-size="11.00">...</text>
<polygon fill="#ffffff" stroke="none" points="307.5,-109 307.5,-127 417.5,-127 417.5,-109 307.5,-109"/>
<polygon fill="none" stroke="black" points="307.5,-109 307.5,-127 417.5,-127 417.5,-109 307.5,-109"/>
<text text-anchor="start" x="310.5" y="-115.2" font-family="Helvetica,sans-Serif" font-size="11.00">&lt; 3</text>
<polygon fill="#ffffff" stroke="none" points="417.5,-109 417.5,-127 473.5,-127 473.5,-109 417.5,-109"/>
<polygon fill="none" stroke="black" points="417.5,-109 417.5,-127 473.5,-127 473.5,-109 417.5,-109"/>
<text text-anchor="start" x="463.5" y="-115.2" font-family="Helvetica,sans-Serif" font-size="11.00"> &#160;</text>
<polygon fill="#ffffff" stroke="none" points="473.5,-109 473.5,-127 540.5,-127 540.5,-109 473.5,-109"/>
<polygon fill="none" stroke="black" points="473.5,-109 473.5,-127 540.5,-127 540.5,-109 473.5,-109"/>
<text text-anchor="start" x="520.5" y="-115.2" font-family="Helvetica,sans-Serif" font-size="11.00">1 &gt;</text>
</a>
</g>
</g>
<!-- chargeback_rates -->
<g id="node2" class="node"><title>chargeback_rates</title>
<g id="a_node2"><a xlink:href="../../tables/chargeback_rates.html" xlink:title="chargeback_rates" target="_top">
<polygon fill="#ffffff" stroke="none" points="8,-37 8,-235 258,-235 258,-37 8,-37"/>
<polygon fill="#f5f5f5" stroke="none" points="10,-211 10,-233 256,-233 256,-211 10,-211"/>
<polygon fill="none" stroke="black" points="10,-211 10,-233 256,-233 256,-211 10,-211"/>
<text text-anchor="start" x="15" y="-220.2" font-family="Helvetica,sans-Serif" font-weight="bold" font-size="11.00">chargeback_rates</text>
<text text-anchor="start" x="217" y="-219.2" font-family="Helvetica,sans-Serif" font-size="11.00">[table]</text>
<polygon fill="none" stroke="black" points="10,-189 10,-211 135,-211 135,-189 10,-189"/>
<image xlink:href="../../images/primaryKeys.png" width="11px" height="12px" preserveAspectRatio="xMinYMin meet" x="15" y="-206"/>
<text text-anchor="start" x="30" y="-197.2" font-family="Helvetica,sans-Serif" font-size="11.00">id</text>
<polygon fill="none" stroke="black" points="135,-189 135,-211 256,-211 256,-189 135,-189"/>
<text text-anchor="start" x="138" y="-197.2" font-family="Helvetica,sans-Serif" font-size="11.00">bigserial[19]</text>
<polygon fill="none" stroke="black" points="10,-167 10,-189 135,-189 135,-167 10,-167"/>
<text text-anchor="start" x="30" y="-175.2" font-family="Helvetica,sans-Serif" font-size="11.00">guid</text>
<polygon fill="none" stroke="black" points="135,-167 135,-189 256,-189 256,-167 135,-167"/>
<text text-anchor="start" x="138" y="-175.2" font-family="Helvetica,sans-Serif" font-size="11.00">varchar[2147483647]</text>
<polygon fill="none" stroke="black" points="10,-145 10,-167 135,-167 135,-145 10,-145"/>
<text text-anchor="start" x="30" y="-153.2" font-family="Helvetica,sans-Serif" font-size="11.00">description</text>
<polygon fill="none" stroke="black" points="135,-145 135,-167 256,-167 256,-145 135,-145"/>
<text text-anchor="start" x="138" y="-153.2" font-family="Helvetica,sans-Serif" font-size="11.00">varchar[2147483647]</text>
<polygon fill="none" stroke="black" points="10,-123 10,-145 135,-145 135,-123 10,-123"/>
<text text-anchor="start" x="30" y="-131.2" font-family="Helvetica,sans-Serif" font-size="11.00">rate_type</text>
<polygon fill="none" stroke="black" points="135,-123 135,-145 256,-145 256,-123 135,-123"/>
<text text-anchor="start" x="138" y="-131.2" font-family="Helvetica,sans-Serif" font-size="11.00">varchar[2147483647]</text>
<polygon fill="none" stroke="black" points="10,-101 10,-123 135,-123 135,-101 10,-101"/>
<text text-anchor="start" x="30" y="-109.2" font-family="Helvetica,sans-Serif" font-size="11.00">created_on</text>
<polygon fill="none" stroke="black" points="135,-101 135,-123 256,-123 256,-101 135,-101"/>
<text text-anchor="start" x="138" y="-109.2" font-family="Helvetica,sans-Serif" font-size="11.00">timestamp[29,6]</text>
<polygon fill="none" stroke="black" points="10,-79 10,-101 135,-101 135,-79 10,-79"/>
<text text-anchor="start" x="30" y="-87.2" font-family="Helvetica,sans-Serif" font-size="11.00">updated_on</text>
<polygon fill="none" stroke="black" points="135,-79 135,-101 256,-101 256,-79 135,-79"/>
<text text-anchor="start" x="138" y="-87.2" font-family="Helvetica,sans-Serif" font-size="11.00">timestamp[29,6]</text>
<polygon fill="none" stroke="black" points="10,-57 10,-79 135,-79 135,-57 10,-57"/>
<text text-anchor="start" x="30" y="-65.2" font-family="Helvetica,sans-Serif" font-size="11.00">default</text>
<polygon fill="none" stroke="black" points="135,-57 135,-79 256,-79 256,-57 135,-57"/>
<text text-anchor="start" x="138" y="-65.2" font-family="Helvetica,sans-Serif" font-size="11.00">bool[1]</text>
<polygon fill="#ffffff" stroke="none" points="10,-39 10,-57 77,-57 77,-39 10,-39"/>
<polygon fill="none" stroke="black" points="10,-39 10,-57 77,-57 77,-39 10,-39"/>
<text text-anchor="start" x="13" y="-45.2" font-family="Helvetica,sans-Serif" font-size="11.00">&lt; 0</text>
<polygon fill="#ffffff" stroke="none" points="77,-39 77,-57 135,-57 135,-39 77,-39"/>
<polygon fill="none" stroke="black" points="77,-39 77,-57 135,-57 135,-39 77,-39"/>
<text text-anchor="start" x="125" y="-45.2" font-family="Helvetica,sans-Serif" font-size="11.00"> &#160;</text>
<polygon fill="#ffffff" stroke="none" points="135,-39 135,-57 256,-57 256,-39 135,-39"/>
<polygon fill="none" stroke="black" points="135,-39 135,-57 256,-57 256,-39 135,-39"/>
<text text-anchor="start" x="236" y="-45.2" font-family="Helvetica,sans-Serif" font-size="11.00">1 &gt;</text>
<polygon fill="none" stroke="black" stroke-width="2" points="9,-38 9,-234 257,-234 257,-38 9,-38"/>
</a>
</g>
</g>
<!-- chargeback_rate_details&#45;&gt;chargeback_rates -->
<g id="edge1" class="edge"><title>chargeback_rate_details:chargeback_rate_id:w&#45;&gt;chargeback_rates:id.type:e</title>
<path fill="none" stroke="black" d="M291.843,-200C280.414,-200 273.156,-200 257,-200"/>
<polygon fill="black" stroke="black" points="298.5,-200 306.5,-203.6 302.5,-200 306.5,-200 306.5,-200 306.5,-200 302.5,-200 306.5,-196.4 298.5,-200 298.5,-200"/>
<ellipse fill="none" stroke="black" cx="295.3" cy="-200" rx="3.2" ry="3.2"/>
</g>
</g>
</svg>
