<?xml version="1.0" encoding="UTF-8" standalone="no"?>
<!DOCTYPE svg PUBLIC "-//W3C//DTD SVG 1.1//EN"
 "http://www.w3.org/Graphics/SVG/1.1/DTD/svg11.dtd">
<!-- Generated by graphviz version 2.38.0 (20140413.2041)
 -->
<!-- Title: oneDegreeRelationshipsDiagram Pages: 1 -->
<svg width="935pt" height="310pt"
 viewBox="0.00 0.00 935.00 310.00" xmlns="http://www.w3.org/2000/svg" xmlns:xlink="http://www.w3.org/1999/xlink">
<g id="graph0" class="graph" transform="scale(1 1) rotate(0) translate(4 306)">
<title>oneDegreeRelationshipsDiagram</title>
<polygon fill="#ffffff" stroke="none" points="-4,4 -4,-306 931,-306 931,4 -4,4"/>
<text text-anchor="middle" x="74.5" y="-7.2" font-family="Helvetica,sans-Serif" font-size="11.00">Generated by SchemaSpy</text>
<!-- chargeable_fields -->
<g id="node1" class="node"><title>chargeable_fields</title>
<g id="a_node1"><a xlink:href="../../tables/chargeable_fields.html" xlink:title="chargeable_fields" target="_top">
<polygon fill="#ffffff" stroke="none" points="404,-113 404,-215 637,-215 637,-113 404,-113"/>
<polygon fill="#f5f5f5" stroke="none" points="404.5,-193 404.5,-215 637.5,-215 637.5,-193 404.5,-193"/>
<polygon fill="none" stroke="black" points="404.5,-193 404.5,-215 637.5,-215 637.5,-193 404.5,-193"/>
<text text-anchor="start" x="409.5" y="-202.2" font-family="Helvetica,sans-Serif" font-weight="bold" font-size="11.00">chargeable_fields</text>
<text text-anchor="start" x="598.5" y="-201.2" font-family="Helvetica,sans-Serif" font-size="11.00">[table]</text>
<polygon fill="none" stroke="black" points="404.5,-171 404.5,-193 637.5,-193 637.5,-171 404.5,-171"/>
<image xlink:href="../../images/primaryKeys.png" width="11px" height="12px" preserveAspectRatio="xMinYMin meet" x="409.5" y="-188"/>
<text text-anchor="start" x="424.5" y="-179.2" font-family="Helvetica,sans-Serif" font-size="11.00">id</text>
<polygon fill="none" stroke="black" points="404.5,-149 404.5,-171 637.5,-171 637.5,-149 404.5,-149"/>
<image xlink:href="../../images/foreignKeys.png" width="11px" height="12px" preserveAspectRatio="xMinYMin meet" x="409.5" y="-166"/>
<text text-anchor="start" x="424.5" y="-157.2" font-family="Helvetica,sans-Serif" font-size="11.00">chargeback_rate_detail_measure_id</text>
<polygon fill="none" stroke="black" points="404.5,-131 404.5,-149 637.5,-149 637.5,-131 404.5,-131"/>
<text text-anchor="start" x="407.5" y="-137.2" font-family="Helvetica,sans-Serif" font-size="11.00">...</text>
<polygon fill="#ffffff" stroke="none" points="404.5,-113 404.5,-131 514.5,-131 514.5,-113 404.5,-113"/>
<polygon fill="none" stroke="black" points="404.5,-113 404.5,-131 514.5,-131 514.5,-113 404.5,-113"/>
<text text-anchor="start" x="407.5" y="-119.2" font-family="Helvetica,sans-Serif" font-size="11.00">&lt; 1</text>
<polygon fill="#ffffff" stroke="none" points="514.5,-113 514.5,-131 570.5,-131 570.5,-113 514.5,-113"/>
<polygon fill="none" stroke="black" points="514.5,-113 514.5,-131 570.5,-131 570.5,-113 514.5,-113"/>
<text text-anchor="start" x="560.5" y="-119.2" font-family="Helvetica,sans-Serif" font-size="11.00"> &#160;</text>
<polygon fill="#ffffff" stroke="none" points="570.5,-113 570.5,-131 637.5,-131 637.5,-113 570.5,-113"/>
<polygon fill="none" stroke="black" points="570.5,-113 570.5,-131 637.5,-131 637.5,-113 570.5,-113"/>
<text text-anchor="start" x="617.5" y="-119.2" font-family="Helvetica,sans-Serif" font-size="11.00">1 &gt;</text>
</a>
</g>
</g>
<!-- chargeback_rate_detail_measures -->
<g id="node2" class="node"><title>chargeback_rate_detail_measures</title>
<g id="a_node2"><a xlink:href="../../tables/chargeback_rate_detail_measures.html" xlink:title="chargeback_rate_detail_measures" target="_top">
<polygon fill="#ffffff" stroke="none" points="8,-37 8,-235 355,-235 355,-37 8,-37"/>
<polygon fill="#f5f5f5" stroke="none" points="10.5,-211 10.5,-233 353.5,-233 353.5,-211 10.5,-211"/>
<polygon fill="none" stroke="black" points="10.5,-211 10.5,-233 353.5,-233 353.5,-211 10.5,-211"/>
<text text-anchor="start" x="15.5" y="-220.2" font-family="Helvetica,sans-Serif" font-weight="bold" font-size="11.00">chargeback_rate_detail_measures</text>
<text text-anchor="start" x="314.5" y="-219.2" font-family="Helvetica,sans-Serif" font-size="11.00">[table]</text>
<polygon fill="none" stroke="black" points="10.5,-189 10.5,-211 232.5,-211 232.5,-189 10.5,-189"/>
<image xlink:href="../../images/primaryKeys.png" width="11px" height="12px" preserveAspectRatio="xMinYMin meet" x="15.5" y="-206"/>
<text text-anchor="start" x="30.5" y="-197.2" font-family="Helvetica,sans-Serif" font-size="11.00">id</text>
<polygon fill="none" stroke="black" points="232.5,-189 232.5,-211 353.5,-211 353.5,-189 232.5,-189"/>
<text text-anchor="start" x="235.5" y="-197.2" font-family="Helvetica,sans-Serif" font-size="11.00">bigserial[19]</text>
<polygon fill="none" stroke="black" points="10.5,-167 10.5,-189 232.5,-189 232.5,-167 10.5,-167"/>
<text text-anchor="start" x="30.5" y="-175.2" font-family="Helvetica,sans-Serif" font-size="11.00">name</text>
<polygon fill="none" stroke="black" points="232.5,-167 232.5,-189 353.5,-189 353.5,-167 232.5,-167"/>
<text text-anchor="start" x="235.5" y="-175.2" font-family="Helvetica,sans-Serif" font-size="11.00">varchar[2147483647]</text>
<polygon fill="none" stroke="black" points="10.5,-145 10.5,-167 232.5,-167 232.5,-145 10.5,-145"/>
<text text-anchor="start" x="30.5" y="-153.2" font-family="Helvetica,sans-Serif" font-size="11.00">units</text>
<polygon fill="none" stroke="black" points="232.5,-145 232.5,-167 353.5,-167 353.5,-145 232.5,-145"/>
<text text-anchor="start" x="235.5" y="-153.2" font-family="Helvetica,sans-Serif" font-size="11.00">varchar[2147483647]</text>
<polygon fill="none" stroke="black" points="10.5,-123 10.5,-145 232.5,-145 232.5,-123 10.5,-123"/>
<text text-anchor="start" x="30.5" y="-131.2" font-family="Helvetica,sans-Serif" font-size="11.00">units_display</text>
<polygon fill="none" stroke="black" points="232.5,-123 232.5,-145 353.5,-145 353.5,-123 232.5,-123"/>
<text text-anchor="start" x="235.5" y="-131.2" font-family="Helvetica,sans-Serif" font-size="11.00">varchar[2147483647]</text>
<polygon fill="none" stroke="black" points="10.5,-101 10.5,-123 232.5,-123 232.5,-101 10.5,-101"/>
<text text-anchor="start" x="30.5" y="-109.2" font-family="Helvetica,sans-Serif" font-size="11.00">step</text>
<polygon fill="none" stroke="black" points="232.5,-101 232.5,-123 353.5,-123 353.5,-101 232.5,-101"/>
<text text-anchor="start" x="235.5" y="-109.2" font-family="Helvetica,sans-Serif" font-size="11.00">int4[10]</text>
<polygon fill="none" stroke="black" points="10.5,-79 10.5,-101 232.5,-101 232.5,-79 10.5,-79"/>
<text text-anchor="start" x="30.5" y="-87.2" font-family="Helvetica,sans-Serif" font-size="11.00">created_at</text>
<polygon fill="none" stroke="black" points="232.5,-79 232.5,-101 353.5,-101 353.5,-79 232.5,-79"/>
<text text-anchor="start" x="235.5" y="-87.2" font-family="Helvetica,sans-Serif" font-size="11.00">timestamp[29,6]</text>
<polygon fill="none" stroke="black" points="10.5,-57 10.5,-79 232.5,-79 232.5,-57 10.5,-57"/>
<text text-anchor="start" x="30.5" y="-65.2" font-family="Helvetica,sans-Serif" font-size="11.00">updated_at</text>
<polygon fill="none" stroke="black" points="232.5,-57 232.5,-79 353.5,-79 353.5,-57 232.5,-57"/>
<text text-anchor="start" x="235.5" y="-65.2" font-family="Helvetica,sans-Serif" font-size="11.00">timestamp[29,6]</text>
<polygon fill="#ffffff" stroke="none" points="10.5,-39 10.5,-57 126.5,-57 126.5,-39 10.5,-39"/>
<polygon fill="none" stroke="black" points="10.5,-39 10.5,-57 126.5,-57 126.5,-39 10.5,-39"/>
<text text-anchor="start" x="13.5" y="-45.2" font-family="Helvetica,sans-Serif" font-size="11.00">&lt; 0</text>
<polygon fill="#ffffff" stroke="none" points="126.5,-39 126.5,-57 232.5,-57 232.5,-39 126.5,-39"/>
<polygon fill="none" stroke="black" points="126.5,-39 126.5,-57 232.5,-57 232.5,-39 126.5,-39"/>
<text text-anchor="start" x="222.5" y="-45.2" font-family="Helvetica,sans-Serif" font-size="11.00"> &#160;</text>
<polygon fill="#ffffff" stroke="none" points="232.5,-39 232.5,-57 353.5,-57 353.5,-39 232.5,-39"/>
<polygon fill="none" stroke="black" points="232.5,-39 232.5,-57 353.5,-57 353.5,-39 232.5,-39"/>
<text text-anchor="start" x="333.5" y="-45.2" font-family="Helvetica,sans-Serif" font-size="11.00">2 &gt;</text>
<polygon fill="none" stroke="black" stroke-width="2" points="9,-38 9,-234 354,-234 354,-38 9,-38"/>
</a>
</g>
</g>
<!-- chargeable_fields&#45;&gt;chargeback_rate_detail_measures -->
<g id="edge1" class="edge"><title>chargeable_fields:chargeback_rate_detail_measure_id:w&#45;&gt;chargeback_rate_detail_measures:id.type:e</title>
<path fill="none" stroke="black" d="M389.764,-164.589C376.863,-175.095 376.683,-200 354.5,-200"/>
<polygon fill="black" stroke="black" points="395.912,-162.535 404.641,-163.415 399.706,-161.267 403.5,-160 403.5,-160 403.5,-160 399.706,-161.267 402.359,-156.585 395.912,-162.535 395.912,-162.535"/>
<ellipse fill="none" stroke="black" cx="392.877" cy="-163.549" rx="3.20001" ry="3.20001"/>
</g>
<!-- chargeback_rate_details -->
<g id="node3" class="node"><title>chargeback_rate_details</title>
<g id="a_node3"><a xlink:href="../../tables/chargeback_rate_details.html" xlink:title="chargeback_rate_details" target="_top">
<polygon fill="#ffffff" stroke="none" points="686,-152 686,-298 919,-298 919,-152 686,-152"/>
<polygon fill="#f5f5f5" stroke="none" points="686.5,-276 686.5,-298 919.5,-298 919.5,-276 686.5,-276"/>
<polygon fill="none" stroke="black" points="686.5,-276 686.5,-298 919.5,-298 919.5,-276 686.5,-276"/>
<text text-anchor="start" x="691.5" y="-285.2" font-family="Helvetica,sans-Serif" font-weight="bold" font-size="11.00">chargeback_rate_details</text>
<text text-anchor="start" x="880.5" y="-284.2" font-family="Helvetica,sans-Serif" font-size="11.00">[table]</text>
<polygon fill="none" stroke="black" points="686.5,-254 686.5,-276 919.5,-276 919.5,-254 686.5,-254"/>
<image xlink:href="../../images/primaryKeys.png" width="11px" height="12px" preserveAspectRatio="xMinYMin meet" x="691.5" y="-271"/>
<text text-anchor="start" x="706.5" y="-262.2" font-family="Helvetica,sans-Serif" font-size="11.00">id</text>
<polygon fill="#ffffff" stroke="none" points="686.5,-232 686.5,-254 919.5,-254 919.5,-232 686.5,-232"/>
<polygon fill="none" stroke="black" points="686.5,-232 686.5,-254 919.5,-254 919.5,-232 686.5,-232"/>
<image xlink:href="../../images/foreignKeys.png" width="11px" height="12px" preserveAspectRatio="xMinYMin meet" x="691.5" y="-249"/>
<text text-anchor="start" x="706.5" y="-240.2" font-family="Helvetica,sans-Serif" font-size="11.00">chargeback_rate_id</text>
<polygon fill="none" stroke="black" points="686.5,-210 686.5,-232 919.5,-232 919.5,-210 686.5,-210"/>
<image xlink:href="../../images/foreignKeys.png" width="11px" height="12px" preserveAspectRatio="xMinYMin meet" x="691.5" y="-227"/>
<text text-anchor="start" x="706.5" y="-218.2" font-family="Helvetica,sans-Serif" font-size="11.00">chargeback_rate_detail_measure_id</text>
<polygon fill="none" stroke="black" points="686.5,-188 686.5,-210 919.5,-210 919.5,-188 686.5,-188"/>
<image xlink:href="../../images/foreignKeys.png" width="11px" height="12px" preserveAspectRatio="xMinYMin meet" x="691.5" y="-205"/>
<text text-anchor="start" x="706.5" y="-196.2" font-family="Helvetica,sans-Serif" font-size="11.00">chargeable_field_id</text>
<polygon fill="none" stroke="black" points="686.5,-170 686.5,-188 919.5,-188 919.5,-170 686.5,-170"/>
<text text-anchor="start" x="689.5" y="-176.2" font-family="Helvetica,sans-Serif" font-size="11.00">...</text>
<polygon fill="#ffffff" stroke="none" points="686.5,-152 686.5,-170 796.5,-170 796.5,-152 686.5,-152"/>
<polygon fill="none" stroke="black" points="686.5,-152 686.5,-170 796.5,-170 796.5,-152 686.5,-152"/>
<text text-anchor="start" x="689.5" y="-158.2" font-family="Helvetica,sans-Serif" font-size="11.00">&lt; 3</text>
<polygon fill="#ffffff" stroke="none" points="796.5,-152 796.5,-170 852.5,-170 852.5,-152 796.5,-152"/>
<polygon fill="none" stroke="black" points="796.5,-152 796.5,-170 852.5,-170 852.5,-152 796.5,-152"/>
<text text-anchor="start" x="842.5" y="-158.2" font-family="Helvetica,sans-Serif" font-size="11.00"> &#160;</text>
<polygon fill="#ffffff" stroke="none" points="852.5,-152 852.5,-170 919.5,-170 919.5,-152 852.5,-152"/>
<polygon fill="none" stroke="black" points="852.5,-152 852.5,-170 919.5,-170 919.5,-152 852.5,-152"/>
<text text-anchor="start" x="899.5" y="-158.2" font-family="Helvetica,sans-Serif" font-size="11.00">1 &gt;</text>
</a>
</g>
</g>
<!-- chargeback_rate_details&#45;&gt;chargeable_fields -->
<g id="edge2" class="edge"><title>chargeback_rate_details:chargeable_field_id:w&#45;&gt;chargeable_fields:id:e</title>
<path fill="none" stroke="black" d="M671.22,-196.039C660.534,-191.168 654.813,-182 638.5,-182"/>
<polygon fill="black" stroke="black" points="677.667,-197.376 684.769,-202.525 681.583,-198.188 685.5,-199 685.5,-199 685.5,-199 681.583,-198.188 686.231,-195.475 677.667,-197.376 677.667,-197.376"/>
<ellipse fill="none" stroke="black" cx="674.533" cy="-196.726" rx="3.2" ry="3.2"/>
</g>
<!-- chargeback_rate_details&#45;&gt;chargeback_rate_detail_measures -->
<g id="edge3" class="edge"><title>chargeback_rate_details:chargeback_rate_detail_measure_id:w&#45;&gt;chargeback_rate_detail_measures:id.type:e</title>
<path fill="none" stroke="black" d="M670.869,-222.063C662.938,-223.298 657.021,-225.261 645,-226 534.542,-232.793 502.362,-256.566 396,-226 375.081,-219.988 376.265,-200 354.5,-200"/>
<polygon fill="black" stroke="black" points="677.521,-221.58 685.761,-224.591 681.511,-221.29 685.5,-221 685.5,-221 685.5,-221 681.511,-221.29 685.239,-217.409 677.521,-221.58 677.521,-221.58"/>
<ellipse fill="none" stroke="black" cx="674.329" cy="-221.812" rx="3.2" ry="3.2"/>
</g>
</g>
</svg>
