<?xml version="1.0" encoding="UTF-8" standalone="no"?>
<!DOCTYPE svg PUBLIC "-//W3C//DTD SVG 1.1//EN"
 "http://www.w3.org/Graphics/SVG/1.1/DTD/svg11.dtd">
<!-- Generated by graphviz version 2.38.0 (20140413.2041)
 -->
<!-- Title: oneDegreeRelationshipsDiagram Pages: 1 -->
<svg width="953pt" height="307pt"
 viewBox="0.00 0.00 953.00 307.00" xmlns="http://www.w3.org/2000/svg" xmlns:xlink="http://www.w3.org/1999/xlink">
<g id="graph0" class="graph" transform="scale(1 1) rotate(0) translate(4 303)">
<title>oneDegreeRelationshipsDiagram</title>
<polygon fill="#ffffff" stroke="none" points="-4,4 -4,-303 949,-303 949,4 -4,4"/>
<text text-anchor="middle" x="74.5" y="-7.2" font-family="Helvetica,sans-Serif" font-size="11.00">Generated by SchemaSpy</text>
<!-- chargeable_fields -->
<g id="node1" class="node"><title>chargeable_fields</title>
<g id="a_node1"><a xlink:href="../../tables/chargeable_fields.html" xlink:title="chargeable_fields" target="_top">
<polygon fill="#ffffff" stroke="none" points="297,-37 297,-213 655,-213 655,-37 297,-37"/>
<polygon fill="#f5f5f5" stroke="none" points="299,-189 299,-211 653,-211 653,-189 299,-189"/>
<polygon fill="none" stroke="black" points="299,-189 299,-211 653,-211 653,-189 299,-189"/>
<text text-anchor="start" x="304" y="-198.2" font-family="Helvetica,sans-Serif" font-weight="bold" font-size="11.00">chargeable_fields</text>
<text text-anchor="start" x="614" y="-197.2" font-family="Helvetica,sans-Serif" font-size="11.00">[table]</text>
<polygon fill="none" stroke="black" points="299,-167 299,-189 532,-189 532,-167 299,-167"/>
<image xlink:href="../../images/primaryKeys.png" width="11px" height="12px" preserveAspectRatio="xMinYMin meet" x="304" y="-184"/>
<text text-anchor="start" x="319" y="-175.2" font-family="Helvetica,sans-Serif" font-size="11.00">id</text>
<polygon fill="none" stroke="black" points="532,-167 532,-189 653,-189 653,-167 532,-167"/>
<text text-anchor="start" x="535" y="-175.2" font-family="Helvetica,sans-Serif" font-size="11.00">bigserial[19]</text>
<polygon fill="none" stroke="black" points="299,-145 299,-167 532,-167 532,-145 299,-145"/>
<image xlink:href="../../images/foreignKeys.png" width="11px" height="12px" preserveAspectRatio="xMinYMin meet" x="304" y="-162"/>
<text text-anchor="start" x="319" y="-153.2" font-family="Helvetica,sans-Serif" font-size="11.00">chargeback_rate_detail_measure_id</text>
<polygon fill="none" stroke="black" points="532,-145 532,-167 653,-167 653,-145 532,-145"/>
<text text-anchor="start" x="535" y="-153.2" font-family="Helvetica,sans-Serif" font-size="11.00">int8[19]</text>
<polygon fill="none" stroke="black" points="299,-123 299,-145 532,-145 532,-123 299,-123"/>
<text text-anchor="start" x="319" y="-131.2" font-family="Helvetica,sans-Serif" font-size="11.00">metric</text>
<polygon fill="none" stroke="black" points="532,-123 532,-145 653,-145 653,-123 532,-123"/>
<text text-anchor="start" x="535" y="-131.2" font-family="Helvetica,sans-Serif" font-size="11.00">varchar[2147483647]</text>
<polygon fill="none" stroke="black" points="299,-101 299,-123 532,-123 532,-101 299,-101"/>
<text text-anchor="start" x="319" y="-109.2" font-family="Helvetica,sans-Serif" font-size="11.00">group</text>
<polygon fill="none" stroke="black" points="532,-101 532,-123 653,-123 653,-101 532,-101"/>
<text text-anchor="start" x="535" y="-109.2" font-family="Helvetica,sans-Serif" font-size="11.00">varchar[2147483647]</text>
<polygon fill="none" stroke="black" points="299,-79 299,-101 532,-101 532,-79 299,-79"/>
<text text-anchor="start" x="319" y="-87.2" font-family="Helvetica,sans-Serif" font-size="11.00">source</text>
<polygon fill="none" stroke="black" points="532,-79 532,-101 653,-101 653,-79 532,-79"/>
<text text-anchor="start" x="535" y="-87.2" font-family="Helvetica,sans-Serif" font-size="11.00">varchar[2147483647]</text>
<polygon fill="none" stroke="black" points="299,-57 299,-79 532,-79 532,-57 299,-57"/>
<text text-anchor="start" x="319" y="-65.2" font-family="Helvetica,sans-Serif" font-size="11.00">description</text>
<polygon fill="none" stroke="black" points="532,-57 532,-79 653,-79 653,-57 532,-57"/>
<text text-anchor="start" x="535" y="-65.2" font-family="Helvetica,sans-Serif" font-size="11.00">varchar[2147483647]</text>
<polygon fill="#ffffff" stroke="none" points="299,-39 299,-57 420,-57 420,-39 299,-39"/>
<polygon fill="none" stroke="black" points="299,-39 299,-57 420,-57 420,-39 299,-39"/>
<text text-anchor="start" x="302" y="-45.2" font-family="Helvetica,sans-Serif" font-size="11.00">&lt; 1</text>
<polygon fill="#ffffff" stroke="none" points="420,-39 420,-57 532,-57 532,-39 420,-39"/>
<polygon fill="none" stroke="black" points="420,-39 420,-57 532,-57 532,-39 420,-39"/>
<text text-anchor="start" x="522" y="-45.2" font-family="Helvetica,sans-Serif" font-size="11.00"> &#160;</text>
<polygon fill="#ffffff" stroke="none" points="532,-39 532,-57 653,-57 653,-39 532,-39"/>
<polygon fill="none" stroke="black" points="532,-39 532,-57 653,-57 653,-39 532,-39"/>
<text text-anchor="start" x="633" y="-45.2" font-family="Helvetica,sans-Serif" font-size="11.00">1 &gt;</text>
<polygon fill="none" stroke="black" stroke-width="2" points="298,-38 298,-212 654,-212 654,-38 298,-38"/>
</a>
</g>
</g>
<!-- chargeback_rate_detail_measures -->
<g id="node2" class="node"><title>chargeback_rate_detail_measures</title>
<g id="a_node2"><a xlink:href="../../tables/chargeback_rate_detail_measures.html" xlink:title="chargeback_rate_detail_measures" target="_top">
<polygon fill="#ffffff" stroke="none" points="8,-149 8,-229 248,-229 248,-149 8,-149"/>
<polygon fill="#f5f5f5" stroke="none" points="8,-207 8,-229 248,-229 248,-207 8,-207"/>
<polygon fill="none" stroke="black" points="8,-207 8,-229 248,-229 248,-207 8,-207"/>
<text text-anchor="start" x="13" y="-216.2" font-family="Helvetica,sans-Serif" font-weight="bold" font-size="11.00">chargeback_rate_detail_measures</text>
<text text-anchor="start" x="209" y="-215.2" font-family="Helvetica,sans-Serif" font-size="11.00">[table]</text>
<polygon fill="none" stroke="black" points="8,-185 8,-207 248,-207 248,-185 8,-185"/>
<image xlink:href="../../images/primaryKeys.png" width="11px" height="12px" preserveAspectRatio="xMinYMin meet" x="13" y="-202"/>
<text text-anchor="start" x="37" y="-193.2" font-family="Helvetica,sans-Serif" font-size="11.00">id</text>
<polygon fill="none" stroke="black" points="8,-167 8,-185 248,-185 248,-167 8,-167"/>
<text text-anchor="start" x="11" y="-173.2" font-family="Helvetica,sans-Serif" font-size="11.00">...</text>
<polygon fill="#ffffff" stroke="none" points="8,-149 8,-167 116,-167 116,-149 8,-149"/>
<polygon fill="none" stroke="black" points="8,-149 8,-167 116,-167 116,-149 8,-149"/>
<text text-anchor="start" x="11" y="-155.2" font-family="Helvetica,sans-Serif" font-size="11.00"> &#160;</text>
<polygon fill="#ffffff" stroke="none" points="116,-149 116,-167 177,-167 177,-149 116,-149"/>
<polygon fill="none" stroke="black" points="116,-149 116,-167 177,-167 177,-149 116,-149"/>
<text text-anchor="start" x="167" y="-155.2" font-family="Helvetica,sans-Serif" font-size="11.00"> &#160;</text>
<polygon fill="#ffffff" stroke="none" points="177,-149 177,-167 248,-167 248,-149 177,-149"/>
<polygon fill="none" stroke="black" points="177,-149 177,-167 248,-167 248,-149 177,-149"/>
<text text-anchor="start" x="228" y="-155.2" font-family="Helvetica,sans-Serif" font-size="11.00">2 &gt;</text>
</a>
</g>
</g>
<!-- chargeable_fields&#45;&gt;chargeback_rate_detail_measures -->
<g id="edge1" class="edge"><title>chargeable_fields:chargeback_rate_detail_measure_id:w&#45;&gt;chargeback_rate_detail_measures:id:e</title>
<path fill="none" stroke="black" d="M284.264,-160.589C271.363,-171.095 271.183,-196 249,-196"/>
<polygon fill="black" stroke="black" points="290.412,-158.535 299.141,-159.415 294.206,-157.267 298,-156 298,-156 298,-156 294.206,-157.267 296.859,-152.585 290.412,-158.535 290.412,-158.535"/>
<ellipse fill="none" stroke="black" cx="287.377" cy="-159.549" rx="3.20001" ry="3.20001"/>
</g>
<!-- chargeback_rate_details -->
<g id="node3" class="node"><title>chargeback_rate_details</title>
<g id="a_node3"><a xlink:href="../../tables/chargeback_rate_details.html" xlink:title="chargeback_rate_details" target="_top">
<polygon fill="#ffffff" stroke="none" points="704,-149 704,-295 937,-295 937,-149 704,-149"/>
<polygon fill="#f5f5f5" stroke="none" points="704.5,-273 704.5,-295 937.5,-295 937.5,-273 704.5,-273"/>
<polygon fill="none" stroke="black" points="704.5,-273 704.5,-295 937.5,-295 937.5,-273 704.5,-273"/>
<text text-anchor="start" x="709.5" y="-282.2" font-family="Helvetica,sans-Serif" font-weight="bold" font-size="11.00">chargeback_rate_details</text>
<text text-anchor="start" x="898.5" y="-281.2" font-family="Helvetica,sans-Serif" font-size="11.00">[table]</text>
<polygon fill="none" stroke="black" points="704.5,-251 704.5,-273 937.5,-273 937.5,-251 704.5,-251"/>
<image xlink:href="../../images/primaryKeys.png" width="11px" height="12px" preserveAspectRatio="xMinYMin meet" x="709.5" y="-268"/>
<text text-anchor="start" x="724.5" y="-259.2" font-family="Helvetica,sans-Serif" font-size="11.00">id</text>
<polygon fill="#ffffff" stroke="none" points="704.5,-229 704.5,-251 937.5,-251 937.5,-229 704.5,-229"/>
<polygon fill="none" stroke="black" points="704.5,-229 704.5,-251 937.5,-251 937.5,-229 704.5,-229"/>
<image xlink:href="../../images/foreignKeys.png" width="11px" height="12px" preserveAspectRatio="xMinYMin meet" x="709.5" y="-246"/>
<text text-anchor="start" x="724.5" y="-237.2" font-family="Helvetica,sans-Serif" font-size="11.00">chargeback_rate_id</text>
<polygon fill="none" stroke="black" points="704.5,-207 704.5,-229 937.5,-229 937.5,-207 704.5,-207"/>
<image xlink:href="../../images/foreignKeys.png" width="11px" height="12px" preserveAspectRatio="xMinYMin meet" x="709.5" y="-224"/>
<text text-anchor="start" x="724.5" y="-215.2" font-family="Helvetica,sans-Serif" font-size="11.00">chargeback_rate_detail_measure_id</text>
<polygon fill="none" stroke="black" points="704.5,-185 704.5,-207 937.5,-207 937.5,-185 704.5,-185"/>
<image xlink:href="../../images/foreignKeys.png" width="11px" height="12px" preserveAspectRatio="xMinYMin meet" x="709.5" y="-202"/>
<text text-anchor="start" x="724.5" y="-193.2" font-family="Helvetica,sans-Serif" font-size="11.00">chargeable_field_id</text>
<polygon fill="none" stroke="black" points="704.5,-167 704.5,-185 937.5,-185 937.5,-167 704.5,-167"/>
<text text-anchor="start" x="707.5" y="-173.2" font-family="Helvetica,sans-Serif" font-size="11.00">...</text>
<polygon fill="#ffffff" stroke="none" points="704.5,-149 704.5,-167 814.5,-167 814.5,-149 704.5,-149"/>
<polygon fill="none" stroke="black" points="704.5,-149 704.5,-167 814.5,-167 814.5,-149 704.5,-149"/>
<text text-anchor="start" x="707.5" y="-155.2" font-family="Helvetica,sans-Serif" font-size="11.00">&lt; 3</text>
<polygon fill="#ffffff" stroke="none" points="814.5,-149 814.5,-167 870.5,-167 870.5,-149 814.5,-149"/>
<polygon fill="none" stroke="black" points="814.5,-149 814.5,-167 870.5,-167 870.5,-149 814.5,-149"/>
<text text-anchor="start" x="860.5" y="-155.2" font-family="Helvetica,sans-Serif" font-size="11.00"> &#160;</text>
<polygon fill="#ffffff" stroke="none" points="870.5,-149 870.5,-167 937.5,-167 937.5,-149 870.5,-149"/>
<polygon fill="none" stroke="black" points="870.5,-149 870.5,-167 937.5,-167 937.5,-149 870.5,-149"/>
<text text-anchor="start" x="917.5" y="-155.2" font-family="Helvetica,sans-Serif" font-size="11.00">1 &gt;</text>
</a>
</g>
</g>
<!-- chargeback_rate_details&#45;&gt;chargeable_fields -->
<g id="edge2" class="edge"><title>chargeback_rate_details:chargeable_field_id:w&#45;&gt;chargeable_fields:id.type:e</title>
<path fill="none" stroke="black" d="M689.182,-193.188C677.454,-188.125 671.557,-178 654,-178"/>
<polygon fill="black" stroke="black" points="695.65,-194.458 702.806,-199.532 699.575,-195.229 703.5,-196 703.5,-196 703.5,-196 699.575,-195.229 704.194,-192.468 695.65,-194.458 695.65,-194.458"/>
<ellipse fill="none" stroke="black" cx="692.51" cy="-193.841" rx="3.2" ry="3.2"/>
</g>
<!-- chargeback_rate_details&#45;&gt;chargeback_rate_detail_measures -->
<g id="edge3" class="edge"><title>chargeback_rate_details:chargeback_rate_detail_measure_id:w&#45;&gt;chargeback_rate_detail_measures:id:e</title>
<path fill="none" stroke="black" d="M689.133,-219.224C681.07,-220.702 675.193,-223.102 663,-224 497.227,-236.213 447.532,-273.973 289,-224 268.303,-217.476 270.701,-196 249,-196"/>
<polygon fill="black" stroke="black" points="695.529,-218.679 703.806,-221.587 699.514,-218.34 703.5,-218 703.5,-218 703.5,-218 699.514,-218.34 703.194,-214.413 695.529,-218.679 695.529,-218.679"/>
<ellipse fill="none" stroke="black" cx="692.34" cy="-218.951" rx="3.2" ry="3.2"/>
</g>
</g>
</svg>
