<?xml version="1.0" encoding="UTF-8" standalone="no"?>
<!DOCTYPE svg PUBLIC "-//W3C//DTD SVG 1.1//EN"
 "http://www.w3.org/Graphics/SVG/1.1/DTD/svg11.dtd">
<!-- Generated by graphviz version 2.38.0 (20140413.2041)
 -->
<!-- Title: twoDegreesRelationshipsDiagram Pages: 1 -->
<svg width="1039pt" height="353pt"
 viewBox="0.00 0.00 1039.00 353.00" xmlns="http://www.w3.org/2000/svg" xmlns:xlink="http://www.w3.org/1999/xlink">
<g id="graph0" class="graph" transform="scale(1 1) rotate(0) translate(4 349)">
<title>twoDegreesRelationshipsDiagram</title>
<polygon fill="#ffffff" stroke="none" points="-4,4 -4,-349 1035,-349 1035,4 -4,4"/>
<text text-anchor="middle" x="74.5" y="-7.2" font-family="Helvetica,sans-Serif" font-size="11.00">Generated by SchemaSpy</text>
<!-- chargeable_fields -->
<g id="node1" class="node"><title>chargeable_fields</title>
<g id="a_node1"><a xlink:href="../../tables/chargeable_fields.html" xlink:title="chargeable_fields" target="_top">
<polygon fill="#ffffff" stroke="none" points="348.5,-37 348.5,-95 495.5,-95 495.5,-37 348.5,-37"/>
<polygon fill="#f5f5f5" stroke="none" points="349,-73 349,-95 496,-95 496,-73 349,-73"/>
<polygon fill="none" stroke="black" points="349,-73 349,-95 496,-95 496,-73 349,-73"/>
<text text-anchor="start" x="354" y="-82.2" font-family="Helvetica,sans-Serif" font-weight="bold" font-size="11.00">chargeable_fields</text>
<text text-anchor="start" x="457" y="-81.2" font-family="Helvetica,sans-Serif" font-size="11.00">[table]</text>
<polygon fill="none" stroke="black" points="349,-55 349,-73 496,-73 496,-55 349,-55"/>
<text text-anchor="start" x="352" y="-61.2" font-family="Helvetica,sans-Serif" font-size="11.00">...</text>
<polygon fill="#ffffff" stroke="none" points="349,-37 349,-55 416,-55 416,-37 349,-37"/>
<polygon fill="none" stroke="black" points="349,-37 349,-55 416,-55 416,-37 349,-37"/>
<text text-anchor="start" x="352" y="-43.2" font-family="Helvetica,sans-Serif" font-size="11.00">&lt; 1</text>
<polygon fill="#ffffff" stroke="none" points="416,-37 416,-55 451,-55 451,-37 416,-37"/>
<polygon fill="none" stroke="black" points="416,-37 416,-55 451,-55 451,-37 416,-37"/>
<text text-anchor="start" x="441" y="-43.2" font-family="Helvetica,sans-Serif" font-size="11.00"> &#160;</text>
<polygon fill="#ffffff" stroke="none" points="451,-37 451,-55 496,-55 496,-37 451,-37"/>
<polygon fill="none" stroke="black" points="451,-37 451,-55 496,-55 496,-37 451,-37"/>
<text text-anchor="start" x="476" y="-43.2" font-family="Helvetica,sans-Serif" font-size="11.00">1 &gt;</text>
</a>
</g>
</g>
<!-- chargeback_rate_detail_measures -->
<g id="node2" class="node"><title>chargeback_rate_detail_measures</title>
<g id="a_node2"><a xlink:href="../../tables/chargeback_rate_detail_measures.html" xlink:title="chargeback_rate_detail_measures" target="_top">
<polygon fill="#ffffff" stroke="none" points="8,-64 8,-122 248,-122 248,-64 8,-64"/>
<polygon fill="#f5f5f5" stroke="none" points="8,-100 8,-122 248,-122 248,-100 8,-100"/>
<polygon fill="none" stroke="black" points="8,-100 8,-122 248,-122 248,-100 8,-100"/>
<text text-anchor="start" x="13" y="-109.2" font-family="Helvetica,sans-Serif" font-weight="bold" font-size="11.00">chargeback_rate_detail_measures</text>
<text text-anchor="start" x="209" y="-108.2" font-family="Helvetica,sans-Serif" font-size="11.00">[table]</text>
<polygon fill="none" stroke="black" points="8,-82 8,-100 248,-100 248,-82 8,-82"/>
<text text-anchor="start" x="11" y="-88.2" font-family="Helvetica,sans-Serif" font-size="11.00">...</text>
<polygon fill="#ffffff" stroke="none" points="8,-64 8,-82 116,-82 116,-64 8,-64"/>
<polygon fill="none" stroke="black" points="8,-64 8,-82 116,-82 116,-64 8,-64"/>
<text text-anchor="start" x="11" y="-70.2" font-family="Helvetica,sans-Serif" font-size="11.00"> &#160;</text>
<polygon fill="#ffffff" stroke="none" points="116,-64 116,-82 177,-82 177,-64 116,-64"/>
<polygon fill="none" stroke="black" points="116,-64 116,-82 177,-82 177,-64 116,-64"/>
<text text-anchor="start" x="167" y="-70.2" font-family="Helvetica,sans-Serif" font-size="11.00"> &#160;</text>
<polygon fill="#ffffff" stroke="none" points="177,-64 177,-82 248,-82 248,-64 177,-64"/>
<polygon fill="none" stroke="black" points="177,-64 177,-82 248,-82 248,-64 177,-64"/>
<text text-anchor="start" x="228" y="-70.2" font-family="Helvetica,sans-Serif" font-size="11.00">2 &gt;</text>
</a>
</g>
</g>
<!-- chargeable_fields&#45;&gt;chargeback_rate_detail_measures -->
<g id="edge1" class="edge"><title>chargeable_fields:elipses:w&#45;&gt;chargeback_rate_detail_measures:elipses:e</title>
<path fill="none" stroke="black" d="M333.403,-65.0255C300.049,-69.9573 289.262,-91 249,-91"/>
<polygon fill="black" stroke="black" points="340.02,-64.5607 348.252,-67.5911 344.01,-64.2803 348,-64 348,-64 348,-64 344.01,-64.2803 347.748,-60.4089 340.02,-64.5607 340.02,-64.5607"/>
<ellipse fill="none" stroke="black" cx="336.828" cy="-64.7849" rx="3.2" ry="3.2"/>
</g>
<!-- chargeback_rate_details -->
<g id="node3" class="node"><title>chargeback_rate_details</title>
<g id="a_node3"><a xlink:href="../../tables/chargeback_rate_details.html" xlink:title="chargeback_rate_details" target="_top">
<polygon fill="#ffffff" stroke="none" points="596,-50 596,-196 829,-196 829,-50 596,-50"/>
<polygon fill="#f5f5f5" stroke="none" points="596.5,-174 596.5,-196 829.5,-196 829.5,-174 596.5,-174"/>
<polygon fill="none" stroke="black" points="596.5,-174 596.5,-196 829.5,-196 829.5,-174 596.5,-174"/>
<text text-anchor="start" x="601.5" y="-183.2" font-family="Helvetica,sans-Serif" font-weight="bold" font-size="11.00">chargeback_rate_details</text>
<text text-anchor="start" x="790.5" y="-182.2" font-family="Helvetica,sans-Serif" font-size="11.00">[table]</text>
<polygon fill="none" stroke="black" points="596.5,-152 596.5,-174 829.5,-174 829.5,-152 596.5,-152"/>
<image xlink:href="../../images/primaryKeys.png" width="11px" height="12px" preserveAspectRatio="xMinYMin meet" x="601.5" y="-169"/>
<text text-anchor="start" x="616.5" y="-160.2" font-family="Helvetica,sans-Serif" font-size="11.00">id</text>
<polygon fill="#ffffff" stroke="none" points="596.5,-130 596.5,-152 829.5,-152 829.5,-130 596.5,-130"/>
<polygon fill="none" stroke="black" points="596.5,-130 596.5,-152 829.5,-152 829.5,-130 596.5,-130"/>
<image xlink:href="../../images/foreignKeys.png" width="11px" height="12px" preserveAspectRatio="xMinYMin meet" x="601.5" y="-147"/>
<text text-anchor="start" x="616.5" y="-138.2" font-family="Helvetica,sans-Serif" font-size="11.00">chargeback_rate_id</text>
<polygon fill="none" stroke="black" points="596.5,-108 596.5,-130 829.5,-130 829.5,-108 596.5,-108"/>
<image xlink:href="../../images/foreignKeys.png" width="11px" height="12px" preserveAspectRatio="xMinYMin meet" x="601.5" y="-125"/>
<text text-anchor="start" x="616.5" y="-116.2" font-family="Helvetica,sans-Serif" font-size="11.00">chargeback_rate_detail_measure_id</text>
<polygon fill="none" stroke="black" points="596.5,-86 596.5,-108 829.5,-108 829.5,-86 596.5,-86"/>
<image xlink:href="../../images/foreignKeys.png" width="11px" height="12px" preserveAspectRatio="xMinYMin meet" x="601.5" y="-103"/>
<text text-anchor="start" x="616.5" y="-94.2" font-family="Helvetica,sans-Serif" font-size="11.00">chargeable_field_id</text>
<polygon fill="none" stroke="black" points="596.5,-68 596.5,-86 829.5,-86 829.5,-68 596.5,-68"/>
<text text-anchor="start" x="599.5" y="-74.2" font-family="Helvetica,sans-Serif" font-size="11.00">...</text>
<polygon fill="#ffffff" stroke="none" points="596.5,-50 596.5,-68 706.5,-68 706.5,-50 596.5,-50"/>
<polygon fill="none" stroke="black" points="596.5,-50 596.5,-68 706.5,-68 706.5,-50 596.5,-50"/>
<text text-anchor="start" x="599.5" y="-56.2" font-family="Helvetica,sans-Serif" font-size="11.00">&lt; 3</text>
<polygon fill="#ffffff" stroke="none" points="706.5,-50 706.5,-68 762.5,-68 762.5,-50 706.5,-50"/>
<polygon fill="none" stroke="black" points="706.5,-50 706.5,-68 762.5,-68 762.5,-50 706.5,-50"/>
<text text-anchor="start" x="752.5" y="-56.2" font-family="Helvetica,sans-Serif" font-size="11.00"> &#160;</text>
<polygon fill="#ffffff" stroke="none" points="762.5,-50 762.5,-68 829.5,-68 829.5,-50 762.5,-50"/>
<polygon fill="none" stroke="black" points="762.5,-50 762.5,-68 829.5,-68 829.5,-50 762.5,-50"/>
<text text-anchor="start" x="809.5" y="-56.2" font-family="Helvetica,sans-Serif" font-size="11.00">1 &gt;</text>
</a>
</g>
</g>
<!-- chargeback_rate_details&#45;&gt;chargeable_fields -->
<g id="edge2" class="edge"><title>chargeback_rate_details:chargeable_field_id:w&#45;&gt;chargeable_fields:elipses:e</title>
<path fill="none" stroke="black" d="M580.788,-95.7467C547.337,-89.7188 537.759,-64 497,-64"/>
<polygon fill="black" stroke="black" points="587.529,-96.3209 595.194,-100.587 591.514,-96.6604 595.5,-97 595.5,-97 595.5,-97 591.514,-96.6604 595.806,-93.413 587.529,-96.3209 587.529,-96.3209"/>
<ellipse fill="none" stroke="black" cx="584.34" cy="-96.0492" rx="3.2" ry="3.2"/>
</g>
<!-- chargeback_rate_details&#45;&gt;chargeback_rate_detail_measures -->
<g id="edge3" class="edge"><title>chargeback_rate_details:chargeback_rate_detail_measure_id:w&#45;&gt;chargeback_rate_detail_measures:elipses:e</title>
<path fill="none" stroke="black" d="M580.723,-119.056C456.309,-119.994 417.653,-132.157 289,-106 270.394,-102.217 267.987,-91 249,-91"/>
<polygon fill="black" stroke="black" points="587.5,-119.03 595.514,-122.6 591.5,-119.015 595.5,-119 595.5,-119 595.5,-119 591.5,-119.015 595.486,-115.4 587.5,-119.03 587.5,-119.03"/>
<ellipse fill="none" stroke="black" cx="584.3" cy="-119.042" rx="3.2" ry="3.2"/>
</g>
<!-- chargeback_rates -->
<g id="node4" class="node"><title>chargeback_rates</title>
<g id="a_node4"><a xlink:href="../../tables/chargeback_rates.html" xlink:title="chargeback_rates" target="_top">
<polygon fill="#ffffff" stroke="none" points="297,-143 297,-341 547,-341 547,-143 297,-143"/>
<polygon fill="#f5f5f5" stroke="none" points="299,-317 299,-339 545,-339 545,-317 299,-317"/>
<polygon fill="none" stroke="black" points="299,-317 299,-339 545,-339 545,-317 299,-317"/>
<text text-anchor="start" x="304" y="-326.2" font-family="Helvetica,sans-Serif" font-weight="bold" font-size="11.00">chargeback_rates</text>
<text text-anchor="start" x="506" y="-325.2" font-family="Helvetica,sans-Serif" font-size="11.00">[table]</text>
<polygon fill="none" stroke="black" points="299,-295 299,-317 424,-317 424,-295 299,-295"/>
<image xlink:href="../../images/primaryKeys.png" width="11px" height="12px" preserveAspectRatio="xMinYMin meet" x="304" y="-312"/>
<text text-anchor="start" x="319" y="-303.2" font-family="Helvetica,sans-Serif" font-size="11.00">id</text>
<polygon fill="none" stroke="black" points="424,-295 424,-317 545,-317 545,-295 424,-295"/>
<text text-anchor="start" x="427" y="-303.2" font-family="Helvetica,sans-Serif" font-size="11.00">bigserial[19]</text>
<polygon fill="none" stroke="black" points="299,-273 299,-295 424,-295 424,-273 299,-273"/>
<text text-anchor="start" x="319" y="-281.2" font-family="Helvetica,sans-Serif" font-size="11.00">guid</text>
<polygon fill="none" stroke="black" points="424,-273 424,-295 545,-295 545,-273 424,-273"/>
<text text-anchor="start" x="427" y="-281.2" font-family="Helvetica,sans-Serif" font-size="11.00">varchar[2147483647]</text>
<polygon fill="none" stroke="black" points="299,-251 299,-273 424,-273 424,-251 299,-251"/>
<text text-anchor="start" x="319" y="-259.2" font-family="Helvetica,sans-Serif" font-size="11.00">description</text>
<polygon fill="none" stroke="black" points="424,-251 424,-273 545,-273 545,-251 424,-251"/>
<text text-anchor="start" x="427" y="-259.2" font-family="Helvetica,sans-Serif" font-size="11.00">varchar[2147483647]</text>
<polygon fill="none" stroke="black" points="299,-229 299,-251 424,-251 424,-229 299,-229"/>
<text text-anchor="start" x="319" y="-237.2" font-family="Helvetica,sans-Serif" font-size="11.00">rate_type</text>
<polygon fill="none" stroke="black" points="424,-229 424,-251 545,-251 545,-229 424,-229"/>
<text text-anchor="start" x="427" y="-237.2" font-family="Helvetica,sans-Serif" font-size="11.00">varchar[2147483647]</text>
<polygon fill="none" stroke="black" points="299,-207 299,-229 424,-229 424,-207 299,-207"/>
<text text-anchor="start" x="319" y="-215.2" font-family="Helvetica,sans-Serif" font-size="11.00">created_on</text>
<polygon fill="none" stroke="black" points="424,-207 424,-229 545,-229 545,-207 424,-207"/>
<text text-anchor="start" x="427" y="-215.2" font-family="Helvetica,sans-Serif" font-size="11.00">timestamp[29,6]</text>
<polygon fill="none" stroke="black" points="299,-185 299,-207 424,-207 424,-185 299,-185"/>
<text text-anchor="start" x="319" y="-193.2" font-family="Helvetica,sans-Serif" font-size="11.00">updated_on</text>
<polygon fill="none" stroke="black" points="424,-185 424,-207 545,-207 545,-185 424,-185"/>
<text text-anchor="start" x="427" y="-193.2" font-family="Helvetica,sans-Serif" font-size="11.00">timestamp[29,6]</text>
<polygon fill="none" stroke="black" points="299,-163 299,-185 424,-185 424,-163 299,-163"/>
<text text-anchor="start" x="319" y="-171.2" font-family="Helvetica,sans-Serif" font-size="11.00">default</text>
<polygon fill="none" stroke="black" points="424,-163 424,-185 545,-185 545,-163 424,-163"/>
<text text-anchor="start" x="427" y="-171.2" font-family="Helvetica,sans-Serif" font-size="11.00">bool[1]</text>
<polygon fill="#ffffff" stroke="none" points="299,-145 299,-163 366,-163 366,-145 299,-145"/>
<polygon fill="none" stroke="black" points="299,-145 299,-163 366,-163 366,-145 299,-145"/>
<text text-anchor="start" x="302" y="-151.2" font-family="Helvetica,sans-Serif" font-size="11.00">&lt; 0</text>
<polygon fill="#ffffff" stroke="none" points="366,-145 366,-163 424,-163 424,-145 366,-145"/>
<polygon fill="none" stroke="black" points="366,-145 366,-163 424,-163 424,-145 366,-145"/>
<text text-anchor="start" x="414" y="-151.2" font-family="Helvetica,sans-Serif" font-size="11.00"> &#160;</text>
<polygon fill="#ffffff" stroke="none" points="424,-145 424,-163 545,-163 545,-145 424,-145"/>
<polygon fill="none" stroke="black" points="424,-145 424,-163 545,-163 545,-145 424,-145"/>
<text text-anchor="start" x="525" y="-151.2" font-family="Helvetica,sans-Serif" font-size="11.00">1 &gt;</text>
<polygon fill="none" stroke="black" stroke-width="2" points="298,-144 298,-340 546,-340 546,-144 298,-144"/>
</a>
</g>
</g>
<!-- chargeback_rate_details&#45;&gt;chargeback_rates -->
<g id="edge4" class="edge"><title>chargeback_rate_details:chargeback_rate_id:w&#45;&gt;chargeback_rates:id.type:e</title>
<path fill="none" stroke="black" d="M581.283,-143.592C533.327,-164.583 616.88,-306 546,-306"/>
<polygon fill="black" stroke="black" points="587.63,-142.435 596.146,-144.542 591.565,-141.717 595.5,-141 595.5,-141 595.5,-141 591.565,-141.717 594.854,-137.458 587.63,-142.435 587.63,-142.435"/>
<ellipse fill="none" stroke="black" cx="584.482" cy="-143.009" rx="3.2" ry="3.2"/>
</g>
<!-- chargeback_tiers -->
<g id="node5" class="node"><title>chargeback_tiers</title>
<g id="a_node5"><a xlink:href="../../tables/chargeback_tiers.html" xlink:title="chargeback_tiers" target="_top">
<polygon fill="#ffffff" stroke="none" points="878,-136 878,-194 1023,-194 1023,-136 878,-136"/>
<polygon fill="#f5f5f5" stroke="none" points="878.5,-172 878.5,-194 1023.5,-194 1023.5,-172 878.5,-172"/>
<polygon fill="none" stroke="black" points="878.5,-172 878.5,-194 1023.5,-194 1023.5,-172 878.5,-172"/>
<text text-anchor="start" x="883.5" y="-181.2" font-family="Helvetica,sans-Serif" font-weight="bold" font-size="11.00">chargeback_tiers</text>
<text text-anchor="start" x="984.5" y="-180.2" font-family="Helvetica,sans-Serif" font-size="11.00">[table]</text>
<polygon fill="none" stroke="black" points="878.5,-154 878.5,-172 1023.5,-172 1023.5,-154 878.5,-154"/>
<text text-anchor="start" x="881.5" y="-160.2" font-family="Helvetica,sans-Serif" font-size="11.00">...</text>
<polygon fill="#ffffff" stroke="none" points="878.5,-136 878.5,-154 949.5,-154 949.5,-136 878.5,-136"/>
<polygon fill="none" stroke="black" points="878.5,-136 878.5,-154 949.5,-154 949.5,-136 878.5,-136"/>
<text text-anchor="start" x="881.5" y="-142.2" font-family="Helvetica,sans-Serif" font-size="11.00">&lt; 1</text>
<polygon fill="#ffffff" stroke="none" points="949.5,-136 949.5,-154 986.5,-154 986.5,-136 949.5,-136"/>
<polygon fill="none" stroke="black" points="949.5,-136 949.5,-154 986.5,-154 986.5,-136 949.5,-136"/>
<text text-anchor="start" x="976.5" y="-142.2" font-family="Helvetica,sans-Serif" font-size="11.00"> &#160;</text>
<polygon fill="#ffffff" stroke="none" points="986.5,-136 986.5,-154 1023.5,-154 1023.5,-136 986.5,-136"/>
<polygon fill="none" stroke="black" points="986.5,-136 986.5,-154 1023.5,-154 1023.5,-136 986.5,-136"/>
<text text-anchor="start" x="1013.5" y="-142.2" font-family="Helvetica,sans-Serif" font-size="11.00"> &#160;</text>
</a>
</g>
</g>
<!-- chargeback_tiers&#45;&gt;chargeback_rate_details -->
<g id="edge5" class="edge"><title>chargeback_tiers:elipses:w&#45;&gt;chargeback_rate_details:id:e</title>
<path fill="none" stroke="black" d="M862.896,-163C852.434,-163 845.514,-163 830.5,-163"/>
<polygon fill="black" stroke="black" points="869.5,-163 877.5,-166.6 873.5,-163 877.5,-163 877.5,-163 877.5,-163 873.5,-163 877.5,-159.4 869.5,-163 869.5,-163"/>
<ellipse fill="none" stroke="black" cx="866.3" cy="-163" rx="3.2" ry="3.2"/>
</g>
</g>
</svg>
