<?xml version="1.0" encoding="UTF-8" standalone="no"?>
<!DOCTYPE svg PUBLIC "-//W3C//DTD SVG 1.1//EN"
 "http://www.w3.org/Graphics/SVG/1.1/DTD/svg11.dtd">
<!-- Generated by graphviz version 2.38.0 (20140413.2041)
 -->
<!-- Title: oneDegreeRelationshipsDiagram Pages: 1 -->
<svg width="1177pt" height="494pt"
 viewBox="0.00 0.00 1177.00 494.00" xmlns="http://www.w3.org/2000/svg" xmlns:xlink="http://www.w3.org/1999/xlink">
<g id="graph0" class="graph" transform="scale(1 1) rotate(0) translate(4 490)">
<title>oneDegreeRelationshipsDiagram</title>
<polygon fill="#ffffff" stroke="none" points="-4,4 -4,-490 1173,-490 1173,4 -4,4"/>
<text text-anchor="middle" x="74.5" y="-7.2" font-family="Helvetica,sans-Serif" font-size="11.00">Generated by SchemaSpy</text>
<!-- chargeable_fields -->
<g id="node1" class="node"><title>chargeable_fields</title>
<g id="a_node1"><a xlink:href="../../tables/chargeable_fields.html" xlink:title="chargeable_fields" target="_top">
<polygon fill="#ffffff" stroke="none" points="297,-37 297,-139 530,-139 530,-37 297,-37"/>
<polygon fill="#f5f5f5" stroke="none" points="297.5,-117 297.5,-139 530.5,-139 530.5,-117 297.5,-117"/>
<polygon fill="none" stroke="black" points="297.5,-117 297.5,-139 530.5,-139 530.5,-117 297.5,-117"/>
<text text-anchor="start" x="302.5" y="-126.2" font-family="Helvetica,sans-Serif" font-weight="bold" font-size="11.00">chargeable_fields</text>
<text text-anchor="start" x="491.5" y="-125.2" font-family="Helvetica,sans-Serif" font-size="11.00">[table]</text>
<polygon fill="none" stroke="black" points="297.5,-95 297.5,-117 530.5,-117 530.5,-95 297.5,-95"/>
<image xlink:href="../../images/primaryKeys.png" width="11px" height="12px" preserveAspectRatio="xMinYMin meet" x="302.5" y="-112"/>
<text text-anchor="start" x="317.5" y="-103.2" font-family="Helvetica,sans-Serif" font-size="11.00">id</text>
<polygon fill="none" stroke="black" points="297.5,-73 297.5,-95 530.5,-95 530.5,-73 297.5,-73"/>
<image xlink:href="../../images/foreignKeys.png" width="11px" height="12px" preserveAspectRatio="xMinYMin meet" x="302.5" y="-90"/>
<text text-anchor="start" x="317.5" y="-81.2" font-family="Helvetica,sans-Serif" font-size="11.00">chargeback_rate_detail_measure_id</text>
<polygon fill="none" stroke="black" points="297.5,-55 297.5,-73 530.5,-73 530.5,-55 297.5,-55"/>
<text text-anchor="start" x="300.5" y="-61.2" font-family="Helvetica,sans-Serif" font-size="11.00">...</text>
<polygon fill="#ffffff" stroke="none" points="297.5,-37 297.5,-55 407.5,-55 407.5,-37 297.5,-37"/>
<polygon fill="none" stroke="black" points="297.5,-37 297.5,-55 407.5,-55 407.5,-37 297.5,-37"/>
<text text-anchor="start" x="300.5" y="-43.2" font-family="Helvetica,sans-Serif" font-size="11.00">&lt; 1</text>
<polygon fill="#ffffff" stroke="none" points="407.5,-37 407.5,-55 463.5,-55 463.5,-37 407.5,-37"/>
<polygon fill="none" stroke="black" points="407.5,-37 407.5,-55 463.5,-55 463.5,-37 407.5,-37"/>
<text text-anchor="start" x="453.5" y="-43.2" font-family="Helvetica,sans-Serif" font-size="11.00"> &#160;</text>
<polygon fill="#ffffff" stroke="none" points="463.5,-37 463.5,-55 530.5,-55 530.5,-37 463.5,-37"/>
<polygon fill="none" stroke="black" points="463.5,-37 463.5,-55 530.5,-55 530.5,-37 463.5,-37"/>
<text text-anchor="start" x="510.5" y="-43.2" font-family="Helvetica,sans-Serif" font-size="11.00">1 &gt;</text>
</a>
</g>
</g>
<!-- chargeback_rate_detail_measures -->
<g id="node2" class="node"><title>chargeback_rate_detail_measures</title>
<g id="a_node2"><a xlink:href="../../tables/chargeback_rate_detail_measures.html" xlink:title="chargeback_rate_detail_measures" target="_top">
<polygon fill="#ffffff" stroke="none" points="8,-76 8,-156 248,-156 248,-76 8,-76"/>
<polygon fill="#f5f5f5" stroke="none" points="8,-134 8,-156 248,-156 248,-134 8,-134"/>
<polygon fill="none" stroke="black" points="8,-134 8,-156 248,-156 248,-134 8,-134"/>
<text text-anchor="start" x="13" y="-143.2" font-family="Helvetica,sans-Serif" font-weight="bold" font-size="11.00">chargeback_rate_detail_measures</text>
<text text-anchor="start" x="209" y="-142.2" font-family="Helvetica,sans-Serif" font-size="11.00">[table]</text>
<polygon fill="none" stroke="black" points="8,-112 8,-134 248,-134 248,-112 8,-112"/>
<image xlink:href="../../images/primaryKeys.png" width="11px" height="12px" preserveAspectRatio="xMinYMin meet" x="13" y="-129"/>
<text text-anchor="start" x="37" y="-120.2" font-family="Helvetica,sans-Serif" font-size="11.00">id</text>
<polygon fill="none" stroke="black" points="8,-94 8,-112 248,-112 248,-94 8,-94"/>
<text text-anchor="start" x="11" y="-100.2" font-family="Helvetica,sans-Serif" font-size="11.00">...</text>
<polygon fill="#ffffff" stroke="none" points="8,-76 8,-94 116,-94 116,-76 8,-76"/>
<polygon fill="none" stroke="black" points="8,-76 8,-94 116,-94 116,-76 8,-76"/>
<text text-anchor="start" x="11" y="-82.2" font-family="Helvetica,sans-Serif" font-size="11.00"> &#160;</text>
<polygon fill="#ffffff" stroke="none" points="116,-76 116,-94 177,-94 177,-76 116,-76"/>
<polygon fill="none" stroke="black" points="116,-76 116,-94 177,-94 177,-76 116,-76"/>
<text text-anchor="start" x="167" y="-82.2" font-family="Helvetica,sans-Serif" font-size="11.00"> &#160;</text>
<polygon fill="#ffffff" stroke="none" points="177,-76 177,-94 248,-94 248,-76 177,-76"/>
<polygon fill="none" stroke="black" points="177,-76 177,-94 248,-94 248,-76 177,-76"/>
<text text-anchor="start" x="228" y="-82.2" font-family="Helvetica,sans-Serif" font-size="11.00">2 &gt;</text>
</a>
</g>
</g>
<!-- chargeable_fields&#45;&gt;chargeback_rate_detail_measures -->
<g id="edge1" class="edge"><title>chargeable_fields:chargeback_rate_detail_measure_id:w&#45;&gt;chargeback_rate_detail_measures:id:e</title>
<path fill="none" stroke="black" d="M282.798,-88.7822C270.656,-99.1963 270.34,-123 249,-123"/>
<polygon fill="black" stroke="black" points="288.947,-86.6362 297.686,-87.3989 292.723,-85.3181 296.5,-84 296.5,-84 296.5,-84 292.723,-85.3181 295.314,-80.6011 288.947,-86.6362 288.947,-86.6362"/>
<ellipse fill="none" stroke="black" cx="285.926" cy="-87.6907" rx="3.20001" ry="3.20001"/>
</g>
<!-- chargeback_rate_details -->
<g id="node3" class="node"><title>chargeback_rate_details</title>
<g id="a_node3"><a xlink:href="../../tables/chargeback_rate_details.html" xlink:title="chargeback_rate_details" target="_top">
<polygon fill="#ffffff" stroke="none" points="579,-66 579,-462 937,-462 937,-66 579,-66"/>
<polygon fill="#f5f5f5" stroke="none" points="581,-438 581,-460 935,-460 935,-438 581,-438"/>
<polygon fill="none" stroke="black" points="581,-438 581,-460 935,-460 935,-438 581,-438"/>
<text text-anchor="start" x="586" y="-447.2" font-family="Helvetica,sans-Serif" font-weight="bold" font-size="11.00">chargeback_rate_details</text>
<text text-anchor="start" x="896" y="-446.2" font-family="Helvetica,sans-Serif" font-size="11.00">[table]</text>
<polygon fill="none" stroke="black" points="581,-416 581,-438 814,-438 814,-416 581,-416"/>
<image xlink:href="../../images/primaryKeys.png" width="11px" height="12px" preserveAspectRatio="xMinYMin meet" x="586" y="-433"/>
<text text-anchor="start" x="601" y="-424.2" font-family="Helvetica,sans-Serif" font-size="11.00">id</text>
<polygon fill="none" stroke="black" points="814,-416 814,-438 935,-438 935,-416 814,-416"/>
<text text-anchor="start" x="817" y="-424.2" font-family="Helvetica,sans-Serif" font-size="11.00">bigserial[19]</text>
<polygon fill="none" stroke="black" points="581,-394 581,-416 814,-416 814,-394 581,-394"/>
<text text-anchor="start" x="601" y="-402.2" font-family="Helvetica,sans-Serif" font-size="11.00">enabled</text>
<polygon fill="none" stroke="black" points="814,-394 814,-416 935,-416 935,-394 814,-394"/>
<text text-anchor="start" x="817" y="-402.2" font-family="Helvetica,sans-Serif" font-size="11.00">bool[1]</text>
<polygon fill="none" stroke="black" points="581,-372 581,-394 814,-394 814,-372 581,-372"/>
<text text-anchor="start" x="601" y="-380.2" font-family="Helvetica,sans-Serif" font-size="11.00">description</text>
<polygon fill="none" stroke="black" points="814,-372 814,-394 935,-394 935,-372 814,-372"/>
<text text-anchor="start" x="817" y="-380.2" font-family="Helvetica,sans-Serif" font-size="11.00">varchar[2147483647]</text>
<polygon fill="none" stroke="black" points="581,-350 581,-372 814,-372 814,-350 581,-350"/>
<text text-anchor="start" x="601" y="-358.2" font-family="Helvetica,sans-Serif" font-size="11.00">group</text>
<polygon fill="none" stroke="black" points="814,-350 814,-372 935,-372 935,-350 814,-350"/>
<text text-anchor="start" x="817" y="-358.2" font-family="Helvetica,sans-Serif" font-size="11.00">varchar[2147483647]</text>
<polygon fill="none" stroke="black" points="581,-328 581,-350 814,-350 814,-328 581,-328"/>
<text text-anchor="start" x="601" y="-336.2" font-family="Helvetica,sans-Serif" font-size="11.00">source</text>
<polygon fill="none" stroke="black" points="814,-328 814,-350 935,-350 935,-328 814,-328"/>
<text text-anchor="start" x="817" y="-336.2" font-family="Helvetica,sans-Serif" font-size="11.00">varchar[2147483647]</text>
<polygon fill="none" stroke="black" points="581,-306 581,-328 814,-328 814,-306 581,-306"/>
<text text-anchor="start" x="601" y="-314.2" font-family="Helvetica,sans-Serif" font-size="11.00">metric</text>
<polygon fill="none" stroke="black" points="814,-306 814,-328 935,-328 935,-306 814,-306"/>
<text text-anchor="start" x="817" y="-314.2" font-family="Helvetica,sans-Serif" font-size="11.00">varchar[2147483647]</text>
<polygon fill="none" stroke="black" points="581,-284 581,-306 814,-306 814,-284 581,-284"/>
<text text-anchor="start" x="601" y="-292.2" font-family="Helvetica,sans-Serif" font-size="11.00">per_time</text>
<polygon fill="none" stroke="black" points="814,-284 814,-306 935,-306 935,-284 814,-284"/>
<text text-anchor="start" x="817" y="-292.2" font-family="Helvetica,sans-Serif" font-size="11.00">varchar[2147483647]</text>
<polygon fill="none" stroke="black" points="581,-262 581,-284 814,-284 814,-262 581,-262"/>
<text text-anchor="start" x="601" y="-270.2" font-family="Helvetica,sans-Serif" font-size="11.00">per_unit</text>
<polygon fill="none" stroke="black" points="814,-262 814,-284 935,-284 935,-262 814,-262"/>
<text text-anchor="start" x="817" y="-270.2" font-family="Helvetica,sans-Serif" font-size="11.00">varchar[2147483647]</text>
<polygon fill="none" stroke="black" points="581,-240 581,-262 814,-262 814,-240 581,-240"/>
<text text-anchor="start" x="601" y="-248.2" font-family="Helvetica,sans-Serif" font-size="11.00">friendly_rate</text>
<polygon fill="none" stroke="black" points="814,-240 814,-262 935,-262 935,-240 814,-240"/>
<text text-anchor="start" x="817" y="-248.2" font-family="Helvetica,sans-Serif" font-size="11.00">varchar[2147483647]</text>
<polygon fill="#ffffff" stroke="none" points="581,-218 581,-240 814,-240 814,-218 581,-218"/>
<polygon fill="none" stroke="black" points="581,-218 581,-240 814,-240 814,-218 581,-218"/>
<image xlink:href="../../images/foreignKeys.png" width="11px" height="12px" preserveAspectRatio="xMinYMin meet" x="586" y="-235"/>
<text text-anchor="start" x="601" y="-226.2" font-family="Helvetica,sans-Serif" font-size="11.00">chargeback_rate_id</text>
<polygon fill="none" stroke="black" points="814,-218 814,-240 935,-240 935,-218 814,-218"/>
<text text-anchor="start" x="817" y="-226.2" font-family="Helvetica,sans-Serif" font-size="11.00">int8[19]</text>
<polygon fill="none" stroke="black" points="581,-196 581,-218 814,-218 814,-196 581,-196"/>
<text text-anchor="start" x="601" y="-204.2" font-family="Helvetica,sans-Serif" font-size="11.00">created_on</text>
<polygon fill="none" stroke="black" points="814,-196 814,-218 935,-218 935,-196 814,-196"/>
<text text-anchor="start" x="817" y="-204.2" font-family="Helvetica,sans-Serif" font-size="11.00">timestamp[29,6]</text>
<polygon fill="none" stroke="black" points="581,-174 581,-196 814,-196 814,-174 581,-174"/>
<text text-anchor="start" x="601" y="-182.2" font-family="Helvetica,sans-Serif" font-size="11.00">updated_on</text>
<polygon fill="none" stroke="black" points="814,-174 814,-196 935,-196 935,-174 814,-174"/>
<text text-anchor="start" x="817" y="-182.2" font-family="Helvetica,sans-Serif" font-size="11.00">timestamp[29,6]</text>
<polygon fill="none" stroke="black" points="581,-152 581,-174 814,-174 814,-152 581,-152"/>
<image xlink:href="../../images/foreignKeys.png" width="11px" height="12px" preserveAspectRatio="xMinYMin meet" x="586" y="-169"/>
<text text-anchor="start" x="601" y="-160.2" font-family="Helvetica,sans-Serif" font-size="11.00">chargeback_rate_detail_measure_id</text>
<polygon fill="none" stroke="black" points="814,-152 814,-174 935,-174 935,-152 814,-152"/>
<text text-anchor="start" x="817" y="-160.2" font-family="Helvetica,sans-Serif" font-size="11.00">int8[19]</text>
<polygon fill="none" stroke="black" points="581,-130 581,-152 814,-152 814,-130 581,-130"/>
<text text-anchor="start" x="601" y="-138.2" font-family="Helvetica,sans-Serif" font-size="11.00">chargeback_rate_detail_currency_id</text>
<polygon fill="none" stroke="black" points="814,-130 814,-152 935,-152 935,-130 814,-130"/>
<text text-anchor="start" x="817" y="-138.2" font-family="Helvetica,sans-Serif" font-size="11.00">int8[19]</text>
<polygon fill="none" stroke="black" points="581,-108 581,-130 814,-130 814,-108 581,-108"/>
<image xlink:href="../../images/foreignKeys.png" width="11px" height="12px" preserveAspectRatio="xMinYMin meet" x="586" y="-125"/>
<text text-anchor="start" x="601" y="-116.2" font-family="Helvetica,sans-Serif" font-size="11.00">chargeable_field_id</text>
<polygon fill="none" stroke="black" points="814,-108 814,-130 935,-130 935,-108 814,-108"/>
<text text-anchor="start" x="817" y="-116.2" font-family="Helvetica,sans-Serif" font-size="11.00">int8[19]</text>
<polygon fill="none" stroke="black" points="581,-86 581,-108 814,-108 814,-86 581,-86"/>
<text text-anchor="start" x="601" y="-94.2" font-family="Helvetica,sans-Serif" font-size="11.00">sub_metric</text>
<polygon fill="none" stroke="black" points="814,-86 814,-108 935,-108 935,-86 814,-86"/>
<text text-anchor="start" x="817" y="-94.2" font-family="Helvetica,sans-Serif" font-size="11.00">varchar[2147483647]</text>
<polygon fill="#ffffff" stroke="none" points="581,-68 581,-86 702,-86 702,-68 581,-68"/>
<polygon fill="none" stroke="black" points="581,-68 581,-86 702,-86 702,-68 581,-68"/>
<text text-anchor="start" x="584" y="-74.2" font-family="Helvetica,sans-Serif" font-size="11.00">&lt; 3</text>
<polygon fill="#ffffff" stroke="none" points="702,-68 702,-86 814,-86 814,-68 702,-68"/>
<polygon fill="none" stroke="black" points="702,-68 702,-86 814,-86 814,-68 702,-68"/>
<text text-anchor="start" x="804" y="-74.2" font-family="Helvetica,sans-Serif" font-size="11.00"> &#160;</text>
<polygon fill="#ffffff" stroke="none" points="814,-68 814,-86 935,-86 935,-68 814,-68"/>
<polygon fill="none" stroke="black" points="814,-68 814,-86 935,-86 935,-68 814,-68"/>
<text text-anchor="start" x="915" y="-74.2" font-family="Helvetica,sans-Serif" font-size="11.00">1 &gt;</text>
<polygon fill="none" stroke="black" stroke-width="2" points="580,-67 580,-461 936,-461 936,-67 580,-67"/>
</a>
</g>
</g>
<!-- chargeback_rate_details&#45;&gt;chargeable_fields -->
<g id="edge2" class="edge"><title>chargeback_rate_details:chargeable_field_id:w&#45;&gt;chargeable_fields:id:e</title>
<path fill="none" stroke="black" d="M565.43,-116.736C554.327,-113.011 547.889,-106 531.5,-106"/>
<polygon fill="black" stroke="black" points="572.095,-117.771 579.447,-122.557 576.047,-118.386 580,-119 580,-119 580,-119 576.047,-118.386 580.553,-115.443 572.095,-117.771 572.095,-117.771"/>
<ellipse fill="none" stroke="black" cx="568.933" cy="-117.28" rx="3.2" ry="3.2"/>
</g>
<!-- chargeback_rate_details&#45;&gt;chargeback_rate_detail_measures -->
<g id="edge3" class="edge"><title>chargeback_rate_details:chargeback_rate_detail_measure_id:w&#45;&gt;chargeback_rate_detail_measures:id:e</title>
<path fill="none" stroke="black" d="M565.594,-163.115C447.474,-165.005 407.241,-189.079 289,-150 268.635,-143.269 270.449,-123 249,-123"/>
<polygon fill="black" stroke="black" points="572,-163.064 580.029,-166.6 576,-163.032 580,-163 580,-163 580,-163 576,-163.032 579.971,-159.4 572,-163.064 572,-163.064"/>
<ellipse fill="none" stroke="black" cx="568.8" cy="-163.089" rx="3.2" ry="3.2"/>
</g>
<!-- chargeback_rates -->
<g id="node4" class="node"><title>chargeback_rates</title>
<g id="a_node4"><a xlink:href="../../tables/chargeback_rates.html" xlink:title="chargeback_rates" target="_top">
<polygon fill="#ffffff" stroke="none" points="339.5,-187 339.5,-267 487.5,-267 487.5,-187 339.5,-187"/>
<polygon fill="#f5f5f5" stroke="none" points="339.5,-245 339.5,-267 487.5,-267 487.5,-245 339.5,-245"/>
<polygon fill="none" stroke="black" points="339.5,-245 339.5,-267 487.5,-267 487.5,-245 339.5,-245"/>
<text text-anchor="start" x="344.5" y="-254.2" font-family="Helvetica,sans-Serif" font-weight="bold" font-size="11.00">chargeback_rates</text>
<text text-anchor="start" x="448.5" y="-253.2" font-family="Helvetica,sans-Serif" font-size="11.00">[table]</text>
<polygon fill="none" stroke="black" points="339.5,-223 339.5,-245 487.5,-245 487.5,-223 339.5,-223"/>
<image xlink:href="../../images/primaryKeys.png" width="11px" height="12px" preserveAspectRatio="xMinYMin meet" x="344.5" y="-240"/>
<text text-anchor="start" x="371.5" y="-231.2" font-family="Helvetica,sans-Serif" font-size="11.00">id</text>
<polygon fill="none" stroke="black" points="339.5,-205 339.5,-223 487.5,-223 487.5,-205 339.5,-205"/>
<text text-anchor="start" x="342.5" y="-211.2" font-family="Helvetica,sans-Serif" font-size="11.00">...</text>
<polygon fill="#ffffff" stroke="none" points="339.5,-187 339.5,-205 401.5,-205 401.5,-187 339.5,-187"/>
<polygon fill="none" stroke="black" points="339.5,-187 339.5,-205 401.5,-205 401.5,-187 339.5,-187"/>
<text text-anchor="start" x="342.5" y="-193.2" font-family="Helvetica,sans-Serif" font-size="11.00"> &#160;</text>
<polygon fill="#ffffff" stroke="none" points="401.5,-187 401.5,-205 439.5,-205 439.5,-187 401.5,-187"/>
<polygon fill="none" stroke="black" points="401.5,-187 401.5,-205 439.5,-205 439.5,-187 401.5,-187"/>
<text text-anchor="start" x="429.5" y="-193.2" font-family="Helvetica,sans-Serif" font-size="11.00"> &#160;</text>
<polygon fill="#ffffff" stroke="none" points="439.5,-187 439.5,-205 487.5,-205 487.5,-187 439.5,-187"/>
<polygon fill="none" stroke="black" points="439.5,-187 439.5,-205 487.5,-205 487.5,-187 439.5,-187"/>
<text text-anchor="start" x="467.5" y="-193.2" font-family="Helvetica,sans-Serif" font-size="11.00">1 &gt;</text>
</a>
</g>
</g>
<!-- chargeback_rate_details&#45;&gt;chargeback_rates -->
<g id="edge4" class="edge"><title>chargeback_rate_details:chargeback_rate_id:w&#45;&gt;chargeback_rates:id:e</title>
<path fill="none" stroke="black" d="M565.253,-229.241C536.063,-230.24 523.818,-234 488.5,-234"/>
<polygon fill="black" stroke="black" points="572.001,-229.131 580.059,-232.6 576.001,-229.065 580,-229 580,-229 580,-229 576.001,-229.065 579.941,-225.4 572.001,-229.131 572.001,-229.131"/>
<ellipse fill="none" stroke="black" cx="568.801" cy="-229.183" rx="3.2" ry="3.2"/>
</g>
<!-- chargeback_tiers -->
<g id="node5" class="node"><title>chargeback_tiers</title>
<g id="a_node5"><a xlink:href="../../tables/chargeback_tiers.html" xlink:title="chargeback_tiers" target="_top">
<polygon fill="#ffffff" stroke="none" points="986,-380 986,-482 1161,-482 1161,-380 986,-380"/>
<polygon fill="#f5f5f5" stroke="none" points="986.5,-460 986.5,-482 1161.5,-482 1161.5,-460 986.5,-460"/>
<polygon fill="none" stroke="black" points="986.5,-460 986.5,-482 1161.5,-482 1161.5,-460 986.5,-460"/>
<text text-anchor="start" x="991.5" y="-469.2" font-family="Helvetica,sans-Serif" font-weight="bold" font-size="11.00">chargeback_tiers</text>
<text text-anchor="start" x="1122.5" y="-468.2" font-family="Helvetica,sans-Serif" font-size="11.00">[table]</text>
<polygon fill="none" stroke="black" points="986.5,-438 986.5,-460 1161.5,-460 1161.5,-438 986.5,-438"/>
<image xlink:href="../../images/primaryKeys.png" width="11px" height="12px" preserveAspectRatio="xMinYMin meet" x="991.5" y="-455"/>
<text text-anchor="start" x="1006.5" y="-446.2" font-family="Helvetica,sans-Serif" font-size="11.00">id</text>
<polygon fill="none" stroke="black" points="986.5,-416 986.5,-438 1161.5,-438 1161.5,-416 986.5,-416"/>
<image xlink:href="../../images/foreignKeys.png" width="11px" height="12px" preserveAspectRatio="xMinYMin meet" x="991.5" y="-433"/>
<text text-anchor="start" x="1006.5" y="-424.2" font-family="Helvetica,sans-Serif" font-size="11.00">chargeback_rate_detail_id</text>
<polygon fill="none" stroke="black" points="986.5,-398 986.5,-416 1161.5,-416 1161.5,-398 986.5,-398"/>
<text text-anchor="start" x="989.5" y="-404.2" font-family="Helvetica,sans-Serif" font-size="11.00">...</text>
<polygon fill="#ffffff" stroke="none" points="986.5,-380 986.5,-398 1072.5,-398 1072.5,-380 986.5,-380"/>
<polygon fill="none" stroke="black" points="986.5,-380 986.5,-398 1072.5,-398 1072.5,-380 986.5,-380"/>
<text text-anchor="start" x="989.5" y="-386.2" font-family="Helvetica,sans-Serif" font-size="11.00">&lt; 1</text>
<polygon fill="#ffffff" stroke="none" points="1072.5,-380 1072.5,-398 1116.5,-398 1116.5,-380 1072.5,-380"/>
<polygon fill="none" stroke="black" points="1072.5,-380 1072.5,-398 1116.5,-398 1116.5,-380 1072.5,-380"/>
<text text-anchor="start" x="1106.5" y="-386.2" font-family="Helvetica,sans-Serif" font-size="11.00"> &#160;</text>
<polygon fill="#ffffff" stroke="none" points="1116.5,-380 1116.5,-398 1161.5,-398 1161.5,-380 1116.5,-380"/>
<polygon fill="none" stroke="black" points="1116.5,-380 1116.5,-398 1161.5,-398 1161.5,-380 1116.5,-380"/>
<text text-anchor="start" x="1151.5" y="-386.2" font-family="Helvetica,sans-Serif" font-size="11.00"> &#160;</text>
</a>
</g>
</g>
<!-- chargeback_tiers&#45;&gt;chargeback_rate_details -->
<g id="edge5" class="edge"><title>chargeback_tiers:chargeback_rate_detail_id:w&#45;&gt;chargeback_rate_details:id.type:e</title>
<path fill="none" stroke="black" d="M970.843,-427C959.414,-427 952.156,-427 936,-427"/>
<polygon fill="black" stroke="black" points="977.5,-427 985.5,-430.6 981.5,-427 985.5,-427 985.5,-427 985.5,-427 981.5,-427 985.5,-423.4 977.5,-427 977.5,-427"/>
<ellipse fill="none" stroke="black" cx="974.3" cy="-427" rx="3.2" ry="3.2"/>
</g>
</g>
</svg>
