<?xml version="1.0" encoding="UTF-8" standalone="no"?>
<!DOCTYPE svg PUBLIC "-//W3C//DTD SVG 1.1//EN"
 "http://www.w3.org/Graphics/SVG/1.1/DTD/svg11.dtd">
<!-- Generated by graphviz version 2.38.0 (20140413.2041)
 -->
<!-- Title: twoDegreesRelationshipsDiagram Pages: 1 -->
<svg width="1129pt" height="333pt"
 viewBox="0.00 0.00 1129.00 333.00" xmlns="http://www.w3.org/2000/svg" xmlns:xlink="http://www.w3.org/1999/xlink">
<g id="graph0" class="graph" transform="scale(1 1) rotate(0) translate(4 329)">
<title>twoDegreesRelationshipsDiagram</title>
<polygon fill="#ffffff" stroke="none" points="-4,4 -4,-329 1125,-329 1125,4 -4,4"/>
<text text-anchor="middle" x="74.5" y="-7.2" font-family="Helvetica,sans-Serif" font-size="11.00">Generated by SchemaSpy</text>
<!-- chargeable_fields -->
<g id="node1" class="node"><title>chargeable_fields</title>
<g id="a_node1"><a xlink:href="../../tables/chargeable_fields.html" xlink:title="chargeable_fields" target="_top">
<polygon fill="#ffffff" stroke="none" points="404,-113 404,-215 637,-215 637,-113 404,-113"/>
<polygon fill="#f5f5f5" stroke="none" points="404.5,-193 404.5,-215 637.5,-215 637.5,-193 404.5,-193"/>
<polygon fill="none" stroke="black" points="404.5,-193 404.5,-215 637.5,-215 637.5,-193 404.5,-193"/>
<text text-anchor="start" x="409.5" y="-202.2" font-family="Helvetica,sans-Serif" font-weight="bold" font-size="11.00">chargeable_fields</text>
<text text-anchor="start" x="598.5" y="-201.2" font-family="Helvetica,sans-Serif" font-size="11.00">[table]</text>
<polygon fill="none" stroke="black" points="404.5,-171 404.5,-193 637.5,-193 637.5,-171 404.5,-171"/>
<image xlink:href="../../images/primaryKeys.png" width="11px" height="12px" preserveAspectRatio="xMinYMin meet" x="409.5" y="-188"/>
<text text-anchor="start" x="424.5" y="-179.2" font-family="Helvetica,sans-Serif" font-size="11.00">id</text>
<polygon fill="none" stroke="black" points="404.5,-149 404.5,-171 637.5,-171 637.5,-149 404.5,-149"/>
<image xlink:href="../../images/foreignKeys.png" width="11px" height="12px" preserveAspectRatio="xMinYMin meet" x="409.5" y="-166"/>
<text text-anchor="start" x="424.5" y="-157.2" font-family="Helvetica,sans-Serif" font-size="11.00">chargeback_rate_detail_measure_id</text>
<polygon fill="none" stroke="black" points="404.5,-131 404.5,-149 637.5,-149 637.5,-131 404.5,-131"/>
<text text-anchor="start" x="407.5" y="-137.2" font-family="Helvetica,sans-Serif" font-size="11.00">...</text>
<polygon fill="#ffffff" stroke="none" points="404.5,-113 404.5,-131 514.5,-131 514.5,-113 404.5,-113"/>
<polygon fill="none" stroke="black" points="404.5,-113 404.5,-131 514.5,-131 514.5,-113 404.5,-113"/>
<text text-anchor="start" x="407.5" y="-119.2" font-family="Helvetica,sans-Serif" font-size="11.00">&lt; 1</text>
<polygon fill="#ffffff" stroke="none" points="514.5,-113 514.5,-131 570.5,-131 570.5,-113 514.5,-113"/>
<polygon fill="none" stroke="black" points="514.5,-113 514.5,-131 570.5,-131 570.5,-113 514.5,-113"/>
<text text-anchor="start" x="560.5" y="-119.2" font-family="Helvetica,sans-Serif" font-size="11.00"> &#160;</text>
<polygon fill="#ffffff" stroke="none" points="570.5,-113 570.5,-131 637.5,-131 637.5,-113 570.5,-113"/>
<polygon fill="none" stroke="black" points="570.5,-113 570.5,-131 637.5,-131 637.5,-113 570.5,-113"/>
<text text-anchor="start" x="617.5" y="-119.2" font-family="Helvetica,sans-Serif" font-size="11.00">1 &gt;</text>
</a>
</g>
</g>
<!-- chargeback_rate_detail_measures -->
<g id="node2" class="node"><title>chargeback_rate_detail_measures</title>
<g id="a_node2"><a xlink:href="../../tables/chargeback_rate_detail_measures.html" xlink:title="chargeback_rate_detail_measures" target="_top">
<polygon fill="#ffffff" stroke="none" points="8,-37 8,-235 355,-235 355,-37 8,-37"/>
<polygon fill="#f5f5f5" stroke="none" points="10.5,-211 10.5,-233 353.5,-233 353.5,-211 10.5,-211"/>
<polygon fill="none" stroke="black" points="10.5,-211 10.5,-233 353.5,-233 353.5,-211 10.5,-211"/>
<text text-anchor="start" x="15.5" y="-220.2" font-family="Helvetica,sans-Serif" font-weight="bold" font-size="11.00">chargeback_rate_detail_measures</text>
<text text-anchor="start" x="314.5" y="-219.2" font-family="Helvetica,sans-Serif" font-size="11.00">[table]</text>
<polygon fill="none" stroke="black" points="10.5,-189 10.5,-211 232.5,-211 232.5,-189 10.5,-189"/>
<image xlink:href="../../images/primaryKeys.png" width="11px" height="12px" preserveAspectRatio="xMinYMin meet" x="15.5" y="-206"/>
<text text-anchor="start" x="30.5" y="-197.2" font-family="Helvetica,sans-Serif" font-size="11.00">id</text>
<polygon fill="none" stroke="black" points="232.5,-189 232.5,-211 353.5,-211 353.5,-189 232.5,-189"/>
<text text-anchor="start" x="235.5" y="-197.2" font-family="Helvetica,sans-Serif" font-size="11.00">bigserial[19]</text>
<polygon fill="none" stroke="black" points="10.5,-167 10.5,-189 232.5,-189 232.5,-167 10.5,-167"/>
<text text-anchor="start" x="30.5" y="-175.2" font-family="Helvetica,sans-Serif" font-size="11.00">name</text>
<polygon fill="none" stroke="black" points="232.5,-167 232.5,-189 353.5,-189 353.5,-167 232.5,-167"/>
<text text-anchor="start" x="235.5" y="-175.2" font-family="Helvetica,sans-Serif" font-size="11.00">varchar[2147483647]</text>
<polygon fill="none" stroke="black" points="10.5,-145 10.5,-167 232.5,-167 232.5,-145 10.5,-145"/>
<text text-anchor="start" x="30.5" y="-153.2" font-family="Helvetica,sans-Serif" font-size="11.00">units</text>
<polygon fill="none" stroke="black" points="232.5,-145 232.5,-167 353.5,-167 353.5,-145 232.5,-145"/>
<text text-anchor="start" x="235.5" y="-153.2" font-family="Helvetica,sans-Serif" font-size="11.00">varchar[2147483647]</text>
<polygon fill="none" stroke="black" points="10.5,-123 10.5,-145 232.5,-145 232.5,-123 10.5,-123"/>
<text text-anchor="start" x="30.5" y="-131.2" font-family="Helvetica,sans-Serif" font-size="11.00">units_display</text>
<polygon fill="none" stroke="black" points="232.5,-123 232.5,-145 353.5,-145 353.5,-123 232.5,-123"/>
<text text-anchor="start" x="235.5" y="-131.2" font-family="Helvetica,sans-Serif" font-size="11.00">varchar[2147483647]</text>
<polygon fill="none" stroke="black" points="10.5,-101 10.5,-123 232.5,-123 232.5,-101 10.5,-101"/>
<text text-anchor="start" x="30.5" y="-109.2" font-family="Helvetica,sans-Serif" font-size="11.00">step</text>
<polygon fill="none" stroke="black" points="232.5,-101 232.5,-123 353.5,-123 353.5,-101 232.5,-101"/>
<text text-anchor="start" x="235.5" y="-109.2" font-family="Helvetica,sans-Serif" font-size="11.00">int4[10]</text>
<polygon fill="none" stroke="black" points="10.5,-79 10.5,-101 232.5,-101 232.5,-79 10.5,-79"/>
<text text-anchor="start" x="30.5" y="-87.2" font-family="Helvetica,sans-Serif" font-size="11.00">created_at</text>
<polygon fill="none" stroke="black" points="232.5,-79 232.5,-101 353.5,-101 353.5,-79 232.5,-79"/>
<text text-anchor="start" x="235.5" y="-87.2" font-family="Helvetica,sans-Serif" font-size="11.00">timestamp[29,6]</text>
<polygon fill="none" stroke="black" points="10.5,-57 10.5,-79 232.5,-79 232.5,-57 10.5,-57"/>
<text text-anchor="start" x="30.5" y="-65.2" font-family="Helvetica,sans-Serif" font-size="11.00">updated_at</text>
<polygon fill="none" stroke="black" points="232.5,-57 232.5,-79 353.5,-79 353.5,-57 232.5,-57"/>
<text text-anchor="start" x="235.5" y="-65.2" font-family="Helvetica,sans-Serif" font-size="11.00">timestamp[29,6]</text>
<polygon fill="#ffffff" stroke="none" points="10.5,-39 10.5,-57 126.5,-57 126.5,-39 10.5,-39"/>
<polygon fill="none" stroke="black" points="10.5,-39 10.5,-57 126.5,-57 126.5,-39 10.5,-39"/>
<text text-anchor="start" x="13.5" y="-45.2" font-family="Helvetica,sans-Serif" font-size="11.00">&lt; 0</text>
<polygon fill="#ffffff" stroke="none" points="126.5,-39 126.5,-57 232.5,-57 232.5,-39 126.5,-39"/>
<polygon fill="none" stroke="black" points="126.5,-39 126.5,-57 232.5,-57 232.5,-39 126.5,-39"/>
<text text-anchor="start" x="222.5" y="-45.2" font-family="Helvetica,sans-Serif" font-size="11.00"> &#160;</text>
<polygon fill="#ffffff" stroke="none" points="232.5,-39 232.5,-57 353.5,-57 353.5,-39 232.5,-39"/>
<polygon fill="none" stroke="black" points="232.5,-39 232.5,-57 353.5,-57 353.5,-39 232.5,-39"/>
<text text-anchor="start" x="333.5" y="-45.2" font-family="Helvetica,sans-Serif" font-size="11.00">2 &gt;</text>
<polygon fill="none" stroke="black" stroke-width="2" points="9,-38 9,-234 354,-234 354,-38 9,-38"/>
</a>
</g>
</g>
<!-- chargeable_fields&#45;&gt;chargeback_rate_detail_measures -->
<g id="edge1" class="edge"><title>chargeable_fields:chargeback_rate_detail_measure_id:w&#45;&gt;chargeback_rate_detail_measures:id.type:e</title>
<path fill="none" stroke="black" d="M389.764,-164.589C376.863,-175.095 376.683,-200 354.5,-200"/>
<polygon fill="black" stroke="black" points="395.912,-162.535 404.641,-163.415 399.706,-161.267 403.5,-160 403.5,-160 403.5,-160 399.706,-161.267 402.359,-156.585 395.912,-162.535 395.912,-162.535"/>
<ellipse fill="none" stroke="black" cx="392.877" cy="-163.549" rx="3.20001" ry="3.20001"/>
</g>
<!-- chargeback_rate_details -->
<g id="node3" class="node"><title>chargeback_rate_details</title>
<g id="a_node3"><a xlink:href="../../tables/chargeback_rate_details.html" xlink:title="chargeback_rate_details" target="_top">
<polygon fill="#ffffff" stroke="none" points="686,-170 686,-316 919,-316 919,-170 686,-170"/>
<polygon fill="#f5f5f5" stroke="none" points="686.5,-294 686.5,-316 919.5,-316 919.5,-294 686.5,-294"/>
<polygon fill="none" stroke="black" points="686.5,-294 686.5,-316 919.5,-316 919.5,-294 686.5,-294"/>
<text text-anchor="start" x="691.5" y="-303.2" font-family="Helvetica,sans-Serif" font-weight="bold" font-size="11.00">chargeback_rate_details</text>
<text text-anchor="start" x="880.5" y="-302.2" font-family="Helvetica,sans-Serif" font-size="11.00">[table]</text>
<polygon fill="none" stroke="black" points="686.5,-272 686.5,-294 919.5,-294 919.5,-272 686.5,-272"/>
<image xlink:href="../../images/primaryKeys.png" width="11px" height="12px" preserveAspectRatio="xMinYMin meet" x="691.5" y="-289"/>
<text text-anchor="start" x="706.5" y="-280.2" font-family="Helvetica,sans-Serif" font-size="11.00">id</text>
<polygon fill="#ffffff" stroke="none" points="686.5,-250 686.5,-272 919.5,-272 919.5,-250 686.5,-250"/>
<polygon fill="none" stroke="black" points="686.5,-250 686.5,-272 919.5,-272 919.5,-250 686.5,-250"/>
<image xlink:href="../../images/foreignKeys.png" width="11px" height="12px" preserveAspectRatio="xMinYMin meet" x="691.5" y="-267"/>
<text text-anchor="start" x="706.5" y="-258.2" font-family="Helvetica,sans-Serif" font-size="11.00">chargeback_rate_id</text>
<polygon fill="none" stroke="black" points="686.5,-228 686.5,-250 919.5,-250 919.5,-228 686.5,-228"/>
<image xlink:href="../../images/foreignKeys.png" width="11px" height="12px" preserveAspectRatio="xMinYMin meet" x="691.5" y="-245"/>
<text text-anchor="start" x="706.5" y="-236.2" font-family="Helvetica,sans-Serif" font-size="11.00">chargeback_rate_detail_measure_id</text>
<polygon fill="none" stroke="black" points="686.5,-206 686.5,-228 919.5,-228 919.5,-206 686.5,-206"/>
<image xlink:href="../../images/foreignKeys.png" width="11px" height="12px" preserveAspectRatio="xMinYMin meet" x="691.5" y="-223"/>
<text text-anchor="start" x="706.5" y="-214.2" font-family="Helvetica,sans-Serif" font-size="11.00">chargeable_field_id</text>
<polygon fill="none" stroke="black" points="686.5,-188 686.5,-206 919.5,-206 919.5,-188 686.5,-188"/>
<text text-anchor="start" x="689.5" y="-194.2" font-family="Helvetica,sans-Serif" font-size="11.00">...</text>
<polygon fill="#ffffff" stroke="none" points="686.5,-170 686.5,-188 796.5,-188 796.5,-170 686.5,-170"/>
<polygon fill="none" stroke="black" points="686.5,-170 686.5,-188 796.5,-188 796.5,-170 686.5,-170"/>
<text text-anchor="start" x="689.5" y="-176.2" font-family="Helvetica,sans-Serif" font-size="11.00">&lt; 3</text>
<polygon fill="#ffffff" stroke="none" points="796.5,-170 796.5,-188 852.5,-188 852.5,-170 796.5,-170"/>
<polygon fill="none" stroke="black" points="796.5,-170 796.5,-188 852.5,-188 852.5,-170 796.5,-170"/>
<text text-anchor="start" x="842.5" y="-176.2" font-family="Helvetica,sans-Serif" font-size="11.00"> &#160;</text>
<polygon fill="#ffffff" stroke="none" points="852.5,-170 852.5,-188 919.5,-188 919.5,-170 852.5,-170"/>
<polygon fill="none" stroke="black" points="852.5,-170 852.5,-188 919.5,-188 919.5,-170 852.5,-170"/>
<text text-anchor="start" x="899.5" y="-176.2" font-family="Helvetica,sans-Serif" font-size="11.00">1 &gt;</text>
</a>
</g>
</g>
<!-- chargeback_rate_details&#45;&gt;chargeable_fields -->
<g id="edge2" class="edge"><title>chargeback_rate_details:chargeable_field_id:w&#45;&gt;chargeable_fields:id:e</title>
<path fill="none" stroke="black" d="M671.516,-212.133C660.131,-202.516 658.44,-182 638.5,-182"/>
<polygon fill="black" stroke="black" points="677.944,-214.37 684.317,-220.4 681.722,-215.685 685.5,-217 685.5,-217 685.5,-217 681.722,-215.685 686.683,-213.6 677.944,-214.37 677.944,-214.37"/>
<ellipse fill="none" stroke="black" cx="674.922" cy="-213.319" rx="3.20001" ry="3.20001"/>
</g>
<!-- chargeback_rate_details&#45;&gt;chargeback_rate_detail_measures -->
<g id="edge3" class="edge"><title>chargeback_rate_details:chargeback_rate_detail_measure_id:w&#45;&gt;chargeback_rate_detail_measures:id.type:e</title>
<path fill="none" stroke="black" d="M670.813,-239.111C553.625,-240.883 514.154,-262.844 396,-226 375.222,-219.521 376.265,-200 354.5,-200"/>
<polygon fill="black" stroke="black" points="677.5,-239.06 685.527,-242.6 681.5,-239.03 685.5,-239 685.5,-239 685.5,-239 681.5,-239.03 685.473,-235.4 677.5,-239.06 677.5,-239.06"/>
<ellipse fill="none" stroke="black" cx="674.3" cy="-239.084" rx="3.2" ry="3.2"/>
</g>
<!-- chargeback_rates -->
<g id="node4" class="node"><title>chargeback_rates</title>
<g id="a_node4"><a xlink:href="../../tables/chargeback_rates.html" xlink:title="chargeback_rates" target="_top">
<polygon fill="#ffffff" stroke="none" points="446.5,-263 446.5,-321 594.5,-321 594.5,-263 446.5,-263"/>
<polygon fill="#f5f5f5" stroke="none" points="446.5,-299 446.5,-321 594.5,-321 594.5,-299 446.5,-299"/>
<polygon fill="none" stroke="black" points="446.5,-299 446.5,-321 594.5,-321 594.5,-299 446.5,-299"/>
<text text-anchor="start" x="451.5" y="-308.2" font-family="Helvetica,sans-Serif" font-weight="bold" font-size="11.00">chargeback_rates</text>
<text text-anchor="start" x="555.5" y="-307.2" font-family="Helvetica,sans-Serif" font-size="11.00">[table]</text>
<polygon fill="none" stroke="black" points="446.5,-281 446.5,-299 594.5,-299 594.5,-281 446.5,-281"/>
<text text-anchor="start" x="449.5" y="-287.2" font-family="Helvetica,sans-Serif" font-size="11.00">...</text>
<polygon fill="#ffffff" stroke="none" points="446.5,-263 446.5,-281 508.5,-281 508.5,-263 446.5,-263"/>
<polygon fill="none" stroke="black" points="446.5,-263 446.5,-281 508.5,-281 508.5,-263 446.5,-263"/>
<text text-anchor="start" x="449.5" y="-269.2" font-family="Helvetica,sans-Serif" font-size="11.00"> &#160;</text>
<polygon fill="#ffffff" stroke="none" points="508.5,-263 508.5,-281 546.5,-281 546.5,-263 508.5,-263"/>
<polygon fill="none" stroke="black" points="508.5,-263 508.5,-281 546.5,-281 546.5,-263 508.5,-263"/>
<text text-anchor="start" x="536.5" y="-269.2" font-family="Helvetica,sans-Serif" font-size="11.00"> &#160;</text>
<polygon fill="#ffffff" stroke="none" points="546.5,-263 546.5,-281 594.5,-281 594.5,-263 546.5,-263"/>
<polygon fill="none" stroke="black" points="546.5,-263 546.5,-281 594.5,-281 594.5,-263 546.5,-263"/>
<text text-anchor="start" x="574.5" y="-269.2" font-family="Helvetica,sans-Serif" font-size="11.00">1 &gt;</text>
</a>
</g>
</g>
<!-- chargeback_rate_details&#45;&gt;chargeback_rates -->
<g id="edge4" class="edge"><title>chargeback_rate_details:chargeback_rate_id:w&#45;&gt;chargeback_rates:elipses:e</title>
<path fill="none" stroke="black" d="M670.892,-262.321C641.341,-267.995 632.108,-290 595.5,-290"/>
<polygon fill="black" stroke="black" points="677.533,-261.721 685.824,-264.585 681.516,-261.36 685.5,-261 685.5,-261 685.5,-261 681.516,-261.36 685.176,-257.415 677.533,-261.721 677.533,-261.721"/>
<ellipse fill="none" stroke="black" cx="674.346" cy="-262.009" rx="3.2" ry="3.2"/>
</g>
<!-- chargeback_tiers -->
<g id="node5" class="node"><title>chargeback_tiers</title>
<g id="a_node5"><a xlink:href="../../tables/chargeback_tiers.html" xlink:title="chargeback_tiers" target="_top">
<polygon fill="#ffffff" stroke="none" points="968,-256 968,-314 1113,-314 1113,-256 968,-256"/>
<polygon fill="#f5f5f5" stroke="none" points="968.5,-292 968.5,-314 1113.5,-314 1113.5,-292 968.5,-292"/>
<polygon fill="none" stroke="black" points="968.5,-292 968.5,-314 1113.5,-314 1113.5,-292 968.5,-292"/>
<text text-anchor="start" x="973.5" y="-301.2" font-family="Helvetica,sans-Serif" font-weight="bold" font-size="11.00">chargeback_tiers</text>
<text text-anchor="start" x="1074.5" y="-300.2" font-family="Helvetica,sans-Serif" font-size="11.00">[table]</text>
<polygon fill="none" stroke="black" points="968.5,-274 968.5,-292 1113.5,-292 1113.5,-274 968.5,-274"/>
<text text-anchor="start" x="971.5" y="-280.2" font-family="Helvetica,sans-Serif" font-size="11.00">...</text>
<polygon fill="#ffffff" stroke="none" points="968.5,-256 968.5,-274 1039.5,-274 1039.5,-256 968.5,-256"/>
<polygon fill="none" stroke="black" points="968.5,-256 968.5,-274 1039.5,-274 1039.5,-256 968.5,-256"/>
<text text-anchor="start" x="971.5" y="-262.2" font-family="Helvetica,sans-Serif" font-size="11.00">&lt; 1</text>
<polygon fill="#ffffff" stroke="none" points="1039.5,-256 1039.5,-274 1076.5,-274 1076.5,-256 1039.5,-256"/>
<polygon fill="none" stroke="black" points="1039.5,-256 1039.5,-274 1076.5,-274 1076.5,-256 1039.5,-256"/>
<text text-anchor="start" x="1066.5" y="-262.2" font-family="Helvetica,sans-Serif" font-size="11.00"> &#160;</text>
<polygon fill="#ffffff" stroke="none" points="1076.5,-256 1076.5,-274 1113.5,-274 1113.5,-256 1076.5,-256"/>
<polygon fill="none" stroke="black" points="1076.5,-256 1076.5,-274 1113.5,-274 1113.5,-256 1076.5,-256"/>
<text text-anchor="start" x="1103.5" y="-262.2" font-family="Helvetica,sans-Serif" font-size="11.00"> &#160;</text>
</a>
</g>
</g>
<!-- chargeback_tiers&#45;&gt;chargeback_rate_details -->
<g id="edge5" class="edge"><title>chargeback_tiers:elipses:w&#45;&gt;chargeback_rate_details:id:e</title>
<path fill="none" stroke="black" d="M952.896,-283C942.434,-283 935.514,-283 920.5,-283"/>
<polygon fill="black" stroke="black" points="959.5,-283 967.5,-286.6 963.5,-283 967.5,-283 967.5,-283 967.5,-283 963.5,-283 967.5,-279.4 959.5,-283 959.5,-283"/>
<ellipse fill="none" stroke="black" cx="956.3" cy="-283" rx="3.2" ry="3.2"/>
</g>
</g>
</svg>
