<?xml version="1.0" encoding="UTF-8" standalone="no"?>
<!DOCTYPE svg PUBLIC "-//W3C//DTD SVG 1.1//EN"
 "http://www.w3.org/Graphics/SVG/1.1/DTD/svg11.dtd">
<!-- Generated by graphviz version 2.38.0 (20140413.2041)
 -->
<!-- Title: twoDegreesRelationshipsDiagram Pages: 1 -->
<svg width="375pt" height="515pt"
 viewBox="0.00 0.00 375.00 515.00" xmlns="http://www.w3.org/2000/svg" xmlns:xlink="http://www.w3.org/1999/xlink">
<g id="graph0" class="graph" transform="scale(1 1) rotate(0) translate(4 511)">
<title>twoDegreesRelationshipsDiagram</title>
<polygon fill="#ffffff" stroke="none" points="-4,4 -4,-511 371,-511 371,4 -4,4"/>
<text text-anchor="middle" x="74.5" y="-7.2" font-family="Helvetica,sans-Serif" font-size="11.00">Generated by SchemaSpy</text>
<!-- classifications -->
<g id="node1" class="node"><title>classifications</title>
<g id="a_node1"><a xlink:href="../../tables/classifications.html" xlink:title="classifications" target="_top">
<polygon fill="#ffffff" stroke="none" points="129,-195 129,-503 359,-503 359,-195 129,-195"/>
<polygon fill="#f5f5f5" stroke="none" points="131,-479 131,-501 357,-501 357,-479 131,-479"/>
<polygon fill="none" stroke="black" points="131,-479 131,-501 357,-501 357,-479 131,-479"/>
<text text-anchor="start" x="136" y="-488.2" font-family="Helvetica,sans-Serif" font-weight="bold" font-size="11.00">classifications</text>
<text text-anchor="start" x="318" y="-487.2" font-family="Helvetica,sans-Serif" font-size="11.00">[table]</text>
<polygon fill="none" stroke="black" points="131,-457 131,-479 236,-479 236,-457 131,-457"/>
<image xlink:href="../../images/primaryKeys.png" width="11px" height="12px" preserveAspectRatio="xMinYMin meet" x="136" y="-474"/>
<text text-anchor="start" x="151" y="-465.2" font-family="Helvetica,sans-Serif" font-size="11.00">id</text>
<polygon fill="none" stroke="black" points="236,-457 236,-479 357,-479 357,-457 236,-457"/>
<text text-anchor="start" x="239" y="-465.2" font-family="Helvetica,sans-Serif" font-size="11.00">bigserial[19]</text>
<polygon fill="none" stroke="black" points="131,-435 131,-457 236,-457 236,-435 131,-435"/>
<text text-anchor="start" x="151" y="-443.2" font-family="Helvetica,sans-Serif" font-size="11.00">description</text>
<polygon fill="none" stroke="black" points="236,-435 236,-457 357,-457 357,-435 236,-435"/>
<text text-anchor="start" x="239" y="-443.2" font-family="Helvetica,sans-Serif" font-size="11.00">text[2147483647]</text>
<polygon fill="none" stroke="black" points="131,-413 131,-435 236,-435 236,-413 131,-413"/>
<text text-anchor="start" x="151" y="-421.2" font-family="Helvetica,sans-Serif" font-size="11.00">icon</text>
<polygon fill="none" stroke="black" points="236,-413 236,-435 357,-435 357,-413 236,-413"/>
<text text-anchor="start" x="239" y="-421.2" font-family="Helvetica,sans-Serif" font-size="11.00">varchar[2147483647]</text>
<polygon fill="none" stroke="black" points="131,-391 131,-413 236,-413 236,-391 131,-391"/>
<text text-anchor="start" x="151" y="-399.2" font-family="Helvetica,sans-Serif" font-size="11.00">read_only</text>
<polygon fill="none" stroke="black" points="236,-391 236,-413 357,-413 357,-391 236,-391"/>
<text text-anchor="start" x="239" y="-399.2" font-family="Helvetica,sans-Serif" font-size="11.00">bool[1]</text>
<polygon fill="none" stroke="black" points="131,-369 131,-391 236,-391 236,-369 131,-369"/>
<text text-anchor="start" x="151" y="-377.2" font-family="Helvetica,sans-Serif" font-size="11.00">syntax</text>
<polygon fill="none" stroke="black" points="236,-369 236,-391 357,-391 357,-369 236,-369"/>
<text text-anchor="start" x="239" y="-377.2" font-family="Helvetica,sans-Serif" font-size="11.00">varchar[2147483647]</text>
<polygon fill="none" stroke="black" points="131,-347 131,-369 236,-369 236,-347 131,-347"/>
<text text-anchor="start" x="151" y="-355.2" font-family="Helvetica,sans-Serif" font-size="11.00">single_value</text>
<polygon fill="none" stroke="black" points="236,-347 236,-369 357,-369 357,-347 236,-347"/>
<text text-anchor="start" x="239" y="-355.2" font-family="Helvetica,sans-Serif" font-size="11.00">bool[1]</text>
<polygon fill="none" stroke="black" points="131,-325 131,-347 236,-347 236,-325 131,-325"/>
<text text-anchor="start" x="151" y="-333.2" font-family="Helvetica,sans-Serif" font-size="11.00">example_text</text>
<polygon fill="none" stroke="black" points="236,-325 236,-347 357,-347 357,-325 236,-325"/>
<text text-anchor="start" x="239" y="-333.2" font-family="Helvetica,sans-Serif" font-size="11.00">text[2147483647]</text>
<polygon fill="#ffffff" stroke="none" points="131,-303 131,-325 236,-325 236,-303 131,-303"/>
<polygon fill="none" stroke="black" points="131,-303 131,-325 236,-325 236,-303 131,-303"/>
<image xlink:href="../../images/foreignKeys.png" width="11px" height="12px" preserveAspectRatio="xMinYMin meet" x="136" y="-320"/>
<text text-anchor="start" x="151" y="-311.2" font-family="Helvetica,sans-Serif" font-size="11.00">tag_id</text>
<polygon fill="none" stroke="black" points="236,-303 236,-325 357,-325 357,-303 236,-303"/>
<text text-anchor="start" x="239" y="-311.2" font-family="Helvetica,sans-Serif" font-size="11.00">int8[19]</text>
<polygon fill="#ffffff" stroke="none" points="131,-281 131,-303 236,-303 236,-281 131,-281"/>
<polygon fill="none" stroke="black" points="131,-281 131,-303 236,-303 236,-281 131,-281"/>
<text text-anchor="start" x="151" y="-289.2" font-family="Helvetica,sans-Serif" font-size="11.00">parent_id</text>
<polygon fill="none" stroke="black" points="236,-281 236,-303 357,-303 357,-281 236,-281"/>
<text text-anchor="start" x="239" y="-289.2" font-family="Helvetica,sans-Serif" font-size="11.00">int8[19]</text>
<polygon fill="none" stroke="black" points="131,-259 131,-281 236,-281 236,-259 131,-259"/>
<text text-anchor="start" x="151" y="-267.2" font-family="Helvetica,sans-Serif" font-size="11.00">show</text>
<polygon fill="none" stroke="black" points="236,-259 236,-281 357,-281 357,-259 236,-259"/>
<text text-anchor="start" x="239" y="-267.2" font-family="Helvetica,sans-Serif" font-size="11.00">bool[1]</text>
<polygon fill="none" stroke="black" points="131,-237 131,-259 236,-259 236,-237 131,-237"/>
<text text-anchor="start" x="151" y="-245.2" font-family="Helvetica,sans-Serif" font-size="11.00">default</text>
<polygon fill="none" stroke="black" points="236,-237 236,-259 357,-259 357,-237 236,-237"/>
<text text-anchor="start" x="239" y="-245.2" font-family="Helvetica,sans-Serif" font-size="11.00">bool[1]</text>
<polygon fill="none" stroke="black" points="131,-215 131,-237 236,-237 236,-215 131,-215"/>
<text text-anchor="start" x="151" y="-223.2" font-family="Helvetica,sans-Serif" font-size="11.00">perf_by_tag</text>
<polygon fill="none" stroke="black" points="236,-215 236,-237 357,-237 357,-215 236,-215"/>
<text text-anchor="start" x="239" y="-223.2" font-family="Helvetica,sans-Serif" font-size="11.00">bool[1]</text>
<polygon fill="#ffffff" stroke="none" points="131,-197 131,-215 188,-215 188,-197 131,-197"/>
<polygon fill="none" stroke="black" points="131,-197 131,-215 188,-215 188,-197 131,-197"/>
<text text-anchor="start" x="134" y="-203.2" font-family="Helvetica,sans-Serif" font-size="11.00">&lt; 1</text>
<polygon fill="#ffffff" stroke="none" points="188,-197 188,-215 236,-215 236,-197 188,-197"/>
<polygon fill="none" stroke="black" points="188,-197 188,-215 236,-215 236,-197 188,-197"/>
<text text-anchor="start" x="226" y="-203.2" font-family="Helvetica,sans-Serif" font-size="11.00"> &#160;</text>
<polygon fill="#ffffff" stroke="none" points="236,-197 236,-215 357,-215 357,-197 236,-197"/>
<polygon fill="none" stroke="black" points="236,-197 236,-215 357,-215 357,-197 236,-197"/>
<text text-anchor="start" x="337" y="-203.2" font-family="Helvetica,sans-Serif" font-size="11.00">0 &gt;</text>
<polygon fill="none" stroke="black" stroke-width="2" points="130,-196 130,-502 358,-502 358,-196 130,-196"/>
</a>
</g>
</g>
<!-- tags -->
<g id="node2" class="node"><title>tags</title>
<g id="a_node2"><a xlink:href="../../tables/tags.html" xlink:title="tags" target="_top">
<polygon fill="#ffffff" stroke="none" points="8,-96 8,-176 80,-176 80,-96 8,-96"/>
<polygon fill="#f5f5f5" stroke="none" points="8,-154 8,-176 80,-176 80,-154 8,-154"/>
<polygon fill="none" stroke="black" points="8,-154 8,-176 80,-176 80,-154 8,-154"/>
<text text-anchor="start" x="13" y="-163.2" font-family="Helvetica,sans-Serif" font-weight="bold" font-size="11.00">tags</text>
<text text-anchor="start" x="41" y="-162.2" font-family="Helvetica,sans-Serif" font-size="11.00">[table]</text>
<polygon fill="none" stroke="black" points="8,-132 8,-154 80,-154 80,-132 8,-132"/>
<image xlink:href="../../images/primaryKeys.png" width="11px" height="12px" preserveAspectRatio="xMinYMin meet" x="13" y="-149"/>
<text text-anchor="start" x="37" y="-140.2" font-family="Helvetica,sans-Serif" font-size="11.00">id</text>
<polygon fill="none" stroke="black" points="8,-114 8,-132 80,-132 80,-114 8,-114"/>
<text text-anchor="start" x="11" y="-120.2" font-family="Helvetica,sans-Serif" font-size="11.00">...</text>
<polygon fill="#ffffff" stroke="none" points="8,-96 8,-114 32,-114 32,-96 8,-96"/>
<polygon fill="none" stroke="black" points="8,-96 8,-114 32,-114 32,-96 8,-96"/>
<text text-anchor="start" x="11" y="-102.2" font-family="Helvetica,sans-Serif" font-size="11.00"> &#160;</text>
<polygon fill="#ffffff" stroke="none" points="32,-96 32,-114 51,-114 51,-96 32,-96"/>
<polygon fill="none" stroke="black" points="32,-96 32,-114 51,-114 51,-96 32,-96"/>
<text text-anchor="start" x="41" y="-102.2" font-family="Helvetica,sans-Serif" font-size="11.00"> &#160;</text>
<polygon fill="#ffffff" stroke="none" points="51,-96 51,-114 80,-114 80,-96 51,-96"/>
<polygon fill="none" stroke="black" points="51,-96 51,-114 80,-114 80,-96 51,-96"/>
<text text-anchor="start" x="60" y="-102.2" font-family="Helvetica,sans-Serif" font-size="11.00">3 &gt;</text>
</a>
</g>
</g>
<!-- classifications&#45;&gt;tags -->
<g id="edge1" class="edge"><title>classifications:tag_id:w&#45;&gt;tags:id:e</title>
<path fill="none" stroke="black" d="M115.666,-311.45C65.7295,-290.178 154.345,-143 81,-143"/>
<polygon fill="black" stroke="black" points="122.124,-312.599 129.369,-317.544 126.062,-313.299 130,-314 130,-314 130,-314 126.062,-313.299 130.631,-310.456 122.124,-312.599 122.124,-312.599"/>
<ellipse fill="none" stroke="black" cx="118.973" cy="-312.038" rx="3.2" ry="3.2"/>
</g>
<!-- provider_tag_mappings -->
<g id="node3" class="node"><title>provider_tag_mappings</title>
<g id="a_node3"><a xlink:href="../../tables/provider_tag_mappings.html" xlink:title="provider_tag_mappings" target="_top">
<polygon fill="#ffffff" stroke="none" points="153.5,-116 153.5,-174 334.5,-174 334.5,-116 153.5,-116"/>
<polygon fill="#f5f5f5" stroke="none" points="154,-152 154,-174 335,-174 335,-152 154,-152"/>
<polygon fill="none" stroke="black" points="154,-152 154,-174 335,-174 335,-152 154,-152"/>
<text text-anchor="start" x="159" y="-161.2" font-family="Helvetica,sans-Serif" font-weight="bold" font-size="11.00">provider_tag_mappings</text>
<text text-anchor="start" x="296" y="-160.2" font-family="Helvetica,sans-Serif" font-size="11.00">[table]</text>
<polygon fill="none" stroke="black" points="154,-134 154,-152 335,-152 335,-134 154,-134"/>
<text text-anchor="start" x="157" y="-140.2" font-family="Helvetica,sans-Serif" font-size="11.00">...</text>
<polygon fill="#ffffff" stroke="none" points="154,-116 154,-134 243,-134 243,-116 154,-116"/>
<polygon fill="none" stroke="black" points="154,-116 154,-134 243,-134 243,-116 154,-116"/>
<text text-anchor="start" x="157" y="-122.2" font-family="Helvetica,sans-Serif" font-size="11.00">&lt; 1</text>
<polygon fill="#ffffff" stroke="none" points="243,-116 243,-134 289,-134 289,-116 243,-116"/>
<polygon fill="none" stroke="black" points="243,-116 243,-134 289,-134 289,-116 243,-116"/>
<text text-anchor="start" x="279" y="-122.2" font-family="Helvetica,sans-Serif" font-size="11.00"> &#160;</text>
<polygon fill="#ffffff" stroke="none" points="289,-116 289,-134 335,-134 335,-116 289,-116"/>
<polygon fill="none" stroke="black" points="289,-116 289,-134 335,-134 335,-116 289,-116"/>
<text text-anchor="start" x="325" y="-122.2" font-family="Helvetica,sans-Serif" font-size="11.00"> &#160;</text>
</a>
</g>
</g>
<!-- provider_tag_mappings&#45;&gt;tags -->
<g id="edge2" class="edge"><title>provider_tag_mappings:elipses:w&#45;&gt;tags:id:e</title>
<path fill="none" stroke="black" d="M138.383,-143C117.541,-143 107.5,-143 81,-143"/>
<polygon fill="black" stroke="black" points="145,-143 153,-146.6 149,-143 153,-143 153,-143 153,-143 149,-143 153,-139.4 145,-143 145,-143"/>
<ellipse fill="none" stroke="black" cx="141.8" cy="-143" rx="3.2" ry="3.2"/>
</g>
<!-- taggings -->
<g id="node4" class="node"><title>taggings</title>
<g id="a_node4"><a xlink:href="../../tables/taggings.html" xlink:title="taggings" target="_top">
<polygon fill="#ffffff" stroke="none" points="196.5,-37 196.5,-95 291.5,-95 291.5,-37 196.5,-37"/>
<polygon fill="#f5f5f5" stroke="none" points="197,-73 197,-95 292,-95 292,-73 197,-73"/>
<polygon fill="none" stroke="black" points="197,-73 197,-95 292,-95 292,-73 197,-73"/>
<text text-anchor="start" x="202" y="-82.2" font-family="Helvetica,sans-Serif" font-weight="bold" font-size="11.00">taggings</text>
<text text-anchor="start" x="253" y="-81.2" font-family="Helvetica,sans-Serif" font-size="11.00">[table]</text>
<polygon fill="none" stroke="black" points="197,-55 197,-73 292,-73 292,-55 197,-55"/>
<text text-anchor="start" x="200" y="-61.2" font-family="Helvetica,sans-Serif" font-size="11.00">...</text>
<polygon fill="#ffffff" stroke="none" points="197,-37 197,-55 243,-55 243,-37 197,-37"/>
<polygon fill="none" stroke="black" points="197,-37 197,-55 243,-55 243,-37 197,-37"/>
<text text-anchor="start" x="200" y="-43.2" font-family="Helvetica,sans-Serif" font-size="11.00">&lt; 1</text>
<polygon fill="#ffffff" stroke="none" points="243,-37 243,-55 267,-55 267,-37 243,-37"/>
<polygon fill="none" stroke="black" points="243,-37 243,-55 267,-55 267,-37 243,-37"/>
<text text-anchor="start" x="257" y="-43.2" font-family="Helvetica,sans-Serif" font-size="11.00"> &#160;</text>
<polygon fill="#ffffff" stroke="none" points="267,-37 267,-55 292,-55 292,-37 267,-37"/>
<polygon fill="none" stroke="black" points="267,-37 267,-55 292,-55 292,-37 267,-37"/>
<text text-anchor="start" x="282" y="-43.2" font-family="Helvetica,sans-Serif" font-size="11.00"> &#160;</text>
</a>
</g>
</g>
<!-- taggings&#45;&gt;tags -->
<g id="edge3" class="edge"><title>taggings:elipses:w&#45;&gt;tags:id:e</title>
<path fill="none" stroke="black" d="M181.64,-65.113C155.644,-69.5532 147.558,-86.6979 121,-106 101.41,-120.237 105.217,-143 81,-143"/>
<polygon fill="black" stroke="black" points="188.024,-64.6183 196.278,-67.5892 192.012,-64.3091 196,-64 196,-64 196,-64 192.012,-64.3091 195.722,-60.4108 188.024,-64.6183 188.024,-64.6183"/>
<ellipse fill="none" stroke="black" cx="184.833" cy="-64.8656" rx="3.2" ry="3.2"/>
</g>
</g>
</svg>
