<?xml version="1.0" encoding="UTF-8" standalone="no"?>
<!DOCTYPE svg PUBLIC "-//W3C//DTD SVG 1.1//EN"
 "http://www.w3.org/Graphics/SVG/1.1/DTD/svg11.dtd">
<!-- Generated by graphviz version 2.38.0 (20140413.2041)
 -->
<!-- Title: twoDegreesRelationshipsDiagram Pages: 1 -->
<svg width="1444pt" height="893pt"
 viewBox="0.00 0.00 1444.00 893.22" xmlns="http://www.w3.org/2000/svg" xmlns:xlink="http://www.w3.org/1999/xlink">
<g id="graph0" class="graph" transform="scale(1 1) rotate(0) translate(4 889.216)">
<title>twoDegreesRelationshipsDiagram</title>
<polygon fill="#ffffff" stroke="none" points="-4,4 -4,-889.216 1440,-889.216 1440,4 -4,4"/>
<text text-anchor="middle" x="74.5" y="-7.2" font-family="Helvetica,sans-Serif" font-size="11.00">Generated by SchemaSpy</text>
<!-- cloud_networks -->
<g id="node1" class="node"><title>cloud_networks</title>
<g id="a_node1"><a xlink:href="../../tables/cloud_networks.html" xlink:title="cloud_networks" target="_top">
<polygon fill="#ffffff" stroke="none" points="198.5,-256.216 198.5,-314.216 336.5,-314.216 336.5,-256.216 198.5,-256.216"/>
<polygon fill="#f5f5f5" stroke="none" points="198.5,-292.216 198.5,-314.216 336.5,-314.216 336.5,-292.216 198.5,-292.216"/>
<polygon fill="none" stroke="black" points="198.5,-292.216 198.5,-314.216 336.5,-314.216 336.5,-292.216 198.5,-292.216"/>
<text text-anchor="start" x="203.5" y="-301.416" font-family="Helvetica,sans-Serif" font-weight="bold" font-size="11.00">cloud_networks</text>
<text text-anchor="start" x="297.5" y="-300.416" font-family="Helvetica,sans-Serif" font-size="11.00">[table]</text>
<polygon fill="none" stroke="black" points="198.5,-274.216 198.5,-292.216 336.5,-292.216 336.5,-274.216 198.5,-274.216"/>
<text text-anchor="start" x="201.5" y="-280.416" font-family="Helvetica,sans-Serif" font-size="11.00">...</text>
<polygon fill="#ffffff" stroke="none" points="198.5,-256.216 198.5,-274.216 260.5,-274.216 260.5,-256.216 198.5,-256.216"/>
<polygon fill="none" stroke="black" points="198.5,-256.216 198.5,-274.216 260.5,-274.216 260.5,-256.216 198.5,-256.216"/>
<text text-anchor="start" x="201.5" y="-262.416" font-family="Helvetica,sans-Serif" font-size="11.00">&lt; 3</text>
<polygon fill="#ffffff" stroke="none" points="260.5,-256.216 260.5,-274.216 293.5,-274.216 293.5,-256.216 260.5,-256.216"/>
<polygon fill="none" stroke="black" points="260.5,-256.216 260.5,-274.216 293.5,-274.216 293.5,-256.216 260.5,-256.216"/>
<text text-anchor="start" x="283.5" y="-262.416" font-family="Helvetica,sans-Serif" font-size="11.00"> &#160;</text>
<polygon fill="#ffffff" stroke="none" points="293.5,-256.216 293.5,-274.216 336.5,-274.216 336.5,-256.216 293.5,-256.216"/>
<polygon fill="none" stroke="black" points="293.5,-256.216 293.5,-274.216 336.5,-274.216 336.5,-256.216 293.5,-256.216"/>
<text text-anchor="start" x="316.5" y="-262.416" font-family="Helvetica,sans-Serif" font-size="11.00">5 &gt;</text>
</a>
</g>
</g>
<!-- cloud_tenants -->
<g id="node2" class="node"><title>cloud_tenants</title>
<g id="a_node2"><a xlink:href="../../tables/cloud_tenants.html" xlink:title="cloud_tenants" target="_top">
<polygon fill="#ffffff" stroke="none" points="14,-166.216 14,-224.216 143,-224.216 143,-166.216 14,-166.216"/>
<polygon fill="#f5f5f5" stroke="none" points="14.5,-202.216 14.5,-224.216 143.5,-224.216 143.5,-202.216 14.5,-202.216"/>
<polygon fill="none" stroke="black" points="14.5,-202.216 14.5,-224.216 143.5,-224.216 143.5,-202.216 14.5,-202.216"/>
<text text-anchor="start" x="19.5" y="-211.416" font-family="Helvetica,sans-Serif" font-weight="bold" font-size="11.00">cloud_tenants</text>
<text text-anchor="start" x="104.5" y="-210.416" font-family="Helvetica,sans-Serif" font-size="11.00">[table]</text>
<polygon fill="none" stroke="black" points="14.5,-184.216 14.5,-202.216 143.5,-202.216 143.5,-184.216 14.5,-184.216"/>
<text text-anchor="start" x="17.5" y="-190.416" font-family="Helvetica,sans-Serif" font-size="11.00">...</text>
<polygon fill="#ffffff" stroke="none" points="14.5,-166.216 14.5,-184.216 63.5,-184.216 63.5,-166.216 14.5,-166.216"/>
<polygon fill="none" stroke="black" points="14.5,-166.216 14.5,-184.216 63.5,-184.216 63.5,-166.216 14.5,-166.216"/>
<text text-anchor="start" x="17.5" y="-172.416" font-family="Helvetica,sans-Serif" font-size="11.00"> &#160;</text>
<polygon fill="#ffffff" stroke="none" points="63.5,-166.216 63.5,-184.216 94.5,-184.216 94.5,-166.216 63.5,-166.216"/>
<polygon fill="none" stroke="black" points="63.5,-166.216 63.5,-184.216 94.5,-184.216 94.5,-166.216 63.5,-166.216"/>
<text text-anchor="start" x="84.5" y="-172.416" font-family="Helvetica,sans-Serif" font-size="11.00"> &#160;</text>
<polygon fill="#ffffff" stroke="none" points="94.5,-166.216 94.5,-184.216 143.5,-184.216 143.5,-166.216 94.5,-166.216"/>
<polygon fill="none" stroke="black" points="94.5,-166.216 94.5,-184.216 143.5,-184.216 143.5,-166.216 94.5,-166.216"/>
<text text-anchor="start" x="116.5" y="-172.416" font-family="Helvetica,sans-Serif" font-size="11.00">25 &gt;</text>
</a>
</g>
</g>
<!-- cloud_networks&#45;&gt;cloud_tenants -->
<g id="edge1" class="edge"><title>cloud_networks:elipses:w&#45;&gt;cloud_tenants:elipses:e</title>
<path fill="none" stroke="black" d="M183.479,-279.115C159.918,-261.508 184.937,-193.216 144.5,-193.216"/>
<polygon fill="black" stroke="black" points="189.822,-280.97 196.489,-286.671 193.661,-282.093 197.5,-283.216 197.5,-283.216 197.5,-283.216 193.661,-282.093 198.511,-279.761 189.822,-280.97 189.822,-280.97"/>
<ellipse fill="none" stroke="black" cx="186.75" cy="-280.072" rx="3.20001" ry="3.20001"/>
</g>
<!-- resource_groups -->
<g id="node3" class="node"><title>resource_groups</title>
<g id="a_node3"><a xlink:href="../../tables/resource_groups.html" xlink:title="resource_groups" target="_top">
<polygon fill="#ffffff" stroke="none" points="8,-256.216 8,-314.216 149,-314.216 149,-256.216 8,-256.216"/>
<polygon fill="#f5f5f5" stroke="none" points="8.5,-292.216 8.5,-314.216 149.5,-314.216 149.5,-292.216 8.5,-292.216"/>
<polygon fill="none" stroke="black" points="8.5,-292.216 8.5,-314.216 149.5,-314.216 149.5,-292.216 8.5,-292.216"/>
<text text-anchor="start" x="13.5" y="-301.416" font-family="Helvetica,sans-Serif" font-weight="bold" font-size="11.00">resource_groups</text>
<text text-anchor="start" x="110.5" y="-300.416" font-family="Helvetica,sans-Serif" font-size="11.00">[table]</text>
<polygon fill="none" stroke="black" points="8.5,-274.216 8.5,-292.216 149.5,-292.216 149.5,-274.216 8.5,-274.216"/>
<text text-anchor="start" x="11.5" y="-280.416" font-family="Helvetica,sans-Serif" font-size="11.00">...</text>
<polygon fill="#ffffff" stroke="none" points="8.5,-256.216 8.5,-274.216 67.5,-274.216 67.5,-256.216 8.5,-256.216"/>
<polygon fill="none" stroke="black" points="8.5,-256.216 8.5,-274.216 67.5,-274.216 67.5,-256.216 8.5,-256.216"/>
<text text-anchor="start" x="11.5" y="-262.416" font-family="Helvetica,sans-Serif" font-size="11.00"> &#160;</text>
<polygon fill="#ffffff" stroke="none" points="67.5,-256.216 67.5,-274.216 103.5,-274.216 103.5,-256.216 67.5,-256.216"/>
<polygon fill="none" stroke="black" points="67.5,-256.216 67.5,-274.216 103.5,-274.216 103.5,-256.216 67.5,-256.216"/>
<text text-anchor="start" x="93.5" y="-262.416" font-family="Helvetica,sans-Serif" font-size="11.00"> &#160;</text>
<polygon fill="#ffffff" stroke="none" points="103.5,-256.216 103.5,-274.216 149.5,-274.216 149.5,-256.216 103.5,-256.216"/>
<polygon fill="none" stroke="black" points="103.5,-256.216 103.5,-274.216 149.5,-274.216 149.5,-256.216 103.5,-256.216"/>
<text text-anchor="start" x="129.5" y="-262.416" font-family="Helvetica,sans-Serif" font-size="11.00">7 &gt;</text>
</a>
</g>
</g>
<!-- cloud_networks&#45;&gt;resource_groups -->
<g id="edge2" class="edge"><title>cloud_networks:elipses:w&#45;&gt;resource_groups:elipses:e</title>
<path fill="none" stroke="black" d="M182.896,-283.216C172.434,-283.216 165.514,-283.216 150.5,-283.216"/>
<polygon fill="black" stroke="black" points="189.5,-283.216 197.5,-286.816 193.5,-283.216 197.5,-283.216 197.5,-283.216 197.5,-283.216 193.5,-283.216 197.5,-279.616 189.5,-283.216 189.5,-283.216"/>
<ellipse fill="none" stroke="black" cx="186.3" cy="-283.216" rx="3.2" ry="3.2"/>
</g>
<!-- cloud_subnets -->
<g id="node4" class="node"><title>cloud_subnets</title>
<g id="a_node4"><a xlink:href="../../tables/cloud_subnets.html" xlink:title="cloud_subnets" target="_top">
<polygon fill="#ffffff" stroke="none" points="585,-266.216 585,-522.216 806,-522.216 806,-266.216 585,-266.216"/>
<polygon fill="#f5f5f5" stroke="none" points="585.5,-500.216 585.5,-522.216 806.5,-522.216 806.5,-500.216 585.5,-500.216"/>
<polygon fill="none" stroke="black" points="585.5,-500.216 585.5,-522.216 806.5,-522.216 806.5,-500.216 585.5,-500.216"/>
<text text-anchor="start" x="590.5" y="-509.416" font-family="Helvetica,sans-Serif" font-weight="bold" font-size="11.00">cloud_subnets</text>
<text text-anchor="start" x="767.5" y="-508.416" font-family="Helvetica,sans-Serif" font-size="11.00">[table]</text>
<polygon fill="none" stroke="black" points="585.5,-478.216 585.5,-500.216 806.5,-500.216 806.5,-478.216 585.5,-478.216"/>
<image xlink:href="../../images/primaryKeys.png" width="11px" height="12px" preserveAspectRatio="xMinYMin meet" x="590.5" y="-495.216"/>
<text text-anchor="start" x="605.5" y="-486.416" font-family="Helvetica,sans-Serif" font-size="11.00">id</text>
<polygon fill="#ffffff" stroke="none" points="585.5,-456.216 585.5,-478.216 806.5,-478.216 806.5,-456.216 585.5,-456.216"/>
<polygon fill="none" stroke="black" points="585.5,-456.216 585.5,-478.216 806.5,-478.216 806.5,-456.216 585.5,-456.216"/>
<text text-anchor="start" x="605.5" y="-464.416" font-family="Helvetica,sans-Serif" font-size="11.00">ems_id</text>
<polygon fill="none" stroke="black" points="585.5,-434.216 585.5,-456.216 806.5,-456.216 806.5,-434.216 585.5,-434.216"/>
<image xlink:href="../../images/foreignKeys.png" width="11px" height="12px" preserveAspectRatio="xMinYMin meet" x="590.5" y="-451.216"/>
<text text-anchor="start" x="605.5" y="-442.416" font-family="Helvetica,sans-Serif" font-size="11.00">availability_zone_id</text>
<polygon fill="#ffffff" stroke="none" points="585.5,-412.216 585.5,-434.216 806.5,-434.216 806.5,-412.216 585.5,-412.216"/>
<polygon fill="none" stroke="black" points="585.5,-412.216 585.5,-434.216 806.5,-434.216 806.5,-412.216 585.5,-412.216"/>
<image xlink:href="../../images/foreignKeys.png" width="11px" height="12px" preserveAspectRatio="xMinYMin meet" x="590.5" y="-429.216"/>
<text text-anchor="start" x="605.5" y="-420.416" font-family="Helvetica,sans-Serif" font-size="11.00">cloud_network_id</text>
<polygon fill="#ffffff" stroke="none" points="585.5,-390.216 585.5,-412.216 806.5,-412.216 806.5,-390.216 585.5,-390.216"/>
<polygon fill="none" stroke="black" points="585.5,-390.216 585.5,-412.216 806.5,-412.216 806.5,-390.216 585.5,-390.216"/>
<image xlink:href="../../images/foreignKeys.png" width="11px" height="12px" preserveAspectRatio="xMinYMin meet" x="590.5" y="-407.216"/>
<text text-anchor="start" x="605.5" y="-398.416" font-family="Helvetica,sans-Serif" font-size="11.00">cloud_tenant_id</text>
<polygon fill="#ffffff" stroke="none" points="585.5,-368.216 585.5,-390.216 806.5,-390.216 806.5,-368.216 585.5,-368.216"/>
<polygon fill="none" stroke="black" points="585.5,-368.216 585.5,-390.216 806.5,-390.216 806.5,-368.216 585.5,-368.216"/>
<text text-anchor="start" x="605.5" y="-376.416" font-family="Helvetica,sans-Serif" font-size="11.00">type</text>
<polygon fill="none" stroke="black" points="585.5,-346.216 585.5,-368.216 806.5,-368.216 806.5,-346.216 585.5,-346.216"/>
<image xlink:href="../../images/foreignKeys.png" width="11px" height="12px" preserveAspectRatio="xMinYMin meet" x="590.5" y="-363.216"/>
<text text-anchor="start" x="605.5" y="-354.416" font-family="Helvetica,sans-Serif" font-size="11.00">network_router_id</text>
<polygon fill="#ffffff" stroke="none" points="585.5,-324.216 585.5,-346.216 806.5,-346.216 806.5,-324.216 585.5,-324.216"/>
<polygon fill="none" stroke="black" points="585.5,-324.216 585.5,-346.216 806.5,-346.216 806.5,-324.216 585.5,-324.216"/>
<image xlink:href="../../images/foreignKeys.png" width="11px" height="12px" preserveAspectRatio="xMinYMin meet" x="590.5" y="-341.216"/>
<text text-anchor="start" x="605.5" y="-332.416" font-family="Helvetica,sans-Serif" font-size="11.00">network_group_id</text>
<polygon fill="#ffffff" stroke="none" points="585.5,-302.216 585.5,-324.216 806.5,-324.216 806.5,-302.216 585.5,-302.216"/>
<polygon fill="none" stroke="black" points="585.5,-302.216 585.5,-324.216 806.5,-324.216 806.5,-302.216 585.5,-302.216"/>
<text text-anchor="start" x="605.5" y="-310.416" font-family="Helvetica,sans-Serif" font-size="11.00">parent_cloud_subnet_id</text>
<polygon fill="none" stroke="black" points="585.5,-284.216 585.5,-302.216 806.5,-302.216 806.5,-284.216 585.5,-284.216"/>
<text text-anchor="start" x="588.5" y="-290.416" font-family="Helvetica,sans-Serif" font-size="11.00">...</text>
<polygon fill="#ffffff" stroke="none" points="585.5,-266.216 585.5,-284.216 689.5,-284.216 689.5,-266.216 585.5,-266.216"/>
<polygon fill="none" stroke="black" points="585.5,-266.216 585.5,-284.216 689.5,-284.216 689.5,-266.216 585.5,-266.216"/>
<text text-anchor="start" x="588.5" y="-272.416" font-family="Helvetica,sans-Serif" font-size="11.00">&lt; 5</text>
<polygon fill="#ffffff" stroke="none" points="689.5,-266.216 689.5,-284.216 742.5,-284.216 742.5,-266.216 689.5,-266.216"/>
<polygon fill="none" stroke="black" points="689.5,-266.216 689.5,-284.216 742.5,-284.216 742.5,-266.216 689.5,-266.216"/>
<text text-anchor="start" x="732.5" y="-272.416" font-family="Helvetica,sans-Serif" font-size="11.00"> &#160;</text>
<polygon fill="#ffffff" stroke="none" points="742.5,-266.216 742.5,-284.216 806.5,-284.216 806.5,-266.216 742.5,-266.216"/>
<polygon fill="none" stroke="black" points="742.5,-266.216 742.5,-284.216 806.5,-284.216 806.5,-266.216 742.5,-266.216"/>
<text text-anchor="start" x="786.5" y="-272.416" font-family="Helvetica,sans-Serif" font-size="11.00">4 &gt;</text>
</a>
</g>
</g>
<!-- cloud_subnets&#45;&gt;cloud_networks -->
<g id="edge4" class="edge"><title>cloud_subnets:cloud_network_id:w&#45;&gt;cloud_networks:elipses:e</title>
<path fill="none" stroke="black" d="M570.197,-420.069C545.668,-405.897 577.284,-347.504 544,-320.216 471.896,-261.101 430.739,-283.216 337.5,-283.216"/>
<polygon fill="black" stroke="black" points="576.687,-421.497 583.726,-426.732 580.593,-422.356 584.5,-423.216 584.5,-423.216 584.5,-423.216 580.593,-422.356 585.274,-419.7 576.687,-421.497 576.687,-421.497"/>
<ellipse fill="none" stroke="black" cx="573.562" cy="-420.809" rx="3.2" ry="3.2"/>
</g>
<!-- cloud_subnets&#45;&gt;cloud_tenants -->
<g id="edge5" class="edge"><title>cloud_subnets:cloud_tenant_id:w&#45;&gt;cloud_tenants:elipses:e</title>
<path fill="none" stroke="black" d="M570.082,-398.673C537.202,-384.089 583.341,-310.502 544,-275.216 409.067,-154.189 325.757,-193.216 144.5,-193.216"/>
<polygon fill="black" stroke="black" points="576.622,-399.826 583.875,-404.761 580.561,-400.521 584.5,-401.216 584.5,-401.216 584.5,-401.216 580.561,-400.521 585.125,-397.67 576.622,-399.826 576.622,-399.826"/>
<ellipse fill="none" stroke="black" cx="573.47" cy="-399.27" rx="3.2" ry="3.2"/>
</g>
<!-- availability_zones -->
<g id="node5" class="node"><title>availability_zones</title>
<g id="a_node5"><a xlink:href="../../tables/availability_zones.html" xlink:title="availability_zones" target="_top">
<polygon fill="#ffffff" stroke="none" points="386,-359.216 386,-417.216 536,-417.216 536,-359.216 386,-359.216"/>
<polygon fill="#f5f5f5" stroke="none" points="386,-395.216 386,-417.216 536,-417.216 536,-395.216 386,-395.216"/>
<polygon fill="none" stroke="black" points="386,-395.216 386,-417.216 536,-417.216 536,-395.216 386,-395.216"/>
<text text-anchor="start" x="391" y="-404.416" font-family="Helvetica,sans-Serif" font-weight="bold" font-size="11.00">availability_zones</text>
<text text-anchor="start" x="497" y="-403.416" font-family="Helvetica,sans-Serif" font-size="11.00">[table]</text>
<polygon fill="none" stroke="black" points="386,-377.216 386,-395.216 536,-395.216 536,-377.216 386,-377.216"/>
<text text-anchor="start" x="389" y="-383.416" font-family="Helvetica,sans-Serif" font-size="11.00">...</text>
<polygon fill="#ffffff" stroke="none" points="386,-359.216 386,-377.216 449,-377.216 449,-359.216 386,-359.216"/>
<polygon fill="none" stroke="black" points="386,-359.216 386,-377.216 449,-377.216 449,-359.216 386,-359.216"/>
<text text-anchor="start" x="389" y="-365.416" font-family="Helvetica,sans-Serif" font-size="11.00"> &#160;</text>
<polygon fill="#ffffff" stroke="none" points="449,-359.216 449,-377.216 487,-377.216 487,-359.216 449,-359.216"/>
<polygon fill="none" stroke="black" points="449,-359.216 449,-377.216 487,-377.216 487,-359.216 449,-359.216"/>
<text text-anchor="start" x="477" y="-365.416" font-family="Helvetica,sans-Serif" font-size="11.00"> &#160;</text>
<polygon fill="#ffffff" stroke="none" points="487,-359.216 487,-377.216 536,-377.216 536,-359.216 487,-359.216"/>
<polygon fill="none" stroke="black" points="487,-359.216 487,-377.216 536,-377.216 536,-359.216 487,-359.216"/>
<text text-anchor="start" x="516" y="-365.416" font-family="Helvetica,sans-Serif" font-size="11.00">8 &gt;</text>
</a>
</g>
</g>
<!-- cloud_subnets&#45;&gt;availability_zones -->
<g id="edge3" class="edge"><title>cloud_subnets:availability_zone_id:w&#45;&gt;availability_zones:elipses:e</title>
<path fill="none" stroke="black" d="M570.914,-440.185C556.234,-425.918 564.615,-386.216 537,-386.216"/>
<polygon fill="black" stroke="black" points="576.998,-442.438 583.25,-448.592 580.749,-443.827 584.5,-445.216 584.5,-445.216 584.5,-445.216 580.749,-443.827 585.75,-441.84 576.998,-442.438 576.998,-442.438"/>
<ellipse fill="none" stroke="black" cx="573.997" cy="-441.327" rx="3.20001" ry="3.20001"/>
</g>
<!-- network_groups -->
<g id="node6" class="node"><title>network_groups</title>
<g id="a_node6"><a xlink:href="../../tables/network_groups.html" xlink:title="network_groups" target="_top">
<polygon fill="#ffffff" stroke="none" points="198,-383.216 198,-441.216 337,-441.216 337,-383.216 198,-383.216"/>
<polygon fill="#f5f5f5" stroke="none" points="198.5,-419.216 198.5,-441.216 337.5,-441.216 337.5,-419.216 198.5,-419.216"/>
<polygon fill="none" stroke="black" points="198.5,-419.216 198.5,-441.216 337.5,-441.216 337.5,-419.216 198.5,-419.216"/>
<text text-anchor="start" x="203.5" y="-428.416" font-family="Helvetica,sans-Serif" font-weight="bold" font-size="11.00">network_groups</text>
<text text-anchor="start" x="298.5" y="-427.416" font-family="Helvetica,sans-Serif" font-size="11.00">[table]</text>
<polygon fill="none" stroke="black" points="198.5,-401.216 198.5,-419.216 337.5,-419.216 337.5,-401.216 198.5,-401.216"/>
<text text-anchor="start" x="201.5" y="-407.416" font-family="Helvetica,sans-Serif" font-size="11.00">...</text>
<polygon fill="#ffffff" stroke="none" points="198.5,-383.216 198.5,-401.216 261.5,-401.216 261.5,-383.216 198.5,-383.216"/>
<polygon fill="none" stroke="black" points="198.5,-383.216 198.5,-401.216 261.5,-401.216 261.5,-383.216 198.5,-383.216"/>
<text text-anchor="start" x="201.5" y="-389.416" font-family="Helvetica,sans-Serif" font-size="11.00">&lt; 1</text>
<polygon fill="#ffffff" stroke="none" points="261.5,-383.216 261.5,-401.216 294.5,-401.216 294.5,-383.216 261.5,-383.216"/>
<polygon fill="none" stroke="black" points="261.5,-383.216 261.5,-401.216 294.5,-401.216 294.5,-383.216 261.5,-383.216"/>
<text text-anchor="start" x="284.5" y="-389.416" font-family="Helvetica,sans-Serif" font-size="11.00"> &#160;</text>
<polygon fill="#ffffff" stroke="none" points="294.5,-383.216 294.5,-401.216 337.5,-401.216 337.5,-383.216 294.5,-383.216"/>
<polygon fill="none" stroke="black" points="294.5,-383.216 294.5,-401.216 337.5,-401.216 337.5,-383.216 294.5,-383.216"/>
<text text-anchor="start" x="317.5" y="-389.416" font-family="Helvetica,sans-Serif" font-size="11.00">3 &gt;</text>
</a>
</g>
</g>
<!-- cloud_subnets&#45;&gt;network_groups -->
<g id="edge6" class="edge"><title>cloud_subnets:network_group_id:w&#45;&gt;network_groups:elipses:e</title>
<path fill="none" stroke="black" d="M569.901,-334.941C488.526,-331.881 452.943,-305.112 378,-349.216 350.164,-365.597 370.799,-410.216 338.5,-410.216"/>
<polygon fill="black" stroke="black" points="576.501,-335.065 584.432,-338.815 580.501,-335.14 584.5,-335.216 584.5,-335.216 584.5,-335.216 580.501,-335.14 584.568,-331.616 576.501,-335.065 576.501,-335.065"/>
<ellipse fill="none" stroke="black" cx="573.302" cy="-335.005" rx="3.2" ry="3.2"/>
</g>
<!-- network_routers -->
<g id="node7" class="node"><title>network_routers</title>
<g id="a_node7"><a xlink:href="../../tables/network_routers.html" xlink:title="network_routers" target="_top">
<polygon fill="#ffffff" stroke="none" points="389.5,-438.216 389.5,-496.216 532.5,-496.216 532.5,-438.216 389.5,-438.216"/>
<polygon fill="#f5f5f5" stroke="none" points="390,-474.216 390,-496.216 533,-496.216 533,-474.216 390,-474.216"/>
<polygon fill="none" stroke="black" points="390,-474.216 390,-496.216 533,-496.216 533,-474.216 390,-474.216"/>
<text text-anchor="start" x="395" y="-483.416" font-family="Helvetica,sans-Serif" font-weight="bold" font-size="11.00">network_routers</text>
<text text-anchor="start" x="494" y="-482.416" font-family="Helvetica,sans-Serif" font-size="11.00">[table]</text>
<polygon fill="none" stroke="black" points="390,-456.216 390,-474.216 533,-474.216 533,-456.216 390,-456.216"/>
<text text-anchor="start" x="393" y="-462.416" font-family="Helvetica,sans-Serif" font-size="11.00">...</text>
<polygon fill="#ffffff" stroke="none" points="390,-438.216 390,-456.216 455,-456.216 455,-438.216 390,-438.216"/>
<polygon fill="none" stroke="black" points="390,-438.216 390,-456.216 455,-456.216 455,-438.216 390,-438.216"/>
<text text-anchor="start" x="393" y="-444.416" font-family="Helvetica,sans-Serif" font-size="11.00">&lt; 3</text>
<polygon fill="#ffffff" stroke="none" points="455,-438.216 455,-456.216 489,-456.216 489,-438.216 455,-438.216"/>
<polygon fill="none" stroke="black" points="455,-438.216 455,-456.216 489,-456.216 489,-438.216 455,-438.216"/>
<text text-anchor="start" x="479" y="-444.416" font-family="Helvetica,sans-Serif" font-size="11.00"> &#160;</text>
<polygon fill="#ffffff" stroke="none" points="489,-438.216 489,-456.216 533,-456.216 533,-438.216 489,-438.216"/>
<polygon fill="none" stroke="black" points="489,-438.216 489,-456.216 533,-456.216 533,-438.216 489,-438.216"/>
<text text-anchor="start" x="513" y="-444.416" font-family="Helvetica,sans-Serif" font-size="11.00">3 &gt;</text>
</a>
</g>
</g>
<!-- cloud_subnets&#45;&gt;network_routers -->
<g id="edge7" class="edge"><title>cloud_subnets:network_router_id:w&#45;&gt;network_routers:elipses:e</title>
<path fill="none" stroke="black" d="M570.353,-361.06C542.689,-380.299 580.986,-465.216 534,-465.216"/>
<polygon fill="black" stroke="black" points="576.78,-359.313 585.444,-360.69 580.64,-358.265 584.5,-357.216 584.5,-357.216 584.5,-357.216 580.64,-358.265 583.556,-353.742 576.78,-359.313 576.78,-359.313"/>
<ellipse fill="none" stroke="black" cx="573.692" cy="-360.152" rx="3.2" ry="3.2"/>
</g>
<!-- network_routers&#45;&gt;cloud_networks -->
<g id="edge24" class="edge"><title>network_routers:elipses:w&#45;&gt;cloud_networks:elipses:e</title>
<path fill="none" stroke="black" d="M374.445,-462.781C319.943,-441.183 415.818,-283.216 337.5,-283.216"/>
<polygon fill="black" stroke="black" points="381.11,-463.896 388.406,-468.766 385.055,-464.556 389,-465.216 389,-465.216 389,-465.216 385.055,-464.556 389.594,-461.665 381.11,-463.896 381.11,-463.896"/>
<ellipse fill="none" stroke="black" cx="377.954" cy="-463.367" rx="3.2" ry="3.2"/>
</g>
<!-- network_routers&#45;&gt;cloud_tenants -->
<g id="edge25" class="edge"><title>network_routers:elipses:w&#45;&gt;cloud_tenants:elipses:e</title>
<path fill="none" stroke="black" d="M374.349,-465.637C295.222,-470.162 251.825,-508.508 190,-452.216 103.581,-373.531 261.374,-193.216 144.5,-193.216"/>
<polygon fill="black" stroke="black" points="381.003,-465.446 389.104,-468.814 385.002,-465.331 389,-465.216 389,-465.216 389,-465.216 385.002,-465.331 388.896,-461.617 381.003,-465.446 381.003,-465.446"/>
<ellipse fill="none" stroke="black" cx="377.805" cy="-465.538" rx="3.2" ry="3.2"/>
</g>
<!-- network_routers&#45;&gt;network_groups -->
<g id="edge26" class="edge"><title>network_routers:elipses:w&#45;&gt;network_groups:elipses:e</title>
<path fill="none" stroke="black" d="M375.293,-460.526C359.934,-447.226 365.723,-410.216 338.5,-410.216"/>
<polygon fill="black" stroke="black" points="381.431,-462.626 387.835,-468.622 385.215,-463.921 389,-465.216 389,-465.216 389,-465.216 385.215,-463.921 390.165,-461.81 381.431,-462.626 381.431,-462.626"/>
<ellipse fill="none" stroke="black" cx="378.403" cy="-461.59" rx="3.20001" ry="3.20001"/>
</g>
<!-- cloud_subnets_network_ports -->
<g id="node8" class="node"><title>cloud_subnets_network_ports</title>
<g id="a_node8"><a xlink:href="../../tables/cloud_subnets_network_ports.html" xlink:title="cloud_subnets_network_ports" target="_top">
<polygon fill="#ffffff" stroke="none" points="1105,-535.216 1105,-667.216 1428,-667.216 1428,-535.216 1105,-535.216"/>
<polygon fill="#f5f5f5" stroke="none" points="1107.5,-643.216 1107.5,-665.216 1426.5,-665.216 1426.5,-643.216 1107.5,-643.216"/>
<polygon fill="none" stroke="black" points="1107.5,-643.216 1107.5,-665.216 1426.5,-665.216 1426.5,-643.216 1107.5,-643.216"/>
<text text-anchor="start" x="1112.5" y="-652.416" font-family="Helvetica,sans-Serif" font-weight="bold" font-size="11.00">cloud_subnets_network_ports</text>
<text text-anchor="start" x="1387.5" y="-651.416" font-family="Helvetica,sans-Serif" font-size="11.00">[table]</text>
<polygon fill="none" stroke="black" points="1107.5,-621.216 1107.5,-643.216 1305.5,-643.216 1305.5,-621.216 1107.5,-621.216"/>
<image xlink:href="../../images/primaryKeys.png" width="11px" height="12px" preserveAspectRatio="xMinYMin meet" x="1112.5" y="-638.216"/>
<text text-anchor="start" x="1127.5" y="-629.416" font-family="Helvetica,sans-Serif" font-size="11.00">id</text>
<polygon fill="none" stroke="black" points="1305.5,-621.216 1305.5,-643.216 1426.5,-643.216 1426.5,-621.216 1305.5,-621.216"/>
<text text-anchor="start" x="1308.5" y="-629.416" font-family="Helvetica,sans-Serif" font-size="11.00">bigserial[19]</text>
<polygon fill="#ffffff" stroke="none" points="1107.5,-599.216 1107.5,-621.216 1305.5,-621.216 1305.5,-599.216 1107.5,-599.216"/>
<polygon fill="none" stroke="black" points="1107.5,-599.216 1107.5,-621.216 1305.5,-621.216 1305.5,-599.216 1107.5,-599.216"/>
<image xlink:href="../../images/foreignKeys.png" width="11px" height="12px" preserveAspectRatio="xMinYMin meet" x="1112.5" y="-616.216"/>
<text text-anchor="start" x="1127.5" y="-607.416" font-family="Helvetica,sans-Serif" font-size="11.00">cloud_subnet_id</text>
<polygon fill="none" stroke="black" points="1305.5,-599.216 1305.5,-621.216 1426.5,-621.216 1426.5,-599.216 1305.5,-599.216"/>
<text text-anchor="start" x="1308.5" y="-607.416" font-family="Helvetica,sans-Serif" font-size="11.00">int8[19]</text>
<polygon fill="#ffffff" stroke="none" points="1107.5,-577.216 1107.5,-599.216 1305.5,-599.216 1305.5,-577.216 1107.5,-577.216"/>
<polygon fill="none" stroke="black" points="1107.5,-577.216 1107.5,-599.216 1305.5,-599.216 1305.5,-577.216 1107.5,-577.216"/>
<image xlink:href="../../images/foreignKeys.png" width="11px" height="12px" preserveAspectRatio="xMinYMin meet" x="1112.5" y="-594.216"/>
<text text-anchor="start" x="1127.5" y="-585.416" font-family="Helvetica,sans-Serif" font-size="11.00">network_port_id</text>
<polygon fill="none" stroke="black" points="1305.5,-577.216 1305.5,-599.216 1426.5,-599.216 1426.5,-577.216 1305.5,-577.216"/>
<text text-anchor="start" x="1308.5" y="-585.416" font-family="Helvetica,sans-Serif" font-size="11.00">int8[19]</text>
<polygon fill="#ffffff" stroke="none" points="1107.5,-555.216 1107.5,-577.216 1305.5,-577.216 1305.5,-555.216 1107.5,-555.216"/>
<polygon fill="none" stroke="black" points="1107.5,-555.216 1107.5,-577.216 1305.5,-577.216 1305.5,-555.216 1107.5,-555.216"/>
<text text-anchor="start" x="1127.5" y="-563.416" font-family="Helvetica,sans-Serif" font-size="11.00">address</text>
<polygon fill="none" stroke="black" points="1305.5,-555.216 1305.5,-577.216 1426.5,-577.216 1426.5,-555.216 1305.5,-555.216"/>
<text text-anchor="start" x="1308.5" y="-563.416" font-family="Helvetica,sans-Serif" font-size="11.00">varchar[2147483647]</text>
<polygon fill="#ffffff" stroke="none" points="1107.5,-537.216 1107.5,-555.216 1211.5,-555.216 1211.5,-537.216 1107.5,-537.216"/>
<polygon fill="none" stroke="black" points="1107.5,-537.216 1107.5,-555.216 1211.5,-555.216 1211.5,-537.216 1107.5,-537.216"/>
<text text-anchor="start" x="1110.5" y="-543.416" font-family="Helvetica,sans-Serif" font-size="11.00">&lt; 2</text>
<polygon fill="#ffffff" stroke="none" points="1211.5,-537.216 1211.5,-555.216 1305.5,-555.216 1305.5,-537.216 1211.5,-537.216"/>
<polygon fill="none" stroke="black" points="1211.5,-537.216 1211.5,-555.216 1305.5,-555.216 1305.5,-537.216 1211.5,-537.216"/>
<text text-anchor="start" x="1295.5" y="-543.416" font-family="Helvetica,sans-Serif" font-size="11.00"> &#160;</text>
<polygon fill="#ffffff" stroke="none" points="1305.5,-537.216 1305.5,-555.216 1426.5,-555.216 1426.5,-537.216 1305.5,-537.216"/>
<polygon fill="none" stroke="black" points="1305.5,-537.216 1305.5,-555.216 1426.5,-555.216 1426.5,-537.216 1305.5,-537.216"/>
<text text-anchor="start" x="1406.5" y="-543.416" font-family="Helvetica,sans-Serif" font-size="11.00">0 &gt;</text>
<polygon fill="none" stroke="black" stroke-width="2" points="1106,-536.216 1106,-666.216 1427,-666.216 1427,-536.216 1106,-536.216"/>
</a>
</g>
</g>
<!-- cloud_subnets_network_ports&#45;&gt;cloud_subnets -->
<g id="edge8" class="edge"><title>cloud_subnets_network_ports:cloud_subnet_id:w&#45;&gt;cloud_subnets:id:e</title>
<path fill="none" stroke="black" d="M1092.35,-606.643C1082.46,-600.543 1079.08,-588.023 1064,-580.216 956.584,-524.595 928.462,-489.216 807.5,-489.216"/>
<polygon fill="black" stroke="black" points="1098.74,-608.257 1105.62,-613.706 1102.62,-609.236 1106.5,-610.216 1106.5,-610.216 1106.5,-610.216 1102.62,-609.236 1107.38,-606.725 1098.74,-608.257 1098.74,-608.257"/>
<ellipse fill="none" stroke="black" cx="1095.64" cy="-607.473" rx="3.2" ry="3.2"/>
</g>
<!-- network_ports -->
<g id="node9" class="node"><title>network_ports</title>
<g id="a_node9"><a xlink:href="../../tables/network_ports.html" xlink:title="network_ports" target="_top">
<polygon fill="#ffffff" stroke="none" points="855,-669.216 855,-881.216 1056,-881.216 1056,-669.216 855,-669.216"/>
<polygon fill="#f5f5f5" stroke="none" points="855.5,-859.216 855.5,-881.216 1056.5,-881.216 1056.5,-859.216 855.5,-859.216"/>
<polygon fill="none" stroke="black" points="855.5,-859.216 855.5,-881.216 1056.5,-881.216 1056.5,-859.216 855.5,-859.216"/>
<text text-anchor="start" x="860.5" y="-868.416" font-family="Helvetica,sans-Serif" font-weight="bold" font-size="11.00">network_ports</text>
<text text-anchor="start" x="1017.5" y="-867.416" font-family="Helvetica,sans-Serif" font-size="11.00">[table]</text>
<polygon fill="none" stroke="black" points="855.5,-837.216 855.5,-859.216 1056.5,-859.216 1056.5,-837.216 855.5,-837.216"/>
<image xlink:href="../../images/primaryKeys.png" width="11px" height="12px" preserveAspectRatio="xMinYMin meet" x="860.5" y="-854.216"/>
<text text-anchor="start" x="875.5" y="-845.416" font-family="Helvetica,sans-Serif" font-size="11.00">id</text>
<polygon fill="#ffffff" stroke="none" points="855.5,-815.216 855.5,-837.216 1056.5,-837.216 1056.5,-815.216 855.5,-815.216"/>
<polygon fill="none" stroke="black" points="855.5,-815.216 855.5,-837.216 1056.5,-837.216 1056.5,-815.216 855.5,-815.216"/>
<text text-anchor="start" x="875.5" y="-823.416" font-family="Helvetica,sans-Serif" font-size="11.00">type</text>
<polygon fill="#ffffff" stroke="none" points="855.5,-793.216 855.5,-815.216 1056.5,-815.216 1056.5,-793.216 855.5,-793.216"/>
<polygon fill="none" stroke="black" points="855.5,-793.216 855.5,-815.216 1056.5,-815.216 1056.5,-793.216 855.5,-793.216"/>
<text text-anchor="start" x="875.5" y="-801.416" font-family="Helvetica,sans-Serif" font-size="11.00">ems_id</text>
<polygon fill="#ffffff" stroke="none" points="855.5,-771.216 855.5,-793.216 1056.5,-793.216 1056.5,-771.216 855.5,-771.216"/>
<polygon fill="none" stroke="black" points="855.5,-771.216 855.5,-793.216 1056.5,-793.216 1056.5,-771.216 855.5,-771.216"/>
<text text-anchor="start" x="875.5" y="-779.416" font-family="Helvetica,sans-Serif" font-size="11.00">device_id</text>
<polygon fill="#ffffff" stroke="none" points="855.5,-749.216 855.5,-771.216 1056.5,-771.216 1056.5,-749.216 855.5,-749.216"/>
<polygon fill="none" stroke="black" points="855.5,-749.216 855.5,-771.216 1056.5,-771.216 1056.5,-749.216 855.5,-749.216"/>
<text text-anchor="start" x="875.5" y="-757.416" font-family="Helvetica,sans-Serif" font-size="11.00">device_type</text>
<polygon fill="#ffffff" stroke="none" points="855.5,-727.216 855.5,-749.216 1056.5,-749.216 1056.5,-727.216 855.5,-727.216"/>
<polygon fill="none" stroke="black" points="855.5,-727.216 855.5,-749.216 1056.5,-749.216 1056.5,-727.216 855.5,-727.216"/>
<image xlink:href="../../images/foreignKeys.png" width="11px" height="12px" preserveAspectRatio="xMinYMin meet" x="860.5" y="-744.216"/>
<text text-anchor="start" x="875.5" y="-735.416" font-family="Helvetica,sans-Serif" font-size="11.00">cloud_tenant_id</text>
<polygon fill="#ffffff" stroke="none" points="855.5,-705.216 855.5,-727.216 1056.5,-727.216 1056.5,-705.216 855.5,-705.216"/>
<polygon fill="none" stroke="black" points="855.5,-705.216 855.5,-727.216 1056.5,-727.216 1056.5,-705.216 855.5,-705.216"/>
<image xlink:href="../../images/foreignKeys.png" width="11px" height="12px" preserveAspectRatio="xMinYMin meet" x="860.5" y="-722.216"/>
<text text-anchor="start" x="875.5" y="-713.416" font-family="Helvetica,sans-Serif" font-size="11.00">resource_group_id</text>
<polygon fill="none" stroke="black" points="855.5,-687.216 855.5,-705.216 1056.5,-705.216 1056.5,-687.216 855.5,-687.216"/>
<text text-anchor="start" x="858.5" y="-693.416" font-family="Helvetica,sans-Serif" font-size="11.00">...</text>
<polygon fill="#ffffff" stroke="none" points="855.5,-669.216 855.5,-687.216 949.5,-687.216 949.5,-669.216 855.5,-669.216"/>
<polygon fill="none" stroke="black" points="855.5,-669.216 855.5,-687.216 949.5,-687.216 949.5,-669.216 855.5,-669.216"/>
<text text-anchor="start" x="858.5" y="-675.416" font-family="Helvetica,sans-Serif" font-size="11.00">&lt; 2</text>
<polygon fill="#ffffff" stroke="none" points="949.5,-669.216 949.5,-687.216 997.5,-687.216 997.5,-669.216 949.5,-669.216"/>
<polygon fill="none" stroke="black" points="949.5,-669.216 949.5,-687.216 997.5,-687.216 997.5,-669.216 949.5,-669.216"/>
<text text-anchor="start" x="987.5" y="-675.416" font-family="Helvetica,sans-Serif" font-size="11.00"> &#160;</text>
<polygon fill="#ffffff" stroke="none" points="997.5,-669.216 997.5,-687.216 1056.5,-687.216 1056.5,-669.216 997.5,-669.216"/>
<polygon fill="none" stroke="black" points="997.5,-669.216 997.5,-687.216 1056.5,-687.216 1056.5,-669.216 997.5,-669.216"/>
<text text-anchor="start" x="1036.5" y="-675.416" font-family="Helvetica,sans-Serif" font-size="11.00">4 &gt;</text>
</a>
</g>
</g>
<!-- cloud_subnets_network_ports&#45;&gt;network_ports -->
<g id="edge9" class="edge"><title>cloud_subnets_network_ports:network_port_id:w&#45;&gt;network_ports:id:e</title>
<path fill="none" stroke="black" d="M1093.11,-594.643C1059.45,-634.681 1110.78,-848.216 1057.5,-848.216"/>
<polygon fill="black" stroke="black" points="1099.29,-591.678 1108.06,-591.461 1102.89,-589.947 1106.5,-588.216 1106.5,-588.216 1106.5,-588.216 1102.89,-589.947 1104.94,-584.97 1099.29,-591.678 1099.29,-591.678"/>
<ellipse fill="none" stroke="black" cx="1096.4" cy="-593.063" rx="3.20001" ry="3.20001"/>
</g>
<!-- network_ports&#45;&gt;cloud_tenants -->
<g id="edge20" class="edge"><title>network_ports:cloud_tenant_id:w&#45;&gt;cloud_tenants:elipses:e</title>
<path fill="none" stroke="black" d="M839.79,-738.27C542.27,-740.444 358.618,-805.886 190,-556.216 144.499,-488.843 225.798,-193.216 144.5,-193.216"/>
<polygon fill="black" stroke="black" points="846.5,-738.245 854.513,-741.816 850.5,-738.231 854.5,-738.216 854.5,-738.216 854.5,-738.216 850.5,-738.231 854.487,-734.616 846.5,-738.245 846.5,-738.245"/>
<ellipse fill="none" stroke="black" cx="843.3" cy="-738.257" rx="3.2" ry="3.2"/>
</g>
<!-- network_ports&#45;&gt;resource_groups -->
<g id="edge21" class="edge"><title>network_ports:resource_group_id:w&#45;&gt;resource_groups:elipses:e</title>
<path fill="none" stroke="black" d="M839.89,-716.358C553.661,-721.937 399.035,-888.27 190,-686.216 125.3,-623.676 240.485,-283.216 150.5,-283.216"/>
<polygon fill="black" stroke="black" points="846.5,-716.294 854.535,-719.816 850.5,-716.255 854.5,-716.216 854.5,-716.216 854.5,-716.216 850.5,-716.255 854.465,-712.616 846.5,-716.294 846.5,-716.294"/>
<ellipse fill="none" stroke="black" cx="843.301" cy="-716.325" rx="3.2" ry="3.2"/>
</g>
<!-- floating_ips -->
<g id="node10" class="node"><title>floating_ips</title>
<g id="a_node10"><a xlink:href="../../tables/floating_ips.html" xlink:title="floating_ips" target="_top">
<polygon fill="#ffffff" stroke="none" points="1210,-227.216 1210,-285.216 1323,-285.216 1323,-227.216 1210,-227.216"/>
<polygon fill="#f5f5f5" stroke="none" points="1210.5,-263.216 1210.5,-285.216 1323.5,-285.216 1323.5,-263.216 1210.5,-263.216"/>
<polygon fill="none" stroke="black" points="1210.5,-263.216 1210.5,-285.216 1323.5,-285.216 1323.5,-263.216 1210.5,-263.216"/>
<text text-anchor="start" x="1215.5" y="-272.416" font-family="Helvetica,sans-Serif" font-weight="bold" font-size="11.00">floating_ips</text>
<text text-anchor="start" x="1284.5" y="-271.416" font-family="Helvetica,sans-Serif" font-size="11.00">[table]</text>
<polygon fill="none" stroke="black" points="1210.5,-245.216 1210.5,-263.216 1323.5,-263.216 1323.5,-245.216 1210.5,-245.216"/>
<text text-anchor="start" x="1213.5" y="-251.416" font-family="Helvetica,sans-Serif" font-size="11.00">...</text>
<polygon fill="#ffffff" stroke="none" points="1210.5,-227.216 1210.5,-245.216 1265.5,-245.216 1265.5,-227.216 1210.5,-227.216"/>
<polygon fill="none" stroke="black" points="1210.5,-227.216 1210.5,-245.216 1265.5,-245.216 1265.5,-227.216 1210.5,-227.216"/>
<text text-anchor="start" x="1213.5" y="-233.416" font-family="Helvetica,sans-Serif" font-size="11.00">&lt; 5</text>
<polygon fill="#ffffff" stroke="none" points="1265.5,-227.216 1265.5,-245.216 1294.5,-245.216 1294.5,-227.216 1265.5,-227.216"/>
<polygon fill="none" stroke="black" points="1265.5,-227.216 1265.5,-245.216 1294.5,-245.216 1294.5,-227.216 1265.5,-227.216"/>
<text text-anchor="start" x="1284.5" y="-233.416" font-family="Helvetica,sans-Serif" font-size="11.00"> &#160;</text>
<polygon fill="#ffffff" stroke="none" points="1294.5,-227.216 1294.5,-245.216 1323.5,-245.216 1323.5,-227.216 1294.5,-227.216"/>
<polygon fill="none" stroke="black" points="1294.5,-227.216 1294.5,-245.216 1323.5,-245.216 1323.5,-227.216 1294.5,-227.216"/>
<text text-anchor="start" x="1313.5" y="-233.416" font-family="Helvetica,sans-Serif" font-size="11.00"> &#160;</text>
</a>
</g>
</g>
<!-- floating_ips&#45;&gt;cloud_networks -->
<g id="edge10" class="edge"><title>floating_ips:elipses:w&#45;&gt;cloud_networks:elipses:e</title>
<path fill="none" stroke="black" d="M1194.87,-254.205C925.84,-253.808 852.837,-242.64 577,-256.216 488.261,-260.583 465.913,-262.369 378,-275.216 359.845,-277.869 355.848,-283.216 337.5,-283.216"/>
<polygon fill="black" stroke="black" points="1201.5,-254.21 1209.5,-257.816 1205.5,-254.213 1209.5,-254.216 1209.5,-254.216 1209.5,-254.216 1205.5,-254.213 1209.5,-250.616 1201.5,-254.21 1201.5,-254.21"/>
<ellipse fill="none" stroke="black" cx="1198.3" cy="-254.207" rx="3.2" ry="3.2"/>
</g>
<!-- floating_ips&#45;&gt;cloud_tenants -->
<g id="edge11" class="edge"><title>floating_ips:elipses:w&#45;&gt;cloud_tenants:elipses:e</title>
<path fill="none" stroke="black" d="M1194.96,-254.12C1152.73,-253.447 1132.76,-248.475 1097,-217.216 1071.71,-195.106 1091.47,-168.55 1064,-149.216 972.609,-84.8933 925.485,-130.008 814,-122.216 675.631,-112.545 308.821,-35.6541 190,-107.216 152.957,-129.525 187.742,-193.216 144.5,-193.216"/>
<polygon fill="black" stroke="black" points="1201.5,-254.163 1209.48,-257.816 1205.5,-254.19 1209.5,-254.216 1209.5,-254.216 1209.5,-254.216 1205.5,-254.19 1209.52,-250.616 1201.5,-254.163 1201.5,-254.163"/>
<ellipse fill="none" stroke="black" cx="1198.3" cy="-254.142" rx="3.2" ry="3.2"/>
</g>
<!-- floating_ips&#45;&gt;network_routers -->
<g id="edge13" class="edge"><title>floating_ips:elipses:w&#45;&gt;network_routers:elipses:e</title>
<path fill="none" stroke="black" d="M1194.86,-254.968C1128.56,-262.151 1125.52,-319.29 1064,-363.216 954.647,-441.294 942.421,-493.689 814,-533.216 763.664,-548.709 623.132,-558.625 577,-533.216 545.679,-515.964 569.758,-465.216 534,-465.216"/>
<polygon fill="black" stroke="black" points="1201.51,-254.626 1209.68,-257.811 1205.51,-254.421 1209.5,-254.216 1209.5,-254.216 1209.5,-254.216 1205.51,-254.421 1209.32,-250.621 1201.51,-254.626 1201.51,-254.626"/>
<ellipse fill="none" stroke="black" cx="1198.31" cy="-254.791" rx="3.2" ry="3.2"/>
</g>
<!-- floating_ips&#45;&gt;network_ports -->
<g id="edge12" class="edge"><title>floating_ips:elipses:w&#45;&gt;network_ports:id:e</title>
<path fill="none" stroke="black" d="M1195.03,-254.869C1082.96,-265.507 1128.92,-404.034 1097,-525.216 1087.79,-560.179 1093.66,-848.216 1057.5,-848.216"/>
<polygon fill="black" stroke="black" points="1201.51,-254.577 1209.66,-257.812 1205.5,-254.396 1209.5,-254.216 1209.5,-254.216 1209.5,-254.216 1205.5,-254.396 1209.34,-250.619 1201.51,-254.577 1201.51,-254.577"/>
<ellipse fill="none" stroke="black" cx="1198.31" cy="-254.721" rx="3.2" ry="3.2"/>
</g>
<!-- vms -->
<g id="node11" class="node"><title>vms</title>
<g id="a_node11"><a xlink:href="../../tables/vms.html" xlink:title="vms" target="_top">
<polygon fill="#ffffff" stroke="none" points="919.5,-160.216 919.5,-218.216 991.5,-218.216 991.5,-160.216 919.5,-160.216"/>
<polygon fill="#f5f5f5" stroke="none" points="919.5,-196.216 919.5,-218.216 991.5,-218.216 991.5,-196.216 919.5,-196.216"/>
<polygon fill="none" stroke="black" points="919.5,-196.216 919.5,-218.216 991.5,-218.216 991.5,-196.216 919.5,-196.216"/>
<text text-anchor="start" x="924.5" y="-205.416" font-family="Helvetica,sans-Serif" font-weight="bold" font-size="11.00">vms</text>
<text text-anchor="start" x="952.5" y="-204.416" font-family="Helvetica,sans-Serif" font-size="11.00">[table]</text>
<polygon fill="none" stroke="black" points="919.5,-178.216 919.5,-196.216 991.5,-196.216 991.5,-178.216 919.5,-178.216"/>
<text text-anchor="start" x="922.5" y="-184.416" font-family="Helvetica,sans-Serif" font-size="11.00">...</text>
<polygon fill="#ffffff" stroke="none" points="919.5,-160.216 919.5,-178.216 952.5,-178.216 952.5,-160.216 919.5,-160.216"/>
<polygon fill="none" stroke="black" points="919.5,-160.216 919.5,-178.216 952.5,-178.216 952.5,-160.216 919.5,-160.216"/>
<text text-anchor="start" x="922.5" y="-166.416" font-family="Helvetica,sans-Serif" font-size="11.00">&lt; 14</text>
<polygon fill="#ffffff" stroke="none" points="952.5,-160.216 952.5,-178.216 966.5,-178.216 966.5,-160.216 952.5,-160.216"/>
<polygon fill="none" stroke="black" points="952.5,-160.216 952.5,-178.216 966.5,-178.216 966.5,-160.216 952.5,-160.216"/>
<text text-anchor="start" x="956.5" y="-166.416" font-family="Helvetica,sans-Serif" font-size="11.00"> &#160;</text>
<polygon fill="#ffffff" stroke="none" points="966.5,-160.216 966.5,-178.216 991.5,-178.216 991.5,-160.216 966.5,-160.216"/>
<polygon fill="none" stroke="black" points="966.5,-160.216 966.5,-178.216 991.5,-178.216 991.5,-160.216 966.5,-160.216"/>
<text text-anchor="start" x="971.5" y="-166.416" font-family="Helvetica,sans-Serif" font-size="11.00">7 &gt;</text>
</a>
</g>
</g>
<!-- floating_ips&#45;&gt;vms -->
<g id="edge14" class="edge"><title>floating_ips:elipses:w&#45;&gt;vms:elipses:e</title>
<path fill="none" stroke="black" d="M1195.04,-253.734C1106.84,-247.708 1088.41,-187.216 992.5,-187.216"/>
<polygon fill="black" stroke="black" points="1201.5,-253.949 1209.38,-257.814 1205.5,-254.083 1209.5,-254.216 1209.5,-254.216 1209.5,-254.216 1205.5,-254.083 1209.62,-250.618 1201.5,-253.949 1201.5,-253.949"/>
<ellipse fill="none" stroke="black" cx="1198.31" cy="-253.843" rx="3.2" ry="3.2"/>
</g>
<!-- vms&#45;&gt;cloud_networks -->
<g id="edge34" class="edge"><title>vms:elipses:w&#45;&gt;cloud_networks:elipses:e</title>
<path fill="none" stroke="black" d="M903.9,-187.151C774.203,-186.099 477.914,-173.407 378,-232.216 353.056,-246.898 366.444,-283.216 337.5,-283.216"/>
<polygon fill="black" stroke="black" points="910.5,-187.18 918.484,-190.816 914.5,-187.198 918.5,-187.216 918.5,-187.216 918.5,-187.216 914.5,-187.198 918.516,-183.616 910.5,-187.18 910.5,-187.18"/>
<ellipse fill="none" stroke="black" cx="907.3" cy="-187.166" rx="3.2" ry="3.2"/>
</g>
<!-- vms&#45;&gt;cloud_tenants -->
<g id="edge36" class="edge"><title>vms:elipses:w&#45;&gt;cloud_tenants:elipses:e</title>
<path fill="none" stroke="black" d="M903.778,-186.322C867.315,-181.622 856.924,-159.677 814,-151.216 609.153,-110.834 553.703,-130.218 345,-124.216 276.14,-122.235 250.656,-91.5572 190,-124.216 157.656,-141.63 181.234,-193.216 144.5,-193.216"/>
<polygon fill="black" stroke="black" points="910.515,-186.731 918.282,-190.809 914.507,-186.973 918.5,-187.216 918.5,-187.216 918.5,-187.216 914.507,-186.973 918.718,-183.622 910.515,-186.731 910.515,-186.731"/>
<ellipse fill="none" stroke="black" cx="907.321" cy="-186.537" rx="3.2" ry="3.2"/>
</g>
<!-- vms&#45;&gt;resource_groups -->
<g id="edge37" class="edge"><title>vms:elipses:w&#45;&gt;resource_groups:elipses:e</title>
<path fill="none" stroke="black" d="M903.948,-187.104C868.956,-186.539 855.206,-184.004 814,-183.216 620.233,-179.509 569.255,-158.893 378,-190.216 291.963,-204.306 265.611,-202.811 190,-246.216 169.138,-258.191 174.554,-283.216 150.5,-283.216"/>
<polygon fill="black" stroke="black" points="910.5,-187.154 918.472,-190.816 914.5,-187.185 918.5,-187.216 918.5,-187.216 918.5,-187.216 914.5,-187.185 918.528,-183.616 910.5,-187.154 910.5,-187.154"/>
<ellipse fill="none" stroke="black" cx="907.3" cy="-187.129" rx="3.2" ry="3.2"/>
</g>
<!-- vms&#45;&gt;cloud_subnets -->
<g id="edge35" class="edge"><title>vms:elipses:w&#45;&gt;cloud_subnets:id:e</title>
<path fill="none" stroke="black" d="M904.118,-188.292C836.757,-199.287 874.702,-292.414 847,-369.216 827.949,-422.033 863.648,-489.216 807.5,-489.216"/>
<polygon fill="black" stroke="black" points="910.522,-187.813 918.769,-190.806 914.511,-187.514 918.5,-187.216 918.5,-187.216 918.5,-187.216 914.511,-187.514 918.231,-183.626 910.522,-187.813 910.522,-187.813"/>
<ellipse fill="none" stroke="black" cx="907.331" cy="-188.052" rx="3.2" ry="3.2"/>
</g>
<!-- vms&#45;&gt;availability_zones -->
<g id="edge33" class="edge"><title>vms:elipses:w&#45;&gt;availability_zones:elipses:e</title>
<path fill="none" stroke="black" d="M904.051,-188.09C835.481,-194.321 603.286,-232.415 577,-256.216 532.189,-296.791 597.451,-386.216 537,-386.216"/>
<polygon fill="black" stroke="black" points="910.515,-187.699 918.718,-190.809 914.507,-187.457 918.5,-187.216 918.5,-187.216 918.5,-187.216 914.507,-187.457 918.282,-183.622 910.515,-187.699 910.515,-187.699"/>
<ellipse fill="none" stroke="black" cx="907.32" cy="-187.893" rx="3.2" ry="3.2"/>
</g>
<!-- load_balancer_pool_members -->
<g id="node12" class="node"><title>load_balancer_pool_members</title>
<g id="a_node12"><a xlink:href="../../tables/load_balancer_pool_members.html" xlink:title="load_balancer_pool_members" target="_top">
<polygon fill="#ffffff" stroke="none" points="1158.5,-148.216 1158.5,-206.216 1374.5,-206.216 1374.5,-148.216 1158.5,-148.216"/>
<polygon fill="#f5f5f5" stroke="none" points="1158.5,-184.216 1158.5,-206.216 1374.5,-206.216 1374.5,-184.216 1158.5,-184.216"/>
<polygon fill="none" stroke="black" points="1158.5,-184.216 1158.5,-206.216 1374.5,-206.216 1374.5,-184.216 1158.5,-184.216"/>
<text text-anchor="start" x="1163.5" y="-193.416" font-family="Helvetica,sans-Serif" font-weight="bold" font-size="11.00">load_balancer_pool_members</text>
<text text-anchor="start" x="1335.5" y="-192.416" font-family="Helvetica,sans-Serif" font-size="11.00">[table]</text>
<polygon fill="none" stroke="black" points="1158.5,-166.216 1158.5,-184.216 1374.5,-184.216 1374.5,-166.216 1158.5,-166.216"/>
<text text-anchor="start" x="1161.5" y="-172.416" font-family="Helvetica,sans-Serif" font-size="11.00">...</text>
<polygon fill="#ffffff" stroke="none" points="1158.5,-148.216 1158.5,-166.216 1259.5,-166.216 1259.5,-148.216 1158.5,-148.216"/>
<polygon fill="none" stroke="black" points="1158.5,-148.216 1158.5,-166.216 1259.5,-166.216 1259.5,-148.216 1158.5,-148.216"/>
<text text-anchor="start" x="1161.5" y="-154.416" font-family="Helvetica,sans-Serif" font-size="11.00">&lt; 5</text>
<polygon fill="#ffffff" stroke="none" points="1259.5,-148.216 1259.5,-166.216 1311.5,-166.216 1311.5,-148.216 1259.5,-148.216"/>
<polygon fill="none" stroke="black" points="1259.5,-148.216 1259.5,-166.216 1311.5,-166.216 1311.5,-148.216 1259.5,-148.216"/>
<text text-anchor="start" x="1301.5" y="-154.416" font-family="Helvetica,sans-Serif" font-size="11.00"> &#160;</text>
<polygon fill="#ffffff" stroke="none" points="1311.5,-148.216 1311.5,-166.216 1374.5,-166.216 1374.5,-148.216 1311.5,-148.216"/>
<polygon fill="none" stroke="black" points="1311.5,-148.216 1311.5,-166.216 1374.5,-166.216 1374.5,-148.216 1311.5,-148.216"/>
<text text-anchor="start" x="1354.5" y="-154.416" font-family="Helvetica,sans-Serif" font-size="11.00">2 &gt;</text>
</a>
</g>
</g>
<!-- load_balancer_pool_members&#45;&gt;cloud_tenants -->
<g id="edge16" class="edge"><title>load_balancer_pool_members:elipses:w&#45;&gt;cloud_tenants:elipses:e</title>
<path fill="none" stroke="black" d="M1143,-173.608C1105.23,-164.4 1108.25,-118.108 1064,-99.2158 912.613,-34.5811 861.108,-53.2158 696.5,-53.2158 696.5,-53.2158 696.5,-53.2158 460,-53.2158 339.762,-53.2158 286.465,1.55911 190,-70.2158 143.237,-105.01 202.787,-193.216 144.5,-193.216"/>
<polygon fill="black" stroke="black" points="1149.55,-174.334 1157.1,-178.794 1153.52,-174.775 1157.5,-175.216 1157.5,-175.216 1157.5,-175.216 1153.52,-174.775 1157.9,-171.638 1149.55,-174.334 1149.55,-174.334"/>
<ellipse fill="none" stroke="black" cx="1146.37" cy="-173.981" rx="3.2" ry="3.2"/>
</g>
<!-- load_balancer_pool_members&#45;&gt;resource_groups -->
<g id="edge18" class="edge"><title>load_balancer_pool_members:elipses:w&#45;&gt;resource_groups:elipses:e</title>
<path fill="none" stroke="black" d="M1142.85,-174.338C1111.91,-170.398 1101.39,-154.318 1064,-149.216 931.042,-131.074 446.172,-165.815 378,-171.216 294.187,-177.856 257.624,-142.259 190,-192.216 154.537,-218.414 194.59,-283.216 150.5,-283.216"/>
<polygon fill="black" stroke="black" points="1149.51,-174.737 1157.28,-178.809 1153.51,-174.976 1157.5,-175.216 1157.5,-175.216 1157.5,-175.216 1153.51,-174.976 1157.72,-171.622 1149.51,-174.737 1149.51,-174.737"/>
<ellipse fill="none" stroke="black" cx="1146.32" cy="-174.546" rx="3.2" ry="3.2"/>
</g>
<!-- load_balancer_pool_members&#45;&gt;cloud_subnets -->
<g id="edge15" class="edge"><title>load_balancer_pool_members:elipses:w&#45;&gt;cloud_subnets:id:e</title>
<path fill="none" stroke="black" d="M1143.2,-177.06C1040.41,-202.793 907.297,-489.216 807.5,-489.216"/>
<polygon fill="black" stroke="black" points="1149.57,-176.239 1157.96,-178.786 1153.53,-175.727 1157.5,-175.216 1157.5,-175.216 1157.5,-175.216 1153.53,-175.727 1157.04,-171.645 1149.57,-176.239 1149.57,-176.239"/>
<ellipse fill="none" stroke="black" cx="1146.39" cy="-176.649" rx="3.2" ry="3.2"/>
</g>
<!-- load_balancer_pool_members&#45;&gt;network_ports -->
<g id="edge17" class="edge"><title>load_balancer_pool_members:elipses:w&#45;&gt;network_ports:id:e</title>
<path fill="none" stroke="black" d="M1142.98,-176.311C1120.81,-180.045 1110.44,-193.378 1097,-217.216 1062.51,-278.413 1127.75,-848.216 1057.5,-848.216"/>
<polygon fill="black" stroke="black" points="1149.52,-175.818 1157.77,-178.806 1153.51,-175.517 1157.5,-175.216 1157.5,-175.216 1157.5,-175.216 1153.51,-175.517 1157.23,-171.626 1149.52,-175.818 1149.52,-175.818"/>
<ellipse fill="none" stroke="black" cx="1146.33" cy="-176.058" rx="3.2" ry="3.2"/>
</g>
<!-- load_balancer_pool_members&#45;&gt;vms -->
<g id="edge19" class="edge"><title>load_balancer_pool_members:elipses:w&#45;&gt;vms:elipses:e</title>
<path fill="none" stroke="black" d="M1142.78,-175.385C1081.17,-176.844 1060.86,-187.216 992.5,-187.216"/>
<polygon fill="black" stroke="black" points="1149.5,-175.308 1157.54,-178.816 1153.5,-175.262 1157.5,-175.216 1157.5,-175.216 1157.5,-175.216 1153.5,-175.262 1157.46,-171.616 1149.5,-175.308 1149.5,-175.308"/>
<ellipse fill="none" stroke="black" cx="1146.3" cy="-175.345" rx="3.2" ry="3.2"/>
</g>
<!-- network_ports_security_groups -->
<g id="node13" class="node"><title>network_ports_security_groups</title>
<g id="a_node13"><a xlink:href="../../tables/network_ports_security_groups.html" xlink:title="network_ports_security_groups" target="_top">
<polygon fill="#ffffff" stroke="none" points="1154,-776.216 1154,-834.216 1379,-834.216 1379,-776.216 1154,-776.216"/>
<polygon fill="#f5f5f5" stroke="none" points="1154.5,-812.216 1154.5,-834.216 1379.5,-834.216 1379.5,-812.216 1154.5,-812.216"/>
<polygon fill="none" stroke="black" points="1154.5,-812.216 1154.5,-834.216 1379.5,-834.216 1379.5,-812.216 1154.5,-812.216"/>
<text text-anchor="start" x="1159.5" y="-821.416" font-family="Helvetica,sans-Serif" font-weight="bold" font-size="11.00">network_ports_security_groups</text>
<text text-anchor="start" x="1340.5" y="-820.416" font-family="Helvetica,sans-Serif" font-size="11.00">[table]</text>
<polygon fill="none" stroke="black" points="1154.5,-794.216 1154.5,-812.216 1379.5,-812.216 1379.5,-794.216 1154.5,-794.216"/>
<text text-anchor="start" x="1157.5" y="-800.416" font-family="Helvetica,sans-Serif" font-size="11.00">...</text>
<polygon fill="#ffffff" stroke="none" points="1154.5,-776.216 1154.5,-794.216 1265.5,-794.216 1265.5,-776.216 1154.5,-776.216"/>
<polygon fill="none" stroke="black" points="1154.5,-776.216 1154.5,-794.216 1265.5,-794.216 1265.5,-776.216 1154.5,-776.216"/>
<text text-anchor="start" x="1157.5" y="-782.416" font-family="Helvetica,sans-Serif" font-size="11.00">&lt; 2</text>
<polygon fill="#ffffff" stroke="none" points="1265.5,-776.216 1265.5,-794.216 1322.5,-794.216 1322.5,-776.216 1265.5,-776.216"/>
<polygon fill="none" stroke="black" points="1265.5,-776.216 1265.5,-794.216 1322.5,-794.216 1322.5,-776.216 1265.5,-776.216"/>
<text text-anchor="start" x="1312.5" y="-782.416" font-family="Helvetica,sans-Serif" font-size="11.00"> &#160;</text>
<polygon fill="#ffffff" stroke="none" points="1322.5,-776.216 1322.5,-794.216 1379.5,-794.216 1379.5,-776.216 1322.5,-776.216"/>
<polygon fill="none" stroke="black" points="1322.5,-776.216 1322.5,-794.216 1379.5,-794.216 1379.5,-776.216 1322.5,-776.216"/>
<text text-anchor="start" x="1369.5" y="-782.416" font-family="Helvetica,sans-Serif" font-size="11.00"> &#160;</text>
</a>
</g>
</g>
<!-- network_ports_security_groups&#45;&gt;network_ports -->
<g id="edge22" class="edge"><title>network_ports_security_groups:elipses:w&#45;&gt;network_ports:id:e</title>
<path fill="none" stroke="black" d="M1139.1,-804.817C1105.4,-812.834 1099.28,-848.216 1057.5,-848.216"/>
<polygon fill="black" stroke="black" points="1145.55,-804.1 1153.9,-806.794 1149.52,-803.658 1153.5,-803.216 1153.5,-803.216 1153.5,-803.216 1149.52,-803.658 1153.1,-799.638 1145.55,-804.1 1145.55,-804.1"/>
<ellipse fill="none" stroke="black" cx="1142.37" cy="-804.454" rx="3.2" ry="3.2"/>
</g>
<!-- security_groups -->
<g id="node14" class="node"><title>security_groups</title>
<g id="a_node14"><a xlink:href="../../tables/security_groups.html" xlink:title="security_groups" target="_top">
<polygon fill="#ffffff" stroke="none" points="886.5,-590.216 886.5,-648.216 1024.5,-648.216 1024.5,-590.216 886.5,-590.216"/>
<polygon fill="#f5f5f5" stroke="none" points="886.5,-626.216 886.5,-648.216 1024.5,-648.216 1024.5,-626.216 886.5,-626.216"/>
<polygon fill="none" stroke="black" points="886.5,-626.216 886.5,-648.216 1024.5,-648.216 1024.5,-626.216 886.5,-626.216"/>
<text text-anchor="start" x="891.5" y="-635.416" font-family="Helvetica,sans-Serif" font-weight="bold" font-size="11.00">security_groups</text>
<text text-anchor="start" x="985.5" y="-634.416" font-family="Helvetica,sans-Serif" font-size="11.00">[table]</text>
<polygon fill="none" stroke="black" points="886.5,-608.216 886.5,-626.216 1024.5,-626.216 1024.5,-608.216 886.5,-608.216"/>
<text text-anchor="start" x="889.5" y="-614.416" font-family="Helvetica,sans-Serif" font-size="11.00">...</text>
<polygon fill="#ffffff" stroke="none" points="886.5,-590.216 886.5,-608.216 948.5,-608.216 948.5,-590.216 886.5,-590.216"/>
<polygon fill="none" stroke="black" points="886.5,-590.216 886.5,-608.216 948.5,-608.216 948.5,-590.216 886.5,-590.216"/>
<text text-anchor="start" x="889.5" y="-596.416" font-family="Helvetica,sans-Serif" font-size="11.00">&lt; 7</text>
<polygon fill="#ffffff" stroke="none" points="948.5,-590.216 948.5,-608.216 981.5,-608.216 981.5,-590.216 948.5,-590.216"/>
<polygon fill="none" stroke="black" points="948.5,-590.216 948.5,-608.216 981.5,-608.216 981.5,-590.216 948.5,-590.216"/>
<text text-anchor="start" x="971.5" y="-596.416" font-family="Helvetica,sans-Serif" font-size="11.00"> &#160;</text>
<polygon fill="#ffffff" stroke="none" points="981.5,-590.216 981.5,-608.216 1024.5,-608.216 1024.5,-590.216 981.5,-590.216"/>
<polygon fill="none" stroke="black" points="981.5,-590.216 981.5,-608.216 1024.5,-608.216 1024.5,-590.216 981.5,-590.216"/>
<text text-anchor="start" x="1004.5" y="-596.416" font-family="Helvetica,sans-Serif" font-size="11.00">4 &gt;</text>
</a>
</g>
</g>
<!-- network_ports_security_groups&#45;&gt;security_groups -->
<g id="edge23" class="edge"><title>network_ports_security_groups:elipses:w&#45;&gt;security_groups:elipses:e</title>
<path fill="none" stroke="black" d="M1139.02,-801.719C1060.34,-784.116 1120.56,-617.216 1025.5,-617.216"/>
<polygon fill="black" stroke="black" points="1145.54,-802.393 1153.13,-806.797 1149.52,-802.804 1153.5,-803.216 1153.5,-803.216 1153.5,-803.216 1149.52,-802.804 1153.87,-799.635 1145.54,-802.393 1145.54,-802.393"/>
<ellipse fill="none" stroke="black" cx="1142.36" cy="-802.064" rx="3.2" ry="3.2"/>
</g>
<!-- security_groups&#45;&gt;cloud_networks -->
<g id="edge27" class="edge"><title>security_groups:elipses:w&#45;&gt;cloud_networks:elipses:e</title>
<path fill="none" stroke="black" d="M871.074,-617.116C745.599,-615.458 448.792,-592.567 378,-507.216 345.706,-468.281 388.085,-283.216 337.5,-283.216"/>
<polygon fill="black" stroke="black" points="877.5,-617.16 885.475,-620.816 881.5,-617.188 885.5,-617.216 885.5,-617.216 885.5,-617.216 881.5,-617.188 885.525,-613.616 877.5,-617.16 877.5,-617.16"/>
<ellipse fill="none" stroke="black" cx="874.3" cy="-617.138" rx="3.2" ry="3.2"/>
</g>
<!-- security_groups&#45;&gt;cloud_tenants -->
<g id="edge29" class="edge"><title>security_groups:elipses:w&#45;&gt;cloud_tenants:elipses:e</title>
<path fill="none" stroke="black" d="M871.046,-618.166C850.001,-621.139 840.93,-630.239 814,-633.216 621.387,-654.504 560.037,-695.665 378,-629.216 277.065,-592.371 243.053,-570.654 190,-477.216 158.442,-421.634 208.416,-193.216 144.5,-193.216"/>
<polygon fill="black" stroke="black" points="877.517,-617.741 885.736,-620.808 881.509,-617.478 885.5,-617.216 885.5,-617.216 885.5,-617.216 881.509,-617.478 885.264,-613.624 877.517,-617.741 877.517,-617.741"/>
<ellipse fill="none" stroke="black" cx="874.324" cy="-617.951" rx="3.2" ry="3.2"/>
</g>
<!-- security_groups&#45;&gt;resource_groups -->
<g id="edge32" class="edge"><title>security_groups:elipses:w&#45;&gt;resource_groups:elipses:e</title>
<path fill="none" stroke="black" d="M871.012,-619.401C847.482,-627.377 845.024,-654.932 814,-664.216 747.577,-684.092 241.492,-710.645 190,-664.216 126.783,-607.214 235.62,-283.216 150.5,-283.216"/>
<polygon fill="black" stroke="black" points="877.59,-618.409 886.037,-620.775 881.545,-617.812 885.5,-617.216 885.5,-617.216 885.5,-617.216 881.545,-617.812 884.963,-613.656 877.59,-618.409 877.59,-618.409"/>
<ellipse fill="none" stroke="black" cx="874.425" cy="-618.887" rx="3.2" ry="3.2"/>
</g>
<!-- security_groups&#45;&gt;cloud_subnets -->
<g id="edge28" class="edge"><title>security_groups:elipses:w&#45;&gt;cloud_subnets:id:e</title>
<path fill="none" stroke="black" d="M871.244,-613.936C859.86,-607.385 857.54,-591.955 847,-576.216 823.371,-540.931 849.965,-489.216 807.5,-489.216"/>
<polygon fill="black" stroke="black" points="877.704,-615.422 884.693,-620.724 881.602,-616.319 885.5,-617.216 885.5,-617.216 885.5,-617.216 881.602,-616.319 886.307,-613.707 877.704,-615.422 877.704,-615.422"/>
<ellipse fill="none" stroke="black" cx="874.585" cy="-614.704" rx="3.2" ry="3.2"/>
</g>
<!-- security_groups&#45;&gt;network_groups -->
<g id="edge30" class="edge"><title>security_groups:elipses:w&#45;&gt;network_groups:elipses:e</title>
<path fill="none" stroke="black" d="M870.983,-617.534C779.556,-620.599 418.614,-644.065 378,-610.216 308.398,-552.207 429.106,-410.216 338.5,-410.216"/>
<polygon fill="black" stroke="black" points="877.502,-617.391 885.579,-620.815 881.501,-617.303 885.5,-617.216 885.5,-617.216 885.5,-617.216 881.501,-617.303 885.421,-613.617 877.502,-617.391 877.502,-617.391"/>
<ellipse fill="none" stroke="black" cx="874.303" cy="-617.461" rx="3.2" ry="3.2"/>
</g>
<!-- security_groups&#45;&gt;network_routers -->
<g id="edge31" class="edge"><title>security_groups:elipses:w&#45;&gt;network_routers:elipses:e</title>
<path fill="none" stroke="black" d="M870.896,-615.845C849.25,-611.404 841.5,-597.29 814,-590.216 710.943,-563.706 662.61,-619.416 577,-556.216 541.012,-529.648 578.732,-465.216 534,-465.216"/>
<polygon fill="black" stroke="black" points="877.535,-616.468 885.164,-620.8 881.517,-616.842 885.5,-617.216 885.5,-617.216 885.5,-617.216 881.517,-616.842 885.836,-613.632 877.535,-616.468 877.535,-616.468"/>
<ellipse fill="none" stroke="black" cx="874.349" cy="-616.169" rx="3.2" ry="3.2"/>
</g>
</g>
</svg>
