<?xml version="1.0" encoding="UTF-8" standalone="no"?>
<!DOCTYPE svg PUBLIC "-//W3C//DTD SVG 1.1//EN"
 "http://www.w3.org/Graphics/SVG/1.1/DTD/svg11.dtd">
<!-- Generated by graphviz version 2.38.0 (20140413.2041)
 -->
<!-- Title: oneDegreeRelationshipsDiagram Pages: 1 -->
<svg width="530pt" height="421pt"
 viewBox="0.00 0.00 530.00 421.00" xmlns="http://www.w3.org/2000/svg" xmlns:xlink="http://www.w3.org/1999/xlink">
<g id="graph0" class="graph" transform="scale(1 1) rotate(0) translate(4 417)">
<title>oneDegreeRelationshipsDiagram</title>
<polygon fill="#ffffff" stroke="none" points="-4,4 -4,-417 526,-417 526,4 -4,4"/>
<text text-anchor="middle" x="74.5" y="-7.2" font-family="Helvetica,sans-Serif" font-size="11.00">Generated by SchemaSpy</text>
<!-- cloud_databases -->
<g id="node1" class="node"><title>cloud_databases</title>
<g id="a_node1"><a xlink:href="../../tables/cloud_databases.html" xlink:title="cloud_databases" target="_top">
<polygon fill="#ffffff" stroke="none" points="342,-197 342,-409 514,-409 514,-197 342,-197"/>
<polygon fill="#f5f5f5" stroke="none" points="342,-387 342,-409 514,-409 514,-387 342,-387"/>
<polygon fill="none" stroke="black" points="342,-387 342,-409 514,-409 514,-387 342,-387"/>
<text text-anchor="start" x="347" y="-396.2" font-family="Helvetica,sans-Serif" font-weight="bold" font-size="11.00">cloud_databases</text>
<text text-anchor="start" x="475" y="-395.2" font-family="Helvetica,sans-Serif" font-size="11.00">[table]</text>
<polygon fill="none" stroke="black" points="342,-365 342,-387 514,-387 514,-365 342,-365"/>
<image xlink:href="../../images/primaryKeys.png" width="11px" height="12px" preserveAspectRatio="xMinYMin meet" x="347" y="-382"/>
<text text-anchor="start" x="362" y="-373.2" font-family="Helvetica,sans-Serif" font-size="11.00">id</text>
<polygon fill="#ffffff" stroke="none" points="342,-343 342,-365 514,-365 514,-343 342,-343"/>
<polygon fill="none" stroke="black" points="342,-343 342,-365 514,-365 514,-343 342,-343"/>
<text text-anchor="start" x="362" y="-351.2" font-family="Helvetica,sans-Serif" font-size="11.00">type</text>
<polygon fill="#ffffff" stroke="none" points="342,-321 342,-343 514,-343 514,-321 342,-321"/>
<polygon fill="none" stroke="black" points="342,-321 342,-343 514,-343 514,-321 342,-321"/>
<text text-anchor="start" x="362" y="-329.2" font-family="Helvetica,sans-Serif" font-size="11.00">ems_id</text>
<polygon fill="none" stroke="black" points="342,-299 342,-321 514,-321 514,-299 342,-299"/>
<image xlink:href="../../images/foreignKeys.png" width="11px" height="12px" preserveAspectRatio="xMinYMin meet" x="347" y="-316"/>
<text text-anchor="start" x="362" y="-307.2" font-family="Helvetica,sans-Serif" font-size="11.00">resource_group_id</text>
<polygon fill="#ffffff" stroke="none" points="342,-277 342,-299 514,-299 514,-277 342,-277"/>
<polygon fill="none" stroke="black" points="342,-277 342,-299 514,-299 514,-277 342,-277"/>
<image xlink:href="../../images/foreignKeys.png" width="11px" height="12px" preserveAspectRatio="xMinYMin meet" x="347" y="-294"/>
<text text-anchor="start" x="362" y="-285.2" font-family="Helvetica,sans-Serif" font-size="11.00">cloud_database_flavor_id</text>
<polygon fill="none" stroke="black" points="342,-255 342,-277 514,-277 514,-255 342,-255"/>
<image xlink:href="../../images/foreignKeys.png" width="11px" height="12px" preserveAspectRatio="xMinYMin meet" x="347" y="-272"/>
<text text-anchor="start" x="362" y="-263.2" font-family="Helvetica,sans-Serif" font-size="11.00">cloud_tenant_id</text>
<polygon fill="#ffffff" stroke="none" points="342,-233 342,-255 514,-255 514,-233 342,-233"/>
<polygon fill="none" stroke="black" points="342,-233 342,-255 514,-255 514,-233 342,-233"/>
<image xlink:href="../../images/foreignKeys.png" width="11px" height="12px" preserveAspectRatio="xMinYMin meet" x="347" y="-250"/>
<text text-anchor="start" x="362" y="-241.2" font-family="Helvetica,sans-Serif" font-size="11.00">cloud_database_server_id</text>
<polygon fill="none" stroke="black" points="342,-215 342,-233 514,-233 514,-215 342,-215"/>
<text text-anchor="start" x="345" y="-221.2" font-family="Helvetica,sans-Serif" font-size="11.00">...</text>
<polygon fill="#ffffff" stroke="none" points="342,-197 342,-215 426,-215 426,-197 342,-197"/>
<polygon fill="none" stroke="black" points="342,-197 342,-215 426,-215 426,-197 342,-197"/>
<text text-anchor="start" x="345" y="-203.2" font-family="Helvetica,sans-Serif" font-size="11.00">&lt; 4</text>
<polygon fill="#ffffff" stroke="none" points="426,-197 426,-215 470,-215 470,-197 426,-197"/>
<polygon fill="none" stroke="black" points="426,-197 426,-215 470,-215 470,-197 426,-197"/>
<text text-anchor="start" x="460" y="-203.2" font-family="Helvetica,sans-Serif" font-size="11.00"> &#160;</text>
<polygon fill="#ffffff" stroke="none" points="470,-197 470,-215 514,-215 514,-197 470,-197"/>
<polygon fill="none" stroke="black" points="470,-197 470,-215 514,-215 514,-197 470,-197"/>
<text text-anchor="start" x="504" y="-203.2" font-family="Helvetica,sans-Serif" font-size="11.00"> &#160;</text>
</a>
</g>
</g>
<!-- cloud_database_flavors -->
<g id="node2" class="node"><title>cloud_database_flavors</title>
<g id="a_node2"><a xlink:href="../../tables/cloud_database_flavors.html" xlink:title="cloud_database_flavors" target="_top">
<polygon fill="#ffffff" stroke="none" points="8,-37 8,-323 293,-323 293,-37 8,-37"/>
<polygon fill="#f5f5f5" stroke="none" points="10.5,-299 10.5,-321 291.5,-321 291.5,-299 10.5,-299"/>
<polygon fill="none" stroke="black" points="10.5,-299 10.5,-321 291.5,-321 291.5,-299 10.5,-299"/>
<text text-anchor="start" x="15.5" y="-308.2" font-family="Helvetica,sans-Serif" font-weight="bold" font-size="11.00">cloud_database_flavors</text>
<text text-anchor="start" x="252.5" y="-307.2" font-family="Helvetica,sans-Serif" font-size="11.00">[table]</text>
<polygon fill="none" stroke="black" points="10.5,-277 10.5,-299 170.5,-299 170.5,-277 10.5,-277"/>
<image xlink:href="../../images/primaryKeys.png" width="11px" height="12px" preserveAspectRatio="xMinYMin meet" x="15.5" y="-294"/>
<text text-anchor="start" x="30.5" y="-285.2" font-family="Helvetica,sans-Serif" font-size="11.00">id</text>
<polygon fill="none" stroke="black" points="170.5,-277 170.5,-299 291.5,-299 291.5,-277 170.5,-277"/>
<text text-anchor="start" x="173.5" y="-285.2" font-family="Helvetica,sans-Serif" font-size="11.00">bigserial[19]</text>
<polygon fill="none" stroke="black" points="10.5,-255 10.5,-277 170.5,-277 170.5,-255 10.5,-255"/>
<text text-anchor="start" x="30.5" y="-263.2" font-family="Helvetica,sans-Serif" font-size="11.00">name</text>
<polygon fill="none" stroke="black" points="170.5,-255 170.5,-277 291.5,-277 291.5,-255 170.5,-255"/>
<text text-anchor="start" x="173.5" y="-263.2" font-family="Helvetica,sans-Serif" font-size="11.00">varchar[2147483647]</text>
<polygon fill="#ffffff" stroke="none" points="10.5,-233 10.5,-255 170.5,-255 170.5,-233 10.5,-233"/>
<polygon fill="none" stroke="black" points="10.5,-233 10.5,-255 170.5,-255 170.5,-233 10.5,-233"/>
<text text-anchor="start" x="30.5" y="-241.2" font-family="Helvetica,sans-Serif" font-size="11.00">type</text>
<polygon fill="none" stroke="black" points="170.5,-233 170.5,-255 291.5,-255 291.5,-233 170.5,-233"/>
<text text-anchor="start" x="173.5" y="-241.2" font-family="Helvetica,sans-Serif" font-size="11.00">varchar[2147483647]</text>
<polygon fill="none" stroke="black" points="10.5,-211 10.5,-233 170.5,-233 170.5,-211 10.5,-211"/>
<text text-anchor="start" x="30.5" y="-219.2" font-family="Helvetica,sans-Serif" font-size="11.00">ems_ref</text>
<polygon fill="none" stroke="black" points="170.5,-211 170.5,-233 291.5,-233 291.5,-211 170.5,-211"/>
<text text-anchor="start" x="173.5" y="-219.2" font-family="Helvetica,sans-Serif" font-size="11.00">varchar[2147483647]</text>
<polygon fill="none" stroke="black" points="10.5,-189 10.5,-211 170.5,-211 170.5,-189 10.5,-189"/>
<text text-anchor="start" x="30.5" y="-197.2" font-family="Helvetica,sans-Serif" font-size="11.00">cpus</text>
<polygon fill="none" stroke="black" points="170.5,-189 170.5,-211 291.5,-211 291.5,-189 170.5,-189"/>
<text text-anchor="start" x="173.5" y="-197.2" font-family="Helvetica,sans-Serif" font-size="11.00">int4[10]</text>
<polygon fill="none" stroke="black" points="10.5,-167 10.5,-189 170.5,-189 170.5,-167 10.5,-167"/>
<text text-anchor="start" x="30.5" y="-175.2" font-family="Helvetica,sans-Serif" font-size="11.00">memory</text>
<polygon fill="none" stroke="black" points="170.5,-167 170.5,-189 291.5,-189 291.5,-167 170.5,-167"/>
<text text-anchor="start" x="173.5" y="-175.2" font-family="Helvetica,sans-Serif" font-size="11.00">int8[19]</text>
<polygon fill="none" stroke="black" points="10.5,-145 10.5,-167 170.5,-167 170.5,-145 10.5,-145"/>
<text text-anchor="start" x="30.5" y="-153.2" font-family="Helvetica,sans-Serif" font-size="11.00">max_size</text>
<polygon fill="none" stroke="black" points="170.5,-145 170.5,-167 291.5,-167 291.5,-145 170.5,-145"/>
<text text-anchor="start" x="173.5" y="-153.2" font-family="Helvetica,sans-Serif" font-size="11.00">int8[19]</text>
<polygon fill="none" stroke="black" points="10.5,-123 10.5,-145 170.5,-145 170.5,-123 10.5,-123"/>
<text text-anchor="start" x="30.5" y="-131.2" font-family="Helvetica,sans-Serif" font-size="11.00">max_connections</text>
<polygon fill="none" stroke="black" points="170.5,-123 170.5,-145 291.5,-145 291.5,-123 170.5,-123"/>
<text text-anchor="start" x="173.5" y="-131.2" font-family="Helvetica,sans-Serif" font-size="11.00">int4[10]</text>
<polygon fill="none" stroke="black" points="10.5,-101 10.5,-123 170.5,-123 170.5,-101 10.5,-101"/>
<text text-anchor="start" x="30.5" y="-109.2" font-family="Helvetica,sans-Serif" font-size="11.00">performance</text>
<polygon fill="none" stroke="black" points="170.5,-101 170.5,-123 291.5,-123 291.5,-101 170.5,-101"/>
<text text-anchor="start" x="173.5" y="-109.2" font-family="Helvetica,sans-Serif" font-size="11.00">varchar[2147483647]</text>
<polygon fill="none" stroke="black" points="10.5,-79 10.5,-101 170.5,-101 170.5,-79 10.5,-79"/>
<text text-anchor="start" x="30.5" y="-87.2" font-family="Helvetica,sans-Serif" font-size="11.00">enabled</text>
<polygon fill="none" stroke="black" points="170.5,-79 170.5,-101 291.5,-101 291.5,-79 170.5,-79"/>
<text text-anchor="start" x="173.5" y="-87.2" font-family="Helvetica,sans-Serif" font-size="11.00">bool[1]</text>
<polygon fill="#ffffff" stroke="none" points="10.5,-57 10.5,-79 170.5,-79 170.5,-57 10.5,-57"/>
<polygon fill="none" stroke="black" points="10.5,-57 10.5,-79 170.5,-79 170.5,-57 10.5,-57"/>
<text text-anchor="start" x="30.5" y="-65.2" font-family="Helvetica,sans-Serif" font-size="11.00">ems_id</text>
<polygon fill="none" stroke="black" points="170.5,-57 170.5,-79 291.5,-79 291.5,-57 170.5,-57"/>
<text text-anchor="start" x="173.5" y="-65.2" font-family="Helvetica,sans-Serif" font-size="11.00">int8[19]</text>
<polygon fill="#ffffff" stroke="none" points="10.5,-39 10.5,-57 95.5,-57 95.5,-39 10.5,-39"/>
<polygon fill="none" stroke="black" points="10.5,-39 10.5,-57 95.5,-57 95.5,-39 10.5,-39"/>
<text text-anchor="start" x="13.5" y="-45.2" font-family="Helvetica,sans-Serif" font-size="11.00">&lt; 0</text>
<polygon fill="#ffffff" stroke="none" points="95.5,-39 95.5,-57 170.5,-57 170.5,-39 95.5,-39"/>
<polygon fill="none" stroke="black" points="95.5,-39 95.5,-57 170.5,-57 170.5,-39 95.5,-39"/>
<text text-anchor="start" x="160.5" y="-45.2" font-family="Helvetica,sans-Serif" font-size="11.00"> &#160;</text>
<polygon fill="#ffffff" stroke="none" points="170.5,-39 170.5,-57 291.5,-57 291.5,-39 170.5,-39"/>
<polygon fill="none" stroke="black" points="170.5,-39 170.5,-57 291.5,-57 291.5,-39 170.5,-39"/>
<text text-anchor="start" x="271.5" y="-45.2" font-family="Helvetica,sans-Serif" font-size="11.00">1 &gt;</text>
<polygon fill="none" stroke="black" stroke-width="2" points="9,-38 9,-322 292,-322 292,-38 9,-38"/>
</a>
</g>
</g>
<!-- cloud_databases&#45;&gt;cloud_database_flavors -->
<g id="edge1" class="edge"><title>cloud_databases:cloud_database_flavor_id:w&#45;&gt;cloud_database_flavors:id.type:e</title>
<path fill="none" stroke="black" d="M326.283,-288C315.289,-288 308.161,-288 292.5,-288"/>
<polygon fill="black" stroke="black" points="333,-288 341,-291.6 337,-288 341,-288 341,-288 341,-288 337,-288 341,-284.4 333,-288 333,-288"/>
<ellipse fill="none" stroke="black" cx="329.8" cy="-288" rx="3.2" ry="3.2"/>
</g>
</g>
</svg>
