<?xml version="1.0" encoding="UTF-8" standalone="no"?>
<!DOCTYPE svg PUBLIC "-//W3C//DTD SVG 1.1//EN"
 "http://www.w3.org/Graphics/SVG/1.1/DTD/svg11.dtd">
<!-- Generated by graphviz version 2.38.0 (20140413.2041)
 -->
<!-- Title: oneDegreeRelationshipsDiagram Pages: 1 -->
<svg width="807pt" height="390pt"
 viewBox="0.00 0.00 807.00 390.00" xmlns="http://www.w3.org/2000/svg" xmlns:xlink="http://www.w3.org/1999/xlink">
<g id="graph0" class="graph" transform="scale(1 1) rotate(0) translate(4 386)">
<title>oneDegreeRelationshipsDiagram</title>
<polygon fill="#ffffff" stroke="none" points="-4,4 -4,-386 803,-386 803,4 -4,4"/>
<text text-anchor="middle" x="74.5" y="-7.2" font-family="Helvetica,sans-Serif" font-size="11.00">Generated by SchemaSpy</text>
<!-- cloud_object_store_containers -->
<g id="node1" class="node"><title>cloud_object_store_containers</title>
<g id="a_node1"><a xlink:href="../../tables/cloud_object_store_containers.html" xlink:title="cloud_object_store_containers" target="_top">
<polygon fill="#ffffff" stroke="none" points="186,-37 186,-161 406,-161 406,-37 186,-37"/>
<polygon fill="#f5f5f5" stroke="none" points="186,-139 186,-161 406,-161 406,-139 186,-139"/>
<polygon fill="none" stroke="black" points="186,-139 186,-161 406,-161 406,-139 186,-139"/>
<text text-anchor="start" x="191" y="-148.2" font-family="Helvetica,sans-Serif" font-weight="bold" font-size="11.00">cloud_object_store_containers</text>
<text text-anchor="start" x="367" y="-147.2" font-family="Helvetica,sans-Serif" font-size="11.00">[table]</text>
<polygon fill="none" stroke="black" points="186,-117 186,-139 406,-139 406,-117 186,-117"/>
<image xlink:href="../../images/primaryKeys.png" width="11px" height="12px" preserveAspectRatio="xMinYMin meet" x="191" y="-134"/>
<text text-anchor="start" x="216" y="-125.2" font-family="Helvetica,sans-Serif" font-size="11.00">id</text>
<polygon fill="none" stroke="black" points="186,-95 186,-117 406,-117 406,-95 186,-95"/>
<image xlink:href="../../images/foreignKeys.png" width="11px" height="12px" preserveAspectRatio="xMinYMin meet" x="191" y="-112"/>
<text text-anchor="start" x="216" y="-103.2" font-family="Helvetica,sans-Serif" font-size="11.00">cloud_tenant_id</text>
<polygon fill="#ffffff" stroke="none" points="186,-73 186,-95 406,-95 406,-73 186,-73"/>
<polygon fill="none" stroke="black" points="186,-73 186,-95 406,-95 406,-73 186,-73"/>
<text text-anchor="start" x="216" y="-81.2" font-family="Helvetica,sans-Serif" font-size="11.00">type</text>
<polygon fill="none" stroke="black" points="186,-55 186,-73 406,-73 406,-55 186,-55"/>
<text text-anchor="start" x="189" y="-61.2" font-family="Helvetica,sans-Serif" font-size="11.00">...</text>
<polygon fill="#ffffff" stroke="none" points="186,-37 186,-55 289,-55 289,-37 186,-37"/>
<polygon fill="none" stroke="black" points="186,-37 186,-55 289,-55 289,-37 186,-37"/>
<text text-anchor="start" x="189" y="-43.2" font-family="Helvetica,sans-Serif" font-size="11.00">&lt; 1</text>
<polygon fill="#ffffff" stroke="none" points="289,-37 289,-55 342,-55 342,-37 289,-37"/>
<polygon fill="none" stroke="black" points="289,-37 289,-55 342,-55 342,-37 289,-37"/>
<text text-anchor="start" x="332" y="-43.2" font-family="Helvetica,sans-Serif" font-size="11.00"> &#160;</text>
<polygon fill="#ffffff" stroke="none" points="342,-37 342,-55 406,-55 406,-37 342,-37"/>
<polygon fill="none" stroke="black" points="342,-37 342,-55 406,-55 406,-37 342,-37"/>
<text text-anchor="start" x="386" y="-43.2" font-family="Helvetica,sans-Serif" font-size="11.00">1 &gt;</text>
</a>
</g>
</g>
<!-- cloud_tenants -->
<g id="node2" class="node"><title>cloud_tenants</title>
<g id="a_node2"><a xlink:href="../../tables/cloud_tenants.html" xlink:title="cloud_tenants" target="_top">
<polygon fill="#ffffff" stroke="none" points="8,-76 8,-178 137,-178 137,-76 8,-76"/>
<polygon fill="#f5f5f5" stroke="none" points="8.5,-156 8.5,-178 137.5,-178 137.5,-156 8.5,-156"/>
<polygon fill="none" stroke="black" points="8.5,-156 8.5,-178 137.5,-178 137.5,-156 8.5,-156"/>
<text text-anchor="start" x="13.5" y="-165.2" font-family="Helvetica,sans-Serif" font-weight="bold" font-size="11.00">cloud_tenants</text>
<text text-anchor="start" x="98.5" y="-164.2" font-family="Helvetica,sans-Serif" font-size="11.00">[table]</text>
<polygon fill="none" stroke="black" points="8.5,-134 8.5,-156 137.5,-156 137.5,-134 8.5,-134"/>
<image xlink:href="../../images/primaryKeys.png" width="11px" height="12px" preserveAspectRatio="xMinYMin meet" x="13.5" y="-151"/>
<text text-anchor="start" x="40.5" y="-142.2" font-family="Helvetica,sans-Serif" font-size="11.00">id</text>
<polygon fill="#ffffff" stroke="none" points="8.5,-112 8.5,-134 137.5,-134 137.5,-112 8.5,-112"/>
<polygon fill="none" stroke="black" points="8.5,-112 8.5,-134 137.5,-134 137.5,-112 8.5,-112"/>
<text text-anchor="start" x="40.5" y="-120.2" font-family="Helvetica,sans-Serif" font-size="11.00">type</text>
<polygon fill="none" stroke="black" points="8.5,-94 8.5,-112 137.5,-112 137.5,-94 8.5,-94"/>
<text text-anchor="start" x="11.5" y="-100.2" font-family="Helvetica,sans-Serif" font-size="11.00">...</text>
<polygon fill="#ffffff" stroke="none" points="8.5,-76 8.5,-94 57.5,-94 57.5,-76 8.5,-76"/>
<polygon fill="none" stroke="black" points="8.5,-76 8.5,-94 57.5,-94 57.5,-76 8.5,-76"/>
<text text-anchor="start" x="11.5" y="-82.2" font-family="Helvetica,sans-Serif" font-size="11.00"> &#160;</text>
<polygon fill="#ffffff" stroke="none" points="57.5,-76 57.5,-94 88.5,-94 88.5,-76 57.5,-76"/>
<polygon fill="none" stroke="black" points="57.5,-76 57.5,-94 88.5,-94 88.5,-76 57.5,-76"/>
<text text-anchor="start" x="78.5" y="-82.2" font-family="Helvetica,sans-Serif" font-size="11.00"> &#160;</text>
<polygon fill="#ffffff" stroke="none" points="88.5,-76 88.5,-94 137.5,-94 137.5,-76 88.5,-76"/>
<polygon fill="none" stroke="black" points="88.5,-76 88.5,-94 137.5,-94 137.5,-76 88.5,-76"/>
<text text-anchor="start" x="110.5" y="-82.2" font-family="Helvetica,sans-Serif" font-size="11.00">25 &gt;</text>
</a>
</g>
</g>
<!-- cloud_object_store_containers&#45;&gt;cloud_tenants -->
<g id="edge1" class="edge"><title>cloud_object_store_containers:cloud_tenant_id:w&#45;&gt;cloud_tenants:id:e</title>
<path fill="none" stroke="black" d="M171.166,-111.099C159.634,-121.67 159.362,-145 138.5,-145"/>
<polygon fill="black" stroke="black" points="177.494,-108.767 186.245,-109.378 181.247,-107.383 185,-106 185,-106 185,-106 181.247,-107.383 183.755,-102.622 177.494,-108.767 177.494,-108.767"/>
<ellipse fill="none" stroke="black" cx="174.491" cy="-109.873" rx="3.20001" ry="3.20001"/>
</g>
<!-- cloud_object_store_objects -->
<g id="node3" class="node"><title>cloud_object_store_objects</title>
<g id="a_node3"><a xlink:href="../../tables/cloud_object_store_objects.html" xlink:title="cloud_object_store_objects" target="_top">
<polygon fill="#ffffff" stroke="none" points="455,-70 455,-378 791,-378 791,-70 455,-70"/>
<polygon fill="#f5f5f5" stroke="none" points="457,-354 457,-376 789,-376 789,-354 457,-354"/>
<polygon fill="none" stroke="black" points="457,-354 457,-376 789,-376 789,-354 457,-354"/>
<text text-anchor="start" x="462" y="-363.2" font-family="Helvetica,sans-Serif" font-weight="bold" font-size="11.00">cloud_object_store_objects</text>
<text text-anchor="start" x="750" y="-362.2" font-family="Helvetica,sans-Serif" font-size="11.00">[table]</text>
<polygon fill="none" stroke="black" points="457,-332 457,-354 668,-354 668,-332 457,-332"/>
<image xlink:href="../../images/primaryKeys.png" width="11px" height="12px" preserveAspectRatio="xMinYMin meet" x="462" y="-349"/>
<text text-anchor="start" x="477" y="-340.2" font-family="Helvetica,sans-Serif" font-size="11.00">id</text>
<polygon fill="none" stroke="black" points="668,-332 668,-354 789,-354 789,-332 668,-332"/>
<text text-anchor="start" x="671" y="-340.2" font-family="Helvetica,sans-Serif" font-size="11.00">bigserial[19]</text>
<polygon fill="none" stroke="black" points="457,-310 457,-332 668,-332 668,-310 457,-310"/>
<text text-anchor="start" x="477" y="-318.2" font-family="Helvetica,sans-Serif" font-size="11.00">ems_ref</text>
<polygon fill="none" stroke="black" points="668,-310 668,-332 789,-332 789,-310 668,-310"/>
<text text-anchor="start" x="671" y="-318.2" font-family="Helvetica,sans-Serif" font-size="11.00">varchar[2147483647]</text>
<polygon fill="none" stroke="black" points="457,-288 457,-310 668,-310 668,-288 457,-288"/>
<text text-anchor="start" x="477" y="-296.2" font-family="Helvetica,sans-Serif" font-size="11.00">etag</text>
<polygon fill="none" stroke="black" points="668,-288 668,-310 789,-310 789,-288 668,-288"/>
<text text-anchor="start" x="671" y="-296.2" font-family="Helvetica,sans-Serif" font-size="11.00">varchar[2147483647]</text>
<polygon fill="none" stroke="black" points="457,-266 457,-288 668,-288 668,-266 457,-266"/>
<text text-anchor="start" x="477" y="-274.2" font-family="Helvetica,sans-Serif" font-size="11.00">key</text>
<polygon fill="none" stroke="black" points="668,-266 668,-288 789,-288 789,-266 668,-266"/>
<text text-anchor="start" x="671" y="-274.2" font-family="Helvetica,sans-Serif" font-size="11.00">varchar[2147483647]</text>
<polygon fill="none" stroke="black" points="457,-244 457,-266 668,-266 668,-244 457,-244"/>
<text text-anchor="start" x="477" y="-252.2" font-family="Helvetica,sans-Serif" font-size="11.00">content_type</text>
<polygon fill="none" stroke="black" points="668,-244 668,-266 789,-266 789,-244 668,-244"/>
<text text-anchor="start" x="671" y="-252.2" font-family="Helvetica,sans-Serif" font-size="11.00">varchar[2147483647]</text>
<polygon fill="none" stroke="black" points="457,-222 457,-244 668,-244 668,-222 457,-222"/>
<text text-anchor="start" x="477" y="-230.2" font-family="Helvetica,sans-Serif" font-size="11.00">content_length</text>
<polygon fill="none" stroke="black" points="668,-222 668,-244 789,-244 789,-222 668,-222"/>
<text text-anchor="start" x="671" y="-230.2" font-family="Helvetica,sans-Serif" font-size="11.00">int8[19]</text>
<polygon fill="none" stroke="black" points="457,-200 457,-222 668,-222 668,-200 457,-200"/>
<text text-anchor="start" x="477" y="-208.2" font-family="Helvetica,sans-Serif" font-size="11.00">last_modified</text>
<polygon fill="none" stroke="black" points="668,-200 668,-222 789,-222 789,-200 668,-200"/>
<text text-anchor="start" x="671" y="-208.2" font-family="Helvetica,sans-Serif" font-size="11.00">timestamp[29,6]</text>
<polygon fill="none" stroke="black" points="457,-178 457,-200 668,-200 668,-178 457,-178"/>
<text text-anchor="start" x="477" y="-186.2" font-family="Helvetica,sans-Serif" font-size="11.00">ems_id</text>
<polygon fill="none" stroke="black" points="668,-178 668,-200 789,-200 789,-178 668,-178"/>
<text text-anchor="start" x="671" y="-186.2" font-family="Helvetica,sans-Serif" font-size="11.00">int8[19]</text>
<polygon fill="none" stroke="black" points="457,-156 457,-178 668,-178 668,-156 457,-156"/>
<image xlink:href="../../images/foreignKeys.png" width="11px" height="12px" preserveAspectRatio="xMinYMin meet" x="462" y="-173"/>
<text text-anchor="start" x="477" y="-164.2" font-family="Helvetica,sans-Serif" font-size="11.00">cloud_tenant_id</text>
<polygon fill="none" stroke="black" points="668,-156 668,-178 789,-178 789,-156 668,-156"/>
<text text-anchor="start" x="671" y="-164.2" font-family="Helvetica,sans-Serif" font-size="11.00">int8[19]</text>
<polygon fill="none" stroke="black" points="457,-134 457,-156 668,-156 668,-134 457,-134"/>
<image xlink:href="../../images/foreignKeys.png" width="11px" height="12px" preserveAspectRatio="xMinYMin meet" x="462" y="-151"/>
<text text-anchor="start" x="477" y="-142.2" font-family="Helvetica,sans-Serif" font-size="11.00">cloud_object_store_container_id</text>
<polygon fill="none" stroke="black" points="668,-134 668,-156 789,-156 789,-134 668,-134"/>
<text text-anchor="start" x="671" y="-142.2" font-family="Helvetica,sans-Serif" font-size="11.00">int8[19]</text>
<polygon fill="none" stroke="black" points="457,-112 457,-134 668,-134 668,-112 457,-112"/>
<text text-anchor="start" x="477" y="-120.2" font-family="Helvetica,sans-Serif" font-size="11.00">name</text>
<polygon fill="none" stroke="black" points="668,-112 668,-134 789,-134 789,-112 668,-112"/>
<text text-anchor="start" x="671" y="-120.2" font-family="Helvetica,sans-Serif" font-size="11.00">varchar[2147483647]</text>
<polygon fill="#ffffff" stroke="none" points="457,-90 457,-112 668,-112 668,-90 457,-90"/>
<polygon fill="none" stroke="black" points="457,-90 457,-112 668,-112 668,-90 457,-90"/>
<text text-anchor="start" x="477" y="-98.2" font-family="Helvetica,sans-Serif" font-size="11.00">type</text>
<polygon fill="none" stroke="black" points="668,-90 668,-112 789,-112 789,-90 668,-90"/>
<text text-anchor="start" x="671" y="-98.2" font-family="Helvetica,sans-Serif" font-size="11.00">varchar[2147483647]</text>
<polygon fill="#ffffff" stroke="none" points="457,-72 457,-90 567,-90 567,-72 457,-72"/>
<polygon fill="none" stroke="black" points="457,-72 457,-90 567,-90 567,-72 457,-72"/>
<text text-anchor="start" x="460" y="-78.2" font-family="Helvetica,sans-Serif" font-size="11.00">&lt; 2</text>
<polygon fill="#ffffff" stroke="none" points="567,-72 567,-90 668,-90 668,-72 567,-72"/>
<polygon fill="none" stroke="black" points="567,-72 567,-90 668,-90 668,-72 567,-72"/>
<text text-anchor="start" x="658" y="-78.2" font-family="Helvetica,sans-Serif" font-size="11.00"> &#160;</text>
<polygon fill="#ffffff" stroke="none" points="668,-72 668,-90 789,-90 789,-72 668,-72"/>
<polygon fill="none" stroke="black" points="668,-72 668,-90 789,-90 789,-72 668,-72"/>
<text text-anchor="start" x="769" y="-78.2" font-family="Helvetica,sans-Serif" font-size="11.00">0 &gt;</text>
<polygon fill="none" stroke="black" stroke-width="2" points="456,-71 456,-377 790,-377 790,-71 456,-71"/>
</a>
</g>
</g>
<!-- cloud_object_store_objects&#45;&gt;cloud_object_store_containers -->
<g id="edge2" class="edge"><title>cloud_object_store_objects:cloud_object_store_container_id:w&#45;&gt;cloud_object_store_containers:id:e</title>
<path fill="none" stroke="black" d="M441.499,-142.193C430.115,-137.364 424.108,-128 407,-128"/>
<polygon fill="black" stroke="black" points="448.146,-143.479 455.316,-148.534 452.073,-144.24 456,-145 456,-145 456,-145 452.073,-144.24 456.684,-141.466 448.146,-143.479 448.146,-143.479"/>
<ellipse fill="none" stroke="black" cx="445.004" cy="-142.871" rx="3.2" ry="3.2"/>
</g>
<!-- cloud_object_store_objects&#45;&gt;cloud_tenants -->
<g id="edge3" class="edge"><title>cloud_object_store_objects:cloud_tenant_id:w&#45;&gt;cloud_tenants:id:e</title>
<path fill="none" stroke="black" d="M441.414,-167.977C432.889,-169.205 426.755,-171.243 414,-172 309.295,-178.211 278.21,-202.977 178,-172 157.684,-165.72 159.765,-145 138.5,-145"/>
<polygon fill="black" stroke="black" points="448.018,-167.535 456.241,-170.592 452.009,-167.267 456,-167 456,-167 456,-167 452.009,-167.267 455.759,-163.408 448.018,-167.535 448.018,-167.535"/>
<ellipse fill="none" stroke="black" cx="444.825" cy="-167.749" rx="3.2" ry="3.2"/>
</g>
</g>
</svg>
