<?xml version="1.0" encoding="UTF-8" standalone="no"?>
<!DOCTYPE svg PUBLIC "-//W3C//DTD SVG 1.1//EN"
 "http://www.w3.org/Graphics/SVG/1.1/DTD/svg11.dtd">
<!-- Generated by graphviz version 2.38.0 (20140413.2041)
 -->
<!-- Title: twoDegreesRelationshipsDiagram Pages: 1 -->
<svg width="1214pt" height="1181pt"
 viewBox="0.00 0.00 1214.00 1181.18" xmlns="http://www.w3.org/2000/svg" xmlns:xlink="http://www.w3.org/1999/xlink">
<g id="graph0" class="graph" transform="scale(1 1) rotate(0) translate(4 1177.18)">
<title>twoDegreesRelationshipsDiagram</title>
<polygon fill="#ffffff" stroke="none" points="-4,4 -4,-1177.18 1210,-1177.18 1210,4 -4,4"/>
<text text-anchor="middle" x="74.5" y="-7.2" font-family="Helvetica,sans-Serif" font-size="11.00">Generated by SchemaSpy</text>
<!-- accounts -->
<g id="node1" class="node"><title>accounts</title>
<g id="a_node1"><a xlink:href="../../tables/accounts.html" xlink:title="accounts" target="_top">
<polygon fill="#ffffff" stroke="none" points="499.5,-874.181 499.5,-932.181 599.5,-932.181 599.5,-874.181 499.5,-874.181"/>
<polygon fill="#f5f5f5" stroke="none" points="499.5,-910.181 499.5,-932.181 599.5,-932.181 599.5,-910.181 499.5,-910.181"/>
<polygon fill="none" stroke="black" points="499.5,-910.181 499.5,-932.181 599.5,-932.181 599.5,-910.181 499.5,-910.181"/>
<text text-anchor="start" x="504.5" y="-919.381" font-family="Helvetica,sans-Serif" font-weight="bold" font-size="11.00">accounts</text>
<text text-anchor="start" x="560.5" y="-918.381" font-family="Helvetica,sans-Serif" font-size="11.00">[table]</text>
<polygon fill="none" stroke="black" points="499.5,-892.181 499.5,-910.181 599.5,-910.181 599.5,-892.181 499.5,-892.181"/>
<text text-anchor="start" x="502.5" y="-898.381" font-family="Helvetica,sans-Serif" font-size="11.00">...</text>
<polygon fill="#ffffff" stroke="none" points="499.5,-874.181 499.5,-892.181 547.5,-892.181 547.5,-874.181 499.5,-874.181"/>
<polygon fill="none" stroke="black" points="499.5,-874.181 499.5,-892.181 547.5,-892.181 547.5,-874.181 499.5,-874.181"/>
<text text-anchor="start" x="502.5" y="-880.381" font-family="Helvetica,sans-Serif" font-size="11.00">&lt; 1</text>
<polygon fill="#ffffff" stroke="none" points="547.5,-874.181 547.5,-892.181 573.5,-892.181 573.5,-874.181 547.5,-874.181"/>
<polygon fill="none" stroke="black" points="547.5,-874.181 547.5,-892.181 573.5,-892.181 573.5,-874.181 547.5,-874.181"/>
<text text-anchor="start" x="563.5" y="-880.381" font-family="Helvetica,sans-Serif" font-size="11.00"> &#160;</text>
<polygon fill="#ffffff" stroke="none" points="573.5,-874.181 573.5,-892.181 599.5,-892.181 599.5,-874.181 573.5,-874.181"/>
<polygon fill="none" stroke="black" points="573.5,-874.181 573.5,-892.181 599.5,-892.181 599.5,-874.181 573.5,-874.181"/>
<text text-anchor="start" x="589.5" y="-880.381" font-family="Helvetica,sans-Serif" font-size="11.00"> &#160;</text>
</a>
</g>
</g>
<!-- hosts -->
<g id="node2" class="node"><title>hosts</title>
<g id="a_node2"><a xlink:href="../../tables/hosts.html" xlink:title="hosts" target="_top">
<polygon fill="#ffffff" stroke="none" points="248,-449.181 248,-705.181 411,-705.181 411,-449.181 248,-449.181"/>
<polygon fill="#f5f5f5" stroke="none" points="248.5,-683.181 248.5,-705.181 411.5,-705.181 411.5,-683.181 248.5,-683.181"/>
<polygon fill="none" stroke="black" points="248.5,-683.181 248.5,-705.181 411.5,-705.181 411.5,-683.181 248.5,-683.181"/>
<text text-anchor="start" x="253.5" y="-692.381" font-family="Helvetica,sans-Serif" font-weight="bold" font-size="11.00">hosts</text>
<text text-anchor="start" x="372.5" y="-691.381" font-family="Helvetica,sans-Serif" font-size="11.00">[table]</text>
<polygon fill="none" stroke="black" points="248.5,-661.181 248.5,-683.181 411.5,-683.181 411.5,-661.181 248.5,-661.181"/>
<image xlink:href="../../images/primaryKeys.png" width="11px" height="12px" preserveAspectRatio="xMinYMin meet" x="253.5" y="-678.181"/>
<text text-anchor="start" x="268.5" y="-669.381" font-family="Helvetica,sans-Serif" font-size="11.00">id</text>
<polygon fill="#ffffff" stroke="none" points="248.5,-639.181 248.5,-661.181 411.5,-661.181 411.5,-639.181 248.5,-639.181"/>
<polygon fill="none" stroke="black" points="248.5,-639.181 248.5,-661.181 411.5,-661.181 411.5,-639.181 248.5,-639.181"/>
<text text-anchor="start" x="268.5" y="-647.381" font-family="Helvetica,sans-Serif" font-size="11.00">hostname</text>
<polygon fill="#ffffff" stroke="none" points="248.5,-617.181 248.5,-639.181 411.5,-639.181 411.5,-617.181 248.5,-617.181"/>
<polygon fill="none" stroke="black" points="248.5,-617.181 248.5,-639.181 411.5,-639.181 411.5,-617.181 248.5,-617.181"/>
<text text-anchor="start" x="268.5" y="-625.381" font-family="Helvetica,sans-Serif" font-size="11.00">ipaddress</text>
<polygon fill="#ffffff" stroke="none" points="248.5,-595.181 248.5,-617.181 411.5,-617.181 411.5,-595.181 248.5,-595.181"/>
<polygon fill="none" stroke="black" points="248.5,-595.181 248.5,-617.181 411.5,-617.181 411.5,-595.181 248.5,-595.181"/>
<text text-anchor="start" x="268.5" y="-603.381" font-family="Helvetica,sans-Serif" font-size="11.00">guid</text>
<polygon fill="#ffffff" stroke="none" points="248.5,-573.181 248.5,-595.181 411.5,-595.181 411.5,-573.181 248.5,-573.181"/>
<polygon fill="none" stroke="black" points="248.5,-573.181 248.5,-595.181 411.5,-595.181 411.5,-573.181 248.5,-573.181"/>
<text text-anchor="start" x="268.5" y="-581.381" font-family="Helvetica,sans-Serif" font-size="11.00">ems_id</text>
<polygon fill="#ffffff" stroke="none" points="248.5,-551.181 248.5,-573.181 411.5,-573.181 411.5,-551.181 248.5,-551.181"/>
<polygon fill="none" stroke="black" points="248.5,-551.181 248.5,-573.181 411.5,-573.181 411.5,-551.181 248.5,-551.181"/>
<text text-anchor="start" x="268.5" y="-559.381" font-family="Helvetica,sans-Serif" font-size="11.00">type</text>
<polygon fill="none" stroke="black" points="248.5,-529.181 248.5,-551.181 411.5,-551.181 411.5,-529.181 248.5,-529.181"/>
<image xlink:href="../../images/foreignKeys.png" width="11px" height="12px" preserveAspectRatio="xMinYMin meet" x="253.5" y="-546.181"/>
<text text-anchor="start" x="268.5" y="-537.381" font-family="Helvetica,sans-Serif" font-size="11.00">ems_cluster_id</text>
<polygon fill="#ffffff" stroke="none" points="248.5,-507.181 248.5,-529.181 411.5,-529.181 411.5,-507.181 248.5,-507.181"/>
<polygon fill="none" stroke="black" points="248.5,-507.181 248.5,-529.181 411.5,-529.181 411.5,-507.181 248.5,-507.181"/>
<image xlink:href="../../images/foreignKeys.png" width="11px" height="12px" preserveAspectRatio="xMinYMin meet" x="253.5" y="-524.181"/>
<text text-anchor="start" x="268.5" y="-515.381" font-family="Helvetica,sans-Serif" font-size="11.00">availability_zone_id</text>
<polygon fill="none" stroke="black" points="248.5,-485.181 248.5,-507.181 411.5,-507.181 411.5,-485.181 248.5,-485.181"/>
<image xlink:href="../../images/foreignKeys.png" width="11px" height="12px" preserveAspectRatio="xMinYMin meet" x="253.5" y="-502.181"/>
<text text-anchor="start" x="268.5" y="-493.381" font-family="Helvetica,sans-Serif" font-size="11.00">physical_server_id</text>
<polygon fill="none" stroke="black" points="248.5,-467.181 248.5,-485.181 411.5,-485.181 411.5,-467.181 248.5,-467.181"/>
<text text-anchor="start" x="251.5" y="-473.381" font-family="Helvetica,sans-Serif" font-size="11.00">...</text>
<polygon fill="#ffffff" stroke="none" points="248.5,-449.181 248.5,-467.181 319.5,-467.181 319.5,-449.181 248.5,-449.181"/>
<polygon fill="none" stroke="black" points="248.5,-449.181 248.5,-467.181 319.5,-467.181 319.5,-449.181 248.5,-449.181"/>
<text text-anchor="start" x="251.5" y="-455.381" font-family="Helvetica,sans-Serif" font-size="11.00">&lt; 3</text>
<polygon fill="#ffffff" stroke="none" points="319.5,-449.181 319.5,-467.181 356.5,-467.181 356.5,-449.181 319.5,-449.181"/>
<polygon fill="none" stroke="black" points="319.5,-449.181 319.5,-467.181 356.5,-467.181 356.5,-449.181 319.5,-449.181"/>
<text text-anchor="start" x="346.5" y="-455.381" font-family="Helvetica,sans-Serif" font-size="11.00"> &#160;</text>
<polygon fill="#ffffff" stroke="none" points="356.5,-449.181 356.5,-467.181 411.5,-467.181 411.5,-449.181 356.5,-449.181"/>
<polygon fill="none" stroke="black" points="356.5,-449.181 356.5,-467.181 411.5,-467.181 411.5,-449.181 356.5,-449.181"/>
<text text-anchor="start" x="384.5" y="-455.381" font-family="Helvetica,sans-Serif" font-size="11.00">15 &gt;</text>
</a>
</g>
</g>
<!-- accounts&#45;&gt;hosts -->
<g id="edge1" class="edge"><title>accounts:elipses:w&#45;&gt;hosts:id:e</title>
<path fill="none" stroke="black" d="M484.23,-899.142C468.523,-893.923 463.055,-879.152 452,-860.181 409.012,-786.413 497.88,-672.181 412.5,-672.181"/>
<polygon fill="black" stroke="black" points="490.58,-900.049 497.991,-904.745 494.54,-900.615 498.5,-901.181 498.5,-901.181 498.5,-901.181 494.54,-900.615 499.009,-897.618 490.58,-900.049 490.58,-900.049"/>
<ellipse fill="none" stroke="black" cx="487.413" cy="-899.597" rx="3.2" ry="3.2"/>
</g>
<!-- availability_zones -->
<g id="node4" class="node"><title>availability_zones</title>
<g id="a_node4"><a xlink:href="../../tables/availability_zones.html" xlink:title="availability_zones" target="_top">
<polygon fill="#ffffff" stroke="none" points="8,-185.181 8,-309.181 199,-309.181 199,-185.181 8,-185.181"/>
<polygon fill="#f5f5f5" stroke="none" points="8.5,-287.181 8.5,-309.181 199.5,-309.181 199.5,-287.181 8.5,-287.181"/>
<polygon fill="none" stroke="black" points="8.5,-287.181 8.5,-309.181 199.5,-309.181 199.5,-287.181 8.5,-287.181"/>
<text text-anchor="start" x="13.5" y="-296.381" font-family="Helvetica,sans-Serif" font-weight="bold" font-size="11.00">availability_zones</text>
<text text-anchor="start" x="160.5" y="-295.381" font-family="Helvetica,sans-Serif" font-size="11.00">[table]</text>
<polygon fill="none" stroke="black" points="8.5,-265.181 8.5,-287.181 199.5,-287.181 199.5,-265.181 8.5,-265.181"/>
<image xlink:href="../../images/primaryKeys.png" width="11px" height="12px" preserveAspectRatio="xMinYMin meet" x="13.5" y="-282.181"/>
<text text-anchor="start" x="28.5" y="-273.381" font-family="Helvetica,sans-Serif" font-size="11.00">id</text>
<polygon fill="#ffffff" stroke="none" points="8.5,-243.181 8.5,-265.181 199.5,-265.181 199.5,-243.181 8.5,-243.181"/>
<polygon fill="none" stroke="black" points="8.5,-243.181 8.5,-265.181 199.5,-265.181 199.5,-243.181 8.5,-243.181"/>
<text text-anchor="start" x="28.5" y="-251.381" font-family="Helvetica,sans-Serif" font-size="11.00">ems_id</text>
<polygon fill="#ffffff" stroke="none" points="8.5,-221.181 8.5,-243.181 199.5,-243.181 199.5,-221.181 8.5,-221.181"/>
<polygon fill="none" stroke="black" points="8.5,-221.181 8.5,-243.181 199.5,-243.181 199.5,-221.181 8.5,-221.181"/>
<text text-anchor="start" x="28.5" y="-229.381" font-family="Helvetica,sans-Serif" font-size="11.00">type</text>
<polygon fill="none" stroke="black" points="8.5,-203.181 8.5,-221.181 199.5,-221.181 199.5,-203.181 8.5,-203.181"/>
<text text-anchor="start" x="11.5" y="-209.381" font-family="Helvetica,sans-Serif" font-size="11.00">...</text>
<polygon fill="#ffffff" stroke="none" points="8.5,-185.181 8.5,-203.181 92.5,-203.181 92.5,-185.181 8.5,-185.181"/>
<polygon fill="none" stroke="black" points="8.5,-185.181 8.5,-203.181 92.5,-203.181 92.5,-185.181 8.5,-185.181"/>
<text text-anchor="start" x="11.5" y="-191.381" font-family="Helvetica,sans-Serif" font-size="11.00"> &#160;</text>
<polygon fill="#ffffff" stroke="none" points="92.5,-185.181 92.5,-203.181 140.5,-203.181 140.5,-185.181 92.5,-185.181"/>
<polygon fill="none" stroke="black" points="92.5,-185.181 92.5,-203.181 140.5,-203.181 140.5,-185.181 92.5,-185.181"/>
<text text-anchor="start" x="130.5" y="-191.381" font-family="Helvetica,sans-Serif" font-size="11.00"> &#160;</text>
<polygon fill="#ffffff" stroke="none" points="140.5,-185.181 140.5,-203.181 199.5,-203.181 199.5,-185.181 140.5,-185.181"/>
<polygon fill="none" stroke="black" points="140.5,-185.181 140.5,-203.181 199.5,-203.181 199.5,-185.181 140.5,-185.181"/>
<text text-anchor="start" x="179.5" y="-191.381" font-family="Helvetica,sans-Serif" font-size="11.00">8 &gt;</text>
</a>
</g>
</g>
<!-- hosts&#45;&gt;availability_zones -->
<g id="edge21" class="edge"><title>hosts:availability_zone_id:w&#45;&gt;availability_zones:id:e</title>
<path fill="none" stroke="black" d="M232.914,-516.373C154.69,-494.227 304.501,-276.181 200.5,-276.181"/>
<polygon fill="black" stroke="black" points="239.561,-517.197 247.057,-521.754 243.53,-517.689 247.5,-518.181 247.5,-518.181 247.5,-518.181 243.53,-517.689 247.943,-514.609 239.561,-517.197 239.561,-517.197"/>
<ellipse fill="none" stroke="black" cx="236.385" cy="-516.803" rx="3.2" ry="3.2"/>
</g>
<!-- ems_clusters -->
<g id="node10" class="node"><title>ems_clusters</title>
<g id="a_node10"><a xlink:href="../../tables/ems_clusters.html" xlink:title="ems_clusters" target="_top">
<polygon fill="#ffffff" stroke="none" points="43,-637.181 43,-695.181 164,-695.181 164,-637.181 43,-637.181"/>
<polygon fill="#f5f5f5" stroke="none" points="43.5,-673.181 43.5,-695.181 164.5,-695.181 164.5,-673.181 43.5,-673.181"/>
<polygon fill="none" stroke="black" points="43.5,-673.181 43.5,-695.181 164.5,-695.181 164.5,-673.181 43.5,-673.181"/>
<text text-anchor="start" x="48.5" y="-682.381" font-family="Helvetica,sans-Serif" font-weight="bold" font-size="11.00">ems_clusters</text>
<text text-anchor="start" x="125.5" y="-681.381" font-family="Helvetica,sans-Serif" font-size="11.00">[table]</text>
<polygon fill="none" stroke="black" points="43.5,-655.181 43.5,-673.181 164.5,-673.181 164.5,-655.181 43.5,-655.181"/>
<text text-anchor="start" x="46.5" y="-661.381" font-family="Helvetica,sans-Serif" font-size="11.00">...</text>
<polygon fill="#ffffff" stroke="none" points="43.5,-637.181 43.5,-655.181 92.5,-655.181 92.5,-637.181 43.5,-637.181"/>
<polygon fill="none" stroke="black" points="43.5,-637.181 43.5,-655.181 92.5,-655.181 92.5,-637.181 43.5,-637.181"/>
<text text-anchor="start" x="46.5" y="-643.381" font-family="Helvetica,sans-Serif" font-size="11.00"> &#160;</text>
<polygon fill="#ffffff" stroke="none" points="92.5,-637.181 92.5,-655.181 123.5,-655.181 123.5,-637.181 92.5,-637.181"/>
<polygon fill="none" stroke="black" points="92.5,-637.181 92.5,-655.181 123.5,-655.181 123.5,-637.181 92.5,-637.181"/>
<text text-anchor="start" x="113.5" y="-643.381" font-family="Helvetica,sans-Serif" font-size="11.00"> &#160;</text>
<polygon fill="#ffffff" stroke="none" points="123.5,-637.181 123.5,-655.181 164.5,-655.181 164.5,-637.181 123.5,-637.181"/>
<polygon fill="none" stroke="black" points="123.5,-637.181 123.5,-655.181 164.5,-655.181 164.5,-637.181 123.5,-637.181"/>
<text text-anchor="start" x="144.5" y="-643.381" font-family="Helvetica,sans-Serif" font-size="11.00">4 &gt;</text>
</a>
</g>
</g>
<!-- hosts&#45;&gt;ems_clusters -->
<g id="edge22" class="edge"><title>hosts:ems_cluster_id:w&#45;&gt;ems_clusters:elipses:e</title>
<path fill="none" stroke="black" d="M233.175,-542.658C189.031,-560.135 226.022,-664.181 165.5,-664.181"/>
<polygon fill="black" stroke="black" points="239.617,-541.544 248.113,-543.729 243.558,-540.863 247.5,-540.181 247.5,-540.181 247.5,-540.181 243.558,-540.863 246.887,-536.634 239.617,-541.544 239.617,-541.544"/>
<ellipse fill="none" stroke="black" cx="236.464" cy="-542.09" rx="3.2" ry="3.2"/>
</g>
<!-- physical_servers -->
<g id="node11" class="node"><title>physical_servers</title>
<g id="a_node11"><a xlink:href="../../tables/physical_servers.html" xlink:title="physical_servers" target="_top">
<polygon fill="#ffffff" stroke="none" points="32.5,-963.181 32.5,-1021.18 174.5,-1021.18 174.5,-963.181 32.5,-963.181"/>
<polygon fill="#f5f5f5" stroke="none" points="32.5,-999.181 32.5,-1021.18 174.5,-1021.18 174.5,-999.181 32.5,-999.181"/>
<polygon fill="none" stroke="black" points="32.5,-999.181 32.5,-1021.18 174.5,-1021.18 174.5,-999.181 32.5,-999.181"/>
<text text-anchor="start" x="37.5" y="-1008.38" font-family="Helvetica,sans-Serif" font-weight="bold" font-size="11.00">physical_servers</text>
<text text-anchor="start" x="135.5" y="-1007.38" font-family="Helvetica,sans-Serif" font-size="11.00">[table]</text>
<polygon fill="none" stroke="black" points="32.5,-981.181 32.5,-999.181 174.5,-999.181 174.5,-981.181 32.5,-981.181"/>
<text text-anchor="start" x="35.5" y="-987.381" font-family="Helvetica,sans-Serif" font-size="11.00">...</text>
<polygon fill="#ffffff" stroke="none" points="32.5,-963.181 32.5,-981.181 96.5,-981.181 96.5,-963.181 32.5,-963.181"/>
<polygon fill="none" stroke="black" points="32.5,-963.181 32.5,-981.181 96.5,-981.181 96.5,-963.181 32.5,-963.181"/>
<text text-anchor="start" x="35.5" y="-969.381" font-family="Helvetica,sans-Serif" font-size="11.00">&lt; 1</text>
<polygon fill="#ffffff" stroke="none" points="96.5,-963.181 96.5,-981.181 130.5,-981.181 130.5,-963.181 96.5,-963.181"/>
<polygon fill="none" stroke="black" points="96.5,-963.181 96.5,-981.181 130.5,-981.181 130.5,-963.181 96.5,-963.181"/>
<text text-anchor="start" x="120.5" y="-969.381" font-family="Helvetica,sans-Serif" font-size="11.00"> &#160;</text>
<polygon fill="#ffffff" stroke="none" points="130.5,-963.181 130.5,-981.181 174.5,-981.181 174.5,-963.181 130.5,-963.181"/>
<polygon fill="none" stroke="black" points="130.5,-963.181 130.5,-981.181 174.5,-981.181 174.5,-963.181 130.5,-963.181"/>
<text text-anchor="start" x="154.5" y="-969.381" font-family="Helvetica,sans-Serif" font-size="11.00">2 &gt;</text>
</a>
</g>
</g>
<!-- hosts&#45;&gt;physical_servers -->
<g id="edge23" class="edge"><title>hosts:physical_server_id:w&#45;&gt;physical_servers:elipses:e</title>
<path fill="none" stroke="black" d="M235.894,-505.177C197.662,-572.131 226.527,-990.181 175.5,-990.181"/>
<polygon fill="black" stroke="black" points="241.177,-501.082 249.705,-499.027 244.338,-498.632 247.5,-496.181 247.5,-496.181 247.5,-496.181 244.338,-498.632 245.295,-493.336 241.177,-501.082 241.177,-501.082"/>
<ellipse fill="none" stroke="black" cx="238.648" cy="-503.043" rx="3.20001" ry="3.20001"/>
</g>
<!-- cloud_services -->
<g id="node3" class="node"><title>cloud_services</title>
<g id="a_node3"><a xlink:href="../../tables/cloud_services.html" xlink:title="cloud_services" target="_top">
<polygon fill="#ffffff" stroke="none" points="887,-436.181 887,-788.181 1198,-788.181 1198,-436.181 887,-436.181"/>
<polygon fill="#f5f5f5" stroke="none" points="889.5,-764.181 889.5,-786.181 1196.5,-786.181 1196.5,-764.181 889.5,-764.181"/>
<polygon fill="none" stroke="black" points="889.5,-764.181 889.5,-786.181 1196.5,-786.181 1196.5,-764.181 889.5,-764.181"/>
<text text-anchor="start" x="894.5" y="-773.381" font-family="Helvetica,sans-Serif" font-weight="bold" font-size="11.00">cloud_services</text>
<text text-anchor="start" x="1157.5" y="-772.381" font-family="Helvetica,sans-Serif" font-size="11.00">[table]</text>
<polygon fill="none" stroke="black" points="889.5,-742.181 889.5,-764.181 1075.5,-764.181 1075.5,-742.181 889.5,-742.181"/>
<image xlink:href="../../images/primaryKeys.png" width="11px" height="12px" preserveAspectRatio="xMinYMin meet" x="894.5" y="-759.181"/>
<text text-anchor="start" x="909.5" y="-750.381" font-family="Helvetica,sans-Serif" font-size="11.00">id</text>
<polygon fill="none" stroke="black" points="1075.5,-742.181 1075.5,-764.181 1196.5,-764.181 1196.5,-742.181 1075.5,-742.181"/>
<text text-anchor="start" x="1078.5" y="-750.381" font-family="Helvetica,sans-Serif" font-size="11.00">bigserial[19]</text>
<polygon fill="none" stroke="black" points="889.5,-720.181 889.5,-742.181 1075.5,-742.181 1075.5,-720.181 889.5,-720.181"/>
<text text-anchor="start" x="909.5" y="-728.381" font-family="Helvetica,sans-Serif" font-size="11.00">ems_ref</text>
<polygon fill="none" stroke="black" points="1075.5,-720.181 1075.5,-742.181 1196.5,-742.181 1196.5,-720.181 1075.5,-720.181"/>
<text text-anchor="start" x="1078.5" y="-728.381" font-family="Helvetica,sans-Serif" font-size="11.00">varchar[2147483647]</text>
<polygon fill="none" stroke="black" points="889.5,-698.181 889.5,-720.181 1075.5,-720.181 1075.5,-698.181 889.5,-698.181"/>
<text text-anchor="start" x="909.5" y="-706.381" font-family="Helvetica,sans-Serif" font-size="11.00">source</text>
<polygon fill="none" stroke="black" points="1075.5,-698.181 1075.5,-720.181 1196.5,-720.181 1196.5,-698.181 1075.5,-698.181"/>
<text text-anchor="start" x="1078.5" y="-706.381" font-family="Helvetica,sans-Serif" font-size="11.00">varchar[2147483647]</text>
<polygon fill="none" stroke="black" points="889.5,-676.181 889.5,-698.181 1075.5,-698.181 1075.5,-676.181 889.5,-676.181"/>
<text text-anchor="start" x="909.5" y="-684.381" font-family="Helvetica,sans-Serif" font-size="11.00">executable_name</text>
<polygon fill="none" stroke="black" points="1075.5,-676.181 1075.5,-698.181 1196.5,-698.181 1196.5,-676.181 1075.5,-676.181"/>
<text text-anchor="start" x="1078.5" y="-684.381" font-family="Helvetica,sans-Serif" font-size="11.00">varchar[2147483647]</text>
<polygon fill="none" stroke="black" points="889.5,-654.181 889.5,-676.181 1075.5,-676.181 1075.5,-654.181 889.5,-654.181"/>
<text text-anchor="start" x="909.5" y="-662.381" font-family="Helvetica,sans-Serif" font-size="11.00">hostname</text>
<polygon fill="none" stroke="black" points="1075.5,-654.181 1075.5,-676.181 1196.5,-676.181 1196.5,-654.181 1075.5,-654.181"/>
<text text-anchor="start" x="1078.5" y="-662.381" font-family="Helvetica,sans-Serif" font-size="11.00">varchar[2147483647]</text>
<polygon fill="none" stroke="black" points="889.5,-632.181 889.5,-654.181 1075.5,-654.181 1075.5,-632.181 889.5,-632.181"/>
<text text-anchor="start" x="909.5" y="-640.381" font-family="Helvetica,sans-Serif" font-size="11.00">status</text>
<polygon fill="none" stroke="black" points="1075.5,-632.181 1075.5,-654.181 1196.5,-654.181 1196.5,-632.181 1075.5,-632.181"/>
<text text-anchor="start" x="1078.5" y="-640.381" font-family="Helvetica,sans-Serif" font-size="11.00">varchar[2147483647]</text>
<polygon fill="none" stroke="black" points="889.5,-610.181 889.5,-632.181 1075.5,-632.181 1075.5,-610.181 889.5,-610.181"/>
<text text-anchor="start" x="909.5" y="-618.381" font-family="Helvetica,sans-Serif" font-size="11.00">scheduling_disabled</text>
<polygon fill="none" stroke="black" points="1075.5,-610.181 1075.5,-632.181 1196.5,-632.181 1196.5,-610.181 1075.5,-610.181"/>
<text text-anchor="start" x="1078.5" y="-618.381" font-family="Helvetica,sans-Serif" font-size="11.00">bool[1]</text>
<polygon fill="none" stroke="black" points="889.5,-588.181 889.5,-610.181 1075.5,-610.181 1075.5,-588.181 889.5,-588.181"/>
<text text-anchor="start" x="909.5" y="-596.381" font-family="Helvetica,sans-Serif" font-size="11.00">scheduling_disabled_reason</text>
<polygon fill="none" stroke="black" points="1075.5,-588.181 1075.5,-610.181 1196.5,-610.181 1196.5,-588.181 1075.5,-588.181"/>
<text text-anchor="start" x="1078.5" y="-596.381" font-family="Helvetica,sans-Serif" font-size="11.00">varchar[2147483647]</text>
<polygon fill="#ffffff" stroke="none" points="889.5,-566.181 889.5,-588.181 1075.5,-588.181 1075.5,-566.181 889.5,-566.181"/>
<polygon fill="none" stroke="black" points="889.5,-566.181 889.5,-588.181 1075.5,-588.181 1075.5,-566.181 889.5,-566.181"/>
<text text-anchor="start" x="909.5" y="-574.381" font-family="Helvetica,sans-Serif" font-size="11.00">ems_id</text>
<polygon fill="none" stroke="black" points="1075.5,-566.181 1075.5,-588.181 1196.5,-588.181 1196.5,-566.181 1075.5,-566.181"/>
<text text-anchor="start" x="1078.5" y="-574.381" font-family="Helvetica,sans-Serif" font-size="11.00">int8[19]</text>
<polygon fill="#ffffff" stroke="none" points="889.5,-544.181 889.5,-566.181 1075.5,-566.181 1075.5,-544.181 889.5,-544.181"/>
<polygon fill="none" stroke="black" points="889.5,-544.181 889.5,-566.181 1075.5,-566.181 1075.5,-544.181 889.5,-544.181"/>
<image xlink:href="../../images/foreignKeys.png" width="11px" height="12px" preserveAspectRatio="xMinYMin meet" x="894.5" y="-561.181"/>
<text text-anchor="start" x="909.5" y="-552.381" font-family="Helvetica,sans-Serif" font-size="11.00">host_id</text>
<polygon fill="none" stroke="black" points="1075.5,-544.181 1075.5,-566.181 1196.5,-566.181 1196.5,-544.181 1075.5,-544.181"/>
<text text-anchor="start" x="1078.5" y="-552.381" font-family="Helvetica,sans-Serif" font-size="11.00">int8[19]</text>
<polygon fill="#ffffff" stroke="none" points="889.5,-522.181 889.5,-544.181 1075.5,-544.181 1075.5,-522.181 889.5,-522.181"/>
<polygon fill="none" stroke="black" points="889.5,-522.181 889.5,-544.181 1075.5,-544.181 1075.5,-522.181 889.5,-522.181"/>
<image xlink:href="../../images/foreignKeys.png" width="11px" height="12px" preserveAspectRatio="xMinYMin meet" x="894.5" y="-539.181"/>
<text text-anchor="start" x="909.5" y="-530.381" font-family="Helvetica,sans-Serif" font-size="11.00">system_service_id</text>
<polygon fill="none" stroke="black" points="1075.5,-522.181 1075.5,-544.181 1196.5,-544.181 1196.5,-522.181 1075.5,-522.181"/>
<text text-anchor="start" x="1078.5" y="-530.381" font-family="Helvetica,sans-Serif" font-size="11.00">int8[19]</text>
<polygon fill="#ffffff" stroke="none" points="889.5,-500.181 889.5,-522.181 1075.5,-522.181 1075.5,-500.181 889.5,-500.181"/>
<polygon fill="none" stroke="black" points="889.5,-500.181 889.5,-522.181 1075.5,-522.181 1075.5,-500.181 889.5,-500.181"/>
<image xlink:href="../../images/foreignKeys.png" width="11px" height="12px" preserveAspectRatio="xMinYMin meet" x="894.5" y="-517.181"/>
<text text-anchor="start" x="909.5" y="-508.381" font-family="Helvetica,sans-Serif" font-size="11.00">availability_zone_id</text>
<polygon fill="none" stroke="black" points="1075.5,-500.181 1075.5,-522.181 1196.5,-522.181 1196.5,-500.181 1075.5,-500.181"/>
<text text-anchor="start" x="1078.5" y="-508.381" font-family="Helvetica,sans-Serif" font-size="11.00">int8[19]</text>
<polygon fill="none" stroke="black" points="889.5,-478.181 889.5,-500.181 1075.5,-500.181 1075.5,-478.181 889.5,-478.181"/>
<text text-anchor="start" x="909.5" y="-486.381" font-family="Helvetica,sans-Serif" font-size="11.00">created_at</text>
<polygon fill="none" stroke="black" points="1075.5,-478.181 1075.5,-500.181 1196.5,-500.181 1196.5,-478.181 1075.5,-478.181"/>
<text text-anchor="start" x="1078.5" y="-486.381" font-family="Helvetica,sans-Serif" font-size="11.00">timestamp[29,6]</text>
<polygon fill="none" stroke="black" points="889.5,-456.181 889.5,-478.181 1075.5,-478.181 1075.5,-456.181 889.5,-456.181"/>
<text text-anchor="start" x="909.5" y="-464.381" font-family="Helvetica,sans-Serif" font-size="11.00">updated_at</text>
<polygon fill="none" stroke="black" points="1075.5,-456.181 1075.5,-478.181 1196.5,-478.181 1196.5,-456.181 1075.5,-456.181"/>
<text text-anchor="start" x="1078.5" y="-464.381" font-family="Helvetica,sans-Serif" font-size="11.00">timestamp[29,6]</text>
<polygon fill="#ffffff" stroke="none" points="889.5,-438.181 889.5,-456.181 987.5,-456.181 987.5,-438.181 889.5,-438.181"/>
<polygon fill="none" stroke="black" points="889.5,-438.181 889.5,-456.181 987.5,-456.181 987.5,-438.181 889.5,-438.181"/>
<text text-anchor="start" x="892.5" y="-444.381" font-family="Helvetica,sans-Serif" font-size="11.00">&lt; 3</text>
<polygon fill="#ffffff" stroke="none" points="987.5,-438.181 987.5,-456.181 1075.5,-456.181 1075.5,-438.181 987.5,-438.181"/>
<polygon fill="none" stroke="black" points="987.5,-438.181 987.5,-456.181 1075.5,-456.181 1075.5,-438.181 987.5,-438.181"/>
<text text-anchor="start" x="1065.5" y="-444.381" font-family="Helvetica,sans-Serif" font-size="11.00"> &#160;</text>
<polygon fill="#ffffff" stroke="none" points="1075.5,-438.181 1075.5,-456.181 1196.5,-456.181 1196.5,-438.181 1075.5,-438.181"/>
<polygon fill="none" stroke="black" points="1075.5,-438.181 1075.5,-456.181 1196.5,-456.181 1196.5,-438.181 1075.5,-438.181"/>
<text text-anchor="start" x="1176.5" y="-444.381" font-family="Helvetica,sans-Serif" font-size="11.00">0 &gt;</text>
<polygon fill="none" stroke="black" stroke-width="2" points="888,-437.181 888,-787.181 1197,-787.181 1197,-437.181 888,-437.181"/>
</a>
</g>
</g>
<!-- cloud_services&#45;&gt;hosts -->
<g id="edge3" class="edge"><title>cloud_services:host_id:w&#45;&gt;hosts:id:e</title>
<path fill="none" stroke="black" d="M874.195,-558.151C864.973,-562.616 860.082,-571.076 846,-576.181 760.467,-607.191 736.128,-605.913 647,-624.181 560.891,-641.831 536.824,-634.136 452,-657.181 433.878,-662.105 431.279,-672.181 412.5,-672.181"/>
<polygon fill="black" stroke="black" points="880.667,-556.808 889.232,-558.706 884.584,-555.994 888.5,-555.181 888.5,-555.181 888.5,-555.181 884.584,-555.994 887.768,-551.657 880.667,-556.808 880.667,-556.808"/>
<ellipse fill="none" stroke="black" cx="877.534" cy="-557.458" rx="3.2" ry="3.2"/>
</g>
<!-- cloud_services&#45;&gt;availability_zones -->
<g id="edge2" class="edge"><title>cloud_services:availability_zone_id:w&#45;&gt;availability_zones:id:e</title>
<path fill="none" stroke="black" d="M874.157,-509.2C837.887,-497.264 870.156,-433.872 846,-387.181 776.51,-252.866 780.701,-181.846 647,-111.181 487.057,-26.6471 381.587,7.42838 240,-105.181 178.953,-153.735 278.501,-276.181 200.5,-276.181"/>
<polygon fill="black" stroke="black" points="880.575,-510.087 888.007,-514.748 884.538,-510.634 888.5,-511.181 888.5,-511.181 888.5,-511.181 884.538,-510.634 888.993,-507.615 880.575,-510.087 880.575,-510.087"/>
<ellipse fill="none" stroke="black" cx="877.405" cy="-509.649" rx="3.2" ry="3.2"/>
</g>
<!-- system_services -->
<g id="node5" class="node"><title>system_services</title>
<g id="a_node5"><a xlink:href="../../tables/system_services.html" xlink:title="system_services" target="_top">
<polygon fill="#ffffff" stroke="none" points="688,-398.181 688,-566.181 838,-566.181 838,-398.181 688,-398.181"/>
<polygon fill="#f5f5f5" stroke="none" points="688,-544.181 688,-566.181 838,-566.181 838,-544.181 688,-544.181"/>
<polygon fill="none" stroke="black" points="688,-544.181 688,-566.181 838,-566.181 838,-544.181 688,-544.181"/>
<text text-anchor="start" x="693" y="-553.381" font-family="Helvetica,sans-Serif" font-weight="bold" font-size="11.00">system_services</text>
<text text-anchor="start" x="799" y="-552.381" font-family="Helvetica,sans-Serif" font-size="11.00">[table]</text>
<polygon fill="none" stroke="black" points="688,-522.181 688,-544.181 838,-544.181 838,-522.181 688,-522.181"/>
<image xlink:href="../../images/primaryKeys.png" width="11px" height="12px" preserveAspectRatio="xMinYMin meet" x="693" y="-539.181"/>
<text text-anchor="start" x="708" y="-530.381" font-family="Helvetica,sans-Serif" font-size="11.00">id</text>
<polygon fill="#ffffff" stroke="none" points="688,-500.181 688,-522.181 838,-522.181 838,-500.181 688,-500.181"/>
<polygon fill="none" stroke="black" points="688,-500.181 688,-522.181 838,-522.181 838,-500.181 688,-500.181"/>
<text text-anchor="start" x="708" y="-508.381" font-family="Helvetica,sans-Serif" font-size="11.00">typename</text>
<polygon fill="#ffffff" stroke="none" points="688,-478.181 688,-500.181 838,-500.181 838,-478.181 688,-478.181"/>
<polygon fill="none" stroke="black" points="688,-478.181 688,-500.181 838,-500.181 838,-478.181 688,-478.181"/>
<text text-anchor="start" x="708" y="-486.381" font-family="Helvetica,sans-Serif" font-size="11.00">vm_or_template_id</text>
<polygon fill="#ffffff" stroke="none" points="688,-456.181 688,-478.181 838,-478.181 838,-456.181 688,-456.181"/>
<polygon fill="none" stroke="black" points="688,-456.181 688,-478.181 838,-478.181 838,-456.181 688,-456.181"/>
<image xlink:href="../../images/foreignKeys.png" width="11px" height="12px" preserveAspectRatio="xMinYMin meet" x="693" y="-473.181"/>
<text text-anchor="start" x="708" y="-464.381" font-family="Helvetica,sans-Serif" font-size="11.00">host_id</text>
<polygon fill="#ffffff" stroke="none" points="688,-434.181 688,-456.181 838,-456.181 838,-434.181 688,-434.181"/>
<polygon fill="none" stroke="black" points="688,-434.181 688,-456.181 838,-456.181 838,-434.181 688,-434.181"/>
<image xlink:href="../../images/foreignKeys.png" width="11px" height="12px" preserveAspectRatio="xMinYMin meet" x="693" y="-451.181"/>
<text text-anchor="start" x="708" y="-442.381" font-family="Helvetica,sans-Serif" font-size="11.00">host_service_group_id</text>
<polygon fill="none" stroke="black" points="688,-416.181 688,-434.181 838,-434.181 838,-416.181 688,-416.181"/>
<text text-anchor="start" x="691" y="-422.381" font-family="Helvetica,sans-Serif" font-size="11.00">...</text>
<polygon fill="#ffffff" stroke="none" points="688,-398.181 688,-416.181 756,-416.181 756,-398.181 688,-398.181"/>
<polygon fill="none" stroke="black" points="688,-398.181 688,-416.181 756,-416.181 756,-398.181 688,-398.181"/>
<text text-anchor="start" x="691" y="-404.381" font-family="Helvetica,sans-Serif" font-size="11.00">&lt; 2</text>
<polygon fill="#ffffff" stroke="none" points="756,-398.181 756,-416.181 792,-416.181 792,-398.181 756,-398.181"/>
<polygon fill="none" stroke="black" points="756,-398.181 756,-416.181 792,-416.181 792,-398.181 756,-398.181"/>
<text text-anchor="start" x="782" y="-404.381" font-family="Helvetica,sans-Serif" font-size="11.00"> &#160;</text>
<polygon fill="#ffffff" stroke="none" points="792,-398.181 792,-416.181 838,-416.181 838,-398.181 792,-398.181"/>
<polygon fill="none" stroke="black" points="792,-398.181 792,-416.181 838,-416.181 838,-398.181 792,-398.181"/>
<text text-anchor="start" x="818" y="-404.381" font-family="Helvetica,sans-Serif" font-size="11.00">1 &gt;</text>
</a>
</g>
</g>
<!-- cloud_services&#45;&gt;system_services -->
<g id="edge4" class="edge"><title>cloud_services:system_service_id:w&#45;&gt;system_services:id:e</title>
<path fill="none" stroke="black" d="M873.843,-533.181C862.414,-533.181 855.156,-533.181 839,-533.181"/>
<polygon fill="black" stroke="black" points="880.5,-533.181 888.5,-536.781 884.5,-533.181 888.5,-533.181 888.5,-533.181 888.5,-533.181 884.5,-533.181 888.5,-529.581 880.5,-533.181 880.5,-533.181"/>
<ellipse fill="none" stroke="black" cx="877.3" cy="-533.181" rx="3.2" ry="3.2"/>
</g>
<!-- system_services&#45;&gt;hosts -->
<g id="edge30" class="edge"><title>system_services:host_id:w&#45;&gt;hosts:id:e</title>
<path fill="none" stroke="black" d="M673.358,-471.825C662.368,-482.147 666.512,-506.967 647,-518.181 571.143,-561.78 518.725,-488.588 452,-545.181 406.92,-583.417 471.612,-672.181 412.5,-672.181"/>
<polygon fill="black" stroke="black" points="679.427,-469.759 688.16,-470.589 683.213,-468.47 687,-467.181 687,-467.181 687,-467.181 683.213,-468.47 685.84,-463.773 679.427,-469.759 679.427,-469.759"/>
<ellipse fill="none" stroke="black" cx="676.397" cy="-470.791" rx="3.20001" ry="3.20001"/>
</g>
<!-- host_service_groups -->
<g id="node16" class="node"><title>host_service_groups</title>
<g id="a_node16"><a xlink:href="../../tables/host_service_groups.html" xlink:title="host_service_groups" target="_top">
<polygon fill="#ffffff" stroke="none" points="469,-371.181 469,-429.181 630,-429.181 630,-371.181 469,-371.181"/>
<polygon fill="#f5f5f5" stroke="none" points="469.5,-407.181 469.5,-429.181 630.5,-429.181 630.5,-407.181 469.5,-407.181"/>
<polygon fill="none" stroke="black" points="469.5,-407.181 469.5,-429.181 630.5,-429.181 630.5,-407.181 469.5,-407.181"/>
<text text-anchor="start" x="474.5" y="-416.381" font-family="Helvetica,sans-Serif" font-weight="bold" font-size="11.00">host_service_groups</text>
<text text-anchor="start" x="591.5" y="-415.381" font-family="Helvetica,sans-Serif" font-size="11.00">[table]</text>
<polygon fill="none" stroke="black" points="469.5,-389.181 469.5,-407.181 630.5,-407.181 630.5,-389.181 469.5,-389.181"/>
<text text-anchor="start" x="472.5" y="-395.381" font-family="Helvetica,sans-Serif" font-size="11.00">...</text>
<polygon fill="#ffffff" stroke="none" points="469.5,-371.181 469.5,-389.181 543.5,-389.181 543.5,-371.181 469.5,-371.181"/>
<polygon fill="none" stroke="black" points="469.5,-371.181 469.5,-389.181 543.5,-389.181 543.5,-371.181 469.5,-371.181"/>
<text text-anchor="start" x="472.5" y="-377.381" font-family="Helvetica,sans-Serif" font-size="11.00">&lt; 1</text>
<polygon fill="#ffffff" stroke="none" points="543.5,-371.181 543.5,-389.181 581.5,-389.181 581.5,-371.181 543.5,-371.181"/>
<polygon fill="none" stroke="black" points="543.5,-371.181 543.5,-389.181 581.5,-389.181 581.5,-371.181 543.5,-371.181"/>
<text text-anchor="start" x="571.5" y="-377.381" font-family="Helvetica,sans-Serif" font-size="11.00"> &#160;</text>
<polygon fill="#ffffff" stroke="none" points="581.5,-371.181 581.5,-389.181 630.5,-389.181 630.5,-371.181 581.5,-371.181"/>
<polygon fill="none" stroke="black" points="581.5,-371.181 581.5,-389.181 630.5,-389.181 630.5,-371.181 581.5,-371.181"/>
<text text-anchor="start" x="610.5" y="-377.381" font-family="Helvetica,sans-Serif" font-size="11.00">2 &gt;</text>
</a>
</g>
</g>
<!-- system_services&#45;&gt;host_service_groups -->
<g id="edge31" class="edge"><title>system_services:host_service_group_id:w&#45;&gt;host_service_groups:elipses:e</title>
<path fill="none" stroke="black" d="M673.111,-441.174C656.625,-429.808 658.015,-398.181 631.5,-398.181"/>
<polygon fill="black" stroke="black" points="679.314,-442.964 686.002,-448.64 683.157,-444.072 687,-445.181 687,-445.181 687,-445.181 683.157,-444.072 687.998,-441.722 679.314,-442.964 679.314,-442.964"/>
<ellipse fill="none" stroke="black" cx="676.239" cy="-442.076" rx="3.20001" ry="3.20001"/>
</g>
<!-- cloud_subnets -->
<g id="node6" class="node"><title>cloud_subnets</title>
<g id="a_node6"><a xlink:href="../../tables/cloud_subnets.html" xlink:title="cloud_subnets" target="_top">
<polygon fill="#ffffff" stroke="none" points="264.5,-222.181 264.5,-280.181 394.5,-280.181 394.5,-222.181 264.5,-222.181"/>
<polygon fill="#f5f5f5" stroke="none" points="264.5,-258.181 264.5,-280.181 394.5,-280.181 394.5,-258.181 264.5,-258.181"/>
<polygon fill="none" stroke="black" points="264.5,-258.181 264.5,-280.181 394.5,-280.181 394.5,-258.181 264.5,-258.181"/>
<text text-anchor="start" x="269.5" y="-267.381" font-family="Helvetica,sans-Serif" font-weight="bold" font-size="11.00">cloud_subnets</text>
<text text-anchor="start" x="355.5" y="-266.381" font-family="Helvetica,sans-Serif" font-size="11.00">[table]</text>
<polygon fill="none" stroke="black" points="264.5,-240.181 264.5,-258.181 394.5,-258.181 394.5,-240.181 264.5,-240.181"/>
<text text-anchor="start" x="267.5" y="-246.381" font-family="Helvetica,sans-Serif" font-size="11.00">...</text>
<polygon fill="#ffffff" stroke="none" points="264.5,-222.181 264.5,-240.181 322.5,-240.181 322.5,-222.181 264.5,-222.181"/>
<polygon fill="none" stroke="black" points="264.5,-222.181 264.5,-240.181 322.5,-240.181 322.5,-222.181 264.5,-222.181"/>
<text text-anchor="start" x="267.5" y="-228.381" font-family="Helvetica,sans-Serif" font-size="11.00">&lt; 5</text>
<polygon fill="#ffffff" stroke="none" points="322.5,-222.181 322.5,-240.181 353.5,-240.181 353.5,-222.181 322.5,-222.181"/>
<polygon fill="none" stroke="black" points="322.5,-222.181 322.5,-240.181 353.5,-240.181 353.5,-222.181 322.5,-222.181"/>
<text text-anchor="start" x="343.5" y="-228.381" font-family="Helvetica,sans-Serif" font-size="11.00"> &#160;</text>
<polygon fill="#ffffff" stroke="none" points="353.5,-222.181 353.5,-240.181 394.5,-240.181 394.5,-222.181 353.5,-222.181"/>
<polygon fill="none" stroke="black" points="353.5,-222.181 353.5,-240.181 394.5,-240.181 394.5,-222.181 353.5,-222.181"/>
<text text-anchor="start" x="374.5" y="-228.381" font-family="Helvetica,sans-Serif" font-size="11.00">4 &gt;</text>
</a>
</g>
</g>
<!-- cloud_subnets&#45;&gt;availability_zones -->
<g id="edge5" class="edge"><title>cloud_subnets:elipses:w&#45;&gt;availability_zones:id:e</title>
<path fill="none" stroke="black" d="M249.241,-251.577C231.319,-258.185 225.37,-276.181 200.5,-276.181"/>
<polygon fill="black" stroke="black" points="255.611,-250.507 264.097,-252.732 259.555,-249.844 263.5,-249.181 263.5,-249.181 263.5,-249.181 259.555,-249.844 262.903,-245.631 255.611,-250.507 255.611,-250.507"/>
<ellipse fill="none" stroke="black" cx="252.455" cy="-251.037" rx="3.2" ry="3.2"/>
</g>
<!-- cloud_volume_backups -->
<g id="node7" class="node"><title>cloud_volume_backups</title>
<g id="a_node7"><a xlink:href="../../tables/cloud_volume_backups.html" xlink:title="cloud_volume_backups" target="_top">
<polygon fill="#ffffff" stroke="none" points="460,-122.181 460,-180.181 639,-180.181 639,-122.181 460,-122.181"/>
<polygon fill="#f5f5f5" stroke="none" points="460.5,-158.181 460.5,-180.181 639.5,-180.181 639.5,-158.181 460.5,-158.181"/>
<polygon fill="none" stroke="black" points="460.5,-158.181 460.5,-180.181 639.5,-180.181 639.5,-158.181 460.5,-158.181"/>
<text text-anchor="start" x="465.5" y="-167.381" font-family="Helvetica,sans-Serif" font-weight="bold" font-size="11.00">cloud_volume_backups</text>
<text text-anchor="start" x="600.5" y="-166.381" font-family="Helvetica,sans-Serif" font-size="11.00">[table]</text>
<polygon fill="none" stroke="black" points="460.5,-140.181 460.5,-158.181 639.5,-158.181 639.5,-140.181 460.5,-140.181"/>
<text text-anchor="start" x="463.5" y="-146.381" font-family="Helvetica,sans-Serif" font-size="11.00">...</text>
<polygon fill="#ffffff" stroke="none" points="460.5,-122.181 460.5,-140.181 548.5,-140.181 548.5,-122.181 460.5,-122.181"/>
<polygon fill="none" stroke="black" points="460.5,-122.181 460.5,-140.181 548.5,-140.181 548.5,-122.181 460.5,-122.181"/>
<text text-anchor="start" x="463.5" y="-128.381" font-family="Helvetica,sans-Serif" font-size="11.00">&lt; 2</text>
<polygon fill="#ffffff" stroke="none" points="548.5,-122.181 548.5,-140.181 593.5,-140.181 593.5,-122.181 548.5,-122.181"/>
<polygon fill="none" stroke="black" points="548.5,-122.181 548.5,-140.181 593.5,-140.181 593.5,-122.181 548.5,-122.181"/>
<text text-anchor="start" x="583.5" y="-128.381" font-family="Helvetica,sans-Serif" font-size="11.00"> &#160;</text>
<polygon fill="#ffffff" stroke="none" points="593.5,-122.181 593.5,-140.181 639.5,-140.181 639.5,-122.181 593.5,-122.181"/>
<polygon fill="none" stroke="black" points="593.5,-122.181 593.5,-140.181 639.5,-140.181 639.5,-122.181 593.5,-122.181"/>
<text text-anchor="start" x="629.5" y="-128.381" font-family="Helvetica,sans-Serif" font-size="11.00"> &#160;</text>
</a>
</g>
</g>
<!-- cloud_volume_backups&#45;&gt;availability_zones -->
<g id="edge6" class="edge"><title>cloud_volume_backups:elipses:w&#45;&gt;availability_zones:id:e</title>
<path fill="none" stroke="black" d="M445.581,-153.732C436.444,-161.426 434.872,-176.879 419,-184.181 345.909,-217.808 306.978,-166.605 240,-211.181 211.858,-229.911 234.305,-276.181 200.5,-276.181"/>
<polygon fill="black" stroke="black" points="451.896,-151.668 460.619,-152.603 455.698,-150.424 459.5,-149.181 459.5,-149.181 459.5,-149.181 455.698,-150.424 458.381,-145.76 451.896,-151.668 451.896,-151.668"/>
<ellipse fill="none" stroke="black" cx="448.855" cy="-152.662" rx="3.20001" ry="3.20001"/>
</g>
<!-- cloud_volumes -->
<g id="node8" class="node"><title>cloud_volumes</title>
<g id="a_node8"><a xlink:href="../../tables/cloud_volumes.html" xlink:title="cloud_volumes" target="_top">
<polygon fill="#ffffff" stroke="none" points="263,-116.181 263,-174.181 396,-174.181 396,-116.181 263,-116.181"/>
<polygon fill="#f5f5f5" stroke="none" points="263.5,-152.181 263.5,-174.181 396.5,-174.181 396.5,-152.181 263.5,-152.181"/>
<polygon fill="none" stroke="black" points="263.5,-152.181 263.5,-174.181 396.5,-174.181 396.5,-152.181 263.5,-152.181"/>
<text text-anchor="start" x="268.5" y="-161.381" font-family="Helvetica,sans-Serif" font-weight="bold" font-size="11.00">cloud_volumes</text>
<text text-anchor="start" x="357.5" y="-160.381" font-family="Helvetica,sans-Serif" font-size="11.00">[table]</text>
<polygon fill="none" stroke="black" points="263.5,-134.181 263.5,-152.181 396.5,-152.181 396.5,-134.181 263.5,-134.181"/>
<text text-anchor="start" x="266.5" y="-140.381" font-family="Helvetica,sans-Serif" font-size="11.00">...</text>
<polygon fill="#ffffff" stroke="none" points="263.5,-116.181 263.5,-134.181 323.5,-134.181 323.5,-116.181 263.5,-116.181"/>
<polygon fill="none" stroke="black" points="263.5,-116.181 263.5,-134.181 323.5,-134.181 323.5,-116.181 263.5,-116.181"/>
<text text-anchor="start" x="266.5" y="-122.381" font-family="Helvetica,sans-Serif" font-size="11.00">&lt; 5</text>
<polygon fill="#ffffff" stroke="none" points="323.5,-116.181 323.5,-134.181 354.5,-134.181 354.5,-116.181 323.5,-116.181"/>
<polygon fill="none" stroke="black" points="323.5,-116.181 323.5,-134.181 354.5,-134.181 354.5,-116.181 323.5,-116.181"/>
<text text-anchor="start" x="344.5" y="-122.381" font-family="Helvetica,sans-Serif" font-size="11.00"> &#160;</text>
<polygon fill="#ffffff" stroke="none" points="354.5,-116.181 354.5,-134.181 396.5,-134.181 396.5,-116.181 354.5,-116.181"/>
<polygon fill="none" stroke="black" points="354.5,-116.181 354.5,-134.181 396.5,-134.181 396.5,-116.181 354.5,-116.181"/>
<text text-anchor="start" x="376.5" y="-122.381" font-family="Helvetica,sans-Serif" font-size="11.00">3 &gt;</text>
</a>
</g>
</g>
<!-- cloud_volume_backups&#45;&gt;cloud_volumes -->
<g id="edge7" class="edge"><title>cloud_volume_backups:elipses:w&#45;&gt;cloud_volumes:elipses:e</title>
<path fill="none" stroke="black" d="M444.883,-148.539C428.253,-146.991 419.561,-143.181 397.5,-143.181"/>
<polygon fill="black" stroke="black" points="451.508,-148.83 459.342,-152.778 455.504,-149.006 459.5,-149.181 459.5,-149.181 459.5,-149.181 455.504,-149.006 459.658,-145.585 451.508,-148.83 451.508,-148.83"/>
<ellipse fill="none" stroke="black" cx="448.311" cy="-148.69" rx="3.2" ry="3.2"/>
</g>
<!-- cloud_volumes&#45;&gt;availability_zones -->
<g id="edge8" class="edge"><title>cloud_volumes:elipses:w&#45;&gt;availability_zones:id:e</title>
<path fill="none" stroke="black" d="M248.22,-146.083C208.279,-165.533 259.986,-276.181 200.5,-276.181"/>
<polygon fill="black" stroke="black" points="254.66,-144.774 263.217,-146.709 258.58,-143.978 262.5,-143.181 262.5,-143.181 262.5,-143.181 258.58,-143.978 261.783,-139.653 254.66,-144.774 254.66,-144.774"/>
<ellipse fill="none" stroke="black" cx="251.524" cy="-145.412" rx="3.2" ry="3.2"/>
</g>
<!-- event_streams -->
<g id="node9" class="node"><title>event_streams</title>
<g id="a_node9"><a xlink:href="../../tables/event_streams.html" xlink:title="event_streams" target="_top">
<polygon fill="#ffffff" stroke="none" points="483.5,-1111.18 483.5,-1169.18 615.5,-1169.18 615.5,-1111.18 483.5,-1111.18"/>
<polygon fill="#f5f5f5" stroke="none" points="483.5,-1147.18 483.5,-1169.18 615.5,-1169.18 615.5,-1147.18 483.5,-1147.18"/>
<polygon fill="none" stroke="black" points="483.5,-1147.18 483.5,-1169.18 615.5,-1169.18 615.5,-1147.18 483.5,-1147.18"/>
<text text-anchor="start" x="488.5" y="-1156.38" font-family="Helvetica,sans-Serif" font-weight="bold" font-size="11.00">event_streams</text>
<text text-anchor="start" x="576.5" y="-1155.38" font-family="Helvetica,sans-Serif" font-size="11.00">[table]</text>
<polygon fill="none" stroke="black" points="483.5,-1129.18 483.5,-1147.18 615.5,-1147.18 615.5,-1129.18 483.5,-1129.18"/>
<text text-anchor="start" x="486.5" y="-1135.38" font-family="Helvetica,sans-Serif" font-size="11.00">...</text>
<polygon fill="#ffffff" stroke="none" points="483.5,-1111.18 483.5,-1129.18 551.5,-1129.18 551.5,-1111.18 483.5,-1111.18"/>
<polygon fill="none" stroke="black" points="483.5,-1111.18 483.5,-1129.18 551.5,-1129.18 551.5,-1111.18 483.5,-1111.18"/>
<text text-anchor="start" x="486.5" y="-1117.38" font-family="Helvetica,sans-Serif" font-size="11.00">&lt; 11</text>
<polygon fill="#ffffff" stroke="none" points="551.5,-1111.18 551.5,-1129.18 583.5,-1129.18 583.5,-1111.18 551.5,-1111.18"/>
<polygon fill="none" stroke="black" points="551.5,-1111.18 551.5,-1129.18 583.5,-1129.18 583.5,-1111.18 551.5,-1111.18"/>
<text text-anchor="start" x="573.5" y="-1117.38" font-family="Helvetica,sans-Serif" font-size="11.00"> &#160;</text>
<polygon fill="#ffffff" stroke="none" points="583.5,-1111.18 583.5,-1129.18 615.5,-1129.18 615.5,-1111.18 583.5,-1111.18"/>
<polygon fill="none" stroke="black" points="583.5,-1111.18 583.5,-1129.18 615.5,-1129.18 615.5,-1111.18 583.5,-1111.18"/>
<text text-anchor="start" x="605.5" y="-1117.38" font-family="Helvetica,sans-Serif" font-size="11.00"> &#160;</text>
</a>
</g>
</g>
<!-- event_streams&#45;&gt;hosts -->
<g id="edge11" class="edge"><title>event_streams:elipses:w&#45;&gt;hosts:id:e</title>
<path fill="none" stroke="black" d="M468.433,-1134.21C459.979,-1127.98 457.769,-1115.19 452,-1101.18 433.774,-1056.92 460.368,-672.181 412.5,-672.181"/>
<polygon fill="black" stroke="black" points="474.802,-1136.01 481.521,-1141.65 478.651,-1137.09 482.5,-1138.18 482.5,-1138.18 482.5,-1138.18 478.651,-1137.09 483.479,-1134.72 474.802,-1136.01 474.802,-1136.01"/>
<ellipse fill="none" stroke="black" cx="471.722" cy="-1135.14" rx="3.20001" ry="3.20001"/>
</g>
<!-- event_streams&#45;&gt;availability_zones -->
<g id="edge9" class="edge"><title>event_streams:elipses:w&#45;&gt;availability_zones:id:e</title>
<path fill="none" stroke="black" d="M468.646,-1132.88C441.864,-1111.53 429.434,-1031.97 419,-1010.18 352.758,-871.866 287.887,-860.873 240,-715.181 224.708,-668.655 249.475,-276.181 200.5,-276.181"/>
<polygon fill="black" stroke="black" points="475.028,-1135.32 481.213,-1141.54 478.764,-1136.75 482.5,-1138.18 482.5,-1138.18 482.5,-1138.18 478.764,-1136.75 483.787,-1134.82 475.028,-1135.32 475.028,-1135.32"/>
<ellipse fill="none" stroke="black" cx="472.04" cy="-1134.18" rx="3.20001" ry="3.20001"/>
</g>
<!-- event_streams&#45;&gt;ems_clusters -->
<g id="edge10" class="edge"><title>event_streams:elipses:w&#45;&gt;ems_clusters:elipses:e</title>
<path fill="none" stroke="black" d="M468.028,-1135.77C445.195,-1126.93 446.97,-1095.81 419,-1078.18 346.875,-1032.71 295.432,-1073.96 240,-1009.18 138.013,-889.992 322.368,-664.181 165.5,-664.181"/>
<polygon fill="black" stroke="black" points="474.609,-1136.87 481.909,-1141.73 478.554,-1137.52 482.5,-1138.18 482.5,-1138.18 482.5,-1138.18 478.554,-1137.52 483.091,-1134.63 474.609,-1136.87 474.609,-1136.87"/>
<ellipse fill="none" stroke="black" cx="471.452" cy="-1136.34" rx="3.2" ry="3.2"/>
</g>
<!-- event_streams&#45;&gt;physical_servers -->
<g id="edge12" class="edge"><title>event_streams:elipses:w&#45;&gt;physical_servers:elipses:e</title>
<path fill="none" stroke="black" d="M467.948,-1138.18C367.753,-1138.13 328.22,-1136.2 240,-1077.18 199.994,-1050.42 223.634,-990.181 175.5,-990.181"/>
<polygon fill="black" stroke="black" points="474.5,-1138.18 482.5,-1141.78 478.5,-1138.18 482.5,-1138.18 482.5,-1138.18 482.5,-1138.18 478.5,-1138.18 482.5,-1134.58 474.5,-1138.18 474.5,-1138.18"/>
<ellipse fill="none" stroke="black" cx="471.3" cy="-1138.18" rx="3.2" ry="3.2"/>
</g>
<!-- guest_applications -->
<g id="node12" class="node"><title>guest_applications</title>
<g id="a_node12"><a xlink:href="../../tables/guest_applications.html" xlink:title="guest_applications" target="_top">
<polygon fill="#ffffff" stroke="none" points="472.5,-689.181 472.5,-747.181 626.5,-747.181 626.5,-689.181 472.5,-689.181"/>
<polygon fill="#f5f5f5" stroke="none" points="472.5,-725.181 472.5,-747.181 626.5,-747.181 626.5,-725.181 472.5,-725.181"/>
<polygon fill="none" stroke="black" points="472.5,-725.181 472.5,-747.181 626.5,-747.181 626.5,-725.181 472.5,-725.181"/>
<text text-anchor="start" x="477.5" y="-734.381" font-family="Helvetica,sans-Serif" font-weight="bold" font-size="11.00">guest_applications</text>
<text text-anchor="start" x="587.5" y="-733.381" font-family="Helvetica,sans-Serif" font-size="11.00">[table]</text>
<polygon fill="none" stroke="black" points="472.5,-707.181 472.5,-725.181 626.5,-725.181 626.5,-707.181 472.5,-707.181"/>
<text text-anchor="start" x="475.5" y="-713.381" font-family="Helvetica,sans-Serif" font-size="11.00">...</text>
<polygon fill="#ffffff" stroke="none" points="472.5,-689.181 472.5,-707.181 547.5,-707.181 547.5,-689.181 472.5,-689.181"/>
<polygon fill="none" stroke="black" points="472.5,-689.181 472.5,-707.181 547.5,-707.181 547.5,-689.181 472.5,-689.181"/>
<text text-anchor="start" x="475.5" y="-695.381" font-family="Helvetica,sans-Serif" font-size="11.00">&lt; 2</text>
<polygon fill="#ffffff" stroke="none" points="547.5,-689.181 547.5,-707.181 586.5,-707.181 586.5,-689.181 547.5,-689.181"/>
<polygon fill="none" stroke="black" points="547.5,-689.181 547.5,-707.181 586.5,-707.181 586.5,-689.181 547.5,-689.181"/>
<text text-anchor="start" x="576.5" y="-695.381" font-family="Helvetica,sans-Serif" font-size="11.00"> &#160;</text>
<polygon fill="#ffffff" stroke="none" points="586.5,-689.181 586.5,-707.181 626.5,-707.181 626.5,-689.181 586.5,-689.181"/>
<polygon fill="none" stroke="black" points="586.5,-689.181 586.5,-707.181 626.5,-707.181 626.5,-689.181 586.5,-689.181"/>
<text text-anchor="start" x="616.5" y="-695.381" font-family="Helvetica,sans-Serif" font-size="11.00"> &#160;</text>
</a>
</g>
</g>
<!-- guest_applications&#45;&gt;hosts -->
<g id="edge13" class="edge"><title>guest_applications:elipses:w&#45;&gt;hosts:id:e</title>
<path fill="none" stroke="black" d="M457.452,-712.581C439.837,-702.072 439.461,-672.181 412.5,-672.181"/>
<polygon fill="black" stroke="black" points="463.751,-714.195 470.606,-719.669 467.625,-715.188 471.5,-716.181 471.5,-716.181 471.5,-716.181 467.625,-715.188 472.394,-712.694 463.751,-714.195 463.751,-714.195"/>
<ellipse fill="none" stroke="black" cx="460.651" cy="-713.4" rx="3.2" ry="3.2"/>
</g>
<!-- hardwares -->
<g id="node13" class="node"><title>hardwares</title>
<g id="a_node13"><a xlink:href="../../tables/hardwares.html" xlink:title="hardwares" target="_top">
<polygon fill="#ffffff" stroke="none" points="708.5,-703.181 708.5,-761.181 817.5,-761.181 817.5,-703.181 708.5,-703.181"/>
<polygon fill="#f5f5f5" stroke="none" points="709,-739.181 709,-761.181 818,-761.181 818,-739.181 709,-739.181"/>
<polygon fill="none" stroke="black" points="709,-739.181 709,-761.181 818,-761.181 818,-739.181 709,-739.181"/>
<text text-anchor="start" x="714" y="-748.381" font-family="Helvetica,sans-Serif" font-weight="bold" font-size="11.00">hardwares</text>
<text text-anchor="start" x="779" y="-747.381" font-family="Helvetica,sans-Serif" font-size="11.00">[table]</text>
<polygon fill="none" stroke="black" points="709,-721.181 709,-739.181 818,-739.181 818,-721.181 709,-721.181"/>
<text text-anchor="start" x="712" y="-727.381" font-family="Helvetica,sans-Serif" font-size="11.00">...</text>
<polygon fill="#ffffff" stroke="none" points="709,-703.181 709,-721.181 757,-721.181 757,-703.181 709,-703.181"/>
<polygon fill="none" stroke="black" points="709,-703.181 709,-721.181 757,-721.181 757,-703.181 709,-703.181"/>
<text text-anchor="start" x="712" y="-709.381" font-family="Helvetica,sans-Serif" font-size="11.00">&lt; 4</text>
<polygon fill="#ffffff" stroke="none" points="757,-703.181 757,-721.181 782,-721.181 782,-703.181 757,-703.181"/>
<polygon fill="none" stroke="black" points="757,-703.181 757,-721.181 782,-721.181 782,-703.181 757,-703.181"/>
<text text-anchor="start" x="772" y="-709.381" font-family="Helvetica,sans-Serif" font-size="11.00"> &#160;</text>
<polygon fill="#ffffff" stroke="none" points="782,-703.181 782,-721.181 818,-721.181 818,-703.181 782,-703.181"/>
<polygon fill="none" stroke="black" points="782,-703.181 782,-721.181 818,-721.181 818,-703.181 782,-703.181"/>
<text text-anchor="start" x="798" y="-709.381" font-family="Helvetica,sans-Serif" font-size="11.00">5 &gt;</text>
</a>
</g>
</g>
<!-- hardwares&#45;&gt;hosts -->
<g id="edge14" class="edge"><title>hardwares:elipses:w&#45;&gt;hosts:id:e</title>
<path fill="none" stroke="black" d="M693.606,-727.302C673.857,-718.013 674.81,-688.832 647,-678.181 549.64,-640.894 516.756,-672.181 412.5,-672.181"/>
<polygon fill="black" stroke="black" points="700.155,-728.612 707.294,-733.711 704.078,-729.397 708,-730.181 708,-730.181 708,-730.181 704.078,-729.397 708.706,-726.651 700.155,-728.612 700.155,-728.612"/>
<ellipse fill="none" stroke="black" cx="697.018" cy="-727.984" rx="3.2" ry="3.2"/>
</g>
<!-- switches -->
<g id="node14" class="node"><title>switches</title>
<g id="a_node14"><a xlink:href="../../tables/switches.html" xlink:title="switches" target="_top">
<polygon fill="#ffffff" stroke="none" points="500.5,-768.181 500.5,-826.181 598.5,-826.181 598.5,-768.181 500.5,-768.181"/>
<polygon fill="#f5f5f5" stroke="none" points="500.5,-804.181 500.5,-826.181 598.5,-826.181 598.5,-804.181 500.5,-804.181"/>
<polygon fill="none" stroke="black" points="500.5,-804.181 500.5,-826.181 598.5,-826.181 598.5,-804.181 500.5,-804.181"/>
<text text-anchor="start" x="505.5" y="-813.381" font-family="Helvetica,sans-Serif" font-weight="bold" font-size="11.00">switches</text>
<text text-anchor="start" x="559.5" y="-812.381" font-family="Helvetica,sans-Serif" font-size="11.00">[table]</text>
<polygon fill="none" stroke="black" points="500.5,-786.181 500.5,-804.181 598.5,-804.181 598.5,-786.181 500.5,-786.181"/>
<text text-anchor="start" x="503.5" y="-792.381" font-family="Helvetica,sans-Serif" font-size="11.00">...</text>
<polygon fill="#ffffff" stroke="none" points="500.5,-768.181 500.5,-786.181 542.5,-786.181 542.5,-768.181 500.5,-768.181"/>
<polygon fill="none" stroke="black" points="500.5,-768.181 500.5,-786.181 542.5,-786.181 542.5,-768.181 500.5,-768.181"/>
<text text-anchor="start" x="503.5" y="-774.381" font-family="Helvetica,sans-Serif" font-size="11.00">&lt; 1</text>
<polygon fill="#ffffff" stroke="none" points="542.5,-768.181 542.5,-786.181 565.5,-786.181 565.5,-768.181 542.5,-768.181"/>
<polygon fill="none" stroke="black" points="542.5,-768.181 542.5,-786.181 565.5,-786.181 565.5,-768.181 542.5,-768.181"/>
<text text-anchor="start" x="555.5" y="-774.381" font-family="Helvetica,sans-Serif" font-size="11.00"> &#160;</text>
<polygon fill="#ffffff" stroke="none" points="565.5,-768.181 565.5,-786.181 598.5,-786.181 598.5,-768.181 565.5,-768.181"/>
<polygon fill="none" stroke="black" points="565.5,-768.181 565.5,-786.181 598.5,-786.181 598.5,-768.181 565.5,-768.181"/>
<text text-anchor="start" x="578.5" y="-774.381" font-family="Helvetica,sans-Serif" font-size="11.00">5 &gt;</text>
</a>
</g>
</g>
<!-- hardwares&#45;&gt;switches -->
<g id="edge15" class="edge"><title>hardwares:elipses:w&#45;&gt;switches:elipses:e</title>
<path fill="none" stroke="black" d="M693.677,-731.788C651.994,-741.798 650.443,-795.181 599.5,-795.181"/>
<polygon fill="black" stroke="black" points="700.05,-731.073 708.401,-733.759 704.025,-730.627 708,-730.181 708,-730.181 708,-730.181 704.025,-730.627 707.599,-726.604 700.05,-731.073 700.05,-731.073"/>
<ellipse fill="none" stroke="black" cx="696.87" cy="-731.43" rx="3.2" ry="3.2"/>
</g>
<!-- switches&#45;&gt;hosts -->
<g id="edge29" class="edge"><title>switches:elipses:w&#45;&gt;hosts:id:e</title>
<path fill="none" stroke="black" d="M485.157,-793.062C470.299,-787.92 465.172,-773.961 452,-757.181 426.277,-724.414 454.158,-672.181 412.5,-672.181"/>
<polygon fill="black" stroke="black" points="491.586,-794.012 498.974,-798.743 495.543,-794.597 499.5,-795.181 499.5,-795.181 499.5,-795.181 495.543,-794.597 500.026,-791.62 491.586,-794.012 491.586,-794.012"/>
<ellipse fill="none" stroke="black" cx="488.42" cy="-793.544" rx="3.2" ry="3.2"/>
</g>
<!-- host_aggregate_hosts -->
<g id="node15" class="node"><title>host_aggregate_hosts</title>
<g id="a_node15"><a xlink:href="../../tables/host_aggregate_hosts.html" xlink:title="host_aggregate_hosts" target="_top">
<polygon fill="#ffffff" stroke="none" points="465.5,-556.181 465.5,-614.181 633.5,-614.181 633.5,-556.181 465.5,-556.181"/>
<polygon fill="#f5f5f5" stroke="none" points="465.5,-592.181 465.5,-614.181 633.5,-614.181 633.5,-592.181 465.5,-592.181"/>
<polygon fill="none" stroke="black" points="465.5,-592.181 465.5,-614.181 633.5,-614.181 633.5,-592.181 465.5,-592.181"/>
<text text-anchor="start" x="470.5" y="-601.381" font-family="Helvetica,sans-Serif" font-weight="bold" font-size="11.00">host_aggregate_hosts</text>
<text text-anchor="start" x="594.5" y="-600.381" font-family="Helvetica,sans-Serif" font-size="11.00">[table]</text>
<polygon fill="none" stroke="black" points="465.5,-574.181 465.5,-592.181 633.5,-592.181 633.5,-574.181 465.5,-574.181"/>
<text text-anchor="start" x="468.5" y="-580.381" font-family="Helvetica,sans-Serif" font-size="11.00">...</text>
<polygon fill="#ffffff" stroke="none" points="465.5,-556.181 465.5,-574.181 547.5,-574.181 547.5,-556.181 465.5,-556.181"/>
<polygon fill="none" stroke="black" points="465.5,-556.181 465.5,-574.181 547.5,-574.181 547.5,-556.181 465.5,-556.181"/>
<text text-anchor="start" x="468.5" y="-562.381" font-family="Helvetica,sans-Serif" font-size="11.00">&lt; 2</text>
<polygon fill="#ffffff" stroke="none" points="547.5,-556.181 547.5,-574.181 590.5,-574.181 590.5,-556.181 547.5,-556.181"/>
<polygon fill="none" stroke="black" points="547.5,-556.181 547.5,-574.181 590.5,-574.181 590.5,-556.181 547.5,-556.181"/>
<text text-anchor="start" x="580.5" y="-562.381" font-family="Helvetica,sans-Serif" font-size="11.00"> &#160;</text>
<polygon fill="#ffffff" stroke="none" points="590.5,-556.181 590.5,-574.181 633.5,-574.181 633.5,-556.181 590.5,-556.181"/>
<polygon fill="none" stroke="black" points="590.5,-556.181 590.5,-574.181 633.5,-574.181 633.5,-556.181 590.5,-556.181"/>
<text text-anchor="start" x="623.5" y="-562.381" font-family="Helvetica,sans-Serif" font-size="11.00"> &#160;</text>
</a>
</g>
</g>
<!-- host_aggregate_hosts&#45;&gt;hosts -->
<g id="edge16" class="edge"><title>host_aggregate_hosts:elipses:w&#45;&gt;hosts:id:e</title>
<path fill="none" stroke="black" d="M450.677,-587.237C427.484,-604.648 452.407,-672.181 412.5,-672.181"/>
<polygon fill="black" stroke="black" points="456.824,-585.433 465.513,-586.636 460.662,-584.307 464.5,-583.181 464.5,-583.181 464.5,-583.181 460.662,-584.307 463.487,-579.727 456.824,-585.433 456.824,-585.433"/>
<ellipse fill="none" stroke="black" cx="453.753" cy="-586.334" rx="3.20001" ry="3.20001"/>
</g>
<!-- host_service_groups&#45;&gt;hosts -->
<g id="edge17" class="edge"><title>host_service_groups:elipses:w&#45;&gt;hosts:id:e</title>
<path fill="none" stroke="black" d="M455.202,-403.904C417.127,-443.252 469.307,-672.181 412.5,-672.181"/>
<polygon fill="black" stroke="black" points="461.152,-401.344 469.923,-401.488 464.826,-399.763 468.5,-398.181 468.5,-398.181 468.5,-398.181 464.826,-399.763 467.077,-394.875 461.152,-401.344 461.152,-401.344"/>
<ellipse fill="none" stroke="black" cx="458.212" cy="-402.609" rx="3.20001" ry="3.20001"/>
</g>
<!-- host_storages -->
<g id="node17" class="node"><title>host_storages</title>
<g id="a_node17"><a xlink:href="../../tables/host_storages.html" xlink:title="host_storages" target="_top">
<polygon fill="#ffffff" stroke="none" points="487,-450.181 487,-508.181 612,-508.181 612,-450.181 487,-450.181"/>
<polygon fill="#f5f5f5" stroke="none" points="487.5,-486.181 487.5,-508.181 612.5,-508.181 612.5,-486.181 487.5,-486.181"/>
<polygon fill="none" stroke="black" points="487.5,-486.181 487.5,-508.181 612.5,-508.181 612.5,-486.181 487.5,-486.181"/>
<text text-anchor="start" x="492.5" y="-495.381" font-family="Helvetica,sans-Serif" font-weight="bold" font-size="11.00">host_storages</text>
<text text-anchor="start" x="573.5" y="-494.381" font-family="Helvetica,sans-Serif" font-size="11.00">[table]</text>
<polygon fill="none" stroke="black" points="487.5,-468.181 487.5,-486.181 612.5,-486.181 612.5,-468.181 487.5,-468.181"/>
<text text-anchor="start" x="490.5" y="-474.381" font-family="Helvetica,sans-Serif" font-size="11.00">...</text>
<polygon fill="#ffffff" stroke="none" points="487.5,-450.181 487.5,-468.181 548.5,-468.181 548.5,-450.181 487.5,-450.181"/>
<polygon fill="none" stroke="black" points="487.5,-450.181 487.5,-468.181 548.5,-468.181 548.5,-450.181 487.5,-450.181"/>
<text text-anchor="start" x="490.5" y="-456.381" font-family="Helvetica,sans-Serif" font-size="11.00">&lt; 2</text>
<polygon fill="#ffffff" stroke="none" points="548.5,-450.181 548.5,-468.181 580.5,-468.181 580.5,-450.181 548.5,-450.181"/>
<polygon fill="none" stroke="black" points="548.5,-450.181 548.5,-468.181 580.5,-468.181 580.5,-450.181 548.5,-450.181"/>
<text text-anchor="start" x="570.5" y="-456.381" font-family="Helvetica,sans-Serif" font-size="11.00"> &#160;</text>
<polygon fill="#ffffff" stroke="none" points="580.5,-450.181 580.5,-468.181 612.5,-468.181 612.5,-450.181 580.5,-450.181"/>
<polygon fill="none" stroke="black" points="580.5,-450.181 580.5,-468.181 612.5,-468.181 612.5,-450.181 580.5,-450.181"/>
<text text-anchor="start" x="602.5" y="-456.381" font-family="Helvetica,sans-Serif" font-size="11.00"> &#160;</text>
</a>
</g>
</g>
<!-- host_storages&#45;&gt;hosts -->
<g id="edge18" class="edge"><title>host_storages:elipses:w&#45;&gt;hosts:id:e</title>
<path fill="none" stroke="black" d="M472.373,-480.804C461.412,-488.033 460.406,-505.033 452,-522.181 421.655,-584.083 481.439,-672.181 412.5,-672.181"/>
<polygon fill="black" stroke="black" points="478.751,-479.169 487.394,-480.669 482.625,-478.175 486.5,-477.181 486.5,-477.181 486.5,-477.181 482.625,-478.175 485.606,-473.694 478.751,-479.169 478.751,-479.169"/>
<ellipse fill="none" stroke="black" cx="475.651" cy="-479.963" rx="3.2" ry="3.2"/>
</g>
<!-- host_switches -->
<g id="node18" class="node"><title>host_switches</title>
<g id="a_node18"><a xlink:href="../../tables/host_switches.html" xlink:title="host_switches" target="_top">
<polygon fill="#ffffff" stroke="none" points="699.5,-795.181 699.5,-853.181 826.5,-853.181 826.5,-795.181 699.5,-795.181"/>
<polygon fill="#f5f5f5" stroke="none" points="700,-831.181 700,-853.181 827,-853.181 827,-831.181 700,-831.181"/>
<polygon fill="none" stroke="black" points="700,-831.181 700,-853.181 827,-853.181 827,-831.181 700,-831.181"/>
<text text-anchor="start" x="705" y="-840.381" font-family="Helvetica,sans-Serif" font-weight="bold" font-size="11.00">host_switches</text>
<text text-anchor="start" x="788" y="-839.381" font-family="Helvetica,sans-Serif" font-size="11.00">[table]</text>
<polygon fill="none" stroke="black" points="700,-813.181 700,-831.181 827,-831.181 827,-813.181 700,-813.181"/>
<text text-anchor="start" x="703" y="-819.381" font-family="Helvetica,sans-Serif" font-size="11.00">...</text>
<polygon fill="#ffffff" stroke="none" points="700,-795.181 700,-813.181 762,-813.181 762,-795.181 700,-795.181"/>
<polygon fill="none" stroke="black" points="700,-795.181 700,-813.181 762,-813.181 762,-795.181 700,-795.181"/>
<text text-anchor="start" x="703" y="-801.381" font-family="Helvetica,sans-Serif" font-size="11.00">&lt; 2</text>
<polygon fill="#ffffff" stroke="none" points="762,-795.181 762,-813.181 794,-813.181 794,-795.181 762,-795.181"/>
<polygon fill="none" stroke="black" points="762,-795.181 762,-813.181 794,-813.181 794,-795.181 762,-795.181"/>
<text text-anchor="start" x="784" y="-801.381" font-family="Helvetica,sans-Serif" font-size="11.00"> &#160;</text>
<polygon fill="#ffffff" stroke="none" points="794,-795.181 794,-813.181 827,-813.181 827,-795.181 794,-795.181"/>
<polygon fill="none" stroke="black" points="794,-795.181 794,-813.181 827,-813.181 827,-795.181 794,-795.181"/>
<text text-anchor="start" x="817" y="-801.381" font-family="Helvetica,sans-Serif" font-size="11.00"> &#160;</text>
</a>
</g>
</g>
<!-- host_switches&#45;&gt;hosts -->
<g id="edge19" class="edge"><title>host_switches:elipses:w&#45;&gt;hosts:id:e</title>
<path fill="none" stroke="black" d="M684.467,-823.946C671.791,-827.331 665.049,-834.63 647,-837.181 561.186,-849.311 520.043,-890.858 452,-837.181 392.798,-790.479 487.905,-672.181 412.5,-672.181"/>
<polygon fill="black" stroke="black" points="691.058,-823.146 699.434,-825.755 695.029,-822.663 699,-822.181 699,-822.181 699,-822.181 695.029,-822.663 698.566,-818.608 691.058,-823.146 691.058,-823.146"/>
<ellipse fill="none" stroke="black" cx="687.882" cy="-823.531" rx="3.2" ry="3.2"/>
</g>
<!-- host_switches&#45;&gt;switches -->
<g id="edge20" class="edge"><title>host_switches:elipses:w&#45;&gt;switches:elipses:e</title>
<path fill="none" stroke="black" d="M684.333,-821.156C650.816,-816.224 639.952,-795.181 599.5,-795.181"/>
<polygon fill="black" stroke="black" points="691.019,-821.623 698.749,-825.773 695.01,-821.902 699,-822.181 699,-822.181 699,-822.181 695.01,-821.902 699.251,-818.59 691.019,-821.623 691.019,-821.623"/>
<ellipse fill="none" stroke="black" cx="687.827" cy="-821.4" rx="3.2" ry="3.2"/>
</g>
<!-- operating_systems -->
<g id="node19" class="node"><title>operating_systems</title>
<g id="a_node19"><a xlink:href="../../tables/operating_systems.html" xlink:title="operating_systems" target="_top">
<polygon fill="#ffffff" stroke="none" points="472.5,-292.181 472.5,-350.181 626.5,-350.181 626.5,-292.181 472.5,-292.181"/>
<polygon fill="#f5f5f5" stroke="none" points="472.5,-328.181 472.5,-350.181 626.5,-350.181 626.5,-328.181 472.5,-328.181"/>
<polygon fill="none" stroke="black" points="472.5,-328.181 472.5,-350.181 626.5,-350.181 626.5,-328.181 472.5,-328.181"/>
<text text-anchor="start" x="477.5" y="-337.381" font-family="Helvetica,sans-Serif" font-weight="bold" font-size="11.00">operating_systems</text>
<text text-anchor="start" x="587.5" y="-336.381" font-family="Helvetica,sans-Serif" font-size="11.00">[table]</text>
<polygon fill="none" stroke="black" points="472.5,-310.181 472.5,-328.181 626.5,-328.181 626.5,-310.181 472.5,-310.181"/>
<text text-anchor="start" x="475.5" y="-316.381" font-family="Helvetica,sans-Serif" font-size="11.00">...</text>
<polygon fill="#ffffff" stroke="none" points="472.5,-292.181 472.5,-310.181 542.5,-310.181 542.5,-292.181 472.5,-292.181"/>
<polygon fill="none" stroke="black" points="472.5,-292.181 472.5,-310.181 542.5,-310.181 542.5,-292.181 472.5,-292.181"/>
<text text-anchor="start" x="475.5" y="-298.381" font-family="Helvetica,sans-Serif" font-size="11.00">&lt; 2</text>
<polygon fill="#ffffff" stroke="none" points="542.5,-292.181 542.5,-310.181 579.5,-310.181 579.5,-292.181 542.5,-292.181"/>
<polygon fill="none" stroke="black" points="542.5,-292.181 542.5,-310.181 579.5,-310.181 579.5,-292.181 542.5,-292.181"/>
<text text-anchor="start" x="569.5" y="-298.381" font-family="Helvetica,sans-Serif" font-size="11.00"> &#160;</text>
<polygon fill="#ffffff" stroke="none" points="579.5,-292.181 579.5,-310.181 626.5,-310.181 626.5,-292.181 579.5,-292.181"/>
<polygon fill="none" stroke="black" points="579.5,-292.181 579.5,-310.181 626.5,-310.181 626.5,-292.181 579.5,-292.181"/>
<text text-anchor="start" x="606.5" y="-298.381" font-family="Helvetica,sans-Serif" font-size="11.00">2 &gt;</text>
</a>
</g>
</g>
<!-- operating_systems&#45;&gt;hosts -->
<g id="edge24" class="edge"><title>operating_systems:elipses:w&#45;&gt;hosts:id:e</title>
<path fill="none" stroke="black" d="M457.593,-323.905C404.809,-365.794 486.596,-672.181 412.5,-672.181"/>
<polygon fill="black" stroke="black" points="463.925,-321.754 472.658,-322.59 467.712,-320.468 471.5,-319.181 471.5,-319.181 471.5,-319.181 467.712,-320.468 470.342,-315.773 463.925,-321.754 463.925,-321.754"/>
<ellipse fill="none" stroke="black" cx="460.895" cy="-322.783" rx="3.20001" ry="3.20001"/>
</g>
<!-- patches -->
<g id="node20" class="node"><title>patches</title>
<g id="a_node20"><a xlink:href="../../tables/patches.html" xlink:title="patches" target="_top">
<polygon fill="#ffffff" stroke="none" points="502.5,-953.181 502.5,-1011.18 596.5,-1011.18 596.5,-953.181 502.5,-953.181"/>
<polygon fill="#f5f5f5" stroke="none" points="502.5,-989.181 502.5,-1011.18 596.5,-1011.18 596.5,-989.181 502.5,-989.181"/>
<polygon fill="none" stroke="black" points="502.5,-989.181 502.5,-1011.18 596.5,-1011.18 596.5,-989.181 502.5,-989.181"/>
<text text-anchor="start" x="507.5" y="-998.381" font-family="Helvetica,sans-Serif" font-weight="bold" font-size="11.00">patches</text>
<text text-anchor="start" x="557.5" y="-997.381" font-family="Helvetica,sans-Serif" font-size="11.00">[table]</text>
<polygon fill="none" stroke="black" points="502.5,-971.181 502.5,-989.181 596.5,-989.181 596.5,-971.181 502.5,-971.181"/>
<text text-anchor="start" x="505.5" y="-977.381" font-family="Helvetica,sans-Serif" font-size="11.00">...</text>
<polygon fill="#ffffff" stroke="none" points="502.5,-953.181 502.5,-971.181 547.5,-971.181 547.5,-953.181 502.5,-953.181"/>
<polygon fill="none" stroke="black" points="502.5,-953.181 502.5,-971.181 547.5,-971.181 547.5,-953.181 502.5,-953.181"/>
<text text-anchor="start" x="505.5" y="-959.381" font-family="Helvetica,sans-Serif" font-size="11.00">&lt; 1</text>
<polygon fill="#ffffff" stroke="none" points="547.5,-953.181 547.5,-971.181 571.5,-971.181 571.5,-953.181 547.5,-953.181"/>
<polygon fill="none" stroke="black" points="547.5,-953.181 547.5,-971.181 571.5,-971.181 571.5,-953.181 547.5,-953.181"/>
<text text-anchor="start" x="561.5" y="-959.381" font-family="Helvetica,sans-Serif" font-size="11.00"> &#160;</text>
<polygon fill="#ffffff" stroke="none" points="571.5,-953.181 571.5,-971.181 596.5,-971.181 596.5,-953.181 571.5,-953.181"/>
<polygon fill="none" stroke="black" points="571.5,-953.181 571.5,-971.181 596.5,-971.181 596.5,-953.181 571.5,-953.181"/>
<text text-anchor="start" x="586.5" y="-959.381" font-family="Helvetica,sans-Serif" font-size="11.00"> &#160;</text>
</a>
</g>
</g>
<!-- patches&#45;&gt;hosts -->
<g id="edge25" class="edge"><title>patches:elipses:w&#45;&gt;hosts:id:e</title>
<path fill="none" stroke="black" d="M486.96,-978.55C470.539,-974.318 463.194,-961.99 452,-943.181 420.876,-890.883 473.359,-672.181 412.5,-672.181"/>
<polygon fill="black" stroke="black" points="493.55,-979.289 501.099,-983.759 497.525,-979.735 501.5,-980.181 501.5,-980.181 501.5,-980.181 497.525,-979.735 501.901,-976.604 493.55,-979.289 493.55,-979.289"/>
<ellipse fill="none" stroke="black" cx="490.37" cy="-978.932" rx="3.2" ry="3.2"/>
</g>
<!-- placement_groups -->
<g id="node21" class="node"><title>placement_groups</title>
<g id="a_node21"><a xlink:href="../../tables/placement_groups.html" xlink:title="placement_groups" target="_top">
<polygon fill="#ffffff" stroke="none" points="253,-328.181 253,-386.181 406,-386.181 406,-328.181 253,-328.181"/>
<polygon fill="#f5f5f5" stroke="none" points="253.5,-364.181 253.5,-386.181 406.5,-386.181 406.5,-364.181 253.5,-364.181"/>
<polygon fill="none" stroke="black" points="253.5,-364.181 253.5,-386.181 406.5,-386.181 406.5,-364.181 253.5,-364.181"/>
<text text-anchor="start" x="258.5" y="-373.381" font-family="Helvetica,sans-Serif" font-weight="bold" font-size="11.00">placement_groups</text>
<text text-anchor="start" x="367.5" y="-372.381" font-family="Helvetica,sans-Serif" font-size="11.00">[table]</text>
<polygon fill="none" stroke="black" points="253.5,-346.181 253.5,-364.181 406.5,-364.181 406.5,-346.181 253.5,-346.181"/>
<text text-anchor="start" x="256.5" y="-352.381" font-family="Helvetica,sans-Serif" font-size="11.00">...</text>
<polygon fill="#ffffff" stroke="none" points="253.5,-328.181 253.5,-346.181 323.5,-346.181 323.5,-328.181 253.5,-328.181"/>
<polygon fill="none" stroke="black" points="253.5,-328.181 253.5,-346.181 323.5,-346.181 323.5,-328.181 253.5,-328.181"/>
<text text-anchor="start" x="256.5" y="-334.381" font-family="Helvetica,sans-Serif" font-size="11.00">&lt; 2</text>
<polygon fill="#ffffff" stroke="none" points="323.5,-328.181 323.5,-346.181 359.5,-346.181 359.5,-328.181 323.5,-328.181"/>
<polygon fill="none" stroke="black" points="323.5,-328.181 323.5,-346.181 359.5,-346.181 359.5,-328.181 323.5,-328.181"/>
<text text-anchor="start" x="349.5" y="-334.381" font-family="Helvetica,sans-Serif" font-size="11.00"> &#160;</text>
<polygon fill="#ffffff" stroke="none" points="359.5,-328.181 359.5,-346.181 406.5,-346.181 406.5,-328.181 359.5,-328.181"/>
<polygon fill="none" stroke="black" points="359.5,-328.181 359.5,-346.181 406.5,-346.181 406.5,-328.181 359.5,-328.181"/>
<text text-anchor="start" x="386.5" y="-334.381" font-family="Helvetica,sans-Serif" font-size="11.00">1 &gt;</text>
</a>
</g>
</g>
<!-- placement_groups&#45;&gt;availability_zones -->
<g id="edge26" class="edge"><title>placement_groups:elipses:w&#45;&gt;availability_zones:id:e</title>
<path fill="none" stroke="black" d="M238.471,-350.708C218.187,-333.996 236.459,-276.181 200.5,-276.181"/>
<polygon fill="black" stroke="black" points="244.878,-352.751 251.406,-358.611 248.689,-353.966 252.5,-355.181 252.5,-355.181 252.5,-355.181 248.689,-353.966 253.594,-351.752 244.878,-352.751 244.878,-352.751"/>
<ellipse fill="none" stroke="black" cx="241.829" cy="-351.779" rx="3.20001" ry="3.20001"/>
</g>
<!-- policy_events -->
<g id="node22" class="node"><title>policy_events</title>
<g id="a_node22"><a xlink:href="../../tables/policy_events.html" xlink:title="policy_events" target="_top">
<polygon fill="#ffffff" stroke="none" points="486.5,-1032.18 486.5,-1090.18 612.5,-1090.18 612.5,-1032.18 486.5,-1032.18"/>
<polygon fill="#f5f5f5" stroke="none" points="486.5,-1068.18 486.5,-1090.18 612.5,-1090.18 612.5,-1068.18 486.5,-1068.18"/>
<polygon fill="none" stroke="black" points="486.5,-1068.18 486.5,-1090.18 612.5,-1090.18 612.5,-1068.18 486.5,-1068.18"/>
<text text-anchor="start" x="491.5" y="-1077.38" font-family="Helvetica,sans-Serif" font-weight="bold" font-size="11.00">policy_events</text>
<text text-anchor="start" x="573.5" y="-1076.38" font-family="Helvetica,sans-Serif" font-size="11.00">[table]</text>
<polygon fill="none" stroke="black" points="486.5,-1050.18 486.5,-1068.18 612.5,-1068.18 612.5,-1050.18 486.5,-1050.18"/>
<text text-anchor="start" x="489.5" y="-1056.38" font-family="Helvetica,sans-Serif" font-size="11.00">...</text>
<polygon fill="#ffffff" stroke="none" points="486.5,-1032.18 486.5,-1050.18 542.5,-1050.18 542.5,-1032.18 486.5,-1032.18"/>
<polygon fill="none" stroke="black" points="486.5,-1032.18 486.5,-1050.18 542.5,-1050.18 542.5,-1032.18 486.5,-1032.18"/>
<text text-anchor="start" x="489.5" y="-1038.38" font-family="Helvetica,sans-Serif" font-size="11.00">&lt; 4</text>
<polygon fill="#ffffff" stroke="none" points="542.5,-1032.18 542.5,-1050.18 572.5,-1050.18 572.5,-1032.18 542.5,-1032.18"/>
<polygon fill="none" stroke="black" points="542.5,-1032.18 542.5,-1050.18 572.5,-1050.18 572.5,-1032.18 542.5,-1032.18"/>
<text text-anchor="start" x="562.5" y="-1038.38" font-family="Helvetica,sans-Serif" font-size="11.00"> &#160;</text>
<polygon fill="#ffffff" stroke="none" points="572.5,-1032.18 572.5,-1050.18 612.5,-1050.18 612.5,-1032.18 572.5,-1032.18"/>
<polygon fill="none" stroke="black" points="572.5,-1032.18 572.5,-1050.18 612.5,-1050.18 612.5,-1032.18 572.5,-1032.18"/>
<text text-anchor="start" x="592.5" y="-1038.38" font-family="Helvetica,sans-Serif" font-size="11.00">1 &gt;</text>
</a>
</g>
</g>
<!-- policy_events&#45;&gt;hosts -->
<g id="edge28" class="edge"><title>policy_events:elipses:w&#45;&gt;hosts:id:e</title>
<path fill="none" stroke="black" d="M471.237,-1055.69C461.601,-1049.75 458.632,-1036.87 452,-1022.18 419.792,-950.844 490.772,-672.181 412.5,-672.181"/>
<polygon fill="black" stroke="black" points="477.729,-1057.28 484.644,-1062.68 481.615,-1058.23 485.5,-1059.18 485.5,-1059.18 485.5,-1059.18 481.615,-1058.23 486.356,-1055.68 477.729,-1057.28 477.729,-1057.28"/>
<ellipse fill="none" stroke="black" cx="474.621" cy="-1056.52" rx="3.2" ry="3.2"/>
</g>
<!-- policy_events&#45;&gt;ems_clusters -->
<g id="edge27" class="edge"><title>policy_events:elipses:w&#45;&gt;ems_clusters:elipses:e</title>
<path fill="none" stroke="black" d="M471.039,-1057.06C364.414,-1025.97 273.614,-664.181 165.5,-664.181"/>
<polygon fill="black" stroke="black" points="477.585,-1058.02 484.977,-1062.74 481.543,-1058.6 485.5,-1059.18 485.5,-1059.18 485.5,-1059.18 481.543,-1058.6 486.023,-1055.62 477.585,-1058.02 477.585,-1058.02"/>
<ellipse fill="none" stroke="black" cx="474.419" cy="-1057.55" rx="3.2" ry="3.2"/>
</g>
<!-- vms -->
<g id="node23" class="node"><title>vms</title>
<g id="a_node23"><a xlink:href="../../tables/vms.html" xlink:title="vms" target="_top">
<polygon fill="#ffffff" stroke="none" points="513.5,-213.181 513.5,-271.181 585.5,-271.181 585.5,-213.181 513.5,-213.181"/>
<polygon fill="#f5f5f5" stroke="none" points="513.5,-249.181 513.5,-271.181 585.5,-271.181 585.5,-249.181 513.5,-249.181"/>
<polygon fill="none" stroke="black" points="513.5,-249.181 513.5,-271.181 585.5,-271.181 585.5,-249.181 513.5,-249.181"/>
<text text-anchor="start" x="518.5" y="-258.381" font-family="Helvetica,sans-Serif" font-weight="bold" font-size="11.00">vms</text>
<text text-anchor="start" x="546.5" y="-257.381" font-family="Helvetica,sans-Serif" font-size="11.00">[table]</text>
<polygon fill="none" stroke="black" points="513.5,-231.181 513.5,-249.181 585.5,-249.181 585.5,-231.181 513.5,-231.181"/>
<text text-anchor="start" x="516.5" y="-237.381" font-family="Helvetica,sans-Serif" font-size="11.00">...</text>
<polygon fill="#ffffff" stroke="none" points="513.5,-213.181 513.5,-231.181 546.5,-231.181 546.5,-213.181 513.5,-213.181"/>
<polygon fill="none" stroke="black" points="513.5,-213.181 513.5,-231.181 546.5,-231.181 546.5,-213.181 513.5,-213.181"/>
<text text-anchor="start" x="516.5" y="-219.381" font-family="Helvetica,sans-Serif" font-size="11.00">&lt; 14</text>
<polygon fill="#ffffff" stroke="none" points="546.5,-213.181 546.5,-231.181 560.5,-231.181 560.5,-213.181 546.5,-213.181"/>
<polygon fill="none" stroke="black" points="546.5,-213.181 546.5,-231.181 560.5,-231.181 560.5,-213.181 546.5,-213.181"/>
<text text-anchor="start" x="550.5" y="-219.381" font-family="Helvetica,sans-Serif" font-size="11.00"> &#160;</text>
<polygon fill="#ffffff" stroke="none" points="560.5,-213.181 560.5,-231.181 585.5,-231.181 585.5,-213.181 560.5,-213.181"/>
<polygon fill="none" stroke="black" points="560.5,-213.181 560.5,-231.181 585.5,-231.181 585.5,-213.181 560.5,-213.181"/>
<text text-anchor="start" x="565.5" y="-219.381" font-family="Helvetica,sans-Serif" font-size="11.00">7 &gt;</text>
</a>
</g>
</g>
<!-- vms&#45;&gt;hosts -->
<g id="edge35" class="edge"><title>vms:elipses:w&#45;&gt;hosts:id:e</title>
<path fill="none" stroke="black" d="M498.101,-241.247C476.144,-244.88 465.912,-257.864 452,-281.181 407.254,-356.178 499.831,-672.181 412.5,-672.181"/>
<polygon fill="black" stroke="black" points="504.522,-240.772 512.766,-243.772 508.511,-240.477 512.5,-240.181 512.5,-240.181 512.5,-240.181 508.511,-240.477 512.234,-236.591 504.522,-240.772 504.522,-240.772"/>
<ellipse fill="none" stroke="black" cx="501.331" cy="-241.008" rx="3.2" ry="3.2"/>
</g>
<!-- vms&#45;&gt;availability_zones -->
<g id="edge32" class="edge"><title>vms:elipses:w&#45;&gt;availability_zones:id:e</title>
<path fill="none" stroke="black" d="M498.141,-241.57C464.647,-248.567 459.533,-280.024 419,-290.181 341.83,-309.519 318.405,-303.665 240,-290.181 221.644,-287.025 219.126,-276.181 200.5,-276.181"/>
<polygon fill="black" stroke="black" points="504.537,-240.951 512.847,-243.765 508.519,-240.566 512.5,-240.181 512.5,-240.181 512.5,-240.181 508.519,-240.566 512.153,-236.598 504.537,-240.951 504.537,-240.951"/>
<ellipse fill="none" stroke="black" cx="501.352" cy="-241.259" rx="3.2" ry="3.2"/>
</g>
<!-- vms&#45;&gt;cloud_subnets -->
<g id="edge33" class="edge"><title>vms:elipses:w&#45;&gt;cloud_subnets:elipses:e</title>
<path fill="none" stroke="black" d="M498.012,-240.431C457.426,-241.885 442.459,-249.181 395.5,-249.181"/>
<polygon fill="black" stroke="black" points="504.501,-240.32 512.562,-243.781 508.501,-240.25 512.5,-240.181 512.5,-240.181 512.5,-240.181 508.501,-240.25 512.438,-236.582 504.501,-240.32 504.501,-240.32"/>
<ellipse fill="none" stroke="black" cx="501.302" cy="-240.375" rx="3.2" ry="3.2"/>
</g>
<!-- vms&#45;&gt;ems_clusters -->
<g id="edge34" class="edge"><title>vms:elipses:w&#45;&gt;ems_clusters:elipses:e</title>
<path fill="none" stroke="black" d="M497.964,-241.411C476.726,-245.448 467.864,-259.301 452,-281.181 420.788,-324.231 457.509,-359.514 419,-396.181 359.82,-452.531 300.267,-382.996 240,-438.181 162,-509.606 271.261,-664.181 165.5,-664.181"/>
<polygon fill="black" stroke="black" points="504.528,-240.856 512.804,-243.769 508.514,-240.519 512.5,-240.181 512.5,-240.181 512.5,-240.181 508.514,-240.519 512.196,-236.594 504.528,-240.856 504.528,-240.856"/>
<ellipse fill="none" stroke="black" cx="501.34" cy="-241.126" rx="3.2" ry="3.2"/>
</g>
<!-- vms&#45;&gt;placement_groups -->
<g id="edge36" class="edge"><title>vms:elipses:w&#45;&gt;placement_groups:elipses:e</title>
<path fill="none" stroke="black" d="M497.906,-241.668C477.573,-246.351 470.498,-261.653 452,-281.181 425.608,-309.044 445.878,-355.181 407.5,-355.181"/>
<polygon fill="black" stroke="black" points="504.541,-240.992 512.865,-243.763 508.521,-240.587 512.5,-240.181 512.5,-240.181 512.5,-240.181 508.521,-240.587 512.135,-236.6 504.541,-240.992 504.541,-240.992"/>
<ellipse fill="none" stroke="black" cx="501.358" cy="-241.316" rx="3.2" ry="3.2"/>
</g>
</g>
</svg>
