<?xml version="1.0" encoding="UTF-8" standalone="no"?>
<!DOCTYPE svg PUBLIC "-//W3C//DTD SVG 1.1//EN"
 "http://www.w3.org/Graphics/SVG/1.1/DTD/svg11.dtd">
<!-- Generated by graphviz version 2.38.0 (20140413.2041)
 -->
<!-- Title: oneDegreeRelationshipsDiagram Pages: 1 -->
<svg width="731pt" height="365pt"
 viewBox="0.00 0.00 731.48 364.76" xmlns="http://www.w3.org/2000/svg" xmlns:xlink="http://www.w3.org/1999/xlink">
<g id="graph0" class="graph" transform="scale(1 1) rotate(0) translate(4 360.756)">
<title>oneDegreeRelationshipsDiagram</title>
<polygon fill="#ffffff" stroke="none" points="-4,4 -4,-360.756 727.478,-360.756 727.478,4 -4,4"/>
<text text-anchor="middle" x="74.5" y="-7.2" font-family="Helvetica,sans-Serif" font-size="11.00">Generated by SchemaSpy</text>
<!-- cloud_volume_snapshots -->
<g id="node1" class="node"><title>cloud_volume_snapshots</title>
<g id="a_node1"><a xlink:href="../../tables/cloud_volume_snapshots.html" xlink:title="cloud_volume_snapshots" target="_top">
<polygon fill="#ffffff" stroke="none" points="414,-37 414,-345 708,-345 708,-37 414,-37"/>
<polygon fill="#f5f5f5" stroke="none" points="416,-321 416,-343 706,-343 706,-321 416,-321"/>
<polygon fill="none" stroke="black" points="416,-321 416,-343 706,-343 706,-321 416,-321"/>
<text text-anchor="start" x="421" y="-330.2" font-family="Helvetica,sans-Serif" font-weight="bold" font-size="11.00">cloud_volume_snapshots</text>
<text text-anchor="start" x="667" y="-329.2" font-family="Helvetica,sans-Serif" font-size="11.00">[table]</text>
<polygon fill="none" stroke="black" points="416,-299 416,-321 585,-321 585,-299 416,-299"/>
<image xlink:href="../../images/primaryKeys.png" width="11px" height="12px" preserveAspectRatio="xMinYMin meet" x="421" y="-316"/>
<text text-anchor="start" x="436" y="-307.2" font-family="Helvetica,sans-Serif" font-size="11.00">id</text>
<polygon fill="none" stroke="black" points="585,-299 585,-321 706,-321 706,-299 585,-299"/>
<text text-anchor="start" x="588" y="-307.2" font-family="Helvetica,sans-Serif" font-size="11.00">bigserial[19]</text>
<polygon fill="#ffffff" stroke="none" points="416,-277 416,-299 585,-299 585,-277 416,-277"/>
<polygon fill="none" stroke="black" points="416,-277 416,-299 585,-299 585,-277 416,-277"/>
<text text-anchor="start" x="436" y="-285.2" font-family="Helvetica,sans-Serif" font-size="11.00">type</text>
<polygon fill="none" stroke="black" points="585,-277 585,-299 706,-299 706,-277 585,-277"/>
<text text-anchor="start" x="588" y="-285.2" font-family="Helvetica,sans-Serif" font-size="11.00">varchar[2147483647]</text>
<polygon fill="none" stroke="black" points="416,-255 416,-277 585,-277 585,-255 416,-255"/>
<text text-anchor="start" x="436" y="-263.2" font-family="Helvetica,sans-Serif" font-size="11.00">ems_ref</text>
<polygon fill="none" stroke="black" points="585,-255 585,-277 706,-277 706,-255 585,-255"/>
<text text-anchor="start" x="588" y="-263.2" font-family="Helvetica,sans-Serif" font-size="11.00">varchar[2147483647]</text>
<polygon fill="none" stroke="black" points="416,-233 416,-255 585,-255 585,-233 416,-233"/>
<text text-anchor="start" x="436" y="-241.2" font-family="Helvetica,sans-Serif" font-size="11.00">ems_id</text>
<polygon fill="none" stroke="black" points="585,-233 585,-255 706,-255 706,-233 585,-233"/>
<text text-anchor="start" x="588" y="-241.2" font-family="Helvetica,sans-Serif" font-size="11.00">int8[19]</text>
<polygon fill="none" stroke="black" points="416,-211 416,-233 585,-233 585,-211 416,-211"/>
<image xlink:href="../../images/foreignKeys.png" width="11px" height="12px" preserveAspectRatio="xMinYMin meet" x="421" y="-228"/>
<text text-anchor="start" x="436" y="-219.2" font-family="Helvetica,sans-Serif" font-size="11.00">cloud_volume_id</text>
<polygon fill="none" stroke="black" points="585,-211 585,-233 706,-233 706,-211 585,-211"/>
<text text-anchor="start" x="588" y="-219.2" font-family="Helvetica,sans-Serif" font-size="11.00">int8[19]</text>
<polygon fill="none" stroke="black" points="416,-189 416,-211 585,-211 585,-189 416,-189"/>
<text text-anchor="start" x="436" y="-197.2" font-family="Helvetica,sans-Serif" font-size="11.00">name</text>
<polygon fill="none" stroke="black" points="585,-189 585,-211 706,-211 706,-189 585,-189"/>
<text text-anchor="start" x="588" y="-197.2" font-family="Helvetica,sans-Serif" font-size="11.00">varchar[2147483647]</text>
<polygon fill="none" stroke="black" points="416,-167 416,-189 585,-189 585,-167 416,-167"/>
<text text-anchor="start" x="436" y="-175.2" font-family="Helvetica,sans-Serif" font-size="11.00">description</text>
<polygon fill="none" stroke="black" points="585,-167 585,-189 706,-189 706,-167 585,-167"/>
<text text-anchor="start" x="588" y="-175.2" font-family="Helvetica,sans-Serif" font-size="11.00">varchar[2147483647]</text>
<polygon fill="none" stroke="black" points="416,-145 416,-167 585,-167 585,-145 416,-145"/>
<text text-anchor="start" x="436" y="-153.2" font-family="Helvetica,sans-Serif" font-size="11.00">status</text>
<polygon fill="none" stroke="black" points="585,-145 585,-167 706,-167 706,-145 585,-145"/>
<text text-anchor="start" x="588" y="-153.2" font-family="Helvetica,sans-Serif" font-size="11.00">varchar[2147483647]</text>
<polygon fill="none" stroke="black" points="416,-123 416,-145 585,-145 585,-123 416,-123"/>
<text text-anchor="start" x="436" y="-131.2" font-family="Helvetica,sans-Serif" font-size="11.00">creation_time</text>
<polygon fill="none" stroke="black" points="585,-123 585,-145 706,-145 706,-123 585,-123"/>
<text text-anchor="start" x="588" y="-131.2" font-family="Helvetica,sans-Serif" font-size="11.00">timestamp[29,6]</text>
<polygon fill="none" stroke="black" points="416,-101 416,-123 585,-123 585,-101 416,-101"/>
<text text-anchor="start" x="436" y="-109.2" font-family="Helvetica,sans-Serif" font-size="11.00">size</text>
<polygon fill="none" stroke="black" points="585,-101 585,-123 706,-123 706,-101 585,-101"/>
<text text-anchor="start" x="588" y="-109.2" font-family="Helvetica,sans-Serif" font-size="11.00">int8[19]</text>
<polygon fill="none" stroke="black" points="416,-79 416,-101 585,-101 585,-79 416,-79"/>
<image xlink:href="../../images/foreignKeys.png" width="11px" height="12px" preserveAspectRatio="xMinYMin meet" x="421" y="-96"/>
<text text-anchor="start" x="436" y="-87.2" font-family="Helvetica,sans-Serif" font-size="11.00">cloud_tenant_id</text>
<polygon fill="none" stroke="black" points="585,-79 585,-101 706,-101 706,-79 585,-79"/>
<text text-anchor="start" x="588" y="-87.2" font-family="Helvetica,sans-Serif" font-size="11.00">int8[19]</text>
<polygon fill="none" stroke="black" points="416,-57 416,-79 585,-79 585,-57 416,-57"/>
<text text-anchor="start" x="436" y="-65.2" font-family="Helvetica,sans-Serif" font-size="11.00">encrypted</text>
<polygon fill="none" stroke="black" points="585,-57 585,-79 706,-79 706,-57 585,-57"/>
<text text-anchor="start" x="588" y="-65.2" font-family="Helvetica,sans-Serif" font-size="11.00">bool[1]</text>
<polygon fill="#ffffff" stroke="none" points="416,-39 416,-57 505,-57 505,-39 416,-39"/>
<polygon fill="none" stroke="black" points="416,-39 416,-57 505,-57 505,-39 416,-39"/>
<text text-anchor="start" x="419" y="-45.2" font-family="Helvetica,sans-Serif" font-size="11.00">&lt; 2</text>
<polygon fill="#ffffff" stroke="none" points="505,-39 505,-57 585,-57 585,-39 505,-39"/>
<polygon fill="none" stroke="black" points="505,-39 505,-57 585,-57 585,-39 505,-39"/>
<text text-anchor="start" x="575" y="-45.2" font-family="Helvetica,sans-Serif" font-size="11.00"> &#160;</text>
<polygon fill="#ffffff" stroke="none" points="585,-39 585,-57 706,-57 706,-39 585,-39"/>
<polygon fill="none" stroke="black" points="585,-39 585,-57 706,-57 706,-39 585,-39"/>
<text text-anchor="start" x="686" y="-45.2" font-family="Helvetica,sans-Serif" font-size="11.00">1 &gt;</text>
<polygon fill="none" stroke="black" stroke-width="2" points="415,-38 415,-344 707,-344 707,-38 415,-38"/>
</a>
</g>
</g>
<!-- cloud_tenants -->
<g id="node2" class="node"><title>cloud_tenants</title>
<g id="a_node2"><a xlink:href="../../tables/cloud_tenants.html" xlink:title="cloud_tenants" target="_top">
<polygon fill="#ffffff" stroke="none" points="8,-78 8,-180 137,-180 137,-78 8,-78"/>
<polygon fill="#f5f5f5" stroke="none" points="8.5,-158 8.5,-180 137.5,-180 137.5,-158 8.5,-158"/>
<polygon fill="none" stroke="black" points="8.5,-158 8.5,-180 137.5,-180 137.5,-158 8.5,-158"/>
<text text-anchor="start" x="13.5" y="-167.2" font-family="Helvetica,sans-Serif" font-weight="bold" font-size="11.00">cloud_tenants</text>
<text text-anchor="start" x="98.5" y="-166.2" font-family="Helvetica,sans-Serif" font-size="11.00">[table]</text>
<polygon fill="none" stroke="black" points="8.5,-136 8.5,-158 137.5,-158 137.5,-136 8.5,-136"/>
<image xlink:href="../../images/primaryKeys.png" width="11px" height="12px" preserveAspectRatio="xMinYMin meet" x="13.5" y="-153"/>
<text text-anchor="start" x="40.5" y="-144.2" font-family="Helvetica,sans-Serif" font-size="11.00">id</text>
<polygon fill="#ffffff" stroke="none" points="8.5,-114 8.5,-136 137.5,-136 137.5,-114 8.5,-114"/>
<polygon fill="none" stroke="black" points="8.5,-114 8.5,-136 137.5,-136 137.5,-114 8.5,-114"/>
<text text-anchor="start" x="40.5" y="-122.2" font-family="Helvetica,sans-Serif" font-size="11.00">type</text>
<polygon fill="none" stroke="black" points="8.5,-96 8.5,-114 137.5,-114 137.5,-96 8.5,-96"/>
<text text-anchor="start" x="11.5" y="-102.2" font-family="Helvetica,sans-Serif" font-size="11.00">...</text>
<polygon fill="#ffffff" stroke="none" points="8.5,-78 8.5,-96 57.5,-96 57.5,-78 8.5,-78"/>
<polygon fill="none" stroke="black" points="8.5,-78 8.5,-96 57.5,-96 57.5,-78 8.5,-78"/>
<text text-anchor="start" x="11.5" y="-84.2" font-family="Helvetica,sans-Serif" font-size="11.00"> &#160;</text>
<polygon fill="#ffffff" stroke="none" points="57.5,-78 57.5,-96 88.5,-96 88.5,-78 57.5,-78"/>
<polygon fill="none" stroke="black" points="57.5,-78 57.5,-96 88.5,-96 88.5,-78 57.5,-78"/>
<text text-anchor="start" x="78.5" y="-84.2" font-family="Helvetica,sans-Serif" font-size="11.00"> &#160;</text>
<polygon fill="#ffffff" stroke="none" points="88.5,-78 88.5,-96 137.5,-96 137.5,-78 88.5,-78"/>
<polygon fill="none" stroke="black" points="88.5,-78 88.5,-96 137.5,-96 137.5,-78 88.5,-78"/>
<text text-anchor="start" x="110.5" y="-84.2" font-family="Helvetica,sans-Serif" font-size="11.00">25 &gt;</text>
</a>
</g>
</g>
<!-- cloud_volume_snapshots&#45;&gt;cloud_tenants -->
<g id="edge1" class="edge"><title>cloud_volume_snapshots:cloud_tenant_id:w&#45;&gt;cloud_tenants:id:e</title>
<path fill="none" stroke="black" d="M400.317,-89.7882C305.892,-87.059 268.574,-59.5803 178,-103 154.303,-114.36 164.78,-147 138.5,-147"/>
<polygon fill="black" stroke="black" points="407.001,-89.8846 414.948,-93.5996 411,-89.9423 415,-90 415,-90 415,-90 411,-89.9423 415.052,-86.4004 407.001,-89.8846 407.001,-89.8846"/>
<ellipse fill="none" stroke="black" cx="403.801" cy="-89.8384" rx="3.2" ry="3.2"/>
</g>
<!-- cloud_volumes -->
<g id="node3" class="node"><title>cloud_volumes</title>
<g id="a_node3"><a xlink:href="../../tables/cloud_volumes.html" xlink:title="cloud_volumes" target="_top">
<polygon fill="#ffffff" stroke="none" points="186,-114 186,-326 365,-326 365,-114 186,-114"/>
<polygon fill="#f5f5f5" stroke="none" points="186.5,-304 186.5,-326 365.5,-326 365.5,-304 186.5,-304"/>
<polygon fill="none" stroke="black" points="186.5,-304 186.5,-326 365.5,-326 365.5,-304 186.5,-304"/>
<text text-anchor="start" x="191.5" y="-313.2" font-family="Helvetica,sans-Serif" font-weight="bold" font-size="11.00">cloud_volumes</text>
<text text-anchor="start" x="326.5" y="-312.2" font-family="Helvetica,sans-Serif" font-size="11.00">[table]</text>
<polygon fill="none" stroke="black" points="186.5,-282 186.5,-304 365.5,-304 365.5,-282 186.5,-282"/>
<image xlink:href="../../images/primaryKeys.png" width="11px" height="12px" preserveAspectRatio="xMinYMin meet" x="191.5" y="-299"/>
<text text-anchor="start" x="206.5" y="-290.2" font-family="Helvetica,sans-Serif" font-size="11.00">id</text>
<polygon fill="#ffffff" stroke="none" points="186.5,-260 186.5,-282 365.5,-282 365.5,-260 186.5,-260"/>
<polygon fill="none" stroke="black" points="186.5,-260 186.5,-282 365.5,-282 365.5,-260 186.5,-260"/>
<text text-anchor="start" x="206.5" y="-268.2" font-family="Helvetica,sans-Serif" font-size="11.00">type</text>
<polygon fill="none" stroke="black" points="186.5,-238 186.5,-260 365.5,-260 365.5,-238 186.5,-238"/>
<image xlink:href="../../images/foreignKeys.png" width="11px" height="12px" preserveAspectRatio="xMinYMin meet" x="191.5" y="-255"/>
<text text-anchor="start" x="206.5" y="-246.2" font-family="Helvetica,sans-Serif" font-size="11.00">availability_zone_id</text>
<polygon fill="none" stroke="black" points="186.5,-216 186.5,-238 365.5,-238 365.5,-216 186.5,-216"/>
<image xlink:href="../../images/foreignKeys.png" width="11px" height="12px" preserveAspectRatio="xMinYMin meet" x="191.5" y="-233"/>
<text text-anchor="start" x="206.5" y="-224.2" font-family="Helvetica,sans-Serif" font-size="11.00">cloud_volume_snapshot_id</text>
<polygon fill="none" stroke="black" points="186.5,-194 186.5,-216 365.5,-216 365.5,-194 186.5,-194"/>
<image xlink:href="../../images/foreignKeys.png" width="11px" height="12px" preserveAspectRatio="xMinYMin meet" x="191.5" y="-211"/>
<text text-anchor="start" x="206.5" y="-202.2" font-family="Helvetica,sans-Serif" font-size="11.00">cloud_tenant_id</text>
<polygon fill="#ffffff" stroke="none" points="186.5,-172 186.5,-194 365.5,-194 365.5,-172 186.5,-172"/>
<polygon fill="none" stroke="black" points="186.5,-172 186.5,-194 365.5,-194 365.5,-172 186.5,-172"/>
<image xlink:href="../../images/foreignKeys.png" width="11px" height="12px" preserveAspectRatio="xMinYMin meet" x="191.5" y="-189"/>
<text text-anchor="start" x="206.5" y="-180.2" font-family="Helvetica,sans-Serif" font-size="11.00">storage_resource_id</text>
<polygon fill="#ffffff" stroke="none" points="186.5,-150 186.5,-172 365.5,-172 365.5,-150 186.5,-150"/>
<polygon fill="none" stroke="black" points="186.5,-150 186.5,-172 365.5,-172 365.5,-150 186.5,-150"/>
<image xlink:href="../../images/foreignKeys.png" width="11px" height="12px" preserveAspectRatio="xMinYMin meet" x="191.5" y="-167"/>
<text text-anchor="start" x="206.5" y="-158.2" font-family="Helvetica,sans-Serif" font-size="11.00">storage_service_id</text>
<polygon fill="none" stroke="black" points="186.5,-132 186.5,-150 365.5,-150 365.5,-132 186.5,-132"/>
<text text-anchor="start" x="189.5" y="-138.2" font-family="Helvetica,sans-Serif" font-size="11.00">...</text>
<polygon fill="#ffffff" stroke="none" points="186.5,-114 186.5,-132 269.5,-132 269.5,-114 186.5,-114"/>
<polygon fill="none" stroke="black" points="186.5,-114 186.5,-132 269.5,-132 269.5,-114 186.5,-114"/>
<text text-anchor="start" x="189.5" y="-120.2" font-family="Helvetica,sans-Serif" font-size="11.00">&lt; 5</text>
<polygon fill="#ffffff" stroke="none" points="269.5,-114 269.5,-132 312.5,-132 312.5,-114 269.5,-114"/>
<polygon fill="none" stroke="black" points="269.5,-114 269.5,-132 312.5,-132 312.5,-114 269.5,-114"/>
<text text-anchor="start" x="302.5" y="-120.2" font-family="Helvetica,sans-Serif" font-size="11.00"> &#160;</text>
<polygon fill="#ffffff" stroke="none" points="312.5,-114 312.5,-132 365.5,-132 365.5,-114 312.5,-114"/>
<polygon fill="none" stroke="black" points="312.5,-114 312.5,-132 365.5,-132 365.5,-114 312.5,-114"/>
<text text-anchor="start" x="345.5" y="-120.2" font-family="Helvetica,sans-Serif" font-size="11.00">3 &gt;</text>
</a>
</g>
</g>
<!-- cloud_volume_snapshots&#45;&gt;cloud_volumes -->
<g id="edge2" class="edge"><title>cloud_volume_snapshots:cloud_volume_id:w&#45;&gt;cloud_volumes:id:e</title>
<path fill="none" stroke="black" d="M400.948,-227.106C384.169,-243.386 398.445,-293 366.5,-293"/>
<polygon fill="black" stroke="black" points="407.481,-224.732 416.23,-225.384 411.241,-223.366 415,-222 415,-222 415,-222 411.241,-223.366 413.77,-218.616 407.481,-224.732 407.481,-224.732"/>
<ellipse fill="none" stroke="black" cx="404.473" cy="-225.825" rx="3.20001" ry="3.20001"/>
</g>
<!-- cloud_volumes&#45;&gt;cloud_volume_snapshots -->
<g id="edge4" class="edge"><title>cloud_volumes:cloud_volume_snapshot_id:w&#45;&gt;cloud_volume_snapshots:id.type:e</title>
<path fill="none" stroke="black" d="M174.883,-237.119C166.212,-260.508 173.667,-317.291 186.5,-330 245.395,-388.326 290.149,-332.493 373,-330 391.47,-329.444 723.478,-310 705,-310"/>
<polygon fill="black" stroke="black" points="179.709,-232.519 187.984,-229.606 182.604,-229.76 185.5,-227 185.5,-227 185.5,-227 182.604,-229.76 183.016,-224.394 179.709,-232.519 179.709,-232.519"/>
<ellipse fill="none" stroke="black" cx="177.392" cy="-234.727" rx="3.20001" ry="3.20001"/>
</g>
<!-- cloud_volumes&#45;&gt;cloud_tenants -->
<g id="edge3" class="edge"><title>cloud_volumes:cloud_tenant_id:w&#45;&gt;cloud_tenants:id:e</title>
<path fill="none" stroke="black" d="M171.685,-199.647C157.733,-185.289 165.458,-147 138.5,-147"/>
<polygon fill="black" stroke="black" points="178.04,-202.11 184.199,-208.357 181.77,-203.555 185.5,-205 185.5,-205 185.5,-205 181.77,-203.555 186.801,-201.643 178.04,-202.11 178.04,-202.11"/>
<ellipse fill="none" stroke="black" cx="175.056" cy="-200.954" rx="3.20001" ry="3.20001"/>
</g>
</g>
</svg>
