<?xml version="1.0" encoding="UTF-8" standalone="no"?>
<!DOCTYPE svg PUBLIC "-//W3C//DTD SVG 1.1//EN"
 "http://www.w3.org/Graphics/SVG/1.1/DTD/svg11.dtd">
<!-- Generated by graphviz version 2.38.0 (20140413.2041)
 -->
<!-- Title: twoDegreesRelationshipsDiagram Pages: 1 -->
<svg width="720pt" height="532pt"
 viewBox="0.00 0.00 720.00 531.54" xmlns="http://www.w3.org/2000/svg" xmlns:xlink="http://www.w3.org/1999/xlink">
<g id="graph0" class="graph" transform="scale(1 1) rotate(0) translate(4 527.545)">
<title>twoDegreesRelationshipsDiagram</title>
<polygon fill="#ffffff" stroke="none" points="-4,4 -4,-527.545 716,-527.545 716,4 -4,4"/>
<text text-anchor="middle" x="74.5" y="-7.2" font-family="Helvetica,sans-Serif" font-size="11.00">Generated by SchemaSpy</text>
<!-- cloud_database_servers -->
<g id="node1" class="node"><title>cloud_database_servers</title>
<g id="a_node1"><a xlink:href="../../tables/cloud_database_servers.html" xlink:title="cloud_database_servers" target="_top">
<polygon fill="#ffffff" stroke="none" points="249,-37 249,-95 432,-95 432,-37 249,-37"/>
<polygon fill="#f5f5f5" stroke="none" points="249.5,-73 249.5,-95 432.5,-95 432.5,-73 249.5,-73"/>
<polygon fill="none" stroke="black" points="249.5,-73 249.5,-95 432.5,-95 432.5,-73 249.5,-73"/>
<text text-anchor="start" x="254.5" y="-82.2" font-family="Helvetica,sans-Serif" font-weight="bold" font-size="11.00">cloud_database_servers</text>
<text text-anchor="start" x="393.5" y="-81.2" font-family="Helvetica,sans-Serif" font-size="11.00">[table]</text>
<polygon fill="none" stroke="black" points="249.5,-55 249.5,-73 432.5,-73 432.5,-55 249.5,-55"/>
<text text-anchor="start" x="252.5" y="-61.2" font-family="Helvetica,sans-Serif" font-size="11.00">...</text>
<polygon fill="#ffffff" stroke="none" points="249.5,-37 249.5,-55 334.5,-55 334.5,-37 249.5,-37"/>
<polygon fill="none" stroke="black" points="249.5,-37 249.5,-55 334.5,-55 334.5,-37 249.5,-37"/>
<text text-anchor="start" x="252.5" y="-43.2" font-family="Helvetica,sans-Serif" font-size="11.00">&lt; 1</text>
<polygon fill="#ffffff" stroke="none" points="334.5,-37 334.5,-55 378.5,-55 378.5,-37 334.5,-37"/>
<polygon fill="none" stroke="black" points="334.5,-37 334.5,-55 378.5,-55 378.5,-37 334.5,-37"/>
<text text-anchor="start" x="368.5" y="-43.2" font-family="Helvetica,sans-Serif" font-size="11.00"> &#160;</text>
<polygon fill="#ffffff" stroke="none" points="378.5,-37 378.5,-55 432.5,-55 432.5,-37 378.5,-37"/>
<polygon fill="none" stroke="black" points="378.5,-37 378.5,-55 432.5,-55 432.5,-37 378.5,-37"/>
<text text-anchor="start" x="412.5" y="-43.2" font-family="Helvetica,sans-Serif" font-size="11.00">1 &gt;</text>
</a>
</g>
</g>
<!-- resource_groups -->
<g id="node2" class="node"><title>resource_groups</title>
<g id="a_node2"><a xlink:href="../../tables/resource_groups.html" xlink:title="resource_groups" target="_top">
<polygon fill="#ffffff" stroke="none" points="8,-257 8,-315 149,-315 149,-257 8,-257"/>
<polygon fill="#f5f5f5" stroke="none" points="8.5,-293 8.5,-315 149.5,-315 149.5,-293 8.5,-293"/>
<polygon fill="none" stroke="black" points="8.5,-293 8.5,-315 149.5,-315 149.5,-293 8.5,-293"/>
<text text-anchor="start" x="13.5" y="-302.2" font-family="Helvetica,sans-Serif" font-weight="bold" font-size="11.00">resource_groups</text>
<text text-anchor="start" x="110.5" y="-301.2" font-family="Helvetica,sans-Serif" font-size="11.00">[table]</text>
<polygon fill="none" stroke="black" points="8.5,-275 8.5,-293 149.5,-293 149.5,-275 8.5,-275"/>
<text text-anchor="start" x="11.5" y="-281.2" font-family="Helvetica,sans-Serif" font-size="11.00">...</text>
<polygon fill="#ffffff" stroke="none" points="8.5,-257 8.5,-275 67.5,-275 67.5,-257 8.5,-257"/>
<polygon fill="none" stroke="black" points="8.5,-257 8.5,-275 67.5,-275 67.5,-257 8.5,-257"/>
<text text-anchor="start" x="11.5" y="-263.2" font-family="Helvetica,sans-Serif" font-size="11.00"> &#160;</text>
<polygon fill="#ffffff" stroke="none" points="67.5,-257 67.5,-275 103.5,-275 103.5,-257 67.5,-257"/>
<polygon fill="none" stroke="black" points="67.5,-257 67.5,-275 103.5,-275 103.5,-257 67.5,-257"/>
<text text-anchor="start" x="93.5" y="-263.2" font-family="Helvetica,sans-Serif" font-size="11.00"> &#160;</text>
<polygon fill="#ffffff" stroke="none" points="103.5,-257 103.5,-275 149.5,-275 149.5,-257 103.5,-257"/>
<polygon fill="none" stroke="black" points="103.5,-257 103.5,-275 149.5,-275 149.5,-257 103.5,-257"/>
<text text-anchor="start" x="129.5" y="-263.2" font-family="Helvetica,sans-Serif" font-size="11.00">7 &gt;</text>
</a>
</g>
</g>
<!-- cloud_database_servers&#45;&gt;resource_groups -->
<g id="edge1" class="edge"><title>cloud_database_servers:elipses:w&#45;&gt;resource_groups:elipses:e</title>
<path fill="none" stroke="black" d="M233.976,-65.2788C213.361,-69.3641 204.592,-83.128 190,-105 144.786,-172.771 231.97,-284 150.5,-284"/>
<polygon fill="black" stroke="black" points="240.531,-64.7017 248.816,-67.5861 244.515,-64.3509 248.5,-64 248.5,-64 248.5,-64 244.515,-64.3509 248.184,-60.4139 240.531,-64.7017 240.531,-64.7017"/>
<ellipse fill="none" stroke="black" cx="237.343" cy="-64.9824" rx="3.2" ry="3.2"/>
</g>
<!-- cloud_databases -->
<g id="node3" class="node"><title>cloud_databases</title>
<g id="a_node3"><a xlink:href="../../tables/cloud_databases.html" xlink:title="cloud_databases" target="_top">
<polygon fill="#ffffff" stroke="none" points="532,-214 532,-426 704,-426 704,-214 532,-214"/>
<polygon fill="#f5f5f5" stroke="none" points="532,-404 532,-426 704,-426 704,-404 532,-404"/>
<polygon fill="none" stroke="black" points="532,-404 532,-426 704,-426 704,-404 532,-404"/>
<text text-anchor="start" x="537" y="-413.2" font-family="Helvetica,sans-Serif" font-weight="bold" font-size="11.00">cloud_databases</text>
<text text-anchor="start" x="665" y="-412.2" font-family="Helvetica,sans-Serif" font-size="11.00">[table]</text>
<polygon fill="none" stroke="black" points="532,-382 532,-404 704,-404 704,-382 532,-382"/>
<image xlink:href="../../images/primaryKeys.png" width="11px" height="12px" preserveAspectRatio="xMinYMin meet" x="537" y="-399"/>
<text text-anchor="start" x="552" y="-390.2" font-family="Helvetica,sans-Serif" font-size="11.00">id</text>
<polygon fill="#ffffff" stroke="none" points="532,-360 532,-382 704,-382 704,-360 532,-360"/>
<polygon fill="none" stroke="black" points="532,-360 532,-382 704,-382 704,-360 532,-360"/>
<text text-anchor="start" x="552" y="-368.2" font-family="Helvetica,sans-Serif" font-size="11.00">type</text>
<polygon fill="#ffffff" stroke="none" points="532,-338 532,-360 704,-360 704,-338 532,-338"/>
<polygon fill="none" stroke="black" points="532,-338 532,-360 704,-360 704,-338 532,-338"/>
<text text-anchor="start" x="552" y="-346.2" font-family="Helvetica,sans-Serif" font-size="11.00">ems_id</text>
<polygon fill="none" stroke="black" points="532,-316 532,-338 704,-338 704,-316 532,-316"/>
<image xlink:href="../../images/foreignKeys.png" width="11px" height="12px" preserveAspectRatio="xMinYMin meet" x="537" y="-333"/>
<text text-anchor="start" x="552" y="-324.2" font-family="Helvetica,sans-Serif" font-size="11.00">resource_group_id</text>
<polygon fill="#ffffff" stroke="none" points="532,-294 532,-316 704,-316 704,-294 532,-294"/>
<polygon fill="none" stroke="black" points="532,-294 532,-316 704,-316 704,-294 532,-294"/>
<image xlink:href="../../images/foreignKeys.png" width="11px" height="12px" preserveAspectRatio="xMinYMin meet" x="537" y="-311"/>
<text text-anchor="start" x="552" y="-302.2" font-family="Helvetica,sans-Serif" font-size="11.00">cloud_database_flavor_id</text>
<polygon fill="none" stroke="black" points="532,-272 532,-294 704,-294 704,-272 532,-272"/>
<image xlink:href="../../images/foreignKeys.png" width="11px" height="12px" preserveAspectRatio="xMinYMin meet" x="537" y="-289"/>
<text text-anchor="start" x="552" y="-280.2" font-family="Helvetica,sans-Serif" font-size="11.00">cloud_tenant_id</text>
<polygon fill="#ffffff" stroke="none" points="532,-250 532,-272 704,-272 704,-250 532,-250"/>
<polygon fill="none" stroke="black" points="532,-250 532,-272 704,-272 704,-250 532,-250"/>
<image xlink:href="../../images/foreignKeys.png" width="11px" height="12px" preserveAspectRatio="xMinYMin meet" x="537" y="-267"/>
<text text-anchor="start" x="552" y="-258.2" font-family="Helvetica,sans-Serif" font-size="11.00">cloud_database_server_id</text>
<polygon fill="none" stroke="black" points="532,-232 532,-250 704,-250 704,-232 532,-232"/>
<text text-anchor="start" x="535" y="-238.2" font-family="Helvetica,sans-Serif" font-size="11.00">...</text>
<polygon fill="#ffffff" stroke="none" points="532,-214 532,-232 616,-232 616,-214 532,-214"/>
<polygon fill="none" stroke="black" points="532,-214 532,-232 616,-232 616,-214 532,-214"/>
<text text-anchor="start" x="535" y="-220.2" font-family="Helvetica,sans-Serif" font-size="11.00">&lt; 4</text>
<polygon fill="#ffffff" stroke="none" points="616,-214 616,-232 660,-232 660,-214 616,-214"/>
<polygon fill="none" stroke="black" points="616,-214 616,-232 660,-232 660,-214 616,-214"/>
<text text-anchor="start" x="650" y="-220.2" font-family="Helvetica,sans-Serif" font-size="11.00"> &#160;</text>
<polygon fill="#ffffff" stroke="none" points="660,-214 660,-232 704,-232 704,-214 660,-214"/>
<polygon fill="none" stroke="black" points="660,-214 660,-232 704,-232 704,-214 660,-214"/>
<text text-anchor="start" x="694" y="-220.2" font-family="Helvetica,sans-Serif" font-size="11.00"> &#160;</text>
</a>
</g>
</g>
<!-- cloud_databases&#45;&gt;cloud_database_servers -->
<g id="edge3" class="edge"><title>cloud_databases:cloud_database_server_id:w&#45;&gt;cloud_database_servers:elipses:e</title>
<path fill="none" stroke="black" d="M516.437,-259.204C470.243,-245.712 528.243,-159.3 491,-105 473.247,-79.1163 464.887,-64 433.5,-64"/>
<polygon fill="black" stroke="black" points="523.06,-260.021 530.559,-264.573 527.03,-260.51 531,-261 531,-261 531,-261 527.03,-260.51 531.441,-257.427 523.06,-260.021 523.06,-260.021"/>
<ellipse fill="none" stroke="black" cx="519.884" cy="-259.629" rx="3.2" ry="3.2"/>
</g>
<!-- cloud_databases&#45;&gt;resource_groups -->
<g id="edge5" class="edge"><title>cloud_databases:resource_group_id:w&#45;&gt;resource_groups:elipses:e</title>
<path fill="none" stroke="black" d="M516.576,-328.976C469.086,-344.614 545.792,-448.904 491,-492 438.425,-533.352 241.521,-534.658 190,-492 117.522,-431.991 244.597,-284 150.5,-284"/>
<polygon fill="black" stroke="black" points="523.074,-328.086 531.489,-330.567 527.037,-327.543 531,-327 531,-327 531,-327 527.037,-327.543 530.511,-323.433 523.074,-328.086 523.074,-328.086"/>
<ellipse fill="none" stroke="black" cx="519.904" cy="-328.52" rx="3.2" ry="3.2"/>
</g>
<!-- cloud_database_flavors -->
<g id="node4" class="node"><title>cloud_database_flavors</title>
<g id="a_node4"><a xlink:href="../../tables/cloud_database_flavors.html" xlink:title="cloud_database_flavors" target="_top">
<polygon fill="#ffffff" stroke="none" points="198,-195 198,-481 483,-481 483,-195 198,-195"/>
<polygon fill="#f5f5f5" stroke="none" points="200.5,-457 200.5,-479 481.5,-479 481.5,-457 200.5,-457"/>
<polygon fill="none" stroke="black" points="200.5,-457 200.5,-479 481.5,-479 481.5,-457 200.5,-457"/>
<text text-anchor="start" x="205.5" y="-466.2" font-family="Helvetica,sans-Serif" font-weight="bold" font-size="11.00">cloud_database_flavors</text>
<text text-anchor="start" x="442.5" y="-465.2" font-family="Helvetica,sans-Serif" font-size="11.00">[table]</text>
<polygon fill="none" stroke="black" points="200.5,-435 200.5,-457 360.5,-457 360.5,-435 200.5,-435"/>
<image xlink:href="../../images/primaryKeys.png" width="11px" height="12px" preserveAspectRatio="xMinYMin meet" x="205.5" y="-452"/>
<text text-anchor="start" x="220.5" y="-443.2" font-family="Helvetica,sans-Serif" font-size="11.00">id</text>
<polygon fill="none" stroke="black" points="360.5,-435 360.5,-457 481.5,-457 481.5,-435 360.5,-435"/>
<text text-anchor="start" x="363.5" y="-443.2" font-family="Helvetica,sans-Serif" font-size="11.00">bigserial[19]</text>
<polygon fill="none" stroke="black" points="200.5,-413 200.5,-435 360.5,-435 360.5,-413 200.5,-413"/>
<text text-anchor="start" x="220.5" y="-421.2" font-family="Helvetica,sans-Serif" font-size="11.00">name</text>
<polygon fill="none" stroke="black" points="360.5,-413 360.5,-435 481.5,-435 481.5,-413 360.5,-413"/>
<text text-anchor="start" x="363.5" y="-421.2" font-family="Helvetica,sans-Serif" font-size="11.00">varchar[2147483647]</text>
<polygon fill="#ffffff" stroke="none" points="200.5,-391 200.5,-413 360.5,-413 360.5,-391 200.5,-391"/>
<polygon fill="none" stroke="black" points="200.5,-391 200.5,-413 360.5,-413 360.5,-391 200.5,-391"/>
<text text-anchor="start" x="220.5" y="-399.2" font-family="Helvetica,sans-Serif" font-size="11.00">type</text>
<polygon fill="none" stroke="black" points="360.5,-391 360.5,-413 481.5,-413 481.5,-391 360.5,-391"/>
<text text-anchor="start" x="363.5" y="-399.2" font-family="Helvetica,sans-Serif" font-size="11.00">varchar[2147483647]</text>
<polygon fill="none" stroke="black" points="200.5,-369 200.5,-391 360.5,-391 360.5,-369 200.5,-369"/>
<text text-anchor="start" x="220.5" y="-377.2" font-family="Helvetica,sans-Serif" font-size="11.00">ems_ref</text>
<polygon fill="none" stroke="black" points="360.5,-369 360.5,-391 481.5,-391 481.5,-369 360.5,-369"/>
<text text-anchor="start" x="363.5" y="-377.2" font-family="Helvetica,sans-Serif" font-size="11.00">varchar[2147483647]</text>
<polygon fill="none" stroke="black" points="200.5,-347 200.5,-369 360.5,-369 360.5,-347 200.5,-347"/>
<text text-anchor="start" x="220.5" y="-355.2" font-family="Helvetica,sans-Serif" font-size="11.00">cpus</text>
<polygon fill="none" stroke="black" points="360.5,-347 360.5,-369 481.5,-369 481.5,-347 360.5,-347"/>
<text text-anchor="start" x="363.5" y="-355.2" font-family="Helvetica,sans-Serif" font-size="11.00">int4[10]</text>
<polygon fill="none" stroke="black" points="200.5,-325 200.5,-347 360.5,-347 360.5,-325 200.5,-325"/>
<text text-anchor="start" x="220.5" y="-333.2" font-family="Helvetica,sans-Serif" font-size="11.00">memory</text>
<polygon fill="none" stroke="black" points="360.5,-325 360.5,-347 481.5,-347 481.5,-325 360.5,-325"/>
<text text-anchor="start" x="363.5" y="-333.2" font-family="Helvetica,sans-Serif" font-size="11.00">int8[19]</text>
<polygon fill="none" stroke="black" points="200.5,-303 200.5,-325 360.5,-325 360.5,-303 200.5,-303"/>
<text text-anchor="start" x="220.5" y="-311.2" font-family="Helvetica,sans-Serif" font-size="11.00">max_size</text>
<polygon fill="none" stroke="black" points="360.5,-303 360.5,-325 481.5,-325 481.5,-303 360.5,-303"/>
<text text-anchor="start" x="363.5" y="-311.2" font-family="Helvetica,sans-Serif" font-size="11.00">int8[19]</text>
<polygon fill="none" stroke="black" points="200.5,-281 200.5,-303 360.5,-303 360.5,-281 200.5,-281"/>
<text text-anchor="start" x="220.5" y="-289.2" font-family="Helvetica,sans-Serif" font-size="11.00">max_connections</text>
<polygon fill="none" stroke="black" points="360.5,-281 360.5,-303 481.5,-303 481.5,-281 360.5,-281"/>
<text text-anchor="start" x="363.5" y="-289.2" font-family="Helvetica,sans-Serif" font-size="11.00">int4[10]</text>
<polygon fill="none" stroke="black" points="200.5,-259 200.5,-281 360.5,-281 360.5,-259 200.5,-259"/>
<text text-anchor="start" x="220.5" y="-267.2" font-family="Helvetica,sans-Serif" font-size="11.00">performance</text>
<polygon fill="none" stroke="black" points="360.5,-259 360.5,-281 481.5,-281 481.5,-259 360.5,-259"/>
<text text-anchor="start" x="363.5" y="-267.2" font-family="Helvetica,sans-Serif" font-size="11.00">varchar[2147483647]</text>
<polygon fill="none" stroke="black" points="200.5,-237 200.5,-259 360.5,-259 360.5,-237 200.5,-237"/>
<text text-anchor="start" x="220.5" y="-245.2" font-family="Helvetica,sans-Serif" font-size="11.00">enabled</text>
<polygon fill="none" stroke="black" points="360.5,-237 360.5,-259 481.5,-259 481.5,-237 360.5,-237"/>
<text text-anchor="start" x="363.5" y="-245.2" font-family="Helvetica,sans-Serif" font-size="11.00">bool[1]</text>
<polygon fill="#ffffff" stroke="none" points="200.5,-215 200.5,-237 360.5,-237 360.5,-215 200.5,-215"/>
<polygon fill="none" stroke="black" points="200.5,-215 200.5,-237 360.5,-237 360.5,-215 200.5,-215"/>
<text text-anchor="start" x="220.5" y="-223.2" font-family="Helvetica,sans-Serif" font-size="11.00">ems_id</text>
<polygon fill="none" stroke="black" points="360.5,-215 360.5,-237 481.5,-237 481.5,-215 360.5,-215"/>
<text text-anchor="start" x="363.5" y="-223.2" font-family="Helvetica,sans-Serif" font-size="11.00">int8[19]</text>
<polygon fill="#ffffff" stroke="none" points="200.5,-197 200.5,-215 285.5,-215 285.5,-197 200.5,-197"/>
<polygon fill="none" stroke="black" points="200.5,-197 200.5,-215 285.5,-215 285.5,-197 200.5,-197"/>
<text text-anchor="start" x="203.5" y="-203.2" font-family="Helvetica,sans-Serif" font-size="11.00">&lt; 0</text>
<polygon fill="#ffffff" stroke="none" points="285.5,-197 285.5,-215 360.5,-215 360.5,-197 285.5,-197"/>
<polygon fill="none" stroke="black" points="285.5,-197 285.5,-215 360.5,-215 360.5,-197 285.5,-197"/>
<text text-anchor="start" x="350.5" y="-203.2" font-family="Helvetica,sans-Serif" font-size="11.00"> &#160;</text>
<polygon fill="#ffffff" stroke="none" points="360.5,-197 360.5,-215 481.5,-215 481.5,-197 360.5,-197"/>
<polygon fill="none" stroke="black" points="360.5,-197 360.5,-215 481.5,-215 481.5,-197 360.5,-197"/>
<text text-anchor="start" x="461.5" y="-203.2" font-family="Helvetica,sans-Serif" font-size="11.00">1 &gt;</text>
<polygon fill="none" stroke="black" stroke-width="2" points="199,-196 199,-480 482,-480 482,-196 199,-196"/>
</a>
</g>
</g>
<!-- cloud_databases&#45;&gt;cloud_database_flavors -->
<g id="edge2" class="edge"><title>cloud_databases:cloud_database_flavor_id:w&#45;&gt;cloud_database_flavors:id.type:e</title>
<path fill="none" stroke="black" d="M516.56,-308.21C478.617,-329.198 542.816,-446 482.5,-446"/>
<polygon fill="black" stroke="black" points="523.191,-306.736 531.781,-308.514 527.095,-305.868 531,-305 531,-305 531,-305 527.095,-305.868 530.219,-301.486 523.191,-306.736 523.191,-306.736"/>
<ellipse fill="none" stroke="black" cx="520.067" cy="-307.43" rx="3.2" ry="3.2"/>
</g>
<!-- cloud_tenants -->
<g id="node5" class="node"><title>cloud_tenants</title>
<g id="a_node5"><a xlink:href="../../tables/cloud_tenants.html" xlink:title="cloud_tenants" target="_top">
<polygon fill="#ffffff" stroke="none" points="276,-116 276,-174 405,-174 405,-116 276,-116"/>
<polygon fill="#f5f5f5" stroke="none" points="276.5,-152 276.5,-174 405.5,-174 405.5,-152 276.5,-152"/>
<polygon fill="none" stroke="black" points="276.5,-152 276.5,-174 405.5,-174 405.5,-152 276.5,-152"/>
<text text-anchor="start" x="281.5" y="-161.2" font-family="Helvetica,sans-Serif" font-weight="bold" font-size="11.00">cloud_tenants</text>
<text text-anchor="start" x="366.5" y="-160.2" font-family="Helvetica,sans-Serif" font-size="11.00">[table]</text>
<polygon fill="none" stroke="black" points="276.5,-134 276.5,-152 405.5,-152 405.5,-134 276.5,-134"/>
<text text-anchor="start" x="279.5" y="-140.2" font-family="Helvetica,sans-Serif" font-size="11.00">...</text>
<polygon fill="#ffffff" stroke="none" points="276.5,-116 276.5,-134 325.5,-134 325.5,-116 276.5,-116"/>
<polygon fill="none" stroke="black" points="276.5,-116 276.5,-134 325.5,-134 325.5,-116 276.5,-116"/>
<text text-anchor="start" x="279.5" y="-122.2" font-family="Helvetica,sans-Serif" font-size="11.00"> &#160;</text>
<polygon fill="#ffffff" stroke="none" points="325.5,-116 325.5,-134 356.5,-134 356.5,-116 325.5,-116"/>
<polygon fill="none" stroke="black" points="325.5,-116 325.5,-134 356.5,-134 356.5,-116 325.5,-116"/>
<text text-anchor="start" x="346.5" y="-122.2" font-family="Helvetica,sans-Serif" font-size="11.00"> &#160;</text>
<polygon fill="#ffffff" stroke="none" points="356.5,-116 356.5,-134 405.5,-134 405.5,-116 356.5,-116"/>
<polygon fill="none" stroke="black" points="356.5,-116 356.5,-134 405.5,-134 405.5,-116 356.5,-116"/>
<text text-anchor="start" x="378.5" y="-122.2" font-family="Helvetica,sans-Serif" font-size="11.00">25 &gt;</text>
</a>
</g>
</g>
<!-- cloud_databases&#45;&gt;cloud_tenants -->
<g id="edge4" class="edge"><title>cloud_databases:cloud_tenant_id:w&#45;&gt;cloud_tenants:elipses:e</title>
<path fill="none" stroke="black" d="M516.763,-280.031C492.845,-267.104 518.889,-215.026 491,-185 462.458,-154.272 448.439,-143 406.5,-143"/>
<polygon fill="black" stroke="black" points="523.168,-281.367 530.265,-286.524 527.084,-282.183 531,-283 531,-283 531,-283 527.084,-282.183 531.735,-279.476 523.168,-281.367 523.168,-281.367"/>
<ellipse fill="none" stroke="black" cx="520.036" cy="-280.714" rx="3.2" ry="3.2"/>
</g>
</g>
</svg>
