<?xml version="1.0" encoding="UTF-8" standalone="no"?>
<!DOCTYPE svg PUBLIC "-//W3C//DTD SVG 1.1//EN"
 "http://www.w3.org/Graphics/SVG/1.1/DTD/svg11.dtd">
<!-- Generated by graphviz version 2.38.0 (20140413.2041)
 -->
<!-- Title: twoDegreesRelationshipsDiagram Pages: 1 -->
<svg width="629pt" height="353pt"
 viewBox="0.00 0.00 629.00 353.00" xmlns="http://www.w3.org/2000/svg" xmlns:xlink="http://www.w3.org/1999/xlink">
<g id="graph0" class="graph" transform="scale(1 1) rotate(0) translate(4 349)">
<title>twoDegreesRelationshipsDiagram</title>
<polygon fill="#ffffff" stroke="none" points="-4,4 -4,-349 625,-349 625,4 -4,4"/>
<text text-anchor="middle" x="74.5" y="-7.2" font-family="Helvetica,sans-Serif" font-size="11.00">Generated by SchemaSpy</text>
<!-- compliance_details -->
<g id="node1" class="node"><title>compliance_details</title>
<g id="a_node1"><a xlink:href="../../tables/compliance_details.html" xlink:title="compliance_details" target="_top">
<polygon fill="#ffffff" stroke="none" points="455,-50 455,-196 613,-196 613,-50 455,-50"/>
<polygon fill="#f5f5f5" stroke="none" points="455,-174 455,-196 613,-196 613,-174 455,-174"/>
<polygon fill="none" stroke="black" points="455,-174 455,-196 613,-196 613,-174 455,-174"/>
<text text-anchor="start" x="460" y="-183.2" font-family="Helvetica,sans-Serif" font-weight="bold" font-size="11.00">compliance_details</text>
<text text-anchor="start" x="574" y="-182.2" font-family="Helvetica,sans-Serif" font-size="11.00">[table]</text>
<polygon fill="none" stroke="black" points="455,-152 455,-174 613,-174 613,-152 455,-152"/>
<image xlink:href="../../images/primaryKeys.png" width="11px" height="12px" preserveAspectRatio="xMinYMin meet" x="460" y="-169"/>
<text text-anchor="start" x="487" y="-160.2" font-family="Helvetica,sans-Serif" font-size="11.00">id</text>
<polygon fill="#ffffff" stroke="none" points="455,-130 455,-152 613,-152 613,-130 455,-130"/>
<polygon fill="none" stroke="black" points="455,-130 455,-152 613,-152 613,-130 455,-130"/>
<image xlink:href="../../images/foreignKeys.png" width="11px" height="12px" preserveAspectRatio="xMinYMin meet" x="460" y="-147"/>
<text text-anchor="start" x="487" y="-138.2" font-family="Helvetica,sans-Serif" font-size="11.00">compliance_id</text>
<polygon fill="#ffffff" stroke="none" points="455,-108 455,-130 613,-130 613,-108 455,-108"/>
<polygon fill="none" stroke="black" points="455,-108 455,-130 613,-130 613,-108 455,-108"/>
<image xlink:href="../../images/foreignKeys.png" width="11px" height="12px" preserveAspectRatio="xMinYMin meet" x="460" y="-125"/>
<text text-anchor="start" x="487" y="-116.2" font-family="Helvetica,sans-Serif" font-size="11.00">miq_policy_id</text>
<polygon fill="#ffffff" stroke="none" points="455,-86 455,-108 613,-108 613,-86 455,-86"/>
<polygon fill="none" stroke="black" points="455,-86 455,-108 613,-108 613,-86 455,-86"/>
<image xlink:href="../../images/foreignKeys.png" width="11px" height="12px" preserveAspectRatio="xMinYMin meet" x="460" y="-103"/>
<text text-anchor="start" x="487" y="-94.2" font-family="Helvetica,sans-Serif" font-size="11.00">condition_id</text>
<polygon fill="none" stroke="black" points="455,-68 455,-86 613,-86 613,-68 455,-68"/>
<text text-anchor="start" x="458" y="-74.2" font-family="Helvetica,sans-Serif" font-size="11.00">...</text>
<polygon fill="#ffffff" stroke="none" points="455,-50 455,-68 532,-68 532,-50 455,-50"/>
<polygon fill="none" stroke="black" points="455,-50 455,-68 532,-68 532,-50 455,-50"/>
<text text-anchor="start" x="458" y="-56.2" font-family="Helvetica,sans-Serif" font-size="11.00">&lt; 3</text>
<polygon fill="#ffffff" stroke="none" points="532,-50 532,-68 572,-68 572,-50 532,-50"/>
<polygon fill="none" stroke="black" points="532,-50 532,-68 572,-68 572,-50 532,-50"/>
<text text-anchor="start" x="562" y="-56.2" font-family="Helvetica,sans-Serif" font-size="11.00"> &#160;</text>
<polygon fill="#ffffff" stroke="none" points="572,-50 572,-68 613,-68 613,-50 572,-50"/>
<polygon fill="none" stroke="black" points="572,-50 572,-68 613,-68 613,-50 572,-50"/>
<text text-anchor="start" x="603" y="-56.2" font-family="Helvetica,sans-Serif" font-size="11.00"> &#160;</text>
</a>
</g>
</g>
<!-- compliances -->
<g id="node2" class="node"><title>compliances</title>
<g id="a_node2"><a xlink:href="../../tables/compliances.html" xlink:title="compliances" target="_top">
<polygon fill="#ffffff" stroke="none" points="176,-143 176,-341 406,-341 406,-143 176,-143"/>
<polygon fill="#f5f5f5" stroke="none" points="178,-317 178,-339 404,-339 404,-317 178,-317"/>
<polygon fill="none" stroke="black" points="178,-317 178,-339 404,-339 404,-317 178,-317"/>
<text text-anchor="start" x="183" y="-326.2" font-family="Helvetica,sans-Serif" font-weight="bold" font-size="11.00">compliances</text>
<text text-anchor="start" x="365" y="-325.2" font-family="Helvetica,sans-Serif" font-size="11.00">[table]</text>
<polygon fill="none" stroke="black" points="178,-295 178,-317 283,-317 283,-295 178,-295"/>
<image xlink:href="../../images/primaryKeys.png" width="11px" height="12px" preserveAspectRatio="xMinYMin meet" x="183" y="-312"/>
<text text-anchor="start" x="198" y="-303.2" font-family="Helvetica,sans-Serif" font-size="11.00">id</text>
<polygon fill="none" stroke="black" points="283,-295 283,-317 404,-317 404,-295 283,-295"/>
<text text-anchor="start" x="286" y="-303.2" font-family="Helvetica,sans-Serif" font-size="11.00">bigserial[19]</text>
<polygon fill="#ffffff" stroke="none" points="178,-273 178,-295 283,-295 283,-273 178,-273"/>
<polygon fill="none" stroke="black" points="178,-273 178,-295 283,-295 283,-273 178,-273"/>
<text text-anchor="start" x="198" y="-281.2" font-family="Helvetica,sans-Serif" font-size="11.00">resource_id</text>
<polygon fill="none" stroke="black" points="283,-273 283,-295 404,-295 404,-273 283,-273"/>
<text text-anchor="start" x="286" y="-281.2" font-family="Helvetica,sans-Serif" font-size="11.00">int8[19]</text>
<polygon fill="#ffffff" stroke="none" points="178,-251 178,-273 283,-273 283,-251 178,-251"/>
<polygon fill="none" stroke="black" points="178,-251 178,-273 283,-273 283,-251 178,-251"/>
<text text-anchor="start" x="198" y="-259.2" font-family="Helvetica,sans-Serif" font-size="11.00">resource_type</text>
<polygon fill="none" stroke="black" points="283,-251 283,-273 404,-273 404,-251 283,-251"/>
<text text-anchor="start" x="286" y="-259.2" font-family="Helvetica,sans-Serif" font-size="11.00">varchar[2147483647]</text>
<polygon fill="none" stroke="black" points="178,-229 178,-251 283,-251 283,-229 178,-229"/>
<text text-anchor="start" x="198" y="-237.2" font-family="Helvetica,sans-Serif" font-size="11.00">compliant</text>
<polygon fill="none" stroke="black" points="283,-229 283,-251 404,-251 404,-229 283,-229"/>
<text text-anchor="start" x="286" y="-237.2" font-family="Helvetica,sans-Serif" font-size="11.00">bool[1]</text>
<polygon fill="none" stroke="black" points="178,-207 178,-229 283,-229 283,-207 178,-207"/>
<text text-anchor="start" x="198" y="-215.2" font-family="Helvetica,sans-Serif" font-size="11.00">timestamp</text>
<polygon fill="none" stroke="black" points="283,-207 283,-229 404,-229 404,-207 283,-207"/>
<text text-anchor="start" x="286" y="-215.2" font-family="Helvetica,sans-Serif" font-size="11.00">timestamp[29,6]</text>
<polygon fill="none" stroke="black" points="178,-185 178,-207 283,-207 283,-185 178,-185"/>
<text text-anchor="start" x="198" y="-193.2" font-family="Helvetica,sans-Serif" font-size="11.00">updated_on</text>
<polygon fill="none" stroke="black" points="283,-185 283,-207 404,-207 404,-185 283,-185"/>
<text text-anchor="start" x="286" y="-193.2" font-family="Helvetica,sans-Serif" font-size="11.00">timestamp[29,6]</text>
<polygon fill="none" stroke="black" points="178,-163 178,-185 283,-185 283,-163 178,-163"/>
<text text-anchor="start" x="198" y="-171.2" font-family="Helvetica,sans-Serif" font-size="11.00">event_type</text>
<polygon fill="none" stroke="black" points="283,-163 283,-185 404,-185 404,-163 283,-163"/>
<text text-anchor="start" x="286" y="-171.2" font-family="Helvetica,sans-Serif" font-size="11.00">varchar[2147483647]</text>
<polygon fill="#ffffff" stroke="none" points="178,-145 178,-163 235,-163 235,-145 178,-145"/>
<polygon fill="none" stroke="black" points="178,-145 178,-163 235,-163 235,-145 178,-145"/>
<text text-anchor="start" x="181" y="-151.2" font-family="Helvetica,sans-Serif" font-size="11.00">&lt; 0</text>
<polygon fill="#ffffff" stroke="none" points="235,-145 235,-163 283,-163 283,-145 235,-145"/>
<polygon fill="none" stroke="black" points="235,-145 235,-163 283,-163 283,-145 235,-145"/>
<text text-anchor="start" x="273" y="-151.2" font-family="Helvetica,sans-Serif" font-size="11.00"> &#160;</text>
<polygon fill="#ffffff" stroke="none" points="283,-145 283,-163 404,-163 404,-145 283,-145"/>
<polygon fill="none" stroke="black" points="283,-145 283,-163 404,-163 404,-145 283,-145"/>
<text text-anchor="start" x="384" y="-151.2" font-family="Helvetica,sans-Serif" font-size="11.00">1 &gt;</text>
<polygon fill="none" stroke="black" stroke-width="2" points="177,-144 177,-340 405,-340 405,-144 177,-144"/>
</a>
</g>
</g>
<!-- compliance_details&#45;&gt;compliances -->
<g id="edge1" class="edge"><title>compliance_details:compliance_id:w&#45;&gt;compliances:id.type:e</title>
<path fill="none" stroke="black" d="M439.802,-143.592C391.944,-164.583 475.821,-306 405,-306"/>
<polygon fill="black" stroke="black" points="446.13,-142.437 454.647,-144.541 450.065,-141.718 454,-141 454,-141 454,-141 450.065,-141.718 453.353,-137.459 446.13,-142.437 446.13,-142.437"/>
<ellipse fill="none" stroke="black" cx="442.982" cy="-143.011" rx="3.2" ry="3.2"/>
</g>
<!-- conditions -->
<g id="node3" class="node"><title>conditions</title>
<g id="a_node3"><a xlink:href="../../tables/conditions.html" xlink:title="conditions" target="_top">
<polygon fill="#ffffff" stroke="none" points="236.5,-37 236.5,-95 345.5,-95 345.5,-37 236.5,-37"/>
<polygon fill="#f5f5f5" stroke="none" points="237,-73 237,-95 346,-95 346,-73 237,-73"/>
<polygon fill="none" stroke="black" points="237,-73 237,-95 346,-95 346,-73 237,-73"/>
<text text-anchor="start" x="242" y="-82.2" font-family="Helvetica,sans-Serif" font-weight="bold" font-size="11.00">conditions</text>
<text text-anchor="start" x="307" y="-81.2" font-family="Helvetica,sans-Serif" font-size="11.00">[table]</text>
<polygon fill="none" stroke="black" points="237,-55 237,-73 346,-73 346,-55 237,-55"/>
<text text-anchor="start" x="240" y="-61.2" font-family="Helvetica,sans-Serif" font-size="11.00">...</text>
<polygon fill="#ffffff" stroke="none" points="237,-37 237,-55 285,-55 285,-37 237,-37"/>
<polygon fill="none" stroke="black" points="237,-37 237,-55 285,-55 285,-37 237,-37"/>
<text text-anchor="start" x="240" y="-43.2" font-family="Helvetica,sans-Serif" font-size="11.00">&lt; 1</text>
<polygon fill="#ffffff" stroke="none" points="285,-37 285,-55 310,-55 310,-37 285,-37"/>
<polygon fill="none" stroke="black" points="285,-37 285,-55 310,-55 310,-37 285,-37"/>
<text text-anchor="start" x="300" y="-43.2" font-family="Helvetica,sans-Serif" font-size="11.00"> &#160;</text>
<polygon fill="#ffffff" stroke="none" points="310,-37 310,-55 346,-55 346,-37 310,-37"/>
<polygon fill="none" stroke="black" points="310,-37 310,-55 346,-55 346,-37 310,-37"/>
<text text-anchor="start" x="326" y="-43.2" font-family="Helvetica,sans-Serif" font-size="11.00">2 &gt;</text>
</a>
</g>
</g>
<!-- compliance_details&#45;&gt;conditions -->
<g id="edge2" class="edge"><title>compliance_details:condition_id:w&#45;&gt;conditions:elipses:e</title>
<path fill="none" stroke="black" d="M439.566,-95.9762C402.188,-90.4061 391.517,-64 347,-64"/>
<polygon fill="black" stroke="black" points="446.02,-96.4339 453.745,-100.591 450.01,-96.717 454,-97 454,-97 454,-97 450.01,-96.717 454.255,-93.409 446.02,-96.4339 446.02,-96.4339"/>
<ellipse fill="none" stroke="black" cx="442.828" cy="-96.2075" rx="3.2" ry="3.2"/>
</g>
<!-- miq_policies -->
<g id="node4" class="node"><title>miq_policies</title>
<g id="a_node4"><a xlink:href="../../tables/miq_policies.html" xlink:title="miq_policies" target="_top">
<polygon fill="#ffffff" stroke="none" points="8,-64 8,-122 127,-122 127,-64 8,-64"/>
<polygon fill="#f5f5f5" stroke="none" points="8.5,-100 8.5,-122 127.5,-122 127.5,-100 8.5,-100"/>
<polygon fill="none" stroke="black" points="8.5,-100 8.5,-122 127.5,-122 127.5,-100 8.5,-100"/>
<text text-anchor="start" x="13.5" y="-109.2" font-family="Helvetica,sans-Serif" font-weight="bold" font-size="11.00">miq_policies</text>
<text text-anchor="start" x="88.5" y="-108.2" font-family="Helvetica,sans-Serif" font-size="11.00">[table]</text>
<polygon fill="none" stroke="black" points="8.5,-82 8.5,-100 127.5,-100 127.5,-82 8.5,-82"/>
<text text-anchor="start" x="11.5" y="-88.2" font-family="Helvetica,sans-Serif" font-size="11.00">...</text>
<polygon fill="#ffffff" stroke="none" points="8.5,-64 8.5,-82 56.5,-82 56.5,-64 8.5,-64"/>
<polygon fill="none" stroke="black" points="8.5,-64 8.5,-82 56.5,-82 56.5,-64 8.5,-64"/>
<text text-anchor="start" x="11.5" y="-70.2" font-family="Helvetica,sans-Serif" font-size="11.00"> &#160;</text>
<polygon fill="#ffffff" stroke="none" points="56.5,-64 56.5,-82 86.5,-82 86.5,-64 56.5,-64"/>
<polygon fill="none" stroke="black" points="56.5,-64 56.5,-82 86.5,-82 86.5,-64 56.5,-64"/>
<text text-anchor="start" x="76.5" y="-70.2" font-family="Helvetica,sans-Serif" font-size="11.00"> &#160;</text>
<polygon fill="#ffffff" stroke="none" points="86.5,-64 86.5,-82 127.5,-82 127.5,-64 86.5,-64"/>
<polygon fill="none" stroke="black" points="86.5,-64 86.5,-82 127.5,-82 127.5,-64 86.5,-64"/>
<text text-anchor="start" x="107.5" y="-70.2" font-family="Helvetica,sans-Serif" font-size="11.00">5 &gt;</text>
</a>
</g>
</g>
<!-- compliance_details&#45;&gt;miq_policies -->
<g id="edge3" class="edge"><title>compliance_details:miq_policy_id:w&#45;&gt;miq_policies:elipses:e</title>
<path fill="none" stroke="black" d="M439.503,-119.046C323.951,-119.777 287.98,-128.668 168,-105 149.727,-101.395 147.126,-91 128.5,-91"/>
<polygon fill="black" stroke="black" points="446,-119.025 454.011,-122.6 450,-119.013 454,-119 454,-119 454,-119 450,-119.013 453.989,-115.4 446,-119.025 446,-119.025"/>
<ellipse fill="none" stroke="black" cx="442.8" cy="-119.036" rx="3.2" ry="3.2"/>
</g>
<!-- conditions&#45;&gt;miq_policies -->
<g id="edge4" class="edge"><title>conditions:elipses:w&#45;&gt;miq_policies:elipses:e</title>
<path fill="none" stroke="black" d="M221.176,-64.8983C184.293,-69.5833 172.374,-91 128.5,-91"/>
<polygon fill="black" stroke="black" points="228.015,-64.484 236.218,-67.5934 232.007,-64.242 236,-64 236,-64 236,-64 232.007,-64.242 235.782,-60.4066 228.015,-64.484 228.015,-64.484"/>
<ellipse fill="none" stroke="black" cx="224.821" cy="-64.6776" rx="3.2" ry="3.2"/>
</g>
</g>
</svg>
