<?xml version="1.0" encoding="UTF-8" standalone="no"?>
<!DOCTYPE svg PUBLIC "-//W3C//DTD SVG 1.1//EN"
 "http://www.w3.org/Graphics/SVG/1.1/DTD/svg11.dtd">
<!-- Generated by graphviz version 2.38.0 (20140413.2041)
 -->
<!-- Title: twoDegreesRelationshipsDiagram Pages: 1 -->
<svg width="666pt" height="530pt"
 viewBox="0.00 0.00 666.00 530.00" xmlns="http://www.w3.org/2000/svg" xmlns:xlink="http://www.w3.org/1999/xlink">
<g id="graph0" class="graph" transform="scale(1 1) rotate(0) translate(4 526)">
<title>twoDegreesRelationshipsDiagram</title>
<polygon fill="#ffffff" stroke="none" points="-4,4 -4,-526 662,-526 662,4 -4,4"/>
<text text-anchor="middle" x="74.5" y="-7.2" font-family="Helvetica,sans-Serif" font-size="11.00">Generated by SchemaSpy</text>
<!-- compliance_details -->
<g id="node1" class="node"><title>compliance_details</title>
<g id="a_node1"><a xlink:href="../../tables/compliance_details.html" xlink:title="compliance_details" target="_top">
<polygon fill="#ffffff" stroke="none" points="390,-250 390,-514 650,-514 650,-250 390,-250"/>
<polygon fill="#f5f5f5" stroke="none" points="392,-490 392,-512 648,-512 648,-490 392,-490"/>
<polygon fill="none" stroke="black" points="392,-490 392,-512 648,-512 648,-490 392,-490"/>
<text text-anchor="start" x="397" y="-499.2" font-family="Helvetica,sans-Serif" font-weight="bold" font-size="11.00">compliance_details</text>
<text text-anchor="start" x="609" y="-498.2" font-family="Helvetica,sans-Serif" font-size="11.00">[table]</text>
<polygon fill="none" stroke="black" points="392,-468 392,-490 527,-490 527,-468 392,-468"/>
<image xlink:href="../../images/primaryKeys.png" width="11px" height="12px" preserveAspectRatio="xMinYMin meet" x="397" y="-485"/>
<text text-anchor="start" x="412" y="-476.2" font-family="Helvetica,sans-Serif" font-size="11.00">id</text>
<polygon fill="none" stroke="black" points="527,-468 527,-490 648,-490 648,-468 527,-468"/>
<text text-anchor="start" x="530" y="-476.2" font-family="Helvetica,sans-Serif" font-size="11.00">bigserial[19]</text>
<polygon fill="#ffffff" stroke="none" points="392,-446 392,-468 527,-468 527,-446 392,-446"/>
<polygon fill="none" stroke="black" points="392,-446 392,-468 527,-468 527,-446 392,-446"/>
<image xlink:href="../../images/foreignKeys.png" width="11px" height="12px" preserveAspectRatio="xMinYMin meet" x="397" y="-463"/>
<text text-anchor="start" x="412" y="-454.2" font-family="Helvetica,sans-Serif" font-size="11.00">compliance_id</text>
<polygon fill="none" stroke="black" points="527,-446 527,-468 648,-468 648,-446 527,-446"/>
<text text-anchor="start" x="530" y="-454.2" font-family="Helvetica,sans-Serif" font-size="11.00">int8[19]</text>
<polygon fill="none" stroke="black" points="392,-424 392,-446 527,-446 527,-424 392,-424"/>
<text text-anchor="start" x="412" y="-432.2" font-family="Helvetica,sans-Serif" font-size="11.00">created_on</text>
<polygon fill="none" stroke="black" points="527,-424 527,-446 648,-446 648,-424 527,-424"/>
<text text-anchor="start" x="530" y="-432.2" font-family="Helvetica,sans-Serif" font-size="11.00">timestamp[29,6]</text>
<polygon fill="none" stroke="black" points="392,-402 392,-424 527,-424 527,-402 392,-402"/>
<text text-anchor="start" x="412" y="-410.2" font-family="Helvetica,sans-Serif" font-size="11.00">updated_on</text>
<polygon fill="none" stroke="black" points="527,-402 527,-424 648,-424 648,-402 527,-402"/>
<text text-anchor="start" x="530" y="-410.2" font-family="Helvetica,sans-Serif" font-size="11.00">timestamp[29,6]</text>
<polygon fill="#ffffff" stroke="none" points="392,-380 392,-402 527,-402 527,-380 392,-380"/>
<polygon fill="none" stroke="black" points="392,-380 392,-402 527,-402 527,-380 392,-380"/>
<image xlink:href="../../images/foreignKeys.png" width="11px" height="12px" preserveAspectRatio="xMinYMin meet" x="397" y="-397"/>
<text text-anchor="start" x="412" y="-388.2" font-family="Helvetica,sans-Serif" font-size="11.00">miq_policy_id</text>
<polygon fill="none" stroke="black" points="527,-380 527,-402 648,-402 648,-380 527,-380"/>
<text text-anchor="start" x="530" y="-388.2" font-family="Helvetica,sans-Serif" font-size="11.00">int8[19]</text>
<polygon fill="none" stroke="black" points="392,-358 392,-380 527,-380 527,-358 392,-358"/>
<text text-anchor="start" x="412" y="-366.2" font-family="Helvetica,sans-Serif" font-size="11.00">miq_policy_desc</text>
<polygon fill="none" stroke="black" points="527,-358 527,-380 648,-380 648,-358 527,-358"/>
<text text-anchor="start" x="530" y="-366.2" font-family="Helvetica,sans-Serif" font-size="11.00">varchar[2147483647]</text>
<polygon fill="none" stroke="black" points="392,-336 392,-358 527,-358 527,-336 392,-336"/>
<text text-anchor="start" x="412" y="-344.2" font-family="Helvetica,sans-Serif" font-size="11.00">miq_policy_result</text>
<polygon fill="none" stroke="black" points="527,-336 527,-358 648,-358 648,-336 527,-336"/>
<text text-anchor="start" x="530" y="-344.2" font-family="Helvetica,sans-Serif" font-size="11.00">bool[1]</text>
<polygon fill="#ffffff" stroke="none" points="392,-314 392,-336 527,-336 527,-314 392,-314"/>
<polygon fill="none" stroke="black" points="392,-314 392,-336 527,-336 527,-314 392,-314"/>
<image xlink:href="../../images/foreignKeys.png" width="11px" height="12px" preserveAspectRatio="xMinYMin meet" x="397" y="-331"/>
<text text-anchor="start" x="412" y="-322.2" font-family="Helvetica,sans-Serif" font-size="11.00">condition_id</text>
<polygon fill="none" stroke="black" points="527,-314 527,-336 648,-336 648,-314 527,-314"/>
<text text-anchor="start" x="530" y="-322.2" font-family="Helvetica,sans-Serif" font-size="11.00">int8[19]</text>
<polygon fill="none" stroke="black" points="392,-292 392,-314 527,-314 527,-292 392,-292"/>
<text text-anchor="start" x="412" y="-300.2" font-family="Helvetica,sans-Serif" font-size="11.00">condition_desc</text>
<polygon fill="none" stroke="black" points="527,-292 527,-314 648,-314 648,-292 527,-292"/>
<text text-anchor="start" x="530" y="-300.2" font-family="Helvetica,sans-Serif" font-size="11.00">varchar[2147483647]</text>
<polygon fill="none" stroke="black" points="392,-270 392,-292 527,-292 527,-270 392,-270"/>
<text text-anchor="start" x="412" y="-278.2" font-family="Helvetica,sans-Serif" font-size="11.00">condition_result</text>
<polygon fill="none" stroke="black" points="527,-270 527,-292 648,-292 648,-270 527,-270"/>
<text text-anchor="start" x="530" y="-278.2" font-family="Helvetica,sans-Serif" font-size="11.00">bool[1]</text>
<polygon fill="#ffffff" stroke="none" points="392,-252 392,-270 464,-270 464,-252 392,-252"/>
<polygon fill="none" stroke="black" points="392,-252 392,-270 464,-270 464,-252 392,-252"/>
<text text-anchor="start" x="395" y="-258.2" font-family="Helvetica,sans-Serif" font-size="11.00">&lt; 3</text>
<polygon fill="#ffffff" stroke="none" points="464,-252 464,-270 527,-270 527,-252 464,-252"/>
<polygon fill="none" stroke="black" points="464,-252 464,-270 527,-270 527,-252 464,-252"/>
<text text-anchor="start" x="517" y="-258.2" font-family="Helvetica,sans-Serif" font-size="11.00"> &#160;</text>
<polygon fill="#ffffff" stroke="none" points="527,-252 527,-270 648,-270 648,-252 527,-252"/>
<polygon fill="none" stroke="black" points="527,-252 527,-270 648,-270 648,-252 527,-252"/>
<text text-anchor="start" x="628" y="-258.2" font-family="Helvetica,sans-Serif" font-size="11.00">0 &gt;</text>
<polygon fill="none" stroke="black" stroke-width="2" points="391,-251 391,-513 649,-513 649,-251 391,-251"/>
</a>
</g>
</g>
<!-- compliances -->
<g id="node2" class="node"><title>compliances</title>
<g id="a_node2"><a xlink:href="../../tables/compliances.html" xlink:title="compliances" target="_top">
<polygon fill="#ffffff" stroke="none" points="198.5,-394 198.5,-518 318.5,-518 318.5,-394 198.5,-394"/>
<polygon fill="#f5f5f5" stroke="none" points="198.5,-496 198.5,-518 318.5,-518 318.5,-496 198.5,-496"/>
<polygon fill="none" stroke="black" points="198.5,-496 198.5,-518 318.5,-518 318.5,-496 198.5,-496"/>
<text text-anchor="start" x="203.5" y="-505.2" font-family="Helvetica,sans-Serif" font-weight="bold" font-size="11.00">compliances</text>
<text text-anchor="start" x="279.5" y="-504.2" font-family="Helvetica,sans-Serif" font-size="11.00">[table]</text>
<polygon fill="none" stroke="black" points="198.5,-474 198.5,-496 318.5,-496 318.5,-474 198.5,-474"/>
<image xlink:href="../../images/primaryKeys.png" width="11px" height="12px" preserveAspectRatio="xMinYMin meet" x="203.5" y="-491"/>
<text text-anchor="start" x="226.5" y="-482.2" font-family="Helvetica,sans-Serif" font-size="11.00">id</text>
<polygon fill="#ffffff" stroke="none" points="198.5,-452 198.5,-474 318.5,-474 318.5,-452 198.5,-452"/>
<polygon fill="none" stroke="black" points="198.5,-452 198.5,-474 318.5,-474 318.5,-452 198.5,-452"/>
<text text-anchor="start" x="226.5" y="-460.2" font-family="Helvetica,sans-Serif" font-size="11.00">resource_id</text>
<polygon fill="#ffffff" stroke="none" points="198.5,-430 198.5,-452 318.5,-452 318.5,-430 198.5,-430"/>
<polygon fill="none" stroke="black" points="198.5,-430 198.5,-452 318.5,-452 318.5,-430 198.5,-430"/>
<text text-anchor="start" x="226.5" y="-438.2" font-family="Helvetica,sans-Serif" font-size="11.00">resource_type</text>
<polygon fill="none" stroke="black" points="198.5,-412 198.5,-430 318.5,-430 318.5,-412 198.5,-412"/>
<text text-anchor="start" x="201.5" y="-418.2" font-family="Helvetica,sans-Serif" font-size="11.00">...</text>
<polygon fill="#ffffff" stroke="none" points="198.5,-394 198.5,-412 246.5,-412 246.5,-394 198.5,-394"/>
<polygon fill="none" stroke="black" points="198.5,-394 198.5,-412 246.5,-412 246.5,-394 198.5,-394"/>
<text text-anchor="start" x="201.5" y="-400.2" font-family="Helvetica,sans-Serif" font-size="11.00"> &#160;</text>
<polygon fill="#ffffff" stroke="none" points="246.5,-394 246.5,-412 277.5,-412 277.5,-394 246.5,-394"/>
<polygon fill="none" stroke="black" points="246.5,-394 246.5,-412 277.5,-412 277.5,-394 246.5,-394"/>
<text text-anchor="start" x="267.5" y="-400.2" font-family="Helvetica,sans-Serif" font-size="11.00"> &#160;</text>
<polygon fill="#ffffff" stroke="none" points="277.5,-394 277.5,-412 318.5,-412 318.5,-394 277.5,-394"/>
<polygon fill="none" stroke="black" points="277.5,-394 277.5,-412 318.5,-412 318.5,-394 277.5,-394"/>
<text text-anchor="start" x="298.5" y="-400.2" font-family="Helvetica,sans-Serif" font-size="11.00">1 &gt;</text>
</a>
</g>
</g>
<!-- compliance_details&#45;&gt;compliances -->
<g id="edge1" class="edge"><title>compliance_details:compliance_id:w&#45;&gt;compliances:id:e</title>
<path fill="none" stroke="black" d="M376.725,-458.925C355.041,-465.251 348.162,-485 319.5,-485"/>
<polygon fill="black" stroke="black" points="383.072,-458.069 391.481,-460.568 387.036,-457.534 391,-457 391,-457 391,-457 387.036,-457.534 390.519,-453.432 383.072,-458.069 383.072,-458.069"/>
<ellipse fill="none" stroke="black" cx="379.9" cy="-458.497" rx="3.2" ry="3.2"/>
</g>
<!-- conditions -->
<g id="node3" class="node"><title>conditions</title>
<g id="a_node3"><a xlink:href="../../tables/conditions.html" xlink:title="conditions" target="_top">
<polygon fill="#ffffff" stroke="none" points="204,-222 204,-346 313,-346 313,-222 204,-222"/>
<polygon fill="#f5f5f5" stroke="none" points="204.5,-324 204.5,-346 313.5,-346 313.5,-324 204.5,-324"/>
<polygon fill="none" stroke="black" points="204.5,-324 204.5,-346 313.5,-346 313.5,-324 204.5,-324"/>
<text text-anchor="start" x="209.5" y="-333.2" font-family="Helvetica,sans-Serif" font-weight="bold" font-size="11.00">conditions</text>
<text text-anchor="start" x="274.5" y="-332.2" font-family="Helvetica,sans-Serif" font-size="11.00">[table]</text>
<polygon fill="none" stroke="black" points="204.5,-302 204.5,-324 313.5,-324 313.5,-302 204.5,-302"/>
<image xlink:href="../../images/primaryKeys.png" width="11px" height="12px" preserveAspectRatio="xMinYMin meet" x="209.5" y="-319"/>
<text text-anchor="start" x="225.5" y="-310.2" font-family="Helvetica,sans-Serif" font-size="11.00">id</text>
<polygon fill="#ffffff" stroke="none" points="204.5,-280 204.5,-302 313.5,-302 313.5,-280 204.5,-280"/>
<polygon fill="none" stroke="black" points="204.5,-280 204.5,-302 313.5,-302 313.5,-280 204.5,-280"/>
<text text-anchor="start" x="225.5" y="-288.2" font-family="Helvetica,sans-Serif" font-size="11.00">guid</text>
<polygon fill="#ffffff" stroke="none" points="204.5,-258 204.5,-280 313.5,-280 313.5,-258 204.5,-258"/>
<polygon fill="none" stroke="black" points="204.5,-258 204.5,-280 313.5,-280 313.5,-258 204.5,-258"/>
<image xlink:href="../../images/foreignKeys.png" width="11px" height="12px" preserveAspectRatio="xMinYMin meet" x="209.5" y="-275"/>
<text text-anchor="start" x="225.5" y="-266.2" font-family="Helvetica,sans-Serif" font-size="11.00">miq_policy_id</text>
<polygon fill="none" stroke="black" points="204.5,-240 204.5,-258 313.5,-258 313.5,-240 204.5,-240"/>
<text text-anchor="start" x="207.5" y="-246.2" font-family="Helvetica,sans-Serif" font-size="11.00">...</text>
<polygon fill="#ffffff" stroke="none" points="204.5,-222 204.5,-240 252.5,-240 252.5,-222 204.5,-222"/>
<polygon fill="none" stroke="black" points="204.5,-222 204.5,-240 252.5,-240 252.5,-222 204.5,-222"/>
<text text-anchor="start" x="207.5" y="-228.2" font-family="Helvetica,sans-Serif" font-size="11.00">&lt; 1</text>
<polygon fill="#ffffff" stroke="none" points="252.5,-222 252.5,-240 277.5,-240 277.5,-222 252.5,-222"/>
<polygon fill="none" stroke="black" points="252.5,-222 252.5,-240 277.5,-240 277.5,-222 252.5,-222"/>
<text text-anchor="start" x="267.5" y="-228.2" font-family="Helvetica,sans-Serif" font-size="11.00"> &#160;</text>
<polygon fill="#ffffff" stroke="none" points="277.5,-222 277.5,-240 313.5,-240 313.5,-222 277.5,-222"/>
<polygon fill="none" stroke="black" points="277.5,-222 277.5,-240 313.5,-240 313.5,-222 277.5,-222"/>
<text text-anchor="start" x="293.5" y="-228.2" font-family="Helvetica,sans-Serif" font-size="11.00">2 &gt;</text>
</a>
</g>
</g>
<!-- compliance_details&#45;&gt;conditions -->
<g id="edge2" class="edge"><title>compliance_details:condition_id:w&#45;&gt;conditions:id:e</title>
<path fill="none" stroke="black" d="M376.303,-324.175C353.442,-321.464 343.404,-313 314.5,-313"/>
<polygon fill="black" stroke="black" points="383.013,-324.552 390.798,-328.594 387.006,-324.776 391,-325 391,-325 391,-325 387.006,-324.776 391.202,-321.406 383.013,-324.552 383.013,-324.552"/>
<ellipse fill="none" stroke="black" cx="379.818" cy="-324.372" rx="3.2" ry="3.2"/>
</g>
<!-- miq_policies -->
<g id="node4" class="node"><title>miq_policies</title>
<g id="a_node4"><a xlink:href="../../tables/miq_policies.html" xlink:title="miq_policies" target="_top">
<polygon fill="#ffffff" stroke="none" points="8,-151 8,-231 127,-231 127,-151 8,-151"/>
<polygon fill="#f5f5f5" stroke="none" points="8.5,-209 8.5,-231 127.5,-231 127.5,-209 8.5,-209"/>
<polygon fill="none" stroke="black" points="8.5,-209 8.5,-231 127.5,-231 127.5,-209 8.5,-209"/>
<text text-anchor="start" x="13.5" y="-218.2" font-family="Helvetica,sans-Serif" font-weight="bold" font-size="11.00">miq_policies</text>
<text text-anchor="start" x="88.5" y="-217.2" font-family="Helvetica,sans-Serif" font-size="11.00">[table]</text>
<polygon fill="none" stroke="black" points="8.5,-187 8.5,-209 127.5,-209 127.5,-187 8.5,-187"/>
<image xlink:href="../../images/primaryKeys.png" width="11px" height="12px" preserveAspectRatio="xMinYMin meet" x="13.5" y="-204"/>
<text text-anchor="start" x="41.5" y="-195.2" font-family="Helvetica,sans-Serif" font-size="11.00">id</text>
<polygon fill="none" stroke="black" points="8.5,-169 8.5,-187 127.5,-187 127.5,-169 8.5,-169"/>
<text text-anchor="start" x="11.5" y="-175.2" font-family="Helvetica,sans-Serif" font-size="11.00">...</text>
<polygon fill="#ffffff" stroke="none" points="8.5,-151 8.5,-169 56.5,-169 56.5,-151 8.5,-151"/>
<polygon fill="none" stroke="black" points="8.5,-151 8.5,-169 56.5,-169 56.5,-151 8.5,-151"/>
<text text-anchor="start" x="11.5" y="-157.2" font-family="Helvetica,sans-Serif" font-size="11.00"> &#160;</text>
<polygon fill="#ffffff" stroke="none" points="56.5,-151 56.5,-169 86.5,-169 86.5,-151 56.5,-151"/>
<polygon fill="none" stroke="black" points="56.5,-151 56.5,-169 86.5,-169 86.5,-151 56.5,-151"/>
<text text-anchor="start" x="76.5" y="-157.2" font-family="Helvetica,sans-Serif" font-size="11.00"> &#160;</text>
<polygon fill="#ffffff" stroke="none" points="86.5,-151 86.5,-169 127.5,-169 127.5,-151 86.5,-151"/>
<polygon fill="none" stroke="black" points="86.5,-151 86.5,-169 127.5,-169 127.5,-151 86.5,-151"/>
<text text-anchor="start" x="107.5" y="-157.2" font-family="Helvetica,sans-Serif" font-size="11.00">5 &gt;</text>
</a>
</g>
</g>
<!-- compliance_details&#45;&gt;miq_policies -->
<g id="edge3" class="edge"><title>compliance_details:miq_policy_id:w&#45;&gt;miq_policies:id:e</title>
<path fill="none" stroke="black" d="M376.343,-389.923C367.8,-388.519 361.705,-386.006 349,-384 308.83,-377.657 198.095,-384.352 168,-357 114.115,-308.026 201.315,-198 128.5,-198"/>
<polygon fill="black" stroke="black" points="383.022,-390.414 390.736,-394.59 387.011,-390.707 391,-391 391,-391 391,-391 387.011,-390.707 391.264,-387.41 383.022,-390.414 383.022,-390.414"/>
<ellipse fill="none" stroke="black" cx="379.83" cy="-390.179" rx="3.2" ry="3.2"/>
</g>
<!-- conditions&#45;&gt;miq_policies -->
<g id="edge4" class="edge"><title>conditions:miq_policy_id:w&#45;&gt;miq_policies:id:e</title>
<path fill="none" stroke="black" d="M189.361,-266.129C160.749,-252.846 168.842,-198 128.5,-198"/>
<polygon fill="black" stroke="black" points="195.66,-267.408 202.784,-272.528 199.58,-268.204 203.5,-269 203.5,-269 203.5,-269 199.58,-268.204 204.216,-265.472 195.66,-267.408 195.66,-267.408"/>
<ellipse fill="none" stroke="black" cx="192.524" cy="-266.771" rx="3.2" ry="3.2"/>
</g>
<!-- conditions_miq_policies -->
<g id="node5" class="node"><title>conditions_miq_policies</title>
<g id="a_node5"><a xlink:href="../../tables/conditions_miq_policies.html" xlink:title="conditions_miq_policies" target="_top">
<polygon fill="#ffffff" stroke="none" points="428,-171 428,-229 612,-229 612,-171 428,-171"/>
<polygon fill="#f5f5f5" stroke="none" points="428,-207 428,-229 612,-229 612,-207 428,-207"/>
<polygon fill="none" stroke="black" points="428,-207 428,-229 612,-229 612,-207 428,-207"/>
<text text-anchor="start" x="433" y="-216.2" font-family="Helvetica,sans-Serif" font-weight="bold" font-size="11.00">conditions_miq_policies</text>
<text text-anchor="start" x="573" y="-215.2" font-family="Helvetica,sans-Serif" font-size="11.00">[table]</text>
<polygon fill="none" stroke="black" points="428,-189 428,-207 612,-207 612,-189 428,-189"/>
<text text-anchor="start" x="431" y="-195.2" font-family="Helvetica,sans-Serif" font-size="11.00">...</text>
<polygon fill="#ffffff" stroke="none" points="428,-171 428,-189 518,-189 518,-171 428,-171"/>
<polygon fill="none" stroke="black" points="428,-171 428,-189 518,-189 518,-171 428,-171"/>
<text text-anchor="start" x="431" y="-177.2" font-family="Helvetica,sans-Serif" font-size="11.00">&lt; 2</text>
<polygon fill="#ffffff" stroke="none" points="518,-171 518,-189 565,-189 565,-171 518,-171"/>
<polygon fill="none" stroke="black" points="518,-171 518,-189 565,-189 565,-171 518,-171"/>
<text text-anchor="start" x="555" y="-177.2" font-family="Helvetica,sans-Serif" font-size="11.00"> &#160;</text>
<polygon fill="#ffffff" stroke="none" points="565,-171 565,-189 612,-189 612,-171 565,-171"/>
<polygon fill="none" stroke="black" points="565,-171 565,-189 612,-189 612,-171 565,-171"/>
<text text-anchor="start" x="602" y="-177.2" font-family="Helvetica,sans-Serif" font-size="11.00"> &#160;</text>
</a>
</g>
</g>
<!-- conditions_miq_policies&#45;&gt;conditions -->
<g id="edge5" class="edge"><title>conditions_miq_policies:elipses:w&#45;&gt;conditions:id:e</title>
<path fill="none" stroke="black" d="M412.682,-199.806C359.465,-214.437 380.694,-313 314.5,-313"/>
<polygon fill="black" stroke="black" points="419.063,-199.001 427.451,-201.572 423.031,-198.501 427,-198 427,-198 427,-198 423.031,-198.501 426.549,-194.428 419.063,-199.001 419.063,-199.001"/>
<ellipse fill="none" stroke="black" cx="415.888" cy="-199.402" rx="3.2" ry="3.2"/>
</g>
<!-- conditions_miq_policies&#45;&gt;miq_policies -->
<g id="edge6" class="edge"><title>conditions_miq_policies:elipses:w&#45;&gt;miq_policies:id:e</title>
<path fill="none" stroke="black" d="M412.264,-198C291.663,-198 256.114,-198 128.5,-198"/>
<polygon fill="black" stroke="black" points="419,-198 427,-201.6 423,-198 427,-198 427,-198 427,-198 423,-198 427,-194.4 419,-198 419,-198"/>
<ellipse fill="none" stroke="black" cx="415.8" cy="-198" rx="3.2" ry="3.2"/>
</g>
<!-- miq_policy_contents -->
<g id="node6" class="node"><title>miq_policy_contents</title>
<g id="a_node6"><a xlink:href="../../tables/miq_policy_contents.html" xlink:title="miq_policy_contents" target="_top">
<polygon fill="#ffffff" stroke="none" points="176,-116 176,-174 341,-174 341,-116 176,-116"/>
<polygon fill="#f5f5f5" stroke="none" points="176.5,-152 176.5,-174 341.5,-174 341.5,-152 176.5,-152"/>
<polygon fill="none" stroke="black" points="176.5,-152 176.5,-174 341.5,-174 341.5,-152 176.5,-152"/>
<text text-anchor="start" x="181.5" y="-161.2" font-family="Helvetica,sans-Serif" font-weight="bold" font-size="11.00">miq_policy_contents</text>
<text text-anchor="start" x="302.5" y="-160.2" font-family="Helvetica,sans-Serif" font-size="11.00">[table]</text>
<polygon fill="none" stroke="black" points="176.5,-134 176.5,-152 341.5,-152 341.5,-134 176.5,-134"/>
<text text-anchor="start" x="179.5" y="-140.2" font-family="Helvetica,sans-Serif" font-size="11.00">...</text>
<polygon fill="#ffffff" stroke="none" points="176.5,-116 176.5,-134 257.5,-134 257.5,-116 176.5,-116"/>
<polygon fill="none" stroke="black" points="176.5,-116 176.5,-134 257.5,-134 257.5,-116 176.5,-116"/>
<text text-anchor="start" x="179.5" y="-122.2" font-family="Helvetica,sans-Serif" font-size="11.00">&lt; 3</text>
<polygon fill="#ffffff" stroke="none" points="257.5,-116 257.5,-134 299.5,-134 299.5,-116 257.5,-116"/>
<polygon fill="none" stroke="black" points="257.5,-116 257.5,-134 299.5,-134 299.5,-116 257.5,-116"/>
<text text-anchor="start" x="289.5" y="-122.2" font-family="Helvetica,sans-Serif" font-size="11.00"> &#160;</text>
<polygon fill="#ffffff" stroke="none" points="299.5,-116 299.5,-134 341.5,-134 341.5,-116 299.5,-116"/>
<polygon fill="none" stroke="black" points="299.5,-116 299.5,-134 341.5,-134 341.5,-116 299.5,-116"/>
<text text-anchor="start" x="331.5" y="-122.2" font-family="Helvetica,sans-Serif" font-size="11.00"> &#160;</text>
</a>
</g>
</g>
<!-- miq_policy_contents&#45;&gt;miq_policies -->
<g id="edge7" class="edge"><title>miq_policy_contents:elipses:w&#45;&gt;miq_policies:id:e</title>
<path fill="none" stroke="black" d="M161.978,-148.076C148.098,-161.691 154.625,-198 128.5,-198"/>
<polygon fill="black" stroke="black" points="168.01,-145.811 176.765,-146.37 171.755,-144.406 175.5,-143 175.5,-143 175.5,-143 171.755,-144.406 174.235,-139.63 168.01,-145.811 168.01,-145.811"/>
<ellipse fill="none" stroke="black" cx="165.014" cy="-146.936" rx="3.20001" ry="3.20001"/>
</g>
<!-- policy_events -->
<g id="node7" class="node"><title>policy_events</title>
<g id="a_node7"><a xlink:href="../../tables/policy_events.html" xlink:title="policy_events" target="_top">
<polygon fill="#ffffff" stroke="none" points="195.5,-37 195.5,-95 321.5,-95 321.5,-37 195.5,-37"/>
<polygon fill="#f5f5f5" stroke="none" points="195.5,-73 195.5,-95 321.5,-95 321.5,-73 195.5,-73"/>
<polygon fill="none" stroke="black" points="195.5,-73 195.5,-95 321.5,-95 321.5,-73 195.5,-73"/>
<text text-anchor="start" x="200.5" y="-82.2" font-family="Helvetica,sans-Serif" font-weight="bold" font-size="11.00">policy_events</text>
<text text-anchor="start" x="282.5" y="-81.2" font-family="Helvetica,sans-Serif" font-size="11.00">[table]</text>
<polygon fill="none" stroke="black" points="195.5,-55 195.5,-73 321.5,-73 321.5,-55 195.5,-55"/>
<text text-anchor="start" x="198.5" y="-61.2" font-family="Helvetica,sans-Serif" font-size="11.00">...</text>
<polygon fill="#ffffff" stroke="none" points="195.5,-37 195.5,-55 251.5,-55 251.5,-37 195.5,-37"/>
<polygon fill="none" stroke="black" points="195.5,-37 195.5,-55 251.5,-55 251.5,-37 195.5,-37"/>
<text text-anchor="start" x="198.5" y="-43.2" font-family="Helvetica,sans-Serif" font-size="11.00">&lt; 4</text>
<polygon fill="#ffffff" stroke="none" points="251.5,-37 251.5,-55 281.5,-55 281.5,-37 251.5,-37"/>
<polygon fill="none" stroke="black" points="251.5,-37 251.5,-55 281.5,-55 281.5,-37 251.5,-37"/>
<text text-anchor="start" x="271.5" y="-43.2" font-family="Helvetica,sans-Serif" font-size="11.00"> &#160;</text>
<polygon fill="#ffffff" stroke="none" points="281.5,-37 281.5,-55 321.5,-55 321.5,-37 281.5,-37"/>
<polygon fill="none" stroke="black" points="281.5,-37 281.5,-55 321.5,-55 321.5,-37 281.5,-37"/>
<text text-anchor="start" x="301.5" y="-43.2" font-family="Helvetica,sans-Serif" font-size="11.00">1 &gt;</text>
</a>
</g>
</g>
<!-- policy_events&#45;&gt;miq_policies -->
<g id="edge8" class="edge"><title>policy_events:elipses:w&#45;&gt;miq_policies:id:e</title>
<path fill="none" stroke="black" d="M180.166,-66.7988C138.606,-86.0416 189.182,-198 128.5,-198"/>
<polygon fill="black" stroke="black" points="186.648,-65.5331 195.19,-67.5333 190.574,-64.7666 194.5,-64 194.5,-64 194.5,-64 190.574,-64.7666 193.81,-60.4667 186.648,-65.5331 186.648,-65.5331"/>
<ellipse fill="none" stroke="black" cx="183.508" cy="-66.1463" rx="3.2" ry="3.2"/>
</g>
</g>
</svg>
