<?xml version="1.0" encoding="UTF-8" standalone="no"?>
<!DOCTYPE svg PUBLIC "-//W3C//DTD SVG 1.1//EN"
 "http://www.w3.org/Graphics/SVG/1.1/DTD/svg11.dtd">
<!-- Generated by graphviz version 2.38.0 (20140413.2041)
 -->
<!-- Title: oneDegreeRelationshipsDiagram Pages: 1 -->
<svg width="461pt" height="267pt"
 viewBox="0.00 0.00 461.00 267.00" xmlns="http://www.w3.org/2000/svg" xmlns:xlink="http://www.w3.org/1999/xlink">
<g id="graph0" class="graph" transform="scale(1 1) rotate(0) translate(4 263)">
<title>oneDegreeRelationshipsDiagram</title>
<polygon fill="#ffffff" stroke="none" points="-4,4 -4,-263 457,-263 457,4 -4,4"/>
<text text-anchor="middle" x="74.5" y="-7.2" font-family="Helvetica,sans-Serif" font-size="11.00">Generated by SchemaSpy</text>
<!-- compliance_details -->
<g id="node1" class="node"><title>compliance_details</title>
<g id="a_node1"><a xlink:href="../../tables/compliance_details.html" xlink:title="compliance_details" target="_top">
<polygon fill="#ffffff" stroke="none" points="287,-109 287,-255 445,-255 445,-109 287,-109"/>
<polygon fill="#f5f5f5" stroke="none" points="287,-233 287,-255 445,-255 445,-233 287,-233"/>
<polygon fill="none" stroke="black" points="287,-233 287,-255 445,-255 445,-233 287,-233"/>
<text text-anchor="start" x="292" y="-242.2" font-family="Helvetica,sans-Serif" font-weight="bold" font-size="11.00">compliance_details</text>
<text text-anchor="start" x="406" y="-241.2" font-family="Helvetica,sans-Serif" font-size="11.00">[table]</text>
<polygon fill="none" stroke="black" points="287,-211 287,-233 445,-233 445,-211 287,-211"/>
<image xlink:href="../../images/primaryKeys.png" width="11px" height="12px" preserveAspectRatio="xMinYMin meet" x="292" y="-228"/>
<text text-anchor="start" x="319" y="-219.2" font-family="Helvetica,sans-Serif" font-size="11.00">id</text>
<polygon fill="#ffffff" stroke="none" points="287,-189 287,-211 445,-211 445,-189 287,-189"/>
<polygon fill="none" stroke="black" points="287,-189 287,-211 445,-211 445,-189 287,-189"/>
<image xlink:href="../../images/foreignKeys.png" width="11px" height="12px" preserveAspectRatio="xMinYMin meet" x="292" y="-206"/>
<text text-anchor="start" x="319" y="-197.2" font-family="Helvetica,sans-Serif" font-size="11.00">compliance_id</text>
<polygon fill="#ffffff" stroke="none" points="287,-167 287,-189 445,-189 445,-167 287,-167"/>
<polygon fill="none" stroke="black" points="287,-167 287,-189 445,-189 445,-167 287,-167"/>
<image xlink:href="../../images/foreignKeys.png" width="11px" height="12px" preserveAspectRatio="xMinYMin meet" x="292" y="-184"/>
<text text-anchor="start" x="319" y="-175.2" font-family="Helvetica,sans-Serif" font-size="11.00">miq_policy_id</text>
<polygon fill="#ffffff" stroke="none" points="287,-145 287,-167 445,-167 445,-145 287,-145"/>
<polygon fill="none" stroke="black" points="287,-145 287,-167 445,-167 445,-145 287,-145"/>
<image xlink:href="../../images/foreignKeys.png" width="11px" height="12px" preserveAspectRatio="xMinYMin meet" x="292" y="-162"/>
<text text-anchor="start" x="319" y="-153.2" font-family="Helvetica,sans-Serif" font-size="11.00">condition_id</text>
<polygon fill="none" stroke="black" points="287,-127 287,-145 445,-145 445,-127 287,-127"/>
<text text-anchor="start" x="290" y="-133.2" font-family="Helvetica,sans-Serif" font-size="11.00">...</text>
<polygon fill="#ffffff" stroke="none" points="287,-109 287,-127 364,-127 364,-109 287,-109"/>
<polygon fill="none" stroke="black" points="287,-109 287,-127 364,-127 364,-109 287,-109"/>
<text text-anchor="start" x="290" y="-115.2" font-family="Helvetica,sans-Serif" font-size="11.00">&lt; 3</text>
<polygon fill="#ffffff" stroke="none" points="364,-109 364,-127 404,-127 404,-109 364,-109"/>
<polygon fill="none" stroke="black" points="364,-109 364,-127 404,-127 404,-109 364,-109"/>
<text text-anchor="start" x="394" y="-115.2" font-family="Helvetica,sans-Serif" font-size="11.00"> &#160;</text>
<polygon fill="#ffffff" stroke="none" points="404,-109 404,-127 445,-127 445,-109 404,-109"/>
<polygon fill="none" stroke="black" points="404,-109 404,-127 445,-127 445,-109 404,-109"/>
<text text-anchor="start" x="435" y="-115.2" font-family="Helvetica,sans-Serif" font-size="11.00"> &#160;</text>
</a>
</g>
</g>
<!-- compliances -->
<g id="node2" class="node"><title>compliances</title>
<g id="a_node2"><a xlink:href="../../tables/compliances.html" xlink:title="compliances" target="_top">
<polygon fill="#ffffff" stroke="none" points="8,-37 8,-235 238,-235 238,-37 8,-37"/>
<polygon fill="#f5f5f5" stroke="none" points="10,-211 10,-233 236,-233 236,-211 10,-211"/>
<polygon fill="none" stroke="black" points="10,-211 10,-233 236,-233 236,-211 10,-211"/>
<text text-anchor="start" x="15" y="-220.2" font-family="Helvetica,sans-Serif" font-weight="bold" font-size="11.00">compliances</text>
<text text-anchor="start" x="197" y="-219.2" font-family="Helvetica,sans-Serif" font-size="11.00">[table]</text>
<polygon fill="none" stroke="black" points="10,-189 10,-211 115,-211 115,-189 10,-189"/>
<image xlink:href="../../images/primaryKeys.png" width="11px" height="12px" preserveAspectRatio="xMinYMin meet" x="15" y="-206"/>
<text text-anchor="start" x="30" y="-197.2" font-family="Helvetica,sans-Serif" font-size="11.00">id</text>
<polygon fill="none" stroke="black" points="115,-189 115,-211 236,-211 236,-189 115,-189"/>
<text text-anchor="start" x="118" y="-197.2" font-family="Helvetica,sans-Serif" font-size="11.00">bigserial[19]</text>
<polygon fill="#ffffff" stroke="none" points="10,-167 10,-189 115,-189 115,-167 10,-167"/>
<polygon fill="none" stroke="black" points="10,-167 10,-189 115,-189 115,-167 10,-167"/>
<text text-anchor="start" x="30" y="-175.2" font-family="Helvetica,sans-Serif" font-size="11.00">resource_id</text>
<polygon fill="none" stroke="black" points="115,-167 115,-189 236,-189 236,-167 115,-167"/>
<text text-anchor="start" x="118" y="-175.2" font-family="Helvetica,sans-Serif" font-size="11.00">int8[19]</text>
<polygon fill="#ffffff" stroke="none" points="10,-145 10,-167 115,-167 115,-145 10,-145"/>
<polygon fill="none" stroke="black" points="10,-145 10,-167 115,-167 115,-145 10,-145"/>
<text text-anchor="start" x="30" y="-153.2" font-family="Helvetica,sans-Serif" font-size="11.00">resource_type</text>
<polygon fill="none" stroke="black" points="115,-145 115,-167 236,-167 236,-145 115,-145"/>
<text text-anchor="start" x="118" y="-153.2" font-family="Helvetica,sans-Serif" font-size="11.00">varchar[2147483647]</text>
<polygon fill="none" stroke="black" points="10,-123 10,-145 115,-145 115,-123 10,-123"/>
<text text-anchor="start" x="30" y="-131.2" font-family="Helvetica,sans-Serif" font-size="11.00">compliant</text>
<polygon fill="none" stroke="black" points="115,-123 115,-145 236,-145 236,-123 115,-123"/>
<text text-anchor="start" x="118" y="-131.2" font-family="Helvetica,sans-Serif" font-size="11.00">bool[1]</text>
<polygon fill="none" stroke="black" points="10,-101 10,-123 115,-123 115,-101 10,-101"/>
<text text-anchor="start" x="30" y="-109.2" font-family="Helvetica,sans-Serif" font-size="11.00">timestamp</text>
<polygon fill="none" stroke="black" points="115,-101 115,-123 236,-123 236,-101 115,-101"/>
<text text-anchor="start" x="118" y="-109.2" font-family="Helvetica,sans-Serif" font-size="11.00">timestamp[29,6]</text>
<polygon fill="none" stroke="black" points="10,-79 10,-101 115,-101 115,-79 10,-79"/>
<text text-anchor="start" x="30" y="-87.2" font-family="Helvetica,sans-Serif" font-size="11.00">updated_on</text>
<polygon fill="none" stroke="black" points="115,-79 115,-101 236,-101 236,-79 115,-79"/>
<text text-anchor="start" x="118" y="-87.2" font-family="Helvetica,sans-Serif" font-size="11.00">timestamp[29,6]</text>
<polygon fill="none" stroke="black" points="10,-57 10,-79 115,-79 115,-57 10,-57"/>
<text text-anchor="start" x="30" y="-65.2" font-family="Helvetica,sans-Serif" font-size="11.00">event_type</text>
<polygon fill="none" stroke="black" points="115,-57 115,-79 236,-79 236,-57 115,-57"/>
<text text-anchor="start" x="118" y="-65.2" font-family="Helvetica,sans-Serif" font-size="11.00">varchar[2147483647]</text>
<polygon fill="#ffffff" stroke="none" points="10,-39 10,-57 67,-57 67,-39 10,-39"/>
<polygon fill="none" stroke="black" points="10,-39 10,-57 67,-57 67,-39 10,-39"/>
<text text-anchor="start" x="13" y="-45.2" font-family="Helvetica,sans-Serif" font-size="11.00">&lt; 0</text>
<polygon fill="#ffffff" stroke="none" points="67,-39 67,-57 115,-57 115,-39 67,-39"/>
<polygon fill="none" stroke="black" points="67,-39 67,-57 115,-57 115,-39 67,-39"/>
<text text-anchor="start" x="105" y="-45.2" font-family="Helvetica,sans-Serif" font-size="11.00"> &#160;</text>
<polygon fill="#ffffff" stroke="none" points="115,-39 115,-57 236,-57 236,-39 115,-39"/>
<polygon fill="none" stroke="black" points="115,-39 115,-57 236,-57 236,-39 115,-39"/>
<text text-anchor="start" x="216" y="-45.2" font-family="Helvetica,sans-Serif" font-size="11.00">1 &gt;</text>
<polygon fill="none" stroke="black" stroke-width="2" points="9,-38 9,-234 237,-234 237,-38 9,-38"/>
</a>
</g>
</g>
<!-- compliance_details&#45;&gt;compliances -->
<g id="edge1" class="edge"><title>compliance_details:compliance_id:w&#45;&gt;compliances:id.type:e</title>
<path fill="none" stroke="black" d="M271.491,-200C260.177,-200 252.993,-200 237,-200"/>
<polygon fill="black" stroke="black" points="278,-200 286,-203.6 282,-200 286,-200 286,-200 286,-200 282,-200 286,-196.4 278,-200 278,-200"/>
<ellipse fill="none" stroke="black" cx="274.8" cy="-200" rx="3.2" ry="3.2"/>
</g>
</g>
</svg>
