<?xml version="1.0" encoding="UTF-8" standalone="no"?>
<!DOCTYPE svg PUBLIC "-//W3C//DTD SVG 1.1//EN"
 "http://www.w3.org/Graphics/SVG/1.1/DTD/svg11.dtd">
<!-- Generated by graphviz version 2.38.0 (20140413.2041)
 -->
<!-- Title: twoDegreesRelationshipsDiagram Pages: 1 -->
<svg width="643pt" height="389pt"
 viewBox="0.00 0.00 643.00 389.04" xmlns="http://www.w3.org/2000/svg" xmlns:xlink="http://www.w3.org/1999/xlink">
<g id="graph0" class="graph" transform="scale(1 1) rotate(0) translate(4 385.036)">
<title>twoDegreesRelationshipsDiagram</title>
<polygon fill="#ffffff" stroke="none" points="-4,4 -4,-385.036 639,-385.036 639,4 -4,4"/>
<text text-anchor="middle" x="74.5" y="-7.2" font-family="Helvetica,sans-Serif" font-size="11.00">Generated by SchemaSpy</text>
<!-- compliance_details -->
<g id="node1" class="node"><title>compliance_details</title>
<g id="a_node1"><a xlink:href="../../tables/compliance_details.html" xlink:title="compliance_details" target="_top">
<polygon fill="#ffffff" stroke="none" points="429.5,-314 429.5,-372 587.5,-372 587.5,-314 429.5,-314"/>
<polygon fill="#f5f5f5" stroke="none" points="429.5,-350 429.5,-372 587.5,-372 587.5,-350 429.5,-350"/>
<polygon fill="none" stroke="black" points="429.5,-350 429.5,-372 587.5,-372 587.5,-350 429.5,-350"/>
<text text-anchor="start" x="434.5" y="-359.2" font-family="Helvetica,sans-Serif" font-weight="bold" font-size="11.00">compliance_details</text>
<text text-anchor="start" x="548.5" y="-358.2" font-family="Helvetica,sans-Serif" font-size="11.00">[table]</text>
<polygon fill="none" stroke="black" points="429.5,-332 429.5,-350 587.5,-350 587.5,-332 429.5,-332"/>
<text text-anchor="start" x="432.5" y="-338.2" font-family="Helvetica,sans-Serif" font-size="11.00">...</text>
<polygon fill="#ffffff" stroke="none" points="429.5,-314 429.5,-332 506.5,-332 506.5,-314 429.5,-314"/>
<polygon fill="none" stroke="black" points="429.5,-314 429.5,-332 506.5,-332 506.5,-314 429.5,-314"/>
<text text-anchor="start" x="432.5" y="-320.2" font-family="Helvetica,sans-Serif" font-size="11.00">&lt; 3</text>
<polygon fill="#ffffff" stroke="none" points="506.5,-314 506.5,-332 546.5,-332 546.5,-314 506.5,-314"/>
<polygon fill="none" stroke="black" points="506.5,-314 506.5,-332 546.5,-332 546.5,-314 506.5,-314"/>
<text text-anchor="start" x="536.5" y="-320.2" font-family="Helvetica,sans-Serif" font-size="11.00"> &#160;</text>
<polygon fill="#ffffff" stroke="none" points="546.5,-314 546.5,-332 587.5,-332 587.5,-314 546.5,-314"/>
<polygon fill="none" stroke="black" points="546.5,-314 546.5,-332 587.5,-332 587.5,-314 546.5,-314"/>
<text text-anchor="start" x="577.5" y="-320.2" font-family="Helvetica,sans-Serif" font-size="11.00"> &#160;</text>
</a>
</g>
</g>
<!-- conditions -->
<g id="node2" class="node"><title>conditions</title>
<g id="a_node2"><a xlink:href="../../tables/conditions.html" xlink:title="conditions" target="_top">
<polygon fill="#ffffff" stroke="none" points="204,-222 204,-346 313,-346 313,-222 204,-222"/>
<polygon fill="#f5f5f5" stroke="none" points="204.5,-324 204.5,-346 313.5,-346 313.5,-324 204.5,-324"/>
<polygon fill="none" stroke="black" points="204.5,-324 204.5,-346 313.5,-346 313.5,-324 204.5,-324"/>
<text text-anchor="start" x="209.5" y="-333.2" font-family="Helvetica,sans-Serif" font-weight="bold" font-size="11.00">conditions</text>
<text text-anchor="start" x="274.5" y="-332.2" font-family="Helvetica,sans-Serif" font-size="11.00">[table]</text>
<polygon fill="none" stroke="black" points="204.5,-302 204.5,-324 313.5,-324 313.5,-302 204.5,-302"/>
<image xlink:href="../../images/primaryKeys.png" width="11px" height="12px" preserveAspectRatio="xMinYMin meet" x="209.5" y="-319"/>
<text text-anchor="start" x="225.5" y="-310.2" font-family="Helvetica,sans-Serif" font-size="11.00">id</text>
<polygon fill="#ffffff" stroke="none" points="204.5,-280 204.5,-302 313.5,-302 313.5,-280 204.5,-280"/>
<polygon fill="none" stroke="black" points="204.5,-280 204.5,-302 313.5,-302 313.5,-280 204.5,-280"/>
<text text-anchor="start" x="225.5" y="-288.2" font-family="Helvetica,sans-Serif" font-size="11.00">guid</text>
<polygon fill="#ffffff" stroke="none" points="204.5,-258 204.5,-280 313.5,-280 313.5,-258 204.5,-258"/>
<polygon fill="none" stroke="black" points="204.5,-258 204.5,-280 313.5,-280 313.5,-258 204.5,-258"/>
<image xlink:href="../../images/foreignKeys.png" width="11px" height="12px" preserveAspectRatio="xMinYMin meet" x="209.5" y="-275"/>
<text text-anchor="start" x="225.5" y="-266.2" font-family="Helvetica,sans-Serif" font-size="11.00">miq_policy_id</text>
<polygon fill="none" stroke="black" points="204.5,-240 204.5,-258 313.5,-258 313.5,-240 204.5,-240"/>
<text text-anchor="start" x="207.5" y="-246.2" font-family="Helvetica,sans-Serif" font-size="11.00">...</text>
<polygon fill="#ffffff" stroke="none" points="204.5,-222 204.5,-240 252.5,-240 252.5,-222 204.5,-222"/>
<polygon fill="none" stroke="black" points="204.5,-222 204.5,-240 252.5,-240 252.5,-222 204.5,-222"/>
<text text-anchor="start" x="207.5" y="-228.2" font-family="Helvetica,sans-Serif" font-size="11.00">&lt; 1</text>
<polygon fill="#ffffff" stroke="none" points="252.5,-222 252.5,-240 277.5,-240 277.5,-222 252.5,-222"/>
<polygon fill="none" stroke="black" points="252.5,-222 252.5,-240 277.5,-240 277.5,-222 252.5,-222"/>
<text text-anchor="start" x="267.5" y="-228.2" font-family="Helvetica,sans-Serif" font-size="11.00"> &#160;</text>
<polygon fill="#ffffff" stroke="none" points="277.5,-222 277.5,-240 313.5,-240 313.5,-222 277.5,-222"/>
<polygon fill="none" stroke="black" points="277.5,-222 277.5,-240 313.5,-240 313.5,-222 277.5,-222"/>
<text text-anchor="start" x="293.5" y="-228.2" font-family="Helvetica,sans-Serif" font-size="11.00">2 &gt;</text>
</a>
</g>
</g>
<!-- compliance_details&#45;&gt;conditions -->
<g id="edge1" class="edge"><title>compliance_details:elipses:w&#45;&gt;conditions:id:e</title>
<path fill="none" stroke="black" d="M414.091,-340.222C373.982,-335.7 361.476,-313 314.5,-313"/>
<polygon fill="black" stroke="black" points="420.512,-340.569 428.306,-344.595 424.506,-340.784 428.5,-341 428.5,-341 428.5,-341 424.506,-340.784 428.694,-337.405 420.512,-340.569 420.512,-340.569"/>
<ellipse fill="none" stroke="black" cx="417.316" cy="-340.396" rx="3.2" ry="3.2"/>
</g>
<!-- miq_policies -->
<g id="node3" class="node"><title>miq_policies</title>
<g id="a_node3"><a xlink:href="../../tables/miq_policies.html" xlink:title="miq_policies" target="_top">
<polygon fill="#ffffff" stroke="none" points="8,-151 8,-231 127,-231 127,-151 8,-151"/>
<polygon fill="#f5f5f5" stroke="none" points="8.5,-209 8.5,-231 127.5,-231 127.5,-209 8.5,-209"/>
<polygon fill="none" stroke="black" points="8.5,-209 8.5,-231 127.5,-231 127.5,-209 8.5,-209"/>
<text text-anchor="start" x="13.5" y="-218.2" font-family="Helvetica,sans-Serif" font-weight="bold" font-size="11.00">miq_policies</text>
<text text-anchor="start" x="88.5" y="-217.2" font-family="Helvetica,sans-Serif" font-size="11.00">[table]</text>
<polygon fill="none" stroke="black" points="8.5,-187 8.5,-209 127.5,-209 127.5,-187 8.5,-187"/>
<image xlink:href="../../images/primaryKeys.png" width="11px" height="12px" preserveAspectRatio="xMinYMin meet" x="13.5" y="-204"/>
<text text-anchor="start" x="41.5" y="-195.2" font-family="Helvetica,sans-Serif" font-size="11.00">id</text>
<polygon fill="none" stroke="black" points="8.5,-169 8.5,-187 127.5,-187 127.5,-169 8.5,-169"/>
<text text-anchor="start" x="11.5" y="-175.2" font-family="Helvetica,sans-Serif" font-size="11.00">...</text>
<polygon fill="#ffffff" stroke="none" points="8.5,-151 8.5,-169 56.5,-169 56.5,-151 8.5,-151"/>
<polygon fill="none" stroke="black" points="8.5,-151 8.5,-169 56.5,-169 56.5,-151 8.5,-151"/>
<text text-anchor="start" x="11.5" y="-157.2" font-family="Helvetica,sans-Serif" font-size="11.00"> &#160;</text>
<polygon fill="#ffffff" stroke="none" points="56.5,-151 56.5,-169 86.5,-169 86.5,-151 56.5,-151"/>
<polygon fill="none" stroke="black" points="56.5,-151 56.5,-169 86.5,-169 86.5,-151 56.5,-151"/>
<text text-anchor="start" x="76.5" y="-157.2" font-family="Helvetica,sans-Serif" font-size="11.00"> &#160;</text>
<polygon fill="#ffffff" stroke="none" points="86.5,-151 86.5,-169 127.5,-169 127.5,-151 86.5,-151"/>
<polygon fill="none" stroke="black" points="86.5,-151 86.5,-169 127.5,-169 127.5,-151 86.5,-151"/>
<text text-anchor="start" x="107.5" y="-157.2" font-family="Helvetica,sans-Serif" font-size="11.00">5 &gt;</text>
</a>
</g>
</g>
<!-- compliance_details&#45;&gt;miq_policies -->
<g id="edge2" class="edge"><title>compliance_details:elipses:w&#45;&gt;miq_policies:id:e</title>
<path fill="none" stroke="black" d="M413.808,-341.79C389.488,-344.581 379.401,-353.971 349,-357 268.952,-364.975 231.37,-406.553 168,-357 110.64,-312.146 201.315,-198 128.5,-198"/>
<polygon fill="black" stroke="black" points="420.512,-341.43 428.693,-344.595 424.506,-341.215 428.5,-341 428.5,-341 428.5,-341 424.506,-341.215 428.307,-337.405 420.512,-341.43 420.512,-341.43"/>
<ellipse fill="none" stroke="black" cx="417.316" cy="-341.601" rx="3.2" ry="3.2"/>
</g>
<!-- conditions&#45;&gt;miq_policies -->
<g id="edge3" class="edge"><title>conditions:miq_policy_id:w&#45;&gt;miq_policies:id:e</title>
<path fill="none" stroke="black" d="M189.361,-266.129C160.749,-252.846 168.842,-198 128.5,-198"/>
<polygon fill="black" stroke="black" points="195.66,-267.408 202.784,-272.528 199.58,-268.204 203.5,-269 203.5,-269 203.5,-269 199.58,-268.204 204.216,-265.472 195.66,-267.408 195.66,-267.408"/>
<ellipse fill="none" stroke="black" cx="192.524" cy="-266.771" rx="3.2" ry="3.2"/>
</g>
<!-- conditions_miq_policies -->
<g id="node4" class="node"><title>conditions_miq_policies</title>
<g id="a_node4"><a xlink:href="../../tables/conditions_miq_policies.html" xlink:title="conditions_miq_policies" target="_top">
<polygon fill="#ffffff" stroke="none" points="390,-178 390,-288 627,-288 627,-178 390,-178"/>
<polygon fill="#f5f5f5" stroke="none" points="392.5,-264 392.5,-286 625.5,-286 625.5,-264 392.5,-264"/>
<polygon fill="none" stroke="black" points="392.5,-264 392.5,-286 625.5,-286 625.5,-264 392.5,-264"/>
<text text-anchor="start" x="397.5" y="-273.2" font-family="Helvetica,sans-Serif" font-weight="bold" font-size="11.00">conditions_miq_policies</text>
<text text-anchor="start" x="586.5" y="-272.2" font-family="Helvetica,sans-Serif" font-size="11.00">[table]</text>
<polygon fill="none" stroke="black" points="392.5,-242 392.5,-264 554.5,-264 554.5,-242 392.5,-242"/>
<image xlink:href="../../images/primaryKeys.png" width="11px" height="12px" preserveAspectRatio="xMinYMin meet" x="397.5" y="-259"/>
<text text-anchor="start" x="412.5" y="-250.2" font-family="Helvetica,sans-Serif" font-size="11.00">id</text>
<polygon fill="none" stroke="black" points="554.5,-242 554.5,-264 625.5,-264 625.5,-242 554.5,-242"/>
<text text-anchor="start" x="557.5" y="-250.2" font-family="Helvetica,sans-Serif" font-size="11.00">bigserial[19]</text>
<polygon fill="none" stroke="black" points="392.5,-220 392.5,-242 554.5,-242 554.5,-220 392.5,-220"/>
<image xlink:href="../../images/foreignKeys.png" width="11px" height="12px" preserveAspectRatio="xMinYMin meet" x="397.5" y="-237"/>
<text text-anchor="start" x="412.5" y="-228.2" font-family="Helvetica,sans-Serif" font-size="11.00">miq_policy_id</text>
<polygon fill="none" stroke="black" points="554.5,-220 554.5,-242 625.5,-242 625.5,-220 554.5,-220"/>
<text text-anchor="start" x="557.5" y="-228.2" font-family="Helvetica,sans-Serif" font-size="11.00">int8[19]</text>
<polygon fill="none" stroke="black" points="392.5,-198 392.5,-220 554.5,-220 554.5,-198 392.5,-198"/>
<image xlink:href="../../images/foreignKeys.png" width="11px" height="12px" preserveAspectRatio="xMinYMin meet" x="397.5" y="-215"/>
<text text-anchor="start" x="412.5" y="-206.2" font-family="Helvetica,sans-Serif" font-size="11.00">condition_id</text>
<polygon fill="none" stroke="black" points="554.5,-198 554.5,-220 625.5,-220 625.5,-198 554.5,-198"/>
<text text-anchor="start" x="557.5" y="-206.2" font-family="Helvetica,sans-Serif" font-size="11.00">int8[19]</text>
<polygon fill="#ffffff" stroke="none" points="392.5,-180 392.5,-198 478.5,-198 478.5,-180 392.5,-180"/>
<polygon fill="none" stroke="black" points="392.5,-180 392.5,-198 478.5,-198 478.5,-180 392.5,-180"/>
<text text-anchor="start" x="395.5" y="-186.2" font-family="Helvetica,sans-Serif" font-size="11.00">&lt; 2</text>
<polygon fill="#ffffff" stroke="none" points="478.5,-180 478.5,-198 554.5,-198 554.5,-180 478.5,-180"/>
<polygon fill="none" stroke="black" points="478.5,-180 478.5,-198 554.5,-198 554.5,-180 478.5,-180"/>
<text text-anchor="start" x="544.5" y="-186.2" font-family="Helvetica,sans-Serif" font-size="11.00"> &#160;</text>
<polygon fill="#ffffff" stroke="none" points="554.5,-180 554.5,-198 625.5,-198 625.5,-180 554.5,-180"/>
<polygon fill="none" stroke="black" points="554.5,-180 554.5,-198 625.5,-198 625.5,-180 554.5,-180"/>
<text text-anchor="start" x="605.5" y="-186.2" font-family="Helvetica,sans-Serif" font-size="11.00">0 &gt;</text>
<polygon fill="none" stroke="black" stroke-width="2" points="391,-179 391,-287 626,-287 626,-179 391,-179"/>
</a>
</g>
</g>
<!-- conditions_miq_policies&#45;&gt;conditions -->
<g id="edge4" class="edge"><title>conditions_miq_policies:condition_id:w&#45;&gt;conditions:id:e</title>
<path fill="none" stroke="black" d="M377.206,-211.782C340.503,-228.321 366.396,-313 314.5,-313"/>
<polygon fill="black" stroke="black" points="383.647,-210.528 392.188,-212.534 387.574,-209.764 391.5,-209 391.5,-209 391.5,-209 387.574,-209.764 390.812,-205.466 383.647,-210.528 383.647,-210.528"/>
<ellipse fill="none" stroke="black" cx="380.506" cy="-211.14" rx="3.2" ry="3.2"/>
</g>
<!-- conditions_miq_policies&#45;&gt;miq_policies -->
<g id="edge5" class="edge"><title>conditions_miq_policies:miq_policy_id:w&#45;&gt;miq_policies:id:e</title>
<path fill="none" stroke="black" d="M377.111,-227.892C368.169,-223.463 363.124,-215.485 349,-212 253.662,-188.476 226.697,-198 128.5,-198"/>
<polygon fill="black" stroke="black" points="383.68,-229.311 390.74,-234.519 387.59,-230.155 391.5,-231 391.5,-231 391.5,-231 387.59,-230.155 392.26,-227.481 383.68,-229.311 383.68,-229.311"/>
<ellipse fill="none" stroke="black" cx="380.552" cy="-228.635" rx="3.2" ry="3.2"/>
</g>
<!-- miq_policy_contents -->
<g id="node5" class="node"><title>miq_policy_contents</title>
<g id="a_node5"><a xlink:href="../../tables/miq_policy_contents.html" xlink:title="miq_policy_contents" target="_top">
<polygon fill="#ffffff" stroke="none" points="176,-116 176,-174 341,-174 341,-116 176,-116"/>
<polygon fill="#f5f5f5" stroke="none" points="176.5,-152 176.5,-174 341.5,-174 341.5,-152 176.5,-152"/>
<polygon fill="none" stroke="black" points="176.5,-152 176.5,-174 341.5,-174 341.5,-152 176.5,-152"/>
<text text-anchor="start" x="181.5" y="-161.2" font-family="Helvetica,sans-Serif" font-weight="bold" font-size="11.00">miq_policy_contents</text>
<text text-anchor="start" x="302.5" y="-160.2" font-family="Helvetica,sans-Serif" font-size="11.00">[table]</text>
<polygon fill="none" stroke="black" points="176.5,-134 176.5,-152 341.5,-152 341.5,-134 176.5,-134"/>
<text text-anchor="start" x="179.5" y="-140.2" font-family="Helvetica,sans-Serif" font-size="11.00">...</text>
<polygon fill="#ffffff" stroke="none" points="176.5,-116 176.5,-134 257.5,-134 257.5,-116 176.5,-116"/>
<polygon fill="none" stroke="black" points="176.5,-116 176.5,-134 257.5,-134 257.5,-116 176.5,-116"/>
<text text-anchor="start" x="179.5" y="-122.2" font-family="Helvetica,sans-Serif" font-size="11.00">&lt; 3</text>
<polygon fill="#ffffff" stroke="none" points="257.5,-116 257.5,-134 299.5,-134 299.5,-116 257.5,-116"/>
<polygon fill="none" stroke="black" points="257.5,-116 257.5,-134 299.5,-134 299.5,-116 257.5,-116"/>
<text text-anchor="start" x="289.5" y="-122.2" font-family="Helvetica,sans-Serif" font-size="11.00"> &#160;</text>
<polygon fill="#ffffff" stroke="none" points="299.5,-116 299.5,-134 341.5,-134 341.5,-116 299.5,-116"/>
<polygon fill="none" stroke="black" points="299.5,-116 299.5,-134 341.5,-134 341.5,-116 299.5,-116"/>
<text text-anchor="start" x="331.5" y="-122.2" font-family="Helvetica,sans-Serif" font-size="11.00"> &#160;</text>
</a>
</g>
</g>
<!-- miq_policy_contents&#45;&gt;miq_policies -->
<g id="edge6" class="edge"><title>miq_policy_contents:elipses:w&#45;&gt;miq_policies:id:e</title>
<path fill="none" stroke="black" d="M161.978,-148.076C148.098,-161.691 154.625,-198 128.5,-198"/>
<polygon fill="black" stroke="black" points="168.01,-145.811 176.765,-146.37 171.755,-144.406 175.5,-143 175.5,-143 175.5,-143 171.755,-144.406 174.235,-139.63 168.01,-145.811 168.01,-145.811"/>
<ellipse fill="none" stroke="black" cx="165.014" cy="-146.936" rx="3.20001" ry="3.20001"/>
</g>
<!-- policy_events -->
<g id="node6" class="node"><title>policy_events</title>
<g id="a_node6"><a xlink:href="../../tables/policy_events.html" xlink:title="policy_events" target="_top">
<polygon fill="#ffffff" stroke="none" points="195.5,-37 195.5,-95 321.5,-95 321.5,-37 195.5,-37"/>
<polygon fill="#f5f5f5" stroke="none" points="195.5,-73 195.5,-95 321.5,-95 321.5,-73 195.5,-73"/>
<polygon fill="none" stroke="black" points="195.5,-73 195.5,-95 321.5,-95 321.5,-73 195.5,-73"/>
<text text-anchor="start" x="200.5" y="-82.2" font-family="Helvetica,sans-Serif" font-weight="bold" font-size="11.00">policy_events</text>
<text text-anchor="start" x="282.5" y="-81.2" font-family="Helvetica,sans-Serif" font-size="11.00">[table]</text>
<polygon fill="none" stroke="black" points="195.5,-55 195.5,-73 321.5,-73 321.5,-55 195.5,-55"/>
<text text-anchor="start" x="198.5" y="-61.2" font-family="Helvetica,sans-Serif" font-size="11.00">...</text>
<polygon fill="#ffffff" stroke="none" points="195.5,-37 195.5,-55 251.5,-55 251.5,-37 195.5,-37"/>
<polygon fill="none" stroke="black" points="195.5,-37 195.5,-55 251.5,-55 251.5,-37 195.5,-37"/>
<text text-anchor="start" x="198.5" y="-43.2" font-family="Helvetica,sans-Serif" font-size="11.00">&lt; 4</text>
<polygon fill="#ffffff" stroke="none" points="251.5,-37 251.5,-55 281.5,-55 281.5,-37 251.5,-37"/>
<polygon fill="none" stroke="black" points="251.5,-37 251.5,-55 281.5,-55 281.5,-37 251.5,-37"/>
<text text-anchor="start" x="271.5" y="-43.2" font-family="Helvetica,sans-Serif" font-size="11.00"> &#160;</text>
<polygon fill="#ffffff" stroke="none" points="281.5,-37 281.5,-55 321.5,-55 321.5,-37 281.5,-37"/>
<polygon fill="none" stroke="black" points="281.5,-37 281.5,-55 321.5,-55 321.5,-37 281.5,-37"/>
<text text-anchor="start" x="301.5" y="-43.2" font-family="Helvetica,sans-Serif" font-size="11.00">1 &gt;</text>
</a>
</g>
</g>
<!-- policy_events&#45;&gt;miq_policies -->
<g id="edge7" class="edge"><title>policy_events:elipses:w&#45;&gt;miq_policies:id:e</title>
<path fill="none" stroke="black" d="M180.166,-66.7988C138.606,-86.0416 189.182,-198 128.5,-198"/>
<polygon fill="black" stroke="black" points="186.648,-65.5331 195.19,-67.5333 190.574,-64.7666 194.5,-64 194.5,-64 194.5,-64 190.574,-64.7666 193.81,-60.4667 186.648,-65.5331 186.648,-65.5331"/>
<ellipse fill="none" stroke="black" cx="183.508" cy="-66.1463" rx="3.2" ry="3.2"/>
</g>
</g>
</svg>
