<?xml version="1.0" encoding="UTF-8" standalone="no"?>
<!DOCTYPE svg PUBLIC "-//W3C//DTD SVG 1.1//EN"
 "http://www.w3.org/Graphics/SVG/1.1/DTD/svg11.dtd">
<!-- Generated by graphviz version 2.38.0 (20140413.2041)
 -->
<!-- Title: oneDegreeRelationshipsDiagram Pages: 1 -->
<svg width="657pt" height="535pt"
 viewBox="0.00 0.00 657.00 535.22" xmlns="http://www.w3.org/2000/svg" xmlns:xlink="http://www.w3.org/1999/xlink">
<g id="graph0" class="graph" transform="scale(1 1) rotate(0) translate(4 531.224)">
<title>oneDegreeRelationshipsDiagram</title>
<polygon fill="#ffffff" stroke="none" points="-4,4 -4,-531.224 653,-531.224 653,4 -4,4"/>
<text text-anchor="middle" x="74.5" y="-7.2" font-family="Helvetica,sans-Serif" font-size="11.00">Generated by SchemaSpy</text>
<!-- compliance_details -->
<g id="node1" class="node"><title>compliance_details</title>
<g id="a_node1"><a xlink:href="../../tables/compliance_details.html" xlink:title="compliance_details" target="_top">
<polygon fill="#ffffff" stroke="none" points="470,-377.224 470,-523.224 628,-523.224 628,-377.224 470,-377.224"/>
<polygon fill="#f5f5f5" stroke="none" points="470,-501.224 470,-523.224 628,-523.224 628,-501.224 470,-501.224"/>
<polygon fill="none" stroke="black" points="470,-501.224 470,-523.224 628,-523.224 628,-501.224 470,-501.224"/>
<text text-anchor="start" x="475" y="-510.424" font-family="Helvetica,sans-Serif" font-weight="bold" font-size="11.00">compliance_details</text>
<text text-anchor="start" x="589" y="-509.424" font-family="Helvetica,sans-Serif" font-size="11.00">[table]</text>
<polygon fill="none" stroke="black" points="470,-479.224 470,-501.224 628,-501.224 628,-479.224 470,-479.224"/>
<image xlink:href="../../images/primaryKeys.png" width="11px" height="12px" preserveAspectRatio="xMinYMin meet" x="475" y="-496.224"/>
<text text-anchor="start" x="502" y="-487.424" font-family="Helvetica,sans-Serif" font-size="11.00">id</text>
<polygon fill="#ffffff" stroke="none" points="470,-457.224 470,-479.224 628,-479.224 628,-457.224 470,-457.224"/>
<polygon fill="none" stroke="black" points="470,-457.224 470,-479.224 628,-479.224 628,-457.224 470,-457.224"/>
<image xlink:href="../../images/foreignKeys.png" width="11px" height="12px" preserveAspectRatio="xMinYMin meet" x="475" y="-474.224"/>
<text text-anchor="start" x="502" y="-465.424" font-family="Helvetica,sans-Serif" font-size="11.00">compliance_id</text>
<polygon fill="#ffffff" stroke="none" points="470,-435.224 470,-457.224 628,-457.224 628,-435.224 470,-435.224"/>
<polygon fill="none" stroke="black" points="470,-435.224 470,-457.224 628,-457.224 628,-435.224 470,-435.224"/>
<image xlink:href="../../images/foreignKeys.png" width="11px" height="12px" preserveAspectRatio="xMinYMin meet" x="475" y="-452.224"/>
<text text-anchor="start" x="502" y="-443.424" font-family="Helvetica,sans-Serif" font-size="11.00">miq_policy_id</text>
<polygon fill="#ffffff" stroke="none" points="470,-413.224 470,-435.224 628,-435.224 628,-413.224 470,-413.224"/>
<polygon fill="none" stroke="black" points="470,-413.224 470,-435.224 628,-435.224 628,-413.224 470,-413.224"/>
<image xlink:href="../../images/foreignKeys.png" width="11px" height="12px" preserveAspectRatio="xMinYMin meet" x="475" y="-430.224"/>
<text text-anchor="start" x="502" y="-421.424" font-family="Helvetica,sans-Serif" font-size="11.00">condition_id</text>
<polygon fill="none" stroke="black" points="470,-395.224 470,-413.224 628,-413.224 628,-395.224 470,-395.224"/>
<text text-anchor="start" x="473" y="-401.424" font-family="Helvetica,sans-Serif" font-size="11.00">...</text>
<polygon fill="#ffffff" stroke="none" points="470,-377.224 470,-395.224 547,-395.224 547,-377.224 470,-377.224"/>
<polygon fill="none" stroke="black" points="470,-377.224 470,-395.224 547,-395.224 547,-377.224 470,-377.224"/>
<text text-anchor="start" x="473" y="-383.424" font-family="Helvetica,sans-Serif" font-size="11.00">&lt; 3</text>
<polygon fill="#ffffff" stroke="none" points="547,-377.224 547,-395.224 587,-395.224 587,-377.224 547,-377.224"/>
<polygon fill="none" stroke="black" points="547,-377.224 547,-395.224 587,-395.224 587,-377.224 547,-377.224"/>
<text text-anchor="start" x="577" y="-383.424" font-family="Helvetica,sans-Serif" font-size="11.00"> &#160;</text>
<polygon fill="#ffffff" stroke="none" points="587,-377.224 587,-395.224 628,-395.224 628,-377.224 587,-377.224"/>
<polygon fill="none" stroke="black" points="587,-377.224 587,-395.224 628,-395.224 628,-377.224 587,-377.224"/>
<text text-anchor="start" x="618" y="-383.424" font-family="Helvetica,sans-Serif" font-size="11.00"> &#160;</text>
</a>
</g>
</g>
<!-- conditions -->
<g id="node2" class="node"><title>conditions</title>
<g id="a_node2"><a xlink:href="../../tables/conditions.html" xlink:title="conditions" target="_top">
<polygon fill="#ffffff" stroke="none" points="176,-89.2242 176,-441.224 408,-441.224 408,-89.2242 176,-89.2242"/>
<polygon fill="#f5f5f5" stroke="none" points="178,-417.224 178,-439.224 406,-439.224 406,-417.224 178,-417.224"/>
<polygon fill="none" stroke="black" points="178,-417.224 178,-439.224 406,-439.224 406,-417.224 178,-417.224"/>
<text text-anchor="start" x="183" y="-426.424" font-family="Helvetica,sans-Serif" font-weight="bold" font-size="11.00">conditions</text>
<text text-anchor="start" x="367" y="-425.424" font-family="Helvetica,sans-Serif" font-size="11.00">[table]</text>
<polygon fill="none" stroke="black" points="178,-395.224 178,-417.224 285,-417.224 285,-395.224 178,-395.224"/>
<image xlink:href="../../images/primaryKeys.png" width="11px" height="12px" preserveAspectRatio="xMinYMin meet" x="183" y="-412.224"/>
<text text-anchor="start" x="198" y="-403.424" font-family="Helvetica,sans-Serif" font-size="11.00">id</text>
<polygon fill="none" stroke="black" points="285,-395.224 285,-417.224 406,-417.224 406,-395.224 285,-395.224"/>
<text text-anchor="start" x="288" y="-403.424" font-family="Helvetica,sans-Serif" font-size="11.00">bigserial[19]</text>
<polygon fill="none" stroke="black" points="178,-373.224 178,-395.224 285,-395.224 285,-373.224 178,-373.224"/>
<text text-anchor="start" x="198" y="-381.424" font-family="Helvetica,sans-Serif" font-size="11.00">name</text>
<polygon fill="none" stroke="black" points="285,-373.224 285,-395.224 406,-395.224 406,-373.224 285,-373.224"/>
<text text-anchor="start" x="288" y="-381.424" font-family="Helvetica,sans-Serif" font-size="11.00">varchar[2147483647]</text>
<polygon fill="none" stroke="black" points="178,-351.224 178,-373.224 285,-373.224 285,-351.224 178,-351.224"/>
<text text-anchor="start" x="198" y="-359.424" font-family="Helvetica,sans-Serif" font-size="11.00">description</text>
<polygon fill="none" stroke="black" points="285,-351.224 285,-373.224 406,-373.224 406,-351.224 285,-351.224"/>
<text text-anchor="start" x="288" y="-359.424" font-family="Helvetica,sans-Serif" font-size="11.00">varchar[2147483647]</text>
<polygon fill="none" stroke="black" points="178,-329.224 178,-351.224 285,-351.224 285,-329.224 178,-329.224"/>
<text text-anchor="start" x="198" y="-337.424" font-family="Helvetica,sans-Serif" font-size="11.00">expression</text>
<polygon fill="none" stroke="black" points="285,-329.224 285,-351.224 406,-351.224 406,-329.224 285,-329.224"/>
<text text-anchor="start" x="288" y="-337.424" font-family="Helvetica,sans-Serif" font-size="11.00">text[2147483647]</text>
<polygon fill="none" stroke="black" points="178,-307.224 178,-329.224 285,-329.224 285,-307.224 178,-307.224"/>
<text text-anchor="start" x="198" y="-315.424" font-family="Helvetica,sans-Serif" font-size="11.00">towhat</text>
<polygon fill="none" stroke="black" points="285,-307.224 285,-329.224 406,-329.224 406,-307.224 285,-307.224"/>
<text text-anchor="start" x="288" y="-315.424" font-family="Helvetica,sans-Serif" font-size="11.00">varchar[2147483647]</text>
<polygon fill="none" stroke="black" points="178,-285.224 178,-307.224 285,-307.224 285,-285.224 178,-285.224"/>
<text text-anchor="start" x="198" y="-293.424" font-family="Helvetica,sans-Serif" font-size="11.00">file_mtime</text>
<polygon fill="none" stroke="black" points="285,-285.224 285,-307.224 406,-307.224 406,-285.224 285,-285.224"/>
<text text-anchor="start" x="288" y="-293.424" font-family="Helvetica,sans-Serif" font-size="11.00">timestamp[29,6]</text>
<polygon fill="none" stroke="black" points="178,-263.224 178,-285.224 285,-285.224 285,-263.224 178,-263.224"/>
<text text-anchor="start" x="198" y="-271.424" font-family="Helvetica,sans-Serif" font-size="11.00">created_on</text>
<polygon fill="none" stroke="black" points="285,-263.224 285,-285.224 406,-285.224 406,-263.224 285,-263.224"/>
<text text-anchor="start" x="288" y="-271.424" font-family="Helvetica,sans-Serif" font-size="11.00">timestamp[29,6]</text>
<polygon fill="none" stroke="black" points="178,-241.224 178,-263.224 285,-263.224 285,-241.224 178,-241.224"/>
<text text-anchor="start" x="198" y="-249.424" font-family="Helvetica,sans-Serif" font-size="11.00">updated_on</text>
<polygon fill="none" stroke="black" points="285,-241.224 285,-263.224 406,-263.224 406,-241.224 285,-241.224"/>
<text text-anchor="start" x="288" y="-249.424" font-family="Helvetica,sans-Serif" font-size="11.00">timestamp[29,6]</text>
<polygon fill="#ffffff" stroke="none" points="178,-219.224 178,-241.224 285,-241.224 285,-219.224 178,-219.224"/>
<polygon fill="none" stroke="black" points="178,-219.224 178,-241.224 285,-241.224 285,-219.224 178,-219.224"/>
<text text-anchor="start" x="198" y="-227.424" font-family="Helvetica,sans-Serif" font-size="11.00">guid</text>
<polygon fill="none" stroke="black" points="285,-219.224 285,-241.224 406,-241.224 406,-219.224 285,-219.224"/>
<text text-anchor="start" x="288" y="-227.424" font-family="Helvetica,sans-Serif" font-size="11.00">varchar[2147483647]</text>
<polygon fill="none" stroke="black" points="178,-197.224 178,-219.224 285,-219.224 285,-197.224 178,-197.224"/>
<text text-anchor="start" x="198" y="-205.424" font-family="Helvetica,sans-Serif" font-size="11.00">filename</text>
<polygon fill="none" stroke="black" points="285,-197.224 285,-219.224 406,-219.224 406,-197.224 285,-197.224"/>
<text text-anchor="start" x="288" y="-205.424" font-family="Helvetica,sans-Serif" font-size="11.00">varchar[2147483647]</text>
<polygon fill="none" stroke="black" points="178,-175.224 178,-197.224 285,-197.224 285,-175.224 178,-175.224"/>
<text text-anchor="start" x="198" y="-183.424" font-family="Helvetica,sans-Serif" font-size="11.00">applies_to_exp</text>
<polygon fill="none" stroke="black" points="285,-175.224 285,-197.224 406,-197.224 406,-175.224 285,-175.224"/>
<text text-anchor="start" x="288" y="-183.424" font-family="Helvetica,sans-Serif" font-size="11.00">text[2147483647]</text>
<polygon fill="#ffffff" stroke="none" points="178,-153.224 178,-175.224 285,-175.224 285,-153.224 178,-153.224"/>
<polygon fill="none" stroke="black" points="178,-153.224 178,-175.224 285,-175.224 285,-153.224 178,-153.224"/>
<image xlink:href="../../images/foreignKeys.png" width="11px" height="12px" preserveAspectRatio="xMinYMin meet" x="183" y="-170.224"/>
<text text-anchor="start" x="198" y="-161.424" font-family="Helvetica,sans-Serif" font-size="11.00">miq_policy_id</text>
<polygon fill="none" stroke="black" points="285,-153.224 285,-175.224 406,-175.224 406,-153.224 285,-153.224"/>
<text text-anchor="start" x="288" y="-161.424" font-family="Helvetica,sans-Serif" font-size="11.00">int8[19]</text>
<polygon fill="none" stroke="black" points="178,-131.224 178,-153.224 285,-153.224 285,-131.224 178,-131.224"/>
<text text-anchor="start" x="198" y="-139.424" font-family="Helvetica,sans-Serif" font-size="11.00">notes</text>
<polygon fill="none" stroke="black" points="285,-131.224 285,-153.224 406,-153.224 406,-131.224 285,-131.224"/>
<text text-anchor="start" x="288" y="-139.424" font-family="Helvetica,sans-Serif" font-size="11.00">varchar[2147483647]</text>
<polygon fill="none" stroke="black" points="178,-109.224 178,-131.224 285,-131.224 285,-109.224 178,-109.224"/>
<text text-anchor="start" x="198" y="-117.424" font-family="Helvetica,sans-Serif" font-size="11.00">read_only</text>
<polygon fill="none" stroke="black" points="285,-109.224 285,-131.224 406,-131.224 406,-109.224 285,-109.224"/>
<text text-anchor="start" x="288" y="-117.424" font-family="Helvetica,sans-Serif" font-size="11.00">bool[1]</text>
<polygon fill="#ffffff" stroke="none" points="178,-91.2242 178,-109.224 236,-109.224 236,-91.2242 178,-91.2242"/>
<polygon fill="none" stroke="black" points="178,-91.2242 178,-109.224 236,-109.224 236,-91.2242 178,-91.2242"/>
<text text-anchor="start" x="181" y="-97.4242" font-family="Helvetica,sans-Serif" font-size="11.00">&lt; 1</text>
<polygon fill="#ffffff" stroke="none" points="236,-91.2242 236,-109.224 285,-109.224 285,-91.2242 236,-91.2242"/>
<polygon fill="none" stroke="black" points="236,-91.2242 236,-109.224 285,-109.224 285,-91.2242 236,-91.2242"/>
<text text-anchor="start" x="275" y="-97.4242" font-family="Helvetica,sans-Serif" font-size="11.00"> &#160;</text>
<polygon fill="#ffffff" stroke="none" points="285,-91.2242 285,-109.224 406,-109.224 406,-91.2242 285,-91.2242"/>
<polygon fill="none" stroke="black" points="285,-91.2242 285,-109.224 406,-109.224 406,-91.2242 285,-91.2242"/>
<text text-anchor="start" x="386" y="-97.4242" font-family="Helvetica,sans-Serif" font-size="11.00">2 &gt;</text>
<polygon fill="none" stroke="black" stroke-width="2" points="177,-90.2242 177,-440.224 407,-440.224 407,-90.2242 177,-90.2242"/>
</a>
</g>
</g>
<!-- compliance_details&#45;&gt;conditions -->
<g id="edge1" class="edge"><title>compliance_details:condition_id:w&#45;&gt;conditions:id.type:e</title>
<path fill="none" stroke="black" d="M454.584,-422.432C437.586,-417.88 430.089,-406.224 407,-406.224"/>
<polygon fill="black" stroke="black" points="461.061,-423.237 468.556,-427.797 465.031,-423.731 469,-424.224 469,-424.224 469,-424.224 465.031,-423.731 469.444,-420.652 461.061,-423.237 461.061,-423.237"/>
<ellipse fill="none" stroke="black" cx="457.886" cy="-422.843" rx="3.2" ry="3.2"/>
</g>
<!-- miq_policies -->
<g id="node3" class="node"><title>miq_policies</title>
<g id="a_node3"><a xlink:href="../../tables/miq_policies.html" xlink:title="miq_policies" target="_top">
<polygon fill="#ffffff" stroke="none" points="8,-117.224 8,-197.224 127,-197.224 127,-117.224 8,-117.224"/>
<polygon fill="#f5f5f5" stroke="none" points="8.5,-175.224 8.5,-197.224 127.5,-197.224 127.5,-175.224 8.5,-175.224"/>
<polygon fill="none" stroke="black" points="8.5,-175.224 8.5,-197.224 127.5,-197.224 127.5,-175.224 8.5,-175.224"/>
<text text-anchor="start" x="13.5" y="-184.424" font-family="Helvetica,sans-Serif" font-weight="bold" font-size="11.00">miq_policies</text>
<text text-anchor="start" x="88.5" y="-183.424" font-family="Helvetica,sans-Serif" font-size="11.00">[table]</text>
<polygon fill="none" stroke="black" points="8.5,-153.224 8.5,-175.224 127.5,-175.224 127.5,-153.224 8.5,-153.224"/>
<image xlink:href="../../images/primaryKeys.png" width="11px" height="12px" preserveAspectRatio="xMinYMin meet" x="13.5" y="-170.224"/>
<text text-anchor="start" x="41.5" y="-161.424" font-family="Helvetica,sans-Serif" font-size="11.00">id</text>
<polygon fill="none" stroke="black" points="8.5,-135.224 8.5,-153.224 127.5,-153.224 127.5,-135.224 8.5,-135.224"/>
<text text-anchor="start" x="11.5" y="-141.424" font-family="Helvetica,sans-Serif" font-size="11.00">...</text>
<polygon fill="#ffffff" stroke="none" points="8.5,-117.224 8.5,-135.224 56.5,-135.224 56.5,-117.224 8.5,-117.224"/>
<polygon fill="none" stroke="black" points="8.5,-117.224 8.5,-135.224 56.5,-135.224 56.5,-117.224 8.5,-117.224"/>
<text text-anchor="start" x="11.5" y="-123.424" font-family="Helvetica,sans-Serif" font-size="11.00"> &#160;</text>
<polygon fill="#ffffff" stroke="none" points="56.5,-117.224 56.5,-135.224 86.5,-135.224 86.5,-117.224 56.5,-117.224"/>
<polygon fill="none" stroke="black" points="56.5,-117.224 56.5,-135.224 86.5,-135.224 86.5,-117.224 56.5,-117.224"/>
<text text-anchor="start" x="76.5" y="-123.424" font-family="Helvetica,sans-Serif" font-size="11.00"> &#160;</text>
<polygon fill="#ffffff" stroke="none" points="86.5,-117.224 86.5,-135.224 127.5,-135.224 127.5,-117.224 86.5,-117.224"/>
<polygon fill="none" stroke="black" points="86.5,-117.224 86.5,-135.224 127.5,-135.224 127.5,-117.224 86.5,-117.224"/>
<text text-anchor="start" x="107.5" y="-123.424" font-family="Helvetica,sans-Serif" font-size="11.00">5 &gt;</text>
</a>
</g>
</g>
<!-- compliance_details&#45;&gt;miq_policies -->
<g id="edge2" class="edge"><title>compliance_details:miq_policy_id:w&#45;&gt;miq_policies:id:e</title>
<path fill="none" stroke="black" d="M454.444,-446.931C441.511,-448.288 433.936,-451.212 416,-452.224 305.953,-458.433 251.065,-524.675 168,-452.224 119.317,-409.762 193.099,-164.224 128.5,-164.224"/>
<polygon fill="black" stroke="black" points="461.009,-446.613 469.175,-449.82 465.005,-446.418 469,-446.224 469,-446.224 469,-446.224 465.005,-446.418 468.825,-442.628 461.009,-446.613 461.009,-446.613"/>
<ellipse fill="none" stroke="black" cx="457.813" cy="-446.768" rx="3.2" ry="3.2"/>
</g>
<!-- conditions&#45;&gt;miq_policies -->
<g id="edge3" class="edge"><title>conditions:miq_policy_id:w&#45;&gt;miq_policies:id:e</title>
<path fill="none" stroke="black" d="M162.283,-164.224C151.289,-164.224 144.161,-164.224 128.5,-164.224"/>
<polygon fill="black" stroke="black" points="169,-164.224 177,-167.824 173,-164.224 177,-164.224 177,-164.224 177,-164.224 173,-164.224 177,-160.624 169,-164.224 169,-164.224"/>
<ellipse fill="none" stroke="black" cx="165.8" cy="-164.224" rx="3.2" ry="3.2"/>
</g>
<!-- conditions_miq_policies -->
<g id="node4" class="node"><title>conditions_miq_policies</title>
<g id="a_node4"><a xlink:href="../../tables/conditions_miq_policies.html" xlink:title="conditions_miq_policies" target="_top">
<polygon fill="#ffffff" stroke="none" points="457,-141.224 457,-247.224 641,-247.224 641,-141.224 457,-141.224"/>
<polygon fill="#f5f5f5" stroke="none" points="457,-225.224 457,-247.224 641,-247.224 641,-225.224 457,-225.224"/>
<polygon fill="none" stroke="black" points="457,-225.224 457,-247.224 641,-247.224 641,-225.224 457,-225.224"/>
<text text-anchor="start" x="462" y="-234.424" font-family="Helvetica,sans-Serif" font-weight="bold" font-size="11.00">conditions_miq_policies</text>
<text text-anchor="start" x="602" y="-233.424" font-family="Helvetica,sans-Serif" font-size="11.00">[table]</text>
<polygon fill="none" stroke="black" points="457,-203.224 457,-225.224 641,-225.224 641,-203.224 457,-203.224"/>
<image xlink:href="../../images/primaryKeys.png" width="11px" height="12px" preserveAspectRatio="xMinYMin meet" x="462" y="-220.224"/>
<text text-anchor="start" x="488" y="-211.424" font-family="Helvetica,sans-Serif" font-size="11.00">id</text>
<polygon fill="none" stroke="black" points="457,-181.224 457,-203.224 641,-203.224 641,-181.224 457,-181.224"/>
<image xlink:href="../../images/foreignKeys.png" width="11px" height="12px" preserveAspectRatio="xMinYMin meet" x="462" y="-198.224"/>
<text text-anchor="start" x="488" y="-189.424" font-family="Helvetica,sans-Serif" font-size="11.00">miq_policy_id</text>
<polygon fill="none" stroke="black" points="457,-159.224 457,-181.224 641,-181.224 641,-159.224 457,-159.224"/>
<image xlink:href="../../images/foreignKeys.png" width="11px" height="12px" preserveAspectRatio="xMinYMin meet" x="462" y="-176.224"/>
<text text-anchor="start" x="488" y="-167.424" font-family="Helvetica,sans-Serif" font-size="11.00">condition_id</text>
<polygon fill="#ffffff" stroke="none" points="457,-141.224 457,-159.224 547,-159.224 547,-141.224 457,-141.224"/>
<polygon fill="none" stroke="black" points="457,-141.224 457,-159.224 547,-159.224 547,-141.224 457,-141.224"/>
<text text-anchor="start" x="460" y="-147.424" font-family="Helvetica,sans-Serif" font-size="11.00">&lt; 2</text>
<polygon fill="#ffffff" stroke="none" points="547,-141.224 547,-159.224 594,-159.224 594,-141.224 547,-141.224"/>
<polygon fill="none" stroke="black" points="547,-141.224 547,-159.224 594,-159.224 594,-141.224 547,-141.224"/>
<text text-anchor="start" x="584" y="-147.424" font-family="Helvetica,sans-Serif" font-size="11.00"> &#160;</text>
<polygon fill="#ffffff" stroke="none" points="594,-141.224 594,-159.224 641,-159.224 641,-141.224 594,-141.224"/>
<polygon fill="none" stroke="black" points="594,-141.224 594,-159.224 641,-159.224 641,-141.224 594,-141.224"/>
<text text-anchor="start" x="631" y="-147.424" font-family="Helvetica,sans-Serif" font-size="11.00"> &#160;</text>
</a>
</g>
</g>
<!-- conditions_miq_policies&#45;&gt;conditions -->
<g id="edge4" class="edge"><title>conditions_miq_policies:condition_id:w&#45;&gt;conditions:id.type:e</title>
<path fill="none" stroke="black" d="M441.245,-172.124C365.546,-194.459 508.477,-406.224 407,-406.224"/>
<polygon fill="black" stroke="black" points="448.065,-171.246 456.46,-173.795 452.033,-170.735 456,-170.224 456,-170.224 456,-170.224 452.033,-170.735 455.54,-166.654 448.065,-171.246 448.065,-171.246"/>
<ellipse fill="none" stroke="black" cx="444.892" cy="-171.654" rx="3.2" ry="3.2"/>
</g>
<!-- conditions_miq_policies&#45;&gt;miq_policies -->
<g id="edge5" class="edge"><title>conditions_miq_policies:miq_policy_id:w&#45;&gt;miq_policies:id:e</title>
<path fill="none" stroke="black" d="M441.826,-189.252C414.302,-174.25 454.577,-106.491 416,-79.2242 325.992,-15.6045 260.921,-19.9407 168,-79.2242 132.881,-101.63 170.158,-164.224 128.5,-164.224"/>
<polygon fill="black" stroke="black" points="448.17,-190.582 455.261,-195.748 452.085,-191.403 456,-192.224 456,-192.224 456,-192.224 452.085,-191.403 456.739,-188.701 448.17,-190.582 448.17,-190.582"/>
<ellipse fill="none" stroke="black" cx="445.038" cy="-189.926" rx="3.2" ry="3.2"/>
</g>
</g>
</svg>
