<?xml version="1.0" encoding="UTF-8" standalone="no"?>
<!DOCTYPE svg PUBLIC "-//W3C//DTD SVG 1.1//EN"
 "http://www.w3.org/Graphics/SVG/1.1/DTD/svg11.dtd">
<!-- Generated by graphviz version 2.38.0 (20140413.2041)
 -->
<!-- Title: oneDegreeRelationshipsDiagram Pages: 1 -->
<svg width="1029pt" height="879pt"
 viewBox="0.00 0.00 1029.00 879.00" xmlns="http://www.w3.org/2000/svg" xmlns:xlink="http://www.w3.org/1999/xlink">
<g id="graph0" class="graph" transform="scale(1 1) rotate(0) translate(4 875)">
<title>oneDegreeRelationshipsDiagram</title>
<polygon fill="#ffffff" stroke="none" points="-4,4 -4,-875 1025,-875 1025,4 -4,4"/>
<text text-anchor="middle" x="74.5" y="-7.2" font-family="Helvetica,sans-Serif" font-size="11.00">Generated by SchemaSpy</text>
<!-- configuration_locations_configuration_profiles -->
<g id="node1" class="node"><title>configuration_locations_configuration_profiles</title>
<g id="a_node1"><a xlink:href="../../tables/configuration_locations_configuration_profiles.html" xlink:title="configuration_locations_configuration_profiles" target="_top">
<polygon fill="#ffffff" stroke="none" points="691,-761 691,-867 1001,-867 1001,-761 691,-761"/>
<polygon fill="#f5f5f5" stroke="none" points="691,-845 691,-867 1001,-867 1001,-845 691,-845"/>
<polygon fill="none" stroke="black" points="691,-845 691,-867 1001,-867 1001,-845 691,-845"/>
<text text-anchor="start" x="696" y="-854.2" font-family="Helvetica,sans-Serif" font-weight="bold" font-size="11.00">configuration_locations_configuration_profiles</text>
<text text-anchor="start" x="962" y="-853.2" font-family="Helvetica,sans-Serif" font-size="11.00">[table]</text>
<polygon fill="none" stroke="black" points="691,-823 691,-845 1001,-845 1001,-823 691,-823"/>
<image xlink:href="../../images/primaryKeys.png" width="11px" height="12px" preserveAspectRatio="xMinYMin meet" x="696" y="-840"/>
<text text-anchor="start" x="717" y="-831.2" font-family="Helvetica,sans-Serif" font-size="11.00">id</text>
<polygon fill="#ffffff" stroke="none" points="691,-801 691,-823 1001,-823 1001,-801 691,-801"/>
<polygon fill="none" stroke="black" points="691,-801 691,-823 1001,-823 1001,-801 691,-801"/>
<image xlink:href="../../images/foreignKeys.png" width="11px" height="12px" preserveAspectRatio="xMinYMin meet" x="696" y="-818"/>
<text text-anchor="start" x="717" y="-809.2" font-family="Helvetica,sans-Serif" font-size="11.00">configuration_location_id</text>
<polygon fill="#ffffff" stroke="none" points="691,-779 691,-801 1001,-801 1001,-779 691,-779"/>
<polygon fill="none" stroke="black" points="691,-779 691,-801 1001,-801 1001,-779 691,-779"/>
<image xlink:href="../../images/foreignKeys.png" width="11px" height="12px" preserveAspectRatio="xMinYMin meet" x="696" y="-796"/>
<text text-anchor="start" x="717" y="-787.2" font-family="Helvetica,sans-Serif" font-size="11.00">configuration_profile_id</text>
<polygon fill="#ffffff" stroke="none" points="691,-761 691,-779 844,-779 844,-761 691,-761"/>
<polygon fill="none" stroke="black" points="691,-761 691,-779 844,-779 844,-761 691,-761"/>
<text text-anchor="start" x="694" y="-767.2" font-family="Helvetica,sans-Serif" font-size="11.00">&lt; 2</text>
<polygon fill="#ffffff" stroke="none" points="844,-761 844,-779 922,-779 922,-761 844,-761"/>
<polygon fill="none" stroke="black" points="844,-761 844,-779 922,-779 922,-761 844,-761"/>
<text text-anchor="start" x="912" y="-767.2" font-family="Helvetica,sans-Serif" font-size="11.00"> &#160;</text>
<polygon fill="#ffffff" stroke="none" points="922,-761 922,-779 1001,-779 1001,-761 922,-761"/>
<polygon fill="none" stroke="black" points="922,-761 922,-779 1001,-779 1001,-761 922,-761"/>
<text text-anchor="start" x="991" y="-767.2" font-family="Helvetica,sans-Serif" font-size="11.00"> &#160;</text>
</a>
</g>
</g>
<!-- configuration_profiles -->
<g id="node2" class="node"><title>configuration_profiles</title>
<g id="a_node2"><a xlink:href="../../tables/configuration_profiles.html" xlink:title="configuration_profiles" target="_top">
<polygon fill="#ffffff" stroke="none" points="249,-174 249,-592 630,-592 630,-174 249,-174"/>
<polygon fill="#f5f5f5" stroke="none" points="251.5,-568 251.5,-590 628.5,-590 628.5,-568 251.5,-568"/>
<polygon fill="none" stroke="black" points="251.5,-568 251.5,-590 628.5,-590 628.5,-568 251.5,-568"/>
<text text-anchor="start" x="256.5" y="-577.2" font-family="Helvetica,sans-Serif" font-weight="bold" font-size="11.00">configuration_profiles</text>
<text text-anchor="start" x="589.5" y="-576.2" font-family="Helvetica,sans-Serif" font-size="11.00">[table]</text>
<polygon fill="none" stroke="black" points="251.5,-546 251.5,-568 507.5,-568 507.5,-546 251.5,-546"/>
<image xlink:href="../../images/primaryKeys.png" width="11px" height="12px" preserveAspectRatio="xMinYMin meet" x="256.5" y="-563"/>
<text text-anchor="start" x="271.5" y="-554.2" font-family="Helvetica,sans-Serif" font-size="11.00">id</text>
<polygon fill="none" stroke="black" points="507.5,-546 507.5,-568 628.5,-568 628.5,-546 507.5,-546"/>
<text text-anchor="start" x="510.5" y="-554.2" font-family="Helvetica,sans-Serif" font-size="11.00">bigserial[19]</text>
<polygon fill="#ffffff" stroke="none" points="251.5,-524 251.5,-546 507.5,-546 507.5,-524 251.5,-524"/>
<polygon fill="none" stroke="black" points="251.5,-524 251.5,-546 507.5,-546 507.5,-524 251.5,-524"/>
<text text-anchor="start" x="271.5" y="-532.2" font-family="Helvetica,sans-Serif" font-size="11.00">type</text>
<polygon fill="none" stroke="black" points="507.5,-524 507.5,-546 628.5,-546 628.5,-524 507.5,-524"/>
<text text-anchor="start" x="510.5" y="-532.2" font-family="Helvetica,sans-Serif" font-size="11.00">varchar[2147483647]</text>
<polygon fill="none" stroke="black" points="251.5,-502 251.5,-524 507.5,-524 507.5,-502 251.5,-502"/>
<text text-anchor="start" x="271.5" y="-510.2" font-family="Helvetica,sans-Serif" font-size="11.00">name</text>
<polygon fill="none" stroke="black" points="507.5,-502 507.5,-524 628.5,-524 628.5,-502 507.5,-502"/>
<text text-anchor="start" x="510.5" y="-510.2" font-family="Helvetica,sans-Serif" font-size="11.00">varchar[2147483647]</text>
<polygon fill="none" stroke="black" points="251.5,-480 251.5,-502 507.5,-502 507.5,-480 251.5,-480"/>
<text text-anchor="start" x="271.5" y="-488.2" font-family="Helvetica,sans-Serif" font-size="11.00">description</text>
<polygon fill="none" stroke="black" points="507.5,-480 507.5,-502 628.5,-502 628.5,-480 507.5,-480"/>
<text text-anchor="start" x="510.5" y="-488.2" font-family="Helvetica,sans-Serif" font-size="11.00">varchar[2147483647]</text>
<polygon fill="#ffffff" stroke="none" points="251.5,-458 251.5,-480 507.5,-480 507.5,-458 251.5,-458"/>
<polygon fill="none" stroke="black" points="251.5,-458 251.5,-480 507.5,-480 507.5,-458 251.5,-458"/>
<text text-anchor="start" x="271.5" y="-466.2" font-family="Helvetica,sans-Serif" font-size="11.00">direct_operating_system_flavor_id</text>
<polygon fill="none" stroke="black" points="507.5,-458 507.5,-480 628.5,-480 628.5,-458 507.5,-458"/>
<text text-anchor="start" x="510.5" y="-466.2" font-family="Helvetica,sans-Serif" font-size="11.00">int8[19]</text>
<polygon fill="#ffffff" stroke="none" points="251.5,-436 251.5,-458 507.5,-458 507.5,-436 251.5,-436"/>
<polygon fill="none" stroke="black" points="251.5,-436 251.5,-458 507.5,-458 507.5,-436 251.5,-436"/>
<text text-anchor="start" x="271.5" y="-444.2" font-family="Helvetica,sans-Serif" font-size="11.00">manager_id</text>
<polygon fill="none" stroke="black" points="507.5,-436 507.5,-458 628.5,-458 628.5,-436 507.5,-436"/>
<text text-anchor="start" x="510.5" y="-444.2" font-family="Helvetica,sans-Serif" font-size="11.00">int8[19]</text>
<polygon fill="#ffffff" stroke="none" points="251.5,-414 251.5,-436 507.5,-436 507.5,-414 251.5,-414"/>
<polygon fill="none" stroke="black" points="251.5,-414 251.5,-436 507.5,-436 507.5,-414 251.5,-414"/>
<text text-anchor="start" x="271.5" y="-422.2" font-family="Helvetica,sans-Serif" font-size="11.00">direct_customization_script_ptable_id</text>
<polygon fill="none" stroke="black" points="507.5,-414 507.5,-436 628.5,-436 628.5,-414 507.5,-414"/>
<text text-anchor="start" x="510.5" y="-422.2" font-family="Helvetica,sans-Serif" font-size="11.00">int8[19]</text>
<polygon fill="#ffffff" stroke="none" points="251.5,-392 251.5,-414 507.5,-414 507.5,-392 251.5,-392"/>
<polygon fill="none" stroke="black" points="251.5,-392 251.5,-414 507.5,-414 507.5,-392 251.5,-392"/>
<text text-anchor="start" x="271.5" y="-400.2" font-family="Helvetica,sans-Serif" font-size="11.00">direct_customization_script_medium_id</text>
<polygon fill="none" stroke="black" points="507.5,-392 507.5,-414 628.5,-414 628.5,-392 507.5,-392"/>
<text text-anchor="start" x="510.5" y="-400.2" font-family="Helvetica,sans-Serif" font-size="11.00">int8[19]</text>
<polygon fill="#ffffff" stroke="none" points="251.5,-370 251.5,-392 507.5,-392 507.5,-370 251.5,-370"/>
<polygon fill="none" stroke="black" points="251.5,-370 251.5,-392 507.5,-392 507.5,-370 251.5,-370"/>
<text text-anchor="start" x="271.5" y="-378.2" font-family="Helvetica,sans-Serif" font-size="11.00">manager_ref</text>
<polygon fill="none" stroke="black" points="507.5,-370 507.5,-392 628.5,-392 628.5,-370 507.5,-370"/>
<text text-anchor="start" x="510.5" y="-378.2" font-family="Helvetica,sans-Serif" font-size="11.00">varchar[2147483647]</text>
<polygon fill="none" stroke="black" points="251.5,-348 251.5,-370 507.5,-370 507.5,-348 251.5,-348"/>
<text text-anchor="start" x="271.5" y="-356.2" font-family="Helvetica,sans-Serif" font-size="11.00">created_at</text>
<polygon fill="none" stroke="black" points="507.5,-348 507.5,-370 628.5,-370 628.5,-348 507.5,-348"/>
<text text-anchor="start" x="510.5" y="-356.2" font-family="Helvetica,sans-Serif" font-size="11.00">timestamp[29,6]</text>
<polygon fill="none" stroke="black" points="251.5,-326 251.5,-348 507.5,-348 507.5,-326 251.5,-326"/>
<text text-anchor="start" x="271.5" y="-334.2" font-family="Helvetica,sans-Serif" font-size="11.00">updated_at</text>
<polygon fill="none" stroke="black" points="507.5,-326 507.5,-348 628.5,-348 628.5,-326 507.5,-326"/>
<text text-anchor="start" x="510.5" y="-334.2" font-family="Helvetica,sans-Serif" font-size="11.00">timestamp[29,6]</text>
<polygon fill="none" stroke="black" points="251.5,-304 251.5,-326 507.5,-326 507.5,-304 251.5,-304"/>
<text text-anchor="start" x="271.5" y="-312.2" font-family="Helvetica,sans-Serif" font-size="11.00">parent_id</text>
<polygon fill="none" stroke="black" points="507.5,-304 507.5,-326 628.5,-326 628.5,-304 507.5,-304"/>
<text text-anchor="start" x="510.5" y="-312.2" font-family="Helvetica,sans-Serif" font-size="11.00">int8[19]</text>
<polygon fill="none" stroke="black" points="251.5,-282 251.5,-304 507.5,-304 507.5,-282 251.5,-282"/>
<text text-anchor="start" x="271.5" y="-290.2" font-family="Helvetica,sans-Serif" font-size="11.00">parent_ref</text>
<polygon fill="none" stroke="black" points="507.5,-282 507.5,-304 628.5,-304 628.5,-282 507.5,-282"/>
<text text-anchor="start" x="510.5" y="-290.2" font-family="Helvetica,sans-Serif" font-size="11.00">varchar[2147483647]</text>
<polygon fill="none" stroke="black" points="251.5,-260 251.5,-282 507.5,-282 507.5,-260 251.5,-260"/>
<image xlink:href="../../images/foreignKeys.png" width="11px" height="12px" preserveAspectRatio="xMinYMin meet" x="256.5" y="-277"/>
<text text-anchor="start" x="271.5" y="-268.2" font-family="Helvetica,sans-Serif" font-size="11.00">operating_system_flavor_id</text>
<polygon fill="none" stroke="black" points="507.5,-260 507.5,-282 628.5,-282 628.5,-260 507.5,-260"/>
<text text-anchor="start" x="510.5" y="-268.2" font-family="Helvetica,sans-Serif" font-size="11.00">int8[19]</text>
<polygon fill="none" stroke="black" points="251.5,-238 251.5,-260 507.5,-260 507.5,-238 251.5,-238"/>
<text text-anchor="start" x="271.5" y="-246.2" font-family="Helvetica,sans-Serif" font-size="11.00">customization_script_medium_id</text>
<polygon fill="none" stroke="black" points="507.5,-238 507.5,-260 628.5,-260 628.5,-238 507.5,-238"/>
<text text-anchor="start" x="510.5" y="-246.2" font-family="Helvetica,sans-Serif" font-size="11.00">int8[19]</text>
<polygon fill="none" stroke="black" points="251.5,-216 251.5,-238 507.5,-238 507.5,-216 251.5,-216"/>
<text text-anchor="start" x="271.5" y="-224.2" font-family="Helvetica,sans-Serif" font-size="11.00">customization_script_ptable_id</text>
<polygon fill="none" stroke="black" points="507.5,-216 507.5,-238 628.5,-238 628.5,-216 507.5,-216"/>
<text text-anchor="start" x="510.5" y="-224.2" font-family="Helvetica,sans-Serif" font-size="11.00">int8[19]</text>
<polygon fill="none" stroke="black" points="251.5,-194 251.5,-216 507.5,-216 507.5,-194 251.5,-194"/>
<text text-anchor="start" x="271.5" y="-202.2" font-family="Helvetica,sans-Serif" font-size="11.00">target_platform</text>
<polygon fill="none" stroke="black" points="507.5,-194 507.5,-216 628.5,-216 628.5,-194 507.5,-194"/>
<text text-anchor="start" x="510.5" y="-202.2" font-family="Helvetica,sans-Serif" font-size="11.00">varchar[2147483647]</text>
<polygon fill="#ffffff" stroke="none" points="251.5,-176 251.5,-194 384.5,-194 384.5,-176 251.5,-176"/>
<polygon fill="none" stroke="black" points="251.5,-176 251.5,-194 384.5,-194 384.5,-176 251.5,-176"/>
<text text-anchor="start" x="254.5" y="-182.2" font-family="Helvetica,sans-Serif" font-size="11.00">&lt; 1</text>
<polygon fill="#ffffff" stroke="none" points="384.5,-176 384.5,-194 507.5,-194 507.5,-176 384.5,-176"/>
<polygon fill="none" stroke="black" points="384.5,-176 384.5,-194 507.5,-194 507.5,-176 384.5,-176"/>
<text text-anchor="start" x="497.5" y="-182.2" font-family="Helvetica,sans-Serif" font-size="11.00"> &#160;</text>
<polygon fill="#ffffff" stroke="none" points="507.5,-176 507.5,-194 628.5,-194 628.5,-176 507.5,-176"/>
<polygon fill="none" stroke="black" points="507.5,-176 507.5,-194 628.5,-194 628.5,-176 507.5,-176"/>
<text text-anchor="start" x="608.5" y="-182.2" font-family="Helvetica,sans-Serif" font-size="11.00">5 &gt;</text>
<polygon fill="none" stroke="black" stroke-width="2" points="250,-175 250,-591 629,-591 629,-175 250,-175"/>
</a>
</g>
</g>
<!-- configuration_locations_configuration_profiles&#45;&gt;configuration_profiles -->
<g id="edge1" class="edge"><title>configuration_locations_configuration_profiles:configuration_profile_id:w&#45;&gt;configuration_profiles:id.type:e</title>
<path fill="none" stroke="black" d="M675.648,-788.258C597.926,-766.937 731.056,-557 629.5,-557"/>
<polygon fill="black" stroke="black" points="682.058,-789.036 689.566,-793.574 686.029,-789.518 690,-790 690,-790 690,-790 686.029,-789.518 690.434,-786.426 682.058,-789.036 682.058,-789.036"/>
<ellipse fill="none" stroke="black" cx="678.882" cy="-788.651" rx="3.2" ry="3.2"/>
</g>
<!-- operating_system_flavors -->
<g id="node4" class="node"><title>operating_system_flavors</title>
<g id="a_node4"><a xlink:href="../../tables/operating_system_flavors.html" xlink:title="operating_system_flavors" target="_top">
<polygon fill="#ffffff" stroke="none" points="8,-119 8,-243 200,-243 200,-119 8,-119"/>
<polygon fill="#f5f5f5" stroke="none" points="8,-221 8,-243 200,-243 200,-221 8,-221"/>
<polygon fill="none" stroke="black" points="8,-221 8,-243 200,-243 200,-221 8,-221"/>
<text text-anchor="start" x="13" y="-230.2" font-family="Helvetica,sans-Serif" font-weight="bold" font-size="11.00">operating_system_flavors</text>
<text text-anchor="start" x="161" y="-229.2" font-family="Helvetica,sans-Serif" font-size="11.00">[table]</text>
<polygon fill="none" stroke="black" points="8,-199 8,-221 200,-221 200,-199 8,-199"/>
<image xlink:href="../../images/primaryKeys.png" width="11px" height="12px" preserveAspectRatio="xMinYMin meet" x="13" y="-216"/>
<text text-anchor="start" x="38" y="-207.2" font-family="Helvetica,sans-Serif" font-size="11.00">id</text>
<polygon fill="#ffffff" stroke="none" points="8,-177 8,-199 200,-199 200,-177 8,-177"/>
<polygon fill="none" stroke="black" points="8,-177 8,-199 200,-199 200,-177 8,-177"/>
<text text-anchor="start" x="38" y="-185.2" font-family="Helvetica,sans-Serif" font-size="11.00">provisioning_manager_id</text>
<polygon fill="#ffffff" stroke="none" points="8,-155 8,-177 200,-177 200,-155 8,-155"/>
<polygon fill="none" stroke="black" points="8,-155 8,-177 200,-177 200,-155 8,-155"/>
<text text-anchor="start" x="38" y="-163.2" font-family="Helvetica,sans-Serif" font-size="11.00">manager_ref</text>
<polygon fill="none" stroke="black" points="8,-137 8,-155 200,-155 200,-137 8,-137"/>
<text text-anchor="start" x="11" y="-143.2" font-family="Helvetica,sans-Serif" font-size="11.00">...</text>
<polygon fill="#ffffff" stroke="none" points="8,-119 8,-137 92,-137 92,-119 8,-119"/>
<polygon fill="none" stroke="black" points="8,-119 8,-137 92,-137 92,-119 8,-119"/>
<text text-anchor="start" x="11" y="-125.2" font-family="Helvetica,sans-Serif" font-size="11.00"> &#160;</text>
<polygon fill="#ffffff" stroke="none" points="92,-119 92,-137 141,-137 141,-119 92,-119"/>
<polygon fill="none" stroke="black" points="92,-119 92,-137 141,-137 141,-119 92,-119"/>
<text text-anchor="start" x="131" y="-125.2" font-family="Helvetica,sans-Serif" font-size="11.00"> &#160;</text>
<polygon fill="#ffffff" stroke="none" points="141,-119 141,-137 200,-137 200,-119 141,-119"/>
<polygon fill="none" stroke="black" points="141,-119 141,-137 200,-137 200,-119 141,-119"/>
<text text-anchor="start" x="180" y="-125.2" font-family="Helvetica,sans-Serif" font-size="11.00">3 &gt;</text>
</a>
</g>
</g>
<!-- configuration_profiles&#45;&gt;operating_system_flavors -->
<g id="edge3" class="edge"><title>configuration_profiles:operating_system_flavor_id:w&#45;&gt;operating_system_flavors:id:e</title>
<path fill="none" stroke="black" d="M236.832,-266.213C220.942,-251.833 229.913,-210 201,-210"/>
<polygon fill="black" stroke="black" points="242.95,-268.356 249.31,-274.398 246.725,-269.678 250.5,-271 250.5,-271 250.5,-271 246.725,-269.678 251.69,-267.602 242.95,-268.356 242.95,-268.356"/>
<ellipse fill="none" stroke="black" cx="239.929" cy="-267.298" rx="3.20001" ry="3.20001"/>
</g>
<!-- configuration_organizations_configuration_profiles -->
<g id="node3" class="node"><title>configuration_organizations_configuration_profiles</title>
<g id="a_node3"><a xlink:href="../../tables/configuration_organizations_configuration_profiles.html" xlink:title="configuration_organizations_configuration_profiles" target="_top">
<polygon fill="#ffffff" stroke="none" points="679,-634 679,-740 1013,-740 1013,-634 679,-634"/>
<polygon fill="#f5f5f5" stroke="none" points="679,-718 679,-740 1013,-740 1013,-718 679,-718"/>
<polygon fill="none" stroke="black" points="679,-718 679,-740 1013,-740 1013,-718 679,-718"/>
<text text-anchor="start" x="684" y="-727.2" font-family="Helvetica,sans-Serif" font-weight="bold" font-size="11.00">configuration_organizations_configuration_profiles</text>
<text text-anchor="start" x="974" y="-726.2" font-family="Helvetica,sans-Serif" font-size="11.00">[table]</text>
<polygon fill="none" stroke="black" points="679,-696 679,-718 1013,-718 1013,-696 679,-696"/>
<image xlink:href="../../images/primaryKeys.png" width="11px" height="12px" preserveAspectRatio="xMinYMin meet" x="684" y="-713"/>
<text text-anchor="start" x="704" y="-704.2" font-family="Helvetica,sans-Serif" font-size="11.00">id</text>
<polygon fill="#ffffff" stroke="none" points="679,-674 679,-696 1013,-696 1013,-674 679,-674"/>
<polygon fill="none" stroke="black" points="679,-674 679,-696 1013,-696 1013,-674 679,-674"/>
<image xlink:href="../../images/foreignKeys.png" width="11px" height="12px" preserveAspectRatio="xMinYMin meet" x="684" y="-691"/>
<text text-anchor="start" x="704" y="-682.2" font-family="Helvetica,sans-Serif" font-size="11.00">configuration_organization_id</text>
<polygon fill="#ffffff" stroke="none" points="679,-652 679,-674 1013,-674 1013,-652 679,-652"/>
<polygon fill="none" stroke="black" points="679,-652 679,-674 1013,-674 1013,-652 679,-652"/>
<image xlink:href="../../images/foreignKeys.png" width="11px" height="12px" preserveAspectRatio="xMinYMin meet" x="684" y="-669"/>
<text text-anchor="start" x="704" y="-660.2" font-family="Helvetica,sans-Serif" font-size="11.00">configuration_profile_id</text>
<polygon fill="#ffffff" stroke="none" points="679,-634 679,-652 844,-652 844,-634 679,-634"/>
<polygon fill="none" stroke="black" points="679,-634 679,-652 844,-652 844,-634 679,-634"/>
<text text-anchor="start" x="682" y="-640.2" font-family="Helvetica,sans-Serif" font-size="11.00">&lt; 2</text>
<polygon fill="#ffffff" stroke="none" points="844,-634 844,-652 928,-652 928,-634 844,-634"/>
<polygon fill="none" stroke="black" points="844,-634 844,-652 928,-652 928,-634 844,-634"/>
<text text-anchor="start" x="918" y="-640.2" font-family="Helvetica,sans-Serif" font-size="11.00"> &#160;</text>
<polygon fill="#ffffff" stroke="none" points="928,-634 928,-652 1013,-652 1013,-634 928,-634"/>
<polygon fill="none" stroke="black" points="928,-634 928,-652 1013,-652 1013,-634 928,-634"/>
<text text-anchor="start" x="1003" y="-640.2" font-family="Helvetica,sans-Serif" font-size="11.00"> &#160;</text>
</a>
</g>
</g>
<!-- configuration_organizations_configuration_profiles&#45;&gt;configuration_profiles -->
<g id="edge2" class="edge"><title>configuration_organizations_configuration_profiles:configuration_profile_id:w&#45;&gt;configuration_profiles:id.type:e</title>
<path fill="none" stroke="black" d="M663.847,-658.974C637.641,-639.612 675.237,-557 629.5,-557"/>
<polygon fill="black" stroke="black" points="670.305,-660.811 677.015,-666.463 674.153,-661.906 678,-663 678,-663 678,-663 674.153,-661.906 678.985,-659.537 670.305,-660.811 670.305,-660.811"/>
<ellipse fill="none" stroke="black" cx="667.227" cy="-659.936" rx="3.20001" ry="3.20001"/>
</g>
<!-- configuration_profiles_configuration_tags -->
<g id="node5" class="node"><title>configuration_profiles_configuration_tags</title>
<g id="a_node5"><a xlink:href="../../tables/configuration_profiles_configuration_tags.html" xlink:title="configuration_profiles_configuration_tags" target="_top">
<polygon fill="#ffffff" stroke="none" points="705.5,-507 705.5,-613 986.5,-613 986.5,-507 705.5,-507"/>
<polygon fill="#f5f5f5" stroke="none" points="706,-591 706,-613 987,-613 987,-591 706,-591"/>
<polygon fill="none" stroke="black" points="706,-591 706,-613 987,-613 987,-591 706,-591"/>
<text text-anchor="start" x="711" y="-600.2" font-family="Helvetica,sans-Serif" font-weight="bold" font-size="11.00">configuration_profiles_configuration_tags</text>
<text text-anchor="start" x="948" y="-599.2" font-family="Helvetica,sans-Serif" font-size="11.00">[table]</text>
<polygon fill="none" stroke="black" points="706,-569 706,-591 987,-591 987,-569 706,-569"/>
<image xlink:href="../../images/primaryKeys.png" width="11px" height="12px" preserveAspectRatio="xMinYMin meet" x="711" y="-586"/>
<text text-anchor="start" x="732" y="-577.2" font-family="Helvetica,sans-Serif" font-size="11.00">id</text>
<polygon fill="#ffffff" stroke="none" points="706,-547 706,-569 987,-569 987,-547 706,-547"/>
<polygon fill="none" stroke="black" points="706,-547 706,-569 987,-569 987,-547 706,-547"/>
<image xlink:href="../../images/foreignKeys.png" width="11px" height="12px" preserveAspectRatio="xMinYMin meet" x="711" y="-564"/>
<text text-anchor="start" x="732" y="-555.2" font-family="Helvetica,sans-Serif" font-size="11.00">configuration_profile_id</text>
<polygon fill="#ffffff" stroke="none" points="706,-525 706,-547 987,-547 987,-525 706,-525"/>
<polygon fill="none" stroke="black" points="706,-525 706,-547 987,-547 987,-525 706,-525"/>
<image xlink:href="../../images/foreignKeys.png" width="11px" height="12px" preserveAspectRatio="xMinYMin meet" x="711" y="-542"/>
<text text-anchor="start" x="732" y="-533.2" font-family="Helvetica,sans-Serif" font-size="11.00">configuration_tag_id</text>
<polygon fill="#ffffff" stroke="none" points="706,-507 706,-525 845,-525 845,-507 706,-507"/>
<polygon fill="none" stroke="black" points="706,-507 706,-525 845,-525 845,-507 706,-507"/>
<text text-anchor="start" x="709" y="-513.2" font-family="Helvetica,sans-Serif" font-size="11.00">&lt; 2</text>
<polygon fill="#ffffff" stroke="none" points="845,-507 845,-525 916,-525 916,-507 845,-507"/>
<polygon fill="none" stroke="black" points="845,-507 845,-525 916,-525 916,-507 845,-507"/>
<text text-anchor="start" x="906" y="-513.2" font-family="Helvetica,sans-Serif" font-size="11.00"> &#160;</text>
<polygon fill="#ffffff" stroke="none" points="916,-507 916,-525 987,-525 987,-507 916,-507"/>
<polygon fill="none" stroke="black" points="916,-507 916,-525 987,-525 987,-507 916,-507"/>
<text text-anchor="start" x="977" y="-513.2" font-family="Helvetica,sans-Serif" font-size="11.00"> &#160;</text>
</a>
</g>
</g>
<!-- configuration_profiles_configuration_tags&#45;&gt;configuration_profiles -->
<g id="edge4" class="edge"><title>configuration_profiles_configuration_tags:configuration_profile_id:w&#45;&gt;configuration_profiles:id.type:e</title>
<path fill="none" stroke="black" d="M690.293,-557.928C668.013,-557.699 657.553,-557 629.5,-557"/>
<polygon fill="black" stroke="black" points="697,-557.961 704.982,-561.6 701,-557.98 705,-558 705,-558 705,-558 701,-557.98 705.018,-554.4 697,-557.961 697,-557.961"/>
<ellipse fill="none" stroke="black" cx="693.8" cy="-557.945" rx="3.2" ry="3.2"/>
</g>
<!-- configured_systems -->
<g id="node6" class="node"><title>configured_systems</title>
<g id="a_node6"><a xlink:href="../../tables/configured_systems.html" xlink:title="configured_systems" target="_top">
<polygon fill="#ffffff" stroke="none" points="718,-37 718,-359 974,-359 974,-37 718,-37"/>
<polygon fill="#f5f5f5" stroke="none" points="718,-337 718,-359 974,-359 974,-337 718,-337"/>
<polygon fill="none" stroke="black" points="718,-337 718,-359 974,-359 974,-337 718,-337"/>
<text text-anchor="start" x="723" y="-346.2" font-family="Helvetica,sans-Serif" font-weight="bold" font-size="11.00">configured_systems</text>
<text text-anchor="start" x="935" y="-345.2" font-family="Helvetica,sans-Serif" font-size="11.00">[table]</text>
<polygon fill="none" stroke="black" points="718,-315 718,-337 974,-337 974,-315 718,-315"/>
<image xlink:href="../../images/primaryKeys.png" width="11px" height="12px" preserveAspectRatio="xMinYMin meet" x="723" y="-332"/>
<text text-anchor="start" x="738" y="-323.2" font-family="Helvetica,sans-Serif" font-size="11.00">id</text>
<polygon fill="#ffffff" stroke="none" points="718,-293 718,-315 974,-315 974,-293 718,-293"/>
<polygon fill="none" stroke="black" points="718,-293 718,-315 974,-315 974,-293 718,-293"/>
<text text-anchor="start" x="738" y="-301.2" font-family="Helvetica,sans-Serif" font-size="11.00">type</text>
<polygon fill="#ffffff" stroke="none" points="718,-271 718,-293 974,-293 974,-271 718,-271"/>
<polygon fill="none" stroke="black" points="718,-271 718,-293 974,-293 974,-271 718,-271"/>
<text text-anchor="start" x="738" y="-279.2" font-family="Helvetica,sans-Serif" font-size="11.00">direct_operating_system_flavor_id</text>
<polygon fill="none" stroke="black" points="718,-249 718,-271 974,-271 974,-249 718,-249"/>
<image xlink:href="../../images/foreignKeys.png" width="11px" height="12px" preserveAspectRatio="xMinYMin meet" x="723" y="-266"/>
<text text-anchor="start" x="738" y="-257.2" font-family="Helvetica,sans-Serif" font-size="11.00">configuration_profile_id</text>
<polygon fill="#ffffff" stroke="none" points="718,-227 718,-249 974,-249 974,-227 718,-227"/>
<polygon fill="none" stroke="black" points="718,-227 718,-249 974,-249 974,-227 718,-227"/>
<text text-anchor="start" x="738" y="-235.2" font-family="Helvetica,sans-Serif" font-size="11.00">manager_id</text>
<polygon fill="#ffffff" stroke="none" points="718,-205 718,-227 974,-227 974,-205 718,-205"/>
<polygon fill="none" stroke="black" points="718,-205 718,-227 974,-227 974,-205 718,-205"/>
<text text-anchor="start" x="738" y="-213.2" font-family="Helvetica,sans-Serif" font-size="11.00">manager_ref</text>
<polygon fill="none" stroke="black" points="718,-183 718,-205 974,-205 974,-183 718,-183"/>
<image xlink:href="../../images/foreignKeys.png" width="11px" height="12px" preserveAspectRatio="xMinYMin meet" x="723" y="-200"/>
<text text-anchor="start" x="738" y="-191.2" font-family="Helvetica,sans-Serif" font-size="11.00">configuration_location_id</text>
<polygon fill="none" stroke="black" points="718,-161 718,-183 974,-183 974,-161 718,-161"/>
<image xlink:href="../../images/foreignKeys.png" width="11px" height="12px" preserveAspectRatio="xMinYMin meet" x="723" y="-178"/>
<text text-anchor="start" x="738" y="-169.2" font-family="Helvetica,sans-Serif" font-size="11.00">configuration_organization_id</text>
<polygon fill="none" stroke="black" points="718,-139 718,-161 974,-161 974,-139 718,-139"/>
<image xlink:href="../../images/foreignKeys.png" width="11px" height="12px" preserveAspectRatio="xMinYMin meet" x="723" y="-156"/>
<text text-anchor="start" x="738" y="-147.2" font-family="Helvetica,sans-Serif" font-size="11.00">operating_system_flavor_id</text>
<polygon fill="#ffffff" stroke="none" points="718,-117 718,-139 974,-139 974,-117 718,-117"/>
<polygon fill="none" stroke="black" points="718,-117 718,-139 974,-139 974,-117 718,-117"/>
<text text-anchor="start" x="738" y="-125.2" font-family="Helvetica,sans-Serif" font-size="11.00">counterpart_type</text>
<polygon fill="#ffffff" stroke="none" points="718,-95 718,-117 974,-117 974,-95 718,-95"/>
<polygon fill="none" stroke="black" points="718,-95 718,-117 974,-117 974,-95 718,-95"/>
<text text-anchor="start" x="738" y="-103.2" font-family="Helvetica,sans-Serif" font-size="11.00">counterpart_id</text>
<polygon fill="#ffffff" stroke="none" points="718,-73 718,-95 974,-95 974,-73 718,-73"/>
<polygon fill="none" stroke="black" points="718,-73 718,-95 974,-95 974,-73 718,-73"/>
<image xlink:href="../../images/foreignKeys.png" width="11px" height="12px" preserveAspectRatio="xMinYMin meet" x="723" y="-90"/>
<text text-anchor="start" x="738" y="-81.2" font-family="Helvetica,sans-Serif" font-size="11.00">orchestration_stack_id</text>
<polygon fill="none" stroke="black" points="718,-55 718,-73 974,-73 974,-55 718,-55"/>
<text text-anchor="start" x="721" y="-61.2" font-family="Helvetica,sans-Serif" font-size="11.00">...</text>
<polygon fill="#ffffff" stroke="none" points="718,-37 718,-55 839,-55 839,-37 718,-37"/>
<polygon fill="none" stroke="black" points="718,-37 718,-55 839,-55 839,-37 718,-37"/>
<text text-anchor="start" x="721" y="-43.2" font-family="Helvetica,sans-Serif" font-size="11.00">&lt; 5</text>
<polygon fill="#ffffff" stroke="none" points="839,-37 839,-55 901,-55 901,-37 839,-37"/>
<polygon fill="none" stroke="black" points="839,-37 839,-55 901,-55 901,-37 839,-37"/>
<text text-anchor="start" x="891" y="-43.2" font-family="Helvetica,sans-Serif" font-size="11.00"> &#160;</text>
<polygon fill="#ffffff" stroke="none" points="901,-37 901,-55 974,-55 974,-37 901,-37"/>
<polygon fill="none" stroke="black" points="901,-37 901,-55 974,-55 974,-37 901,-37"/>
<text text-anchor="start" x="954" y="-43.2" font-family="Helvetica,sans-Serif" font-size="11.00">2 &gt;</text>
</a>
</g>
</g>
<!-- configured_systems&#45;&gt;configuration_profiles -->
<g id="edge5" class="edge"><title>configured_systems:configuration_profile_id:w&#45;&gt;configuration_profiles:id.type:e</title>
<path fill="none" stroke="black" d="M702.294,-262.025C668.888,-272.779 685.21,-324.377 671,-369 658.018,-409.766 672.284,-557 629.5,-557"/>
<polygon fill="black" stroke="black" points="709.075,-261.091 717.491,-263.566 713.037,-260.546 717,-260 717,-260 717,-260 713.037,-260.546 716.509,-256.434 709.075,-261.091 709.075,-261.091"/>
<ellipse fill="none" stroke="black" cx="705.905" cy="-261.528" rx="3.2" ry="3.2"/>
</g>
<!-- configured_systems&#45;&gt;operating_system_flavors -->
<g id="edge6" class="edge"><title>configured_systems:operating_system_flavor_id:w&#45;&gt;operating_system_flavors:id:e</title>
<path fill="none" stroke="black" d="M702.344,-149.877C501.863,-146.502 427.803,-75.5476 241,-164 216.513,-175.595 228.093,-210 201,-210"/>
<polygon fill="black" stroke="black" points="709,-149.933 716.97,-153.6 713,-149.966 717,-150 717,-150 717,-150 713,-149.966 717.03,-146.4 709,-149.933 709,-149.933"/>
<ellipse fill="none" stroke="black" cx="705.8" cy="-149.906" rx="3.2" ry="3.2"/>
</g>
<!-- direct_configuration_profiles_configuration_tags -->
<g id="node7" class="node"><title>direct_configuration_profiles_configuration_tags</title>
<g id="a_node7"><a xlink:href="../../tables/direct_configuration_profiles_configuration_tags.html" xlink:title="direct_configuration_profiles_configuration_tags" target="_top">
<polygon fill="#ffffff" stroke="none" points="686,-380 686,-486 1006,-486 1006,-380 686,-380"/>
<polygon fill="#f5f5f5" stroke="none" points="686,-464 686,-486 1006,-486 1006,-464 686,-464"/>
<polygon fill="none" stroke="black" points="686,-464 686,-486 1006,-486 1006,-464 686,-464"/>
<text text-anchor="start" x="691" y="-473.2" font-family="Helvetica,sans-Serif" font-weight="bold" font-size="11.00">direct_configuration_profiles_configuration_tags</text>
<text text-anchor="start" x="967" y="-472.2" font-family="Helvetica,sans-Serif" font-size="11.00">[table]</text>
<polygon fill="none" stroke="black" points="686,-442 686,-464 1006,-464 1006,-442 686,-442"/>
<image xlink:href="../../images/primaryKeys.png" width="11px" height="12px" preserveAspectRatio="xMinYMin meet" x="691" y="-459"/>
<text text-anchor="start" x="712" y="-450.2" font-family="Helvetica,sans-Serif" font-size="11.00">id</text>
<polygon fill="#ffffff" stroke="none" points="686,-420 686,-442 1006,-442 1006,-420 686,-420"/>
<polygon fill="none" stroke="black" points="686,-420 686,-442 1006,-442 1006,-420 686,-420"/>
<image xlink:href="../../images/foreignKeys.png" width="11px" height="12px" preserveAspectRatio="xMinYMin meet" x="691" y="-437"/>
<text text-anchor="start" x="712" y="-428.2" font-family="Helvetica,sans-Serif" font-size="11.00">configuration_profile_id</text>
<polygon fill="#ffffff" stroke="none" points="686,-398 686,-420 1006,-420 1006,-398 686,-398"/>
<polygon fill="none" stroke="black" points="686,-398 686,-420 1006,-420 1006,-398 686,-398"/>
<image xlink:href="../../images/foreignKeys.png" width="11px" height="12px" preserveAspectRatio="xMinYMin meet" x="691" y="-415"/>
<text text-anchor="start" x="712" y="-406.2" font-family="Helvetica,sans-Serif" font-size="11.00">configuration_tag_id</text>
<polygon fill="#ffffff" stroke="none" points="686,-380 686,-398 844,-398 844,-380 686,-380"/>
<polygon fill="none" stroke="black" points="686,-380 686,-398 844,-398 844,-380 686,-380"/>
<text text-anchor="start" x="689" y="-386.2" font-family="Helvetica,sans-Serif" font-size="11.00">&lt; 2</text>
<polygon fill="#ffffff" stroke="none" points="844,-380 844,-398 925,-398 925,-380 844,-380"/>
<polygon fill="none" stroke="black" points="844,-380 844,-398 925,-398 925,-380 844,-380"/>
<text text-anchor="start" x="915" y="-386.2" font-family="Helvetica,sans-Serif" font-size="11.00"> &#160;</text>
<polygon fill="#ffffff" stroke="none" points="925,-380 925,-398 1006,-398 1006,-380 925,-380"/>
<polygon fill="none" stroke="black" points="925,-380 925,-398 1006,-398 1006,-380 925,-380"/>
<text text-anchor="start" x="996" y="-386.2" font-family="Helvetica,sans-Serif" font-size="11.00"> &#160;</text>
</a>
</g>
</g>
<!-- direct_configuration_profiles_configuration_tags&#45;&gt;configuration_profiles -->
<g id="edge7" class="edge"><title>direct_configuration_profiles_configuration_tags:configuration_profile_id:w&#45;&gt;configuration_profiles:id.type:e</title>
<path fill="none" stroke="black" d="M670.498,-434.37C635.65,-454.408 684.716,-557 629.5,-557"/>
<polygon fill="black" stroke="black" points="677.208,-432.811 685.815,-434.507 681.104,-431.905 685,-431 685,-431 685,-431 681.104,-431.905 684.185,-427.493 677.208,-432.811 677.208,-432.811"/>
<ellipse fill="none" stroke="black" cx="674.091" cy="-433.535" rx="3.2" ry="3.2"/>
</g>
</g>
</svg>
