<?xml version="1.0" encoding="UTF-8" standalone="no"?>
<!DOCTYPE svg PUBLIC "-//W3C//DTD SVG 1.1//EN"
 "http://www.w3.org/Graphics/SVG/1.1/DTD/svg11.dtd">
<!-- Generated by graphviz version 2.38.0 (20140413.2041)
 -->
<!-- Title: oneDegreeRelationshipsDiagram Pages: 1 -->
<svg width="650pt" height="536pt"
 viewBox="0.00 0.00 650.00 536.00" xmlns="http://www.w3.org/2000/svg" xmlns:xlink="http://www.w3.org/1999/xlink">
<g id="graph0" class="graph" transform="scale(1 1) rotate(0) translate(4 532)">
<title>oneDegreeRelationshipsDiagram</title>
<polygon fill="#ffffff" stroke="none" points="-4,4 -4,-532 646,-532 646,4 -4,4"/>
<text text-anchor="middle" x="74.5" y="-7.2" font-family="Helvetica,sans-Serif" font-size="11.00">Generated by SchemaSpy</text>
<!-- configuration_profiles_configuration_tags -->
<g id="node1" class="node"><title>configuration_profiles_configuration_tags</title>
<g id="a_node1"><a xlink:href="../../tables/configuration_profiles_configuration_tags.html" xlink:title="configuration_profiles_configuration_tags" target="_top">
<polygon fill="#ffffff" stroke="none" points="333.5,-418 333.5,-524 614.5,-524 614.5,-418 333.5,-418"/>
<polygon fill="#f5f5f5" stroke="none" points="334,-502 334,-524 615,-524 615,-502 334,-502"/>
<polygon fill="none" stroke="black" points="334,-502 334,-524 615,-524 615,-502 334,-502"/>
<text text-anchor="start" x="339" y="-511.2" font-family="Helvetica,sans-Serif" font-weight="bold" font-size="11.00">configuration_profiles_configuration_tags</text>
<text text-anchor="start" x="576" y="-510.2" font-family="Helvetica,sans-Serif" font-size="11.00">[table]</text>
<polygon fill="none" stroke="black" points="334,-480 334,-502 615,-502 615,-480 334,-480"/>
<image xlink:href="../../images/primaryKeys.png" width="11px" height="12px" preserveAspectRatio="xMinYMin meet" x="339" y="-497"/>
<text text-anchor="start" x="360" y="-488.2" font-family="Helvetica,sans-Serif" font-size="11.00">id</text>
<polygon fill="#ffffff" stroke="none" points="334,-458 334,-480 615,-480 615,-458 334,-458"/>
<polygon fill="none" stroke="black" points="334,-458 334,-480 615,-480 615,-458 334,-458"/>
<image xlink:href="../../images/foreignKeys.png" width="11px" height="12px" preserveAspectRatio="xMinYMin meet" x="339" y="-475"/>
<text text-anchor="start" x="360" y="-466.2" font-family="Helvetica,sans-Serif" font-size="11.00">configuration_profile_id</text>
<polygon fill="#ffffff" stroke="none" points="334,-436 334,-458 615,-458 615,-436 334,-436"/>
<polygon fill="none" stroke="black" points="334,-436 334,-458 615,-458 615,-436 334,-436"/>
<image xlink:href="../../images/foreignKeys.png" width="11px" height="12px" preserveAspectRatio="xMinYMin meet" x="339" y="-453"/>
<text text-anchor="start" x="360" y="-444.2" font-family="Helvetica,sans-Serif" font-size="11.00">configuration_tag_id</text>
<polygon fill="#ffffff" stroke="none" points="334,-418 334,-436 473,-436 473,-418 334,-418"/>
<polygon fill="none" stroke="black" points="334,-418 334,-436 473,-436 473,-418 334,-418"/>
<text text-anchor="start" x="337" y="-424.2" font-family="Helvetica,sans-Serif" font-size="11.00">&lt; 2</text>
<polygon fill="#ffffff" stroke="none" points="473,-418 473,-436 544,-436 544,-418 473,-418"/>
<polygon fill="none" stroke="black" points="473,-418 473,-436 544,-436 544,-418 473,-418"/>
<text text-anchor="start" x="534" y="-424.2" font-family="Helvetica,sans-Serif" font-size="11.00"> &#160;</text>
<polygon fill="#ffffff" stroke="none" points="544,-418 544,-436 615,-436 615,-418 544,-418"/>
<polygon fill="none" stroke="black" points="544,-418 544,-436 615,-436 615,-418 544,-418"/>
<text text-anchor="start" x="605" y="-424.2" font-family="Helvetica,sans-Serif" font-size="11.00"> &#160;</text>
</a>
</g>
</g>
<!-- configuration_tags -->
<g id="node2" class="node"><title>configuration_tags</title>
<g id="a_node2"><a xlink:href="../../tables/configuration_tags.html" xlink:title="configuration_tags" target="_top">
<polygon fill="#ffffff" stroke="none" points="8,-93 8,-291 265,-291 265,-93 8,-93"/>
<polygon fill="#f5f5f5" stroke="none" points="10.5,-267 10.5,-289 263.5,-289 263.5,-267 10.5,-267"/>
<polygon fill="none" stroke="black" points="10.5,-267 10.5,-289 263.5,-289 263.5,-267 10.5,-267"/>
<text text-anchor="start" x="15.5" y="-276.2" font-family="Helvetica,sans-Serif" font-weight="bold" font-size="11.00">configuration_tags</text>
<text text-anchor="start" x="224.5" y="-275.2" font-family="Helvetica,sans-Serif" font-size="11.00">[table]</text>
<polygon fill="none" stroke="black" points="10.5,-245 10.5,-267 142.5,-267 142.5,-245 10.5,-245"/>
<image xlink:href="../../images/primaryKeys.png" width="11px" height="12px" preserveAspectRatio="xMinYMin meet" x="15.5" y="-262"/>
<text text-anchor="start" x="30.5" y="-253.2" font-family="Helvetica,sans-Serif" font-size="11.00">id</text>
<polygon fill="none" stroke="black" points="142.5,-245 142.5,-267 263.5,-267 263.5,-245 142.5,-245"/>
<text text-anchor="start" x="145.5" y="-253.2" font-family="Helvetica,sans-Serif" font-size="11.00">bigserial[19]</text>
<polygon fill="#ffffff" stroke="none" points="10.5,-223 10.5,-245 142.5,-245 142.5,-223 10.5,-223"/>
<polygon fill="none" stroke="black" points="10.5,-223 10.5,-245 142.5,-245 142.5,-223 10.5,-223"/>
<text text-anchor="start" x="30.5" y="-231.2" font-family="Helvetica,sans-Serif" font-size="11.00">type</text>
<polygon fill="none" stroke="black" points="142.5,-223 142.5,-245 263.5,-245 263.5,-223 142.5,-223"/>
<text text-anchor="start" x="145.5" y="-231.2" font-family="Helvetica,sans-Serif" font-size="11.00">varchar[2147483647]</text>
<polygon fill="none" stroke="black" points="10.5,-201 10.5,-223 142.5,-223 142.5,-201 10.5,-201"/>
<text text-anchor="start" x="30.5" y="-209.2" font-family="Helvetica,sans-Serif" font-size="11.00">manager_ref</text>
<polygon fill="none" stroke="black" points="142.5,-201 142.5,-223 263.5,-223 263.5,-201 142.5,-201"/>
<text text-anchor="start" x="145.5" y="-209.2" font-family="Helvetica,sans-Serif" font-size="11.00">varchar[2147483647]</text>
<polygon fill="none" stroke="black" points="10.5,-179 10.5,-201 142.5,-201 142.5,-179 10.5,-179"/>
<text text-anchor="start" x="30.5" y="-187.2" font-family="Helvetica,sans-Serif" font-size="11.00">name</text>
<polygon fill="none" stroke="black" points="142.5,-179 142.5,-201 263.5,-201 263.5,-179 142.5,-179"/>
<text text-anchor="start" x="145.5" y="-187.2" font-family="Helvetica,sans-Serif" font-size="11.00">varchar[2147483647]</text>
<polygon fill="none" stroke="black" points="10.5,-157 10.5,-179 142.5,-179 142.5,-157 10.5,-157"/>
<text text-anchor="start" x="30.5" y="-165.2" font-family="Helvetica,sans-Serif" font-size="11.00">manager_id</text>
<polygon fill="none" stroke="black" points="142.5,-157 142.5,-179 263.5,-179 263.5,-157 142.5,-157"/>
<text text-anchor="start" x="145.5" y="-165.2" font-family="Helvetica,sans-Serif" font-size="11.00">int8[19]</text>
<polygon fill="none" stroke="black" points="10.5,-135 10.5,-157 142.5,-157 142.5,-135 10.5,-135"/>
<text text-anchor="start" x="30.5" y="-143.2" font-family="Helvetica,sans-Serif" font-size="11.00">created_at</text>
<polygon fill="none" stroke="black" points="142.5,-135 142.5,-157 263.5,-157 263.5,-135 142.5,-135"/>
<text text-anchor="start" x="145.5" y="-143.2" font-family="Helvetica,sans-Serif" font-size="11.00">timestamp[29,6]</text>
<polygon fill="none" stroke="black" points="10.5,-113 10.5,-135 142.5,-135 142.5,-113 10.5,-113"/>
<text text-anchor="start" x="30.5" y="-121.2" font-family="Helvetica,sans-Serif" font-size="11.00">updated_at</text>
<polygon fill="none" stroke="black" points="142.5,-113 142.5,-135 263.5,-135 263.5,-113 142.5,-113"/>
<text text-anchor="start" x="145.5" y="-121.2" font-family="Helvetica,sans-Serif" font-size="11.00">timestamp[29,6]</text>
<polygon fill="#ffffff" stroke="none" points="10.5,-95 10.5,-113 81.5,-113 81.5,-95 10.5,-95"/>
<polygon fill="none" stroke="black" points="10.5,-95 10.5,-113 81.5,-113 81.5,-95 10.5,-95"/>
<text text-anchor="start" x="13.5" y="-101.2" font-family="Helvetica,sans-Serif" font-size="11.00">&lt; 0</text>
<polygon fill="#ffffff" stroke="none" points="81.5,-95 81.5,-113 142.5,-113 142.5,-95 81.5,-95"/>
<polygon fill="none" stroke="black" points="81.5,-95 81.5,-113 142.5,-113 142.5,-95 81.5,-95"/>
<text text-anchor="start" x="132.5" y="-101.2" font-family="Helvetica,sans-Serif" font-size="11.00"> &#160;</text>
<polygon fill="#ffffff" stroke="none" points="142.5,-95 142.5,-113 263.5,-113 263.5,-95 142.5,-95"/>
<polygon fill="none" stroke="black" points="142.5,-95 142.5,-113 263.5,-113 263.5,-95 142.5,-95"/>
<text text-anchor="start" x="243.5" y="-101.2" font-family="Helvetica,sans-Serif" font-size="11.00">4 &gt;</text>
<polygon fill="none" stroke="black" stroke-width="2" points="9,-94 9,-290 264,-290 264,-94 9,-94"/>
</a>
</g>
</g>
<!-- configuration_profiles_configuration_tags&#45;&gt;configuration_tags -->
<g id="edge1" class="edge"><title>configuration_profiles_configuration_tags:configuration_tag_id:w&#45;&gt;configuration_tags:id.type:e</title>
<path fill="none" stroke="black" d="M318.36,-444.855C256.011,-423.871 349.047,-256 264.5,-256"/>
<polygon fill="black" stroke="black" points="325.085,-445.84 332.478,-450.562 329.042,-446.42 333,-447 333,-447 333,-447 329.042,-446.42 333.522,-443.438 325.085,-445.84 325.085,-445.84"/>
<ellipse fill="none" stroke="black" cx="321.918" cy="-445.376" rx="3.2" ry="3.2"/>
</g>
<!-- configuration_tags_configured_systems -->
<g id="node3" class="node"><title>configuration_tags_configured_systems</title>
<g id="a_node3"><a xlink:href="../../tables/configuration_tags_configured_systems.html" xlink:title="configuration_tags_configured_systems" target="_top">
<polygon fill="#ffffff" stroke="none" points="340,-291 340,-397 608,-397 608,-291 340,-291"/>
<polygon fill="#f5f5f5" stroke="none" points="340,-375 340,-397 608,-397 608,-375 340,-375"/>
<polygon fill="none" stroke="black" points="340,-375 340,-397 608,-397 608,-375 340,-375"/>
<text text-anchor="start" x="345" y="-384.2" font-family="Helvetica,sans-Serif" font-weight="bold" font-size="11.00">configuration_tags_configured_systems</text>
<text text-anchor="start" x="569" y="-383.2" font-family="Helvetica,sans-Serif" font-size="11.00">[table]</text>
<polygon fill="none" stroke="black" points="340,-353 340,-375 608,-375 608,-353 340,-353"/>
<image xlink:href="../../images/primaryKeys.png" width="11px" height="12px" preserveAspectRatio="xMinYMin meet" x="345" y="-370"/>
<text text-anchor="start" x="367" y="-361.2" font-family="Helvetica,sans-Serif" font-size="11.00">id</text>
<polygon fill="#ffffff" stroke="none" points="340,-331 340,-353 608,-353 608,-331 340,-331"/>
<polygon fill="none" stroke="black" points="340,-331 340,-353 608,-353 608,-331 340,-331"/>
<image xlink:href="../../images/foreignKeys.png" width="11px" height="12px" preserveAspectRatio="xMinYMin meet" x="345" y="-348"/>
<text text-anchor="start" x="367" y="-339.2" font-family="Helvetica,sans-Serif" font-size="11.00">configured_system_id</text>
<polygon fill="#ffffff" stroke="none" points="340,-309 340,-331 608,-331 608,-309 340,-309"/>
<polygon fill="none" stroke="black" points="340,-309 340,-331 608,-331 608,-309 340,-309"/>
<image xlink:href="../../images/foreignKeys.png" width="11px" height="12px" preserveAspectRatio="xMinYMin meet" x="345" y="-326"/>
<text text-anchor="start" x="367" y="-317.2" font-family="Helvetica,sans-Serif" font-size="11.00">configuration_tag_id</text>
<polygon fill="#ffffff" stroke="none" points="340,-291 340,-309 472,-309 472,-291 340,-291"/>
<polygon fill="none" stroke="black" points="340,-291 340,-309 472,-309 472,-291 340,-291"/>
<text text-anchor="start" x="343" y="-297.2" font-family="Helvetica,sans-Serif" font-size="11.00">&lt; 2</text>
<polygon fill="#ffffff" stroke="none" points="472,-291 472,-309 540,-309 540,-291 472,-291"/>
<polygon fill="none" stroke="black" points="472,-291 472,-309 540,-309 540,-291 472,-291"/>
<text text-anchor="start" x="530" y="-297.2" font-family="Helvetica,sans-Serif" font-size="11.00"> &#160;</text>
<polygon fill="#ffffff" stroke="none" points="540,-291 540,-309 608,-309 608,-291 540,-291"/>
<polygon fill="none" stroke="black" points="540,-291 540,-309 608,-309 608,-291 540,-291"/>
<text text-anchor="start" x="598" y="-297.2" font-family="Helvetica,sans-Serif" font-size="11.00"> &#160;</text>
</a>
</g>
</g>
<!-- configuration_tags_configured_systems&#45;&gt;configuration_tags -->
<g id="edge2" class="edge"><title>configuration_tags_configured_systems:configuration_tag_id:w&#45;&gt;configuration_tags:id.type:e</title>
<path fill="none" stroke="black" d="M324.692,-317.084C297.711,-304.563 302.524,-256 264.5,-256"/>
<polygon fill="black" stroke="black" points="331.161,-318.402 338.281,-323.527 335.081,-319.201 339,-320 339,-320 339,-320 335.081,-319.201 339.719,-316.473 331.161,-318.402 331.161,-318.402"/>
<ellipse fill="none" stroke="black" cx="328.026" cy="-317.763" rx="3.2" ry="3.2"/>
</g>
<!-- direct_configuration_profiles_configuration_tags -->
<g id="node4" class="node"><title>direct_configuration_profiles_configuration_tags</title>
<g id="a_node4"><a xlink:href="../../tables/direct_configuration_profiles_configuration_tags.html" xlink:title="direct_configuration_profiles_configuration_tags" target="_top">
<polygon fill="#ffffff" stroke="none" points="314,-164 314,-270 634,-270 634,-164 314,-164"/>
<polygon fill="#f5f5f5" stroke="none" points="314,-248 314,-270 634,-270 634,-248 314,-248"/>
<polygon fill="none" stroke="black" points="314,-248 314,-270 634,-270 634,-248 314,-248"/>
<text text-anchor="start" x="319" y="-257.2" font-family="Helvetica,sans-Serif" font-weight="bold" font-size="11.00">direct_configuration_profiles_configuration_tags</text>
<text text-anchor="start" x="595" y="-256.2" font-family="Helvetica,sans-Serif" font-size="11.00">[table]</text>
<polygon fill="none" stroke="black" points="314,-226 314,-248 634,-248 634,-226 314,-226"/>
<image xlink:href="../../images/primaryKeys.png" width="11px" height="12px" preserveAspectRatio="xMinYMin meet" x="319" y="-243"/>
<text text-anchor="start" x="340" y="-234.2" font-family="Helvetica,sans-Serif" font-size="11.00">id</text>
<polygon fill="#ffffff" stroke="none" points="314,-204 314,-226 634,-226 634,-204 314,-204"/>
<polygon fill="none" stroke="black" points="314,-204 314,-226 634,-226 634,-204 314,-204"/>
<image xlink:href="../../images/foreignKeys.png" width="11px" height="12px" preserveAspectRatio="xMinYMin meet" x="319" y="-221"/>
<text text-anchor="start" x="340" y="-212.2" font-family="Helvetica,sans-Serif" font-size="11.00">configuration_profile_id</text>
<polygon fill="#ffffff" stroke="none" points="314,-182 314,-204 634,-204 634,-182 314,-182"/>
<polygon fill="none" stroke="black" points="314,-182 314,-204 634,-204 634,-182 314,-182"/>
<image xlink:href="../../images/foreignKeys.png" width="11px" height="12px" preserveAspectRatio="xMinYMin meet" x="319" y="-199"/>
<text text-anchor="start" x="340" y="-190.2" font-family="Helvetica,sans-Serif" font-size="11.00">configuration_tag_id</text>
<polygon fill="#ffffff" stroke="none" points="314,-164 314,-182 472,-182 472,-164 314,-164"/>
<polygon fill="none" stroke="black" points="314,-164 314,-182 472,-182 472,-164 314,-164"/>
<text text-anchor="start" x="317" y="-170.2" font-family="Helvetica,sans-Serif" font-size="11.00">&lt; 2</text>
<polygon fill="#ffffff" stroke="none" points="472,-164 472,-182 553,-182 553,-164 472,-164"/>
<polygon fill="none" stroke="black" points="472,-164 472,-182 553,-182 553,-164 472,-164"/>
<text text-anchor="start" x="543" y="-170.2" font-family="Helvetica,sans-Serif" font-size="11.00"> &#160;</text>
<polygon fill="#ffffff" stroke="none" points="553,-164 553,-182 634,-182 634,-164 553,-164"/>
<polygon fill="none" stroke="black" points="553,-164 553,-182 634,-182 634,-164 553,-164"/>
<text text-anchor="start" x="624" y="-170.2" font-family="Helvetica,sans-Serif" font-size="11.00"> &#160;</text>
</a>
</g>
</g>
<!-- direct_configuration_profiles_configuration_tags&#45;&gt;configuration_tags -->
<g id="edge3" class="edge"><title>direct_configuration_profiles_configuration_tags:configuration_tag_id:w&#45;&gt;configuration_tags:id.type:e</title>
<path fill="none" stroke="black" d="M299.292,-197.944C283.587,-212.795 293.763,-256 264.5,-256"/>
<polygon fill="black" stroke="black" points="305.474,-195.714 314.221,-196.387 309.237,-194.357 313,-193 313,-193 313,-193 309.237,-194.357 311.779,-189.613 305.474,-195.714 305.474,-195.714"/>
<ellipse fill="none" stroke="black" cx="302.464" cy="-196.8" rx="3.20001" ry="3.20001"/>
</g>
<!-- direct_configuration_tags_configured_systems -->
<g id="node5" class="node"><title>direct_configuration_tags_configured_systems</title>
<g id="a_node5"><a xlink:href="../../tables/direct_configuration_tags_configured_systems.html" xlink:title="direct_configuration_tags_configured_systems" target="_top">
<polygon fill="#ffffff" stroke="none" points="320.5,-37 320.5,-143 627.5,-143 627.5,-37 320.5,-37"/>
<polygon fill="#f5f5f5" stroke="none" points="321,-121 321,-143 628,-143 628,-121 321,-121"/>
<polygon fill="none" stroke="black" points="321,-121 321,-143 628,-143 628,-121 321,-121"/>
<text text-anchor="start" x="326" y="-130.2" font-family="Helvetica,sans-Serif" font-weight="bold" font-size="11.00">direct_configuration_tags_configured_systems</text>
<text text-anchor="start" x="589" y="-129.2" font-family="Helvetica,sans-Serif" font-size="11.00">[table]</text>
<polygon fill="none" stroke="black" points="321,-99 321,-121 628,-121 628,-99 321,-99"/>
<image xlink:href="../../images/primaryKeys.png" width="11px" height="12px" preserveAspectRatio="xMinYMin meet" x="326" y="-116"/>
<text text-anchor="start" x="347" y="-107.2" font-family="Helvetica,sans-Serif" font-size="11.00">id</text>
<polygon fill="#ffffff" stroke="none" points="321,-77 321,-99 628,-99 628,-77 321,-77"/>
<polygon fill="none" stroke="black" points="321,-77 321,-99 628,-99 628,-77 321,-77"/>
<image xlink:href="../../images/foreignKeys.png" width="11px" height="12px" preserveAspectRatio="xMinYMin meet" x="326" y="-94"/>
<text text-anchor="start" x="347" y="-85.2" font-family="Helvetica,sans-Serif" font-size="11.00">configured_system_id</text>
<polygon fill="#ffffff" stroke="none" points="321,-55 321,-77 628,-77 628,-55 321,-55"/>
<polygon fill="none" stroke="black" points="321,-55 321,-77 628,-77 628,-55 321,-55"/>
<image xlink:href="../../images/foreignKeys.png" width="11px" height="12px" preserveAspectRatio="xMinYMin meet" x="326" y="-72"/>
<text text-anchor="start" x="347" y="-63.2" font-family="Helvetica,sans-Serif" font-size="11.00">configuration_tag_id</text>
<polygon fill="#ffffff" stroke="none" points="321,-37 321,-55 473,-55 473,-37 321,-37"/>
<polygon fill="none" stroke="black" points="321,-37 321,-55 473,-55 473,-37 321,-37"/>
<text text-anchor="start" x="324" y="-43.2" font-family="Helvetica,sans-Serif" font-size="11.00">&lt; 2</text>
<polygon fill="#ffffff" stroke="none" points="473,-37 473,-55 550,-55 550,-37 473,-37"/>
<polygon fill="none" stroke="black" points="473,-37 473,-55 550,-55 550,-37 473,-37"/>
<text text-anchor="start" x="540" y="-43.2" font-family="Helvetica,sans-Serif" font-size="11.00"> &#160;</text>
<polygon fill="#ffffff" stroke="none" points="550,-37 550,-55 628,-55 628,-37 550,-37"/>
<polygon fill="none" stroke="black" points="550,-37 550,-55 628,-55 628,-37 550,-37"/>
<text text-anchor="start" x="618" y="-43.2" font-family="Helvetica,sans-Serif" font-size="11.00"> &#160;</text>
</a>
</g>
</g>
<!-- direct_configuration_tags_configured_systems&#45;&gt;configuration_tags -->
<g id="edge4" class="edge"><title>direct_configuration_tags_configured_systems:configuration_tag_id:w&#45;&gt;configuration_tags:id.type:e</title>
<path fill="none" stroke="black" d="M305.475,-68.2662C246.687,-89.7029 346.803,-256 264.5,-256"/>
<polygon fill="black" stroke="black" points="312.096,-67.2333 320.555,-69.557 316.048,-66.6166 320,-66 320,-66 320,-66 316.048,-66.6166 319.445,-62.443 312.096,-67.2333 312.096,-67.2333"/>
<ellipse fill="none" stroke="black" cx="308.934" cy="-67.7266" rx="3.2" ry="3.2"/>
</g>
</g>
</svg>
