<?xml version="1.0" encoding="UTF-8" standalone="no"?>
<!DOCTYPE svg PUBLIC "-//W3C//DTD SVG 1.1//EN"
 "http://www.w3.org/Graphics/SVG/1.1/DTD/svg11.dtd">
<!-- Generated by graphviz version 2.38.0 (20140413.2041)
 -->
<!-- Title: twoDegreesRelationshipsDiagram Pages: 1 -->
<svg width="871pt" height="544pt"
 viewBox="0.00 0.00 871.00 544.00" xmlns="http://www.w3.org/2000/svg" xmlns:xlink="http://www.w3.org/1999/xlink">
<g id="graph0" class="graph" transform="scale(1 1) rotate(0) translate(4 540)">
<title>twoDegreesRelationshipsDiagram</title>
<polygon fill="#ffffff" stroke="none" points="-4,4 -4,-540 867,-540 867,4 -4,4"/>
<text text-anchor="middle" x="74.5" y="-7.2" font-family="Helvetica,sans-Serif" font-size="11.00">Generated by SchemaSpy</text>
<!-- configuration_profiles_configuration_tags -->
<g id="node1" class="node"><title>configuration_profiles_configuration_tags</title>
<g id="a_node1"><a xlink:href="../../tables/configuration_profiles_configuration_tags.html" xlink:title="configuration_profiles_configuration_tags" target="_top">
<polygon fill="#ffffff" stroke="none" points="554.5,-426 554.5,-532 835.5,-532 835.5,-426 554.5,-426"/>
<polygon fill="#f5f5f5" stroke="none" points="555,-510 555,-532 836,-532 836,-510 555,-510"/>
<polygon fill="none" stroke="black" points="555,-510 555,-532 836,-532 836,-510 555,-510"/>
<text text-anchor="start" x="560" y="-519.2" font-family="Helvetica,sans-Serif" font-weight="bold" font-size="11.00">configuration_profiles_configuration_tags</text>
<text text-anchor="start" x="797" y="-518.2" font-family="Helvetica,sans-Serif" font-size="11.00">[table]</text>
<polygon fill="none" stroke="black" points="555,-488 555,-510 836,-510 836,-488 555,-488"/>
<image xlink:href="../../images/primaryKeys.png" width="11px" height="12px" preserveAspectRatio="xMinYMin meet" x="560" y="-505"/>
<text text-anchor="start" x="581" y="-496.2" font-family="Helvetica,sans-Serif" font-size="11.00">id</text>
<polygon fill="#ffffff" stroke="none" points="555,-466 555,-488 836,-488 836,-466 555,-466"/>
<polygon fill="none" stroke="black" points="555,-466 555,-488 836,-488 836,-466 555,-466"/>
<image xlink:href="../../images/foreignKeys.png" width="11px" height="12px" preserveAspectRatio="xMinYMin meet" x="560" y="-483"/>
<text text-anchor="start" x="581" y="-474.2" font-family="Helvetica,sans-Serif" font-size="11.00">configuration_profile_id</text>
<polygon fill="#ffffff" stroke="none" points="555,-444 555,-466 836,-466 836,-444 555,-444"/>
<polygon fill="none" stroke="black" points="555,-444 555,-466 836,-466 836,-444 555,-444"/>
<image xlink:href="../../images/foreignKeys.png" width="11px" height="12px" preserveAspectRatio="xMinYMin meet" x="560" y="-461"/>
<text text-anchor="start" x="581" y="-452.2" font-family="Helvetica,sans-Serif" font-size="11.00">configuration_tag_id</text>
<polygon fill="#ffffff" stroke="none" points="555,-426 555,-444 694,-444 694,-426 555,-426"/>
<polygon fill="none" stroke="black" points="555,-426 555,-444 694,-444 694,-426 555,-426"/>
<text text-anchor="start" x="558" y="-432.2" font-family="Helvetica,sans-Serif" font-size="11.00">&lt; 2</text>
<polygon fill="#ffffff" stroke="none" points="694,-426 694,-444 765,-444 765,-426 694,-426"/>
<polygon fill="none" stroke="black" points="694,-426 694,-444 765,-444 765,-426 694,-426"/>
<text text-anchor="start" x="755" y="-432.2" font-family="Helvetica,sans-Serif" font-size="11.00"> &#160;</text>
<polygon fill="#ffffff" stroke="none" points="765,-426 765,-444 836,-444 836,-426 765,-426"/>
<polygon fill="none" stroke="black" points="765,-426 765,-444 836,-444 836,-426 765,-426"/>
<text text-anchor="start" x="826" y="-432.2" font-family="Helvetica,sans-Serif" font-size="11.00"> &#160;</text>
</a>
</g>
</g>
<!-- configuration_profiles -->
<g id="node2" class="node"><title>configuration_profiles</title>
<g id="a_node2"><a xlink:href="../../tables/configuration_profiles.html" xlink:title="configuration_profiles" target="_top">
<polygon fill="#ffffff" stroke="none" points="8,-327 8,-385 180,-385 180,-327 8,-327"/>
<polygon fill="#f5f5f5" stroke="none" points="8,-363 8,-385 180,-385 180,-363 8,-363"/>
<polygon fill="none" stroke="black" points="8,-363 8,-385 180,-385 180,-363 8,-363"/>
<text text-anchor="start" x="13" y="-372.2" font-family="Helvetica,sans-Serif" font-weight="bold" font-size="11.00">configuration_profiles</text>
<text text-anchor="start" x="141" y="-371.2" font-family="Helvetica,sans-Serif" font-size="11.00">[table]</text>
<polygon fill="none" stroke="black" points="8,-345 8,-363 180,-363 180,-345 8,-345"/>
<text text-anchor="start" x="11" y="-351.2" font-family="Helvetica,sans-Serif" font-size="11.00">...</text>
<polygon fill="#ffffff" stroke="none" points="8,-327 8,-345 87,-345 87,-327 8,-327"/>
<polygon fill="none" stroke="black" points="8,-327 8,-345 87,-345 87,-327 8,-327"/>
<text text-anchor="start" x="11" y="-333.2" font-family="Helvetica,sans-Serif" font-size="11.00">&lt; 1</text>
<polygon fill="#ffffff" stroke="none" points="87,-327 87,-345 128,-345 128,-327 87,-327"/>
<polygon fill="none" stroke="black" points="87,-327 87,-345 128,-345 128,-327 87,-327"/>
<text text-anchor="start" x="118" y="-333.2" font-family="Helvetica,sans-Serif" font-size="11.00"> &#160;</text>
<polygon fill="#ffffff" stroke="none" points="128,-327 128,-345 180,-345 180,-327 128,-327"/>
<polygon fill="none" stroke="black" points="128,-327 128,-345 180,-345 180,-327 128,-327"/>
<text text-anchor="start" x="160" y="-333.2" font-family="Helvetica,sans-Serif" font-size="11.00">5 &gt;</text>
</a>
</g>
</g>
<!-- configuration_profiles_configuration_tags&#45;&gt;configuration_profiles -->
<g id="edge1" class="edge"><title>configuration_profiles_configuration_tags:configuration_profile_id:w&#45;&gt;configuration_profiles:elipses:e</title>
<path fill="none" stroke="black" d="M539.59,-476.983C398.452,-476.619 348.614,-469.78 221,-396 198.683,-383.098 206.778,-354 181,-354"/>
<polygon fill="black" stroke="black" points="546,-476.99 553.996,-480.6 550,-476.995 554,-477 554,-477 554,-477 550,-476.995 554.004,-473.4 546,-476.99 546,-476.99"/>
<ellipse fill="none" stroke="black" cx="542.8" cy="-476.987" rx="3.2" ry="3.2"/>
</g>
<!-- configuration_tags -->
<g id="node3" class="node"><title>configuration_tags</title>
<g id="a_node3"><a xlink:href="../../tables/configuration_tags.html" xlink:title="configuration_tags" target="_top">
<polygon fill="#ffffff" stroke="none" points="229,-108 229,-306 486,-306 486,-108 229,-108"/>
<polygon fill="#f5f5f5" stroke="none" points="231.5,-282 231.5,-304 484.5,-304 484.5,-282 231.5,-282"/>
<polygon fill="none" stroke="black" points="231.5,-282 231.5,-304 484.5,-304 484.5,-282 231.5,-282"/>
<text text-anchor="start" x="236.5" y="-291.2" font-family="Helvetica,sans-Serif" font-weight="bold" font-size="11.00">configuration_tags</text>
<text text-anchor="start" x="445.5" y="-290.2" font-family="Helvetica,sans-Serif" font-size="11.00">[table]</text>
<polygon fill="none" stroke="black" points="231.5,-260 231.5,-282 363.5,-282 363.5,-260 231.5,-260"/>
<image xlink:href="../../images/primaryKeys.png" width="11px" height="12px" preserveAspectRatio="xMinYMin meet" x="236.5" y="-277"/>
<text text-anchor="start" x="251.5" y="-268.2" font-family="Helvetica,sans-Serif" font-size="11.00">id</text>
<polygon fill="none" stroke="black" points="363.5,-260 363.5,-282 484.5,-282 484.5,-260 363.5,-260"/>
<text text-anchor="start" x="366.5" y="-268.2" font-family="Helvetica,sans-Serif" font-size="11.00">bigserial[19]</text>
<polygon fill="#ffffff" stroke="none" points="231.5,-238 231.5,-260 363.5,-260 363.5,-238 231.5,-238"/>
<polygon fill="none" stroke="black" points="231.5,-238 231.5,-260 363.5,-260 363.5,-238 231.5,-238"/>
<text text-anchor="start" x="251.5" y="-246.2" font-family="Helvetica,sans-Serif" font-size="11.00">type</text>
<polygon fill="none" stroke="black" points="363.5,-238 363.5,-260 484.5,-260 484.5,-238 363.5,-238"/>
<text text-anchor="start" x="366.5" y="-246.2" font-family="Helvetica,sans-Serif" font-size="11.00">varchar[2147483647]</text>
<polygon fill="none" stroke="black" points="231.5,-216 231.5,-238 363.5,-238 363.5,-216 231.5,-216"/>
<text text-anchor="start" x="251.5" y="-224.2" font-family="Helvetica,sans-Serif" font-size="11.00">manager_ref</text>
<polygon fill="none" stroke="black" points="363.5,-216 363.5,-238 484.5,-238 484.5,-216 363.5,-216"/>
<text text-anchor="start" x="366.5" y="-224.2" font-family="Helvetica,sans-Serif" font-size="11.00">varchar[2147483647]</text>
<polygon fill="none" stroke="black" points="231.5,-194 231.5,-216 363.5,-216 363.5,-194 231.5,-194"/>
<text text-anchor="start" x="251.5" y="-202.2" font-family="Helvetica,sans-Serif" font-size="11.00">name</text>
<polygon fill="none" stroke="black" points="363.5,-194 363.5,-216 484.5,-216 484.5,-194 363.5,-194"/>
<text text-anchor="start" x="366.5" y="-202.2" font-family="Helvetica,sans-Serif" font-size="11.00">varchar[2147483647]</text>
<polygon fill="none" stroke="black" points="231.5,-172 231.5,-194 363.5,-194 363.5,-172 231.5,-172"/>
<text text-anchor="start" x="251.5" y="-180.2" font-family="Helvetica,sans-Serif" font-size="11.00">manager_id</text>
<polygon fill="none" stroke="black" points="363.5,-172 363.5,-194 484.5,-194 484.5,-172 363.5,-172"/>
<text text-anchor="start" x="366.5" y="-180.2" font-family="Helvetica,sans-Serif" font-size="11.00">int8[19]</text>
<polygon fill="none" stroke="black" points="231.5,-150 231.5,-172 363.5,-172 363.5,-150 231.5,-150"/>
<text text-anchor="start" x="251.5" y="-158.2" font-family="Helvetica,sans-Serif" font-size="11.00">created_at</text>
<polygon fill="none" stroke="black" points="363.5,-150 363.5,-172 484.5,-172 484.5,-150 363.5,-150"/>
<text text-anchor="start" x="366.5" y="-158.2" font-family="Helvetica,sans-Serif" font-size="11.00">timestamp[29,6]</text>
<polygon fill="none" stroke="black" points="231.5,-128 231.5,-150 363.5,-150 363.5,-128 231.5,-128"/>
<text text-anchor="start" x="251.5" y="-136.2" font-family="Helvetica,sans-Serif" font-size="11.00">updated_at</text>
<polygon fill="none" stroke="black" points="363.5,-128 363.5,-150 484.5,-150 484.5,-128 363.5,-128"/>
<text text-anchor="start" x="366.5" y="-136.2" font-family="Helvetica,sans-Serif" font-size="11.00">timestamp[29,6]</text>
<polygon fill="#ffffff" stroke="none" points="231.5,-110 231.5,-128 302.5,-128 302.5,-110 231.5,-110"/>
<polygon fill="none" stroke="black" points="231.5,-110 231.5,-128 302.5,-128 302.5,-110 231.5,-110"/>
<text text-anchor="start" x="234.5" y="-116.2" font-family="Helvetica,sans-Serif" font-size="11.00">&lt; 0</text>
<polygon fill="#ffffff" stroke="none" points="302.5,-110 302.5,-128 363.5,-128 363.5,-110 302.5,-110"/>
<polygon fill="none" stroke="black" points="302.5,-110 302.5,-128 363.5,-128 363.5,-110 302.5,-110"/>
<text text-anchor="start" x="353.5" y="-116.2" font-family="Helvetica,sans-Serif" font-size="11.00"> &#160;</text>
<polygon fill="#ffffff" stroke="none" points="363.5,-110 363.5,-128 484.5,-128 484.5,-110 363.5,-110"/>
<polygon fill="none" stroke="black" points="363.5,-110 363.5,-128 484.5,-128 484.5,-110 363.5,-110"/>
<text text-anchor="start" x="464.5" y="-116.2" font-family="Helvetica,sans-Serif" font-size="11.00">4 &gt;</text>
<polygon fill="none" stroke="black" stroke-width="2" points="230,-109 230,-305 485,-305 485,-109 230,-109"/>
</a>
</g>
</g>
<!-- configuration_profiles_configuration_tags&#45;&gt;configuration_tags -->
<g id="edge2" class="edge"><title>configuration_profiles_configuration_tags:configuration_tag_id:w&#45;&gt;configuration_tags:id.type:e</title>
<path fill="none" stroke="black" d="M539.433,-452.805C479.603,-432.046 567.137,-271 485.5,-271"/>
<polygon fill="black" stroke="black" points="546.089,-453.808 553.464,-458.56 550.045,-454.404 554,-455 554,-455 554,-455 550.045,-454.404 554.536,-451.44 546.089,-453.808 546.089,-453.808"/>
<ellipse fill="none" stroke="black" cx="542.925" cy="-453.331" rx="3.2" ry="3.2"/>
</g>
<!-- configuration_tags_configured_systems -->
<g id="node4" class="node"><title>configuration_tags_configured_systems</title>
<g id="a_node4"><a xlink:href="../../tables/configuration_tags_configured_systems.html" xlink:title="configuration_tags_configured_systems" target="_top">
<polygon fill="#ffffff" stroke="none" points="561,-299 561,-405 829,-405 829,-299 561,-299"/>
<polygon fill="#f5f5f5" stroke="none" points="561,-383 561,-405 829,-405 829,-383 561,-383"/>
<polygon fill="none" stroke="black" points="561,-383 561,-405 829,-405 829,-383 561,-383"/>
<text text-anchor="start" x="566" y="-392.2" font-family="Helvetica,sans-Serif" font-weight="bold" font-size="11.00">configuration_tags_configured_systems</text>
<text text-anchor="start" x="790" y="-391.2" font-family="Helvetica,sans-Serif" font-size="11.00">[table]</text>
<polygon fill="none" stroke="black" points="561,-361 561,-383 829,-383 829,-361 561,-361"/>
<image xlink:href="../../images/primaryKeys.png" width="11px" height="12px" preserveAspectRatio="xMinYMin meet" x="566" y="-378"/>
<text text-anchor="start" x="588" y="-369.2" font-family="Helvetica,sans-Serif" font-size="11.00">id</text>
<polygon fill="#ffffff" stroke="none" points="561,-339 561,-361 829,-361 829,-339 561,-339"/>
<polygon fill="none" stroke="black" points="561,-339 561,-361 829,-361 829,-339 561,-339"/>
<image xlink:href="../../images/foreignKeys.png" width="11px" height="12px" preserveAspectRatio="xMinYMin meet" x="566" y="-356"/>
<text text-anchor="start" x="588" y="-347.2" font-family="Helvetica,sans-Serif" font-size="11.00">configured_system_id</text>
<polygon fill="#ffffff" stroke="none" points="561,-317 561,-339 829,-339 829,-317 561,-317"/>
<polygon fill="none" stroke="black" points="561,-317 561,-339 829,-339 829,-317 561,-317"/>
<image xlink:href="../../images/foreignKeys.png" width="11px" height="12px" preserveAspectRatio="xMinYMin meet" x="566" y="-334"/>
<text text-anchor="start" x="588" y="-325.2" font-family="Helvetica,sans-Serif" font-size="11.00">configuration_tag_id</text>
<polygon fill="#ffffff" stroke="none" points="561,-299 561,-317 693,-317 693,-299 561,-299"/>
<polygon fill="none" stroke="black" points="561,-299 561,-317 693,-317 693,-299 561,-299"/>
<text text-anchor="start" x="564" y="-305.2" font-family="Helvetica,sans-Serif" font-size="11.00">&lt; 2</text>
<polygon fill="#ffffff" stroke="none" points="693,-299 693,-317 761,-317 761,-299 693,-299"/>
<polygon fill="none" stroke="black" points="693,-299 693,-317 761,-317 761,-299 693,-299"/>
<text text-anchor="start" x="751" y="-305.2" font-family="Helvetica,sans-Serif" font-size="11.00"> &#160;</text>
<polygon fill="#ffffff" stroke="none" points="761,-299 761,-317 829,-317 829,-299 761,-299"/>
<polygon fill="none" stroke="black" points="761,-299 761,-317 829,-317 829,-299 761,-299"/>
<text text-anchor="start" x="819" y="-305.2" font-family="Helvetica,sans-Serif" font-size="11.00"> &#160;</text>
</a>
</g>
</g>
<!-- configuration_tags_configured_systems&#45;&gt;configuration_tags -->
<g id="edge3" class="edge"><title>configuration_tags_configured_systems:configuration_tag_id:w&#45;&gt;configuration_tags:id.type:e</title>
<path fill="none" stroke="black" d="M545.828,-325.251C519.776,-313.865 521.654,-271 485.5,-271"/>
<polygon fill="black" stroke="black" points="552.146,-326.476 559.314,-331.534 556.073,-327.238 560,-328 560,-328 560,-328 556.073,-327.238 560.686,-324.466 552.146,-326.476 552.146,-326.476"/>
<ellipse fill="none" stroke="black" cx="549.005" cy="-325.867" rx="3.2" ry="3.2"/>
</g>
<!-- configured_systems -->
<g id="node5" class="node"><title>configured_systems</title>
<g id="a_node5"><a xlink:href="../../tables/configured_systems.html" xlink:title="configured_systems" target="_top">
<polygon fill="#ffffff" stroke="none" points="277.5,-327 277.5,-385 437.5,-385 437.5,-327 277.5,-327"/>
<polygon fill="#f5f5f5" stroke="none" points="277.5,-363 277.5,-385 437.5,-385 437.5,-363 277.5,-363"/>
<polygon fill="none" stroke="black" points="277.5,-363 277.5,-385 437.5,-385 437.5,-363 277.5,-363"/>
<text text-anchor="start" x="282.5" y="-372.2" font-family="Helvetica,sans-Serif" font-weight="bold" font-size="11.00">configured_systems</text>
<text text-anchor="start" x="398.5" y="-371.2" font-family="Helvetica,sans-Serif" font-size="11.00">[table]</text>
<polygon fill="none" stroke="black" points="277.5,-345 277.5,-363 437.5,-363 437.5,-345 277.5,-345"/>
<text text-anchor="start" x="280.5" y="-351.2" font-family="Helvetica,sans-Serif" font-size="11.00">...</text>
<polygon fill="#ffffff" stroke="none" points="277.5,-327 277.5,-345 350.5,-345 350.5,-327 277.5,-327"/>
<polygon fill="none" stroke="black" points="277.5,-327 277.5,-345 350.5,-345 350.5,-327 277.5,-327"/>
<text text-anchor="start" x="280.5" y="-333.2" font-family="Helvetica,sans-Serif" font-size="11.00">&lt; 5</text>
<polygon fill="#ffffff" stroke="none" points="350.5,-327 350.5,-345 388.5,-345 388.5,-327 350.5,-327"/>
<polygon fill="none" stroke="black" points="350.5,-327 350.5,-345 388.5,-345 388.5,-327 350.5,-327"/>
<text text-anchor="start" x="378.5" y="-333.2" font-family="Helvetica,sans-Serif" font-size="11.00"> &#160;</text>
<polygon fill="#ffffff" stroke="none" points="388.5,-327 388.5,-345 437.5,-345 437.5,-327 388.5,-327"/>
<polygon fill="none" stroke="black" points="388.5,-327 388.5,-345 437.5,-345 437.5,-327 388.5,-327"/>
<text text-anchor="start" x="417.5" y="-333.2" font-family="Helvetica,sans-Serif" font-size="11.00">2 &gt;</text>
</a>
</g>
</g>
<!-- configuration_tags_configured_systems&#45;&gt;configured_systems -->
<g id="edge4" class="edge"><title>configuration_tags_configured_systems:configured_system_id:w&#45;&gt;configured_systems:elipses:e</title>
<path fill="none" stroke="black" d="M545.532,-350.103C503.026,-350.729 487.358,-354 438.5,-354"/>
<polygon fill="black" stroke="black" points="552,-350.057 560.026,-353.6 556,-350.028 560,-350 560,-350 560,-350 556,-350.028 559.974,-346.4 552,-350.057 552,-350.057"/>
<ellipse fill="none" stroke="black" cx="548.8" cy="-350.08" rx="3.2" ry="3.2"/>
</g>
<!-- configured_systems&#45;&gt;configuration_profiles -->
<g id="edge5" class="edge"><title>configured_systems:elipses:w&#45;&gt;configuration_profiles:elipses:e</title>
<path fill="none" stroke="black" d="M261.951,-354C230.905,-354 218.139,-354 181,-354"/>
<polygon fill="black" stroke="black" points="268.5,-354 276.5,-357.6 272.5,-354 276.5,-354 276.5,-354 276.5,-354 272.5,-354 276.5,-350.4 268.5,-354 268.5,-354"/>
<ellipse fill="none" stroke="black" cx="265.3" cy="-354" rx="3.2" ry="3.2"/>
</g>
<!-- direct_configuration_profiles_configuration_tags -->
<g id="node6" class="node"><title>direct_configuration_profiles_configuration_tags</title>
<g id="a_node6"><a xlink:href="../../tables/direct_configuration_profiles_configuration_tags.html" xlink:title="direct_configuration_profiles_configuration_tags" target="_top">
<polygon fill="#ffffff" stroke="none" points="535,-37 535,-143 855,-143 855,-37 535,-37"/>
<polygon fill="#f5f5f5" stroke="none" points="535,-121 535,-143 855,-143 855,-121 535,-121"/>
<polygon fill="none" stroke="black" points="535,-121 535,-143 855,-143 855,-121 535,-121"/>
<text text-anchor="start" x="540" y="-130.2" font-family="Helvetica,sans-Serif" font-weight="bold" font-size="11.00">direct_configuration_profiles_configuration_tags</text>
<text text-anchor="start" x="816" y="-129.2" font-family="Helvetica,sans-Serif" font-size="11.00">[table]</text>
<polygon fill="none" stroke="black" points="535,-99 535,-121 855,-121 855,-99 535,-99"/>
<image xlink:href="../../images/primaryKeys.png" width="11px" height="12px" preserveAspectRatio="xMinYMin meet" x="540" y="-116"/>
<text text-anchor="start" x="561" y="-107.2" font-family="Helvetica,sans-Serif" font-size="11.00">id</text>
<polygon fill="#ffffff" stroke="none" points="535,-77 535,-99 855,-99 855,-77 535,-77"/>
<polygon fill="none" stroke="black" points="535,-77 535,-99 855,-99 855,-77 535,-77"/>
<image xlink:href="../../images/foreignKeys.png" width="11px" height="12px" preserveAspectRatio="xMinYMin meet" x="540" y="-94"/>
<text text-anchor="start" x="561" y="-85.2" font-family="Helvetica,sans-Serif" font-size="11.00">configuration_profile_id</text>
<polygon fill="#ffffff" stroke="none" points="535,-55 535,-77 855,-77 855,-55 535,-55"/>
<polygon fill="none" stroke="black" points="535,-55 535,-77 855,-77 855,-55 535,-55"/>
<image xlink:href="../../images/foreignKeys.png" width="11px" height="12px" preserveAspectRatio="xMinYMin meet" x="540" y="-72"/>
<text text-anchor="start" x="561" y="-63.2" font-family="Helvetica,sans-Serif" font-size="11.00">configuration_tag_id</text>
<polygon fill="#ffffff" stroke="none" points="535,-37 535,-55 693,-55 693,-37 535,-37"/>
<polygon fill="none" stroke="black" points="535,-37 535,-55 693,-55 693,-37 535,-37"/>
<text text-anchor="start" x="538" y="-43.2" font-family="Helvetica,sans-Serif" font-size="11.00">&lt; 2</text>
<polygon fill="#ffffff" stroke="none" points="693,-37 693,-55 774,-55 774,-37 693,-37"/>
<polygon fill="none" stroke="black" points="693,-37 693,-55 774,-55 774,-37 693,-37"/>
<text text-anchor="start" x="764" y="-43.2" font-family="Helvetica,sans-Serif" font-size="11.00"> &#160;</text>
<polygon fill="#ffffff" stroke="none" points="774,-37 774,-55 855,-55 855,-37 774,-37"/>
<polygon fill="none" stroke="black" points="774,-37 774,-55 855,-55 855,-37 774,-37"/>
<text text-anchor="start" x="845" y="-43.2" font-family="Helvetica,sans-Serif" font-size="11.00"> &#160;</text>
</a>
</g>
</g>
<!-- direct_configuration_profiles_configuration_tags&#45;&gt;configuration_profiles -->
<g id="edge6" class="edge"><title>direct_configuration_profiles_configuration_tags:configuration_profile_id:w&#45;&gt;configuration_profiles:elipses:e</title>
<path fill="none" stroke="black" d="M519.576,-87.7033C389.906,-82.378 321.722,-8.20138 221,-97 177.645,-135.223 238.799,-354 181,-354"/>
<polygon fill="black" stroke="black" points="526.002,-87.8354 533.926,-91.5992 530.001,-87.9177 534,-88 534,-88 534,-88 530.001,-87.9177 534.074,-84.4008 526.002,-87.8354 526.002,-87.8354"/>
<ellipse fill="none" stroke="black" cx="522.802" cy="-87.7696" rx="3.2" ry="3.2"/>
</g>
<!-- direct_configuration_profiles_configuration_tags&#45;&gt;configuration_tags -->
<g id="edge7" class="edge"><title>direct_configuration_profiles_configuration_tags:configuration_tag_id:w&#45;&gt;configuration_tags:id.type:e</title>
<path fill="none" stroke="black" d="M519.446,-68.1635C456.324,-90.0727 573.457,-271 485.5,-271"/>
<polygon fill="black" stroke="black" points="526.087,-67.1764 534.529,-69.5609 530.043,-66.5882 534,-66 534,-66 534,-66 530.043,-66.5882 533.471,-62.4391 526.087,-67.1764 526.087,-67.1764"/>
<ellipse fill="none" stroke="black" cx="522.922" cy="-67.6469" rx="3.2" ry="3.2"/>
</g>
<!-- direct_configuration_tags_configured_systems -->
<g id="node7" class="node"><title>direct_configuration_tags_configured_systems</title>
<g id="a_node7"><a xlink:href="../../tables/direct_configuration_tags_configured_systems.html" xlink:title="direct_configuration_tags_configured_systems" target="_top">
<polygon fill="#ffffff" stroke="none" points="541.5,-172 541.5,-278 848.5,-278 848.5,-172 541.5,-172"/>
<polygon fill="#f5f5f5" stroke="none" points="542,-256 542,-278 849,-278 849,-256 542,-256"/>
<polygon fill="none" stroke="black" points="542,-256 542,-278 849,-278 849,-256 542,-256"/>
<text text-anchor="start" x="547" y="-265.2" font-family="Helvetica,sans-Serif" font-weight="bold" font-size="11.00">direct_configuration_tags_configured_systems</text>
<text text-anchor="start" x="810" y="-264.2" font-family="Helvetica,sans-Serif" font-size="11.00">[table]</text>
<polygon fill="none" stroke="black" points="542,-234 542,-256 849,-256 849,-234 542,-234"/>
<image xlink:href="../../images/primaryKeys.png" width="11px" height="12px" preserveAspectRatio="xMinYMin meet" x="547" y="-251"/>
<text text-anchor="start" x="568" y="-242.2" font-family="Helvetica,sans-Serif" font-size="11.00">id</text>
<polygon fill="#ffffff" stroke="none" points="542,-212 542,-234 849,-234 849,-212 542,-212"/>
<polygon fill="none" stroke="black" points="542,-212 542,-234 849,-234 849,-212 542,-212"/>
<image xlink:href="../../images/foreignKeys.png" width="11px" height="12px" preserveAspectRatio="xMinYMin meet" x="547" y="-229"/>
<text text-anchor="start" x="568" y="-220.2" font-family="Helvetica,sans-Serif" font-size="11.00">configured_system_id</text>
<polygon fill="#ffffff" stroke="none" points="542,-190 542,-212 849,-212 849,-190 542,-190"/>
<polygon fill="none" stroke="black" points="542,-190 542,-212 849,-212 849,-190 542,-190"/>
<image xlink:href="../../images/foreignKeys.png" width="11px" height="12px" preserveAspectRatio="xMinYMin meet" x="547" y="-207"/>
<text text-anchor="start" x="568" y="-198.2" font-family="Helvetica,sans-Serif" font-size="11.00">configuration_tag_id</text>
<polygon fill="#ffffff" stroke="none" points="542,-172 542,-190 694,-190 694,-172 542,-172"/>
<polygon fill="none" stroke="black" points="542,-172 542,-190 694,-190 694,-172 542,-172"/>
<text text-anchor="start" x="545" y="-178.2" font-family="Helvetica,sans-Serif" font-size="11.00">&lt; 2</text>
<polygon fill="#ffffff" stroke="none" points="694,-172 694,-190 771,-190 771,-172 694,-172"/>
<polygon fill="none" stroke="black" points="694,-172 694,-190 771,-190 771,-172 694,-172"/>
<text text-anchor="start" x="761" y="-178.2" font-family="Helvetica,sans-Serif" font-size="11.00"> &#160;</text>
<polygon fill="#ffffff" stroke="none" points="771,-172 771,-190 849,-190 849,-172 771,-172"/>
<polygon fill="none" stroke="black" points="771,-172 771,-190 849,-190 849,-172 771,-172"/>
<text text-anchor="start" x="839" y="-178.2" font-family="Helvetica,sans-Serif" font-size="11.00"> &#160;</text>
</a>
</g>
</g>
<!-- direct_configuration_tags_configured_systems&#45;&gt;configuration_tags -->
<g id="edge8" class="edge"><title>direct_configuration_tags_configured_systems:configuration_tag_id:w&#45;&gt;configuration_tags:id.type:e</title>
<path fill="none" stroke="black" d="M527.108,-205.169C506.992,-220.239 519.31,-271 485.5,-271"/>
<polygon fill="black" stroke="black" points="533.338,-203.3 542.035,-204.448 537.169,-202.15 541,-201 541,-201 541,-201 537.169,-202.15 539.965,-197.552 533.338,-203.3 533.338,-203.3"/>
<ellipse fill="none" stroke="black" cx="530.273" cy="-204.22" rx="3.20001" ry="3.20001"/>
</g>
<!-- direct_configuration_tags_configured_systems&#45;&gt;configured_systems -->
<g id="edge9" class="edge"><title>direct_configuration_tags_configured_systems:configured_system_id:w&#45;&gt;configured_systems:elipses:e</title>
<path fill="none" stroke="black" d="M526.494,-225.763C501.163,-237.808 520.927,-286.497 494,-317 474.38,-339.225 468.146,-354 438.5,-354"/>
<polygon fill="black" stroke="black" points="533.141,-224.497 541.674,-226.536 537.071,-223.748 541,-223 541,-223 541,-223 537.071,-223.748 540.326,-219.464 533.141,-224.497 533.141,-224.497"/>
<ellipse fill="none" stroke="black" cx="529.998" cy="-225.095" rx="3.2" ry="3.2"/>
</g>
</g>
</svg>
