<?xml version="1.0" encoding="UTF-8" standalone="no"?>
<!DOCTYPE svg PUBLIC "-//W3C//DTD SVG 1.1//EN"
 "http://www.w3.org/Graphics/SVG/1.1/DTD/svg11.dtd">
<!-- Generated by graphviz version 2.38.0 (20140413.2041)
 -->
<!-- Title: twoDegreesRelationshipsDiagram Pages: 1 -->
<svg width="984pt" height="461pt"
 viewBox="0.00 0.00 984.00 461.00" xmlns="http://www.w3.org/2000/svg" xmlns:xlink="http://www.w3.org/1999/xlink">
<g id="graph0" class="graph" transform="scale(1 1) rotate(0) translate(4 457)">
<title>twoDegreesRelationshipsDiagram</title>
<polygon fill="#ffffff" stroke="none" points="-4,4 -4,-457 980,-457 980,4 -4,4"/>
<text text-anchor="middle" x="74.5" y="-7.2" font-family="Helvetica,sans-Serif" font-size="11.00">Generated by SchemaSpy</text>
<!-- configuration_script_sources -->
<g id="node1" class="node"><title>configuration_script_sources</title>
<g id="a_node1"><a xlink:href="../../tables/configuration_script_sources.html" xlink:title="configuration_script_sources" target="_top">
<polygon fill="#ffffff" stroke="none" points="382,-37 382,-183 592,-183 592,-37 382,-37"/>
<polygon fill="#f5f5f5" stroke="none" points="382,-161 382,-183 592,-183 592,-161 382,-161"/>
<polygon fill="none" stroke="black" points="382,-161 382,-183 592,-183 592,-161 382,-161"/>
<text text-anchor="start" x="387" y="-170.2" font-family="Helvetica,sans-Serif" font-weight="bold" font-size="11.00">configuration_script_sources</text>
<text text-anchor="start" x="553" y="-169.2" font-family="Helvetica,sans-Serif" font-size="11.00">[table]</text>
<polygon fill="none" stroke="black" points="382,-139 382,-161 592,-161 592,-139 382,-139"/>
<image xlink:href="../../images/primaryKeys.png" width="11px" height="12px" preserveAspectRatio="xMinYMin meet" x="387" y="-156"/>
<text text-anchor="start" x="411" y="-147.2" font-family="Helvetica,sans-Serif" font-size="11.00">id</text>
<polygon fill="#ffffff" stroke="none" points="382,-117 382,-139 592,-139 592,-117 382,-117"/>
<polygon fill="none" stroke="black" points="382,-117 382,-139 592,-139 592,-117 382,-117"/>
<text text-anchor="start" x="411" y="-125.2" font-family="Helvetica,sans-Serif" font-size="11.00">manager_id</text>
<polygon fill="none" stroke="black" points="382,-95 382,-117 592,-117 592,-95 382,-95"/>
<image xlink:href="../../images/foreignKeys.png" width="11px" height="12px" preserveAspectRatio="xMinYMin meet" x="387" y="-112"/>
<text text-anchor="start" x="411" y="-103.2" font-family="Helvetica,sans-Serif" font-size="11.00">authentication_id</text>
<polygon fill="none" stroke="black" points="382,-73 382,-95 592,-95 592,-73 382,-73"/>
<image xlink:href="../../images/foreignKeys.png" width="11px" height="12px" preserveAspectRatio="xMinYMin meet" x="387" y="-90"/>
<text text-anchor="start" x="411" y="-81.2" font-family="Helvetica,sans-Serif" font-size="11.00">git_repository_id</text>
<polygon fill="none" stroke="black" points="382,-55 382,-73 592,-73 592,-55 382,-55"/>
<text text-anchor="start" x="385" y="-61.2" font-family="Helvetica,sans-Serif" font-size="11.00">...</text>
<polygon fill="#ffffff" stroke="none" points="382,-37 382,-55 480,-55 480,-37 382,-37"/>
<polygon fill="none" stroke="black" points="382,-37 382,-55 480,-55 480,-37 382,-37"/>
<text text-anchor="start" x="385" y="-43.2" font-family="Helvetica,sans-Serif" font-size="11.00">&lt; 2</text>
<polygon fill="#ffffff" stroke="none" points="480,-37 480,-55 531,-55 531,-37 480,-37"/>
<polygon fill="none" stroke="black" points="480,-37 480,-55 531,-55 531,-37 480,-37"/>
<text text-anchor="start" x="521" y="-43.2" font-family="Helvetica,sans-Serif" font-size="11.00"> &#160;</text>
<polygon fill="#ffffff" stroke="none" points="531,-37 531,-55 592,-55 592,-37 531,-37"/>
<polygon fill="none" stroke="black" points="531,-37 531,-55 592,-55 592,-37 531,-37"/>
<text text-anchor="start" x="572" y="-43.2" font-family="Helvetica,sans-Serif" font-size="11.00">1 &gt;</text>
</a>
</g>
</g>
<!-- authentications -->
<g id="node2" class="node"><title>authentications</title>
<g id="a_node2"><a xlink:href="../../tables/authentications.html" xlink:title="authentications" target="_top">
<polygon fill="#ffffff" stroke="none" points="8,-68 8,-126 148,-126 148,-68 8,-68"/>
<polygon fill="#f5f5f5" stroke="none" points="8,-104 8,-126 148,-126 148,-104 8,-104"/>
<polygon fill="none" stroke="black" points="8,-104 8,-126 148,-126 148,-104 8,-104"/>
<text text-anchor="start" x="13" y="-113.2" font-family="Helvetica,sans-Serif" font-weight="bold" font-size="11.00">authentications</text>
<text text-anchor="start" x="109" y="-112.2" font-family="Helvetica,sans-Serif" font-size="11.00">[table]</text>
<polygon fill="none" stroke="black" points="8,-86 8,-104 148,-104 148,-86 8,-86"/>
<text text-anchor="start" x="11" y="-92.2" font-family="Helvetica,sans-Serif" font-size="11.00">...</text>
<polygon fill="#ffffff" stroke="none" points="8,-68 8,-86 71,-86 71,-68 8,-68"/>
<polygon fill="none" stroke="black" points="8,-68 8,-86 71,-86 71,-68 8,-68"/>
<text text-anchor="start" x="11" y="-74.2" font-family="Helvetica,sans-Serif" font-size="11.00">&lt; 2</text>
<polygon fill="#ffffff" stroke="none" points="71,-68 71,-86 104,-86 104,-68 71,-68"/>
<polygon fill="none" stroke="black" points="71,-68 71,-86 104,-86 104,-68 71,-68"/>
<text text-anchor="start" x="94" y="-74.2" font-family="Helvetica,sans-Serif" font-size="11.00"> &#160;</text>
<polygon fill="#ffffff" stroke="none" points="104,-68 104,-86 148,-86 148,-68 104,-68"/>
<polygon fill="none" stroke="black" points="104,-68 104,-86 148,-86 148,-68 104,-68"/>
<text text-anchor="start" x="128" y="-74.2" font-family="Helvetica,sans-Serif" font-size="11.00">5 &gt;</text>
</a>
</g>
</g>
<!-- configuration_script_sources&#45;&gt;authentications -->
<g id="edge1" class="edge"><title>configuration_script_sources:authentication_id:w&#45;&gt;authentications:elipses:e</title>
<path fill="none" stroke="black" d="M366.562,-106.851C358.722,-107.839 352.85,-109.409 341,-110 273.528,-113.365 255.472,-122.054 189,-110 170.318,-106.612 167.987,-95 149,-95"/>
<polygon fill="black" stroke="black" points="373.014,-106.471 381.212,-109.594 377.007,-106.235 381,-106 381,-106 381,-106 377.007,-106.235 380.788,-102.406 373.014,-106.471 373.014,-106.471"/>
<ellipse fill="none" stroke="black" cx="369.819" cy="-106.659" rx="3.2" ry="3.2"/>
</g>
<!-- git_repositories -->
<g id="node3" class="node"><title>git_repositories</title>
<g id="a_node3"><a xlink:href="../../tables/git_repositories.html" xlink:title="git_repositories" target="_top">
<polygon fill="#ffffff" stroke="none" points="197,-41 197,-99 333,-99 333,-41 197,-41"/>
<polygon fill="#f5f5f5" stroke="none" points="197,-77 197,-99 333,-99 333,-77 197,-77"/>
<polygon fill="none" stroke="black" points="197,-77 197,-99 333,-99 333,-77 197,-77"/>
<text text-anchor="start" x="202" y="-86.2" font-family="Helvetica,sans-Serif" font-weight="bold" font-size="11.00">git_repositories</text>
<text text-anchor="start" x="294" y="-85.2" font-family="Helvetica,sans-Serif" font-size="11.00">[table]</text>
<polygon fill="none" stroke="black" points="197,-59 197,-77 333,-77 333,-59 197,-59"/>
<text text-anchor="start" x="200" y="-65.2" font-family="Helvetica,sans-Serif" font-size="11.00">...</text>
<polygon fill="#ffffff" stroke="none" points="197,-41 197,-59 258,-59 258,-41 197,-41"/>
<polygon fill="none" stroke="black" points="197,-41 197,-59 258,-59 258,-41 197,-41"/>
<text text-anchor="start" x="200" y="-47.2" font-family="Helvetica,sans-Serif" font-size="11.00">&lt; 1</text>
<polygon fill="#ffffff" stroke="none" points="258,-41 258,-59 290,-59 290,-41 258,-41"/>
<polygon fill="none" stroke="black" points="258,-41 258,-59 290,-59 290,-41 258,-41"/>
<text text-anchor="start" x="280" y="-47.2" font-family="Helvetica,sans-Serif" font-size="11.00"> &#160;</text>
<polygon fill="#ffffff" stroke="none" points="290,-41 290,-59 333,-59 333,-41 290,-41"/>
<polygon fill="none" stroke="black" points="290,-41 290,-59 333,-59 333,-41 290,-41"/>
<text text-anchor="start" x="313" y="-47.2" font-family="Helvetica,sans-Serif" font-size="11.00">3 &gt;</text>
</a>
</g>
</g>
<!-- configuration_script_sources&#45;&gt;git_repositories -->
<g id="edge2" class="edge"><title>configuration_script_sources:git_repository_id:w&#45;&gt;git_repositories:elipses:e</title>
<path fill="none" stroke="black" d="M366.76,-81.213C356.056,-76.6289 350.205,-68 334,-68"/>
<polygon fill="black" stroke="black" points="373.149,-82.4634 380.309,-87.533 377.074,-83.2317 381,-84 381,-84 381,-84 377.074,-83.2317 381.691,-80.467 373.149,-82.4634 373.149,-82.4634"/>
<ellipse fill="none" stroke="black" cx="370.009" cy="-81.8487" rx="3.2" ry="3.2"/>
</g>
<!-- git_repositories&#45;&gt;authentications -->
<g id="edge4" class="edge"><title>git_repositories:elipses:w&#45;&gt;authentications:elipses:e</title>
<path fill="none" stroke="black" d="M181.881,-72.2188C170.921,-79.8125 167.068,-95 149,-95"/>
<polygon fill="black" stroke="black" points="188.335,-70.2904 197.031,-71.4493 192.167,-69.1452 196,-68 196,-68 196,-68 192.167,-69.1452 194.969,-64.5507 188.335,-70.2904 188.335,-70.2904"/>
<ellipse fill="none" stroke="black" cx="185.269" cy="-71.2065" rx="3.20001" ry="3.20001"/>
</g>
<!-- configuration_scripts -->
<g id="node4" class="node"><title>configuration_scripts</title>
<g id="a_node4"><a xlink:href="../../tables/configuration_scripts.html" xlink:title="configuration_scripts" target="_top">
<polygon fill="#ffffff" stroke="none" points="641,-119 641,-449 968,-449 968,-119 641,-119"/>
<polygon fill="#f5f5f5" stroke="none" points="643.5,-425 643.5,-447 966.5,-447 966.5,-425 643.5,-425"/>
<polygon fill="none" stroke="black" points="643.5,-425 643.5,-447 966.5,-447 966.5,-425 643.5,-425"/>
<text text-anchor="start" x="648.5" y="-434.2" font-family="Helvetica,sans-Serif" font-weight="bold" font-size="11.00">configuration_scripts</text>
<text text-anchor="start" x="927.5" y="-433.2" font-family="Helvetica,sans-Serif" font-size="11.00">[table]</text>
<polygon fill="none" stroke="black" points="643.5,-403 643.5,-425 845.5,-425 845.5,-403 643.5,-403"/>
<image xlink:href="../../images/primaryKeys.png" width="11px" height="12px" preserveAspectRatio="xMinYMin meet" x="648.5" y="-420"/>
<text text-anchor="start" x="663.5" y="-411.2" font-family="Helvetica,sans-Serif" font-size="11.00">id</text>
<polygon fill="none" stroke="black" points="845.5,-403 845.5,-425 966.5,-425 966.5,-403 845.5,-403"/>
<text text-anchor="start" x="848.5" y="-411.2" font-family="Helvetica,sans-Serif" font-size="11.00">bigserial[19]</text>
<polygon fill="none" stroke="black" points="643.5,-381 643.5,-403 845.5,-403 845.5,-381 643.5,-381"/>
<text text-anchor="start" x="663.5" y="-389.2" font-family="Helvetica,sans-Serif" font-size="11.00">manager_id</text>
<polygon fill="none" stroke="black" points="845.5,-381 845.5,-403 966.5,-403 966.5,-381 845.5,-381"/>
<text text-anchor="start" x="848.5" y="-389.2" font-family="Helvetica,sans-Serif" font-size="11.00">int8[19]</text>
<polygon fill="none" stroke="black" points="643.5,-359 643.5,-381 845.5,-381 845.5,-359 643.5,-359"/>
<text text-anchor="start" x="663.5" y="-367.2" font-family="Helvetica,sans-Serif" font-size="11.00">manager_ref</text>
<polygon fill="none" stroke="black" points="845.5,-359 845.5,-381 966.5,-381 966.5,-359 845.5,-359"/>
<text text-anchor="start" x="848.5" y="-367.2" font-family="Helvetica,sans-Serif" font-size="11.00">varchar[2147483647]</text>
<polygon fill="none" stroke="black" points="643.5,-337 643.5,-359 845.5,-359 845.5,-337 643.5,-337"/>
<text text-anchor="start" x="663.5" y="-345.2" font-family="Helvetica,sans-Serif" font-size="11.00">name</text>
<polygon fill="none" stroke="black" points="845.5,-337 845.5,-359 966.5,-359 966.5,-337 845.5,-337"/>
<text text-anchor="start" x="848.5" y="-345.2" font-family="Helvetica,sans-Serif" font-size="11.00">varchar[2147483647]</text>
<polygon fill="none" stroke="black" points="643.5,-315 643.5,-337 845.5,-337 845.5,-315 643.5,-315"/>
<text text-anchor="start" x="663.5" y="-323.2" font-family="Helvetica,sans-Serif" font-size="11.00">description</text>
<polygon fill="none" stroke="black" points="845.5,-315 845.5,-337 966.5,-337 966.5,-315 845.5,-315"/>
<text text-anchor="start" x="848.5" y="-323.2" font-family="Helvetica,sans-Serif" font-size="11.00">varchar[2147483647]</text>
<polygon fill="none" stroke="black" points="643.5,-293 643.5,-315 845.5,-315 845.5,-293 643.5,-293"/>
<text text-anchor="start" x="663.5" y="-301.2" font-family="Helvetica,sans-Serif" font-size="11.00">variables</text>
<polygon fill="none" stroke="black" points="845.5,-293 845.5,-315 966.5,-315 966.5,-293 845.5,-293"/>
<text text-anchor="start" x="848.5" y="-301.2" font-family="Helvetica,sans-Serif" font-size="11.00">text[2147483647]</text>
<polygon fill="none" stroke="black" points="643.5,-271 643.5,-293 845.5,-293 845.5,-271 643.5,-271"/>
<text text-anchor="start" x="663.5" y="-279.2" font-family="Helvetica,sans-Serif" font-size="11.00">created_at</text>
<polygon fill="none" stroke="black" points="845.5,-271 845.5,-293 966.5,-293 966.5,-271 845.5,-271"/>
<text text-anchor="start" x="848.5" y="-279.2" font-family="Helvetica,sans-Serif" font-size="11.00">timestamp[29,6]</text>
<polygon fill="none" stroke="black" points="643.5,-249 643.5,-271 845.5,-271 845.5,-249 643.5,-249"/>
<text text-anchor="start" x="663.5" y="-257.2" font-family="Helvetica,sans-Serif" font-size="11.00">updated_at</text>
<polygon fill="none" stroke="black" points="845.5,-249 845.5,-271 966.5,-271 966.5,-249 845.5,-249"/>
<text text-anchor="start" x="848.5" y="-257.2" font-family="Helvetica,sans-Serif" font-size="11.00">timestamp[29,6]</text>
<polygon fill="none" stroke="black" points="643.5,-227 643.5,-249 845.5,-249 845.5,-227 643.5,-227"/>
<text text-anchor="start" x="663.5" y="-235.2" font-family="Helvetica,sans-Serif" font-size="11.00">survey_spec</text>
<polygon fill="none" stroke="black" points="845.5,-227 845.5,-249 966.5,-249 966.5,-227 845.5,-227"/>
<text text-anchor="start" x="848.5" y="-235.2" font-family="Helvetica,sans-Serif" font-size="11.00">text[2147483647]</text>
<polygon fill="#ffffff" stroke="none" points="643.5,-205 643.5,-227 845.5,-227 845.5,-205 643.5,-205"/>
<polygon fill="none" stroke="black" points="643.5,-205 643.5,-227 845.5,-227 845.5,-205 643.5,-205"/>
<text text-anchor="start" x="663.5" y="-213.2" font-family="Helvetica,sans-Serif" font-size="11.00">inventory_root_group_id</text>
<polygon fill="none" stroke="black" points="845.5,-205 845.5,-227 966.5,-227 966.5,-205 845.5,-205"/>
<text text-anchor="start" x="848.5" y="-213.2" font-family="Helvetica,sans-Serif" font-size="11.00">int8[19]</text>
<polygon fill="#ffffff" stroke="none" points="643.5,-183 643.5,-205 845.5,-205 845.5,-183 643.5,-183"/>
<polygon fill="none" stroke="black" points="643.5,-183 643.5,-205 845.5,-205 845.5,-183 643.5,-183"/>
<text text-anchor="start" x="663.5" y="-191.2" font-family="Helvetica,sans-Serif" font-size="11.00">type</text>
<polygon fill="none" stroke="black" points="845.5,-183 845.5,-205 966.5,-205 966.5,-183 845.5,-183"/>
<text text-anchor="start" x="848.5" y="-191.2" font-family="Helvetica,sans-Serif" font-size="11.00">varchar[2147483647]</text>
<polygon fill="none" stroke="black" points="643.5,-161 643.5,-183 845.5,-183 845.5,-161 643.5,-161"/>
<text text-anchor="start" x="663.5" y="-169.2" font-family="Helvetica,sans-Serif" font-size="11.00">parent_id</text>
<polygon fill="none" stroke="black" points="845.5,-161 845.5,-183 966.5,-183 966.5,-161 845.5,-161"/>
<text text-anchor="start" x="848.5" y="-169.2" font-family="Helvetica,sans-Serif" font-size="11.00">int8[19]</text>
<polygon fill="none" stroke="black" points="643.5,-139 643.5,-161 845.5,-161 845.5,-139 643.5,-139"/>
<image xlink:href="../../images/foreignKeys.png" width="11px" height="12px" preserveAspectRatio="xMinYMin meet" x="648.5" y="-156"/>
<text text-anchor="start" x="663.5" y="-147.2" font-family="Helvetica,sans-Serif" font-size="11.00">configuration_script_source_id</text>
<polygon fill="none" stroke="black" points="845.5,-139 845.5,-161 966.5,-161 966.5,-139 845.5,-139"/>
<text text-anchor="start" x="848.5" y="-147.2" font-family="Helvetica,sans-Serif" font-size="11.00">int8[19]</text>
<polygon fill="#ffffff" stroke="none" points="643.5,-121 643.5,-139 749.5,-139 749.5,-121 643.5,-121"/>
<polygon fill="none" stroke="black" points="643.5,-121 643.5,-139 749.5,-139 749.5,-121 643.5,-121"/>
<text text-anchor="start" x="646.5" y="-127.2" font-family="Helvetica,sans-Serif" font-size="11.00">&lt; 1</text>
<polygon fill="#ffffff" stroke="none" points="749.5,-121 749.5,-139 845.5,-139 845.5,-121 749.5,-121"/>
<polygon fill="none" stroke="black" points="749.5,-121 749.5,-139 845.5,-139 845.5,-121 749.5,-121"/>
<text text-anchor="start" x="835.5" y="-127.2" font-family="Helvetica,sans-Serif" font-size="11.00"> &#160;</text>
<polygon fill="#ffffff" stroke="none" points="845.5,-121 845.5,-139 966.5,-139 966.5,-121 845.5,-121"/>
<polygon fill="none" stroke="black" points="845.5,-121 845.5,-139 966.5,-139 966.5,-121 845.5,-121"/>
<text text-anchor="start" x="946.5" y="-127.2" font-family="Helvetica,sans-Serif" font-size="11.00">0 &gt;</text>
<polygon fill="none" stroke="black" stroke-width="2" points="642,-120 642,-448 967,-448 967,-120 642,-120"/>
</a>
</g>
</g>
<!-- configuration_scripts&#45;&gt;configuration_script_sources -->
<g id="edge3" class="edge"><title>configuration_scripts:configuration_script_source_id:w&#45;&gt;configuration_script_sources:id:e</title>
<path fill="none" stroke="black" d="M627.843,-150C616.414,-150 609.156,-150 593,-150"/>
<polygon fill="black" stroke="black" points="634.5,-150 642.5,-153.6 638.5,-150 642.5,-150 642.5,-150 642.5,-150 638.5,-150 642.5,-146.4 634.5,-150 634.5,-150"/>
<ellipse fill="none" stroke="black" cx="631.3" cy="-150" rx="3.2" ry="3.2"/>
</g>
</g>
</svg>
