<?xml version="1.0" encoding="UTF-8" standalone="no"?>
<!DOCTYPE svg PUBLIC "-//W3C//DTD SVG 1.1//EN"
 "http://www.w3.org/Graphics/SVG/1.1/DTD/svg11.dtd">
<!-- Generated by graphviz version 2.38.0 (20140413.2041)
 -->
<!-- Title: oneDegreeRelationshipsDiagram Pages: 1 -->
<svg width="677pt" height="498pt"
 viewBox="0.00 0.00 677.00 498.00" xmlns="http://www.w3.org/2000/svg" xmlns:xlink="http://www.w3.org/1999/xlink">
<g id="graph0" class="graph" transform="scale(1 1) rotate(0) translate(4 494)">
<title>oneDegreeRelationshipsDiagram</title>
<polygon fill="#ffffff" stroke="none" points="-4,4 -4,-494 673,-494 673,4 -4,4"/>
<text text-anchor="middle" x="74.5" y="-7.2" font-family="Helvetica,sans-Serif" font-size="11.00">Generated by SchemaSpy</text>
<!-- configuration_locations_configuration_profiles -->
<g id="node1" class="node"><title>configuration_locations_configuration_profiles</title>
<g id="a_node1"><a xlink:href="../../tables/configuration_locations_configuration_profiles.html" xlink:title="configuration_locations_configuration_profiles" target="_top">
<polygon fill="#ffffff" stroke="none" points="351,-380 351,-486 661,-486 661,-380 351,-380"/>
<polygon fill="#f5f5f5" stroke="none" points="351,-464 351,-486 661,-486 661,-464 351,-464"/>
<polygon fill="none" stroke="black" points="351,-464 351,-486 661,-486 661,-464 351,-464"/>
<text text-anchor="start" x="356" y="-473.2" font-family="Helvetica,sans-Serif" font-weight="bold" font-size="11.00">configuration_locations_configuration_profiles</text>
<text text-anchor="start" x="622" y="-472.2" font-family="Helvetica,sans-Serif" font-size="11.00">[table]</text>
<polygon fill="none" stroke="black" points="351,-442 351,-464 661,-464 661,-442 351,-442"/>
<image xlink:href="../../images/primaryKeys.png" width="11px" height="12px" preserveAspectRatio="xMinYMin meet" x="356" y="-459"/>
<text text-anchor="start" x="377" y="-450.2" font-family="Helvetica,sans-Serif" font-size="11.00">id</text>
<polygon fill="#ffffff" stroke="none" points="351,-420 351,-442 661,-442 661,-420 351,-420"/>
<polygon fill="none" stroke="black" points="351,-420 351,-442 661,-442 661,-420 351,-420"/>
<image xlink:href="../../images/foreignKeys.png" width="11px" height="12px" preserveAspectRatio="xMinYMin meet" x="356" y="-437"/>
<text text-anchor="start" x="377" y="-428.2" font-family="Helvetica,sans-Serif" font-size="11.00">configuration_location_id</text>
<polygon fill="#ffffff" stroke="none" points="351,-398 351,-420 661,-420 661,-398 351,-398"/>
<polygon fill="none" stroke="black" points="351,-398 351,-420 661,-420 661,-398 351,-398"/>
<image xlink:href="../../images/foreignKeys.png" width="11px" height="12px" preserveAspectRatio="xMinYMin meet" x="356" y="-415"/>
<text text-anchor="start" x="377" y="-406.2" font-family="Helvetica,sans-Serif" font-size="11.00">configuration_profile_id</text>
<polygon fill="#ffffff" stroke="none" points="351,-380 351,-398 504,-398 504,-380 351,-380"/>
<polygon fill="none" stroke="black" points="351,-380 351,-398 504,-398 504,-380 351,-380"/>
<text text-anchor="start" x="354" y="-386.2" font-family="Helvetica,sans-Serif" font-size="11.00">&lt; 2</text>
<polygon fill="#ffffff" stroke="none" points="504,-380 504,-398 582,-398 582,-380 504,-380"/>
<polygon fill="none" stroke="black" points="504,-380 504,-398 582,-398 582,-380 504,-380"/>
<text text-anchor="start" x="572" y="-386.2" font-family="Helvetica,sans-Serif" font-size="11.00"> &#160;</text>
<polygon fill="#ffffff" stroke="none" points="582,-380 582,-398 661,-398 661,-380 582,-380"/>
<polygon fill="none" stroke="black" points="582,-380 582,-398 661,-398 661,-380 582,-380"/>
<text text-anchor="start" x="651" y="-386.2" font-family="Helvetica,sans-Serif" font-size="11.00"> &#160;</text>
</a>
</g>
</g>
<!-- configuration_locations -->
<g id="node2" class="node"><title>configuration_locations</title>
<g id="a_node2"><a xlink:href="../../tables/configuration_locations.html" xlink:title="configuration_locations" target="_top">
<polygon fill="#ffffff" stroke="none" points="8,-83 8,-347 302,-347 302,-83 8,-83"/>
<polygon fill="#f5f5f5" stroke="none" points="10,-323 10,-345 300,-345 300,-323 10,-323"/>
<polygon fill="none" stroke="black" points="10,-323 10,-345 300,-345 300,-323 10,-323"/>
<text text-anchor="start" x="15" y="-332.2" font-family="Helvetica,sans-Serif" font-weight="bold" font-size="11.00">configuration_locations</text>
<text text-anchor="start" x="261" y="-331.2" font-family="Helvetica,sans-Serif" font-size="11.00">[table]</text>
<polygon fill="none" stroke="black" points="10,-301 10,-323 179,-323 179,-301 10,-301"/>
<image xlink:href="../../images/primaryKeys.png" width="11px" height="12px" preserveAspectRatio="xMinYMin meet" x="15" y="-318"/>
<text text-anchor="start" x="30" y="-309.2" font-family="Helvetica,sans-Serif" font-size="11.00">id</text>
<polygon fill="none" stroke="black" points="179,-301 179,-323 300,-323 300,-301 179,-301"/>
<text text-anchor="start" x="182" y="-309.2" font-family="Helvetica,sans-Serif" font-size="11.00">bigserial[19]</text>
<polygon fill="none" stroke="black" points="10,-279 10,-301 179,-301 179,-279 10,-279"/>
<text text-anchor="start" x="30" y="-287.2" font-family="Helvetica,sans-Serif" font-size="11.00">type</text>
<polygon fill="none" stroke="black" points="179,-279 179,-301 300,-301 300,-279 179,-279"/>
<text text-anchor="start" x="182" y="-287.2" font-family="Helvetica,sans-Serif" font-size="11.00">varchar[2147483647]</text>
<polygon fill="none" stroke="black" points="10,-257 10,-279 179,-279 179,-257 10,-257"/>
<text text-anchor="start" x="30" y="-265.2" font-family="Helvetica,sans-Serif" font-size="11.00">name</text>
<polygon fill="none" stroke="black" points="179,-257 179,-279 300,-279 300,-257 179,-257"/>
<text text-anchor="start" x="182" y="-265.2" font-family="Helvetica,sans-Serif" font-size="11.00">varchar[2147483647]</text>
<polygon fill="#ffffff" stroke="none" points="10,-235 10,-257 179,-257 179,-235 10,-235"/>
<polygon fill="none" stroke="black" points="10,-235 10,-257 179,-257 179,-235 10,-235"/>
<text text-anchor="start" x="30" y="-243.2" font-family="Helvetica,sans-Serif" font-size="11.00">provisioning_manager_id</text>
<polygon fill="none" stroke="black" points="179,-235 179,-257 300,-257 300,-235 179,-235"/>
<text text-anchor="start" x="182" y="-243.2" font-family="Helvetica,sans-Serif" font-size="11.00">int8[19]</text>
<polygon fill="#ffffff" stroke="none" points="10,-213 10,-235 179,-235 179,-213 10,-213"/>
<polygon fill="none" stroke="black" points="10,-213 10,-235 179,-235 179,-213 10,-213"/>
<text text-anchor="start" x="30" y="-221.2" font-family="Helvetica,sans-Serif" font-size="11.00">manager_ref</text>
<polygon fill="none" stroke="black" points="179,-213 179,-235 300,-235 300,-213 179,-213"/>
<text text-anchor="start" x="182" y="-221.2" font-family="Helvetica,sans-Serif" font-size="11.00">varchar[2147483647]</text>
<polygon fill="none" stroke="black" points="10,-191 10,-213 179,-213 179,-191 10,-191"/>
<text text-anchor="start" x="30" y="-199.2" font-family="Helvetica,sans-Serif" font-size="11.00">created_at</text>
<polygon fill="none" stroke="black" points="179,-191 179,-213 300,-213 300,-191 179,-191"/>
<text text-anchor="start" x="182" y="-199.2" font-family="Helvetica,sans-Serif" font-size="11.00">timestamp[29,6]</text>
<polygon fill="none" stroke="black" points="10,-169 10,-191 179,-191 179,-169 10,-169"/>
<text text-anchor="start" x="30" y="-177.2" font-family="Helvetica,sans-Serif" font-size="11.00">updated_at</text>
<polygon fill="none" stroke="black" points="179,-169 179,-191 300,-191 300,-169 179,-169"/>
<text text-anchor="start" x="182" y="-177.2" font-family="Helvetica,sans-Serif" font-size="11.00">timestamp[29,6]</text>
<polygon fill="none" stroke="black" points="10,-147 10,-169 179,-169 179,-147 10,-147"/>
<text text-anchor="start" x="30" y="-155.2" font-family="Helvetica,sans-Serif" font-size="11.00">parent_id</text>
<polygon fill="none" stroke="black" points="179,-147 179,-169 300,-169 300,-147 179,-147"/>
<text text-anchor="start" x="182" y="-155.2" font-family="Helvetica,sans-Serif" font-size="11.00">int8[19]</text>
<polygon fill="none" stroke="black" points="10,-125 10,-147 179,-147 179,-125 10,-125"/>
<text text-anchor="start" x="30" y="-133.2" font-family="Helvetica,sans-Serif" font-size="11.00">parent_ref</text>
<polygon fill="none" stroke="black" points="179,-125 179,-147 300,-147 300,-125 179,-125"/>
<text text-anchor="start" x="182" y="-133.2" font-family="Helvetica,sans-Serif" font-size="11.00">varchar[2147483647]</text>
<polygon fill="none" stroke="black" points="10,-103 10,-125 179,-125 179,-103 10,-103"/>
<text text-anchor="start" x="30" y="-111.2" font-family="Helvetica,sans-Serif" font-size="11.00">title</text>
<polygon fill="none" stroke="black" points="179,-103 179,-125 300,-125 300,-103 179,-103"/>
<text text-anchor="start" x="182" y="-111.2" font-family="Helvetica,sans-Serif" font-size="11.00">varchar[2147483647]</text>
<polygon fill="#ffffff" stroke="none" points="10,-85 10,-103 99,-103 99,-85 10,-85"/>
<polygon fill="none" stroke="black" points="10,-85 10,-103 99,-103 99,-85 10,-85"/>
<text text-anchor="start" x="13" y="-91.2" font-family="Helvetica,sans-Serif" font-size="11.00">&lt; 0</text>
<polygon fill="#ffffff" stroke="none" points="99,-85 99,-103 179,-103 179,-85 99,-85"/>
<polygon fill="none" stroke="black" points="99,-85 99,-103 179,-103 179,-85 99,-85"/>
<text text-anchor="start" x="169" y="-91.2" font-family="Helvetica,sans-Serif" font-size="11.00"> &#160;</text>
<polygon fill="#ffffff" stroke="none" points="179,-85 179,-103 300,-103 300,-85 179,-85"/>
<polygon fill="none" stroke="black" points="179,-85 179,-103 300,-103 300,-85 179,-85"/>
<text text-anchor="start" x="280" y="-91.2" font-family="Helvetica,sans-Serif" font-size="11.00">2 &gt;</text>
<polygon fill="none" stroke="black" stroke-width="2" points="9,-84 9,-346 301,-346 301,-84 9,-84"/>
</a>
</g>
</g>
<!-- configuration_locations_configuration_profiles&#45;&gt;configuration_locations -->
<g id="edge1" class="edge"><title>configuration_locations_configuration_profiles:configuration_location_id:w&#45;&gt;configuration_locations:id.type:e</title>
<path fill="none" stroke="black" d="M335.706,-427.308C305.233,-407.222 352.165,-312 301,-312"/>
<polygon fill="black" stroke="black" points="342.254,-428.999 349.1,-434.486 346.127,-430 350,-431 350,-431 350,-431 346.127,-430 350.9,-427.514 342.254,-428.999 342.254,-428.999"/>
<ellipse fill="none" stroke="black" cx="339.156" cy="-428.199" rx="3.2" ry="3.2"/>
</g>
<!-- configured_systems -->
<g id="node3" class="node"><title>configured_systems</title>
<g id="a_node3"><a xlink:href="../../tables/configured_systems.html" xlink:title="configured_systems" target="_top">
<polygon fill="#ffffff" stroke="none" points="378,-37 378,-359 634,-359 634,-37 378,-37"/>
<polygon fill="#f5f5f5" stroke="none" points="378,-337 378,-359 634,-359 634,-337 378,-337"/>
<polygon fill="none" stroke="black" points="378,-337 378,-359 634,-359 634,-337 378,-337"/>
<text text-anchor="start" x="383" y="-346.2" font-family="Helvetica,sans-Serif" font-weight="bold" font-size="11.00">configured_systems</text>
<text text-anchor="start" x="595" y="-345.2" font-family="Helvetica,sans-Serif" font-size="11.00">[table]</text>
<polygon fill="none" stroke="black" points="378,-315 378,-337 634,-337 634,-315 378,-315"/>
<image xlink:href="../../images/primaryKeys.png" width="11px" height="12px" preserveAspectRatio="xMinYMin meet" x="383" y="-332"/>
<text text-anchor="start" x="398" y="-323.2" font-family="Helvetica,sans-Serif" font-size="11.00">id</text>
<polygon fill="#ffffff" stroke="none" points="378,-293 378,-315 634,-315 634,-293 378,-293"/>
<polygon fill="none" stroke="black" points="378,-293 378,-315 634,-315 634,-293 378,-293"/>
<text text-anchor="start" x="398" y="-301.2" font-family="Helvetica,sans-Serif" font-size="11.00">type</text>
<polygon fill="#ffffff" stroke="none" points="378,-271 378,-293 634,-293 634,-271 378,-271"/>
<polygon fill="none" stroke="black" points="378,-271 378,-293 634,-293 634,-271 378,-271"/>
<text text-anchor="start" x="398" y="-279.2" font-family="Helvetica,sans-Serif" font-size="11.00">direct_operating_system_flavor_id</text>
<polygon fill="none" stroke="black" points="378,-249 378,-271 634,-271 634,-249 378,-249"/>
<image xlink:href="../../images/foreignKeys.png" width="11px" height="12px" preserveAspectRatio="xMinYMin meet" x="383" y="-266"/>
<text text-anchor="start" x="398" y="-257.2" font-family="Helvetica,sans-Serif" font-size="11.00">configuration_profile_id</text>
<polygon fill="#ffffff" stroke="none" points="378,-227 378,-249 634,-249 634,-227 378,-227"/>
<polygon fill="none" stroke="black" points="378,-227 378,-249 634,-249 634,-227 378,-227"/>
<text text-anchor="start" x="398" y="-235.2" font-family="Helvetica,sans-Serif" font-size="11.00">manager_id</text>
<polygon fill="#ffffff" stroke="none" points="378,-205 378,-227 634,-227 634,-205 378,-205"/>
<polygon fill="none" stroke="black" points="378,-205 378,-227 634,-227 634,-205 378,-205"/>
<text text-anchor="start" x="398" y="-213.2" font-family="Helvetica,sans-Serif" font-size="11.00">manager_ref</text>
<polygon fill="none" stroke="black" points="378,-183 378,-205 634,-205 634,-183 378,-183"/>
<image xlink:href="../../images/foreignKeys.png" width="11px" height="12px" preserveAspectRatio="xMinYMin meet" x="383" y="-200"/>
<text text-anchor="start" x="398" y="-191.2" font-family="Helvetica,sans-Serif" font-size="11.00">configuration_location_id</text>
<polygon fill="none" stroke="black" points="378,-161 378,-183 634,-183 634,-161 378,-161"/>
<image xlink:href="../../images/foreignKeys.png" width="11px" height="12px" preserveAspectRatio="xMinYMin meet" x="383" y="-178"/>
<text text-anchor="start" x="398" y="-169.2" font-family="Helvetica,sans-Serif" font-size="11.00">configuration_organization_id</text>
<polygon fill="none" stroke="black" points="378,-139 378,-161 634,-161 634,-139 378,-139"/>
<image xlink:href="../../images/foreignKeys.png" width="11px" height="12px" preserveAspectRatio="xMinYMin meet" x="383" y="-156"/>
<text text-anchor="start" x="398" y="-147.2" font-family="Helvetica,sans-Serif" font-size="11.00">operating_system_flavor_id</text>
<polygon fill="#ffffff" stroke="none" points="378,-117 378,-139 634,-139 634,-117 378,-117"/>
<polygon fill="none" stroke="black" points="378,-117 378,-139 634,-139 634,-117 378,-117"/>
<text text-anchor="start" x="398" y="-125.2" font-family="Helvetica,sans-Serif" font-size="11.00">counterpart_type</text>
<polygon fill="#ffffff" stroke="none" points="378,-95 378,-117 634,-117 634,-95 378,-95"/>
<polygon fill="none" stroke="black" points="378,-95 378,-117 634,-117 634,-95 378,-95"/>
<text text-anchor="start" x="398" y="-103.2" font-family="Helvetica,sans-Serif" font-size="11.00">counterpart_id</text>
<polygon fill="#ffffff" stroke="none" points="378,-73 378,-95 634,-95 634,-73 378,-73"/>
<polygon fill="none" stroke="black" points="378,-73 378,-95 634,-95 634,-73 378,-73"/>
<image xlink:href="../../images/foreignKeys.png" width="11px" height="12px" preserveAspectRatio="xMinYMin meet" x="383" y="-90"/>
<text text-anchor="start" x="398" y="-81.2" font-family="Helvetica,sans-Serif" font-size="11.00">orchestration_stack_id</text>
<polygon fill="none" stroke="black" points="378,-55 378,-73 634,-73 634,-55 378,-55"/>
<text text-anchor="start" x="381" y="-61.2" font-family="Helvetica,sans-Serif" font-size="11.00">...</text>
<polygon fill="#ffffff" stroke="none" points="378,-37 378,-55 499,-55 499,-37 378,-37"/>
<polygon fill="none" stroke="black" points="378,-37 378,-55 499,-55 499,-37 378,-37"/>
<text text-anchor="start" x="381" y="-43.2" font-family="Helvetica,sans-Serif" font-size="11.00">&lt; 5</text>
<polygon fill="#ffffff" stroke="none" points="499,-37 499,-55 561,-55 561,-37 499,-37"/>
<polygon fill="none" stroke="black" points="499,-37 499,-55 561,-55 561,-37 499,-37"/>
<text text-anchor="start" x="551" y="-43.2" font-family="Helvetica,sans-Serif" font-size="11.00"> &#160;</text>
<polygon fill="#ffffff" stroke="none" points="561,-37 561,-55 634,-55 634,-37 561,-37"/>
<polygon fill="none" stroke="black" points="561,-37 561,-55 634,-55 634,-37 561,-37"/>
<text text-anchor="start" x="614" y="-43.2" font-family="Helvetica,sans-Serif" font-size="11.00">2 &gt;</text>
</a>
</g>
</g>
<!-- configured_systems&#45;&gt;configuration_locations -->
<g id="edge2" class="edge"><title>configured_systems:configuration_location_id:w&#45;&gt;configuration_locations:id.type:e</title>
<path fill="none" stroke="black" d="M362.717,-196.686C322.484,-214.251 357.776,-312 301,-312"/>
<polygon fill="black" stroke="black" points="369.138,-195.479 377.665,-197.538 373.069,-194.739 377,-194 377,-194 377,-194 373.069,-194.739 376.335,-190.462 369.138,-195.479 369.138,-195.479"/>
<ellipse fill="none" stroke="black" cx="365.993" cy="-196.07" rx="3.2" ry="3.2"/>
</g>
</g>
</svg>
