<?xml version="1.0" encoding="UTF-8" standalone="no"?>
<!DOCTYPE svg PUBLIC "-//W3C//DTD SVG 1.1//EN"
 "http://www.w3.org/Graphics/SVG/1.1/DTD/svg11.dtd">
<!-- Generated by graphviz version 2.38.0 (20140413.2041)
 -->
<!-- Title: twoDegreesRelationshipsDiagram Pages: 1 -->
<svg width="1317pt" height="599pt"
 viewBox="0.00 0.00 1317.00 599.00" xmlns="http://www.w3.org/2000/svg" xmlns:xlink="http://www.w3.org/1999/xlink">
<g id="graph0" class="graph" transform="scale(1 1) rotate(0) translate(4 595)">
<title>twoDegreesRelationshipsDiagram</title>
<polygon fill="#ffffff" stroke="none" points="-4,4 -4,-595 1313,-595 1313,4 -4,4"/>
<text text-anchor="middle" x="74.5" y="-7.2" font-family="Helvetica,sans-Serif" font-size="11.00">Generated by SchemaSpy</text>
<!-- configuration_organizations_configuration_profiles -->
<g id="node1" class="node"><title>configuration_organizations_configuration_profiles</title>
<g id="a_node1"><a xlink:href="../../tables/configuration_organizations_configuration_profiles.html" xlink:title="configuration_organizations_configuration_profiles" target="_top">
<polygon fill="#ffffff" stroke="none" points="611,-441 611,-547 945,-547 945,-441 611,-441"/>
<polygon fill="#f5f5f5" stroke="none" points="611,-525 611,-547 945,-547 945,-525 611,-525"/>
<polygon fill="none" stroke="black" points="611,-525 611,-547 945,-547 945,-525 611,-525"/>
<text text-anchor="start" x="616" y="-534.2" font-family="Helvetica,sans-Serif" font-weight="bold" font-size="11.00">configuration_organizations_configuration_profiles</text>
<text text-anchor="start" x="906" y="-533.2" font-family="Helvetica,sans-Serif" font-size="11.00">[table]</text>
<polygon fill="none" stroke="black" points="611,-503 611,-525 945,-525 945,-503 611,-503"/>
<image xlink:href="../../images/primaryKeys.png" width="11px" height="12px" preserveAspectRatio="xMinYMin meet" x="616" y="-520"/>
<text text-anchor="start" x="636" y="-511.2" font-family="Helvetica,sans-Serif" font-size="11.00">id</text>
<polygon fill="#ffffff" stroke="none" points="611,-481 611,-503 945,-503 945,-481 611,-481"/>
<polygon fill="none" stroke="black" points="611,-481 611,-503 945,-503 945,-481 611,-481"/>
<image xlink:href="../../images/foreignKeys.png" width="11px" height="12px" preserveAspectRatio="xMinYMin meet" x="616" y="-498"/>
<text text-anchor="start" x="636" y="-489.2" font-family="Helvetica,sans-Serif" font-size="11.00">configuration_organization_id</text>
<polygon fill="#ffffff" stroke="none" points="611,-459 611,-481 945,-481 945,-459 611,-459"/>
<polygon fill="none" stroke="black" points="611,-459 611,-481 945,-481 945,-459 611,-459"/>
<image xlink:href="../../images/foreignKeys.png" width="11px" height="12px" preserveAspectRatio="xMinYMin meet" x="616" y="-476"/>
<text text-anchor="start" x="636" y="-467.2" font-family="Helvetica,sans-Serif" font-size="11.00">configuration_profile_id</text>
<polygon fill="#ffffff" stroke="none" points="611,-441 611,-459 776,-459 776,-441 611,-441"/>
<polygon fill="none" stroke="black" points="611,-441 611,-459 776,-459 776,-441 611,-441"/>
<text text-anchor="start" x="614" y="-447.2" font-family="Helvetica,sans-Serif" font-size="11.00">&lt; 2</text>
<polygon fill="#ffffff" stroke="none" points="776,-441 776,-459 860,-459 860,-441 776,-441"/>
<polygon fill="none" stroke="black" points="776,-441 776,-459 860,-459 860,-441 776,-441"/>
<text text-anchor="start" x="850" y="-447.2" font-family="Helvetica,sans-Serif" font-size="11.00"> &#160;</text>
<polygon fill="#ffffff" stroke="none" points="860,-441 860,-459 945,-459 945,-441 860,-441"/>
<polygon fill="none" stroke="black" points="860,-441 860,-459 945,-459 945,-441 860,-441"/>
<text text-anchor="start" x="935" y="-447.2" font-family="Helvetica,sans-Serif" font-size="11.00"> &#160;</text>
</a>
</g>
</g>
<!-- configuration_organizations -->
<g id="node2" class="node"><title>configuration_organizations</title>
<g id="a_node2"><a xlink:href="../../tables/configuration_organizations.html" xlink:title="configuration_organizations" target="_top">
<polygon fill="#ffffff" stroke="none" points="249,-323 249,-587 562,-587 562,-323 249,-323"/>
<polygon fill="#f5f5f5" stroke="none" points="251.5,-563 251.5,-585 560.5,-585 560.5,-563 251.5,-563"/>
<polygon fill="none" stroke="black" points="251.5,-563 251.5,-585 560.5,-585 560.5,-563 251.5,-563"/>
<text text-anchor="start" x="256.5" y="-572.2" font-family="Helvetica,sans-Serif" font-weight="bold" font-size="11.00">configuration_organizations</text>
<text text-anchor="start" x="521.5" y="-571.2" font-family="Helvetica,sans-Serif" font-size="11.00">[table]</text>
<polygon fill="none" stroke="black" points="251.5,-541 251.5,-563 439.5,-563 439.5,-541 251.5,-541"/>
<image xlink:href="../../images/primaryKeys.png" width="11px" height="12px" preserveAspectRatio="xMinYMin meet" x="256.5" y="-558"/>
<text text-anchor="start" x="271.5" y="-549.2" font-family="Helvetica,sans-Serif" font-size="11.00">id</text>
<polygon fill="none" stroke="black" points="439.5,-541 439.5,-563 560.5,-563 560.5,-541 439.5,-541"/>
<text text-anchor="start" x="442.5" y="-549.2" font-family="Helvetica,sans-Serif" font-size="11.00">bigserial[19]</text>
<polygon fill="none" stroke="black" points="251.5,-519 251.5,-541 439.5,-541 439.5,-519 251.5,-519"/>
<text text-anchor="start" x="271.5" y="-527.2" font-family="Helvetica,sans-Serif" font-size="11.00">type</text>
<polygon fill="none" stroke="black" points="439.5,-519 439.5,-541 560.5,-541 560.5,-519 439.5,-519"/>
<text text-anchor="start" x="442.5" y="-527.2" font-family="Helvetica,sans-Serif" font-size="11.00">varchar[2147483647]</text>
<polygon fill="none" stroke="black" points="251.5,-497 251.5,-519 439.5,-519 439.5,-497 251.5,-497"/>
<text text-anchor="start" x="271.5" y="-505.2" font-family="Helvetica,sans-Serif" font-size="11.00">name</text>
<polygon fill="none" stroke="black" points="439.5,-497 439.5,-519 560.5,-519 560.5,-497 439.5,-497"/>
<text text-anchor="start" x="442.5" y="-505.2" font-family="Helvetica,sans-Serif" font-size="11.00">varchar[2147483647]</text>
<polygon fill="#ffffff" stroke="none" points="251.5,-475 251.5,-497 439.5,-497 439.5,-475 251.5,-475"/>
<polygon fill="none" stroke="black" points="251.5,-475 251.5,-497 439.5,-497 439.5,-475 251.5,-475"/>
<text text-anchor="start" x="271.5" y="-483.2" font-family="Helvetica,sans-Serif" font-size="11.00">provisioning_manager_id</text>
<polygon fill="none" stroke="black" points="439.5,-475 439.5,-497 560.5,-497 560.5,-475 439.5,-475"/>
<text text-anchor="start" x="442.5" y="-483.2" font-family="Helvetica,sans-Serif" font-size="11.00">int8[19]</text>
<polygon fill="#ffffff" stroke="none" points="251.5,-453 251.5,-475 439.5,-475 439.5,-453 251.5,-453"/>
<polygon fill="none" stroke="black" points="251.5,-453 251.5,-475 439.5,-475 439.5,-453 251.5,-453"/>
<text text-anchor="start" x="271.5" y="-461.2" font-family="Helvetica,sans-Serif" font-size="11.00">manager_ref</text>
<polygon fill="none" stroke="black" points="439.5,-453 439.5,-475 560.5,-475 560.5,-453 439.5,-453"/>
<text text-anchor="start" x="442.5" y="-461.2" font-family="Helvetica,sans-Serif" font-size="11.00">varchar[2147483647]</text>
<polygon fill="none" stroke="black" points="251.5,-431 251.5,-453 439.5,-453 439.5,-431 251.5,-431"/>
<text text-anchor="start" x="271.5" y="-439.2" font-family="Helvetica,sans-Serif" font-size="11.00">created_at</text>
<polygon fill="none" stroke="black" points="439.5,-431 439.5,-453 560.5,-453 560.5,-431 439.5,-431"/>
<text text-anchor="start" x="442.5" y="-439.2" font-family="Helvetica,sans-Serif" font-size="11.00">timestamp[29,6]</text>
<polygon fill="none" stroke="black" points="251.5,-409 251.5,-431 439.5,-431 439.5,-409 251.5,-409"/>
<text text-anchor="start" x="271.5" y="-417.2" font-family="Helvetica,sans-Serif" font-size="11.00">updated_at</text>
<polygon fill="none" stroke="black" points="439.5,-409 439.5,-431 560.5,-431 560.5,-409 439.5,-409"/>
<text text-anchor="start" x="442.5" y="-417.2" font-family="Helvetica,sans-Serif" font-size="11.00">timestamp[29,6]</text>
<polygon fill="none" stroke="black" points="251.5,-387 251.5,-409 439.5,-409 439.5,-387 251.5,-387"/>
<text text-anchor="start" x="271.5" y="-395.2" font-family="Helvetica,sans-Serif" font-size="11.00">parent_id</text>
<polygon fill="none" stroke="black" points="439.5,-387 439.5,-409 560.5,-409 560.5,-387 439.5,-387"/>
<text text-anchor="start" x="442.5" y="-395.2" font-family="Helvetica,sans-Serif" font-size="11.00">int8[19]</text>
<polygon fill="none" stroke="black" points="251.5,-365 251.5,-387 439.5,-387 439.5,-365 251.5,-365"/>
<text text-anchor="start" x="271.5" y="-373.2" font-family="Helvetica,sans-Serif" font-size="11.00">parent_ref</text>
<polygon fill="none" stroke="black" points="439.5,-365 439.5,-387 560.5,-387 560.5,-365 439.5,-365"/>
<text text-anchor="start" x="442.5" y="-373.2" font-family="Helvetica,sans-Serif" font-size="11.00">varchar[2147483647]</text>
<polygon fill="none" stroke="black" points="251.5,-343 251.5,-365 439.5,-365 439.5,-343 251.5,-343"/>
<text text-anchor="start" x="271.5" y="-351.2" font-family="Helvetica,sans-Serif" font-size="11.00">title</text>
<polygon fill="none" stroke="black" points="439.5,-343 439.5,-365 560.5,-365 560.5,-343 439.5,-343"/>
<text text-anchor="start" x="442.5" y="-351.2" font-family="Helvetica,sans-Serif" font-size="11.00">varchar[2147483647]</text>
<polygon fill="#ffffff" stroke="none" points="251.5,-325 251.5,-343 350.5,-343 350.5,-325 251.5,-325"/>
<polygon fill="none" stroke="black" points="251.5,-325 251.5,-343 350.5,-343 350.5,-325 251.5,-325"/>
<text text-anchor="start" x="254.5" y="-331.2" font-family="Helvetica,sans-Serif" font-size="11.00">&lt; 0</text>
<polygon fill="#ffffff" stroke="none" points="350.5,-325 350.5,-343 439.5,-343 439.5,-325 350.5,-325"/>
<polygon fill="none" stroke="black" points="350.5,-325 350.5,-343 439.5,-343 439.5,-325 350.5,-325"/>
<text text-anchor="start" x="429.5" y="-331.2" font-family="Helvetica,sans-Serif" font-size="11.00"> &#160;</text>
<polygon fill="#ffffff" stroke="none" points="439.5,-325 439.5,-343 560.5,-343 560.5,-325 439.5,-325"/>
<polygon fill="none" stroke="black" points="439.5,-325 439.5,-343 560.5,-343 560.5,-325 439.5,-325"/>
<text text-anchor="start" x="540.5" y="-331.2" font-family="Helvetica,sans-Serif" font-size="11.00">2 &gt;</text>
<polygon fill="none" stroke="black" stroke-width="2" points="250,-324 250,-586 561,-586 561,-324 250,-324"/>
</a>
</g>
</g>
<!-- configuration_organizations_configuration_profiles&#45;&gt;configuration_organizations -->
<g id="edge1" class="edge"><title>configuration_organizations_configuration_profiles:configuration_organization_id:w&#45;&gt;configuration_organizations:id.type:e</title>
<path fill="none" stroke="black" d="M596.151,-497.116C581.171,-511.625 589.628,-552 561.5,-552"/>
<polygon fill="black" stroke="black" points="602.496,-494.772 611.247,-495.377 606.248,-493.386 610,-492 610,-492 610,-492 606.248,-493.386 608.753,-488.623 602.496,-494.772 602.496,-494.772"/>
<ellipse fill="none" stroke="black" cx="599.494" cy="-495.881" rx="3.20001" ry="3.20001"/>
</g>
<!-- configuration_profiles -->
<g id="node3" class="node"><title>configuration_profiles</title>
<g id="a_node3"><a xlink:href="../../tables/configuration_profiles.html" xlink:title="configuration_profiles" target="_top">
<polygon fill="#ffffff" stroke="none" points="319.5,-244 319.5,-302 491.5,-302 491.5,-244 319.5,-244"/>
<polygon fill="#f5f5f5" stroke="none" points="319.5,-280 319.5,-302 491.5,-302 491.5,-280 319.5,-280"/>
<polygon fill="none" stroke="black" points="319.5,-280 319.5,-302 491.5,-302 491.5,-280 319.5,-280"/>
<text text-anchor="start" x="324.5" y="-289.2" font-family="Helvetica,sans-Serif" font-weight="bold" font-size="11.00">configuration_profiles</text>
<text text-anchor="start" x="452.5" y="-288.2" font-family="Helvetica,sans-Serif" font-size="11.00">[table]</text>
<polygon fill="none" stroke="black" points="319.5,-262 319.5,-280 491.5,-280 491.5,-262 319.5,-262"/>
<text text-anchor="start" x="322.5" y="-268.2" font-family="Helvetica,sans-Serif" font-size="11.00">...</text>
<polygon fill="#ffffff" stroke="none" points="319.5,-244 319.5,-262 398.5,-262 398.5,-244 319.5,-244"/>
<polygon fill="none" stroke="black" points="319.5,-244 319.5,-262 398.5,-262 398.5,-244 319.5,-244"/>
<text text-anchor="start" x="322.5" y="-250.2" font-family="Helvetica,sans-Serif" font-size="11.00">&lt; 1</text>
<polygon fill="#ffffff" stroke="none" points="398.5,-244 398.5,-262 439.5,-262 439.5,-244 398.5,-244"/>
<polygon fill="none" stroke="black" points="398.5,-244 398.5,-262 439.5,-262 439.5,-244 398.5,-244"/>
<text text-anchor="start" x="429.5" y="-250.2" font-family="Helvetica,sans-Serif" font-size="11.00"> &#160;</text>
<polygon fill="#ffffff" stroke="none" points="439.5,-244 439.5,-262 491.5,-262 491.5,-244 439.5,-244"/>
<polygon fill="none" stroke="black" points="439.5,-244 439.5,-262 491.5,-262 491.5,-244 439.5,-244"/>
<text text-anchor="start" x="471.5" y="-250.2" font-family="Helvetica,sans-Serif" font-size="11.00">5 &gt;</text>
</a>
</g>
</g>
<!-- configuration_organizations_configuration_profiles&#45;&gt;configuration_profiles -->
<g id="edge2" class="edge"><title>configuration_organizations_configuration_profiles:configuration_profile_id:w&#45;&gt;configuration_profiles:elipses:e</title>
<path fill="none" stroke="black" d="M595.633,-468.219C548.88,-454.481 611.263,-364.505 570,-312 545.922,-281.362 531.468,-271 492.5,-271"/>
<polygon fill="black" stroke="black" points="602.061,-469.016 609.557,-473.573 606.03,-469.508 610,-470 610,-470 610,-470 606.03,-469.508 610.443,-466.427 602.061,-469.016 602.061,-469.016"/>
<ellipse fill="none" stroke="black" cx="598.885" cy="-468.622" rx="3.2" ry="3.2"/>
</g>
<!-- operating_system_flavors -->
<g id="node4" class="node"><title>operating_system_flavors</title>
<g id="a_node4"><a xlink:href="../../tables/operating_system_flavors.html" xlink:title="operating_system_flavors" target="_top">
<polygon fill="#ffffff" stroke="none" points="8,-179 8,-237 200,-237 200,-179 8,-179"/>
<polygon fill="#f5f5f5" stroke="none" points="8,-215 8,-237 200,-237 200,-215 8,-215"/>
<polygon fill="none" stroke="black" points="8,-215 8,-237 200,-237 200,-215 8,-215"/>
<text text-anchor="start" x="13" y="-224.2" font-family="Helvetica,sans-Serif" font-weight="bold" font-size="11.00">operating_system_flavors</text>
<text text-anchor="start" x="161" y="-223.2" font-family="Helvetica,sans-Serif" font-size="11.00">[table]</text>
<polygon fill="none" stroke="black" points="8,-197 8,-215 200,-215 200,-197 8,-197"/>
<text text-anchor="start" x="11" y="-203.2" font-family="Helvetica,sans-Serif" font-size="11.00">...</text>
<polygon fill="#ffffff" stroke="none" points="8,-179 8,-197 92,-197 92,-179 8,-179"/>
<polygon fill="none" stroke="black" points="8,-179 8,-197 92,-197 92,-179 8,-179"/>
<text text-anchor="start" x="11" y="-185.2" font-family="Helvetica,sans-Serif" font-size="11.00"> &#160;</text>
<polygon fill="#ffffff" stroke="none" points="92,-179 92,-197 141,-197 141,-179 92,-179"/>
<polygon fill="none" stroke="black" points="92,-179 92,-197 141,-197 141,-179 92,-179"/>
<text text-anchor="start" x="131" y="-185.2" font-family="Helvetica,sans-Serif" font-size="11.00"> &#160;</text>
<polygon fill="#ffffff" stroke="none" points="141,-179 141,-197 200,-197 200,-179 141,-179"/>
<polygon fill="none" stroke="black" points="141,-179 141,-197 200,-197 200,-179 141,-179"/>
<text text-anchor="start" x="180" y="-185.2" font-family="Helvetica,sans-Serif" font-size="11.00">3 &gt;</text>
</a>
</g>
</g>
<!-- configuration_profiles&#45;&gt;operating_system_flavors -->
<g id="edge3" class="edge"><title>configuration_profiles:elipses:w&#45;&gt;operating_system_flavors:elipses:e</title>
<path fill="none" stroke="black" d="M304.074,-269.937C277.929,-265.71 269.531,-249.518 241,-233 222.438,-222.253 222.449,-206 201,-206"/>
<polygon fill="black" stroke="black" points="310.522,-270.412 318.235,-274.59 314.511,-270.706 318.5,-271 318.5,-271 318.5,-271 314.511,-270.706 318.765,-267.41 310.522,-270.412 310.522,-270.412"/>
<ellipse fill="none" stroke="black" cx="307.33" cy="-270.177" rx="3.2" ry="3.2"/>
</g>
<!-- configuration_tags_configured_systems -->
<g id="node5" class="node"><title>configuration_tags_configured_systems</title>
<g id="a_node5"><a xlink:href="../../tables/configuration_tags_configured_systems.html" xlink:title="configuration_tags_configured_systems" target="_top">
<polygon fill="#ffffff" stroke="none" points="1013.5,-338 1013.5,-396 1281.5,-396 1281.5,-338 1013.5,-338"/>
<polygon fill="#f5f5f5" stroke="none" points="1013.5,-374 1013.5,-396 1281.5,-396 1281.5,-374 1013.5,-374"/>
<polygon fill="none" stroke="black" points="1013.5,-374 1013.5,-396 1281.5,-396 1281.5,-374 1013.5,-374"/>
<text text-anchor="start" x="1018.5" y="-383.2" font-family="Helvetica,sans-Serif" font-weight="bold" font-size="11.00">configuration_tags_configured_systems</text>
<text text-anchor="start" x="1242.5" y="-382.2" font-family="Helvetica,sans-Serif" font-size="11.00">[table]</text>
<polygon fill="none" stroke="black" points="1013.5,-356 1013.5,-374 1281.5,-374 1281.5,-356 1013.5,-356"/>
<text text-anchor="start" x="1016.5" y="-362.2" font-family="Helvetica,sans-Serif" font-size="11.00">...</text>
<polygon fill="#ffffff" stroke="none" points="1013.5,-338 1013.5,-356 1145.5,-356 1145.5,-338 1013.5,-338"/>
<polygon fill="none" stroke="black" points="1013.5,-338 1013.5,-356 1145.5,-356 1145.5,-338 1013.5,-338"/>
<text text-anchor="start" x="1016.5" y="-344.2" font-family="Helvetica,sans-Serif" font-size="11.00">&lt; 2</text>
<polygon fill="#ffffff" stroke="none" points="1145.5,-338 1145.5,-356 1213.5,-356 1213.5,-338 1145.5,-338"/>
<polygon fill="none" stroke="black" points="1145.5,-338 1145.5,-356 1213.5,-356 1213.5,-338 1145.5,-338"/>
<text text-anchor="start" x="1203.5" y="-344.2" font-family="Helvetica,sans-Serif" font-size="11.00"> &#160;</text>
<polygon fill="#ffffff" stroke="none" points="1213.5,-338 1213.5,-356 1281.5,-356 1281.5,-338 1213.5,-338"/>
<polygon fill="none" stroke="black" points="1213.5,-338 1213.5,-356 1281.5,-356 1281.5,-338 1213.5,-338"/>
<text text-anchor="start" x="1271.5" y="-344.2" font-family="Helvetica,sans-Serif" font-size="11.00"> &#160;</text>
</a>
</g>
</g>
<!-- configured_systems -->
<g id="node6" class="node"><title>configured_systems</title>
<g id="a_node6"><a xlink:href="../../tables/configured_systems.html" xlink:title="configured_systems" target="_top">
<polygon fill="#ffffff" stroke="none" points="650,-37 650,-359 906,-359 906,-37 650,-37"/>
<polygon fill="#f5f5f5" stroke="none" points="650,-337 650,-359 906,-359 906,-337 650,-337"/>
<polygon fill="none" stroke="black" points="650,-337 650,-359 906,-359 906,-337 650,-337"/>
<text text-anchor="start" x="655" y="-346.2" font-family="Helvetica,sans-Serif" font-weight="bold" font-size="11.00">configured_systems</text>
<text text-anchor="start" x="867" y="-345.2" font-family="Helvetica,sans-Serif" font-size="11.00">[table]</text>
<polygon fill="none" stroke="black" points="650,-315 650,-337 906,-337 906,-315 650,-315"/>
<image xlink:href="../../images/primaryKeys.png" width="11px" height="12px" preserveAspectRatio="xMinYMin meet" x="655" y="-332"/>
<text text-anchor="start" x="670" y="-323.2" font-family="Helvetica,sans-Serif" font-size="11.00">id</text>
<polygon fill="#ffffff" stroke="none" points="650,-293 650,-315 906,-315 906,-293 650,-293"/>
<polygon fill="none" stroke="black" points="650,-293 650,-315 906,-315 906,-293 650,-293"/>
<text text-anchor="start" x="670" y="-301.2" font-family="Helvetica,sans-Serif" font-size="11.00">type</text>
<polygon fill="#ffffff" stroke="none" points="650,-271 650,-293 906,-293 906,-271 650,-271"/>
<polygon fill="none" stroke="black" points="650,-271 650,-293 906,-293 906,-271 650,-271"/>
<text text-anchor="start" x="670" y="-279.2" font-family="Helvetica,sans-Serif" font-size="11.00">direct_operating_system_flavor_id</text>
<polygon fill="none" stroke="black" points="650,-249 650,-271 906,-271 906,-249 650,-249"/>
<image xlink:href="../../images/foreignKeys.png" width="11px" height="12px" preserveAspectRatio="xMinYMin meet" x="655" y="-266"/>
<text text-anchor="start" x="670" y="-257.2" font-family="Helvetica,sans-Serif" font-size="11.00">configuration_profile_id</text>
<polygon fill="#ffffff" stroke="none" points="650,-227 650,-249 906,-249 906,-227 650,-227"/>
<polygon fill="none" stroke="black" points="650,-227 650,-249 906,-249 906,-227 650,-227"/>
<text text-anchor="start" x="670" y="-235.2" font-family="Helvetica,sans-Serif" font-size="11.00">manager_id</text>
<polygon fill="#ffffff" stroke="none" points="650,-205 650,-227 906,-227 906,-205 650,-205"/>
<polygon fill="none" stroke="black" points="650,-205 650,-227 906,-227 906,-205 650,-205"/>
<text text-anchor="start" x="670" y="-213.2" font-family="Helvetica,sans-Serif" font-size="11.00">manager_ref</text>
<polygon fill="none" stroke="black" points="650,-183 650,-205 906,-205 906,-183 650,-183"/>
<image xlink:href="../../images/foreignKeys.png" width="11px" height="12px" preserveAspectRatio="xMinYMin meet" x="655" y="-200"/>
<text text-anchor="start" x="670" y="-191.2" font-family="Helvetica,sans-Serif" font-size="11.00">configuration_location_id</text>
<polygon fill="none" stroke="black" points="650,-161 650,-183 906,-183 906,-161 650,-161"/>
<image xlink:href="../../images/foreignKeys.png" width="11px" height="12px" preserveAspectRatio="xMinYMin meet" x="655" y="-178"/>
<text text-anchor="start" x="670" y="-169.2" font-family="Helvetica,sans-Serif" font-size="11.00">configuration_organization_id</text>
<polygon fill="none" stroke="black" points="650,-139 650,-161 906,-161 906,-139 650,-139"/>
<image xlink:href="../../images/foreignKeys.png" width="11px" height="12px" preserveAspectRatio="xMinYMin meet" x="655" y="-156"/>
<text text-anchor="start" x="670" y="-147.2" font-family="Helvetica,sans-Serif" font-size="11.00">operating_system_flavor_id</text>
<polygon fill="#ffffff" stroke="none" points="650,-117 650,-139 906,-139 906,-117 650,-117"/>
<polygon fill="none" stroke="black" points="650,-117 650,-139 906,-139 906,-117 650,-117"/>
<text text-anchor="start" x="670" y="-125.2" font-family="Helvetica,sans-Serif" font-size="11.00">counterpart_type</text>
<polygon fill="#ffffff" stroke="none" points="650,-95 650,-117 906,-117 906,-95 650,-95"/>
<polygon fill="none" stroke="black" points="650,-95 650,-117 906,-117 906,-95 650,-95"/>
<text text-anchor="start" x="670" y="-103.2" font-family="Helvetica,sans-Serif" font-size="11.00">counterpart_id</text>
<polygon fill="#ffffff" stroke="none" points="650,-73 650,-95 906,-95 906,-73 650,-73"/>
<polygon fill="none" stroke="black" points="650,-73 650,-95 906,-95 906,-73 650,-73"/>
<image xlink:href="../../images/foreignKeys.png" width="11px" height="12px" preserveAspectRatio="xMinYMin meet" x="655" y="-90"/>
<text text-anchor="start" x="670" y="-81.2" font-family="Helvetica,sans-Serif" font-size="11.00">orchestration_stack_id</text>
<polygon fill="none" stroke="black" points="650,-55 650,-73 906,-73 906,-55 650,-55"/>
<text text-anchor="start" x="653" y="-61.2" font-family="Helvetica,sans-Serif" font-size="11.00">...</text>
<polygon fill="#ffffff" stroke="none" points="650,-37 650,-55 771,-55 771,-37 650,-37"/>
<polygon fill="none" stroke="black" points="650,-37 650,-55 771,-55 771,-37 650,-37"/>
<text text-anchor="start" x="653" y="-43.2" font-family="Helvetica,sans-Serif" font-size="11.00">&lt; 5</text>
<polygon fill="#ffffff" stroke="none" points="771,-37 771,-55 833,-55 833,-37 771,-37"/>
<polygon fill="none" stroke="black" points="771,-37 771,-55 833,-55 833,-37 771,-37"/>
<text text-anchor="start" x="823" y="-43.2" font-family="Helvetica,sans-Serif" font-size="11.00"> &#160;</text>
<polygon fill="#ffffff" stroke="none" points="833,-37 833,-55 906,-55 906,-37 833,-37"/>
<polygon fill="none" stroke="black" points="833,-37 833,-55 906,-55 906,-37 833,-37"/>
<text text-anchor="start" x="886" y="-43.2" font-family="Helvetica,sans-Serif" font-size="11.00">2 &gt;</text>
</a>
</g>
</g>
<!-- configuration_tags_configured_systems&#45;&gt;configured_systems -->
<g id="edge4" class="edge"><title>configuration_tags_configured_systems:elipses:w&#45;&gt;configured_systems:id:e</title>
<path fill="none" stroke="black" d="M998.062,-363.79C960.851,-357.207 951.718,-326 907,-326"/>
<polygon fill="black" stroke="black" points="1004.53,-364.332 1012.2,-368.587 1008.51,-364.666 1012.5,-365 1012.5,-365 1012.5,-365 1008.51,-364.666 1012.8,-361.413 1004.53,-364.332 1004.53,-364.332"/>
<ellipse fill="none" stroke="black" cx="1001.34" cy="-364.065" rx="3.2" ry="3.2"/>
</g>
<!-- configured_systems&#45;&gt;configuration_organizations -->
<g id="edge6" class="edge"><title>configured_systems:configuration_organization_id:w&#45;&gt;configuration_organizations:id.type:e</title>
<path fill="none" stroke="black" d="M637.864,-181.393C605.141,-239.91 600.765,-552 561.5,-552"/>
<polygon fill="black" stroke="black" points="642.885,-177.158 651.321,-174.752 645.943,-174.579 649,-172 649,-172 649,-172 645.943,-174.579 646.679,-169.248 642.885,-177.158 642.885,-177.158"/>
<ellipse fill="none" stroke="black" cx="640.439" cy="-179.222" rx="3.20001" ry="3.20001"/>
</g>
<!-- configured_systems&#45;&gt;configuration_profiles -->
<g id="edge7" class="edge"><title>configured_systems:configuration_profile_id:w&#45;&gt;configuration_profiles:elipses:e</title>
<path fill="none" stroke="black" d="M634.302,-260.173C576.452,-261.572 557.052,-271 492.5,-271"/>
<polygon fill="black" stroke="black" points="641.001,-260.094 649.042,-263.6 645,-260.047 649,-260 649,-260 649,-260 645,-260.047 648.958,-256.4 641.001,-260.094 641.001,-260.094"/>
<ellipse fill="none" stroke="black" cx="637.801" cy="-260.132" rx="3.2" ry="3.2"/>
</g>
<!-- configured_systems&#45;&gt;operating_system_flavors -->
<g id="edge8" class="edge"><title>configured_systems:operating_system_flavor_id:w&#45;&gt;operating_system_flavors:elipses:e</title>
<path fill="none" stroke="black" d="M634.407,-149.743C535.188,-146.56 318.106,-115.562 241,-154 214.905,-167.009 230.158,-206 201,-206"/>
<polygon fill="black" stroke="black" points="641.001,-149.859 648.937,-153.599 645.001,-149.929 649,-150 649,-150 649,-150 645.001,-149.929 649.063,-146.401 641.001,-149.859 641.001,-149.859"/>
<ellipse fill="none" stroke="black" cx="637.802" cy="-149.803" rx="3.2" ry="3.2"/>
</g>
<!-- configuration_locations -->
<g id="node7" class="node"><title>configuration_locations</title>
<g id="a_node7"><a xlink:href="../../tables/configuration_locations.html" xlink:title="configuration_locations" target="_top">
<polygon fill="#ffffff" stroke="none" points="315,-165 315,-223 496,-223 496,-165 315,-165"/>
<polygon fill="#f5f5f5" stroke="none" points="315.5,-201 315.5,-223 496.5,-223 496.5,-201 315.5,-201"/>
<polygon fill="none" stroke="black" points="315.5,-201 315.5,-223 496.5,-223 496.5,-201 315.5,-201"/>
<text text-anchor="start" x="320.5" y="-210.2" font-family="Helvetica,sans-Serif" font-weight="bold" font-size="11.00">configuration_locations</text>
<text text-anchor="start" x="457.5" y="-209.2" font-family="Helvetica,sans-Serif" font-size="11.00">[table]</text>
<polygon fill="none" stroke="black" points="315.5,-183 315.5,-201 496.5,-201 496.5,-183 315.5,-183"/>
<text text-anchor="start" x="318.5" y="-189.2" font-family="Helvetica,sans-Serif" font-size="11.00">...</text>
<polygon fill="#ffffff" stroke="none" points="315.5,-165 315.5,-183 394.5,-183 394.5,-165 315.5,-165"/>
<polygon fill="none" stroke="black" points="315.5,-165 315.5,-183 394.5,-183 394.5,-165 315.5,-165"/>
<text text-anchor="start" x="318.5" y="-171.2" font-family="Helvetica,sans-Serif" font-size="11.00"> &#160;</text>
<polygon fill="#ffffff" stroke="none" points="394.5,-165 394.5,-183 440.5,-183 440.5,-165 394.5,-165"/>
<polygon fill="none" stroke="black" points="394.5,-165 394.5,-183 440.5,-183 440.5,-165 394.5,-165"/>
<text text-anchor="start" x="430.5" y="-171.2" font-family="Helvetica,sans-Serif" font-size="11.00"> &#160;</text>
<polygon fill="#ffffff" stroke="none" points="440.5,-165 440.5,-183 496.5,-183 496.5,-165 440.5,-165"/>
<polygon fill="none" stroke="black" points="440.5,-165 440.5,-183 496.5,-183 496.5,-165 440.5,-165"/>
<text text-anchor="start" x="476.5" y="-171.2" font-family="Helvetica,sans-Serif" font-size="11.00">2 &gt;</text>
</a>
</g>
</g>
<!-- configured_systems&#45;&gt;configuration_locations -->
<g id="edge5" class="edge"><title>configured_systems:configuration_location_id:w&#45;&gt;configuration_locations:elipses:e</title>
<path fill="none" stroke="black" d="M634.447,-193.967C578.805,-193.707 559.71,-192 497.5,-192"/>
<polygon fill="black" stroke="black" points="641,-193.982 648.992,-197.6 645,-193.991 649,-194 649,-194 649,-194 645,-193.991 649.008,-190.4 641,-193.982 641,-193.982"/>
<ellipse fill="none" stroke="black" cx="637.8" cy="-193.974" rx="3.2" ry="3.2"/>
</g>
<!-- orchestration_stacks -->
<g id="node8" class="node"><title>orchestration_stacks</title>
<g id="a_node8"><a xlink:href="../../tables/orchestration_stacks.html" xlink:title="orchestration_stacks" target="_top">
<polygon fill="#ffffff" stroke="none" points="322.5,-57 322.5,-115 488.5,-115 488.5,-57 322.5,-57"/>
<polygon fill="#f5f5f5" stroke="none" points="322.5,-93 322.5,-115 488.5,-115 488.5,-93 322.5,-93"/>
<polygon fill="none" stroke="black" points="322.5,-93 322.5,-115 488.5,-115 488.5,-93 322.5,-93"/>
<text text-anchor="start" x="327.5" y="-102.2" font-family="Helvetica,sans-Serif" font-weight="bold" font-size="11.00">orchestration_stacks</text>
<text text-anchor="start" x="449.5" y="-101.2" font-family="Helvetica,sans-Serif" font-size="11.00">[table]</text>
<polygon fill="none" stroke="black" points="322.5,-75 322.5,-93 488.5,-93 488.5,-75 322.5,-75"/>
<text text-anchor="start" x="325.5" y="-81.2" font-family="Helvetica,sans-Serif" font-size="11.00">...</text>
<polygon fill="#ffffff" stroke="none" points="322.5,-57 322.5,-75 398.5,-75 398.5,-57 322.5,-57"/>
<polygon fill="none" stroke="black" points="322.5,-57 322.5,-75 398.5,-75 398.5,-57 322.5,-57"/>
<text text-anchor="start" x="325.5" y="-63.2" font-family="Helvetica,sans-Serif" font-size="11.00">&lt; 4</text>
<polygon fill="#ffffff" stroke="none" points="398.5,-57 398.5,-75 438.5,-75 438.5,-57 398.5,-57"/>
<polygon fill="none" stroke="black" points="398.5,-57 398.5,-75 438.5,-75 438.5,-57 398.5,-57"/>
<text text-anchor="start" x="428.5" y="-63.2" font-family="Helvetica,sans-Serif" font-size="11.00"> &#160;</text>
<polygon fill="#ffffff" stroke="none" points="438.5,-57 438.5,-75 488.5,-75 488.5,-57 438.5,-57"/>
<polygon fill="none" stroke="black" points="438.5,-57 438.5,-75 488.5,-75 488.5,-57 438.5,-57"/>
<text text-anchor="start" x="468.5" y="-63.2" font-family="Helvetica,sans-Serif" font-size="11.00">6 &gt;</text>
</a>
</g>
</g>
<!-- configured_systems&#45;&gt;orchestration_stacks -->
<g id="edge9" class="edge"><title>configured_systems:orchestration_stack_id:w&#45;&gt;orchestration_stacks:elipses:e</title>
<path fill="none" stroke="black" d="M634.424,-84C575.272,-84 555.266,-84 489.5,-84"/>
<polygon fill="black" stroke="black" points="641,-84.0001 649,-87.6 645,-84 649,-84 649,-84 649,-84 645,-84 649,-80.4 641,-84.0001 641,-84.0001"/>
<ellipse fill="none" stroke="black" cx="637.8" cy="-84.0001" rx="3.2" ry="3.2"/>
</g>
<!-- direct_configuration_tags_configured_systems -->
<g id="node9" class="node"><title>direct_configuration_tags_configured_systems</title>
<g id="a_node9"><a xlink:href="../../tables/direct_configuration_tags_configured_systems.html" xlink:title="direct_configuration_tags_configured_systems" target="_top">
<polygon fill="#ffffff" stroke="none" points="994,-259 994,-317 1301,-317 1301,-259 994,-259"/>
<polygon fill="#f5f5f5" stroke="none" points="994.5,-295 994.5,-317 1301.5,-317 1301.5,-295 994.5,-295"/>
<polygon fill="none" stroke="black" points="994.5,-295 994.5,-317 1301.5,-317 1301.5,-295 994.5,-295"/>
<text text-anchor="start" x="999.5" y="-304.2" font-family="Helvetica,sans-Serif" font-weight="bold" font-size="11.00">direct_configuration_tags_configured_systems</text>
<text text-anchor="start" x="1262.5" y="-303.2" font-family="Helvetica,sans-Serif" font-size="11.00">[table]</text>
<polygon fill="none" stroke="black" points="994.5,-277 994.5,-295 1301.5,-295 1301.5,-277 994.5,-277"/>
<text text-anchor="start" x="997.5" y="-283.2" font-family="Helvetica,sans-Serif" font-size="11.00">...</text>
<polygon fill="#ffffff" stroke="none" points="994.5,-259 994.5,-277 1146.5,-277 1146.5,-259 994.5,-259"/>
<polygon fill="none" stroke="black" points="994.5,-259 994.5,-277 1146.5,-277 1146.5,-259 994.5,-259"/>
<text text-anchor="start" x="997.5" y="-265.2" font-family="Helvetica,sans-Serif" font-size="11.00">&lt; 2</text>
<polygon fill="#ffffff" stroke="none" points="1146.5,-259 1146.5,-277 1223.5,-277 1223.5,-259 1146.5,-259"/>
<polygon fill="none" stroke="black" points="1146.5,-259 1146.5,-277 1223.5,-277 1223.5,-259 1146.5,-259"/>
<text text-anchor="start" x="1213.5" y="-265.2" font-family="Helvetica,sans-Serif" font-size="11.00"> &#160;</text>
<polygon fill="#ffffff" stroke="none" points="1223.5,-259 1223.5,-277 1301.5,-277 1301.5,-259 1223.5,-259"/>
<polygon fill="none" stroke="black" points="1223.5,-259 1223.5,-277 1301.5,-277 1301.5,-259 1223.5,-259"/>
<text text-anchor="start" x="1291.5" y="-265.2" font-family="Helvetica,sans-Serif" font-size="11.00"> &#160;</text>
</a>
</g>
</g>
<!-- direct_configuration_tags_configured_systems&#45;&gt;configured_systems -->
<g id="edge10" class="edge"><title>direct_configuration_tags_configured_systems:elipses:w&#45;&gt;configured_systems:id:e</title>
<path fill="none" stroke="black" d="M978.969,-287.823C950.009,-295.648 943.896,-326 907,-326"/>
<polygon fill="black" stroke="black" points="985.562,-286.996 993.948,-289.572 989.531,-286.498 993.5,-286 993.5,-286 993.5,-286 989.531,-286.498 993.052,-282.428 985.562,-286.996 985.562,-286.996"/>
<ellipse fill="none" stroke="black" cx="982.387" cy="-287.394" rx="3.2" ry="3.2"/>
</g>
</g>
</svg>
