<?xml version="1.0" encoding="UTF-8" standalone="no"?>
<!DOCTYPE svg PUBLIC "-//W3C//DTD SVG 1.1//EN"
 "http://www.w3.org/Graphics/SVG/1.1/DTD/svg11.dtd">
<!-- Generated by graphviz version 2.38.0 (20140413.2041)
 -->
<!-- Title: oneDegreeRelationshipsDiagram Pages: 1 -->
<svg width="989pt" height="663pt"
 viewBox="0.00 0.00 989.00 663.00" xmlns="http://www.w3.org/2000/svg" xmlns:xlink="http://www.w3.org/1999/xlink">
<g id="graph0" class="graph" transform="scale(1 1) rotate(0) translate(4 659)">
<title>oneDegreeRelationshipsDiagram</title>
<polygon fill="#ffffff" stroke="none" points="-4,4 -4,-659 985,-659 985,4 -4,4"/>
<text text-anchor="middle" x="74.5" y="-7.2" font-family="Helvetica,sans-Serif" font-size="11.00">Generated by SchemaSpy</text>
<!-- configuration_script_sources -->
<g id="node1" class="node"><title>configuration_script_sources</title>
<g id="a_node1"><a xlink:href="../../tables/configuration_script_sources.html" xlink:title="configuration_script_sources" target="_top">
<polygon fill="#ffffff" stroke="none" points="405,-125 405,-587 722,-587 722,-125 405,-125"/>
<polygon fill="#f5f5f5" stroke="none" points="407.5,-563 407.5,-585 720.5,-585 720.5,-563 407.5,-563"/>
<polygon fill="none" stroke="black" points="407.5,-563 407.5,-585 720.5,-585 720.5,-563 407.5,-563"/>
<text text-anchor="start" x="412.5" y="-572.2" font-family="Helvetica,sans-Serif" font-weight="bold" font-size="11.00">configuration_script_sources</text>
<text text-anchor="start" x="681.5" y="-571.2" font-family="Helvetica,sans-Serif" font-size="11.00">[table]</text>
<polygon fill="none" stroke="black" points="407.5,-541 407.5,-563 599.5,-563 599.5,-541 407.5,-541"/>
<image xlink:href="../../images/primaryKeys.png" width="11px" height="12px" preserveAspectRatio="xMinYMin meet" x="412.5" y="-558"/>
<text text-anchor="start" x="427.5" y="-549.2" font-family="Helvetica,sans-Serif" font-size="11.00">id</text>
<polygon fill="none" stroke="black" points="599.5,-541 599.5,-563 720.5,-563 720.5,-541 599.5,-541"/>
<text text-anchor="start" x="602.5" y="-549.2" font-family="Helvetica,sans-Serif" font-size="11.00">bigserial[19]</text>
<polygon fill="#ffffff" stroke="none" points="407.5,-519 407.5,-541 599.5,-541 599.5,-519 407.5,-519"/>
<polygon fill="none" stroke="black" points="407.5,-519 407.5,-541 599.5,-541 599.5,-519 407.5,-519"/>
<text text-anchor="start" x="427.5" y="-527.2" font-family="Helvetica,sans-Serif" font-size="11.00">manager_id</text>
<polygon fill="none" stroke="black" points="599.5,-519 599.5,-541 720.5,-541 720.5,-519 599.5,-519"/>
<text text-anchor="start" x="602.5" y="-527.2" font-family="Helvetica,sans-Serif" font-size="11.00">int8[19]</text>
<polygon fill="none" stroke="black" points="407.5,-497 407.5,-519 599.5,-519 599.5,-497 407.5,-497"/>
<text text-anchor="start" x="427.5" y="-505.2" font-family="Helvetica,sans-Serif" font-size="11.00">manager_ref</text>
<polygon fill="none" stroke="black" points="599.5,-497 599.5,-519 720.5,-519 720.5,-497 599.5,-497"/>
<text text-anchor="start" x="602.5" y="-505.2" font-family="Helvetica,sans-Serif" font-size="11.00">varchar[2147483647]</text>
<polygon fill="none" stroke="black" points="407.5,-475 407.5,-497 599.5,-497 599.5,-475 407.5,-475"/>
<text text-anchor="start" x="427.5" y="-483.2" font-family="Helvetica,sans-Serif" font-size="11.00">name</text>
<polygon fill="none" stroke="black" points="599.5,-475 599.5,-497 720.5,-497 720.5,-475 599.5,-475"/>
<text text-anchor="start" x="602.5" y="-483.2" font-family="Helvetica,sans-Serif" font-size="11.00">varchar[2147483647]</text>
<polygon fill="none" stroke="black" points="407.5,-453 407.5,-475 599.5,-475 599.5,-453 407.5,-453"/>
<text text-anchor="start" x="427.5" y="-461.2" font-family="Helvetica,sans-Serif" font-size="11.00">description</text>
<polygon fill="none" stroke="black" points="599.5,-453 599.5,-475 720.5,-475 720.5,-453 599.5,-453"/>
<text text-anchor="start" x="602.5" y="-461.2" font-family="Helvetica,sans-Serif" font-size="11.00">varchar[2147483647]</text>
<polygon fill="none" stroke="black" points="407.5,-431 407.5,-453 599.5,-453 599.5,-431 407.5,-431"/>
<text text-anchor="start" x="427.5" y="-439.2" font-family="Helvetica,sans-Serif" font-size="11.00">created_at</text>
<polygon fill="none" stroke="black" points="599.5,-431 599.5,-453 720.5,-453 720.5,-431 599.5,-431"/>
<text text-anchor="start" x="602.5" y="-439.2" font-family="Helvetica,sans-Serif" font-size="11.00">timestamp[29,6]</text>
<polygon fill="none" stroke="black" points="407.5,-409 407.5,-431 599.5,-431 599.5,-409 407.5,-409"/>
<text text-anchor="start" x="427.5" y="-417.2" font-family="Helvetica,sans-Serif" font-size="11.00">updated_at</text>
<polygon fill="none" stroke="black" points="599.5,-409 599.5,-431 720.5,-431 720.5,-409 599.5,-409"/>
<text text-anchor="start" x="602.5" y="-417.2" font-family="Helvetica,sans-Serif" font-size="11.00">timestamp[29,6]</text>
<polygon fill="none" stroke="black" points="407.5,-387 407.5,-409 599.5,-409 599.5,-387 407.5,-387"/>
<text text-anchor="start" x="427.5" y="-395.2" font-family="Helvetica,sans-Serif" font-size="11.00">scm_type</text>
<polygon fill="none" stroke="black" points="599.5,-387 599.5,-409 720.5,-409 720.5,-387 599.5,-387"/>
<text text-anchor="start" x="602.5" y="-395.2" font-family="Helvetica,sans-Serif" font-size="11.00">varchar[2147483647]</text>
<polygon fill="none" stroke="black" points="407.5,-365 407.5,-387 599.5,-387 599.5,-365 407.5,-365"/>
<text text-anchor="start" x="427.5" y="-373.2" font-family="Helvetica,sans-Serif" font-size="11.00">scm_url</text>
<polygon fill="none" stroke="black" points="599.5,-365 599.5,-387 720.5,-387 720.5,-365 599.5,-365"/>
<text text-anchor="start" x="602.5" y="-373.2" font-family="Helvetica,sans-Serif" font-size="11.00">varchar[2147483647]</text>
<polygon fill="none" stroke="black" points="407.5,-343 407.5,-365 599.5,-365 599.5,-343 407.5,-343"/>
<text text-anchor="start" x="427.5" y="-351.2" font-family="Helvetica,sans-Serif" font-size="11.00">scm_branch</text>
<polygon fill="none" stroke="black" points="599.5,-343 599.5,-365 720.5,-365 720.5,-343 599.5,-343"/>
<text text-anchor="start" x="602.5" y="-351.2" font-family="Helvetica,sans-Serif" font-size="11.00">varchar[2147483647]</text>
<polygon fill="none" stroke="black" points="407.5,-321 407.5,-343 599.5,-343 599.5,-321 407.5,-321"/>
<text text-anchor="start" x="427.5" y="-329.2" font-family="Helvetica,sans-Serif" font-size="11.00">scm_clean</text>
<polygon fill="none" stroke="black" points="599.5,-321 599.5,-343 720.5,-343 720.5,-321 599.5,-321"/>
<text text-anchor="start" x="602.5" y="-329.2" font-family="Helvetica,sans-Serif" font-size="11.00">bool[1]</text>
<polygon fill="none" stroke="black" points="407.5,-299 407.5,-321 599.5,-321 599.5,-299 407.5,-299"/>
<text text-anchor="start" x="427.5" y="-307.2" font-family="Helvetica,sans-Serif" font-size="11.00">scm_delete_on_update</text>
<polygon fill="none" stroke="black" points="599.5,-299 599.5,-321 720.5,-321 720.5,-299 599.5,-299"/>
<text text-anchor="start" x="602.5" y="-307.2" font-family="Helvetica,sans-Serif" font-size="11.00">bool[1]</text>
<polygon fill="none" stroke="black" points="407.5,-277 407.5,-299 599.5,-299 599.5,-277 407.5,-277"/>
<text text-anchor="start" x="427.5" y="-285.2" font-family="Helvetica,sans-Serif" font-size="11.00">scm_update_on_launch</text>
<polygon fill="none" stroke="black" points="599.5,-277 599.5,-299 720.5,-299 720.5,-277 599.5,-277"/>
<text text-anchor="start" x="602.5" y="-285.2" font-family="Helvetica,sans-Serif" font-size="11.00">bool[1]</text>
<polygon fill="none" stroke="black" points="407.5,-255 407.5,-277 599.5,-277 599.5,-255 407.5,-255"/>
<image xlink:href="../../images/foreignKeys.png" width="11px" height="12px" preserveAspectRatio="xMinYMin meet" x="412.5" y="-272"/>
<text text-anchor="start" x="427.5" y="-263.2" font-family="Helvetica,sans-Serif" font-size="11.00">authentication_id</text>
<polygon fill="none" stroke="black" points="599.5,-255 599.5,-277 720.5,-277 720.5,-255 599.5,-255"/>
<text text-anchor="start" x="602.5" y="-263.2" font-family="Helvetica,sans-Serif" font-size="11.00">int8[19]</text>
<polygon fill="none" stroke="black" points="407.5,-233 407.5,-255 599.5,-255 599.5,-233 407.5,-233"/>
<text text-anchor="start" x="427.5" y="-241.2" font-family="Helvetica,sans-Serif" font-size="11.00">type</text>
<polygon fill="none" stroke="black" points="599.5,-233 599.5,-255 720.5,-255 720.5,-233 599.5,-233"/>
<text text-anchor="start" x="602.5" y="-241.2" font-family="Helvetica,sans-Serif" font-size="11.00">varchar[2147483647]</text>
<polygon fill="none" stroke="black" points="407.5,-211 407.5,-233 599.5,-233 599.5,-211 407.5,-211"/>
<text text-anchor="start" x="427.5" y="-219.2" font-family="Helvetica,sans-Serif" font-size="11.00">status</text>
<polygon fill="none" stroke="black" points="599.5,-211 599.5,-233 720.5,-233 720.5,-211 599.5,-211"/>
<text text-anchor="start" x="602.5" y="-219.2" font-family="Helvetica,sans-Serif" font-size="11.00">varchar[2147483647]</text>
<polygon fill="none" stroke="black" points="407.5,-189 407.5,-211 599.5,-211 599.5,-189 407.5,-189"/>
<text text-anchor="start" x="427.5" y="-197.2" font-family="Helvetica,sans-Serif" font-size="11.00">last_updated_on</text>
<polygon fill="none" stroke="black" points="599.5,-189 599.5,-211 720.5,-211 720.5,-189 599.5,-189"/>
<text text-anchor="start" x="602.5" y="-197.2" font-family="Helvetica,sans-Serif" font-size="11.00">timestamp[29,6]</text>
<polygon fill="none" stroke="black" points="407.5,-167 407.5,-189 599.5,-189 599.5,-167 407.5,-167"/>
<text text-anchor="start" x="427.5" y="-175.2" font-family="Helvetica,sans-Serif" font-size="11.00">last_update_error</text>
<polygon fill="none" stroke="black" points="599.5,-167 599.5,-189 720.5,-189 720.5,-167 599.5,-167"/>
<text text-anchor="start" x="602.5" y="-175.2" font-family="Helvetica,sans-Serif" font-size="11.00">text[2147483647]</text>
<polygon fill="none" stroke="black" points="407.5,-145 407.5,-167 599.5,-167 599.5,-145 407.5,-145"/>
<image xlink:href="../../images/foreignKeys.png" width="11px" height="12px" preserveAspectRatio="xMinYMin meet" x="412.5" y="-162"/>
<text text-anchor="start" x="427.5" y="-153.2" font-family="Helvetica,sans-Serif" font-size="11.00">git_repository_id</text>
<polygon fill="none" stroke="black" points="599.5,-145 599.5,-167 720.5,-167 720.5,-145 599.5,-145"/>
<text text-anchor="start" x="602.5" y="-153.2" font-family="Helvetica,sans-Serif" font-size="11.00">int8[19]</text>
<polygon fill="#ffffff" stroke="none" points="407.5,-127 407.5,-145 508.5,-145 508.5,-127 407.5,-127"/>
<polygon fill="none" stroke="black" points="407.5,-127 407.5,-145 508.5,-145 508.5,-127 407.5,-127"/>
<text text-anchor="start" x="410.5" y="-133.2" font-family="Helvetica,sans-Serif" font-size="11.00">&lt; 2</text>
<polygon fill="#ffffff" stroke="none" points="508.5,-127 508.5,-145 599.5,-145 599.5,-127 508.5,-127"/>
<polygon fill="none" stroke="black" points="508.5,-127 508.5,-145 599.5,-145 599.5,-127 508.5,-127"/>
<text text-anchor="start" x="589.5" y="-133.2" font-family="Helvetica,sans-Serif" font-size="11.00"> &#160;</text>
<polygon fill="#ffffff" stroke="none" points="599.5,-127 599.5,-145 720.5,-145 720.5,-127 599.5,-127"/>
<polygon fill="none" stroke="black" points="599.5,-127 599.5,-145 720.5,-145 720.5,-127 599.5,-127"/>
<text text-anchor="start" x="700.5" y="-133.2" font-family="Helvetica,sans-Serif" font-size="11.00">1 &gt;</text>
<polygon fill="none" stroke="black" stroke-width="2" points="406,-126 406,-586 721,-586 721,-126 406,-126"/>
</a>
</g>
</g>
<!-- authentications -->
<g id="node2" class="node"><title>authentications</title>
<g id="a_node2"><a xlink:href="../../tables/authentications.html" xlink:title="authentications" target="_top">
<polygon fill="#ffffff" stroke="none" points="8,-37 8,-227 171,-227 171,-37 8,-37"/>
<polygon fill="#f5f5f5" stroke="none" points="8.5,-205 8.5,-227 171.5,-227 171.5,-205 8.5,-205"/>
<polygon fill="none" stroke="black" points="8.5,-205 8.5,-227 171.5,-227 171.5,-205 8.5,-205"/>
<text text-anchor="start" x="13.5" y="-214.2" font-family="Helvetica,sans-Serif" font-weight="bold" font-size="11.00">authentications</text>
<text text-anchor="start" x="132.5" y="-213.2" font-family="Helvetica,sans-Serif" font-size="11.00">[table]</text>
<polygon fill="none" stroke="black" points="8.5,-183 8.5,-205 171.5,-205 171.5,-183 8.5,-183"/>
<image xlink:href="../../images/primaryKeys.png" width="11px" height="12px" preserveAspectRatio="xMinYMin meet" x="13.5" y="-200"/>
<text text-anchor="start" x="28.5" y="-191.2" font-family="Helvetica,sans-Serif" font-size="11.00">id</text>
<polygon fill="#ffffff" stroke="none" points="8.5,-161 8.5,-183 171.5,-183 171.5,-161 8.5,-161"/>
<polygon fill="none" stroke="black" points="8.5,-161 8.5,-183 171.5,-183 171.5,-161 8.5,-161"/>
<text text-anchor="start" x="28.5" y="-169.2" font-family="Helvetica,sans-Serif" font-size="11.00">resource_id</text>
<polygon fill="#ffffff" stroke="none" points="8.5,-139 8.5,-161 171.5,-161 171.5,-139 8.5,-139"/>
<polygon fill="none" stroke="black" points="8.5,-139 8.5,-161 171.5,-161 171.5,-139 8.5,-139"/>
<text text-anchor="start" x="28.5" y="-147.2" font-family="Helvetica,sans-Serif" font-size="11.00">resource_type</text>
<polygon fill="#ffffff" stroke="none" points="8.5,-117 8.5,-139 171.5,-139 171.5,-117 8.5,-117"/>
<polygon fill="none" stroke="black" points="8.5,-117 8.5,-139 171.5,-139 171.5,-117 8.5,-117"/>
<text text-anchor="start" x="28.5" y="-125.2" font-family="Helvetica,sans-Serif" font-size="11.00">type</text>
<polygon fill="none" stroke="black" points="8.5,-95 8.5,-117 171.5,-117 171.5,-95 8.5,-95"/>
<image xlink:href="../../images/foreignKeys.png" width="11px" height="12px" preserveAspectRatio="xMinYMin meet" x="13.5" y="-112"/>
<text text-anchor="start" x="28.5" y="-103.2" font-family="Helvetica,sans-Serif" font-size="11.00">miq_group_id</text>
<polygon fill="none" stroke="black" points="8.5,-73 8.5,-95 171.5,-95 171.5,-73 8.5,-73"/>
<image xlink:href="../../images/foreignKeys.png" width="11px" height="12px" preserveAspectRatio="xMinYMin meet" x="13.5" y="-90"/>
<text text-anchor="start" x="28.5" y="-81.2" font-family="Helvetica,sans-Serif" font-size="11.00">tenant_id</text>
<polygon fill="none" stroke="black" points="8.5,-55 8.5,-73 171.5,-73 171.5,-55 8.5,-55"/>
<text text-anchor="start" x="11.5" y="-61.2" font-family="Helvetica,sans-Serif" font-size="11.00">...</text>
<polygon fill="#ffffff" stroke="none" points="8.5,-37 8.5,-55 83.5,-55 83.5,-37 8.5,-37"/>
<polygon fill="none" stroke="black" points="8.5,-37 8.5,-55 83.5,-55 83.5,-37 8.5,-37"/>
<text text-anchor="start" x="11.5" y="-43.2" font-family="Helvetica,sans-Serif" font-size="11.00">&lt; 2</text>
<polygon fill="#ffffff" stroke="none" points="83.5,-37 83.5,-55 122.5,-55 122.5,-37 83.5,-37"/>
<polygon fill="none" stroke="black" points="83.5,-37 83.5,-55 122.5,-55 122.5,-37 83.5,-37"/>
<text text-anchor="start" x="112.5" y="-43.2" font-family="Helvetica,sans-Serif" font-size="11.00"> &#160;</text>
<polygon fill="#ffffff" stroke="none" points="122.5,-37 122.5,-55 171.5,-55 171.5,-37 122.5,-37"/>
<polygon fill="none" stroke="black" points="122.5,-37 122.5,-55 171.5,-55 171.5,-37 122.5,-37"/>
<text text-anchor="start" x="151.5" y="-43.2" font-family="Helvetica,sans-Serif" font-size="11.00">5 &gt;</text>
</a>
</g>
</g>
<!-- configuration_script_sources&#45;&gt;authentications -->
<g id="edge1" class="edge"><title>configuration_script_sources:authentication_id:w&#45;&gt;authentications:id:e</title>
<path fill="none" stroke="black" d="M391.927,-265.808C314.392,-263.689 290.852,-244.129 212,-214 193.618,-206.977 192.178,-194 172.5,-194"/>
<polygon fill="black" stroke="black" points="398.501,-265.895 406.453,-269.6 402.5,-265.947 406.5,-266 406.5,-266 406.5,-266 402.5,-265.947 406.547,-262.4 398.501,-265.895 398.501,-265.895"/>
<ellipse fill="none" stroke="black" cx="395.301" cy="-265.853" rx="3.2" ry="3.2"/>
</g>
<!-- git_repositories -->
<g id="node3" class="node"><title>git_repositories</title>
<g id="a_node3"><a xlink:href="../../tables/git_repositories.html" xlink:title="git_repositories" target="_top">
<polygon fill="#ffffff" stroke="none" points="220,-101 220,-203 356,-203 356,-101 220,-101"/>
<polygon fill="#f5f5f5" stroke="none" points="220,-181 220,-203 356,-203 356,-181 220,-181"/>
<polygon fill="none" stroke="black" points="220,-181 220,-203 356,-203 356,-181 220,-181"/>
<text text-anchor="start" x="225" y="-190.2" font-family="Helvetica,sans-Serif" font-weight="bold" font-size="11.00">git_repositories</text>
<text text-anchor="start" x="317" y="-189.2" font-family="Helvetica,sans-Serif" font-size="11.00">[table]</text>
<polygon fill="none" stroke="black" points="220,-159 220,-181 356,-181 356,-159 220,-159"/>
<image xlink:href="../../images/primaryKeys.png" width="11px" height="12px" preserveAspectRatio="xMinYMin meet" x="225" y="-176"/>
<text text-anchor="start" x="245" y="-167.2" font-family="Helvetica,sans-Serif" font-size="11.00">id</text>
<polygon fill="none" stroke="black" points="220,-137 220,-159 356,-159 356,-137 220,-137"/>
<image xlink:href="../../images/foreignKeys.png" width="11px" height="12px" preserveAspectRatio="xMinYMin meet" x="225" y="-154"/>
<text text-anchor="start" x="245" y="-145.2" font-family="Helvetica,sans-Serif" font-size="11.00">authentication_id</text>
<polygon fill="none" stroke="black" points="220,-119 220,-137 356,-137 356,-119 220,-119"/>
<text text-anchor="start" x="223" y="-125.2" font-family="Helvetica,sans-Serif" font-size="11.00">...</text>
<polygon fill="#ffffff" stroke="none" points="220,-101 220,-119 281,-119 281,-101 220,-101"/>
<polygon fill="none" stroke="black" points="220,-101 220,-119 281,-119 281,-101 220,-101"/>
<text text-anchor="start" x="223" y="-107.2" font-family="Helvetica,sans-Serif" font-size="11.00">&lt; 1</text>
<polygon fill="#ffffff" stroke="none" points="281,-101 281,-119 313,-119 313,-101 281,-101"/>
<polygon fill="none" stroke="black" points="281,-101 281,-119 313,-119 313,-101 281,-101"/>
<text text-anchor="start" x="303" y="-107.2" font-family="Helvetica,sans-Serif" font-size="11.00"> &#160;</text>
<polygon fill="#ffffff" stroke="none" points="313,-101 313,-119 356,-119 356,-101 313,-101"/>
<polygon fill="none" stroke="black" points="313,-101 313,-119 356,-119 356,-101 313,-101"/>
<text text-anchor="start" x="336" y="-107.2" font-family="Helvetica,sans-Serif" font-size="11.00">3 &gt;</text>
</a>
</g>
</g>
<!-- configuration_script_sources&#45;&gt;git_repositories -->
<g id="edge2" class="edge"><title>configuration_script_sources:git_repository_id:w&#45;&gt;git_repositories:id:e</title>
<path fill="none" stroke="black" d="M391.969,-158.312C380.422,-162.288 373.969,-170 357,-170"/>
<polygon fill="black" stroke="black" points="398.599,-157.257 407.066,-159.555 402.55,-156.629 406.5,-156 406.5,-156 406.5,-156 402.55,-156.629 405.934,-152.445 398.599,-157.257 398.599,-157.257"/>
<ellipse fill="none" stroke="black" cx="395.439" cy="-157.76" rx="3.2" ry="3.2"/>
</g>
<!-- git_repositories&#45;&gt;authentications -->
<g id="edge4" class="edge"><title>git_repositories:authentication_id:w&#45;&gt;authentications:id:e</title>
<path fill="none" stroke="black" d="M205.274,-153.277C193.029,-165.359 195.438,-194 172.5,-194"/>
<polygon fill="black" stroke="black" points="211.533,-150.871 220.292,-151.36 215.266,-149.435 219,-148 219,-148 219,-148 215.266,-149.435 217.708,-144.64 211.533,-150.871 211.533,-150.871"/>
<ellipse fill="none" stroke="black" cx="208.546" cy="-152.019" rx="3.20001" ry="3.20001"/>
</g>
<!-- configuration_scripts -->
<g id="node4" class="node"><title>configuration_scripts</title>
<g id="a_node4"><a xlink:href="../../tables/configuration_scripts.html" xlink:title="configuration_scripts" target="_top">
<polygon fill="#ffffff" stroke="none" points="771,-505 771,-651 973,-651 973,-505 771,-505"/>
<polygon fill="#f5f5f5" stroke="none" points="771,-629 771,-651 973,-651 973,-629 771,-629"/>
<polygon fill="none" stroke="black" points="771,-629 771,-651 973,-651 973,-629 771,-629"/>
<text text-anchor="start" x="776" y="-638.2" font-family="Helvetica,sans-Serif" font-weight="bold" font-size="11.00">configuration_scripts</text>
<text text-anchor="start" x="934" y="-637.2" font-family="Helvetica,sans-Serif" font-size="11.00">[table]</text>
<polygon fill="none" stroke="black" points="771,-607 771,-629 973,-629 973,-607 771,-607"/>
<image xlink:href="../../images/primaryKeys.png" width="11px" height="12px" preserveAspectRatio="xMinYMin meet" x="776" y="-624"/>
<text text-anchor="start" x="791" y="-615.2" font-family="Helvetica,sans-Serif" font-size="11.00">id</text>
<polygon fill="#ffffff" stroke="none" points="771,-585 771,-607 973,-607 973,-585 771,-585"/>
<polygon fill="none" stroke="black" points="771,-585 771,-607 973,-607 973,-585 771,-585"/>
<text text-anchor="start" x="791" y="-593.2" font-family="Helvetica,sans-Serif" font-size="11.00">inventory_root_group_id</text>
<polygon fill="#ffffff" stroke="none" points="771,-563 771,-585 973,-585 973,-563 771,-563"/>
<polygon fill="none" stroke="black" points="771,-563 771,-585 973,-585 973,-563 771,-563"/>
<text text-anchor="start" x="791" y="-571.2" font-family="Helvetica,sans-Serif" font-size="11.00">type</text>
<polygon fill="none" stroke="black" points="771,-541 771,-563 973,-563 973,-541 771,-541"/>
<image xlink:href="../../images/foreignKeys.png" width="11px" height="12px" preserveAspectRatio="xMinYMin meet" x="776" y="-558"/>
<text text-anchor="start" x="791" y="-549.2" font-family="Helvetica,sans-Serif" font-size="11.00">configuration_script_source_id</text>
<polygon fill="none" stroke="black" points="771,-523 771,-541 973,-541 973,-523 771,-523"/>
<text text-anchor="start" x="774" y="-529.2" font-family="Helvetica,sans-Serif" font-size="11.00">...</text>
<polygon fill="#ffffff" stroke="none" points="771,-505 771,-523 870,-523 870,-505 771,-505"/>
<polygon fill="none" stroke="black" points="771,-505 771,-523 870,-523 870,-505 771,-505"/>
<text text-anchor="start" x="774" y="-511.2" font-family="Helvetica,sans-Serif" font-size="11.00">&lt; 1</text>
<polygon fill="#ffffff" stroke="none" points="870,-505 870,-523 921,-523 921,-505 870,-505"/>
<polygon fill="none" stroke="black" points="870,-505 870,-523 921,-523 921,-505 870,-505"/>
<text text-anchor="start" x="911" y="-511.2" font-family="Helvetica,sans-Serif" font-size="11.00"> &#160;</text>
<polygon fill="#ffffff" stroke="none" points="921,-505 921,-523 973,-523 973,-505 921,-505"/>
<polygon fill="none" stroke="black" points="921,-505 921,-523 973,-523 973,-505 921,-505"/>
<text text-anchor="start" x="963" y="-511.2" font-family="Helvetica,sans-Serif" font-size="11.00"> &#160;</text>
</a>
</g>
</g>
<!-- configuration_scripts&#45;&gt;configuration_script_sources -->
<g id="edge3" class="edge"><title>configuration_scripts:configuration_script_source_id:w&#45;&gt;configuration_script_sources:id.type:e</title>
<path fill="none" stroke="black" d="M755.283,-552C744.289,-552 737.161,-552 721.5,-552"/>
<polygon fill="black" stroke="black" points="762,-552 770,-555.6 766,-552 770,-552 770,-552 770,-552 766,-552 770,-548.4 762,-552 762,-552"/>
<ellipse fill="none" stroke="black" cx="758.8" cy="-552" rx="3.2" ry="3.2"/>
</g>
</g>
</svg>
