<?xml version="1.0" encoding="UTF-8" standalone="no"?>
<!DOCTYPE svg PUBLIC "-//W3C//DTD SVG 1.1//EN"
 "http://www.w3.org/Graphics/SVG/1.1/DTD/svg11.dtd">
<!-- Generated by graphviz version 2.38.0 (20140413.2041)
 -->
<!-- Title: oneDegreeRelationshipsDiagram Pages: 1 -->
<svg width="702pt" height="428pt"
 viewBox="0.00 0.00 702.00 428.00" xmlns="http://www.w3.org/2000/svg" xmlns:xlink="http://www.w3.org/1999/xlink">
<g id="graph0" class="graph" transform="scale(1 1) rotate(0) translate(4 424)">
<title>oneDegreeRelationshipsDiagram</title>
<polygon fill="#ffffff" stroke="none" points="-4,4 -4,-424 698,-424 698,4 -4,4"/>
<text text-anchor="middle" x="74.5" y="-7.2" font-family="Helvetica,sans-Serif" font-size="11.00">Generated by SchemaSpy</text>
<!-- configuration_locations_configuration_profiles -->
<g id="node1" class="node"><title>configuration_locations_configuration_profiles</title>
<g id="a_node1"><a xlink:href="../../tables/configuration_locations_configuration_profiles.html" xlink:title="configuration_locations_configuration_profiles" target="_top">
<polygon fill="#ffffff" stroke="none" points="313,-268 313,-378 686,-378 686,-268 313,-268"/>
<polygon fill="#f5f5f5" stroke="none" points="315.5,-354 315.5,-376 684.5,-376 684.5,-354 315.5,-354"/>
<polygon fill="none" stroke="black" points="315.5,-354 315.5,-376 684.5,-376 684.5,-354 315.5,-354"/>
<text text-anchor="start" x="320.5" y="-363.2" font-family="Helvetica,sans-Serif" font-weight="bold" font-size="11.00">configuration_locations_configuration_profiles</text>
<text text-anchor="start" x="645.5" y="-362.2" font-family="Helvetica,sans-Serif" font-size="11.00">[table]</text>
<polygon fill="none" stroke="black" points="315.5,-332 315.5,-354 613.5,-354 613.5,-332 315.5,-332"/>
<image xlink:href="../../images/primaryKeys.png" width="11px" height="12px" preserveAspectRatio="xMinYMin meet" x="320.5" y="-349"/>
<text text-anchor="start" x="335.5" y="-340.2" font-family="Helvetica,sans-Serif" font-size="11.00">id</text>
<polygon fill="none" stroke="black" points="613.5,-332 613.5,-354 684.5,-354 684.5,-332 613.5,-332"/>
<text text-anchor="start" x="616.5" y="-340.2" font-family="Helvetica,sans-Serif" font-size="11.00">bigserial[19]</text>
<polygon fill="#ffffff" stroke="none" points="315.5,-310 315.5,-332 613.5,-332 613.5,-310 315.5,-310"/>
<polygon fill="none" stroke="black" points="315.5,-310 315.5,-332 613.5,-332 613.5,-310 315.5,-310"/>
<image xlink:href="../../images/foreignKeys.png" width="11px" height="12px" preserveAspectRatio="xMinYMin meet" x="320.5" y="-327"/>
<text text-anchor="start" x="335.5" y="-318.2" font-family="Helvetica,sans-Serif" font-size="11.00">configuration_location_id</text>
<polygon fill="none" stroke="black" points="613.5,-310 613.5,-332 684.5,-332 684.5,-310 613.5,-310"/>
<text text-anchor="start" x="616.5" y="-318.2" font-family="Helvetica,sans-Serif" font-size="11.00">int8[19]</text>
<polygon fill="#ffffff" stroke="none" points="315.5,-288 315.5,-310 613.5,-310 613.5,-288 315.5,-288"/>
<polygon fill="none" stroke="black" points="315.5,-288 315.5,-310 613.5,-310 613.5,-288 315.5,-288"/>
<image xlink:href="../../images/foreignKeys.png" width="11px" height="12px" preserveAspectRatio="xMinYMin meet" x="320.5" y="-305"/>
<text text-anchor="start" x="335.5" y="-296.2" font-family="Helvetica,sans-Serif" font-size="11.00">configuration_profile_id</text>
<polygon fill="none" stroke="black" points="613.5,-288 613.5,-310 684.5,-310 684.5,-288 613.5,-288"/>
<text text-anchor="start" x="616.5" y="-296.2" font-family="Helvetica,sans-Serif" font-size="11.00">int8[19]</text>
<polygon fill="#ffffff" stroke="none" points="315.5,-270 315.5,-288 469.5,-288 469.5,-270 315.5,-270"/>
<polygon fill="none" stroke="black" points="315.5,-270 315.5,-288 469.5,-288 469.5,-270 315.5,-270"/>
<text text-anchor="start" x="318.5" y="-276.2" font-family="Helvetica,sans-Serif" font-size="11.00">&lt; 2</text>
<polygon fill="#ffffff" stroke="none" points="469.5,-270 469.5,-288 613.5,-288 613.5,-270 469.5,-270"/>
<polygon fill="none" stroke="black" points="469.5,-270 469.5,-288 613.5,-288 613.5,-270 469.5,-270"/>
<text text-anchor="start" x="603.5" y="-276.2" font-family="Helvetica,sans-Serif" font-size="11.00"> &#160;</text>
<polygon fill="#ffffff" stroke="none" points="613.5,-270 613.5,-288 684.5,-288 684.5,-270 613.5,-270"/>
<polygon fill="none" stroke="black" points="613.5,-270 613.5,-288 684.5,-288 684.5,-270 613.5,-270"/>
<text text-anchor="start" x="664.5" y="-276.2" font-family="Helvetica,sans-Serif" font-size="11.00">0 &gt;</text>
<polygon fill="none" stroke="black" stroke-width="2" points="314,-269 314,-377 685,-377 685,-269 314,-269"/>
</a>
</g>
</g>
<!-- configuration_locations -->
<g id="node2" class="node"><title>configuration_locations</title>
<g id="a_node2"><a xlink:href="../../tables/configuration_locations.html" xlink:title="configuration_locations" target="_top">
<polygon fill="#ffffff" stroke="none" points="45.5,-292 45.5,-416 226.5,-416 226.5,-292 45.5,-292"/>
<polygon fill="#f5f5f5" stroke="none" points="46,-394 46,-416 227,-416 227,-394 46,-394"/>
<polygon fill="none" stroke="black" points="46,-394 46,-416 227,-416 227,-394 46,-394"/>
<text text-anchor="start" x="51" y="-403.2" font-family="Helvetica,sans-Serif" font-weight="bold" font-size="11.00">configuration_locations</text>
<text text-anchor="start" x="188" y="-402.2" font-family="Helvetica,sans-Serif" font-size="11.00">[table]</text>
<polygon fill="none" stroke="black" points="46,-372 46,-394 227,-394 227,-372 46,-372"/>
<image xlink:href="../../images/primaryKeys.png" width="11px" height="12px" preserveAspectRatio="xMinYMin meet" x="51" y="-389"/>
<text text-anchor="start" x="72" y="-380.2" font-family="Helvetica,sans-Serif" font-size="11.00">id</text>
<polygon fill="#ffffff" stroke="none" points="46,-350 46,-372 227,-372 227,-350 46,-350"/>
<polygon fill="none" stroke="black" points="46,-350 46,-372 227,-372 227,-350 46,-350"/>
<text text-anchor="start" x="72" y="-358.2" font-family="Helvetica,sans-Serif" font-size="11.00">provisioning_manager_id</text>
<polygon fill="#ffffff" stroke="none" points="46,-328 46,-350 227,-350 227,-328 46,-328"/>
<polygon fill="none" stroke="black" points="46,-328 46,-350 227,-350 227,-328 46,-328"/>
<text text-anchor="start" x="72" y="-336.2" font-family="Helvetica,sans-Serif" font-size="11.00">manager_ref</text>
<polygon fill="none" stroke="black" points="46,-310 46,-328 227,-328 227,-310 46,-310"/>
<text text-anchor="start" x="49" y="-316.2" font-family="Helvetica,sans-Serif" font-size="11.00">...</text>
<polygon fill="#ffffff" stroke="none" points="46,-292 46,-310 125,-310 125,-292 46,-292"/>
<polygon fill="none" stroke="black" points="46,-292 46,-310 125,-310 125,-292 46,-292"/>
<text text-anchor="start" x="49" y="-298.2" font-family="Helvetica,sans-Serif" font-size="11.00"> &#160;</text>
<polygon fill="#ffffff" stroke="none" points="125,-292 125,-310 171,-310 171,-292 125,-292"/>
<polygon fill="none" stroke="black" points="125,-292 125,-310 171,-310 171,-292 125,-292"/>
<text text-anchor="start" x="161" y="-298.2" font-family="Helvetica,sans-Serif" font-size="11.00"> &#160;</text>
<polygon fill="#ffffff" stroke="none" points="171,-292 171,-310 227,-310 227,-292 171,-292"/>
<polygon fill="none" stroke="black" points="171,-292 171,-310 227,-310 227,-292 171,-292"/>
<text text-anchor="start" x="207" y="-298.2" font-family="Helvetica,sans-Serif" font-size="11.00">2 &gt;</text>
</a>
</g>
</g>
<!-- configuration_locations_configuration_profiles&#45;&gt;configuration_locations -->
<g id="edge1" class="edge"><title>configuration_locations_configuration_profiles:configuration_location_id:w&#45;&gt;configuration_locations:id:e</title>
<path fill="none" stroke="black" d="M299.975,-323.355C268.338,-334.68 269.757,-383 228,-383"/>
<polygon fill="black" stroke="black" points="306.603,-322.28 315.076,-324.554 310.552,-321.64 314.5,-321 314.5,-321 314.5,-321 310.552,-321.64 313.924,-317.446 306.603,-322.28 306.603,-322.28"/>
<ellipse fill="none" stroke="black" cx="303.444" cy="-322.792" rx="3.2" ry="3.2"/>
</g>
<!-- configuration_profiles -->
<g id="node3" class="node"><title>configuration_profiles</title>
<g id="a_node3"><a xlink:href="../../tables/configuration_profiles.html" xlink:title="configuration_profiles" target="_top">
<polygon fill="#ffffff" stroke="none" points="8,-37 8,-271 264,-271 264,-37 8,-37"/>
<polygon fill="#f5f5f5" stroke="none" points="8,-249 8,-271 264,-271 264,-249 8,-249"/>
<polygon fill="none" stroke="black" points="8,-249 8,-271 264,-271 264,-249 8,-249"/>
<text text-anchor="start" x="13" y="-258.2" font-family="Helvetica,sans-Serif" font-weight="bold" font-size="11.00">configuration_profiles</text>
<text text-anchor="start" x="225" y="-257.2" font-family="Helvetica,sans-Serif" font-size="11.00">[table]</text>
<polygon fill="none" stroke="black" points="8,-227 8,-249 264,-249 264,-227 8,-227"/>
<image xlink:href="../../images/primaryKeys.png" width="11px" height="12px" preserveAspectRatio="xMinYMin meet" x="13" y="-244"/>
<text text-anchor="start" x="28" y="-235.2" font-family="Helvetica,sans-Serif" font-size="11.00">id</text>
<polygon fill="#ffffff" stroke="none" points="8,-205 8,-227 264,-227 264,-205 8,-205"/>
<polygon fill="none" stroke="black" points="8,-205 8,-227 264,-227 264,-205 8,-205"/>
<text text-anchor="start" x="28" y="-213.2" font-family="Helvetica,sans-Serif" font-size="11.00">type</text>
<polygon fill="#ffffff" stroke="none" points="8,-183 8,-205 264,-205 264,-183 8,-183"/>
<polygon fill="none" stroke="black" points="8,-183 8,-205 264,-205 264,-183 8,-183"/>
<text text-anchor="start" x="28" y="-191.2" font-family="Helvetica,sans-Serif" font-size="11.00">direct_operating_system_flavor_id</text>
<polygon fill="#ffffff" stroke="none" points="8,-161 8,-183 264,-183 264,-161 8,-161"/>
<polygon fill="none" stroke="black" points="8,-161 8,-183 264,-183 264,-161 8,-161"/>
<text text-anchor="start" x="28" y="-169.2" font-family="Helvetica,sans-Serif" font-size="11.00">manager_id</text>
<polygon fill="#ffffff" stroke="none" points="8,-139 8,-161 264,-161 264,-139 8,-139"/>
<polygon fill="none" stroke="black" points="8,-139 8,-161 264,-161 264,-139 8,-139"/>
<text text-anchor="start" x="28" y="-147.2" font-family="Helvetica,sans-Serif" font-size="11.00">direct_customization_script_ptable_id</text>
<polygon fill="#ffffff" stroke="none" points="8,-117 8,-139 264,-139 264,-117 8,-117"/>
<polygon fill="none" stroke="black" points="8,-117 8,-139 264,-139 264,-117 8,-117"/>
<text text-anchor="start" x="28" y="-125.2" font-family="Helvetica,sans-Serif" font-size="11.00">direct_customization_script_medium_id</text>
<polygon fill="#ffffff" stroke="none" points="8,-95 8,-117 264,-117 264,-95 8,-95"/>
<polygon fill="none" stroke="black" points="8,-95 8,-117 264,-117 264,-95 8,-95"/>
<text text-anchor="start" x="28" y="-103.2" font-family="Helvetica,sans-Serif" font-size="11.00">manager_ref</text>
<polygon fill="none" stroke="black" points="8,-73 8,-95 264,-95 264,-73 8,-73"/>
<image xlink:href="../../images/foreignKeys.png" width="11px" height="12px" preserveAspectRatio="xMinYMin meet" x="13" y="-90"/>
<text text-anchor="start" x="28" y="-81.2" font-family="Helvetica,sans-Serif" font-size="11.00">operating_system_flavor_id</text>
<polygon fill="none" stroke="black" points="8,-55 8,-73 264,-73 264,-55 8,-55"/>
<text text-anchor="start" x="11" y="-61.2" font-family="Helvetica,sans-Serif" font-size="11.00">...</text>
<polygon fill="#ffffff" stroke="none" points="8,-37 8,-55 129,-55 129,-37 8,-37"/>
<polygon fill="none" stroke="black" points="8,-37 8,-55 129,-55 129,-37 8,-37"/>
<text text-anchor="start" x="11" y="-43.2" font-family="Helvetica,sans-Serif" font-size="11.00">&lt; 1</text>
<polygon fill="#ffffff" stroke="none" points="129,-37 129,-55 191,-55 191,-37 129,-37"/>
<polygon fill="none" stroke="black" points="129,-37 129,-55 191,-55 191,-37 129,-37"/>
<text text-anchor="start" x="181" y="-43.2" font-family="Helvetica,sans-Serif" font-size="11.00"> &#160;</text>
<polygon fill="#ffffff" stroke="none" points="191,-37 191,-55 264,-55 264,-37 191,-37"/>
<polygon fill="none" stroke="black" points="191,-37 191,-55 264,-55 264,-37 191,-37"/>
<text text-anchor="start" x="244" y="-43.2" font-family="Helvetica,sans-Serif" font-size="11.00">5 &gt;</text>
</a>
</g>
</g>
<!-- configuration_locations_configuration_profiles&#45;&gt;configuration_profiles -->
<g id="edge2" class="edge"><title>configuration_locations_configuration_profiles:configuration_profile_id:w&#45;&gt;configuration_profiles:id:e</title>
<path fill="none" stroke="black" d="M300.832,-294.213C284.942,-279.833 293.913,-238 265,-238"/>
<polygon fill="black" stroke="black" points="306.95,-296.356 313.31,-302.398 310.725,-297.678 314.5,-299 314.5,-299 314.5,-299 310.725,-297.678 315.69,-295.602 306.95,-296.356 306.95,-296.356"/>
<ellipse fill="none" stroke="black" cx="303.929" cy="-295.298" rx="3.20001" ry="3.20001"/>
</g>
</g>
</svg>
