<?xml version="1.0" encoding="UTF-8" standalone="no"?>
<!DOCTYPE svg PUBLIC "-//W3C//DTD SVG 1.1//EN"
 "http://www.w3.org/Graphics/SVG/1.1/DTD/svg11.dtd">
<!-- Generated by graphviz version 2.38.0 (20140413.2041)
 -->
<!-- Title: twoDegreesRelationshipsDiagram Pages: 1 -->
<svg width="717pt" height="797pt"
 viewBox="0.00 0.00 717.00 797.00" xmlns="http://www.w3.org/2000/svg" xmlns:xlink="http://www.w3.org/1999/xlink">
<g id="graph0" class="graph" transform="scale(1 1) rotate(0) translate(4 793)">
<title>twoDegreesRelationshipsDiagram</title>
<polygon fill="#ffffff" stroke="none" points="-4,4 -4,-793 713,-793 713,4 -4,4"/>
<text text-anchor="middle" x="74.5" y="-7.2" font-family="Helvetica,sans-Serif" font-size="11.00">Generated by SchemaSpy</text>
<!-- container_builds -->
<g id="node1" class="node"><title>container_builds</title>
<g id="a_node1"><a xlink:href="../../tables/container_builds.html" xlink:title="container_builds" target="_top">
<polygon fill="#ffffff" stroke="none" points="273.5,-727 273.5,-785 417.5,-785 417.5,-727 273.5,-727"/>
<polygon fill="#f5f5f5" stroke="none" points="273.5,-763 273.5,-785 417.5,-785 417.5,-763 273.5,-763"/>
<polygon fill="none" stroke="black" points="273.5,-763 273.5,-785 417.5,-785 417.5,-763 273.5,-763"/>
<text text-anchor="start" x="278.5" y="-772.2" font-family="Helvetica,sans-Serif" font-weight="bold" font-size="11.00">container_builds</text>
<text text-anchor="start" x="378.5" y="-771.2" font-family="Helvetica,sans-Serif" font-size="11.00">[table]</text>
<polygon fill="none" stroke="black" points="273.5,-745 273.5,-763 417.5,-763 417.5,-745 273.5,-745"/>
<text text-anchor="start" x="276.5" y="-751.2" font-family="Helvetica,sans-Serif" font-size="11.00">...</text>
<polygon fill="#ffffff" stroke="none" points="273.5,-727 273.5,-745 338.5,-745 338.5,-727 273.5,-727"/>
<polygon fill="none" stroke="black" points="273.5,-727 273.5,-745 338.5,-745 338.5,-727 273.5,-727"/>
<text text-anchor="start" x="276.5" y="-733.2" font-family="Helvetica,sans-Serif" font-size="11.00">&lt; 1</text>
<polygon fill="#ffffff" stroke="none" points="338.5,-727 338.5,-745 372.5,-745 372.5,-727 338.5,-727"/>
<polygon fill="none" stroke="black" points="338.5,-727 338.5,-745 372.5,-745 372.5,-727 338.5,-727"/>
<text text-anchor="start" x="362.5" y="-733.2" font-family="Helvetica,sans-Serif" font-size="11.00"> &#160;</text>
<polygon fill="#ffffff" stroke="none" points="372.5,-727 372.5,-745 417.5,-745 417.5,-727 372.5,-727"/>
<polygon fill="none" stroke="black" points="372.5,-727 372.5,-745 417.5,-745 417.5,-727 372.5,-727"/>
<text text-anchor="start" x="397.5" y="-733.2" font-family="Helvetica,sans-Serif" font-size="11.00">1 &gt;</text>
</a>
</g>
</g>
<!-- container_projects -->
<g id="node2" class="node"><title>container_projects</title>
<g id="a_node2"><a xlink:href="../../tables/container_projects.html" xlink:title="container_projects" target="_top">
<polygon fill="#ffffff" stroke="none" points="8,-237 8,-361 163,-361 163,-237 8,-237"/>
<polygon fill="#f5f5f5" stroke="none" points="8.5,-339 8.5,-361 163.5,-361 163.5,-339 8.5,-339"/>
<polygon fill="none" stroke="black" points="8.5,-339 8.5,-361 163.5,-361 163.5,-339 8.5,-339"/>
<text text-anchor="start" x="13.5" y="-348.2" font-family="Helvetica,sans-Serif" font-weight="bold" font-size="11.00">container_projects</text>
<text text-anchor="start" x="124.5" y="-347.2" font-family="Helvetica,sans-Serif" font-size="11.00">[table]</text>
<polygon fill="none" stroke="black" points="8.5,-317 8.5,-339 163.5,-339 163.5,-317 8.5,-317"/>
<image xlink:href="../../images/primaryKeys.png" width="11px" height="12px" preserveAspectRatio="xMinYMin meet" x="13.5" y="-334"/>
<text text-anchor="start" x="40.5" y="-325.2" font-family="Helvetica,sans-Serif" font-size="11.00">id</text>
<polygon fill="#ffffff" stroke="none" points="8.5,-295 8.5,-317 163.5,-317 163.5,-295 8.5,-295"/>
<polygon fill="none" stroke="black" points="8.5,-295 8.5,-317 163.5,-317 163.5,-295 8.5,-295"/>
<text text-anchor="start" x="40.5" y="-303.2" font-family="Helvetica,sans-Serif" font-size="11.00">ems_id</text>
<polygon fill="#ffffff" stroke="none" points="8.5,-273 8.5,-295 163.5,-295 163.5,-273 8.5,-273"/>
<polygon fill="none" stroke="black" points="8.5,-273 8.5,-295 163.5,-295 163.5,-273 8.5,-273"/>
<text text-anchor="start" x="40.5" y="-281.2" font-family="Helvetica,sans-Serif" font-size="11.00">deleted_on</text>
<polygon fill="none" stroke="black" points="8.5,-255 8.5,-273 163.5,-273 163.5,-255 8.5,-255"/>
<text text-anchor="start" x="11.5" y="-261.2" font-family="Helvetica,sans-Serif" font-size="11.00">...</text>
<polygon fill="#ffffff" stroke="none" points="8.5,-237 8.5,-255 74.5,-255 74.5,-237 8.5,-237"/>
<polygon fill="none" stroke="black" points="8.5,-237 8.5,-255 74.5,-255 74.5,-237 8.5,-237"/>
<text text-anchor="start" x="11.5" y="-243.2" font-family="Helvetica,sans-Serif" font-size="11.00"> &#160;</text>
<polygon fill="#ffffff" stroke="none" points="74.5,-237 74.5,-255 113.5,-255 113.5,-237 74.5,-237"/>
<polygon fill="none" stroke="black" points="74.5,-237 74.5,-255 113.5,-255 113.5,-237 74.5,-237"/>
<text text-anchor="start" x="103.5" y="-243.2" font-family="Helvetica,sans-Serif" font-size="11.00"> &#160;</text>
<polygon fill="#ffffff" stroke="none" points="113.5,-237 113.5,-255 163.5,-255 163.5,-237 113.5,-237"/>
<polygon fill="none" stroke="black" points="113.5,-237 113.5,-255 163.5,-255 163.5,-237 113.5,-237"/>
<text text-anchor="start" x="143.5" y="-243.2" font-family="Helvetica,sans-Serif" font-size="11.00">9 &gt;</text>
</a>
</g>
</g>
<!-- container_builds&#45;&gt;container_projects -->
<g id="edge1" class="edge"><title>container_builds:elipses:w&#45;&gt;container_projects:id:e</title>
<path fill="none" stroke="black" d="M258.035,-753.243C232.76,-750.299 220.224,-738.489 204,-713 157.818,-640.447 250.505,-328 164.5,-328"/>
<polygon fill="black" stroke="black" points="264.511,-753.582 272.312,-757.595 268.505,-753.791 272.5,-754 272.5,-754 272.5,-754 268.505,-753.791 272.688,-750.405 264.511,-753.582 264.511,-753.582"/>
<ellipse fill="none" stroke="black" cx="261.315" cy="-753.415" rx="3.2" ry="3.2"/>
</g>
<!-- container_groups -->
<g id="node3" class="node"><title>container_groups</title>
<g id="a_node3"><a xlink:href="../../tables/container_groups.html" xlink:title="container_groups" target="_top">
<polygon fill="#ffffff" stroke="none" points="541,-658 541,-716 688,-716 688,-658 541,-658"/>
<polygon fill="#f5f5f5" stroke="none" points="541.5,-694 541.5,-716 688.5,-716 688.5,-694 541.5,-694"/>
<polygon fill="none" stroke="black" points="541.5,-694 541.5,-716 688.5,-716 688.5,-694 541.5,-694"/>
<text text-anchor="start" x="546.5" y="-703.2" font-family="Helvetica,sans-Serif" font-weight="bold" font-size="11.00">container_groups</text>
<text text-anchor="start" x="649.5" y="-702.2" font-family="Helvetica,sans-Serif" font-size="11.00">[table]</text>
<polygon fill="none" stroke="black" points="541.5,-676 541.5,-694 688.5,-694 688.5,-676 541.5,-676"/>
<text text-anchor="start" x="544.5" y="-682.2" font-family="Helvetica,sans-Serif" font-size="11.00">...</text>
<polygon fill="#ffffff" stroke="none" points="541.5,-658 541.5,-676 608.5,-676 608.5,-658 541.5,-658"/>
<polygon fill="none" stroke="black" points="541.5,-658 541.5,-676 608.5,-676 608.5,-658 541.5,-658"/>
<text text-anchor="start" x="544.5" y="-664.2" font-family="Helvetica,sans-Serif" font-size="11.00">&lt; 4</text>
<polygon fill="#ffffff" stroke="none" points="608.5,-658 608.5,-676 643.5,-676 643.5,-658 608.5,-658"/>
<polygon fill="none" stroke="black" points="608.5,-658 608.5,-676 643.5,-676 643.5,-658 608.5,-658"/>
<text text-anchor="start" x="633.5" y="-664.2" font-family="Helvetica,sans-Serif" font-size="11.00"> &#160;</text>
<polygon fill="#ffffff" stroke="none" points="643.5,-658 643.5,-676 688.5,-676 688.5,-658 643.5,-658"/>
<polygon fill="none" stroke="black" points="643.5,-658 643.5,-676 688.5,-676 688.5,-658 643.5,-658"/>
<text text-anchor="start" x="668.5" y="-664.2" font-family="Helvetica,sans-Serif" font-size="11.00">3 &gt;</text>
</a>
</g>
</g>
<!-- container_groups&#45;&gt;container_projects -->
<g id="edge2" class="edge"><title>container_groups:elipses:w&#45;&gt;container_projects:id:e</title>
<path fill="none" stroke="black" d="M525.822,-685.589C512.766,-686.72 505.078,-689.157 487,-690 424.179,-692.929 250.819,-731.988 204,-690 143.756,-635.972 245.422,-328 164.5,-328"/>
<polygon fill="black" stroke="black" points="532.506,-685.321 540.644,-688.597 536.503,-685.161 540.5,-685 540.5,-685 540.5,-685 536.503,-685.161 540.356,-681.403 532.506,-685.321 532.506,-685.321"/>
<ellipse fill="none" stroke="black" cx="529.309" cy="-685.449" rx="3.2" ry="3.2"/>
</g>
<!-- container_replicators -->
<g id="node4" class="node"><title>container_replicators</title>
<g id="a_node4"><a xlink:href="../../tables/container_replicators.html" xlink:title="container_replicators" target="_top">
<polygon fill="#ffffff" stroke="none" points="260,-621 260,-679 431,-679 431,-621 260,-621"/>
<polygon fill="#f5f5f5" stroke="none" points="260.5,-657 260.5,-679 431.5,-679 431.5,-657 260.5,-657"/>
<polygon fill="none" stroke="black" points="260.5,-657 260.5,-679 431.5,-679 431.5,-657 260.5,-657"/>
<text text-anchor="start" x="265.5" y="-666.2" font-family="Helvetica,sans-Serif" font-weight="bold" font-size="11.00">container_replicators</text>
<text text-anchor="start" x="392.5" y="-665.2" font-family="Helvetica,sans-Serif" font-size="11.00">[table]</text>
<polygon fill="none" stroke="black" points="260.5,-639 260.5,-657 431.5,-657 431.5,-639 260.5,-639"/>
<text text-anchor="start" x="263.5" y="-645.2" font-family="Helvetica,sans-Serif" font-size="11.00">...</text>
<polygon fill="#ffffff" stroke="none" points="260.5,-621 260.5,-639 339.5,-639 339.5,-621 260.5,-621"/>
<polygon fill="none" stroke="black" points="260.5,-621 260.5,-639 339.5,-639 339.5,-621 260.5,-621"/>
<text text-anchor="start" x="263.5" y="-627.2" font-family="Helvetica,sans-Serif" font-size="11.00">&lt; 1</text>
<polygon fill="#ffffff" stroke="none" points="339.5,-621 339.5,-639 380.5,-639 380.5,-621 339.5,-621"/>
<polygon fill="none" stroke="black" points="339.5,-621 339.5,-639 380.5,-639 380.5,-621 339.5,-621"/>
<text text-anchor="start" x="370.5" y="-627.2" font-family="Helvetica,sans-Serif" font-size="11.00"> &#160;</text>
<polygon fill="#ffffff" stroke="none" points="380.5,-621 380.5,-639 431.5,-639 431.5,-621 380.5,-621"/>
<polygon fill="none" stroke="black" points="380.5,-621 380.5,-639 431.5,-639 431.5,-621 380.5,-621"/>
<text text-anchor="start" x="411.5" y="-627.2" font-family="Helvetica,sans-Serif" font-size="11.00">2 &gt;</text>
</a>
</g>
</g>
<!-- container_groups&#45;&gt;container_replicators -->
<g id="edge3" class="edge"><title>container_groups:elipses:w&#45;&gt;container_replicators:elipses:e</title>
<path fill="none" stroke="black" d="M525.818,-683.852C487.894,-677.607 477.887,-648 432.5,-648"/>
<polygon fill="black" stroke="black" points="532.524,-684.376 540.219,-688.589 536.512,-684.688 540.5,-685 540.5,-685 540.5,-685 536.512,-684.688 540.781,-681.411 532.524,-684.376 532.524,-684.376"/>
<ellipse fill="none" stroke="black" cx="529.334" cy="-684.127" rx="3.2" ry="3.2"/>
</g>
<!-- container_replicators&#45;&gt;container_projects -->
<g id="edge7" class="edge"><title>container_replicators:elipses:w&#45;&gt;container_projects:id:e</title>
<path fill="none" stroke="black" d="M244.993,-646.789C225.959,-643.187 216.871,-631.497 204,-611 170.231,-557.225 227.999,-328 164.5,-328"/>
<polygon fill="black" stroke="black" points="251.528,-647.334 259.201,-651.588 255.514,-647.667 259.5,-648 259.5,-648 259.5,-648 255.514,-647.667 259.799,-644.412 251.528,-647.334 251.528,-647.334"/>
<ellipse fill="none" stroke="black" cx="248.339" cy="-647.068" rx="3.2" ry="3.2"/>
</g>
<!-- container_limit_items -->
<g id="node5" class="node"><title>container_limit_items</title>
<g id="a_node5"><a xlink:href="../../tables/container_limit_items.html" xlink:title="container_limit_items" target="_top">
<polygon fill="#ffffff" stroke="none" points="528,-518 528,-620 701,-620 701,-518 528,-518"/>
<polygon fill="#f5f5f5" stroke="none" points="528.5,-598 528.5,-620 701.5,-620 701.5,-598 528.5,-598"/>
<polygon fill="none" stroke="black" points="528.5,-598 528.5,-620 701.5,-620 701.5,-598 528.5,-598"/>
<text text-anchor="start" x="533.5" y="-607.2" font-family="Helvetica,sans-Serif" font-weight="bold" font-size="11.00">container_limit_items</text>
<text text-anchor="start" x="662.5" y="-606.2" font-family="Helvetica,sans-Serif" font-size="11.00">[table]</text>
<polygon fill="none" stroke="black" points="528.5,-576 528.5,-598 701.5,-598 701.5,-576 528.5,-576"/>
<image xlink:href="../../images/primaryKeys.png" width="11px" height="12px" preserveAspectRatio="xMinYMin meet" x="533.5" y="-593"/>
<text text-anchor="start" x="552.5" y="-584.2" font-family="Helvetica,sans-Serif" font-size="11.00">id</text>
<polygon fill="none" stroke="black" points="528.5,-554 528.5,-576 701.5,-576 701.5,-554 528.5,-554"/>
<image xlink:href="../../images/foreignKeys.png" width="11px" height="12px" preserveAspectRatio="xMinYMin meet" x="533.5" y="-571"/>
<text text-anchor="start" x="552.5" y="-562.2" font-family="Helvetica,sans-Serif" font-size="11.00">container_limit_id</text>
<polygon fill="none" stroke="black" points="528.5,-536 528.5,-554 701.5,-554 701.5,-536 528.5,-536"/>
<text text-anchor="start" x="531.5" y="-542.2" font-family="Helvetica,sans-Serif" font-size="11.00">...</text>
<polygon fill="#ffffff" stroke="none" points="528.5,-518 528.5,-536 613.5,-536 613.5,-518 528.5,-518"/>
<polygon fill="none" stroke="black" points="528.5,-518 528.5,-536 613.5,-536 613.5,-518 528.5,-518"/>
<text text-anchor="start" x="531.5" y="-524.2" font-family="Helvetica,sans-Serif" font-size="11.00">&lt; 1</text>
<polygon fill="#ffffff" stroke="none" points="613.5,-518 613.5,-536 657.5,-536 657.5,-518 613.5,-518"/>
<polygon fill="none" stroke="black" points="613.5,-518 613.5,-536 657.5,-536 657.5,-518 613.5,-518"/>
<text text-anchor="start" x="647.5" y="-524.2" font-family="Helvetica,sans-Serif" font-size="11.00"> &#160;</text>
<polygon fill="#ffffff" stroke="none" points="657.5,-518 657.5,-536 701.5,-536 701.5,-518 657.5,-518"/>
<polygon fill="none" stroke="black" points="657.5,-518 657.5,-536 701.5,-536 701.5,-518 657.5,-518"/>
<text text-anchor="start" x="691.5" y="-524.2" font-family="Helvetica,sans-Serif" font-size="11.00"> &#160;</text>
</a>
</g>
</g>
<!-- container_limits -->
<g id="node6" class="node"><title>container_limits</title>
<g id="a_node6"><a xlink:href="../../tables/container_limits.html" xlink:title="container_limits" target="_top">
<polygon fill="#ffffff" stroke="none" points="212,-380 212,-600 479,-600 479,-380 212,-380"/>
<polygon fill="#f5f5f5" stroke="none" points="214.5,-576 214.5,-598 477.5,-598 477.5,-576 214.5,-576"/>
<polygon fill="none" stroke="black" points="214.5,-576 214.5,-598 477.5,-598 477.5,-576 214.5,-576"/>
<text text-anchor="start" x="219.5" y="-585.2" font-family="Helvetica,sans-Serif" font-weight="bold" font-size="11.00">container_limits</text>
<text text-anchor="start" x="438.5" y="-584.2" font-family="Helvetica,sans-Serif" font-size="11.00">[table]</text>
<polygon fill="none" stroke="black" points="214.5,-554 214.5,-576 356.5,-576 356.5,-554 214.5,-554"/>
<image xlink:href="../../images/primaryKeys.png" width="11px" height="12px" preserveAspectRatio="xMinYMin meet" x="219.5" y="-571"/>
<text text-anchor="start" x="234.5" y="-562.2" font-family="Helvetica,sans-Serif" font-size="11.00">id</text>
<polygon fill="none" stroke="black" points="356.5,-554 356.5,-576 477.5,-576 477.5,-554 356.5,-554"/>
<text text-anchor="start" x="359.5" y="-562.2" font-family="Helvetica,sans-Serif" font-size="11.00">bigserial[19]</text>
<polygon fill="none" stroke="black" points="214.5,-532 214.5,-554 356.5,-554 356.5,-532 214.5,-532"/>
<text text-anchor="start" x="234.5" y="-540.2" font-family="Helvetica,sans-Serif" font-size="11.00">name</text>
<polygon fill="none" stroke="black" points="356.5,-532 356.5,-554 477.5,-554 477.5,-532 356.5,-532"/>
<text text-anchor="start" x="359.5" y="-540.2" font-family="Helvetica,sans-Serif" font-size="11.00">varchar[2147483647]</text>
<polygon fill="none" stroke="black" points="214.5,-510 214.5,-532 356.5,-532 356.5,-510 214.5,-510"/>
<text text-anchor="start" x="234.5" y="-518.2" font-family="Helvetica,sans-Serif" font-size="11.00">ems_created_on</text>
<polygon fill="none" stroke="black" points="356.5,-510 356.5,-532 477.5,-532 477.5,-510 356.5,-510"/>
<text text-anchor="start" x="359.5" y="-518.2" font-family="Helvetica,sans-Serif" font-size="11.00">timestamp[29,6]</text>
<polygon fill="none" stroke="black" points="214.5,-488 214.5,-510 356.5,-510 356.5,-488 214.5,-488"/>
<text text-anchor="start" x="234.5" y="-496.2" font-family="Helvetica,sans-Serif" font-size="11.00">resource_version</text>
<polygon fill="none" stroke="black" points="356.5,-488 356.5,-510 477.5,-510 477.5,-488 356.5,-488"/>
<text text-anchor="start" x="359.5" y="-496.2" font-family="Helvetica,sans-Serif" font-size="11.00">varchar[2147483647]</text>
<polygon fill="none" stroke="black" points="214.5,-466 214.5,-488 356.5,-488 356.5,-466 214.5,-466"/>
<text text-anchor="start" x="234.5" y="-474.2" font-family="Helvetica,sans-Serif" font-size="11.00">ems_ref</text>
<polygon fill="none" stroke="black" points="356.5,-466 356.5,-488 477.5,-488 477.5,-466 356.5,-466"/>
<text text-anchor="start" x="359.5" y="-474.2" font-family="Helvetica,sans-Serif" font-size="11.00">varchar[2147483647]</text>
<polygon fill="none" stroke="black" points="214.5,-444 214.5,-466 356.5,-466 356.5,-444 214.5,-444"/>
<image xlink:href="../../images/foreignKeys.png" width="11px" height="12px" preserveAspectRatio="xMinYMin meet" x="219.5" y="-461"/>
<text text-anchor="start" x="234.5" y="-452.2" font-family="Helvetica,sans-Serif" font-size="11.00">container_project_id</text>
<polygon fill="none" stroke="black" points="356.5,-444 356.5,-466 477.5,-466 477.5,-444 356.5,-444"/>
<text text-anchor="start" x="359.5" y="-452.2" font-family="Helvetica,sans-Serif" font-size="11.00">int8[19]</text>
<polygon fill="none" stroke="black" points="214.5,-422 214.5,-444 356.5,-444 356.5,-422 214.5,-422"/>
<text text-anchor="start" x="234.5" y="-430.2" font-family="Helvetica,sans-Serif" font-size="11.00">ems_id</text>
<polygon fill="none" stroke="black" points="356.5,-422 356.5,-444 477.5,-444 477.5,-422 356.5,-422"/>
<text text-anchor="start" x="359.5" y="-430.2" font-family="Helvetica,sans-Serif" font-size="11.00">int8[19]</text>
<polygon fill="none" stroke="black" points="214.5,-400 214.5,-422 356.5,-422 356.5,-400 214.5,-400"/>
<text text-anchor="start" x="234.5" y="-408.2" font-family="Helvetica,sans-Serif" font-size="11.00">created_on</text>
<polygon fill="none" stroke="black" points="356.5,-400 356.5,-422 477.5,-422 477.5,-400 356.5,-400"/>
<text text-anchor="start" x="359.5" y="-408.2" font-family="Helvetica,sans-Serif" font-size="11.00">timestamp[29,6]</text>
<polygon fill="#ffffff" stroke="none" points="214.5,-382 214.5,-400 290.5,-400 290.5,-382 214.5,-382"/>
<polygon fill="none" stroke="black" points="214.5,-382 214.5,-400 290.5,-400 290.5,-382 214.5,-382"/>
<text text-anchor="start" x="217.5" y="-388.2" font-family="Helvetica,sans-Serif" font-size="11.00">&lt; 1</text>
<polygon fill="#ffffff" stroke="none" points="290.5,-382 290.5,-400 356.5,-400 356.5,-382 290.5,-382"/>
<polygon fill="none" stroke="black" points="290.5,-382 290.5,-400 356.5,-400 356.5,-382 290.5,-382"/>
<text text-anchor="start" x="346.5" y="-388.2" font-family="Helvetica,sans-Serif" font-size="11.00"> &#160;</text>
<polygon fill="#ffffff" stroke="none" points="356.5,-382 356.5,-400 477.5,-400 477.5,-382 356.5,-382"/>
<polygon fill="none" stroke="black" points="356.5,-382 356.5,-400 477.5,-400 477.5,-382 356.5,-382"/>
<text text-anchor="start" x="457.5" y="-388.2" font-family="Helvetica,sans-Serif" font-size="11.00">1 &gt;</text>
<polygon fill="none" stroke="black" stroke-width="2" points="213,-381 213,-599 478,-599 478,-381 213,-381"/>
</a>
</g>
</g>
<!-- container_limit_items&#45;&gt;container_limits -->
<g id="edge4" class="edge"><title>container_limit_items:container_limit_id:w&#45;&gt;container_limits:id.type:e</title>
<path fill="none" stroke="black" d="M512.991,-565C501.677,-565 494.493,-565 478.5,-565"/>
<polygon fill="black" stroke="black" points="519.5,-565 527.5,-568.6 523.5,-565 527.5,-565 527.5,-565 527.5,-565 523.5,-565 527.5,-561.4 519.5,-565 519.5,-565"/>
<ellipse fill="none" stroke="black" cx="516.3" cy="-565" rx="3.2" ry="3.2"/>
</g>
<!-- container_limits&#45;&gt;container_projects -->
<g id="edge5" class="edge"><title>container_limits:container_project_id:w&#45;&gt;container_projects:id:e</title>
<path fill="none" stroke="black" d="M199.319,-451.603C165.799,-431.406 219.092,-328 164.5,-328"/>
<polygon fill="black" stroke="black" points="205.72,-453.136 212.661,-458.501 209.61,-454.068 213.5,-455 213.5,-455 213.5,-455 209.61,-454.068 214.339,-451.499 205.72,-453.136 205.72,-453.136"/>
<ellipse fill="none" stroke="black" cx="202.608" cy="-452.391" rx="3.2" ry="3.2"/>
</g>
<!-- container_quotas -->
<g id="node7" class="node"><title>container_quotas</title>
<g id="a_node7"><a xlink:href="../../tables/container_quotas.html" xlink:title="container_quotas" target="_top">
<polygon fill="#ffffff" stroke="none" points="271.5,-301 271.5,-359 419.5,-359 419.5,-301 271.5,-301"/>
<polygon fill="#f5f5f5" stroke="none" points="271.5,-337 271.5,-359 419.5,-359 419.5,-337 271.5,-337"/>
<polygon fill="none" stroke="black" points="271.5,-337 271.5,-359 419.5,-359 419.5,-337 271.5,-337"/>
<text text-anchor="start" x="276.5" y="-346.2" font-family="Helvetica,sans-Serif" font-weight="bold" font-size="11.00">container_quotas</text>
<text text-anchor="start" x="380.5" y="-345.2" font-family="Helvetica,sans-Serif" font-size="11.00">[table]</text>
<polygon fill="none" stroke="black" points="271.5,-319 271.5,-337 419.5,-337 419.5,-319 271.5,-319"/>
<text text-anchor="start" x="274.5" y="-325.2" font-family="Helvetica,sans-Serif" font-size="11.00">...</text>
<polygon fill="#ffffff" stroke="none" points="271.5,-301 271.5,-319 338.5,-319 338.5,-301 271.5,-301"/>
<polygon fill="none" stroke="black" points="271.5,-301 271.5,-319 338.5,-319 338.5,-301 271.5,-301"/>
<text text-anchor="start" x="274.5" y="-307.2" font-family="Helvetica,sans-Serif" font-size="11.00">&lt; 1</text>
<polygon fill="#ffffff" stroke="none" points="338.5,-301 338.5,-319 373.5,-319 373.5,-301 338.5,-301"/>
<polygon fill="none" stroke="black" points="338.5,-301 338.5,-319 373.5,-319 373.5,-301 338.5,-301"/>
<text text-anchor="start" x="363.5" y="-307.2" font-family="Helvetica,sans-Serif" font-size="11.00"> &#160;</text>
<polygon fill="#ffffff" stroke="none" points="373.5,-301 373.5,-319 419.5,-319 419.5,-301 373.5,-301"/>
<polygon fill="none" stroke="black" points="373.5,-301 373.5,-319 419.5,-319 419.5,-301 373.5,-301"/>
<text text-anchor="start" x="399.5" y="-307.2" font-family="Helvetica,sans-Serif" font-size="11.00">2 &gt;</text>
</a>
</g>
</g>
<!-- container_quotas&#45;&gt;container_projects -->
<g id="edge6" class="edge"><title>container_quotas:elipses:w&#45;&gt;container_projects:id:e</title>
<path fill="none" stroke="black" d="M255.747,-328C220.267,-328 206.274,-328 164.5,-328"/>
<polygon fill="black" stroke="black" points="262.5,-328 270.5,-331.6 266.5,-328 270.5,-328 270.5,-328 270.5,-328 266.5,-328 270.5,-324.4 262.5,-328 262.5,-328"/>
<ellipse fill="none" stroke="black" cx="259.3" cy="-328" rx="3.2" ry="3.2"/>
</g>
<!-- container_routes -->
<g id="node8" class="node"><title>container_routes</title>
<g id="a_node8"><a xlink:href="../../tables/container_routes.html" xlink:title="container_routes" target="_top">
<polygon fill="#ffffff" stroke="none" points="542,-223 542,-281 687,-281 687,-223 542,-223"/>
<polygon fill="#f5f5f5" stroke="none" points="542.5,-259 542.5,-281 687.5,-281 687.5,-259 542.5,-259"/>
<polygon fill="none" stroke="black" points="542.5,-259 542.5,-281 687.5,-281 687.5,-259 542.5,-259"/>
<text text-anchor="start" x="547.5" y="-268.2" font-family="Helvetica,sans-Serif" font-weight="bold" font-size="11.00">container_routes</text>
<text text-anchor="start" x="648.5" y="-267.2" font-family="Helvetica,sans-Serif" font-size="11.00">[table]</text>
<polygon fill="none" stroke="black" points="542.5,-241 542.5,-259 687.5,-259 687.5,-241 542.5,-241"/>
<text text-anchor="start" x="545.5" y="-247.2" font-family="Helvetica,sans-Serif" font-size="11.00">...</text>
<polygon fill="#ffffff" stroke="none" points="542.5,-223 542.5,-241 613.5,-241 613.5,-223 542.5,-223"/>
<polygon fill="none" stroke="black" points="542.5,-223 542.5,-241 613.5,-241 613.5,-223 542.5,-223"/>
<text text-anchor="start" x="545.5" y="-229.2" font-family="Helvetica,sans-Serif" font-size="11.00">&lt; 2</text>
<polygon fill="#ffffff" stroke="none" points="613.5,-223 613.5,-241 650.5,-241 650.5,-223 613.5,-223"/>
<polygon fill="none" stroke="black" points="613.5,-223 613.5,-241 650.5,-241 650.5,-223 613.5,-223"/>
<text text-anchor="start" x="640.5" y="-229.2" font-family="Helvetica,sans-Serif" font-size="11.00"> &#160;</text>
<polygon fill="#ffffff" stroke="none" points="650.5,-223 650.5,-241 687.5,-241 687.5,-223 650.5,-223"/>
<polygon fill="none" stroke="black" points="650.5,-223 650.5,-241 687.5,-241 687.5,-223 650.5,-223"/>
<text text-anchor="start" x="677.5" y="-229.2" font-family="Helvetica,sans-Serif" font-size="11.00"> &#160;</text>
</a>
</g>
</g>
<!-- container_routes&#45;&gt;container_projects -->
<g id="edge8" class="edge"><title>container_routes:elipses:w&#45;&gt;container_projects:id:e</title>
<path fill="none" stroke="black" d="M527.141,-251.317C513.275,-254.114 506.053,-260.665 487,-264 362.543,-285.785 319.165,-239.028 204,-291 182.075,-300.895 188.554,-328 164.5,-328"/>
<polygon fill="black" stroke="black" points="533.533,-250.731 541.829,-253.585 537.517,-250.365 541.5,-250 541.5,-250 541.5,-250 537.517,-250.365 541.171,-246.415 533.533,-250.731 533.533,-250.731"/>
<ellipse fill="none" stroke="black" cx="530.347" cy="-251.023" rx="3.2" ry="3.2"/>
</g>
<!-- container_services -->
<g id="node9" class="node"><title>container_services</title>
<g id="a_node9"><a xlink:href="../../tables/container_services.html" xlink:title="container_services" target="_top">
<polygon fill="#ffffff" stroke="none" points="268.5,-195 268.5,-253 422.5,-253 422.5,-195 268.5,-195"/>
<polygon fill="#f5f5f5" stroke="none" points="268.5,-231 268.5,-253 422.5,-253 422.5,-231 268.5,-231"/>
<polygon fill="none" stroke="black" points="268.5,-231 268.5,-253 422.5,-253 422.5,-231 268.5,-231"/>
<text text-anchor="start" x="273.5" y="-240.2" font-family="Helvetica,sans-Serif" font-weight="bold" font-size="11.00">container_services</text>
<text text-anchor="start" x="383.5" y="-239.2" font-family="Helvetica,sans-Serif" font-size="11.00">[table]</text>
<polygon fill="none" stroke="black" points="268.5,-213 268.5,-231 422.5,-231 422.5,-213 268.5,-213"/>
<text text-anchor="start" x="271.5" y="-219.2" font-family="Helvetica,sans-Serif" font-size="11.00">...</text>
<polygon fill="#ffffff" stroke="none" points="268.5,-195 268.5,-213 338.5,-213 338.5,-195 268.5,-195"/>
<polygon fill="none" stroke="black" points="268.5,-195 268.5,-213 338.5,-213 338.5,-195 268.5,-195"/>
<text text-anchor="start" x="271.5" y="-201.2" font-family="Helvetica,sans-Serif" font-size="11.00">&lt; 2</text>
<polygon fill="#ffffff" stroke="none" points="338.5,-195 338.5,-213 375.5,-213 375.5,-195 338.5,-195"/>
<polygon fill="none" stroke="black" points="338.5,-195 338.5,-213 375.5,-213 375.5,-195 338.5,-195"/>
<text text-anchor="start" x="365.5" y="-201.2" font-family="Helvetica,sans-Serif" font-size="11.00"> &#160;</text>
<polygon fill="#ffffff" stroke="none" points="375.5,-195 375.5,-213 422.5,-213 422.5,-195 375.5,-195"/>
<polygon fill="none" stroke="black" points="375.5,-195 375.5,-213 422.5,-213 422.5,-195 375.5,-195"/>
<text text-anchor="start" x="402.5" y="-201.2" font-family="Helvetica,sans-Serif" font-size="11.00">3 &gt;</text>
</a>
</g>
</g>
<!-- container_routes&#45;&gt;container_services -->
<g id="edge9" class="edge"><title>container_routes:elipses:w&#45;&gt;container_services:elipses:e</title>
<path fill="none" stroke="black" d="M526.878,-249.251C485.191,-244.798 472.137,-222 423.5,-222"/>
<polygon fill="black" stroke="black" points="533.51,-249.591 541.316,-253.595 537.505,-249.795 541.5,-250 541.5,-250 541.5,-250 537.505,-249.795 541.684,-246.405 533.51,-249.591 533.51,-249.591"/>
<ellipse fill="none" stroke="black" cx="530.315" cy="-249.427" rx="3.2" ry="3.2"/>
</g>
<!-- container_services&#45;&gt;container_projects -->
<g id="edge10" class="edge"><title>container_services:elipses:w&#45;&gt;container_projects:id:e</title>
<path fill="none" stroke="black" d="M252.96,-223.48C230.832,-228.544 224.107,-246.033 204,-267 181.644,-290.312 196.799,-328 164.5,-328"/>
<polygon fill="black" stroke="black" points="259.541,-222.81 267.864,-225.582 263.521,-222.405 267.5,-222 267.5,-222 267.5,-222 263.521,-222.405 267.136,-218.418 259.541,-222.81 259.541,-222.81"/>
<ellipse fill="none" stroke="black" cx="256.358" cy="-223.134" rx="3.2" ry="3.2"/>
</g>
<!-- container_templates -->
<g id="node10" class="node"><title>container_templates</title>
<g id="a_node10"><a xlink:href="../../tables/container_templates.html" xlink:title="container_templates" target="_top">
<polygon fill="#ffffff" stroke="none" points="262,-116 262,-174 429,-174 429,-116 262,-116"/>
<polygon fill="#f5f5f5" stroke="none" points="262.5,-152 262.5,-174 429.5,-174 429.5,-152 262.5,-152"/>
<polygon fill="none" stroke="black" points="262.5,-152 262.5,-174 429.5,-174 429.5,-152 262.5,-152"/>
<text text-anchor="start" x="267.5" y="-161.2" font-family="Helvetica,sans-Serif" font-weight="bold" font-size="11.00">container_templates</text>
<text text-anchor="start" x="390.5" y="-160.2" font-family="Helvetica,sans-Serif" font-size="11.00">[table]</text>
<polygon fill="none" stroke="black" points="262.5,-134 262.5,-152 429.5,-152 429.5,-134 262.5,-134"/>
<text text-anchor="start" x="265.5" y="-140.2" font-family="Helvetica,sans-Serif" font-size="11.00">...</text>
<polygon fill="#ffffff" stroke="none" points="262.5,-116 262.5,-134 339.5,-134 339.5,-116 262.5,-116"/>
<polygon fill="none" stroke="black" points="262.5,-116 262.5,-134 339.5,-134 339.5,-116 262.5,-116"/>
<text text-anchor="start" x="265.5" y="-122.2" font-family="Helvetica,sans-Serif" font-size="11.00">&lt; 1</text>
<polygon fill="#ffffff" stroke="none" points="339.5,-116 339.5,-134 379.5,-134 379.5,-116 339.5,-116"/>
<polygon fill="none" stroke="black" points="339.5,-116 339.5,-134 379.5,-134 379.5,-116 339.5,-116"/>
<text text-anchor="start" x="369.5" y="-122.2" font-family="Helvetica,sans-Serif" font-size="11.00"> &#160;</text>
<polygon fill="#ffffff" stroke="none" points="379.5,-116 379.5,-134 429.5,-134 429.5,-116 379.5,-116"/>
<polygon fill="none" stroke="black" points="379.5,-116 379.5,-134 429.5,-134 429.5,-116 379.5,-116"/>
<text text-anchor="start" x="409.5" y="-122.2" font-family="Helvetica,sans-Serif" font-size="11.00">1 &gt;</text>
</a>
</g>
</g>
<!-- container_templates&#45;&gt;container_projects -->
<g id="edge11" class="edge"><title>container_templates:elipses:w&#45;&gt;container_projects:id:e</title>
<path fill="none" stroke="black" d="M246.923,-144.389C226.946,-148.69 218.81,-162.789 204,-184 166.007,-238.413 230.864,-328 164.5,-328"/>
<polygon fill="black" stroke="black" points="253.536,-143.759 261.842,-146.584 257.518,-143.379 261.5,-143 261.5,-143 261.5,-143 257.518,-143.379 261.158,-139.416 253.536,-143.759 253.536,-143.759"/>
<ellipse fill="none" stroke="black" cx="250.351" cy="-144.063" rx="3.2" ry="3.2"/>
</g>
<!-- persistent_volume_claims -->
<g id="node11" class="node"><title>persistent_volume_claims</title>
<g id="a_node11"><a xlink:href="../../tables/persistent_volume_claims.html" xlink:title="persistent_volume_claims" target="_top">
<polygon fill="#ffffff" stroke="none" points="247.5,-37 247.5,-95 443.5,-95 443.5,-37 247.5,-37"/>
<polygon fill="#f5f5f5" stroke="none" points="247.5,-73 247.5,-95 443.5,-95 443.5,-73 247.5,-73"/>
<polygon fill="none" stroke="black" points="247.5,-73 247.5,-95 443.5,-95 443.5,-73 247.5,-73"/>
<text text-anchor="start" x="252.5" y="-82.2" font-family="Helvetica,sans-Serif" font-weight="bold" font-size="11.00">persistent_volume_claims</text>
<text text-anchor="start" x="404.5" y="-81.2" font-family="Helvetica,sans-Serif" font-size="11.00">[table]</text>
<polygon fill="none" stroke="black" points="247.5,-55 247.5,-73 443.5,-73 443.5,-55 247.5,-55"/>
<text text-anchor="start" x="250.5" y="-61.2" font-family="Helvetica,sans-Serif" font-size="11.00">...</text>
<polygon fill="#ffffff" stroke="none" points="247.5,-37 247.5,-55 338.5,-55 338.5,-37 247.5,-37"/>
<polygon fill="none" stroke="black" points="247.5,-37 247.5,-55 338.5,-55 338.5,-37 247.5,-37"/>
<text text-anchor="start" x="250.5" y="-43.2" font-family="Helvetica,sans-Serif" font-size="11.00">&lt; 1</text>
<polygon fill="#ffffff" stroke="none" points="338.5,-37 338.5,-55 385.5,-55 385.5,-37 338.5,-37"/>
<polygon fill="none" stroke="black" points="338.5,-37 338.5,-55 385.5,-55 385.5,-37 338.5,-37"/>
<text text-anchor="start" x="375.5" y="-43.2" font-family="Helvetica,sans-Serif" font-size="11.00"> &#160;</text>
<polygon fill="#ffffff" stroke="none" points="385.5,-37 385.5,-55 443.5,-55 443.5,-37 385.5,-37"/>
<polygon fill="none" stroke="black" points="385.5,-37 385.5,-55 443.5,-55 443.5,-37 385.5,-37"/>
<text text-anchor="start" x="423.5" y="-43.2" font-family="Helvetica,sans-Serif" font-size="11.00">1 &gt;</text>
</a>
</g>
</g>
<!-- persistent_volume_claims&#45;&gt;container_projects -->
<g id="edge12" class="edge"><title>persistent_volume_claims:elipses:w&#45;&gt;container_projects:id:e</title>
<path fill="none" stroke="black" d="M232.16,-66.4293C218.137,-72.0576 213.638,-86.9018 204,-105 180.344,-149.421 214.827,-328 164.5,-328"/>
<polygon fill="black" stroke="black" points="238.612,-65.3362 247.101,-67.5494 242.556,-64.6681 246.5,-64 246.5,-64 246.5,-64 242.556,-64.6681 245.899,-60.4506 238.612,-65.3362 238.612,-65.3362"/>
<ellipse fill="none" stroke="black" cx="235.457" cy="-65.8707" rx="3.2" ry="3.2"/>
</g>
</g>
</svg>
