<?xml version="1.0" encoding="UTF-8" standalone="no"?>
<!DOCTYPE svg PUBLIC "-//W3C//DTD SVG 1.1//EN"
 "http://www.w3.org/Graphics/SVG/1.1/DTD/svg11.dtd">
<!-- Generated by graphviz version 2.38.0 (20140413.2041)
 -->
<!-- Title: oneDegreeRelationshipsDiagram Pages: 1 -->
<svg width="590pt" height="329pt"
 viewBox="0.00 0.00 590.00 329.00" xmlns="http://www.w3.org/2000/svg" xmlns:xlink="http://www.w3.org/1999/xlink">
<g id="graph0" class="graph" transform="scale(1 1) rotate(0) translate(4 325)">
<title>oneDegreeRelationshipsDiagram</title>
<polygon fill="#ffffff" stroke="none" points="-4,4 -4,-325 586,-325 586,4 -4,4"/>
<text text-anchor="middle" x="74.5" y="-7.2" font-family="Helvetica,sans-Serif" font-size="11.00">Generated by SchemaSpy</text>
<!-- container_service_port_configs -->
<g id="node1" class="node"><title>container_service_port_configs</title>
<g id="a_node1"><a xlink:href="../../tables/container_service_port_configs.html" xlink:title="container_service_port_configs" target="_top">
<polygon fill="#ffffff" stroke="none" points="245,-97 245,-317 574,-317 574,-97 245,-97"/>
<polygon fill="#f5f5f5" stroke="none" points="247.5,-293 247.5,-315 572.5,-315 572.5,-293 247.5,-293"/>
<polygon fill="none" stroke="black" points="247.5,-293 247.5,-315 572.5,-315 572.5,-293 247.5,-293"/>
<text text-anchor="start" x="252.5" y="-302.2" font-family="Helvetica,sans-Serif" font-weight="bold" font-size="11.00">container_service_port_configs</text>
<text text-anchor="start" x="533.5" y="-301.2" font-family="Helvetica,sans-Serif" font-size="11.00">[table]</text>
<polygon fill="none" stroke="black" points="247.5,-271 247.5,-293 451.5,-293 451.5,-271 247.5,-271"/>
<image xlink:href="../../images/primaryKeys.png" width="11px" height="12px" preserveAspectRatio="xMinYMin meet" x="252.5" y="-288"/>
<text text-anchor="start" x="267.5" y="-279.2" font-family="Helvetica,sans-Serif" font-size="11.00">id</text>
<polygon fill="none" stroke="black" points="451.5,-271 451.5,-293 572.5,-293 572.5,-271 451.5,-271"/>
<text text-anchor="start" x="454.5" y="-279.2" font-family="Helvetica,sans-Serif" font-size="11.00">bigserial[19]</text>
<polygon fill="none" stroke="black" points="247.5,-249 247.5,-271 451.5,-271 451.5,-249 247.5,-249"/>
<text text-anchor="start" x="267.5" y="-257.2" font-family="Helvetica,sans-Serif" font-size="11.00">ems_ref</text>
<polygon fill="none" stroke="black" points="451.5,-249 451.5,-271 572.5,-271 572.5,-249 451.5,-249"/>
<text text-anchor="start" x="454.5" y="-257.2" font-family="Helvetica,sans-Serif" font-size="11.00">varchar[2147483647]</text>
<polygon fill="none" stroke="black" points="247.5,-227 247.5,-249 451.5,-249 451.5,-227 247.5,-227"/>
<text text-anchor="start" x="267.5" y="-235.2" font-family="Helvetica,sans-Serif" font-size="11.00">name</text>
<polygon fill="none" stroke="black" points="451.5,-227 451.5,-249 572.5,-249 572.5,-227 451.5,-227"/>
<text text-anchor="start" x="454.5" y="-235.2" font-family="Helvetica,sans-Serif" font-size="11.00">varchar[2147483647]</text>
<polygon fill="none" stroke="black" points="247.5,-205 247.5,-227 451.5,-227 451.5,-205 247.5,-205"/>
<text text-anchor="start" x="267.5" y="-213.2" font-family="Helvetica,sans-Serif" font-size="11.00">port</text>
<polygon fill="none" stroke="black" points="451.5,-205 451.5,-227 572.5,-227 572.5,-205 451.5,-205"/>
<text text-anchor="start" x="454.5" y="-213.2" font-family="Helvetica,sans-Serif" font-size="11.00">int4[10]</text>
<polygon fill="none" stroke="black" points="247.5,-183 247.5,-205 451.5,-205 451.5,-183 247.5,-183"/>
<text text-anchor="start" x="267.5" y="-191.2" font-family="Helvetica,sans-Serif" font-size="11.00">target_port</text>
<polygon fill="none" stroke="black" points="451.5,-183 451.5,-205 572.5,-205 572.5,-183 451.5,-183"/>
<text text-anchor="start" x="454.5" y="-191.2" font-family="Helvetica,sans-Serif" font-size="11.00">varchar[2147483647]</text>
<polygon fill="none" stroke="black" points="247.5,-161 247.5,-183 451.5,-183 451.5,-161 247.5,-161"/>
<text text-anchor="start" x="267.5" y="-169.2" font-family="Helvetica,sans-Serif" font-size="11.00">protocol</text>
<polygon fill="none" stroke="black" points="451.5,-161 451.5,-183 572.5,-183 572.5,-161 451.5,-161"/>
<text text-anchor="start" x="454.5" y="-169.2" font-family="Helvetica,sans-Serif" font-size="11.00">varchar[2147483647]</text>
<polygon fill="none" stroke="black" points="247.5,-139 247.5,-161 451.5,-161 451.5,-139 247.5,-139"/>
<image xlink:href="../../images/foreignKeys.png" width="11px" height="12px" preserveAspectRatio="xMinYMin meet" x="252.5" y="-156"/>
<text text-anchor="start" x="267.5" y="-147.2" font-family="Helvetica,sans-Serif" font-size="11.00">container_service_id</text>
<polygon fill="none" stroke="black" points="451.5,-139 451.5,-161 572.5,-161 572.5,-139 451.5,-139"/>
<text text-anchor="start" x="454.5" y="-147.2" font-family="Helvetica,sans-Serif" font-size="11.00">int8[19]</text>
<polygon fill="none" stroke="black" points="247.5,-117 247.5,-139 451.5,-139 451.5,-117 247.5,-117"/>
<text text-anchor="start" x="267.5" y="-125.2" font-family="Helvetica,sans-Serif" font-size="11.00">node_port</text>
<polygon fill="none" stroke="black" points="451.5,-117 451.5,-139 572.5,-139 572.5,-117 451.5,-117"/>
<text text-anchor="start" x="454.5" y="-125.2" font-family="Helvetica,sans-Serif" font-size="11.00">int4[10]</text>
<polygon fill="#ffffff" stroke="none" points="247.5,-99 247.5,-117 354.5,-117 354.5,-99 247.5,-99"/>
<polygon fill="none" stroke="black" points="247.5,-99 247.5,-117 354.5,-117 354.5,-99 247.5,-99"/>
<text text-anchor="start" x="250.5" y="-105.2" font-family="Helvetica,sans-Serif" font-size="11.00">&lt; 1</text>
<polygon fill="#ffffff" stroke="none" points="354.5,-99 354.5,-117 451.5,-117 451.5,-99 354.5,-99"/>
<polygon fill="none" stroke="black" points="354.5,-99 354.5,-117 451.5,-117 451.5,-99 354.5,-99"/>
<text text-anchor="start" x="441.5" y="-105.2" font-family="Helvetica,sans-Serif" font-size="11.00"> &#160;</text>
<polygon fill="#ffffff" stroke="none" points="451.5,-99 451.5,-117 572.5,-117 572.5,-99 451.5,-99"/>
<polygon fill="none" stroke="black" points="451.5,-99 451.5,-117 572.5,-117 572.5,-99 451.5,-99"/>
<text text-anchor="start" x="552.5" y="-105.2" font-family="Helvetica,sans-Serif" font-size="11.00">0 &gt;</text>
<polygon fill="none" stroke="black" stroke-width="2" points="246,-98 246,-316 573,-316 573,-98 246,-98"/>
</a>
</g>
</g>
<!-- container_services -->
<g id="node2" class="node"><title>container_services</title>
<g id="a_node2"><a xlink:href="../../tables/container_services.html" xlink:title="container_services" target="_top">
<polygon fill="#ffffff" stroke="none" points="8,-37 8,-183 196,-183 196,-37 8,-37"/>
<polygon fill="#f5f5f5" stroke="none" points="8,-161 8,-183 196,-183 196,-161 8,-161"/>
<polygon fill="none" stroke="black" points="8,-161 8,-183 196,-183 196,-161 8,-161"/>
<text text-anchor="start" x="13" y="-170.2" font-family="Helvetica,sans-Serif" font-weight="bold" font-size="11.00">container_services</text>
<text text-anchor="start" x="157" y="-169.2" font-family="Helvetica,sans-Serif" font-size="11.00">[table]</text>
<polygon fill="none" stroke="black" points="8,-139 8,-161 196,-161 196,-139 8,-139"/>
<image xlink:href="../../images/primaryKeys.png" width="11px" height="12px" preserveAspectRatio="xMinYMin meet" x="13" y="-156"/>
<text text-anchor="start" x="28" y="-147.2" font-family="Helvetica,sans-Serif" font-size="11.00">id</text>
<polygon fill="#ffffff" stroke="none" points="8,-117 8,-139 196,-139 196,-117 8,-117"/>
<polygon fill="none" stroke="black" points="8,-117 8,-139 196,-139 196,-117 8,-117"/>
<text text-anchor="start" x="28" y="-125.2" font-family="Helvetica,sans-Serif" font-size="11.00">ems_id</text>
<polygon fill="none" stroke="black" points="8,-95 8,-117 196,-117 196,-95 8,-95"/>
<image xlink:href="../../images/foreignKeys.png" width="11px" height="12px" preserveAspectRatio="xMinYMin meet" x="13" y="-112"/>
<text text-anchor="start" x="28" y="-103.2" font-family="Helvetica,sans-Serif" font-size="11.00">container_project_id</text>
<polygon fill="none" stroke="black" points="8,-73 8,-95 196,-95 196,-73 8,-73"/>
<image xlink:href="../../images/foreignKeys.png" width="11px" height="12px" preserveAspectRatio="xMinYMin meet" x="13" y="-90"/>
<text text-anchor="start" x="28" y="-81.2" font-family="Helvetica,sans-Serif" font-size="11.00">container_image_registry_id</text>
<polygon fill="none" stroke="black" points="8,-55 8,-73 196,-73 196,-55 8,-55"/>
<text text-anchor="start" x="11" y="-61.2" font-family="Helvetica,sans-Serif" font-size="11.00">...</text>
<polygon fill="#ffffff" stroke="none" points="8,-37 8,-55 95,-55 95,-37 8,-37"/>
<polygon fill="none" stroke="black" points="8,-37 8,-55 95,-55 95,-37 8,-37"/>
<text text-anchor="start" x="11" y="-43.2" font-family="Helvetica,sans-Serif" font-size="11.00">&lt; 2</text>
<polygon fill="#ffffff" stroke="none" points="95,-37 95,-55 140,-55 140,-37 95,-37"/>
<polygon fill="none" stroke="black" points="95,-37 95,-55 140,-55 140,-37 95,-37"/>
<text text-anchor="start" x="130" y="-43.2" font-family="Helvetica,sans-Serif" font-size="11.00"> &#160;</text>
<polygon fill="#ffffff" stroke="none" points="140,-37 140,-55 196,-55 196,-37 140,-37"/>
<polygon fill="none" stroke="black" points="140,-37 140,-55 196,-55 196,-37 140,-37"/>
<text text-anchor="start" x="176" y="-43.2" font-family="Helvetica,sans-Serif" font-size="11.00">3 &gt;</text>
</a>
</g>
</g>
<!-- container_service_port_configs&#45;&gt;container_services -->
<g id="edge1" class="edge"><title>container_service_port_configs:container_service_id:w&#45;&gt;container_services:id:e</title>
<path fill="none" stroke="black" d="M231.843,-150C220.414,-150 213.156,-150 197,-150"/>
<polygon fill="black" stroke="black" points="238.5,-150 246.5,-153.6 242.5,-150 246.5,-150 246.5,-150 246.5,-150 242.5,-150 246.5,-146.4 238.5,-150 238.5,-150"/>
<ellipse fill="none" stroke="black" cx="235.3" cy="-150" rx="3.2" ry="3.2"/>
</g>
</g>
</svg>
