<?xml version="1.0" encoding="UTF-8" standalone="no"?>
<!DOCTYPE svg PUBLIC "-//W3C//DTD SVG 1.1//EN"
 "http://www.w3.org/Graphics/SVG/1.1/DTD/svg11.dtd">
<!-- Generated by graphviz version 2.38.0 (20140413.2041)
 -->
<!-- Title: oneDegreeRelationshipsDiagram Pages: 1 -->
<svg width="783pt" height="783pt"
 viewBox="0.00 0.00 783.00 783.00" xmlns="http://www.w3.org/2000/svg" xmlns:xlink="http://www.w3.org/1999/xlink">
<g id="graph0" class="graph" transform="scale(1 1) rotate(0) translate(4 779)">
<title>oneDegreeRelationshipsDiagram</title>
<polygon fill="#ffffff" stroke="none" points="-4,4 -4,-779 779,-779 779,4 -4,4"/>
<text text-anchor="middle" x="74.5" y="-7.2" font-family="Helvetica,sans-Serif" font-size="11.00">Generated by SchemaSpy</text>
<!-- container_groups -->
<g id="node1" class="node"><title>container_groups</title>
<g id="a_node1"><a xlink:href="../../tables/container_groups.html" xlink:title="container_groups" target="_top">
<polygon fill="#ffffff" stroke="none" points="371,-256 371,-490 537,-490 537,-256 371,-256"/>
<polygon fill="#f5f5f5" stroke="none" points="371,-468 371,-490 537,-490 537,-468 371,-468"/>
<polygon fill="none" stroke="black" points="371,-468 371,-490 537,-490 537,-468 371,-468"/>
<text text-anchor="start" x="376" y="-477.2" font-family="Helvetica,sans-Serif" font-weight="bold" font-size="11.00">container_groups</text>
<text text-anchor="start" x="498" y="-476.2" font-family="Helvetica,sans-Serif" font-size="11.00">[table]</text>
<polygon fill="none" stroke="black" points="371,-446 371,-468 537,-468 537,-446 371,-446"/>
<image xlink:href="../../images/primaryKeys.png" width="11px" height="12px" preserveAspectRatio="xMinYMin meet" x="376" y="-463"/>
<text text-anchor="start" x="391" y="-454.2" font-family="Helvetica,sans-Serif" font-size="11.00">id</text>
<polygon fill="#ffffff" stroke="none" points="371,-424 371,-446 537,-446 537,-424 371,-424"/>
<polygon fill="none" stroke="black" points="371,-424 371,-446 537,-446 537,-424 371,-424"/>
<text text-anchor="start" x="391" y="-432.2" font-family="Helvetica,sans-Serif" font-size="11.00">ems_id</text>
<polygon fill="none" stroke="black" points="371,-402 371,-424 537,-424 537,-402 371,-402"/>
<image xlink:href="../../images/foreignKeys.png" width="11px" height="12px" preserveAspectRatio="xMinYMin meet" x="376" y="-419"/>
<text text-anchor="start" x="391" y="-410.2" font-family="Helvetica,sans-Serif" font-size="11.00">container_node_id</text>
<polygon fill="none" stroke="black" points="371,-380 371,-402 537,-402 537,-380 371,-380"/>
<image xlink:href="../../images/foreignKeys.png" width="11px" height="12px" preserveAspectRatio="xMinYMin meet" x="376" y="-397"/>
<text text-anchor="start" x="391" y="-388.2" font-family="Helvetica,sans-Serif" font-size="11.00">container_replicator_id</text>
<polygon fill="#ffffff" stroke="none" points="371,-358 371,-380 537,-380 537,-358 371,-358"/>
<polygon fill="none" stroke="black" points="371,-358 371,-380 537,-380 537,-358 371,-358"/>
<text text-anchor="start" x="391" y="-366.2" font-family="Helvetica,sans-Serif" font-size="11.00">type</text>
<polygon fill="none" stroke="black" points="371,-336 371,-358 537,-358 537,-336 371,-336"/>
<image xlink:href="../../images/foreignKeys.png" width="11px" height="12px" preserveAspectRatio="xMinYMin meet" x="376" y="-353"/>
<text text-anchor="start" x="391" y="-344.2" font-family="Helvetica,sans-Serif" font-size="11.00">container_project_id</text>
<polygon fill="none" stroke="black" points="371,-314 371,-336 537,-336 537,-314 371,-314"/>
<image xlink:href="../../images/foreignKeys.png" width="11px" height="12px" preserveAspectRatio="xMinYMin meet" x="376" y="-331"/>
<text text-anchor="start" x="391" y="-322.2" font-family="Helvetica,sans-Serif" font-size="11.00">container_build_pod_id</text>
<polygon fill="#ffffff" stroke="none" points="371,-292 371,-314 537,-314 537,-292 371,-292"/>
<polygon fill="none" stroke="black" points="371,-292 371,-314 537,-314 537,-292 371,-292"/>
<text text-anchor="start" x="391" y="-300.2" font-family="Helvetica,sans-Serif" font-size="11.00">deleted_on</text>
<polygon fill="none" stroke="black" points="371,-274 371,-292 537,-292 537,-274 371,-274"/>
<text text-anchor="start" x="374" y="-280.2" font-family="Helvetica,sans-Serif" font-size="11.00">...</text>
<polygon fill="#ffffff" stroke="none" points="371,-256 371,-274 447,-274 447,-256 371,-256"/>
<polygon fill="none" stroke="black" points="371,-256 371,-274 447,-274 447,-256 371,-256"/>
<text text-anchor="start" x="374" y="-262.2" font-family="Helvetica,sans-Serif" font-size="11.00">&lt; 4</text>
<polygon fill="#ffffff" stroke="none" points="447,-256 447,-274 487,-274 487,-256 447,-256"/>
<polygon fill="none" stroke="black" points="447,-256 447,-274 487,-274 487,-256 447,-256"/>
<text text-anchor="start" x="477" y="-262.2" font-family="Helvetica,sans-Serif" font-size="11.00"> &#160;</text>
<polygon fill="#ffffff" stroke="none" points="487,-256 487,-274 537,-274 537,-256 487,-256"/>
<polygon fill="none" stroke="black" points="487,-256 487,-274 537,-274 537,-256 487,-256"/>
<text text-anchor="start" x="517" y="-262.2" font-family="Helvetica,sans-Serif" font-size="11.00">3 &gt;</text>
</a>
</g>
</g>
<!-- container_nodes -->
<g id="node2" class="node"><title>container_nodes</title>
<g id="a_node2"><a xlink:href="../../tables/container_nodes.html" xlink:title="container_nodes" target="_top">
<polygon fill="#ffffff" stroke="none" points="8,-37 8,-499 322,-499 322,-37 8,-37"/>
<polygon fill="#f5f5f5" stroke="none" points="10,-475 10,-497 320,-497 320,-475 10,-475"/>
<polygon fill="none" stroke="black" points="10,-475 10,-497 320,-497 320,-475 10,-475"/>
<text text-anchor="start" x="15" y="-484.2" font-family="Helvetica,sans-Serif" font-weight="bold" font-size="11.00">container_nodes</text>
<text text-anchor="start" x="281" y="-483.2" font-family="Helvetica,sans-Serif" font-size="11.00">[table]</text>
<polygon fill="none" stroke="black" points="10,-453 10,-475 199,-475 199,-453 10,-453"/>
<image xlink:href="../../images/primaryKeys.png" width="11px" height="12px" preserveAspectRatio="xMinYMin meet" x="15" y="-470"/>
<text text-anchor="start" x="30" y="-461.2" font-family="Helvetica,sans-Serif" font-size="11.00">id</text>
<polygon fill="none" stroke="black" points="199,-453 199,-475 320,-475 320,-453 199,-453"/>
<text text-anchor="start" x="202" y="-461.2" font-family="Helvetica,sans-Serif" font-size="11.00">bigserial[19]</text>
<polygon fill="none" stroke="black" points="10,-431 10,-453 199,-453 199,-431 10,-431"/>
<text text-anchor="start" x="30" y="-439.2" font-family="Helvetica,sans-Serif" font-size="11.00">ems_ref</text>
<polygon fill="none" stroke="black" points="199,-431 199,-453 320,-453 320,-431 199,-431"/>
<text text-anchor="start" x="202" y="-439.2" font-family="Helvetica,sans-Serif" font-size="11.00">varchar[2147483647]</text>
<polygon fill="none" stroke="black" points="10,-409 10,-431 199,-431 199,-409 10,-409"/>
<text text-anchor="start" x="30" y="-417.2" font-family="Helvetica,sans-Serif" font-size="11.00">name</text>
<polygon fill="none" stroke="black" points="199,-409 199,-431 320,-431 320,-409 199,-409"/>
<text text-anchor="start" x="202" y="-417.2" font-family="Helvetica,sans-Serif" font-size="11.00">varchar[2147483647]</text>
<polygon fill="none" stroke="black" points="10,-387 10,-409 199,-409 199,-387 10,-387"/>
<text text-anchor="start" x="30" y="-395.2" font-family="Helvetica,sans-Serif" font-size="11.00">ems_created_on</text>
<polygon fill="none" stroke="black" points="199,-387 199,-409 320,-409 320,-387 199,-387"/>
<text text-anchor="start" x="202" y="-395.2" font-family="Helvetica,sans-Serif" font-size="11.00">timestamp[29,6]</text>
<polygon fill="none" stroke="black" points="10,-365 10,-387 199,-387 199,-365 10,-365"/>
<text text-anchor="start" x="30" y="-373.2" font-family="Helvetica,sans-Serif" font-size="11.00">resource_version</text>
<polygon fill="none" stroke="black" points="199,-365 199,-387 320,-387 320,-365 199,-365"/>
<text text-anchor="start" x="202" y="-373.2" font-family="Helvetica,sans-Serif" font-size="11.00">varchar[2147483647]</text>
<polygon fill="#ffffff" stroke="none" points="10,-343 10,-365 199,-365 199,-343 10,-343"/>
<polygon fill="none" stroke="black" points="10,-343 10,-365 199,-365 199,-343 10,-343"/>
<text text-anchor="start" x="30" y="-351.2" font-family="Helvetica,sans-Serif" font-size="11.00">ems_id</text>
<polygon fill="none" stroke="black" points="199,-343 199,-365 320,-365 320,-343 199,-343"/>
<text text-anchor="start" x="202" y="-351.2" font-family="Helvetica,sans-Serif" font-size="11.00">int8[19]</text>
<polygon fill="none" stroke="black" points="10,-321 10,-343 199,-343 199,-321 10,-321"/>
<text text-anchor="start" x="30" y="-329.2" font-family="Helvetica,sans-Serif" font-size="11.00">lives_on_type</text>
<polygon fill="none" stroke="black" points="199,-321 199,-343 320,-343 320,-321 199,-321"/>
<text text-anchor="start" x="202" y="-329.2" font-family="Helvetica,sans-Serif" font-size="11.00">varchar[2147483647]</text>
<polygon fill="none" stroke="black" points="10,-299 10,-321 199,-321 199,-299 10,-299"/>
<text text-anchor="start" x="30" y="-307.2" font-family="Helvetica,sans-Serif" font-size="11.00">lives_on_id</text>
<polygon fill="none" stroke="black" points="199,-299 199,-321 320,-321 320,-299 199,-299"/>
<text text-anchor="start" x="202" y="-307.2" font-family="Helvetica,sans-Serif" font-size="11.00">int8[19]</text>
<polygon fill="none" stroke="black" points="10,-277 10,-299 199,-299 199,-277 10,-277"/>
<text text-anchor="start" x="30" y="-285.2" font-family="Helvetica,sans-Serif" font-size="11.00">last_perf_capture_on</text>
<polygon fill="none" stroke="black" points="199,-277 199,-299 320,-299 320,-277 199,-277"/>
<text text-anchor="start" x="202" y="-285.2" font-family="Helvetica,sans-Serif" font-size="11.00">timestamp[29,6]</text>
<polygon fill="none" stroke="black" points="10,-255 10,-277 199,-277 199,-255 10,-255"/>
<text text-anchor="start" x="30" y="-263.2" font-family="Helvetica,sans-Serif" font-size="11.00">identity_infra</text>
<polygon fill="none" stroke="black" points="199,-255 199,-277 320,-277 320,-255 199,-255"/>
<text text-anchor="start" x="202" y="-263.2" font-family="Helvetica,sans-Serif" font-size="11.00">varchar[2147483647]</text>
<polygon fill="none" stroke="black" points="10,-233 10,-255 199,-255 199,-233 10,-233"/>
<text text-anchor="start" x="30" y="-241.2" font-family="Helvetica,sans-Serif" font-size="11.00">identity_machine</text>
<polygon fill="none" stroke="black" points="199,-233 199,-255 320,-255 320,-233 199,-233"/>
<text text-anchor="start" x="202" y="-241.2" font-family="Helvetica,sans-Serif" font-size="11.00">varchar[2147483647]</text>
<polygon fill="none" stroke="black" points="10,-211 10,-233 199,-233 199,-211 10,-211"/>
<text text-anchor="start" x="30" y="-219.2" font-family="Helvetica,sans-Serif" font-size="11.00">identity_system</text>
<polygon fill="none" stroke="black" points="199,-211 199,-233 320,-233 320,-211 199,-211"/>
<text text-anchor="start" x="202" y="-219.2" font-family="Helvetica,sans-Serif" font-size="11.00">varchar[2147483647]</text>
<polygon fill="#ffffff" stroke="none" points="10,-189 10,-211 199,-211 199,-189 10,-189"/>
<polygon fill="none" stroke="black" points="10,-189 10,-211 199,-211 199,-189 10,-189"/>
<text text-anchor="start" x="30" y="-197.2" font-family="Helvetica,sans-Serif" font-size="11.00">type</text>
<polygon fill="none" stroke="black" points="199,-189 199,-211 320,-211 320,-189 199,-189"/>
<text text-anchor="start" x="202" y="-197.2" font-family="Helvetica,sans-Serif" font-size="11.00">varchar[2147483647]</text>
<polygon fill="none" stroke="black" points="10,-167 10,-189 199,-189 199,-167 10,-167"/>
<text text-anchor="start" x="30" y="-175.2" font-family="Helvetica,sans-Serif" font-size="11.00">kubernetes_kubelet_version</text>
<polygon fill="none" stroke="black" points="199,-167 199,-189 320,-189 320,-167 199,-167"/>
<text text-anchor="start" x="202" y="-175.2" font-family="Helvetica,sans-Serif" font-size="11.00">varchar[2147483647]</text>
<polygon fill="none" stroke="black" points="10,-145 10,-167 199,-167 199,-145 10,-145"/>
<text text-anchor="start" x="30" y="-153.2" font-family="Helvetica,sans-Serif" font-size="11.00">kubernetes_proxy_version</text>
<polygon fill="none" stroke="black" points="199,-145 199,-167 320,-167 320,-145 199,-145"/>
<text text-anchor="start" x="202" y="-153.2" font-family="Helvetica,sans-Serif" font-size="11.00">varchar[2147483647]</text>
<polygon fill="none" stroke="black" points="10,-123 10,-145 199,-145 199,-123 10,-123"/>
<text text-anchor="start" x="30" y="-131.2" font-family="Helvetica,sans-Serif" font-size="11.00">container_runtime_version</text>
<polygon fill="none" stroke="black" points="199,-123 199,-145 320,-145 320,-123 199,-123"/>
<text text-anchor="start" x="202" y="-131.2" font-family="Helvetica,sans-Serif" font-size="11.00">varchar[2147483647]</text>
<polygon fill="none" stroke="black" points="10,-101 10,-123 199,-123 199,-101 10,-101"/>
<text text-anchor="start" x="30" y="-109.2" font-family="Helvetica,sans-Serif" font-size="11.00">max_container_groups</text>
<polygon fill="none" stroke="black" points="199,-101 199,-123 320,-123 320,-101 199,-101"/>
<text text-anchor="start" x="202" y="-109.2" font-family="Helvetica,sans-Serif" font-size="11.00">int4[10]</text>
<polygon fill="none" stroke="black" points="10,-79 10,-101 199,-101 199,-79 10,-79"/>
<text text-anchor="start" x="30" y="-87.2" font-family="Helvetica,sans-Serif" font-size="11.00">created_on</text>
<polygon fill="none" stroke="black" points="199,-79 199,-101 320,-101 320,-79 199,-79"/>
<text text-anchor="start" x="202" y="-87.2" font-family="Helvetica,sans-Serif" font-size="11.00">timestamp[29,6]</text>
<polygon fill="#ffffff" stroke="none" points="10,-57 10,-79 199,-79 199,-57 10,-57"/>
<polygon fill="none" stroke="black" points="10,-57 10,-79 199,-79 199,-57 10,-57"/>
<text text-anchor="start" x="30" y="-65.2" font-family="Helvetica,sans-Serif" font-size="11.00">deleted_on</text>
<polygon fill="none" stroke="black" points="199,-57 199,-79 320,-79 320,-57 199,-57"/>
<text text-anchor="start" x="202" y="-65.2" font-family="Helvetica,sans-Serif" font-size="11.00">timestamp[29,6]</text>
<polygon fill="#ffffff" stroke="none" points="10,-39 10,-57 109,-57 109,-39 10,-39"/>
<polygon fill="none" stroke="black" points="10,-39 10,-57 109,-57 109,-39 10,-39"/>
<text text-anchor="start" x="13" y="-45.2" font-family="Helvetica,sans-Serif" font-size="11.00">&lt; 0</text>
<polygon fill="#ffffff" stroke="none" points="109,-39 109,-57 199,-57 199,-39 109,-39"/>
<polygon fill="none" stroke="black" points="109,-39 109,-57 199,-57 199,-39 109,-39"/>
<text text-anchor="start" x="189" y="-45.2" font-family="Helvetica,sans-Serif" font-size="11.00"> &#160;</text>
<polygon fill="#ffffff" stroke="none" points="199,-39 199,-57 320,-57 320,-39 199,-39"/>
<polygon fill="none" stroke="black" points="199,-39 199,-57 320,-57 320,-39 199,-39"/>
<text text-anchor="start" x="300" y="-45.2" font-family="Helvetica,sans-Serif" font-size="11.00">2 &gt;</text>
<polygon fill="none" stroke="black" stroke-width="2" points="9,-38 9,-498 321,-498 321,-38 9,-38"/>
</a>
</g>
</g>
<!-- container_groups&#45;&gt;container_nodes -->
<g id="edge1" class="edge"><title>container_groups:container_node_id:w&#45;&gt;container_nodes:id.type:e</title>
<path fill="none" stroke="black" d="M356.091,-418.077C342.255,-430.976 346.294,-464 321,-464"/>
<polygon fill="black" stroke="black" points="362.485,-415.743 371.234,-416.382 366.242,-414.371 370,-413 370,-413 370,-413 366.242,-414.371 368.766,-409.618 362.485,-415.743 362.485,-415.743"/>
<ellipse fill="none" stroke="black" cx="359.479" cy="-416.84" rx="3.20001" ry="3.20001"/>
</g>
<!-- event_streams -->
<g id="node3" class="node"><title>event_streams</title>
<g id="a_node3"><a xlink:href="../../tables/event_streams.html" xlink:title="event_streams" target="_top">
<polygon fill="#ffffff" stroke="none" points="586,-251 586,-771 767,-771 767,-251 586,-251"/>
<polygon fill="#f5f5f5" stroke="none" points="586.5,-749 586.5,-771 767.5,-771 767.5,-749 586.5,-749"/>
<polygon fill="none" stroke="black" points="586.5,-749 586.5,-771 767.5,-771 767.5,-749 586.5,-749"/>
<text text-anchor="start" x="591.5" y="-758.2" font-family="Helvetica,sans-Serif" font-weight="bold" font-size="11.00">event_streams</text>
<text text-anchor="start" x="728.5" y="-757.2" font-family="Helvetica,sans-Serif" font-size="11.00">[table]</text>
<polygon fill="none" stroke="black" points="586.5,-727 586.5,-749 767.5,-749 767.5,-727 586.5,-727"/>
<image xlink:href="../../images/primaryKeys.png" width="11px" height="12px" preserveAspectRatio="xMinYMin meet" x="591.5" y="-744"/>
<text text-anchor="start" x="606.5" y="-735.2" font-family="Helvetica,sans-Serif" font-size="11.00">id</text>
<polygon fill="#ffffff" stroke="none" points="586.5,-705 586.5,-727 767.5,-727 767.5,-705 586.5,-705"/>
<polygon fill="none" stroke="black" points="586.5,-705 586.5,-727 767.5,-727 767.5,-705 586.5,-705"/>
<text text-anchor="start" x="606.5" y="-713.2" font-family="Helvetica,sans-Serif" font-size="11.00">event_type</text>
<polygon fill="#ffffff" stroke="none" points="586.5,-683 586.5,-705 767.5,-705 767.5,-683 586.5,-683"/>
<polygon fill="none" stroke="black" points="586.5,-683 586.5,-705 767.5,-705 767.5,-683 586.5,-683"/>
<text text-anchor="start" x="606.5" y="-691.2" font-family="Helvetica,sans-Serif" font-size="11.00">timestamp</text>
<polygon fill="#ffffff" stroke="none" points="586.5,-661 586.5,-683 767.5,-683 767.5,-661 586.5,-661"/>
<polygon fill="none" stroke="black" points="586.5,-661 586.5,-683 767.5,-683 767.5,-661 586.5,-661"/>
<image xlink:href="../../images/foreignKeys.png" width="11px" height="12px" preserveAspectRatio="xMinYMin meet" x="591.5" y="-678"/>
<text text-anchor="start" x="606.5" y="-669.2" font-family="Helvetica,sans-Serif" font-size="11.00">host_id</text>
<polygon fill="#ffffff" stroke="none" points="586.5,-639 586.5,-661 767.5,-661 767.5,-639 586.5,-639"/>
<polygon fill="none" stroke="black" points="586.5,-639 586.5,-661 767.5,-661 767.5,-639 586.5,-639"/>
<text text-anchor="start" x="606.5" y="-647.2" font-family="Helvetica,sans-Serif" font-size="11.00">vm_or_template_id</text>
<polygon fill="#ffffff" stroke="none" points="586.5,-617 586.5,-639 767.5,-639 767.5,-617 586.5,-617"/>
<polygon fill="none" stroke="black" points="586.5,-617 586.5,-639 767.5,-639 767.5,-617 586.5,-617"/>
<text text-anchor="start" x="606.5" y="-625.2" font-family="Helvetica,sans-Serif" font-size="11.00">dest_host_id</text>
<polygon fill="#ffffff" stroke="none" points="586.5,-595 586.5,-617 767.5,-617 767.5,-595 586.5,-595"/>
<polygon fill="none" stroke="black" points="586.5,-595 586.5,-617 767.5,-617 767.5,-595 586.5,-595"/>
<text text-anchor="start" x="606.5" y="-603.2" font-family="Helvetica,sans-Serif" font-size="11.00">dest_vm_or_template_id</text>
<polygon fill="#ffffff" stroke="none" points="586.5,-573 586.5,-595 767.5,-595 767.5,-573 586.5,-573"/>
<polygon fill="none" stroke="black" points="586.5,-573 586.5,-595 767.5,-595 767.5,-573 586.5,-573"/>
<text text-anchor="start" x="606.5" y="-581.2" font-family="Helvetica,sans-Serif" font-size="11.00">chain_id</text>
<polygon fill="#ffffff" stroke="none" points="586.5,-551 586.5,-573 767.5,-573 767.5,-551 586.5,-551"/>
<polygon fill="none" stroke="black" points="586.5,-551 586.5,-573 767.5,-573 767.5,-551 586.5,-551"/>
<text text-anchor="start" x="606.5" y="-559.2" font-family="Helvetica,sans-Serif" font-size="11.00">ems_id</text>
<polygon fill="#ffffff" stroke="none" points="586.5,-529 586.5,-551 767.5,-551 767.5,-529 586.5,-529"/>
<polygon fill="none" stroke="black" points="586.5,-529 586.5,-551 767.5,-551 767.5,-529 586.5,-529"/>
<image xlink:href="../../images/foreignKeys.png" width="11px" height="12px" preserveAspectRatio="xMinYMin meet" x="591.5" y="-546"/>
<text text-anchor="start" x="606.5" y="-537.2" font-family="Helvetica,sans-Serif" font-size="11.00">ems_cluster_id</text>
<polygon fill="#ffffff" stroke="none" points="586.5,-507 586.5,-529 767.5,-529 767.5,-507 586.5,-507"/>
<polygon fill="none" stroke="black" points="586.5,-507 586.5,-529 767.5,-529 767.5,-507 586.5,-507"/>
<image xlink:href="../../images/foreignKeys.png" width="11px" height="12px" preserveAspectRatio="xMinYMin meet" x="591.5" y="-524"/>
<text text-anchor="start" x="606.5" y="-515.2" font-family="Helvetica,sans-Serif" font-size="11.00">availability_zone_id</text>
<polygon fill="none" stroke="black" points="586.5,-485 586.5,-507 767.5,-507 767.5,-485 586.5,-485"/>
<image xlink:href="../../images/foreignKeys.png" width="11px" height="12px" preserveAspectRatio="xMinYMin meet" x="591.5" y="-502"/>
<text text-anchor="start" x="606.5" y="-493.2" font-family="Helvetica,sans-Serif" font-size="11.00">container_node_id</text>
<polygon fill="none" stroke="black" points="586.5,-463 586.5,-485 767.5,-485 767.5,-463 586.5,-463"/>
<image xlink:href="../../images/foreignKeys.png" width="11px" height="12px" preserveAspectRatio="xMinYMin meet" x="591.5" y="-480"/>
<text text-anchor="start" x="606.5" y="-471.2" font-family="Helvetica,sans-Serif" font-size="11.00">container_group_id</text>
<polygon fill="#ffffff" stroke="none" points="586.5,-441 586.5,-463 767.5,-463 767.5,-441 586.5,-441"/>
<polygon fill="none" stroke="black" points="586.5,-441 586.5,-463 767.5,-463 767.5,-441 586.5,-441"/>
<text text-anchor="start" x="606.5" y="-449.2" font-family="Helvetica,sans-Serif" font-size="11.00">type</text>
<polygon fill="none" stroke="black" points="586.5,-419 586.5,-441 767.5,-441 767.5,-419 586.5,-419"/>
<image xlink:href="../../images/foreignKeys.png" width="11px" height="12px" preserveAspectRatio="xMinYMin meet" x="591.5" y="-436"/>
<text text-anchor="start" x="606.5" y="-427.2" font-family="Helvetica,sans-Serif" font-size="11.00">container_id</text>
<polygon fill="none" stroke="black" points="586.5,-397 586.5,-419 767.5,-419 767.5,-397 586.5,-397"/>
<image xlink:href="../../images/foreignKeys.png" width="11px" height="12px" preserveAspectRatio="xMinYMin meet" x="591.5" y="-414"/>
<text text-anchor="start" x="606.5" y="-405.2" font-family="Helvetica,sans-Serif" font-size="11.00">container_replicator_id</text>
<polygon fill="#ffffff" stroke="none" points="586.5,-375 586.5,-397 767.5,-397 767.5,-375 586.5,-375"/>
<polygon fill="none" stroke="black" points="586.5,-375 586.5,-397 767.5,-397 767.5,-375 586.5,-375"/>
<text text-anchor="start" x="606.5" y="-383.2" font-family="Helvetica,sans-Serif" font-size="11.00">generating_ems_id</text>
<polygon fill="none" stroke="black" points="586.5,-353 586.5,-375 767.5,-375 767.5,-353 586.5,-353"/>
<image xlink:href="../../images/foreignKeys.png" width="11px" height="12px" preserveAspectRatio="xMinYMin meet" x="591.5" y="-370"/>
<text text-anchor="start" x="606.5" y="-361.2" font-family="Helvetica,sans-Serif" font-size="11.00">physical_server_id</text>
<polygon fill="none" stroke="black" points="586.5,-331 586.5,-353 767.5,-353 767.5,-331 586.5,-331"/>
<image xlink:href="../../images/foreignKeys.png" width="11px" height="12px" preserveAspectRatio="xMinYMin meet" x="591.5" y="-348"/>
<text text-anchor="start" x="606.5" y="-339.2" font-family="Helvetica,sans-Serif" font-size="11.00">user_id</text>
<polygon fill="none" stroke="black" points="586.5,-309 586.5,-331 767.5,-331 767.5,-309 586.5,-309"/>
<image xlink:href="../../images/foreignKeys.png" width="11px" height="12px" preserveAspectRatio="xMinYMin meet" x="591.5" y="-326"/>
<text text-anchor="start" x="606.5" y="-317.2" font-family="Helvetica,sans-Serif" font-size="11.00">tenant_id</text>
<polygon fill="none" stroke="black" points="586.5,-287 586.5,-309 767.5,-309 767.5,-287 586.5,-287"/>
<image xlink:href="../../images/foreignKeys.png" width="11px" height="12px" preserveAspectRatio="xMinYMin meet" x="591.5" y="-304"/>
<text text-anchor="start" x="606.5" y="-295.2" font-family="Helvetica,sans-Serif" font-size="11.00">physical_storage_id</text>
<polygon fill="none" stroke="black" points="586.5,-269 586.5,-287 767.5,-287 767.5,-269 586.5,-269"/>
<text text-anchor="start" x="589.5" y="-275.2" font-family="Helvetica,sans-Serif" font-size="11.00">...</text>
<polygon fill="#ffffff" stroke="none" points="586.5,-251 586.5,-269 678.5,-269 678.5,-251 586.5,-251"/>
<polygon fill="none" stroke="black" points="586.5,-251 586.5,-269 678.5,-269 678.5,-251 586.5,-251"/>
<text text-anchor="start" x="589.5" y="-257.2" font-family="Helvetica,sans-Serif" font-size="11.00">&lt; 11</text>
<polygon fill="#ffffff" stroke="none" points="678.5,-251 678.5,-269 722.5,-269 722.5,-251 678.5,-251"/>
<polygon fill="none" stroke="black" points="678.5,-251 678.5,-269 722.5,-269 722.5,-251 678.5,-251"/>
<text text-anchor="start" x="712.5" y="-257.2" font-family="Helvetica,sans-Serif" font-size="11.00"> &#160;</text>
<polygon fill="#ffffff" stroke="none" points="722.5,-251 722.5,-269 767.5,-269 767.5,-251 722.5,-251"/>
<polygon fill="none" stroke="black" points="722.5,-251 722.5,-269 767.5,-269 767.5,-251 722.5,-251"/>
<text text-anchor="start" x="757.5" y="-257.2" font-family="Helvetica,sans-Serif" font-size="11.00"> &#160;</text>
</a>
</g>
</g>
<!-- event_streams&#45;&gt;container_groups -->
<g id="edge2" class="edge"><title>event_streams:container_group_id:w&#45;&gt;container_groups:id:e</title>
<path fill="none" stroke="black" d="M571.075,-471.039C560.272,-466.168 554.466,-457 538,-457"/>
<polygon fill="black" stroke="black" points="577.663,-472.391 584.776,-477.526 581.582,-473.196 585.5,-474 585.5,-474 585.5,-474 581.582,-473.196 586.224,-470.474 577.663,-472.391 577.663,-472.391"/>
<ellipse fill="none" stroke="black" cx="574.529" cy="-471.748" rx="3.2" ry="3.2"/>
</g>
<!-- event_streams&#45;&gt;container_nodes -->
<g id="edge3" class="edge"><title>event_streams:container_node_id:w&#45;&gt;container_nodes:id.type:e</title>
<path fill="none" stroke="black" d="M570.869,-497.063C562.938,-498.298 557.021,-500.261 545,-501 464.264,-505.965 438.672,-529.578 363,-501 339.727,-492.211 345.877,-464 321,-464"/>
<polygon fill="black" stroke="black" points="577.521,-496.58 585.761,-499.591 581.511,-496.29 585.5,-496 585.5,-496 585.5,-496 581.511,-496.29 585.239,-492.409 577.521,-496.58 577.521,-496.58"/>
<ellipse fill="none" stroke="black" cx="574.329" cy="-496.812" rx="3.2" ry="3.2"/>
</g>
</g>
</svg>
