<?xml version="1.0" encoding="UTF-8" standalone="no"?>
<!DOCTYPE svg PUBLIC "-//W3C//DTD SVG 1.1//EN"
 "http://www.w3.org/Graphics/SVG/1.1/DTD/svg11.dtd">
<!-- Generated by graphviz version 2.38.0 (20140413.2041)
 -->
<!-- Title: twoDegreesRelationshipsDiagram Pages: 1 -->
<svg width="783pt" height="923pt"
 viewBox="0.00 0.00 783.00 923.00" xmlns="http://www.w3.org/2000/svg" xmlns:xlink="http://www.w3.org/1999/xlink">
<g id="graph0" class="graph" transform="scale(1 1) rotate(0) translate(4 919)">
<title>twoDegreesRelationshipsDiagram</title>
<polygon fill="#ffffff" stroke="none" points="-4,4 -4,-919 779,-919 779,4 -4,4"/>
<text text-anchor="middle" x="74.5" y="-7.2" font-family="Helvetica,sans-Serif" font-size="11.00">Generated by SchemaSpy</text>
<!-- container_volumes -->
<g id="node1" class="node"><title>container_volumes</title>
<g id="a_node1"><a xlink:href="../../tables/container_volumes.html" xlink:title="container_volumes" target="_top">
<polygon fill="#ffffff" stroke="none" points="457,-53 457,-911 767,-911 767,-53 457,-53"/>
<polygon fill="#f5f5f5" stroke="none" points="459,-887 459,-909 765,-909 765,-887 459,-887"/>
<polygon fill="none" stroke="black" points="459,-887 459,-909 765,-909 765,-887 459,-887"/>
<text text-anchor="start" x="464" y="-896.2" font-family="Helvetica,sans-Serif" font-weight="bold" font-size="11.00">container_volumes</text>
<text text-anchor="start" x="726" y="-895.2" font-family="Helvetica,sans-Serif" font-size="11.00">[table]</text>
<polygon fill="none" stroke="black" points="459,-865 459,-887 644,-887 644,-865 459,-865"/>
<image xlink:href="../../images/primaryKeys.png" width="11px" height="12px" preserveAspectRatio="xMinYMin meet" x="464" y="-882"/>
<text text-anchor="start" x="479" y="-873.2" font-family="Helvetica,sans-Serif" font-size="11.00">id</text>
<polygon fill="none" stroke="black" points="644,-865 644,-887 765,-887 765,-865 644,-865"/>
<text text-anchor="start" x="647" y="-873.2" font-family="Helvetica,sans-Serif" font-size="11.00">bigserial[19]</text>
<polygon fill="none" stroke="black" points="459,-843 459,-865 644,-865 644,-843 459,-843"/>
<text text-anchor="start" x="479" y="-851.2" font-family="Helvetica,sans-Serif" font-size="11.00">parent_id</text>
<polygon fill="none" stroke="black" points="644,-843 644,-865 765,-865 765,-843 644,-843"/>
<text text-anchor="start" x="647" y="-851.2" font-family="Helvetica,sans-Serif" font-size="11.00">int8[19]</text>
<polygon fill="#ffffff" stroke="none" points="459,-821 459,-843 644,-843 644,-821 459,-821"/>
<polygon fill="none" stroke="black" points="459,-821 459,-843 644,-843 644,-821 459,-821"/>
<text text-anchor="start" x="479" y="-829.2" font-family="Helvetica,sans-Serif" font-size="11.00">type</text>
<polygon fill="none" stroke="black" points="644,-821 644,-843 765,-843 765,-821 644,-821"/>
<text text-anchor="start" x="647" y="-829.2" font-family="Helvetica,sans-Serif" font-size="11.00">varchar[2147483647]</text>
<polygon fill="none" stroke="black" points="459,-799 459,-821 644,-821 644,-799 459,-799"/>
<text text-anchor="start" x="479" y="-807.2" font-family="Helvetica,sans-Serif" font-size="11.00">name</text>
<polygon fill="none" stroke="black" points="644,-799 644,-821 765,-821 765,-799 644,-799"/>
<text text-anchor="start" x="647" y="-807.2" font-family="Helvetica,sans-Serif" font-size="11.00">varchar[2147483647]</text>
<polygon fill="none" stroke="black" points="459,-777 459,-799 644,-799 644,-777 459,-777"/>
<text text-anchor="start" x="479" y="-785.2" font-family="Helvetica,sans-Serif" font-size="11.00">empty_dir_medium_type</text>
<polygon fill="none" stroke="black" points="644,-777 644,-799 765,-799 765,-777 644,-777"/>
<text text-anchor="start" x="647" y="-785.2" font-family="Helvetica,sans-Serif" font-size="11.00">varchar[2147483647]</text>
<polygon fill="none" stroke="black" points="459,-755 459,-777 644,-777 644,-755 459,-755"/>
<text text-anchor="start" x="479" y="-763.2" font-family="Helvetica,sans-Serif" font-size="11.00">gce_pd_name</text>
<polygon fill="none" stroke="black" points="644,-755 644,-777 765,-777 765,-755 644,-755"/>
<text text-anchor="start" x="647" y="-763.2" font-family="Helvetica,sans-Serif" font-size="11.00">varchar[2147483647]</text>
<polygon fill="none" stroke="black" points="459,-733 459,-755 644,-755 644,-733 459,-733"/>
<text text-anchor="start" x="479" y="-741.2" font-family="Helvetica,sans-Serif" font-size="11.00">git_repository</text>
<polygon fill="none" stroke="black" points="644,-733 644,-755 765,-755 765,-733 644,-733"/>
<text text-anchor="start" x="647" y="-741.2" font-family="Helvetica,sans-Serif" font-size="11.00">varchar[2147483647]</text>
<polygon fill="none" stroke="black" points="459,-711 459,-733 644,-733 644,-711 459,-711"/>
<text text-anchor="start" x="479" y="-719.2" font-family="Helvetica,sans-Serif" font-size="11.00">git_revision</text>
<polygon fill="none" stroke="black" points="644,-711 644,-733 765,-733 765,-711 644,-711"/>
<text text-anchor="start" x="647" y="-719.2" font-family="Helvetica,sans-Serif" font-size="11.00">varchar[2147483647]</text>
<polygon fill="none" stroke="black" points="459,-689 459,-711 644,-711 644,-689 459,-689"/>
<text text-anchor="start" x="479" y="-697.2" font-family="Helvetica,sans-Serif" font-size="11.00">nfs_server</text>
<polygon fill="none" stroke="black" points="644,-689 644,-711 765,-711 765,-689 644,-689"/>
<text text-anchor="start" x="647" y="-697.2" font-family="Helvetica,sans-Serif" font-size="11.00">varchar[2147483647]</text>
<polygon fill="none" stroke="black" points="459,-667 459,-689 644,-689 644,-667 459,-667"/>
<text text-anchor="start" x="479" y="-675.2" font-family="Helvetica,sans-Serif" font-size="11.00">iscsi_target_portal</text>
<polygon fill="none" stroke="black" points="644,-667 644,-689 765,-689 765,-667 644,-667"/>
<text text-anchor="start" x="647" y="-675.2" font-family="Helvetica,sans-Serif" font-size="11.00">varchar[2147483647]</text>
<polygon fill="none" stroke="black" points="459,-645 459,-667 644,-667 644,-645 459,-645"/>
<text text-anchor="start" x="479" y="-653.2" font-family="Helvetica,sans-Serif" font-size="11.00">iscsi_iqn</text>
<polygon fill="none" stroke="black" points="644,-645 644,-667 765,-667 765,-645 644,-645"/>
<text text-anchor="start" x="647" y="-653.2" font-family="Helvetica,sans-Serif" font-size="11.00">varchar[2147483647]</text>
<polygon fill="none" stroke="black" points="459,-623 459,-645 644,-645 644,-623 459,-623"/>
<text text-anchor="start" x="479" y="-631.2" font-family="Helvetica,sans-Serif" font-size="11.00">iscsi_lun</text>
<polygon fill="none" stroke="black" points="644,-623 644,-645 765,-645 765,-623 644,-623"/>
<text text-anchor="start" x="647" y="-631.2" font-family="Helvetica,sans-Serif" font-size="11.00">int4[10]</text>
<polygon fill="none" stroke="black" points="459,-601 459,-623 644,-623 644,-601 459,-601"/>
<text text-anchor="start" x="479" y="-609.2" font-family="Helvetica,sans-Serif" font-size="11.00">glusterfs_endpoint_name</text>
<polygon fill="none" stroke="black" points="644,-601 644,-623 765,-623 765,-601 644,-601"/>
<text text-anchor="start" x="647" y="-609.2" font-family="Helvetica,sans-Serif" font-size="11.00">varchar[2147483647]</text>
<polygon fill="none" stroke="black" points="459,-579 459,-601 644,-601 644,-579 459,-579"/>
<text text-anchor="start" x="479" y="-587.2" font-family="Helvetica,sans-Serif" font-size="11.00">claim_name</text>
<polygon fill="none" stroke="black" points="644,-579 644,-601 765,-601 765,-579 644,-579"/>
<text text-anchor="start" x="647" y="-587.2" font-family="Helvetica,sans-Serif" font-size="11.00">varchar[2147483647]</text>
<polygon fill="none" stroke="black" points="459,-557 459,-579 644,-579 644,-557 459,-557"/>
<text text-anchor="start" x="479" y="-565.2" font-family="Helvetica,sans-Serif" font-size="11.00">rbd_ceph_monitors</text>
<polygon fill="none" stroke="black" points="644,-557 644,-579 765,-579 765,-557 644,-557"/>
<text text-anchor="start" x="647" y="-565.2" font-family="Helvetica,sans-Serif" font-size="11.00">varchar[2147483647]</text>
<polygon fill="none" stroke="black" points="459,-535 459,-557 644,-557 644,-535 459,-535"/>
<text text-anchor="start" x="479" y="-543.2" font-family="Helvetica,sans-Serif" font-size="11.00">rbd_image</text>
<polygon fill="none" stroke="black" points="644,-535 644,-557 765,-557 765,-535 644,-535"/>
<text text-anchor="start" x="647" y="-543.2" font-family="Helvetica,sans-Serif" font-size="11.00">varchar[2147483647]</text>
<polygon fill="none" stroke="black" points="459,-513 459,-535 644,-535 644,-513 459,-513"/>
<text text-anchor="start" x="479" y="-521.2" font-family="Helvetica,sans-Serif" font-size="11.00">rbd_pool</text>
<polygon fill="none" stroke="black" points="644,-513 644,-535 765,-535 765,-513 644,-513"/>
<text text-anchor="start" x="647" y="-521.2" font-family="Helvetica,sans-Serif" font-size="11.00">varchar[2147483647]</text>
<polygon fill="none" stroke="black" points="459,-491 459,-513 644,-513 644,-491 459,-491"/>
<text text-anchor="start" x="479" y="-499.2" font-family="Helvetica,sans-Serif" font-size="11.00">rbd_rados_user</text>
<polygon fill="none" stroke="black" points="644,-491 644,-513 765,-513 765,-491 644,-491"/>
<text text-anchor="start" x="647" y="-499.2" font-family="Helvetica,sans-Serif" font-size="11.00">varchar[2147483647]</text>
<polygon fill="none" stroke="black" points="459,-469 459,-491 644,-491 644,-469 459,-469"/>
<text text-anchor="start" x="479" y="-477.2" font-family="Helvetica,sans-Serif" font-size="11.00">rbd_keyring</text>
<polygon fill="none" stroke="black" points="644,-469 644,-491 765,-491 765,-469 644,-469"/>
<text text-anchor="start" x="647" y="-477.2" font-family="Helvetica,sans-Serif" font-size="11.00">varchar[2147483647]</text>
<polygon fill="none" stroke="black" points="459,-447 459,-469 644,-469 644,-447 459,-447"/>
<text text-anchor="start" x="479" y="-455.2" font-family="Helvetica,sans-Serif" font-size="11.00">common_path</text>
<polygon fill="none" stroke="black" points="644,-447 644,-469 765,-469 765,-447 644,-447"/>
<text text-anchor="start" x="647" y="-455.2" font-family="Helvetica,sans-Serif" font-size="11.00">varchar[2147483647]</text>
<polygon fill="none" stroke="black" points="459,-425 459,-447 644,-447 644,-425 459,-425"/>
<text text-anchor="start" x="479" y="-433.2" font-family="Helvetica,sans-Serif" font-size="11.00">common_fs_type</text>
<polygon fill="none" stroke="black" points="644,-425 644,-447 765,-447 765,-425 644,-425"/>
<text text-anchor="start" x="647" y="-433.2" font-family="Helvetica,sans-Serif" font-size="11.00">varchar[2147483647]</text>
<polygon fill="none" stroke="black" points="459,-403 459,-425 644,-425 644,-403 459,-403"/>
<text text-anchor="start" x="479" y="-411.2" font-family="Helvetica,sans-Serif" font-size="11.00">common_read_only</text>
<polygon fill="none" stroke="black" points="644,-403 644,-425 765,-425 765,-403 644,-403"/>
<text text-anchor="start" x="647" y="-411.2" font-family="Helvetica,sans-Serif" font-size="11.00">varchar[2147483647]</text>
<polygon fill="none" stroke="black" points="459,-381 459,-403 644,-403 644,-381 459,-381"/>
<text text-anchor="start" x="479" y="-389.2" font-family="Helvetica,sans-Serif" font-size="11.00">common_volume_id</text>
<polygon fill="none" stroke="black" points="644,-381 644,-403 765,-403 765,-381 644,-381"/>
<text text-anchor="start" x="647" y="-389.2" font-family="Helvetica,sans-Serif" font-size="11.00">varchar[2147483647]</text>
<polygon fill="none" stroke="black" points="459,-359 459,-381 644,-381 644,-359 459,-359"/>
<text text-anchor="start" x="479" y="-367.2" font-family="Helvetica,sans-Serif" font-size="11.00">common_partition</text>
<polygon fill="none" stroke="black" points="644,-359 644,-381 765,-381 765,-359 644,-359"/>
<text text-anchor="start" x="647" y="-367.2" font-family="Helvetica,sans-Serif" font-size="11.00">varchar[2147483647]</text>
<polygon fill="none" stroke="black" points="459,-337 459,-359 644,-359 644,-337 459,-337"/>
<text text-anchor="start" x="479" y="-345.2" font-family="Helvetica,sans-Serif" font-size="11.00">common_secret</text>
<polygon fill="none" stroke="black" points="644,-337 644,-359 765,-359 765,-337 644,-337"/>
<text text-anchor="start" x="647" y="-345.2" font-family="Helvetica,sans-Serif" font-size="11.00">varchar[2147483647]</text>
<polygon fill="none" stroke="black" points="459,-315 459,-337 644,-337 644,-315 459,-315"/>
<text text-anchor="start" x="479" y="-323.2" font-family="Helvetica,sans-Serif" font-size="11.00">ems_ref</text>
<polygon fill="none" stroke="black" points="644,-315 644,-337 765,-337 765,-315 644,-315"/>
<text text-anchor="start" x="647" y="-323.2" font-family="Helvetica,sans-Serif" font-size="11.00">varchar[2147483647]</text>
<polygon fill="none" stroke="black" points="459,-293 459,-315 644,-315 644,-293 459,-293"/>
<text text-anchor="start" x="479" y="-301.2" font-family="Helvetica,sans-Serif" font-size="11.00">ems_created_on</text>
<polygon fill="none" stroke="black" points="644,-293 644,-315 765,-315 765,-293 644,-293"/>
<text text-anchor="start" x="647" y="-301.2" font-family="Helvetica,sans-Serif" font-size="11.00">timestamp[29,6]</text>
<polygon fill="none" stroke="black" points="459,-271 459,-293 644,-293 644,-271 459,-271"/>
<text text-anchor="start" x="479" y="-279.2" font-family="Helvetica,sans-Serif" font-size="11.00">resource_version</text>
<polygon fill="none" stroke="black" points="644,-271 644,-293 765,-293 765,-271 644,-271"/>
<text text-anchor="start" x="647" y="-279.2" font-family="Helvetica,sans-Serif" font-size="11.00">varchar[2147483647]</text>
<polygon fill="none" stroke="black" points="459,-249 459,-271 644,-271 644,-249 459,-249"/>
<text text-anchor="start" x="479" y="-257.2" font-family="Helvetica,sans-Serif" font-size="11.00">capacity</text>
<polygon fill="none" stroke="black" points="644,-249 644,-271 765,-271 765,-249 644,-249"/>
<text text-anchor="start" x="647" y="-257.2" font-family="Helvetica,sans-Serif" font-size="11.00">text[2147483647]</text>
<polygon fill="none" stroke="black" points="459,-227 459,-249 644,-249 644,-227 459,-227"/>
<text text-anchor="start" x="479" y="-235.2" font-family="Helvetica,sans-Serif" font-size="11.00">access_modes</text>
<polygon fill="none" stroke="black" points="644,-227 644,-249 765,-249 765,-227 644,-227"/>
<text text-anchor="start" x="647" y="-235.2" font-family="Helvetica,sans-Serif" font-size="11.00">varchar[2147483647]</text>
<polygon fill="none" stroke="black" points="459,-205 459,-227 644,-227 644,-205 459,-205"/>
<text text-anchor="start" x="479" y="-213.2" font-family="Helvetica,sans-Serif" font-size="11.00">reclaim_policy</text>
<polygon fill="none" stroke="black" points="644,-205 644,-227 765,-227 765,-205 644,-205"/>
<text text-anchor="start" x="647" y="-213.2" font-family="Helvetica,sans-Serif" font-size="11.00">varchar[2147483647]</text>
<polygon fill="none" stroke="black" points="459,-183 459,-205 644,-205 644,-183 459,-183"/>
<text text-anchor="start" x="479" y="-191.2" font-family="Helvetica,sans-Serif" font-size="11.00">status_phase</text>
<polygon fill="none" stroke="black" points="644,-183 644,-205 765,-205 765,-183 644,-183"/>
<text text-anchor="start" x="647" y="-191.2" font-family="Helvetica,sans-Serif" font-size="11.00">varchar[2147483647]</text>
<polygon fill="none" stroke="black" points="459,-161 459,-183 644,-183 644,-161 459,-161"/>
<text text-anchor="start" x="479" y="-169.2" font-family="Helvetica,sans-Serif" font-size="11.00">status_message</text>
<polygon fill="none" stroke="black" points="644,-161 644,-183 765,-183 765,-161 644,-161"/>
<text text-anchor="start" x="647" y="-169.2" font-family="Helvetica,sans-Serif" font-size="11.00">varchar[2147483647]</text>
<polygon fill="none" stroke="black" points="459,-139 459,-161 644,-161 644,-139 459,-139"/>
<text text-anchor="start" x="479" y="-147.2" font-family="Helvetica,sans-Serif" font-size="11.00">status_reason</text>
<polygon fill="none" stroke="black" points="644,-139 644,-161 765,-161 765,-139 644,-139"/>
<text text-anchor="start" x="647" y="-147.2" font-family="Helvetica,sans-Serif" font-size="11.00">varchar[2147483647]</text>
<polygon fill="none" stroke="black" points="459,-117 459,-139 644,-139 644,-117 459,-117"/>
<text text-anchor="start" x="479" y="-125.2" font-family="Helvetica,sans-Serif" font-size="11.00">parent_type</text>
<polygon fill="none" stroke="black" points="644,-117 644,-139 765,-139 765,-117 644,-117"/>
<text text-anchor="start" x="647" y="-125.2" font-family="Helvetica,sans-Serif" font-size="11.00">varchar[2147483647]</text>
<polygon fill="none" stroke="black" points="459,-95 459,-117 644,-117 644,-95 459,-95"/>
<image xlink:href="../../images/foreignKeys.png" width="11px" height="12px" preserveAspectRatio="xMinYMin meet" x="464" y="-112"/>
<text text-anchor="start" x="479" y="-103.2" font-family="Helvetica,sans-Serif" font-size="11.00">persistent_volume_claim_id</text>
<polygon fill="none" stroke="black" points="644,-95 644,-117 765,-117 765,-95 644,-95"/>
<text text-anchor="start" x="647" y="-103.2" font-family="Helvetica,sans-Serif" font-size="11.00">int8[19]</text>
<polygon fill="none" stroke="black" points="459,-73 459,-95 644,-95 644,-73 459,-73"/>
<text text-anchor="start" x="479" y="-81.2" font-family="Helvetica,sans-Serif" font-size="11.00">created_on</text>
<polygon fill="none" stroke="black" points="644,-73 644,-95 765,-95 765,-73 644,-73"/>
<text text-anchor="start" x="647" y="-81.2" font-family="Helvetica,sans-Serif" font-size="11.00">timestamp[29,6]</text>
<polygon fill="#ffffff" stroke="none" points="459,-55 459,-73 556,-73 556,-55 459,-55"/>
<polygon fill="none" stroke="black" points="459,-55 459,-73 556,-73 556,-55 459,-55"/>
<text text-anchor="start" x="462" y="-61.2" font-family="Helvetica,sans-Serif" font-size="11.00">&lt; 1</text>
<polygon fill="#ffffff" stroke="none" points="556,-55 556,-73 644,-73 644,-55 556,-55"/>
<polygon fill="none" stroke="black" points="556,-55 556,-73 644,-73 644,-55 556,-55"/>
<text text-anchor="start" x="634" y="-61.2" font-family="Helvetica,sans-Serif" font-size="11.00"> &#160;</text>
<polygon fill="#ffffff" stroke="none" points="644,-55 644,-73 765,-73 765,-55 644,-55"/>
<polygon fill="none" stroke="black" points="644,-55 644,-73 765,-73 765,-55 644,-55"/>
<text text-anchor="start" x="745" y="-61.2" font-family="Helvetica,sans-Serif" font-size="11.00">0 &gt;</text>
<polygon fill="none" stroke="black" stroke-width="2" points="458,-54 458,-910 766,-910 766,-54 458,-54"/>
</a>
</g>
</g>
<!-- persistent_volume_claims -->
<g id="node2" class="node"><title>persistent_volume_claims</title>
<g id="a_node2"><a xlink:href="../../tables/persistent_volume_claims.html" xlink:title="persistent_volume_claims" target="_top">
<polygon fill="#ffffff" stroke="none" points="212,-37 212,-139 408,-139 408,-37 212,-37"/>
<polygon fill="#f5f5f5" stroke="none" points="212,-117 212,-139 408,-139 408,-117 212,-117"/>
<polygon fill="none" stroke="black" points="212,-117 212,-139 408,-139 408,-117 212,-117"/>
<text text-anchor="start" x="217" y="-126.2" font-family="Helvetica,sans-Serif" font-weight="bold" font-size="11.00">persistent_volume_claims</text>
<text text-anchor="start" x="369" y="-125.2" font-family="Helvetica,sans-Serif" font-size="11.00">[table]</text>
<polygon fill="none" stroke="black" points="212,-95 212,-117 408,-117 408,-95 212,-95"/>
<image xlink:href="../../images/primaryKeys.png" width="11px" height="12px" preserveAspectRatio="xMinYMin meet" x="217" y="-112"/>
<text text-anchor="start" x="243" y="-103.2" font-family="Helvetica,sans-Serif" font-size="11.00">id</text>
<polygon fill="none" stroke="black" points="212,-73 212,-95 408,-95 408,-73 212,-73"/>
<image xlink:href="../../images/foreignKeys.png" width="11px" height="12px" preserveAspectRatio="xMinYMin meet" x="217" y="-90"/>
<text text-anchor="start" x="243" y="-81.2" font-family="Helvetica,sans-Serif" font-size="11.00">container_project_id</text>
<polygon fill="none" stroke="black" points="212,-55 212,-73 408,-73 408,-55 212,-55"/>
<text text-anchor="start" x="215" y="-61.2" font-family="Helvetica,sans-Serif" font-size="11.00">...</text>
<polygon fill="#ffffff" stroke="none" points="212,-37 212,-55 303,-55 303,-37 212,-37"/>
<polygon fill="none" stroke="black" points="212,-37 212,-55 303,-55 303,-37 212,-37"/>
<text text-anchor="start" x="215" y="-43.2" font-family="Helvetica,sans-Serif" font-size="11.00">&lt; 1</text>
<polygon fill="#ffffff" stroke="none" points="303,-37 303,-55 350,-55 350,-37 303,-37"/>
<polygon fill="none" stroke="black" points="303,-37 303,-55 350,-55 350,-37 303,-37"/>
<text text-anchor="start" x="340" y="-43.2" font-family="Helvetica,sans-Serif" font-size="11.00"> &#160;</text>
<polygon fill="#ffffff" stroke="none" points="350,-37 350,-55 408,-55 408,-37 350,-37"/>
<polygon fill="none" stroke="black" points="350,-37 350,-55 408,-55 408,-37 350,-37"/>
<text text-anchor="start" x="388" y="-43.2" font-family="Helvetica,sans-Serif" font-size="11.00">1 &gt;</text>
</a>
</g>
</g>
<!-- container_volumes&#45;&gt;persistent_volume_claims -->
<g id="edge1" class="edge"><title>container_volumes:persistent_volume_claim_id:w&#45;&gt;persistent_volume_claims:id:e</title>
<path fill="none" stroke="black" d="M443.491,-106C432.177,-106 424.993,-106 409,-106"/>
<polygon fill="black" stroke="black" points="450,-106 458,-109.6 454,-106 458,-106 458,-106 458,-106 454,-106 458,-102.4 450,-106 450,-106"/>
<ellipse fill="none" stroke="black" cx="446.8" cy="-106" rx="3.2" ry="3.2"/>
</g>
<!-- container_projects -->
<g id="node3" class="node"><title>container_projects</title>
<g id="a_node3"><a xlink:href="../../tables/container_projects.html" xlink:title="container_projects" target="_top">
<polygon fill="#ffffff" stroke="none" points="8,-57 8,-115 163,-115 163,-57 8,-57"/>
<polygon fill="#f5f5f5" stroke="none" points="8.5,-93 8.5,-115 163.5,-115 163.5,-93 8.5,-93"/>
<polygon fill="none" stroke="black" points="8.5,-93 8.5,-115 163.5,-115 163.5,-93 8.5,-93"/>
<text text-anchor="start" x="13.5" y="-102.2" font-family="Helvetica,sans-Serif" font-weight="bold" font-size="11.00">container_projects</text>
<text text-anchor="start" x="124.5" y="-101.2" font-family="Helvetica,sans-Serif" font-size="11.00">[table]</text>
<polygon fill="none" stroke="black" points="8.5,-75 8.5,-93 163.5,-93 163.5,-75 8.5,-75"/>
<text text-anchor="start" x="11.5" y="-81.2" font-family="Helvetica,sans-Serif" font-size="11.00">...</text>
<polygon fill="#ffffff" stroke="none" points="8.5,-57 8.5,-75 74.5,-75 74.5,-57 8.5,-57"/>
<polygon fill="none" stroke="black" points="8.5,-57 8.5,-75 74.5,-75 74.5,-57 8.5,-57"/>
<text text-anchor="start" x="11.5" y="-63.2" font-family="Helvetica,sans-Serif" font-size="11.00"> &#160;</text>
<polygon fill="#ffffff" stroke="none" points="74.5,-57 74.5,-75 113.5,-75 113.5,-57 74.5,-57"/>
<polygon fill="none" stroke="black" points="74.5,-57 74.5,-75 113.5,-75 113.5,-57 74.5,-57"/>
<text text-anchor="start" x="103.5" y="-63.2" font-family="Helvetica,sans-Serif" font-size="11.00"> &#160;</text>
<polygon fill="#ffffff" stroke="none" points="113.5,-57 113.5,-75 163.5,-75 163.5,-57 113.5,-57"/>
<polygon fill="none" stroke="black" points="113.5,-57 113.5,-75 163.5,-75 163.5,-57 113.5,-57"/>
<text text-anchor="start" x="143.5" y="-63.2" font-family="Helvetica,sans-Serif" font-size="11.00">9 &gt;</text>
</a>
</g>
</g>
<!-- persistent_volume_claims&#45;&gt;container_projects -->
<g id="edge2" class="edge"><title>persistent_volume_claims:container_project_id:w&#45;&gt;container_projects:elipses:e</title>
<path fill="none" stroke="black" d="M196.551,-84C186.201,-84 179.354,-84 164.5,-84"/>
<polygon fill="black" stroke="black" points="203,-84.0001 211,-87.6 207,-84 211,-84 211,-84 211,-84 207,-84 211,-80.4 203,-84.0001 203,-84.0001"/>
<ellipse fill="none" stroke="black" cx="199.8" cy="-84.0001" rx="3.2" ry="3.2"/>
</g>
</g>
</svg>
