<?xml version="1.0" encoding="UTF-8" standalone="no"?>
<!DOCTYPE svg PUBLIC "-//W3C//DTD SVG 1.1//EN"
 "http://www.w3.org/Graphics/SVG/1.1/DTD/svg11.dtd">
<!-- Generated by graphviz version 2.38.0 (20140413.2041)
 -->
<!-- Title: twoDegreesRelationshipsDiagram Pages: 1 -->
<svg width="1092pt" height="730pt"
 viewBox="0.00 0.00 1092.00 730.00" xmlns="http://www.w3.org/2000/svg" xmlns:xlink="http://www.w3.org/1999/xlink">
<g id="graph0" class="graph" transform="scale(1 1) rotate(0) translate(4 726)">
<title>twoDegreesRelationshipsDiagram</title>
<polygon fill="#ffffff" stroke="none" points="-4,4 -4,-726 1088,-726 1088,4 -4,4"/>
<text text-anchor="middle" x="74.5" y="-7.2" font-family="Helvetica,sans-Serif" font-size="11.00">Generated by SchemaSpy</text>
<!-- container_builds -->
<g id="node1" class="node"><title>container_builds</title>
<g id="a_node1"><a xlink:href="../../tables/container_builds.html" xlink:title="container_builds" target="_top">
<polygon fill="#ffffff" stroke="none" points="284,-581 284,-639 428,-639 428,-581 284,-581"/>
<polygon fill="#f5f5f5" stroke="none" points="284,-617 284,-639 428,-639 428,-617 284,-617"/>
<polygon fill="none" stroke="black" points="284,-617 284,-639 428,-639 428,-617 284,-617"/>
<text text-anchor="start" x="289" y="-626.2" font-family="Helvetica,sans-Serif" font-weight="bold" font-size="11.00">container_builds</text>
<text text-anchor="start" x="389" y="-625.2" font-family="Helvetica,sans-Serif" font-size="11.00">[table]</text>
<polygon fill="none" stroke="black" points="284,-599 284,-617 428,-617 428,-599 284,-599"/>
<text text-anchor="start" x="287" y="-605.2" font-family="Helvetica,sans-Serif" font-size="11.00">...</text>
<polygon fill="#ffffff" stroke="none" points="284,-581 284,-599 349,-599 349,-581 284,-581"/>
<polygon fill="none" stroke="black" points="284,-581 284,-599 349,-599 349,-581 284,-581"/>
<text text-anchor="start" x="287" y="-587.2" font-family="Helvetica,sans-Serif" font-size="11.00">&lt; 1</text>
<polygon fill="#ffffff" stroke="none" points="349,-581 349,-599 383,-599 383,-581 349,-581"/>
<polygon fill="none" stroke="black" points="349,-581 349,-599 383,-599 383,-581 349,-581"/>
<text text-anchor="start" x="373" y="-587.2" font-family="Helvetica,sans-Serif" font-size="11.00"> &#160;</text>
<polygon fill="#ffffff" stroke="none" points="383,-581 383,-599 428,-599 428,-581 383,-581"/>
<polygon fill="none" stroke="black" points="383,-581 383,-599 428,-599 428,-581 383,-581"/>
<text text-anchor="start" x="408" y="-587.2" font-family="Helvetica,sans-Serif" font-size="11.00">1 &gt;</text>
</a>
</g>
</g>
<!-- container_projects -->
<g id="node2" class="node"><title>container_projects</title>
<g id="a_node2"><a xlink:href="../../tables/container_projects.html" xlink:title="container_projects" target="_top">
<polygon fill="#ffffff" stroke="none" points="31,-332 31,-456 186,-456 186,-332 31,-332"/>
<polygon fill="#f5f5f5" stroke="none" points="31.5,-434 31.5,-456 186.5,-456 186.5,-434 31.5,-434"/>
<polygon fill="none" stroke="black" points="31.5,-434 31.5,-456 186.5,-456 186.5,-434 31.5,-434"/>
<text text-anchor="start" x="36.5" y="-443.2" font-family="Helvetica,sans-Serif" font-weight="bold" font-size="11.00">container_projects</text>
<text text-anchor="start" x="147.5" y="-442.2" font-family="Helvetica,sans-Serif" font-size="11.00">[table]</text>
<polygon fill="none" stroke="black" points="31.5,-412 31.5,-434 186.5,-434 186.5,-412 31.5,-412"/>
<image xlink:href="../../images/primaryKeys.png" width="11px" height="12px" preserveAspectRatio="xMinYMin meet" x="36.5" y="-429"/>
<text text-anchor="start" x="63.5" y="-420.2" font-family="Helvetica,sans-Serif" font-size="11.00">id</text>
<polygon fill="#ffffff" stroke="none" points="31.5,-390 31.5,-412 186.5,-412 186.5,-390 31.5,-390"/>
<polygon fill="none" stroke="black" points="31.5,-390 31.5,-412 186.5,-412 186.5,-390 31.5,-390"/>
<text text-anchor="start" x="63.5" y="-398.2" font-family="Helvetica,sans-Serif" font-size="11.00">ems_id</text>
<polygon fill="#ffffff" stroke="none" points="31.5,-368 31.5,-390 186.5,-390 186.5,-368 31.5,-368"/>
<polygon fill="none" stroke="black" points="31.5,-368 31.5,-390 186.5,-390 186.5,-368 31.5,-368"/>
<text text-anchor="start" x="63.5" y="-376.2" font-family="Helvetica,sans-Serif" font-size="11.00">deleted_on</text>
<polygon fill="none" stroke="black" points="31.5,-350 31.5,-368 186.5,-368 186.5,-350 31.5,-350"/>
<text text-anchor="start" x="34.5" y="-356.2" font-family="Helvetica,sans-Serif" font-size="11.00">...</text>
<polygon fill="#ffffff" stroke="none" points="31.5,-332 31.5,-350 97.5,-350 97.5,-332 31.5,-332"/>
<polygon fill="none" stroke="black" points="31.5,-332 31.5,-350 97.5,-350 97.5,-332 31.5,-332"/>
<text text-anchor="start" x="34.5" y="-338.2" font-family="Helvetica,sans-Serif" font-size="11.00"> &#160;</text>
<polygon fill="#ffffff" stroke="none" points="97.5,-332 97.5,-350 136.5,-350 136.5,-332 97.5,-332"/>
<polygon fill="none" stroke="black" points="97.5,-332 97.5,-350 136.5,-350 136.5,-332 97.5,-332"/>
<text text-anchor="start" x="126.5" y="-338.2" font-family="Helvetica,sans-Serif" font-size="11.00"> &#160;</text>
<polygon fill="#ffffff" stroke="none" points="136.5,-332 136.5,-350 186.5,-350 186.5,-332 136.5,-332"/>
<polygon fill="none" stroke="black" points="136.5,-332 136.5,-350 186.5,-350 186.5,-332 136.5,-332"/>
<text text-anchor="start" x="166.5" y="-338.2" font-family="Helvetica,sans-Serif" font-size="11.00">9 &gt;</text>
</a>
</g>
</g>
<!-- container_builds&#45;&gt;container_projects -->
<g id="edge1" class="edge"><title>container_builds:elipses:w&#45;&gt;container_projects:id:e</title>
<path fill="none" stroke="black" d="M268.537,-606.169C200.339,-586.955 274.609,-423 187.5,-423"/>
<polygon fill="black" stroke="black" points="275.063,-606.995 282.548,-611.571 279.032,-607.498 283,-608 283,-608 283,-608 279.032,-607.498 283.452,-604.429 275.063,-606.995 275.063,-606.995"/>
<ellipse fill="none" stroke="black" cx="271.889" cy="-606.593" rx="3.2" ry="3.2"/>
</g>
<!-- container_groups -->
<g id="node3" class="node"><title>container_groups</title>
<g id="a_node3"><a xlink:href="../../tables/container_groups.html" xlink:title="container_groups" target="_top">
<polygon fill="#ffffff" stroke="none" points="563,-506 563,-564 710,-564 710,-506 563,-506"/>
<polygon fill="#f5f5f5" stroke="none" points="563.5,-542 563.5,-564 710.5,-564 710.5,-542 563.5,-542"/>
<polygon fill="none" stroke="black" points="563.5,-542 563.5,-564 710.5,-564 710.5,-542 563.5,-542"/>
<text text-anchor="start" x="568.5" y="-551.2" font-family="Helvetica,sans-Serif" font-weight="bold" font-size="11.00">container_groups</text>
<text text-anchor="start" x="671.5" y="-550.2" font-family="Helvetica,sans-Serif" font-size="11.00">[table]</text>
<polygon fill="none" stroke="black" points="563.5,-524 563.5,-542 710.5,-542 710.5,-524 563.5,-524"/>
<text text-anchor="start" x="566.5" y="-530.2" font-family="Helvetica,sans-Serif" font-size="11.00">...</text>
<polygon fill="#ffffff" stroke="none" points="563.5,-506 563.5,-524 630.5,-524 630.5,-506 563.5,-506"/>
<polygon fill="none" stroke="black" points="563.5,-506 563.5,-524 630.5,-524 630.5,-506 563.5,-506"/>
<text text-anchor="start" x="566.5" y="-512.2" font-family="Helvetica,sans-Serif" font-size="11.00">&lt; 4</text>
<polygon fill="#ffffff" stroke="none" points="630.5,-506 630.5,-524 665.5,-524 665.5,-506 630.5,-506"/>
<polygon fill="none" stroke="black" points="630.5,-506 630.5,-524 665.5,-524 665.5,-506 630.5,-506"/>
<text text-anchor="start" x="655.5" y="-512.2" font-family="Helvetica,sans-Serif" font-size="11.00"> &#160;</text>
<polygon fill="#ffffff" stroke="none" points="665.5,-506 665.5,-524 710.5,-524 710.5,-506 665.5,-506"/>
<polygon fill="none" stroke="black" points="665.5,-506 665.5,-524 710.5,-524 710.5,-506 665.5,-506"/>
<text text-anchor="start" x="690.5" y="-512.2" font-family="Helvetica,sans-Serif" font-size="11.00">3 &gt;</text>
</a>
</g>
</g>
<!-- container_groups&#45;&gt;container_projects -->
<g id="edge2" class="edge"><title>container_groups:elipses:w&#45;&gt;container_projects:id:e</title>
<path fill="none" stroke="black" d="M548.092,-532.028C512.543,-526.911 503.553,-502.921 462,-492 370.137,-467.856 338.922,-498.387 250,-465 218.669,-453.236 220.967,-423 187.5,-423"/>
<polygon fill="black" stroke="black" points="554.518,-532.461 562.258,-536.592 558.509,-532.731 562.5,-533 562.5,-533 562.5,-533 558.509,-532.731 562.742,-529.408 554.518,-532.461 554.518,-532.461"/>
<ellipse fill="none" stroke="black" cx="551.325" cy="-532.246" rx="3.2" ry="3.2"/>
</g>
<!-- container_replicators -->
<g id="node4" class="node"><title>container_replicators</title>
<g id="a_node4"><a xlink:href="../../tables/container_replicators.html" xlink:title="container_replicators" target="_top">
<polygon fill="#ffffff" stroke="none" points="270.5,-502 270.5,-560 441.5,-560 441.5,-502 270.5,-502"/>
<polygon fill="#f5f5f5" stroke="none" points="271,-538 271,-560 442,-560 442,-538 271,-538"/>
<polygon fill="none" stroke="black" points="271,-538 271,-560 442,-560 442,-538 271,-538"/>
<text text-anchor="start" x="276" y="-547.2" font-family="Helvetica,sans-Serif" font-weight="bold" font-size="11.00">container_replicators</text>
<text text-anchor="start" x="403" y="-546.2" font-family="Helvetica,sans-Serif" font-size="11.00">[table]</text>
<polygon fill="none" stroke="black" points="271,-520 271,-538 442,-538 442,-520 271,-520"/>
<text text-anchor="start" x="274" y="-526.2" font-family="Helvetica,sans-Serif" font-size="11.00">...</text>
<polygon fill="#ffffff" stroke="none" points="271,-502 271,-520 350,-520 350,-502 271,-502"/>
<polygon fill="none" stroke="black" points="271,-502 271,-520 350,-520 350,-502 271,-502"/>
<text text-anchor="start" x="274" y="-508.2" font-family="Helvetica,sans-Serif" font-size="11.00">&lt; 1</text>
<polygon fill="#ffffff" stroke="none" points="350,-502 350,-520 391,-520 391,-502 350,-502"/>
<polygon fill="none" stroke="black" points="350,-502 350,-520 391,-520 391,-502 350,-502"/>
<text text-anchor="start" x="381" y="-508.2" font-family="Helvetica,sans-Serif" font-size="11.00"> &#160;</text>
<polygon fill="#ffffff" stroke="none" points="391,-502 391,-520 442,-520 442,-502 391,-502"/>
<polygon fill="none" stroke="black" points="391,-502 391,-520 442,-520 442,-502 391,-502"/>
<text text-anchor="start" x="422" y="-508.2" font-family="Helvetica,sans-Serif" font-size="11.00">2 &gt;</text>
</a>
</g>
</g>
<!-- container_groups&#45;&gt;container_replicators -->
<g id="edge3" class="edge"><title>container_groups:elipses:w&#45;&gt;container_replicators:elipses:e</title>
<path fill="none" stroke="black" d="M547.999,-532.893C506.397,-532.257 490.951,-529 443,-529"/>
<polygon fill="black" stroke="black" points="554.5,-532.941 562.473,-536.6 558.5,-532.97 562.5,-533 562.5,-533 562.5,-533 558.5,-532.97 562.527,-529.4 554.5,-532.941 554.5,-532.941"/>
<ellipse fill="none" stroke="black" cx="551.3" cy="-532.917" rx="3.2" ry="3.2"/>
</g>
<!-- container_replicators&#45;&gt;container_projects -->
<g id="edge8" class="edge"><title>container_replicators:elipses:w&#45;&gt;container_projects:id:e</title>
<path fill="none" stroke="black" d="M255.598,-526.38C216.371,-510.057 241.602,-423 187.5,-423"/>
<polygon fill="black" stroke="black" points="262.129,-527.568 269.356,-532.542 266.065,-528.284 270,-529 270,-529 270,-529 266.065,-528.284 270.644,-525.458 262.129,-527.568 262.129,-527.568"/>
<ellipse fill="none" stroke="black" cx="258.981" cy="-526.995" rx="3.2" ry="3.2"/>
</g>
<!-- container_groups_container_services -->
<g id="node5" class="node"><title>container_groups_container_services</title>
<g id="a_node5"><a xlink:href="../../tables/container_groups_container_services.html" xlink:title="container_groups_container_services" target="_top">
<polygon fill="#ffffff" stroke="none" points="819,-287 819,-345 1076,-345 1076,-287 819,-287"/>
<polygon fill="#f5f5f5" stroke="none" points="819.5,-323 819.5,-345 1076.5,-345 1076.5,-323 819.5,-323"/>
<polygon fill="none" stroke="black" points="819.5,-323 819.5,-345 1076.5,-345 1076.5,-323 819.5,-323"/>
<text text-anchor="start" x="824.5" y="-332.2" font-family="Helvetica,sans-Serif" font-weight="bold" font-size="11.00">container_groups_container_services</text>
<text text-anchor="start" x="1037.5" y="-331.2" font-family="Helvetica,sans-Serif" font-size="11.00">[table]</text>
<polygon fill="none" stroke="black" points="819.5,-305 819.5,-323 1076.5,-323 1076.5,-305 819.5,-305"/>
<text text-anchor="start" x="822.5" y="-311.2" font-family="Helvetica,sans-Serif" font-size="11.00">...</text>
<polygon fill="#ffffff" stroke="none" points="819.5,-287 819.5,-305 946.5,-305 946.5,-287 819.5,-287"/>
<polygon fill="none" stroke="black" points="819.5,-287 819.5,-305 946.5,-305 946.5,-287 819.5,-287"/>
<text text-anchor="start" x="822.5" y="-293.2" font-family="Helvetica,sans-Serif" font-size="11.00">&lt; 2</text>
<polygon fill="#ffffff" stroke="none" points="946.5,-287 946.5,-305 1011.5,-305 1011.5,-287 946.5,-287"/>
<polygon fill="none" stroke="black" points="946.5,-287 946.5,-305 1011.5,-305 1011.5,-287 946.5,-287"/>
<text text-anchor="start" x="1001.5" y="-293.2" font-family="Helvetica,sans-Serif" font-size="11.00"> &#160;</text>
<polygon fill="#ffffff" stroke="none" points="1011.5,-287 1011.5,-305 1076.5,-305 1076.5,-287 1011.5,-287"/>
<polygon fill="none" stroke="black" points="1011.5,-287 1011.5,-305 1076.5,-305 1076.5,-287 1011.5,-287"/>
<text text-anchor="start" x="1066.5" y="-293.2" font-family="Helvetica,sans-Serif" font-size="11.00"> &#160;</text>
</a>
</g>
</g>
<!-- container_groups_container_services&#45;&gt;container_groups -->
<g id="edge4" class="edge"><title>container_groups_container_services:elipses:w&#45;&gt;container_groups:elipses:e</title>
<path fill="none" stroke="black" d="M803.855,-315.568C747.539,-329.573 824.168,-434.123 778,-496 757.774,-523.108 745.322,-533 711.5,-533"/>
<polygon fill="black" stroke="black" points="810.545,-314.852 818.883,-317.58 814.523,-314.426 818.5,-314 818.5,-314 818.5,-314 814.523,-314.426 818.117,-310.42 810.545,-314.852 810.545,-314.852"/>
<ellipse fill="none" stroke="black" cx="807.364" cy="-315.192" rx="3.2" ry="3.2"/>
</g>
<!-- container_services -->
<g id="node6" class="node"><title>container_services</title>
<g id="a_node6"><a xlink:href="../../tables/container_services.html" xlink:title="container_services" target="_top">
<polygon fill="#ffffff" stroke="none" points="262,-37 262,-183 450,-183 450,-37 262,-37"/>
<polygon fill="#f5f5f5" stroke="none" points="262,-161 262,-183 450,-183 450,-161 262,-161"/>
<polygon fill="none" stroke="black" points="262,-161 262,-183 450,-183 450,-161 262,-161"/>
<text text-anchor="start" x="267" y="-170.2" font-family="Helvetica,sans-Serif" font-weight="bold" font-size="11.00">container_services</text>
<text text-anchor="start" x="411" y="-169.2" font-family="Helvetica,sans-Serif" font-size="11.00">[table]</text>
<polygon fill="none" stroke="black" points="262,-139 262,-161 450,-161 450,-139 262,-139"/>
<image xlink:href="../../images/primaryKeys.png" width="11px" height="12px" preserveAspectRatio="xMinYMin meet" x="267" y="-156"/>
<text text-anchor="start" x="282" y="-147.2" font-family="Helvetica,sans-Serif" font-size="11.00">id</text>
<polygon fill="#ffffff" stroke="none" points="262,-117 262,-139 450,-139 450,-117 262,-117"/>
<polygon fill="none" stroke="black" points="262,-117 262,-139 450,-139 450,-117 262,-117"/>
<text text-anchor="start" x="282" y="-125.2" font-family="Helvetica,sans-Serif" font-size="11.00">ems_id</text>
<polygon fill="none" stroke="black" points="262,-95 262,-117 450,-117 450,-95 262,-95"/>
<image xlink:href="../../images/foreignKeys.png" width="11px" height="12px" preserveAspectRatio="xMinYMin meet" x="267" y="-112"/>
<text text-anchor="start" x="282" y="-103.2" font-family="Helvetica,sans-Serif" font-size="11.00">container_project_id</text>
<polygon fill="none" stroke="black" points="262,-73 262,-95 450,-95 450,-73 262,-73"/>
<image xlink:href="../../images/foreignKeys.png" width="11px" height="12px" preserveAspectRatio="xMinYMin meet" x="267" y="-90"/>
<text text-anchor="start" x="282" y="-81.2" font-family="Helvetica,sans-Serif" font-size="11.00">container_image_registry_id</text>
<polygon fill="none" stroke="black" points="262,-55 262,-73 450,-73 450,-55 262,-55"/>
<text text-anchor="start" x="265" y="-61.2" font-family="Helvetica,sans-Serif" font-size="11.00">...</text>
<polygon fill="#ffffff" stroke="none" points="262,-37 262,-55 349,-55 349,-37 262,-37"/>
<polygon fill="none" stroke="black" points="262,-37 262,-55 349,-55 349,-37 262,-37"/>
<text text-anchor="start" x="265" y="-43.2" font-family="Helvetica,sans-Serif" font-size="11.00">&lt; 2</text>
<polygon fill="#ffffff" stroke="none" points="349,-37 349,-55 394,-55 394,-37 349,-37"/>
<polygon fill="none" stroke="black" points="349,-37 349,-55 394,-55 394,-37 349,-37"/>
<text text-anchor="start" x="384" y="-43.2" font-family="Helvetica,sans-Serif" font-size="11.00"> &#160;</text>
<polygon fill="#ffffff" stroke="none" points="394,-37 394,-55 450,-55 450,-37 394,-37"/>
<polygon fill="none" stroke="black" points="394,-37 394,-55 450,-55 450,-37 394,-37"/>
<text text-anchor="start" x="430" y="-43.2" font-family="Helvetica,sans-Serif" font-size="11.00">3 &gt;</text>
</a>
</g>
</g>
<!-- container_groups_container_services&#45;&gt;container_services -->
<g id="edge5" class="edge"><title>container_groups_container_services:elipses:w&#45;&gt;container_services:id:e</title>
<path fill="none" stroke="black" d="M803.925,-312.446C739.941,-296.635 845.408,-164.394 778,-109 680.824,-29.1442 612.034,-62.9241 495,-109 470.129,-118.792 477.73,-150 451,-150"/>
<polygon fill="black" stroke="black" points="810.545,-313.152 818.118,-317.58 814.523,-313.576 818.5,-314 818.5,-314 818.5,-314 814.523,-313.576 818.882,-310.42 810.545,-313.152 810.545,-313.152"/>
<ellipse fill="none" stroke="black" cx="807.363" cy="-312.812" rx="3.2" ry="3.2"/>
</g>
<!-- container_services&#45;&gt;container_projects -->
<g id="edge13" class="edge"><title>container_services:container_project_id:w&#45;&gt;container_projects:id:e</title>
<path fill="none" stroke="black" d="M246.351,-107.277C131.89,-129.091 326.759,-423 187.5,-423"/>
<polygon fill="black" stroke="black" points="253.03,-106.695 261.313,-109.586 257.015,-106.347 261,-106 261,-106 261,-106 257.015,-106.347 260.687,-102.414 253.03,-106.695 253.03,-106.695"/>
<ellipse fill="none" stroke="black" cx="249.842" cy="-106.973" rx="3.2" ry="3.2"/>
</g>
<!-- container_image_registries -->
<g id="node11" class="node"><title>container_image_registries</title>
<g id="a_node11"><a xlink:href="../../tables/container_image_registries.html" xlink:title="container_image_registries" target="_top">
<polygon fill="#ffffff" stroke="none" points="8,-57 8,-115 209,-115 209,-57 8,-57"/>
<polygon fill="#f5f5f5" stroke="none" points="8.5,-93 8.5,-115 209.5,-115 209.5,-93 8.5,-93"/>
<polygon fill="none" stroke="black" points="8.5,-93 8.5,-115 209.5,-115 209.5,-93 8.5,-93"/>
<text text-anchor="start" x="13.5" y="-102.2" font-family="Helvetica,sans-Serif" font-weight="bold" font-size="11.00">container_image_registries</text>
<text text-anchor="start" x="170.5" y="-101.2" font-family="Helvetica,sans-Serif" font-size="11.00">[table]</text>
<polygon fill="none" stroke="black" points="8.5,-75 8.5,-93 209.5,-93 209.5,-75 8.5,-75"/>
<text text-anchor="start" x="11.5" y="-81.2" font-family="Helvetica,sans-Serif" font-size="11.00">...</text>
<polygon fill="#ffffff" stroke="none" points="8.5,-57 8.5,-75 97.5,-75 97.5,-57 8.5,-57"/>
<polygon fill="none" stroke="black" points="8.5,-57 8.5,-75 97.5,-75 97.5,-57 8.5,-57"/>
<text text-anchor="start" x="11.5" y="-63.2" font-family="Helvetica,sans-Serif" font-size="11.00"> &#160;</text>
<polygon fill="#ffffff" stroke="none" points="97.5,-57 97.5,-75 148.5,-75 148.5,-57 97.5,-57"/>
<polygon fill="none" stroke="black" points="97.5,-57 97.5,-75 148.5,-75 148.5,-57 97.5,-57"/>
<text text-anchor="start" x="138.5" y="-63.2" font-family="Helvetica,sans-Serif" font-size="11.00"> &#160;</text>
<polygon fill="#ffffff" stroke="none" points="148.5,-57 148.5,-75 209.5,-75 209.5,-57 148.5,-57"/>
<polygon fill="none" stroke="black" points="148.5,-57 148.5,-75 209.5,-75 209.5,-57 148.5,-57"/>
<text text-anchor="start" x="189.5" y="-63.2" font-family="Helvetica,sans-Serif" font-size="11.00">2 &gt;</text>
</a>
</g>
</g>
<!-- container_services&#45;&gt;container_image_registries -->
<g id="edge12" class="edge"><title>container_services:container_image_registry_id:w&#45;&gt;container_image_registries:elipses:e</title>
<path fill="none" stroke="black" d="M246.42,-84C234.543,-84 227.158,-84 210.5,-84"/>
<polygon fill="black" stroke="black" points="253,-84.0001 261,-87.6 257,-84 261,-84 261,-84 261,-84 257,-84 261,-80.4 253,-84.0001 253,-84.0001"/>
<ellipse fill="none" stroke="black" cx="249.8" cy="-84.0001" rx="3.2" ry="3.2"/>
</g>
<!-- container_limits -->
<g id="node7" class="node"><title>container_limits</title>
<g id="a_node7"><a xlink:href="../../tables/container_limits.html" xlink:title="container_limits" target="_top">
<polygon fill="#ffffff" stroke="none" points="285,-396 285,-454 427,-454 427,-396 285,-396"/>
<polygon fill="#f5f5f5" stroke="none" points="285,-432 285,-454 427,-454 427,-432 285,-432"/>
<polygon fill="none" stroke="black" points="285,-432 285,-454 427,-454 427,-432 285,-432"/>
<text text-anchor="start" x="290" y="-441.2" font-family="Helvetica,sans-Serif" font-weight="bold" font-size="11.00">container_limits</text>
<text text-anchor="start" x="388" y="-440.2" font-family="Helvetica,sans-Serif" font-size="11.00">[table]</text>
<polygon fill="none" stroke="black" points="285,-414 285,-432 427,-432 427,-414 285,-414"/>
<text text-anchor="start" x="288" y="-420.2" font-family="Helvetica,sans-Serif" font-size="11.00">...</text>
<polygon fill="#ffffff" stroke="none" points="285,-396 285,-414 349,-414 349,-396 285,-396"/>
<polygon fill="none" stroke="black" points="285,-396 285,-414 349,-414 349,-396 285,-396"/>
<text text-anchor="start" x="288" y="-402.2" font-family="Helvetica,sans-Serif" font-size="11.00">&lt; 1</text>
<polygon fill="#ffffff" stroke="none" points="349,-396 349,-414 383,-414 383,-396 349,-396"/>
<polygon fill="none" stroke="black" points="349,-396 349,-414 383,-414 383,-396 349,-396"/>
<text text-anchor="start" x="373" y="-402.2" font-family="Helvetica,sans-Serif" font-size="11.00"> &#160;</text>
<polygon fill="#ffffff" stroke="none" points="383,-396 383,-414 427,-414 427,-396 383,-396"/>
<polygon fill="none" stroke="black" points="383,-396 383,-414 427,-414 427,-396 383,-396"/>
<text text-anchor="start" x="407" y="-402.2" font-family="Helvetica,sans-Serif" font-size="11.00">1 &gt;</text>
</a>
</g>
</g>
<!-- container_limits&#45;&gt;container_projects -->
<g id="edge6" class="edge"><title>container_limits:elipses:w&#45;&gt;container_projects:id:e</title>
<path fill="none" stroke="black" d="M269.299,-423C237.928,-423 225.028,-423 187.5,-423"/>
<polygon fill="black" stroke="black" points="276,-423 284,-426.6 280,-423 284,-423 284,-423 284,-423 280,-423 284,-419.4 276,-423 276,-423"/>
<ellipse fill="none" stroke="black" cx="272.8" cy="-423" rx="3.2" ry="3.2"/>
</g>
<!-- container_quotas -->
<g id="node8" class="node"><title>container_quotas</title>
<g id="a_node8"><a xlink:href="../../tables/container_quotas.html" xlink:title="container_quotas" target="_top">
<polygon fill="#ffffff" stroke="none" points="282,-317 282,-375 430,-375 430,-317 282,-317"/>
<polygon fill="#f5f5f5" stroke="none" points="282,-353 282,-375 430,-375 430,-353 282,-353"/>
<polygon fill="none" stroke="black" points="282,-353 282,-375 430,-375 430,-353 282,-353"/>
<text text-anchor="start" x="287" y="-362.2" font-family="Helvetica,sans-Serif" font-weight="bold" font-size="11.00">container_quotas</text>
<text text-anchor="start" x="391" y="-361.2" font-family="Helvetica,sans-Serif" font-size="11.00">[table]</text>
<polygon fill="none" stroke="black" points="282,-335 282,-353 430,-353 430,-335 282,-335"/>
<text text-anchor="start" x="285" y="-341.2" font-family="Helvetica,sans-Serif" font-size="11.00">...</text>
<polygon fill="#ffffff" stroke="none" points="282,-317 282,-335 349,-335 349,-317 282,-317"/>
<polygon fill="none" stroke="black" points="282,-317 282,-335 349,-335 349,-317 282,-317"/>
<text text-anchor="start" x="285" y="-323.2" font-family="Helvetica,sans-Serif" font-size="11.00">&lt; 1</text>
<polygon fill="#ffffff" stroke="none" points="349,-317 349,-335 384,-335 384,-317 349,-317"/>
<polygon fill="none" stroke="black" points="349,-317 349,-335 384,-335 384,-317 349,-317"/>
<text text-anchor="start" x="374" y="-323.2" font-family="Helvetica,sans-Serif" font-size="11.00"> &#160;</text>
<polygon fill="#ffffff" stroke="none" points="384,-317 384,-335 430,-335 430,-317 384,-317"/>
<polygon fill="none" stroke="black" points="384,-317 384,-335 430,-335 430,-317 384,-317"/>
<text text-anchor="start" x="410" y="-323.2" font-family="Helvetica,sans-Serif" font-size="11.00">2 &gt;</text>
</a>
</g>
</g>
<!-- container_quotas&#45;&gt;container_projects -->
<g id="edge7" class="edge"><title>container_quotas:elipses:w&#45;&gt;container_projects:id:e</title>
<path fill="none" stroke="black" d="M266.435,-346.279C228.987,-359.232 236.377,-423 187.5,-423"/>
<polygon fill="black" stroke="black" points="273.096,-345.237 281.557,-347.557 277.048,-344.618 281,-344 281,-344 281,-344 277.048,-344.618 280.443,-340.443 273.096,-345.237 273.096,-345.237"/>
<ellipse fill="none" stroke="black" cx="269.935" cy="-345.732" rx="3.2" ry="3.2"/>
</g>
<!-- container_routes -->
<g id="node9" class="node"><title>container_routes</title>
<g id="a_node9"><a xlink:href="../../tables/container_routes.html" xlink:title="container_routes" target="_top">
<polygon fill="#ffffff" stroke="none" points="503,-199 503,-485 770,-485 770,-199 503,-199"/>
<polygon fill="#f5f5f5" stroke="none" points="505.5,-461 505.5,-483 768.5,-483 768.5,-461 505.5,-461"/>
<polygon fill="none" stroke="black" points="505.5,-461 505.5,-483 768.5,-483 768.5,-461 505.5,-461"/>
<text text-anchor="start" x="510.5" y="-470.2" font-family="Helvetica,sans-Serif" font-weight="bold" font-size="11.00">container_routes</text>
<text text-anchor="start" x="729.5" y="-469.2" font-family="Helvetica,sans-Serif" font-size="11.00">[table]</text>
<polygon fill="none" stroke="black" points="505.5,-439 505.5,-461 647.5,-461 647.5,-439 505.5,-439"/>
<image xlink:href="../../images/primaryKeys.png" width="11px" height="12px" preserveAspectRatio="xMinYMin meet" x="510.5" y="-456"/>
<text text-anchor="start" x="525.5" y="-447.2" font-family="Helvetica,sans-Serif" font-size="11.00">id</text>
<polygon fill="none" stroke="black" points="647.5,-439 647.5,-461 768.5,-461 768.5,-439 647.5,-439"/>
<text text-anchor="start" x="650.5" y="-447.2" font-family="Helvetica,sans-Serif" font-size="11.00">bigserial[19]</text>
<polygon fill="none" stroke="black" points="505.5,-417 505.5,-439 647.5,-439 647.5,-417 505.5,-417"/>
<text text-anchor="start" x="525.5" y="-425.2" font-family="Helvetica,sans-Serif" font-size="11.00">ems_ref</text>
<polygon fill="none" stroke="black" points="647.5,-417 647.5,-439 768.5,-439 768.5,-417 647.5,-417"/>
<text text-anchor="start" x="650.5" y="-425.2" font-family="Helvetica,sans-Serif" font-size="11.00">varchar[2147483647]</text>
<polygon fill="none" stroke="black" points="505.5,-395 505.5,-417 647.5,-417 647.5,-395 505.5,-395"/>
<text text-anchor="start" x="525.5" y="-403.2" font-family="Helvetica,sans-Serif" font-size="11.00">name</text>
<polygon fill="none" stroke="black" points="647.5,-395 647.5,-417 768.5,-417 768.5,-395 647.5,-395"/>
<text text-anchor="start" x="650.5" y="-403.2" font-family="Helvetica,sans-Serif" font-size="11.00">varchar[2147483647]</text>
<polygon fill="none" stroke="black" points="505.5,-373 505.5,-395 647.5,-395 647.5,-373 505.5,-373"/>
<text text-anchor="start" x="525.5" y="-381.2" font-family="Helvetica,sans-Serif" font-size="11.00">ems_created_on</text>
<polygon fill="none" stroke="black" points="647.5,-373 647.5,-395 768.5,-395 768.5,-373 647.5,-373"/>
<text text-anchor="start" x="650.5" y="-381.2" font-family="Helvetica,sans-Serif" font-size="11.00">timestamp[29,6]</text>
<polygon fill="none" stroke="black" points="505.5,-351 505.5,-373 647.5,-373 647.5,-351 505.5,-351"/>
<text text-anchor="start" x="525.5" y="-359.2" font-family="Helvetica,sans-Serif" font-size="11.00">resource_version</text>
<polygon fill="none" stroke="black" points="647.5,-351 647.5,-373 768.5,-373 768.5,-351 647.5,-351"/>
<text text-anchor="start" x="650.5" y="-359.2" font-family="Helvetica,sans-Serif" font-size="11.00">varchar[2147483647]</text>
<polygon fill="none" stroke="black" points="505.5,-329 505.5,-351 647.5,-351 647.5,-329 505.5,-329"/>
<text text-anchor="start" x="525.5" y="-337.2" font-family="Helvetica,sans-Serif" font-size="11.00">host_name</text>
<polygon fill="none" stroke="black" points="647.5,-329 647.5,-351 768.5,-351 768.5,-329 647.5,-329"/>
<text text-anchor="start" x="650.5" y="-337.2" font-family="Helvetica,sans-Serif" font-size="11.00">varchar[2147483647]</text>
<polygon fill="none" stroke="black" points="505.5,-307 505.5,-329 647.5,-329 647.5,-307 505.5,-307"/>
<text text-anchor="start" x="525.5" y="-315.2" font-family="Helvetica,sans-Serif" font-size="11.00">path</text>
<polygon fill="none" stroke="black" points="647.5,-307 647.5,-329 768.5,-329 768.5,-307 647.5,-307"/>
<text text-anchor="start" x="650.5" y="-315.2" font-family="Helvetica,sans-Serif" font-size="11.00">varchar[2147483647]</text>
<polygon fill="#ffffff" stroke="none" points="505.5,-285 505.5,-307 647.5,-307 647.5,-285 505.5,-285"/>
<polygon fill="none" stroke="black" points="505.5,-285 505.5,-307 647.5,-307 647.5,-285 505.5,-285"/>
<text text-anchor="start" x="525.5" y="-293.2" font-family="Helvetica,sans-Serif" font-size="11.00">ems_id</text>
<polygon fill="none" stroke="black" points="647.5,-285 647.5,-307 768.5,-307 768.5,-285 647.5,-285"/>
<text text-anchor="start" x="650.5" y="-293.2" font-family="Helvetica,sans-Serif" font-size="11.00">int8[19]</text>
<polygon fill="none" stroke="black" points="505.5,-263 505.5,-285 647.5,-285 647.5,-263 505.5,-263"/>
<image xlink:href="../../images/foreignKeys.png" width="11px" height="12px" preserveAspectRatio="xMinYMin meet" x="510.5" y="-280"/>
<text text-anchor="start" x="525.5" y="-271.2" font-family="Helvetica,sans-Serif" font-size="11.00">container_project_id</text>
<polygon fill="none" stroke="black" points="647.5,-263 647.5,-285 768.5,-285 768.5,-263 647.5,-263"/>
<text text-anchor="start" x="650.5" y="-271.2" font-family="Helvetica,sans-Serif" font-size="11.00">int8[19]</text>
<polygon fill="none" stroke="black" points="505.5,-241 505.5,-263 647.5,-263 647.5,-241 505.5,-241"/>
<image xlink:href="../../images/foreignKeys.png" width="11px" height="12px" preserveAspectRatio="xMinYMin meet" x="510.5" y="-258"/>
<text text-anchor="start" x="525.5" y="-249.2" font-family="Helvetica,sans-Serif" font-size="11.00">container_service_id</text>
<polygon fill="none" stroke="black" points="647.5,-241 647.5,-263 768.5,-263 768.5,-241 647.5,-241"/>
<text text-anchor="start" x="650.5" y="-249.2" font-family="Helvetica,sans-Serif" font-size="11.00">int8[19]</text>
<polygon fill="none" stroke="black" points="505.5,-219 505.5,-241 647.5,-241 647.5,-219 505.5,-219"/>
<text text-anchor="start" x="525.5" y="-227.2" font-family="Helvetica,sans-Serif" font-size="11.00">created_on</text>
<polygon fill="none" stroke="black" points="647.5,-219 647.5,-241 768.5,-241 768.5,-219 647.5,-219"/>
<text text-anchor="start" x="650.5" y="-227.2" font-family="Helvetica,sans-Serif" font-size="11.00">timestamp[29,6]</text>
<polygon fill="#ffffff" stroke="none" points="505.5,-201 505.5,-219 581.5,-219 581.5,-201 505.5,-201"/>
<polygon fill="none" stroke="black" points="505.5,-201 505.5,-219 581.5,-219 581.5,-201 505.5,-201"/>
<text text-anchor="start" x="508.5" y="-207.2" font-family="Helvetica,sans-Serif" font-size="11.00">&lt; 2</text>
<polygon fill="#ffffff" stroke="none" points="581.5,-201 581.5,-219 647.5,-219 647.5,-201 581.5,-201"/>
<polygon fill="none" stroke="black" points="581.5,-201 581.5,-219 647.5,-219 647.5,-201 581.5,-201"/>
<text text-anchor="start" x="637.5" y="-207.2" font-family="Helvetica,sans-Serif" font-size="11.00"> &#160;</text>
<polygon fill="#ffffff" stroke="none" points="647.5,-201 647.5,-219 768.5,-219 768.5,-201 647.5,-201"/>
<polygon fill="none" stroke="black" points="647.5,-201 647.5,-219 768.5,-219 768.5,-201 647.5,-201"/>
<text text-anchor="start" x="748.5" y="-207.2" font-family="Helvetica,sans-Serif" font-size="11.00">0 &gt;</text>
<polygon fill="none" stroke="black" stroke-width="2" points="504,-200 504,-484 769,-484 769,-200 504,-200"/>
</a>
</g>
</g>
<!-- container_routes&#45;&gt;container_projects -->
<g id="edge9" class="edge"><title>container_routes:container_project_id:w&#45;&gt;container_projects:id:e</title>
<path fill="none" stroke="black" d="M489.856,-275.671C436.032,-282.14 252.523,-305.263 250,-307 201.758,-340.201 246.063,-423 187.5,-423"/>
<polygon fill="black" stroke="black" points="496.552,-274.907 504.908,-277.577 500.526,-274.454 504.5,-274 504.5,-274 504.5,-274 500.526,-274.454 504.092,-270.423 496.552,-274.907 496.552,-274.907"/>
<ellipse fill="none" stroke="black" cx="493.372" cy="-275.27" rx="3.2" ry="3.2"/>
</g>
<!-- container_routes&#45;&gt;container_services -->
<g id="edge10" class="edge"><title>container_routes:container_service_id:w&#45;&gt;container_services:id:e</title>
<path fill="none" stroke="black" d="M490.304,-248.126C463.392,-229.495 496.192,-150 451,-150"/>
<polygon fill="black" stroke="black" points="496.782,-249.894 503.552,-255.473 500.641,-250.947 504.5,-252 504.5,-252 504.5,-252 500.641,-250.947 505.448,-248.527 496.782,-249.894 496.782,-249.894"/>
<ellipse fill="none" stroke="black" cx="493.695" cy="-249.051" rx="3.2" ry="3.2"/>
</g>
<!-- container_service_port_configs -->
<g id="node10" class="node"><title>container_service_port_configs</title>
<g id="a_node10"><a xlink:href="../../tables/container_service_port_configs.html" xlink:title="container_service_port_configs" target="_top">
<polygon fill="#ffffff" stroke="none" points="525.5,-120 525.5,-178 747.5,-178 747.5,-120 525.5,-120"/>
<polygon fill="#f5f5f5" stroke="none" points="525.5,-156 525.5,-178 747.5,-178 747.5,-156 525.5,-156"/>
<polygon fill="none" stroke="black" points="525.5,-156 525.5,-178 747.5,-178 747.5,-156 525.5,-156"/>
<text text-anchor="start" x="530.5" y="-165.2" font-family="Helvetica,sans-Serif" font-weight="bold" font-size="11.00">container_service_port_configs</text>
<text text-anchor="start" x="708.5" y="-164.2" font-family="Helvetica,sans-Serif" font-size="11.00">[table]</text>
<polygon fill="none" stroke="black" points="525.5,-138 525.5,-156 747.5,-156 747.5,-138 525.5,-138"/>
<text text-anchor="start" x="528.5" y="-144.2" font-family="Helvetica,sans-Serif" font-size="11.00">...</text>
<polygon fill="#ffffff" stroke="none" points="525.5,-120 525.5,-138 634.5,-138 634.5,-120 525.5,-120"/>
<polygon fill="none" stroke="black" points="525.5,-120 525.5,-138 634.5,-138 634.5,-120 525.5,-120"/>
<text text-anchor="start" x="528.5" y="-126.2" font-family="Helvetica,sans-Serif" font-size="11.00">&lt; 1</text>
<polygon fill="#ffffff" stroke="none" points="634.5,-120 634.5,-138 690.5,-138 690.5,-120 634.5,-120"/>
<polygon fill="none" stroke="black" points="634.5,-120 634.5,-138 690.5,-138 690.5,-120 634.5,-120"/>
<text text-anchor="start" x="680.5" y="-126.2" font-family="Helvetica,sans-Serif" font-size="11.00"> &#160;</text>
<polygon fill="#ffffff" stroke="none" points="690.5,-120 690.5,-138 747.5,-138 747.5,-120 690.5,-120"/>
<polygon fill="none" stroke="black" points="690.5,-120 690.5,-138 747.5,-138 747.5,-120 690.5,-120"/>
<text text-anchor="start" x="737.5" y="-126.2" font-family="Helvetica,sans-Serif" font-size="11.00"> &#160;</text>
</a>
</g>
</g>
<!-- container_service_port_configs&#45;&gt;container_services -->
<g id="edge11" class="edge"><title>container_service_port_configs:elipses:w&#45;&gt;container_services:id:e</title>
<path fill="none" stroke="black" d="M509.873,-147.225C488.387,-147.923 478.202,-150 451,-150"/>
<polygon fill="black" stroke="black" points="516.501,-147.123 524.556,-150.6 520.5,-147.062 524.5,-147 524.5,-147 524.5,-147 520.5,-147.062 524.444,-143.4 516.501,-147.123 516.501,-147.123"/>
<ellipse fill="none" stroke="black" cx="513.301" cy="-147.173" rx="3.2" ry="3.2"/>
</g>
<!-- container_templates -->
<g id="node12" class="node"><title>container_templates</title>
<g id="a_node12"><a xlink:href="../../tables/container_templates.html" xlink:title="container_templates" target="_top">
<polygon fill="#ffffff" stroke="none" points="272.5,-211 272.5,-269 439.5,-269 439.5,-211 272.5,-211"/>
<polygon fill="#f5f5f5" stroke="none" points="273,-247 273,-269 440,-269 440,-247 273,-247"/>
<polygon fill="none" stroke="black" points="273,-247 273,-269 440,-269 440,-247 273,-247"/>
<text text-anchor="start" x="278" y="-256.2" font-family="Helvetica,sans-Serif" font-weight="bold" font-size="11.00">container_templates</text>
<text text-anchor="start" x="401" y="-255.2" font-family="Helvetica,sans-Serif" font-size="11.00">[table]</text>
<polygon fill="none" stroke="black" points="273,-229 273,-247 440,-247 440,-229 273,-229"/>
<text text-anchor="start" x="276" y="-235.2" font-family="Helvetica,sans-Serif" font-size="11.00">...</text>
<polygon fill="#ffffff" stroke="none" points="273,-211 273,-229 350,-229 350,-211 273,-211"/>
<polygon fill="none" stroke="black" points="273,-211 273,-229 350,-229 350,-211 273,-211"/>
<text text-anchor="start" x="276" y="-217.2" font-family="Helvetica,sans-Serif" font-size="11.00">&lt; 1</text>
<polygon fill="#ffffff" stroke="none" points="350,-211 350,-229 390,-229 390,-211 350,-211"/>
<polygon fill="none" stroke="black" points="350,-211 350,-229 390,-229 390,-211 350,-211"/>
<text text-anchor="start" x="380" y="-217.2" font-family="Helvetica,sans-Serif" font-size="11.00"> &#160;</text>
<polygon fill="#ffffff" stroke="none" points="390,-211 390,-229 440,-229 440,-211 390,-211"/>
<polygon fill="none" stroke="black" points="390,-211 390,-229 440,-229 440,-211 390,-211"/>
<text text-anchor="start" x="420" y="-217.2" font-family="Helvetica,sans-Serif" font-size="11.00">1 &gt;</text>
</a>
</g>
</g>
<!-- container_templates&#45;&gt;container_projects -->
<g id="edge14" class="edge"><title>container_templates:elipses:w&#45;&gt;container_projects:id:e</title>
<path fill="none" stroke="black" d="M257.551,-239.952C192.582,-259.724 272.42,-423 187.5,-423"/>
<polygon fill="black" stroke="black" points="264.072,-239.071 272.482,-241.568 268.036,-238.536 272,-238 272,-238 272,-238 268.036,-238.536 271.518,-234.432 264.072,-239.071 264.072,-239.071"/>
<ellipse fill="none" stroke="black" cx="260.901" cy="-239.5" rx="3.2" ry="3.2"/>
</g>
<!-- persistent_volume_claims -->
<g id="node13" class="node"><title>persistent_volume_claims</title>
<g id="a_node13"><a xlink:href="../../tables/persistent_volume_claims.html" xlink:title="persistent_volume_claims" target="_top">
<polygon fill="#ffffff" stroke="none" points="258,-660 258,-718 454,-718 454,-660 258,-660"/>
<polygon fill="#f5f5f5" stroke="none" points="258,-696 258,-718 454,-718 454,-696 258,-696"/>
<polygon fill="none" stroke="black" points="258,-696 258,-718 454,-718 454,-696 258,-696"/>
<text text-anchor="start" x="263" y="-705.2" font-family="Helvetica,sans-Serif" font-weight="bold" font-size="11.00">persistent_volume_claims</text>
<text text-anchor="start" x="415" y="-704.2" font-family="Helvetica,sans-Serif" font-size="11.00">[table]</text>
<polygon fill="none" stroke="black" points="258,-678 258,-696 454,-696 454,-678 258,-678"/>
<text text-anchor="start" x="261" y="-684.2" font-family="Helvetica,sans-Serif" font-size="11.00">...</text>
<polygon fill="#ffffff" stroke="none" points="258,-660 258,-678 349,-678 349,-660 258,-660"/>
<polygon fill="none" stroke="black" points="258,-660 258,-678 349,-678 349,-660 258,-660"/>
<text text-anchor="start" x="261" y="-666.2" font-family="Helvetica,sans-Serif" font-size="11.00">&lt; 1</text>
<polygon fill="#ffffff" stroke="none" points="349,-660 349,-678 396,-678 396,-660 349,-660"/>
<polygon fill="none" stroke="black" points="349,-660 349,-678 396,-678 396,-660 349,-660"/>
<text text-anchor="start" x="386" y="-666.2" font-family="Helvetica,sans-Serif" font-size="11.00"> &#160;</text>
<polygon fill="#ffffff" stroke="none" points="396,-660 396,-678 454,-678 454,-660 396,-660"/>
<polygon fill="none" stroke="black" points="396,-660 396,-678 454,-678 454,-660 396,-660"/>
<text text-anchor="start" x="434" y="-666.2" font-family="Helvetica,sans-Serif" font-size="11.00">1 &gt;</text>
</a>
</g>
</g>
<!-- persistent_volume_claims&#45;&gt;container_projects -->
<g id="edge15" class="edge"><title>persistent_volume_claims:elipses:w&#45;&gt;container_projects:id:e</title>
<path fill="none" stroke="black" d="M242.66,-685.515C150.32,-664.307 303.499,-423 187.5,-423"/>
<polygon fill="black" stroke="black" points="249.043,-686.176 256.629,-690.581 253.021,-686.588 257,-687 257,-687 257,-687 253.021,-686.588 257.371,-683.419 249.043,-686.176 249.043,-686.176"/>
<ellipse fill="none" stroke="black" cx="245.86" cy="-685.846" rx="3.2" ry="3.2"/>
</g>
</g>
</svg>
