<?xml version="1.0" encoding="UTF-8" standalone="no"?>
<!DOCTYPE svg PUBLIC "-//W3C//DTD SVG 1.1//EN"
 "http://www.w3.org/Graphics/SVG/1.1/DTD/svg11.dtd">
<!-- Generated by graphviz version 2.38.0 (20140413.2041)
 -->
<!-- Title: twoDegreesRelationshipsDiagram Pages: 1 -->
<svg width="1027pt" height="735pt"
 viewBox="0.00 0.00 1027.00 735.00" xmlns="http://www.w3.org/2000/svg" xmlns:xlink="http://www.w3.org/1999/xlink">
<g id="graph0" class="graph" transform="scale(1 1) rotate(0) translate(4 731)">
<title>twoDegreesRelationshipsDiagram</title>
<polygon fill="#ffffff" stroke="none" points="-4,4 -4,-731 1023,-731 1023,4 -4,4"/>
<text text-anchor="middle" x="74.5" y="-7.2" font-family="Helvetica,sans-Serif" font-size="11.00">Generated by SchemaSpy</text>
<!-- container_env_vars -->
<g id="node1" class="node"><title>container_env_vars</title>
<g id="a_node1"><a xlink:href="../../tables/container_env_vars.html" xlink:title="container_env_vars" target="_top">
<polygon fill="#ffffff" stroke="none" points="843.5,-157 843.5,-215 1001.5,-215 1001.5,-157 843.5,-157"/>
<polygon fill="#f5f5f5" stroke="none" points="843.5,-193 843.5,-215 1001.5,-215 1001.5,-193 843.5,-193"/>
<polygon fill="none" stroke="black" points="843.5,-193 843.5,-215 1001.5,-215 1001.5,-193 843.5,-193"/>
<text text-anchor="start" x="848.5" y="-202.2" font-family="Helvetica,sans-Serif" font-weight="bold" font-size="11.00">container_env_vars</text>
<text text-anchor="start" x="962.5" y="-201.2" font-family="Helvetica,sans-Serif" font-size="11.00">[table]</text>
<polygon fill="none" stroke="black" points="843.5,-175 843.5,-193 1001.5,-193 1001.5,-175 843.5,-175"/>
<text text-anchor="start" x="846.5" y="-181.2" font-family="Helvetica,sans-Serif" font-size="11.00">...</text>
<polygon fill="#ffffff" stroke="none" points="843.5,-157 843.5,-175 920.5,-175 920.5,-157 843.5,-157"/>
<polygon fill="none" stroke="black" points="843.5,-157 843.5,-175 920.5,-175 920.5,-157 843.5,-157"/>
<text text-anchor="start" x="846.5" y="-163.2" font-family="Helvetica,sans-Serif" font-size="11.00">&lt; 1</text>
<polygon fill="#ffffff" stroke="none" points="920.5,-157 920.5,-175 960.5,-175 960.5,-157 920.5,-157"/>
<polygon fill="none" stroke="black" points="920.5,-157 920.5,-175 960.5,-175 960.5,-157 920.5,-157"/>
<text text-anchor="start" x="950.5" y="-163.2" font-family="Helvetica,sans-Serif" font-size="11.00"> &#160;</text>
<polygon fill="#ffffff" stroke="none" points="960.5,-157 960.5,-175 1001.5,-175 1001.5,-157 960.5,-157"/>
<polygon fill="none" stroke="black" points="960.5,-157 960.5,-175 1001.5,-175 1001.5,-157 960.5,-157"/>
<text text-anchor="start" x="991.5" y="-163.2" font-family="Helvetica,sans-Serif" font-size="11.00"> &#160;</text>
</a>
</g>
</g>
<!-- containers -->
<g id="node2" class="node"><title>containers</title>
<g id="a_node2"><a xlink:href="../../tables/containers.html" xlink:title="containers" target="_top">
<polygon fill="#ffffff" stroke="none" points="625,-49 625,-217 785,-217 785,-49 625,-49"/>
<polygon fill="#f5f5f5" stroke="none" points="625,-195 625,-217 785,-217 785,-195 625,-195"/>
<polygon fill="none" stroke="black" points="625,-195 625,-217 785,-217 785,-195 625,-195"/>
<text text-anchor="start" x="630" y="-204.2" font-family="Helvetica,sans-Serif" font-weight="bold" font-size="11.00">containers</text>
<text text-anchor="start" x="746" y="-203.2" font-family="Helvetica,sans-Serif" font-size="11.00">[table]</text>
<polygon fill="none" stroke="black" points="625,-173 625,-195 785,-195 785,-173 625,-173"/>
<image xlink:href="../../images/primaryKeys.png" width="11px" height="12px" preserveAspectRatio="xMinYMin meet" x="630" y="-190"/>
<text text-anchor="start" x="645" y="-181.2" font-family="Helvetica,sans-Serif" font-size="11.00">id</text>
<polygon fill="#ffffff" stroke="none" points="625,-151 625,-173 785,-173 785,-151 625,-151"/>
<polygon fill="none" stroke="black" points="625,-151 625,-173 785,-173 785,-151 625,-151"/>
<text text-anchor="start" x="645" y="-159.2" font-family="Helvetica,sans-Serif" font-size="11.00">type</text>
<polygon fill="none" stroke="black" points="625,-129 625,-151 785,-151 785,-129 625,-129"/>
<image xlink:href="../../images/foreignKeys.png" width="11px" height="12px" preserveAspectRatio="xMinYMin meet" x="630" y="-146"/>
<text text-anchor="start" x="645" y="-137.2" font-family="Helvetica,sans-Serif" font-size="11.00">container_image_id</text>
<polygon fill="#ffffff" stroke="none" points="625,-107 625,-129 785,-129 785,-107 625,-107"/>
<polygon fill="none" stroke="black" points="625,-107 625,-129 785,-129 785,-107 625,-107"/>
<text text-anchor="start" x="645" y="-115.2" font-family="Helvetica,sans-Serif" font-size="11.00">deleted_on</text>
<polygon fill="none" stroke="black" points="625,-85 625,-107 785,-107 785,-85 625,-85"/>
<image xlink:href="../../images/foreignKeys.png" width="11px" height="12px" preserveAspectRatio="xMinYMin meet" x="630" y="-102"/>
<text text-anchor="start" x="645" y="-93.2" font-family="Helvetica,sans-Serif" font-size="11.00">container_group_id</text>
<polygon fill="none" stroke="black" points="625,-67 625,-85 785,-85 785,-67 625,-67"/>
<text text-anchor="start" x="628" y="-73.2" font-family="Helvetica,sans-Serif" font-size="11.00">...</text>
<polygon fill="#ffffff" stroke="none" points="625,-49 625,-67 698,-67 698,-49 625,-49"/>
<polygon fill="none" stroke="black" points="625,-49 625,-67 698,-67 698,-49 625,-49"/>
<text text-anchor="start" x="628" y="-55.2" font-family="Helvetica,sans-Serif" font-size="11.00">&lt; 2</text>
<polygon fill="#ffffff" stroke="none" points="698,-49 698,-67 736,-67 736,-49 698,-49"/>
<polygon fill="none" stroke="black" points="698,-49 698,-67 736,-67 736,-49 698,-49"/>
<text text-anchor="start" x="726" y="-55.2" font-family="Helvetica,sans-Serif" font-size="11.00"> &#160;</text>
<polygon fill="#ffffff" stroke="none" points="736,-49 736,-67 785,-67 785,-49 736,-49"/>
<polygon fill="none" stroke="black" points="736,-49 736,-67 785,-67 785,-49 736,-49"/>
<text text-anchor="start" x="765" y="-55.2" font-family="Helvetica,sans-Serif" font-size="11.00">3 &gt;</text>
</a>
</g>
</g>
<!-- container_env_vars&#45;&gt;containers -->
<g id="edge1" class="edge"><title>container_env_vars:elipses:w&#45;&gt;containers:id:e</title>
<path fill="none" stroke="black" d="M827.894,-184C813.578,-184 805.422,-184 786,-184"/>
<polygon fill="black" stroke="black" points="834.5,-184 842.5,-187.6 838.5,-184 842.5,-184 842.5,-184 842.5,-184 838.5,-184 842.5,-180.4 834.5,-184 834.5,-184"/>
<ellipse fill="none" stroke="black" cx="831.3" cy="-184" rx="3.2" ry="3.2"/>
</g>
<!-- container_images -->
<g id="node3" class="node"><title>container_images</title>
<g id="a_node3"><a xlink:href="../../tables/container_images.html" xlink:title="container_images" target="_top">
<polygon fill="#ffffff" stroke="none" points="258,-116 258,-644 576,-644 576,-116 258,-116"/>
<polygon fill="#f5f5f5" stroke="none" points="260,-620 260,-642 574,-642 574,-620 260,-620"/>
<polygon fill="none" stroke="black" points="260,-620 260,-642 574,-642 574,-620 260,-620"/>
<text text-anchor="start" x="265" y="-629.2" font-family="Helvetica,sans-Serif" font-weight="bold" font-size="11.00">container_images</text>
<text text-anchor="start" x="535" y="-628.2" font-family="Helvetica,sans-Serif" font-size="11.00">[table]</text>
<polygon fill="none" stroke="black" points="260,-598 260,-620 448,-620 448,-598 260,-598"/>
<image xlink:href="../../images/primaryKeys.png" width="11px" height="12px" preserveAspectRatio="xMinYMin meet" x="265" y="-615"/>
<text text-anchor="start" x="280" y="-606.2" font-family="Helvetica,sans-Serif" font-size="11.00">id</text>
<polygon fill="none" stroke="black" points="448,-598 448,-620 574,-620 574,-598 448,-598"/>
<text text-anchor="start" x="451" y="-606.2" font-family="Helvetica,sans-Serif" font-size="11.00">bigserial[19]</text>
<polygon fill="none" stroke="black" points="260,-576 260,-598 448,-598 448,-576 260,-576"/>
<text text-anchor="start" x="280" y="-584.2" font-family="Helvetica,sans-Serif" font-size="11.00">tag</text>
<polygon fill="none" stroke="black" points="448,-576 448,-598 574,-598 574,-576 448,-576"/>
<text text-anchor="start" x="451" y="-584.2" font-family="Helvetica,sans-Serif" font-size="11.00">varchar[2147483647]</text>
<polygon fill="none" stroke="black" points="260,-554 260,-576 448,-576 448,-554 260,-554"/>
<text text-anchor="start" x="280" y="-562.2" font-family="Helvetica,sans-Serif" font-size="11.00">name</text>
<polygon fill="none" stroke="black" points="448,-554 448,-576 574,-576 574,-554 448,-554"/>
<text text-anchor="start" x="451" y="-562.2" font-family="Helvetica,sans-Serif" font-size="11.00">varchar[2147483647]</text>
<polygon fill="none" stroke="black" points="260,-532 260,-554 448,-554 448,-532 260,-532"/>
<text text-anchor="start" x="280" y="-540.2" font-family="Helvetica,sans-Serif" font-size="11.00">image_ref</text>
<polygon fill="none" stroke="black" points="448,-532 448,-554 574,-554 574,-532 448,-532"/>
<text text-anchor="start" x="451" y="-540.2" font-family="Helvetica,sans-Serif" font-size="11.00">varchar[2147483647]</text>
<polygon fill="none" stroke="black" points="260,-510 260,-532 448,-532 448,-510 260,-510"/>
<image xlink:href="../../images/foreignKeys.png" width="11px" height="12px" preserveAspectRatio="xMinYMin meet" x="265" y="-527"/>
<text text-anchor="start" x="280" y="-518.2" font-family="Helvetica,sans-Serif" font-size="11.00">container_image_registry_id</text>
<polygon fill="none" stroke="black" points="448,-510 448,-532 574,-532 574,-510 448,-510"/>
<text text-anchor="start" x="451" y="-518.2" font-family="Helvetica,sans-Serif" font-size="11.00">int8[19]</text>
<polygon fill="none" stroke="black" points="260,-488 260,-510 448,-510 448,-488 260,-488"/>
<text text-anchor="start" x="280" y="-496.2" font-family="Helvetica,sans-Serif" font-size="11.00">ems_id</text>
<polygon fill="none" stroke="black" points="448,-488 448,-510 574,-510 574,-488 448,-488"/>
<text text-anchor="start" x="451" y="-496.2" font-family="Helvetica,sans-Serif" font-size="11.00">int8[19]</text>
<polygon fill="none" stroke="black" points="260,-466 260,-488 448,-488 448,-466 260,-466"/>
<text text-anchor="start" x="280" y="-474.2" font-family="Helvetica,sans-Serif" font-size="11.00">last_sync_on</text>
<polygon fill="none" stroke="black" points="448,-466 448,-488 574,-488 574,-466 448,-466"/>
<text text-anchor="start" x="451" y="-474.2" font-family="Helvetica,sans-Serif" font-size="11.00">timestamp[29,6]</text>
<polygon fill="none" stroke="black" points="260,-444 260,-466 448,-466 448,-444 260,-444"/>
<text text-anchor="start" x="280" y="-452.2" font-family="Helvetica,sans-Serif" font-size="11.00">last_scan_attempt_on</text>
<polygon fill="none" stroke="black" points="448,-444 448,-466 574,-466 574,-444 448,-444"/>
<text text-anchor="start" x="451" y="-452.2" font-family="Helvetica,sans-Serif" font-size="11.00">timestamp[29,6]</text>
<polygon fill="none" stroke="black" points="260,-422 260,-444 448,-444 448,-422 260,-422"/>
<text text-anchor="start" x="280" y="-430.2" font-family="Helvetica,sans-Serif" font-size="11.00">digest</text>
<polygon fill="none" stroke="black" points="448,-422 448,-444 574,-444 574,-422 448,-422"/>
<text text-anchor="start" x="451" y="-430.2" font-family="Helvetica,sans-Serif" font-size="11.00">varchar[2147483647]</text>
<polygon fill="none" stroke="black" points="260,-400 260,-422 448,-422 448,-400 260,-400"/>
<text text-anchor="start" x="280" y="-408.2" font-family="Helvetica,sans-Serif" font-size="11.00">registered_on</text>
<polygon fill="none" stroke="black" points="448,-400 448,-422 574,-422 574,-400 448,-400"/>
<text text-anchor="start" x="451" y="-408.2" font-family="Helvetica,sans-Serif" font-size="11.00">timestamp[29,6]</text>
<polygon fill="none" stroke="black" points="260,-378 260,-400 448,-400 448,-378 260,-378"/>
<text text-anchor="start" x="280" y="-386.2" font-family="Helvetica,sans-Serif" font-size="11.00">architecture</text>
<polygon fill="none" stroke="black" points="448,-378 448,-400 574,-400 574,-378 448,-378"/>
<text text-anchor="start" x="451" y="-386.2" font-family="Helvetica,sans-Serif" font-size="11.00">varchar[2147483647]</text>
<polygon fill="none" stroke="black" points="260,-356 260,-378 448,-378 448,-356 260,-356"/>
<text text-anchor="start" x="280" y="-364.2" font-family="Helvetica,sans-Serif" font-size="11.00">author</text>
<polygon fill="none" stroke="black" points="448,-356 448,-378 574,-378 574,-356 448,-356"/>
<text text-anchor="start" x="451" y="-364.2" font-family="Helvetica,sans-Serif" font-size="11.00">varchar[2147483647]</text>
<polygon fill="none" stroke="black" points="260,-334 260,-356 448,-356 448,-334 260,-334"/>
<text text-anchor="start" x="280" y="-342.2" font-family="Helvetica,sans-Serif" font-size="11.00">command</text>
<polygon fill="none" stroke="black" points="448,-334 448,-356 574,-356 574,-334 448,-334"/>
<text text-anchor="start" x="451" y="-342.2" font-family="Helvetica,sans-Serif" font-size="11.00">_varchar[2147483647]</text>
<polygon fill="none" stroke="black" points="260,-312 260,-334 448,-334 448,-312 260,-312"/>
<text text-anchor="start" x="280" y="-320.2" font-family="Helvetica,sans-Serif" font-size="11.00">entrypoint</text>
<polygon fill="none" stroke="black" points="448,-312 448,-334 574,-334 574,-312 448,-312"/>
<text text-anchor="start" x="451" y="-320.2" font-family="Helvetica,sans-Serif" font-size="11.00">_varchar[2147483647]</text>
<polygon fill="none" stroke="black" points="260,-290 260,-312 448,-312 448,-290 260,-290"/>
<text text-anchor="start" x="280" y="-298.2" font-family="Helvetica,sans-Serif" font-size="11.00">docker_version</text>
<polygon fill="none" stroke="black" points="448,-290 448,-312 574,-312 574,-290 448,-290"/>
<text text-anchor="start" x="451" y="-298.2" font-family="Helvetica,sans-Serif" font-size="11.00">varchar[2147483647]</text>
<polygon fill="none" stroke="black" points="260,-268 260,-290 448,-290 448,-268 260,-268"/>
<text text-anchor="start" x="280" y="-276.2" font-family="Helvetica,sans-Serif" font-size="11.00">exposed_ports</text>
<polygon fill="none" stroke="black" points="448,-268 448,-290 574,-290 574,-268 448,-268"/>
<text text-anchor="start" x="451" y="-276.2" font-family="Helvetica,sans-Serif" font-size="11.00">text[2147483647]</text>
<polygon fill="none" stroke="black" points="260,-246 260,-268 448,-268 448,-246 260,-246"/>
<text text-anchor="start" x="280" y="-254.2" font-family="Helvetica,sans-Serif" font-size="11.00">environment_variables</text>
<polygon fill="none" stroke="black" points="448,-246 448,-268 574,-268 574,-246 448,-246"/>
<text text-anchor="start" x="451" y="-254.2" font-family="Helvetica,sans-Serif" font-size="11.00">text[2147483647]</text>
<polygon fill="none" stroke="black" points="260,-224 260,-246 448,-246 448,-224 260,-224"/>
<text text-anchor="start" x="280" y="-232.2" font-family="Helvetica,sans-Serif" font-size="11.00">size</text>
<polygon fill="none" stroke="black" points="448,-224 448,-246 574,-246 574,-224 448,-224"/>
<text text-anchor="start" x="451" y="-232.2" font-family="Helvetica,sans-Serif" font-size="11.00">int8[19]</text>
<polygon fill="none" stroke="black" points="260,-202 260,-224 448,-224 448,-202 260,-202"/>
<text text-anchor="start" x="280" y="-210.2" font-family="Helvetica,sans-Serif" font-size="11.00">created_on</text>
<polygon fill="none" stroke="black" points="448,-202 448,-224 574,-224 574,-202 448,-202"/>
<text text-anchor="start" x="451" y="-210.2" font-family="Helvetica,sans-Serif" font-size="11.00">timestamp[29,6]</text>
<polygon fill="#ffffff" stroke="none" points="260,-180 260,-202 448,-202 448,-180 260,-180"/>
<polygon fill="none" stroke="black" points="260,-180 260,-202 448,-202 448,-180 260,-180"/>
<text text-anchor="start" x="280" y="-188.2" font-family="Helvetica,sans-Serif" font-size="11.00">deleted_on</text>
<polygon fill="none" stroke="black" points="448,-180 448,-202 574,-202 574,-180 448,-180"/>
<text text-anchor="start" x="451" y="-188.2" font-family="Helvetica,sans-Serif" font-size="11.00">timestamp[29,6]</text>
<polygon fill="none" stroke="black" points="260,-158 260,-180 448,-180 448,-158 260,-158"/>
<text text-anchor="start" x="280" y="-166.2" font-family="Helvetica,sans-Serif" font-size="11.00">type</text>
<polygon fill="none" stroke="black" points="448,-158 448,-180 574,-180 574,-158 448,-158"/>
<text text-anchor="start" x="451" y="-166.2" font-family="Helvetica,sans-Serif" font-size="11.00">varchar[2147483647]</text>
<polygon fill="none" stroke="black" points="260,-136 260,-158 448,-158 448,-136 260,-136"/>
<text text-anchor="start" x="280" y="-144.2" font-family="Helvetica,sans-Serif" font-size="11.00">last_perf_capture_on</text>
<polygon fill="none" stroke="black" points="448,-136 448,-158 574,-158 574,-136 448,-136"/>
<text text-anchor="start" x="451" y="-144.2" font-family="Helvetica,sans-Serif" font-size="11.00">timestamp[29,6]</text>
<polygon fill="#ffffff" stroke="none" points="260,-118 260,-136 359,-136 359,-118 260,-118"/>
<polygon fill="none" stroke="black" points="260,-118 260,-136 359,-136 359,-118 260,-118"/>
<text text-anchor="start" x="263" y="-124.2" font-family="Helvetica,sans-Serif" font-size="11.00">&lt; 1</text>
<polygon fill="#ffffff" stroke="none" points="359,-118 359,-136 448,-136 448,-118 359,-118"/>
<polygon fill="none" stroke="black" points="359,-118 359,-136 448,-136 448,-118 359,-118"/>
<text text-anchor="start" x="438" y="-124.2" font-family="Helvetica,sans-Serif" font-size="11.00"> &#160;</text>
<polygon fill="#ffffff" stroke="none" points="448,-118 448,-136 574,-136 574,-118 448,-118"/>
<polygon fill="none" stroke="black" points="448,-118 448,-136 574,-136 574,-118 448,-118"/>
<text text-anchor="start" x="554" y="-124.2" font-family="Helvetica,sans-Serif" font-size="11.00">3 &gt;</text>
<polygon fill="none" stroke="black" stroke-width="2" points="259,-117 259,-643 575,-643 575,-117 259,-117"/>
</a>
</g>
</g>
<!-- containers&#45;&gt;container_images -->
<g id="edge6" class="edge"><title>containers:container_image_id:w&#45;&gt;container_images:id.type:e</title>
<path fill="none" stroke="black" d="M610.019,-143.505C534.835,-186.423 674.468,-609 575,-609"/>
<polygon fill="black" stroke="black" points="616.24,-141.946 624.876,-143.492 620.12,-140.973 624,-140 624,-140 624,-140 620.12,-140.973 623.124,-136.508 616.24,-141.946 616.24,-141.946"/>
<ellipse fill="none" stroke="black" cx="613.136" cy="-142.724" rx="3.2" ry="3.2"/>
</g>
<!-- container_groups -->
<g id="node7" class="node"><title>container_groups</title>
<g id="a_node7"><a xlink:href="../../tables/container_groups.html" xlink:title="container_groups" target="_top">
<polygon fill="#ffffff" stroke="none" points="343.5,-37 343.5,-95 490.5,-95 490.5,-37 343.5,-37"/>
<polygon fill="#f5f5f5" stroke="none" points="344,-73 344,-95 491,-95 491,-73 344,-73"/>
<polygon fill="none" stroke="black" points="344,-73 344,-95 491,-95 491,-73 344,-73"/>
<text text-anchor="start" x="349" y="-82.2" font-family="Helvetica,sans-Serif" font-weight="bold" font-size="11.00">container_groups</text>
<text text-anchor="start" x="452" y="-81.2" font-family="Helvetica,sans-Serif" font-size="11.00">[table]</text>
<polygon fill="none" stroke="black" points="344,-55 344,-73 491,-73 491,-55 344,-55"/>
<text text-anchor="start" x="347" y="-61.2" font-family="Helvetica,sans-Serif" font-size="11.00">...</text>
<polygon fill="#ffffff" stroke="none" points="344,-37 344,-55 411,-55 411,-37 344,-37"/>
<polygon fill="none" stroke="black" points="344,-37 344,-55 411,-55 411,-37 344,-37"/>
<text text-anchor="start" x="347" y="-43.2" font-family="Helvetica,sans-Serif" font-size="11.00">&lt; 4</text>
<polygon fill="#ffffff" stroke="none" points="411,-37 411,-55 446,-55 446,-37 411,-37"/>
<polygon fill="none" stroke="black" points="411,-37 411,-55 446,-55 446,-37 411,-37"/>
<text text-anchor="start" x="436" y="-43.2" font-family="Helvetica,sans-Serif" font-size="11.00"> &#160;</text>
<polygon fill="#ffffff" stroke="none" points="446,-37 446,-55 491,-55 491,-37 446,-37"/>
<polygon fill="none" stroke="black" points="446,-37 446,-55 491,-55 491,-37 446,-37"/>
<text text-anchor="start" x="471" y="-43.2" font-family="Helvetica,sans-Serif" font-size="11.00">3 &gt;</text>
</a>
</g>
</g>
<!-- containers&#45;&gt;container_groups -->
<g id="edge5" class="edge"><title>containers:container_group_id:w&#45;&gt;container_groups:elipses:e</title>
<path fill="none" stroke="black" d="M609.462,-95.3316C561.335,-90.7363 547.178,-64 492,-64"/>
<polygon fill="black" stroke="black" points="616.008,-95.6325 623.835,-99.5962 620.004,-95.8163 624,-96 624,-96 624,-96 620.004,-95.8163 624.165,-92.4038 616.008,-95.6325 616.008,-95.6325"/>
<ellipse fill="none" stroke="black" cx="612.812" cy="-95.4856" rx="3.2" ry="3.2"/>
</g>
<!-- container_image_registries -->
<g id="node4" class="node"><title>container_image_registries</title>
<g id="a_node4"><a xlink:href="../../tables/container_image_registries.html" xlink:title="container_image_registries" target="_top">
<polygon fill="#ffffff" stroke="none" points="8,-559 8,-639 209,-639 209,-559 8,-559"/>
<polygon fill="#f5f5f5" stroke="none" points="8.5,-617 8.5,-639 209.5,-639 209.5,-617 8.5,-617"/>
<polygon fill="none" stroke="black" points="8.5,-617 8.5,-639 209.5,-639 209.5,-617 8.5,-617"/>
<text text-anchor="start" x="13.5" y="-626.2" font-family="Helvetica,sans-Serif" font-weight="bold" font-size="11.00">container_image_registries</text>
<text text-anchor="start" x="170.5" y="-625.2" font-family="Helvetica,sans-Serif" font-size="11.00">[table]</text>
<polygon fill="none" stroke="black" points="8.5,-595 8.5,-617 209.5,-617 209.5,-595 8.5,-595"/>
<image xlink:href="../../images/primaryKeys.png" width="11px" height="12px" preserveAspectRatio="xMinYMin meet" x="13.5" y="-612"/>
<text text-anchor="start" x="38.5" y="-603.2" font-family="Helvetica,sans-Serif" font-size="11.00">id</text>
<polygon fill="none" stroke="black" points="8.5,-577 8.5,-595 209.5,-595 209.5,-577 8.5,-577"/>
<text text-anchor="start" x="11.5" y="-583.2" font-family="Helvetica,sans-Serif" font-size="11.00">...</text>
<polygon fill="#ffffff" stroke="none" points="8.5,-559 8.5,-577 97.5,-577 97.5,-559 8.5,-559"/>
<polygon fill="none" stroke="black" points="8.5,-559 8.5,-577 97.5,-577 97.5,-559 8.5,-559"/>
<text text-anchor="start" x="11.5" y="-565.2" font-family="Helvetica,sans-Serif" font-size="11.00"> &#160;</text>
<polygon fill="#ffffff" stroke="none" points="97.5,-559 97.5,-577 148.5,-577 148.5,-559 97.5,-559"/>
<polygon fill="none" stroke="black" points="97.5,-559 97.5,-577 148.5,-577 148.5,-559 97.5,-559"/>
<text text-anchor="start" x="138.5" y="-565.2" font-family="Helvetica,sans-Serif" font-size="11.00"> &#160;</text>
<polygon fill="#ffffff" stroke="none" points="148.5,-559 148.5,-577 209.5,-577 209.5,-559 148.5,-559"/>
<polygon fill="none" stroke="black" points="148.5,-559 148.5,-577 209.5,-577 209.5,-559 148.5,-559"/>
<text text-anchor="start" x="189.5" y="-565.2" font-family="Helvetica,sans-Serif" font-size="11.00">2 &gt;</text>
</a>
</g>
</g>
<!-- container_images&#45;&gt;container_image_registries -->
<g id="edge2" class="edge"><title>container_images:container_image_registry_id:w&#45;&gt;container_image_registries:id:e</title>
<path fill="none" stroke="black" d="M245.058,-525.57C224.709,-543.225 247.878,-606 210.5,-606"/>
<polygon fill="black" stroke="black" points="251.398,-523.492 260.121,-524.421 255.199,-522.246 259,-521 259,-521 259,-521 255.199,-522.246 257.879,-517.579 251.398,-523.492 251.398,-523.492"/>
<ellipse fill="none" stroke="black" cx="248.357" cy="-524.489" rx="3.20001" ry="3.20001"/>
</g>
<!-- container_port_configs -->
<g id="node5" class="node"><title>container_port_configs</title>
<g id="a_node5"><a xlink:href="../../tables/container_port_configs.html" xlink:title="container_port_configs" target="_top">
<polygon fill="#ffffff" stroke="none" points="834,-78 834,-136 1011,-136 1011,-78 834,-78"/>
<polygon fill="#f5f5f5" stroke="none" points="834.5,-114 834.5,-136 1011.5,-136 1011.5,-114 834.5,-114"/>
<polygon fill="none" stroke="black" points="834.5,-114 834.5,-136 1011.5,-136 1011.5,-114 834.5,-114"/>
<text text-anchor="start" x="839.5" y="-123.2" font-family="Helvetica,sans-Serif" font-weight="bold" font-size="11.00">container_port_configs</text>
<text text-anchor="start" x="972.5" y="-122.2" font-family="Helvetica,sans-Serif" font-size="11.00">[table]</text>
<polygon fill="none" stroke="black" points="834.5,-96 834.5,-114 1011.5,-114 1011.5,-96 834.5,-96"/>
<text text-anchor="start" x="837.5" y="-102.2" font-family="Helvetica,sans-Serif" font-size="11.00">...</text>
<polygon fill="#ffffff" stroke="none" points="834.5,-78 834.5,-96 921.5,-96 921.5,-78 834.5,-78"/>
<polygon fill="none" stroke="black" points="834.5,-78 834.5,-96 921.5,-96 921.5,-78 834.5,-78"/>
<text text-anchor="start" x="837.5" y="-84.2" font-family="Helvetica,sans-Serif" font-size="11.00">&lt; 1</text>
<polygon fill="#ffffff" stroke="none" points="921.5,-78 921.5,-96 966.5,-96 966.5,-78 921.5,-78"/>
<polygon fill="none" stroke="black" points="921.5,-78 921.5,-96 966.5,-96 966.5,-78 921.5,-78"/>
<text text-anchor="start" x="956.5" y="-84.2" font-family="Helvetica,sans-Serif" font-size="11.00"> &#160;</text>
<polygon fill="#ffffff" stroke="none" points="966.5,-78 966.5,-96 1011.5,-96 1011.5,-78 966.5,-78"/>
<polygon fill="none" stroke="black" points="966.5,-78 966.5,-96 1011.5,-96 1011.5,-78 966.5,-78"/>
<text text-anchor="start" x="1001.5" y="-84.2" font-family="Helvetica,sans-Serif" font-size="11.00"> &#160;</text>
</a>
</g>
</g>
<!-- container_port_configs&#45;&gt;containers -->
<g id="edge3" class="edge"><title>container_port_configs:elipses:w&#45;&gt;containers:id:e</title>
<path fill="none" stroke="black" d="M819.747,-109.705C801.093,-126.712 820.888,-184 786,-184"/>
<polygon fill="black" stroke="black" points="825.931,-107.59 834.665,-108.406 829.715,-106.295 833.5,-105 833.5,-105 833.5,-105 829.715,-106.295 832.335,-101.594 825.931,-107.59 825.931,-107.59"/>
<ellipse fill="none" stroke="black" cx="822.903" cy="-108.626" rx="3.20001" ry="3.20001"/>
</g>
<!-- container_services -->
<g id="node6" class="node"><title>container_services</title>
<g id="a_node6"><a xlink:href="../../tables/container_services.html" xlink:title="container_services" target="_top">
<polygon fill="#ffffff" stroke="none" points="340,-665 340,-723 494,-723 494,-665 340,-665"/>
<polygon fill="#f5f5f5" stroke="none" points="340,-701 340,-723 494,-723 494,-701 340,-701"/>
<polygon fill="none" stroke="black" points="340,-701 340,-723 494,-723 494,-701 340,-701"/>
<text text-anchor="start" x="345" y="-710.2" font-family="Helvetica,sans-Serif" font-weight="bold" font-size="11.00">container_services</text>
<text text-anchor="start" x="455" y="-709.2" font-family="Helvetica,sans-Serif" font-size="11.00">[table]</text>
<polygon fill="none" stroke="black" points="340,-683 340,-701 494,-701 494,-683 340,-683"/>
<text text-anchor="start" x="343" y="-689.2" font-family="Helvetica,sans-Serif" font-size="11.00">...</text>
<polygon fill="#ffffff" stroke="none" points="340,-665 340,-683 410,-683 410,-665 340,-665"/>
<polygon fill="none" stroke="black" points="340,-665 340,-683 410,-683 410,-665 340,-665"/>
<text text-anchor="start" x="343" y="-671.2" font-family="Helvetica,sans-Serif" font-size="11.00">&lt; 2</text>
<polygon fill="#ffffff" stroke="none" points="410,-665 410,-683 447,-683 447,-665 410,-665"/>
<polygon fill="none" stroke="black" points="410,-665 410,-683 447,-683 447,-665 410,-665"/>
<text text-anchor="start" x="437" y="-671.2" font-family="Helvetica,sans-Serif" font-size="11.00"> &#160;</text>
<polygon fill="#ffffff" stroke="none" points="447,-665 447,-683 494,-683 494,-665 447,-665"/>
<polygon fill="none" stroke="black" points="447,-665 447,-683 494,-683 494,-665 447,-665"/>
<text text-anchor="start" x="474" y="-671.2" font-family="Helvetica,sans-Serif" font-size="11.00">3 &gt;</text>
</a>
</g>
</g>
<!-- container_services&#45;&gt;container_image_registries -->
<g id="edge4" class="edge"><title>container_services:elipses:w&#45;&gt;container_image_registries:id:e</title>
<path fill="none" stroke="black" d="M324.283,-691.464C292.842,-688.948 279.994,-677.48 250,-655 227.616,-638.224 238.473,-606 210.5,-606"/>
<polygon fill="black" stroke="black" points="331.005,-691.709 338.869,-695.598 335.003,-691.854 339,-692 339,-692 339,-692 335.003,-691.854 339.131,-688.402 331.005,-691.709 331.005,-691.709"/>
<ellipse fill="none" stroke="black" cx="327.807" cy="-691.592" rx="3.2" ry="3.2"/>
</g>
<!-- event_streams -->
<g id="node8" class="node"><title>event_streams</title>
<g id="a_node8"><a xlink:href="../../tables/event_streams.html" xlink:title="event_streams" target="_top">
<polygon fill="#ffffff" stroke="none" points="856.5,-236 856.5,-294 988.5,-294 988.5,-236 856.5,-236"/>
<polygon fill="#f5f5f5" stroke="none" points="856.5,-272 856.5,-294 988.5,-294 988.5,-272 856.5,-272"/>
<polygon fill="none" stroke="black" points="856.5,-272 856.5,-294 988.5,-294 988.5,-272 856.5,-272"/>
<text text-anchor="start" x="861.5" y="-281.2" font-family="Helvetica,sans-Serif" font-weight="bold" font-size="11.00">event_streams</text>
<text text-anchor="start" x="949.5" y="-280.2" font-family="Helvetica,sans-Serif" font-size="11.00">[table]</text>
<polygon fill="none" stroke="black" points="856.5,-254 856.5,-272 988.5,-272 988.5,-254 856.5,-254"/>
<text text-anchor="start" x="859.5" y="-260.2" font-family="Helvetica,sans-Serif" font-size="11.00">...</text>
<polygon fill="#ffffff" stroke="none" points="856.5,-236 856.5,-254 924.5,-254 924.5,-236 856.5,-236"/>
<polygon fill="none" stroke="black" points="856.5,-236 856.5,-254 924.5,-254 924.5,-236 856.5,-236"/>
<text text-anchor="start" x="859.5" y="-242.2" font-family="Helvetica,sans-Serif" font-size="11.00">&lt; 11</text>
<polygon fill="#ffffff" stroke="none" points="924.5,-236 924.5,-254 956.5,-254 956.5,-236 924.5,-236"/>
<polygon fill="none" stroke="black" points="924.5,-236 924.5,-254 956.5,-254 956.5,-236 924.5,-236"/>
<text text-anchor="start" x="946.5" y="-242.2" font-family="Helvetica,sans-Serif" font-size="11.00"> &#160;</text>
<polygon fill="#ffffff" stroke="none" points="956.5,-236 956.5,-254 988.5,-254 988.5,-236 956.5,-236"/>
<polygon fill="none" stroke="black" points="956.5,-236 956.5,-254 988.5,-254 988.5,-236 956.5,-236"/>
<text text-anchor="start" x="978.5" y="-242.2" font-family="Helvetica,sans-Serif" font-size="11.00"> &#160;</text>
</a>
</g>
</g>
<!-- event_streams&#45;&gt;containers -->
<g id="edge8" class="edge"><title>event_streams:elipses:w&#45;&gt;containers:id:e</title>
<path fill="none" stroke="black" d="M841.374,-259.805C813.517,-245.026 827.102,-184 786,-184"/>
<polygon fill="black" stroke="black" points="847.697,-261.235 854.706,-266.511 851.599,-262.118 855.5,-263 855.5,-263 855.5,-263 851.599,-262.118 856.294,-259.489 847.697,-261.235 847.697,-261.235"/>
<ellipse fill="none" stroke="black" cx="844.576" cy="-260.529" rx="3.2" ry="3.2"/>
</g>
<!-- event_streams&#45;&gt;container_groups -->
<g id="edge7" class="edge"><title>event_streams:elipses:w&#45;&gt;container_groups:elipses:e</title>
<path fill="none" stroke="black" d="M841.084,-263.21C743.531,-266.02 693.338,-295.072 617,-227 575.076,-189.616 620.523,-147.676 584,-105 554.893,-70.9894 536.766,-64 492,-64"/>
<polygon fill="black" stroke="black" points="847.501,-263.116 855.552,-266.6 851.5,-263.058 855.5,-263 855.5,-263 855.5,-263 851.5,-263.058 855.448,-259.4 847.501,-263.116 847.501,-263.116"/>
<ellipse fill="none" stroke="black" cx="844.301" cy="-263.163" rx="3.2" ry="3.2"/>
</g>
<!-- hosts -->
<g id="node9" class="node"><title>hosts</title>
<g id="a_node9"><a xlink:href="../../tables/hosts.html" xlink:title="hosts" target="_top">
<polygon fill="#ffffff" stroke="none" points="665.5,-341 665.5,-399 744.5,-399 744.5,-341 665.5,-341"/>
<polygon fill="#f5f5f5" stroke="none" points="666,-377 666,-399 745,-399 745,-377 666,-377"/>
<polygon fill="none" stroke="black" points="666,-377 666,-399 745,-399 745,-377 666,-377"/>
<text text-anchor="start" x="671" y="-386.2" font-family="Helvetica,sans-Serif" font-weight="bold" font-size="11.00">hosts</text>
<text text-anchor="start" x="706" y="-385.2" font-family="Helvetica,sans-Serif" font-size="11.00">[table]</text>
<polygon fill="none" stroke="black" points="666,-359 666,-377 745,-377 745,-359 666,-359"/>
<text text-anchor="start" x="669" y="-365.2" font-family="Helvetica,sans-Serif" font-size="11.00">...</text>
<polygon fill="#ffffff" stroke="none" points="666,-341 666,-359 695,-359 695,-341 666,-341"/>
<polygon fill="none" stroke="black" points="666,-341 666,-359 695,-359 695,-341 666,-341"/>
<text text-anchor="start" x="669" y="-347.2" font-family="Helvetica,sans-Serif" font-size="11.00">&lt; 3</text>
<polygon fill="#ffffff" stroke="none" points="695,-341 695,-359 711,-359 711,-341 695,-341"/>
<polygon fill="none" stroke="black" points="695,-341 695,-359 711,-359 711,-341 695,-341"/>
<text text-anchor="start" x="701" y="-347.2" font-family="Helvetica,sans-Serif" font-size="11.00"> &#160;</text>
<polygon fill="#ffffff" stroke="none" points="711,-341 711,-359 745,-359 745,-341 711,-341"/>
<polygon fill="none" stroke="black" points="711,-341 711,-359 745,-359 745,-341 711,-341"/>
<text text-anchor="start" x="718" y="-347.2" font-family="Helvetica,sans-Serif" font-size="11.00">15 &gt;</text>
</a>
</g>
</g>
<!-- event_streams&#45;&gt;hosts -->
<g id="edge9" class="edge"><title>event_streams:elipses:w&#45;&gt;hosts:elipses:e</title>
<path fill="none" stroke="black" d="M840.992,-264.912C791.54,-279.143 808.026,-368 746,-368"/>
<polygon fill="black" stroke="black" points="847.569,-264.045 855.97,-266.569 851.534,-263.523 855.5,-263 855.5,-263 855.5,-263 851.534,-263.523 855.03,-259.431 847.569,-264.045 847.569,-264.045"/>
<ellipse fill="none" stroke="black" cx="844.396" cy="-264.463" rx="3.2" ry="3.2"/>
</g>
<!-- guest_applications -->
<g id="node10" class="node"><title>guest_applications</title>
<g id="a_node10"><a xlink:href="../../tables/guest_applications.html" xlink:title="guest_applications" target="_top">
<polygon fill="#ffffff" stroke="none" points="845.5,-349 845.5,-517 999.5,-517 999.5,-349 845.5,-349"/>
<polygon fill="#f5f5f5" stroke="none" points="845.5,-495 845.5,-517 999.5,-517 999.5,-495 845.5,-495"/>
<polygon fill="none" stroke="black" points="845.5,-495 845.5,-517 999.5,-517 999.5,-495 845.5,-495"/>
<text text-anchor="start" x="850.5" y="-504.2" font-family="Helvetica,sans-Serif" font-weight="bold" font-size="11.00">guest_applications</text>
<text text-anchor="start" x="960.5" y="-503.2" font-family="Helvetica,sans-Serif" font-size="11.00">[table]</text>
<polygon fill="none" stroke="black" points="845.5,-473 845.5,-495 999.5,-495 999.5,-473 845.5,-473"/>
<image xlink:href="../../images/primaryKeys.png" width="11px" height="12px" preserveAspectRatio="xMinYMin meet" x="850.5" y="-490"/>
<text text-anchor="start" x="874.5" y="-481.2" font-family="Helvetica,sans-Serif" font-size="11.00">id</text>
<polygon fill="#ffffff" stroke="none" points="845.5,-451 845.5,-473 999.5,-473 999.5,-451 845.5,-451"/>
<polygon fill="none" stroke="black" points="845.5,-451 845.5,-473 999.5,-473 999.5,-451 845.5,-451"/>
<text text-anchor="start" x="874.5" y="-459.2" font-family="Helvetica,sans-Serif" font-size="11.00">typename</text>
<polygon fill="#ffffff" stroke="none" points="845.5,-429 845.5,-451 999.5,-451 999.5,-429 845.5,-429"/>
<polygon fill="none" stroke="black" points="845.5,-429 845.5,-451 999.5,-451 999.5,-429 845.5,-429"/>
<text text-anchor="start" x="874.5" y="-437.2" font-family="Helvetica,sans-Serif" font-size="11.00">vm_or_template_id</text>
<polygon fill="#ffffff" stroke="none" points="845.5,-407 845.5,-429 999.5,-429 999.5,-407 845.5,-407"/>
<polygon fill="none" stroke="black" points="845.5,-407 845.5,-429 999.5,-429 999.5,-407 845.5,-407"/>
<image xlink:href="../../images/foreignKeys.png" width="11px" height="12px" preserveAspectRatio="xMinYMin meet" x="850.5" y="-424"/>
<text text-anchor="start" x="874.5" y="-415.2" font-family="Helvetica,sans-Serif" font-size="11.00">host_id</text>
<polygon fill="none" stroke="black" points="845.5,-385 845.5,-407 999.5,-407 999.5,-385 845.5,-385"/>
<image xlink:href="../../images/foreignKeys.png" width="11px" height="12px" preserveAspectRatio="xMinYMin meet" x="850.5" y="-402"/>
<text text-anchor="start" x="874.5" y="-393.2" font-family="Helvetica,sans-Serif" font-size="11.00">container_image_id</text>
<polygon fill="none" stroke="black" points="845.5,-367 845.5,-385 999.5,-385 999.5,-367 845.5,-367"/>
<text text-anchor="start" x="848.5" y="-373.2" font-family="Helvetica,sans-Serif" font-size="11.00">...</text>
<polygon fill="#ffffff" stroke="none" points="845.5,-349 845.5,-367 920.5,-367 920.5,-349 845.5,-349"/>
<polygon fill="none" stroke="black" points="845.5,-349 845.5,-367 920.5,-367 920.5,-349 845.5,-349"/>
<text text-anchor="start" x="848.5" y="-355.2" font-family="Helvetica,sans-Serif" font-size="11.00">&lt; 2</text>
<polygon fill="#ffffff" stroke="none" points="920.5,-349 920.5,-367 959.5,-367 959.5,-349 920.5,-349"/>
<polygon fill="none" stroke="black" points="920.5,-349 920.5,-367 959.5,-367 959.5,-349 920.5,-349"/>
<text text-anchor="start" x="949.5" y="-355.2" font-family="Helvetica,sans-Serif" font-size="11.00"> &#160;</text>
<polygon fill="#ffffff" stroke="none" points="959.5,-349 959.5,-367 999.5,-367 999.5,-349 959.5,-349"/>
<polygon fill="none" stroke="black" points="959.5,-349 959.5,-367 999.5,-367 999.5,-349 959.5,-349"/>
<text text-anchor="start" x="989.5" y="-355.2" font-family="Helvetica,sans-Serif" font-size="11.00"> &#160;</text>
</a>
</g>
</g>
<!-- guest_applications&#45;&gt;container_images -->
<g id="edge10" class="edge"><title>guest_applications:container_image_id:w&#45;&gt;container_images:id.type:e</title>
<path fill="none" stroke="black" d="M829.924,-397.782C765.582,-412.295 657.616,-511.532 617,-551 594.175,-573.18 606.827,-609 575,-609"/>
<polygon fill="black" stroke="black" points="836.559,-396.971 844.937,-399.573 840.53,-396.486 844.5,-396 844.5,-396 844.5,-396 840.53,-396.486 844.063,-392.427 836.559,-396.971 836.559,-396.971"/>
<ellipse fill="none" stroke="black" cx="833.383" cy="-397.36" rx="3.2" ry="3.2"/>
</g>
<!-- guest_applications&#45;&gt;hosts -->
<g id="edge11" class="edge"><title>guest_applications:host_id:w&#45;&gt;hosts:elipses:e</title>
<path fill="none" stroke="black" d="M830.014,-416.336C794.754,-407.661 789.725,-368 746,-368"/>
<polygon fill="black" stroke="black" points="836.552,-417.087 844.089,-421.576 840.526,-417.544 844.5,-418 844.5,-418 844.5,-418 840.526,-417.544 844.911,-414.424 836.552,-417.087 836.552,-417.087"/>
<ellipse fill="none" stroke="black" cx="833.373" cy="-416.722" rx="3.2" ry="3.2"/>
</g>
<!-- openscap_results -->
<g id="node11" class="node"><title>openscap_results</title>
<g id="a_node11"><a xlink:href="../../tables/openscap_results.html" xlink:title="openscap_results" target="_top">
<polygon fill="#ffffff" stroke="none" points="632,-562 632,-664 778,-664 778,-562 632,-562"/>
<polygon fill="#f5f5f5" stroke="none" points="632,-642 632,-664 778,-664 778,-642 632,-642"/>
<polygon fill="none" stroke="black" points="632,-642 632,-664 778,-664 778,-642 632,-642"/>
<text text-anchor="start" x="637" y="-651.2" font-family="Helvetica,sans-Serif" font-weight="bold" font-size="11.00">openscap_results</text>
<text text-anchor="start" x="739" y="-650.2" font-family="Helvetica,sans-Serif" font-size="11.00">[table]</text>
<polygon fill="none" stroke="black" points="632,-620 632,-642 778,-642 778,-620 632,-620"/>
<image xlink:href="../../images/primaryKeys.png" width="11px" height="12px" preserveAspectRatio="xMinYMin meet" x="637" y="-637"/>
<text text-anchor="start" x="657" y="-628.2" font-family="Helvetica,sans-Serif" font-size="11.00">id</text>
<polygon fill="#ffffff" stroke="none" points="632,-598 632,-620 778,-620 778,-598 632,-598"/>
<polygon fill="none" stroke="black" points="632,-598 632,-620 778,-620 778,-598 632,-598"/>
<image xlink:href="../../images/foreignKeys.png" width="11px" height="12px" preserveAspectRatio="xMinYMin meet" x="637" y="-615"/>
<text text-anchor="start" x="657" y="-606.2" font-family="Helvetica,sans-Serif" font-size="11.00">container_image_id</text>
<polygon fill="none" stroke="black" points="632,-580 632,-598 778,-598 778,-580 632,-580"/>
<text text-anchor="start" x="635" y="-586.2" font-family="Helvetica,sans-Serif" font-size="11.00">...</text>
<polygon fill="#ffffff" stroke="none" points="632,-562 632,-580 698,-580 698,-562 632,-562"/>
<polygon fill="none" stroke="black" points="632,-562 632,-580 698,-580 698,-562 632,-562"/>
<text text-anchor="start" x="635" y="-568.2" font-family="Helvetica,sans-Serif" font-size="11.00">&lt; 1</text>
<polygon fill="#ffffff" stroke="none" points="698,-562 698,-580 733,-580 733,-562 698,-562"/>
<polygon fill="none" stroke="black" points="698,-562 698,-580 733,-580 733,-562 698,-562"/>
<text text-anchor="start" x="723" y="-568.2" font-family="Helvetica,sans-Serif" font-size="11.00"> &#160;</text>
<polygon fill="#ffffff" stroke="none" points="733,-562 733,-580 778,-580 778,-562 733,-562"/>
<polygon fill="none" stroke="black" points="733,-562 733,-580 778,-580 778,-562 733,-562"/>
<text text-anchor="start" x="758" y="-568.2" font-family="Helvetica,sans-Serif" font-size="11.00">1 &gt;</text>
</a>
</g>
</g>
<!-- openscap_results&#45;&gt;container_images -->
<g id="edge12" class="edge"><title>openscap_results:container_image_id:w&#45;&gt;container_images:id.type:e</title>
<path fill="none" stroke="black" d="M616.524,-609C602.333,-609 594.25,-609 575,-609"/>
<polygon fill="black" stroke="black" points="623,-609 631,-612.6 627,-609 631,-609 631,-609 631,-609 627,-609 631,-605.4 623,-609 623,-609"/>
<ellipse fill="none" stroke="black" cx="619.8" cy="-609" rx="3.2" ry="3.2"/>
</g>
<!-- openscap_rule_results -->
<g id="node12" class="node"><title>openscap_rule_results</title>
<g id="a_node12"><a xlink:href="../../tables/openscap_rule_results.html" xlink:title="openscap_rule_results" target="_top">
<polygon fill="#ffffff" stroke="none" points="835.5,-604 835.5,-662 1009.5,-662 1009.5,-604 835.5,-604"/>
<polygon fill="#f5f5f5" stroke="none" points="835.5,-640 835.5,-662 1009.5,-662 1009.5,-640 835.5,-640"/>
<polygon fill="none" stroke="black" points="835.5,-640 835.5,-662 1009.5,-662 1009.5,-640 835.5,-640"/>
<text text-anchor="start" x="840.5" y="-649.2" font-family="Helvetica,sans-Serif" font-weight="bold" font-size="11.00">openscap_rule_results</text>
<text text-anchor="start" x="970.5" y="-648.2" font-family="Helvetica,sans-Serif" font-size="11.00">[table]</text>
<polygon fill="none" stroke="black" points="835.5,-622 835.5,-640 1009.5,-640 1009.5,-622 835.5,-622"/>
<text text-anchor="start" x="838.5" y="-628.2" font-family="Helvetica,sans-Serif" font-size="11.00">...</text>
<polygon fill="#ffffff" stroke="none" points="835.5,-604 835.5,-622 920.5,-622 920.5,-604 835.5,-604"/>
<polygon fill="none" stroke="black" points="835.5,-604 835.5,-622 920.5,-622 920.5,-604 835.5,-604"/>
<text text-anchor="start" x="838.5" y="-610.2" font-family="Helvetica,sans-Serif" font-size="11.00">&lt; 1</text>
<polygon fill="#ffffff" stroke="none" points="920.5,-604 920.5,-622 964.5,-622 964.5,-604 920.5,-604"/>
<polygon fill="none" stroke="black" points="920.5,-604 920.5,-622 964.5,-622 964.5,-604 920.5,-604"/>
<text text-anchor="start" x="954.5" y="-610.2" font-family="Helvetica,sans-Serif" font-size="11.00"> &#160;</text>
<polygon fill="#ffffff" stroke="none" points="964.5,-604 964.5,-622 1009.5,-622 1009.5,-604 964.5,-604"/>
<polygon fill="none" stroke="black" points="964.5,-604 964.5,-622 1009.5,-622 1009.5,-604 964.5,-604"/>
<text text-anchor="start" x="999.5" y="-610.2" font-family="Helvetica,sans-Serif" font-size="11.00"> &#160;</text>
</a>
</g>
</g>
<!-- openscap_rule_results&#45;&gt;openscap_results -->
<g id="edge13" class="edge"><title>openscap_rule_results:elipses:w&#45;&gt;openscap_results:id:e</title>
<path fill="none" stroke="black" d="M819.729,-631C805.926,-631 797.885,-631 779,-631"/>
<polygon fill="black" stroke="black" points="826.5,-631 834.5,-634.6 830.5,-631 834.5,-631 834.5,-631 834.5,-631 830.5,-631 834.5,-627.4 826.5,-631 826.5,-631"/>
<ellipse fill="none" stroke="black" cx="823.3" cy="-631" rx="3.2" ry="3.2"/>
</g>
</g>
</svg>
