<?xml version="1.0" encoding="UTF-8" standalone="no"?>
<!DOCTYPE svg PUBLIC "-//W3C//DTD SVG 1.1//EN"
 "http://www.w3.org/Graphics/SVG/1.1/DTD/svg11.dtd">
<!-- Generated by graphviz version 2.38.0 (20140413.2041)
 -->
<!-- Title: twoDegreesRelationshipsDiagram Pages: 1 -->
<svg width="1279pt" height="563pt"
 viewBox="0.00 0.00 1279.00 562.87" xmlns="http://www.w3.org/2000/svg" xmlns:xlink="http://www.w3.org/1999/xlink">
<g id="graph0" class="graph" transform="scale(1 1) rotate(0) translate(4 558.867)">
<title>twoDegreesRelationshipsDiagram</title>
<polygon fill="#ffffff" stroke="none" points="-4,4 -4,-558.867 1275,-558.867 1275,4 -4,4"/>
<text text-anchor="middle" x="74.5" y="-7.2" font-family="Helvetica,sans-Serif" font-size="11.00">Generated by SchemaSpy</text>
<!-- container_groups -->
<g id="node1" class="node"><title>container_groups</title>
<g id="a_node1"><a xlink:href="../../tables/container_groups.html" xlink:title="container_groups" target="_top">
<polygon fill="#ffffff" stroke="none" points="523,-246 523,-480 689,-480 689,-246 523,-246"/>
<polygon fill="#f5f5f5" stroke="none" points="523,-458 523,-480 689,-480 689,-458 523,-458"/>
<polygon fill="none" stroke="black" points="523,-458 523,-480 689,-480 689,-458 523,-458"/>
<text text-anchor="start" x="528" y="-467.2" font-family="Helvetica,sans-Serif" font-weight="bold" font-size="11.00">container_groups</text>
<text text-anchor="start" x="650" y="-466.2" font-family="Helvetica,sans-Serif" font-size="11.00">[table]</text>
<polygon fill="none" stroke="black" points="523,-436 523,-458 689,-458 689,-436 523,-436"/>
<image xlink:href="../../images/primaryKeys.png" width="11px" height="12px" preserveAspectRatio="xMinYMin meet" x="528" y="-453"/>
<text text-anchor="start" x="543" y="-444.2" font-family="Helvetica,sans-Serif" font-size="11.00">id</text>
<polygon fill="#ffffff" stroke="none" points="523,-414 523,-436 689,-436 689,-414 523,-414"/>
<polygon fill="none" stroke="black" points="523,-414 523,-436 689,-436 689,-414 523,-414"/>
<text text-anchor="start" x="543" y="-422.2" font-family="Helvetica,sans-Serif" font-size="11.00">ems_id</text>
<polygon fill="none" stroke="black" points="523,-392 523,-414 689,-414 689,-392 523,-392"/>
<image xlink:href="../../images/foreignKeys.png" width="11px" height="12px" preserveAspectRatio="xMinYMin meet" x="528" y="-409"/>
<text text-anchor="start" x="543" y="-400.2" font-family="Helvetica,sans-Serif" font-size="11.00">container_node_id</text>
<polygon fill="none" stroke="black" points="523,-370 523,-392 689,-392 689,-370 523,-370"/>
<image xlink:href="../../images/foreignKeys.png" width="11px" height="12px" preserveAspectRatio="xMinYMin meet" x="528" y="-387"/>
<text text-anchor="start" x="543" y="-378.2" font-family="Helvetica,sans-Serif" font-size="11.00">container_replicator_id</text>
<polygon fill="#ffffff" stroke="none" points="523,-348 523,-370 689,-370 689,-348 523,-348"/>
<polygon fill="none" stroke="black" points="523,-348 523,-370 689,-370 689,-348 523,-348"/>
<text text-anchor="start" x="543" y="-356.2" font-family="Helvetica,sans-Serif" font-size="11.00">type</text>
<polygon fill="none" stroke="black" points="523,-326 523,-348 689,-348 689,-326 523,-326"/>
<image xlink:href="../../images/foreignKeys.png" width="11px" height="12px" preserveAspectRatio="xMinYMin meet" x="528" y="-343"/>
<text text-anchor="start" x="543" y="-334.2" font-family="Helvetica,sans-Serif" font-size="11.00">container_project_id</text>
<polygon fill="none" stroke="black" points="523,-304 523,-326 689,-326 689,-304 523,-304"/>
<image xlink:href="../../images/foreignKeys.png" width="11px" height="12px" preserveAspectRatio="xMinYMin meet" x="528" y="-321"/>
<text text-anchor="start" x="543" y="-312.2" font-family="Helvetica,sans-Serif" font-size="11.00">container_build_pod_id</text>
<polygon fill="#ffffff" stroke="none" points="523,-282 523,-304 689,-304 689,-282 523,-282"/>
<polygon fill="none" stroke="black" points="523,-282 523,-304 689,-304 689,-282 523,-282"/>
<text text-anchor="start" x="543" y="-290.2" font-family="Helvetica,sans-Serif" font-size="11.00">deleted_on</text>
<polygon fill="none" stroke="black" points="523,-264 523,-282 689,-282 689,-264 523,-264"/>
<text text-anchor="start" x="526" y="-270.2" font-family="Helvetica,sans-Serif" font-size="11.00">...</text>
<polygon fill="#ffffff" stroke="none" points="523,-246 523,-264 599,-264 599,-246 523,-246"/>
<polygon fill="none" stroke="black" points="523,-246 523,-264 599,-264 599,-246 523,-246"/>
<text text-anchor="start" x="526" y="-252.2" font-family="Helvetica,sans-Serif" font-size="11.00">&lt; 4</text>
<polygon fill="#ffffff" stroke="none" points="599,-246 599,-264 639,-264 639,-246 599,-246"/>
<polygon fill="none" stroke="black" points="599,-246 599,-264 639,-264 639,-246 599,-246"/>
<text text-anchor="start" x="629" y="-252.2" font-family="Helvetica,sans-Serif" font-size="11.00"> &#160;</text>
<polygon fill="#ffffff" stroke="none" points="639,-246 639,-264 689,-264 689,-246 639,-246"/>
<polygon fill="none" stroke="black" points="639,-246 639,-264 689,-264 689,-246 639,-246"/>
<text text-anchor="start" x="669" y="-252.2" font-family="Helvetica,sans-Serif" font-size="11.00">3 &gt;</text>
</a>
</g>
</g>
<!-- container_build_pods -->
<g id="node2" class="node"><title>container_build_pods</title>
<g id="a_node2"><a xlink:href="../../tables/container_build_pods.html" xlink:title="container_build_pods" target="_top">
<polygon fill="#ffffff" stroke="none" points="267,-251 267,-309 437,-309 437,-251 267,-251"/>
<polygon fill="#f5f5f5" stroke="none" points="267,-287 267,-309 437,-309 437,-287 267,-287"/>
<polygon fill="none" stroke="black" points="267,-287 267,-309 437,-309 437,-287 267,-287"/>
<text text-anchor="start" x="272" y="-296.2" font-family="Helvetica,sans-Serif" font-weight="bold" font-size="11.00">container_build_pods</text>
<text text-anchor="start" x="398" y="-295.2" font-family="Helvetica,sans-Serif" font-size="11.00">[table]</text>
<polygon fill="none" stroke="black" points="267,-269 267,-287 437,-287 437,-269 267,-269"/>
<text text-anchor="start" x="270" y="-275.2" font-family="Helvetica,sans-Serif" font-size="11.00">...</text>
<polygon fill="#ffffff" stroke="none" points="267,-251 267,-269 345,-269 345,-251 267,-251"/>
<polygon fill="none" stroke="black" points="267,-251 267,-269 345,-269 345,-251 267,-251"/>
<text text-anchor="start" x="270" y="-257.2" font-family="Helvetica,sans-Serif" font-size="11.00">&lt; 1</text>
<polygon fill="#ffffff" stroke="none" points="345,-251 345,-269 386,-269 386,-251 345,-251"/>
<polygon fill="none" stroke="black" points="345,-251 345,-269 386,-269 386,-251 345,-251"/>
<text text-anchor="start" x="376" y="-257.2" font-family="Helvetica,sans-Serif" font-size="11.00"> &#160;</text>
<polygon fill="#ffffff" stroke="none" points="386,-251 386,-269 437,-269 437,-251 386,-251"/>
<polygon fill="none" stroke="black" points="386,-251 386,-269 437,-269 437,-251 386,-251"/>
<text text-anchor="start" x="417" y="-257.2" font-family="Helvetica,sans-Serif" font-size="11.00">1 &gt;</text>
</a>
</g>
</g>
<!-- container_groups&#45;&gt;container_build_pods -->
<g id="edge1" class="edge"><title>container_groups:container_build_pod_id:w&#45;&gt;container_build_pods:elipses:e</title>
<path fill="none" stroke="black" d="M507.597,-313.215C479.888,-305.825 473.377,-278 438,-278"/>
<polygon fill="black" stroke="black" points="514.061,-314.016 521.557,-318.573 518.03,-314.508 522,-315 522,-315 522,-315 518.03,-314.508 522.443,-311.427 514.061,-314.016 514.061,-314.016"/>
<ellipse fill="none" stroke="black" cx="510.885" cy="-313.623" rx="3.2" ry="3.2"/>
</g>
<!-- container_nodes -->
<g id="node3" class="node"><title>container_nodes</title>
<g id="a_node3"><a xlink:href="../../tables/container_nodes.html" xlink:title="container_nodes" target="_top">
<polygon fill="#ffffff" stroke="none" points="281,-471 281,-529 423,-529 423,-471 281,-471"/>
<polygon fill="#f5f5f5" stroke="none" points="281,-507 281,-529 423,-529 423,-507 281,-507"/>
<polygon fill="none" stroke="black" points="281,-507 281,-529 423,-529 423,-507 281,-507"/>
<text text-anchor="start" x="286" y="-516.2" font-family="Helvetica,sans-Serif" font-weight="bold" font-size="11.00">container_nodes</text>
<text text-anchor="start" x="384" y="-515.2" font-family="Helvetica,sans-Serif" font-size="11.00">[table]</text>
<polygon fill="none" stroke="black" points="281,-489 281,-507 423,-507 423,-489 281,-489"/>
<text text-anchor="start" x="284" y="-495.2" font-family="Helvetica,sans-Serif" font-size="11.00">...</text>
<polygon fill="#ffffff" stroke="none" points="281,-471 281,-489 340,-489 340,-471 281,-471"/>
<polygon fill="none" stroke="black" points="281,-471 281,-489 340,-489 340,-471 281,-471"/>
<text text-anchor="start" x="284" y="-477.2" font-family="Helvetica,sans-Serif" font-size="11.00"> &#160;</text>
<polygon fill="#ffffff" stroke="none" points="340,-471 340,-489 376,-489 376,-471 340,-471"/>
<polygon fill="none" stroke="black" points="340,-471 340,-489 376,-489 376,-471 340,-471"/>
<text text-anchor="start" x="366" y="-477.2" font-family="Helvetica,sans-Serif" font-size="11.00"> &#160;</text>
<polygon fill="#ffffff" stroke="none" points="376,-471 376,-489 423,-489 423,-471 376,-471"/>
<polygon fill="none" stroke="black" points="376,-471 376,-489 423,-489 423,-471 376,-471"/>
<text text-anchor="start" x="403" y="-477.2" font-family="Helvetica,sans-Serif" font-size="11.00">2 &gt;</text>
</a>
</g>
</g>
<!-- container_groups&#45;&gt;container_nodes -->
<g id="edge2" class="edge"><title>container_groups:container_node_id:w&#45;&gt;container_nodes:elipses:e</title>
<path fill="none" stroke="black" d="M507.562,-405.163C464.852,-419.303 479.211,-498 424,-498"/>
<polygon fill="black" stroke="black" points="514.088,-404.185 522.533,-406.56 518.044,-403.593 522,-403 522,-403 522,-403 518.044,-403.593 521.467,-399.44 514.088,-404.185 514.088,-404.185"/>
<ellipse fill="none" stroke="black" cx="510.924" cy="-404.659" rx="3.2" ry="3.2"/>
</g>
<!-- container_projects -->
<g id="node4" class="node"><title>container_projects</title>
<g id="a_node4"><a xlink:href="../../tables/container_projects.html" xlink:title="container_projects" target="_top">
<polygon fill="#ffffff" stroke="none" points="31,-249 31,-307 186,-307 186,-249 31,-249"/>
<polygon fill="#f5f5f5" stroke="none" points="31.5,-285 31.5,-307 186.5,-307 186.5,-285 31.5,-285"/>
<polygon fill="none" stroke="black" points="31.5,-285 31.5,-307 186.5,-307 186.5,-285 31.5,-285"/>
<text text-anchor="start" x="36.5" y="-294.2" font-family="Helvetica,sans-Serif" font-weight="bold" font-size="11.00">container_projects</text>
<text text-anchor="start" x="147.5" y="-293.2" font-family="Helvetica,sans-Serif" font-size="11.00">[table]</text>
<polygon fill="none" stroke="black" points="31.5,-267 31.5,-285 186.5,-285 186.5,-267 31.5,-267"/>
<text text-anchor="start" x="34.5" y="-273.2" font-family="Helvetica,sans-Serif" font-size="11.00">...</text>
<polygon fill="#ffffff" stroke="none" points="31.5,-249 31.5,-267 97.5,-267 97.5,-249 31.5,-249"/>
<polygon fill="none" stroke="black" points="31.5,-249 31.5,-267 97.5,-267 97.5,-249 31.5,-249"/>
<text text-anchor="start" x="34.5" y="-255.2" font-family="Helvetica,sans-Serif" font-size="11.00"> &#160;</text>
<polygon fill="#ffffff" stroke="none" points="97.5,-249 97.5,-267 136.5,-267 136.5,-249 97.5,-249"/>
<polygon fill="none" stroke="black" points="97.5,-249 97.5,-267 136.5,-267 136.5,-249 97.5,-249"/>
<text text-anchor="start" x="126.5" y="-255.2" font-family="Helvetica,sans-Serif" font-size="11.00"> &#160;</text>
<polygon fill="#ffffff" stroke="none" points="136.5,-249 136.5,-267 186.5,-267 186.5,-249 136.5,-249"/>
<polygon fill="none" stroke="black" points="136.5,-249 136.5,-267 186.5,-267 186.5,-249 136.5,-249"/>
<text text-anchor="start" x="166.5" y="-255.2" font-family="Helvetica,sans-Serif" font-size="11.00">9 &gt;</text>
</a>
</g>
</g>
<!-- container_groups&#45;&gt;container_projects -->
<g id="edge3" class="edge"><title>container_groups:container_project_id:w&#45;&gt;container_projects:elipses:e</title>
<path fill="none" stroke="black" d="M507.509,-337.104C397.729,-338.681 359.75,-357.127 250,-319 218.15,-307.935 221.217,-276 187.5,-276"/>
<polygon fill="black" stroke="black" points="514,-337.058 522.026,-340.6 518,-337.029 522,-337 522,-337 522,-337 518,-337.029 521.974,-333.4 514,-337.058 514,-337.058"/>
<ellipse fill="none" stroke="black" cx="510.8" cy="-337.081" rx="3.2" ry="3.2"/>
</g>
<!-- container_replicators -->
<g id="node5" class="node"><title>container_replicators</title>
<g id="a_node5"><a xlink:href="../../tables/container_replicators.html" xlink:title="container_replicators" target="_top">
<polygon fill="#ffffff" stroke="none" points="266.5,-357 266.5,-415 437.5,-415 437.5,-357 266.5,-357"/>
<polygon fill="#f5f5f5" stroke="none" points="267,-393 267,-415 438,-415 438,-393 267,-393"/>
<polygon fill="none" stroke="black" points="267,-393 267,-415 438,-415 438,-393 267,-393"/>
<text text-anchor="start" x="272" y="-402.2" font-family="Helvetica,sans-Serif" font-weight="bold" font-size="11.00">container_replicators</text>
<text text-anchor="start" x="399" y="-401.2" font-family="Helvetica,sans-Serif" font-size="11.00">[table]</text>
<polygon fill="none" stroke="black" points="267,-375 267,-393 438,-393 438,-375 267,-375"/>
<text text-anchor="start" x="270" y="-381.2" font-family="Helvetica,sans-Serif" font-size="11.00">...</text>
<polygon fill="#ffffff" stroke="none" points="267,-357 267,-375 346,-375 346,-357 267,-357"/>
<polygon fill="none" stroke="black" points="267,-357 267,-375 346,-375 346,-357 267,-357"/>
<text text-anchor="start" x="270" y="-363.2" font-family="Helvetica,sans-Serif" font-size="11.00">&lt; 1</text>
<polygon fill="#ffffff" stroke="none" points="346,-357 346,-375 387,-375 387,-357 346,-357"/>
<polygon fill="none" stroke="black" points="346,-357 346,-375 387,-375 387,-357 346,-357"/>
<text text-anchor="start" x="377" y="-363.2" font-family="Helvetica,sans-Serif" font-size="11.00"> &#160;</text>
<polygon fill="#ffffff" stroke="none" points="387,-357 387,-375 438,-375 438,-357 387,-357"/>
<polygon fill="none" stroke="black" points="387,-357 387,-375 438,-375 438,-357 387,-357"/>
<text text-anchor="start" x="418" y="-363.2" font-family="Helvetica,sans-Serif" font-size="11.00">2 &gt;</text>
</a>
</g>
</g>
<!-- container_groups&#45;&gt;container_replicators -->
<g id="edge4" class="edge"><title>container_groups:container_replicator_id:w&#45;&gt;container_replicators:elipses:e</title>
<path fill="none" stroke="black" d="M507.566,-381.17C481.856,-381.805 470.578,-384 439,-384"/>
<polygon fill="black" stroke="black" points="514.001,-381.094 522.042,-384.6 518,-381.047 522,-381 522,-381 522,-381 518,-381.047 521.958,-377.4 514.001,-381.094 514.001,-381.094"/>
<ellipse fill="none" stroke="black" cx="510.801" cy="-381.132" rx="3.2" ry="3.2"/>
</g>
<!-- container_replicators&#45;&gt;container_projects -->
<g id="edge7" class="edge"><title>container_replicators:elipses:w&#45;&gt;container_projects:elipses:e</title>
<path fill="none" stroke="black" d="M251.771,-381.33C213.319,-364.699 241.277,-276 187.5,-276"/>
<polygon fill="black" stroke="black" points="258.137,-382.525 265.336,-387.538 262.069,-383.262 266,-384 266,-384 266,-384 262.069,-383.262 266.664,-380.462 258.137,-382.525 258.137,-382.525"/>
<ellipse fill="none" stroke="black" cx="254.992" cy="-381.935" rx="3.2" ry="3.2"/>
</g>
<!-- container_groups_container_services -->
<g id="node6" class="node"><title>container_groups_container_services</title>
<g id="a_node6"><a xlink:href="../../tables/container_groups_container_services.html" xlink:title="container_groups_container_services" target="_top">
<polygon fill="#ffffff" stroke="none" points="766,-177 766,-287 1082,-287 1082,-177 766,-177"/>
<polygon fill="#f5f5f5" stroke="none" points="768,-263 768,-285 1080,-285 1080,-263 768,-263"/>
<polygon fill="none" stroke="black" points="768,-263 768,-285 1080,-285 1080,-263 768,-263"/>
<text text-anchor="start" x="773" y="-272.2" font-family="Helvetica,sans-Serif" font-weight="bold" font-size="11.00">container_groups_container_services</text>
<text text-anchor="start" x="1041" y="-271.2" font-family="Helvetica,sans-Serif" font-size="11.00">[table]</text>
<polygon fill="none" stroke="black" points="768,-241 768,-263 1009,-263 1009,-241 768,-241"/>
<image xlink:href="../../images/primaryKeys.png" width="11px" height="12px" preserveAspectRatio="xMinYMin meet" x="773" y="-258"/>
<text text-anchor="start" x="788" y="-249.2" font-family="Helvetica,sans-Serif" font-size="11.00">id</text>
<polygon fill="none" stroke="black" points="1009,-241 1009,-263 1080,-263 1080,-241 1009,-241"/>
<text text-anchor="start" x="1012" y="-249.2" font-family="Helvetica,sans-Serif" font-size="11.00">bigserial[19]</text>
<polygon fill="none" stroke="black" points="768,-219 768,-241 1009,-241 1009,-219 768,-219"/>
<image xlink:href="../../images/foreignKeys.png" width="11px" height="12px" preserveAspectRatio="xMinYMin meet" x="773" y="-236"/>
<text text-anchor="start" x="788" y="-227.2" font-family="Helvetica,sans-Serif" font-size="11.00">container_service_id</text>
<polygon fill="none" stroke="black" points="1009,-219 1009,-241 1080,-241 1080,-219 1009,-219"/>
<text text-anchor="start" x="1012" y="-227.2" font-family="Helvetica,sans-Serif" font-size="11.00">int8[19]</text>
<polygon fill="none" stroke="black" points="768,-197 768,-219 1009,-219 1009,-197 768,-197"/>
<image xlink:href="../../images/foreignKeys.png" width="11px" height="12px" preserveAspectRatio="xMinYMin meet" x="773" y="-214"/>
<text text-anchor="start" x="788" y="-205.2" font-family="Helvetica,sans-Serif" font-size="11.00">container_group_id</text>
<polygon fill="none" stroke="black" points="1009,-197 1009,-219 1080,-219 1080,-197 1009,-197"/>
<text text-anchor="start" x="1012" y="-205.2" font-family="Helvetica,sans-Serif" font-size="11.00">int8[19]</text>
<polygon fill="#ffffff" stroke="none" points="768,-179 768,-197 893,-197 893,-179 768,-179"/>
<polygon fill="none" stroke="black" points="768,-179 768,-197 893,-197 893,-179 768,-179"/>
<text text-anchor="start" x="771" y="-185.2" font-family="Helvetica,sans-Serif" font-size="11.00">&lt; 2</text>
<polygon fill="#ffffff" stroke="none" points="893,-179 893,-197 1009,-197 1009,-179 893,-179"/>
<polygon fill="none" stroke="black" points="893,-179 893,-197 1009,-197 1009,-179 893,-179"/>
<text text-anchor="start" x="999" y="-185.2" font-family="Helvetica,sans-Serif" font-size="11.00"> &#160;</text>
<polygon fill="#ffffff" stroke="none" points="1009,-179 1009,-197 1080,-197 1080,-179 1009,-179"/>
<polygon fill="none" stroke="black" points="1009,-179 1009,-197 1080,-197 1080,-179 1009,-179"/>
<text text-anchor="start" x="1060" y="-185.2" font-family="Helvetica,sans-Serif" font-size="11.00">0 &gt;</text>
<polygon fill="none" stroke="black" stroke-width="2" points="767,-178 767,-286 1081,-286 1081,-178 767,-178"/>
</a>
</g>
</g>
<!-- container_groups_container_services&#45;&gt;container_groups -->
<g id="edge5" class="edge"><title>container_groups_container_services:container_group_id:w&#45;&gt;container_groups:id:e</title>
<path fill="none" stroke="black" d="M752.436,-209.654C669.064,-230.77 796.15,-447 690,-447"/>
<polygon fill="black" stroke="black" points="759.051,-208.903 767.406,-211.577 763.026,-208.451 767,-208 767,-208 767,-208 763.026,-208.451 766.594,-204.423 759.051,-208.903 759.051,-208.903"/>
<ellipse fill="none" stroke="black" cx="755.872" cy="-209.264" rx="3.2" ry="3.2"/>
</g>
<!-- container_services -->
<g id="node7" class="node"><title>container_services</title>
<g id="a_node7"><a xlink:href="../../tables/container_services.html" xlink:title="container_services" target="_top">
<polygon fill="#ffffff" stroke="none" points="258,-37 258,-183 446,-183 446,-37 258,-37"/>
<polygon fill="#f5f5f5" stroke="none" points="258,-161 258,-183 446,-183 446,-161 258,-161"/>
<polygon fill="none" stroke="black" points="258,-161 258,-183 446,-183 446,-161 258,-161"/>
<text text-anchor="start" x="263" y="-170.2" font-family="Helvetica,sans-Serif" font-weight="bold" font-size="11.00">container_services</text>
<text text-anchor="start" x="407" y="-169.2" font-family="Helvetica,sans-Serif" font-size="11.00">[table]</text>
<polygon fill="none" stroke="black" points="258,-139 258,-161 446,-161 446,-139 258,-139"/>
<image xlink:href="../../images/primaryKeys.png" width="11px" height="12px" preserveAspectRatio="xMinYMin meet" x="263" y="-156"/>
<text text-anchor="start" x="278" y="-147.2" font-family="Helvetica,sans-Serif" font-size="11.00">id</text>
<polygon fill="#ffffff" stroke="none" points="258,-117 258,-139 446,-139 446,-117 258,-117"/>
<polygon fill="none" stroke="black" points="258,-117 258,-139 446,-139 446,-117 258,-117"/>
<text text-anchor="start" x="278" y="-125.2" font-family="Helvetica,sans-Serif" font-size="11.00">ems_id</text>
<polygon fill="none" stroke="black" points="258,-95 258,-117 446,-117 446,-95 258,-95"/>
<image xlink:href="../../images/foreignKeys.png" width="11px" height="12px" preserveAspectRatio="xMinYMin meet" x="263" y="-112"/>
<text text-anchor="start" x="278" y="-103.2" font-family="Helvetica,sans-Serif" font-size="11.00">container_project_id</text>
<polygon fill="none" stroke="black" points="258,-73 258,-95 446,-95 446,-73 258,-73"/>
<image xlink:href="../../images/foreignKeys.png" width="11px" height="12px" preserveAspectRatio="xMinYMin meet" x="263" y="-90"/>
<text text-anchor="start" x="278" y="-81.2" font-family="Helvetica,sans-Serif" font-size="11.00">container_image_registry_id</text>
<polygon fill="none" stroke="black" points="258,-55 258,-73 446,-73 446,-55 258,-55"/>
<text text-anchor="start" x="261" y="-61.2" font-family="Helvetica,sans-Serif" font-size="11.00">...</text>
<polygon fill="#ffffff" stroke="none" points="258,-37 258,-55 345,-55 345,-37 258,-37"/>
<polygon fill="none" stroke="black" points="258,-37 258,-55 345,-55 345,-37 258,-37"/>
<text text-anchor="start" x="261" y="-43.2" font-family="Helvetica,sans-Serif" font-size="11.00">&lt; 2</text>
<polygon fill="#ffffff" stroke="none" points="345,-37 345,-55 390,-55 390,-37 345,-37"/>
<polygon fill="none" stroke="black" points="345,-37 345,-55 390,-55 390,-37 345,-37"/>
<text text-anchor="start" x="380" y="-43.2" font-family="Helvetica,sans-Serif" font-size="11.00"> &#160;</text>
<polygon fill="#ffffff" stroke="none" points="390,-37 390,-55 446,-55 446,-37 390,-37"/>
<polygon fill="none" stroke="black" points="390,-37 390,-55 446,-55 446,-37 390,-37"/>
<text text-anchor="start" x="426" y="-43.2" font-family="Helvetica,sans-Serif" font-size="11.00">3 &gt;</text>
</a>
</g>
</g>
<!-- container_groups_container_services&#45;&gt;container_services -->
<g id="edge6" class="edge"><title>container_groups_container_services:container_service_id:w&#45;&gt;container_services:id:e</title>
<path fill="none" stroke="black" d="M753.165,-225.986C736.83,-213.026 752.146,-172.201 725,-156 671.939,-124.333 508.792,-150 447,-150"/>
<polygon fill="black" stroke="black" points="759.317,-227.771 765.997,-233.457 763.158,-228.886 767,-230 767,-230 767,-230 763.158,-228.886 768.003,-226.543 759.317,-227.771 759.317,-227.771"/>
<ellipse fill="none" stroke="black" cx="756.243" cy="-226.879" rx="3.20001" ry="3.20001"/>
</g>
<!-- container_services&#45;&gt;container_projects -->
<g id="edge12" class="edge"><title>container_services:container_project_id:w&#45;&gt;container_projects:elipses:e</title>
<path fill="none" stroke="black" d="M242.607,-108.275C187.372,-128.448 263.546,-276 187.5,-276"/>
<polygon fill="black" stroke="black" points="249.098,-107.249 257.562,-109.556 253.049,-106.624 257,-106 257,-106 257,-106 253.049,-106.624 256.438,-102.444 249.098,-107.249 249.098,-107.249"/>
<ellipse fill="none" stroke="black" cx="245.937" cy="-107.748" rx="3.2" ry="3.2"/>
</g>
<!-- container_image_registries -->
<g id="node10" class="node"><title>container_image_registries</title>
<g id="a_node10"><a xlink:href="../../tables/container_image_registries.html" xlink:title="container_image_registries" target="_top">
<polygon fill="#ffffff" stroke="none" points="8,-57 8,-115 209,-115 209,-57 8,-57"/>
<polygon fill="#f5f5f5" stroke="none" points="8.5,-93 8.5,-115 209.5,-115 209.5,-93 8.5,-93"/>
<polygon fill="none" stroke="black" points="8.5,-93 8.5,-115 209.5,-115 209.5,-93 8.5,-93"/>
<text text-anchor="start" x="13.5" y="-102.2" font-family="Helvetica,sans-Serif" font-weight="bold" font-size="11.00">container_image_registries</text>
<text text-anchor="start" x="170.5" y="-101.2" font-family="Helvetica,sans-Serif" font-size="11.00">[table]</text>
<polygon fill="none" stroke="black" points="8.5,-75 8.5,-93 209.5,-93 209.5,-75 8.5,-75"/>
<text text-anchor="start" x="11.5" y="-81.2" font-family="Helvetica,sans-Serif" font-size="11.00">...</text>
<polygon fill="#ffffff" stroke="none" points="8.5,-57 8.5,-75 97.5,-75 97.5,-57 8.5,-57"/>
<polygon fill="none" stroke="black" points="8.5,-57 8.5,-75 97.5,-75 97.5,-57 8.5,-57"/>
<text text-anchor="start" x="11.5" y="-63.2" font-family="Helvetica,sans-Serif" font-size="11.00"> &#160;</text>
<polygon fill="#ffffff" stroke="none" points="97.5,-57 97.5,-75 148.5,-75 148.5,-57 97.5,-57"/>
<polygon fill="none" stroke="black" points="97.5,-57 97.5,-75 148.5,-75 148.5,-57 97.5,-57"/>
<text text-anchor="start" x="138.5" y="-63.2" font-family="Helvetica,sans-Serif" font-size="11.00"> &#160;</text>
<polygon fill="#ffffff" stroke="none" points="148.5,-57 148.5,-75 209.5,-75 209.5,-57 148.5,-57"/>
<polygon fill="none" stroke="black" points="148.5,-57 148.5,-75 209.5,-75 209.5,-57 148.5,-57"/>
<text text-anchor="start" x="189.5" y="-63.2" font-family="Helvetica,sans-Serif" font-size="11.00">2 &gt;</text>
</a>
</g>
</g>
<!-- container_services&#45;&gt;container_image_registries -->
<g id="edge11" class="edge"><title>container_services:container_image_registry_id:w&#45;&gt;container_image_registries:elipses:e</title>
<path fill="none" stroke="black" d="M242.551,-84C232.201,-84 225.354,-84 210.5,-84"/>
<polygon fill="black" stroke="black" points="249,-84.0001 257,-87.6 253,-84 257,-84 257,-84 257,-84 253,-84 257,-80.4 249,-84.0001 249,-84.0001"/>
<ellipse fill="none" stroke="black" cx="245.8" cy="-84.0001" rx="3.2" ry="3.2"/>
</g>
<!-- container_routes -->
<g id="node8" class="node"><title>container_routes</title>
<g id="a_node8"><a xlink:href="../../tables/container_routes.html" xlink:title="container_routes" target="_top">
<polygon fill="#ffffff" stroke="none" points="533.5,-167 533.5,-225 678.5,-225 678.5,-167 533.5,-167"/>
<polygon fill="#f5f5f5" stroke="none" points="534,-203 534,-225 679,-225 679,-203 534,-203"/>
<polygon fill="none" stroke="black" points="534,-203 534,-225 679,-225 679,-203 534,-203"/>
<text text-anchor="start" x="539" y="-212.2" font-family="Helvetica,sans-Serif" font-weight="bold" font-size="11.00">container_routes</text>
<text text-anchor="start" x="640" y="-211.2" font-family="Helvetica,sans-Serif" font-size="11.00">[table]</text>
<polygon fill="none" stroke="black" points="534,-185 534,-203 679,-203 679,-185 534,-185"/>
<text text-anchor="start" x="537" y="-191.2" font-family="Helvetica,sans-Serif" font-size="11.00">...</text>
<polygon fill="#ffffff" stroke="none" points="534,-167 534,-185 605,-185 605,-167 534,-167"/>
<polygon fill="none" stroke="black" points="534,-167 534,-185 605,-185 605,-167 534,-167"/>
<text text-anchor="start" x="537" y="-173.2" font-family="Helvetica,sans-Serif" font-size="11.00">&lt; 2</text>
<polygon fill="#ffffff" stroke="none" points="605,-167 605,-185 642,-185 642,-167 605,-167"/>
<polygon fill="none" stroke="black" points="605,-167 605,-185 642,-185 642,-167 605,-167"/>
<text text-anchor="start" x="632" y="-173.2" font-family="Helvetica,sans-Serif" font-size="11.00"> &#160;</text>
<polygon fill="#ffffff" stroke="none" points="642,-167 642,-185 679,-185 679,-167 642,-167"/>
<polygon fill="none" stroke="black" points="642,-167 642,-185 679,-185 679,-167 642,-167"/>
<text text-anchor="start" x="669" y="-173.2" font-family="Helvetica,sans-Serif" font-size="11.00"> &#160;</text>
</a>
</g>
</g>
<!-- container_routes&#45;&gt;container_projects -->
<g id="edge8" class="edge"><title>container_routes:elipses:w&#45;&gt;container_projects:elipses:e</title>
<path fill="none" stroke="black" d="M518.477,-194.017C402.668,-194.316 365.365,-198.95 250,-240 219.799,-250.747 219.556,-276 187.5,-276"/>
<polygon fill="black" stroke="black" points="525,-194.01 533.004,-197.6 529,-194.005 533,-194 533,-194 533,-194 529,-194.005 532.996,-190.4 525,-194.01 525,-194.01"/>
<ellipse fill="none" stroke="black" cx="521.8" cy="-194.013" rx="3.2" ry="3.2"/>
</g>
<!-- container_routes&#45;&gt;container_services -->
<g id="edge9" class="edge"><title>container_routes:elipses:w&#45;&gt;container_services:id:e</title>
<path fill="none" stroke="black" d="M518.347,-191.995C489.321,-183.387 484.4,-150 447,-150"/>
<polygon fill="black" stroke="black" points="525.074,-192.915 532.512,-197.567 529.037,-193.458 533,-194 533,-194 533,-194 529.037,-193.458 533.488,-190.433 525.074,-192.915 525.074,-192.915"/>
<ellipse fill="none" stroke="black" cx="521.903" cy="-192.482" rx="3.2" ry="3.2"/>
</g>
<!-- container_service_port_configs -->
<g id="node9" class="node"><title>container_service_port_configs</title>
<g id="a_node9"><a xlink:href="../../tables/container_service_port_configs.html" xlink:title="container_service_port_configs" target="_top">
<polygon fill="#ffffff" stroke="none" points="495,-61 495,-119 717,-119 717,-61 495,-61"/>
<polygon fill="#f5f5f5" stroke="none" points="495,-97 495,-119 717,-119 717,-97 495,-97"/>
<polygon fill="none" stroke="black" points="495,-97 495,-119 717,-119 717,-97 495,-97"/>
<text text-anchor="start" x="500" y="-106.2" font-family="Helvetica,sans-Serif" font-weight="bold" font-size="11.00">container_service_port_configs</text>
<text text-anchor="start" x="678" y="-105.2" font-family="Helvetica,sans-Serif" font-size="11.00">[table]</text>
<polygon fill="none" stroke="black" points="495,-79 495,-97 717,-97 717,-79 495,-79"/>
<text text-anchor="start" x="498" y="-85.2" font-family="Helvetica,sans-Serif" font-size="11.00">...</text>
<polygon fill="#ffffff" stroke="none" points="495,-61 495,-79 604,-79 604,-61 495,-61"/>
<polygon fill="none" stroke="black" points="495,-61 495,-79 604,-79 604,-61 495,-61"/>
<text text-anchor="start" x="498" y="-67.2" font-family="Helvetica,sans-Serif" font-size="11.00">&lt; 1</text>
<polygon fill="#ffffff" stroke="none" points="604,-61 604,-79 660,-79 660,-61 604,-61"/>
<polygon fill="none" stroke="black" points="604,-61 604,-79 660,-79 660,-61 604,-61"/>
<text text-anchor="start" x="650" y="-67.2" font-family="Helvetica,sans-Serif" font-size="11.00"> &#160;</text>
<polygon fill="#ffffff" stroke="none" points="660,-61 660,-79 717,-79 717,-61 660,-61"/>
<polygon fill="none" stroke="black" points="660,-61 660,-79 717,-79 717,-61 660,-61"/>
<text text-anchor="start" x="707" y="-67.2" font-family="Helvetica,sans-Serif" font-size="11.00"> &#160;</text>
</a>
</g>
</g>
<!-- container_service_port_configs&#45;&gt;container_services -->
<g id="edge10" class="edge"><title>container_service_port_configs:elipses:w&#45;&gt;container_services:id:e</title>
<path fill="none" stroke="black" d="M480.197,-93.2861C465.552,-108.279 475.365,-150 447,-150"/>
<polygon fill="black" stroke="black" points="486.529,-90.8612 495.288,-91.3619 490.265,-89.4306 494,-88 494,-88 494,-88 490.265,-89.4306 492.712,-84.6381 486.529,-90.8612 486.529,-90.8612"/>
<ellipse fill="none" stroke="black" cx="483.541" cy="-92.0057" rx="3.20001" ry="3.20001"/>
</g>
<!-- containers -->
<g id="node11" class="node"><title>containers</title>
<g id="a_node11"><a xlink:href="../../tables/containers.html" xlink:title="containers" target="_top">
<polygon fill="#ffffff" stroke="none" points="869.5,-395 869.5,-453 978.5,-453 978.5,-395 869.5,-395"/>
<polygon fill="#f5f5f5" stroke="none" points="870,-431 870,-453 979,-453 979,-431 870,-431"/>
<polygon fill="none" stroke="black" points="870,-431 870,-453 979,-453 979,-431 870,-431"/>
<text text-anchor="start" x="875" y="-440.2" font-family="Helvetica,sans-Serif" font-weight="bold" font-size="11.00">containers</text>
<text text-anchor="start" x="940" y="-439.2" font-family="Helvetica,sans-Serif" font-size="11.00">[table]</text>
<polygon fill="none" stroke="black" points="870,-413 870,-431 979,-431 979,-413 870,-413"/>
<text text-anchor="start" x="873" y="-419.2" font-family="Helvetica,sans-Serif" font-size="11.00">...</text>
<polygon fill="#ffffff" stroke="none" points="870,-395 870,-413 918,-413 918,-395 870,-395"/>
<polygon fill="none" stroke="black" points="870,-395 870,-413 918,-413 918,-395 870,-395"/>
<text text-anchor="start" x="873" y="-401.2" font-family="Helvetica,sans-Serif" font-size="11.00">&lt; 2</text>
<polygon fill="#ffffff" stroke="none" points="918,-395 918,-413 943,-413 943,-395 918,-395"/>
<polygon fill="none" stroke="black" points="918,-395 918,-413 943,-413 943,-395 918,-395"/>
<text text-anchor="start" x="933" y="-401.2" font-family="Helvetica,sans-Serif" font-size="11.00"> &#160;</text>
<polygon fill="#ffffff" stroke="none" points="943,-395 943,-413 979,-413 979,-395 943,-395"/>
<polygon fill="none" stroke="black" points="943,-395 943,-413 979,-413 979,-395 943,-395"/>
<text text-anchor="start" x="959" y="-401.2" font-family="Helvetica,sans-Serif" font-size="11.00">3 &gt;</text>
</a>
</g>
</g>
<!-- containers&#45;&gt;container_groups -->
<g id="edge13" class="edge"><title>containers:elipses:w&#45;&gt;container_groups:id:e</title>
<path fill="none" stroke="black" d="M854.207,-422.298C786.05,-425.119 765.15,-447 690,-447"/>
<polygon fill="black" stroke="black" points="861.002,-422.161 869.073,-425.599 865.001,-422.081 869,-422 869,-422 869,-422 865.001,-422.081 868.927,-418.401 861.002,-422.161 861.002,-422.161"/>
<ellipse fill="none" stroke="black" cx="857.802" cy="-422.226" rx="3.2" ry="3.2"/>
</g>
<!-- event_streams -->
<g id="node12" class="node"><title>event_streams</title>
<g id="a_node12"><a xlink:href="../../tables/event_streams.html" xlink:title="event_streams" target="_top">
<polygon fill="#ffffff" stroke="none" points="1131,-463 1131,-521 1263,-521 1263,-463 1131,-463"/>
<polygon fill="#f5f5f5" stroke="none" points="1131,-499 1131,-521 1263,-521 1263,-499 1131,-499"/>
<polygon fill="none" stroke="black" points="1131,-499 1131,-521 1263,-521 1263,-499 1131,-499"/>
<text text-anchor="start" x="1136" y="-508.2" font-family="Helvetica,sans-Serif" font-weight="bold" font-size="11.00">event_streams</text>
<text text-anchor="start" x="1224" y="-507.2" font-family="Helvetica,sans-Serif" font-size="11.00">[table]</text>
<polygon fill="none" stroke="black" points="1131,-481 1131,-499 1263,-499 1263,-481 1131,-481"/>
<text text-anchor="start" x="1134" y="-487.2" font-family="Helvetica,sans-Serif" font-size="11.00">...</text>
<polygon fill="#ffffff" stroke="none" points="1131,-463 1131,-481 1199,-481 1199,-463 1131,-463"/>
<polygon fill="none" stroke="black" points="1131,-463 1131,-481 1199,-481 1199,-463 1131,-463"/>
<text text-anchor="start" x="1134" y="-469.2" font-family="Helvetica,sans-Serif" font-size="11.00">&lt; 11</text>
<polygon fill="#ffffff" stroke="none" points="1199,-463 1199,-481 1231,-481 1231,-463 1199,-463"/>
<polygon fill="none" stroke="black" points="1199,-463 1199,-481 1231,-481 1231,-463 1199,-463"/>
<text text-anchor="start" x="1221" y="-469.2" font-family="Helvetica,sans-Serif" font-size="11.00"> &#160;</text>
<polygon fill="#ffffff" stroke="none" points="1231,-463 1231,-481 1263,-481 1263,-463 1231,-463"/>
<polygon fill="none" stroke="black" points="1231,-463 1231,-481 1263,-481 1263,-463 1231,-463"/>
<text text-anchor="start" x="1253" y="-469.2" font-family="Helvetica,sans-Serif" font-size="11.00"> &#160;</text>
</a>
</g>
</g>
<!-- event_streams&#45;&gt;container_groups -->
<g id="edge14" class="edge"><title>event_streams:elipses:w&#45;&gt;container_groups:id:e</title>
<path fill="none" stroke="black" d="M1115.28,-489.999C961.575,-489.975 916.733,-489.19 758,-464 727.233,-459.117 721.152,-447 690,-447"/>
<polygon fill="black" stroke="black" points="1122,-490 1130,-493.6 1126,-490 1130,-490 1130,-490 1130,-490 1126,-490 1130,-486.4 1122,-490 1122,-490"/>
<ellipse fill="none" stroke="black" cx="1118.8" cy="-489.999" rx="3.2" ry="3.2"/>
</g>
<!-- event_streams&#45;&gt;container_nodes -->
<g id="edge16" class="edge"><title>event_streams:elipses:w&#45;&gt;container_nodes:elipses:e</title>
<path fill="none" stroke="black" d="M1116.1,-494.061C1107.87,-499.824 1104.05,-510.109 1090,-514 831.724,-585.538 752.93,-547.241 487,-514 458.334,-510.417 452.889,-498 424,-498"/>
<polygon fill="black" stroke="black" points="1122.32,-492.244 1131.01,-493.455 1126.16,-491.122 1130,-490 1130,-490 1130,-490 1126.16,-491.122 1128.99,-486.545 1122.32,-492.244 1122.32,-492.244"/>
<ellipse fill="none" stroke="black" cx="1119.25" cy="-493.141" rx="3.20001" ry="3.20001"/>
</g>
<!-- event_streams&#45;&gt;container_replicators -->
<g id="edge17" class="edge"><title>event_streams:elipses:w&#45;&gt;container_replicators:elipses:e</title>
<path fill="none" stroke="black" d="M1115.49,-490.295C1006.82,-493.801 543.934,-526.718 487,-490 443.538,-461.971 490.716,-384 439,-384"/>
<polygon fill="black" stroke="black" points="1122,-490.163 1130.07,-493.599 1126,-490.081 1130,-490 1130,-490 1130,-490 1126,-490.081 1129.93,-486.401 1122,-490.163 1122,-490.163"/>
<ellipse fill="none" stroke="black" cx="1118.8" cy="-490.228" rx="3.2" ry="3.2"/>
</g>
<!-- event_streams&#45;&gt;containers -->
<g id="edge15" class="edge"><title>event_streams:elipses:w&#45;&gt;containers:elipses:e</title>
<path fill="none" stroke="black" d="M1115.91,-486.798C1107.33,-482.134 1102.95,-473.338 1090,-467 1042.55,-443.783 1032.82,-422 980,-422"/>
<polygon fill="black" stroke="black" points="1122.2,-488.227 1129.2,-493.51 1126.1,-489.113 1130,-490 1130,-490 1130,-490 1126.1,-489.113 1130.8,-486.49 1122.2,-488.227 1122.2,-488.227"/>
<ellipse fill="none" stroke="black" cx="1119.08" cy="-487.518" rx="3.2" ry="3.2"/>
</g>
</g>
</svg>
