<?xml version="1.0" encoding="UTF-8" standalone="no"?>
<!DOCTYPE svg PUBLIC "-//W3C//DTD SVG 1.1//EN"
 "http://www.w3.org/Graphics/SVG/1.1/DTD/svg11.dtd">
<!-- Generated by graphviz version 2.38.0 (20140413.2041)
 -->
<!-- Title: twoDegreesRelationshipsDiagram Pages: 1 -->
<svg width="1008pt" height="965pt"
 viewBox="0.00 0.00 1008.00 965.00" xmlns="http://www.w3.org/2000/svg" xmlns:xlink="http://www.w3.org/1999/xlink">
<g id="graph0" class="graph" transform="scale(1 1) rotate(0) translate(4 961)">
<title>twoDegreesRelationshipsDiagram</title>
<polygon fill="#ffffff" stroke="none" points="-4,4 -4,-961 1004,-961 1004,4 -4,4"/>
<text text-anchor="middle" x="74.5" y="-7.2" font-family="Helvetica,sans-Serif" font-size="11.00">Generated by SchemaSpy</text>
<!-- container_build_pods -->
<g id="node1" class="node"><title>container_build_pods</title>
<g id="a_node1"><a xlink:href="../../tables/container_build_pods.html" xlink:title="container_build_pods" target="_top">
<polygon fill="#ffffff" stroke="none" points="584,-681 584,-805 796,-805 796,-681 584,-681"/>
<polygon fill="#f5f5f5" stroke="none" points="584,-783 584,-805 796,-805 796,-783 584,-783"/>
<polygon fill="none" stroke="black" points="584,-783 584,-805 796,-805 796,-783 584,-783"/>
<text text-anchor="start" x="589" y="-792.2" font-family="Helvetica,sans-Serif" font-weight="bold" font-size="11.00">container_build_pods</text>
<text text-anchor="start" x="757" y="-791.2" font-family="Helvetica,sans-Serif" font-size="11.00">[table]</text>
<polygon fill="none" stroke="black" points="584,-761 584,-783 796,-783 796,-761 584,-761"/>
<image xlink:href="../../images/primaryKeys.png" width="11px" height="12px" preserveAspectRatio="xMinYMin meet" x="589" y="-778"/>
<text text-anchor="start" x="604" y="-769.2" font-family="Helvetica,sans-Serif" font-size="11.00">id</text>
<polygon fill="none" stroke="black" points="584,-739 584,-761 796,-761 796,-739 584,-739"/>
<image xlink:href="../../images/foreignKeys.png" width="11px" height="12px" preserveAspectRatio="xMinYMin meet" x="589" y="-756"/>
<text text-anchor="start" x="604" y="-747.2" font-family="Helvetica,sans-Serif" font-size="11.00">container_build_id</text>
<polygon fill="#ffffff" stroke="none" points="584,-717 584,-739 796,-739 796,-717 584,-717"/>
<polygon fill="none" stroke="black" points="584,-717 584,-739 796,-739 796,-717 584,-717"/>
<text text-anchor="start" x="604" y="-725.2" font-family="Helvetica,sans-Serif" font-size="11.00">ems_id</text>
<polygon fill="none" stroke="black" points="584,-699 584,-717 796,-717 796,-699 584,-699"/>
<text text-anchor="start" x="587" y="-705.2" font-family="Helvetica,sans-Serif" font-size="11.00">...</text>
<polygon fill="#ffffff" stroke="none" points="584,-681 584,-699 683,-699 683,-681 584,-681"/>
<polygon fill="none" stroke="black" points="584,-681 584,-699 683,-699 683,-681 584,-681"/>
<text text-anchor="start" x="587" y="-687.2" font-family="Helvetica,sans-Serif" font-size="11.00">&lt; 1</text>
<polygon fill="#ffffff" stroke="none" points="683,-681 683,-699 734,-699 734,-681 683,-681"/>
<polygon fill="none" stroke="black" points="683,-681 683,-699 734,-699 734,-681 683,-681"/>
<text text-anchor="start" x="724" y="-687.2" font-family="Helvetica,sans-Serif" font-size="11.00"> &#160;</text>
<polygon fill="#ffffff" stroke="none" points="734,-681 734,-699 796,-699 796,-681 734,-681"/>
<polygon fill="none" stroke="black" points="734,-681 734,-699 796,-699 796,-681 734,-681"/>
<text text-anchor="start" x="776" y="-687.2" font-family="Helvetica,sans-Serif" font-size="11.00">1 &gt;</text>
</a>
</g>
</g>
<!-- container_builds -->
<g id="node2" class="node"><title>container_builds</title>
<g id="a_node2"><a xlink:href="../../tables/container_builds.html" xlink:title="container_builds" target="_top">
<polygon fill="#ffffff" stroke="none" points="212,-513 212,-953 535,-953 535,-513 212,-513"/>
<polygon fill="#f5f5f5" stroke="none" points="214.5,-929 214.5,-951 533.5,-951 533.5,-929 214.5,-929"/>
<polygon fill="none" stroke="black" points="214.5,-929 214.5,-951 533.5,-951 533.5,-929 214.5,-929"/>
<text text-anchor="start" x="219.5" y="-938.2" font-family="Helvetica,sans-Serif" font-weight="bold" font-size="11.00">container_builds</text>
<text text-anchor="start" x="494.5" y="-937.2" font-family="Helvetica,sans-Serif" font-size="11.00">[table]</text>
<polygon fill="none" stroke="black" points="214.5,-907 214.5,-929 412.5,-929 412.5,-907 214.5,-907"/>
<image xlink:href="../../images/primaryKeys.png" width="11px" height="12px" preserveAspectRatio="xMinYMin meet" x="219.5" y="-924"/>
<text text-anchor="start" x="234.5" y="-915.2" font-family="Helvetica,sans-Serif" font-size="11.00">id</text>
<polygon fill="none" stroke="black" points="412.5,-907 412.5,-929 533.5,-929 533.5,-907 412.5,-907"/>
<text text-anchor="start" x="415.5" y="-915.2" font-family="Helvetica,sans-Serif" font-size="11.00">bigserial[19]</text>
<polygon fill="none" stroke="black" points="214.5,-885 214.5,-907 412.5,-907 412.5,-885 214.5,-885"/>
<text text-anchor="start" x="234.5" y="-893.2" font-family="Helvetica,sans-Serif" font-size="11.00">ems_ref</text>
<polygon fill="none" stroke="black" points="412.5,-885 412.5,-907 533.5,-907 533.5,-885 412.5,-885"/>
<text text-anchor="start" x="415.5" y="-893.2" font-family="Helvetica,sans-Serif" font-size="11.00">varchar[2147483647]</text>
<polygon fill="none" stroke="black" points="214.5,-863 214.5,-885 412.5,-885 412.5,-863 214.5,-863"/>
<text text-anchor="start" x="234.5" y="-871.2" font-family="Helvetica,sans-Serif" font-size="11.00">name</text>
<polygon fill="none" stroke="black" points="412.5,-863 412.5,-885 533.5,-885 533.5,-863 412.5,-863"/>
<text text-anchor="start" x="415.5" y="-871.2" font-family="Helvetica,sans-Serif" font-size="11.00">varchar[2147483647]</text>
<polygon fill="none" stroke="black" points="214.5,-841 214.5,-863 412.5,-863 412.5,-841 214.5,-841"/>
<text text-anchor="start" x="234.5" y="-849.2" font-family="Helvetica,sans-Serif" font-size="11.00">ems_created_on</text>
<polygon fill="none" stroke="black" points="412.5,-841 412.5,-863 533.5,-863 533.5,-841 412.5,-841"/>
<text text-anchor="start" x="415.5" y="-849.2" font-family="Helvetica,sans-Serif" font-size="11.00">timestamp[29,6]</text>
<polygon fill="none" stroke="black" points="214.5,-819 214.5,-841 412.5,-841 412.5,-819 214.5,-819"/>
<text text-anchor="start" x="234.5" y="-827.2" font-family="Helvetica,sans-Serif" font-size="11.00">resource_version</text>
<polygon fill="none" stroke="black" points="412.5,-819 412.5,-841 533.5,-841 533.5,-819 412.5,-819"/>
<text text-anchor="start" x="415.5" y="-827.2" font-family="Helvetica,sans-Serif" font-size="11.00">varchar[2147483647]</text>
<polygon fill="none" stroke="black" points="214.5,-797 214.5,-819 412.5,-819 412.5,-797 214.5,-797"/>
<text text-anchor="start" x="234.5" y="-805.2" font-family="Helvetica,sans-Serif" font-size="11.00">namespace</text>
<polygon fill="none" stroke="black" points="412.5,-797 412.5,-819 533.5,-819 533.5,-797 412.5,-797"/>
<text text-anchor="start" x="415.5" y="-805.2" font-family="Helvetica,sans-Serif" font-size="11.00">varchar[2147483647]</text>
<polygon fill="none" stroke="black" points="214.5,-775 214.5,-797 412.5,-797 412.5,-775 214.5,-775"/>
<text text-anchor="start" x="234.5" y="-783.2" font-family="Helvetica,sans-Serif" font-size="11.00">service_account</text>
<polygon fill="none" stroke="black" points="412.5,-775 412.5,-797 533.5,-797 533.5,-775 412.5,-775"/>
<text text-anchor="start" x="415.5" y="-783.2" font-family="Helvetica,sans-Serif" font-size="11.00">varchar[2147483647]</text>
<polygon fill="none" stroke="black" points="214.5,-753 214.5,-775 412.5,-775 412.5,-753 214.5,-753"/>
<text text-anchor="start" x="234.5" y="-761.2" font-family="Helvetica,sans-Serif" font-size="11.00">build_source_type</text>
<polygon fill="none" stroke="black" points="412.5,-753 412.5,-775 533.5,-775 533.5,-753 412.5,-753"/>
<text text-anchor="start" x="415.5" y="-761.2" font-family="Helvetica,sans-Serif" font-size="11.00">varchar[2147483647]</text>
<polygon fill="none" stroke="black" points="214.5,-731 214.5,-753 412.5,-753 412.5,-731 214.5,-731"/>
<text text-anchor="start" x="234.5" y="-739.2" font-family="Helvetica,sans-Serif" font-size="11.00">source_binary</text>
<polygon fill="none" stroke="black" points="412.5,-731 412.5,-753 533.5,-753 533.5,-731 412.5,-731"/>
<text text-anchor="start" x="415.5" y="-739.2" font-family="Helvetica,sans-Serif" font-size="11.00">varchar[2147483647]</text>
<polygon fill="none" stroke="black" points="214.5,-709 214.5,-731 412.5,-731 412.5,-709 214.5,-709"/>
<text text-anchor="start" x="234.5" y="-717.2" font-family="Helvetica,sans-Serif" font-size="11.00">source_dockerfile</text>
<polygon fill="none" stroke="black" points="412.5,-709 412.5,-731 533.5,-731 533.5,-709 412.5,-709"/>
<text text-anchor="start" x="415.5" y="-717.2" font-family="Helvetica,sans-Serif" font-size="11.00">varchar[2147483647]</text>
<polygon fill="none" stroke="black" points="214.5,-687 214.5,-709 412.5,-709 412.5,-687 214.5,-687"/>
<text text-anchor="start" x="234.5" y="-695.2" font-family="Helvetica,sans-Serif" font-size="11.00">source_git</text>
<polygon fill="none" stroke="black" points="412.5,-687 412.5,-709 533.5,-709 533.5,-687 412.5,-687"/>
<text text-anchor="start" x="415.5" y="-695.2" font-family="Helvetica,sans-Serif" font-size="11.00">varchar[2147483647]</text>
<polygon fill="none" stroke="black" points="214.5,-665 214.5,-687 412.5,-687 412.5,-665 214.5,-665"/>
<text text-anchor="start" x="234.5" y="-673.2" font-family="Helvetica,sans-Serif" font-size="11.00">source_context_dir</text>
<polygon fill="none" stroke="black" points="412.5,-665 412.5,-687 533.5,-687 533.5,-665 412.5,-665"/>
<text text-anchor="start" x="415.5" y="-673.2" font-family="Helvetica,sans-Serif" font-size="11.00">varchar[2147483647]</text>
<polygon fill="none" stroke="black" points="214.5,-643 214.5,-665 412.5,-665 412.5,-643 214.5,-643"/>
<text text-anchor="start" x="234.5" y="-651.2" font-family="Helvetica,sans-Serif" font-size="11.00">source_secret</text>
<polygon fill="none" stroke="black" points="412.5,-643 412.5,-665 533.5,-665 533.5,-643 412.5,-643"/>
<text text-anchor="start" x="415.5" y="-651.2" font-family="Helvetica,sans-Serif" font-size="11.00">varchar[2147483647]</text>
<polygon fill="none" stroke="black" points="214.5,-621 214.5,-643 412.5,-643 412.5,-621 214.5,-621"/>
<text text-anchor="start" x="234.5" y="-629.2" font-family="Helvetica,sans-Serif" font-size="11.00">output_name</text>
<polygon fill="none" stroke="black" points="412.5,-621 412.5,-643 533.5,-643 533.5,-621 412.5,-621"/>
<text text-anchor="start" x="415.5" y="-629.2" font-family="Helvetica,sans-Serif" font-size="11.00">varchar[2147483647]</text>
<polygon fill="none" stroke="black" points="214.5,-599 214.5,-621 412.5,-621 412.5,-599 214.5,-599"/>
<text text-anchor="start" x="234.5" y="-607.2" font-family="Helvetica,sans-Serif" font-size="11.00">completion_deadline_seconds</text>
<polygon fill="none" stroke="black" points="412.5,-599 412.5,-621 533.5,-621 533.5,-599 412.5,-599"/>
<text text-anchor="start" x="415.5" y="-607.2" font-family="Helvetica,sans-Serif" font-size="11.00">int8[19]</text>
<polygon fill="none" stroke="black" points="214.5,-577 214.5,-599 412.5,-599 412.5,-577 214.5,-577"/>
<image xlink:href="../../images/foreignKeys.png" width="11px" height="12px" preserveAspectRatio="xMinYMin meet" x="219.5" y="-594"/>
<text text-anchor="start" x="234.5" y="-585.2" font-family="Helvetica,sans-Serif" font-size="11.00">container_project_id</text>
<polygon fill="none" stroke="black" points="412.5,-577 412.5,-599 533.5,-599 533.5,-577 412.5,-577"/>
<text text-anchor="start" x="415.5" y="-585.2" font-family="Helvetica,sans-Serif" font-size="11.00">int8[19]</text>
<polygon fill="#ffffff" stroke="none" points="214.5,-555 214.5,-577 412.5,-577 412.5,-555 214.5,-555"/>
<polygon fill="none" stroke="black" points="214.5,-555 214.5,-577 412.5,-577 412.5,-555 214.5,-555"/>
<text text-anchor="start" x="234.5" y="-563.2" font-family="Helvetica,sans-Serif" font-size="11.00">ems_id</text>
<polygon fill="none" stroke="black" points="412.5,-555 412.5,-577 533.5,-577 533.5,-555 412.5,-555"/>
<text text-anchor="start" x="415.5" y="-563.2" font-family="Helvetica,sans-Serif" font-size="11.00">int8[19]</text>
<polygon fill="none" stroke="black" points="214.5,-533 214.5,-555 412.5,-555 412.5,-533 214.5,-533"/>
<text text-anchor="start" x="234.5" y="-541.2" font-family="Helvetica,sans-Serif" font-size="11.00">created_on</text>
<polygon fill="none" stroke="black" points="412.5,-533 412.5,-555 533.5,-555 533.5,-533 412.5,-533"/>
<text text-anchor="start" x="415.5" y="-541.2" font-family="Helvetica,sans-Serif" font-size="11.00">timestamp[29,6]</text>
<polygon fill="#ffffff" stroke="none" points="214.5,-515 214.5,-533 318.5,-533 318.5,-515 214.5,-515"/>
<polygon fill="none" stroke="black" points="214.5,-515 214.5,-533 318.5,-533 318.5,-515 214.5,-515"/>
<text text-anchor="start" x="217.5" y="-521.2" font-family="Helvetica,sans-Serif" font-size="11.00">&lt; 1</text>
<polygon fill="#ffffff" stroke="none" points="318.5,-515 318.5,-533 412.5,-533 412.5,-515 318.5,-515"/>
<polygon fill="none" stroke="black" points="318.5,-515 318.5,-533 412.5,-533 412.5,-515 318.5,-515"/>
<text text-anchor="start" x="402.5" y="-521.2" font-family="Helvetica,sans-Serif" font-size="11.00"> &#160;</text>
<polygon fill="#ffffff" stroke="none" points="412.5,-515 412.5,-533 533.5,-533 533.5,-515 412.5,-515"/>
<polygon fill="none" stroke="black" points="412.5,-515 412.5,-533 533.5,-533 533.5,-515 412.5,-515"/>
<text text-anchor="start" x="513.5" y="-521.2" font-family="Helvetica,sans-Serif" font-size="11.00">1 &gt;</text>
<polygon fill="none" stroke="black" stroke-width="2" points="213,-514 213,-952 534,-952 534,-514 213,-514"/>
</a>
</g>
</g>
<!-- container_build_pods&#45;&gt;container_builds -->
<g id="edge1" class="edge"><title>container_build_pods:container_build_id:w&#45;&gt;container_builds:id.type:e</title>
<path fill="none" stroke="black" d="M568.596,-752.639C520.14,-774.012 606.448,-918 534.5,-918"/>
<polygon fill="black" stroke="black" points="575.131,-751.442 583.649,-753.541 579.065,-750.721 583,-750 583,-750 583,-750 579.065,-750.721 582.351,-746.459 575.131,-751.442 575.131,-751.442"/>
<ellipse fill="none" stroke="black" cx="571.983" cy="-752.018" rx="3.2" ry="3.2"/>
</g>
<!-- container_projects -->
<g id="node3" class="node"><title>container_projects</title>
<g id="a_node3"><a xlink:href="../../tables/container_projects.html" xlink:title="container_projects" target="_top">
<polygon fill="#ffffff" stroke="none" points="8,-237 8,-361 163,-361 163,-237 8,-237"/>
<polygon fill="#f5f5f5" stroke="none" points="8.5,-339 8.5,-361 163.5,-361 163.5,-339 8.5,-339"/>
<polygon fill="none" stroke="black" points="8.5,-339 8.5,-361 163.5,-361 163.5,-339 8.5,-339"/>
<text text-anchor="start" x="13.5" y="-348.2" font-family="Helvetica,sans-Serif" font-weight="bold" font-size="11.00">container_projects</text>
<text text-anchor="start" x="124.5" y="-347.2" font-family="Helvetica,sans-Serif" font-size="11.00">[table]</text>
<polygon fill="none" stroke="black" points="8.5,-317 8.5,-339 163.5,-339 163.5,-317 8.5,-317"/>
<image xlink:href="../../images/primaryKeys.png" width="11px" height="12px" preserveAspectRatio="xMinYMin meet" x="13.5" y="-334"/>
<text text-anchor="start" x="40.5" y="-325.2" font-family="Helvetica,sans-Serif" font-size="11.00">id</text>
<polygon fill="#ffffff" stroke="none" points="8.5,-295 8.5,-317 163.5,-317 163.5,-295 8.5,-295"/>
<polygon fill="none" stroke="black" points="8.5,-295 8.5,-317 163.5,-317 163.5,-295 8.5,-295"/>
<text text-anchor="start" x="40.5" y="-303.2" font-family="Helvetica,sans-Serif" font-size="11.00">ems_id</text>
<polygon fill="#ffffff" stroke="none" points="8.5,-273 8.5,-295 163.5,-295 163.5,-273 8.5,-273"/>
<polygon fill="none" stroke="black" points="8.5,-273 8.5,-295 163.5,-295 163.5,-273 8.5,-273"/>
<text text-anchor="start" x="40.5" y="-281.2" font-family="Helvetica,sans-Serif" font-size="11.00">deleted_on</text>
<polygon fill="none" stroke="black" points="8.5,-255 8.5,-273 163.5,-273 163.5,-255 8.5,-255"/>
<text text-anchor="start" x="11.5" y="-261.2" font-family="Helvetica,sans-Serif" font-size="11.00">...</text>
<polygon fill="#ffffff" stroke="none" points="8.5,-237 8.5,-255 74.5,-255 74.5,-237 8.5,-237"/>
<polygon fill="none" stroke="black" points="8.5,-237 8.5,-255 74.5,-255 74.5,-237 8.5,-237"/>
<text text-anchor="start" x="11.5" y="-243.2" font-family="Helvetica,sans-Serif" font-size="11.00"> &#160;</text>
<polygon fill="#ffffff" stroke="none" points="74.5,-237 74.5,-255 113.5,-255 113.5,-237 74.5,-237"/>
<polygon fill="none" stroke="black" points="74.5,-237 74.5,-255 113.5,-255 113.5,-237 74.5,-237"/>
<text text-anchor="start" x="103.5" y="-243.2" font-family="Helvetica,sans-Serif" font-size="11.00"> &#160;</text>
<polygon fill="#ffffff" stroke="none" points="113.5,-237 113.5,-255 163.5,-255 163.5,-237 113.5,-237"/>
<polygon fill="none" stroke="black" points="113.5,-237 113.5,-255 163.5,-255 163.5,-237 113.5,-237"/>
<text text-anchor="start" x="143.5" y="-243.2" font-family="Helvetica,sans-Serif" font-size="11.00">9 &gt;</text>
</a>
</g>
</g>
<!-- container_builds&#45;&gt;container_projects -->
<g id="edge2" class="edge"><title>container_builds:container_project_id:w&#45;&gt;container_projects:id:e</title>
<path fill="none" stroke="black" d="M200.113,-581.573C166.446,-541.535 217.783,-328 164.5,-328"/>
<polygon fill="black" stroke="black" points="206.288,-584.538 211.942,-591.245 209.894,-586.269 213.5,-588 213.5,-588 213.5,-588 209.894,-586.269 215.058,-584.755 206.288,-584.538 206.288,-584.538"/>
<ellipse fill="none" stroke="black" cx="203.403" cy="-583.153" rx="3.20001" ry="3.20001"/>
</g>
<!-- container_groups -->
<g id="node4" class="node"><title>container_groups</title>
<g id="a_node4"><a xlink:href="../../tables/container_groups.html" xlink:title="container_groups" target="_top">
<polygon fill="#ffffff" stroke="none" points="845,-462 845,-520 992,-520 992,-462 845,-462"/>
<polygon fill="#f5f5f5" stroke="none" points="845.5,-498 845.5,-520 992.5,-520 992.5,-498 845.5,-498"/>
<polygon fill="none" stroke="black" points="845.5,-498 845.5,-520 992.5,-520 992.5,-498 845.5,-498"/>
<text text-anchor="start" x="850.5" y="-507.2" font-family="Helvetica,sans-Serif" font-weight="bold" font-size="11.00">container_groups</text>
<text text-anchor="start" x="953.5" y="-506.2" font-family="Helvetica,sans-Serif" font-size="11.00">[table]</text>
<polygon fill="none" stroke="black" points="845.5,-480 845.5,-498 992.5,-498 992.5,-480 845.5,-480"/>
<text text-anchor="start" x="848.5" y="-486.2" font-family="Helvetica,sans-Serif" font-size="11.00">...</text>
<polygon fill="#ffffff" stroke="none" points="845.5,-462 845.5,-480 912.5,-480 912.5,-462 845.5,-462"/>
<polygon fill="none" stroke="black" points="845.5,-462 845.5,-480 912.5,-480 912.5,-462 845.5,-462"/>
<text text-anchor="start" x="848.5" y="-468.2" font-family="Helvetica,sans-Serif" font-size="11.00">&lt; 4</text>
<polygon fill="#ffffff" stroke="none" points="912.5,-462 912.5,-480 947.5,-480 947.5,-462 912.5,-462"/>
<polygon fill="none" stroke="black" points="912.5,-462 912.5,-480 947.5,-480 947.5,-462 912.5,-462"/>
<text text-anchor="start" x="937.5" y="-468.2" font-family="Helvetica,sans-Serif" font-size="11.00"> &#160;</text>
<polygon fill="#ffffff" stroke="none" points="947.5,-462 947.5,-480 992.5,-480 992.5,-462 947.5,-462"/>
<polygon fill="none" stroke="black" points="947.5,-462 947.5,-480 992.5,-480 992.5,-462 947.5,-462"/>
<text text-anchor="start" x="972.5" y="-468.2" font-family="Helvetica,sans-Serif" font-size="11.00">3 &gt;</text>
</a>
</g>
</g>
<!-- container_groups&#45;&gt;container_build_pods -->
<g id="edge3" class="edge"><title>container_groups:elipses:w&#45;&gt;container_build_pods:id:e</title>
<path fill="none" stroke="black" d="M830.156,-490.455C733.805,-512.269 919.182,-772 797,-772"/>
<polygon fill="black" stroke="black" points="836.541,-489.808 844.863,-492.582 840.52,-489.404 844.5,-489 844.5,-489 844.5,-489 840.52,-489.404 844.137,-485.418 836.541,-489.808 836.541,-489.808"/>
<ellipse fill="none" stroke="black" cx="833.357" cy="-490.131" rx="3.2" ry="3.2"/>
</g>
<!-- container_groups&#45;&gt;container_projects -->
<g id="edge4" class="edge"><title>container_groups:elipses:w&#45;&gt;container_projects:id:e</title>
<path fill="none" stroke="black" d="M830.016,-489.179C721.395,-491.293 257.153,-510.631 204,-469 152.765,-428.871 229.579,-328 164.5,-328"/>
<polygon fill="black" stroke="black" points="836.501,-489.099 844.545,-492.6 840.5,-489.05 844.5,-489 844.5,-489 844.5,-489 840.5,-489.05 844.455,-485.4 836.501,-489.099 836.501,-489.099"/>
<ellipse fill="none" stroke="black" cx="833.301" cy="-489.139" rx="3.2" ry="3.2"/>
</g>
<!-- container_replicators -->
<g id="node5" class="node"><title>container_replicators</title>
<g id="a_node5"><a xlink:href="../../tables/container_replicators.html" xlink:title="container_replicators" target="_top">
<polygon fill="#ffffff" stroke="none" points="604.5,-407 604.5,-465 775.5,-465 775.5,-407 604.5,-407"/>
<polygon fill="#f5f5f5" stroke="none" points="605,-443 605,-465 776,-465 776,-443 605,-443"/>
<polygon fill="none" stroke="black" points="605,-443 605,-465 776,-465 776,-443 605,-443"/>
<text text-anchor="start" x="610" y="-452.2" font-family="Helvetica,sans-Serif" font-weight="bold" font-size="11.00">container_replicators</text>
<text text-anchor="start" x="737" y="-451.2" font-family="Helvetica,sans-Serif" font-size="11.00">[table]</text>
<polygon fill="none" stroke="black" points="605,-425 605,-443 776,-443 776,-425 605,-425"/>
<text text-anchor="start" x="608" y="-431.2" font-family="Helvetica,sans-Serif" font-size="11.00">...</text>
<polygon fill="#ffffff" stroke="none" points="605,-407 605,-425 684,-425 684,-407 605,-407"/>
<polygon fill="none" stroke="black" points="605,-407 605,-425 684,-425 684,-407 605,-407"/>
<text text-anchor="start" x="608" y="-413.2" font-family="Helvetica,sans-Serif" font-size="11.00">&lt; 1</text>
<polygon fill="#ffffff" stroke="none" points="684,-407 684,-425 725,-425 725,-407 684,-407"/>
<polygon fill="none" stroke="black" points="684,-407 684,-425 725,-425 725,-407 684,-407"/>
<text text-anchor="start" x="715" y="-413.2" font-family="Helvetica,sans-Serif" font-size="11.00"> &#160;</text>
<polygon fill="#ffffff" stroke="none" points="725,-407 725,-425 776,-425 776,-407 725,-407"/>
<polygon fill="none" stroke="black" points="725,-407 725,-425 776,-425 776,-407 725,-407"/>
<text text-anchor="start" x="756" y="-413.2" font-family="Helvetica,sans-Serif" font-size="11.00">2 &gt;</text>
</a>
</g>
</g>
<!-- container_groups&#45;&gt;container_replicators -->
<g id="edge5" class="edge"><title>container_groups:elipses:w&#45;&gt;container_replicators:elipses:e</title>
<path fill="none" stroke="black" d="M830.162,-485.724C807.669,-473.884 809.954,-434 777,-434"/>
<polygon fill="black" stroke="black" points="836.701,-487.218 843.698,-492.51 840.6,-488.109 844.5,-489 844.5,-489 844.5,-489 840.6,-488.109 845.302,-485.49 836.701,-487.218 836.701,-487.218"/>
<ellipse fill="none" stroke="black" cx="833.581" cy="-486.505" rx="3.2" ry="3.2"/>
</g>
<!-- container_replicators&#45;&gt;container_projects -->
<g id="edge8" class="edge"><title>container_replicators:elipses:w&#45;&gt;container_projects:id:e</title>
<path fill="none" stroke="black" d="M589.402,-435.274C572.979,-438.388 565.086,-446.324 543,-449 468.213,-458.06 264.976,-493.238 204,-449 158.21,-415.78 221.071,-328 164.5,-328"/>
<polygon fill="black" stroke="black" points="596.03,-434.696 604.313,-437.586 600.015,-434.348 604,-434 604,-434 604,-434 600.015,-434.348 603.687,-430.414 596.03,-434.696 596.03,-434.696"/>
<ellipse fill="none" stroke="black" cx="592.842" cy="-434.974" rx="3.2" ry="3.2"/>
</g>
<!-- container_limits -->
<g id="node6" class="node"><title>container_limits</title>
<g id="a_node6"><a xlink:href="../../tables/container_limits.html" xlink:title="container_limits" target="_top">
<polygon fill="#ffffff" stroke="none" points="302.5,-380 302.5,-438 444.5,-438 444.5,-380 302.5,-380"/>
<polygon fill="#f5f5f5" stroke="none" points="302.5,-416 302.5,-438 444.5,-438 444.5,-416 302.5,-416"/>
<polygon fill="none" stroke="black" points="302.5,-416 302.5,-438 444.5,-438 444.5,-416 302.5,-416"/>
<text text-anchor="start" x="307.5" y="-425.2" font-family="Helvetica,sans-Serif" font-weight="bold" font-size="11.00">container_limits</text>
<text text-anchor="start" x="405.5" y="-424.2" font-family="Helvetica,sans-Serif" font-size="11.00">[table]</text>
<polygon fill="none" stroke="black" points="302.5,-398 302.5,-416 444.5,-416 444.5,-398 302.5,-398"/>
<text text-anchor="start" x="305.5" y="-404.2" font-family="Helvetica,sans-Serif" font-size="11.00">...</text>
<polygon fill="#ffffff" stroke="none" points="302.5,-380 302.5,-398 366.5,-398 366.5,-380 302.5,-380"/>
<polygon fill="none" stroke="black" points="302.5,-380 302.5,-398 366.5,-398 366.5,-380 302.5,-380"/>
<text text-anchor="start" x="305.5" y="-386.2" font-family="Helvetica,sans-Serif" font-size="11.00">&lt; 1</text>
<polygon fill="#ffffff" stroke="none" points="366.5,-380 366.5,-398 400.5,-398 400.5,-380 366.5,-380"/>
<polygon fill="none" stroke="black" points="366.5,-380 366.5,-398 400.5,-398 400.5,-380 366.5,-380"/>
<text text-anchor="start" x="390.5" y="-386.2" font-family="Helvetica,sans-Serif" font-size="11.00"> &#160;</text>
<polygon fill="#ffffff" stroke="none" points="400.5,-380 400.5,-398 444.5,-398 444.5,-380 400.5,-380"/>
<polygon fill="none" stroke="black" points="400.5,-380 400.5,-398 444.5,-398 444.5,-380 400.5,-380"/>
<text text-anchor="start" x="424.5" y="-386.2" font-family="Helvetica,sans-Serif" font-size="11.00">1 &gt;</text>
</a>
</g>
</g>
<!-- container_limits&#45;&gt;container_projects -->
<g id="edge6" class="edge"><title>container_limits:elipses:w&#45;&gt;container_projects:id:e</title>
<path fill="none" stroke="black" d="M286.96,-406.563C251.959,-404.268 238.164,-392.844 204,-370 182.698,-355.756 190.125,-328 164.5,-328"/>
<polygon fill="black" stroke="black" points="293.504,-406.759 301.392,-410.598 297.502,-406.88 301.5,-407 301.5,-407 301.5,-407 297.502,-406.88 301.608,-403.402 293.504,-406.759 293.504,-406.759"/>
<ellipse fill="none" stroke="black" cx="290.305" cy="-406.663" rx="3.2" ry="3.2"/>
</g>
<!-- container_quotas -->
<g id="node7" class="node"><title>container_quotas</title>
<g id="a_node7"><a xlink:href="../../tables/container_quotas.html" xlink:title="container_quotas" target="_top">
<polygon fill="#ffffff" stroke="none" points="299.5,-301 299.5,-359 447.5,-359 447.5,-301 299.5,-301"/>
<polygon fill="#f5f5f5" stroke="none" points="299.5,-337 299.5,-359 447.5,-359 447.5,-337 299.5,-337"/>
<polygon fill="none" stroke="black" points="299.5,-337 299.5,-359 447.5,-359 447.5,-337 299.5,-337"/>
<text text-anchor="start" x="304.5" y="-346.2" font-family="Helvetica,sans-Serif" font-weight="bold" font-size="11.00">container_quotas</text>
<text text-anchor="start" x="408.5" y="-345.2" font-family="Helvetica,sans-Serif" font-size="11.00">[table]</text>
<polygon fill="none" stroke="black" points="299.5,-319 299.5,-337 447.5,-337 447.5,-319 299.5,-319"/>
<text text-anchor="start" x="302.5" y="-325.2" font-family="Helvetica,sans-Serif" font-size="11.00">...</text>
<polygon fill="#ffffff" stroke="none" points="299.5,-301 299.5,-319 366.5,-319 366.5,-301 299.5,-301"/>
<polygon fill="none" stroke="black" points="299.5,-301 299.5,-319 366.5,-319 366.5,-301 299.5,-301"/>
<text text-anchor="start" x="302.5" y="-307.2" font-family="Helvetica,sans-Serif" font-size="11.00">&lt; 1</text>
<polygon fill="#ffffff" stroke="none" points="366.5,-301 366.5,-319 401.5,-319 401.5,-301 366.5,-301"/>
<polygon fill="none" stroke="black" points="366.5,-301 366.5,-319 401.5,-319 401.5,-301 366.5,-301"/>
<text text-anchor="start" x="391.5" y="-307.2" font-family="Helvetica,sans-Serif" font-size="11.00"> &#160;</text>
<polygon fill="#ffffff" stroke="none" points="401.5,-301 401.5,-319 447.5,-319 447.5,-301 401.5,-301"/>
<polygon fill="none" stroke="black" points="401.5,-301 401.5,-319 447.5,-319 447.5,-301 401.5,-301"/>
<text text-anchor="start" x="427.5" y="-307.2" font-family="Helvetica,sans-Serif" font-size="11.00">2 &gt;</text>
</a>
</g>
</g>
<!-- container_quotas&#45;&gt;container_projects -->
<g id="edge7" class="edge"><title>container_quotas:elipses:w&#45;&gt;container_projects:id:e</title>
<path fill="none" stroke="black" d="M284.079,-328C236.056,-328 218.938,-328 164.5,-328"/>
<polygon fill="black" stroke="black" points="290.5,-328 298.5,-331.6 294.5,-328 298.5,-328 298.5,-328 298.5,-328 294.5,-328 298.5,-324.4 290.5,-328 290.5,-328"/>
<ellipse fill="none" stroke="black" cx="287.3" cy="-328" rx="3.2" ry="3.2"/>
</g>
<!-- container_routes -->
<g id="node8" class="node"><title>container_routes</title>
<g id="a_node8"><a xlink:href="../../tables/container_routes.html" xlink:title="container_routes" target="_top">
<polygon fill="#ffffff" stroke="none" points="617.5,-223 617.5,-281 762.5,-281 762.5,-223 617.5,-223"/>
<polygon fill="#f5f5f5" stroke="none" points="618,-259 618,-281 763,-281 763,-259 618,-259"/>
<polygon fill="none" stroke="black" points="618,-259 618,-281 763,-281 763,-259 618,-259"/>
<text text-anchor="start" x="623" y="-268.2" font-family="Helvetica,sans-Serif" font-weight="bold" font-size="11.00">container_routes</text>
<text text-anchor="start" x="724" y="-267.2" font-family="Helvetica,sans-Serif" font-size="11.00">[table]</text>
<polygon fill="none" stroke="black" points="618,-241 618,-259 763,-259 763,-241 618,-241"/>
<text text-anchor="start" x="621" y="-247.2" font-family="Helvetica,sans-Serif" font-size="11.00">...</text>
<polygon fill="#ffffff" stroke="none" points="618,-223 618,-241 689,-241 689,-223 618,-223"/>
<polygon fill="none" stroke="black" points="618,-223 618,-241 689,-241 689,-223 618,-223"/>
<text text-anchor="start" x="621" y="-229.2" font-family="Helvetica,sans-Serif" font-size="11.00">&lt; 2</text>
<polygon fill="#ffffff" stroke="none" points="689,-223 689,-241 726,-241 726,-223 689,-223"/>
<polygon fill="none" stroke="black" points="689,-223 689,-241 726,-241 726,-223 689,-223"/>
<text text-anchor="start" x="716" y="-229.2" font-family="Helvetica,sans-Serif" font-size="11.00"> &#160;</text>
<polygon fill="#ffffff" stroke="none" points="726,-223 726,-241 763,-241 763,-223 726,-223"/>
<polygon fill="none" stroke="black" points="726,-223 726,-241 763,-241 763,-223 726,-223"/>
<text text-anchor="start" x="753" y="-229.2" font-family="Helvetica,sans-Serif" font-size="11.00"> &#160;</text>
</a>
</g>
</g>
<!-- container_routes&#45;&gt;container_projects -->
<g id="edge9" class="edge"><title>container_routes:elipses:w&#45;&gt;container_projects:id:e</title>
<path fill="none" stroke="black" d="M602.429,-250.65C580.462,-252.758 570.69,-259.473 543,-263 468.034,-272.549 272.918,-258.994 204,-290 181.784,-299.995 188.86,-328 164.5,-328"/>
<polygon fill="black" stroke="black" points="609.008,-250.357 617.16,-253.596 613.004,-250.178 617,-250 617,-250 617,-250 613.004,-250.178 616.84,-246.404 609.008,-250.357 609.008,-250.357"/>
<ellipse fill="none" stroke="black" cx="605.811" cy="-250.499" rx="3.2" ry="3.2"/>
</g>
<!-- container_services -->
<g id="node9" class="node"><title>container_services</title>
<g id="a_node9"><a xlink:href="../../tables/container_services.html" xlink:title="container_services" target="_top">
<polygon fill="#ffffff" stroke="none" points="296.5,-195 296.5,-253 450.5,-253 450.5,-195 296.5,-195"/>
<polygon fill="#f5f5f5" stroke="none" points="296.5,-231 296.5,-253 450.5,-253 450.5,-231 296.5,-231"/>
<polygon fill="none" stroke="black" points="296.5,-231 296.5,-253 450.5,-253 450.5,-231 296.5,-231"/>
<text text-anchor="start" x="301.5" y="-240.2" font-family="Helvetica,sans-Serif" font-weight="bold" font-size="11.00">container_services</text>
<text text-anchor="start" x="411.5" y="-239.2" font-family="Helvetica,sans-Serif" font-size="11.00">[table]</text>
<polygon fill="none" stroke="black" points="296.5,-213 296.5,-231 450.5,-231 450.5,-213 296.5,-213"/>
<text text-anchor="start" x="299.5" y="-219.2" font-family="Helvetica,sans-Serif" font-size="11.00">...</text>
<polygon fill="#ffffff" stroke="none" points="296.5,-195 296.5,-213 366.5,-213 366.5,-195 296.5,-195"/>
<polygon fill="none" stroke="black" points="296.5,-195 296.5,-213 366.5,-213 366.5,-195 296.5,-195"/>
<text text-anchor="start" x="299.5" y="-201.2" font-family="Helvetica,sans-Serif" font-size="11.00">&lt; 2</text>
<polygon fill="#ffffff" stroke="none" points="366.5,-195 366.5,-213 403.5,-213 403.5,-195 366.5,-195"/>
<polygon fill="none" stroke="black" points="366.5,-195 366.5,-213 403.5,-213 403.5,-195 366.5,-195"/>
<text text-anchor="start" x="393.5" y="-201.2" font-family="Helvetica,sans-Serif" font-size="11.00"> &#160;</text>
<polygon fill="#ffffff" stroke="none" points="403.5,-195 403.5,-213 450.5,-213 450.5,-195 403.5,-195"/>
<polygon fill="none" stroke="black" points="403.5,-195 403.5,-213 450.5,-213 450.5,-195 403.5,-195"/>
<text text-anchor="start" x="430.5" y="-201.2" font-family="Helvetica,sans-Serif" font-size="11.00">3 &gt;</text>
</a>
</g>
</g>
<!-- container_routes&#45;&gt;container_services -->
<g id="edge10" class="edge"><title>container_routes:elipses:w&#45;&gt;container_services:elipses:e</title>
<path fill="none" stroke="black" d="M602.481,-249.625C539.898,-246.303 521.001,-222 451.5,-222"/>
<polygon fill="black" stroke="black" points="609.003,-249.794 616.907,-253.599 613.001,-249.897 617,-250 617,-250 617,-250 613.001,-249.897 617.093,-246.401 609.003,-249.794 609.003,-249.794"/>
<ellipse fill="none" stroke="black" cx="605.804" cy="-249.711" rx="3.2" ry="3.2"/>
</g>
<!-- container_services&#45;&gt;container_projects -->
<g id="edge11" class="edge"><title>container_services:elipses:w&#45;&gt;container_projects:id:e</title>
<path fill="none" stroke="black" d="M280.84,-222.614C247,-225.699 233.903,-240.421 204,-267 179.859,-288.457 196.799,-328 164.5,-328"/>
<polygon fill="black" stroke="black" points="287.507,-222.335 295.651,-225.597 291.504,-222.167 295.5,-222 295.5,-222 295.5,-222 291.504,-222.167 295.349,-218.403 287.507,-222.335 287.507,-222.335"/>
<ellipse fill="none" stroke="black" cx="284.31" cy="-222.469" rx="3.2" ry="3.2"/>
</g>
<!-- container_templates -->
<g id="node10" class="node"><title>container_templates</title>
<g id="a_node10"><a xlink:href="../../tables/container_templates.html" xlink:title="container_templates" target="_top">
<polygon fill="#ffffff" stroke="none" points="290,-116 290,-174 457,-174 457,-116 290,-116"/>
<polygon fill="#f5f5f5" stroke="none" points="290.5,-152 290.5,-174 457.5,-174 457.5,-152 290.5,-152"/>
<polygon fill="none" stroke="black" points="290.5,-152 290.5,-174 457.5,-174 457.5,-152 290.5,-152"/>
<text text-anchor="start" x="295.5" y="-161.2" font-family="Helvetica,sans-Serif" font-weight="bold" font-size="11.00">container_templates</text>
<text text-anchor="start" x="418.5" y="-160.2" font-family="Helvetica,sans-Serif" font-size="11.00">[table]</text>
<polygon fill="none" stroke="black" points="290.5,-134 290.5,-152 457.5,-152 457.5,-134 290.5,-134"/>
<text text-anchor="start" x="293.5" y="-140.2" font-family="Helvetica,sans-Serif" font-size="11.00">...</text>
<polygon fill="#ffffff" stroke="none" points="290.5,-116 290.5,-134 367.5,-134 367.5,-116 290.5,-116"/>
<polygon fill="none" stroke="black" points="290.5,-116 290.5,-134 367.5,-134 367.5,-116 290.5,-116"/>
<text text-anchor="start" x="293.5" y="-122.2" font-family="Helvetica,sans-Serif" font-size="11.00">&lt; 1</text>
<polygon fill="#ffffff" stroke="none" points="367.5,-116 367.5,-134 407.5,-134 407.5,-116 367.5,-116"/>
<polygon fill="none" stroke="black" points="367.5,-116 367.5,-134 407.5,-134 407.5,-116 367.5,-116"/>
<text text-anchor="start" x="397.5" y="-122.2" font-family="Helvetica,sans-Serif" font-size="11.00"> &#160;</text>
<polygon fill="#ffffff" stroke="none" points="407.5,-116 407.5,-134 457.5,-134 457.5,-116 407.5,-116"/>
<polygon fill="none" stroke="black" points="407.5,-116 407.5,-134 457.5,-134 457.5,-116 407.5,-116"/>
<text text-anchor="start" x="437.5" y="-122.2" font-family="Helvetica,sans-Serif" font-size="11.00">1 &gt;</text>
</a>
</g>
</g>
<!-- container_templates&#45;&gt;container_projects -->
<g id="edge12" class="edge"><title>container_templates:elipses:w&#45;&gt;container_projects:id:e</title>
<path fill="none" stroke="black" d="M274.834,-143.435C243.104,-145.533 227.634,-155.694 204,-184 161.466,-234.942 230.864,-328 164.5,-328"/>
<polygon fill="black" stroke="black" points="281.504,-143.237 289.607,-146.598 285.502,-143.119 289.5,-143 289.5,-143 289.5,-143 285.502,-143.119 289.393,-139.402 281.504,-143.237 281.504,-143.237"/>
<ellipse fill="none" stroke="black" cx="278.305" cy="-143.332" rx="3.2" ry="3.2"/>
</g>
<!-- persistent_volume_claims -->
<g id="node11" class="node"><title>persistent_volume_claims</title>
<g id="a_node11"><a xlink:href="../../tables/persistent_volume_claims.html" xlink:title="persistent_volume_claims" target="_top">
<polygon fill="#ffffff" stroke="none" points="275.5,-37 275.5,-95 471.5,-95 471.5,-37 275.5,-37"/>
<polygon fill="#f5f5f5" stroke="none" points="275.5,-73 275.5,-95 471.5,-95 471.5,-73 275.5,-73"/>
<polygon fill="none" stroke="black" points="275.5,-73 275.5,-95 471.5,-95 471.5,-73 275.5,-73"/>
<text text-anchor="start" x="280.5" y="-82.2" font-family="Helvetica,sans-Serif" font-weight="bold" font-size="11.00">persistent_volume_claims</text>
<text text-anchor="start" x="432.5" y="-81.2" font-family="Helvetica,sans-Serif" font-size="11.00">[table]</text>
<polygon fill="none" stroke="black" points="275.5,-55 275.5,-73 471.5,-73 471.5,-55 275.5,-55"/>
<text text-anchor="start" x="278.5" y="-61.2" font-family="Helvetica,sans-Serif" font-size="11.00">...</text>
<polygon fill="#ffffff" stroke="none" points="275.5,-37 275.5,-55 366.5,-55 366.5,-37 275.5,-37"/>
<polygon fill="none" stroke="black" points="275.5,-37 275.5,-55 366.5,-55 366.5,-37 275.5,-37"/>
<text text-anchor="start" x="278.5" y="-43.2" font-family="Helvetica,sans-Serif" font-size="11.00">&lt; 1</text>
<polygon fill="#ffffff" stroke="none" points="366.5,-37 366.5,-55 413.5,-55 413.5,-37 366.5,-37"/>
<polygon fill="none" stroke="black" points="366.5,-37 366.5,-55 413.5,-55 413.5,-37 366.5,-37"/>
<text text-anchor="start" x="403.5" y="-43.2" font-family="Helvetica,sans-Serif" font-size="11.00"> &#160;</text>
<polygon fill="#ffffff" stroke="none" points="413.5,-37 413.5,-55 471.5,-55 471.5,-37 413.5,-37"/>
<polygon fill="none" stroke="black" points="413.5,-37 413.5,-55 471.5,-55 471.5,-37 413.5,-37"/>
<text text-anchor="start" x="451.5" y="-43.2" font-family="Helvetica,sans-Serif" font-size="11.00">1 &gt;</text>
</a>
</g>
</g>
<!-- persistent_volume_claims&#45;&gt;container_projects -->
<g id="edge13" class="edge"><title>persistent_volume_claims:elipses:w&#45;&gt;container_projects:id:e</title>
<path fill="none" stroke="black" d="M259.764,-64.7692C234.086,-67.756 221.674,-79.6948 204,-105 175.183,-146.26 214.827,-328 164.5,-328"/>
<polygon fill="black" stroke="black" points="266.511,-64.4171 274.688,-67.5951 270.505,-64.2086 274.5,-64 274.5,-64 274.5,-64 270.505,-64.2086 274.312,-60.4049 266.511,-64.4171 266.511,-64.4171"/>
<ellipse fill="none" stroke="black" cx="263.315" cy="-64.584" rx="3.2" ry="3.2"/>
</g>
</g>
</svg>
