<?xml version="1.0" encoding="UTF-8" standalone="no"?>
<!DOCTYPE svg PUBLIC "-//W3C//DTD SVG 1.1//EN"
 "http://www.w3.org/Graphics/SVG/1.1/DTD/svg11.dtd">
<!-- Generated by graphviz version 2.38.0 (20140413.2041)
 -->
<!-- Title: oneDegreeRelationshipsDiagram Pages: 1 -->
<svg width="743pt" height="1053pt"
 viewBox="0.00 0.00 743.00 1053.00" xmlns="http://www.w3.org/2000/svg" xmlns:xlink="http://www.w3.org/1999/xlink">
<g id="graph0" class="graph" transform="scale(1 1) rotate(0) translate(4 1049)">
<title>oneDegreeRelationshipsDiagram</title>
<polygon fill="#ffffff" stroke="none" points="-4,4 -4,-1049 739,-1049 739,4 -4,4"/>
<text text-anchor="middle" x="74.5" y="-7.2" font-family="Helvetica,sans-Serif" font-size="11.00">Generated by SchemaSpy</text>
<!-- container_builds -->
<g id="node1" class="node"><title>container_builds</title>
<g id="a_node1"><a xlink:href="../../tables/container_builds.html" xlink:title="container_builds" target="_top">
<polygon fill="#ffffff" stroke="none" points="314,-917 314,-1041 512,-1041 512,-917 314,-917"/>
<polygon fill="#f5f5f5" stroke="none" points="314,-1019 314,-1041 512,-1041 512,-1019 314,-1019"/>
<polygon fill="none" stroke="black" points="314,-1019 314,-1041 512,-1041 512,-1019 314,-1019"/>
<text text-anchor="start" x="319" y="-1028.2" font-family="Helvetica,sans-Serif" font-weight="bold" font-size="11.00">container_builds</text>
<text text-anchor="start" x="473" y="-1027.2" font-family="Helvetica,sans-Serif" font-size="11.00">[table]</text>
<polygon fill="none" stroke="black" points="314,-997 314,-1019 512,-1019 512,-997 314,-997"/>
<image xlink:href="../../images/primaryKeys.png" width="11px" height="12px" preserveAspectRatio="xMinYMin meet" x="319" y="-1014"/>
<text text-anchor="start" x="334" y="-1005.2" font-family="Helvetica,sans-Serif" font-size="11.00">id</text>
<polygon fill="none" stroke="black" points="314,-975 314,-997 512,-997 512,-975 314,-975"/>
<image xlink:href="../../images/foreignKeys.png" width="11px" height="12px" preserveAspectRatio="xMinYMin meet" x="319" y="-992"/>
<text text-anchor="start" x="334" y="-983.2" font-family="Helvetica,sans-Serif" font-size="11.00">container_project_id</text>
<polygon fill="#ffffff" stroke="none" points="314,-953 314,-975 512,-975 512,-953 314,-953"/>
<polygon fill="none" stroke="black" points="314,-953 314,-975 512,-975 512,-953 314,-953"/>
<text text-anchor="start" x="334" y="-961.2" font-family="Helvetica,sans-Serif" font-size="11.00">ems_id</text>
<polygon fill="none" stroke="black" points="314,-935 314,-953 512,-953 512,-935 314,-935"/>
<text text-anchor="start" x="317" y="-941.2" font-family="Helvetica,sans-Serif" font-size="11.00">...</text>
<polygon fill="#ffffff" stroke="none" points="314,-917 314,-935 406,-935 406,-917 314,-917"/>
<polygon fill="none" stroke="black" points="314,-917 314,-935 406,-935 406,-917 314,-917"/>
<text text-anchor="start" x="317" y="-923.2" font-family="Helvetica,sans-Serif" font-size="11.00">&lt; 1</text>
<polygon fill="#ffffff" stroke="none" points="406,-917 406,-935 454,-935 454,-917 406,-917"/>
<polygon fill="none" stroke="black" points="406,-917 406,-935 454,-935 454,-917 406,-917"/>
<text text-anchor="start" x="444" y="-923.2" font-family="Helvetica,sans-Serif" font-size="11.00"> &#160;</text>
<polygon fill="#ffffff" stroke="none" points="454,-917 454,-935 512,-935 512,-917 454,-917"/>
<polygon fill="none" stroke="black" points="454,-917 454,-935 512,-935 512,-917 454,-917"/>
<text text-anchor="start" x="492" y="-923.2" font-family="Helvetica,sans-Serif" font-size="11.00">1 &gt;</text>
</a>
</g>
</g>
<!-- container_projects -->
<g id="node2" class="node"><title>container_projects</title>
<g id="a_node2"><a xlink:href="../../tables/container_projects.html" xlink:title="container_projects" target="_top">
<polygon fill="#ffffff" stroke="none" points="8,-361 8,-603 265,-603 265,-361 8,-361"/>
<polygon fill="#f5f5f5" stroke="none" points="10.5,-579 10.5,-601 263.5,-601 263.5,-579 10.5,-579"/>
<polygon fill="none" stroke="black" points="10.5,-579 10.5,-601 263.5,-601 263.5,-579 10.5,-579"/>
<text text-anchor="start" x="15.5" y="-588.2" font-family="Helvetica,sans-Serif" font-weight="bold" font-size="11.00">container_projects</text>
<text text-anchor="start" x="224.5" y="-587.2" font-family="Helvetica,sans-Serif" font-size="11.00">[table]</text>
<polygon fill="none" stroke="black" points="10.5,-557 10.5,-579 142.5,-579 142.5,-557 10.5,-557"/>
<image xlink:href="../../images/primaryKeys.png" width="11px" height="12px" preserveAspectRatio="xMinYMin meet" x="15.5" y="-574"/>
<text text-anchor="start" x="30.5" y="-565.2" font-family="Helvetica,sans-Serif" font-size="11.00">id</text>
<polygon fill="none" stroke="black" points="142.5,-557 142.5,-579 263.5,-579 263.5,-557 142.5,-557"/>
<text text-anchor="start" x="145.5" y="-565.2" font-family="Helvetica,sans-Serif" font-size="11.00">bigserial[19]</text>
<polygon fill="none" stroke="black" points="10.5,-535 10.5,-557 142.5,-557 142.5,-535 10.5,-535"/>
<text text-anchor="start" x="30.5" y="-543.2" font-family="Helvetica,sans-Serif" font-size="11.00">ems_ref</text>
<polygon fill="none" stroke="black" points="142.5,-535 142.5,-557 263.5,-557 263.5,-535 142.5,-535"/>
<text text-anchor="start" x="145.5" y="-543.2" font-family="Helvetica,sans-Serif" font-size="11.00">varchar[2147483647]</text>
<polygon fill="none" stroke="black" points="10.5,-513 10.5,-535 142.5,-535 142.5,-513 10.5,-513"/>
<text text-anchor="start" x="30.5" y="-521.2" font-family="Helvetica,sans-Serif" font-size="11.00">name</text>
<polygon fill="none" stroke="black" points="142.5,-513 142.5,-535 263.5,-535 263.5,-513 142.5,-513"/>
<text text-anchor="start" x="145.5" y="-521.2" font-family="Helvetica,sans-Serif" font-size="11.00">varchar[2147483647]</text>
<polygon fill="none" stroke="black" points="10.5,-491 10.5,-513 142.5,-513 142.5,-491 10.5,-491"/>
<text text-anchor="start" x="30.5" y="-499.2" font-family="Helvetica,sans-Serif" font-size="11.00">ems_created_on</text>
<polygon fill="none" stroke="black" points="142.5,-491 142.5,-513 263.5,-513 263.5,-491 142.5,-491"/>
<text text-anchor="start" x="145.5" y="-499.2" font-family="Helvetica,sans-Serif" font-size="11.00">timestamp[29,6]</text>
<polygon fill="none" stroke="black" points="10.5,-469 10.5,-491 142.5,-491 142.5,-469 10.5,-469"/>
<text text-anchor="start" x="30.5" y="-477.2" font-family="Helvetica,sans-Serif" font-size="11.00">resource_version</text>
<polygon fill="none" stroke="black" points="142.5,-469 142.5,-491 263.5,-491 263.5,-469 142.5,-469"/>
<text text-anchor="start" x="145.5" y="-477.2" font-family="Helvetica,sans-Serif" font-size="11.00">varchar[2147483647]</text>
<polygon fill="none" stroke="black" points="10.5,-447 10.5,-469 142.5,-469 142.5,-447 10.5,-447"/>
<text text-anchor="start" x="30.5" y="-455.2" font-family="Helvetica,sans-Serif" font-size="11.00">display_name</text>
<polygon fill="none" stroke="black" points="142.5,-447 142.5,-469 263.5,-469 263.5,-447 142.5,-447"/>
<text text-anchor="start" x="145.5" y="-455.2" font-family="Helvetica,sans-Serif" font-size="11.00">varchar[2147483647]</text>
<polygon fill="#ffffff" stroke="none" points="10.5,-425 10.5,-447 142.5,-447 142.5,-425 10.5,-425"/>
<polygon fill="none" stroke="black" points="10.5,-425 10.5,-447 142.5,-447 142.5,-425 10.5,-425"/>
<text text-anchor="start" x="30.5" y="-433.2" font-family="Helvetica,sans-Serif" font-size="11.00">ems_id</text>
<polygon fill="none" stroke="black" points="142.5,-425 142.5,-447 263.5,-447 263.5,-425 142.5,-425"/>
<text text-anchor="start" x="145.5" y="-433.2" font-family="Helvetica,sans-Serif" font-size="11.00">int8[19]</text>
<polygon fill="none" stroke="black" points="10.5,-403 10.5,-425 142.5,-425 142.5,-403 10.5,-403"/>
<text text-anchor="start" x="30.5" y="-411.2" font-family="Helvetica,sans-Serif" font-size="11.00">created_on</text>
<polygon fill="none" stroke="black" points="142.5,-403 142.5,-425 263.5,-425 263.5,-403 142.5,-403"/>
<text text-anchor="start" x="145.5" y="-411.2" font-family="Helvetica,sans-Serif" font-size="11.00">timestamp[29,6]</text>
<polygon fill="#ffffff" stroke="none" points="10.5,-381 10.5,-403 142.5,-403 142.5,-381 10.5,-381"/>
<polygon fill="none" stroke="black" points="10.5,-381 10.5,-403 142.5,-403 142.5,-381 10.5,-381"/>
<text text-anchor="start" x="30.5" y="-389.2" font-family="Helvetica,sans-Serif" font-size="11.00">deleted_on</text>
<polygon fill="none" stroke="black" points="142.5,-381 142.5,-403 263.5,-403 263.5,-381 142.5,-381"/>
<text text-anchor="start" x="145.5" y="-389.2" font-family="Helvetica,sans-Serif" font-size="11.00">timestamp[29,6]</text>
<polygon fill="#ffffff" stroke="none" points="10.5,-363 10.5,-381 81.5,-381 81.5,-363 10.5,-363"/>
<polygon fill="none" stroke="black" points="10.5,-363 10.5,-381 81.5,-381 81.5,-363 10.5,-363"/>
<text text-anchor="start" x="13.5" y="-369.2" font-family="Helvetica,sans-Serif" font-size="11.00">&lt; 0</text>
<polygon fill="#ffffff" stroke="none" points="81.5,-363 81.5,-381 142.5,-381 142.5,-363 81.5,-363"/>
<polygon fill="none" stroke="black" points="81.5,-363 81.5,-381 142.5,-381 142.5,-363 81.5,-363"/>
<text text-anchor="start" x="132.5" y="-369.2" font-family="Helvetica,sans-Serif" font-size="11.00"> &#160;</text>
<polygon fill="#ffffff" stroke="none" points="142.5,-363 142.5,-381 263.5,-381 263.5,-363 142.5,-363"/>
<polygon fill="none" stroke="black" points="142.5,-363 142.5,-381 263.5,-381 263.5,-363 142.5,-363"/>
<text text-anchor="start" x="243.5" y="-369.2" font-family="Helvetica,sans-Serif" font-size="11.00">9 &gt;</text>
<polygon fill="none" stroke="black" stroke-width="2" points="9,-362 9,-602 264,-602 264,-362 9,-362"/>
</a>
</g>
</g>
<!-- container_builds&#45;&gt;container_projects -->
<g id="edge1" class="edge"><title>container_builds:container_project_id:w&#45;&gt;container_projects:id.type:e</title>
<path fill="none" stroke="black" d="M298.859,-981.863C234.925,-938.451 352.533,-568 264.5,-568"/>
<polygon fill="black" stroke="black" points="305.322,-983.754 311.989,-989.455 309.161,-984.877 313,-986 313,-986 313,-986 309.161,-984.877 314.011,-982.545 305.322,-983.754 305.322,-983.754"/>
<ellipse fill="none" stroke="black" cx="302.251" cy="-982.855" rx="3.20001" ry="3.20001"/>
</g>
<!-- container_groups -->
<g id="node3" class="node"><title>container_groups</title>
<g id="a_node3"><a xlink:href="../../tables/container_groups.html" xlink:title="container_groups" target="_top">
<polygon fill="#ffffff" stroke="none" points="561,-703 561,-937 727,-937 727,-703 561,-703"/>
<polygon fill="#f5f5f5" stroke="none" points="561,-915 561,-937 727,-937 727,-915 561,-915"/>
<polygon fill="none" stroke="black" points="561,-915 561,-937 727,-937 727,-915 561,-915"/>
<text text-anchor="start" x="566" y="-924.2" font-family="Helvetica,sans-Serif" font-weight="bold" font-size="11.00">container_groups</text>
<text text-anchor="start" x="688" y="-923.2" font-family="Helvetica,sans-Serif" font-size="11.00">[table]</text>
<polygon fill="none" stroke="black" points="561,-893 561,-915 727,-915 727,-893 561,-893"/>
<image xlink:href="../../images/primaryKeys.png" width="11px" height="12px" preserveAspectRatio="xMinYMin meet" x="566" y="-910"/>
<text text-anchor="start" x="581" y="-901.2" font-family="Helvetica,sans-Serif" font-size="11.00">id</text>
<polygon fill="#ffffff" stroke="none" points="561,-871 561,-893 727,-893 727,-871 561,-871"/>
<polygon fill="none" stroke="black" points="561,-871 561,-893 727,-893 727,-871 561,-871"/>
<text text-anchor="start" x="581" y="-879.2" font-family="Helvetica,sans-Serif" font-size="11.00">ems_id</text>
<polygon fill="none" stroke="black" points="561,-849 561,-871 727,-871 727,-849 561,-849"/>
<image xlink:href="../../images/foreignKeys.png" width="11px" height="12px" preserveAspectRatio="xMinYMin meet" x="566" y="-866"/>
<text text-anchor="start" x="581" y="-857.2" font-family="Helvetica,sans-Serif" font-size="11.00">container_node_id</text>
<polygon fill="none" stroke="black" points="561,-827 561,-849 727,-849 727,-827 561,-827"/>
<image xlink:href="../../images/foreignKeys.png" width="11px" height="12px" preserveAspectRatio="xMinYMin meet" x="566" y="-844"/>
<text text-anchor="start" x="581" y="-835.2" font-family="Helvetica,sans-Serif" font-size="11.00">container_replicator_id</text>
<polygon fill="#ffffff" stroke="none" points="561,-805 561,-827 727,-827 727,-805 561,-805"/>
<polygon fill="none" stroke="black" points="561,-805 561,-827 727,-827 727,-805 561,-805"/>
<text text-anchor="start" x="581" y="-813.2" font-family="Helvetica,sans-Serif" font-size="11.00">type</text>
<polygon fill="none" stroke="black" points="561,-783 561,-805 727,-805 727,-783 561,-783"/>
<image xlink:href="../../images/foreignKeys.png" width="11px" height="12px" preserveAspectRatio="xMinYMin meet" x="566" y="-800"/>
<text text-anchor="start" x="581" y="-791.2" font-family="Helvetica,sans-Serif" font-size="11.00">container_project_id</text>
<polygon fill="none" stroke="black" points="561,-761 561,-783 727,-783 727,-761 561,-761"/>
<image xlink:href="../../images/foreignKeys.png" width="11px" height="12px" preserveAspectRatio="xMinYMin meet" x="566" y="-778"/>
<text text-anchor="start" x="581" y="-769.2" font-family="Helvetica,sans-Serif" font-size="11.00">container_build_pod_id</text>
<polygon fill="#ffffff" stroke="none" points="561,-739 561,-761 727,-761 727,-739 561,-739"/>
<polygon fill="none" stroke="black" points="561,-739 561,-761 727,-761 727,-739 561,-739"/>
<text text-anchor="start" x="581" y="-747.2" font-family="Helvetica,sans-Serif" font-size="11.00">deleted_on</text>
<polygon fill="none" stroke="black" points="561,-721 561,-739 727,-739 727,-721 561,-721"/>
<text text-anchor="start" x="564" y="-727.2" font-family="Helvetica,sans-Serif" font-size="11.00">...</text>
<polygon fill="#ffffff" stroke="none" points="561,-703 561,-721 637,-721 637,-703 561,-703"/>
<polygon fill="none" stroke="black" points="561,-703 561,-721 637,-721 637,-703 561,-703"/>
<text text-anchor="start" x="564" y="-709.2" font-family="Helvetica,sans-Serif" font-size="11.00">&lt; 4</text>
<polygon fill="#ffffff" stroke="none" points="637,-703 637,-721 677,-721 677,-703 637,-703"/>
<polygon fill="none" stroke="black" points="637,-703 637,-721 677,-721 677,-703 637,-703"/>
<text text-anchor="start" x="667" y="-709.2" font-family="Helvetica,sans-Serif" font-size="11.00"> &#160;</text>
<polygon fill="#ffffff" stroke="none" points="677,-703 677,-721 727,-721 727,-703 677,-703"/>
<polygon fill="none" stroke="black" points="677,-703 677,-721 727,-721 727,-703 677,-703"/>
<text text-anchor="start" x="707" y="-709.2" font-family="Helvetica,sans-Serif" font-size="11.00">3 &gt;</text>
</a>
</g>
</g>
<!-- container_groups&#45;&gt;container_projects -->
<g id="edge2" class="edge"><title>container_groups:container_project_id:w&#45;&gt;container_projects:id.type:e</title>
<path fill="none" stroke="black" d="M545.672,-792.209C537.726,-790.002 532.101,-786.268 520,-784 472.887,-775.172 341.394,-789.323 306,-757 242.495,-699.006 350.501,-568 264.5,-568"/>
<polygon fill="black" stroke="black" points="552.062,-793.008 559.553,-797.572 556.031,-793.504 560,-794 560,-794 560,-794 556.031,-793.504 560.447,-790.428 552.062,-793.008 552.062,-793.008"/>
<ellipse fill="none" stroke="black" cx="548.886" cy="-792.611" rx="3.2" ry="3.2"/>
</g>
<!-- container_replicators -->
<g id="node4" class="node"><title>container_replicators</title>
<g id="a_node4"><a xlink:href="../../tables/container_replicators.html" xlink:title="container_replicators" target="_top">
<polygon fill="#ffffff" stroke="none" points="327.5,-794 327.5,-896 498.5,-896 498.5,-794 327.5,-794"/>
<polygon fill="#f5f5f5" stroke="none" points="328,-874 328,-896 499,-896 499,-874 328,-874"/>
<polygon fill="none" stroke="black" points="328,-874 328,-896 499,-896 499,-874 328,-874"/>
<text text-anchor="start" x="333" y="-883.2" font-family="Helvetica,sans-Serif" font-weight="bold" font-size="11.00">container_replicators</text>
<text text-anchor="start" x="460" y="-882.2" font-family="Helvetica,sans-Serif" font-size="11.00">[table]</text>
<polygon fill="none" stroke="black" points="328,-852 328,-874 499,-874 499,-852 328,-852"/>
<image xlink:href="../../images/primaryKeys.png" width="11px" height="12px" preserveAspectRatio="xMinYMin meet" x="333" y="-869"/>
<text text-anchor="start" x="360" y="-860.2" font-family="Helvetica,sans-Serif" font-size="11.00">id</text>
<polygon fill="none" stroke="black" points="328,-830 328,-852 499,-852 499,-830 328,-830"/>
<image xlink:href="../../images/foreignKeys.png" width="11px" height="12px" preserveAspectRatio="xMinYMin meet" x="333" y="-847"/>
<text text-anchor="start" x="360" y="-838.2" font-family="Helvetica,sans-Serif" font-size="11.00">container_project_id</text>
<polygon fill="none" stroke="black" points="328,-812 328,-830 499,-830 499,-812 328,-812"/>
<text text-anchor="start" x="331" y="-818.2" font-family="Helvetica,sans-Serif" font-size="11.00">...</text>
<polygon fill="#ffffff" stroke="none" points="328,-794 328,-812 407,-812 407,-794 328,-794"/>
<polygon fill="none" stroke="black" points="328,-794 328,-812 407,-812 407,-794 328,-794"/>
<text text-anchor="start" x="331" y="-800.2" font-family="Helvetica,sans-Serif" font-size="11.00">&lt; 1</text>
<polygon fill="#ffffff" stroke="none" points="407,-794 407,-812 448,-812 448,-794 407,-794"/>
<polygon fill="none" stroke="black" points="407,-794 407,-812 448,-812 448,-794 407,-794"/>
<text text-anchor="start" x="438" y="-800.2" font-family="Helvetica,sans-Serif" font-size="11.00"> &#160;</text>
<polygon fill="#ffffff" stroke="none" points="448,-794 448,-812 499,-812 499,-794 448,-794"/>
<polygon fill="none" stroke="black" points="448,-794 448,-812 499,-812 499,-794 448,-794"/>
<text text-anchor="start" x="479" y="-800.2" font-family="Helvetica,sans-Serif" font-size="11.00">2 &gt;</text>
</a>
</g>
</g>
<!-- container_groups&#45;&gt;container_replicators -->
<g id="edge3" class="edge"><title>container_groups:container_replicator_id:w&#45;&gt;container_replicators:id:e</title>
<path fill="none" stroke="black" d="M545.727,-840.488C529.226,-846.812 523.247,-863 500,-863"/>
<polygon fill="black" stroke="black" points="552.119,-839.374 560.618,-841.546 556.059,-838.687 560,-838 560,-838 560,-838 556.059,-838.687 559.382,-834.454 552.119,-839.374 552.119,-839.374"/>
<ellipse fill="none" stroke="black" cx="548.966" cy="-839.924" rx="3.2" ry="3.2"/>
</g>
<!-- container_replicators&#45;&gt;container_projects -->
<g id="edge6" class="edge"><title>container_replicators:container_project_id:w&#45;&gt;container_projects:id.type:e</title>
<path fill="none" stroke="black" d="M313.549,-835.298C274.498,-796.094 321.388,-568 264.5,-568"/>
<polygon fill="black" stroke="black" points="319.634,-837.878 325.595,-844.314 323.317,-839.439 327,-841 327,-841 327,-841 323.317,-839.439 328.405,-837.686 319.634,-837.878 319.634,-837.878"/>
<ellipse fill="none" stroke="black" cx="316.688" cy="-836.629" rx="3.20001" ry="3.20001"/>
</g>
<!-- container_limits -->
<g id="node5" class="node"><title>container_limits</title>
<g id="a_node5"><a xlink:href="../../tables/container_limits.html" xlink:title="container_limits" target="_top">
<polygon fill="#ffffff" stroke="none" points="342,-644 342,-746 484,-746 484,-644 342,-644"/>
<polygon fill="#f5f5f5" stroke="none" points="342,-724 342,-746 484,-746 484,-724 342,-724"/>
<polygon fill="none" stroke="black" points="342,-724 342,-746 484,-746 484,-724 342,-724"/>
<text text-anchor="start" x="347" y="-733.2" font-family="Helvetica,sans-Serif" font-weight="bold" font-size="11.00">container_limits</text>
<text text-anchor="start" x="445" y="-732.2" font-family="Helvetica,sans-Serif" font-size="11.00">[table]</text>
<polygon fill="none" stroke="black" points="342,-702 342,-724 484,-724 484,-702 342,-702"/>
<image xlink:href="../../images/primaryKeys.png" width="11px" height="12px" preserveAspectRatio="xMinYMin meet" x="347" y="-719"/>
<text text-anchor="start" x="362" y="-710.2" font-family="Helvetica,sans-Serif" font-size="11.00">id</text>
<polygon fill="none" stroke="black" points="342,-680 342,-702 484,-702 484,-680 342,-680"/>
<image xlink:href="../../images/foreignKeys.png" width="11px" height="12px" preserveAspectRatio="xMinYMin meet" x="347" y="-697"/>
<text text-anchor="start" x="362" y="-688.2" font-family="Helvetica,sans-Serif" font-size="11.00">container_project_id</text>
<polygon fill="none" stroke="black" points="342,-662 342,-680 484,-680 484,-662 342,-662"/>
<text text-anchor="start" x="345" y="-668.2" font-family="Helvetica,sans-Serif" font-size="11.00">...</text>
<polygon fill="#ffffff" stroke="none" points="342,-644 342,-662 406,-662 406,-644 342,-644"/>
<polygon fill="none" stroke="black" points="342,-644 342,-662 406,-662 406,-644 342,-644"/>
<text text-anchor="start" x="345" y="-650.2" font-family="Helvetica,sans-Serif" font-size="11.00">&lt; 1</text>
<polygon fill="#ffffff" stroke="none" points="406,-644 406,-662 440,-662 440,-644 406,-644"/>
<polygon fill="none" stroke="black" points="406,-644 406,-662 440,-662 440,-644 406,-644"/>
<text text-anchor="start" x="430" y="-650.2" font-family="Helvetica,sans-Serif" font-size="11.00"> &#160;</text>
<polygon fill="#ffffff" stroke="none" points="440,-644 440,-662 484,-662 484,-644 440,-644"/>
<polygon fill="none" stroke="black" points="440,-644 440,-662 484,-662 484,-644 440,-644"/>
<text text-anchor="start" x="464" y="-650.2" font-family="Helvetica,sans-Serif" font-size="11.00">1 &gt;</text>
</a>
</g>
</g>
<!-- container_limits&#45;&gt;container_projects -->
<g id="edge4" class="edge"><title>container_limits:container_project_id:w&#45;&gt;container_projects:id.type:e</title>
<path fill="none" stroke="black" d="M326.57,-688.317C284.907,-670.329 323.219,-568 264.5,-568"/>
<polygon fill="black" stroke="black" points="333.135,-689.537 340.342,-694.539 337.067,-690.269 341,-691 341,-691 341,-691 337.067,-690.269 341.658,-687.461 333.135,-689.537 333.135,-689.537"/>
<ellipse fill="none" stroke="black" cx="329.989" cy="-688.952" rx="3.2" ry="3.2"/>
</g>
<!-- container_quotas -->
<g id="node6" class="node"><title>container_quotas</title>
<g id="a_node6"><a xlink:href="../../tables/container_quotas.html" xlink:title="container_quotas" target="_top">
<polygon fill="#ffffff" stroke="none" points="339,-499 339,-623 487,-623 487,-499 339,-499"/>
<polygon fill="#f5f5f5" stroke="none" points="339,-601 339,-623 487,-623 487,-601 339,-601"/>
<polygon fill="none" stroke="black" points="339,-601 339,-623 487,-623 487,-601 339,-601"/>
<text text-anchor="start" x="344" y="-610.2" font-family="Helvetica,sans-Serif" font-weight="bold" font-size="11.00">container_quotas</text>
<text text-anchor="start" x="448" y="-609.2" font-family="Helvetica,sans-Serif" font-size="11.00">[table]</text>
<polygon fill="none" stroke="black" points="339,-579 339,-601 487,-601 487,-579 339,-579"/>
<image xlink:href="../../images/primaryKeys.png" width="11px" height="12px" preserveAspectRatio="xMinYMin meet" x="344" y="-596"/>
<text text-anchor="start" x="362" y="-587.2" font-family="Helvetica,sans-Serif" font-size="11.00">id</text>
<polygon fill="none" stroke="black" points="339,-557 339,-579 487,-579 487,-557 339,-557"/>
<image xlink:href="../../images/foreignKeys.png" width="11px" height="12px" preserveAspectRatio="xMinYMin meet" x="344" y="-574"/>
<text text-anchor="start" x="362" y="-565.2" font-family="Helvetica,sans-Serif" font-size="11.00">container_project_id</text>
<polygon fill="#ffffff" stroke="none" points="339,-535 339,-557 487,-557 487,-535 339,-535"/>
<polygon fill="none" stroke="black" points="339,-535 339,-557 487,-557 487,-535 339,-535"/>
<text text-anchor="start" x="362" y="-543.2" font-family="Helvetica,sans-Serif" font-size="11.00">deleted_on</text>
<polygon fill="none" stroke="black" points="339,-517 339,-535 487,-535 487,-517 339,-517"/>
<text text-anchor="start" x="342" y="-523.2" font-family="Helvetica,sans-Serif" font-size="11.00">...</text>
<polygon fill="#ffffff" stroke="none" points="339,-499 339,-517 406,-517 406,-499 339,-499"/>
<polygon fill="none" stroke="black" points="339,-499 339,-517 406,-517 406,-499 339,-499"/>
<text text-anchor="start" x="342" y="-505.2" font-family="Helvetica,sans-Serif" font-size="11.00">&lt; 1</text>
<polygon fill="#ffffff" stroke="none" points="406,-499 406,-517 441,-517 441,-499 406,-499"/>
<polygon fill="none" stroke="black" points="406,-499 406,-517 441,-517 441,-499 406,-499"/>
<text text-anchor="start" x="431" y="-505.2" font-family="Helvetica,sans-Serif" font-size="11.00"> &#160;</text>
<polygon fill="#ffffff" stroke="none" points="441,-499 441,-517 487,-517 487,-499 441,-499"/>
<polygon fill="none" stroke="black" points="441,-499 441,-517 487,-517 487,-499 441,-499"/>
<text text-anchor="start" x="467" y="-505.2" font-family="Helvetica,sans-Serif" font-size="11.00">2 &gt;</text>
</a>
</g>
</g>
<!-- container_quotas&#45;&gt;container_projects -->
<g id="edge5" class="edge"><title>container_quotas:container_project_id:w&#45;&gt;container_projects:id.type:e</title>
<path fill="none" stroke="black" d="M323.381,-568C301.899,-568 291.68,-568 264.5,-568"/>
<polygon fill="black" stroke="black" points="330,-568 338,-571.6 334,-568 338,-568 338,-568 338,-568 334,-568 338,-564.4 330,-568 330,-568"/>
<ellipse fill="none" stroke="black" cx="326.8" cy="-568" rx="3.2" ry="3.2"/>
</g>
<!-- container_routes -->
<g id="node7" class="node"><title>container_routes</title>
<g id="a_node7"><a xlink:href="../../tables/container_routes.html" xlink:title="container_routes" target="_top">
<polygon fill="#ffffff" stroke="none" points="571.5,-389 571.5,-535 716.5,-535 716.5,-389 571.5,-389"/>
<polygon fill="#f5f5f5" stroke="none" points="572,-513 572,-535 717,-535 717,-513 572,-513"/>
<polygon fill="none" stroke="black" points="572,-513 572,-535 717,-535 717,-513 572,-513"/>
<text text-anchor="start" x="577" y="-522.2" font-family="Helvetica,sans-Serif" font-weight="bold" font-size="11.00">container_routes</text>
<text text-anchor="start" x="678" y="-521.2" font-family="Helvetica,sans-Serif" font-size="11.00">[table]</text>
<polygon fill="none" stroke="black" points="572,-491 572,-513 717,-513 717,-491 572,-491"/>
<image xlink:href="../../images/primaryKeys.png" width="11px" height="12px" preserveAspectRatio="xMinYMin meet" x="577" y="-508"/>
<text text-anchor="start" x="594" y="-499.2" font-family="Helvetica,sans-Serif" font-size="11.00">id</text>
<polygon fill="#ffffff" stroke="none" points="572,-469 572,-491 717,-491 717,-469 572,-469"/>
<polygon fill="none" stroke="black" points="572,-469 572,-491 717,-491 717,-469 572,-469"/>
<text text-anchor="start" x="594" y="-477.2" font-family="Helvetica,sans-Serif" font-size="11.00">ems_id</text>
<polygon fill="none" stroke="black" points="572,-447 572,-469 717,-469 717,-447 572,-447"/>
<image xlink:href="../../images/foreignKeys.png" width="11px" height="12px" preserveAspectRatio="xMinYMin meet" x="577" y="-464"/>
<text text-anchor="start" x="594" y="-455.2" font-family="Helvetica,sans-Serif" font-size="11.00">container_project_id</text>
<polygon fill="none" stroke="black" points="572,-425 572,-447 717,-447 717,-425 572,-425"/>
<image xlink:href="../../images/foreignKeys.png" width="11px" height="12px" preserveAspectRatio="xMinYMin meet" x="577" y="-442"/>
<text text-anchor="start" x="594" y="-433.2" font-family="Helvetica,sans-Serif" font-size="11.00">container_service_id</text>
<polygon fill="none" stroke="black" points="572,-407 572,-425 717,-425 717,-407 572,-407"/>
<text text-anchor="start" x="575" y="-413.2" font-family="Helvetica,sans-Serif" font-size="11.00">...</text>
<polygon fill="#ffffff" stroke="none" points="572,-389 572,-407 643,-407 643,-389 572,-389"/>
<polygon fill="none" stroke="black" points="572,-389 572,-407 643,-407 643,-389 572,-389"/>
<text text-anchor="start" x="575" y="-395.2" font-family="Helvetica,sans-Serif" font-size="11.00">&lt; 2</text>
<polygon fill="#ffffff" stroke="none" points="643,-389 643,-407 680,-407 680,-389 643,-389"/>
<polygon fill="none" stroke="black" points="643,-389 643,-407 680,-407 680,-389 643,-389"/>
<text text-anchor="start" x="670" y="-395.2" font-family="Helvetica,sans-Serif" font-size="11.00"> &#160;</text>
<polygon fill="#ffffff" stroke="none" points="680,-389 680,-407 717,-407 717,-389 680,-389"/>
<polygon fill="none" stroke="black" points="680,-389 680,-407 717,-407 717,-389 680,-389"/>
<text text-anchor="start" x="707" y="-395.2" font-family="Helvetica,sans-Serif" font-size="11.00"> &#160;</text>
</a>
</g>
</g>
<!-- container_routes&#45;&gt;container_projects -->
<g id="edge7" class="edge"><title>container_routes:container_project_id:w&#45;&gt;container_projects:id.type:e</title>
<path fill="none" stroke="black" d="M556.596,-458.929C501.857,-463.267 316.739,-481.625 306,-489 273.306,-511.452 304.161,-568 264.5,-568"/>
<polygon fill="black" stroke="black" points="563.017,-458.515 571.232,-461.593 567.008,-458.258 571,-458 571,-458 571,-458 567.008,-458.258 570.768,-454.407 563.017,-458.515 563.017,-458.515"/>
<ellipse fill="none" stroke="black" cx="559.823" cy="-458.721" rx="3.2" ry="3.2"/>
</g>
<!-- container_services -->
<g id="node8" class="node"><title>container_services</title>
<g id="a_node8"><a xlink:href="../../tables/container_services.html" xlink:title="container_services" target="_top">
<polygon fill="#ffffff" stroke="none" points="319,-305 319,-451 507,-451 507,-305 319,-305"/>
<polygon fill="#f5f5f5" stroke="none" points="319,-429 319,-451 507,-451 507,-429 319,-429"/>
<polygon fill="none" stroke="black" points="319,-429 319,-451 507,-451 507,-429 319,-429"/>
<text text-anchor="start" x="324" y="-438.2" font-family="Helvetica,sans-Serif" font-weight="bold" font-size="11.00">container_services</text>
<text text-anchor="start" x="468" y="-437.2" font-family="Helvetica,sans-Serif" font-size="11.00">[table]</text>
<polygon fill="none" stroke="black" points="319,-407 319,-429 507,-429 507,-407 319,-407"/>
<image xlink:href="../../images/primaryKeys.png" width="11px" height="12px" preserveAspectRatio="xMinYMin meet" x="324" y="-424"/>
<text text-anchor="start" x="339" y="-415.2" font-family="Helvetica,sans-Serif" font-size="11.00">id</text>
<polygon fill="#ffffff" stroke="none" points="319,-385 319,-407 507,-407 507,-385 319,-385"/>
<polygon fill="none" stroke="black" points="319,-385 319,-407 507,-407 507,-385 319,-385"/>
<text text-anchor="start" x="339" y="-393.2" font-family="Helvetica,sans-Serif" font-size="11.00">ems_id</text>
<polygon fill="none" stroke="black" points="319,-363 319,-385 507,-385 507,-363 319,-363"/>
<image xlink:href="../../images/foreignKeys.png" width="11px" height="12px" preserveAspectRatio="xMinYMin meet" x="324" y="-380"/>
<text text-anchor="start" x="339" y="-371.2" font-family="Helvetica,sans-Serif" font-size="11.00">container_project_id</text>
<polygon fill="none" stroke="black" points="319,-341 319,-363 507,-363 507,-341 319,-341"/>
<image xlink:href="../../images/foreignKeys.png" width="11px" height="12px" preserveAspectRatio="xMinYMin meet" x="324" y="-358"/>
<text text-anchor="start" x="339" y="-349.2" font-family="Helvetica,sans-Serif" font-size="11.00">container_image_registry_id</text>
<polygon fill="none" stroke="black" points="319,-323 319,-341 507,-341 507,-323 319,-323"/>
<text text-anchor="start" x="322" y="-329.2" font-family="Helvetica,sans-Serif" font-size="11.00">...</text>
<polygon fill="#ffffff" stroke="none" points="319,-305 319,-323 406,-323 406,-305 319,-305"/>
<polygon fill="none" stroke="black" points="319,-305 319,-323 406,-323 406,-305 319,-305"/>
<text text-anchor="start" x="322" y="-311.2" font-family="Helvetica,sans-Serif" font-size="11.00">&lt; 2</text>
<polygon fill="#ffffff" stroke="none" points="406,-305 406,-323 451,-323 451,-305 406,-305"/>
<polygon fill="none" stroke="black" points="406,-305 406,-323 451,-323 451,-305 406,-305"/>
<text text-anchor="start" x="441" y="-311.2" font-family="Helvetica,sans-Serif" font-size="11.00"> &#160;</text>
<polygon fill="#ffffff" stroke="none" points="451,-305 451,-323 507,-323 507,-305 451,-305"/>
<polygon fill="none" stroke="black" points="451,-305 451,-323 507,-323 507,-305 451,-305"/>
<text text-anchor="start" x="487" y="-311.2" font-family="Helvetica,sans-Serif" font-size="11.00">3 &gt;</text>
</a>
</g>
</g>
<!-- container_routes&#45;&gt;container_services -->
<g id="edge8" class="edge"><title>container_routes:container_service_id:w&#45;&gt;container_services:id:e</title>
<path fill="none" stroke="black" d="M556.614,-434.274C539.165,-429.769 531.547,-418 508,-418"/>
<polygon fill="black" stroke="black" points="563.057,-435.047 570.571,-439.574 567.028,-435.523 571,-436 571,-436 571,-436 567.028,-435.523 571.429,-432.426 563.057,-435.047 563.057,-435.047"/>
<ellipse fill="none" stroke="black" cx="559.88" cy="-434.666" rx="3.2" ry="3.2"/>
</g>
<!-- container_services&#45;&gt;container_projects -->
<g id="edge9" class="edge"><title>container_services:container_project_id:w&#45;&gt;container_projects:id.type:e</title>
<path fill="none" stroke="black" d="M303.642,-376.179C243.393,-397.492 348.351,-568 264.5,-568"/>
<polygon fill="black" stroke="black" points="310.091,-375.2 318.54,-377.559 314.045,-374.6 318,-374 318,-374 318,-374 314.045,-374.6 317.46,-370.441 310.091,-375.2 310.091,-375.2"/>
<ellipse fill="none" stroke="black" cx="306.927" cy="-375.68" rx="3.2" ry="3.2"/>
</g>
<!-- container_templates -->
<g id="node9" class="node"><title>container_templates</title>
<g id="a_node9"><a xlink:href="../../tables/container_templates.html" xlink:title="container_templates" target="_top">
<polygon fill="#ffffff" stroke="none" points="329.5,-160 329.5,-284 496.5,-284 496.5,-160 329.5,-160"/>
<polygon fill="#f5f5f5" stroke="none" points="330,-262 330,-284 497,-284 497,-262 330,-262"/>
<polygon fill="none" stroke="black" points="330,-262 330,-284 497,-284 497,-262 330,-262"/>
<text text-anchor="start" x="335" y="-271.2" font-family="Helvetica,sans-Serif" font-weight="bold" font-size="11.00">container_templates</text>
<text text-anchor="start" x="458" y="-270.2" font-family="Helvetica,sans-Serif" font-size="11.00">[table]</text>
<polygon fill="none" stroke="black" points="330,-240 330,-262 497,-262 497,-240 330,-240"/>
<image xlink:href="../../images/primaryKeys.png" width="11px" height="12px" preserveAspectRatio="xMinYMin meet" x="335" y="-257"/>
<text text-anchor="start" x="362" y="-248.2" font-family="Helvetica,sans-Serif" font-size="11.00">id</text>
<polygon fill="#ffffff" stroke="none" points="330,-218 330,-240 497,-240 497,-218 330,-218"/>
<polygon fill="none" stroke="black" points="330,-218 330,-240 497,-240 497,-218 330,-218"/>
<text text-anchor="start" x="362" y="-226.2" font-family="Helvetica,sans-Serif" font-size="11.00">ems_id</text>
<polygon fill="#ffffff" stroke="none" points="330,-196 330,-218 497,-218 497,-196 330,-196"/>
<polygon fill="none" stroke="black" points="330,-196 330,-218 497,-218 497,-196 330,-196"/>
<image xlink:href="../../images/foreignKeys.png" width="11px" height="12px" preserveAspectRatio="xMinYMin meet" x="335" y="-213"/>
<text text-anchor="start" x="362" y="-204.2" font-family="Helvetica,sans-Serif" font-size="11.00">container_project_id</text>
<polygon fill="none" stroke="black" points="330,-178 330,-196 497,-196 497,-178 330,-178"/>
<text text-anchor="start" x="333" y="-184.2" font-family="Helvetica,sans-Serif" font-size="11.00">...</text>
<polygon fill="#ffffff" stroke="none" points="330,-160 330,-178 407,-178 407,-160 330,-160"/>
<polygon fill="none" stroke="black" points="330,-160 330,-178 407,-178 407,-160 330,-160"/>
<text text-anchor="start" x="333" y="-166.2" font-family="Helvetica,sans-Serif" font-size="11.00">&lt; 1</text>
<polygon fill="#ffffff" stroke="none" points="407,-160 407,-178 447,-178 447,-160 407,-160"/>
<polygon fill="none" stroke="black" points="407,-160 407,-178 447,-178 447,-160 407,-160"/>
<text text-anchor="start" x="437" y="-166.2" font-family="Helvetica,sans-Serif" font-size="11.00"> &#160;</text>
<polygon fill="#ffffff" stroke="none" points="447,-160 447,-178 497,-178 497,-160 447,-160"/>
<polygon fill="none" stroke="black" points="447,-160 447,-178 497,-178 497,-160 447,-160"/>
<text text-anchor="start" x="477" y="-166.2" font-family="Helvetica,sans-Serif" font-size="11.00">1 &gt;</text>
</a>
</g>
</g>
<!-- container_templates&#45;&gt;container_projects -->
<g id="edge10" class="edge"><title>container_templates:container_project_id:w&#45;&gt;container_projects:id.type:e</title>
<path fill="none" stroke="black" d="M315.041,-211.564C259.794,-253.353 340.581,-568 264.5,-568"/>
<polygon fill="black" stroke="black" points="321.396,-209.486 330.119,-210.422 325.198,-208.243 329,-207 329,-207 329,-207 325.198,-208.243 327.881,-203.578 321.396,-209.486 321.396,-209.486"/>
<ellipse fill="none" stroke="black" cx="318.355" cy="-210.481" rx="3.20001" ry="3.20001"/>
</g>
<!-- persistent_volume_claims -->
<g id="node10" class="node"><title>persistent_volume_claims</title>
<g id="a_node10"><a xlink:href="../../tables/persistent_volume_claims.html" xlink:title="persistent_volume_claims" target="_top">
<polygon fill="#ffffff" stroke="none" points="315,-37 315,-139 511,-139 511,-37 315,-37"/>
<polygon fill="#f5f5f5" stroke="none" points="315,-117 315,-139 511,-139 511,-117 315,-117"/>
<polygon fill="none" stroke="black" points="315,-117 315,-139 511,-139 511,-117 315,-117"/>
<text text-anchor="start" x="320" y="-126.2" font-family="Helvetica,sans-Serif" font-weight="bold" font-size="11.00">persistent_volume_claims</text>
<text text-anchor="start" x="472" y="-125.2" font-family="Helvetica,sans-Serif" font-size="11.00">[table]</text>
<polygon fill="none" stroke="black" points="315,-95 315,-117 511,-117 511,-95 315,-95"/>
<image xlink:href="../../images/primaryKeys.png" width="11px" height="12px" preserveAspectRatio="xMinYMin meet" x="320" y="-112"/>
<text text-anchor="start" x="346" y="-103.2" font-family="Helvetica,sans-Serif" font-size="11.00">id</text>
<polygon fill="none" stroke="black" points="315,-73 315,-95 511,-95 511,-73 315,-73"/>
<image xlink:href="../../images/foreignKeys.png" width="11px" height="12px" preserveAspectRatio="xMinYMin meet" x="320" y="-90"/>
<text text-anchor="start" x="346" y="-81.2" font-family="Helvetica,sans-Serif" font-size="11.00">container_project_id</text>
<polygon fill="none" stroke="black" points="315,-55 315,-73 511,-73 511,-55 315,-55"/>
<text text-anchor="start" x="318" y="-61.2" font-family="Helvetica,sans-Serif" font-size="11.00">...</text>
<polygon fill="#ffffff" stroke="none" points="315,-37 315,-55 406,-55 406,-37 315,-37"/>
<polygon fill="none" stroke="black" points="315,-37 315,-55 406,-55 406,-37 315,-37"/>
<text text-anchor="start" x="318" y="-43.2" font-family="Helvetica,sans-Serif" font-size="11.00">&lt; 1</text>
<polygon fill="#ffffff" stroke="none" points="406,-37 406,-55 453,-55 453,-37 406,-37"/>
<polygon fill="none" stroke="black" points="406,-37 406,-55 453,-55 453,-37 406,-37"/>
<text text-anchor="start" x="443" y="-43.2" font-family="Helvetica,sans-Serif" font-size="11.00"> &#160;</text>
<polygon fill="#ffffff" stroke="none" points="453,-37 453,-55 511,-55 511,-37 453,-37"/>
<polygon fill="none" stroke="black" points="453,-37 453,-55 511,-55 511,-37 453,-37"/>
<text text-anchor="start" x="491" y="-43.2" font-family="Helvetica,sans-Serif" font-size="11.00">1 &gt;</text>
</a>
</g>
</g>
<!-- persistent_volume_claims&#45;&gt;container_projects -->
<g id="edge11" class="edge"><title>persistent_volume_claims:container_project_id:w&#45;&gt;container_projects:id.type:e</title>
<path fill="none" stroke="black" d="M299.583,-87.6176C222.108,-131.908 367.126,-568 264.5,-568"/>
<polygon fill="black" stroke="black" points="306.241,-85.9471 314.876,-87.4917 310.12,-84.9736 314,-84 314,-84 314,-84 310.12,-84.9736 313.124,-80.5083 306.241,-85.9471 306.241,-85.9471"/>
<ellipse fill="none" stroke="black" cx="303.137" cy="-86.726" rx="3.2" ry="3.2"/>
</g>
</g>
</svg>
