<?xml version="1.0" encoding="UTF-8" standalone="no"?>
<!DOCTYPE svg PUBLIC "-//W3C//DTD SVG 1.1//EN"
 "http://www.w3.org/Graphics/SVG/1.1/DTD/svg11.dtd">
<!-- Generated by graphviz version 2.38.0 (20140413.2041)
 -->
<!-- Title: twoDegreesRelationshipsDiagram Pages: 1 -->
<svg width="782pt" height="373pt"
 viewBox="0.00 0.00 782.00 373.00" xmlns="http://www.w3.org/2000/svg" xmlns:xlink="http://www.w3.org/1999/xlink">
<g id="graph0" class="graph" transform="scale(1 1) rotate(0) translate(4 369)">
<title>twoDegreesRelationshipsDiagram</title>
<polygon fill="#ffffff" stroke="none" points="-4,4 -4,-369 778,-369 778,4 -4,4"/>
<text text-anchor="middle" x="74.5" y="-7.2" font-family="Helvetica,sans-Serif" font-size="11.00">Generated by SchemaSpy</text>
<!-- container_template_parameters -->
<g id="node1" class="node"><title>container_template_parameters</title>
<g id="a_node1"><a xlink:href="../../tables/container_template_parameters.html" xlink:title="container_template_parameters" target="_top">
<polygon fill="#ffffff" stroke="none" points="428,-53 428,-361 766,-361 766,-53 428,-53"/>
<polygon fill="#f5f5f5" stroke="none" points="430,-337 430,-359 764,-359 764,-337 430,-337"/>
<polygon fill="none" stroke="black" points="430,-337 430,-359 764,-359 764,-337 430,-337"/>
<text text-anchor="start" x="435" y="-346.2" font-family="Helvetica,sans-Serif" font-weight="bold" font-size="11.00">container_template_parameters</text>
<text text-anchor="start" x="725" y="-345.2" font-family="Helvetica,sans-Serif" font-size="11.00">[table]</text>
<polygon fill="none" stroke="black" points="430,-315 430,-337 643,-337 643,-315 430,-315"/>
<image xlink:href="../../images/primaryKeys.png" width="11px" height="12px" preserveAspectRatio="xMinYMin meet" x="435" y="-332"/>
<text text-anchor="start" x="450" y="-323.2" font-family="Helvetica,sans-Serif" font-size="11.00">id</text>
<polygon fill="none" stroke="black" points="643,-315 643,-337 764,-337 764,-315 643,-315"/>
<text text-anchor="start" x="646" y="-323.2" font-family="Helvetica,sans-Serif" font-size="11.00">bigserial[19]</text>
<polygon fill="none" stroke="black" points="430,-293 430,-315 643,-315 643,-293 430,-293"/>
<text text-anchor="start" x="450" y="-301.2" font-family="Helvetica,sans-Serif" font-size="11.00">name</text>
<polygon fill="none" stroke="black" points="643,-293 643,-315 764,-315 764,-293 643,-293"/>
<text text-anchor="start" x="646" y="-301.2" font-family="Helvetica,sans-Serif" font-size="11.00">varchar[2147483647]</text>
<polygon fill="none" stroke="black" points="430,-271 430,-293 643,-293 643,-271 430,-271"/>
<text text-anchor="start" x="450" y="-279.2" font-family="Helvetica,sans-Serif" font-size="11.00">ems_created_on</text>
<polygon fill="none" stroke="black" points="643,-271 643,-293 764,-293 764,-271 643,-271"/>
<text text-anchor="start" x="646" y="-279.2" font-family="Helvetica,sans-Serif" font-size="11.00">timestamp[29,6]</text>
<polygon fill="none" stroke="black" points="430,-249 430,-271 643,-271 643,-249 430,-249"/>
<text text-anchor="start" x="450" y="-257.2" font-family="Helvetica,sans-Serif" font-size="11.00">display_name</text>
<polygon fill="none" stroke="black" points="643,-249 643,-271 764,-271 764,-249 643,-249"/>
<text text-anchor="start" x="646" y="-257.2" font-family="Helvetica,sans-Serif" font-size="11.00">varchar[2147483647]</text>
<polygon fill="none" stroke="black" points="430,-227 430,-249 643,-249 643,-227 430,-227"/>
<text text-anchor="start" x="450" y="-235.2" font-family="Helvetica,sans-Serif" font-size="11.00">description</text>
<polygon fill="none" stroke="black" points="643,-227 643,-249 764,-249 764,-227 643,-227"/>
<text text-anchor="start" x="646" y="-235.2" font-family="Helvetica,sans-Serif" font-size="11.00">varchar[2147483647]</text>
<polygon fill="none" stroke="black" points="430,-205 430,-227 643,-227 643,-205 430,-205"/>
<text text-anchor="start" x="450" y="-213.2" font-family="Helvetica,sans-Serif" font-size="11.00">value</text>
<polygon fill="none" stroke="black" points="643,-205 643,-227 764,-227 764,-205 643,-205"/>
<text text-anchor="start" x="646" y="-213.2" font-family="Helvetica,sans-Serif" font-size="11.00">varchar[2147483647]</text>
<polygon fill="none" stroke="black" points="430,-183 430,-205 643,-205 643,-183 430,-183"/>
<text text-anchor="start" x="450" y="-191.2" font-family="Helvetica,sans-Serif" font-size="11.00">generate</text>
<polygon fill="none" stroke="black" points="643,-183 643,-205 764,-205 764,-183 643,-183"/>
<text text-anchor="start" x="646" y="-191.2" font-family="Helvetica,sans-Serif" font-size="11.00">varchar[2147483647]</text>
<polygon fill="none" stroke="black" points="430,-161 430,-183 643,-183 643,-161 430,-161"/>
<text text-anchor="start" x="450" y="-169.2" font-family="Helvetica,sans-Serif" font-size="11.00">from</text>
<polygon fill="none" stroke="black" points="643,-161 643,-183 764,-183 764,-161 643,-161"/>
<text text-anchor="start" x="646" y="-169.2" font-family="Helvetica,sans-Serif" font-size="11.00">varchar[2147483647]</text>
<polygon fill="none" stroke="black" points="430,-139 430,-161 643,-161 643,-139 430,-139"/>
<text text-anchor="start" x="450" y="-147.2" font-family="Helvetica,sans-Serif" font-size="11.00">required</text>
<polygon fill="none" stroke="black" points="643,-139 643,-161 764,-161 764,-139 643,-139"/>
<text text-anchor="start" x="646" y="-147.2" font-family="Helvetica,sans-Serif" font-size="11.00">bool[1]</text>
<polygon fill="#ffffff" stroke="none" points="430,-117 430,-139 643,-139 643,-117 430,-117"/>
<polygon fill="none" stroke="black" points="430,-117 430,-139 643,-139 643,-117 430,-117"/>
<image xlink:href="../../images/foreignKeys.png" width="11px" height="12px" preserveAspectRatio="xMinYMin meet" x="435" y="-134"/>
<text text-anchor="start" x="450" y="-125.2" font-family="Helvetica,sans-Serif" font-size="11.00">container_template_id</text>
<polygon fill="none" stroke="black" points="643,-117 643,-139 764,-139 764,-117 643,-117"/>
<text text-anchor="start" x="646" y="-125.2" font-family="Helvetica,sans-Serif" font-size="11.00">int8[19]</text>
<polygon fill="none" stroke="black" points="430,-95 430,-117 643,-117 643,-95 430,-95"/>
<text text-anchor="start" x="450" y="-103.2" font-family="Helvetica,sans-Serif" font-size="11.00">created_at</text>
<polygon fill="none" stroke="black" points="643,-95 643,-117 764,-117 764,-95 643,-95"/>
<text text-anchor="start" x="646" y="-103.2" font-family="Helvetica,sans-Serif" font-size="11.00">timestamp[29,6]</text>
<polygon fill="none" stroke="black" points="430,-73 430,-95 643,-95 643,-73 430,-73"/>
<text text-anchor="start" x="450" y="-81.2" font-family="Helvetica,sans-Serif" font-size="11.00">updated_at</text>
<polygon fill="none" stroke="black" points="643,-73 643,-95 764,-95 764,-73 643,-73"/>
<text text-anchor="start" x="646" y="-81.2" font-family="Helvetica,sans-Serif" font-size="11.00">timestamp[29,6]</text>
<polygon fill="#ffffff" stroke="none" points="430,-55 430,-73 541,-73 541,-55 430,-55"/>
<polygon fill="none" stroke="black" points="430,-55 430,-73 541,-73 541,-55 430,-55"/>
<text text-anchor="start" x="433" y="-61.2" font-family="Helvetica,sans-Serif" font-size="11.00">&lt; 1</text>
<polygon fill="#ffffff" stroke="none" points="541,-55 541,-73 643,-73 643,-55 541,-55"/>
<polygon fill="none" stroke="black" points="541,-55 541,-73 643,-73 643,-55 541,-55"/>
<text text-anchor="start" x="633" y="-61.2" font-family="Helvetica,sans-Serif" font-size="11.00"> &#160;</text>
<polygon fill="#ffffff" stroke="none" points="643,-55 643,-73 764,-73 764,-55 643,-55"/>
<polygon fill="none" stroke="black" points="643,-55 643,-73 764,-73 764,-55 643,-55"/>
<text text-anchor="start" x="744" y="-61.2" font-family="Helvetica,sans-Serif" font-size="11.00">0 &gt;</text>
<polygon fill="none" stroke="black" stroke-width="2" points="429,-54 429,-360 765,-360 765,-54 429,-54"/>
</a>
</g>
</g>
<!-- container_templates -->
<g id="node2" class="node"><title>container_templates</title>
<g id="a_node2"><a xlink:href="../../tables/container_templates.html" xlink:title="container_templates" target="_top">
<polygon fill="#ffffff" stroke="none" points="212,-37 212,-161 379,-161 379,-37 212,-37"/>
<polygon fill="#f5f5f5" stroke="none" points="212.5,-139 212.5,-161 379.5,-161 379.5,-139 212.5,-139"/>
<polygon fill="none" stroke="black" points="212.5,-139 212.5,-161 379.5,-161 379.5,-139 212.5,-139"/>
<text text-anchor="start" x="217.5" y="-148.2" font-family="Helvetica,sans-Serif" font-weight="bold" font-size="11.00">container_templates</text>
<text text-anchor="start" x="340.5" y="-147.2" font-family="Helvetica,sans-Serif" font-size="11.00">[table]</text>
<polygon fill="none" stroke="black" points="212.5,-117 212.5,-139 379.5,-139 379.5,-117 212.5,-117"/>
<image xlink:href="../../images/primaryKeys.png" width="11px" height="12px" preserveAspectRatio="xMinYMin meet" x="217.5" y="-134"/>
<text text-anchor="start" x="244.5" y="-125.2" font-family="Helvetica,sans-Serif" font-size="11.00">id</text>
<polygon fill="#ffffff" stroke="none" points="212.5,-95 212.5,-117 379.5,-117 379.5,-95 212.5,-95"/>
<polygon fill="none" stroke="black" points="212.5,-95 212.5,-117 379.5,-117 379.5,-95 212.5,-95"/>
<text text-anchor="start" x="244.5" y="-103.2" font-family="Helvetica,sans-Serif" font-size="11.00">ems_id</text>
<polygon fill="#ffffff" stroke="none" points="212.5,-73 212.5,-95 379.5,-95 379.5,-73 212.5,-73"/>
<polygon fill="none" stroke="black" points="212.5,-73 212.5,-95 379.5,-95 379.5,-73 212.5,-73"/>
<image xlink:href="../../images/foreignKeys.png" width="11px" height="12px" preserveAspectRatio="xMinYMin meet" x="217.5" y="-90"/>
<text text-anchor="start" x="244.5" y="-81.2" font-family="Helvetica,sans-Serif" font-size="11.00">container_project_id</text>
<polygon fill="none" stroke="black" points="212.5,-55 212.5,-73 379.5,-73 379.5,-55 212.5,-55"/>
<text text-anchor="start" x="215.5" y="-61.2" font-family="Helvetica,sans-Serif" font-size="11.00">...</text>
<polygon fill="#ffffff" stroke="none" points="212.5,-37 212.5,-55 289.5,-55 289.5,-37 212.5,-37"/>
<polygon fill="none" stroke="black" points="212.5,-37 212.5,-55 289.5,-55 289.5,-37 212.5,-37"/>
<text text-anchor="start" x="215.5" y="-43.2" font-family="Helvetica,sans-Serif" font-size="11.00">&lt; 1</text>
<polygon fill="#ffffff" stroke="none" points="289.5,-37 289.5,-55 329.5,-55 329.5,-37 289.5,-37"/>
<polygon fill="none" stroke="black" points="289.5,-37 289.5,-55 329.5,-55 329.5,-37 289.5,-37"/>
<text text-anchor="start" x="319.5" y="-43.2" font-family="Helvetica,sans-Serif" font-size="11.00"> &#160;</text>
<polygon fill="#ffffff" stroke="none" points="329.5,-37 329.5,-55 379.5,-55 379.5,-37 329.5,-37"/>
<polygon fill="none" stroke="black" points="329.5,-37 329.5,-55 379.5,-55 379.5,-37 329.5,-37"/>
<text text-anchor="start" x="359.5" y="-43.2" font-family="Helvetica,sans-Serif" font-size="11.00">1 &gt;</text>
</a>
</g>
</g>
<!-- container_template_parameters&#45;&gt;container_templates -->
<g id="edge1" class="edge"><title>container_template_parameters:container_template_id:w&#45;&gt;container_templates:id:e</title>
<path fill="none" stroke="black" d="M414.283,-128C403.289,-128 396.161,-128 380.5,-128"/>
<polygon fill="black" stroke="black" points="421,-128 429,-131.6 425,-128 429,-128 429,-128 429,-128 425,-128 429,-124.4 421,-128 421,-128"/>
<ellipse fill="none" stroke="black" cx="417.8" cy="-128" rx="3.2" ry="3.2"/>
</g>
<!-- container_projects -->
<g id="node3" class="node"><title>container_projects</title>
<g id="a_node3"><a xlink:href="../../tables/container_projects.html" xlink:title="container_projects" target="_top">
<polygon fill="#ffffff" stroke="none" points="8,-57 8,-115 163,-115 163,-57 8,-57"/>
<polygon fill="#f5f5f5" stroke="none" points="8.5,-93 8.5,-115 163.5,-115 163.5,-93 8.5,-93"/>
<polygon fill="none" stroke="black" points="8.5,-93 8.5,-115 163.5,-115 163.5,-93 8.5,-93"/>
<text text-anchor="start" x="13.5" y="-102.2" font-family="Helvetica,sans-Serif" font-weight="bold" font-size="11.00">container_projects</text>
<text text-anchor="start" x="124.5" y="-101.2" font-family="Helvetica,sans-Serif" font-size="11.00">[table]</text>
<polygon fill="none" stroke="black" points="8.5,-75 8.5,-93 163.5,-93 163.5,-75 8.5,-75"/>
<text text-anchor="start" x="11.5" y="-81.2" font-family="Helvetica,sans-Serif" font-size="11.00">...</text>
<polygon fill="#ffffff" stroke="none" points="8.5,-57 8.5,-75 74.5,-75 74.5,-57 8.5,-57"/>
<polygon fill="none" stroke="black" points="8.5,-57 8.5,-75 74.5,-75 74.5,-57 8.5,-57"/>
<text text-anchor="start" x="11.5" y="-63.2" font-family="Helvetica,sans-Serif" font-size="11.00"> &#160;</text>
<polygon fill="#ffffff" stroke="none" points="74.5,-57 74.5,-75 113.5,-75 113.5,-57 74.5,-57"/>
<polygon fill="none" stroke="black" points="74.5,-57 74.5,-75 113.5,-75 113.5,-57 74.5,-57"/>
<text text-anchor="start" x="103.5" y="-63.2" font-family="Helvetica,sans-Serif" font-size="11.00"> &#160;</text>
<polygon fill="#ffffff" stroke="none" points="113.5,-57 113.5,-75 163.5,-75 163.5,-57 113.5,-57"/>
<polygon fill="none" stroke="black" points="113.5,-57 113.5,-75 163.5,-75 163.5,-57 113.5,-57"/>
<text text-anchor="start" x="143.5" y="-63.2" font-family="Helvetica,sans-Serif" font-size="11.00">9 &gt;</text>
</a>
</g>
</g>
<!-- container_templates&#45;&gt;container_projects -->
<g id="edge2" class="edge"><title>container_templates:container_project_id:w&#45;&gt;container_projects:elipses:e</title>
<path fill="none" stroke="black" d="M196.896,-84C186.434,-84 179.514,-84 164.5,-84"/>
<polygon fill="black" stroke="black" points="203.5,-84.0001 211.5,-87.6 207.5,-84 211.5,-84 211.5,-84 211.5,-84 207.5,-84 211.5,-80.4 203.5,-84.0001 203.5,-84.0001"/>
<ellipse fill="none" stroke="black" cx="200.3" cy="-84.0001" rx="3.2" ry="3.2"/>
</g>
</g>
</svg>
