<?xml version="1.0" encoding="UTF-8" standalone="no"?>
<!DOCTYPE svg PUBLIC "-//W3C//DTD SVG 1.1//EN"
 "http://www.w3.org/Graphics/SVG/1.1/DTD/svg11.dtd">
<!-- Generated by graphviz version 2.38.0 (20140413.2041)
 -->
<!-- Title: oneDegreeRelationshipsDiagram Pages: 1 -->
<svg width="779pt" height="377pt"
 viewBox="0.00 0.00 779.00 377.00" xmlns="http://www.w3.org/2000/svg" xmlns:xlink="http://www.w3.org/1999/xlink">
<g id="graph0" class="graph" transform="scale(1 1) rotate(0) translate(4 373)">
<title>oneDegreeRelationshipsDiagram</title>
<polygon fill="#ffffff" stroke="none" points="-4,4 -4,-373 775,-373 775,4 -4,4"/>
<text text-anchor="middle" x="74.5" y="-7.2" font-family="Helvetica,sans-Serif" font-size="11.00">Generated by SchemaSpy</text>
<!-- container_template_parameters -->
<g id="node1" class="node"><title>container_template_parameters</title>
<g id="a_node1"><a xlink:href="../../tables/container_template_parameters.html" xlink:title="container_template_parameters" target="_top">
<polygon fill="#ffffff" stroke="none" points="530,-263 530,-365 763,-365 763,-263 530,-263"/>
<polygon fill="#f5f5f5" stroke="none" points="530.5,-343 530.5,-365 763.5,-365 763.5,-343 530.5,-343"/>
<polygon fill="none" stroke="black" points="530.5,-343 530.5,-365 763.5,-365 763.5,-343 530.5,-343"/>
<text text-anchor="start" x="535.5" y="-352.2" font-family="Helvetica,sans-Serif" font-weight="bold" font-size="11.00">container_template_parameters</text>
<text text-anchor="start" x="724.5" y="-351.2" font-family="Helvetica,sans-Serif" font-size="11.00">[table]</text>
<polygon fill="none" stroke="black" points="530.5,-321 530.5,-343 763.5,-343 763.5,-321 530.5,-321"/>
<image xlink:href="../../images/primaryKeys.png" width="11px" height="12px" preserveAspectRatio="xMinYMin meet" x="535.5" y="-338"/>
<text text-anchor="start" x="560.5" y="-329.2" font-family="Helvetica,sans-Serif" font-size="11.00">id</text>
<polygon fill="#ffffff" stroke="none" points="530.5,-299 530.5,-321 763.5,-321 763.5,-299 530.5,-299"/>
<polygon fill="none" stroke="black" points="530.5,-299 530.5,-321 763.5,-321 763.5,-299 530.5,-299"/>
<image xlink:href="../../images/foreignKeys.png" width="11px" height="12px" preserveAspectRatio="xMinYMin meet" x="535.5" y="-316"/>
<text text-anchor="start" x="560.5" y="-307.2" font-family="Helvetica,sans-Serif" font-size="11.00">container_template_id</text>
<polygon fill="none" stroke="black" points="530.5,-281 530.5,-299 763.5,-299 763.5,-281 530.5,-281"/>
<text text-anchor="start" x="533.5" y="-287.2" font-family="Helvetica,sans-Serif" font-size="11.00">...</text>
<polygon fill="#ffffff" stroke="none" points="530.5,-263 530.5,-281 645.5,-281 645.5,-263 530.5,-263"/>
<polygon fill="none" stroke="black" points="530.5,-263 530.5,-281 645.5,-281 645.5,-263 530.5,-263"/>
<text text-anchor="start" x="533.5" y="-269.2" font-family="Helvetica,sans-Serif" font-size="11.00">&lt; 1</text>
<polygon fill="#ffffff" stroke="none" points="645.5,-263 645.5,-281 704.5,-281 704.5,-263 645.5,-263"/>
<polygon fill="none" stroke="black" points="645.5,-263 645.5,-281 704.5,-281 704.5,-263 645.5,-263"/>
<text text-anchor="start" x="694.5" y="-269.2" font-family="Helvetica,sans-Serif" font-size="11.00"> &#160;</text>
<polygon fill="#ffffff" stroke="none" points="704.5,-263 704.5,-281 763.5,-281 763.5,-263 704.5,-263"/>
<polygon fill="none" stroke="black" points="704.5,-263 704.5,-281 763.5,-281 763.5,-263 704.5,-263"/>
<text text-anchor="start" x="753.5" y="-269.2" font-family="Helvetica,sans-Serif" font-size="11.00"> &#160;</text>
</a>
</g>
</g>
<!-- container_templates -->
<g id="node2" class="node"><title>container_templates</title>
<g id="a_node2"><a xlink:href="../../tables/container_templates.html" xlink:title="container_templates" target="_top">
<polygon fill="#ffffff" stroke="none" points="212,-37 212,-345 481,-345 481,-37 212,-37"/>
<polygon fill="#f5f5f5" stroke="none" points="214.5,-321 214.5,-343 479.5,-343 479.5,-321 214.5,-321"/>
<polygon fill="none" stroke="black" points="214.5,-321 214.5,-343 479.5,-343 479.5,-321 214.5,-321"/>
<text text-anchor="start" x="219.5" y="-330.2" font-family="Helvetica,sans-Serif" font-weight="bold" font-size="11.00">container_templates</text>
<text text-anchor="start" x="440.5" y="-329.2" font-family="Helvetica,sans-Serif" font-size="11.00">[table]</text>
<polygon fill="none" stroke="black" points="214.5,-299 214.5,-321 358.5,-321 358.5,-299 214.5,-299"/>
<image xlink:href="../../images/primaryKeys.png" width="11px" height="12px" preserveAspectRatio="xMinYMin meet" x="219.5" y="-316"/>
<text text-anchor="start" x="234.5" y="-307.2" font-family="Helvetica,sans-Serif" font-size="11.00">id</text>
<polygon fill="none" stroke="black" points="358.5,-299 358.5,-321 479.5,-321 479.5,-299 358.5,-299"/>
<text text-anchor="start" x="361.5" y="-307.2" font-family="Helvetica,sans-Serif" font-size="11.00">bigserial[19]</text>
<polygon fill="none" stroke="black" points="214.5,-277 214.5,-299 358.5,-299 358.5,-277 214.5,-277"/>
<text text-anchor="start" x="234.5" y="-285.2" font-family="Helvetica,sans-Serif" font-size="11.00">ems_ref</text>
<polygon fill="none" stroke="black" points="358.5,-277 358.5,-299 479.5,-299 479.5,-277 358.5,-277"/>
<text text-anchor="start" x="361.5" y="-285.2" font-family="Helvetica,sans-Serif" font-size="11.00">varchar[2147483647]</text>
<polygon fill="none" stroke="black" points="214.5,-255 214.5,-277 358.5,-277 358.5,-255 214.5,-255"/>
<text text-anchor="start" x="234.5" y="-263.2" font-family="Helvetica,sans-Serif" font-size="11.00">name</text>
<polygon fill="none" stroke="black" points="358.5,-255 358.5,-277 479.5,-277 479.5,-255 358.5,-255"/>
<text text-anchor="start" x="361.5" y="-263.2" font-family="Helvetica,sans-Serif" font-size="11.00">varchar[2147483647]</text>
<polygon fill="none" stroke="black" points="214.5,-233 214.5,-255 358.5,-255 358.5,-233 214.5,-233"/>
<text text-anchor="start" x="234.5" y="-241.2" font-family="Helvetica,sans-Serif" font-size="11.00">ems_created_on</text>
<polygon fill="none" stroke="black" points="358.5,-233 358.5,-255 479.5,-255 479.5,-233 358.5,-233"/>
<text text-anchor="start" x="361.5" y="-241.2" font-family="Helvetica,sans-Serif" font-size="11.00">timestamp[29,6]</text>
<polygon fill="none" stroke="black" points="214.5,-211 214.5,-233 358.5,-233 358.5,-211 214.5,-211"/>
<text text-anchor="start" x="234.5" y="-219.2" font-family="Helvetica,sans-Serif" font-size="11.00">resource_version</text>
<polygon fill="none" stroke="black" points="358.5,-211 358.5,-233 479.5,-233 479.5,-211 358.5,-211"/>
<text text-anchor="start" x="361.5" y="-219.2" font-family="Helvetica,sans-Serif" font-size="11.00">varchar[2147483647]</text>
<polygon fill="#ffffff" stroke="none" points="214.5,-189 214.5,-211 358.5,-211 358.5,-189 214.5,-189"/>
<polygon fill="none" stroke="black" points="214.5,-189 214.5,-211 358.5,-211 358.5,-189 214.5,-189"/>
<text text-anchor="start" x="234.5" y="-197.2" font-family="Helvetica,sans-Serif" font-size="11.00">ems_id</text>
<polygon fill="none" stroke="black" points="358.5,-189 358.5,-211 479.5,-211 479.5,-189 358.5,-189"/>
<text text-anchor="start" x="361.5" y="-197.2" font-family="Helvetica,sans-Serif" font-size="11.00">int8[19]</text>
<polygon fill="#ffffff" stroke="none" points="214.5,-167 214.5,-189 358.5,-189 358.5,-167 214.5,-167"/>
<polygon fill="none" stroke="black" points="214.5,-167 214.5,-189 358.5,-189 358.5,-167 214.5,-167"/>
<image xlink:href="../../images/foreignKeys.png" width="11px" height="12px" preserveAspectRatio="xMinYMin meet" x="219.5" y="-184"/>
<text text-anchor="start" x="234.5" y="-175.2" font-family="Helvetica,sans-Serif" font-size="11.00">container_project_id</text>
<polygon fill="none" stroke="black" points="358.5,-167 358.5,-189 479.5,-189 479.5,-167 358.5,-167"/>
<text text-anchor="start" x="361.5" y="-175.2" font-family="Helvetica,sans-Serif" font-size="11.00">int8[19]</text>
<polygon fill="none" stroke="black" points="214.5,-145 214.5,-167 358.5,-167 358.5,-145 214.5,-145"/>
<text text-anchor="start" x="234.5" y="-153.2" font-family="Helvetica,sans-Serif" font-size="11.00">objects</text>
<polygon fill="none" stroke="black" points="358.5,-145 358.5,-167 479.5,-167 479.5,-145 358.5,-145"/>
<text text-anchor="start" x="361.5" y="-153.2" font-family="Helvetica,sans-Serif" font-size="11.00">text[2147483647]</text>
<polygon fill="none" stroke="black" points="214.5,-123 214.5,-145 358.5,-145 358.5,-123 214.5,-123"/>
<text text-anchor="start" x="234.5" y="-131.2" font-family="Helvetica,sans-Serif" font-size="11.00">created_at</text>
<polygon fill="none" stroke="black" points="358.5,-123 358.5,-145 479.5,-145 479.5,-123 358.5,-123"/>
<text text-anchor="start" x="361.5" y="-131.2" font-family="Helvetica,sans-Serif" font-size="11.00">timestamp[29,6]</text>
<polygon fill="none" stroke="black" points="214.5,-101 214.5,-123 358.5,-123 358.5,-101 214.5,-101"/>
<text text-anchor="start" x="234.5" y="-109.2" font-family="Helvetica,sans-Serif" font-size="11.00">updated_at</text>
<polygon fill="none" stroke="black" points="358.5,-101 358.5,-123 479.5,-123 479.5,-101 358.5,-101"/>
<text text-anchor="start" x="361.5" y="-109.2" font-family="Helvetica,sans-Serif" font-size="11.00">timestamp[29,6]</text>
<polygon fill="none" stroke="black" points="214.5,-79 214.5,-101 358.5,-101 358.5,-79 214.5,-79"/>
<text text-anchor="start" x="234.5" y="-87.2" font-family="Helvetica,sans-Serif" font-size="11.00">object_labels</text>
<polygon fill="none" stroke="black" points="358.5,-79 358.5,-101 479.5,-101 479.5,-79 358.5,-79"/>
<text text-anchor="start" x="361.5" y="-87.2" font-family="Helvetica,sans-Serif" font-size="11.00">text[2147483647]</text>
<polygon fill="none" stroke="black" points="214.5,-57 214.5,-79 358.5,-79 358.5,-57 214.5,-57"/>
<text text-anchor="start" x="234.5" y="-65.2" font-family="Helvetica,sans-Serif" font-size="11.00">type</text>
<polygon fill="none" stroke="black" points="358.5,-57 358.5,-79 479.5,-79 479.5,-57 358.5,-57"/>
<text text-anchor="start" x="361.5" y="-65.2" font-family="Helvetica,sans-Serif" font-size="11.00">varchar[2147483647]</text>
<polygon fill="#ffffff" stroke="none" points="214.5,-39 214.5,-57 291.5,-57 291.5,-39 214.5,-39"/>
<polygon fill="none" stroke="black" points="214.5,-39 214.5,-57 291.5,-57 291.5,-39 214.5,-39"/>
<text text-anchor="start" x="217.5" y="-45.2" font-family="Helvetica,sans-Serif" font-size="11.00">&lt; 1</text>
<polygon fill="#ffffff" stroke="none" points="291.5,-39 291.5,-57 358.5,-57 358.5,-39 291.5,-39"/>
<polygon fill="none" stroke="black" points="291.5,-39 291.5,-57 358.5,-57 358.5,-39 291.5,-39"/>
<text text-anchor="start" x="348.5" y="-45.2" font-family="Helvetica,sans-Serif" font-size="11.00"> &#160;</text>
<polygon fill="#ffffff" stroke="none" points="358.5,-39 358.5,-57 479.5,-57 479.5,-39 358.5,-39"/>
<polygon fill="none" stroke="black" points="358.5,-39 358.5,-57 479.5,-57 479.5,-39 358.5,-39"/>
<text text-anchor="start" x="459.5" y="-45.2" font-family="Helvetica,sans-Serif" font-size="11.00">1 &gt;</text>
<polygon fill="none" stroke="black" stroke-width="2" points="213,-38 213,-344 480,-344 480,-38 213,-38"/>
</a>
</g>
</g>
<!-- container_template_parameters&#45;&gt;container_templates -->
<g id="edge1" class="edge"><title>container_template_parameters:container_template_id:w&#45;&gt;container_templates:id.type:e</title>
<path fill="none" stroke="black" d="M514.991,-310C503.677,-310 496.493,-310 480.5,-310"/>
<polygon fill="black" stroke="black" points="521.5,-310 529.5,-313.6 525.5,-310 529.5,-310 529.5,-310 529.5,-310 525.5,-310 529.5,-306.4 521.5,-310 521.5,-310"/>
<ellipse fill="none" stroke="black" cx="518.3" cy="-310" rx="3.2" ry="3.2"/>
</g>
<!-- container_projects -->
<g id="node3" class="node"><title>container_projects</title>
<g id="a_node3"><a xlink:href="../../tables/container_projects.html" xlink:title="container_projects" target="_top">
<polygon fill="#ffffff" stroke="none" points="8,-87 8,-211 163,-211 163,-87 8,-87"/>
<polygon fill="#f5f5f5" stroke="none" points="8.5,-189 8.5,-211 163.5,-211 163.5,-189 8.5,-189"/>
<polygon fill="none" stroke="black" points="8.5,-189 8.5,-211 163.5,-211 163.5,-189 8.5,-189"/>
<text text-anchor="start" x="13.5" y="-198.2" font-family="Helvetica,sans-Serif" font-weight="bold" font-size="11.00">container_projects</text>
<text text-anchor="start" x="124.5" y="-197.2" font-family="Helvetica,sans-Serif" font-size="11.00">[table]</text>
<polygon fill="none" stroke="black" points="8.5,-167 8.5,-189 163.5,-189 163.5,-167 8.5,-167"/>
<image xlink:href="../../images/primaryKeys.png" width="11px" height="12px" preserveAspectRatio="xMinYMin meet" x="13.5" y="-184"/>
<text text-anchor="start" x="40.5" y="-175.2" font-family="Helvetica,sans-Serif" font-size="11.00">id</text>
<polygon fill="#ffffff" stroke="none" points="8.5,-145 8.5,-167 163.5,-167 163.5,-145 8.5,-145"/>
<polygon fill="none" stroke="black" points="8.5,-145 8.5,-167 163.5,-167 163.5,-145 8.5,-145"/>
<text text-anchor="start" x="40.5" y="-153.2" font-family="Helvetica,sans-Serif" font-size="11.00">ems_id</text>
<polygon fill="#ffffff" stroke="none" points="8.5,-123 8.5,-145 163.5,-145 163.5,-123 8.5,-123"/>
<polygon fill="none" stroke="black" points="8.5,-123 8.5,-145 163.5,-145 163.5,-123 8.5,-123"/>
<text text-anchor="start" x="40.5" y="-131.2" font-family="Helvetica,sans-Serif" font-size="11.00">deleted_on</text>
<polygon fill="none" stroke="black" points="8.5,-105 8.5,-123 163.5,-123 163.5,-105 8.5,-105"/>
<text text-anchor="start" x="11.5" y="-111.2" font-family="Helvetica,sans-Serif" font-size="11.00">...</text>
<polygon fill="#ffffff" stroke="none" points="8.5,-87 8.5,-105 74.5,-105 74.5,-87 8.5,-87"/>
<polygon fill="none" stroke="black" points="8.5,-87 8.5,-105 74.5,-105 74.5,-87 8.5,-87"/>
<text text-anchor="start" x="11.5" y="-93.2" font-family="Helvetica,sans-Serif" font-size="11.00"> &#160;</text>
<polygon fill="#ffffff" stroke="none" points="74.5,-87 74.5,-105 113.5,-105 113.5,-87 74.5,-87"/>
<polygon fill="none" stroke="black" points="74.5,-87 74.5,-105 113.5,-105 113.5,-87 74.5,-87"/>
<text text-anchor="start" x="103.5" y="-93.2" font-family="Helvetica,sans-Serif" font-size="11.00"> &#160;</text>
<polygon fill="#ffffff" stroke="none" points="113.5,-87 113.5,-105 163.5,-105 163.5,-87 113.5,-87"/>
<polygon fill="none" stroke="black" points="113.5,-87 113.5,-105 163.5,-105 163.5,-87 113.5,-87"/>
<text text-anchor="start" x="143.5" y="-93.2" font-family="Helvetica,sans-Serif" font-size="11.00">9 &gt;</text>
</a>
</g>
</g>
<!-- container_templates&#45;&gt;container_projects -->
<g id="edge2" class="edge"><title>container_templates:container_project_id:w&#45;&gt;container_projects:id:e</title>
<path fill="none" stroke="black" d="M198.991,-178C187.677,-178 180.493,-178 164.5,-178"/>
<polygon fill="black" stroke="black" points="205.5,-178 213.5,-181.6 209.5,-178 213.5,-178 213.5,-178 213.5,-178 209.5,-178 213.5,-174.4 205.5,-178 205.5,-178"/>
<ellipse fill="none" stroke="black" cx="202.3" cy="-178" rx="3.2" ry="3.2"/>
</g>
</g>
</svg>
