<?xml version="1.0" encoding="UTF-8" standalone="no"?>
<!DOCTYPE svg PUBLIC "-//W3C//DTD SVG 1.1//EN"
 "http://www.w3.org/Graphics/SVG/1.1/DTD/svg11.dtd">
<!-- Generated by graphviz version 2.38.0 (20140413.2041)
 -->
<!-- Title: oneDegreeRelationshipsDiagram Pages: 1 -->
<svg width="776pt" height="1163pt"
 viewBox="0.00 0.00 776.00 1163.00" xmlns="http://www.w3.org/2000/svg" xmlns:xlink="http://www.w3.org/1999/xlink">
<g id="graph0" class="graph" transform="scale(1 1) rotate(0) translate(4 1159)">
<title>oneDegreeRelationshipsDiagram</title>
<polygon fill="#ffffff" stroke="none" points="-4,4 -4,-1159 772,-1159 772,4 -4,4"/>
<text text-anchor="middle" x="74.5" y="-7.2" font-family="Helvetica,sans-Serif" font-size="11.00">Generated by SchemaSpy</text>
<!-- container_env_vars -->
<g id="node1" class="node"><title>container_env_vars</title>
<g id="a_node1"><a xlink:href="../../tables/container_env_vars.html" xlink:title="container_env_vars" target="_top">
<polygon fill="#ffffff" stroke="none" points="590.5,-926 590.5,-1028 748.5,-1028 748.5,-926 590.5,-926"/>
<polygon fill="#f5f5f5" stroke="none" points="590.5,-1006 590.5,-1028 748.5,-1028 748.5,-1006 590.5,-1006"/>
<polygon fill="none" stroke="black" points="590.5,-1006 590.5,-1028 748.5,-1028 748.5,-1006 590.5,-1006"/>
<text text-anchor="start" x="595.5" y="-1015.2" font-family="Helvetica,sans-Serif" font-weight="bold" font-size="11.00">container_env_vars</text>
<text text-anchor="start" x="709.5" y="-1014.2" font-family="Helvetica,sans-Serif" font-size="11.00">[table]</text>
<polygon fill="none" stroke="black" points="590.5,-984 590.5,-1006 748.5,-1006 748.5,-984 590.5,-984"/>
<image xlink:href="../../images/primaryKeys.png" width="11px" height="12px" preserveAspectRatio="xMinYMin meet" x="595.5" y="-1001"/>
<text text-anchor="start" x="621.5" y="-992.2" font-family="Helvetica,sans-Serif" font-size="11.00">id</text>
<polygon fill="none" stroke="black" points="590.5,-962 590.5,-984 748.5,-984 748.5,-962 590.5,-962"/>
<image xlink:href="../../images/foreignKeys.png" width="11px" height="12px" preserveAspectRatio="xMinYMin meet" x="595.5" y="-979"/>
<text text-anchor="start" x="621.5" y="-970.2" font-family="Helvetica,sans-Serif" font-size="11.00">container_id</text>
<polygon fill="none" stroke="black" points="590.5,-944 590.5,-962 748.5,-962 748.5,-944 590.5,-944"/>
<text text-anchor="start" x="593.5" y="-950.2" font-family="Helvetica,sans-Serif" font-size="11.00">...</text>
<polygon fill="#ffffff" stroke="none" points="590.5,-926 590.5,-944 667.5,-944 667.5,-926 590.5,-926"/>
<polygon fill="none" stroke="black" points="590.5,-926 590.5,-944 667.5,-944 667.5,-926 590.5,-926"/>
<text text-anchor="start" x="593.5" y="-932.2" font-family="Helvetica,sans-Serif" font-size="11.00">&lt; 1</text>
<polygon fill="#ffffff" stroke="none" points="667.5,-926 667.5,-944 707.5,-944 707.5,-926 667.5,-926"/>
<polygon fill="none" stroke="black" points="667.5,-926 667.5,-944 707.5,-944 707.5,-926 667.5,-926"/>
<text text-anchor="start" x="697.5" y="-932.2" font-family="Helvetica,sans-Serif" font-size="11.00"> &#160;</text>
<polygon fill="#ffffff" stroke="none" points="707.5,-926 707.5,-944 748.5,-944 748.5,-926 707.5,-926"/>
<polygon fill="none" stroke="black" points="707.5,-926 707.5,-944 748.5,-944 748.5,-926 707.5,-926"/>
<text text-anchor="start" x="738.5" y="-932.2" font-family="Helvetica,sans-Serif" font-size="11.00"> &#160;</text>
</a>
</g>
</g>
<!-- containers -->
<g id="node2" class="node"><title>containers</title>
<g id="a_node2"><a xlink:href="../../tables/containers.html" xlink:title="containers" target="_top">
<polygon fill="#ffffff" stroke="none" points="245,-168 245,-1070 530,-1070 530,-168 245,-168"/>
<polygon fill="#f5f5f5" stroke="none" points="247.5,-1046 247.5,-1068 528.5,-1068 528.5,-1046 247.5,-1046"/>
<polygon fill="none" stroke="black" points="247.5,-1046 247.5,-1068 528.5,-1068 528.5,-1046 247.5,-1046"/>
<text text-anchor="start" x="252.5" y="-1055.2" font-family="Helvetica,sans-Serif" font-weight="bold" font-size="11.00">containers</text>
<text text-anchor="start" x="489.5" y="-1054.2" font-family="Helvetica,sans-Serif" font-size="11.00">[table]</text>
<polygon fill="none" stroke="black" points="247.5,-1024 247.5,-1046 407.5,-1046 407.5,-1024 247.5,-1024"/>
<image xlink:href="../../images/primaryKeys.png" width="11px" height="12px" preserveAspectRatio="xMinYMin meet" x="252.5" y="-1041"/>
<text text-anchor="start" x="267.5" y="-1032.2" font-family="Helvetica,sans-Serif" font-size="11.00">id</text>
<polygon fill="none" stroke="black" points="407.5,-1024 407.5,-1046 528.5,-1046 528.5,-1024 407.5,-1024"/>
<text text-anchor="start" x="410.5" y="-1032.2" font-family="Helvetica,sans-Serif" font-size="11.00">bigserial[19]</text>
<polygon fill="none" stroke="black" points="247.5,-1002 247.5,-1024 407.5,-1024 407.5,-1002 247.5,-1002"/>
<text text-anchor="start" x="267.5" y="-1010.2" font-family="Helvetica,sans-Serif" font-size="11.00">ems_ref</text>
<polygon fill="none" stroke="black" points="407.5,-1002 407.5,-1024 528.5,-1024 528.5,-1002 407.5,-1002"/>
<text text-anchor="start" x="410.5" y="-1010.2" font-family="Helvetica,sans-Serif" font-size="11.00">varchar[2147483647]</text>
<polygon fill="none" stroke="black" points="247.5,-980 247.5,-1002 407.5,-1002 407.5,-980 247.5,-980"/>
<text text-anchor="start" x="267.5" y="-988.2" font-family="Helvetica,sans-Serif" font-size="11.00">restart_count</text>
<polygon fill="none" stroke="black" points="407.5,-980 407.5,-1002 528.5,-1002 528.5,-980 407.5,-980"/>
<text text-anchor="start" x="410.5" y="-988.2" font-family="Helvetica,sans-Serif" font-size="11.00">int4[10]</text>
<polygon fill="none" stroke="black" points="247.5,-958 247.5,-980 407.5,-980 407.5,-958 247.5,-958"/>
<text text-anchor="start" x="267.5" y="-966.2" font-family="Helvetica,sans-Serif" font-size="11.00">state</text>
<polygon fill="none" stroke="black" points="407.5,-958 407.5,-980 528.5,-980 528.5,-958 407.5,-958"/>
<text text-anchor="start" x="410.5" y="-966.2" font-family="Helvetica,sans-Serif" font-size="11.00">varchar[2147483647]</text>
<polygon fill="none" stroke="black" points="247.5,-936 247.5,-958 407.5,-958 407.5,-936 247.5,-936"/>
<text text-anchor="start" x="267.5" y="-944.2" font-family="Helvetica,sans-Serif" font-size="11.00">name</text>
<polygon fill="none" stroke="black" points="407.5,-936 407.5,-958 528.5,-958 528.5,-936 407.5,-936"/>
<text text-anchor="start" x="410.5" y="-944.2" font-family="Helvetica,sans-Serif" font-size="11.00">varchar[2147483647]</text>
<polygon fill="none" stroke="black" points="247.5,-914 247.5,-936 407.5,-936 407.5,-914 247.5,-914"/>
<text text-anchor="start" x="267.5" y="-922.2" font-family="Helvetica,sans-Serif" font-size="11.00">backing_ref</text>
<polygon fill="none" stroke="black" points="407.5,-914 407.5,-936 528.5,-936 528.5,-914 407.5,-914"/>
<text text-anchor="start" x="410.5" y="-922.2" font-family="Helvetica,sans-Serif" font-size="11.00">varchar[2147483647]</text>
<polygon fill="none" stroke="black" points="247.5,-892 247.5,-914 407.5,-914 407.5,-892 247.5,-892"/>
<text text-anchor="start" x="267.5" y="-900.2" font-family="Helvetica,sans-Serif" font-size="11.00">last_perf_capture_on</text>
<polygon fill="none" stroke="black" points="407.5,-892 407.5,-914 528.5,-914 528.5,-892 407.5,-892"/>
<text text-anchor="start" x="410.5" y="-900.2" font-family="Helvetica,sans-Serif" font-size="11.00">timestamp[29,6]</text>
<polygon fill="#ffffff" stroke="none" points="247.5,-870 247.5,-892 407.5,-892 407.5,-870 247.5,-870"/>
<polygon fill="none" stroke="black" points="247.5,-870 247.5,-892 407.5,-892 407.5,-870 247.5,-870"/>
<text text-anchor="start" x="267.5" y="-878.2" font-family="Helvetica,sans-Serif" font-size="11.00">type</text>
<polygon fill="none" stroke="black" points="407.5,-870 407.5,-892 528.5,-892 528.5,-870 407.5,-870"/>
<text text-anchor="start" x="410.5" y="-878.2" font-family="Helvetica,sans-Serif" font-size="11.00">varchar[2147483647]</text>
<polygon fill="none" stroke="black" points="247.5,-848 247.5,-870 407.5,-870 407.5,-848 247.5,-848"/>
<image xlink:href="../../images/foreignKeys.png" width="11px" height="12px" preserveAspectRatio="xMinYMin meet" x="252.5" y="-865"/>
<text text-anchor="start" x="267.5" y="-856.2" font-family="Helvetica,sans-Serif" font-size="11.00">container_image_id</text>
<polygon fill="none" stroke="black" points="407.5,-848 407.5,-870 528.5,-870 528.5,-848 407.5,-848"/>
<text text-anchor="start" x="410.5" y="-856.2" font-family="Helvetica,sans-Serif" font-size="11.00">int8[19]</text>
<polygon fill="none" stroke="black" points="247.5,-826 247.5,-848 407.5,-848 407.5,-826 247.5,-826"/>
<text text-anchor="start" x="267.5" y="-834.2" font-family="Helvetica,sans-Serif" font-size="11.00">reason</text>
<polygon fill="none" stroke="black" points="407.5,-826 407.5,-848 528.5,-848 528.5,-826 407.5,-826"/>
<text text-anchor="start" x="410.5" y="-834.2" font-family="Helvetica,sans-Serif" font-size="11.00">varchar[2147483647]</text>
<polygon fill="none" stroke="black" points="247.5,-804 247.5,-826 407.5,-826 407.5,-804 247.5,-804"/>
<text text-anchor="start" x="267.5" y="-812.2" font-family="Helvetica,sans-Serif" font-size="11.00">started_at</text>
<polygon fill="none" stroke="black" points="407.5,-804 407.5,-826 528.5,-826 528.5,-804 407.5,-804"/>
<text text-anchor="start" x="410.5" y="-812.2" font-family="Helvetica,sans-Serif" font-size="11.00">timestamp[29,6]</text>
<polygon fill="none" stroke="black" points="247.5,-782 247.5,-804 407.5,-804 407.5,-782 247.5,-782"/>
<text text-anchor="start" x="267.5" y="-790.2" font-family="Helvetica,sans-Serif" font-size="11.00">finished_at</text>
<polygon fill="none" stroke="black" points="407.5,-782 407.5,-804 528.5,-804 528.5,-782 407.5,-782"/>
<text text-anchor="start" x="410.5" y="-790.2" font-family="Helvetica,sans-Serif" font-size="11.00">timestamp[29,6]</text>
<polygon fill="none" stroke="black" points="247.5,-760 247.5,-782 407.5,-782 407.5,-760 247.5,-760"/>
<text text-anchor="start" x="267.5" y="-768.2" font-family="Helvetica,sans-Serif" font-size="11.00">exit_code</text>
<polygon fill="none" stroke="black" points="407.5,-760 407.5,-782 528.5,-782 528.5,-760 407.5,-760"/>
<text text-anchor="start" x="410.5" y="-768.2" font-family="Helvetica,sans-Serif" font-size="11.00">int4[10]</text>
<polygon fill="none" stroke="black" points="247.5,-738 247.5,-760 407.5,-760 407.5,-738 247.5,-738"/>
<text text-anchor="start" x="267.5" y="-746.2" font-family="Helvetica,sans-Serif" font-size="11.00">signal</text>
<polygon fill="none" stroke="black" points="407.5,-738 407.5,-760 528.5,-760 528.5,-738 407.5,-738"/>
<text text-anchor="start" x="410.5" y="-746.2" font-family="Helvetica,sans-Serif" font-size="11.00">int4[10]</text>
<polygon fill="none" stroke="black" points="247.5,-716 247.5,-738 407.5,-738 407.5,-716 247.5,-716"/>
<text text-anchor="start" x="267.5" y="-724.2" font-family="Helvetica,sans-Serif" font-size="11.00">message</text>
<polygon fill="none" stroke="black" points="407.5,-716 407.5,-738 528.5,-738 528.5,-716 407.5,-716"/>
<text text-anchor="start" x="410.5" y="-724.2" font-family="Helvetica,sans-Serif" font-size="11.00">varchar[2147483647]</text>
<polygon fill="none" stroke="black" points="247.5,-694 247.5,-716 407.5,-716 407.5,-694 247.5,-694"/>
<text text-anchor="start" x="267.5" y="-702.2" font-family="Helvetica,sans-Serif" font-size="11.00">last_state</text>
<polygon fill="none" stroke="black" points="407.5,-694 407.5,-716 528.5,-716 528.5,-694 407.5,-694"/>
<text text-anchor="start" x="410.5" y="-702.2" font-family="Helvetica,sans-Serif" font-size="11.00">varchar[2147483647]</text>
<polygon fill="none" stroke="black" points="247.5,-672 247.5,-694 407.5,-694 407.5,-672 247.5,-672"/>
<text text-anchor="start" x="267.5" y="-680.2" font-family="Helvetica,sans-Serif" font-size="11.00">last_reason</text>
<polygon fill="none" stroke="black" points="407.5,-672 407.5,-694 528.5,-694 528.5,-672 407.5,-672"/>
<text text-anchor="start" x="410.5" y="-680.2" font-family="Helvetica,sans-Serif" font-size="11.00">varchar[2147483647]</text>
<polygon fill="none" stroke="black" points="247.5,-650 247.5,-672 407.5,-672 407.5,-650 247.5,-650"/>
<text text-anchor="start" x="267.5" y="-658.2" font-family="Helvetica,sans-Serif" font-size="11.00">last_started_at</text>
<polygon fill="none" stroke="black" points="407.5,-650 407.5,-672 528.5,-672 528.5,-650 407.5,-650"/>
<text text-anchor="start" x="410.5" y="-658.2" font-family="Helvetica,sans-Serif" font-size="11.00">timestamp[29,6]</text>
<polygon fill="none" stroke="black" points="247.5,-628 247.5,-650 407.5,-650 407.5,-628 247.5,-628"/>
<text text-anchor="start" x="267.5" y="-636.2" font-family="Helvetica,sans-Serif" font-size="11.00">last_finished_at</text>
<polygon fill="none" stroke="black" points="407.5,-628 407.5,-650 528.5,-650 528.5,-628 407.5,-628"/>
<text text-anchor="start" x="410.5" y="-636.2" font-family="Helvetica,sans-Serif" font-size="11.00">timestamp[29,6]</text>
<polygon fill="none" stroke="black" points="247.5,-606 247.5,-628 407.5,-628 407.5,-606 247.5,-606"/>
<text text-anchor="start" x="267.5" y="-614.2" font-family="Helvetica,sans-Serif" font-size="11.00">last_exit_code</text>
<polygon fill="none" stroke="black" points="407.5,-606 407.5,-628 528.5,-628 528.5,-606 407.5,-606"/>
<text text-anchor="start" x="410.5" y="-614.2" font-family="Helvetica,sans-Serif" font-size="11.00">int4[10]</text>
<polygon fill="none" stroke="black" points="247.5,-584 247.5,-606 407.5,-606 407.5,-584 247.5,-584"/>
<text text-anchor="start" x="267.5" y="-592.2" font-family="Helvetica,sans-Serif" font-size="11.00">last_signal</text>
<polygon fill="none" stroke="black" points="407.5,-584 407.5,-606 528.5,-606 528.5,-584 407.5,-584"/>
<text text-anchor="start" x="410.5" y="-592.2" font-family="Helvetica,sans-Serif" font-size="11.00">int4[10]</text>
<polygon fill="none" stroke="black" points="247.5,-562 247.5,-584 407.5,-584 407.5,-562 247.5,-562"/>
<text text-anchor="start" x="267.5" y="-570.2" font-family="Helvetica,sans-Serif" font-size="11.00">last_message</text>
<polygon fill="none" stroke="black" points="407.5,-562 407.5,-584 528.5,-584 528.5,-562 407.5,-562"/>
<text text-anchor="start" x="410.5" y="-570.2" font-family="Helvetica,sans-Serif" font-size="11.00">varchar[2147483647]</text>
<polygon fill="#ffffff" stroke="none" points="247.5,-540 247.5,-562 407.5,-562 407.5,-540 247.5,-540"/>
<polygon fill="none" stroke="black" points="247.5,-540 247.5,-562 407.5,-562 407.5,-540 247.5,-540"/>
<text text-anchor="start" x="267.5" y="-548.2" font-family="Helvetica,sans-Serif" font-size="11.00">deleted_on</text>
<polygon fill="none" stroke="black" points="407.5,-540 407.5,-562 528.5,-562 528.5,-540 407.5,-540"/>
<text text-anchor="start" x="410.5" y="-548.2" font-family="Helvetica,sans-Serif" font-size="11.00">timestamp[29,6]</text>
<polygon fill="none" stroke="black" points="247.5,-518 247.5,-540 407.5,-540 407.5,-518 247.5,-518"/>
<text text-anchor="start" x="267.5" y="-526.2" font-family="Helvetica,sans-Serif" font-size="11.00">ems_id</text>
<polygon fill="none" stroke="black" points="407.5,-518 407.5,-540 528.5,-540 528.5,-518 407.5,-518"/>
<text text-anchor="start" x="410.5" y="-526.2" font-family="Helvetica,sans-Serif" font-size="11.00">int8[19]</text>
<polygon fill="none" stroke="black" points="247.5,-496 247.5,-518 407.5,-518 407.5,-496 247.5,-496"/>
<text text-anchor="start" x="267.5" y="-504.2" font-family="Helvetica,sans-Serif" font-size="11.00">request_cpu_cores</text>
<polygon fill="none" stroke="black" points="407.5,-496 407.5,-518 528.5,-518 528.5,-496 407.5,-496"/>
<text text-anchor="start" x="410.5" y="-504.2" font-family="Helvetica,sans-Serif" font-size="11.00">float8[17,17]</text>
<polygon fill="none" stroke="black" points="247.5,-474 247.5,-496 407.5,-496 407.5,-474 247.5,-474"/>
<text text-anchor="start" x="267.5" y="-482.2" font-family="Helvetica,sans-Serif" font-size="11.00">request_memory_bytes</text>
<polygon fill="none" stroke="black" points="407.5,-474 407.5,-496 528.5,-496 528.5,-474 407.5,-474"/>
<text text-anchor="start" x="410.5" y="-482.2" font-family="Helvetica,sans-Serif" font-size="11.00">int8[19]</text>
<polygon fill="none" stroke="black" points="247.5,-452 247.5,-474 407.5,-474 407.5,-452 247.5,-452"/>
<text text-anchor="start" x="267.5" y="-460.2" font-family="Helvetica,sans-Serif" font-size="11.00">limit_cpu_cores</text>
<polygon fill="none" stroke="black" points="407.5,-452 407.5,-474 528.5,-474 528.5,-452 407.5,-452"/>
<text text-anchor="start" x="410.5" y="-460.2" font-family="Helvetica,sans-Serif" font-size="11.00">float8[17,17]</text>
<polygon fill="none" stroke="black" points="247.5,-430 247.5,-452 407.5,-452 407.5,-430 247.5,-430"/>
<text text-anchor="start" x="267.5" y="-438.2" font-family="Helvetica,sans-Serif" font-size="11.00">limit_memory_bytes</text>
<polygon fill="none" stroke="black" points="407.5,-430 407.5,-452 528.5,-452 528.5,-430 407.5,-430"/>
<text text-anchor="start" x="410.5" y="-438.2" font-family="Helvetica,sans-Serif" font-size="11.00">int8[19]</text>
<polygon fill="none" stroke="black" points="247.5,-408 247.5,-430 407.5,-430 407.5,-408 247.5,-408"/>
<text text-anchor="start" x="267.5" y="-416.2" font-family="Helvetica,sans-Serif" font-size="11.00">image</text>
<polygon fill="none" stroke="black" points="407.5,-408 407.5,-430 528.5,-430 528.5,-408 407.5,-408"/>
<text text-anchor="start" x="410.5" y="-416.2" font-family="Helvetica,sans-Serif" font-size="11.00">varchar[2147483647]</text>
<polygon fill="none" stroke="black" points="247.5,-386 247.5,-408 407.5,-408 407.5,-386 247.5,-386"/>
<text text-anchor="start" x="267.5" y="-394.2" font-family="Helvetica,sans-Serif" font-size="11.00">image_pull_policy</text>
<polygon fill="none" stroke="black" points="407.5,-386 407.5,-408 528.5,-408 528.5,-386 407.5,-386"/>
<text text-anchor="start" x="410.5" y="-394.2" font-family="Helvetica,sans-Serif" font-size="11.00">varchar[2147483647]</text>
<polygon fill="none" stroke="black" points="247.5,-364 247.5,-386 407.5,-386 407.5,-364 247.5,-364"/>
<text text-anchor="start" x="267.5" y="-372.2" font-family="Helvetica,sans-Serif" font-size="11.00">memory</text>
<polygon fill="none" stroke="black" points="407.5,-364 407.5,-386 528.5,-386 528.5,-364 407.5,-364"/>
<text text-anchor="start" x="410.5" y="-372.2" font-family="Helvetica,sans-Serif" font-size="11.00">varchar[2147483647]</text>
<polygon fill="none" stroke="black" points="247.5,-342 247.5,-364 407.5,-364 407.5,-342 247.5,-342"/>
<text text-anchor="start" x="267.5" y="-350.2" font-family="Helvetica,sans-Serif" font-size="11.00">cpu_cores</text>
<polygon fill="none" stroke="black" points="407.5,-342 407.5,-364 528.5,-364 528.5,-342 407.5,-342"/>
<text text-anchor="start" x="410.5" y="-350.2" font-family="Helvetica,sans-Serif" font-size="11.00">float8[17,17]</text>
<polygon fill="none" stroke="black" points="247.5,-320 247.5,-342 407.5,-342 407.5,-320 247.5,-320"/>
<image xlink:href="../../images/foreignKeys.png" width="11px" height="12px" preserveAspectRatio="xMinYMin meet" x="252.5" y="-337"/>
<text text-anchor="start" x="267.5" y="-328.2" font-family="Helvetica,sans-Serif" font-size="11.00">container_group_id</text>
<polygon fill="none" stroke="black" points="407.5,-320 407.5,-342 528.5,-342 528.5,-320 407.5,-320"/>
<text text-anchor="start" x="410.5" y="-328.2" font-family="Helvetica,sans-Serif" font-size="11.00">int8[19]</text>
<polygon fill="none" stroke="black" points="247.5,-298 247.5,-320 407.5,-320 407.5,-298 247.5,-298"/>
<text text-anchor="start" x="267.5" y="-306.2" font-family="Helvetica,sans-Serif" font-size="11.00">privileged</text>
<polygon fill="none" stroke="black" points="407.5,-298 407.5,-320 528.5,-320 528.5,-298 407.5,-298"/>
<text text-anchor="start" x="410.5" y="-306.2" font-family="Helvetica,sans-Serif" font-size="11.00">bool[1]</text>
<polygon fill="none" stroke="black" points="247.5,-276 247.5,-298 407.5,-298 407.5,-276 247.5,-276"/>
<text text-anchor="start" x="267.5" y="-284.2" font-family="Helvetica,sans-Serif" font-size="11.00">run_as_user</text>
<polygon fill="none" stroke="black" points="407.5,-276 407.5,-298 528.5,-298 528.5,-276 407.5,-276"/>
<text text-anchor="start" x="410.5" y="-284.2" font-family="Helvetica,sans-Serif" font-size="11.00">int8[19]</text>
<polygon fill="none" stroke="black" points="247.5,-254 247.5,-276 407.5,-276 407.5,-254 247.5,-254"/>
<text text-anchor="start" x="267.5" y="-262.2" font-family="Helvetica,sans-Serif" font-size="11.00">run_as_non_root</text>
<polygon fill="none" stroke="black" points="407.5,-254 407.5,-276 528.5,-276 528.5,-254 407.5,-254"/>
<text text-anchor="start" x="410.5" y="-262.2" font-family="Helvetica,sans-Serif" font-size="11.00">bool[1]</text>
<polygon fill="none" stroke="black" points="247.5,-232 247.5,-254 407.5,-254 407.5,-232 247.5,-232"/>
<text text-anchor="start" x="267.5" y="-240.2" font-family="Helvetica,sans-Serif" font-size="11.00">capabilities_add</text>
<polygon fill="none" stroke="black" points="407.5,-232 407.5,-254 528.5,-254 528.5,-232 407.5,-232"/>
<text text-anchor="start" x="410.5" y="-240.2" font-family="Helvetica,sans-Serif" font-size="11.00">varchar[2147483647]</text>
<polygon fill="none" stroke="black" points="247.5,-210 247.5,-232 407.5,-232 407.5,-210 247.5,-210"/>
<text text-anchor="start" x="267.5" y="-218.2" font-family="Helvetica,sans-Serif" font-size="11.00">capabilities_drop</text>
<polygon fill="none" stroke="black" points="407.5,-210 407.5,-232 528.5,-232 528.5,-210 407.5,-210"/>
<text text-anchor="start" x="410.5" y="-218.2" font-family="Helvetica,sans-Serif" font-size="11.00">varchar[2147483647]</text>
<polygon fill="none" stroke="black" points="247.5,-188 247.5,-210 407.5,-210 407.5,-188 247.5,-188"/>
<text text-anchor="start" x="267.5" y="-196.2" font-family="Helvetica,sans-Serif" font-size="11.00">command</text>
<polygon fill="none" stroke="black" points="407.5,-188 407.5,-210 528.5,-210 528.5,-188 407.5,-188"/>
<text text-anchor="start" x="410.5" y="-196.2" font-family="Helvetica,sans-Serif" font-size="11.00">text[2147483647]</text>
<polygon fill="#ffffff" stroke="none" points="247.5,-170 247.5,-188 332.5,-188 332.5,-170 247.5,-170"/>
<polygon fill="none" stroke="black" points="247.5,-170 247.5,-188 332.5,-188 332.5,-170 247.5,-170"/>
<text text-anchor="start" x="250.5" y="-176.2" font-family="Helvetica,sans-Serif" font-size="11.00">&lt; 2</text>
<polygon fill="#ffffff" stroke="none" points="332.5,-170 332.5,-188 407.5,-188 407.5,-170 332.5,-170"/>
<polygon fill="none" stroke="black" points="332.5,-170 332.5,-188 407.5,-188 407.5,-170 332.5,-170"/>
<text text-anchor="start" x="397.5" y="-176.2" font-family="Helvetica,sans-Serif" font-size="11.00"> &#160;</text>
<polygon fill="#ffffff" stroke="none" points="407.5,-170 407.5,-188 528.5,-188 528.5,-170 407.5,-170"/>
<polygon fill="none" stroke="black" points="407.5,-170 407.5,-188 528.5,-188 528.5,-170 407.5,-170"/>
<text text-anchor="start" x="508.5" y="-176.2" font-family="Helvetica,sans-Serif" font-size="11.00">3 &gt;</text>
<polygon fill="none" stroke="black" stroke-width="2" points="246,-169 246,-1069 529,-1069 529,-169 246,-169"/>
</a>
</g>
</g>
<!-- container_env_vars&#45;&gt;containers -->
<g id="edge1" class="edge"><title>container_env_vars:container_id:w&#45;&gt;containers:id.type:e</title>
<path fill="none" stroke="black" d="M575.418,-976.878C554.962,-990.452 562.004,-1035 529.5,-1035"/>
<polygon fill="black" stroke="black" points="581.787,-975.124 590.456,-976.471 585.644,-974.062 589.5,-973 589.5,-973 589.5,-973 585.644,-974.062 588.544,-969.529 581.787,-975.124 581.787,-975.124"/>
<ellipse fill="none" stroke="black" cx="578.702" cy="-975.974" rx="3.20001" ry="3.20001"/>
</g>
<!-- container_groups -->
<g id="node4" class="node"><title>container_groups</title>
<g id="a_node4"><a xlink:href="../../tables/container_groups.html" xlink:title="container_groups" target="_top">
<polygon fill="#ffffff" stroke="none" points="19,-37 19,-271 185,-271 185,-37 19,-37"/>
<polygon fill="#f5f5f5" stroke="none" points="19,-249 19,-271 185,-271 185,-249 19,-249"/>
<polygon fill="none" stroke="black" points="19,-249 19,-271 185,-271 185,-249 19,-249"/>
<text text-anchor="start" x="24" y="-258.2" font-family="Helvetica,sans-Serif" font-weight="bold" font-size="11.00">container_groups</text>
<text text-anchor="start" x="146" y="-257.2" font-family="Helvetica,sans-Serif" font-size="11.00">[table]</text>
<polygon fill="none" stroke="black" points="19,-227 19,-249 185,-249 185,-227 19,-227"/>
<image xlink:href="../../images/primaryKeys.png" width="11px" height="12px" preserveAspectRatio="xMinYMin meet" x="24" y="-244"/>
<text text-anchor="start" x="39" y="-235.2" font-family="Helvetica,sans-Serif" font-size="11.00">id</text>
<polygon fill="#ffffff" stroke="none" points="19,-205 19,-227 185,-227 185,-205 19,-205"/>
<polygon fill="none" stroke="black" points="19,-205 19,-227 185,-227 185,-205 19,-205"/>
<text text-anchor="start" x="39" y="-213.2" font-family="Helvetica,sans-Serif" font-size="11.00">ems_id</text>
<polygon fill="none" stroke="black" points="19,-183 19,-205 185,-205 185,-183 19,-183"/>
<image xlink:href="../../images/foreignKeys.png" width="11px" height="12px" preserveAspectRatio="xMinYMin meet" x="24" y="-200"/>
<text text-anchor="start" x="39" y="-191.2" font-family="Helvetica,sans-Serif" font-size="11.00">container_node_id</text>
<polygon fill="none" stroke="black" points="19,-161 19,-183 185,-183 185,-161 19,-161"/>
<image xlink:href="../../images/foreignKeys.png" width="11px" height="12px" preserveAspectRatio="xMinYMin meet" x="24" y="-178"/>
<text text-anchor="start" x="39" y="-169.2" font-family="Helvetica,sans-Serif" font-size="11.00">container_replicator_id</text>
<polygon fill="#ffffff" stroke="none" points="19,-139 19,-161 185,-161 185,-139 19,-139"/>
<polygon fill="none" stroke="black" points="19,-139 19,-161 185,-161 185,-139 19,-139"/>
<text text-anchor="start" x="39" y="-147.2" font-family="Helvetica,sans-Serif" font-size="11.00">type</text>
<polygon fill="none" stroke="black" points="19,-117 19,-139 185,-139 185,-117 19,-117"/>
<image xlink:href="../../images/foreignKeys.png" width="11px" height="12px" preserveAspectRatio="xMinYMin meet" x="24" y="-134"/>
<text text-anchor="start" x="39" y="-125.2" font-family="Helvetica,sans-Serif" font-size="11.00">container_project_id</text>
<polygon fill="none" stroke="black" points="19,-95 19,-117 185,-117 185,-95 19,-95"/>
<image xlink:href="../../images/foreignKeys.png" width="11px" height="12px" preserveAspectRatio="xMinYMin meet" x="24" y="-112"/>
<text text-anchor="start" x="39" y="-103.2" font-family="Helvetica,sans-Serif" font-size="11.00">container_build_pod_id</text>
<polygon fill="#ffffff" stroke="none" points="19,-73 19,-95 185,-95 185,-73 19,-73"/>
<polygon fill="none" stroke="black" points="19,-73 19,-95 185,-95 185,-73 19,-73"/>
<text text-anchor="start" x="39" y="-81.2" font-family="Helvetica,sans-Serif" font-size="11.00">deleted_on</text>
<polygon fill="none" stroke="black" points="19,-55 19,-73 185,-73 185,-55 19,-55"/>
<text text-anchor="start" x="22" y="-61.2" font-family="Helvetica,sans-Serif" font-size="11.00">...</text>
<polygon fill="#ffffff" stroke="none" points="19,-37 19,-55 95,-55 95,-37 19,-37"/>
<polygon fill="none" stroke="black" points="19,-37 19,-55 95,-55 95,-37 19,-37"/>
<text text-anchor="start" x="22" y="-43.2" font-family="Helvetica,sans-Serif" font-size="11.00">&lt; 4</text>
<polygon fill="#ffffff" stroke="none" points="95,-37 95,-55 135,-55 135,-37 95,-37"/>
<polygon fill="none" stroke="black" points="95,-37 95,-55 135,-55 135,-37 95,-37"/>
<text text-anchor="start" x="125" y="-43.2" font-family="Helvetica,sans-Serif" font-size="11.00"> &#160;</text>
<polygon fill="#ffffff" stroke="none" points="135,-37 135,-55 185,-55 185,-37 135,-37"/>
<polygon fill="none" stroke="black" points="135,-37 135,-55 185,-55 185,-37 135,-37"/>
<text text-anchor="start" x="165" y="-43.2" font-family="Helvetica,sans-Serif" font-size="11.00">3 &gt;</text>
</a>
</g>
</g>
<!-- containers&#45;&gt;container_groups -->
<g id="edge3" class="edge"><title>containers:container_group_id:w&#45;&gt;container_groups:id:e</title>
<path fill="none" stroke="black" d="M232.485,-327.468C204.924,-310.48 229.531,-238 186,-238"/>
<polygon fill="black" stroke="black" points="238.743,-329.045 245.62,-334.491 242.621,-330.022 246.5,-331 246.5,-331 246.5,-331 242.621,-330.022 247.38,-327.509 238.743,-329.045 238.743,-329.045"/>
<ellipse fill="none" stroke="black" cx="235.64" cy="-328.263" rx="3.2" ry="3.2"/>
</g>
<!-- container_images -->
<g id="node5" class="node"><title>container_images</title>
<g id="a_node5"><a xlink:href="../../tables/container_images.html" xlink:title="container_images" target="_top">
<polygon fill="#ffffff" stroke="none" points="8,-768 8,-892 196,-892 196,-768 8,-768"/>
<polygon fill="#f5f5f5" stroke="none" points="8,-870 8,-892 196,-892 196,-870 8,-870"/>
<polygon fill="none" stroke="black" points="8,-870 8,-892 196,-892 196,-870 8,-870"/>
<text text-anchor="start" x="13" y="-879.2" font-family="Helvetica,sans-Serif" font-weight="bold" font-size="11.00">container_images</text>
<text text-anchor="start" x="157" y="-878.2" font-family="Helvetica,sans-Serif" font-size="11.00">[table]</text>
<polygon fill="none" stroke="black" points="8,-848 8,-870 196,-870 196,-848 8,-848"/>
<image xlink:href="../../images/primaryKeys.png" width="11px" height="12px" preserveAspectRatio="xMinYMin meet" x="13" y="-865"/>
<text text-anchor="start" x="28" y="-856.2" font-family="Helvetica,sans-Serif" font-size="11.00">id</text>
<polygon fill="none" stroke="black" points="8,-826 8,-848 196,-848 196,-826 8,-826"/>
<image xlink:href="../../images/foreignKeys.png" width="11px" height="12px" preserveAspectRatio="xMinYMin meet" x="13" y="-843"/>
<text text-anchor="start" x="28" y="-834.2" font-family="Helvetica,sans-Serif" font-size="11.00">container_image_registry_id</text>
<polygon fill="#ffffff" stroke="none" points="8,-804 8,-826 196,-826 196,-804 8,-804"/>
<polygon fill="none" stroke="black" points="8,-804 8,-826 196,-826 196,-804 8,-804"/>
<text text-anchor="start" x="28" y="-812.2" font-family="Helvetica,sans-Serif" font-size="11.00">deleted_on</text>
<polygon fill="none" stroke="black" points="8,-786 8,-804 196,-804 196,-786 8,-786"/>
<text text-anchor="start" x="11" y="-792.2" font-family="Helvetica,sans-Serif" font-size="11.00">...</text>
<polygon fill="#ffffff" stroke="none" points="8,-768 8,-786 95,-786 95,-768 8,-768"/>
<polygon fill="none" stroke="black" points="8,-768 8,-786 95,-786 95,-768 8,-768"/>
<text text-anchor="start" x="11" y="-774.2" font-family="Helvetica,sans-Serif" font-size="11.00">&lt; 1</text>
<polygon fill="#ffffff" stroke="none" points="95,-768 95,-786 140,-786 140,-768 95,-768"/>
<polygon fill="none" stroke="black" points="95,-768 95,-786 140,-786 140,-768 95,-768"/>
<text text-anchor="start" x="130" y="-774.2" font-family="Helvetica,sans-Serif" font-size="11.00"> &#160;</text>
<polygon fill="#ffffff" stroke="none" points="140,-768 140,-786 196,-786 196,-768 140,-768"/>
<polygon fill="none" stroke="black" points="140,-768 140,-786 196,-786 196,-768 140,-768"/>
<text text-anchor="start" x="176" y="-774.2" font-family="Helvetica,sans-Serif" font-size="11.00">3 &gt;</text>
</a>
</g>
</g>
<!-- containers&#45;&gt;container_images -->
<g id="edge4" class="edge"><title>containers:container_image_id:w&#45;&gt;container_images:id:e</title>
<path fill="none" stroke="black" d="M231.843,-859C220.414,-859 213.156,-859 197,-859"/>
<polygon fill="black" stroke="black" points="238.5,-859 246.5,-862.6 242.5,-859 246.5,-859 246.5,-859 246.5,-859 242.5,-859 246.5,-855.4 238.5,-859 238.5,-859"/>
<ellipse fill="none" stroke="black" cx="235.3" cy="-859" rx="3.2" ry="3.2"/>
</g>
<!-- container_port_configs -->
<g id="node3" class="node"><title>container_port_configs</title>
<g id="a_node3"><a xlink:href="../../tables/container_port_configs.html" xlink:title="container_port_configs" target="_top">
<polygon fill="#ffffff" stroke="none" points="581,-1049 581,-1151 758,-1151 758,-1049 581,-1049"/>
<polygon fill="#f5f5f5" stroke="none" points="581.5,-1129 581.5,-1151 758.5,-1151 758.5,-1129 581.5,-1129"/>
<polygon fill="none" stroke="black" points="581.5,-1129 581.5,-1151 758.5,-1151 758.5,-1129 581.5,-1129"/>
<text text-anchor="start" x="586.5" y="-1138.2" font-family="Helvetica,sans-Serif" font-weight="bold" font-size="11.00">container_port_configs</text>
<text text-anchor="start" x="719.5" y="-1137.2" font-family="Helvetica,sans-Serif" font-size="11.00">[table]</text>
<polygon fill="none" stroke="black" points="581.5,-1107 581.5,-1129 758.5,-1129 758.5,-1107 581.5,-1107"/>
<image xlink:href="../../images/primaryKeys.png" width="11px" height="12px" preserveAspectRatio="xMinYMin meet" x="586.5" y="-1124"/>
<text text-anchor="start" x="611.5" y="-1115.2" font-family="Helvetica,sans-Serif" font-size="11.00">id</text>
<polygon fill="none" stroke="black" points="581.5,-1085 581.5,-1107 758.5,-1107 758.5,-1085 581.5,-1085"/>
<image xlink:href="../../images/foreignKeys.png" width="11px" height="12px" preserveAspectRatio="xMinYMin meet" x="586.5" y="-1102"/>
<text text-anchor="start" x="611.5" y="-1093.2" font-family="Helvetica,sans-Serif" font-size="11.00">container_id</text>
<polygon fill="none" stroke="black" points="581.5,-1067 581.5,-1085 758.5,-1085 758.5,-1067 581.5,-1067"/>
<text text-anchor="start" x="584.5" y="-1073.2" font-family="Helvetica,sans-Serif" font-size="11.00">...</text>
<polygon fill="#ffffff" stroke="none" points="581.5,-1049 581.5,-1067 668.5,-1067 668.5,-1049 581.5,-1049"/>
<polygon fill="none" stroke="black" points="581.5,-1049 581.5,-1067 668.5,-1067 668.5,-1049 581.5,-1049"/>
<text text-anchor="start" x="584.5" y="-1055.2" font-family="Helvetica,sans-Serif" font-size="11.00">&lt; 1</text>
<polygon fill="#ffffff" stroke="none" points="668.5,-1049 668.5,-1067 713.5,-1067 713.5,-1049 668.5,-1049"/>
<polygon fill="none" stroke="black" points="668.5,-1049 668.5,-1067 713.5,-1067 713.5,-1049 668.5,-1049"/>
<text text-anchor="start" x="703.5" y="-1055.2" font-family="Helvetica,sans-Serif" font-size="11.00"> &#160;</text>
<polygon fill="#ffffff" stroke="none" points="713.5,-1049 713.5,-1067 758.5,-1067 758.5,-1049 713.5,-1049"/>
<polygon fill="none" stroke="black" points="713.5,-1049 713.5,-1067 758.5,-1067 758.5,-1049 713.5,-1049"/>
<text text-anchor="start" x="748.5" y="-1055.2" font-family="Helvetica,sans-Serif" font-size="11.00"> &#160;</text>
</a>
</g>
</g>
<!-- container_port_configs&#45;&gt;containers -->
<g id="edge2" class="edge"><title>container_port_configs:container_id:w&#45;&gt;containers:id.type:e</title>
<path fill="none" stroke="black" d="M566.596,-1091.21C550.3,-1076.83 558.764,-1035 529.5,-1035"/>
<polygon fill="black" stroke="black" points="572.936,-1093.4 579.328,-1099.4 576.718,-1094.7 580.5,-1096 580.5,-1096 580.5,-1096 576.718,-1094.7 581.672,-1092.6 572.936,-1093.4 572.936,-1093.4"/>
<ellipse fill="none" stroke="black" cx="569.91" cy="-1092.35" rx="3.20001" ry="3.20001"/>
</g>
<!-- event_streams -->
<g id="node6" class="node"><title>event_streams</title>
<g id="a_node6"><a xlink:href="../../tables/event_streams.html" xlink:title="event_streams" target="_top">
<polygon fill="#ffffff" stroke="none" points="579,-153 579,-673 760,-673 760,-153 579,-153"/>
<polygon fill="#f5f5f5" stroke="none" points="579.5,-651 579.5,-673 760.5,-673 760.5,-651 579.5,-651"/>
<polygon fill="none" stroke="black" points="579.5,-651 579.5,-673 760.5,-673 760.5,-651 579.5,-651"/>
<text text-anchor="start" x="584.5" y="-660.2" font-family="Helvetica,sans-Serif" font-weight="bold" font-size="11.00">event_streams</text>
<text text-anchor="start" x="721.5" y="-659.2" font-family="Helvetica,sans-Serif" font-size="11.00">[table]</text>
<polygon fill="none" stroke="black" points="579.5,-629 579.5,-651 760.5,-651 760.5,-629 579.5,-629"/>
<image xlink:href="../../images/primaryKeys.png" width="11px" height="12px" preserveAspectRatio="xMinYMin meet" x="584.5" y="-646"/>
<text text-anchor="start" x="599.5" y="-637.2" font-family="Helvetica,sans-Serif" font-size="11.00">id</text>
<polygon fill="#ffffff" stroke="none" points="579.5,-607 579.5,-629 760.5,-629 760.5,-607 579.5,-607"/>
<polygon fill="none" stroke="black" points="579.5,-607 579.5,-629 760.5,-629 760.5,-607 579.5,-607"/>
<text text-anchor="start" x="599.5" y="-615.2" font-family="Helvetica,sans-Serif" font-size="11.00">event_type</text>
<polygon fill="#ffffff" stroke="none" points="579.5,-585 579.5,-607 760.5,-607 760.5,-585 579.5,-585"/>
<polygon fill="none" stroke="black" points="579.5,-585 579.5,-607 760.5,-607 760.5,-585 579.5,-585"/>
<text text-anchor="start" x="599.5" y="-593.2" font-family="Helvetica,sans-Serif" font-size="11.00">timestamp</text>
<polygon fill="#ffffff" stroke="none" points="579.5,-563 579.5,-585 760.5,-585 760.5,-563 579.5,-563"/>
<polygon fill="none" stroke="black" points="579.5,-563 579.5,-585 760.5,-585 760.5,-563 579.5,-563"/>
<image xlink:href="../../images/foreignKeys.png" width="11px" height="12px" preserveAspectRatio="xMinYMin meet" x="584.5" y="-580"/>
<text text-anchor="start" x="599.5" y="-571.2" font-family="Helvetica,sans-Serif" font-size="11.00">host_id</text>
<polygon fill="#ffffff" stroke="none" points="579.5,-541 579.5,-563 760.5,-563 760.5,-541 579.5,-541"/>
<polygon fill="none" stroke="black" points="579.5,-541 579.5,-563 760.5,-563 760.5,-541 579.5,-541"/>
<text text-anchor="start" x="599.5" y="-549.2" font-family="Helvetica,sans-Serif" font-size="11.00">vm_or_template_id</text>
<polygon fill="#ffffff" stroke="none" points="579.5,-519 579.5,-541 760.5,-541 760.5,-519 579.5,-519"/>
<polygon fill="none" stroke="black" points="579.5,-519 579.5,-541 760.5,-541 760.5,-519 579.5,-519"/>
<text text-anchor="start" x="599.5" y="-527.2" font-family="Helvetica,sans-Serif" font-size="11.00">dest_host_id</text>
<polygon fill="#ffffff" stroke="none" points="579.5,-497 579.5,-519 760.5,-519 760.5,-497 579.5,-497"/>
<polygon fill="none" stroke="black" points="579.5,-497 579.5,-519 760.5,-519 760.5,-497 579.5,-497"/>
<text text-anchor="start" x="599.5" y="-505.2" font-family="Helvetica,sans-Serif" font-size="11.00">dest_vm_or_template_id</text>
<polygon fill="#ffffff" stroke="none" points="579.5,-475 579.5,-497 760.5,-497 760.5,-475 579.5,-475"/>
<polygon fill="none" stroke="black" points="579.5,-475 579.5,-497 760.5,-497 760.5,-475 579.5,-475"/>
<text text-anchor="start" x="599.5" y="-483.2" font-family="Helvetica,sans-Serif" font-size="11.00">chain_id</text>
<polygon fill="#ffffff" stroke="none" points="579.5,-453 579.5,-475 760.5,-475 760.5,-453 579.5,-453"/>
<polygon fill="none" stroke="black" points="579.5,-453 579.5,-475 760.5,-475 760.5,-453 579.5,-453"/>
<text text-anchor="start" x="599.5" y="-461.2" font-family="Helvetica,sans-Serif" font-size="11.00">ems_id</text>
<polygon fill="#ffffff" stroke="none" points="579.5,-431 579.5,-453 760.5,-453 760.5,-431 579.5,-431"/>
<polygon fill="none" stroke="black" points="579.5,-431 579.5,-453 760.5,-453 760.5,-431 579.5,-431"/>
<image xlink:href="../../images/foreignKeys.png" width="11px" height="12px" preserveAspectRatio="xMinYMin meet" x="584.5" y="-448"/>
<text text-anchor="start" x="599.5" y="-439.2" font-family="Helvetica,sans-Serif" font-size="11.00">ems_cluster_id</text>
<polygon fill="#ffffff" stroke="none" points="579.5,-409 579.5,-431 760.5,-431 760.5,-409 579.5,-409"/>
<polygon fill="none" stroke="black" points="579.5,-409 579.5,-431 760.5,-431 760.5,-409 579.5,-409"/>
<image xlink:href="../../images/foreignKeys.png" width="11px" height="12px" preserveAspectRatio="xMinYMin meet" x="584.5" y="-426"/>
<text text-anchor="start" x="599.5" y="-417.2" font-family="Helvetica,sans-Serif" font-size="11.00">availability_zone_id</text>
<polygon fill="none" stroke="black" points="579.5,-387 579.5,-409 760.5,-409 760.5,-387 579.5,-387"/>
<image xlink:href="../../images/foreignKeys.png" width="11px" height="12px" preserveAspectRatio="xMinYMin meet" x="584.5" y="-404"/>
<text text-anchor="start" x="599.5" y="-395.2" font-family="Helvetica,sans-Serif" font-size="11.00">container_node_id</text>
<polygon fill="none" stroke="black" points="579.5,-365 579.5,-387 760.5,-387 760.5,-365 579.5,-365"/>
<image xlink:href="../../images/foreignKeys.png" width="11px" height="12px" preserveAspectRatio="xMinYMin meet" x="584.5" y="-382"/>
<text text-anchor="start" x="599.5" y="-373.2" font-family="Helvetica,sans-Serif" font-size="11.00">container_group_id</text>
<polygon fill="#ffffff" stroke="none" points="579.5,-343 579.5,-365 760.5,-365 760.5,-343 579.5,-343"/>
<polygon fill="none" stroke="black" points="579.5,-343 579.5,-365 760.5,-365 760.5,-343 579.5,-343"/>
<text text-anchor="start" x="599.5" y="-351.2" font-family="Helvetica,sans-Serif" font-size="11.00">type</text>
<polygon fill="none" stroke="black" points="579.5,-321 579.5,-343 760.5,-343 760.5,-321 579.5,-321"/>
<image xlink:href="../../images/foreignKeys.png" width="11px" height="12px" preserveAspectRatio="xMinYMin meet" x="584.5" y="-338"/>
<text text-anchor="start" x="599.5" y="-329.2" font-family="Helvetica,sans-Serif" font-size="11.00">container_id</text>
<polygon fill="none" stroke="black" points="579.5,-299 579.5,-321 760.5,-321 760.5,-299 579.5,-299"/>
<image xlink:href="../../images/foreignKeys.png" width="11px" height="12px" preserveAspectRatio="xMinYMin meet" x="584.5" y="-316"/>
<text text-anchor="start" x="599.5" y="-307.2" font-family="Helvetica,sans-Serif" font-size="11.00">container_replicator_id</text>
<polygon fill="#ffffff" stroke="none" points="579.5,-277 579.5,-299 760.5,-299 760.5,-277 579.5,-277"/>
<polygon fill="none" stroke="black" points="579.5,-277 579.5,-299 760.5,-299 760.5,-277 579.5,-277"/>
<text text-anchor="start" x="599.5" y="-285.2" font-family="Helvetica,sans-Serif" font-size="11.00">generating_ems_id</text>
<polygon fill="none" stroke="black" points="579.5,-255 579.5,-277 760.5,-277 760.5,-255 579.5,-255"/>
<image xlink:href="../../images/foreignKeys.png" width="11px" height="12px" preserveAspectRatio="xMinYMin meet" x="584.5" y="-272"/>
<text text-anchor="start" x="599.5" y="-263.2" font-family="Helvetica,sans-Serif" font-size="11.00">physical_server_id</text>
<polygon fill="none" stroke="black" points="579.5,-233 579.5,-255 760.5,-255 760.5,-233 579.5,-233"/>
<image xlink:href="../../images/foreignKeys.png" width="11px" height="12px" preserveAspectRatio="xMinYMin meet" x="584.5" y="-250"/>
<text text-anchor="start" x="599.5" y="-241.2" font-family="Helvetica,sans-Serif" font-size="11.00">user_id</text>
<polygon fill="none" stroke="black" points="579.5,-211 579.5,-233 760.5,-233 760.5,-211 579.5,-211"/>
<image xlink:href="../../images/foreignKeys.png" width="11px" height="12px" preserveAspectRatio="xMinYMin meet" x="584.5" y="-228"/>
<text text-anchor="start" x="599.5" y="-219.2" font-family="Helvetica,sans-Serif" font-size="11.00">tenant_id</text>
<polygon fill="none" stroke="black" points="579.5,-189 579.5,-211 760.5,-211 760.5,-189 579.5,-189"/>
<image xlink:href="../../images/foreignKeys.png" width="11px" height="12px" preserveAspectRatio="xMinYMin meet" x="584.5" y="-206"/>
<text text-anchor="start" x="599.5" y="-197.2" font-family="Helvetica,sans-Serif" font-size="11.00">physical_storage_id</text>
<polygon fill="none" stroke="black" points="579.5,-171 579.5,-189 760.5,-189 760.5,-171 579.5,-171"/>
<text text-anchor="start" x="582.5" y="-177.2" font-family="Helvetica,sans-Serif" font-size="11.00">...</text>
<polygon fill="#ffffff" stroke="none" points="579.5,-153 579.5,-171 671.5,-171 671.5,-153 579.5,-153"/>
<polygon fill="none" stroke="black" points="579.5,-153 579.5,-171 671.5,-171 671.5,-153 579.5,-153"/>
<text text-anchor="start" x="582.5" y="-159.2" font-family="Helvetica,sans-Serif" font-size="11.00">&lt; 11</text>
<polygon fill="#ffffff" stroke="none" points="671.5,-153 671.5,-171 715.5,-171 715.5,-153 671.5,-153"/>
<polygon fill="none" stroke="black" points="671.5,-153 671.5,-171 715.5,-171 715.5,-153 671.5,-153"/>
<text text-anchor="start" x="705.5" y="-159.2" font-family="Helvetica,sans-Serif" font-size="11.00"> &#160;</text>
<polygon fill="#ffffff" stroke="none" points="715.5,-153 715.5,-171 760.5,-171 760.5,-153 715.5,-153"/>
<polygon fill="none" stroke="black" points="715.5,-153 715.5,-171 760.5,-171 760.5,-153 715.5,-153"/>
<text text-anchor="start" x="750.5" y="-159.2" font-family="Helvetica,sans-Serif" font-size="11.00"> &#160;</text>
</a>
</g>
</g>
<!-- event_streams&#45;&gt;containers -->
<g id="edge6" class="edge"><title>event_streams:container_id:w&#45;&gt;containers:id.type:e</title>
<path fill="none" stroke="black" d="M565.906,-339.895C512.923,-417.129 602.907,-1035 529.5,-1035"/>
<polygon fill="black" stroke="black" points="571.722,-336.249 580.412,-335.05 575.111,-334.125 578.5,-332 578.5,-332 578.5,-332 575.111,-334.125 576.588,-328.95 571.722,-336.249 571.722,-336.249"/>
<ellipse fill="none" stroke="black" cx="569.011" cy="-337.949" rx="3.20001" ry="3.20001"/>
</g>
<!-- event_streams&#45;&gt;container_groups -->
<g id="edge5" class="edge"><title>event_streams:container_group_id:w&#45;&gt;container_groups:id:e</title>
<path fill="none" stroke="black" d="M563.911,-374.553C494.441,-358.736 609.488,-217.43 538,-158 435.128,-72.4792 354.296,-93.6723 237,-158 200.029,-178.276 228.166,-238 186,-238"/>
<polygon fill="black" stroke="black" points="570.539,-375.21 578.145,-379.582 574.52,-375.605 578.5,-376 578.5,-376 578.5,-376 574.52,-375.605 578.855,-372.418 570.539,-375.21 570.539,-375.21"/>
<ellipse fill="none" stroke="black" cx="567.355" cy="-374.895" rx="3.2" ry="3.2"/>
</g>
</g>
</svg>
