<?xml version="1.0" encoding="UTF-8" standalone="no"?>
<!DOCTYPE svg PUBLIC "-//W3C//DTD SVG 1.1//EN"
 "http://www.w3.org/Graphics/SVG/1.1/DTD/svg11.dtd">
<!-- Generated by graphviz version 2.38.0 (20140413.2041)
 -->
<!-- Title: oneDegreeRelationshipsDiagram Pages: 1 -->
<svg width="494pt" height="307pt"
 viewBox="0.00 0.00 494.00 307.00" xmlns="http://www.w3.org/2000/svg" xmlns:xlink="http://www.w3.org/1999/xlink">
<g id="graph0" class="graph" transform="scale(1 1) rotate(0) translate(4 303)">
<title>oneDegreeRelationshipsDiagram</title>
<polygon fill="#ffffff" stroke="none" points="-4,4 -4,-303 490,-303 490,4 -4,4"/>
<text text-anchor="middle" x="74.5" y="-7.2" font-family="Helvetica,sans-Serif" font-size="11.00">Generated by SchemaSpy</text>
<!-- container_env_vars -->
<g id="node1" class="node"><title>container_env_vars</title>
<g id="a_node1"><a xlink:href="../../tables/container_env_vars.html" xlink:title="container_env_vars" target="_top">
<polygon fill="#ffffff" stroke="none" points="217,-141 217,-295 478,-295 478,-141 217,-141"/>
<polygon fill="#f5f5f5" stroke="none" points="219.5,-271 219.5,-293 476.5,-293 476.5,-271 219.5,-271"/>
<polygon fill="none" stroke="black" points="219.5,-271 219.5,-293 476.5,-293 476.5,-271 219.5,-271"/>
<text text-anchor="start" x="224.5" y="-280.2" font-family="Helvetica,sans-Serif" font-weight="bold" font-size="11.00">container_env_vars</text>
<text text-anchor="start" x="437.5" y="-279.2" font-family="Helvetica,sans-Serif" font-size="11.00">[table]</text>
<polygon fill="none" stroke="black" points="219.5,-249 219.5,-271 355.5,-271 355.5,-249 219.5,-249"/>
<image xlink:href="../../images/primaryKeys.png" width="11px" height="12px" preserveAspectRatio="xMinYMin meet" x="224.5" y="-266"/>
<text text-anchor="start" x="239.5" y="-257.2" font-family="Helvetica,sans-Serif" font-size="11.00">id</text>
<polygon fill="none" stroke="black" points="355.5,-249 355.5,-271 476.5,-271 476.5,-249 355.5,-249"/>
<text text-anchor="start" x="358.5" y="-257.2" font-family="Helvetica,sans-Serif" font-size="11.00">bigserial[19]</text>
<polygon fill="none" stroke="black" points="219.5,-227 219.5,-249 355.5,-249 355.5,-227 219.5,-227"/>
<text text-anchor="start" x="239.5" y="-235.2" font-family="Helvetica,sans-Serif" font-size="11.00">name</text>
<polygon fill="none" stroke="black" points="355.5,-227 355.5,-249 476.5,-249 476.5,-227 355.5,-227"/>
<text text-anchor="start" x="358.5" y="-235.2" font-family="Helvetica,sans-Serif" font-size="11.00">varchar[2147483647]</text>
<polygon fill="none" stroke="black" points="219.5,-205 219.5,-227 355.5,-227 355.5,-205 219.5,-205"/>
<text text-anchor="start" x="239.5" y="-213.2" font-family="Helvetica,sans-Serif" font-size="11.00">value</text>
<polygon fill="none" stroke="black" points="355.5,-205 355.5,-227 476.5,-227 476.5,-205 355.5,-205"/>
<text text-anchor="start" x="358.5" y="-213.2" font-family="Helvetica,sans-Serif" font-size="11.00">text[2147483647]</text>
<polygon fill="none" stroke="black" points="219.5,-183 219.5,-205 355.5,-205 355.5,-183 219.5,-183"/>
<text text-anchor="start" x="239.5" y="-191.2" font-family="Helvetica,sans-Serif" font-size="11.00">field_path</text>
<polygon fill="none" stroke="black" points="355.5,-183 355.5,-205 476.5,-205 476.5,-183 355.5,-183"/>
<text text-anchor="start" x="358.5" y="-191.2" font-family="Helvetica,sans-Serif" font-size="11.00">varchar[2147483647]</text>
<polygon fill="none" stroke="black" points="219.5,-161 219.5,-183 355.5,-183 355.5,-161 219.5,-161"/>
<image xlink:href="../../images/foreignKeys.png" width="11px" height="12px" preserveAspectRatio="xMinYMin meet" x="224.5" y="-178"/>
<text text-anchor="start" x="239.5" y="-169.2" font-family="Helvetica,sans-Serif" font-size="11.00">container_id</text>
<polygon fill="none" stroke="black" points="355.5,-161 355.5,-183 476.5,-183 476.5,-161 355.5,-161"/>
<text text-anchor="start" x="358.5" y="-169.2" font-family="Helvetica,sans-Serif" font-size="11.00">int8[19]</text>
<polygon fill="#ffffff" stroke="none" points="219.5,-143 219.5,-161 292.5,-161 292.5,-143 219.5,-143"/>
<polygon fill="none" stroke="black" points="219.5,-143 219.5,-161 292.5,-161 292.5,-143 219.5,-143"/>
<text text-anchor="start" x="222.5" y="-149.2" font-family="Helvetica,sans-Serif" font-size="11.00">&lt; 1</text>
<polygon fill="#ffffff" stroke="none" points="292.5,-143 292.5,-161 355.5,-161 355.5,-143 292.5,-143"/>
<polygon fill="none" stroke="black" points="292.5,-143 292.5,-161 355.5,-161 355.5,-143 292.5,-143"/>
<text text-anchor="start" x="345.5" y="-149.2" font-family="Helvetica,sans-Serif" font-size="11.00"> &#160;</text>
<polygon fill="#ffffff" stroke="none" points="355.5,-143 355.5,-161 476.5,-161 476.5,-143 355.5,-143"/>
<polygon fill="none" stroke="black" points="355.5,-143 355.5,-161 476.5,-161 476.5,-143 355.5,-143"/>
<text text-anchor="start" x="456.5" y="-149.2" font-family="Helvetica,sans-Serif" font-size="11.00">0 &gt;</text>
<polygon fill="none" stroke="black" stroke-width="2" points="218,-142 218,-294 477,-294 477,-142 218,-142"/>
</a>
</g>
</g>
<!-- containers -->
<g id="node2" class="node"><title>containers</title>
<g id="a_node2"><a xlink:href="../../tables/containers.html" xlink:title="containers" target="_top">
<polygon fill="#ffffff" stroke="none" points="8,-37 8,-205 168,-205 168,-37 8,-37"/>
<polygon fill="#f5f5f5" stroke="none" points="8,-183 8,-205 168,-205 168,-183 8,-183"/>
<polygon fill="none" stroke="black" points="8,-183 8,-205 168,-205 168,-183 8,-183"/>
<text text-anchor="start" x="13" y="-192.2" font-family="Helvetica,sans-Serif" font-weight="bold" font-size="11.00">containers</text>
<text text-anchor="start" x="129" y="-191.2" font-family="Helvetica,sans-Serif" font-size="11.00">[table]</text>
<polygon fill="none" stroke="black" points="8,-161 8,-183 168,-183 168,-161 8,-161"/>
<image xlink:href="../../images/primaryKeys.png" width="11px" height="12px" preserveAspectRatio="xMinYMin meet" x="13" y="-178"/>
<text text-anchor="start" x="28" y="-169.2" font-family="Helvetica,sans-Serif" font-size="11.00">id</text>
<polygon fill="#ffffff" stroke="none" points="8,-139 8,-161 168,-161 168,-139 8,-139"/>
<polygon fill="none" stroke="black" points="8,-139 8,-161 168,-161 168,-139 8,-139"/>
<text text-anchor="start" x="28" y="-147.2" font-family="Helvetica,sans-Serif" font-size="11.00">type</text>
<polygon fill="none" stroke="black" points="8,-117 8,-139 168,-139 168,-117 8,-117"/>
<image xlink:href="../../images/foreignKeys.png" width="11px" height="12px" preserveAspectRatio="xMinYMin meet" x="13" y="-134"/>
<text text-anchor="start" x="28" y="-125.2" font-family="Helvetica,sans-Serif" font-size="11.00">container_image_id</text>
<polygon fill="#ffffff" stroke="none" points="8,-95 8,-117 168,-117 168,-95 8,-95"/>
<polygon fill="none" stroke="black" points="8,-95 8,-117 168,-117 168,-95 8,-95"/>
<text text-anchor="start" x="28" y="-103.2" font-family="Helvetica,sans-Serif" font-size="11.00">deleted_on</text>
<polygon fill="none" stroke="black" points="8,-73 8,-95 168,-95 168,-73 8,-73"/>
<image xlink:href="../../images/foreignKeys.png" width="11px" height="12px" preserveAspectRatio="xMinYMin meet" x="13" y="-90"/>
<text text-anchor="start" x="28" y="-81.2" font-family="Helvetica,sans-Serif" font-size="11.00">container_group_id</text>
<polygon fill="none" stroke="black" points="8,-55 8,-73 168,-73 168,-55 8,-55"/>
<text text-anchor="start" x="11" y="-61.2" font-family="Helvetica,sans-Serif" font-size="11.00">...</text>
<polygon fill="#ffffff" stroke="none" points="8,-37 8,-55 81,-55 81,-37 8,-37"/>
<polygon fill="none" stroke="black" points="8,-37 8,-55 81,-55 81,-37 8,-37"/>
<text text-anchor="start" x="11" y="-43.2" font-family="Helvetica,sans-Serif" font-size="11.00">&lt; 2</text>
<polygon fill="#ffffff" stroke="none" points="81,-37 81,-55 119,-55 119,-37 81,-37"/>
<polygon fill="none" stroke="black" points="81,-37 81,-55 119,-55 119,-37 81,-37"/>
<text text-anchor="start" x="109" y="-43.2" font-family="Helvetica,sans-Serif" font-size="11.00"> &#160;</text>
<polygon fill="#ffffff" stroke="none" points="119,-37 119,-55 168,-55 168,-37 119,-37"/>
<polygon fill="none" stroke="black" points="119,-37 119,-55 168,-55 168,-37 119,-37"/>
<text text-anchor="start" x="148" y="-43.2" font-family="Helvetica,sans-Serif" font-size="11.00">3 &gt;</text>
</a>
</g>
</g>
<!-- container_env_vars&#45;&gt;containers -->
<g id="edge1" class="edge"><title>container_env_vars:container_id:w&#45;&gt;containers:id:e</title>
<path fill="none" stroke="black" d="M203.843,-172C192.414,-172 185.156,-172 169,-172"/>
<polygon fill="black" stroke="black" points="210.5,-172 218.5,-175.6 214.5,-172 218.5,-172 218.5,-172 218.5,-172 214.5,-172 218.5,-168.4 210.5,-172 210.5,-172"/>
<ellipse fill="none" stroke="black" cx="207.3" cy="-172" rx="3.2" ry="3.2"/>
</g>
</g>
</svg>
