<?xml version="1.0" encoding="UTF-8" standalone="no"?>
<!DOCTYPE svg PUBLIC "-//W3C//DTD SVG 1.1//EN"
 "http://www.w3.org/Graphics/SVG/1.1/DTD/svg11.dtd">
<!-- Generated by graphviz version 2.38.0 (20140413.2041)
 -->
<!-- Title: twoDegreesRelationshipsDiagram Pages: 1 -->
<svg width="779pt" height="885pt"
 viewBox="0.00 0.00 779.00 885.00" xmlns="http://www.w3.org/2000/svg" xmlns:xlink="http://www.w3.org/1999/xlink">
<g id="graph0" class="graph" transform="scale(1 1) rotate(0) translate(4 881)">
<title>twoDegreesRelationshipsDiagram</title>
<polygon fill="#ffffff" stroke="none" points="-4,4 -4,-881 775,-881 775,4 -4,4"/>
<text text-anchor="middle" x="74.5" y="-7.2" font-family="Helvetica,sans-Serif" font-size="11.00">Generated by SchemaSpy</text>
<!-- container_builds -->
<g id="node1" class="node"><title>container_builds</title>
<g id="a_node1"><a xlink:href="../../tables/container_builds.html" xlink:title="container_builds" target="_top">
<polygon fill="#ffffff" stroke="none" points="274.5,-815 274.5,-873 418.5,-873 418.5,-815 274.5,-815"/>
<polygon fill="#f5f5f5" stroke="none" points="274.5,-851 274.5,-873 418.5,-873 418.5,-851 274.5,-851"/>
<polygon fill="none" stroke="black" points="274.5,-851 274.5,-873 418.5,-873 418.5,-851 274.5,-851"/>
<text text-anchor="start" x="279.5" y="-860.2" font-family="Helvetica,sans-Serif" font-weight="bold" font-size="11.00">container_builds</text>
<text text-anchor="start" x="379.5" y="-859.2" font-family="Helvetica,sans-Serif" font-size="11.00">[table]</text>
<polygon fill="none" stroke="black" points="274.5,-833 274.5,-851 418.5,-851 418.5,-833 274.5,-833"/>
<text text-anchor="start" x="277.5" y="-839.2" font-family="Helvetica,sans-Serif" font-size="11.00">...</text>
<polygon fill="#ffffff" stroke="none" points="274.5,-815 274.5,-833 339.5,-833 339.5,-815 274.5,-815"/>
<polygon fill="none" stroke="black" points="274.5,-815 274.5,-833 339.5,-833 339.5,-815 274.5,-815"/>
<text text-anchor="start" x="277.5" y="-821.2" font-family="Helvetica,sans-Serif" font-size="11.00">&lt; 1</text>
<polygon fill="#ffffff" stroke="none" points="339.5,-815 339.5,-833 373.5,-833 373.5,-815 339.5,-815"/>
<polygon fill="none" stroke="black" points="339.5,-815 339.5,-833 373.5,-833 373.5,-815 339.5,-815"/>
<text text-anchor="start" x="363.5" y="-821.2" font-family="Helvetica,sans-Serif" font-size="11.00"> &#160;</text>
<polygon fill="#ffffff" stroke="none" points="373.5,-815 373.5,-833 418.5,-833 418.5,-815 373.5,-815"/>
<polygon fill="none" stroke="black" points="373.5,-815 373.5,-833 418.5,-833 418.5,-815 373.5,-815"/>
<text text-anchor="start" x="398.5" y="-821.2" font-family="Helvetica,sans-Serif" font-size="11.00">1 &gt;</text>
</a>
</g>
</g>
<!-- container_projects -->
<g id="node2" class="node"><title>container_projects</title>
<g id="a_node2"><a xlink:href="../../tables/container_projects.html" xlink:title="container_projects" target="_top">
<polygon fill="#ffffff" stroke="none" points="8,-487 8,-611 163,-611 163,-487 8,-487"/>
<polygon fill="#f5f5f5" stroke="none" points="8.5,-589 8.5,-611 163.5,-611 163.5,-589 8.5,-589"/>
<polygon fill="none" stroke="black" points="8.5,-589 8.5,-611 163.5,-611 163.5,-589 8.5,-589"/>
<text text-anchor="start" x="13.5" y="-598.2" font-family="Helvetica,sans-Serif" font-weight="bold" font-size="11.00">container_projects</text>
<text text-anchor="start" x="124.5" y="-597.2" font-family="Helvetica,sans-Serif" font-size="11.00">[table]</text>
<polygon fill="none" stroke="black" points="8.5,-567 8.5,-589 163.5,-589 163.5,-567 8.5,-567"/>
<image xlink:href="../../images/primaryKeys.png" width="11px" height="12px" preserveAspectRatio="xMinYMin meet" x="13.5" y="-584"/>
<text text-anchor="start" x="40.5" y="-575.2" font-family="Helvetica,sans-Serif" font-size="11.00">id</text>
<polygon fill="#ffffff" stroke="none" points="8.5,-545 8.5,-567 163.5,-567 163.5,-545 8.5,-545"/>
<polygon fill="none" stroke="black" points="8.5,-545 8.5,-567 163.5,-567 163.5,-545 8.5,-545"/>
<text text-anchor="start" x="40.5" y="-553.2" font-family="Helvetica,sans-Serif" font-size="11.00">ems_id</text>
<polygon fill="#ffffff" stroke="none" points="8.5,-523 8.5,-545 163.5,-545 163.5,-523 8.5,-523"/>
<polygon fill="none" stroke="black" points="8.5,-523 8.5,-545 163.5,-545 163.5,-523 8.5,-523"/>
<text text-anchor="start" x="40.5" y="-531.2" font-family="Helvetica,sans-Serif" font-size="11.00">deleted_on</text>
<polygon fill="none" stroke="black" points="8.5,-505 8.5,-523 163.5,-523 163.5,-505 8.5,-505"/>
<text text-anchor="start" x="11.5" y="-511.2" font-family="Helvetica,sans-Serif" font-size="11.00">...</text>
<polygon fill="#ffffff" stroke="none" points="8.5,-487 8.5,-505 74.5,-505 74.5,-487 8.5,-487"/>
<polygon fill="none" stroke="black" points="8.5,-487 8.5,-505 74.5,-505 74.5,-487 8.5,-487"/>
<text text-anchor="start" x="11.5" y="-493.2" font-family="Helvetica,sans-Serif" font-size="11.00"> &#160;</text>
<polygon fill="#ffffff" stroke="none" points="74.5,-487 74.5,-505 113.5,-505 113.5,-487 74.5,-487"/>
<polygon fill="none" stroke="black" points="74.5,-487 74.5,-505 113.5,-505 113.5,-487 74.5,-487"/>
<text text-anchor="start" x="103.5" y="-493.2" font-family="Helvetica,sans-Serif" font-size="11.00"> &#160;</text>
<polygon fill="#ffffff" stroke="none" points="113.5,-487 113.5,-505 163.5,-505 163.5,-487 113.5,-487"/>
<polygon fill="none" stroke="black" points="113.5,-487 113.5,-505 163.5,-505 163.5,-487 113.5,-487"/>
<text text-anchor="start" x="143.5" y="-493.2" font-family="Helvetica,sans-Serif" font-size="11.00">9 &gt;</text>
</a>
</g>
</g>
<!-- container_builds&#45;&gt;container_projects -->
<g id="edge1" class="edge"><title>container_builds:elipses:w&#45;&gt;container_projects:id:e</title>
<path fill="none" stroke="black" d="M258.93,-841.217C233.56,-838.181 221.409,-826.092 204,-801 175.311,-759.651 214.827,-578 164.5,-578"/>
<polygon fill="black" stroke="black" points="265.512,-841.57 273.307,-845.595 269.506,-841.785 273.5,-842 273.5,-842 273.5,-842 269.506,-841.785 273.693,-838.405 265.512,-841.57 265.512,-841.57"/>
<ellipse fill="none" stroke="black" cx="262.316" cy="-841.399" rx="3.2" ry="3.2"/>
</g>
<!-- container_groups -->
<g id="node3" class="node"><title>container_groups</title>
<g id="a_node3"><a xlink:href="../../tables/container_groups.html" xlink:title="container_groups" target="_top">
<polygon fill="#ffffff" stroke="none" points="573,-736 573,-794 720,-794 720,-736 573,-736"/>
<polygon fill="#f5f5f5" stroke="none" points="573.5,-772 573.5,-794 720.5,-794 720.5,-772 573.5,-772"/>
<polygon fill="none" stroke="black" points="573.5,-772 573.5,-794 720.5,-794 720.5,-772 573.5,-772"/>
<text text-anchor="start" x="578.5" y="-781.2" font-family="Helvetica,sans-Serif" font-weight="bold" font-size="11.00">container_groups</text>
<text text-anchor="start" x="681.5" y="-780.2" font-family="Helvetica,sans-Serif" font-size="11.00">[table]</text>
<polygon fill="none" stroke="black" points="573.5,-754 573.5,-772 720.5,-772 720.5,-754 573.5,-754"/>
<text text-anchor="start" x="576.5" y="-760.2" font-family="Helvetica,sans-Serif" font-size="11.00">...</text>
<polygon fill="#ffffff" stroke="none" points="573.5,-736 573.5,-754 640.5,-754 640.5,-736 573.5,-736"/>
<polygon fill="none" stroke="black" points="573.5,-736 573.5,-754 640.5,-754 640.5,-736 573.5,-736"/>
<text text-anchor="start" x="576.5" y="-742.2" font-family="Helvetica,sans-Serif" font-size="11.00">&lt; 4</text>
<polygon fill="#ffffff" stroke="none" points="640.5,-736 640.5,-754 675.5,-754 675.5,-736 640.5,-736"/>
<polygon fill="none" stroke="black" points="640.5,-736 640.5,-754 675.5,-754 675.5,-736 640.5,-736"/>
<text text-anchor="start" x="665.5" y="-742.2" font-family="Helvetica,sans-Serif" font-size="11.00"> &#160;</text>
<polygon fill="#ffffff" stroke="none" points="675.5,-736 675.5,-754 720.5,-754 720.5,-736 675.5,-736"/>
<polygon fill="none" stroke="black" points="675.5,-736 675.5,-754 720.5,-754 720.5,-736 675.5,-736"/>
<text text-anchor="start" x="700.5" y="-742.2" font-family="Helvetica,sans-Serif" font-size="11.00">3 &gt;</text>
</a>
</g>
</g>
<!-- container_groups&#45;&gt;container_projects -->
<g id="edge2" class="edge"><title>container_groups:elipses:w&#45;&gt;container_projects:id:e</title>
<path fill="none" stroke="black" d="M557.82,-763.67C531.801,-766.195 521.128,-775.137 489,-778 425.917,-783.621 252.93,-818.211 204,-778 134,-720.473 255.106,-578 164.5,-578"/>
<polygon fill="black" stroke="black" points="564.508,-763.365 572.664,-766.596 568.504,-763.182 572.5,-763 572.5,-763 572.5,-763 568.504,-763.182 572.336,-759.404 564.508,-763.365 564.508,-763.365"/>
<ellipse fill="none" stroke="black" cx="561.312" cy="-763.511" rx="3.2" ry="3.2"/>
</g>
<!-- container_replicators -->
<g id="node4" class="node"><title>container_replicators</title>
<g id="a_node4"><a xlink:href="../../tables/container_replicators.html" xlink:title="container_replicators" target="_top">
<polygon fill="#ffffff" stroke="none" points="261,-709 261,-767 432,-767 432,-709 261,-709"/>
<polygon fill="#f5f5f5" stroke="none" points="261.5,-745 261.5,-767 432.5,-767 432.5,-745 261.5,-745"/>
<polygon fill="none" stroke="black" points="261.5,-745 261.5,-767 432.5,-767 432.5,-745 261.5,-745"/>
<text text-anchor="start" x="266.5" y="-754.2" font-family="Helvetica,sans-Serif" font-weight="bold" font-size="11.00">container_replicators</text>
<text text-anchor="start" x="393.5" y="-753.2" font-family="Helvetica,sans-Serif" font-size="11.00">[table]</text>
<polygon fill="none" stroke="black" points="261.5,-727 261.5,-745 432.5,-745 432.5,-727 261.5,-727"/>
<text text-anchor="start" x="264.5" y="-733.2" font-family="Helvetica,sans-Serif" font-size="11.00">...</text>
<polygon fill="#ffffff" stroke="none" points="261.5,-709 261.5,-727 340.5,-727 340.5,-709 261.5,-709"/>
<polygon fill="none" stroke="black" points="261.5,-709 261.5,-727 340.5,-727 340.5,-709 261.5,-709"/>
<text text-anchor="start" x="264.5" y="-715.2" font-family="Helvetica,sans-Serif" font-size="11.00">&lt; 1</text>
<polygon fill="#ffffff" stroke="none" points="340.5,-709 340.5,-727 381.5,-727 381.5,-709 340.5,-709"/>
<polygon fill="none" stroke="black" points="340.5,-709 340.5,-727 381.5,-727 381.5,-709 340.5,-709"/>
<text text-anchor="start" x="371.5" y="-715.2" font-family="Helvetica,sans-Serif" font-size="11.00"> &#160;</text>
<polygon fill="#ffffff" stroke="none" points="381.5,-709 381.5,-727 432.5,-727 432.5,-709 381.5,-709"/>
<polygon fill="none" stroke="black" points="381.5,-709 381.5,-727 432.5,-727 432.5,-709 381.5,-709"/>
<text text-anchor="start" x="412.5" y="-715.2" font-family="Helvetica,sans-Serif" font-size="11.00">2 &gt;</text>
</a>
</g>
</g>
<!-- container_groups&#45;&gt;container_replicators -->
<g id="edge3" class="edge"><title>container_groups:elipses:w&#45;&gt;container_replicators:elipses:e</title>
<path fill="none" stroke="black" d="M557.963,-762.485C507.077,-758.752 491.27,-736 433.5,-736"/>
<polygon fill="black" stroke="black" points="564.505,-762.717 572.372,-766.598 568.503,-762.858 572.5,-763 572.5,-763 572.5,-763 568.503,-762.858 572.628,-759.402 564.505,-762.717 564.505,-762.717"/>
<ellipse fill="none" stroke="black" cx="561.307" cy="-762.603" rx="3.2" ry="3.2"/>
</g>
<!-- container_replicators&#45;&gt;container_projects -->
<g id="edge6" class="edge"><title>container_replicators:elipses:w&#45;&gt;container_projects:id:e</title>
<path fill="none" stroke="black" d="M245.973,-734.684C227.121,-730.807 218.894,-718.46 204,-699 169.617,-654.077 221.071,-578 164.5,-578"/>
<polygon fill="black" stroke="black" points="252.533,-735.278 260.175,-739.585 256.516,-735.639 260.5,-736 260.5,-736 260.5,-736 256.516,-735.639 260.825,-732.415 252.533,-735.278 252.533,-735.278"/>
<ellipse fill="none" stroke="black" cx="249.346" cy="-734.99" rx="3.2" ry="3.2"/>
</g>
<!-- container_limits -->
<g id="node5" class="node"><title>container_limits</title>
<g id="a_node5"><a xlink:href="../../tables/container_limits.html" xlink:title="container_limits" target="_top">
<polygon fill="#ffffff" stroke="none" points="275.5,-630 275.5,-688 417.5,-688 417.5,-630 275.5,-630"/>
<polygon fill="#f5f5f5" stroke="none" points="275.5,-666 275.5,-688 417.5,-688 417.5,-666 275.5,-666"/>
<polygon fill="none" stroke="black" points="275.5,-666 275.5,-688 417.5,-688 417.5,-666 275.5,-666"/>
<text text-anchor="start" x="280.5" y="-675.2" font-family="Helvetica,sans-Serif" font-weight="bold" font-size="11.00">container_limits</text>
<text text-anchor="start" x="378.5" y="-674.2" font-family="Helvetica,sans-Serif" font-size="11.00">[table]</text>
<polygon fill="none" stroke="black" points="275.5,-648 275.5,-666 417.5,-666 417.5,-648 275.5,-648"/>
<text text-anchor="start" x="278.5" y="-654.2" font-family="Helvetica,sans-Serif" font-size="11.00">...</text>
<polygon fill="#ffffff" stroke="none" points="275.5,-630 275.5,-648 339.5,-648 339.5,-630 275.5,-630"/>
<polygon fill="none" stroke="black" points="275.5,-630 275.5,-648 339.5,-648 339.5,-630 275.5,-630"/>
<text text-anchor="start" x="278.5" y="-636.2" font-family="Helvetica,sans-Serif" font-size="11.00">&lt; 1</text>
<polygon fill="#ffffff" stroke="none" points="339.5,-630 339.5,-648 373.5,-648 373.5,-630 339.5,-630"/>
<polygon fill="none" stroke="black" points="339.5,-630 339.5,-648 373.5,-648 373.5,-630 339.5,-630"/>
<text text-anchor="start" x="363.5" y="-636.2" font-family="Helvetica,sans-Serif" font-size="11.00"> &#160;</text>
<polygon fill="#ffffff" stroke="none" points="373.5,-630 373.5,-648 417.5,-648 417.5,-630 373.5,-630"/>
<polygon fill="none" stroke="black" points="373.5,-630 373.5,-648 417.5,-648 417.5,-630 373.5,-630"/>
<text text-anchor="start" x="397.5" y="-636.2" font-family="Helvetica,sans-Serif" font-size="11.00">1 &gt;</text>
</a>
</g>
</g>
<!-- container_limits&#45;&gt;container_projects -->
<g id="edge4" class="edge"><title>container_limits:elipses:w&#45;&gt;container_projects:id:e</title>
<path fill="none" stroke="black" d="M260.132,-655.949C236.507,-652.114 227.885,-638.145 204,-620 183.595,-604.498 190.125,-578 164.5,-578"/>
<polygon fill="black" stroke="black" points="266.521,-656.416 274.237,-660.59 270.511,-656.708 274.5,-657 274.5,-657 274.5,-657 270.511,-656.708 274.763,-653.41 266.521,-656.416 266.521,-656.416"/>
<ellipse fill="none" stroke="black" cx="263.33" cy="-656.183" rx="3.2" ry="3.2"/>
</g>
<!-- container_quotas -->
<g id="node6" class="node"><title>container_quotas</title>
<g id="a_node6"><a xlink:href="../../tables/container_quotas.html" xlink:title="container_quotas" target="_top">
<polygon fill="#ffffff" stroke="none" points="272.5,-551 272.5,-609 420.5,-609 420.5,-551 272.5,-551"/>
<polygon fill="#f5f5f5" stroke="none" points="272.5,-587 272.5,-609 420.5,-609 420.5,-587 272.5,-587"/>
<polygon fill="none" stroke="black" points="272.5,-587 272.5,-609 420.5,-609 420.5,-587 272.5,-587"/>
<text text-anchor="start" x="277.5" y="-596.2" font-family="Helvetica,sans-Serif" font-weight="bold" font-size="11.00">container_quotas</text>
<text text-anchor="start" x="381.5" y="-595.2" font-family="Helvetica,sans-Serif" font-size="11.00">[table]</text>
<polygon fill="none" stroke="black" points="272.5,-569 272.5,-587 420.5,-587 420.5,-569 272.5,-569"/>
<text text-anchor="start" x="275.5" y="-575.2" font-family="Helvetica,sans-Serif" font-size="11.00">...</text>
<polygon fill="#ffffff" stroke="none" points="272.5,-551 272.5,-569 339.5,-569 339.5,-551 272.5,-551"/>
<polygon fill="none" stroke="black" points="272.5,-551 272.5,-569 339.5,-569 339.5,-551 272.5,-551"/>
<text text-anchor="start" x="275.5" y="-557.2" font-family="Helvetica,sans-Serif" font-size="11.00">&lt; 1</text>
<polygon fill="#ffffff" stroke="none" points="339.5,-551 339.5,-569 374.5,-569 374.5,-551 339.5,-551"/>
<polygon fill="none" stroke="black" points="339.5,-551 339.5,-569 374.5,-569 374.5,-551 339.5,-551"/>
<text text-anchor="start" x="364.5" y="-557.2" font-family="Helvetica,sans-Serif" font-size="11.00"> &#160;</text>
<polygon fill="#ffffff" stroke="none" points="374.5,-551 374.5,-569 420.5,-569 420.5,-551 374.5,-551"/>
<polygon fill="none" stroke="black" points="374.5,-551 374.5,-569 420.5,-569 420.5,-551 374.5,-551"/>
<text text-anchor="start" x="400.5" y="-557.2" font-family="Helvetica,sans-Serif" font-size="11.00">2 &gt;</text>
</a>
</g>
</g>
<!-- container_quotas&#45;&gt;container_projects -->
<g id="edge5" class="edge"><title>container_quotas:elipses:w&#45;&gt;container_projects:id:e</title>
<path fill="none" stroke="black" d="M257.083,-578C220.917,-578 206.854,-578 164.5,-578"/>
<polygon fill="black" stroke="black" points="263.5,-578 271.5,-581.6 267.5,-578 271.5,-578 271.5,-578 271.5,-578 267.5,-578 271.5,-574.4 263.5,-578 263.5,-578"/>
<ellipse fill="none" stroke="black" cx="260.3" cy="-578" rx="3.2" ry="3.2"/>
</g>
<!-- container_routes -->
<g id="node7" class="node"><title>container_routes</title>
<g id="a_node7"><a xlink:href="../../tables/container_routes.html" xlink:title="container_routes" target="_top">
<polygon fill="#ffffff" stroke="none" points="574,-483 574,-541 719,-541 719,-483 574,-483"/>
<polygon fill="#f5f5f5" stroke="none" points="574.5,-519 574.5,-541 719.5,-541 719.5,-519 574.5,-519"/>
<polygon fill="none" stroke="black" points="574.5,-519 574.5,-541 719.5,-541 719.5,-519 574.5,-519"/>
<text text-anchor="start" x="579.5" y="-528.2" font-family="Helvetica,sans-Serif" font-weight="bold" font-size="11.00">container_routes</text>
<text text-anchor="start" x="680.5" y="-527.2" font-family="Helvetica,sans-Serif" font-size="11.00">[table]</text>
<polygon fill="none" stroke="black" points="574.5,-501 574.5,-519 719.5,-519 719.5,-501 574.5,-501"/>
<text text-anchor="start" x="577.5" y="-507.2" font-family="Helvetica,sans-Serif" font-size="11.00">...</text>
<polygon fill="#ffffff" stroke="none" points="574.5,-483 574.5,-501 645.5,-501 645.5,-483 574.5,-483"/>
<polygon fill="none" stroke="black" points="574.5,-483 574.5,-501 645.5,-501 645.5,-483 574.5,-483"/>
<text text-anchor="start" x="577.5" y="-489.2" font-family="Helvetica,sans-Serif" font-size="11.00">&lt; 2</text>
<polygon fill="#ffffff" stroke="none" points="645.5,-483 645.5,-501 682.5,-501 682.5,-483 645.5,-483"/>
<polygon fill="none" stroke="black" points="645.5,-483 645.5,-501 682.5,-501 682.5,-483 645.5,-483"/>
<text text-anchor="start" x="672.5" y="-489.2" font-family="Helvetica,sans-Serif" font-size="11.00"> &#160;</text>
<polygon fill="#ffffff" stroke="none" points="682.5,-483 682.5,-501 719.5,-501 719.5,-483 682.5,-483"/>
<polygon fill="none" stroke="black" points="682.5,-483 682.5,-501 719.5,-501 719.5,-483 682.5,-483"/>
<text text-anchor="start" x="709.5" y="-489.2" font-family="Helvetica,sans-Serif" font-size="11.00"> &#160;</text>
</a>
</g>
</g>
<!-- container_routes&#45;&gt;container_projects -->
<g id="edge7" class="edge"><title>container_routes:elipses:w&#45;&gt;container_projects:id:e</title>
<path fill="none" stroke="black" d="M558.746,-510.607C490.226,-514.161 220.905,-532.379 204,-540 181.792,-550.012 188.86,-578 164.5,-578"/>
<polygon fill="black" stroke="black" points="565.507,-510.329 573.648,-513.597 569.503,-510.164 573.5,-510 573.5,-510 573.5,-510 569.503,-510.164 573.352,-506.403 565.507,-510.329 565.507,-510.329"/>
<ellipse fill="none" stroke="black" cx="562.309" cy="-510.46" rx="3.2" ry="3.2"/>
</g>
<!-- container_services -->
<g id="node8" class="node"><title>container_services</title>
<g id="a_node8"><a xlink:href="../../tables/container_services.html" xlink:title="container_services" target="_top">
<polygon fill="#ffffff" stroke="none" points="269.5,-445 269.5,-503 423.5,-503 423.5,-445 269.5,-445"/>
<polygon fill="#f5f5f5" stroke="none" points="269.5,-481 269.5,-503 423.5,-503 423.5,-481 269.5,-481"/>
<polygon fill="none" stroke="black" points="269.5,-481 269.5,-503 423.5,-503 423.5,-481 269.5,-481"/>
<text text-anchor="start" x="274.5" y="-490.2" font-family="Helvetica,sans-Serif" font-weight="bold" font-size="11.00">container_services</text>
<text text-anchor="start" x="384.5" y="-489.2" font-family="Helvetica,sans-Serif" font-size="11.00">[table]</text>
<polygon fill="none" stroke="black" points="269.5,-463 269.5,-481 423.5,-481 423.5,-463 269.5,-463"/>
<text text-anchor="start" x="272.5" y="-469.2" font-family="Helvetica,sans-Serif" font-size="11.00">...</text>
<polygon fill="#ffffff" stroke="none" points="269.5,-445 269.5,-463 339.5,-463 339.5,-445 269.5,-445"/>
<polygon fill="none" stroke="black" points="269.5,-445 269.5,-463 339.5,-463 339.5,-445 269.5,-445"/>
<text text-anchor="start" x="272.5" y="-451.2" font-family="Helvetica,sans-Serif" font-size="11.00">&lt; 2</text>
<polygon fill="#ffffff" stroke="none" points="339.5,-445 339.5,-463 376.5,-463 376.5,-445 339.5,-445"/>
<polygon fill="none" stroke="black" points="339.5,-445 339.5,-463 376.5,-463 376.5,-445 339.5,-445"/>
<text text-anchor="start" x="366.5" y="-451.2" font-family="Helvetica,sans-Serif" font-size="11.00"> &#160;</text>
<polygon fill="#ffffff" stroke="none" points="376.5,-445 376.5,-463 423.5,-463 423.5,-445 376.5,-445"/>
<polygon fill="none" stroke="black" points="376.5,-445 376.5,-463 423.5,-463 423.5,-445 376.5,-445"/>
<text text-anchor="start" x="403.5" y="-451.2" font-family="Helvetica,sans-Serif" font-size="11.00">3 &gt;</text>
</a>
</g>
</g>
<!-- container_routes&#45;&gt;container_services -->
<g id="edge8" class="edge"><title>container_routes:elipses:w&#45;&gt;container_services:elipses:e</title>
<path fill="none" stroke="black" d="M558.808,-509.372C502.957,-504.431 487.636,-472 424.5,-472"/>
<polygon fill="black" stroke="black" points="565.507,-509.658 573.346,-513.597 569.504,-509.829 573.5,-510 573.5,-510 573.5,-510 569.504,-509.829 573.654,-506.403 565.507,-509.658 565.507,-509.658"/>
<ellipse fill="none" stroke="black" cx="562.31" cy="-509.522" rx="3.2" ry="3.2"/>
</g>
<!-- container_services&#45;&gt;container_projects -->
<g id="edge9" class="edge"><title>container_services:elipses:w&#45;&gt;container_projects:id:e</title>
<path fill="none" stroke="black" d="M254.104,-473.399C231.438,-478.335 224.491,-495.789 204,-517 181.559,-540.229 196.799,-578 164.5,-578"/>
<polygon fill="black" stroke="black" points="260.538,-472.774 268.848,-475.583 264.519,-472.387 268.5,-472 268.5,-472 268.5,-472 264.519,-472.387 268.152,-468.417 260.538,-472.774 260.538,-472.774"/>
<ellipse fill="none" stroke="black" cx="257.353" cy="-473.083" rx="3.2" ry="3.2"/>
</g>
<!-- container_template_parameters -->
<g id="node9" class="node"><title>container_template_parameters</title>
<g id="a_node9"><a xlink:href="../../tables/container_template_parameters.html" xlink:title="container_template_parameters" target="_top">
<polygon fill="#ffffff" stroke="none" points="530,-342 530,-444 763,-444 763,-342 530,-342"/>
<polygon fill="#f5f5f5" stroke="none" points="530.5,-422 530.5,-444 763.5,-444 763.5,-422 530.5,-422"/>
<polygon fill="none" stroke="black" points="530.5,-422 530.5,-444 763.5,-444 763.5,-422 530.5,-422"/>
<text text-anchor="start" x="535.5" y="-431.2" font-family="Helvetica,sans-Serif" font-weight="bold" font-size="11.00">container_template_parameters</text>
<text text-anchor="start" x="724.5" y="-430.2" font-family="Helvetica,sans-Serif" font-size="11.00">[table]</text>
<polygon fill="none" stroke="black" points="530.5,-400 530.5,-422 763.5,-422 763.5,-400 530.5,-400"/>
<image xlink:href="../../images/primaryKeys.png" width="11px" height="12px" preserveAspectRatio="xMinYMin meet" x="535.5" y="-417"/>
<text text-anchor="start" x="560.5" y="-408.2" font-family="Helvetica,sans-Serif" font-size="11.00">id</text>
<polygon fill="#ffffff" stroke="none" points="530.5,-378 530.5,-400 763.5,-400 763.5,-378 530.5,-378"/>
<polygon fill="none" stroke="black" points="530.5,-378 530.5,-400 763.5,-400 763.5,-378 530.5,-378"/>
<image xlink:href="../../images/foreignKeys.png" width="11px" height="12px" preserveAspectRatio="xMinYMin meet" x="535.5" y="-395"/>
<text text-anchor="start" x="560.5" y="-386.2" font-family="Helvetica,sans-Serif" font-size="11.00">container_template_id</text>
<polygon fill="none" stroke="black" points="530.5,-360 530.5,-378 763.5,-378 763.5,-360 530.5,-360"/>
<text text-anchor="start" x="533.5" y="-366.2" font-family="Helvetica,sans-Serif" font-size="11.00">...</text>
<polygon fill="#ffffff" stroke="none" points="530.5,-342 530.5,-360 645.5,-360 645.5,-342 530.5,-342"/>
<polygon fill="none" stroke="black" points="530.5,-342 530.5,-360 645.5,-360 645.5,-342 530.5,-342"/>
<text text-anchor="start" x="533.5" y="-348.2" font-family="Helvetica,sans-Serif" font-size="11.00">&lt; 1</text>
<polygon fill="#ffffff" stroke="none" points="645.5,-342 645.5,-360 704.5,-360 704.5,-342 645.5,-342"/>
<polygon fill="none" stroke="black" points="645.5,-342 645.5,-360 704.5,-360 704.5,-342 645.5,-342"/>
<text text-anchor="start" x="694.5" y="-348.2" font-family="Helvetica,sans-Serif" font-size="11.00"> &#160;</text>
<polygon fill="#ffffff" stroke="none" points="704.5,-342 704.5,-360 763.5,-360 763.5,-342 704.5,-342"/>
<polygon fill="none" stroke="black" points="704.5,-342 704.5,-360 763.5,-360 763.5,-342 704.5,-342"/>
<text text-anchor="start" x="753.5" y="-348.2" font-family="Helvetica,sans-Serif" font-size="11.00"> &#160;</text>
</a>
</g>
</g>
<!-- container_templates -->
<g id="node10" class="node"><title>container_templates</title>
<g id="a_node10"><a xlink:href="../../tables/container_templates.html" xlink:title="container_templates" target="_top">
<polygon fill="#ffffff" stroke="none" points="212,-116 212,-424 481,-424 481,-116 212,-116"/>
<polygon fill="#f5f5f5" stroke="none" points="214.5,-400 214.5,-422 479.5,-422 479.5,-400 214.5,-400"/>
<polygon fill="none" stroke="black" points="214.5,-400 214.5,-422 479.5,-422 479.5,-400 214.5,-400"/>
<text text-anchor="start" x="219.5" y="-409.2" font-family="Helvetica,sans-Serif" font-weight="bold" font-size="11.00">container_templates</text>
<text text-anchor="start" x="440.5" y="-408.2" font-family="Helvetica,sans-Serif" font-size="11.00">[table]</text>
<polygon fill="none" stroke="black" points="214.5,-378 214.5,-400 358.5,-400 358.5,-378 214.5,-378"/>
<image xlink:href="../../images/primaryKeys.png" width="11px" height="12px" preserveAspectRatio="xMinYMin meet" x="219.5" y="-395"/>
<text text-anchor="start" x="234.5" y="-386.2" font-family="Helvetica,sans-Serif" font-size="11.00">id</text>
<polygon fill="none" stroke="black" points="358.5,-378 358.5,-400 479.5,-400 479.5,-378 358.5,-378"/>
<text text-anchor="start" x="361.5" y="-386.2" font-family="Helvetica,sans-Serif" font-size="11.00">bigserial[19]</text>
<polygon fill="none" stroke="black" points="214.5,-356 214.5,-378 358.5,-378 358.5,-356 214.5,-356"/>
<text text-anchor="start" x="234.5" y="-364.2" font-family="Helvetica,sans-Serif" font-size="11.00">ems_ref</text>
<polygon fill="none" stroke="black" points="358.5,-356 358.5,-378 479.5,-378 479.5,-356 358.5,-356"/>
<text text-anchor="start" x="361.5" y="-364.2" font-family="Helvetica,sans-Serif" font-size="11.00">varchar[2147483647]</text>
<polygon fill="none" stroke="black" points="214.5,-334 214.5,-356 358.5,-356 358.5,-334 214.5,-334"/>
<text text-anchor="start" x="234.5" y="-342.2" font-family="Helvetica,sans-Serif" font-size="11.00">name</text>
<polygon fill="none" stroke="black" points="358.5,-334 358.5,-356 479.5,-356 479.5,-334 358.5,-334"/>
<text text-anchor="start" x="361.5" y="-342.2" font-family="Helvetica,sans-Serif" font-size="11.00">varchar[2147483647]</text>
<polygon fill="none" stroke="black" points="214.5,-312 214.5,-334 358.5,-334 358.5,-312 214.5,-312"/>
<text text-anchor="start" x="234.5" y="-320.2" font-family="Helvetica,sans-Serif" font-size="11.00">ems_created_on</text>
<polygon fill="none" stroke="black" points="358.5,-312 358.5,-334 479.5,-334 479.5,-312 358.5,-312"/>
<text text-anchor="start" x="361.5" y="-320.2" font-family="Helvetica,sans-Serif" font-size="11.00">timestamp[29,6]</text>
<polygon fill="none" stroke="black" points="214.5,-290 214.5,-312 358.5,-312 358.5,-290 214.5,-290"/>
<text text-anchor="start" x="234.5" y="-298.2" font-family="Helvetica,sans-Serif" font-size="11.00">resource_version</text>
<polygon fill="none" stroke="black" points="358.5,-290 358.5,-312 479.5,-312 479.5,-290 358.5,-290"/>
<text text-anchor="start" x="361.5" y="-298.2" font-family="Helvetica,sans-Serif" font-size="11.00">varchar[2147483647]</text>
<polygon fill="#ffffff" stroke="none" points="214.5,-268 214.5,-290 358.5,-290 358.5,-268 214.5,-268"/>
<polygon fill="none" stroke="black" points="214.5,-268 214.5,-290 358.5,-290 358.5,-268 214.5,-268"/>
<text text-anchor="start" x="234.5" y="-276.2" font-family="Helvetica,sans-Serif" font-size="11.00">ems_id</text>
<polygon fill="none" stroke="black" points="358.5,-268 358.5,-290 479.5,-290 479.5,-268 358.5,-268"/>
<text text-anchor="start" x="361.5" y="-276.2" font-family="Helvetica,sans-Serif" font-size="11.00">int8[19]</text>
<polygon fill="#ffffff" stroke="none" points="214.5,-246 214.5,-268 358.5,-268 358.5,-246 214.5,-246"/>
<polygon fill="none" stroke="black" points="214.5,-246 214.5,-268 358.5,-268 358.5,-246 214.5,-246"/>
<image xlink:href="../../images/foreignKeys.png" width="11px" height="12px" preserveAspectRatio="xMinYMin meet" x="219.5" y="-263"/>
<text text-anchor="start" x="234.5" y="-254.2" font-family="Helvetica,sans-Serif" font-size="11.00">container_project_id</text>
<polygon fill="none" stroke="black" points="358.5,-246 358.5,-268 479.5,-268 479.5,-246 358.5,-246"/>
<text text-anchor="start" x="361.5" y="-254.2" font-family="Helvetica,sans-Serif" font-size="11.00">int8[19]</text>
<polygon fill="none" stroke="black" points="214.5,-224 214.5,-246 358.5,-246 358.5,-224 214.5,-224"/>
<text text-anchor="start" x="234.5" y="-232.2" font-family="Helvetica,sans-Serif" font-size="11.00">objects</text>
<polygon fill="none" stroke="black" points="358.5,-224 358.5,-246 479.5,-246 479.5,-224 358.5,-224"/>
<text text-anchor="start" x="361.5" y="-232.2" font-family="Helvetica,sans-Serif" font-size="11.00">text[2147483647]</text>
<polygon fill="none" stroke="black" points="214.5,-202 214.5,-224 358.5,-224 358.5,-202 214.5,-202"/>
<text text-anchor="start" x="234.5" y="-210.2" font-family="Helvetica,sans-Serif" font-size="11.00">created_at</text>
<polygon fill="none" stroke="black" points="358.5,-202 358.5,-224 479.5,-224 479.5,-202 358.5,-202"/>
<text text-anchor="start" x="361.5" y="-210.2" font-family="Helvetica,sans-Serif" font-size="11.00">timestamp[29,6]</text>
<polygon fill="none" stroke="black" points="214.5,-180 214.5,-202 358.5,-202 358.5,-180 214.5,-180"/>
<text text-anchor="start" x="234.5" y="-188.2" font-family="Helvetica,sans-Serif" font-size="11.00">updated_at</text>
<polygon fill="none" stroke="black" points="358.5,-180 358.5,-202 479.5,-202 479.5,-180 358.5,-180"/>
<text text-anchor="start" x="361.5" y="-188.2" font-family="Helvetica,sans-Serif" font-size="11.00">timestamp[29,6]</text>
<polygon fill="none" stroke="black" points="214.5,-158 214.5,-180 358.5,-180 358.5,-158 214.5,-158"/>
<text text-anchor="start" x="234.5" y="-166.2" font-family="Helvetica,sans-Serif" font-size="11.00">object_labels</text>
<polygon fill="none" stroke="black" points="358.5,-158 358.5,-180 479.5,-180 479.5,-158 358.5,-158"/>
<text text-anchor="start" x="361.5" y="-166.2" font-family="Helvetica,sans-Serif" font-size="11.00">text[2147483647]</text>
<polygon fill="none" stroke="black" points="214.5,-136 214.5,-158 358.5,-158 358.5,-136 214.5,-136"/>
<text text-anchor="start" x="234.5" y="-144.2" font-family="Helvetica,sans-Serif" font-size="11.00">type</text>
<polygon fill="none" stroke="black" points="358.5,-136 358.5,-158 479.5,-158 479.5,-136 358.5,-136"/>
<text text-anchor="start" x="361.5" y="-144.2" font-family="Helvetica,sans-Serif" font-size="11.00">varchar[2147483647]</text>
<polygon fill="#ffffff" stroke="none" points="214.5,-118 214.5,-136 291.5,-136 291.5,-118 214.5,-118"/>
<polygon fill="none" stroke="black" points="214.5,-118 214.5,-136 291.5,-136 291.5,-118 214.5,-118"/>
<text text-anchor="start" x="217.5" y="-124.2" font-family="Helvetica,sans-Serif" font-size="11.00">&lt; 1</text>
<polygon fill="#ffffff" stroke="none" points="291.5,-118 291.5,-136 358.5,-136 358.5,-118 291.5,-118"/>
<polygon fill="none" stroke="black" points="291.5,-118 291.5,-136 358.5,-136 358.5,-118 291.5,-118"/>
<text text-anchor="start" x="348.5" y="-124.2" font-family="Helvetica,sans-Serif" font-size="11.00"> &#160;</text>
<polygon fill="#ffffff" stroke="none" points="358.5,-118 358.5,-136 479.5,-136 479.5,-118 358.5,-118"/>
<polygon fill="none" stroke="black" points="358.5,-118 358.5,-136 479.5,-136 479.5,-118 358.5,-118"/>
<text text-anchor="start" x="459.5" y="-124.2" font-family="Helvetica,sans-Serif" font-size="11.00">1 &gt;</text>
<polygon fill="none" stroke="black" stroke-width="2" points="213,-117 213,-423 480,-423 480,-117 213,-117"/>
</a>
</g>
</g>
<!-- container_template_parameters&#45;&gt;container_templates -->
<g id="edge10" class="edge"><title>container_template_parameters:container_template_id:w&#45;&gt;container_templates:id.type:e</title>
<path fill="none" stroke="black" d="M514.991,-389C503.677,-389 496.493,-389 480.5,-389"/>
<polygon fill="black" stroke="black" points="521.5,-389 529.5,-392.6 525.5,-389 529.5,-389 529.5,-389 529.5,-389 525.5,-389 529.5,-385.4 521.5,-389 521.5,-389"/>
<ellipse fill="none" stroke="black" cx="518.3" cy="-389" rx="3.2" ry="3.2"/>
</g>
<!-- container_templates&#45;&gt;container_projects -->
<g id="edge11" class="edge"><title>container_templates:container_project_id:w&#45;&gt;container_projects:id:e</title>
<path fill="none" stroke="black" d="M199.778,-262.304C154.89,-304.04 231.163,-578 164.5,-578"/>
<polygon fill="black" stroke="black" points="206.038,-259.884 214.798,-260.358 209.769,-258.442 213.5,-257 213.5,-257 213.5,-257 209.769,-258.442 212.202,-253.642 206.038,-259.884 206.038,-259.884"/>
<ellipse fill="none" stroke="black" cx="203.053" cy="-261.038" rx="3.20001" ry="3.20001"/>
</g>
<!-- persistent_volume_claims -->
<g id="node11" class="node"><title>persistent_volume_claims</title>
<g id="a_node11"><a xlink:href="../../tables/persistent_volume_claims.html" xlink:title="persistent_volume_claims" target="_top">
<polygon fill="#ffffff" stroke="none" points="248.5,-37 248.5,-95 444.5,-95 444.5,-37 248.5,-37"/>
<polygon fill="#f5f5f5" stroke="none" points="248.5,-73 248.5,-95 444.5,-95 444.5,-73 248.5,-73"/>
<polygon fill="none" stroke="black" points="248.5,-73 248.5,-95 444.5,-95 444.5,-73 248.5,-73"/>
<text text-anchor="start" x="253.5" y="-82.2" font-family="Helvetica,sans-Serif" font-weight="bold" font-size="11.00">persistent_volume_claims</text>
<text text-anchor="start" x="405.5" y="-81.2" font-family="Helvetica,sans-Serif" font-size="11.00">[table]</text>
<polygon fill="none" stroke="black" points="248.5,-55 248.5,-73 444.5,-73 444.5,-55 248.5,-55"/>
<text text-anchor="start" x="251.5" y="-61.2" font-family="Helvetica,sans-Serif" font-size="11.00">...</text>
<polygon fill="#ffffff" stroke="none" points="248.5,-37 248.5,-55 339.5,-55 339.5,-37 248.5,-37"/>
<polygon fill="none" stroke="black" points="248.5,-37 248.5,-55 339.5,-55 339.5,-37 248.5,-37"/>
<text text-anchor="start" x="251.5" y="-43.2" font-family="Helvetica,sans-Serif" font-size="11.00">&lt; 1</text>
<polygon fill="#ffffff" stroke="none" points="339.5,-37 339.5,-55 386.5,-55 386.5,-37 339.5,-37"/>
<polygon fill="none" stroke="black" points="339.5,-37 339.5,-55 386.5,-55 386.5,-37 339.5,-37"/>
<text text-anchor="start" x="376.5" y="-43.2" font-family="Helvetica,sans-Serif" font-size="11.00"> &#160;</text>
<polygon fill="#ffffff" stroke="none" points="386.5,-37 386.5,-55 444.5,-55 444.5,-37 386.5,-37"/>
<polygon fill="none" stroke="black" points="386.5,-37 386.5,-55 444.5,-55 444.5,-37 386.5,-37"/>
<text text-anchor="start" x="424.5" y="-43.2" font-family="Helvetica,sans-Serif" font-size="11.00">1 &gt;</text>
</a>
</g>
</g>
<!-- persistent_volume_claims&#45;&gt;container_projects -->
<g id="edge12" class="edge"><title>persistent_volume_claims:elipses:w&#45;&gt;container_projects:id:e</title>
<path fill="none" stroke="black" d="M233.257,-66.1825C218.383,-71.5058 213.102,-86.1158 204,-105 181.101,-152.508 217.238,-578 164.5,-578"/>
<polygon fill="black" stroke="black" points="239.592,-65.2118 248.045,-67.5585 243.546,-64.6059 247.5,-64 247.5,-64 247.5,-64 243.546,-64.6059 246.955,-60.4415 239.592,-65.2118 239.592,-65.2118"/>
<ellipse fill="none" stroke="black" cx="236.429" cy="-65.6965" rx="3.2" ry="3.2"/>
</g>
</g>
</svg>
