<?xml version="1.0" encoding="UTF-8" standalone="no"?>
<!DOCTYPE svg PUBLIC "-//W3C//DTD SVG 1.1//EN"
 "http://www.w3.org/Graphics/SVG/1.1/DTD/svg11.dtd">
<!-- Generated by graphviz version 2.38.0 (20140413.2041)
 -->
<!-- Title: twoDegreesRelationshipsDiagram Pages: 1 -->
<svg width="707pt" height="370pt"
 viewBox="0.00 0.00 707.00 370.00" xmlns="http://www.w3.org/2000/svg" xmlns:xlink="http://www.w3.org/1999/xlink">
<g id="graph0" class="graph" transform="scale(1 1) rotate(0) translate(4 366)">
<title>twoDegreesRelationshipsDiagram</title>
<polygon fill="#ffffff" stroke="none" points="-4,4 -4,-366 703,-366 703,4 -4,4"/>
<text text-anchor="middle" x="74.5" y="-7.2" font-family="Helvetica,sans-Serif" font-size="11.00">Generated by SchemaSpy</text>
<!-- container_quota_items -->
<g id="node1" class="node"><title>container_quota_items</title>
<g id="a_node1"><a xlink:href="../../tables/container_quota_items.html" xlink:title="container_quota_items" target="_top">
<polygon fill="#ffffff" stroke="none" points="409,-116 409,-358 691,-358 691,-116 409,-116"/>
<polygon fill="#f5f5f5" stroke="none" points="411,-334 411,-356 689,-356 689,-334 411,-334"/>
<polygon fill="none" stroke="black" points="411,-334 411,-356 689,-356 689,-334 411,-334"/>
<text text-anchor="start" x="416" y="-343.2" font-family="Helvetica,sans-Serif" font-weight="bold" font-size="11.00">container_quota_items</text>
<text text-anchor="start" x="650" y="-342.2" font-family="Helvetica,sans-Serif" font-size="11.00">[table]</text>
<polygon fill="none" stroke="black" points="411,-312 411,-334 568,-334 568,-312 411,-312"/>
<image xlink:href="../../images/primaryKeys.png" width="11px" height="12px" preserveAspectRatio="xMinYMin meet" x="416" y="-329"/>
<text text-anchor="start" x="431" y="-320.2" font-family="Helvetica,sans-Serif" font-size="11.00">id</text>
<polygon fill="none" stroke="black" points="568,-312 568,-334 689,-334 689,-312 568,-312"/>
<text text-anchor="start" x="571" y="-320.2" font-family="Helvetica,sans-Serif" font-size="11.00">bigserial[19]</text>
<polygon fill="none" stroke="black" points="411,-290 411,-312 568,-312 568,-290 411,-290"/>
<text text-anchor="start" x="431" y="-298.2" font-family="Helvetica,sans-Serif" font-size="11.00">resource</text>
<polygon fill="none" stroke="black" points="568,-290 568,-312 689,-312 689,-290 568,-290"/>
<text text-anchor="start" x="571" y="-298.2" font-family="Helvetica,sans-Serif" font-size="11.00">varchar[2147483647]</text>
<polygon fill="none" stroke="black" points="411,-268 411,-290 568,-290 568,-268 411,-268"/>
<image xlink:href="../../images/foreignKeys.png" width="11px" height="12px" preserveAspectRatio="xMinYMin meet" x="416" y="-285"/>
<text text-anchor="start" x="431" y="-276.2" font-family="Helvetica,sans-Serif" font-size="11.00">container_quota_id</text>
<polygon fill="none" stroke="black" points="568,-268 568,-290 689,-290 689,-268 568,-268"/>
<text text-anchor="start" x="571" y="-276.2" font-family="Helvetica,sans-Serif" font-size="11.00">int8[19]</text>
<polygon fill="none" stroke="black" points="411,-246 411,-268 568,-268 568,-246 411,-246"/>
<text text-anchor="start" x="431" y="-254.2" font-family="Helvetica,sans-Serif" font-size="11.00">quota_desired</text>
<polygon fill="none" stroke="black" points="568,-246 568,-268 689,-268 689,-246 568,-246"/>
<text text-anchor="start" x="571" y="-254.2" font-family="Helvetica,sans-Serif" font-size="11.00">numeric[30,3]</text>
<polygon fill="none" stroke="black" points="411,-224 411,-246 568,-246 568,-224 411,-224"/>
<text text-anchor="start" x="431" y="-232.2" font-family="Helvetica,sans-Serif" font-size="11.00">quota_enforced</text>
<polygon fill="none" stroke="black" points="568,-224 568,-246 689,-246 689,-224 568,-224"/>
<text text-anchor="start" x="571" y="-232.2" font-family="Helvetica,sans-Serif" font-size="11.00">numeric[30,3]</text>
<polygon fill="none" stroke="black" points="411,-202 411,-224 568,-224 568,-202 411,-202"/>
<text text-anchor="start" x="431" y="-210.2" font-family="Helvetica,sans-Serif" font-size="11.00">quota_observed</text>
<polygon fill="none" stroke="black" points="568,-202 568,-224 689,-224 689,-202 568,-202"/>
<text text-anchor="start" x="571" y="-210.2" font-family="Helvetica,sans-Serif" font-size="11.00">numeric[30,3]</text>
<polygon fill="none" stroke="black" points="411,-180 411,-202 568,-202 568,-180 411,-180"/>
<text text-anchor="start" x="431" y="-188.2" font-family="Helvetica,sans-Serif" font-size="11.00">created_at</text>
<polygon fill="none" stroke="black" points="568,-180 568,-202 689,-202 689,-180 568,-180"/>
<text text-anchor="start" x="571" y="-188.2" font-family="Helvetica,sans-Serif" font-size="11.00">timestamp[29,6]</text>
<polygon fill="none" stroke="black" points="411,-158 411,-180 568,-180 568,-158 411,-158"/>
<text text-anchor="start" x="431" y="-166.2" font-family="Helvetica,sans-Serif" font-size="11.00">updated_at</text>
<polygon fill="none" stroke="black" points="568,-158 568,-180 689,-180 689,-158 568,-158"/>
<text text-anchor="start" x="571" y="-166.2" font-family="Helvetica,sans-Serif" font-size="11.00">timestamp[29,6]</text>
<polygon fill="#ffffff" stroke="none" points="411,-136 411,-158 568,-158 568,-136 411,-136"/>
<polygon fill="none" stroke="black" points="411,-136 411,-158 568,-158 568,-136 411,-136"/>
<text text-anchor="start" x="431" y="-144.2" font-family="Helvetica,sans-Serif" font-size="11.00">deleted_on</text>
<polygon fill="none" stroke="black" points="568,-136 568,-158 689,-158 689,-136 568,-136"/>
<text text-anchor="start" x="571" y="-144.2" font-family="Helvetica,sans-Serif" font-size="11.00">timestamp[29,6]</text>
<polygon fill="#ffffff" stroke="none" points="411,-118 411,-136 494,-136 494,-118 411,-118"/>
<polygon fill="none" stroke="black" points="411,-118 411,-136 494,-136 494,-118 411,-118"/>
<text text-anchor="start" x="414" y="-124.2" font-family="Helvetica,sans-Serif" font-size="11.00">&lt; 1</text>
<polygon fill="#ffffff" stroke="none" points="494,-118 494,-136 568,-136 568,-118 494,-118"/>
<polygon fill="none" stroke="black" points="494,-118 494,-136 568,-136 568,-118 494,-118"/>
<text text-anchor="start" x="558" y="-124.2" font-family="Helvetica,sans-Serif" font-size="11.00"> &#160;</text>
<polygon fill="#ffffff" stroke="none" points="568,-118 568,-136 689,-136 689,-118 568,-118"/>
<polygon fill="none" stroke="black" points="568,-118 568,-136 689,-136 689,-118 568,-118"/>
<text text-anchor="start" x="669" y="-124.2" font-family="Helvetica,sans-Serif" font-size="11.00">0 &gt;</text>
<polygon fill="none" stroke="black" stroke-width="2" points="410,-117 410,-357 690,-357 690,-117 410,-117"/>
</a>
</g>
</g>
<!-- container_quotas -->
<g id="node2" class="node"><title>container_quotas</title>
<g id="a_node2"><a xlink:href="../../tables/container_quotas.html" xlink:title="container_quotas" target="_top">
<polygon fill="#ffffff" stroke="none" points="212,-80 212,-204 360,-204 360,-80 212,-80"/>
<polygon fill="#f5f5f5" stroke="none" points="212,-182 212,-204 360,-204 360,-182 212,-182"/>
<polygon fill="none" stroke="black" points="212,-182 212,-204 360,-204 360,-182 212,-182"/>
<text text-anchor="start" x="217" y="-191.2" font-family="Helvetica,sans-Serif" font-weight="bold" font-size="11.00">container_quotas</text>
<text text-anchor="start" x="321" y="-190.2" font-family="Helvetica,sans-Serif" font-size="11.00">[table]</text>
<polygon fill="none" stroke="black" points="212,-160 212,-182 360,-182 360,-160 212,-160"/>
<image xlink:href="../../images/primaryKeys.png" width="11px" height="12px" preserveAspectRatio="xMinYMin meet" x="217" y="-177"/>
<text text-anchor="start" x="235" y="-168.2" font-family="Helvetica,sans-Serif" font-size="11.00">id</text>
<polygon fill="none" stroke="black" points="212,-138 212,-160 360,-160 360,-138 212,-138"/>
<image xlink:href="../../images/foreignKeys.png" width="11px" height="12px" preserveAspectRatio="xMinYMin meet" x="217" y="-155"/>
<text text-anchor="start" x="235" y="-146.2" font-family="Helvetica,sans-Serif" font-size="11.00">container_project_id</text>
<polygon fill="#ffffff" stroke="none" points="212,-116 212,-138 360,-138 360,-116 212,-116"/>
<polygon fill="none" stroke="black" points="212,-116 212,-138 360,-138 360,-116 212,-116"/>
<text text-anchor="start" x="235" y="-124.2" font-family="Helvetica,sans-Serif" font-size="11.00">deleted_on</text>
<polygon fill="none" stroke="black" points="212,-98 212,-116 360,-116 360,-98 212,-98"/>
<text text-anchor="start" x="215" y="-104.2" font-family="Helvetica,sans-Serif" font-size="11.00">...</text>
<polygon fill="#ffffff" stroke="none" points="212,-80 212,-98 279,-98 279,-80 212,-80"/>
<polygon fill="none" stroke="black" points="212,-80 212,-98 279,-98 279,-80 212,-80"/>
<text text-anchor="start" x="215" y="-86.2" font-family="Helvetica,sans-Serif" font-size="11.00">&lt; 1</text>
<polygon fill="#ffffff" stroke="none" points="279,-80 279,-98 314,-98 314,-80 279,-80"/>
<polygon fill="none" stroke="black" points="279,-80 279,-98 314,-98 314,-80 279,-80"/>
<text text-anchor="start" x="304" y="-86.2" font-family="Helvetica,sans-Serif" font-size="11.00"> &#160;</text>
<polygon fill="#ffffff" stroke="none" points="314,-80 314,-98 360,-98 360,-80 314,-80"/>
<polygon fill="none" stroke="black" points="314,-80 314,-98 360,-98 360,-80 314,-80"/>
<text text-anchor="start" x="340" y="-86.2" font-family="Helvetica,sans-Serif" font-size="11.00">2 &gt;</text>
</a>
</g>
</g>
<!-- container_quota_items&#45;&gt;container_quotas -->
<g id="edge1" class="edge"><title>container_quota_items:container_quota_id:w&#45;&gt;container_quotas:id:e</title>
<path fill="none" stroke="black" d="M395.971,-275.156C368.673,-255.917 407.738,-171 361,-171"/>
<polygon fill="black" stroke="black" points="402.284,-276.886 409.049,-282.472 406.142,-277.943 410,-279 410,-279 410,-279 406.142,-277.943 410.951,-275.528 402.284,-276.886 402.284,-276.886"/>
<ellipse fill="none" stroke="black" cx="399.198" cy="-276.04" rx="3.20001" ry="3.20001"/>
</g>
<!-- container_projects -->
<g id="node4" class="node"><title>container_projects</title>
<g id="a_node4"><a xlink:href="../../tables/container_projects.html" xlink:title="container_projects" target="_top">
<polygon fill="#ffffff" stroke="none" points="8,-122 8,-180 163,-180 163,-122 8,-122"/>
<polygon fill="#f5f5f5" stroke="none" points="8.5,-158 8.5,-180 163.5,-180 163.5,-158 8.5,-158"/>
<polygon fill="none" stroke="black" points="8.5,-158 8.5,-180 163.5,-180 163.5,-158 8.5,-158"/>
<text text-anchor="start" x="13.5" y="-167.2" font-family="Helvetica,sans-Serif" font-weight="bold" font-size="11.00">container_projects</text>
<text text-anchor="start" x="124.5" y="-166.2" font-family="Helvetica,sans-Serif" font-size="11.00">[table]</text>
<polygon fill="none" stroke="black" points="8.5,-140 8.5,-158 163.5,-158 163.5,-140 8.5,-140"/>
<text text-anchor="start" x="11.5" y="-146.2" font-family="Helvetica,sans-Serif" font-size="11.00">...</text>
<polygon fill="#ffffff" stroke="none" points="8.5,-122 8.5,-140 74.5,-140 74.5,-122 8.5,-122"/>
<polygon fill="none" stroke="black" points="8.5,-122 8.5,-140 74.5,-140 74.5,-122 8.5,-122"/>
<text text-anchor="start" x="11.5" y="-128.2" font-family="Helvetica,sans-Serif" font-size="11.00"> &#160;</text>
<polygon fill="#ffffff" stroke="none" points="74.5,-122 74.5,-140 113.5,-140 113.5,-122 74.5,-122"/>
<polygon fill="none" stroke="black" points="74.5,-122 74.5,-140 113.5,-140 113.5,-122 74.5,-122"/>
<text text-anchor="start" x="103.5" y="-128.2" font-family="Helvetica,sans-Serif" font-size="11.00"> &#160;</text>
<polygon fill="#ffffff" stroke="none" points="113.5,-122 113.5,-140 163.5,-140 163.5,-122 113.5,-122"/>
<polygon fill="none" stroke="black" points="113.5,-122 113.5,-140 163.5,-140 163.5,-122 113.5,-122"/>
<text text-anchor="start" x="143.5" y="-128.2" font-family="Helvetica,sans-Serif" font-size="11.00">9 &gt;</text>
</a>
</g>
</g>
<!-- container_quotas&#45;&gt;container_projects -->
<g id="edge3" class="edge"><title>container_quotas:container_project_id:w&#45;&gt;container_projects:elipses:e</title>
<path fill="none" stroke="black" d="M196.551,-149C186.201,-149 179.354,-149 164.5,-149"/>
<polygon fill="black" stroke="black" points="203,-149 211,-152.6 207,-149 211,-149 211,-149 211,-149 207,-149 211,-145.4 203,-149 203,-149"/>
<ellipse fill="none" stroke="black" cx="199.8" cy="-149" rx="3.2" ry="3.2"/>
</g>
<!-- container_quota_scopes -->
<g id="node3" class="node"><title>container_quota_scopes</title>
<g id="a_node3"><a xlink:href="../../tables/container_quota_scopes.html" xlink:title="container_quota_scopes" target="_top">
<polygon fill="#ffffff" stroke="none" points="458,-37 458,-95 642,-95 642,-37 458,-37"/>
<polygon fill="#f5f5f5" stroke="none" points="458,-73 458,-95 642,-95 642,-73 458,-73"/>
<polygon fill="none" stroke="black" points="458,-73 458,-95 642,-95 642,-73 458,-73"/>
<text text-anchor="start" x="463" y="-82.2" font-family="Helvetica,sans-Serif" font-weight="bold" font-size="11.00">container_quota_scopes</text>
<text text-anchor="start" x="603" y="-81.2" font-family="Helvetica,sans-Serif" font-size="11.00">[table]</text>
<polygon fill="none" stroke="black" points="458,-55 458,-73 642,-73 642,-55 458,-55"/>
<text text-anchor="start" x="461" y="-61.2" font-family="Helvetica,sans-Serif" font-size="11.00">...</text>
<polygon fill="#ffffff" stroke="none" points="458,-37 458,-55 548,-55 548,-37 458,-37"/>
<polygon fill="none" stroke="black" points="458,-37 458,-55 548,-55 548,-37 458,-37"/>
<text text-anchor="start" x="461" y="-43.2" font-family="Helvetica,sans-Serif" font-size="11.00">&lt; 1</text>
<polygon fill="#ffffff" stroke="none" points="548,-37 548,-55 595,-55 595,-37 548,-37"/>
<polygon fill="none" stroke="black" points="548,-37 548,-55 595,-55 595,-37 548,-37"/>
<text text-anchor="start" x="585" y="-43.2" font-family="Helvetica,sans-Serif" font-size="11.00"> &#160;</text>
<polygon fill="#ffffff" stroke="none" points="595,-37 595,-55 642,-55 642,-37 595,-37"/>
<polygon fill="none" stroke="black" points="595,-37 595,-55 642,-55 642,-37 595,-37"/>
<text text-anchor="start" x="632" y="-43.2" font-family="Helvetica,sans-Serif" font-size="11.00"> &#160;</text>
</a>
</g>
</g>
<!-- container_quota_scopes&#45;&gt;container_quotas -->
<g id="edge2" class="edge"><title>container_quota_scopes:elipses:w&#45;&gt;container_quotas:id:e</title>
<path fill="none" stroke="black" d="M442.606,-65.7545C423.929,-70.9615 418.198,-87.1446 401,-106 378.141,-131.061 394.921,-171 361,-171"/>
<polygon fill="black" stroke="black" points="449.059,-64.968 457.436,-67.5736 453.029,-64.484 457,-64 457,-64 457,-64 453.029,-64.484 456.564,-60.4264 449.059,-64.968 449.059,-64.968"/>
<ellipse fill="none" stroke="black" cx="445.882" cy="-65.3552" rx="3.2" ry="3.2"/>
</g>
</g>
</svg>
