<?xml version="1.0" encoding="UTF-8" standalone="no"?>
<!DOCTYPE svg PUBLIC "-//W3C//DTD SVG 1.1//EN"
 "http://www.w3.org/Graphics/SVG/1.1/DTD/svg11.dtd">
<!-- Generated by graphviz version 2.38.0 (20140413.2041)
 -->
<!-- Title: twoDegreesRelationshipsDiagram Pages: 1 -->
<svg width="714pt" height="304pt"
 viewBox="0.00 0.00 714.00 304.00" xmlns="http://www.w3.org/2000/svg" xmlns:xlink="http://www.w3.org/1999/xlink">
<g id="graph0" class="graph" transform="scale(1 1) rotate(0) translate(4 300)">
<title>twoDegreesRelationshipsDiagram</title>
<polygon fill="#ffffff" stroke="none" points="-4,4 -4,-300 710,-300 710,4 -4,4"/>
<text text-anchor="middle" x="74.5" y="-7.2" font-family="Helvetica,sans-Serif" font-size="11.00">Generated by SchemaSpy</text>
<!-- container_quota_items -->
<g id="node1" class="node"><title>container_quota_items</title>
<g id="a_node1"><a xlink:href="../../tables/container_quota_items.html" xlink:title="container_quota_items" target="_top">
<polygon fill="#ffffff" stroke="none" points="464,-234 464,-292 643,-292 643,-234 464,-234"/>
<polygon fill="#f5f5f5" stroke="none" points="464.5,-270 464.5,-292 643.5,-292 643.5,-270 464.5,-270"/>
<polygon fill="none" stroke="black" points="464.5,-270 464.5,-292 643.5,-292 643.5,-270 464.5,-270"/>
<text text-anchor="start" x="469.5" y="-279.2" font-family="Helvetica,sans-Serif" font-weight="bold" font-size="11.00">container_quota_items</text>
<text text-anchor="start" x="604.5" y="-278.2" font-family="Helvetica,sans-Serif" font-size="11.00">[table]</text>
<polygon fill="none" stroke="black" points="464.5,-252 464.5,-270 643.5,-270 643.5,-252 464.5,-252"/>
<text text-anchor="start" x="467.5" y="-258.2" font-family="Helvetica,sans-Serif" font-size="11.00">...</text>
<polygon fill="#ffffff" stroke="none" points="464.5,-234 464.5,-252 552.5,-252 552.5,-234 464.5,-234"/>
<polygon fill="none" stroke="black" points="464.5,-234 464.5,-252 552.5,-252 552.5,-234 464.5,-234"/>
<text text-anchor="start" x="467.5" y="-240.2" font-family="Helvetica,sans-Serif" font-size="11.00">&lt; 1</text>
<polygon fill="#ffffff" stroke="none" points="552.5,-234 552.5,-252 597.5,-252 597.5,-234 552.5,-234"/>
<polygon fill="none" stroke="black" points="552.5,-234 552.5,-252 597.5,-252 597.5,-234 552.5,-234"/>
<text text-anchor="start" x="587.5" y="-240.2" font-family="Helvetica,sans-Serif" font-size="11.00"> &#160;</text>
<polygon fill="#ffffff" stroke="none" points="597.5,-234 597.5,-252 643.5,-252 643.5,-234 597.5,-234"/>
<polygon fill="none" stroke="black" points="597.5,-234 597.5,-252 643.5,-252 643.5,-234 597.5,-234"/>
<text text-anchor="start" x="633.5" y="-240.2" font-family="Helvetica,sans-Serif" font-size="11.00"> &#160;</text>
</a>
</g>
</g>
<!-- container_quotas -->
<g id="node2" class="node"><title>container_quotas</title>
<g id="a_node2"><a xlink:href="../../tables/container_quotas.html" xlink:title="container_quotas" target="_top">
<polygon fill="#ffffff" stroke="none" points="212,-117 212,-241 360,-241 360,-117 212,-117"/>
<polygon fill="#f5f5f5" stroke="none" points="212,-219 212,-241 360,-241 360,-219 212,-219"/>
<polygon fill="none" stroke="black" points="212,-219 212,-241 360,-241 360,-219 212,-219"/>
<text text-anchor="start" x="217" y="-228.2" font-family="Helvetica,sans-Serif" font-weight="bold" font-size="11.00">container_quotas</text>
<text text-anchor="start" x="321" y="-227.2" font-family="Helvetica,sans-Serif" font-size="11.00">[table]</text>
<polygon fill="none" stroke="black" points="212,-197 212,-219 360,-219 360,-197 212,-197"/>
<image xlink:href="../../images/primaryKeys.png" width="11px" height="12px" preserveAspectRatio="xMinYMin meet" x="217" y="-214"/>
<text text-anchor="start" x="235" y="-205.2" font-family="Helvetica,sans-Serif" font-size="11.00">id</text>
<polygon fill="none" stroke="black" points="212,-175 212,-197 360,-197 360,-175 212,-175"/>
<image xlink:href="../../images/foreignKeys.png" width="11px" height="12px" preserveAspectRatio="xMinYMin meet" x="217" y="-192"/>
<text text-anchor="start" x="235" y="-183.2" font-family="Helvetica,sans-Serif" font-size="11.00">container_project_id</text>
<polygon fill="#ffffff" stroke="none" points="212,-153 212,-175 360,-175 360,-153 212,-153"/>
<polygon fill="none" stroke="black" points="212,-153 212,-175 360,-175 360,-153 212,-153"/>
<text text-anchor="start" x="235" y="-161.2" font-family="Helvetica,sans-Serif" font-size="11.00">deleted_on</text>
<polygon fill="none" stroke="black" points="212,-135 212,-153 360,-153 360,-135 212,-135"/>
<text text-anchor="start" x="215" y="-141.2" font-family="Helvetica,sans-Serif" font-size="11.00">...</text>
<polygon fill="#ffffff" stroke="none" points="212,-117 212,-135 279,-135 279,-117 212,-117"/>
<polygon fill="none" stroke="black" points="212,-117 212,-135 279,-135 279,-117 212,-117"/>
<text text-anchor="start" x="215" y="-123.2" font-family="Helvetica,sans-Serif" font-size="11.00">&lt; 1</text>
<polygon fill="#ffffff" stroke="none" points="279,-117 279,-135 314,-135 314,-117 279,-117"/>
<polygon fill="none" stroke="black" points="279,-117 279,-135 314,-135 314,-117 279,-117"/>
<text text-anchor="start" x="304" y="-123.2" font-family="Helvetica,sans-Serif" font-size="11.00"> &#160;</text>
<polygon fill="#ffffff" stroke="none" points="314,-117 314,-135 360,-135 360,-117 314,-117"/>
<polygon fill="none" stroke="black" points="314,-117 314,-135 360,-135 360,-117 314,-117"/>
<text text-anchor="start" x="340" y="-123.2" font-family="Helvetica,sans-Serif" font-size="11.00">2 &gt;</text>
</a>
</g>
</g>
<!-- container_quota_items&#45;&gt;container_quotas -->
<g id="edge1" class="edge"><title>container_quota_items:elipses:w&#45;&gt;container_quotas:id:e</title>
<path fill="none" stroke="black" d="M449.422,-257.357C422.109,-245.383 382.536,-208 361,-208"/>
<polygon fill="black" stroke="black" points="455.755,-258.996 462.598,-264.485 459.628,-259.998 463.5,-261 463.5,-261 463.5,-261 459.628,-259.998 464.402,-257.515 455.755,-258.996 455.755,-258.996"/>
<ellipse fill="none" stroke="black" cx="452.657" cy="-258.194" rx="3.2" ry="3.2"/>
</g>
<!-- container_projects -->
<g id="node4" class="node"><title>container_projects</title>
<g id="a_node4"><a xlink:href="../../tables/container_projects.html" xlink:title="container_projects" target="_top">
<polygon fill="#ffffff" stroke="none" points="8,-159 8,-217 163,-217 163,-159 8,-159"/>
<polygon fill="#f5f5f5" stroke="none" points="8.5,-195 8.5,-217 163.5,-217 163.5,-195 8.5,-195"/>
<polygon fill="none" stroke="black" points="8.5,-195 8.5,-217 163.5,-217 163.5,-195 8.5,-195"/>
<text text-anchor="start" x="13.5" y="-204.2" font-family="Helvetica,sans-Serif" font-weight="bold" font-size="11.00">container_projects</text>
<text text-anchor="start" x="124.5" y="-203.2" font-family="Helvetica,sans-Serif" font-size="11.00">[table]</text>
<polygon fill="none" stroke="black" points="8.5,-177 8.5,-195 163.5,-195 163.5,-177 8.5,-177"/>
<text text-anchor="start" x="11.5" y="-183.2" font-family="Helvetica,sans-Serif" font-size="11.00">...</text>
<polygon fill="#ffffff" stroke="none" points="8.5,-159 8.5,-177 74.5,-177 74.5,-159 8.5,-159"/>
<polygon fill="none" stroke="black" points="8.5,-159 8.5,-177 74.5,-177 74.5,-159 8.5,-159"/>
<text text-anchor="start" x="11.5" y="-165.2" font-family="Helvetica,sans-Serif" font-size="11.00"> &#160;</text>
<polygon fill="#ffffff" stroke="none" points="74.5,-159 74.5,-177 113.5,-177 113.5,-159 74.5,-159"/>
<polygon fill="none" stroke="black" points="74.5,-159 74.5,-177 113.5,-177 113.5,-159 74.5,-159"/>
<text text-anchor="start" x="103.5" y="-165.2" font-family="Helvetica,sans-Serif" font-size="11.00"> &#160;</text>
<polygon fill="#ffffff" stroke="none" points="113.5,-159 113.5,-177 163.5,-177 163.5,-159 113.5,-159"/>
<polygon fill="none" stroke="black" points="113.5,-159 113.5,-177 163.5,-177 163.5,-159 113.5,-159"/>
<text text-anchor="start" x="143.5" y="-165.2" font-family="Helvetica,sans-Serif" font-size="11.00">9 &gt;</text>
</a>
</g>
</g>
<!-- container_quotas&#45;&gt;container_projects -->
<g id="edge3" class="edge"><title>container_quotas:container_project_id:w&#45;&gt;container_projects:elipses:e</title>
<path fill="none" stroke="black" d="M196.551,-186C186.201,-186 179.354,-186 164.5,-186"/>
<polygon fill="black" stroke="black" points="203,-186 211,-189.6 207,-186 211,-186 211,-186 211,-186 207,-186 211,-182.4 203,-186 203,-186"/>
<ellipse fill="none" stroke="black" cx="199.8" cy="-186" rx="3.2" ry="3.2"/>
</g>
<!-- container_quota_scopes -->
<g id="node3" class="node"><title>container_quota_scopes</title>
<g id="a_node3"><a xlink:href="../../tables/container_quota_scopes.html" xlink:title="container_quota_scopes" target="_top">
<polygon fill="#ffffff" stroke="none" points="409,-37 409,-213 698,-213 698,-37 409,-37"/>
<polygon fill="#f5f5f5" stroke="none" points="411.5,-189 411.5,-211 696.5,-211 696.5,-189 411.5,-189"/>
<polygon fill="none" stroke="black" points="411.5,-189 411.5,-211 696.5,-211 696.5,-189 411.5,-189"/>
<text text-anchor="start" x="416.5" y="-198.2" font-family="Helvetica,sans-Serif" font-weight="bold" font-size="11.00">container_quota_scopes</text>
<text text-anchor="start" x="657.5" y="-197.2" font-family="Helvetica,sans-Serif" font-size="11.00">[table]</text>
<polygon fill="none" stroke="black" points="411.5,-167 411.5,-189 575.5,-189 575.5,-167 411.5,-167"/>
<image xlink:href="../../images/primaryKeys.png" width="11px" height="12px" preserveAspectRatio="xMinYMin meet" x="416.5" y="-184"/>
<text text-anchor="start" x="431.5" y="-175.2" font-family="Helvetica,sans-Serif" font-size="11.00">id</text>
<polygon fill="none" stroke="black" points="575.5,-167 575.5,-189 696.5,-189 696.5,-167 575.5,-167"/>
<text text-anchor="start" x="578.5" y="-175.2" font-family="Helvetica,sans-Serif" font-size="11.00">bigserial[19]</text>
<polygon fill="none" stroke="black" points="411.5,-145 411.5,-167 575.5,-167 575.5,-145 411.5,-145"/>
<image xlink:href="../../images/foreignKeys.png" width="11px" height="12px" preserveAspectRatio="xMinYMin meet" x="416.5" y="-162"/>
<text text-anchor="start" x="431.5" y="-153.2" font-family="Helvetica,sans-Serif" font-size="11.00">container_quota_id</text>
<polygon fill="none" stroke="black" points="575.5,-145 575.5,-167 696.5,-167 696.5,-145 575.5,-145"/>
<text text-anchor="start" x="578.5" y="-153.2" font-family="Helvetica,sans-Serif" font-size="11.00">int8[19]</text>
<polygon fill="none" stroke="black" points="411.5,-123 411.5,-145 575.5,-145 575.5,-123 411.5,-123"/>
<text text-anchor="start" x="431.5" y="-131.2" font-family="Helvetica,sans-Serif" font-size="11.00">scope</text>
<polygon fill="none" stroke="black" points="575.5,-123 575.5,-145 696.5,-145 696.5,-123 575.5,-123"/>
<text text-anchor="start" x="578.5" y="-131.2" font-family="Helvetica,sans-Serif" font-size="11.00">varchar[2147483647]</text>
<polygon fill="none" stroke="black" points="411.5,-101 411.5,-123 575.5,-123 575.5,-101 411.5,-101"/>
<text text-anchor="start" x="431.5" y="-109.2" font-family="Helvetica,sans-Serif" font-size="11.00">created_at</text>
<polygon fill="none" stroke="black" points="575.5,-101 575.5,-123 696.5,-123 696.5,-101 575.5,-101"/>
<text text-anchor="start" x="578.5" y="-109.2" font-family="Helvetica,sans-Serif" font-size="11.00">timestamp[29,6]</text>
<polygon fill="none" stroke="black" points="411.5,-79 411.5,-101 575.5,-101 575.5,-79 411.5,-79"/>
<text text-anchor="start" x="431.5" y="-87.2" font-family="Helvetica,sans-Serif" font-size="11.00">updated_at</text>
<polygon fill="none" stroke="black" points="575.5,-79 575.5,-101 696.5,-101 696.5,-79 575.5,-79"/>
<text text-anchor="start" x="578.5" y="-87.2" font-family="Helvetica,sans-Serif" font-size="11.00">timestamp[29,6]</text>
<polygon fill="none" stroke="black" points="411.5,-57 411.5,-79 575.5,-79 575.5,-57 411.5,-57"/>
<text text-anchor="start" x="431.5" y="-65.2" font-family="Helvetica,sans-Serif" font-size="11.00">deleted_on</text>
<polygon fill="none" stroke="black" points="575.5,-57 575.5,-79 696.5,-79 696.5,-57 575.5,-57"/>
<text text-anchor="start" x="578.5" y="-65.2" font-family="Helvetica,sans-Serif" font-size="11.00">timestamp[29,6]</text>
<polygon fill="#ffffff" stroke="none" points="411.5,-39 411.5,-57 498.5,-57 498.5,-39 411.5,-39"/>
<polygon fill="none" stroke="black" points="411.5,-39 411.5,-57 498.5,-57 498.5,-39 411.5,-39"/>
<text text-anchor="start" x="414.5" y="-45.2" font-family="Helvetica,sans-Serif" font-size="11.00">&lt; 1</text>
<polygon fill="#ffffff" stroke="none" points="498.5,-39 498.5,-57 575.5,-57 575.5,-39 498.5,-39"/>
<polygon fill="none" stroke="black" points="498.5,-39 498.5,-57 575.5,-57 575.5,-39 498.5,-39"/>
<text text-anchor="start" x="565.5" y="-45.2" font-family="Helvetica,sans-Serif" font-size="11.00"> &#160;</text>
<polygon fill="#ffffff" stroke="none" points="575.5,-39 575.5,-57 696.5,-57 696.5,-39 575.5,-39"/>
<polygon fill="none" stroke="black" points="575.5,-39 575.5,-57 696.5,-57 696.5,-39 575.5,-39"/>
<text text-anchor="start" x="676.5" y="-45.2" font-family="Helvetica,sans-Serif" font-size="11.00">0 &gt;</text>
<polygon fill="none" stroke="black" stroke-width="2" points="410,-38 410,-212 697,-212 697,-38 410,-38"/>
</a>
</g>
</g>
<!-- container_quota_scopes&#45;&gt;container_quotas -->
<g id="edge2" class="edge"><title>container_quota_scopes:container_quota_id:w&#45;&gt;container_quotas:id:e</title>
<path fill="none" stroke="black" d="M396.818,-160.799C382.335,-173.672 386.925,-208 361,-208"/>
<polygon fill="black" stroke="black" points="402.951,-158.648 411.691,-159.397 406.725,-157.324 410.5,-156 410.5,-156 410.5,-156 406.725,-157.324 409.309,-152.603 402.951,-158.648 402.951,-158.648"/>
<ellipse fill="none" stroke="black" cx="399.931" cy="-159.707" rx="3.20001" ry="3.20001"/>
</g>
</g>
</svg>
