<?xml version="1.0" encoding="UTF-8" standalone="no"?>
<!DOCTYPE svg PUBLIC "-//W3C//DTD SVG 1.1//EN"
 "http://www.w3.org/Graphics/SVG/1.1/DTD/svg11.dtd">
<!-- Generated by graphviz version 2.38.0 (20140413.2041)
 -->
<!-- Title: twoDegreesRelationshipsDiagram Pages: 1 -->
<svg width="840pt" height="427pt"
 viewBox="0.00 0.00 840.00 427.00" xmlns="http://www.w3.org/2000/svg" xmlns:xlink="http://www.w3.org/1999/xlink">
<g id="graph0" class="graph" transform="scale(1 1) rotate(0) translate(4 423)">
<title>twoDegreesRelationshipsDiagram</title>
<polygon fill="#ffffff" stroke="none" points="-4,4 -4,-423 836,-423 836,4 -4,4"/>
<text text-anchor="middle" x="74.5" y="-7.2" font-family="Helvetica,sans-Serif" font-size="11.00">Generated by SchemaSpy</text>
<!-- container_groups_container_services -->
<g id="node1" class="node"><title>container_groups_container_services</title>
<g id="a_node1"><a xlink:href="../../tables/container_groups_container_services.html" xlink:title="container_groups_container_services" target="_top">
<polygon fill="#ffffff" stroke="none" points="531,-37 531,-95 788,-95 788,-37 531,-37"/>
<polygon fill="#f5f5f5" stroke="none" points="531.5,-73 531.5,-95 788.5,-95 788.5,-73 531.5,-73"/>
<polygon fill="none" stroke="black" points="531.5,-73 531.5,-95 788.5,-95 788.5,-73 531.5,-73"/>
<text text-anchor="start" x="536.5" y="-82.2" font-family="Helvetica,sans-Serif" font-weight="bold" font-size="11.00">container_groups_container_services</text>
<text text-anchor="start" x="749.5" y="-81.2" font-family="Helvetica,sans-Serif" font-size="11.00">[table]</text>
<polygon fill="none" stroke="black" points="531.5,-55 531.5,-73 788.5,-73 788.5,-55 531.5,-55"/>
<text text-anchor="start" x="534.5" y="-61.2" font-family="Helvetica,sans-Serif" font-size="11.00">...</text>
<polygon fill="#ffffff" stroke="none" points="531.5,-37 531.5,-55 658.5,-55 658.5,-37 531.5,-37"/>
<polygon fill="none" stroke="black" points="531.5,-37 531.5,-55 658.5,-55 658.5,-37 531.5,-37"/>
<text text-anchor="start" x="534.5" y="-43.2" font-family="Helvetica,sans-Serif" font-size="11.00">&lt; 2</text>
<polygon fill="#ffffff" stroke="none" points="658.5,-37 658.5,-55 723.5,-55 723.5,-37 658.5,-37"/>
<polygon fill="none" stroke="black" points="658.5,-37 658.5,-55 723.5,-55 723.5,-37 658.5,-37"/>
<text text-anchor="start" x="713.5" y="-43.2" font-family="Helvetica,sans-Serif" font-size="11.00"> &#160;</text>
<polygon fill="#ffffff" stroke="none" points="723.5,-37 723.5,-55 788.5,-55 788.5,-37 723.5,-37"/>
<polygon fill="none" stroke="black" points="723.5,-37 723.5,-55 788.5,-55 788.5,-37 723.5,-37"/>
<text text-anchor="start" x="778.5" y="-43.2" font-family="Helvetica,sans-Serif" font-size="11.00"> &#160;</text>
</a>
</g>
</g>
<!-- container_services -->
<g id="node2" class="node"><title>container_services</title>
<g id="a_node2"><a xlink:href="../../tables/container_services.html" xlink:title="container_services" target="_top">
<polygon fill="#ffffff" stroke="none" points="258,-135 258,-281 446,-281 446,-135 258,-135"/>
<polygon fill="#f5f5f5" stroke="none" points="258,-259 258,-281 446,-281 446,-259 258,-259"/>
<polygon fill="none" stroke="black" points="258,-259 258,-281 446,-281 446,-259 258,-259"/>
<text text-anchor="start" x="263" y="-268.2" font-family="Helvetica,sans-Serif" font-weight="bold" font-size="11.00">container_services</text>
<text text-anchor="start" x="407" y="-267.2" font-family="Helvetica,sans-Serif" font-size="11.00">[table]</text>
<polygon fill="none" stroke="black" points="258,-237 258,-259 446,-259 446,-237 258,-237"/>
<image xlink:href="../../images/primaryKeys.png" width="11px" height="12px" preserveAspectRatio="xMinYMin meet" x="263" y="-254"/>
<text text-anchor="start" x="278" y="-245.2" font-family="Helvetica,sans-Serif" font-size="11.00">id</text>
<polygon fill="#ffffff" stroke="none" points="258,-215 258,-237 446,-237 446,-215 258,-215"/>
<polygon fill="none" stroke="black" points="258,-215 258,-237 446,-237 446,-215 258,-215"/>
<text text-anchor="start" x="278" y="-223.2" font-family="Helvetica,sans-Serif" font-size="11.00">ems_id</text>
<polygon fill="none" stroke="black" points="258,-193 258,-215 446,-215 446,-193 258,-193"/>
<image xlink:href="../../images/foreignKeys.png" width="11px" height="12px" preserveAspectRatio="xMinYMin meet" x="263" y="-210"/>
<text text-anchor="start" x="278" y="-201.2" font-family="Helvetica,sans-Serif" font-size="11.00">container_project_id</text>
<polygon fill="none" stroke="black" points="258,-171 258,-193 446,-193 446,-171 258,-171"/>
<image xlink:href="../../images/foreignKeys.png" width="11px" height="12px" preserveAspectRatio="xMinYMin meet" x="263" y="-188"/>
<text text-anchor="start" x="278" y="-179.2" font-family="Helvetica,sans-Serif" font-size="11.00">container_image_registry_id</text>
<polygon fill="none" stroke="black" points="258,-153 258,-171 446,-171 446,-153 258,-153"/>
<text text-anchor="start" x="261" y="-159.2" font-family="Helvetica,sans-Serif" font-size="11.00">...</text>
<polygon fill="#ffffff" stroke="none" points="258,-135 258,-153 345,-153 345,-135 258,-135"/>
<polygon fill="none" stroke="black" points="258,-135 258,-153 345,-153 345,-135 258,-135"/>
<text text-anchor="start" x="261" y="-141.2" font-family="Helvetica,sans-Serif" font-size="11.00">&lt; 2</text>
<polygon fill="#ffffff" stroke="none" points="345,-135 345,-153 390,-153 390,-135 345,-135"/>
<polygon fill="none" stroke="black" points="345,-135 345,-153 390,-153 390,-135 345,-135"/>
<text text-anchor="start" x="380" y="-141.2" font-family="Helvetica,sans-Serif" font-size="11.00"> &#160;</text>
<polygon fill="#ffffff" stroke="none" points="390,-135 390,-153 446,-153 446,-135 390,-135"/>
<polygon fill="none" stroke="black" points="390,-135 390,-153 446,-153 446,-135 390,-135"/>
<text text-anchor="start" x="426" y="-141.2" font-family="Helvetica,sans-Serif" font-size="11.00">3 &gt;</text>
</a>
</g>
</g>
<!-- container_groups_container_services&#45;&gt;container_services -->
<g id="edge1" class="edge"><title>container_groups_container_services:elipses:w&#45;&gt;container_services:id:e</title>
<path fill="none" stroke="black" d="M516.066,-66.4777C502.034,-72.2051 497.74,-87.2389 487,-105 452.851,-161.473 512.995,-248 447,-248"/>
<polygon fill="black" stroke="black" points="522.615,-65.3536 531.109,-67.5481 526.558,-64.6768 530.5,-64 530.5,-64 530.5,-64 526.558,-64.6768 529.891,-60.4519 522.615,-65.3536 522.615,-65.3536"/>
<ellipse fill="none" stroke="black" cx="519.461" cy="-65.895" rx="3.2" ry="3.2"/>
</g>
<!-- container_projects -->
<g id="node4" class="node"><title>container_projects</title>
<g id="a_node4"><a xlink:href="../../tables/container_projects.html" xlink:title="container_projects" target="_top">
<polygon fill="#ffffff" stroke="none" points="31,-275 31,-333 186,-333 186,-275 31,-275"/>
<polygon fill="#f5f5f5" stroke="none" points="31.5,-311 31.5,-333 186.5,-333 186.5,-311 31.5,-311"/>
<polygon fill="none" stroke="black" points="31.5,-311 31.5,-333 186.5,-333 186.5,-311 31.5,-311"/>
<text text-anchor="start" x="36.5" y="-320.2" font-family="Helvetica,sans-Serif" font-weight="bold" font-size="11.00">container_projects</text>
<text text-anchor="start" x="147.5" y="-319.2" font-family="Helvetica,sans-Serif" font-size="11.00">[table]</text>
<polygon fill="none" stroke="black" points="31.5,-293 31.5,-311 186.5,-311 186.5,-293 31.5,-293"/>
<text text-anchor="start" x="34.5" y="-299.2" font-family="Helvetica,sans-Serif" font-size="11.00">...</text>
<polygon fill="#ffffff" stroke="none" points="31.5,-275 31.5,-293 97.5,-293 97.5,-275 31.5,-275"/>
<polygon fill="none" stroke="black" points="31.5,-275 31.5,-293 97.5,-293 97.5,-275 31.5,-275"/>
<text text-anchor="start" x="34.5" y="-281.2" font-family="Helvetica,sans-Serif" font-size="11.00"> &#160;</text>
<polygon fill="#ffffff" stroke="none" points="97.5,-275 97.5,-293 136.5,-293 136.5,-275 97.5,-275"/>
<polygon fill="none" stroke="black" points="97.5,-275 97.5,-293 136.5,-293 136.5,-275 97.5,-275"/>
<text text-anchor="start" x="126.5" y="-281.2" font-family="Helvetica,sans-Serif" font-size="11.00"> &#160;</text>
<polygon fill="#ffffff" stroke="none" points="136.5,-275 136.5,-293 186.5,-293 186.5,-275 136.5,-275"/>
<polygon fill="none" stroke="black" points="136.5,-275 136.5,-293 186.5,-293 186.5,-275 136.5,-275"/>
<text text-anchor="start" x="166.5" y="-281.2" font-family="Helvetica,sans-Serif" font-size="11.00">9 &gt;</text>
</a>
</g>
</g>
<!-- container_services&#45;&gt;container_projects -->
<g id="edge6" class="edge"><title>container_services:container_project_id:w&#45;&gt;container_projects:elipses:e</title>
<path fill="none" stroke="black" d="M242.919,-207.04C210.461,-223.582 235.265,-302 187.5,-302"/>
<polygon fill="black" stroke="black" points="249.18,-205.688 257.76,-207.519 253.09,-204.844 257,-204 257,-204 257,-204 253.09,-204.844 256.24,-200.481 249.18,-205.688 249.18,-205.688"/>
<ellipse fill="none" stroke="black" cx="246.052" cy="-206.364" rx="3.2" ry="3.2"/>
</g>
<!-- container_image_registries -->
<g id="node6" class="node"><title>container_image_registries</title>
<g id="a_node6"><a xlink:href="../../tables/container_image_registries.html" xlink:title="container_image_registries" target="_top">
<polygon fill="#ffffff" stroke="none" points="8,-155 8,-213 209,-213 209,-155 8,-155"/>
<polygon fill="#f5f5f5" stroke="none" points="8.5,-191 8.5,-213 209.5,-213 209.5,-191 8.5,-191"/>
<polygon fill="none" stroke="black" points="8.5,-191 8.5,-213 209.5,-213 209.5,-191 8.5,-191"/>
<text text-anchor="start" x="13.5" y="-200.2" font-family="Helvetica,sans-Serif" font-weight="bold" font-size="11.00">container_image_registries</text>
<text text-anchor="start" x="170.5" y="-199.2" font-family="Helvetica,sans-Serif" font-size="11.00">[table]</text>
<polygon fill="none" stroke="black" points="8.5,-173 8.5,-191 209.5,-191 209.5,-173 8.5,-173"/>
<text text-anchor="start" x="11.5" y="-179.2" font-family="Helvetica,sans-Serif" font-size="11.00">...</text>
<polygon fill="#ffffff" stroke="none" points="8.5,-155 8.5,-173 97.5,-173 97.5,-155 8.5,-155"/>
<polygon fill="none" stroke="black" points="8.5,-155 8.5,-173 97.5,-173 97.5,-155 8.5,-155"/>
<text text-anchor="start" x="11.5" y="-161.2" font-family="Helvetica,sans-Serif" font-size="11.00"> &#160;</text>
<polygon fill="#ffffff" stroke="none" points="97.5,-155 97.5,-173 148.5,-173 148.5,-155 97.5,-155"/>
<polygon fill="none" stroke="black" points="97.5,-155 97.5,-173 148.5,-173 148.5,-155 97.5,-155"/>
<text text-anchor="start" x="138.5" y="-161.2" font-family="Helvetica,sans-Serif" font-size="11.00"> &#160;</text>
<polygon fill="#ffffff" stroke="none" points="148.5,-155 148.5,-173 209.5,-173 209.5,-155 148.5,-155"/>
<polygon fill="none" stroke="black" points="148.5,-155 148.5,-173 209.5,-173 209.5,-155 148.5,-155"/>
<text text-anchor="start" x="189.5" y="-161.2" font-family="Helvetica,sans-Serif" font-size="11.00">2 &gt;</text>
</a>
</g>
</g>
<!-- container_services&#45;&gt;container_image_registries -->
<g id="edge5" class="edge"><title>container_services:container_image_registry_id:w&#45;&gt;container_image_registries:elipses:e</title>
<path fill="none" stroke="black" d="M242.551,-182C232.201,-182 225.354,-182 210.5,-182"/>
<polygon fill="black" stroke="black" points="249,-182 257,-185.6 253,-182 257,-182 257,-182 257,-182 253,-182 257,-178.4 249,-182 249,-182"/>
<ellipse fill="none" stroke="black" cx="245.8" cy="-182" rx="3.2" ry="3.2"/>
</g>
<!-- container_routes -->
<g id="node3" class="node"><title>container_routes</title>
<g id="a_node3"><a xlink:href="../../tables/container_routes.html" xlink:title="container_routes" target="_top">
<polygon fill="#ffffff" stroke="none" points="587,-357 587,-415 732,-415 732,-357 587,-357"/>
<polygon fill="#f5f5f5" stroke="none" points="587.5,-393 587.5,-415 732.5,-415 732.5,-393 587.5,-393"/>
<polygon fill="none" stroke="black" points="587.5,-393 587.5,-415 732.5,-415 732.5,-393 587.5,-393"/>
<text text-anchor="start" x="592.5" y="-402.2" font-family="Helvetica,sans-Serif" font-weight="bold" font-size="11.00">container_routes</text>
<text text-anchor="start" x="693.5" y="-401.2" font-family="Helvetica,sans-Serif" font-size="11.00">[table]</text>
<polygon fill="none" stroke="black" points="587.5,-375 587.5,-393 732.5,-393 732.5,-375 587.5,-375"/>
<text text-anchor="start" x="590.5" y="-381.2" font-family="Helvetica,sans-Serif" font-size="11.00">...</text>
<polygon fill="#ffffff" stroke="none" points="587.5,-357 587.5,-375 658.5,-375 658.5,-357 587.5,-357"/>
<polygon fill="none" stroke="black" points="587.5,-357 587.5,-375 658.5,-375 658.5,-357 587.5,-357"/>
<text text-anchor="start" x="590.5" y="-363.2" font-family="Helvetica,sans-Serif" font-size="11.00">&lt; 2</text>
<polygon fill="#ffffff" stroke="none" points="658.5,-357 658.5,-375 695.5,-375 695.5,-357 658.5,-357"/>
<polygon fill="none" stroke="black" points="658.5,-357 658.5,-375 695.5,-375 695.5,-357 658.5,-357"/>
<text text-anchor="start" x="685.5" y="-363.2" font-family="Helvetica,sans-Serif" font-size="11.00"> &#160;</text>
<polygon fill="#ffffff" stroke="none" points="695.5,-357 695.5,-375 732.5,-375 732.5,-357 695.5,-357"/>
<polygon fill="none" stroke="black" points="695.5,-357 695.5,-375 732.5,-375 732.5,-357 695.5,-357"/>
<text text-anchor="start" x="722.5" y="-363.2" font-family="Helvetica,sans-Serif" font-size="11.00"> &#160;</text>
</a>
</g>
</g>
<!-- container_routes&#45;&gt;container_services -->
<g id="edge3" class="edge"><title>container_routes:elipses:w&#45;&gt;container_services:id:e</title>
<path fill="none" stroke="black" d="M571.991,-383.82C535.09,-382.757 517.126,-376.294 487,-347 452.978,-313.916 494.456,-248 447,-248"/>
<polygon fill="black" stroke="black" points="578.501,-383.901 586.455,-387.6 582.5,-383.95 586.5,-384 586.5,-384 586.5,-384 582.5,-383.95 586.545,-380.4 578.501,-383.901 578.501,-383.901"/>
<ellipse fill="none" stroke="black" cx="575.301" cy="-383.861" rx="3.2" ry="3.2"/>
</g>
<!-- container_routes&#45;&gt;container_projects -->
<g id="edge2" class="edge"><title>container_routes:elipses:w&#45;&gt;container_projects:elipses:e</title>
<path fill="none" stroke="black" d="M571.966,-383.819C403.334,-379.577 363.589,-302 187.5,-302"/>
<polygon fill="black" stroke="black" points="578.501,-383.901 586.455,-387.6 582.5,-383.95 586.5,-384 586.5,-384 586.5,-384 582.5,-383.95 586.545,-380.4 578.501,-383.901 578.501,-383.901"/>
<ellipse fill="none" stroke="black" cx="575.301" cy="-383.861" rx="3.2" ry="3.2"/>
</g>
<!-- container_service_port_configs -->
<g id="node5" class="node"><title>container_service_port_configs</title>
<g id="a_node5"><a xlink:href="../../tables/container_service_port_configs.html" xlink:title="container_service_port_configs" target="_top">
<polygon fill="#ffffff" stroke="none" points="495,-116 495,-336 824,-336 824,-116 495,-116"/>
<polygon fill="#f5f5f5" stroke="none" points="497.5,-312 497.5,-334 822.5,-334 822.5,-312 497.5,-312"/>
<polygon fill="none" stroke="black" points="497.5,-312 497.5,-334 822.5,-334 822.5,-312 497.5,-312"/>
<text text-anchor="start" x="502.5" y="-321.2" font-family="Helvetica,sans-Serif" font-weight="bold" font-size="11.00">container_service_port_configs</text>
<text text-anchor="start" x="783.5" y="-320.2" font-family="Helvetica,sans-Serif" font-size="11.00">[table]</text>
<polygon fill="none" stroke="black" points="497.5,-290 497.5,-312 701.5,-312 701.5,-290 497.5,-290"/>
<image xlink:href="../../images/primaryKeys.png" width="11px" height="12px" preserveAspectRatio="xMinYMin meet" x="502.5" y="-307"/>
<text text-anchor="start" x="517.5" y="-298.2" font-family="Helvetica,sans-Serif" font-size="11.00">id</text>
<polygon fill="none" stroke="black" points="701.5,-290 701.5,-312 822.5,-312 822.5,-290 701.5,-290"/>
<text text-anchor="start" x="704.5" y="-298.2" font-family="Helvetica,sans-Serif" font-size="11.00">bigserial[19]</text>
<polygon fill="none" stroke="black" points="497.5,-268 497.5,-290 701.5,-290 701.5,-268 497.5,-268"/>
<text text-anchor="start" x="517.5" y="-276.2" font-family="Helvetica,sans-Serif" font-size="11.00">ems_ref</text>
<polygon fill="none" stroke="black" points="701.5,-268 701.5,-290 822.5,-290 822.5,-268 701.5,-268"/>
<text text-anchor="start" x="704.5" y="-276.2" font-family="Helvetica,sans-Serif" font-size="11.00">varchar[2147483647]</text>
<polygon fill="none" stroke="black" points="497.5,-246 497.5,-268 701.5,-268 701.5,-246 497.5,-246"/>
<text text-anchor="start" x="517.5" y="-254.2" font-family="Helvetica,sans-Serif" font-size="11.00">name</text>
<polygon fill="none" stroke="black" points="701.5,-246 701.5,-268 822.5,-268 822.5,-246 701.5,-246"/>
<text text-anchor="start" x="704.5" y="-254.2" font-family="Helvetica,sans-Serif" font-size="11.00">varchar[2147483647]</text>
<polygon fill="none" stroke="black" points="497.5,-224 497.5,-246 701.5,-246 701.5,-224 497.5,-224"/>
<text text-anchor="start" x="517.5" y="-232.2" font-family="Helvetica,sans-Serif" font-size="11.00">port</text>
<polygon fill="none" stroke="black" points="701.5,-224 701.5,-246 822.5,-246 822.5,-224 701.5,-224"/>
<text text-anchor="start" x="704.5" y="-232.2" font-family="Helvetica,sans-Serif" font-size="11.00">int4[10]</text>
<polygon fill="none" stroke="black" points="497.5,-202 497.5,-224 701.5,-224 701.5,-202 497.5,-202"/>
<text text-anchor="start" x="517.5" y="-210.2" font-family="Helvetica,sans-Serif" font-size="11.00">target_port</text>
<polygon fill="none" stroke="black" points="701.5,-202 701.5,-224 822.5,-224 822.5,-202 701.5,-202"/>
<text text-anchor="start" x="704.5" y="-210.2" font-family="Helvetica,sans-Serif" font-size="11.00">varchar[2147483647]</text>
<polygon fill="none" stroke="black" points="497.5,-180 497.5,-202 701.5,-202 701.5,-180 497.5,-180"/>
<text text-anchor="start" x="517.5" y="-188.2" font-family="Helvetica,sans-Serif" font-size="11.00">protocol</text>
<polygon fill="none" stroke="black" points="701.5,-180 701.5,-202 822.5,-202 822.5,-180 701.5,-180"/>
<text text-anchor="start" x="704.5" y="-188.2" font-family="Helvetica,sans-Serif" font-size="11.00">varchar[2147483647]</text>
<polygon fill="none" stroke="black" points="497.5,-158 497.5,-180 701.5,-180 701.5,-158 497.5,-158"/>
<image xlink:href="../../images/foreignKeys.png" width="11px" height="12px" preserveAspectRatio="xMinYMin meet" x="502.5" y="-175"/>
<text text-anchor="start" x="517.5" y="-166.2" font-family="Helvetica,sans-Serif" font-size="11.00">container_service_id</text>
<polygon fill="none" stroke="black" points="701.5,-158 701.5,-180 822.5,-180 822.5,-158 701.5,-158"/>
<text text-anchor="start" x="704.5" y="-166.2" font-family="Helvetica,sans-Serif" font-size="11.00">int8[19]</text>
<polygon fill="none" stroke="black" points="497.5,-136 497.5,-158 701.5,-158 701.5,-136 497.5,-136"/>
<text text-anchor="start" x="517.5" y="-144.2" font-family="Helvetica,sans-Serif" font-size="11.00">node_port</text>
<polygon fill="none" stroke="black" points="701.5,-136 701.5,-158 822.5,-158 822.5,-136 701.5,-136"/>
<text text-anchor="start" x="704.5" y="-144.2" font-family="Helvetica,sans-Serif" font-size="11.00">int4[10]</text>
<polygon fill="#ffffff" stroke="none" points="497.5,-118 497.5,-136 604.5,-136 604.5,-118 497.5,-118"/>
<polygon fill="none" stroke="black" points="497.5,-118 497.5,-136 604.5,-136 604.5,-118 497.5,-118"/>
<text text-anchor="start" x="500.5" y="-124.2" font-family="Helvetica,sans-Serif" font-size="11.00">&lt; 1</text>
<polygon fill="#ffffff" stroke="none" points="604.5,-118 604.5,-136 701.5,-136 701.5,-118 604.5,-118"/>
<polygon fill="none" stroke="black" points="604.5,-118 604.5,-136 701.5,-136 701.5,-118 604.5,-118"/>
<text text-anchor="start" x="691.5" y="-124.2" font-family="Helvetica,sans-Serif" font-size="11.00"> &#160;</text>
<polygon fill="#ffffff" stroke="none" points="701.5,-118 701.5,-136 822.5,-136 822.5,-118 701.5,-118"/>
<polygon fill="none" stroke="black" points="701.5,-118 701.5,-136 822.5,-136 822.5,-118 701.5,-118"/>
<text text-anchor="start" x="802.5" y="-124.2" font-family="Helvetica,sans-Serif" font-size="11.00">0 &gt;</text>
<polygon fill="none" stroke="black" stroke-width="2" points="496,-117 496,-335 823,-335 823,-117 496,-117"/>
</a>
</g>
</g>
<!-- container_service_port_configs&#45;&gt;container_services -->
<g id="edge4" class="edge"><title>container_service_port_configs:container_service_id:w&#45;&gt;container_services:id:e</title>
<path fill="none" stroke="black" d="M482.77,-173.474C463.149,-190.186 482.446,-248 447,-248"/>
<polygon fill="black" stroke="black" points="488.894,-171.479 497.615,-172.423 492.697,-170.239 496.5,-169 496.5,-169 496.5,-169 492.697,-170.239 495.385,-165.577 488.894,-171.479 488.894,-171.479"/>
<ellipse fill="none" stroke="black" cx="485.851" cy="-172.47" rx="3.20001" ry="3.20001"/>
</g>
</g>
</svg>
