<?xml version="1.0" encoding="UTF-8" standalone="no"?>
<!DOCTYPE svg PUBLIC "-//W3C//DTD SVG 1.1//EN"
 "http://www.w3.org/Graphics/SVG/1.1/DTD/svg11.dtd">
<!-- Generated by graphviz version 2.38.0 (20140413.2041)
 -->
<!-- Title: oneDegreeRelationshipsDiagram Pages: 1 -->
<svg width="717pt" height="305pt"
 viewBox="0.00 0.00 717.00 305.00" xmlns="http://www.w3.org/2000/svg" xmlns:xlink="http://www.w3.org/1999/xlink">
<g id="graph0" class="graph" transform="scale(1 1) rotate(0) translate(4 301)">
<title>oneDegreeRelationshipsDiagram</title>
<polygon fill="#ffffff" stroke="none" points="-4,4 -4,-301 713,-301 713,4 -4,4"/>
<text text-anchor="middle" x="74.5" y="-7.2" font-family="Helvetica,sans-Serif" font-size="11.00">Generated by SchemaSpy</text>
<!-- container_limit_items -->
<g id="node1" class="node"><title>container_limit_items</title>
<g id="a_node1"><a xlink:href="../../tables/container_limit_items.html" xlink:title="container_limit_items" target="_top">
<polygon fill="#ffffff" stroke="none" points="528,-191 528,-293 701,-293 701,-191 528,-191"/>
<polygon fill="#f5f5f5" stroke="none" points="528.5,-271 528.5,-293 701.5,-293 701.5,-271 528.5,-271"/>
<polygon fill="none" stroke="black" points="528.5,-271 528.5,-293 701.5,-293 701.5,-271 528.5,-271"/>
<text text-anchor="start" x="533.5" y="-280.2" font-family="Helvetica,sans-Serif" font-weight="bold" font-size="11.00">container_limit_items</text>
<text text-anchor="start" x="662.5" y="-279.2" font-family="Helvetica,sans-Serif" font-size="11.00">[table]</text>
<polygon fill="none" stroke="black" points="528.5,-249 528.5,-271 701.5,-271 701.5,-249 528.5,-249"/>
<image xlink:href="../../images/primaryKeys.png" width="11px" height="12px" preserveAspectRatio="xMinYMin meet" x="533.5" y="-266"/>
<text text-anchor="start" x="552.5" y="-257.2" font-family="Helvetica,sans-Serif" font-size="11.00">id</text>
<polygon fill="none" stroke="black" points="528.5,-227 528.5,-249 701.5,-249 701.5,-227 528.5,-227"/>
<image xlink:href="../../images/foreignKeys.png" width="11px" height="12px" preserveAspectRatio="xMinYMin meet" x="533.5" y="-244"/>
<text text-anchor="start" x="552.5" y="-235.2" font-family="Helvetica,sans-Serif" font-size="11.00">container_limit_id</text>
<polygon fill="none" stroke="black" points="528.5,-209 528.5,-227 701.5,-227 701.5,-209 528.5,-209"/>
<text text-anchor="start" x="531.5" y="-215.2" font-family="Helvetica,sans-Serif" font-size="11.00">...</text>
<polygon fill="#ffffff" stroke="none" points="528.5,-191 528.5,-209 613.5,-209 613.5,-191 528.5,-191"/>
<polygon fill="none" stroke="black" points="528.5,-191 528.5,-209 613.5,-209 613.5,-191 528.5,-191"/>
<text text-anchor="start" x="531.5" y="-197.2" font-family="Helvetica,sans-Serif" font-size="11.00">&lt; 1</text>
<polygon fill="#ffffff" stroke="none" points="613.5,-191 613.5,-209 657.5,-209 657.5,-191 613.5,-191"/>
<polygon fill="none" stroke="black" points="613.5,-191 613.5,-209 657.5,-209 657.5,-191 613.5,-191"/>
<text text-anchor="start" x="647.5" y="-197.2" font-family="Helvetica,sans-Serif" font-size="11.00"> &#160;</text>
<polygon fill="#ffffff" stroke="none" points="657.5,-191 657.5,-209 701.5,-209 701.5,-191 657.5,-191"/>
<polygon fill="none" stroke="black" points="657.5,-191 657.5,-209 701.5,-209 701.5,-191 657.5,-191"/>
<text text-anchor="start" x="691.5" y="-197.2" font-family="Helvetica,sans-Serif" font-size="11.00"> &#160;</text>
</a>
</g>
</g>
<!-- container_limits -->
<g id="node2" class="node"><title>container_limits</title>
<g id="a_node2"><a xlink:href="../../tables/container_limits.html" xlink:title="container_limits" target="_top">
<polygon fill="#ffffff" stroke="none" points="212,-53 212,-273 479,-273 479,-53 212,-53"/>
<polygon fill="#f5f5f5" stroke="none" points="214.5,-249 214.5,-271 477.5,-271 477.5,-249 214.5,-249"/>
<polygon fill="none" stroke="black" points="214.5,-249 214.5,-271 477.5,-271 477.5,-249 214.5,-249"/>
<text text-anchor="start" x="219.5" y="-258.2" font-family="Helvetica,sans-Serif" font-weight="bold" font-size="11.00">container_limits</text>
<text text-anchor="start" x="438.5" y="-257.2" font-family="Helvetica,sans-Serif" font-size="11.00">[table]</text>
<polygon fill="none" stroke="black" points="214.5,-227 214.5,-249 356.5,-249 356.5,-227 214.5,-227"/>
<image xlink:href="../../images/primaryKeys.png" width="11px" height="12px" preserveAspectRatio="xMinYMin meet" x="219.5" y="-244"/>
<text text-anchor="start" x="234.5" y="-235.2" font-family="Helvetica,sans-Serif" font-size="11.00">id</text>
<polygon fill="none" stroke="black" points="356.5,-227 356.5,-249 477.5,-249 477.5,-227 356.5,-227"/>
<text text-anchor="start" x="359.5" y="-235.2" font-family="Helvetica,sans-Serif" font-size="11.00">bigserial[19]</text>
<polygon fill="none" stroke="black" points="214.5,-205 214.5,-227 356.5,-227 356.5,-205 214.5,-205"/>
<text text-anchor="start" x="234.5" y="-213.2" font-family="Helvetica,sans-Serif" font-size="11.00">name</text>
<polygon fill="none" stroke="black" points="356.5,-205 356.5,-227 477.5,-227 477.5,-205 356.5,-205"/>
<text text-anchor="start" x="359.5" y="-213.2" font-family="Helvetica,sans-Serif" font-size="11.00">varchar[2147483647]</text>
<polygon fill="none" stroke="black" points="214.5,-183 214.5,-205 356.5,-205 356.5,-183 214.5,-183"/>
<text text-anchor="start" x="234.5" y="-191.2" font-family="Helvetica,sans-Serif" font-size="11.00">ems_created_on</text>
<polygon fill="none" stroke="black" points="356.5,-183 356.5,-205 477.5,-205 477.5,-183 356.5,-183"/>
<text text-anchor="start" x="359.5" y="-191.2" font-family="Helvetica,sans-Serif" font-size="11.00">timestamp[29,6]</text>
<polygon fill="none" stroke="black" points="214.5,-161 214.5,-183 356.5,-183 356.5,-161 214.5,-161"/>
<text text-anchor="start" x="234.5" y="-169.2" font-family="Helvetica,sans-Serif" font-size="11.00">resource_version</text>
<polygon fill="none" stroke="black" points="356.5,-161 356.5,-183 477.5,-183 477.5,-161 356.5,-161"/>
<text text-anchor="start" x="359.5" y="-169.2" font-family="Helvetica,sans-Serif" font-size="11.00">varchar[2147483647]</text>
<polygon fill="none" stroke="black" points="214.5,-139 214.5,-161 356.5,-161 356.5,-139 214.5,-139"/>
<text text-anchor="start" x="234.5" y="-147.2" font-family="Helvetica,sans-Serif" font-size="11.00">ems_ref</text>
<polygon fill="none" stroke="black" points="356.5,-139 356.5,-161 477.5,-161 477.5,-139 356.5,-139"/>
<text text-anchor="start" x="359.5" y="-147.2" font-family="Helvetica,sans-Serif" font-size="11.00">varchar[2147483647]</text>
<polygon fill="none" stroke="black" points="214.5,-117 214.5,-139 356.5,-139 356.5,-117 214.5,-117"/>
<image xlink:href="../../images/foreignKeys.png" width="11px" height="12px" preserveAspectRatio="xMinYMin meet" x="219.5" y="-134"/>
<text text-anchor="start" x="234.5" y="-125.2" font-family="Helvetica,sans-Serif" font-size="11.00">container_project_id</text>
<polygon fill="none" stroke="black" points="356.5,-117 356.5,-139 477.5,-139 477.5,-117 356.5,-117"/>
<text text-anchor="start" x="359.5" y="-125.2" font-family="Helvetica,sans-Serif" font-size="11.00">int8[19]</text>
<polygon fill="none" stroke="black" points="214.5,-95 214.5,-117 356.5,-117 356.5,-95 214.5,-95"/>
<text text-anchor="start" x="234.5" y="-103.2" font-family="Helvetica,sans-Serif" font-size="11.00">ems_id</text>
<polygon fill="none" stroke="black" points="356.5,-95 356.5,-117 477.5,-117 477.5,-95 356.5,-95"/>
<text text-anchor="start" x="359.5" y="-103.2" font-family="Helvetica,sans-Serif" font-size="11.00">int8[19]</text>
<polygon fill="none" stroke="black" points="214.5,-73 214.5,-95 356.5,-95 356.5,-73 214.5,-73"/>
<text text-anchor="start" x="234.5" y="-81.2" font-family="Helvetica,sans-Serif" font-size="11.00">created_on</text>
<polygon fill="none" stroke="black" points="356.5,-73 356.5,-95 477.5,-95 477.5,-73 356.5,-73"/>
<text text-anchor="start" x="359.5" y="-81.2" font-family="Helvetica,sans-Serif" font-size="11.00">timestamp[29,6]</text>
<polygon fill="#ffffff" stroke="none" points="214.5,-55 214.5,-73 290.5,-73 290.5,-55 214.5,-55"/>
<polygon fill="none" stroke="black" points="214.5,-55 214.5,-73 290.5,-73 290.5,-55 214.5,-55"/>
<text text-anchor="start" x="217.5" y="-61.2" font-family="Helvetica,sans-Serif" font-size="11.00">&lt; 1</text>
<polygon fill="#ffffff" stroke="none" points="290.5,-55 290.5,-73 356.5,-73 356.5,-55 290.5,-55"/>
<polygon fill="none" stroke="black" points="290.5,-55 290.5,-73 356.5,-73 356.5,-55 290.5,-55"/>
<text text-anchor="start" x="346.5" y="-61.2" font-family="Helvetica,sans-Serif" font-size="11.00"> &#160;</text>
<polygon fill="#ffffff" stroke="none" points="356.5,-55 356.5,-73 477.5,-73 477.5,-55 356.5,-55"/>
<polygon fill="none" stroke="black" points="356.5,-55 356.5,-73 477.5,-73 477.5,-55 356.5,-55"/>
<text text-anchor="start" x="457.5" y="-61.2" font-family="Helvetica,sans-Serif" font-size="11.00">1 &gt;</text>
<polygon fill="none" stroke="black" stroke-width="2" points="213,-54 213,-272 478,-272 478,-54 213,-54"/>
</a>
</g>
</g>
<!-- container_limit_items&#45;&gt;container_limits -->
<g id="edge1" class="edge"><title>container_limit_items:container_limit_id:w&#45;&gt;container_limits:id.type:e</title>
<path fill="none" stroke="black" d="M512.991,-238C501.677,-238 494.493,-238 478.5,-238"/>
<polygon fill="black" stroke="black" points="519.5,-238 527.5,-241.6 523.5,-238 527.5,-238 527.5,-238 527.5,-238 523.5,-238 527.5,-234.4 519.5,-238 519.5,-238"/>
<ellipse fill="none" stroke="black" cx="516.3" cy="-238" rx="3.2" ry="3.2"/>
</g>
<!-- container_projects -->
<g id="node3" class="node"><title>container_projects</title>
<g id="a_node3"><a xlink:href="../../tables/container_projects.html" xlink:title="container_projects" target="_top">
<polygon fill="#ffffff" stroke="none" points="8,-37 8,-161 163,-161 163,-37 8,-37"/>
<polygon fill="#f5f5f5" stroke="none" points="8.5,-139 8.5,-161 163.5,-161 163.5,-139 8.5,-139"/>
<polygon fill="none" stroke="black" points="8.5,-139 8.5,-161 163.5,-161 163.5,-139 8.5,-139"/>
<text text-anchor="start" x="13.5" y="-148.2" font-family="Helvetica,sans-Serif" font-weight="bold" font-size="11.00">container_projects</text>
<text text-anchor="start" x="124.5" y="-147.2" font-family="Helvetica,sans-Serif" font-size="11.00">[table]</text>
<polygon fill="none" stroke="black" points="8.5,-117 8.5,-139 163.5,-139 163.5,-117 8.5,-117"/>
<image xlink:href="../../images/primaryKeys.png" width="11px" height="12px" preserveAspectRatio="xMinYMin meet" x="13.5" y="-134"/>
<text text-anchor="start" x="40.5" y="-125.2" font-family="Helvetica,sans-Serif" font-size="11.00">id</text>
<polygon fill="#ffffff" stroke="none" points="8.5,-95 8.5,-117 163.5,-117 163.5,-95 8.5,-95"/>
<polygon fill="none" stroke="black" points="8.5,-95 8.5,-117 163.5,-117 163.5,-95 8.5,-95"/>
<text text-anchor="start" x="40.5" y="-103.2" font-family="Helvetica,sans-Serif" font-size="11.00">ems_id</text>
<polygon fill="#ffffff" stroke="none" points="8.5,-73 8.5,-95 163.5,-95 163.5,-73 8.5,-73"/>
<polygon fill="none" stroke="black" points="8.5,-73 8.5,-95 163.5,-95 163.5,-73 8.5,-73"/>
<text text-anchor="start" x="40.5" y="-81.2" font-family="Helvetica,sans-Serif" font-size="11.00">deleted_on</text>
<polygon fill="none" stroke="black" points="8.5,-55 8.5,-73 163.5,-73 163.5,-55 8.5,-55"/>
<text text-anchor="start" x="11.5" y="-61.2" font-family="Helvetica,sans-Serif" font-size="11.00">...</text>
<polygon fill="#ffffff" stroke="none" points="8.5,-37 8.5,-55 74.5,-55 74.5,-37 8.5,-37"/>
<polygon fill="none" stroke="black" points="8.5,-37 8.5,-55 74.5,-55 74.5,-37 8.5,-37"/>
<text text-anchor="start" x="11.5" y="-43.2" font-family="Helvetica,sans-Serif" font-size="11.00"> &#160;</text>
<polygon fill="#ffffff" stroke="none" points="74.5,-37 74.5,-55 113.5,-55 113.5,-37 74.5,-37"/>
<polygon fill="none" stroke="black" points="74.5,-37 74.5,-55 113.5,-55 113.5,-37 74.5,-37"/>
<text text-anchor="start" x="103.5" y="-43.2" font-family="Helvetica,sans-Serif" font-size="11.00"> &#160;</text>
<polygon fill="#ffffff" stroke="none" points="113.5,-37 113.5,-55 163.5,-55 163.5,-37 113.5,-37"/>
<polygon fill="none" stroke="black" points="113.5,-37 113.5,-55 163.5,-55 163.5,-37 113.5,-37"/>
<text text-anchor="start" x="143.5" y="-43.2" font-family="Helvetica,sans-Serif" font-size="11.00">9 &gt;</text>
</a>
</g>
</g>
<!-- container_limits&#45;&gt;container_projects -->
<g id="edge2" class="edge"><title>container_limits:container_project_id:w&#45;&gt;container_projects:id:e</title>
<path fill="none" stroke="black" d="M198.991,-128C187.677,-128 180.493,-128 164.5,-128"/>
<polygon fill="black" stroke="black" points="205.5,-128 213.5,-131.6 209.5,-128 213.5,-128 213.5,-128 213.5,-128 209.5,-128 213.5,-124.4 205.5,-128 205.5,-128"/>
<ellipse fill="none" stroke="black" cx="202.3" cy="-128" rx="3.2" ry="3.2"/>
</g>
</g>
</svg>
