<?xml version="1.0" encoding="UTF-8" standalone="no"?>
<!DOCTYPE svg PUBLIC "-//W3C//DTD SVG 1.1//EN"
 "http://www.w3.org/Graphics/SVG/1.1/DTD/svg11.dtd">
<!-- Generated by graphviz version 2.38.0 (20140413.2041)
 -->
<!-- Title: twoDegreesRelationshipsDiagram Pages: 1 -->
<svg width="728pt" height="819pt"
 viewBox="0.00 0.00 728.00 819.00" xmlns="http://www.w3.org/2000/svg" xmlns:xlink="http://www.w3.org/1999/xlink">
<g id="graph0" class="graph" transform="scale(1 1) rotate(0) translate(4 815)">
<title>twoDegreesRelationshipsDiagram</title>
<polygon fill="#ffffff" stroke="none" points="-4,4 -4,-815 724,-815 724,4 -4,4"/>
<text text-anchor="middle" x="74.5" y="-7.2" font-family="Helvetica,sans-Serif" font-size="11.00">Generated by SchemaSpy</text>
<!-- container_builds -->
<g id="node1" class="node"><title>container_builds</title>
<g id="a_node1"><a xlink:href="../../tables/container_builds.html" xlink:title="container_builds" target="_top">
<polygon fill="#ffffff" stroke="none" points="273.5,-749 273.5,-807 417.5,-807 417.5,-749 273.5,-749"/>
<polygon fill="#f5f5f5" stroke="none" points="273.5,-785 273.5,-807 417.5,-807 417.5,-785 273.5,-785"/>
<polygon fill="none" stroke="black" points="273.5,-785 273.5,-807 417.5,-807 417.5,-785 273.5,-785"/>
<text text-anchor="start" x="278.5" y="-794.2" font-family="Helvetica,sans-Serif" font-weight="bold" font-size="11.00">container_builds</text>
<text text-anchor="start" x="378.5" y="-793.2" font-family="Helvetica,sans-Serif" font-size="11.00">[table]</text>
<polygon fill="none" stroke="black" points="273.5,-767 273.5,-785 417.5,-785 417.5,-767 273.5,-767"/>
<text text-anchor="start" x="276.5" y="-773.2" font-family="Helvetica,sans-Serif" font-size="11.00">...</text>
<polygon fill="#ffffff" stroke="none" points="273.5,-749 273.5,-767 338.5,-767 338.5,-749 273.5,-749"/>
<polygon fill="none" stroke="black" points="273.5,-749 273.5,-767 338.5,-767 338.5,-749 273.5,-749"/>
<text text-anchor="start" x="276.5" y="-755.2" font-family="Helvetica,sans-Serif" font-size="11.00">&lt; 1</text>
<polygon fill="#ffffff" stroke="none" points="338.5,-749 338.5,-767 372.5,-767 372.5,-749 338.5,-749"/>
<polygon fill="none" stroke="black" points="338.5,-749 338.5,-767 372.5,-767 372.5,-749 338.5,-749"/>
<text text-anchor="start" x="362.5" y="-755.2" font-family="Helvetica,sans-Serif" font-size="11.00"> &#160;</text>
<polygon fill="#ffffff" stroke="none" points="372.5,-749 372.5,-767 417.5,-767 417.5,-749 372.5,-749"/>
<polygon fill="none" stroke="black" points="372.5,-749 372.5,-767 417.5,-767 417.5,-749 372.5,-749"/>
<text text-anchor="start" x="397.5" y="-755.2" font-family="Helvetica,sans-Serif" font-size="11.00">1 &gt;</text>
</a>
</g>
</g>
<!-- container_projects -->
<g id="node2" class="node"><title>container_projects</title>
<g id="a_node2"><a xlink:href="../../tables/container_projects.html" xlink:title="container_projects" target="_top">
<polygon fill="#ffffff" stroke="none" points="8,-307 8,-431 163,-431 163,-307 8,-307"/>
<polygon fill="#f5f5f5" stroke="none" points="8.5,-409 8.5,-431 163.5,-431 163.5,-409 8.5,-409"/>
<polygon fill="none" stroke="black" points="8.5,-409 8.5,-431 163.5,-431 163.5,-409 8.5,-409"/>
<text text-anchor="start" x="13.5" y="-418.2" font-family="Helvetica,sans-Serif" font-weight="bold" font-size="11.00">container_projects</text>
<text text-anchor="start" x="124.5" y="-417.2" font-family="Helvetica,sans-Serif" font-size="11.00">[table]</text>
<polygon fill="none" stroke="black" points="8.5,-387 8.5,-409 163.5,-409 163.5,-387 8.5,-387"/>
<image xlink:href="../../images/primaryKeys.png" width="11px" height="12px" preserveAspectRatio="xMinYMin meet" x="13.5" y="-404"/>
<text text-anchor="start" x="40.5" y="-395.2" font-family="Helvetica,sans-Serif" font-size="11.00">id</text>
<polygon fill="#ffffff" stroke="none" points="8.5,-365 8.5,-387 163.5,-387 163.5,-365 8.5,-365"/>
<polygon fill="none" stroke="black" points="8.5,-365 8.5,-387 163.5,-387 163.5,-365 8.5,-365"/>
<text text-anchor="start" x="40.5" y="-373.2" font-family="Helvetica,sans-Serif" font-size="11.00">ems_id</text>
<polygon fill="#ffffff" stroke="none" points="8.5,-343 8.5,-365 163.5,-365 163.5,-343 8.5,-343"/>
<polygon fill="none" stroke="black" points="8.5,-343 8.5,-365 163.5,-365 163.5,-343 8.5,-343"/>
<text text-anchor="start" x="40.5" y="-351.2" font-family="Helvetica,sans-Serif" font-size="11.00">deleted_on</text>
<polygon fill="none" stroke="black" points="8.5,-325 8.5,-343 163.5,-343 163.5,-325 8.5,-325"/>
<text text-anchor="start" x="11.5" y="-331.2" font-family="Helvetica,sans-Serif" font-size="11.00">...</text>
<polygon fill="#ffffff" stroke="none" points="8.5,-307 8.5,-325 74.5,-325 74.5,-307 8.5,-307"/>
<polygon fill="none" stroke="black" points="8.5,-307 8.5,-325 74.5,-325 74.5,-307 8.5,-307"/>
<text text-anchor="start" x="11.5" y="-313.2" font-family="Helvetica,sans-Serif" font-size="11.00"> &#160;</text>
<polygon fill="#ffffff" stroke="none" points="74.5,-307 74.5,-325 113.5,-325 113.5,-307 74.5,-307"/>
<polygon fill="none" stroke="black" points="74.5,-307 74.5,-325 113.5,-325 113.5,-307 74.5,-307"/>
<text text-anchor="start" x="103.5" y="-313.2" font-family="Helvetica,sans-Serif" font-size="11.00"> &#160;</text>
<polygon fill="#ffffff" stroke="none" points="113.5,-307 113.5,-325 163.5,-325 163.5,-307 113.5,-307"/>
<polygon fill="none" stroke="black" points="113.5,-307 113.5,-325 163.5,-325 163.5,-307 113.5,-307"/>
<text text-anchor="start" x="143.5" y="-313.2" font-family="Helvetica,sans-Serif" font-size="11.00">9 &gt;</text>
</a>
</g>
</g>
<!-- container_builds&#45;&gt;container_projects -->
<g id="edge1" class="edge"><title>container_builds:elipses:w&#45;&gt;container_projects:id:e</title>
<path fill="none" stroke="black" d="M258.047,-775.235C232.815,-772.264 220.408,-760.371 204,-735 163.053,-671.685 239.902,-398 164.5,-398"/>
<polygon fill="black" stroke="black" points="264.511,-775.577 272.31,-779.595 268.506,-775.789 272.5,-776 272.5,-776 272.5,-776 268.506,-775.789 272.69,-772.405 264.511,-775.577 264.511,-775.577"/>
<ellipse fill="none" stroke="black" cx="261.316" cy="-775.408" rx="3.2" ry="3.2"/>
</g>
<!-- container_groups -->
<g id="node3" class="node"><title>container_groups</title>
<g id="a_node3"><a xlink:href="../../tables/container_groups.html" xlink:title="container_groups" target="_top">
<polygon fill="#ffffff" stroke="none" points="546.5,-670 546.5,-728 693.5,-728 693.5,-670 546.5,-670"/>
<polygon fill="#f5f5f5" stroke="none" points="547,-706 547,-728 694,-728 694,-706 547,-706"/>
<polygon fill="none" stroke="black" points="547,-706 547,-728 694,-728 694,-706 547,-706"/>
<text text-anchor="start" x="552" y="-715.2" font-family="Helvetica,sans-Serif" font-weight="bold" font-size="11.00">container_groups</text>
<text text-anchor="start" x="655" y="-714.2" font-family="Helvetica,sans-Serif" font-size="11.00">[table]</text>
<polygon fill="none" stroke="black" points="547,-688 547,-706 694,-706 694,-688 547,-688"/>
<text text-anchor="start" x="550" y="-694.2" font-family="Helvetica,sans-Serif" font-size="11.00">...</text>
<polygon fill="#ffffff" stroke="none" points="547,-670 547,-688 614,-688 614,-670 547,-670"/>
<polygon fill="none" stroke="black" points="547,-670 547,-688 614,-688 614,-670 547,-670"/>
<text text-anchor="start" x="550" y="-676.2" font-family="Helvetica,sans-Serif" font-size="11.00">&lt; 4</text>
<polygon fill="#ffffff" stroke="none" points="614,-670 614,-688 649,-688 649,-670 614,-670"/>
<polygon fill="none" stroke="black" points="614,-670 614,-688 649,-688 649,-670 614,-670"/>
<text text-anchor="start" x="639" y="-676.2" font-family="Helvetica,sans-Serif" font-size="11.00"> &#160;</text>
<polygon fill="#ffffff" stroke="none" points="649,-670 649,-688 694,-688 694,-670 649,-670"/>
<polygon fill="none" stroke="black" points="649,-670 649,-688 694,-688 694,-670 649,-670"/>
<text text-anchor="start" x="674" y="-676.2" font-family="Helvetica,sans-Serif" font-size="11.00">3 &gt;</text>
</a>
</g>
</g>
<!-- container_groups&#45;&gt;container_projects -->
<g id="edge2" class="edge"><title>container_groups:elipses:w&#45;&gt;container_projects:id:e</title>
<path fill="none" stroke="black" d="M531.399,-698.367C515.826,-701.542 508.184,-709.349 487,-712 424.598,-719.808 251.163,-753.602 204,-712 151.259,-665.478 234.828,-398 164.5,-398"/>
<polygon fill="black" stroke="black" points="538.035,-697.746 546.336,-700.584 542.017,-697.373 546,-697 546,-697 546,-697 542.017,-697.373 545.664,-693.416 538.035,-697.746 538.035,-697.746"/>
<ellipse fill="none" stroke="black" cx="534.849" cy="-698.044" rx="3.2" ry="3.2"/>
</g>
<!-- container_replicators -->
<g id="node4" class="node"><title>container_replicators</title>
<g id="a_node4"><a xlink:href="../../tables/container_replicators.html" xlink:title="container_replicators" target="_top">
<polygon fill="#ffffff" stroke="none" points="260,-643 260,-701 431,-701 431,-643 260,-643"/>
<polygon fill="#f5f5f5" stroke="none" points="260.5,-679 260.5,-701 431.5,-701 431.5,-679 260.5,-679"/>
<polygon fill="none" stroke="black" points="260.5,-679 260.5,-701 431.5,-701 431.5,-679 260.5,-679"/>
<text text-anchor="start" x="265.5" y="-688.2" font-family="Helvetica,sans-Serif" font-weight="bold" font-size="11.00">container_replicators</text>
<text text-anchor="start" x="392.5" y="-687.2" font-family="Helvetica,sans-Serif" font-size="11.00">[table]</text>
<polygon fill="none" stroke="black" points="260.5,-661 260.5,-679 431.5,-679 431.5,-661 260.5,-661"/>
<text text-anchor="start" x="263.5" y="-667.2" font-family="Helvetica,sans-Serif" font-size="11.00">...</text>
<polygon fill="#ffffff" stroke="none" points="260.5,-643 260.5,-661 339.5,-661 339.5,-643 260.5,-643"/>
<polygon fill="none" stroke="black" points="260.5,-643 260.5,-661 339.5,-661 339.5,-643 260.5,-643"/>
<text text-anchor="start" x="263.5" y="-649.2" font-family="Helvetica,sans-Serif" font-size="11.00">&lt; 1</text>
<polygon fill="#ffffff" stroke="none" points="339.5,-643 339.5,-661 380.5,-661 380.5,-643 339.5,-643"/>
<polygon fill="none" stroke="black" points="339.5,-643 339.5,-661 380.5,-661 380.5,-643 339.5,-643"/>
<text text-anchor="start" x="370.5" y="-649.2" font-family="Helvetica,sans-Serif" font-size="11.00"> &#160;</text>
<polygon fill="#ffffff" stroke="none" points="380.5,-643 380.5,-661 431.5,-661 431.5,-643 380.5,-643"/>
<polygon fill="none" stroke="black" points="380.5,-643 380.5,-661 431.5,-661 431.5,-643 380.5,-643"/>
<text text-anchor="start" x="411.5" y="-649.2" font-family="Helvetica,sans-Serif" font-size="11.00">2 &gt;</text>
</a>
</g>
</g>
<!-- container_groups&#45;&gt;container_replicators -->
<g id="edge3" class="edge"><title>container_groups:elipses:w&#45;&gt;container_replicators:elipses:e</title>
<path fill="none" stroke="black" d="M531.415,-696.221C491.724,-691.794 479.086,-670 432.5,-670"/>
<polygon fill="black" stroke="black" points="538.011,-696.573 545.808,-700.595 542.006,-696.787 546,-697 546,-697 546,-697 542.006,-696.787 546.192,-693.405 538.011,-696.573 538.011,-696.573"/>
<ellipse fill="none" stroke="black" cx="534.816" cy="-696.403" rx="3.2" ry="3.2"/>
</g>
<!-- container_replicators&#45;&gt;container_projects -->
<g id="edge8" class="edge"><title>container_replicators:elipses:w&#45;&gt;container_projects:id:e</title>
<path fill="none" stroke="black" d="M245.022,-668.771C226.063,-665.121 217.155,-653.315 204,-633 175.216,-588.551 217.455,-398 164.5,-398"/>
<polygon fill="black" stroke="black" points="251.529,-669.323 259.195,-673.587 255.514,-669.662 259.5,-670 259.5,-670 259.5,-670 255.514,-669.662 259.805,-666.413 251.529,-669.323 251.529,-669.323"/>
<ellipse fill="none" stroke="black" cx="248.34" cy="-669.052" rx="3.2" ry="3.2"/>
</g>
<!-- container_limits -->
<g id="node5" class="node"><title>container_limits</title>
<g id="a_node5"><a xlink:href="../../tables/container_limits.html" xlink:title="container_limits" target="_top">
<polygon fill="#ffffff" stroke="none" points="274.5,-564 274.5,-622 416.5,-622 416.5,-564 274.5,-564"/>
<polygon fill="#f5f5f5" stroke="none" points="274.5,-600 274.5,-622 416.5,-622 416.5,-600 274.5,-600"/>
<polygon fill="none" stroke="black" points="274.5,-600 274.5,-622 416.5,-622 416.5,-600 274.5,-600"/>
<text text-anchor="start" x="279.5" y="-609.2" font-family="Helvetica,sans-Serif" font-weight="bold" font-size="11.00">container_limits</text>
<text text-anchor="start" x="377.5" y="-608.2" font-family="Helvetica,sans-Serif" font-size="11.00">[table]</text>
<polygon fill="none" stroke="black" points="274.5,-582 274.5,-600 416.5,-600 416.5,-582 274.5,-582"/>
<text text-anchor="start" x="277.5" y="-588.2" font-family="Helvetica,sans-Serif" font-size="11.00">...</text>
<polygon fill="#ffffff" stroke="none" points="274.5,-564 274.5,-582 338.5,-582 338.5,-564 274.5,-564"/>
<polygon fill="none" stroke="black" points="274.5,-564 274.5,-582 338.5,-582 338.5,-564 274.5,-564"/>
<text text-anchor="start" x="277.5" y="-570.2" font-family="Helvetica,sans-Serif" font-size="11.00">&lt; 1</text>
<polygon fill="#ffffff" stroke="none" points="338.5,-564 338.5,-582 372.5,-582 372.5,-564 338.5,-564"/>
<polygon fill="none" stroke="black" points="338.5,-564 338.5,-582 372.5,-582 372.5,-564 338.5,-564"/>
<text text-anchor="start" x="362.5" y="-570.2" font-family="Helvetica,sans-Serif" font-size="11.00"> &#160;</text>
<polygon fill="#ffffff" stroke="none" points="372.5,-564 372.5,-582 416.5,-582 416.5,-564 372.5,-564"/>
<polygon fill="none" stroke="black" points="372.5,-564 372.5,-582 416.5,-582 416.5,-564 372.5,-564"/>
<text text-anchor="start" x="396.5" y="-570.2" font-family="Helvetica,sans-Serif" font-size="11.00">1 &gt;</text>
</a>
</g>
</g>
<!-- container_limits&#45;&gt;container_projects -->
<g id="edge4" class="edge"><title>container_limits:elipses:w&#45;&gt;container_projects:id:e</title>
<path fill="none" stroke="black" d="M258.935,-590.311C234.369,-587.698 222.299,-577.346 204,-554 159.879,-497.709 236.021,-398 164.5,-398"/>
<polygon fill="black" stroke="black" points="265.509,-590.622 273.33,-594.596 269.504,-590.811 273.5,-591 273.5,-591 273.5,-591 269.504,-590.811 273.67,-587.404 265.509,-590.622 265.509,-590.622"/>
<ellipse fill="none" stroke="black" cx="262.313" cy="-590.471" rx="3.2" ry="3.2"/>
</g>
<!-- container_quota_items -->
<g id="node6" class="node"><title>container_quota_items</title>
<g id="a_node6"><a xlink:href="../../tables/container_quota_items.html" xlink:title="container_quota_items" target="_top">
<polygon fill="#ffffff" stroke="none" points="530.5,-456 530.5,-580 709.5,-580 709.5,-456 530.5,-456"/>
<polygon fill="#f5f5f5" stroke="none" points="531,-558 531,-580 710,-580 710,-558 531,-558"/>
<polygon fill="none" stroke="black" points="531,-558 531,-580 710,-580 710,-558 531,-558"/>
<text text-anchor="start" x="536" y="-567.2" font-family="Helvetica,sans-Serif" font-weight="bold" font-size="11.00">container_quota_items</text>
<text text-anchor="start" x="671" y="-566.2" font-family="Helvetica,sans-Serif" font-size="11.00">[table]</text>
<polygon fill="none" stroke="black" points="531,-536 531,-558 710,-558 710,-536 531,-536"/>
<image xlink:href="../../images/primaryKeys.png" width="11px" height="12px" preserveAspectRatio="xMinYMin meet" x="536" y="-553"/>
<text text-anchor="start" x="562" y="-544.2" font-family="Helvetica,sans-Serif" font-size="11.00">id</text>
<polygon fill="none" stroke="black" points="531,-514 531,-536 710,-536 710,-514 531,-514"/>
<image xlink:href="../../images/foreignKeys.png" width="11px" height="12px" preserveAspectRatio="xMinYMin meet" x="536" y="-531"/>
<text text-anchor="start" x="562" y="-522.2" font-family="Helvetica,sans-Serif" font-size="11.00">container_quota_id</text>
<polygon fill="#ffffff" stroke="none" points="531,-492 531,-514 710,-514 710,-492 531,-492"/>
<polygon fill="none" stroke="black" points="531,-492 531,-514 710,-514 710,-492 531,-492"/>
<text text-anchor="start" x="562" y="-500.2" font-family="Helvetica,sans-Serif" font-size="11.00">deleted_on</text>
<polygon fill="none" stroke="black" points="531,-474 531,-492 710,-492 710,-474 531,-474"/>
<text text-anchor="start" x="534" y="-480.2" font-family="Helvetica,sans-Serif" font-size="11.00">...</text>
<polygon fill="#ffffff" stroke="none" points="531,-456 531,-474 619,-474 619,-456 531,-456"/>
<polygon fill="none" stroke="black" points="531,-456 531,-474 619,-474 619,-456 531,-456"/>
<text text-anchor="start" x="534" y="-462.2" font-family="Helvetica,sans-Serif" font-size="11.00">&lt; 1</text>
<polygon fill="#ffffff" stroke="none" points="619,-456 619,-474 664,-474 664,-456 619,-456"/>
<polygon fill="none" stroke="black" points="619,-456 619,-474 664,-474 664,-456 619,-456"/>
<text text-anchor="start" x="654" y="-462.2" font-family="Helvetica,sans-Serif" font-size="11.00"> &#160;</text>
<polygon fill="#ffffff" stroke="none" points="664,-456 664,-474 710,-474 710,-456 664,-456"/>
<polygon fill="none" stroke="black" points="664,-456 664,-474 710,-474 710,-456 664,-456"/>
<text text-anchor="start" x="700" y="-462.2" font-family="Helvetica,sans-Serif" font-size="11.00"> &#160;</text>
</a>
</g>
</g>
<!-- container_quotas -->
<g id="node7" class="node"><title>container_quotas</title>
<g id="a_node7"><a xlink:href="../../tables/container_quotas.html" xlink:title="container_quotas" target="_top">
<polygon fill="#ffffff" stroke="none" points="212,-301 212,-543 479,-543 479,-301 212,-301"/>
<polygon fill="#f5f5f5" stroke="none" points="214.5,-519 214.5,-541 477.5,-541 477.5,-519 214.5,-519"/>
<polygon fill="none" stroke="black" points="214.5,-519 214.5,-541 477.5,-541 477.5,-519 214.5,-519"/>
<text text-anchor="start" x="219.5" y="-528.2" font-family="Helvetica,sans-Serif" font-weight="bold" font-size="11.00">container_quotas</text>
<text text-anchor="start" x="438.5" y="-527.2" font-family="Helvetica,sans-Serif" font-size="11.00">[table]</text>
<polygon fill="none" stroke="black" points="214.5,-497 214.5,-519 356.5,-519 356.5,-497 214.5,-497"/>
<image xlink:href="../../images/primaryKeys.png" width="11px" height="12px" preserveAspectRatio="xMinYMin meet" x="219.5" y="-514"/>
<text text-anchor="start" x="234.5" y="-505.2" font-family="Helvetica,sans-Serif" font-size="11.00">id</text>
<polygon fill="none" stroke="black" points="356.5,-497 356.5,-519 477.5,-519 477.5,-497 356.5,-497"/>
<text text-anchor="start" x="359.5" y="-505.2" font-family="Helvetica,sans-Serif" font-size="11.00">bigserial[19]</text>
<polygon fill="none" stroke="black" points="214.5,-475 214.5,-497 356.5,-497 356.5,-475 214.5,-475"/>
<text text-anchor="start" x="234.5" y="-483.2" font-family="Helvetica,sans-Serif" font-size="11.00">name</text>
<polygon fill="none" stroke="black" points="356.5,-475 356.5,-497 477.5,-497 477.5,-475 356.5,-475"/>
<text text-anchor="start" x="359.5" y="-483.2" font-family="Helvetica,sans-Serif" font-size="11.00">varchar[2147483647]</text>
<polygon fill="none" stroke="black" points="214.5,-453 214.5,-475 356.5,-475 356.5,-453 214.5,-453"/>
<text text-anchor="start" x="234.5" y="-461.2" font-family="Helvetica,sans-Serif" font-size="11.00">ems_created_on</text>
<polygon fill="none" stroke="black" points="356.5,-453 356.5,-475 477.5,-475 477.5,-453 356.5,-453"/>
<text text-anchor="start" x="359.5" y="-461.2" font-family="Helvetica,sans-Serif" font-size="11.00">timestamp[29,6]</text>
<polygon fill="none" stroke="black" points="214.5,-431 214.5,-453 356.5,-453 356.5,-431 214.5,-431"/>
<text text-anchor="start" x="234.5" y="-439.2" font-family="Helvetica,sans-Serif" font-size="11.00">resource_version</text>
<polygon fill="none" stroke="black" points="356.5,-431 356.5,-453 477.5,-453 477.5,-431 356.5,-431"/>
<text text-anchor="start" x="359.5" y="-439.2" font-family="Helvetica,sans-Serif" font-size="11.00">varchar[2147483647]</text>
<polygon fill="none" stroke="black" points="214.5,-409 214.5,-431 356.5,-431 356.5,-409 214.5,-409"/>
<text text-anchor="start" x="234.5" y="-417.2" font-family="Helvetica,sans-Serif" font-size="11.00">ems_ref</text>
<polygon fill="none" stroke="black" points="356.5,-409 356.5,-431 477.5,-431 477.5,-409 356.5,-409"/>
<text text-anchor="start" x="359.5" y="-417.2" font-family="Helvetica,sans-Serif" font-size="11.00">varchar[2147483647]</text>
<polygon fill="none" stroke="black" points="214.5,-387 214.5,-409 356.5,-409 356.5,-387 214.5,-387"/>
<image xlink:href="../../images/foreignKeys.png" width="11px" height="12px" preserveAspectRatio="xMinYMin meet" x="219.5" y="-404"/>
<text text-anchor="start" x="234.5" y="-395.2" font-family="Helvetica,sans-Serif" font-size="11.00">container_project_id</text>
<polygon fill="none" stroke="black" points="356.5,-387 356.5,-409 477.5,-409 477.5,-387 356.5,-387"/>
<text text-anchor="start" x="359.5" y="-395.2" font-family="Helvetica,sans-Serif" font-size="11.00">int8[19]</text>
<polygon fill="none" stroke="black" points="214.5,-365 214.5,-387 356.5,-387 356.5,-365 214.5,-365"/>
<text text-anchor="start" x="234.5" y="-373.2" font-family="Helvetica,sans-Serif" font-size="11.00">ems_id</text>
<polygon fill="none" stroke="black" points="356.5,-365 356.5,-387 477.5,-387 477.5,-365 356.5,-365"/>
<text text-anchor="start" x="359.5" y="-373.2" font-family="Helvetica,sans-Serif" font-size="11.00">int8[19]</text>
<polygon fill="none" stroke="black" points="214.5,-343 214.5,-365 356.5,-365 356.5,-343 214.5,-343"/>
<text text-anchor="start" x="234.5" y="-351.2" font-family="Helvetica,sans-Serif" font-size="11.00">created_on</text>
<polygon fill="none" stroke="black" points="356.5,-343 356.5,-365 477.5,-365 477.5,-343 356.5,-343"/>
<text text-anchor="start" x="359.5" y="-351.2" font-family="Helvetica,sans-Serif" font-size="11.00">timestamp[29,6]</text>
<polygon fill="#ffffff" stroke="none" points="214.5,-321 214.5,-343 356.5,-343 356.5,-321 214.5,-321"/>
<polygon fill="none" stroke="black" points="214.5,-321 214.5,-343 356.5,-343 356.5,-321 214.5,-321"/>
<text text-anchor="start" x="234.5" y="-329.2" font-family="Helvetica,sans-Serif" font-size="11.00">deleted_on</text>
<polygon fill="none" stroke="black" points="356.5,-321 356.5,-343 477.5,-343 477.5,-321 356.5,-321"/>
<text text-anchor="start" x="359.5" y="-329.2" font-family="Helvetica,sans-Serif" font-size="11.00">timestamp[29,6]</text>
<polygon fill="#ffffff" stroke="none" points="214.5,-303 214.5,-321 290.5,-321 290.5,-303 214.5,-303"/>
<polygon fill="none" stroke="black" points="214.5,-303 214.5,-321 290.5,-321 290.5,-303 214.5,-303"/>
<text text-anchor="start" x="217.5" y="-309.2" font-family="Helvetica,sans-Serif" font-size="11.00">&lt; 1</text>
<polygon fill="#ffffff" stroke="none" points="290.5,-303 290.5,-321 356.5,-321 356.5,-303 290.5,-303"/>
<polygon fill="none" stroke="black" points="290.5,-303 290.5,-321 356.5,-321 356.5,-303 290.5,-303"/>
<text text-anchor="start" x="346.5" y="-309.2" font-family="Helvetica,sans-Serif" font-size="11.00"> &#160;</text>
<polygon fill="#ffffff" stroke="none" points="356.5,-303 356.5,-321 477.5,-321 477.5,-303 356.5,-303"/>
<polygon fill="none" stroke="black" points="356.5,-303 356.5,-321 477.5,-321 477.5,-303 356.5,-303"/>
<text text-anchor="start" x="457.5" y="-309.2" font-family="Helvetica,sans-Serif" font-size="11.00">2 &gt;</text>
<polygon fill="none" stroke="black" stroke-width="2" points="213,-302 213,-542 478,-542 478,-302 213,-302"/>
</a>
</g>
</g>
<!-- container_quota_items&#45;&gt;container_quotas -->
<g id="edge5" class="edge"><title>container_quota_items:container_quota_id:w&#45;&gt;container_quotas:id.type:e</title>
<path fill="none" stroke="black" d="M515.558,-522.492C503.081,-517.763 496.766,-508 478.5,-508"/>
<polygon fill="black" stroke="black" points="522.118,-523.631 529.384,-528.547 526.059,-524.315 530,-525 530,-525 530,-525 526.059,-524.315 530.616,-521.453 522.118,-523.631 522.118,-523.631"/>
<ellipse fill="none" stroke="black" cx="518.965" cy="-523.083" rx="3.2" ry="3.2"/>
</g>
<!-- container_quotas&#45;&gt;container_projects -->
<g id="edge7" class="edge"><title>container_quotas:container_project_id:w&#45;&gt;container_projects:id:e</title>
<path fill="none" stroke="black" d="M198.991,-398C187.677,-398 180.493,-398 164.5,-398"/>
<polygon fill="black" stroke="black" points="205.5,-398 213.5,-401.6 209.5,-398 213.5,-398 213.5,-398 213.5,-398 209.5,-398 213.5,-394.4 205.5,-398 205.5,-398"/>
<ellipse fill="none" stroke="black" cx="202.3" cy="-398" rx="3.2" ry="3.2"/>
</g>
<!-- container_quota_scopes -->
<g id="node8" class="node"><title>container_quota_scopes</title>
<g id="a_node8"><a xlink:href="../../tables/container_quota_scopes.html" xlink:title="container_quota_scopes" target="_top">
<polygon fill="#ffffff" stroke="none" points="528,-333 528,-435 712,-435 712,-333 528,-333"/>
<polygon fill="#f5f5f5" stroke="none" points="528,-413 528,-435 712,-435 712,-413 528,-413"/>
<polygon fill="none" stroke="black" points="528,-413 528,-435 712,-435 712,-413 528,-413"/>
<text text-anchor="start" x="533" y="-422.2" font-family="Helvetica,sans-Serif" font-weight="bold" font-size="11.00">container_quota_scopes</text>
<text text-anchor="start" x="673" y="-421.2" font-family="Helvetica,sans-Serif" font-size="11.00">[table]</text>
<polygon fill="none" stroke="black" points="528,-391 528,-413 712,-413 712,-391 528,-391"/>
<image xlink:href="../../images/primaryKeys.png" width="11px" height="12px" preserveAspectRatio="xMinYMin meet" x="533" y="-408"/>
<text text-anchor="start" x="558" y="-399.2" font-family="Helvetica,sans-Serif" font-size="11.00">id</text>
<polygon fill="none" stroke="black" points="528,-369 528,-391 712,-391 712,-369 528,-369"/>
<image xlink:href="../../images/foreignKeys.png" width="11px" height="12px" preserveAspectRatio="xMinYMin meet" x="533" y="-386"/>
<text text-anchor="start" x="558" y="-377.2" font-family="Helvetica,sans-Serif" font-size="11.00">container_quota_id</text>
<polygon fill="none" stroke="black" points="528,-351 528,-369 712,-369 712,-351 528,-351"/>
<text text-anchor="start" x="531" y="-357.2" font-family="Helvetica,sans-Serif" font-size="11.00">...</text>
<polygon fill="#ffffff" stroke="none" points="528,-333 528,-351 618,-351 618,-333 528,-333"/>
<polygon fill="none" stroke="black" points="528,-333 528,-351 618,-351 618,-333 528,-333"/>
<text text-anchor="start" x="531" y="-339.2" font-family="Helvetica,sans-Serif" font-size="11.00">&lt; 1</text>
<polygon fill="#ffffff" stroke="none" points="618,-333 618,-351 665,-351 665,-333 618,-333"/>
<polygon fill="none" stroke="black" points="618,-333 618,-351 665,-351 665,-333 618,-333"/>
<text text-anchor="start" x="655" y="-339.2" font-family="Helvetica,sans-Serif" font-size="11.00"> &#160;</text>
<polygon fill="#ffffff" stroke="none" points="665,-333 665,-351 712,-351 712,-333 665,-333"/>
<polygon fill="none" stroke="black" points="665,-333 665,-351 712,-351 712,-333 665,-333"/>
<text text-anchor="start" x="702" y="-339.2" font-family="Helvetica,sans-Serif" font-size="11.00"> &#160;</text>
</a>
</g>
</g>
<!-- container_quota_scopes&#45;&gt;container_quotas -->
<g id="edge6" class="edge"><title>container_quota_scopes:container_quota_id:w&#45;&gt;container_quotas:id.type:e</title>
<path fill="none" stroke="black" d="M512.761,-383.424C479.178,-403.779 533.395,-508 478.5,-508"/>
<polygon fill="black" stroke="black" points="519.222,-381.87 527.842,-383.5 523.111,-380.935 527,-380 527,-380 527,-380 523.111,-380.935 526.158,-376.5 519.222,-381.87 519.222,-381.87"/>
<ellipse fill="none" stroke="black" cx="516.11" cy="-382.618" rx="3.2" ry="3.2"/>
</g>
<!-- container_routes -->
<g id="node9" class="node"><title>container_routes</title>
<g id="a_node9"><a xlink:href="../../tables/container_routes.html" xlink:title="container_routes" target="_top">
<polygon fill="#ffffff" stroke="none" points="547.5,-233 547.5,-291 692.5,-291 692.5,-233 547.5,-233"/>
<polygon fill="#f5f5f5" stroke="none" points="548,-269 548,-291 693,-291 693,-269 548,-269"/>
<polygon fill="none" stroke="black" points="548,-269 548,-291 693,-291 693,-269 548,-269"/>
<text text-anchor="start" x="553" y="-278.2" font-family="Helvetica,sans-Serif" font-weight="bold" font-size="11.00">container_routes</text>
<text text-anchor="start" x="654" y="-277.2" font-family="Helvetica,sans-Serif" font-size="11.00">[table]</text>
<polygon fill="none" stroke="black" points="548,-251 548,-269 693,-269 693,-251 548,-251"/>
<text text-anchor="start" x="551" y="-257.2" font-family="Helvetica,sans-Serif" font-size="11.00">...</text>
<polygon fill="#ffffff" stroke="none" points="548,-233 548,-251 619,-251 619,-233 548,-233"/>
<polygon fill="none" stroke="black" points="548,-233 548,-251 619,-251 619,-233 548,-233"/>
<text text-anchor="start" x="551" y="-239.2" font-family="Helvetica,sans-Serif" font-size="11.00">&lt; 2</text>
<polygon fill="#ffffff" stroke="none" points="619,-233 619,-251 656,-251 656,-233 619,-233"/>
<polygon fill="none" stroke="black" points="619,-233 619,-251 656,-251 656,-233 619,-233"/>
<text text-anchor="start" x="646" y="-239.2" font-family="Helvetica,sans-Serif" font-size="11.00"> &#160;</text>
<polygon fill="#ffffff" stroke="none" points="656,-233 656,-251 693,-251 693,-233 656,-233"/>
<polygon fill="none" stroke="black" points="656,-233 656,-251 693,-251 693,-233 656,-233"/>
<text text-anchor="start" x="683" y="-239.2" font-family="Helvetica,sans-Serif" font-size="11.00"> &#160;</text>
</a>
</g>
</g>
<!-- container_routes&#45;&gt;container_projects -->
<g id="edge9" class="edge"><title>container_routes:elipses:w&#45;&gt;container_projects:id:e</title>
<path fill="none" stroke="black" d="M532.495,-260.905C467.694,-265.457 210.734,-285.842 204,-291 163.757,-321.825 215.192,-398 164.5,-398"/>
<polygon fill="black" stroke="black" points="539.016,-260.498 547.224,-263.593 543.008,-260.249 547,-260 547,-260 547,-260 543.008,-260.249 546.776,-256.407 539.016,-260.498 539.016,-260.498"/>
<ellipse fill="none" stroke="black" cx="535.822" cy="-260.697" rx="3.2" ry="3.2"/>
</g>
<!-- container_services -->
<g id="node10" class="node"><title>container_services</title>
<g id="a_node10"><a xlink:href="../../tables/container_services.html" xlink:title="container_services" target="_top">
<polygon fill="#ffffff" stroke="none" points="268.5,-195 268.5,-253 422.5,-253 422.5,-195 268.5,-195"/>
<polygon fill="#f5f5f5" stroke="none" points="268.5,-231 268.5,-253 422.5,-253 422.5,-231 268.5,-231"/>
<polygon fill="none" stroke="black" points="268.5,-231 268.5,-253 422.5,-253 422.5,-231 268.5,-231"/>
<text text-anchor="start" x="273.5" y="-240.2" font-family="Helvetica,sans-Serif" font-weight="bold" font-size="11.00">container_services</text>
<text text-anchor="start" x="383.5" y="-239.2" font-family="Helvetica,sans-Serif" font-size="11.00">[table]</text>
<polygon fill="none" stroke="black" points="268.5,-213 268.5,-231 422.5,-231 422.5,-213 268.5,-213"/>
<text text-anchor="start" x="271.5" y="-219.2" font-family="Helvetica,sans-Serif" font-size="11.00">...</text>
<polygon fill="#ffffff" stroke="none" points="268.5,-195 268.5,-213 338.5,-213 338.5,-195 268.5,-195"/>
<polygon fill="none" stroke="black" points="268.5,-195 268.5,-213 338.5,-213 338.5,-195 268.5,-195"/>
<text text-anchor="start" x="271.5" y="-201.2" font-family="Helvetica,sans-Serif" font-size="11.00">&lt; 2</text>
<polygon fill="#ffffff" stroke="none" points="338.5,-195 338.5,-213 375.5,-213 375.5,-195 338.5,-195"/>
<polygon fill="none" stroke="black" points="338.5,-195 338.5,-213 375.5,-213 375.5,-195 338.5,-195"/>
<text text-anchor="start" x="365.5" y="-201.2" font-family="Helvetica,sans-Serif" font-size="11.00"> &#160;</text>
<polygon fill="#ffffff" stroke="none" points="375.5,-195 375.5,-213 422.5,-213 422.5,-195 375.5,-195"/>
<polygon fill="none" stroke="black" points="375.5,-195 375.5,-213 422.5,-213 422.5,-195 375.5,-195"/>
<text text-anchor="start" x="402.5" y="-201.2" font-family="Helvetica,sans-Serif" font-size="11.00">3 &gt;</text>
</a>
</g>
</g>
<!-- container_routes&#45;&gt;container_services -->
<g id="edge10" class="edge"><title>container_routes:elipses:w&#45;&gt;container_services:elipses:e</title>
<path fill="none" stroke="black" d="M532.343,-259.098C487.574,-253.344 475.657,-222 423.5,-222"/>
<polygon fill="black" stroke="black" points="539.015,-259.509 546.779,-263.593 543.008,-259.754 547,-260 547,-260 547,-260 543.008,-259.754 547.221,-256.407 539.015,-259.509 539.015,-259.509"/>
<ellipse fill="none" stroke="black" cx="535.821" cy="-259.312" rx="3.2" ry="3.2"/>
</g>
<!-- container_services&#45;&gt;container_projects -->
<g id="edge11" class="edge"><title>container_services:elipses:w&#45;&gt;container_projects:id:e</title>
<path fill="none" stroke="black" d="M253.039,-223.217C229.907,-227.56 221.043,-243.307 204,-267 168.49,-316.367 225.311,-398 164.5,-398"/>
<polygon fill="black" stroke="black" points="259.528,-222.671 267.802,-225.587 263.514,-222.336 267.5,-222 267.5,-222 267.5,-222 263.514,-222.336 267.198,-218.413 259.528,-222.671 259.528,-222.671"/>
<ellipse fill="none" stroke="black" cx="256.339" cy="-222.939" rx="3.2" ry="3.2"/>
</g>
<!-- container_templates -->
<g id="node11" class="node"><title>container_templates</title>
<g id="a_node11"><a xlink:href="../../tables/container_templates.html" xlink:title="container_templates" target="_top">
<polygon fill="#ffffff" stroke="none" points="262,-116 262,-174 429,-174 429,-116 262,-116"/>
<polygon fill="#f5f5f5" stroke="none" points="262.5,-152 262.5,-174 429.5,-174 429.5,-152 262.5,-152"/>
<polygon fill="none" stroke="black" points="262.5,-152 262.5,-174 429.5,-174 429.5,-152 262.5,-152"/>
<text text-anchor="start" x="267.5" y="-161.2" font-family="Helvetica,sans-Serif" font-weight="bold" font-size="11.00">container_templates</text>
<text text-anchor="start" x="390.5" y="-160.2" font-family="Helvetica,sans-Serif" font-size="11.00">[table]</text>
<polygon fill="none" stroke="black" points="262.5,-134 262.5,-152 429.5,-152 429.5,-134 262.5,-134"/>
<text text-anchor="start" x="265.5" y="-140.2" font-family="Helvetica,sans-Serif" font-size="11.00">...</text>
<polygon fill="#ffffff" stroke="none" points="262.5,-116 262.5,-134 339.5,-134 339.5,-116 262.5,-116"/>
<polygon fill="none" stroke="black" points="262.5,-116 262.5,-134 339.5,-134 339.5,-116 262.5,-116"/>
<text text-anchor="start" x="265.5" y="-122.2" font-family="Helvetica,sans-Serif" font-size="11.00">&lt; 1</text>
<polygon fill="#ffffff" stroke="none" points="339.5,-116 339.5,-134 379.5,-134 379.5,-116 339.5,-116"/>
<polygon fill="none" stroke="black" points="339.5,-116 339.5,-134 379.5,-134 379.5,-116 339.5,-116"/>
<text text-anchor="start" x="369.5" y="-122.2" font-family="Helvetica,sans-Serif" font-size="11.00"> &#160;</text>
<polygon fill="#ffffff" stroke="none" points="379.5,-116 379.5,-134 429.5,-134 429.5,-116 379.5,-116"/>
<polygon fill="none" stroke="black" points="379.5,-116 379.5,-134 429.5,-134 429.5,-116 379.5,-116"/>
<text text-anchor="start" x="409.5" y="-122.2" font-family="Helvetica,sans-Serif" font-size="11.00">1 &gt;</text>
</a>
</g>
</g>
<!-- container_templates&#45;&gt;container_projects -->
<g id="edge12" class="edge"><title>container_templates:elipses:w&#45;&gt;container_projects:id:e</title>
<path fill="none" stroke="black" d="M247.126,-144.274C226.707,-148.346 217.959,-162.074 204,-184 178.028,-224.793 212.859,-398 164.5,-398"/>
<polygon fill="black" stroke="black" points="253.531,-143.706 261.818,-146.586 257.516,-143.353 261.5,-143 261.5,-143 261.5,-143 257.516,-143.353 261.182,-139.414 253.531,-143.706 253.531,-143.706"/>
<ellipse fill="none" stroke="black" cx="250.344" cy="-143.989" rx="3.2" ry="3.2"/>
</g>
<!-- persistent_volume_claims -->
<g id="node12" class="node"><title>persistent_volume_claims</title>
<g id="a_node12"><a xlink:href="../../tables/persistent_volume_claims.html" xlink:title="persistent_volume_claims" target="_top">
<polygon fill="#ffffff" stroke="none" points="247.5,-37 247.5,-95 443.5,-95 443.5,-37 247.5,-37"/>
<polygon fill="#f5f5f5" stroke="none" points="247.5,-73 247.5,-95 443.5,-95 443.5,-73 247.5,-73"/>
<polygon fill="none" stroke="black" points="247.5,-73 247.5,-95 443.5,-95 443.5,-73 247.5,-73"/>
<text text-anchor="start" x="252.5" y="-82.2" font-family="Helvetica,sans-Serif" font-weight="bold" font-size="11.00">persistent_volume_claims</text>
<text text-anchor="start" x="404.5" y="-81.2" font-family="Helvetica,sans-Serif" font-size="11.00">[table]</text>
<polygon fill="none" stroke="black" points="247.5,-55 247.5,-73 443.5,-73 443.5,-55 247.5,-55"/>
<text text-anchor="start" x="250.5" y="-61.2" font-family="Helvetica,sans-Serif" font-size="11.00">...</text>
<polygon fill="#ffffff" stroke="none" points="247.5,-37 247.5,-55 338.5,-55 338.5,-37 247.5,-37"/>
<polygon fill="none" stroke="black" points="247.5,-37 247.5,-55 338.5,-55 338.5,-37 247.5,-37"/>
<text text-anchor="start" x="250.5" y="-43.2" font-family="Helvetica,sans-Serif" font-size="11.00">&lt; 1</text>
<polygon fill="#ffffff" stroke="none" points="338.5,-37 338.5,-55 385.5,-55 385.5,-37 338.5,-37"/>
<polygon fill="none" stroke="black" points="338.5,-37 338.5,-55 385.5,-55 385.5,-37 338.5,-37"/>
<text text-anchor="start" x="375.5" y="-43.2" font-family="Helvetica,sans-Serif" font-size="11.00"> &#160;</text>
<polygon fill="#ffffff" stroke="none" points="385.5,-37 385.5,-55 443.5,-55 443.5,-37 385.5,-37"/>
<polygon fill="none" stroke="black" points="385.5,-37 385.5,-55 443.5,-55 443.5,-37 385.5,-37"/>
<text text-anchor="start" x="423.5" y="-43.2" font-family="Helvetica,sans-Serif" font-size="11.00">1 &gt;</text>
</a>
</g>
</g>
<!-- persistent_volume_claims&#45;&gt;container_projects -->
<g id="edge13" class="edge"><title>persistent_volume_claims:elipses:w&#45;&gt;container_projects:id:e</title>
<path fill="none" stroke="black" d="M232.106,-66.4013C217.973,-71.9722 213.262,-86.7066 204,-105 174.323,-163.615 230.2,-398 164.5,-398"/>
<polygon fill="black" stroke="black" points="238.609,-65.3164 247.092,-67.5509 242.555,-64.6582 246.5,-64 246.5,-64 246.5,-64 242.555,-64.6582 245.908,-60.4491 238.609,-65.3164 238.609,-65.3164"/>
<ellipse fill="none" stroke="black" cx="235.453" cy="-65.843" rx="3.2" ry="3.2"/>
</g>
</g>
</svg>
