<?xml version="1.0" encoding="UTF-8" standalone="no"?>
<!DOCTYPE svg PUBLIC "-//W3C//DTD SVG 1.1//EN"
 "http://www.w3.org/Graphics/SVG/1.1/DTD/svg11.dtd">
<!-- Generated by graphviz version 2.38.0 (20140413.2041)
 -->
<!-- Title: oneDegreeRelationshipsDiagram Pages: 1 -->
<svg width="946pt" height="664pt"
 viewBox="0.00 0.00 946.00 664.00" xmlns="http://www.w3.org/2000/svg" xmlns:xlink="http://www.w3.org/1999/xlink">
<g id="graph0" class="graph" transform="scale(1 1) rotate(0) translate(4 660)">
<title>oneDegreeRelationshipsDiagram</title>
<polygon fill="#ffffff" stroke="none" points="-4,4 -4,-660 942,-660 942,4 -4,4"/>
<text text-anchor="middle" x="74.5" y="-7.2" font-family="Helvetica,sans-Serif" font-size="11.00">Generated by SchemaSpy</text>
<!-- container_groups -->
<g id="node1" class="node"><title>container_groups</title>
<g id="a_node1"><a xlink:href="../../tables/container_groups.html" xlink:title="container_groups" target="_top">
<polygon fill="#ffffff" stroke="none" points="534,-234 534,-468 700,-468 700,-234 534,-234"/>
<polygon fill="#f5f5f5" stroke="none" points="534,-446 534,-468 700,-468 700,-446 534,-446"/>
<polygon fill="none" stroke="black" points="534,-446 534,-468 700,-468 700,-446 534,-446"/>
<text text-anchor="start" x="539" y="-455.2" font-family="Helvetica,sans-Serif" font-weight="bold" font-size="11.00">container_groups</text>
<text text-anchor="start" x="661" y="-454.2" font-family="Helvetica,sans-Serif" font-size="11.00">[table]</text>
<polygon fill="none" stroke="black" points="534,-424 534,-446 700,-446 700,-424 534,-424"/>
<image xlink:href="../../images/primaryKeys.png" width="11px" height="12px" preserveAspectRatio="xMinYMin meet" x="539" y="-441"/>
<text text-anchor="start" x="554" y="-432.2" font-family="Helvetica,sans-Serif" font-size="11.00">id</text>
<polygon fill="#ffffff" stroke="none" points="534,-402 534,-424 700,-424 700,-402 534,-402"/>
<polygon fill="none" stroke="black" points="534,-402 534,-424 700,-424 700,-402 534,-402"/>
<text text-anchor="start" x="554" y="-410.2" font-family="Helvetica,sans-Serif" font-size="11.00">ems_id</text>
<polygon fill="none" stroke="black" points="534,-380 534,-402 700,-402 700,-380 534,-380"/>
<image xlink:href="../../images/foreignKeys.png" width="11px" height="12px" preserveAspectRatio="xMinYMin meet" x="539" y="-397"/>
<text text-anchor="start" x="554" y="-388.2" font-family="Helvetica,sans-Serif" font-size="11.00">container_node_id</text>
<polygon fill="none" stroke="black" points="534,-358 534,-380 700,-380 700,-358 534,-358"/>
<image xlink:href="../../images/foreignKeys.png" width="11px" height="12px" preserveAspectRatio="xMinYMin meet" x="539" y="-375"/>
<text text-anchor="start" x="554" y="-366.2" font-family="Helvetica,sans-Serif" font-size="11.00">container_replicator_id</text>
<polygon fill="#ffffff" stroke="none" points="534,-336 534,-358 700,-358 700,-336 534,-336"/>
<polygon fill="none" stroke="black" points="534,-336 534,-358 700,-358 700,-336 534,-336"/>
<text text-anchor="start" x="554" y="-344.2" font-family="Helvetica,sans-Serif" font-size="11.00">type</text>
<polygon fill="none" stroke="black" points="534,-314 534,-336 700,-336 700,-314 534,-314"/>
<image xlink:href="../../images/foreignKeys.png" width="11px" height="12px" preserveAspectRatio="xMinYMin meet" x="539" y="-331"/>
<text text-anchor="start" x="554" y="-322.2" font-family="Helvetica,sans-Serif" font-size="11.00">container_project_id</text>
<polygon fill="none" stroke="black" points="534,-292 534,-314 700,-314 700,-292 534,-292"/>
<image xlink:href="../../images/foreignKeys.png" width="11px" height="12px" preserveAspectRatio="xMinYMin meet" x="539" y="-309"/>
<text text-anchor="start" x="554" y="-300.2" font-family="Helvetica,sans-Serif" font-size="11.00">container_build_pod_id</text>
<polygon fill="#ffffff" stroke="none" points="534,-270 534,-292 700,-292 700,-270 534,-270"/>
<polygon fill="none" stroke="black" points="534,-270 534,-292 700,-292 700,-270 534,-270"/>
<text text-anchor="start" x="554" y="-278.2" font-family="Helvetica,sans-Serif" font-size="11.00">deleted_on</text>
<polygon fill="none" stroke="black" points="534,-252 534,-270 700,-270 700,-252 534,-252"/>
<text text-anchor="start" x="537" y="-258.2" font-family="Helvetica,sans-Serif" font-size="11.00">...</text>
<polygon fill="#ffffff" stroke="none" points="534,-234 534,-252 610,-252 610,-234 534,-234"/>
<polygon fill="none" stroke="black" points="534,-234 534,-252 610,-252 610,-234 534,-234"/>
<text text-anchor="start" x="537" y="-240.2" font-family="Helvetica,sans-Serif" font-size="11.00">&lt; 4</text>
<polygon fill="#ffffff" stroke="none" points="610,-234 610,-252 650,-252 650,-234 610,-234"/>
<polygon fill="none" stroke="black" points="610,-234 610,-252 650,-252 650,-234 610,-234"/>
<text text-anchor="start" x="640" y="-240.2" font-family="Helvetica,sans-Serif" font-size="11.00"> &#160;</text>
<polygon fill="#ffffff" stroke="none" points="650,-234 650,-252 700,-252 700,-234 650,-234"/>
<polygon fill="none" stroke="black" points="650,-234 650,-252 700,-252 700,-234 650,-234"/>
<text text-anchor="start" x="680" y="-240.2" font-family="Helvetica,sans-Serif" font-size="11.00">3 &gt;</text>
</a>
</g>
</g>
<!-- container_projects -->
<g id="node2" class="node"><title>container_projects</title>
<g id="a_node2"><a xlink:href="../../tables/container_projects.html" xlink:title="container_projects" target="_top">
<polygon fill="#ffffff" stroke="none" points="8,-116 8,-240 163,-240 163,-116 8,-116"/>
<polygon fill="#f5f5f5" stroke="none" points="8.5,-218 8.5,-240 163.5,-240 163.5,-218 8.5,-218"/>
<polygon fill="none" stroke="black" points="8.5,-218 8.5,-240 163.5,-240 163.5,-218 8.5,-218"/>
<text text-anchor="start" x="13.5" y="-227.2" font-family="Helvetica,sans-Serif" font-weight="bold" font-size="11.00">container_projects</text>
<text text-anchor="start" x="124.5" y="-226.2" font-family="Helvetica,sans-Serif" font-size="11.00">[table]</text>
<polygon fill="none" stroke="black" points="8.5,-196 8.5,-218 163.5,-218 163.5,-196 8.5,-196"/>
<image xlink:href="../../images/primaryKeys.png" width="11px" height="12px" preserveAspectRatio="xMinYMin meet" x="13.5" y="-213"/>
<text text-anchor="start" x="40.5" y="-204.2" font-family="Helvetica,sans-Serif" font-size="11.00">id</text>
<polygon fill="#ffffff" stroke="none" points="8.5,-174 8.5,-196 163.5,-196 163.5,-174 8.5,-174"/>
<polygon fill="none" stroke="black" points="8.5,-174 8.5,-196 163.5,-196 163.5,-174 8.5,-174"/>
<text text-anchor="start" x="40.5" y="-182.2" font-family="Helvetica,sans-Serif" font-size="11.00">ems_id</text>
<polygon fill="#ffffff" stroke="none" points="8.5,-152 8.5,-174 163.5,-174 163.5,-152 8.5,-152"/>
<polygon fill="none" stroke="black" points="8.5,-152 8.5,-174 163.5,-174 163.5,-152 8.5,-152"/>
<text text-anchor="start" x="40.5" y="-160.2" font-family="Helvetica,sans-Serif" font-size="11.00">deleted_on</text>
<polygon fill="none" stroke="black" points="8.5,-134 8.5,-152 163.5,-152 163.5,-134 8.5,-134"/>
<text text-anchor="start" x="11.5" y="-140.2" font-family="Helvetica,sans-Serif" font-size="11.00">...</text>
<polygon fill="#ffffff" stroke="none" points="8.5,-116 8.5,-134 74.5,-134 74.5,-116 8.5,-116"/>
<polygon fill="none" stroke="black" points="8.5,-116 8.5,-134 74.5,-134 74.5,-116 8.5,-116"/>
<text text-anchor="start" x="11.5" y="-122.2" font-family="Helvetica,sans-Serif" font-size="11.00"> &#160;</text>
<polygon fill="#ffffff" stroke="none" points="74.5,-116 74.5,-134 113.5,-134 113.5,-116 74.5,-116"/>
<polygon fill="none" stroke="black" points="74.5,-116 74.5,-134 113.5,-134 113.5,-116 74.5,-116"/>
<text text-anchor="start" x="103.5" y="-122.2" font-family="Helvetica,sans-Serif" font-size="11.00"> &#160;</text>
<polygon fill="#ffffff" stroke="none" points="113.5,-116 113.5,-134 163.5,-134 163.5,-116 113.5,-116"/>
<polygon fill="none" stroke="black" points="113.5,-116 113.5,-134 163.5,-134 163.5,-116 113.5,-116"/>
<text text-anchor="start" x="143.5" y="-122.2" font-family="Helvetica,sans-Serif" font-size="11.00">9 &gt;</text>
</a>
</g>
</g>
<!-- container_groups&#45;&gt;container_projects -->
<g id="edge1" class="edge"><title>container_groups:container_project_id:w&#45;&gt;container_projects:id:e</title>
<path fill="none" stroke="black" d="M518.278,-325.245C382.224,-329.781 318.597,-394.722 204,-312 163.573,-282.818 214.36,-207 164.5,-207"/>
<polygon fill="black" stroke="black" points="525.001,-325.133 533.06,-328.599 529.001,-325.067 533,-325 533,-325 533,-325 529.001,-325.067 532.94,-321.401 525.001,-325.133 525.001,-325.133"/>
<ellipse fill="none" stroke="black" cx="521.802" cy="-325.187" rx="3.2" ry="3.2"/>
</g>
<!-- container_replicators -->
<g id="node3" class="node"><title>container_replicators</title>
<g id="a_node3"><a xlink:href="../../tables/container_replicators.html" xlink:title="container_replicators" target="_top">
<polygon fill="#ffffff" stroke="none" points="212,-37 212,-301 485,-301 485,-37 212,-37"/>
<polygon fill="#f5f5f5" stroke="none" points="214.5,-277 214.5,-299 483.5,-299 483.5,-277 214.5,-277"/>
<polygon fill="none" stroke="black" points="214.5,-277 214.5,-299 483.5,-299 483.5,-277 214.5,-277"/>
<text text-anchor="start" x="219.5" y="-286.2" font-family="Helvetica,sans-Serif" font-weight="bold" font-size="11.00">container_replicators</text>
<text text-anchor="start" x="444.5" y="-285.2" font-family="Helvetica,sans-Serif" font-size="11.00">[table]</text>
<polygon fill="none" stroke="black" points="214.5,-255 214.5,-277 362.5,-277 362.5,-255 214.5,-255"/>
<image xlink:href="../../images/primaryKeys.png" width="11px" height="12px" preserveAspectRatio="xMinYMin meet" x="219.5" y="-272"/>
<text text-anchor="start" x="234.5" y="-263.2" font-family="Helvetica,sans-Serif" font-size="11.00">id</text>
<polygon fill="none" stroke="black" points="362.5,-255 362.5,-277 483.5,-277 483.5,-255 362.5,-255"/>
<text text-anchor="start" x="365.5" y="-263.2" font-family="Helvetica,sans-Serif" font-size="11.00">bigserial[19]</text>
<polygon fill="none" stroke="black" points="214.5,-233 214.5,-255 362.5,-255 362.5,-233 214.5,-233"/>
<text text-anchor="start" x="234.5" y="-241.2" font-family="Helvetica,sans-Serif" font-size="11.00">ems_ref</text>
<polygon fill="none" stroke="black" points="362.5,-233 362.5,-255 483.5,-255 483.5,-233 362.5,-233"/>
<text text-anchor="start" x="365.5" y="-241.2" font-family="Helvetica,sans-Serif" font-size="11.00">varchar[2147483647]</text>
<polygon fill="none" stroke="black" points="214.5,-211 214.5,-233 362.5,-233 362.5,-211 214.5,-211"/>
<text text-anchor="start" x="234.5" y="-219.2" font-family="Helvetica,sans-Serif" font-size="11.00">name</text>
<polygon fill="none" stroke="black" points="362.5,-211 362.5,-233 483.5,-233 483.5,-211 362.5,-211"/>
<text text-anchor="start" x="365.5" y="-219.2" font-family="Helvetica,sans-Serif" font-size="11.00">varchar[2147483647]</text>
<polygon fill="none" stroke="black" points="214.5,-189 214.5,-211 362.5,-211 362.5,-189 214.5,-189"/>
<text text-anchor="start" x="234.5" y="-197.2" font-family="Helvetica,sans-Serif" font-size="11.00">ems_created_on</text>
<polygon fill="none" stroke="black" points="362.5,-189 362.5,-211 483.5,-211 483.5,-189 362.5,-189"/>
<text text-anchor="start" x="365.5" y="-197.2" font-family="Helvetica,sans-Serif" font-size="11.00">timestamp[29,6]</text>
<polygon fill="none" stroke="black" points="214.5,-167 214.5,-189 362.5,-189 362.5,-167 214.5,-167"/>
<text text-anchor="start" x="234.5" y="-175.2" font-family="Helvetica,sans-Serif" font-size="11.00">ems_id</text>
<polygon fill="none" stroke="black" points="362.5,-167 362.5,-189 483.5,-189 483.5,-167 362.5,-167"/>
<text text-anchor="start" x="365.5" y="-175.2" font-family="Helvetica,sans-Serif" font-size="11.00">int8[19]</text>
<polygon fill="none" stroke="black" points="214.5,-145 214.5,-167 362.5,-167 362.5,-145 214.5,-145"/>
<text text-anchor="start" x="234.5" y="-153.2" font-family="Helvetica,sans-Serif" font-size="11.00">resource_version</text>
<polygon fill="none" stroke="black" points="362.5,-145 362.5,-167 483.5,-167 483.5,-145 362.5,-145"/>
<text text-anchor="start" x="365.5" y="-153.2" font-family="Helvetica,sans-Serif" font-size="11.00">varchar[2147483647]</text>
<polygon fill="none" stroke="black" points="214.5,-123 214.5,-145 362.5,-145 362.5,-123 214.5,-123"/>
<text text-anchor="start" x="234.5" y="-131.2" font-family="Helvetica,sans-Serif" font-size="11.00">replicas</text>
<polygon fill="none" stroke="black" points="362.5,-123 362.5,-145 483.5,-145 483.5,-123 362.5,-123"/>
<text text-anchor="start" x="365.5" y="-131.2" font-family="Helvetica,sans-Serif" font-size="11.00">int4[10]</text>
<polygon fill="none" stroke="black" points="214.5,-101 214.5,-123 362.5,-123 362.5,-101 214.5,-101"/>
<text text-anchor="start" x="234.5" y="-109.2" font-family="Helvetica,sans-Serif" font-size="11.00">current_replicas</text>
<polygon fill="none" stroke="black" points="362.5,-101 362.5,-123 483.5,-123 483.5,-101 362.5,-101"/>
<text text-anchor="start" x="365.5" y="-109.2" font-family="Helvetica,sans-Serif" font-size="11.00">int4[10]</text>
<polygon fill="none" stroke="black" points="214.5,-79 214.5,-101 362.5,-101 362.5,-79 214.5,-79"/>
<image xlink:href="../../images/foreignKeys.png" width="11px" height="12px" preserveAspectRatio="xMinYMin meet" x="219.5" y="-96"/>
<text text-anchor="start" x="234.5" y="-87.2" font-family="Helvetica,sans-Serif" font-size="11.00">container_project_id</text>
<polygon fill="none" stroke="black" points="362.5,-79 362.5,-101 483.5,-101 483.5,-79 362.5,-79"/>
<text text-anchor="start" x="365.5" y="-87.2" font-family="Helvetica,sans-Serif" font-size="11.00">int8[19]</text>
<polygon fill="none" stroke="black" points="214.5,-57 214.5,-79 362.5,-79 362.5,-57 214.5,-57"/>
<text text-anchor="start" x="234.5" y="-65.2" font-family="Helvetica,sans-Serif" font-size="11.00">created_on</text>
<polygon fill="none" stroke="black" points="362.5,-57 362.5,-79 483.5,-79 483.5,-57 362.5,-57"/>
<text text-anchor="start" x="365.5" y="-65.2" font-family="Helvetica,sans-Serif" font-size="11.00">timestamp[29,6]</text>
<polygon fill="#ffffff" stroke="none" points="214.5,-39 214.5,-57 293.5,-57 293.5,-39 214.5,-39"/>
<polygon fill="none" stroke="black" points="214.5,-39 214.5,-57 293.5,-57 293.5,-39 214.5,-39"/>
<text text-anchor="start" x="217.5" y="-45.2" font-family="Helvetica,sans-Serif" font-size="11.00">&lt; 1</text>
<polygon fill="#ffffff" stroke="none" points="293.5,-39 293.5,-57 362.5,-57 362.5,-39 293.5,-39"/>
<polygon fill="none" stroke="black" points="293.5,-39 293.5,-57 362.5,-57 362.5,-39 293.5,-39"/>
<text text-anchor="start" x="352.5" y="-45.2" font-family="Helvetica,sans-Serif" font-size="11.00"> &#160;</text>
<polygon fill="#ffffff" stroke="none" points="362.5,-39 362.5,-57 483.5,-57 483.5,-39 362.5,-39"/>
<polygon fill="none" stroke="black" points="362.5,-39 362.5,-57 483.5,-57 483.5,-39 362.5,-39"/>
<text text-anchor="start" x="463.5" y="-45.2" font-family="Helvetica,sans-Serif" font-size="11.00">2 &gt;</text>
<polygon fill="none" stroke="black" stroke-width="2" points="213,-38 213,-300 484,-300 484,-38 213,-38"/>
</a>
</g>
</g>
<!-- container_groups&#45;&gt;container_replicators -->
<g id="edge2" class="edge"><title>container_groups:container_replicator_id:w&#45;&gt;container_replicators:id.type:e</title>
<path fill="none" stroke="black" d="M519.135,-365.088C493.334,-346.274 529.169,-266 484.5,-266"/>
<polygon fill="black" stroke="black" points="525.301,-366.828 532.022,-372.465 529.15,-367.914 533,-369 533,-369 533,-369 529.15,-367.914 533.978,-365.535 525.301,-366.828 525.301,-366.828"/>
<ellipse fill="none" stroke="black" cx="522.221" cy="-365.959" rx="3.20001" ry="3.20001"/>
</g>
<!-- container_replicators&#45;&gt;container_projects -->
<g id="edge3" class="edge"><title>container_replicators:container_project_id:w&#45;&gt;container_projects:id:e</title>
<path fill="none" stroke="black" d="M199.389,-93.6299C169.235,-113.378 214.93,-207 164.5,-207"/>
<polygon fill="black" stroke="black" points="205.752,-91.9931 214.397,-93.4865 209.626,-90.9965 213.5,-90 213.5,-90 213.5,-90 209.626,-90.9965 212.603,-86.5135 205.752,-91.9931 205.752,-91.9931"/>
<ellipse fill="none" stroke="black" cx="202.653" cy="-92.7903" rx="3.2" ry="3.2"/>
</g>
<!-- event_streams -->
<g id="node4" class="node"><title>event_streams</title>
<g id="a_node4"><a xlink:href="../../tables/event_streams.html" xlink:title="event_streams" target="_top">
<polygon fill="#ffffff" stroke="none" points="749,-132 749,-652 930,-652 930,-132 749,-132"/>
<polygon fill="#f5f5f5" stroke="none" points="749.5,-630 749.5,-652 930.5,-652 930.5,-630 749.5,-630"/>
<polygon fill="none" stroke="black" points="749.5,-630 749.5,-652 930.5,-652 930.5,-630 749.5,-630"/>
<text text-anchor="start" x="754.5" y="-639.2" font-family="Helvetica,sans-Serif" font-weight="bold" font-size="11.00">event_streams</text>
<text text-anchor="start" x="891.5" y="-638.2" font-family="Helvetica,sans-Serif" font-size="11.00">[table]</text>
<polygon fill="none" stroke="black" points="749.5,-608 749.5,-630 930.5,-630 930.5,-608 749.5,-608"/>
<image xlink:href="../../images/primaryKeys.png" width="11px" height="12px" preserveAspectRatio="xMinYMin meet" x="754.5" y="-625"/>
<text text-anchor="start" x="769.5" y="-616.2" font-family="Helvetica,sans-Serif" font-size="11.00">id</text>
<polygon fill="#ffffff" stroke="none" points="749.5,-586 749.5,-608 930.5,-608 930.5,-586 749.5,-586"/>
<polygon fill="none" stroke="black" points="749.5,-586 749.5,-608 930.5,-608 930.5,-586 749.5,-586"/>
<text text-anchor="start" x="769.5" y="-594.2" font-family="Helvetica,sans-Serif" font-size="11.00">event_type</text>
<polygon fill="#ffffff" stroke="none" points="749.5,-564 749.5,-586 930.5,-586 930.5,-564 749.5,-564"/>
<polygon fill="none" stroke="black" points="749.5,-564 749.5,-586 930.5,-586 930.5,-564 749.5,-564"/>
<text text-anchor="start" x="769.5" y="-572.2" font-family="Helvetica,sans-Serif" font-size="11.00">timestamp</text>
<polygon fill="#ffffff" stroke="none" points="749.5,-542 749.5,-564 930.5,-564 930.5,-542 749.5,-542"/>
<polygon fill="none" stroke="black" points="749.5,-542 749.5,-564 930.5,-564 930.5,-542 749.5,-542"/>
<image xlink:href="../../images/foreignKeys.png" width="11px" height="12px" preserveAspectRatio="xMinYMin meet" x="754.5" y="-559"/>
<text text-anchor="start" x="769.5" y="-550.2" font-family="Helvetica,sans-Serif" font-size="11.00">host_id</text>
<polygon fill="#ffffff" stroke="none" points="749.5,-520 749.5,-542 930.5,-542 930.5,-520 749.5,-520"/>
<polygon fill="none" stroke="black" points="749.5,-520 749.5,-542 930.5,-542 930.5,-520 749.5,-520"/>
<text text-anchor="start" x="769.5" y="-528.2" font-family="Helvetica,sans-Serif" font-size="11.00">vm_or_template_id</text>
<polygon fill="#ffffff" stroke="none" points="749.5,-498 749.5,-520 930.5,-520 930.5,-498 749.5,-498"/>
<polygon fill="none" stroke="black" points="749.5,-498 749.5,-520 930.5,-520 930.5,-498 749.5,-498"/>
<text text-anchor="start" x="769.5" y="-506.2" font-family="Helvetica,sans-Serif" font-size="11.00">dest_host_id</text>
<polygon fill="#ffffff" stroke="none" points="749.5,-476 749.5,-498 930.5,-498 930.5,-476 749.5,-476"/>
<polygon fill="none" stroke="black" points="749.5,-476 749.5,-498 930.5,-498 930.5,-476 749.5,-476"/>
<text text-anchor="start" x="769.5" y="-484.2" font-family="Helvetica,sans-Serif" font-size="11.00">dest_vm_or_template_id</text>
<polygon fill="#ffffff" stroke="none" points="749.5,-454 749.5,-476 930.5,-476 930.5,-454 749.5,-454"/>
<polygon fill="none" stroke="black" points="749.5,-454 749.5,-476 930.5,-476 930.5,-454 749.5,-454"/>
<text text-anchor="start" x="769.5" y="-462.2" font-family="Helvetica,sans-Serif" font-size="11.00">chain_id</text>
<polygon fill="#ffffff" stroke="none" points="749.5,-432 749.5,-454 930.5,-454 930.5,-432 749.5,-432"/>
<polygon fill="none" stroke="black" points="749.5,-432 749.5,-454 930.5,-454 930.5,-432 749.5,-432"/>
<text text-anchor="start" x="769.5" y="-440.2" font-family="Helvetica,sans-Serif" font-size="11.00">ems_id</text>
<polygon fill="#ffffff" stroke="none" points="749.5,-410 749.5,-432 930.5,-432 930.5,-410 749.5,-410"/>
<polygon fill="none" stroke="black" points="749.5,-410 749.5,-432 930.5,-432 930.5,-410 749.5,-410"/>
<image xlink:href="../../images/foreignKeys.png" width="11px" height="12px" preserveAspectRatio="xMinYMin meet" x="754.5" y="-427"/>
<text text-anchor="start" x="769.5" y="-418.2" font-family="Helvetica,sans-Serif" font-size="11.00">ems_cluster_id</text>
<polygon fill="#ffffff" stroke="none" points="749.5,-388 749.5,-410 930.5,-410 930.5,-388 749.5,-388"/>
<polygon fill="none" stroke="black" points="749.5,-388 749.5,-410 930.5,-410 930.5,-388 749.5,-388"/>
<image xlink:href="../../images/foreignKeys.png" width="11px" height="12px" preserveAspectRatio="xMinYMin meet" x="754.5" y="-405"/>
<text text-anchor="start" x="769.5" y="-396.2" font-family="Helvetica,sans-Serif" font-size="11.00">availability_zone_id</text>
<polygon fill="none" stroke="black" points="749.5,-366 749.5,-388 930.5,-388 930.5,-366 749.5,-366"/>
<image xlink:href="../../images/foreignKeys.png" width="11px" height="12px" preserveAspectRatio="xMinYMin meet" x="754.5" y="-383"/>
<text text-anchor="start" x="769.5" y="-374.2" font-family="Helvetica,sans-Serif" font-size="11.00">container_node_id</text>
<polygon fill="none" stroke="black" points="749.5,-344 749.5,-366 930.5,-366 930.5,-344 749.5,-344"/>
<image xlink:href="../../images/foreignKeys.png" width="11px" height="12px" preserveAspectRatio="xMinYMin meet" x="754.5" y="-361"/>
<text text-anchor="start" x="769.5" y="-352.2" font-family="Helvetica,sans-Serif" font-size="11.00">container_group_id</text>
<polygon fill="#ffffff" stroke="none" points="749.5,-322 749.5,-344 930.5,-344 930.5,-322 749.5,-322"/>
<polygon fill="none" stroke="black" points="749.5,-322 749.5,-344 930.5,-344 930.5,-322 749.5,-322"/>
<text text-anchor="start" x="769.5" y="-330.2" font-family="Helvetica,sans-Serif" font-size="11.00">type</text>
<polygon fill="none" stroke="black" points="749.5,-300 749.5,-322 930.5,-322 930.5,-300 749.5,-300"/>
<image xlink:href="../../images/foreignKeys.png" width="11px" height="12px" preserveAspectRatio="xMinYMin meet" x="754.5" y="-317"/>
<text text-anchor="start" x="769.5" y="-308.2" font-family="Helvetica,sans-Serif" font-size="11.00">container_id</text>
<polygon fill="none" stroke="black" points="749.5,-278 749.5,-300 930.5,-300 930.5,-278 749.5,-278"/>
<image xlink:href="../../images/foreignKeys.png" width="11px" height="12px" preserveAspectRatio="xMinYMin meet" x="754.5" y="-295"/>
<text text-anchor="start" x="769.5" y="-286.2" font-family="Helvetica,sans-Serif" font-size="11.00">container_replicator_id</text>
<polygon fill="#ffffff" stroke="none" points="749.5,-256 749.5,-278 930.5,-278 930.5,-256 749.5,-256"/>
<polygon fill="none" stroke="black" points="749.5,-256 749.5,-278 930.5,-278 930.5,-256 749.5,-256"/>
<text text-anchor="start" x="769.5" y="-264.2" font-family="Helvetica,sans-Serif" font-size="11.00">generating_ems_id</text>
<polygon fill="none" stroke="black" points="749.5,-234 749.5,-256 930.5,-256 930.5,-234 749.5,-234"/>
<image xlink:href="../../images/foreignKeys.png" width="11px" height="12px" preserveAspectRatio="xMinYMin meet" x="754.5" y="-251"/>
<text text-anchor="start" x="769.5" y="-242.2" font-family="Helvetica,sans-Serif" font-size="11.00">physical_server_id</text>
<polygon fill="none" stroke="black" points="749.5,-212 749.5,-234 930.5,-234 930.5,-212 749.5,-212"/>
<image xlink:href="../../images/foreignKeys.png" width="11px" height="12px" preserveAspectRatio="xMinYMin meet" x="754.5" y="-229"/>
<text text-anchor="start" x="769.5" y="-220.2" font-family="Helvetica,sans-Serif" font-size="11.00">user_id</text>
<polygon fill="none" stroke="black" points="749.5,-190 749.5,-212 930.5,-212 930.5,-190 749.5,-190"/>
<image xlink:href="../../images/foreignKeys.png" width="11px" height="12px" preserveAspectRatio="xMinYMin meet" x="754.5" y="-207"/>
<text text-anchor="start" x="769.5" y="-198.2" font-family="Helvetica,sans-Serif" font-size="11.00">tenant_id</text>
<polygon fill="none" stroke="black" points="749.5,-168 749.5,-190 930.5,-190 930.5,-168 749.5,-168"/>
<image xlink:href="../../images/foreignKeys.png" width="11px" height="12px" preserveAspectRatio="xMinYMin meet" x="754.5" y="-185"/>
<text text-anchor="start" x="769.5" y="-176.2" font-family="Helvetica,sans-Serif" font-size="11.00">physical_storage_id</text>
<polygon fill="none" stroke="black" points="749.5,-150 749.5,-168 930.5,-168 930.5,-150 749.5,-150"/>
<text text-anchor="start" x="752.5" y="-156.2" font-family="Helvetica,sans-Serif" font-size="11.00">...</text>
<polygon fill="#ffffff" stroke="none" points="749.5,-132 749.5,-150 841.5,-150 841.5,-132 749.5,-132"/>
<polygon fill="none" stroke="black" points="749.5,-132 749.5,-150 841.5,-150 841.5,-132 749.5,-132"/>
<text text-anchor="start" x="752.5" y="-138.2" font-family="Helvetica,sans-Serif" font-size="11.00">&lt; 11</text>
<polygon fill="#ffffff" stroke="none" points="841.5,-132 841.5,-150 885.5,-150 885.5,-132 841.5,-132"/>
<polygon fill="none" stroke="black" points="841.5,-132 841.5,-150 885.5,-150 885.5,-132 841.5,-132"/>
<text text-anchor="start" x="875.5" y="-138.2" font-family="Helvetica,sans-Serif" font-size="11.00"> &#160;</text>
<polygon fill="#ffffff" stroke="none" points="885.5,-132 885.5,-150 930.5,-150 930.5,-132 885.5,-132"/>
<polygon fill="none" stroke="black" points="885.5,-132 885.5,-150 930.5,-150 930.5,-132 885.5,-132"/>
<text text-anchor="start" x="920.5" y="-138.2" font-family="Helvetica,sans-Serif" font-size="11.00"> &#160;</text>
</a>
</g>
</g>
<!-- event_streams&#45;&gt;container_groups -->
<g id="edge4" class="edge"><title>event_streams:container_group_id:w&#45;&gt;container_groups:id:e</title>
<path fill="none" stroke="black" d="M734.645,-359.765C715.913,-376.987 736.213,-435 701,-435"/>
<polygon fill="black" stroke="black" points="740.935,-357.602 749.671,-358.404 744.717,-356.301 748.5,-355 748.5,-355 748.5,-355 744.717,-356.301 747.329,-351.596 740.935,-357.602 740.935,-357.602"/>
<ellipse fill="none" stroke="black" cx="737.909" cy="-358.643" rx="3.20001" ry="3.20001"/>
</g>
<!-- event_streams&#45;&gt;container_replicators -->
<g id="edge5" class="edge"><title>event_streams:container_replicator_id:w&#45;&gt;container_replicators:id.type:e</title>
<path fill="none" stroke="black" d="M734.673,-284.417C721.333,-271.944 732.18,-237.423 708,-224 637.278,-184.739 600.639,-192.822 526,-224 501.786,-234.115 510.742,-266 484.5,-266"/>
<polygon fill="black" stroke="black" points="740.906,-286.483 747.367,-292.417 744.703,-287.742 748.5,-289 748.5,-289 748.5,-289 744.703,-287.742 749.633,-285.583 740.906,-286.483 740.906,-286.483"/>
<ellipse fill="none" stroke="black" cx="737.869" cy="-285.476" rx="3.20001" ry="3.20001"/>
</g>
</g>
</svg>
