<?xml version="1.0" encoding="UTF-8" standalone="no"?>
<!DOCTYPE svg PUBLIC "-//W3C//DTD SVG 1.1//EN"
 "http://www.w3.org/Graphics/SVG/1.1/DTD/svg11.dtd">
<!-- Generated by graphviz version 2.38.0 (20140413.2041)
 -->
<!-- Title: twoDegreesRelationshipsDiagram Pages: 1 -->
<svg width="1164pt" height="964pt"
 viewBox="0.00 0.00 1164.00 964.00" xmlns="http://www.w3.org/2000/svg" xmlns:xlink="http://www.w3.org/1999/xlink">
<g id="graph0" class="graph" transform="scale(1 1) rotate(0) translate(4 960)">
<title>twoDegreesRelationshipsDiagram</title>
<polygon fill="#ffffff" stroke="none" points="-4,4 -4,-960 1160,-960 1160,4 -4,4"/>
<text text-anchor="middle" x="74.5" y="-7.2" font-family="Helvetica,sans-Serif" font-size="11.00">Generated by SchemaSpy</text>
<!-- container_builds -->
<g id="node1" class="node"><title>container_builds</title>
<g id="a_node1"><a xlink:href="../../tables/container_builds.html" xlink:title="container_builds" target="_top">
<polygon fill="#ffffff" stroke="none" points="342.5,-603 342.5,-661 486.5,-661 486.5,-603 342.5,-603"/>
<polygon fill="#f5f5f5" stroke="none" points="342.5,-639 342.5,-661 486.5,-661 486.5,-639 342.5,-639"/>
<polygon fill="none" stroke="black" points="342.5,-639 342.5,-661 486.5,-661 486.5,-639 342.5,-639"/>
<text text-anchor="start" x="347.5" y="-648.2" font-family="Helvetica,sans-Serif" font-weight="bold" font-size="11.00">container_builds</text>
<text text-anchor="start" x="447.5" y="-647.2" font-family="Helvetica,sans-Serif" font-size="11.00">[table]</text>
<polygon fill="none" stroke="black" points="342.5,-621 342.5,-639 486.5,-639 486.5,-621 342.5,-621"/>
<text text-anchor="start" x="345.5" y="-627.2" font-family="Helvetica,sans-Serif" font-size="11.00">...</text>
<polygon fill="#ffffff" stroke="none" points="342.5,-603 342.5,-621 407.5,-621 407.5,-603 342.5,-603"/>
<polygon fill="none" stroke="black" points="342.5,-603 342.5,-621 407.5,-621 407.5,-603 342.5,-603"/>
<text text-anchor="start" x="345.5" y="-609.2" font-family="Helvetica,sans-Serif" font-size="11.00">&lt; 1</text>
<polygon fill="#ffffff" stroke="none" points="407.5,-603 407.5,-621 441.5,-621 441.5,-603 407.5,-603"/>
<polygon fill="none" stroke="black" points="407.5,-603 407.5,-621 441.5,-621 441.5,-603 407.5,-603"/>
<text text-anchor="start" x="431.5" y="-609.2" font-family="Helvetica,sans-Serif" font-size="11.00"> &#160;</text>
<polygon fill="#ffffff" stroke="none" points="441.5,-603 441.5,-621 486.5,-621 486.5,-603 441.5,-603"/>
<polygon fill="none" stroke="black" points="441.5,-603 441.5,-621 486.5,-621 486.5,-603 441.5,-603"/>
<text text-anchor="start" x="466.5" y="-609.2" font-family="Helvetica,sans-Serif" font-size="11.00">1 &gt;</text>
</a>
</g>
</g>
<!-- container_projects -->
<g id="node2" class="node"><title>container_projects</title>
<g id="a_node2"><a xlink:href="../../tables/container_projects.html" xlink:title="container_projects" target="_top">
<polygon fill="#ffffff" stroke="none" points="31,-618 31,-742 186,-742 186,-618 31,-618"/>
<polygon fill="#f5f5f5" stroke="none" points="31.5,-720 31.5,-742 186.5,-742 186.5,-720 31.5,-720"/>
<polygon fill="none" stroke="black" points="31.5,-720 31.5,-742 186.5,-742 186.5,-720 31.5,-720"/>
<text text-anchor="start" x="36.5" y="-729.2" font-family="Helvetica,sans-Serif" font-weight="bold" font-size="11.00">container_projects</text>
<text text-anchor="start" x="147.5" y="-728.2" font-family="Helvetica,sans-Serif" font-size="11.00">[table]</text>
<polygon fill="none" stroke="black" points="31.5,-698 31.5,-720 186.5,-720 186.5,-698 31.5,-698"/>
<image xlink:href="../../images/primaryKeys.png" width="11px" height="12px" preserveAspectRatio="xMinYMin meet" x="36.5" y="-715"/>
<text text-anchor="start" x="63.5" y="-706.2" font-family="Helvetica,sans-Serif" font-size="11.00">id</text>
<polygon fill="#ffffff" stroke="none" points="31.5,-676 31.5,-698 186.5,-698 186.5,-676 31.5,-676"/>
<polygon fill="none" stroke="black" points="31.5,-676 31.5,-698 186.5,-698 186.5,-676 31.5,-676"/>
<text text-anchor="start" x="63.5" y="-684.2" font-family="Helvetica,sans-Serif" font-size="11.00">ems_id</text>
<polygon fill="#ffffff" stroke="none" points="31.5,-654 31.5,-676 186.5,-676 186.5,-654 31.5,-654"/>
<polygon fill="none" stroke="black" points="31.5,-654 31.5,-676 186.5,-676 186.5,-654 31.5,-654"/>
<text text-anchor="start" x="63.5" y="-662.2" font-family="Helvetica,sans-Serif" font-size="11.00">deleted_on</text>
<polygon fill="none" stroke="black" points="31.5,-636 31.5,-654 186.5,-654 186.5,-636 31.5,-636"/>
<text text-anchor="start" x="34.5" y="-642.2" font-family="Helvetica,sans-Serif" font-size="11.00">...</text>
<polygon fill="#ffffff" stroke="none" points="31.5,-618 31.5,-636 97.5,-636 97.5,-618 31.5,-618"/>
<polygon fill="none" stroke="black" points="31.5,-618 31.5,-636 97.5,-636 97.5,-618 31.5,-618"/>
<text text-anchor="start" x="34.5" y="-624.2" font-family="Helvetica,sans-Serif" font-size="11.00"> &#160;</text>
<polygon fill="#ffffff" stroke="none" points="97.5,-618 97.5,-636 136.5,-636 136.5,-618 97.5,-618"/>
<polygon fill="none" stroke="black" points="97.5,-618 97.5,-636 136.5,-636 136.5,-618 97.5,-618"/>
<text text-anchor="start" x="126.5" y="-624.2" font-family="Helvetica,sans-Serif" font-size="11.00"> &#160;</text>
<polygon fill="#ffffff" stroke="none" points="136.5,-618 136.5,-636 186.5,-636 186.5,-618 136.5,-618"/>
<polygon fill="none" stroke="black" points="136.5,-618 136.5,-636 186.5,-636 186.5,-618 136.5,-618"/>
<text text-anchor="start" x="166.5" y="-624.2" font-family="Helvetica,sans-Serif" font-size="11.00">9 &gt;</text>
</a>
</g>
</g>
<!-- container_builds&#45;&gt;container_projects -->
<g id="edge1" class="edge"><title>container_builds:elipses:w&#45;&gt;container_projects:id:e</title>
<path fill="none" stroke="black" d="M326.82,-630.857C294.655,-634.917 284.672,-652.783 250,-671 221.221,-686.121 220.009,-709 187.5,-709"/>
<polygon fill="black" stroke="black" points="333.514,-630.466 341.71,-633.594 337.507,-630.233 341.5,-630 341.5,-630 341.5,-630 337.507,-630.233 341.29,-626.406 333.514,-630.466 333.514,-630.466"/>
<ellipse fill="none" stroke="black" cx="330.319" cy="-630.653" rx="3.2" ry="3.2"/>
</g>
<!-- container_groups -->
<g id="node3" class="node"><title>container_groups</title>
<g id="a_node3"><a xlink:href="../../tables/container_groups.html" xlink:title="container_groups" target="_top">
<polygon fill="#ffffff" stroke="none" points="657.5,-843 657.5,-901 804.5,-901 804.5,-843 657.5,-843"/>
<polygon fill="#f5f5f5" stroke="none" points="658,-879 658,-901 805,-901 805,-879 658,-879"/>
<polygon fill="none" stroke="black" points="658,-879 658,-901 805,-901 805,-879 658,-879"/>
<text text-anchor="start" x="663" y="-888.2" font-family="Helvetica,sans-Serif" font-weight="bold" font-size="11.00">container_groups</text>
<text text-anchor="start" x="766" y="-887.2" font-family="Helvetica,sans-Serif" font-size="11.00">[table]</text>
<polygon fill="none" stroke="black" points="658,-861 658,-879 805,-879 805,-861 658,-861"/>
<text text-anchor="start" x="661" y="-867.2" font-family="Helvetica,sans-Serif" font-size="11.00">...</text>
<polygon fill="#ffffff" stroke="none" points="658,-843 658,-861 725,-861 725,-843 658,-843"/>
<polygon fill="none" stroke="black" points="658,-843 658,-861 725,-861 725,-843 658,-843"/>
<text text-anchor="start" x="661" y="-849.2" font-family="Helvetica,sans-Serif" font-size="11.00">&lt; 4</text>
<polygon fill="#ffffff" stroke="none" points="725,-843 725,-861 760,-861 760,-843 725,-843"/>
<polygon fill="none" stroke="black" points="725,-843 725,-861 760,-861 760,-843 725,-843"/>
<text text-anchor="start" x="750" y="-849.2" font-family="Helvetica,sans-Serif" font-size="11.00"> &#160;</text>
<polygon fill="#ffffff" stroke="none" points="760,-843 760,-861 805,-861 805,-843 760,-843"/>
<polygon fill="none" stroke="black" points="760,-843 760,-861 805,-861 805,-843 760,-843"/>
<text text-anchor="start" x="785" y="-849.2" font-family="Helvetica,sans-Serif" font-size="11.00">3 &gt;</text>
</a>
</g>
</g>
<!-- container_groups&#45;&gt;container_projects -->
<g id="edge2" class="edge"><title>container_groups:elipses:w&#45;&gt;container_projects:id:e</title>
<path fill="none" stroke="black" d="M642.389,-870.247C542.809,-873.294 320.908,-902.673 250,-854 192.143,-814.285 257.676,-709 187.5,-709"/>
<polygon fill="black" stroke="black" points="649.001,-870.135 657.061,-873.599 653.001,-870.068 657,-870 657,-870 657,-870 653.001,-870.068 656.939,-866.401 649.001,-870.135 649.001,-870.135"/>
<ellipse fill="none" stroke="black" cx="645.802" cy="-870.189" rx="3.2" ry="3.2"/>
</g>
<!-- container_replicators -->
<g id="node4" class="node"><title>container_replicators</title>
<g id="a_node4"><a xlink:href="../../tables/container_replicators.html" xlink:title="container_replicators" target="_top">
<polygon fill="#ffffff" stroke="none" points="329,-894 329,-952 500,-952 500,-894 329,-894"/>
<polygon fill="#f5f5f5" stroke="none" points="329.5,-930 329.5,-952 500.5,-952 500.5,-930 329.5,-930"/>
<polygon fill="none" stroke="black" points="329.5,-930 329.5,-952 500.5,-952 500.5,-930 329.5,-930"/>
<text text-anchor="start" x="334.5" y="-939.2" font-family="Helvetica,sans-Serif" font-weight="bold" font-size="11.00">container_replicators</text>
<text text-anchor="start" x="461.5" y="-938.2" font-family="Helvetica,sans-Serif" font-size="11.00">[table]</text>
<polygon fill="none" stroke="black" points="329.5,-912 329.5,-930 500.5,-930 500.5,-912 329.5,-912"/>
<text text-anchor="start" x="332.5" y="-918.2" font-family="Helvetica,sans-Serif" font-size="11.00">...</text>
<polygon fill="#ffffff" stroke="none" points="329.5,-894 329.5,-912 408.5,-912 408.5,-894 329.5,-894"/>
<polygon fill="none" stroke="black" points="329.5,-894 329.5,-912 408.5,-912 408.5,-894 329.5,-894"/>
<text text-anchor="start" x="332.5" y="-900.2" font-family="Helvetica,sans-Serif" font-size="11.00">&lt; 1</text>
<polygon fill="#ffffff" stroke="none" points="408.5,-894 408.5,-912 449.5,-912 449.5,-894 408.5,-894"/>
<polygon fill="none" stroke="black" points="408.5,-894 408.5,-912 449.5,-912 449.5,-894 408.5,-894"/>
<text text-anchor="start" x="439.5" y="-900.2" font-family="Helvetica,sans-Serif" font-size="11.00"> &#160;</text>
<polygon fill="#ffffff" stroke="none" points="449.5,-894 449.5,-912 500.5,-912 500.5,-894 449.5,-894"/>
<polygon fill="none" stroke="black" points="449.5,-894 449.5,-912 500.5,-912 500.5,-894 449.5,-894"/>
<text text-anchor="start" x="480.5" y="-900.2" font-family="Helvetica,sans-Serif" font-size="11.00">2 &gt;</text>
</a>
</g>
</g>
<!-- container_groups&#45;&gt;container_replicators -->
<g id="edge3" class="edge"><title>container_groups:elipses:w&#45;&gt;container_replicators:elipses:e</title>
<path fill="none" stroke="black" d="M642.544,-870.721C582.546,-876.92 569.119,-921 501.5,-921"/>
<polygon fill="black" stroke="black" points="649.01,-870.399 657.179,-873.596 653.005,-870.199 657,-870 657,-870 657,-870 653.005,-870.199 656.821,-866.404 649.01,-870.399 649.01,-870.399"/>
<ellipse fill="none" stroke="black" cx="645.814" cy="-870.558" rx="3.2" ry="3.2"/>
</g>
<!-- container_replicators&#45;&gt;container_projects -->
<g id="edge9" class="edge"><title>container_replicators:elipses:w&#45;&gt;container_projects:id:e</title>
<path fill="none" stroke="black" d="M314.111,-920.381C285.411,-917.649 272.506,-905.663 250,-880 196.648,-819.163 268.417,-709 187.5,-709"/>
<polygon fill="black" stroke="black" points="320.507,-920.656 328.345,-924.597 324.504,-920.828 328.5,-921 328.5,-921 328.5,-921 324.504,-920.828 328.655,-917.403 320.507,-920.656 320.507,-920.656"/>
<ellipse fill="none" stroke="black" cx="317.31" cy="-920.518" rx="3.2" ry="3.2"/>
</g>
<!-- container_groups_container_services -->
<g id="node5" class="node"><title>container_groups_container_services</title>
<g id="a_node5"><a xlink:href="../../tables/container_groups_container_services.html" xlink:title="container_groups_container_services" target="_top">
<polygon fill="#ffffff" stroke="none" points="891,-589 891,-695 1148,-695 1148,-589 891,-589"/>
<polygon fill="#f5f5f5" stroke="none" points="891.5,-673 891.5,-695 1148.5,-695 1148.5,-673 891.5,-673"/>
<polygon fill="none" stroke="black" points="891.5,-673 891.5,-695 1148.5,-695 1148.5,-673 891.5,-673"/>
<text text-anchor="start" x="896.5" y="-682.2" font-family="Helvetica,sans-Serif" font-weight="bold" font-size="11.00">container_groups_container_services</text>
<text text-anchor="start" x="1109.5" y="-681.2" font-family="Helvetica,sans-Serif" font-size="11.00">[table]</text>
<polygon fill="none" stroke="black" points="891.5,-651 891.5,-673 1148.5,-673 1148.5,-651 891.5,-651"/>
<image xlink:href="../../images/primaryKeys.png" width="11px" height="12px" preserveAspectRatio="xMinYMin meet" x="896.5" y="-668"/>
<text text-anchor="start" x="919.5" y="-659.2" font-family="Helvetica,sans-Serif" font-size="11.00">id</text>
<polygon fill="none" stroke="black" points="891.5,-629 891.5,-651 1148.5,-651 1148.5,-629 891.5,-629"/>
<image xlink:href="../../images/foreignKeys.png" width="11px" height="12px" preserveAspectRatio="xMinYMin meet" x="896.5" y="-646"/>
<text text-anchor="start" x="919.5" y="-637.2" font-family="Helvetica,sans-Serif" font-size="11.00">container_service_id</text>
<polygon fill="none" stroke="black" points="891.5,-607 891.5,-629 1148.5,-629 1148.5,-607 891.5,-607"/>
<image xlink:href="../../images/foreignKeys.png" width="11px" height="12px" preserveAspectRatio="xMinYMin meet" x="896.5" y="-624"/>
<text text-anchor="start" x="919.5" y="-615.2" font-family="Helvetica,sans-Serif" font-size="11.00">container_group_id</text>
<polygon fill="#ffffff" stroke="none" points="891.5,-589 891.5,-607 1018.5,-607 1018.5,-589 891.5,-589"/>
<polygon fill="none" stroke="black" points="891.5,-589 891.5,-607 1018.5,-607 1018.5,-589 891.5,-589"/>
<text text-anchor="start" x="894.5" y="-595.2" font-family="Helvetica,sans-Serif" font-size="11.00">&lt; 2</text>
<polygon fill="#ffffff" stroke="none" points="1018.5,-589 1018.5,-607 1083.5,-607 1083.5,-589 1018.5,-589"/>
<polygon fill="none" stroke="black" points="1018.5,-589 1018.5,-607 1083.5,-607 1083.5,-589 1018.5,-589"/>
<text text-anchor="start" x="1073.5" y="-595.2" font-family="Helvetica,sans-Serif" font-size="11.00"> &#160;</text>
<polygon fill="#ffffff" stroke="none" points="1083.5,-589 1083.5,-607 1148.5,-607 1148.5,-589 1083.5,-589"/>
<polygon fill="none" stroke="black" points="1083.5,-589 1083.5,-607 1148.5,-607 1148.5,-589 1083.5,-589"/>
<text text-anchor="start" x="1138.5" y="-595.2" font-family="Helvetica,sans-Serif" font-size="11.00"> &#160;</text>
</a>
</g>
</g>
<!-- container_groups_container_services&#45;&gt;container_groups -->
<g id="edge4" class="edge"><title>container_groups_container_services:container_group_id:w&#45;&gt;container_groups:elipses:e</title>
<path fill="none" stroke="black" d="M876.054,-619.658C831.518,-631.496 869.764,-704.397 850,-762 833.179,-811.025 857.831,-870 806,-870"/>
<polygon fill="black" stroke="black" points="882.552,-618.912 890.91,-621.577 886.526,-618.456 890.5,-618 890.5,-618 890.5,-618 886.526,-618.456 890.09,-614.423 882.552,-618.912 882.552,-618.912"/>
<ellipse fill="none" stroke="black" cx="879.373" cy="-619.277" rx="3.2" ry="3.2"/>
</g>
<!-- container_services -->
<g id="node6" class="node"><title>container_services</title>
<g id="a_node6"><a xlink:href="../../tables/container_services.html" xlink:title="container_services" target="_top">
<polygon fill="#ffffff" stroke="none" points="258,-116 258,-424 571,-424 571,-116 258,-116"/>
<polygon fill="#f5f5f5" stroke="none" points="260.5,-400 260.5,-422 569.5,-422 569.5,-400 260.5,-400"/>
<polygon fill="none" stroke="black" points="260.5,-400 260.5,-422 569.5,-422 569.5,-400 260.5,-400"/>
<text text-anchor="start" x="265.5" y="-409.2" font-family="Helvetica,sans-Serif" font-weight="bold" font-size="11.00">container_services</text>
<text text-anchor="start" x="530.5" y="-408.2" font-family="Helvetica,sans-Serif" font-size="11.00">[table]</text>
<polygon fill="none" stroke="black" points="260.5,-378 260.5,-400 448.5,-400 448.5,-378 260.5,-378"/>
<image xlink:href="../../images/primaryKeys.png" width="11px" height="12px" preserveAspectRatio="xMinYMin meet" x="265.5" y="-395"/>
<text text-anchor="start" x="280.5" y="-386.2" font-family="Helvetica,sans-Serif" font-size="11.00">id</text>
<polygon fill="none" stroke="black" points="448.5,-378 448.5,-400 569.5,-400 569.5,-378 448.5,-378"/>
<text text-anchor="start" x="451.5" y="-386.2" font-family="Helvetica,sans-Serif" font-size="11.00">bigserial[19]</text>
<polygon fill="none" stroke="black" points="260.5,-356 260.5,-378 448.5,-378 448.5,-356 260.5,-356"/>
<text text-anchor="start" x="280.5" y="-364.2" font-family="Helvetica,sans-Serif" font-size="11.00">ems_ref</text>
<polygon fill="none" stroke="black" points="448.5,-356 448.5,-378 569.5,-378 569.5,-356 448.5,-356"/>
<text text-anchor="start" x="451.5" y="-364.2" font-family="Helvetica,sans-Serif" font-size="11.00">varchar[2147483647]</text>
<polygon fill="none" stroke="black" points="260.5,-334 260.5,-356 448.5,-356 448.5,-334 260.5,-334"/>
<text text-anchor="start" x="280.5" y="-342.2" font-family="Helvetica,sans-Serif" font-size="11.00">name</text>
<polygon fill="none" stroke="black" points="448.5,-334 448.5,-356 569.5,-356 569.5,-334 448.5,-334"/>
<text text-anchor="start" x="451.5" y="-342.2" font-family="Helvetica,sans-Serif" font-size="11.00">varchar[2147483647]</text>
<polygon fill="none" stroke="black" points="260.5,-312 260.5,-334 448.5,-334 448.5,-312 260.5,-312"/>
<text text-anchor="start" x="280.5" y="-320.2" font-family="Helvetica,sans-Serif" font-size="11.00">ems_created_on</text>
<polygon fill="none" stroke="black" points="448.5,-312 448.5,-334 569.5,-334 569.5,-312 448.5,-312"/>
<text text-anchor="start" x="451.5" y="-320.2" font-family="Helvetica,sans-Serif" font-size="11.00">timestamp[29,6]</text>
<polygon fill="none" stroke="black" points="260.5,-290 260.5,-312 448.5,-312 448.5,-290 260.5,-290"/>
<text text-anchor="start" x="280.5" y="-298.2" font-family="Helvetica,sans-Serif" font-size="11.00">resource_version</text>
<polygon fill="none" stroke="black" points="448.5,-290 448.5,-312 569.5,-312 569.5,-290 448.5,-290"/>
<text text-anchor="start" x="451.5" y="-298.2" font-family="Helvetica,sans-Serif" font-size="11.00">varchar[2147483647]</text>
<polygon fill="none" stroke="black" points="260.5,-268 260.5,-290 448.5,-290 448.5,-268 260.5,-268"/>
<text text-anchor="start" x="280.5" y="-276.2" font-family="Helvetica,sans-Serif" font-size="11.00">session_affinity</text>
<polygon fill="none" stroke="black" points="448.5,-268 448.5,-290 569.5,-290 569.5,-268 448.5,-268"/>
<text text-anchor="start" x="451.5" y="-276.2" font-family="Helvetica,sans-Serif" font-size="11.00">varchar[2147483647]</text>
<polygon fill="none" stroke="black" points="260.5,-246 260.5,-268 448.5,-268 448.5,-246 260.5,-246"/>
<text text-anchor="start" x="280.5" y="-254.2" font-family="Helvetica,sans-Serif" font-size="11.00">portal_ip</text>
<polygon fill="none" stroke="black" points="448.5,-246 448.5,-268 569.5,-268 569.5,-246 448.5,-246"/>
<text text-anchor="start" x="451.5" y="-254.2" font-family="Helvetica,sans-Serif" font-size="11.00">varchar[2147483647]</text>
<polygon fill="#ffffff" stroke="none" points="260.5,-224 260.5,-246 448.5,-246 448.5,-224 260.5,-224"/>
<polygon fill="none" stroke="black" points="260.5,-224 260.5,-246 448.5,-246 448.5,-224 260.5,-224"/>
<text text-anchor="start" x="280.5" y="-232.2" font-family="Helvetica,sans-Serif" font-size="11.00">ems_id</text>
<polygon fill="none" stroke="black" points="448.5,-224 448.5,-246 569.5,-246 569.5,-224 448.5,-224"/>
<text text-anchor="start" x="451.5" y="-232.2" font-family="Helvetica,sans-Serif" font-size="11.00">int8[19]</text>
<polygon fill="none" stroke="black" points="260.5,-202 260.5,-224 448.5,-224 448.5,-202 260.5,-202"/>
<image xlink:href="../../images/foreignKeys.png" width="11px" height="12px" preserveAspectRatio="xMinYMin meet" x="265.5" y="-219"/>
<text text-anchor="start" x="280.5" y="-210.2" font-family="Helvetica,sans-Serif" font-size="11.00">container_project_id</text>
<polygon fill="none" stroke="black" points="448.5,-202 448.5,-224 569.5,-224 569.5,-202 448.5,-202"/>
<text text-anchor="start" x="451.5" y="-210.2" font-family="Helvetica,sans-Serif" font-size="11.00">int8[19]</text>
<polygon fill="none" stroke="black" points="260.5,-180 260.5,-202 448.5,-202 448.5,-180 260.5,-180"/>
<text text-anchor="start" x="280.5" y="-188.2" font-family="Helvetica,sans-Serif" font-size="11.00">service_type</text>
<polygon fill="none" stroke="black" points="448.5,-180 448.5,-202 569.5,-202 569.5,-180 448.5,-180"/>
<text text-anchor="start" x="451.5" y="-188.2" font-family="Helvetica,sans-Serif" font-size="11.00">varchar[2147483647]</text>
<polygon fill="none" stroke="black" points="260.5,-158 260.5,-180 448.5,-180 448.5,-158 260.5,-158"/>
<image xlink:href="../../images/foreignKeys.png" width="11px" height="12px" preserveAspectRatio="xMinYMin meet" x="265.5" y="-175"/>
<text text-anchor="start" x="280.5" y="-166.2" font-family="Helvetica,sans-Serif" font-size="11.00">container_image_registry_id</text>
<polygon fill="none" stroke="black" points="448.5,-158 448.5,-180 569.5,-180 569.5,-158 448.5,-158"/>
<text text-anchor="start" x="451.5" y="-166.2" font-family="Helvetica,sans-Serif" font-size="11.00">int8[19]</text>
<polygon fill="none" stroke="black" points="260.5,-136 260.5,-158 448.5,-158 448.5,-136 260.5,-136"/>
<text text-anchor="start" x="280.5" y="-144.2" font-family="Helvetica,sans-Serif" font-size="11.00">created_on</text>
<polygon fill="none" stroke="black" points="448.5,-136 448.5,-158 569.5,-158 569.5,-136 448.5,-136"/>
<text text-anchor="start" x="451.5" y="-144.2" font-family="Helvetica,sans-Serif" font-size="11.00">timestamp[29,6]</text>
<polygon fill="#ffffff" stroke="none" points="260.5,-118 260.5,-136 359.5,-136 359.5,-118 260.5,-118"/>
<polygon fill="none" stroke="black" points="260.5,-118 260.5,-136 359.5,-136 359.5,-118 260.5,-118"/>
<text text-anchor="start" x="263.5" y="-124.2" font-family="Helvetica,sans-Serif" font-size="11.00">&lt; 2</text>
<polygon fill="#ffffff" stroke="none" points="359.5,-118 359.5,-136 448.5,-136 448.5,-118 359.5,-118"/>
<polygon fill="none" stroke="black" points="359.5,-118 359.5,-136 448.5,-136 448.5,-118 359.5,-118"/>
<text text-anchor="start" x="438.5" y="-124.2" font-family="Helvetica,sans-Serif" font-size="11.00"> &#160;</text>
<polygon fill="#ffffff" stroke="none" points="448.5,-118 448.5,-136 569.5,-136 569.5,-118 448.5,-118"/>
<polygon fill="none" stroke="black" points="448.5,-118 448.5,-136 569.5,-136 569.5,-118 448.5,-118"/>
<text text-anchor="start" x="549.5" y="-124.2" font-family="Helvetica,sans-Serif" font-size="11.00">3 &gt;</text>
<polygon fill="none" stroke="black" stroke-width="2" points="259,-117 259,-423 570,-423 570,-117 259,-117"/>
</a>
</g>
</g>
<!-- container_groups_container_services&#45;&gt;container_services -->
<g id="edge5" class="edge"><title>container_groups_container_services:container_service_id:w&#45;&gt;container_services:id.type:e</title>
<path fill="none" stroke="black" d="M877.254,-634.122C846.719,-600.599 886.098,-433.94 850,-402 756.867,-319.594 694.857,-389 570.5,-389"/>
<polygon fill="black" stroke="black" points="883.188,-636.755 889.04,-643.291 886.844,-638.378 890.5,-640 890.5,-640 890.5,-640 886.844,-638.378 891.96,-636.709 883.188,-636.755 883.188,-636.755"/>
<ellipse fill="none" stroke="black" cx="880.263" cy="-635.457" rx="3.20001" ry="3.20001"/>
</g>
<!-- container_services&#45;&gt;container_projects -->
<g id="edge14" class="edge"><title>container_services:container_project_id:w&#45;&gt;container_projects:id:e</title>
<path fill="none" stroke="black" d="M245.254,-216.298C161.95,-259.333 293.548,-709 187.5,-709"/>
<polygon fill="black" stroke="black" points="251.706,-214.805 260.312,-216.507 255.603,-213.902 259.5,-213 259.5,-213 259.5,-213 255.603,-213.902 258.688,-209.493 251.706,-214.805 251.706,-214.805"/>
<ellipse fill="none" stroke="black" cx="248.589" cy="-215.527" rx="3.2" ry="3.2"/>
</g>
<!-- container_image_registries -->
<g id="node8" class="node"><title>container_image_registries</title>
<g id="a_node8"><a xlink:href="../../tables/container_image_registries.html" xlink:title="container_image_registries" target="_top">
<polygon fill="#ffffff" stroke="none" points="8,-69 8,-149 209,-149 209,-69 8,-69"/>
<polygon fill="#f5f5f5" stroke="none" points="8.5,-127 8.5,-149 209.5,-149 209.5,-127 8.5,-127"/>
<polygon fill="none" stroke="black" points="8.5,-127 8.5,-149 209.5,-149 209.5,-127 8.5,-127"/>
<text text-anchor="start" x="13.5" y="-136.2" font-family="Helvetica,sans-Serif" font-weight="bold" font-size="11.00">container_image_registries</text>
<text text-anchor="start" x="170.5" y="-135.2" font-family="Helvetica,sans-Serif" font-size="11.00">[table]</text>
<polygon fill="none" stroke="black" points="8.5,-105 8.5,-127 209.5,-127 209.5,-105 8.5,-105"/>
<image xlink:href="../../images/primaryKeys.png" width="11px" height="12px" preserveAspectRatio="xMinYMin meet" x="13.5" y="-122"/>
<text text-anchor="start" x="38.5" y="-113.2" font-family="Helvetica,sans-Serif" font-size="11.00">id</text>
<polygon fill="none" stroke="black" points="8.5,-87 8.5,-105 209.5,-105 209.5,-87 8.5,-87"/>
<text text-anchor="start" x="11.5" y="-93.2" font-family="Helvetica,sans-Serif" font-size="11.00">...</text>
<polygon fill="#ffffff" stroke="none" points="8.5,-69 8.5,-87 97.5,-87 97.5,-69 8.5,-69"/>
<polygon fill="none" stroke="black" points="8.5,-69 8.5,-87 97.5,-87 97.5,-69 8.5,-69"/>
<text text-anchor="start" x="11.5" y="-75.2" font-family="Helvetica,sans-Serif" font-size="11.00"> &#160;</text>
<polygon fill="#ffffff" stroke="none" points="97.5,-69 97.5,-87 148.5,-87 148.5,-69 97.5,-69"/>
<polygon fill="none" stroke="black" points="97.5,-69 97.5,-87 148.5,-87 148.5,-69 97.5,-69"/>
<text text-anchor="start" x="138.5" y="-75.2" font-family="Helvetica,sans-Serif" font-size="11.00"> &#160;</text>
<polygon fill="#ffffff" stroke="none" points="148.5,-69 148.5,-87 209.5,-87 209.5,-69 148.5,-69"/>
<polygon fill="none" stroke="black" points="148.5,-69 148.5,-87 209.5,-87 209.5,-69 148.5,-69"/>
<text text-anchor="start" x="189.5" y="-75.2" font-family="Helvetica,sans-Serif" font-size="11.00">2 &gt;</text>
</a>
</g>
</g>
<!-- container_services&#45;&gt;container_image_registries -->
<g id="edge13" class="edge"><title>container_services:container_image_registry_id:w&#45;&gt;container_image_registries:id:e</title>
<path fill="none" stroke="black" d="M245.815,-164.109C231.444,-150.988 236.565,-116 210.5,-116"/>
<polygon fill="black" stroke="black" points="251.967,-166.308 258.288,-172.39 255.733,-167.654 259.5,-169 259.5,-169 259.5,-169 255.733,-167.654 260.712,-165.61 251.967,-166.308 251.967,-166.308"/>
<ellipse fill="none" stroke="black" cx="248.953" cy="-165.231" rx="3.20001" ry="3.20001"/>
</g>
<!-- container_images -->
<g id="node7" class="node"><title>container_images</title>
<g id="a_node7"><a xlink:href="../../tables/container_images.html" xlink:title="container_images" target="_top">
<polygon fill="#ffffff" stroke="none" points="340.5,-37 340.5,-95 488.5,-95 488.5,-37 340.5,-37"/>
<polygon fill="#f5f5f5" stroke="none" points="340.5,-73 340.5,-95 488.5,-95 488.5,-73 340.5,-73"/>
<polygon fill="none" stroke="black" points="340.5,-73 340.5,-95 488.5,-95 488.5,-73 340.5,-73"/>
<text text-anchor="start" x="345.5" y="-82.2" font-family="Helvetica,sans-Serif" font-weight="bold" font-size="11.00">container_images</text>
<text text-anchor="start" x="449.5" y="-81.2" font-family="Helvetica,sans-Serif" font-size="11.00">[table]</text>
<polygon fill="none" stroke="black" points="340.5,-55 340.5,-73 488.5,-73 488.5,-55 340.5,-55"/>
<text text-anchor="start" x="343.5" y="-61.2" font-family="Helvetica,sans-Serif" font-size="11.00">...</text>
<polygon fill="#ffffff" stroke="none" points="340.5,-37 340.5,-55 407.5,-55 407.5,-37 340.5,-37"/>
<polygon fill="none" stroke="black" points="340.5,-37 340.5,-55 407.5,-55 407.5,-37 340.5,-37"/>
<text text-anchor="start" x="343.5" y="-43.2" font-family="Helvetica,sans-Serif" font-size="11.00">&lt; 1</text>
<polygon fill="#ffffff" stroke="none" points="407.5,-37 407.5,-55 442.5,-55 442.5,-37 407.5,-37"/>
<polygon fill="none" stroke="black" points="407.5,-37 407.5,-55 442.5,-55 442.5,-37 407.5,-37"/>
<text text-anchor="start" x="432.5" y="-43.2" font-family="Helvetica,sans-Serif" font-size="11.00"> &#160;</text>
<polygon fill="#ffffff" stroke="none" points="442.5,-37 442.5,-55 488.5,-55 488.5,-37 442.5,-37"/>
<polygon fill="none" stroke="black" points="442.5,-37 442.5,-55 488.5,-55 488.5,-37 442.5,-37"/>
<text text-anchor="start" x="468.5" y="-43.2" font-family="Helvetica,sans-Serif" font-size="11.00">3 &gt;</text>
</a>
</g>
</g>
<!-- container_images&#45;&gt;container_image_registries -->
<g id="edge6" class="edge"><title>container_images:elipses:w&#45;&gt;container_image_registries:id:e</title>
<path fill="none" stroke="black" d="M324.974,-66.6502C290.899,-77.2468 237.182,-116 210.5,-116"/>
<polygon fill="black" stroke="black" points="331.63,-65.4359 340.146,-67.5415 335.565,-64.7179 339.5,-64 339.5,-64 339.5,-64 335.565,-64.7179 338.854,-60.4585 331.63,-65.4359 331.63,-65.4359"/>
<ellipse fill="none" stroke="black" cx="328.482" cy="-66.0103" rx="3.2" ry="3.2"/>
</g>
<!-- container_limits -->
<g id="node9" class="node"><title>container_limits</title>
<g id="a_node9"><a xlink:href="../../tables/container_limits.html" xlink:title="container_limits" target="_top">
<polygon fill="#ffffff" stroke="none" points="343.5,-524 343.5,-582 485.5,-582 485.5,-524 343.5,-524"/>
<polygon fill="#f5f5f5" stroke="none" points="343.5,-560 343.5,-582 485.5,-582 485.5,-560 343.5,-560"/>
<polygon fill="none" stroke="black" points="343.5,-560 343.5,-582 485.5,-582 485.5,-560 343.5,-560"/>
<text text-anchor="start" x="348.5" y="-569.2" font-family="Helvetica,sans-Serif" font-weight="bold" font-size="11.00">container_limits</text>
<text text-anchor="start" x="446.5" y="-568.2" font-family="Helvetica,sans-Serif" font-size="11.00">[table]</text>
<polygon fill="none" stroke="black" points="343.5,-542 343.5,-560 485.5,-560 485.5,-542 343.5,-542"/>
<text text-anchor="start" x="346.5" y="-548.2" font-family="Helvetica,sans-Serif" font-size="11.00">...</text>
<polygon fill="#ffffff" stroke="none" points="343.5,-524 343.5,-542 407.5,-542 407.5,-524 343.5,-524"/>
<polygon fill="none" stroke="black" points="343.5,-524 343.5,-542 407.5,-542 407.5,-524 343.5,-524"/>
<text text-anchor="start" x="346.5" y="-530.2" font-family="Helvetica,sans-Serif" font-size="11.00">&lt; 1</text>
<polygon fill="#ffffff" stroke="none" points="407.5,-524 407.5,-542 441.5,-542 441.5,-524 407.5,-524"/>
<polygon fill="none" stroke="black" points="407.5,-524 407.5,-542 441.5,-542 441.5,-524 407.5,-524"/>
<text text-anchor="start" x="431.5" y="-530.2" font-family="Helvetica,sans-Serif" font-size="11.00"> &#160;</text>
<polygon fill="#ffffff" stroke="none" points="441.5,-524 441.5,-542 485.5,-542 485.5,-524 441.5,-524"/>
<polygon fill="none" stroke="black" points="441.5,-524 441.5,-542 485.5,-542 485.5,-524 441.5,-524"/>
<text text-anchor="start" x="465.5" y="-530.2" font-family="Helvetica,sans-Serif" font-size="11.00">1 &gt;</text>
</a>
</g>
</g>
<!-- container_limits&#45;&gt;container_projects -->
<g id="edge7" class="edge"><title>container_limits:elipses:w&#45;&gt;container_projects:id:e</title>
<path fill="none" stroke="black" d="M327.864,-551.444C293.86,-553.713 279.082,-564.978 250,-592 206.812,-632.129 246.454,-709 187.5,-709"/>
<polygon fill="black" stroke="black" points="334.504,-551.243 342.609,-554.598 338.502,-551.121 342.5,-551 342.5,-551 342.5,-551 338.502,-551.121 342.391,-547.402 334.504,-551.243 334.504,-551.243"/>
<ellipse fill="none" stroke="black" cx="331.305" cy="-551.34" rx="3.2" ry="3.2"/>
</g>
<!-- container_quotas -->
<g id="node10" class="node"><title>container_quotas</title>
<g id="a_node10"><a xlink:href="../../tables/container_quotas.html" xlink:title="container_quotas" target="_top">
<polygon fill="#ffffff" stroke="none" points="340.5,-445 340.5,-503 488.5,-503 488.5,-445 340.5,-445"/>
<polygon fill="#f5f5f5" stroke="none" points="340.5,-481 340.5,-503 488.5,-503 488.5,-481 340.5,-481"/>
<polygon fill="none" stroke="black" points="340.5,-481 340.5,-503 488.5,-503 488.5,-481 340.5,-481"/>
<text text-anchor="start" x="345.5" y="-490.2" font-family="Helvetica,sans-Serif" font-weight="bold" font-size="11.00">container_quotas</text>
<text text-anchor="start" x="449.5" y="-489.2" font-family="Helvetica,sans-Serif" font-size="11.00">[table]</text>
<polygon fill="none" stroke="black" points="340.5,-463 340.5,-481 488.5,-481 488.5,-463 340.5,-463"/>
<text text-anchor="start" x="343.5" y="-469.2" font-family="Helvetica,sans-Serif" font-size="11.00">...</text>
<polygon fill="#ffffff" stroke="none" points="340.5,-445 340.5,-463 407.5,-463 407.5,-445 340.5,-445"/>
<polygon fill="none" stroke="black" points="340.5,-445 340.5,-463 407.5,-463 407.5,-445 340.5,-445"/>
<text text-anchor="start" x="343.5" y="-451.2" font-family="Helvetica,sans-Serif" font-size="11.00">&lt; 1</text>
<polygon fill="#ffffff" stroke="none" points="407.5,-445 407.5,-463 442.5,-463 442.5,-445 407.5,-445"/>
<polygon fill="none" stroke="black" points="407.5,-445 407.5,-463 442.5,-463 442.5,-445 407.5,-445"/>
<text text-anchor="start" x="432.5" y="-451.2" font-family="Helvetica,sans-Serif" font-size="11.00"> &#160;</text>
<polygon fill="#ffffff" stroke="none" points="442.5,-445 442.5,-463 488.5,-463 488.5,-445 442.5,-445"/>
<polygon fill="none" stroke="black" points="442.5,-445 442.5,-463 488.5,-463 488.5,-445 442.5,-445"/>
<text text-anchor="start" x="468.5" y="-451.2" font-family="Helvetica,sans-Serif" font-size="11.00">2 &gt;</text>
</a>
</g>
</g>
<!-- container_quotas&#45;&gt;container_projects -->
<g id="edge8" class="edge"><title>container_quotas:elipses:w&#45;&gt;container_projects:id:e</title>
<path fill="none" stroke="black" d="M324.724,-472.392C291.514,-474.357 275.499,-484.216 250,-513 189.371,-581.44 278.933,-709 187.5,-709"/>
<polygon fill="black" stroke="black" points="331.503,-472.212 339.595,-475.599 335.501,-472.106 339.5,-472 339.5,-472 339.5,-472 335.501,-472.106 339.405,-468.401 331.503,-472.212 331.503,-472.212"/>
<ellipse fill="none" stroke="black" cx="328.304" cy="-472.297" rx="3.2" ry="3.2"/>
</g>
<!-- container_routes -->
<g id="node11" class="node"><title>container_routes</title>
<g id="a_node11"><a xlink:href="../../tables/container_routes.html" xlink:title="container_routes" target="_top">
<polygon fill="#ffffff" stroke="none" points="658.5,-606 658.5,-752 803.5,-752 803.5,-606 658.5,-606"/>
<polygon fill="#f5f5f5" stroke="none" points="659,-730 659,-752 804,-752 804,-730 659,-730"/>
<polygon fill="none" stroke="black" points="659,-730 659,-752 804,-752 804,-730 659,-730"/>
<text text-anchor="start" x="664" y="-739.2" font-family="Helvetica,sans-Serif" font-weight="bold" font-size="11.00">container_routes</text>
<text text-anchor="start" x="765" y="-738.2" font-family="Helvetica,sans-Serif" font-size="11.00">[table]</text>
<polygon fill="none" stroke="black" points="659,-708 659,-730 804,-730 804,-708 659,-708"/>
<image xlink:href="../../images/primaryKeys.png" width="11px" height="12px" preserveAspectRatio="xMinYMin meet" x="664" y="-725"/>
<text text-anchor="start" x="681" y="-716.2" font-family="Helvetica,sans-Serif" font-size="11.00">id</text>
<polygon fill="#ffffff" stroke="none" points="659,-686 659,-708 804,-708 804,-686 659,-686"/>
<polygon fill="none" stroke="black" points="659,-686 659,-708 804,-708 804,-686 659,-686"/>
<text text-anchor="start" x="681" y="-694.2" font-family="Helvetica,sans-Serif" font-size="11.00">ems_id</text>
<polygon fill="none" stroke="black" points="659,-664 659,-686 804,-686 804,-664 659,-664"/>
<image xlink:href="../../images/foreignKeys.png" width="11px" height="12px" preserveAspectRatio="xMinYMin meet" x="664" y="-681"/>
<text text-anchor="start" x="681" y="-672.2" font-family="Helvetica,sans-Serif" font-size="11.00">container_project_id</text>
<polygon fill="none" stroke="black" points="659,-642 659,-664 804,-664 804,-642 659,-642"/>
<image xlink:href="../../images/foreignKeys.png" width="11px" height="12px" preserveAspectRatio="xMinYMin meet" x="664" y="-659"/>
<text text-anchor="start" x="681" y="-650.2" font-family="Helvetica,sans-Serif" font-size="11.00">container_service_id</text>
<polygon fill="none" stroke="black" points="659,-624 659,-642 804,-642 804,-624 659,-624"/>
<text text-anchor="start" x="662" y="-630.2" font-family="Helvetica,sans-Serif" font-size="11.00">...</text>
<polygon fill="#ffffff" stroke="none" points="659,-606 659,-624 730,-624 730,-606 659,-606"/>
<polygon fill="none" stroke="black" points="659,-606 659,-624 730,-624 730,-606 659,-606"/>
<text text-anchor="start" x="662" y="-612.2" font-family="Helvetica,sans-Serif" font-size="11.00">&lt; 2</text>
<polygon fill="#ffffff" stroke="none" points="730,-606 730,-624 767,-624 767,-606 730,-606"/>
<polygon fill="none" stroke="black" points="730,-606 730,-624 767,-624 767,-606 730,-606"/>
<text text-anchor="start" x="757" y="-612.2" font-family="Helvetica,sans-Serif" font-size="11.00"> &#160;</text>
<polygon fill="#ffffff" stroke="none" points="767,-606 767,-624 804,-624 804,-606 767,-606"/>
<polygon fill="none" stroke="black" points="767,-606 767,-624 804,-624 804,-606 767,-606"/>
<text text-anchor="start" x="794" y="-612.2" font-family="Helvetica,sans-Serif" font-size="11.00"> &#160;</text>
</a>
</g>
</g>
<!-- container_routes&#45;&gt;container_projects -->
<g id="edge10" class="edge"><title>container_routes:container_project_id:w&#45;&gt;container_projects:id:e</title>
<path fill="none" stroke="black" d="M643.422,-676.714C589.588,-691.076 639.9,-791.795 579,-829 516.61,-867.115 312.508,-866.922 250,-829 198.588,-797.81 247.634,-709 187.5,-709"/>
<polygon fill="black" stroke="black" points="650.055,-675.934 658.42,-678.575 654.027,-675.467 658,-675 658,-675 658,-675 654.027,-675.467 657.58,-671.425 650.055,-675.934 650.055,-675.934"/>
<ellipse fill="none" stroke="black" cx="646.877" cy="-676.308" rx="3.2" ry="3.2"/>
</g>
<!-- container_routes&#45;&gt;container_services -->
<g id="edge11" class="edge"><title>container_routes:container_service_id:w&#45;&gt;container_services:id.type:e</title>
<path fill="none" stroke="black" d="M643.614,-651.279C603.257,-640.145 629.301,-577.105 612,-525 592.085,-465.024 633.696,-389 570.5,-389"/>
<polygon fill="black" stroke="black" points="650.057,-652.05 657.572,-656.575 654.028,-652.525 658,-653 658,-653 658,-653 654.028,-652.525 658.428,-649.425 650.057,-652.05 650.057,-652.05"/>
<ellipse fill="none" stroke="black" cx="646.879" cy="-651.67" rx="3.2" ry="3.2"/>
</g>
<!-- container_service_port_configs -->
<g id="node12" class="node"><title>container_service_port_configs</title>
<g id="a_node12"><a xlink:href="../../tables/container_service_port_configs.html" xlink:title="container_service_port_configs" target="_top">
<polygon fill="#ffffff" stroke="none" points="620,-413 620,-515 842,-515 842,-413 620,-413"/>
<polygon fill="#f5f5f5" stroke="none" points="620,-493 620,-515 842,-515 842,-493 620,-493"/>
<polygon fill="none" stroke="black" points="620,-493 620,-515 842,-515 842,-493 620,-493"/>
<text text-anchor="start" x="625" y="-502.2" font-family="Helvetica,sans-Serif" font-weight="bold" font-size="11.00">container_service_port_configs</text>
<text text-anchor="start" x="803" y="-501.2" font-family="Helvetica,sans-Serif" font-size="11.00">[table]</text>
<polygon fill="none" stroke="black" points="620,-471 620,-493 842,-493 842,-471 620,-471"/>
<image xlink:href="../../images/primaryKeys.png" width="11px" height="12px" preserveAspectRatio="xMinYMin meet" x="625" y="-488"/>
<text text-anchor="start" x="649" y="-479.2" font-family="Helvetica,sans-Serif" font-size="11.00">id</text>
<polygon fill="none" stroke="black" points="620,-449 620,-471 842,-471 842,-449 620,-449"/>
<image xlink:href="../../images/foreignKeys.png" width="11px" height="12px" preserveAspectRatio="xMinYMin meet" x="625" y="-466"/>
<text text-anchor="start" x="649" y="-457.2" font-family="Helvetica,sans-Serif" font-size="11.00">container_service_id</text>
<polygon fill="none" stroke="black" points="620,-431 620,-449 842,-449 842,-431 620,-431"/>
<text text-anchor="start" x="623" y="-437.2" font-family="Helvetica,sans-Serif" font-size="11.00">...</text>
<polygon fill="#ffffff" stroke="none" points="620,-413 620,-431 729,-431 729,-413 620,-413"/>
<polygon fill="none" stroke="black" points="620,-413 620,-431 729,-431 729,-413 620,-413"/>
<text text-anchor="start" x="623" y="-419.2" font-family="Helvetica,sans-Serif" font-size="11.00">&lt; 1</text>
<polygon fill="#ffffff" stroke="none" points="729,-413 729,-431 785,-431 785,-413 729,-413"/>
<polygon fill="none" stroke="black" points="729,-413 729,-431 785,-431 785,-413 729,-413"/>
<text text-anchor="start" x="775" y="-419.2" font-family="Helvetica,sans-Serif" font-size="11.00"> &#160;</text>
<polygon fill="#ffffff" stroke="none" points="785,-413 785,-431 842,-431 842,-413 785,-413"/>
<polygon fill="none" stroke="black" points="785,-413 785,-431 842,-431 842,-413 785,-413"/>
<text text-anchor="start" x="832" y="-419.2" font-family="Helvetica,sans-Serif" font-size="11.00"> &#160;</text>
</a>
</g>
</g>
<!-- container_service_port_configs&#45;&gt;container_services -->
<g id="edge12" class="edge"><title>container_service_port_configs:container_service_id:w&#45;&gt;container_services:id.type:e</title>
<path fill="none" stroke="black" d="M604.948,-454.894C588.169,-438.614 602.445,-389 570.5,-389"/>
<polygon fill="black" stroke="black" points="611.481,-457.268 617.77,-463.384 615.241,-458.634 619,-460 619,-460 619,-460 615.241,-458.634 620.23,-456.616 611.481,-457.268 611.481,-457.268"/>
<ellipse fill="none" stroke="black" cx="608.473" cy="-456.175" rx="3.20001" ry="3.20001"/>
</g>
<!-- container_templates -->
<g id="node13" class="node"><title>container_templates</title>
<g id="a_node13"><a xlink:href="../../tables/container_templates.html" xlink:title="container_templates" target="_top">
<polygon fill="#ffffff" stroke="none" points="331,-761 331,-819 498,-819 498,-761 331,-761"/>
<polygon fill="#f5f5f5" stroke="none" points="331.5,-797 331.5,-819 498.5,-819 498.5,-797 331.5,-797"/>
<polygon fill="none" stroke="black" points="331.5,-797 331.5,-819 498.5,-819 498.5,-797 331.5,-797"/>
<text text-anchor="start" x="336.5" y="-806.2" font-family="Helvetica,sans-Serif" font-weight="bold" font-size="11.00">container_templates</text>
<text text-anchor="start" x="459.5" y="-805.2" font-family="Helvetica,sans-Serif" font-size="11.00">[table]</text>
<polygon fill="none" stroke="black" points="331.5,-779 331.5,-797 498.5,-797 498.5,-779 331.5,-779"/>
<text text-anchor="start" x="334.5" y="-785.2" font-family="Helvetica,sans-Serif" font-size="11.00">...</text>
<polygon fill="#ffffff" stroke="none" points="331.5,-761 331.5,-779 408.5,-779 408.5,-761 331.5,-761"/>
<polygon fill="none" stroke="black" points="331.5,-761 331.5,-779 408.5,-779 408.5,-761 331.5,-761"/>
<text text-anchor="start" x="334.5" y="-767.2" font-family="Helvetica,sans-Serif" font-size="11.00">&lt; 1</text>
<polygon fill="#ffffff" stroke="none" points="408.5,-761 408.5,-779 448.5,-779 448.5,-761 408.5,-761"/>
<polygon fill="none" stroke="black" points="408.5,-761 408.5,-779 448.5,-779 448.5,-761 408.5,-761"/>
<text text-anchor="start" x="438.5" y="-767.2" font-family="Helvetica,sans-Serif" font-size="11.00"> &#160;</text>
<polygon fill="#ffffff" stroke="none" points="448.5,-761 448.5,-779 498.5,-779 498.5,-761 448.5,-761"/>
<polygon fill="none" stroke="black" points="448.5,-761 448.5,-779 498.5,-779 498.5,-761 448.5,-761"/>
<text text-anchor="start" x="478.5" y="-767.2" font-family="Helvetica,sans-Serif" font-size="11.00">1 &gt;</text>
</a>
</g>
</g>
<!-- container_templates&#45;&gt;container_projects -->
<g id="edge15" class="edge"><title>container_templates:elipses:w&#45;&gt;container_projects:id:e</title>
<path fill="none" stroke="black" d="M315.975,-787C288.655,-782.885 279.795,-766.698 250,-750 221.019,-733.759 220.721,-709 187.5,-709"/>
<polygon fill="black" stroke="black" points="322.519,-787.45 330.253,-791.591 326.509,-787.725 330.5,-788 330.5,-788 330.5,-788 326.509,-787.725 330.747,-784.409 322.519,-787.45 322.519,-787.45"/>
<ellipse fill="none" stroke="black" cx="319.326" cy="-787.23" rx="3.2" ry="3.2"/>
</g>
<!-- persistent_volume_claims -->
<g id="node14" class="node"><title>persistent_volume_claims</title>
<g id="a_node14"><a xlink:href="../../tables/persistent_volume_claims.html" xlink:title="persistent_volume_claims" target="_top">
<polygon fill="#ffffff" stroke="none" points="316.5,-682 316.5,-740 512.5,-740 512.5,-682 316.5,-682"/>
<polygon fill="#f5f5f5" stroke="none" points="316.5,-718 316.5,-740 512.5,-740 512.5,-718 316.5,-718"/>
<polygon fill="none" stroke="black" points="316.5,-718 316.5,-740 512.5,-740 512.5,-718 316.5,-718"/>
<text text-anchor="start" x="321.5" y="-727.2" font-family="Helvetica,sans-Serif" font-weight="bold" font-size="11.00">persistent_volume_claims</text>
<text text-anchor="start" x="473.5" y="-726.2" font-family="Helvetica,sans-Serif" font-size="11.00">[table]</text>
<polygon fill="none" stroke="black" points="316.5,-700 316.5,-718 512.5,-718 512.5,-700 316.5,-700"/>
<text text-anchor="start" x="319.5" y="-706.2" font-family="Helvetica,sans-Serif" font-size="11.00">...</text>
<polygon fill="#ffffff" stroke="none" points="316.5,-682 316.5,-700 407.5,-700 407.5,-682 316.5,-682"/>
<polygon fill="none" stroke="black" points="316.5,-682 316.5,-700 407.5,-700 407.5,-682 316.5,-682"/>
<text text-anchor="start" x="319.5" y="-688.2" font-family="Helvetica,sans-Serif" font-size="11.00">&lt; 1</text>
<polygon fill="#ffffff" stroke="none" points="407.5,-682 407.5,-700 454.5,-700 454.5,-682 407.5,-682"/>
<polygon fill="none" stroke="black" points="407.5,-682 407.5,-700 454.5,-700 454.5,-682 407.5,-682"/>
<text text-anchor="start" x="444.5" y="-688.2" font-family="Helvetica,sans-Serif" font-size="11.00"> &#160;</text>
<polygon fill="#ffffff" stroke="none" points="454.5,-682 454.5,-700 512.5,-700 512.5,-682 454.5,-682"/>
<polygon fill="none" stroke="black" points="454.5,-682 454.5,-700 512.5,-700 512.5,-682 454.5,-682"/>
<text text-anchor="start" x="492.5" y="-688.2" font-family="Helvetica,sans-Serif" font-size="11.00">1 &gt;</text>
</a>
</g>
</g>
<!-- persistent_volume_claims&#45;&gt;container_projects -->
<g id="edge16" class="edge"><title>persistent_volume_claims:elipses:w&#45;&gt;container_projects:id:e</title>
<path fill="none" stroke="black" d="M300.846,-709C255.64,-709 239.167,-709 187.5,-709"/>
<polygon fill="black" stroke="black" points="307.5,-709 315.5,-712.6 311.5,-709 315.5,-709 315.5,-709 315.5,-709 311.5,-709 315.5,-705.4 307.5,-709 307.5,-709"/>
<ellipse fill="none" stroke="black" cx="304.3" cy="-709" rx="3.2" ry="3.2"/>
</g>
</g>
</svg>
