<?xml version="1.0" encoding="UTF-8" standalone="no"?>
<!DOCTYPE svg PUBLIC "-//W3C//DTD SVG 1.1//EN"
 "http://www.w3.org/Graphics/SVG/1.1/DTD/svg11.dtd">
<!-- Generated by graphviz version 2.38.0 (20140413.2041)
 -->
<!-- Title: twoDegreesRelationshipsDiagram Pages: 1 -->
<svg width="1514pt" height="652pt"
 viewBox="0.00 0.00 1514.00 651.63" xmlns="http://www.w3.org/2000/svg" xmlns:xlink="http://www.w3.org/1999/xlink">
<g id="graph0" class="graph" transform="scale(1 1) rotate(0) translate(4 647.63)">
<title>twoDegreesRelationshipsDiagram</title>
<polygon fill="#ffffff" stroke="none" points="-4,4 -4,-647.63 1510,-647.63 1510,4 -4,4"/>
<text text-anchor="middle" x="74.5" y="-7.2" font-family="Helvetica,sans-Serif" font-size="11.00">Generated by SchemaSpy</text>
<!-- container_build_pods -->
<g id="node1" class="node"><title>container_build_pods</title>
<g id="a_node1"><a xlink:href="../../tables/container_build_pods.html" xlink:title="container_build_pods" target="_top">
<polygon fill="#ffffff" stroke="none" points="459,-37 459,-433 796,-433 796,-37 459,-37"/>
<polygon fill="#f5f5f5" stroke="none" points="461.5,-409 461.5,-431 794.5,-431 794.5,-409 461.5,-409"/>
<polygon fill="none" stroke="black" points="461.5,-409 461.5,-431 794.5,-431 794.5,-409 461.5,-409"/>
<text text-anchor="start" x="466.5" y="-418.2" font-family="Helvetica,sans-Serif" font-weight="bold" font-size="11.00">container_build_pods</text>
<text text-anchor="start" x="755.5" y="-417.2" font-family="Helvetica,sans-Serif" font-size="11.00">[table]</text>
<polygon fill="none" stroke="black" points="461.5,-387 461.5,-409 673.5,-409 673.5,-387 461.5,-387"/>
<image xlink:href="../../images/primaryKeys.png" width="11px" height="12px" preserveAspectRatio="xMinYMin meet" x="466.5" y="-404"/>
<text text-anchor="start" x="481.5" y="-395.2" font-family="Helvetica,sans-Serif" font-size="11.00">id</text>
<polygon fill="none" stroke="black" points="673.5,-387 673.5,-409 794.5,-409 794.5,-387 673.5,-387"/>
<text text-anchor="start" x="676.5" y="-395.2" font-family="Helvetica,sans-Serif" font-size="11.00">bigserial[19]</text>
<polygon fill="none" stroke="black" points="461.5,-365 461.5,-387 673.5,-387 673.5,-365 461.5,-365"/>
<text text-anchor="start" x="481.5" y="-373.2" font-family="Helvetica,sans-Serif" font-size="11.00">ems_ref</text>
<polygon fill="none" stroke="black" points="673.5,-365 673.5,-387 794.5,-387 794.5,-365 673.5,-365"/>
<text text-anchor="start" x="676.5" y="-373.2" font-family="Helvetica,sans-Serif" font-size="11.00">varchar[2147483647]</text>
<polygon fill="none" stroke="black" points="461.5,-343 461.5,-365 673.5,-365 673.5,-343 461.5,-343"/>
<text text-anchor="start" x="481.5" y="-351.2" font-family="Helvetica,sans-Serif" font-size="11.00">name</text>
<polygon fill="none" stroke="black" points="673.5,-343 673.5,-365 794.5,-365 794.5,-343 673.5,-343"/>
<text text-anchor="start" x="676.5" y="-351.2" font-family="Helvetica,sans-Serif" font-size="11.00">varchar[2147483647]</text>
<polygon fill="none" stroke="black" points="461.5,-321 461.5,-343 673.5,-343 673.5,-321 461.5,-321"/>
<text text-anchor="start" x="481.5" y="-329.2" font-family="Helvetica,sans-Serif" font-size="11.00">ems_created_on</text>
<polygon fill="none" stroke="black" points="673.5,-321 673.5,-343 794.5,-343 794.5,-321 673.5,-321"/>
<text text-anchor="start" x="676.5" y="-329.2" font-family="Helvetica,sans-Serif" font-size="11.00">timestamp[29,6]</text>
<polygon fill="none" stroke="black" points="461.5,-299 461.5,-321 673.5,-321 673.5,-299 461.5,-299"/>
<text text-anchor="start" x="481.5" y="-307.2" font-family="Helvetica,sans-Serif" font-size="11.00">resource_version</text>
<polygon fill="none" stroke="black" points="673.5,-299 673.5,-321 794.5,-321 794.5,-299 673.5,-299"/>
<text text-anchor="start" x="676.5" y="-307.2" font-family="Helvetica,sans-Serif" font-size="11.00">varchar[2147483647]</text>
<polygon fill="none" stroke="black" points="461.5,-277 461.5,-299 673.5,-299 673.5,-277 461.5,-277"/>
<text text-anchor="start" x="481.5" y="-285.2" font-family="Helvetica,sans-Serif" font-size="11.00">namespace</text>
<polygon fill="none" stroke="black" points="673.5,-277 673.5,-299 794.5,-299 794.5,-277 673.5,-277"/>
<text text-anchor="start" x="676.5" y="-285.2" font-family="Helvetica,sans-Serif" font-size="11.00">varchar[2147483647]</text>
<polygon fill="none" stroke="black" points="461.5,-255 461.5,-277 673.5,-277 673.5,-255 461.5,-255"/>
<text text-anchor="start" x="481.5" y="-263.2" font-family="Helvetica,sans-Serif" font-size="11.00">message</text>
<polygon fill="none" stroke="black" points="673.5,-255 673.5,-277 794.5,-277 794.5,-255 673.5,-255"/>
<text text-anchor="start" x="676.5" y="-263.2" font-family="Helvetica,sans-Serif" font-size="11.00">varchar[2147483647]</text>
<polygon fill="none" stroke="black" points="461.5,-233 461.5,-255 673.5,-255 673.5,-233 461.5,-233"/>
<text text-anchor="start" x="481.5" y="-241.2" font-family="Helvetica,sans-Serif" font-size="11.00">phase</text>
<polygon fill="none" stroke="black" points="673.5,-233 673.5,-255 794.5,-255 794.5,-233 673.5,-233"/>
<text text-anchor="start" x="676.5" y="-241.2" font-family="Helvetica,sans-Serif" font-size="11.00">varchar[2147483647]</text>
<polygon fill="none" stroke="black" points="461.5,-211 461.5,-233 673.5,-233 673.5,-211 461.5,-211"/>
<text text-anchor="start" x="481.5" y="-219.2" font-family="Helvetica,sans-Serif" font-size="11.00">reason</text>
<polygon fill="none" stroke="black" points="673.5,-211 673.5,-233 794.5,-233 794.5,-211 673.5,-211"/>
<text text-anchor="start" x="676.5" y="-219.2" font-family="Helvetica,sans-Serif" font-size="11.00">varchar[2147483647]</text>
<polygon fill="none" stroke="black" points="461.5,-189 461.5,-211 673.5,-211 673.5,-189 461.5,-189"/>
<text text-anchor="start" x="481.5" y="-197.2" font-family="Helvetica,sans-Serif" font-size="11.00">output_docker_image_reference</text>
<polygon fill="none" stroke="black" points="673.5,-189 673.5,-211 794.5,-211 794.5,-189 673.5,-189"/>
<text text-anchor="start" x="676.5" y="-197.2" font-family="Helvetica,sans-Serif" font-size="11.00">varchar[2147483647]</text>
<polygon fill="none" stroke="black" points="461.5,-167 461.5,-189 673.5,-189 673.5,-167 461.5,-167"/>
<text text-anchor="start" x="481.5" y="-175.2" font-family="Helvetica,sans-Serif" font-size="11.00">completion_timestamp</text>
<polygon fill="none" stroke="black" points="673.5,-167 673.5,-189 794.5,-189 794.5,-167 673.5,-167"/>
<text text-anchor="start" x="676.5" y="-175.2" font-family="Helvetica,sans-Serif" font-size="11.00">varchar[2147483647]</text>
<polygon fill="none" stroke="black" points="461.5,-145 461.5,-167 673.5,-167 673.5,-145 461.5,-145"/>
<text text-anchor="start" x="481.5" y="-153.2" font-family="Helvetica,sans-Serif" font-size="11.00">start_timestamp</text>
<polygon fill="none" stroke="black" points="673.5,-145 673.5,-167 794.5,-167 794.5,-145 673.5,-145"/>
<text text-anchor="start" x="676.5" y="-153.2" font-family="Helvetica,sans-Serif" font-size="11.00">varchar[2147483647]</text>
<polygon fill="none" stroke="black" points="461.5,-123 461.5,-145 673.5,-145 673.5,-123 461.5,-123"/>
<text text-anchor="start" x="481.5" y="-131.2" font-family="Helvetica,sans-Serif" font-size="11.00">duration</text>
<polygon fill="none" stroke="black" points="673.5,-123 673.5,-145 794.5,-145 794.5,-123 673.5,-123"/>
<text text-anchor="start" x="676.5" y="-131.2" font-family="Helvetica,sans-Serif" font-size="11.00">int8[19]</text>
<polygon fill="none" stroke="black" points="461.5,-101 461.5,-123 673.5,-123 673.5,-101 461.5,-101"/>
<image xlink:href="../../images/foreignKeys.png" width="11px" height="12px" preserveAspectRatio="xMinYMin meet" x="466.5" y="-118"/>
<text text-anchor="start" x="481.5" y="-109.2" font-family="Helvetica,sans-Serif" font-size="11.00">container_build_id</text>
<polygon fill="none" stroke="black" points="673.5,-101 673.5,-123 794.5,-123 794.5,-101 673.5,-101"/>
<text text-anchor="start" x="676.5" y="-109.2" font-family="Helvetica,sans-Serif" font-size="11.00">int8[19]</text>
<polygon fill="#ffffff" stroke="none" points="461.5,-79 461.5,-101 673.5,-101 673.5,-79 461.5,-79"/>
<polygon fill="none" stroke="black" points="461.5,-79 461.5,-101 673.5,-101 673.5,-79 461.5,-79"/>
<text text-anchor="start" x="481.5" y="-87.2" font-family="Helvetica,sans-Serif" font-size="11.00">ems_id</text>
<polygon fill="none" stroke="black" points="673.5,-79 673.5,-101 794.5,-101 794.5,-79 673.5,-79"/>
<text text-anchor="start" x="676.5" y="-87.2" font-family="Helvetica,sans-Serif" font-size="11.00">int8[19]</text>
<polygon fill="none" stroke="black" points="461.5,-57 461.5,-79 673.5,-79 673.5,-57 461.5,-57"/>
<text text-anchor="start" x="481.5" y="-65.2" font-family="Helvetica,sans-Serif" font-size="11.00">created_on</text>
<polygon fill="none" stroke="black" points="673.5,-57 673.5,-79 794.5,-79 794.5,-57 673.5,-57"/>
<text text-anchor="start" x="676.5" y="-65.2" font-family="Helvetica,sans-Serif" font-size="11.00">timestamp[29,6]</text>
<polygon fill="#ffffff" stroke="none" points="461.5,-39 461.5,-57 572.5,-57 572.5,-39 461.5,-39"/>
<polygon fill="none" stroke="black" points="461.5,-39 461.5,-57 572.5,-57 572.5,-39 461.5,-39"/>
<text text-anchor="start" x="464.5" y="-45.2" font-family="Helvetica,sans-Serif" font-size="11.00">&lt; 1</text>
<polygon fill="#ffffff" stroke="none" points="572.5,-39 572.5,-57 673.5,-57 673.5,-39 572.5,-39"/>
<polygon fill="none" stroke="black" points="572.5,-39 572.5,-57 673.5,-57 673.5,-39 572.5,-39"/>
<text text-anchor="start" x="663.5" y="-45.2" font-family="Helvetica,sans-Serif" font-size="11.00"> &#160;</text>
<polygon fill="#ffffff" stroke="none" points="673.5,-39 673.5,-57 794.5,-57 794.5,-39 673.5,-39"/>
<polygon fill="none" stroke="black" points="673.5,-39 673.5,-57 794.5,-57 794.5,-39 673.5,-39"/>
<text text-anchor="start" x="774.5" y="-45.2" font-family="Helvetica,sans-Serif" font-size="11.00">1 &gt;</text>
<polygon fill="none" stroke="black" stroke-width="2" points="460,-38 460,-432 795,-432 795,-38 460,-38"/>
</a>
</g>
</g>
<!-- container_builds -->
<g id="node2" class="node"><title>container_builds</title>
<g id="a_node2"><a xlink:href="../../tables/container_builds.html" xlink:title="container_builds" target="_top">
<polygon fill="#ffffff" stroke="none" points="212,-165 212,-289 410,-289 410,-165 212,-165"/>
<polygon fill="#f5f5f5" stroke="none" points="212,-267 212,-289 410,-289 410,-267 212,-267"/>
<polygon fill="none" stroke="black" points="212,-267 212,-289 410,-289 410,-267 212,-267"/>
<text text-anchor="start" x="217" y="-276.2" font-family="Helvetica,sans-Serif" font-weight="bold" font-size="11.00">container_builds</text>
<text text-anchor="start" x="371" y="-275.2" font-family="Helvetica,sans-Serif" font-size="11.00">[table]</text>
<polygon fill="none" stroke="black" points="212,-245 212,-267 410,-267 410,-245 212,-245"/>
<image xlink:href="../../images/primaryKeys.png" width="11px" height="12px" preserveAspectRatio="xMinYMin meet" x="217" y="-262"/>
<text text-anchor="start" x="232" y="-253.2" font-family="Helvetica,sans-Serif" font-size="11.00">id</text>
<polygon fill="none" stroke="black" points="212,-223 212,-245 410,-245 410,-223 212,-223"/>
<image xlink:href="../../images/foreignKeys.png" width="11px" height="12px" preserveAspectRatio="xMinYMin meet" x="217" y="-240"/>
<text text-anchor="start" x="232" y="-231.2" font-family="Helvetica,sans-Serif" font-size="11.00">container_project_id</text>
<polygon fill="#ffffff" stroke="none" points="212,-201 212,-223 410,-223 410,-201 212,-201"/>
<polygon fill="none" stroke="black" points="212,-201 212,-223 410,-223 410,-201 212,-201"/>
<text text-anchor="start" x="232" y="-209.2" font-family="Helvetica,sans-Serif" font-size="11.00">ems_id</text>
<polygon fill="none" stroke="black" points="212,-183 212,-201 410,-201 410,-183 212,-183"/>
<text text-anchor="start" x="215" y="-189.2" font-family="Helvetica,sans-Serif" font-size="11.00">...</text>
<polygon fill="#ffffff" stroke="none" points="212,-165 212,-183 304,-183 304,-165 212,-165"/>
<polygon fill="none" stroke="black" points="212,-165 212,-183 304,-183 304,-165 212,-165"/>
<text text-anchor="start" x="215" y="-171.2" font-family="Helvetica,sans-Serif" font-size="11.00">&lt; 1</text>
<polygon fill="#ffffff" stroke="none" points="304,-165 304,-183 352,-183 352,-165 304,-165"/>
<polygon fill="none" stroke="black" points="304,-165 304,-183 352,-183 352,-165 304,-165"/>
<text text-anchor="start" x="342" y="-171.2" font-family="Helvetica,sans-Serif" font-size="11.00"> &#160;</text>
<polygon fill="#ffffff" stroke="none" points="352,-165 352,-183 410,-183 410,-165 352,-165"/>
<polygon fill="none" stroke="black" points="352,-165 352,-183 410,-183 410,-165 352,-165"/>
<text text-anchor="start" x="390" y="-171.2" font-family="Helvetica,sans-Serif" font-size="11.00">1 &gt;</text>
</a>
</g>
</g>
<!-- container_build_pods&#45;&gt;container_builds -->
<g id="edge1" class="edge"><title>container_build_pods:container_build_id:w&#45;&gt;container_builds:id:e</title>
<path fill="none" stroke="black" d="M446.259,-115.008C406.446,-135.687 472.86,-256 411,-256"/>
<polygon fill="black" stroke="black" points="452.673,-113.653 461.244,-115.522 456.586,-112.827 460.5,-112 460.5,-112 460.5,-112 456.586,-112.827 459.756,-108.478 452.673,-113.653 452.673,-113.653"/>
<ellipse fill="none" stroke="black" cx="449.542" cy="-114.314" rx="3.2" ry="3.2"/>
</g>
<!-- container_projects -->
<g id="node3" class="node"><title>container_projects</title>
<g id="a_node3"><a xlink:href="../../tables/container_projects.html" xlink:title="container_projects" target="_top">
<polygon fill="#ffffff" stroke="none" points="8,-430 8,-488 163,-488 163,-430 8,-430"/>
<polygon fill="#f5f5f5" stroke="none" points="8.5,-466 8.5,-488 163.5,-488 163.5,-466 8.5,-466"/>
<polygon fill="none" stroke="black" points="8.5,-466 8.5,-488 163.5,-488 163.5,-466 8.5,-466"/>
<text text-anchor="start" x="13.5" y="-475.2" font-family="Helvetica,sans-Serif" font-weight="bold" font-size="11.00">container_projects</text>
<text text-anchor="start" x="124.5" y="-474.2" font-family="Helvetica,sans-Serif" font-size="11.00">[table]</text>
<polygon fill="none" stroke="black" points="8.5,-448 8.5,-466 163.5,-466 163.5,-448 8.5,-448"/>
<text text-anchor="start" x="11.5" y="-454.2" font-family="Helvetica,sans-Serif" font-size="11.00">...</text>
<polygon fill="#ffffff" stroke="none" points="8.5,-430 8.5,-448 74.5,-448 74.5,-430 8.5,-430"/>
<polygon fill="none" stroke="black" points="8.5,-430 8.5,-448 74.5,-448 74.5,-430 8.5,-430"/>
<text text-anchor="start" x="11.5" y="-436.2" font-family="Helvetica,sans-Serif" font-size="11.00"> &#160;</text>
<polygon fill="#ffffff" stroke="none" points="74.5,-430 74.5,-448 113.5,-448 113.5,-430 74.5,-430"/>
<polygon fill="none" stroke="black" points="74.5,-430 74.5,-448 113.5,-448 113.5,-430 74.5,-430"/>
<text text-anchor="start" x="103.5" y="-436.2" font-family="Helvetica,sans-Serif" font-size="11.00"> &#160;</text>
<polygon fill="#ffffff" stroke="none" points="113.5,-430 113.5,-448 163.5,-448 163.5,-430 113.5,-430"/>
<polygon fill="none" stroke="black" points="113.5,-430 113.5,-448 163.5,-448 163.5,-430 113.5,-430"/>
<text text-anchor="start" x="143.5" y="-436.2" font-family="Helvetica,sans-Serif" font-size="11.00">9 &gt;</text>
</a>
</g>
</g>
<!-- container_builds&#45;&gt;container_projects -->
<g id="edge2" class="edge"><title>container_builds:container_project_id:w&#45;&gt;container_projects:elipses:e</title>
<path fill="none" stroke="black" d="M196.614,-235.928C126.049,-257.724 260.206,-457 164.5,-457"/>
<polygon fill="black" stroke="black" points="203.071,-235.063 211.478,-237.568 207.035,-234.531 211,-234 211,-234 211,-234 207.035,-234.531 210.522,-230.432 203.071,-235.063 203.071,-235.063"/>
<ellipse fill="none" stroke="black" cx="199.899" cy="-235.488" rx="3.2" ry="3.2"/>
</g>
<!-- container_groups -->
<g id="node4" class="node"><title>container_groups</title>
<g id="a_node4"><a xlink:href="../../tables/container_groups.html" xlink:title="container_groups" target="_top">
<polygon fill="#ffffff" stroke="none" points="845,-347 845,-581 1011,-581 1011,-347 845,-347"/>
<polygon fill="#f5f5f5" stroke="none" points="845,-559 845,-581 1011,-581 1011,-559 845,-559"/>
<polygon fill="none" stroke="black" points="845,-559 845,-581 1011,-581 1011,-559 845,-559"/>
<text text-anchor="start" x="850" y="-568.2" font-family="Helvetica,sans-Serif" font-weight="bold" font-size="11.00">container_groups</text>
<text text-anchor="start" x="972" y="-567.2" font-family="Helvetica,sans-Serif" font-size="11.00">[table]</text>
<polygon fill="none" stroke="black" points="845,-537 845,-559 1011,-559 1011,-537 845,-537"/>
<image xlink:href="../../images/primaryKeys.png" width="11px" height="12px" preserveAspectRatio="xMinYMin meet" x="850" y="-554"/>
<text text-anchor="start" x="865" y="-545.2" font-family="Helvetica,sans-Serif" font-size="11.00">id</text>
<polygon fill="#ffffff" stroke="none" points="845,-515 845,-537 1011,-537 1011,-515 845,-515"/>
<polygon fill="none" stroke="black" points="845,-515 845,-537 1011,-537 1011,-515 845,-515"/>
<text text-anchor="start" x="865" y="-523.2" font-family="Helvetica,sans-Serif" font-size="11.00">ems_id</text>
<polygon fill="none" stroke="black" points="845,-493 845,-515 1011,-515 1011,-493 845,-493"/>
<image xlink:href="../../images/foreignKeys.png" width="11px" height="12px" preserveAspectRatio="xMinYMin meet" x="850" y="-510"/>
<text text-anchor="start" x="865" y="-501.2" font-family="Helvetica,sans-Serif" font-size="11.00">container_node_id</text>
<polygon fill="none" stroke="black" points="845,-471 845,-493 1011,-493 1011,-471 845,-471"/>
<image xlink:href="../../images/foreignKeys.png" width="11px" height="12px" preserveAspectRatio="xMinYMin meet" x="850" y="-488"/>
<text text-anchor="start" x="865" y="-479.2" font-family="Helvetica,sans-Serif" font-size="11.00">container_replicator_id</text>
<polygon fill="#ffffff" stroke="none" points="845,-449 845,-471 1011,-471 1011,-449 845,-449"/>
<polygon fill="none" stroke="black" points="845,-449 845,-471 1011,-471 1011,-449 845,-449"/>
<text text-anchor="start" x="865" y="-457.2" font-family="Helvetica,sans-Serif" font-size="11.00">type</text>
<polygon fill="none" stroke="black" points="845,-427 845,-449 1011,-449 1011,-427 845,-427"/>
<image xlink:href="../../images/foreignKeys.png" width="11px" height="12px" preserveAspectRatio="xMinYMin meet" x="850" y="-444"/>
<text text-anchor="start" x="865" y="-435.2" font-family="Helvetica,sans-Serif" font-size="11.00">container_project_id</text>
<polygon fill="none" stroke="black" points="845,-405 845,-427 1011,-427 1011,-405 845,-405"/>
<image xlink:href="../../images/foreignKeys.png" width="11px" height="12px" preserveAspectRatio="xMinYMin meet" x="850" y="-422"/>
<text text-anchor="start" x="865" y="-413.2" font-family="Helvetica,sans-Serif" font-size="11.00">container_build_pod_id</text>
<polygon fill="#ffffff" stroke="none" points="845,-383 845,-405 1011,-405 1011,-383 845,-383"/>
<polygon fill="none" stroke="black" points="845,-383 845,-405 1011,-405 1011,-383 845,-383"/>
<text text-anchor="start" x="865" y="-391.2" font-family="Helvetica,sans-Serif" font-size="11.00">deleted_on</text>
<polygon fill="none" stroke="black" points="845,-365 845,-383 1011,-383 1011,-365 845,-365"/>
<text text-anchor="start" x="848" y="-371.2" font-family="Helvetica,sans-Serif" font-size="11.00">...</text>
<polygon fill="#ffffff" stroke="none" points="845,-347 845,-365 921,-365 921,-347 845,-347"/>
<polygon fill="none" stroke="black" points="845,-347 845,-365 921,-365 921,-347 845,-347"/>
<text text-anchor="start" x="848" y="-353.2" font-family="Helvetica,sans-Serif" font-size="11.00">&lt; 4</text>
<polygon fill="#ffffff" stroke="none" points="921,-347 921,-365 961,-365 961,-347 921,-347"/>
<polygon fill="none" stroke="black" points="921,-347 921,-365 961,-365 961,-347 921,-347"/>
<text text-anchor="start" x="951" y="-353.2" font-family="Helvetica,sans-Serif" font-size="11.00"> &#160;</text>
<polygon fill="#ffffff" stroke="none" points="961,-347 961,-365 1011,-365 1011,-347 961,-347"/>
<polygon fill="none" stroke="black" points="961,-347 961,-365 1011,-365 1011,-347 961,-347"/>
<text text-anchor="start" x="991" y="-353.2" font-family="Helvetica,sans-Serif" font-size="11.00">3 &gt;</text>
</a>
</g>
</g>
<!-- container_groups&#45;&gt;container_build_pods -->
<g id="edge3" class="edge"><title>container_groups:container_build_pod_id:w&#45;&gt;container_build_pods:id.type:e</title>
<path fill="none" stroke="black" d="M829.598,-413.028C818.35,-407.915 812.565,-398 795.5,-398"/>
<polygon fill="black" stroke="black" points="836.165,-414.383 843.272,-419.526 840.083,-415.191 844,-416 844,-416 844,-416 840.083,-415.191 844.728,-412.474 836.165,-414.383 836.165,-414.383"/>
<ellipse fill="none" stroke="black" cx="833.031" cy="-413.736" rx="3.2" ry="3.2"/>
</g>
<!-- container_groups&#45;&gt;container_projects -->
<g id="edge5" class="edge"><title>container_groups:container_project_id:w&#45;&gt;container_projects:elipses:e</title>
<path fill="none" stroke="black" d="M829.545,-439.019C821.711,-440.211 815.866,-442.131 804,-443 520.469,-463.769 448.79,-457 164.5,-457"/>
<polygon fill="black" stroke="black" points="836.02,-438.563 844.253,-441.591 840.01,-438.281 844,-438 844,-438 844,-438 840.01,-438.281 843.747,-434.409 836.02,-438.563 836.02,-438.563"/>
<ellipse fill="none" stroke="black" cx="832.828" cy="-438.788" rx="3.2" ry="3.2"/>
</g>
<!-- container_nodes -->
<g id="node5" class="node"><title>container_nodes</title>
<g id="a_node5"><a xlink:href="../../tables/container_nodes.html" xlink:title="container_nodes" target="_top">
<polygon fill="#ffffff" stroke="none" points="556.5,-573 556.5,-631 698.5,-631 698.5,-573 556.5,-573"/>
<polygon fill="#f5f5f5" stroke="none" points="556.5,-609 556.5,-631 698.5,-631 698.5,-609 556.5,-609"/>
<polygon fill="none" stroke="black" points="556.5,-609 556.5,-631 698.5,-631 698.5,-609 556.5,-609"/>
<text text-anchor="start" x="561.5" y="-618.2" font-family="Helvetica,sans-Serif" font-weight="bold" font-size="11.00">container_nodes</text>
<text text-anchor="start" x="659.5" y="-617.2" font-family="Helvetica,sans-Serif" font-size="11.00">[table]</text>
<polygon fill="none" stroke="black" points="556.5,-591 556.5,-609 698.5,-609 698.5,-591 556.5,-591"/>
<text text-anchor="start" x="559.5" y="-597.2" font-family="Helvetica,sans-Serif" font-size="11.00">...</text>
<polygon fill="#ffffff" stroke="none" points="556.5,-573 556.5,-591 615.5,-591 615.5,-573 556.5,-573"/>
<polygon fill="none" stroke="black" points="556.5,-573 556.5,-591 615.5,-591 615.5,-573 556.5,-573"/>
<text text-anchor="start" x="559.5" y="-579.2" font-family="Helvetica,sans-Serif" font-size="11.00"> &#160;</text>
<polygon fill="#ffffff" stroke="none" points="615.5,-573 615.5,-591 651.5,-591 651.5,-573 615.5,-573"/>
<polygon fill="none" stroke="black" points="615.5,-573 615.5,-591 651.5,-591 651.5,-573 615.5,-573"/>
<text text-anchor="start" x="641.5" y="-579.2" font-family="Helvetica,sans-Serif" font-size="11.00"> &#160;</text>
<polygon fill="#ffffff" stroke="none" points="651.5,-573 651.5,-591 698.5,-591 698.5,-573 651.5,-573"/>
<polygon fill="none" stroke="black" points="651.5,-573 651.5,-591 698.5,-591 698.5,-573 651.5,-573"/>
<text text-anchor="start" x="678.5" y="-579.2" font-family="Helvetica,sans-Serif" font-size="11.00">2 &gt;</text>
</a>
</g>
</g>
<!-- container_groups&#45;&gt;container_nodes -->
<g id="edge4" class="edge"><title>container_groups:container_node_id:w&#45;&gt;container_nodes:elipses:e</title>
<path fill="none" stroke="black" d="M829.992,-508.326C819.303,-517.146 820.505,-537.436 804,-550 763.033,-581.186 750.987,-600 699.5,-600"/>
<polygon fill="black" stroke="black" points="836.356,-506.36 845.062,-507.44 840.178,-505.18 844,-504 844,-504 844,-504 840.178,-505.18 842.938,-500.56 836.356,-506.36 836.356,-506.36"/>
<ellipse fill="none" stroke="black" cx="833.299" cy="-507.304" rx="3.20001" ry="3.20001"/>
</g>
<!-- container_replicators -->
<g id="node6" class="node"><title>container_replicators</title>
<g id="a_node6"><a xlink:href="../../tables/container_replicators.html" xlink:title="container_replicators" target="_top">
<polygon fill="#ffffff" stroke="none" points="542,-481 542,-539 713,-539 713,-481 542,-481"/>
<polygon fill="#f5f5f5" stroke="none" points="542.5,-517 542.5,-539 713.5,-539 713.5,-517 542.5,-517"/>
<polygon fill="none" stroke="black" points="542.5,-517 542.5,-539 713.5,-539 713.5,-517 542.5,-517"/>
<text text-anchor="start" x="547.5" y="-526.2" font-family="Helvetica,sans-Serif" font-weight="bold" font-size="11.00">container_replicators</text>
<text text-anchor="start" x="674.5" y="-525.2" font-family="Helvetica,sans-Serif" font-size="11.00">[table]</text>
<polygon fill="none" stroke="black" points="542.5,-499 542.5,-517 713.5,-517 713.5,-499 542.5,-499"/>
<text text-anchor="start" x="545.5" y="-505.2" font-family="Helvetica,sans-Serif" font-size="11.00">...</text>
<polygon fill="#ffffff" stroke="none" points="542.5,-481 542.5,-499 621.5,-499 621.5,-481 542.5,-481"/>
<polygon fill="none" stroke="black" points="542.5,-481 542.5,-499 621.5,-499 621.5,-481 542.5,-481"/>
<text text-anchor="start" x="545.5" y="-487.2" font-family="Helvetica,sans-Serif" font-size="11.00">&lt; 1</text>
<polygon fill="#ffffff" stroke="none" points="621.5,-481 621.5,-499 662.5,-499 662.5,-481 621.5,-481"/>
<polygon fill="none" stroke="black" points="621.5,-481 621.5,-499 662.5,-499 662.5,-481 621.5,-481"/>
<text text-anchor="start" x="652.5" y="-487.2" font-family="Helvetica,sans-Serif" font-size="11.00"> &#160;</text>
<polygon fill="#ffffff" stroke="none" points="662.5,-481 662.5,-499 713.5,-499 713.5,-481 662.5,-481"/>
<polygon fill="none" stroke="black" points="662.5,-481 662.5,-499 713.5,-499 713.5,-481 662.5,-481"/>
<text text-anchor="start" x="693.5" y="-487.2" font-family="Helvetica,sans-Serif" font-size="11.00">2 &gt;</text>
</a>
</g>
</g>
<!-- container_groups&#45;&gt;container_replicators -->
<g id="edge6" class="edge"><title>container_groups:container_replicator_id:w&#45;&gt;container_replicators:elipses:e</title>
<path fill="none" stroke="black" d="M829.538,-482.567C782.81,-486.369 768.045,-508 714.5,-508"/>
<polygon fill="black" stroke="black" points="836.006,-482.314 844.141,-485.597 840.003,-482.157 844,-482 844,-482 844,-482 840.003,-482.157 843.859,-478.403 836.006,-482.314 836.006,-482.314"/>
<ellipse fill="none" stroke="black" cx="832.809" cy="-482.439" rx="3.2" ry="3.2"/>
</g>
<!-- container_replicators&#45;&gt;container_projects -->
<g id="edge8" class="edge"><title>container_replicators:elipses:w&#45;&gt;container_projects:elipses:e</title>
<path fill="none" stroke="black" d="M526.815,-507.956C387.761,-507.101 347.608,-493.789 204,-467 186.198,-463.679 182.609,-457 164.5,-457"/>
<polygon fill="black" stroke="black" points="533.5,-507.976 541.489,-511.6 537.5,-507.988 541.5,-508 541.5,-508 541.5,-508 537.5,-507.988 541.511,-504.4 533.5,-507.976 533.5,-507.976"/>
<ellipse fill="none" stroke="black" cx="530.3" cy="-507.966" rx="3.2" ry="3.2"/>
</g>
<!-- container_groups_container_services -->
<g id="node7" class="node"><title>container_groups_container_services</title>
<g id="a_node7"><a xlink:href="../../tables/container_groups_container_services.html" xlink:title="container_groups_container_services" target="_top">
<polygon fill="#ffffff" stroke="none" points="1060,-417 1060,-475 1317,-475 1317,-417 1060,-417"/>
<polygon fill="#f5f5f5" stroke="none" points="1060.5,-453 1060.5,-475 1317.5,-475 1317.5,-453 1060.5,-453"/>
<polygon fill="none" stroke="black" points="1060.5,-453 1060.5,-475 1317.5,-475 1317.5,-453 1060.5,-453"/>
<text text-anchor="start" x="1065.5" y="-462.2" font-family="Helvetica,sans-Serif" font-weight="bold" font-size="11.00">container_groups_container_services</text>
<text text-anchor="start" x="1278.5" y="-461.2" font-family="Helvetica,sans-Serif" font-size="11.00">[table]</text>
<polygon fill="none" stroke="black" points="1060.5,-435 1060.5,-453 1317.5,-453 1317.5,-435 1060.5,-435"/>
<text text-anchor="start" x="1063.5" y="-441.2" font-family="Helvetica,sans-Serif" font-size="11.00">...</text>
<polygon fill="#ffffff" stroke="none" points="1060.5,-417 1060.5,-435 1187.5,-435 1187.5,-417 1060.5,-417"/>
<polygon fill="none" stroke="black" points="1060.5,-417 1060.5,-435 1187.5,-435 1187.5,-417 1060.5,-417"/>
<text text-anchor="start" x="1063.5" y="-423.2" font-family="Helvetica,sans-Serif" font-size="11.00">&lt; 2</text>
<polygon fill="#ffffff" stroke="none" points="1187.5,-417 1187.5,-435 1252.5,-435 1252.5,-417 1187.5,-417"/>
<polygon fill="none" stroke="black" points="1187.5,-417 1187.5,-435 1252.5,-435 1252.5,-417 1187.5,-417"/>
<text text-anchor="start" x="1242.5" y="-423.2" font-family="Helvetica,sans-Serif" font-size="11.00"> &#160;</text>
<polygon fill="#ffffff" stroke="none" points="1252.5,-417 1252.5,-435 1317.5,-435 1317.5,-417 1252.5,-417"/>
<polygon fill="none" stroke="black" points="1252.5,-417 1252.5,-435 1317.5,-435 1317.5,-417 1252.5,-417"/>
<text text-anchor="start" x="1307.5" y="-423.2" font-family="Helvetica,sans-Serif" font-size="11.00"> &#160;</text>
</a>
</g>
</g>
<!-- container_groups_container_services&#45;&gt;container_groups -->
<g id="edge7" class="edge"><title>container_groups_container_services:elipses:w&#45;&gt;container_groups:id:e</title>
<path fill="none" stroke="black" d="M1045.62,-447.95C1019.93,-466.947 1056.86,-548 1012,-548"/>
<polygon fill="black" stroke="black" points="1051.81,-446.19 1060.49,-447.463 1055.65,-445.095 1059.5,-444 1059.5,-444 1059.5,-444 1055.65,-445.095 1058.51,-440.537 1051.81,-446.19 1051.81,-446.19"/>
<ellipse fill="none" stroke="black" cx="1048.73" cy="-447.066" rx="3.20001" ry="3.20001"/>
</g>
<!-- containers -->
<g id="node8" class="node"><title>containers</title>
<g id="a_node8"><a xlink:href="../../tables/containers.html" xlink:title="containers" target="_top">
<polygon fill="#ffffff" stroke="none" points="1134,-496 1134,-554 1243,-554 1243,-496 1134,-496"/>
<polygon fill="#f5f5f5" stroke="none" points="1134.5,-532 1134.5,-554 1243.5,-554 1243.5,-532 1134.5,-532"/>
<polygon fill="none" stroke="black" points="1134.5,-532 1134.5,-554 1243.5,-554 1243.5,-532 1134.5,-532"/>
<text text-anchor="start" x="1139.5" y="-541.2" font-family="Helvetica,sans-Serif" font-weight="bold" font-size="11.00">containers</text>
<text text-anchor="start" x="1204.5" y="-540.2" font-family="Helvetica,sans-Serif" font-size="11.00">[table]</text>
<polygon fill="none" stroke="black" points="1134.5,-514 1134.5,-532 1243.5,-532 1243.5,-514 1134.5,-514"/>
<text text-anchor="start" x="1137.5" y="-520.2" font-family="Helvetica,sans-Serif" font-size="11.00">...</text>
<polygon fill="#ffffff" stroke="none" points="1134.5,-496 1134.5,-514 1182.5,-514 1182.5,-496 1134.5,-496"/>
<polygon fill="none" stroke="black" points="1134.5,-496 1134.5,-514 1182.5,-514 1182.5,-496 1134.5,-496"/>
<text text-anchor="start" x="1137.5" y="-502.2" font-family="Helvetica,sans-Serif" font-size="11.00">&lt; 2</text>
<polygon fill="#ffffff" stroke="none" points="1182.5,-496 1182.5,-514 1207.5,-514 1207.5,-496 1182.5,-496"/>
<polygon fill="none" stroke="black" points="1182.5,-496 1182.5,-514 1207.5,-514 1207.5,-496 1182.5,-496"/>
<text text-anchor="start" x="1197.5" y="-502.2" font-family="Helvetica,sans-Serif" font-size="11.00"> &#160;</text>
<polygon fill="#ffffff" stroke="none" points="1207.5,-496 1207.5,-514 1243.5,-514 1243.5,-496 1207.5,-496"/>
<polygon fill="none" stroke="black" points="1207.5,-496 1207.5,-514 1243.5,-514 1243.5,-496 1207.5,-496"/>
<text text-anchor="start" x="1223.5" y="-502.2" font-family="Helvetica,sans-Serif" font-size="11.00">3 &gt;</text>
</a>
</g>
</g>
<!-- containers&#45;&gt;container_groups -->
<g id="edge9" class="edge"><title>containers:elipses:w&#45;&gt;container_groups:id:e</title>
<path fill="none" stroke="black" d="M1119.08,-523.618C1075.88,-527.468 1061.96,-548 1012,-548"/>
<polygon fill="black" stroke="black" points="1125.51,-523.343 1133.65,-526.597 1129.5,-523.171 1133.5,-523 1133.5,-523 1133.5,-523 1129.5,-523.171 1133.35,-519.403 1125.51,-523.343 1125.51,-523.343"/>
<ellipse fill="none" stroke="black" cx="1122.31" cy="-523.48" rx="3.2" ry="3.2"/>
</g>
<!-- event_streams -->
<g id="node9" class="node"><title>event_streams</title>
<g id="a_node9"><a xlink:href="../../tables/event_streams.html" xlink:title="event_streams" target="_top">
<polygon fill="#ffffff" stroke="none" points="1366,-564 1366,-622 1498,-622 1498,-564 1366,-564"/>
<polygon fill="#f5f5f5" stroke="none" points="1366,-600 1366,-622 1498,-622 1498,-600 1366,-600"/>
<polygon fill="none" stroke="black" points="1366,-600 1366,-622 1498,-622 1498,-600 1366,-600"/>
<text text-anchor="start" x="1371" y="-609.2" font-family="Helvetica,sans-Serif" font-weight="bold" font-size="11.00">event_streams</text>
<text text-anchor="start" x="1459" y="-608.2" font-family="Helvetica,sans-Serif" font-size="11.00">[table]</text>
<polygon fill="none" stroke="black" points="1366,-582 1366,-600 1498,-600 1498,-582 1366,-582"/>
<text text-anchor="start" x="1369" y="-588.2" font-family="Helvetica,sans-Serif" font-size="11.00">...</text>
<polygon fill="#ffffff" stroke="none" points="1366,-564 1366,-582 1434,-582 1434,-564 1366,-564"/>
<polygon fill="none" stroke="black" points="1366,-564 1366,-582 1434,-582 1434,-564 1366,-564"/>
<text text-anchor="start" x="1369" y="-570.2" font-family="Helvetica,sans-Serif" font-size="11.00">&lt; 11</text>
<polygon fill="#ffffff" stroke="none" points="1434,-564 1434,-582 1466,-582 1466,-564 1434,-564"/>
<polygon fill="none" stroke="black" points="1434,-564 1434,-582 1466,-582 1466,-564 1434,-564"/>
<text text-anchor="start" x="1456" y="-570.2" font-family="Helvetica,sans-Serif" font-size="11.00"> &#160;</text>
<polygon fill="#ffffff" stroke="none" points="1466,-564 1466,-582 1498,-582 1498,-564 1466,-564"/>
<polygon fill="none" stroke="black" points="1466,-564 1466,-582 1498,-582 1498,-564 1466,-564"/>
<text text-anchor="start" x="1488" y="-570.2" font-family="Helvetica,sans-Serif" font-size="11.00"> &#160;</text>
</a>
</g>
</g>
<!-- event_streams&#45;&gt;container_groups -->
<g id="edge10" class="edge"><title>event_streams:elipses:w&#45;&gt;container_groups:id:e</title>
<path fill="none" stroke="black" d="M1350.26,-591.027C1222.54,-591.489 1182.61,-597.292 1052,-565 1033.25,-560.364 1031.32,-548 1012,-548"/>
<polygon fill="black" stroke="black" points="1357,-591.015 1365.01,-594.6 1361,-591.007 1365,-591 1365,-591 1365,-591 1361,-591.007 1364.99,-587.4 1357,-591.015 1357,-591.015"/>
<ellipse fill="none" stroke="black" cx="1353.8" cy="-591.021" rx="3.2" ry="3.2"/>
</g>
<!-- event_streams&#45;&gt;container_nodes -->
<g id="edge12" class="edge"><title>event_streams:elipses:w&#45;&gt;container_nodes:elipses:e</title>
<path fill="none" stroke="black" d="M1351.1,-595.061C1342.87,-600.824 1339.05,-611.109 1325,-615 1115.98,-672.895 1053.57,-626.778 837,-615 775.617,-611.662 760.974,-600 699.5,-600"/>
<polygon fill="black" stroke="black" points="1357.32,-593.244 1366.01,-594.455 1361.16,-592.122 1365,-591 1365,-591 1365,-591 1361.16,-592.122 1363.99,-587.545 1357.32,-593.244 1357.32,-593.244"/>
<ellipse fill="none" stroke="black" cx="1354.25" cy="-594.141" rx="3.20001" ry="3.20001"/>
</g>
<!-- event_streams&#45;&gt;container_replicators -->
<g id="edge13" class="edge"><title>event_streams:elipses:w&#45;&gt;container_replicators:elipses:e</title>
<path fill="none" stroke="black" d="M1350.43,-591.187C1224.45,-594.184 942.503,-631.77 837,-592 818.73,-585.113 819.708,-574.598 804,-563 766.44,-535.268 761.188,-508 714.5,-508"/>
<polygon fill="black" stroke="black" points="1357,-591.102 1365.05,-594.6 1361,-591.051 1365,-591 1365,-591 1365,-591 1361,-591.051 1364.95,-587.4 1357,-591.102 1357,-591.102"/>
<ellipse fill="none" stroke="black" cx="1353.8" cy="-591.143" rx="3.2" ry="3.2"/>
</g>
<!-- event_streams&#45;&gt;containers -->
<g id="edge11" class="edge"><title>event_streams:elipses:w&#45;&gt;containers:elipses:e</title>
<path fill="none" stroke="black" d="M1350.8,-588.003C1342.08,-583.593 1337.54,-575.112 1325,-568 1289.34,-547.784 1285.49,-523 1244.5,-523"/>
<polygon fill="black" stroke="black" points="1357.17,-589.347 1364.26,-594.522 1361.09,-590.174 1365,-591 1365,-591 1365,-591 1361.09,-590.174 1365.74,-587.478 1357.17,-589.347 1357.17,-589.347"/>
<ellipse fill="none" stroke="black" cx="1354.04" cy="-588.686" rx="3.2" ry="3.2"/>
</g>
</g>
</svg>
