<?xml version="1.0" encoding="UTF-8" standalone="no"?>
<!DOCTYPE svg PUBLIC "-//W3C//DTD SVG 1.1//EN"
 "http://www.w3.org/Graphics/SVG/1.1/DTD/svg11.dtd">
<!-- Generated by graphviz version 2.38.0 (20140413.2041)
 -->
<!-- Title: oneDegreeRelationshipsDiagram Pages: 1 -->
<svg width="515pt" height="329pt"
 viewBox="0.00 0.00 515.00 329.00" xmlns="http://www.w3.org/2000/svg" xmlns:xlink="http://www.w3.org/1999/xlink">
<g id="graph0" class="graph" transform="scale(1 1) rotate(0) translate(4 325)">
<title>oneDegreeRelationshipsDiagram</title>
<polygon fill="#ffffff" stroke="none" points="-4,4 -4,-325 511,-325 511,4 -4,4"/>
<text text-anchor="middle" x="74.5" y="-7.2" font-family="Helvetica,sans-Serif" font-size="11.00">Generated by SchemaSpy</text>
<!-- container_port_configs -->
<g id="node1" class="node"><title>container_port_configs</title>
<g id="a_node1"><a xlink:href="../../tables/container_port_configs.html" xlink:title="container_port_configs" target="_top">
<polygon fill="#ffffff" stroke="none" points="217,-119 217,-317 499,-317 499,-119 217,-119"/>
<polygon fill="#f5f5f5" stroke="none" points="219,-293 219,-315 497,-315 497,-293 219,-293"/>
<polygon fill="none" stroke="black" points="219,-293 219,-315 497,-315 497,-293 219,-293"/>
<text text-anchor="start" x="224" y="-302.2" font-family="Helvetica,sans-Serif" font-weight="bold" font-size="11.00">container_port_configs</text>
<text text-anchor="start" x="458" y="-301.2" font-family="Helvetica,sans-Serif" font-size="11.00">[table]</text>
<polygon fill="none" stroke="black" points="219,-271 219,-293 376,-293 376,-271 219,-271"/>
<image xlink:href="../../images/primaryKeys.png" width="11px" height="12px" preserveAspectRatio="xMinYMin meet" x="224" y="-288"/>
<text text-anchor="start" x="239" y="-279.2" font-family="Helvetica,sans-Serif" font-size="11.00">id</text>
<polygon fill="none" stroke="black" points="376,-271 376,-293 497,-293 497,-271 376,-271"/>
<text text-anchor="start" x="379" y="-279.2" font-family="Helvetica,sans-Serif" font-size="11.00">bigserial[19]</text>
<polygon fill="none" stroke="black" points="219,-249 219,-271 376,-271 376,-249 219,-249"/>
<text text-anchor="start" x="239" y="-257.2" font-family="Helvetica,sans-Serif" font-size="11.00">ems_ref</text>
<polygon fill="none" stroke="black" points="376,-249 376,-271 497,-271 497,-249 376,-249"/>
<text text-anchor="start" x="379" y="-257.2" font-family="Helvetica,sans-Serif" font-size="11.00">varchar[2147483647]</text>
<polygon fill="none" stroke="black" points="219,-227 219,-249 376,-249 376,-227 219,-227"/>
<text text-anchor="start" x="239" y="-235.2" font-family="Helvetica,sans-Serif" font-size="11.00">port</text>
<polygon fill="none" stroke="black" points="376,-227 376,-249 497,-249 497,-227 376,-227"/>
<text text-anchor="start" x="379" y="-235.2" font-family="Helvetica,sans-Serif" font-size="11.00">int4[10]</text>
<polygon fill="none" stroke="black" points="219,-205 219,-227 376,-227 376,-205 219,-205"/>
<text text-anchor="start" x="239" y="-213.2" font-family="Helvetica,sans-Serif" font-size="11.00">host_port</text>
<polygon fill="none" stroke="black" points="376,-205 376,-227 497,-227 497,-205 376,-205"/>
<text text-anchor="start" x="379" y="-213.2" font-family="Helvetica,sans-Serif" font-size="11.00">int4[10]</text>
<polygon fill="none" stroke="black" points="219,-183 219,-205 376,-205 376,-183 219,-183"/>
<text text-anchor="start" x="239" y="-191.2" font-family="Helvetica,sans-Serif" font-size="11.00">protocol</text>
<polygon fill="none" stroke="black" points="376,-183 376,-205 497,-205 497,-183 376,-183"/>
<text text-anchor="start" x="379" y="-191.2" font-family="Helvetica,sans-Serif" font-size="11.00">varchar[2147483647]</text>
<polygon fill="none" stroke="black" points="219,-161 219,-183 376,-183 376,-161 219,-161"/>
<image xlink:href="../../images/foreignKeys.png" width="11px" height="12px" preserveAspectRatio="xMinYMin meet" x="224" y="-178"/>
<text text-anchor="start" x="239" y="-169.2" font-family="Helvetica,sans-Serif" font-size="11.00">container_id</text>
<polygon fill="none" stroke="black" points="376,-161 376,-183 497,-183 497,-161 376,-161"/>
<text text-anchor="start" x="379" y="-169.2" font-family="Helvetica,sans-Serif" font-size="11.00">int8[19]</text>
<polygon fill="none" stroke="black" points="219,-139 219,-161 376,-161 376,-139 219,-139"/>
<text text-anchor="start" x="239" y="-147.2" font-family="Helvetica,sans-Serif" font-size="11.00">name</text>
<polygon fill="none" stroke="black" points="376,-139 376,-161 497,-161 497,-139 376,-139"/>
<text text-anchor="start" x="379" y="-147.2" font-family="Helvetica,sans-Serif" font-size="11.00">varchar[2147483647]</text>
<polygon fill="#ffffff" stroke="none" points="219,-121 219,-139 302,-139 302,-121 219,-121"/>
<polygon fill="none" stroke="black" points="219,-121 219,-139 302,-139 302,-121 219,-121"/>
<text text-anchor="start" x="222" y="-127.2" font-family="Helvetica,sans-Serif" font-size="11.00">&lt; 1</text>
<polygon fill="#ffffff" stroke="none" points="302,-121 302,-139 376,-139 376,-121 302,-121"/>
<polygon fill="none" stroke="black" points="302,-121 302,-139 376,-139 376,-121 302,-121"/>
<text text-anchor="start" x="366" y="-127.2" font-family="Helvetica,sans-Serif" font-size="11.00"> &#160;</text>
<polygon fill="#ffffff" stroke="none" points="376,-121 376,-139 497,-139 497,-121 376,-121"/>
<polygon fill="none" stroke="black" points="376,-121 376,-139 497,-139 497,-121 376,-121"/>
<text text-anchor="start" x="477" y="-127.2" font-family="Helvetica,sans-Serif" font-size="11.00">0 &gt;</text>
<polygon fill="none" stroke="black" stroke-width="2" points="218,-120 218,-316 498,-316 498,-120 218,-120"/>
</a>
</g>
</g>
<!-- containers -->
<g id="node2" class="node"><title>containers</title>
<g id="a_node2"><a xlink:href="../../tables/containers.html" xlink:title="containers" target="_top">
<polygon fill="#ffffff" stroke="none" points="8,-37 8,-205 168,-205 168,-37 8,-37"/>
<polygon fill="#f5f5f5" stroke="none" points="8,-183 8,-205 168,-205 168,-183 8,-183"/>
<polygon fill="none" stroke="black" points="8,-183 8,-205 168,-205 168,-183 8,-183"/>
<text text-anchor="start" x="13" y="-192.2" font-family="Helvetica,sans-Serif" font-weight="bold" font-size="11.00">containers</text>
<text text-anchor="start" x="129" y="-191.2" font-family="Helvetica,sans-Serif" font-size="11.00">[table]</text>
<polygon fill="none" stroke="black" points="8,-161 8,-183 168,-183 168,-161 8,-161"/>
<image xlink:href="../../images/primaryKeys.png" width="11px" height="12px" preserveAspectRatio="xMinYMin meet" x="13" y="-178"/>
<text text-anchor="start" x="28" y="-169.2" font-family="Helvetica,sans-Serif" font-size="11.00">id</text>
<polygon fill="#ffffff" stroke="none" points="8,-139 8,-161 168,-161 168,-139 8,-139"/>
<polygon fill="none" stroke="black" points="8,-139 8,-161 168,-161 168,-139 8,-139"/>
<text text-anchor="start" x="28" y="-147.2" font-family="Helvetica,sans-Serif" font-size="11.00">type</text>
<polygon fill="none" stroke="black" points="8,-117 8,-139 168,-139 168,-117 8,-117"/>
<image xlink:href="../../images/foreignKeys.png" width="11px" height="12px" preserveAspectRatio="xMinYMin meet" x="13" y="-134"/>
<text text-anchor="start" x="28" y="-125.2" font-family="Helvetica,sans-Serif" font-size="11.00">container_image_id</text>
<polygon fill="#ffffff" stroke="none" points="8,-95 8,-117 168,-117 168,-95 8,-95"/>
<polygon fill="none" stroke="black" points="8,-95 8,-117 168,-117 168,-95 8,-95"/>
<text text-anchor="start" x="28" y="-103.2" font-family="Helvetica,sans-Serif" font-size="11.00">deleted_on</text>
<polygon fill="none" stroke="black" points="8,-73 8,-95 168,-95 168,-73 8,-73"/>
<image xlink:href="../../images/foreignKeys.png" width="11px" height="12px" preserveAspectRatio="xMinYMin meet" x="13" y="-90"/>
<text text-anchor="start" x="28" y="-81.2" font-family="Helvetica,sans-Serif" font-size="11.00">container_group_id</text>
<polygon fill="none" stroke="black" points="8,-55 8,-73 168,-73 168,-55 8,-55"/>
<text text-anchor="start" x="11" y="-61.2" font-family="Helvetica,sans-Serif" font-size="11.00">...</text>
<polygon fill="#ffffff" stroke="none" points="8,-37 8,-55 81,-55 81,-37 8,-37"/>
<polygon fill="none" stroke="black" points="8,-37 8,-55 81,-55 81,-37 8,-37"/>
<text text-anchor="start" x="11" y="-43.2" font-family="Helvetica,sans-Serif" font-size="11.00">&lt; 2</text>
<polygon fill="#ffffff" stroke="none" points="81,-37 81,-55 119,-55 119,-37 81,-37"/>
<polygon fill="none" stroke="black" points="81,-37 81,-55 119,-55 119,-37 81,-37"/>
<text text-anchor="start" x="109" y="-43.2" font-family="Helvetica,sans-Serif" font-size="11.00"> &#160;</text>
<polygon fill="#ffffff" stroke="none" points="119,-37 119,-55 168,-55 168,-37 119,-37"/>
<polygon fill="none" stroke="black" points="119,-37 119,-55 168,-55 168,-37 119,-37"/>
<text text-anchor="start" x="148" y="-43.2" font-family="Helvetica,sans-Serif" font-size="11.00">3 &gt;</text>
</a>
</g>
</g>
<!-- container_port_configs&#45;&gt;containers -->
<g id="edge1" class="edge"><title>container_port_configs:container_id:w&#45;&gt;containers:id:e</title>
<path fill="none" stroke="black" d="M203.491,-172C192.177,-172 184.993,-172 169,-172"/>
<polygon fill="black" stroke="black" points="210,-172 218,-175.6 214,-172 218,-172 218,-172 218,-172 214,-172 218,-168.4 210,-172 210,-172"/>
<ellipse fill="none" stroke="black" cx="206.8" cy="-172" rx="3.2" ry="3.2"/>
</g>
</g>
</svg>
