<?xml version="1.0" encoding="UTF-8" standalone="no"?>
<!DOCTYPE svg PUBLIC "-//W3C//DTD SVG 1.1//EN"
 "http://www.w3.org/Graphics/SVG/1.1/DTD/svg11.dtd">
<!-- Generated by graphviz version 2.38.0 (20140413.2041)
 -->
<!-- Title: oneDegreeRelationshipsDiagram Pages: 1 -->
<svg width="579pt" height="923pt"
 viewBox="0.00 0.00 579.00 923.00" xmlns="http://www.w3.org/2000/svg" xmlns:xlink="http://www.w3.org/1999/xlink">
<g id="graph0" class="graph" transform="scale(1 1) rotate(0) translate(4 919)">
<title>oneDegreeRelationshipsDiagram</title>
<polygon fill="#ffffff" stroke="none" points="-4,4 -4,-919 575,-919 575,4 -4,4"/>
<text text-anchor="middle" x="74.5" y="-7.2" font-family="Helvetica,sans-Serif" font-size="11.00">Generated by SchemaSpy</text>
<!-- container_volumes -->
<g id="node1" class="node"><title>container_volumes</title>
<g id="a_node1"><a xlink:href="../../tables/container_volumes.html" xlink:title="container_volumes" target="_top">
<polygon fill="#ffffff" stroke="none" points="253,-53 253,-911 563,-911 563,-53 253,-53"/>
<polygon fill="#f5f5f5" stroke="none" points="255,-887 255,-909 561,-909 561,-887 255,-887"/>
<polygon fill="none" stroke="black" points="255,-887 255,-909 561,-909 561,-887 255,-887"/>
<text text-anchor="start" x="260" y="-896.2" font-family="Helvetica,sans-Serif" font-weight="bold" font-size="11.00">container_volumes</text>
<text text-anchor="start" x="522" y="-895.2" font-family="Helvetica,sans-Serif" font-size="11.00">[table]</text>
<polygon fill="none" stroke="black" points="255,-865 255,-887 440,-887 440,-865 255,-865"/>
<image xlink:href="../../images/primaryKeys.png" width="11px" height="12px" preserveAspectRatio="xMinYMin meet" x="260" y="-882"/>
<text text-anchor="start" x="275" y="-873.2" font-family="Helvetica,sans-Serif" font-size="11.00">id</text>
<polygon fill="none" stroke="black" points="440,-865 440,-887 561,-887 561,-865 440,-865"/>
<text text-anchor="start" x="443" y="-873.2" font-family="Helvetica,sans-Serif" font-size="11.00">bigserial[19]</text>
<polygon fill="none" stroke="black" points="255,-843 255,-865 440,-865 440,-843 255,-843"/>
<text text-anchor="start" x="275" y="-851.2" font-family="Helvetica,sans-Serif" font-size="11.00">parent_id</text>
<polygon fill="none" stroke="black" points="440,-843 440,-865 561,-865 561,-843 440,-843"/>
<text text-anchor="start" x="443" y="-851.2" font-family="Helvetica,sans-Serif" font-size="11.00">int8[19]</text>
<polygon fill="#ffffff" stroke="none" points="255,-821 255,-843 440,-843 440,-821 255,-821"/>
<polygon fill="none" stroke="black" points="255,-821 255,-843 440,-843 440,-821 255,-821"/>
<text text-anchor="start" x="275" y="-829.2" font-family="Helvetica,sans-Serif" font-size="11.00">type</text>
<polygon fill="none" stroke="black" points="440,-821 440,-843 561,-843 561,-821 440,-821"/>
<text text-anchor="start" x="443" y="-829.2" font-family="Helvetica,sans-Serif" font-size="11.00">varchar[2147483647]</text>
<polygon fill="none" stroke="black" points="255,-799 255,-821 440,-821 440,-799 255,-799"/>
<text text-anchor="start" x="275" y="-807.2" font-family="Helvetica,sans-Serif" font-size="11.00">name</text>
<polygon fill="none" stroke="black" points="440,-799 440,-821 561,-821 561,-799 440,-799"/>
<text text-anchor="start" x="443" y="-807.2" font-family="Helvetica,sans-Serif" font-size="11.00">varchar[2147483647]</text>
<polygon fill="none" stroke="black" points="255,-777 255,-799 440,-799 440,-777 255,-777"/>
<text text-anchor="start" x="275" y="-785.2" font-family="Helvetica,sans-Serif" font-size="11.00">empty_dir_medium_type</text>
<polygon fill="none" stroke="black" points="440,-777 440,-799 561,-799 561,-777 440,-777"/>
<text text-anchor="start" x="443" y="-785.2" font-family="Helvetica,sans-Serif" font-size="11.00">varchar[2147483647]</text>
<polygon fill="none" stroke="black" points="255,-755 255,-777 440,-777 440,-755 255,-755"/>
<text text-anchor="start" x="275" y="-763.2" font-family="Helvetica,sans-Serif" font-size="11.00">gce_pd_name</text>
<polygon fill="none" stroke="black" points="440,-755 440,-777 561,-777 561,-755 440,-755"/>
<text text-anchor="start" x="443" y="-763.2" font-family="Helvetica,sans-Serif" font-size="11.00">varchar[2147483647]</text>
<polygon fill="none" stroke="black" points="255,-733 255,-755 440,-755 440,-733 255,-733"/>
<text text-anchor="start" x="275" y="-741.2" font-family="Helvetica,sans-Serif" font-size="11.00">git_repository</text>
<polygon fill="none" stroke="black" points="440,-733 440,-755 561,-755 561,-733 440,-733"/>
<text text-anchor="start" x="443" y="-741.2" font-family="Helvetica,sans-Serif" font-size="11.00">varchar[2147483647]</text>
<polygon fill="none" stroke="black" points="255,-711 255,-733 440,-733 440,-711 255,-711"/>
<text text-anchor="start" x="275" y="-719.2" font-family="Helvetica,sans-Serif" font-size="11.00">git_revision</text>
<polygon fill="none" stroke="black" points="440,-711 440,-733 561,-733 561,-711 440,-711"/>
<text text-anchor="start" x="443" y="-719.2" font-family="Helvetica,sans-Serif" font-size="11.00">varchar[2147483647]</text>
<polygon fill="none" stroke="black" points="255,-689 255,-711 440,-711 440,-689 255,-689"/>
<text text-anchor="start" x="275" y="-697.2" font-family="Helvetica,sans-Serif" font-size="11.00">nfs_server</text>
<polygon fill="none" stroke="black" points="440,-689 440,-711 561,-711 561,-689 440,-689"/>
<text text-anchor="start" x="443" y="-697.2" font-family="Helvetica,sans-Serif" font-size="11.00">varchar[2147483647]</text>
<polygon fill="none" stroke="black" points="255,-667 255,-689 440,-689 440,-667 255,-667"/>
<text text-anchor="start" x="275" y="-675.2" font-family="Helvetica,sans-Serif" font-size="11.00">iscsi_target_portal</text>
<polygon fill="none" stroke="black" points="440,-667 440,-689 561,-689 561,-667 440,-667"/>
<text text-anchor="start" x="443" y="-675.2" font-family="Helvetica,sans-Serif" font-size="11.00">varchar[2147483647]</text>
<polygon fill="none" stroke="black" points="255,-645 255,-667 440,-667 440,-645 255,-645"/>
<text text-anchor="start" x="275" y="-653.2" font-family="Helvetica,sans-Serif" font-size="11.00">iscsi_iqn</text>
<polygon fill="none" stroke="black" points="440,-645 440,-667 561,-667 561,-645 440,-645"/>
<text text-anchor="start" x="443" y="-653.2" font-family="Helvetica,sans-Serif" font-size="11.00">varchar[2147483647]</text>
<polygon fill="none" stroke="black" points="255,-623 255,-645 440,-645 440,-623 255,-623"/>
<text text-anchor="start" x="275" y="-631.2" font-family="Helvetica,sans-Serif" font-size="11.00">iscsi_lun</text>
<polygon fill="none" stroke="black" points="440,-623 440,-645 561,-645 561,-623 440,-623"/>
<text text-anchor="start" x="443" y="-631.2" font-family="Helvetica,sans-Serif" font-size="11.00">int4[10]</text>
<polygon fill="none" stroke="black" points="255,-601 255,-623 440,-623 440,-601 255,-601"/>
<text text-anchor="start" x="275" y="-609.2" font-family="Helvetica,sans-Serif" font-size="11.00">glusterfs_endpoint_name</text>
<polygon fill="none" stroke="black" points="440,-601 440,-623 561,-623 561,-601 440,-601"/>
<text text-anchor="start" x="443" y="-609.2" font-family="Helvetica,sans-Serif" font-size="11.00">varchar[2147483647]</text>
<polygon fill="none" stroke="black" points="255,-579 255,-601 440,-601 440,-579 255,-579"/>
<text text-anchor="start" x="275" y="-587.2" font-family="Helvetica,sans-Serif" font-size="11.00">claim_name</text>
<polygon fill="none" stroke="black" points="440,-579 440,-601 561,-601 561,-579 440,-579"/>
<text text-anchor="start" x="443" y="-587.2" font-family="Helvetica,sans-Serif" font-size="11.00">varchar[2147483647]</text>
<polygon fill="none" stroke="black" points="255,-557 255,-579 440,-579 440,-557 255,-557"/>
<text text-anchor="start" x="275" y="-565.2" font-family="Helvetica,sans-Serif" font-size="11.00">rbd_ceph_monitors</text>
<polygon fill="none" stroke="black" points="440,-557 440,-579 561,-579 561,-557 440,-557"/>
<text text-anchor="start" x="443" y="-565.2" font-family="Helvetica,sans-Serif" font-size="11.00">varchar[2147483647]</text>
<polygon fill="none" stroke="black" points="255,-535 255,-557 440,-557 440,-535 255,-535"/>
<text text-anchor="start" x="275" y="-543.2" font-family="Helvetica,sans-Serif" font-size="11.00">rbd_image</text>
<polygon fill="none" stroke="black" points="440,-535 440,-557 561,-557 561,-535 440,-535"/>
<text text-anchor="start" x="443" y="-543.2" font-family="Helvetica,sans-Serif" font-size="11.00">varchar[2147483647]</text>
<polygon fill="none" stroke="black" points="255,-513 255,-535 440,-535 440,-513 255,-513"/>
<text text-anchor="start" x="275" y="-521.2" font-family="Helvetica,sans-Serif" font-size="11.00">rbd_pool</text>
<polygon fill="none" stroke="black" points="440,-513 440,-535 561,-535 561,-513 440,-513"/>
<text text-anchor="start" x="443" y="-521.2" font-family="Helvetica,sans-Serif" font-size="11.00">varchar[2147483647]</text>
<polygon fill="none" stroke="black" points="255,-491 255,-513 440,-513 440,-491 255,-491"/>
<text text-anchor="start" x="275" y="-499.2" font-family="Helvetica,sans-Serif" font-size="11.00">rbd_rados_user</text>
<polygon fill="none" stroke="black" points="440,-491 440,-513 561,-513 561,-491 440,-491"/>
<text text-anchor="start" x="443" y="-499.2" font-family="Helvetica,sans-Serif" font-size="11.00">varchar[2147483647]</text>
<polygon fill="none" stroke="black" points="255,-469 255,-491 440,-491 440,-469 255,-469"/>
<text text-anchor="start" x="275" y="-477.2" font-family="Helvetica,sans-Serif" font-size="11.00">rbd_keyring</text>
<polygon fill="none" stroke="black" points="440,-469 440,-491 561,-491 561,-469 440,-469"/>
<text text-anchor="start" x="443" y="-477.2" font-family="Helvetica,sans-Serif" font-size="11.00">varchar[2147483647]</text>
<polygon fill="none" stroke="black" points="255,-447 255,-469 440,-469 440,-447 255,-447"/>
<text text-anchor="start" x="275" y="-455.2" font-family="Helvetica,sans-Serif" font-size="11.00">common_path</text>
<polygon fill="none" stroke="black" points="440,-447 440,-469 561,-469 561,-447 440,-447"/>
<text text-anchor="start" x="443" y="-455.2" font-family="Helvetica,sans-Serif" font-size="11.00">varchar[2147483647]</text>
<polygon fill="none" stroke="black" points="255,-425 255,-447 440,-447 440,-425 255,-425"/>
<text text-anchor="start" x="275" y="-433.2" font-family="Helvetica,sans-Serif" font-size="11.00">common_fs_type</text>
<polygon fill="none" stroke="black" points="440,-425 440,-447 561,-447 561,-425 440,-425"/>
<text text-anchor="start" x="443" y="-433.2" font-family="Helvetica,sans-Serif" font-size="11.00">varchar[2147483647]</text>
<polygon fill="none" stroke="black" points="255,-403 255,-425 440,-425 440,-403 255,-403"/>
<text text-anchor="start" x="275" y="-411.2" font-family="Helvetica,sans-Serif" font-size="11.00">common_read_only</text>
<polygon fill="none" stroke="black" points="440,-403 440,-425 561,-425 561,-403 440,-403"/>
<text text-anchor="start" x="443" y="-411.2" font-family="Helvetica,sans-Serif" font-size="11.00">varchar[2147483647]</text>
<polygon fill="none" stroke="black" points="255,-381 255,-403 440,-403 440,-381 255,-381"/>
<text text-anchor="start" x="275" y="-389.2" font-family="Helvetica,sans-Serif" font-size="11.00">common_volume_id</text>
<polygon fill="none" stroke="black" points="440,-381 440,-403 561,-403 561,-381 440,-381"/>
<text text-anchor="start" x="443" y="-389.2" font-family="Helvetica,sans-Serif" font-size="11.00">varchar[2147483647]</text>
<polygon fill="none" stroke="black" points="255,-359 255,-381 440,-381 440,-359 255,-359"/>
<text text-anchor="start" x="275" y="-367.2" font-family="Helvetica,sans-Serif" font-size="11.00">common_partition</text>
<polygon fill="none" stroke="black" points="440,-359 440,-381 561,-381 561,-359 440,-359"/>
<text text-anchor="start" x="443" y="-367.2" font-family="Helvetica,sans-Serif" font-size="11.00">varchar[2147483647]</text>
<polygon fill="none" stroke="black" points="255,-337 255,-359 440,-359 440,-337 255,-337"/>
<text text-anchor="start" x="275" y="-345.2" font-family="Helvetica,sans-Serif" font-size="11.00">common_secret</text>
<polygon fill="none" stroke="black" points="440,-337 440,-359 561,-359 561,-337 440,-337"/>
<text text-anchor="start" x="443" y="-345.2" font-family="Helvetica,sans-Serif" font-size="11.00">varchar[2147483647]</text>
<polygon fill="none" stroke="black" points="255,-315 255,-337 440,-337 440,-315 255,-315"/>
<text text-anchor="start" x="275" y="-323.2" font-family="Helvetica,sans-Serif" font-size="11.00">ems_ref</text>
<polygon fill="none" stroke="black" points="440,-315 440,-337 561,-337 561,-315 440,-315"/>
<text text-anchor="start" x="443" y="-323.2" font-family="Helvetica,sans-Serif" font-size="11.00">varchar[2147483647]</text>
<polygon fill="none" stroke="black" points="255,-293 255,-315 440,-315 440,-293 255,-293"/>
<text text-anchor="start" x="275" y="-301.2" font-family="Helvetica,sans-Serif" font-size="11.00">ems_created_on</text>
<polygon fill="none" stroke="black" points="440,-293 440,-315 561,-315 561,-293 440,-293"/>
<text text-anchor="start" x="443" y="-301.2" font-family="Helvetica,sans-Serif" font-size="11.00">timestamp[29,6]</text>
<polygon fill="none" stroke="black" points="255,-271 255,-293 440,-293 440,-271 255,-271"/>
<text text-anchor="start" x="275" y="-279.2" font-family="Helvetica,sans-Serif" font-size="11.00">resource_version</text>
<polygon fill="none" stroke="black" points="440,-271 440,-293 561,-293 561,-271 440,-271"/>
<text text-anchor="start" x="443" y="-279.2" font-family="Helvetica,sans-Serif" font-size="11.00">varchar[2147483647]</text>
<polygon fill="none" stroke="black" points="255,-249 255,-271 440,-271 440,-249 255,-249"/>
<text text-anchor="start" x="275" y="-257.2" font-family="Helvetica,sans-Serif" font-size="11.00">capacity</text>
<polygon fill="none" stroke="black" points="440,-249 440,-271 561,-271 561,-249 440,-249"/>
<text text-anchor="start" x="443" y="-257.2" font-family="Helvetica,sans-Serif" font-size="11.00">text[2147483647]</text>
<polygon fill="none" stroke="black" points="255,-227 255,-249 440,-249 440,-227 255,-227"/>
<text text-anchor="start" x="275" y="-235.2" font-family="Helvetica,sans-Serif" font-size="11.00">access_modes</text>
<polygon fill="none" stroke="black" points="440,-227 440,-249 561,-249 561,-227 440,-227"/>
<text text-anchor="start" x="443" y="-235.2" font-family="Helvetica,sans-Serif" font-size="11.00">varchar[2147483647]</text>
<polygon fill="none" stroke="black" points="255,-205 255,-227 440,-227 440,-205 255,-205"/>
<text text-anchor="start" x="275" y="-213.2" font-family="Helvetica,sans-Serif" font-size="11.00">reclaim_policy</text>
<polygon fill="none" stroke="black" points="440,-205 440,-227 561,-227 561,-205 440,-205"/>
<text text-anchor="start" x="443" y="-213.2" font-family="Helvetica,sans-Serif" font-size="11.00">varchar[2147483647]</text>
<polygon fill="none" stroke="black" points="255,-183 255,-205 440,-205 440,-183 255,-183"/>
<text text-anchor="start" x="275" y="-191.2" font-family="Helvetica,sans-Serif" font-size="11.00">status_phase</text>
<polygon fill="none" stroke="black" points="440,-183 440,-205 561,-205 561,-183 440,-183"/>
<text text-anchor="start" x="443" y="-191.2" font-family="Helvetica,sans-Serif" font-size="11.00">varchar[2147483647]</text>
<polygon fill="none" stroke="black" points="255,-161 255,-183 440,-183 440,-161 255,-161"/>
<text text-anchor="start" x="275" y="-169.2" font-family="Helvetica,sans-Serif" font-size="11.00">status_message</text>
<polygon fill="none" stroke="black" points="440,-161 440,-183 561,-183 561,-161 440,-161"/>
<text text-anchor="start" x="443" y="-169.2" font-family="Helvetica,sans-Serif" font-size="11.00">varchar[2147483647]</text>
<polygon fill="none" stroke="black" points="255,-139 255,-161 440,-161 440,-139 255,-139"/>
<text text-anchor="start" x="275" y="-147.2" font-family="Helvetica,sans-Serif" font-size="11.00">status_reason</text>
<polygon fill="none" stroke="black" points="440,-139 440,-161 561,-161 561,-139 440,-139"/>
<text text-anchor="start" x="443" y="-147.2" font-family="Helvetica,sans-Serif" font-size="11.00">varchar[2147483647]</text>
<polygon fill="none" stroke="black" points="255,-117 255,-139 440,-139 440,-117 255,-117"/>
<text text-anchor="start" x="275" y="-125.2" font-family="Helvetica,sans-Serif" font-size="11.00">parent_type</text>
<polygon fill="none" stroke="black" points="440,-117 440,-139 561,-139 561,-117 440,-117"/>
<text text-anchor="start" x="443" y="-125.2" font-family="Helvetica,sans-Serif" font-size="11.00">varchar[2147483647]</text>
<polygon fill="none" stroke="black" points="255,-95 255,-117 440,-117 440,-95 255,-95"/>
<image xlink:href="../../images/foreignKeys.png" width="11px" height="12px" preserveAspectRatio="xMinYMin meet" x="260" y="-112"/>
<text text-anchor="start" x="275" y="-103.2" font-family="Helvetica,sans-Serif" font-size="11.00">persistent_volume_claim_id</text>
<polygon fill="none" stroke="black" points="440,-95 440,-117 561,-117 561,-95 440,-95"/>
<text text-anchor="start" x="443" y="-103.2" font-family="Helvetica,sans-Serif" font-size="11.00">int8[19]</text>
<polygon fill="none" stroke="black" points="255,-73 255,-95 440,-95 440,-73 255,-73"/>
<text text-anchor="start" x="275" y="-81.2" font-family="Helvetica,sans-Serif" font-size="11.00">created_on</text>
<polygon fill="none" stroke="black" points="440,-73 440,-95 561,-95 561,-73 440,-73"/>
<text text-anchor="start" x="443" y="-81.2" font-family="Helvetica,sans-Serif" font-size="11.00">timestamp[29,6]</text>
<polygon fill="#ffffff" stroke="none" points="255,-55 255,-73 352,-73 352,-55 255,-55"/>
<polygon fill="none" stroke="black" points="255,-55 255,-73 352,-73 352,-55 255,-55"/>
<text text-anchor="start" x="258" y="-61.2" font-family="Helvetica,sans-Serif" font-size="11.00">&lt; 1</text>
<polygon fill="#ffffff" stroke="none" points="352,-55 352,-73 440,-73 440,-55 352,-55"/>
<polygon fill="none" stroke="black" points="352,-55 352,-73 440,-73 440,-55 352,-55"/>
<text text-anchor="start" x="430" y="-61.2" font-family="Helvetica,sans-Serif" font-size="11.00"> &#160;</text>
<polygon fill="#ffffff" stroke="none" points="440,-55 440,-73 561,-73 561,-55 440,-55"/>
<polygon fill="none" stroke="black" points="440,-55 440,-73 561,-73 561,-55 440,-55"/>
<text text-anchor="start" x="541" y="-61.2" font-family="Helvetica,sans-Serif" font-size="11.00">0 &gt;</text>
<polygon fill="none" stroke="black" stroke-width="2" points="254,-54 254,-910 562,-910 562,-54 254,-54"/>
</a>
</g>
</g>
<!-- persistent_volume_claims -->
<g id="node2" class="node"><title>persistent_volume_claims</title>
<g id="a_node2"><a xlink:href="../../tables/persistent_volume_claims.html" xlink:title="persistent_volume_claims" target="_top">
<polygon fill="#ffffff" stroke="none" points="8,-37 8,-139 204,-139 204,-37 8,-37"/>
<polygon fill="#f5f5f5" stroke="none" points="8,-117 8,-139 204,-139 204,-117 8,-117"/>
<polygon fill="none" stroke="black" points="8,-117 8,-139 204,-139 204,-117 8,-117"/>
<text text-anchor="start" x="13" y="-126.2" font-family="Helvetica,sans-Serif" font-weight="bold" font-size="11.00">persistent_volume_claims</text>
<text text-anchor="start" x="165" y="-125.2" font-family="Helvetica,sans-Serif" font-size="11.00">[table]</text>
<polygon fill="none" stroke="black" points="8,-95 8,-117 204,-117 204,-95 8,-95"/>
<image xlink:href="../../images/primaryKeys.png" width="11px" height="12px" preserveAspectRatio="xMinYMin meet" x="13" y="-112"/>
<text text-anchor="start" x="39" y="-103.2" font-family="Helvetica,sans-Serif" font-size="11.00">id</text>
<polygon fill="none" stroke="black" points="8,-73 8,-95 204,-95 204,-73 8,-73"/>
<image xlink:href="../../images/foreignKeys.png" width="11px" height="12px" preserveAspectRatio="xMinYMin meet" x="13" y="-90"/>
<text text-anchor="start" x="39" y="-81.2" font-family="Helvetica,sans-Serif" font-size="11.00">container_project_id</text>
<polygon fill="none" stroke="black" points="8,-55 8,-73 204,-73 204,-55 8,-55"/>
<text text-anchor="start" x="11" y="-61.2" font-family="Helvetica,sans-Serif" font-size="11.00">...</text>
<polygon fill="#ffffff" stroke="none" points="8,-37 8,-55 99,-55 99,-37 8,-37"/>
<polygon fill="none" stroke="black" points="8,-37 8,-55 99,-55 99,-37 8,-37"/>
<text text-anchor="start" x="11" y="-43.2" font-family="Helvetica,sans-Serif" font-size="11.00">&lt; 1</text>
<polygon fill="#ffffff" stroke="none" points="99,-37 99,-55 146,-55 146,-37 99,-37"/>
<polygon fill="none" stroke="black" points="99,-37 99,-55 146,-55 146,-37 99,-37"/>
<text text-anchor="start" x="136" y="-43.2" font-family="Helvetica,sans-Serif" font-size="11.00"> &#160;</text>
<polygon fill="#ffffff" stroke="none" points="146,-37 146,-55 204,-55 204,-37 146,-37"/>
<polygon fill="none" stroke="black" points="146,-37 146,-55 204,-55 204,-37 146,-37"/>
<text text-anchor="start" x="184" y="-43.2" font-family="Helvetica,sans-Serif" font-size="11.00">1 &gt;</text>
</a>
</g>
</g>
<!-- container_volumes&#45;&gt;persistent_volume_claims -->
<g id="edge1" class="edge"><title>container_volumes:persistent_volume_claim_id:w&#45;&gt;persistent_volume_claims:id:e</title>
<path fill="none" stroke="black" d="M239.491,-106C228.177,-106 220.993,-106 205,-106"/>
<polygon fill="black" stroke="black" points="246,-106 254,-109.6 250,-106 254,-106 254,-106 254,-106 250,-106 254,-102.4 246,-106 246,-106"/>
<ellipse fill="none" stroke="black" cx="242.8" cy="-106" rx="3.2" ry="3.2"/>
</g>
</g>
</svg>
