<?xml version="1.0" encoding="UTF-8" standalone="no"?>
<!DOCTYPE svg PUBLIC "-//W3C//DTD SVG 1.1//EN"
 "http://www.w3.org/Graphics/SVG/1.1/DTD/svg11.dtd">
<!-- Generated by graphviz version 2.38.0 (20140413.2041)
 -->
<!-- Title: oneDegreeRelationshipsDiagram Pages: 1 -->
<svg width="578pt" height="373pt"
 viewBox="0.00 0.00 578.00 373.00" xmlns="http://www.w3.org/2000/svg" xmlns:xlink="http://www.w3.org/1999/xlink">
<g id="graph0" class="graph" transform="scale(1 1) rotate(0) translate(4 369)">
<title>oneDegreeRelationshipsDiagram</title>
<polygon fill="#ffffff" stroke="none" points="-4,4 -4,-369 574,-369 574,4 -4,4"/>
<text text-anchor="middle" x="74.5" y="-7.2" font-family="Helvetica,sans-Serif" font-size="11.00">Generated by SchemaSpy</text>
<!-- container_template_parameters -->
<g id="node1" class="node"><title>container_template_parameters</title>
<g id="a_node1"><a xlink:href="../../tables/container_template_parameters.html" xlink:title="container_template_parameters" target="_top">
<polygon fill="#ffffff" stroke="none" points="224,-53 224,-361 562,-361 562,-53 224,-53"/>
<polygon fill="#f5f5f5" stroke="none" points="226,-337 226,-359 560,-359 560,-337 226,-337"/>
<polygon fill="none" stroke="black" points="226,-337 226,-359 560,-359 560,-337 226,-337"/>
<text text-anchor="start" x="231" y="-346.2" font-family="Helvetica,sans-Serif" font-weight="bold" font-size="11.00">container_template_parameters</text>
<text text-anchor="start" x="521" y="-345.2" font-family="Helvetica,sans-Serif" font-size="11.00">[table]</text>
<polygon fill="none" stroke="black" points="226,-315 226,-337 439,-337 439,-315 226,-315"/>
<image xlink:href="../../images/primaryKeys.png" width="11px" height="12px" preserveAspectRatio="xMinYMin meet" x="231" y="-332"/>
<text text-anchor="start" x="246" y="-323.2" font-family="Helvetica,sans-Serif" font-size="11.00">id</text>
<polygon fill="none" stroke="black" points="439,-315 439,-337 560,-337 560,-315 439,-315"/>
<text text-anchor="start" x="442" y="-323.2" font-family="Helvetica,sans-Serif" font-size="11.00">bigserial[19]</text>
<polygon fill="none" stroke="black" points="226,-293 226,-315 439,-315 439,-293 226,-293"/>
<text text-anchor="start" x="246" y="-301.2" font-family="Helvetica,sans-Serif" font-size="11.00">name</text>
<polygon fill="none" stroke="black" points="439,-293 439,-315 560,-315 560,-293 439,-293"/>
<text text-anchor="start" x="442" y="-301.2" font-family="Helvetica,sans-Serif" font-size="11.00">varchar[2147483647]</text>
<polygon fill="none" stroke="black" points="226,-271 226,-293 439,-293 439,-271 226,-271"/>
<text text-anchor="start" x="246" y="-279.2" font-family="Helvetica,sans-Serif" font-size="11.00">ems_created_on</text>
<polygon fill="none" stroke="black" points="439,-271 439,-293 560,-293 560,-271 439,-271"/>
<text text-anchor="start" x="442" y="-279.2" font-family="Helvetica,sans-Serif" font-size="11.00">timestamp[29,6]</text>
<polygon fill="none" stroke="black" points="226,-249 226,-271 439,-271 439,-249 226,-249"/>
<text text-anchor="start" x="246" y="-257.2" font-family="Helvetica,sans-Serif" font-size="11.00">display_name</text>
<polygon fill="none" stroke="black" points="439,-249 439,-271 560,-271 560,-249 439,-249"/>
<text text-anchor="start" x="442" y="-257.2" font-family="Helvetica,sans-Serif" font-size="11.00">varchar[2147483647]</text>
<polygon fill="none" stroke="black" points="226,-227 226,-249 439,-249 439,-227 226,-227"/>
<text text-anchor="start" x="246" y="-235.2" font-family="Helvetica,sans-Serif" font-size="11.00">description</text>
<polygon fill="none" stroke="black" points="439,-227 439,-249 560,-249 560,-227 439,-227"/>
<text text-anchor="start" x="442" y="-235.2" font-family="Helvetica,sans-Serif" font-size="11.00">varchar[2147483647]</text>
<polygon fill="none" stroke="black" points="226,-205 226,-227 439,-227 439,-205 226,-205"/>
<text text-anchor="start" x="246" y="-213.2" font-family="Helvetica,sans-Serif" font-size="11.00">value</text>
<polygon fill="none" stroke="black" points="439,-205 439,-227 560,-227 560,-205 439,-205"/>
<text text-anchor="start" x="442" y="-213.2" font-family="Helvetica,sans-Serif" font-size="11.00">varchar[2147483647]</text>
<polygon fill="none" stroke="black" points="226,-183 226,-205 439,-205 439,-183 226,-183"/>
<text text-anchor="start" x="246" y="-191.2" font-family="Helvetica,sans-Serif" font-size="11.00">generate</text>
<polygon fill="none" stroke="black" points="439,-183 439,-205 560,-205 560,-183 439,-183"/>
<text text-anchor="start" x="442" y="-191.2" font-family="Helvetica,sans-Serif" font-size="11.00">varchar[2147483647]</text>
<polygon fill="none" stroke="black" points="226,-161 226,-183 439,-183 439,-161 226,-161"/>
<text text-anchor="start" x="246" y="-169.2" font-family="Helvetica,sans-Serif" font-size="11.00">from</text>
<polygon fill="none" stroke="black" points="439,-161 439,-183 560,-183 560,-161 439,-161"/>
<text text-anchor="start" x="442" y="-169.2" font-family="Helvetica,sans-Serif" font-size="11.00">varchar[2147483647]</text>
<polygon fill="none" stroke="black" points="226,-139 226,-161 439,-161 439,-139 226,-139"/>
<text text-anchor="start" x="246" y="-147.2" font-family="Helvetica,sans-Serif" font-size="11.00">required</text>
<polygon fill="none" stroke="black" points="439,-139 439,-161 560,-161 560,-139 439,-139"/>
<text text-anchor="start" x="442" y="-147.2" font-family="Helvetica,sans-Serif" font-size="11.00">bool[1]</text>
<polygon fill="#ffffff" stroke="none" points="226,-117 226,-139 439,-139 439,-117 226,-117"/>
<polygon fill="none" stroke="black" points="226,-117 226,-139 439,-139 439,-117 226,-117"/>
<image xlink:href="../../images/foreignKeys.png" width="11px" height="12px" preserveAspectRatio="xMinYMin meet" x="231" y="-134"/>
<text text-anchor="start" x="246" y="-125.2" font-family="Helvetica,sans-Serif" font-size="11.00">container_template_id</text>
<polygon fill="none" stroke="black" points="439,-117 439,-139 560,-139 560,-117 439,-117"/>
<text text-anchor="start" x="442" y="-125.2" font-family="Helvetica,sans-Serif" font-size="11.00">int8[19]</text>
<polygon fill="none" stroke="black" points="226,-95 226,-117 439,-117 439,-95 226,-95"/>
<text text-anchor="start" x="246" y="-103.2" font-family="Helvetica,sans-Serif" font-size="11.00">created_at</text>
<polygon fill="none" stroke="black" points="439,-95 439,-117 560,-117 560,-95 439,-95"/>
<text text-anchor="start" x="442" y="-103.2" font-family="Helvetica,sans-Serif" font-size="11.00">timestamp[29,6]</text>
<polygon fill="none" stroke="black" points="226,-73 226,-95 439,-95 439,-73 226,-73"/>
<text text-anchor="start" x="246" y="-81.2" font-family="Helvetica,sans-Serif" font-size="11.00">updated_at</text>
<polygon fill="none" stroke="black" points="439,-73 439,-95 560,-95 560,-73 439,-73"/>
<text text-anchor="start" x="442" y="-81.2" font-family="Helvetica,sans-Serif" font-size="11.00">timestamp[29,6]</text>
<polygon fill="#ffffff" stroke="none" points="226,-55 226,-73 337,-73 337,-55 226,-55"/>
<polygon fill="none" stroke="black" points="226,-55 226,-73 337,-73 337,-55 226,-55"/>
<text text-anchor="start" x="229" y="-61.2" font-family="Helvetica,sans-Serif" font-size="11.00">&lt; 1</text>
<polygon fill="#ffffff" stroke="none" points="337,-55 337,-73 439,-73 439,-55 337,-55"/>
<polygon fill="none" stroke="black" points="337,-55 337,-73 439,-73 439,-55 337,-55"/>
<text text-anchor="start" x="429" y="-61.2" font-family="Helvetica,sans-Serif" font-size="11.00"> &#160;</text>
<polygon fill="#ffffff" stroke="none" points="439,-55 439,-73 560,-73 560,-55 439,-55"/>
<polygon fill="none" stroke="black" points="439,-55 439,-73 560,-73 560,-55 439,-55"/>
<text text-anchor="start" x="540" y="-61.2" font-family="Helvetica,sans-Serif" font-size="11.00">0 &gt;</text>
<polygon fill="none" stroke="black" stroke-width="2" points="225,-54 225,-360 561,-360 561,-54 225,-54"/>
</a>
</g>
</g>
<!-- container_templates -->
<g id="node2" class="node"><title>container_templates</title>
<g id="a_node2"><a xlink:href="../../tables/container_templates.html" xlink:title="container_templates" target="_top">
<polygon fill="#ffffff" stroke="none" points="8,-37 8,-161 175,-161 175,-37 8,-37"/>
<polygon fill="#f5f5f5" stroke="none" points="8.5,-139 8.5,-161 175.5,-161 175.5,-139 8.5,-139"/>
<polygon fill="none" stroke="black" points="8.5,-139 8.5,-161 175.5,-161 175.5,-139 8.5,-139"/>
<text text-anchor="start" x="13.5" y="-148.2" font-family="Helvetica,sans-Serif" font-weight="bold" font-size="11.00">container_templates</text>
<text text-anchor="start" x="136.5" y="-147.2" font-family="Helvetica,sans-Serif" font-size="11.00">[table]</text>
<polygon fill="none" stroke="black" points="8.5,-117 8.5,-139 175.5,-139 175.5,-117 8.5,-117"/>
<image xlink:href="../../images/primaryKeys.png" width="11px" height="12px" preserveAspectRatio="xMinYMin meet" x="13.5" y="-134"/>
<text text-anchor="start" x="40.5" y="-125.2" font-family="Helvetica,sans-Serif" font-size="11.00">id</text>
<polygon fill="#ffffff" stroke="none" points="8.5,-95 8.5,-117 175.5,-117 175.5,-95 8.5,-95"/>
<polygon fill="none" stroke="black" points="8.5,-95 8.5,-117 175.5,-117 175.5,-95 8.5,-95"/>
<text text-anchor="start" x="40.5" y="-103.2" font-family="Helvetica,sans-Serif" font-size="11.00">ems_id</text>
<polygon fill="#ffffff" stroke="none" points="8.5,-73 8.5,-95 175.5,-95 175.5,-73 8.5,-73"/>
<polygon fill="none" stroke="black" points="8.5,-73 8.5,-95 175.5,-95 175.5,-73 8.5,-73"/>
<image xlink:href="../../images/foreignKeys.png" width="11px" height="12px" preserveAspectRatio="xMinYMin meet" x="13.5" y="-90"/>
<text text-anchor="start" x="40.5" y="-81.2" font-family="Helvetica,sans-Serif" font-size="11.00">container_project_id</text>
<polygon fill="none" stroke="black" points="8.5,-55 8.5,-73 175.5,-73 175.5,-55 8.5,-55"/>
<text text-anchor="start" x="11.5" y="-61.2" font-family="Helvetica,sans-Serif" font-size="11.00">...</text>
<polygon fill="#ffffff" stroke="none" points="8.5,-37 8.5,-55 85.5,-55 85.5,-37 8.5,-37"/>
<polygon fill="none" stroke="black" points="8.5,-37 8.5,-55 85.5,-55 85.5,-37 8.5,-37"/>
<text text-anchor="start" x="11.5" y="-43.2" font-family="Helvetica,sans-Serif" font-size="11.00">&lt; 1</text>
<polygon fill="#ffffff" stroke="none" points="85.5,-37 85.5,-55 125.5,-55 125.5,-37 85.5,-37"/>
<polygon fill="none" stroke="black" points="85.5,-37 85.5,-55 125.5,-55 125.5,-37 85.5,-37"/>
<text text-anchor="start" x="115.5" y="-43.2" font-family="Helvetica,sans-Serif" font-size="11.00"> &#160;</text>
<polygon fill="#ffffff" stroke="none" points="125.5,-37 125.5,-55 175.5,-55 175.5,-37 125.5,-37"/>
<polygon fill="none" stroke="black" points="125.5,-37 125.5,-55 175.5,-55 175.5,-37 125.5,-37"/>
<text text-anchor="start" x="155.5" y="-43.2" font-family="Helvetica,sans-Serif" font-size="11.00">1 &gt;</text>
</a>
</g>
</g>
<!-- container_template_parameters&#45;&gt;container_templates -->
<g id="edge1" class="edge"><title>container_template_parameters:container_template_id:w&#45;&gt;container_templates:id:e</title>
<path fill="none" stroke="black" d="M210.283,-128C199.289,-128 192.161,-128 176.5,-128"/>
<polygon fill="black" stroke="black" points="217,-128 225,-131.6 221,-128 225,-128 225,-128 225,-128 221,-128 225,-124.4 217,-128 217,-128"/>
<ellipse fill="none" stroke="black" cx="213.8" cy="-128" rx="3.2" ry="3.2"/>
</g>
</g>
</svg>
