<?xml version="1.0" encoding="UTF-8" standalone="no"?>
<!DOCTYPE svg PUBLIC "-//W3C//DTD SVG 1.1//EN"
 "http://www.w3.org/Graphics/SVG/1.1/DTD/svg11.dtd">
<!-- Generated by graphviz version 2.38.0 (20140413.2041)
 -->
<!-- Title: oneDegreeRelationshipsDiagram Pages: 1 -->
<svg width="505pt" height="329pt"
 viewBox="0.00 0.00 505.00 329.00" xmlns="http://www.w3.org/2000/svg" xmlns:xlink="http://www.w3.org/1999/xlink">
<g id="graph0" class="graph" transform="scale(1 1) rotate(0) translate(4 325)">
<title>oneDegreeRelationshipsDiagram</title>
<polygon fill="#ffffff" stroke="none" points="-4,4 -4,-325 501,-325 501,4 -4,4"/>
<text text-anchor="middle" x="74.5" y="-7.2" font-family="Helvetica,sans-Serif" font-size="11.00">Generated by SchemaSpy</text>
<!-- container_limit_items -->
<g id="node1" class="node"><title>container_limit_items</title>
<g id="a_node1"><a xlink:href="../../tables/container_limit_items.html" xlink:title="container_limit_items" target="_top">
<polygon fill="#ffffff" stroke="none" points="199,-75 199,-317 489,-317 489,-75 199,-75"/>
<polygon fill="#f5f5f5" stroke="none" points="201,-293 201,-315 487,-315 487,-293 201,-293"/>
<polygon fill="none" stroke="black" points="201,-293 201,-315 487,-315 487,-293 201,-293"/>
<text text-anchor="start" x="206" y="-302.2" font-family="Helvetica,sans-Serif" font-weight="bold" font-size="11.00">container_limit_items</text>
<text text-anchor="start" x="448" y="-301.2" font-family="Helvetica,sans-Serif" font-size="11.00">[table]</text>
<polygon fill="none" stroke="black" points="201,-271 201,-293 366,-293 366,-271 201,-271"/>
<image xlink:href="../../images/primaryKeys.png" width="11px" height="12px" preserveAspectRatio="xMinYMin meet" x="206" y="-288"/>
<text text-anchor="start" x="221" y="-279.2" font-family="Helvetica,sans-Serif" font-size="11.00">id</text>
<polygon fill="none" stroke="black" points="366,-271 366,-293 487,-293 487,-271 366,-271"/>
<text text-anchor="start" x="369" y="-279.2" font-family="Helvetica,sans-Serif" font-size="11.00">bigserial[19]</text>
<polygon fill="none" stroke="black" points="201,-249 201,-271 366,-271 366,-249 201,-249"/>
<text text-anchor="start" x="221" y="-257.2" font-family="Helvetica,sans-Serif" font-size="11.00">item_type</text>
<polygon fill="none" stroke="black" points="366,-249 366,-271 487,-271 487,-249 366,-249"/>
<text text-anchor="start" x="369" y="-257.2" font-family="Helvetica,sans-Serif" font-size="11.00">varchar[2147483647]</text>
<polygon fill="none" stroke="black" points="201,-227 201,-249 366,-249 366,-227 201,-227"/>
<text text-anchor="start" x="221" y="-235.2" font-family="Helvetica,sans-Serif" font-size="11.00">resource</text>
<polygon fill="none" stroke="black" points="366,-227 366,-249 487,-249 487,-227 366,-227"/>
<text text-anchor="start" x="369" y="-235.2" font-family="Helvetica,sans-Serif" font-size="11.00">varchar[2147483647]</text>
<polygon fill="none" stroke="black" points="201,-205 201,-227 366,-227 366,-205 201,-205"/>
<text text-anchor="start" x="221" y="-213.2" font-family="Helvetica,sans-Serif" font-size="11.00">max</text>
<polygon fill="none" stroke="black" points="366,-205 366,-227 487,-227 487,-205 366,-205"/>
<text text-anchor="start" x="369" y="-213.2" font-family="Helvetica,sans-Serif" font-size="11.00">varchar[2147483647]</text>
<polygon fill="none" stroke="black" points="201,-183 201,-205 366,-205 366,-183 201,-183"/>
<text text-anchor="start" x="221" y="-191.2" font-family="Helvetica,sans-Serif" font-size="11.00">min</text>
<polygon fill="none" stroke="black" points="366,-183 366,-205 487,-205 487,-183 366,-183"/>
<text text-anchor="start" x="369" y="-191.2" font-family="Helvetica,sans-Serif" font-size="11.00">varchar[2147483647]</text>
<polygon fill="none" stroke="black" points="201,-161 201,-183 366,-183 366,-161 201,-161"/>
<text text-anchor="start" x="221" y="-169.2" font-family="Helvetica,sans-Serif" font-size="11.00">default</text>
<polygon fill="none" stroke="black" points="366,-161 366,-183 487,-183 487,-161 366,-161"/>
<text text-anchor="start" x="369" y="-169.2" font-family="Helvetica,sans-Serif" font-size="11.00">varchar[2147483647]</text>
<polygon fill="none" stroke="black" points="201,-139 201,-161 366,-161 366,-139 201,-139"/>
<text text-anchor="start" x="221" y="-147.2" font-family="Helvetica,sans-Serif" font-size="11.00">default_request</text>
<polygon fill="none" stroke="black" points="366,-139 366,-161 487,-161 487,-139 366,-139"/>
<text text-anchor="start" x="369" y="-147.2" font-family="Helvetica,sans-Serif" font-size="11.00">varchar[2147483647]</text>
<polygon fill="none" stroke="black" points="201,-117 201,-139 366,-139 366,-117 201,-117"/>
<text text-anchor="start" x="221" y="-125.2" font-family="Helvetica,sans-Serif" font-size="11.00">max_limit_request_ratio</text>
<polygon fill="none" stroke="black" points="366,-117 366,-139 487,-139 487,-117 366,-117"/>
<text text-anchor="start" x="369" y="-125.2" font-family="Helvetica,sans-Serif" font-size="11.00">varchar[2147483647]</text>
<polygon fill="none" stroke="black" points="201,-95 201,-117 366,-117 366,-95 201,-95"/>
<image xlink:href="../../images/foreignKeys.png" width="11px" height="12px" preserveAspectRatio="xMinYMin meet" x="206" y="-112"/>
<text text-anchor="start" x="221" y="-103.2" font-family="Helvetica,sans-Serif" font-size="11.00">container_limit_id</text>
<polygon fill="none" stroke="black" points="366,-95 366,-117 487,-117 487,-95 366,-95"/>
<text text-anchor="start" x="369" y="-103.2" font-family="Helvetica,sans-Serif" font-size="11.00">int8[19]</text>
<polygon fill="#ffffff" stroke="none" points="201,-77 201,-95 288,-95 288,-77 201,-77"/>
<polygon fill="none" stroke="black" points="201,-77 201,-95 288,-95 288,-77 201,-77"/>
<text text-anchor="start" x="204" y="-83.2" font-family="Helvetica,sans-Serif" font-size="11.00">&lt; 1</text>
<polygon fill="#ffffff" stroke="none" points="288,-77 288,-95 366,-95 366,-77 288,-77"/>
<polygon fill="none" stroke="black" points="288,-77 288,-95 366,-95 366,-77 288,-77"/>
<text text-anchor="start" x="356" y="-83.2" font-family="Helvetica,sans-Serif" font-size="11.00"> &#160;</text>
<polygon fill="#ffffff" stroke="none" points="366,-77 366,-95 487,-95 487,-77 366,-77"/>
<polygon fill="none" stroke="black" points="366,-77 366,-95 487,-95 487,-77 366,-77"/>
<text text-anchor="start" x="467" y="-83.2" font-family="Helvetica,sans-Serif" font-size="11.00">0 &gt;</text>
<polygon fill="none" stroke="black" stroke-width="2" points="200,-76 200,-316 488,-316 488,-76 200,-76"/>
</a>
</g>
</g>
<!-- container_limits -->
<g id="node2" class="node"><title>container_limits</title>
<g id="a_node2"><a xlink:href="../../tables/container_limits.html" xlink:title="container_limits" target="_top">
<polygon fill="#ffffff" stroke="none" points="8,-37 8,-139 150,-139 150,-37 8,-37"/>
<polygon fill="#f5f5f5" stroke="none" points="8,-117 8,-139 150,-139 150,-117 8,-117"/>
<polygon fill="none" stroke="black" points="8,-117 8,-139 150,-139 150,-117 8,-117"/>
<text text-anchor="start" x="13" y="-126.2" font-family="Helvetica,sans-Serif" font-weight="bold" font-size="11.00">container_limits</text>
<text text-anchor="start" x="111" y="-125.2" font-family="Helvetica,sans-Serif" font-size="11.00">[table]</text>
<polygon fill="none" stroke="black" points="8,-95 8,-117 150,-117 150,-95 8,-95"/>
<image xlink:href="../../images/primaryKeys.png" width="11px" height="12px" preserveAspectRatio="xMinYMin meet" x="13" y="-112"/>
<text text-anchor="start" x="28" y="-103.2" font-family="Helvetica,sans-Serif" font-size="11.00">id</text>
<polygon fill="none" stroke="black" points="8,-73 8,-95 150,-95 150,-73 8,-73"/>
<image xlink:href="../../images/foreignKeys.png" width="11px" height="12px" preserveAspectRatio="xMinYMin meet" x="13" y="-90"/>
<text text-anchor="start" x="28" y="-81.2" font-family="Helvetica,sans-Serif" font-size="11.00">container_project_id</text>
<polygon fill="none" stroke="black" points="8,-55 8,-73 150,-73 150,-55 8,-55"/>
<text text-anchor="start" x="11" y="-61.2" font-family="Helvetica,sans-Serif" font-size="11.00">...</text>
<polygon fill="#ffffff" stroke="none" points="8,-37 8,-55 72,-55 72,-37 8,-37"/>
<polygon fill="none" stroke="black" points="8,-37 8,-55 72,-55 72,-37 8,-37"/>
<text text-anchor="start" x="11" y="-43.2" font-family="Helvetica,sans-Serif" font-size="11.00">&lt; 1</text>
<polygon fill="#ffffff" stroke="none" points="72,-37 72,-55 106,-55 106,-37 72,-37"/>
<polygon fill="none" stroke="black" points="72,-37 72,-55 106,-55 106,-37 72,-37"/>
<text text-anchor="start" x="96" y="-43.2" font-family="Helvetica,sans-Serif" font-size="11.00"> &#160;</text>
<polygon fill="#ffffff" stroke="none" points="106,-37 106,-55 150,-55 150,-37 106,-37"/>
<polygon fill="none" stroke="black" points="106,-37 106,-55 150,-55 150,-37 106,-37"/>
<text text-anchor="start" x="130" y="-43.2" font-family="Helvetica,sans-Serif" font-size="11.00">1 &gt;</text>
</a>
</g>
</g>
<!-- container_limit_items&#45;&gt;container_limits -->
<g id="edge1" class="edge"><title>container_limit_items:container_limit_id:w&#45;&gt;container_limits:id:e</title>
<path fill="none" stroke="black" d="M185.491,-106C174.177,-106 166.993,-106 151,-106"/>
<polygon fill="black" stroke="black" points="192,-106 200,-109.6 196,-106 200,-106 200,-106 200,-106 196,-106 200,-102.4 192,-106 192,-106"/>
<ellipse fill="none" stroke="black" cx="188.8" cy="-106" rx="3.2" ry="3.2"/>
</g>
</g>
</svg>
