<?xml version="1.0" encoding="UTF-8" standalone="no"?>
<!DOCTYPE svg PUBLIC "-//W3C//DTD SVG 1.1//EN"
 "http://www.w3.org/Graphics/SVG/1.1/DTD/svg11.dtd">
<!-- Generated by graphviz version 2.38.0 (20140413.2041)
 -->
<!-- Title: twoDegreesRelationshipsDiagram Pages: 1 -->
<svg width="1064pt" height="659pt"
 viewBox="0.00 0.00 1064.00 659.47" xmlns="http://www.w3.org/2000/svg" xmlns:xlink="http://www.w3.org/1999/xlink">
<g id="graph0" class="graph" transform="scale(1 1) rotate(0) translate(4 655.468)">
<title>twoDegreesRelationshipsDiagram</title>
<polygon fill="#ffffff" stroke="none" points="-4,4 -4,-655.468 1060,-655.468 1060,4 -4,4"/>
<text text-anchor="middle" x="74.5" y="-7.2" font-family="Helvetica,sans-Serif" font-size="11.00">Generated by SchemaSpy</text>
<!-- miq_groups -->
<g id="node1" class="node"><title>miq_groups</title>
<g id="a_node1"><a xlink:href="../../tables/miq_groups.html" xlink:title="miq_groups" target="_top">
<polygon fill="#ffffff" stroke="none" points="203,-521 203,-579 317,-579 317,-521 203,-521"/>
<polygon fill="#f5f5f5" stroke="none" points="203,-557 203,-579 317,-579 317,-557 203,-557"/>
<polygon fill="none" stroke="black" points="203,-557 203,-579 317,-579 317,-557 203,-557"/>
<text text-anchor="start" x="208" y="-566.2" font-family="Helvetica,sans-Serif" font-weight="bold" font-size="11.00">miq_groups</text>
<text text-anchor="start" x="278" y="-565.2" font-family="Helvetica,sans-Serif" font-size="11.00">[table]</text>
<polygon fill="none" stroke="black" points="203,-539 203,-557 317,-557 317,-539 203,-539"/>
<text text-anchor="start" x="206" y="-545.2" font-family="Helvetica,sans-Serif" font-size="11.00">...</text>
<polygon fill="#ffffff" stroke="none" points="203,-521 203,-539 250,-539 250,-521 203,-521"/>
<polygon fill="none" stroke="black" points="203,-521 203,-539 250,-539 250,-521 203,-521"/>
<text text-anchor="start" x="206" y="-527.2" font-family="Helvetica,sans-Serif" font-size="11.00">&lt; 1</text>
<polygon fill="#ffffff" stroke="none" points="250,-521 250,-539 275,-539 275,-521 250,-521"/>
<polygon fill="none" stroke="black" points="250,-521 250,-539 275,-539 275,-521 250,-521"/>
<text text-anchor="start" x="265" y="-527.2" font-family="Helvetica,sans-Serif" font-size="11.00"> &#160;</text>
<polygon fill="#ffffff" stroke="none" points="275,-521 275,-539 317,-539 317,-521 275,-521"/>
<polygon fill="none" stroke="black" points="275,-521 275,-539 317,-539 317,-521 275,-521"/>
<text text-anchor="start" x="290" y="-527.2" font-family="Helvetica,sans-Serif" font-size="11.00">10 &gt;</text>
</a>
</g>
</g>
<!-- tenants -->
<g id="node2" class="node"><title>tenants</title>
<g id="a_node2"><a xlink:href="../../tables/tenants.html" xlink:title="tenants" target="_top">
<polygon fill="#ffffff" stroke="none" points="8,-442 8,-500 101,-500 101,-442 8,-442"/>
<polygon fill="#f5f5f5" stroke="none" points="8.5,-478 8.5,-500 101.5,-500 101.5,-478 8.5,-478"/>
<polygon fill="none" stroke="black" points="8.5,-478 8.5,-500 101.5,-500 101.5,-478 8.5,-478"/>
<text text-anchor="start" x="13.5" y="-487.2" font-family="Helvetica,sans-Serif" font-weight="bold" font-size="11.00">tenants</text>
<text text-anchor="start" x="62.5" y="-486.2" font-family="Helvetica,sans-Serif" font-size="11.00">[table]</text>
<polygon fill="none" stroke="black" points="8.5,-460 8.5,-478 101.5,-478 101.5,-460 8.5,-460"/>
<text text-anchor="start" x="11.5" y="-466.2" font-family="Helvetica,sans-Serif" font-size="11.00">...</text>
<polygon fill="#ffffff" stroke="none" points="8.5,-442 8.5,-460 39.5,-460 39.5,-442 8.5,-442"/>
<polygon fill="none" stroke="black" points="8.5,-442 8.5,-460 39.5,-460 39.5,-442 8.5,-442"/>
<text text-anchor="start" x="11.5" y="-448.2" font-family="Helvetica,sans-Serif" font-size="11.00"> &#160;</text>
<polygon fill="#ffffff" stroke="none" points="39.5,-442 39.5,-460 61.5,-460 61.5,-442 39.5,-442"/>
<polygon fill="none" stroke="black" points="39.5,-442 39.5,-460 61.5,-460 61.5,-442 39.5,-442"/>
<text text-anchor="start" x="51.5" y="-448.2" font-family="Helvetica,sans-Serif" font-size="11.00"> &#160;</text>
<polygon fill="#ffffff" stroke="none" points="61.5,-442 61.5,-460 101.5,-460 101.5,-442 61.5,-442"/>
<polygon fill="none" stroke="black" points="61.5,-442 61.5,-460 101.5,-460 101.5,-442 61.5,-442"/>
<text text-anchor="start" x="74.5" y="-448.2" font-family="Helvetica,sans-Serif" font-size="11.00">20 &gt;</text>
</a>
</g>
</g>
<!-- miq_groups&#45;&gt;tenants -->
<g id="edge1" class="edge"><title>miq_groups:elipses:w&#45;&gt;tenants:elipses:e</title>
<path fill="none" stroke="black" d="M187.449,-546.419C168.449,-541.736 161.913,-527.246 142,-511 122.145,-494.801 128.125,-469 102.5,-469"/>
<polygon fill="black" stroke="black" points="194.047,-547.136 201.611,-551.579 198.023,-547.568 202,-548 202,-548 202,-548 198.023,-547.568 202.389,-544.421 194.047,-547.136 194.047,-547.136"/>
<ellipse fill="none" stroke="black" cx="190.866" cy="-546.79" rx="3.2" ry="3.2"/>
</g>
<!-- service_resources -->
<g id="node3" class="node"><title>service_resources</title>
<g id="a_node3"><a xlink:href="../../tables/service_resources.html" xlink:title="service_resources" target="_top">
<polygon fill="#ffffff" stroke="none" points="900,-472 900,-530 1048,-530 1048,-472 900,-472"/>
<polygon fill="#f5f5f5" stroke="none" points="900,-508 900,-530 1048,-530 1048,-508 900,-508"/>
<polygon fill="none" stroke="black" points="900,-508 900,-530 1048,-530 1048,-508 900,-508"/>
<text text-anchor="start" x="905" y="-517.2" font-family="Helvetica,sans-Serif" font-weight="bold" font-size="11.00">service_resources</text>
<text text-anchor="start" x="1009" y="-516.2" font-family="Helvetica,sans-Serif" font-size="11.00">[table]</text>
<polygon fill="none" stroke="black" points="900,-490 900,-508 1048,-508 1048,-490 900,-490"/>
<text text-anchor="start" x="903" y="-496.2" font-family="Helvetica,sans-Serif" font-size="11.00">...</text>
<polygon fill="#ffffff" stroke="none" points="900,-472 900,-490 972,-490 972,-472 900,-472"/>
<polygon fill="none" stroke="black" points="900,-472 900,-490 972,-490 972,-472 900,-472"/>
<text text-anchor="start" x="903" y="-478.2" font-family="Helvetica,sans-Serif" font-size="11.00">&lt; 2</text>
<polygon fill="#ffffff" stroke="none" points="972,-472 972,-490 1010,-490 1010,-472 972,-472"/>
<polygon fill="none" stroke="black" points="972,-472 972,-490 1010,-490 1010,-472 972,-472"/>
<text text-anchor="start" x="1000" y="-478.2" font-family="Helvetica,sans-Serif" font-size="11.00"> &#160;</text>
<polygon fill="#ffffff" stroke="none" points="1010,-472 1010,-490 1048,-490 1048,-472 1010,-472"/>
<polygon fill="none" stroke="black" points="1010,-472 1010,-490 1048,-490 1048,-472 1010,-472"/>
<text text-anchor="start" x="1038" y="-478.2" font-family="Helvetica,sans-Serif" font-size="11.00"> &#160;</text>
</a>
</g>
</g>
<!-- services -->
<g id="node4" class="node"><title>services</title>
<g id="a_node4"><a xlink:href="../../tables/services.html" xlink:title="services" target="_top">
<polygon fill="#ffffff" stroke="none" points="678,-292 678,-504 828,-504 828,-292 678,-292"/>
<polygon fill="#f5f5f5" stroke="none" points="678,-482 678,-504 828,-504 828,-482 678,-482"/>
<polygon fill="none" stroke="black" points="678,-482 678,-504 828,-504 828,-482 678,-482"/>
<text text-anchor="start" x="683" y="-491.2" font-family="Helvetica,sans-Serif" font-weight="bold" font-size="11.00">services</text>
<text text-anchor="start" x="789" y="-490.2" font-family="Helvetica,sans-Serif" font-size="11.00">[table]</text>
<polygon fill="none" stroke="black" points="678,-460 678,-482 828,-482 828,-460 678,-460"/>
<image xlink:href="../../images/primaryKeys.png" width="11px" height="12px" preserveAspectRatio="xMinYMin meet" x="683" y="-477"/>
<text text-anchor="start" x="698" y="-468.2" font-family="Helvetica,sans-Serif" font-size="11.00">id</text>
<polygon fill="#ffffff" stroke="none" points="678,-438 678,-460 828,-460 828,-438 678,-438"/>
<polygon fill="none" stroke="black" points="678,-438 678,-460 828,-460 828,-438 678,-438"/>
<text text-anchor="start" x="698" y="-446.2" font-family="Helvetica,sans-Serif" font-size="11.00">type</text>
<polygon fill="none" stroke="black" points="678,-416 678,-438 828,-438 828,-416 678,-416"/>
<image xlink:href="../../images/foreignKeys.png" width="11px" height="12px" preserveAspectRatio="xMinYMin meet" x="683" y="-433"/>
<text text-anchor="start" x="698" y="-424.2" font-family="Helvetica,sans-Serif" font-size="11.00">service_template_id</text>
<polygon fill="none" stroke="black" points="678,-394 678,-416 828,-416 828,-394 678,-394"/>
<image xlink:href="../../images/foreignKeys.png" width="11px" height="12px" preserveAspectRatio="xMinYMin meet" x="683" y="-411"/>
<text text-anchor="start" x="698" y="-402.2" font-family="Helvetica,sans-Serif" font-size="11.00">miq_group_id</text>
<polygon fill="none" stroke="black" points="678,-372 678,-394 828,-394 828,-372 678,-372"/>
<image xlink:href="../../images/foreignKeys.png" width="11px" height="12px" preserveAspectRatio="xMinYMin meet" x="683" y="-389"/>
<text text-anchor="start" x="698" y="-380.2" font-family="Helvetica,sans-Serif" font-size="11.00">tenant_id</text>
<polygon fill="#ffffff" stroke="none" points="678,-350 678,-372 828,-372 828,-350 678,-350"/>
<polygon fill="none" stroke="black" points="678,-350 678,-372 828,-372 828,-350 678,-350"/>
<text text-anchor="start" x="698" y="-358.2" font-family="Helvetica,sans-Serif" font-size="11.00">ancestry</text>
<polygon fill="#ffffff" stroke="none" points="678,-328 678,-350 828,-350 828,-328 678,-328"/>
<polygon fill="none" stroke="black" points="678,-328 678,-350 828,-350 828,-328 678,-328"/>
<image xlink:href="../../images/foreignKeys.png" width="11px" height="12px" preserveAspectRatio="xMinYMin meet" x="683" y="-345"/>
<text text-anchor="start" x="698" y="-336.2" font-family="Helvetica,sans-Serif" font-size="11.00">currency_id</text>
<polygon fill="none" stroke="black" points="678,-310 678,-328 828,-328 828,-310 678,-310"/>
<text text-anchor="start" x="681" y="-316.2" font-family="Helvetica,sans-Serif" font-size="11.00">...</text>
<polygon fill="#ffffff" stroke="none" points="678,-292 678,-310 746,-310 746,-292 678,-292"/>
<polygon fill="none" stroke="black" points="678,-292 678,-310 746,-310 746,-292 678,-292"/>
<text text-anchor="start" x="681" y="-298.2" font-family="Helvetica,sans-Serif" font-size="11.00">&lt; 4</text>
<polygon fill="#ffffff" stroke="none" points="746,-292 746,-310 782,-310 782,-292 746,-292"/>
<polygon fill="none" stroke="black" points="746,-292 746,-310 782,-310 782,-292 746,-292"/>
<text text-anchor="start" x="772" y="-298.2" font-family="Helvetica,sans-Serif" font-size="11.00"> &#160;</text>
<polygon fill="#ffffff" stroke="none" points="782,-292 782,-310 828,-310 828,-292 782,-292"/>
<polygon fill="none" stroke="black" points="782,-292 782,-310 828,-310 828,-292 782,-292"/>
<text text-anchor="start" x="808" y="-298.2" font-family="Helvetica,sans-Serif" font-size="11.00">1 &gt;</text>
</a>
</g>
</g>
<!-- service_resources&#45;&gt;services -->
<g id="edge2" class="edge"><title>service_resources:elipses:w&#45;&gt;services:id:e</title>
<path fill="none" stroke="black" d="M884.703,-496.986C863.691,-490.566 857.01,-471 829,-471"/>
<polygon fill="black" stroke="black" points="891.078,-497.884 898.498,-502.565 895.039,-498.442 899,-499 899,-499 899,-499 895.039,-498.442 899.502,-495.435 891.078,-497.884 891.078,-497.884"/>
<ellipse fill="none" stroke="black" cx="887.909" cy="-497.438" rx="3.2" ry="3.2"/>
</g>
<!-- service_templates -->
<g id="node5" class="node"><title>service_templates</title>
<g id="a_node5"><a xlink:href="../../tables/service_templates.html" xlink:title="service_templates" target="_top">
<polygon fill="#ffffff" stroke="none" points="419,-305 419,-561 606,-561 606,-305 419,-305"/>
<polygon fill="#f5f5f5" stroke="none" points="419.5,-539 419.5,-561 606.5,-561 606.5,-539 419.5,-539"/>
<polygon fill="none" stroke="black" points="419.5,-539 419.5,-561 606.5,-561 606.5,-539 419.5,-539"/>
<text text-anchor="start" x="424.5" y="-548.2" font-family="Helvetica,sans-Serif" font-weight="bold" font-size="11.00">service_templates</text>
<text text-anchor="start" x="567.5" y="-547.2" font-family="Helvetica,sans-Serif" font-size="11.00">[table]</text>
<polygon fill="none" stroke="black" points="419.5,-517 419.5,-539 606.5,-539 606.5,-517 419.5,-517"/>
<image xlink:href="../../images/primaryKeys.png" width="11px" height="12px" preserveAspectRatio="xMinYMin meet" x="424.5" y="-534"/>
<text text-anchor="start" x="439.5" y="-525.2" font-family="Helvetica,sans-Serif" font-size="11.00">id</text>
<polygon fill="#ffffff" stroke="none" points="419.5,-495 419.5,-517 606.5,-517 606.5,-495 419.5,-495"/>
<polygon fill="none" stroke="black" points="419.5,-495 419.5,-517 606.5,-517 606.5,-495 419.5,-495"/>
<text text-anchor="start" x="439.5" y="-503.2" font-family="Helvetica,sans-Serif" font-size="11.00">type</text>
<polygon fill="none" stroke="black" points="419.5,-473 419.5,-495 606.5,-495 606.5,-473 419.5,-473"/>
<image xlink:href="../../images/foreignKeys.png" width="11px" height="12px" preserveAspectRatio="xMinYMin meet" x="424.5" y="-490"/>
<text text-anchor="start" x="439.5" y="-481.2" font-family="Helvetica,sans-Serif" font-size="11.00">service_template_id</text>
<polygon fill="none" stroke="black" points="419.5,-451 419.5,-473 606.5,-473 606.5,-451 419.5,-451"/>
<image xlink:href="../../images/foreignKeys.png" width="11px" height="12px" preserveAspectRatio="xMinYMin meet" x="424.5" y="-468"/>
<text text-anchor="start" x="439.5" y="-459.2" font-family="Helvetica,sans-Serif" font-size="11.00">miq_group_id</text>
<polygon fill="none" stroke="black" points="419.5,-429 419.5,-451 606.5,-451 606.5,-429 419.5,-429"/>
<image xlink:href="../../images/foreignKeys.png" width="11px" height="12px" preserveAspectRatio="xMinYMin meet" x="424.5" y="-446"/>
<text text-anchor="start" x="439.5" y="-437.2" font-family="Helvetica,sans-Serif" font-size="11.00">service_template_catalog_id</text>
<polygon fill="none" stroke="black" points="419.5,-407 419.5,-429 606.5,-429 606.5,-407 419.5,-407"/>
<image xlink:href="../../images/foreignKeys.png" width="11px" height="12px" preserveAspectRatio="xMinYMin meet" x="424.5" y="-424"/>
<text text-anchor="start" x="439.5" y="-415.2" font-family="Helvetica,sans-Serif" font-size="11.00">tenant_id</text>
<polygon fill="#ffffff" stroke="none" points="419.5,-385 419.5,-407 606.5,-407 606.5,-385 419.5,-385"/>
<polygon fill="none" stroke="black" points="419.5,-385 419.5,-407 606.5,-407 606.5,-385 419.5,-385"/>
<text text-anchor="start" x="439.5" y="-393.2" font-family="Helvetica,sans-Serif" font-size="11.00">generic_subtype</text>
<polygon fill="none" stroke="black" points="419.5,-363 419.5,-385 606.5,-385 606.5,-363 419.5,-363"/>
<image xlink:href="../../images/foreignKeys.png" width="11px" height="12px" preserveAspectRatio="xMinYMin meet" x="424.5" y="-380"/>
<text text-anchor="start" x="439.5" y="-371.2" font-family="Helvetica,sans-Serif" font-size="11.00">zone_id</text>
<polygon fill="#ffffff" stroke="none" points="419.5,-341 419.5,-363 606.5,-363 606.5,-341 419.5,-341"/>
<polygon fill="none" stroke="black" points="419.5,-341 419.5,-363 606.5,-363 606.5,-341 419.5,-341"/>
<image xlink:href="../../images/foreignKeys.png" width="11px" height="12px" preserveAspectRatio="xMinYMin meet" x="424.5" y="-358"/>
<text text-anchor="start" x="439.5" y="-349.2" font-family="Helvetica,sans-Serif" font-size="11.00">currency_id</text>
<polygon fill="none" stroke="black" points="419.5,-323 419.5,-341 606.5,-341 606.5,-323 419.5,-323"/>
<text text-anchor="start" x="422.5" y="-329.2" font-family="Helvetica,sans-Serif" font-size="11.00">...</text>
<polygon fill="#ffffff" stroke="none" points="419.5,-305 419.5,-323 506.5,-323 506.5,-305 419.5,-305"/>
<polygon fill="none" stroke="black" points="419.5,-305 419.5,-323 506.5,-323 506.5,-305 419.5,-305"/>
<text text-anchor="start" x="422.5" y="-311.2" font-family="Helvetica,sans-Serif" font-size="11.00">&lt; 6</text>
<polygon fill="#ffffff" stroke="none" points="506.5,-305 506.5,-323 551.5,-323 551.5,-305 506.5,-305"/>
<polygon fill="none" stroke="black" points="506.5,-305 506.5,-323 551.5,-323 551.5,-305 506.5,-305"/>
<text text-anchor="start" x="541.5" y="-311.2" font-family="Helvetica,sans-Serif" font-size="11.00"> &#160;</text>
<polygon fill="#ffffff" stroke="none" points="551.5,-305 551.5,-323 606.5,-323 606.5,-305 551.5,-305"/>
<polygon fill="none" stroke="black" points="551.5,-305 551.5,-323 606.5,-323 606.5,-305 551.5,-305"/>
<text text-anchor="start" x="586.5" y="-311.2" font-family="Helvetica,sans-Serif" font-size="11.00">4 &gt;</text>
</a>
</g>
</g>
<!-- service_resources&#45;&gt;service_templates -->
<g id="edge3" class="edge"><title>service_resources:elipses:w&#45;&gt;service_templates:id:e</title>
<path fill="none" stroke="black" d="M884.73,-502.014C876.777,-505.821 871.712,-512.21 859,-515 749.676,-538.997 719.427,-528 607.5,-528"/>
<polygon fill="black" stroke="black" points="891.173,-500.653 899.744,-502.522 895.086,-499.827 899,-499 899,-499 899,-499 895.086,-499.827 898.256,-495.478 891.173,-500.653 891.173,-500.653"/>
<ellipse fill="none" stroke="black" cx="888.042" cy="-501.315" rx="3.2" ry="3.2"/>
</g>
<!-- services&#45;&gt;miq_groups -->
<g id="edge13" class="edge"><title>services:miq_group_id:w&#45;&gt;miq_groups:elipses:e</title>
<path fill="none" stroke="black" d="M662.546,-406.739C608.417,-421.76 674.659,-530.052 614,-572 539.794,-623.317 500.504,-583.363 411,-572 368.652,-566.624 360.687,-548 318,-548"/>
<polygon fill="black" stroke="black" points="669.057,-405.955 677.43,-408.574 673.029,-405.478 677,-405 677,-405 677,-405 673.029,-405.478 676.57,-401.426 669.057,-405.955 669.057,-405.955"/>
<ellipse fill="none" stroke="black" cx="665.88" cy="-406.338" rx="3.2" ry="3.2"/>
</g>
<!-- services&#45;&gt;tenants -->
<g id="edge15" class="edge"><title>services:tenant_id:w&#45;&gt;tenants:elipses:e</title>
<path fill="none" stroke="black" d="M662.517,-380.262C634.392,-367.49 651.832,-313.571 614,-294 567.319,-269.851 181.895,-290.785 142,-325 91.6247,-368.203 168.864,-469 102.5,-469"/>
<polygon fill="black" stroke="black" points="669.139,-381.514 676.331,-386.537 673.07,-382.257 677,-383 677,-383 677,-383 673.07,-382.257 677.669,-379.463 669.139,-381.514 669.139,-381.514"/>
<ellipse fill="none" stroke="black" cx="665.995" cy="-380.919" rx="3.2" ry="3.2"/>
</g>
<!-- services&#45;&gt;service_templates -->
<g id="edge14" class="edge"><title>services:service_template_id:w&#45;&gt;service_templates:id:e</title>
<path fill="none" stroke="black" d="M662.674,-430.133C629.793,-447.181 656.243,-528 607.5,-528"/>
<polygon fill="black" stroke="black" points="669.185,-428.709 677.769,-430.517 673.092,-427.855 677,-427 677,-427 677,-427 673.092,-427.855 676.231,-423.483 669.185,-428.709 669.185,-428.709"/>
<ellipse fill="none" stroke="black" cx="666.059" cy="-429.393" rx="3.2" ry="3.2"/>
</g>
<!-- currencies -->
<g id="node8" class="node"><title>currencies</title>
<g id="a_node8"><a xlink:href="../../tables/currencies.html" xlink:title="currencies" target="_top">
<polygon fill="#ffffff" stroke="none" points="150,-37 150,-257 370,-257 370,-37 150,-37"/>
<polygon fill="#f5f5f5" stroke="none" points="152,-233 152,-255 368,-255 368,-233 152,-233"/>
<polygon fill="none" stroke="black" points="152,-233 152,-255 368,-255 368,-233 152,-233"/>
<text text-anchor="start" x="157" y="-242.2" font-family="Helvetica,sans-Serif" font-weight="bold" font-size="11.00">currencies</text>
<text text-anchor="start" x="329" y="-241.2" font-family="Helvetica,sans-Serif" font-size="11.00">[table]</text>
<polygon fill="none" stroke="black" points="152,-211 152,-233 247,-233 247,-211 152,-211"/>
<image xlink:href="../../images/primaryKeys.png" width="11px" height="12px" preserveAspectRatio="xMinYMin meet" x="157" y="-228"/>
<text text-anchor="start" x="172" y="-219.2" font-family="Helvetica,sans-Serif" font-size="11.00">id</text>
<polygon fill="none" stroke="black" points="247,-211 247,-233 368,-233 368,-211 247,-211"/>
<text text-anchor="start" x="250" y="-219.2" font-family="Helvetica,sans-Serif" font-size="11.00">bigserial[19]</text>
<polygon fill="none" stroke="black" points="152,-189 152,-211 247,-211 247,-189 152,-189"/>
<text text-anchor="start" x="172" y="-197.2" font-family="Helvetica,sans-Serif" font-size="11.00">code</text>
<polygon fill="none" stroke="black" points="247,-189 247,-211 368,-211 368,-189 247,-189"/>
<text text-anchor="start" x="250" y="-197.2" font-family="Helvetica,sans-Serif" font-size="11.00">varchar[2147483647]</text>
<polygon fill="none" stroke="black" points="152,-167 152,-189 247,-189 247,-167 152,-167"/>
<text text-anchor="start" x="172" y="-175.2" font-family="Helvetica,sans-Serif" font-size="11.00">name</text>
<polygon fill="none" stroke="black" points="247,-167 247,-189 368,-189 368,-167 247,-167"/>
<text text-anchor="start" x="250" y="-175.2" font-family="Helvetica,sans-Serif" font-size="11.00">varchar[2147483647]</text>
<polygon fill="none" stroke="black" points="152,-145 152,-167 247,-167 247,-145 152,-145"/>
<text text-anchor="start" x="172" y="-153.2" font-family="Helvetica,sans-Serif" font-size="11.00">full_name</text>
<polygon fill="none" stroke="black" points="247,-145 247,-167 368,-167 368,-145 247,-145"/>
<text text-anchor="start" x="250" y="-153.2" font-family="Helvetica,sans-Serif" font-size="11.00">varchar[2147483647]</text>
<polygon fill="none" stroke="black" points="152,-123 152,-145 247,-145 247,-123 152,-123"/>
<text text-anchor="start" x="172" y="-131.2" font-family="Helvetica,sans-Serif" font-size="11.00">symbol</text>
<polygon fill="none" stroke="black" points="247,-123 247,-145 368,-145 368,-123 247,-123"/>
<text text-anchor="start" x="250" y="-131.2" font-family="Helvetica,sans-Serif" font-size="11.00">varchar[2147483647]</text>
<polygon fill="none" stroke="black" points="152,-101 152,-123 247,-123 247,-101 152,-101"/>
<text text-anchor="start" x="172" y="-109.2" font-family="Helvetica,sans-Serif" font-size="11.00">unicode_hex</text>
<polygon fill="none" stroke="black" points="247,-101 247,-123 368,-123 368,-101 247,-101"/>
<text text-anchor="start" x="250" y="-109.2" font-family="Helvetica,sans-Serif" font-size="11.00">varchar[2147483647]</text>
<polygon fill="none" stroke="black" points="152,-79 152,-101 247,-101 247,-79 152,-79"/>
<text text-anchor="start" x="172" y="-87.2" font-family="Helvetica,sans-Serif" font-size="11.00">created_at</text>
<polygon fill="none" stroke="black" points="247,-79 247,-101 368,-101 368,-79 247,-79"/>
<text text-anchor="start" x="250" y="-87.2" font-family="Helvetica,sans-Serif" font-size="11.00">timestamp[29,6]</text>
<polygon fill="none" stroke="black" points="152,-57 152,-79 247,-79 247,-57 152,-57"/>
<text text-anchor="start" x="172" y="-65.2" font-family="Helvetica,sans-Serif" font-size="11.00">updated_at</text>
<polygon fill="none" stroke="black" points="247,-57 247,-79 368,-79 368,-57 247,-57"/>
<text text-anchor="start" x="250" y="-65.2" font-family="Helvetica,sans-Serif" font-size="11.00">timestamp[29,6]</text>
<polygon fill="#ffffff" stroke="none" points="152,-39 152,-57 204,-57 204,-39 152,-39"/>
<polygon fill="none" stroke="black" points="152,-39 152,-57 204,-57 204,-39 152,-39"/>
<text text-anchor="start" x="155" y="-45.2" font-family="Helvetica,sans-Serif" font-size="11.00">&lt; 0</text>
<polygon fill="#ffffff" stroke="none" points="204,-39 204,-57 247,-57 247,-39 204,-39"/>
<polygon fill="none" stroke="black" points="204,-39 204,-57 247,-57 247,-39 204,-39"/>
<text text-anchor="start" x="237" y="-45.2" font-family="Helvetica,sans-Serif" font-size="11.00"> &#160;</text>
<polygon fill="#ffffff" stroke="none" points="247,-39 247,-57 368,-57 368,-39 247,-39"/>
<polygon fill="none" stroke="black" points="247,-39 247,-57 368,-57 368,-39 247,-39"/>
<text text-anchor="start" x="348" y="-45.2" font-family="Helvetica,sans-Serif" font-size="11.00">2 &gt;</text>
<polygon fill="none" stroke="black" stroke-width="2" points="151,-38 151,-256 369,-256 369,-38 151,-38"/>
</a>
</g>
</g>
<!-- services&#45;&gt;currencies -->
<g id="edge12" class="edge"><title>services:currency_id:w&#45;&gt;currencies:id.type:e</title>
<path fill="none" stroke="black" d="M662.609,-336.37C638.789,-326.085 644.892,-288.299 614,-271 517.111,-216.745 480.045,-222 369,-222"/>
<polygon fill="black" stroke="black" points="669.13,-337.562 676.353,-342.541 673.065,-338.281 677,-339 677,-339 677,-339 673.065,-338.281 677.647,-335.459 669.13,-337.562 669.13,-337.562"/>
<ellipse fill="none" stroke="black" cx="665.982" cy="-336.987" rx="3.2" ry="3.2"/>
</g>
<!-- service_templates&#45;&gt;miq_groups -->
<g id="edge8" class="edge"><title>service_templates:miq_group_id:w&#45;&gt;miq_groups:elipses:e</title>
<path fill="none" stroke="black" d="M404.607,-465.928C392.758,-474.752 394.648,-496.506 378,-511 354.371,-531.572 349.329,-548 318,-548"/>
<polygon fill="black" stroke="black" points="410.802,-464.176 419.479,-465.464 414.651,-463.088 418.5,-462 418.5,-462 418.5,-462 414.651,-463.088 417.521,-458.536 410.802,-464.176 410.802,-464.176"/>
<ellipse fill="none" stroke="black" cx="407.722" cy="-465.047" rx="3.20001" ry="3.20001"/>
</g>
<!-- service_templates&#45;&gt;tenants -->
<g id="edge10" class="edge"><title>service_templates:tenant_id:w&#45;&gt;tenants:elipses:e</title>
<path fill="none" stroke="black" d="M403.767,-417.836C292.033,-415.341 250.608,-385.868 142,-432 119.86,-441.404 126.554,-469 102.5,-469"/>
<polygon fill="black" stroke="black" points="410.5,-417.911 418.46,-421.6 414.5,-417.955 418.5,-418 418.5,-418 418.5,-418 414.5,-417.955 418.54,-414.4 410.5,-417.911 410.5,-417.911"/>
<ellipse fill="none" stroke="black" cx="407.301" cy="-417.875" rx="3.2" ry="3.2"/>
</g>
<!-- service_template_catalogs -->
<g id="node6" class="node"><title>service_template_catalogs</title>
<g id="a_node6"><a xlink:href="../../tables/service_template_catalogs.html" xlink:title="service_template_catalogs" target="_top">
<polygon fill="#ffffff" stroke="none" points="161,-442 161,-500 359,-500 359,-442 161,-442"/>
<polygon fill="#f5f5f5" stroke="none" points="161,-478 161,-500 359,-500 359,-478 161,-478"/>
<polygon fill="none" stroke="black" points="161,-478 161,-500 359,-500 359,-478 161,-478"/>
<text text-anchor="start" x="166" y="-487.2" font-family="Helvetica,sans-Serif" font-weight="bold" font-size="11.00">service_template_catalogs</text>
<text text-anchor="start" x="320" y="-486.2" font-family="Helvetica,sans-Serif" font-size="11.00">[table]</text>
<polygon fill="none" stroke="black" points="161,-460 161,-478 359,-478 359,-460 161,-460"/>
<text text-anchor="start" x="164" y="-466.2" font-family="Helvetica,sans-Serif" font-size="11.00">...</text>
<polygon fill="#ffffff" stroke="none" points="161,-442 161,-460 253,-460 253,-442 161,-442"/>
<polygon fill="none" stroke="black" points="161,-442 161,-460 253,-460 253,-442 161,-442"/>
<text text-anchor="start" x="164" y="-448.2" font-family="Helvetica,sans-Serif" font-size="11.00">&lt; 1</text>
<polygon fill="#ffffff" stroke="none" points="253,-442 253,-460 301,-460 301,-442 253,-442"/>
<polygon fill="none" stroke="black" points="253,-442 253,-460 301,-460 301,-442 253,-442"/>
<text text-anchor="start" x="291" y="-448.2" font-family="Helvetica,sans-Serif" font-size="11.00"> &#160;</text>
<polygon fill="#ffffff" stroke="none" points="301,-442 301,-460 359,-460 359,-442 301,-442"/>
<polygon fill="none" stroke="black" points="301,-442 301,-460 359,-460 359,-442 301,-442"/>
<text text-anchor="start" x="339" y="-448.2" font-family="Helvetica,sans-Serif" font-size="11.00">1 &gt;</text>
</a>
</g>
</g>
<!-- service_templates&#45;&gt;service_template_catalogs -->
<g id="edge9" class="edge"><title>service_templates:service_template_catalog_id:w&#45;&gt;service_template_catalogs:elipses:e</title>
<path fill="none" stroke="black" d="M404.339,-442.887C388.211,-450.222 383.352,-469 360,-469"/>
<polygon fill="black" stroke="black" points="410.661,-441.598 419.219,-443.527 414.581,-440.799 418.5,-440 418.5,-440 418.5,-440 414.581,-440.799 417.781,-436.473 410.661,-441.598 410.661,-441.598"/>
<ellipse fill="none" stroke="black" cx="407.526" cy="-442.237" rx="3.2" ry="3.2"/>
</g>
<!-- service_templates&#45;&gt;currencies -->
<g id="edge7" class="edge"><title>service_templates:currency_id:w&#45;&gt;currencies:id.type:e</title>
<path fill="none" stroke="black" d="M404.024,-348.523C369.861,-327.849 424.787,-222 369,-222"/>
<polygon fill="black" stroke="black" points="410.721,-350.131 417.659,-355.5 414.611,-351.066 418.5,-352 418.5,-352 418.5,-352 414.611,-351.066 419.341,-348.5 410.721,-350.131 410.721,-350.131"/>
<ellipse fill="none" stroke="black" cx="407.61" cy="-349.384" rx="3.2" ry="3.2"/>
</g>
<!-- zones -->
<g id="node9" class="node"><title>zones</title>
<g id="a_node9"><a xlink:href="../../tables/zones.html" xlink:title="zones" target="_top">
<polygon fill="#ffffff" stroke="none" points="220,-336 220,-394 300,-394 300,-336 220,-336"/>
<polygon fill="#f5f5f5" stroke="none" points="220,-372 220,-394 300,-394 300,-372 220,-372"/>
<polygon fill="none" stroke="black" points="220,-372 220,-394 300,-394 300,-372 220,-372"/>
<text text-anchor="start" x="225" y="-381.2" font-family="Helvetica,sans-Serif" font-weight="bold" font-size="11.00">zones</text>
<text text-anchor="start" x="261" y="-380.2" font-family="Helvetica,sans-Serif" font-size="11.00">[table]</text>
<polygon fill="none" stroke="black" points="220,-354 220,-372 300,-372 300,-354 220,-354"/>
<text text-anchor="start" x="223" y="-360.2" font-family="Helvetica,sans-Serif" font-size="11.00">...</text>
<polygon fill="#ffffff" stroke="none" points="220,-336 220,-354 248,-354 248,-336 220,-336"/>
<polygon fill="none" stroke="black" points="220,-336 220,-354 248,-354 248,-336 220,-336"/>
<text text-anchor="start" x="223" y="-342.2" font-family="Helvetica,sans-Serif" font-size="11.00"> &#160;</text>
<polygon fill="#ffffff" stroke="none" points="248,-336 248,-354 269,-354 269,-336 248,-336"/>
<polygon fill="none" stroke="black" points="248,-336 248,-354 269,-354 269,-336 248,-336"/>
<text text-anchor="start" x="259" y="-342.2" font-family="Helvetica,sans-Serif" font-size="11.00"> &#160;</text>
<polygon fill="#ffffff" stroke="none" points="269,-336 269,-354 300,-354 300,-336 269,-336"/>
<polygon fill="none" stroke="black" points="269,-336 269,-354 300,-354 300,-336 269,-336"/>
<text text-anchor="start" x="280" y="-342.2" font-family="Helvetica,sans-Serif" font-size="11.00">5 &gt;</text>
</a>
</g>
</g>
<!-- service_templates&#45;&gt;zones -->
<g id="edge11" class="edge"><title>service_templates:zone_id:w&#45;&gt;zones:elipses:e</title>
<path fill="none" stroke="black" d="M403.934,-373.694C363.144,-371.918 348.226,-363 301,-363"/>
<polygon fill="black" stroke="black" points="410.502,-373.832 418.424,-377.599 414.501,-373.916 418.5,-374 418.5,-374 418.5,-374 414.501,-373.916 418.576,-370.401 410.502,-373.832 410.502,-373.832"/>
<ellipse fill="none" stroke="black" cx="407.302" cy="-373.765" rx="3.2" ry="3.2"/>
</g>
<!-- service_template_catalogs&#45;&gt;tenants -->
<g id="edge4" class="edge"><title>service_template_catalogs:elipses:w&#45;&gt;tenants:elipses:e</title>
<path fill="none" stroke="black" d="M145.579,-469C130.732,-469 122.465,-469 102.5,-469"/>
<polygon fill="black" stroke="black" points="152,-469 160,-472.6 156,-469 160,-469 160,-469 160,-469 156,-469 160,-465.4 152,-469 152,-469"/>
<ellipse fill="none" stroke="black" cx="148.8" cy="-469" rx="3.2" ry="3.2"/>
</g>
<!-- service_template_tenants -->
<g id="node7" class="node"><title>service_template_tenants</title>
<g id="a_node7"><a xlink:href="../../tables/service_template_tenants.html" xlink:title="service_template_tenants" target="_top">
<polygon fill="#ffffff" stroke="none" points="655,-568 655,-626 851,-626 851,-568 655,-568"/>
<polygon fill="#f5f5f5" stroke="none" points="655,-604 655,-626 851,-626 851,-604 655,-604"/>
<polygon fill="none" stroke="black" points="655,-604 655,-626 851,-626 851,-604 655,-604"/>
<text text-anchor="start" x="660" y="-613.2" font-family="Helvetica,sans-Serif" font-weight="bold" font-size="11.00">service_template_tenants</text>
<text text-anchor="start" x="812" y="-612.2" font-family="Helvetica,sans-Serif" font-size="11.00">[table]</text>
<polygon fill="none" stroke="black" points="655,-586 655,-604 851,-604 851,-586 655,-586"/>
<text text-anchor="start" x="658" y="-592.2" font-family="Helvetica,sans-Serif" font-size="11.00">...</text>
<polygon fill="#ffffff" stroke="none" points="655,-568 655,-586 751,-586 751,-568 655,-568"/>
<polygon fill="none" stroke="black" points="655,-568 655,-586 751,-586 751,-568 655,-568"/>
<text text-anchor="start" x="658" y="-574.2" font-family="Helvetica,sans-Serif" font-size="11.00">&lt; 2</text>
<polygon fill="#ffffff" stroke="none" points="751,-568 751,-586 801,-586 801,-568 751,-568"/>
<polygon fill="none" stroke="black" points="751,-568 751,-586 801,-586 801,-568 751,-568"/>
<text text-anchor="start" x="791" y="-574.2" font-family="Helvetica,sans-Serif" font-size="11.00"> &#160;</text>
<polygon fill="#ffffff" stroke="none" points="801,-568 801,-586 851,-586 851,-568 801,-568"/>
<polygon fill="none" stroke="black" points="801,-568 801,-586 851,-586 851,-568 801,-568"/>
<text text-anchor="start" x="841" y="-574.2" font-family="Helvetica,sans-Serif" font-size="11.00"> &#160;</text>
</a>
</g>
</g>
<!-- service_template_tenants&#45;&gt;tenants -->
<g id="edge6" class="edge"><title>service_template_tenants:elipses:w&#45;&gt;tenants:elipses:e</title>
<path fill="none" stroke="black" d="M639.506,-595.176C422.046,-600.464 321.263,-722.098 142,-590 96.4586,-556.441 159.071,-469 102.5,-469"/>
<polygon fill="black" stroke="black" points="646.001,-595.097 654.044,-598.6 650,-595.049 654,-595 654,-595 654,-595 650,-595.049 653.956,-591.4 646.001,-595.097 646.001,-595.097"/>
<ellipse fill="none" stroke="black" cx="642.801" cy="-595.136" rx="3.2" ry="3.2"/>
</g>
<!-- service_template_tenants&#45;&gt;service_templates -->
<g id="edge5" class="edge"><title>service_template_tenants:elipses:w&#45;&gt;service_templates:id:e</title>
<path fill="none" stroke="black" d="M640.194,-589.743C624.85,-573.948 637.517,-528 607.5,-528"/>
<polygon fill="black" stroke="black" points="646.524,-592.153 652.719,-598.364 650.262,-593.576 654,-595 654,-595 654,-595 650.262,-593.576 655.281,-591.636 646.524,-592.153 646.524,-592.153"/>
<ellipse fill="none" stroke="black" cx="643.533" cy="-591.014" rx="3.20001" ry="3.20001"/>
</g>
</g>
</svg>
