<?xml version="1.0" encoding="UTF-8" standalone="no"?>
<!DOCTYPE svg PUBLIC "-//W3C//DTD SVG 1.1//EN"
 "http://www.w3.org/Graphics/SVG/1.1/DTD/svg11.dtd">
<!-- Generated by graphviz version 2.38.0 (20140413.2041)
 -->
<!-- Title: twoDegreesRelationshipsDiagram Pages: 1 -->
<svg width="669pt" height="392pt"
 viewBox="0.00 0.00 669.00 392.00" xmlns="http://www.w3.org/2000/svg" xmlns:xlink="http://www.w3.org/1999/xlink">
<g id="graph0" class="graph" transform="scale(1 1) rotate(0) translate(4 388)">
<title>twoDegreesRelationshipsDiagram</title>
<polygon fill="#ffffff" stroke="none" points="-4,4 -4,-388 665,-388 665,4 -4,4"/>
<text text-anchor="middle" x="74.5" y="-7.2" font-family="Helvetica,sans-Serif" font-size="11.00">Generated by SchemaSpy</text>
<!-- customization_scripts_operating_system_flavors -->
<g id="node1" class="node"><title>customization_scripts_operating_system_flavors</title>
<g id="a_node1"><a xlink:href="../../tables/customization_scripts_operating_system_flavors.html" xlink:title="customization_scripts_operating_system_flavors" target="_top">
<polygon fill="#ffffff" stroke="none" points="333,-164 333,-270 653,-270 653,-164 333,-164"/>
<polygon fill="#f5f5f5" stroke="none" points="333,-248 333,-270 653,-270 653,-248 333,-248"/>
<polygon fill="none" stroke="black" points="333,-248 333,-270 653,-270 653,-248 333,-248"/>
<text text-anchor="start" x="338" y="-257.2" font-family="Helvetica,sans-Serif" font-weight="bold" font-size="11.00">customization_scripts_operating_system_flavors</text>
<text text-anchor="start" x="614" y="-256.2" font-family="Helvetica,sans-Serif" font-size="11.00">[table]</text>
<polygon fill="none" stroke="black" points="333,-226 333,-248 653,-248 653,-226 333,-226"/>
<image xlink:href="../../images/primaryKeys.png" width="11px" height="12px" preserveAspectRatio="xMinYMin meet" x="338" y="-243"/>
<text text-anchor="start" x="359" y="-234.2" font-family="Helvetica,sans-Serif" font-size="11.00">id</text>
<polygon fill="#ffffff" stroke="none" points="333,-204 333,-226 653,-226 653,-204 333,-204"/>
<polygon fill="none" stroke="black" points="333,-204 333,-226 653,-226 653,-204 333,-204"/>
<image xlink:href="../../images/foreignKeys.png" width="11px" height="12px" preserveAspectRatio="xMinYMin meet" x="338" y="-221"/>
<text text-anchor="start" x="359" y="-212.2" font-family="Helvetica,sans-Serif" font-size="11.00">customization_script_id</text>
<polygon fill="#ffffff" stroke="none" points="333,-182 333,-204 653,-204 653,-182 333,-182"/>
<polygon fill="none" stroke="black" points="333,-182 333,-204 653,-204 653,-182 333,-182"/>
<image xlink:href="../../images/foreignKeys.png" width="11px" height="12px" preserveAspectRatio="xMinYMin meet" x="338" y="-199"/>
<text text-anchor="start" x="359" y="-190.2" font-family="Helvetica,sans-Serif" font-size="11.00">operating_system_flavor_id</text>
<polygon fill="#ffffff" stroke="none" points="333,-164 333,-182 491,-182 491,-164 333,-164"/>
<polygon fill="none" stroke="black" points="333,-164 333,-182 491,-182 491,-164 333,-164"/>
<text text-anchor="start" x="336" y="-170.2" font-family="Helvetica,sans-Serif" font-size="11.00">&lt; 2</text>
<polygon fill="#ffffff" stroke="none" points="491,-164 491,-182 572,-182 572,-164 491,-164"/>
<polygon fill="none" stroke="black" points="491,-164 491,-182 572,-182 572,-164 491,-164"/>
<text text-anchor="start" x="562" y="-170.2" font-family="Helvetica,sans-Serif" font-size="11.00"> &#160;</text>
<polygon fill="#ffffff" stroke="none" points="572,-164 572,-182 653,-182 653,-164 572,-164"/>
<polygon fill="none" stroke="black" points="572,-164 572,-182 653,-182 653,-164 572,-164"/>
<text text-anchor="start" x="643" y="-170.2" font-family="Helvetica,sans-Serif" font-size="11.00"> &#160;</text>
</a>
</g>
</g>
<!-- customization_scripts -->
<g id="node2" class="node"><title>customization_scripts</title>
<g id="a_node2"><a xlink:href="../../tables/customization_scripts.html" xlink:title="customization_scripts" target="_top">
<polygon fill="#ffffff" stroke="none" points="8,-116 8,-380 284,-380 284,-116 8,-116"/>
<polygon fill="#f5f5f5" stroke="none" points="10,-356 10,-378 282,-378 282,-356 10,-356"/>
<polygon fill="none" stroke="black" points="10,-356 10,-378 282,-378 282,-356 10,-356"/>
<text text-anchor="start" x="15" y="-365.2" font-family="Helvetica,sans-Serif" font-weight="bold" font-size="11.00">customization_scripts</text>
<text text-anchor="start" x="243" y="-364.2" font-family="Helvetica,sans-Serif" font-size="11.00">[table]</text>
<polygon fill="none" stroke="black" points="10,-334 10,-356 161,-356 161,-334 10,-334"/>
<image xlink:href="../../images/primaryKeys.png" width="11px" height="12px" preserveAspectRatio="xMinYMin meet" x="15" y="-351"/>
<text text-anchor="start" x="30" y="-342.2" font-family="Helvetica,sans-Serif" font-size="11.00">id</text>
<polygon fill="none" stroke="black" points="161,-334 161,-356 282,-356 282,-334 161,-334"/>
<text text-anchor="start" x="164" y="-342.2" font-family="Helvetica,sans-Serif" font-size="11.00">bigserial[19]</text>
<polygon fill="none" stroke="black" points="10,-312 10,-334 161,-334 161,-312 10,-312"/>
<text text-anchor="start" x="30" y="-320.2" font-family="Helvetica,sans-Serif" font-size="11.00">name</text>
<polygon fill="none" stroke="black" points="161,-312 161,-334 282,-334 282,-312 161,-312"/>
<text text-anchor="start" x="164" y="-320.2" font-family="Helvetica,sans-Serif" font-size="11.00">varchar[2147483647]</text>
<polygon fill="#ffffff" stroke="none" points="10,-290 10,-312 161,-312 161,-290 10,-290"/>
<polygon fill="none" stroke="black" points="10,-290 10,-312 161,-312 161,-290 10,-290"/>
<text text-anchor="start" x="30" y="-298.2" font-family="Helvetica,sans-Serif" font-size="11.00">manager_id</text>
<polygon fill="none" stroke="black" points="161,-290 161,-312 282,-312 282,-290 161,-290"/>
<text text-anchor="start" x="164" y="-298.2" font-family="Helvetica,sans-Serif" font-size="11.00">int8[19]</text>
<polygon fill="#ffffff" stroke="none" points="10,-268 10,-290 161,-290 161,-268 10,-268"/>
<polygon fill="none" stroke="black" points="10,-268 10,-290 161,-290 161,-268 10,-268"/>
<text text-anchor="start" x="30" y="-276.2" font-family="Helvetica,sans-Serif" font-size="11.00">manager_ref</text>
<polygon fill="none" stroke="black" points="161,-268 161,-290 282,-290 282,-268 161,-268"/>
<text text-anchor="start" x="164" y="-276.2" font-family="Helvetica,sans-Serif" font-size="11.00">varchar[2147483647]</text>
<polygon fill="#ffffff" stroke="none" points="10,-246 10,-268 161,-268 161,-246 10,-246"/>
<polygon fill="none" stroke="black" points="10,-246 10,-268 161,-268 161,-246 10,-246"/>
<text text-anchor="start" x="30" y="-254.2" font-family="Helvetica,sans-Serif" font-size="11.00">type</text>
<polygon fill="none" stroke="black" points="161,-246 161,-268 282,-268 282,-246 161,-246"/>
<text text-anchor="start" x="164" y="-254.2" font-family="Helvetica,sans-Serif" font-size="11.00">varchar[2147483647]</text>
<polygon fill="none" stroke="black" points="10,-224 10,-246 161,-246 161,-224 10,-224"/>
<text text-anchor="start" x="30" y="-232.2" font-family="Helvetica,sans-Serif" font-size="11.00">created_at</text>
<polygon fill="none" stroke="black" points="161,-224 161,-246 282,-246 282,-224 161,-224"/>
<text text-anchor="start" x="164" y="-232.2" font-family="Helvetica,sans-Serif" font-size="11.00">timestamp[29,6]</text>
<polygon fill="none" stroke="black" points="10,-202 10,-224 161,-224 161,-202 10,-202"/>
<text text-anchor="start" x="30" y="-210.2" font-family="Helvetica,sans-Serif" font-size="11.00">updated_at</text>
<polygon fill="none" stroke="black" points="161,-202 161,-224 282,-224 282,-202 161,-202"/>
<text text-anchor="start" x="164" y="-210.2" font-family="Helvetica,sans-Serif" font-size="11.00">timestamp[29,6]</text>
<polygon fill="none" stroke="black" points="10,-180 10,-202 161,-202 161,-180 10,-180"/>
<text text-anchor="start" x="30" y="-188.2" font-family="Helvetica,sans-Serif" font-size="11.00">description</text>
<polygon fill="none" stroke="black" points="161,-180 161,-202 282,-202 282,-180 161,-180"/>
<text text-anchor="start" x="164" y="-188.2" font-family="Helvetica,sans-Serif" font-size="11.00">varchar[2147483647]</text>
<polygon fill="none" stroke="black" points="10,-158 10,-180 161,-180 161,-158 10,-158"/>
<text text-anchor="start" x="30" y="-166.2" font-family="Helvetica,sans-Serif" font-size="11.00">user_defined</text>
<polygon fill="none" stroke="black" points="161,-158 161,-180 282,-180 282,-158 161,-158"/>
<text text-anchor="start" x="164" y="-166.2" font-family="Helvetica,sans-Serif" font-size="11.00">bool[1]</text>
<polygon fill="none" stroke="black" points="10,-136 10,-158 161,-158 161,-136 10,-136"/>
<text text-anchor="start" x="30" y="-144.2" font-family="Helvetica,sans-Serif" font-size="11.00">in_use</text>
<polygon fill="none" stroke="black" points="161,-136 161,-158 282,-158 282,-136 161,-136"/>
<text text-anchor="start" x="164" y="-144.2" font-family="Helvetica,sans-Serif" font-size="11.00">bool[1]</text>
<polygon fill="#ffffff" stroke="none" points="10,-118 10,-136 90,-136 90,-118 10,-118"/>
<polygon fill="none" stroke="black" points="10,-118 10,-136 90,-136 90,-118 10,-118"/>
<text text-anchor="start" x="13" y="-124.2" font-family="Helvetica,sans-Serif" font-size="11.00">&lt; 0</text>
<polygon fill="#ffffff" stroke="none" points="90,-118 90,-136 161,-136 161,-118 90,-118"/>
<polygon fill="none" stroke="black" points="90,-118 90,-136 161,-136 161,-118 90,-118"/>
<text text-anchor="start" x="151" y="-124.2" font-family="Helvetica,sans-Serif" font-size="11.00"> &#160;</text>
<polygon fill="#ffffff" stroke="none" points="161,-118 161,-136 282,-136 282,-118 161,-118"/>
<polygon fill="none" stroke="black" points="161,-118 161,-136 282,-136 282,-118 161,-118"/>
<text text-anchor="start" x="262" y="-124.2" font-family="Helvetica,sans-Serif" font-size="11.00">1 &gt;</text>
<polygon fill="none" stroke="black" stroke-width="2" points="9,-117 9,-379 283,-379 283,-117 9,-117"/>
</a>
</g>
</g>
<!-- customization_scripts_operating_system_flavors&#45;&gt;customization_scripts -->
<g id="edge1" class="edge"><title>customization_scripts_operating_system_flavors:customization_script_id:w&#45;&gt;customization_scripts:id.type:e</title>
<path fill="none" stroke="black" d="M317.554,-218.477C283.504,-239.151 338.716,-345 283,-345"/>
<polygon fill="black" stroke="black" points="324.222,-216.872 332.843,-218.5 328.111,-215.936 332,-215 332,-215 332,-215 328.111,-215.936 331.157,-211.5 324.222,-216.872 324.222,-216.872"/>
<ellipse fill="none" stroke="black" cx="321.111" cy="-217.621" rx="3.2" ry="3.2"/>
</g>
<!-- operating_system_flavors -->
<g id="node3" class="node"><title>operating_system_flavors</title>
<g id="a_node3"><a xlink:href="../../tables/operating_system_flavors.html" xlink:title="operating_system_flavors" target="_top">
<polygon fill="#ffffff" stroke="none" points="50,-37 50,-95 242,-95 242,-37 50,-37"/>
<polygon fill="#f5f5f5" stroke="none" points="50,-73 50,-95 242,-95 242,-73 50,-73"/>
<polygon fill="none" stroke="black" points="50,-73 50,-95 242,-95 242,-73 50,-73"/>
<text text-anchor="start" x="55" y="-82.2" font-family="Helvetica,sans-Serif" font-weight="bold" font-size="11.00">operating_system_flavors</text>
<text text-anchor="start" x="203" y="-81.2" font-family="Helvetica,sans-Serif" font-size="11.00">[table]</text>
<polygon fill="none" stroke="black" points="50,-55 50,-73 242,-73 242,-55 50,-55"/>
<text text-anchor="start" x="53" y="-61.2" font-family="Helvetica,sans-Serif" font-size="11.00">...</text>
<polygon fill="#ffffff" stroke="none" points="50,-37 50,-55 134,-55 134,-37 50,-37"/>
<polygon fill="none" stroke="black" points="50,-37 50,-55 134,-55 134,-37 50,-37"/>
<text text-anchor="start" x="53" y="-43.2" font-family="Helvetica,sans-Serif" font-size="11.00"> &#160;</text>
<polygon fill="#ffffff" stroke="none" points="134,-37 134,-55 183,-55 183,-37 134,-37"/>
<polygon fill="none" stroke="black" points="134,-37 134,-55 183,-55 183,-37 134,-37"/>
<text text-anchor="start" x="173" y="-43.2" font-family="Helvetica,sans-Serif" font-size="11.00"> &#160;</text>
<polygon fill="#ffffff" stroke="none" points="183,-37 183,-55 242,-55 242,-37 183,-37"/>
<polygon fill="none" stroke="black" points="183,-37 183,-55 242,-55 242,-37 183,-37"/>
<text text-anchor="start" x="222" y="-43.2" font-family="Helvetica,sans-Serif" font-size="11.00">3 &gt;</text>
</a>
</g>
</g>
<!-- customization_scripts_operating_system_flavors&#45;&gt;operating_system_flavors -->
<g id="edge2" class="edge"><title>customization_scripts_operating_system_flavors:operating_system_flavor_id:w&#45;&gt;operating_system_flavors:elipses:e</title>
<path fill="none" stroke="black" d="M317.897,-190.054C296.308,-178.462 314.033,-135.191 292,-106 274.72,-83.1063 271.683,-64 243,-64"/>
<polygon fill="black" stroke="black" points="324.169,-191.364 331.264,-196.524 328.084,-192.182 332,-193 332,-193 332,-193 328.084,-192.182 332.736,-189.476 324.169,-191.364 324.169,-191.364"/>
<ellipse fill="none" stroke="black" cx="321.037" cy="-190.71" rx="3.2" ry="3.2"/>
</g>
</g>
</svg>
