<?xml version="1.0" encoding="UTF-8" standalone="no"?>
<!DOCTYPE svg PUBLIC "-//W3C//DTD SVG 1.1//EN"
 "http://www.w3.org/Graphics/SVG/1.1/DTD/svg11.dtd">
<!-- Generated by graphviz version 2.38.0 (20140413.2041)
 -->
<!-- Title: oneDegreeRelationshipsDiagram Pages: 1 -->
<svg width="648pt" height="340pt"
 viewBox="0.00 0.00 648.00 340.00" xmlns="http://www.w3.org/2000/svg" xmlns:xlink="http://www.w3.org/1999/xlink">
<g id="graph0" class="graph" transform="scale(1 1) rotate(0) translate(4 336)">
<title>oneDegreeRelationshipsDiagram</title>
<polygon fill="#ffffff" stroke="none" points="-4,4 -4,-336 644,-336 644,4 -4,4"/>
<text text-anchor="middle" x="74.5" y="-7.2" font-family="Helvetica,sans-Serif" font-size="11.00">Generated by SchemaSpy</text>
<!-- customization_scripts_operating_system_flavors -->
<g id="node1" class="node"><title>customization_scripts_operating_system_flavors</title>
<g id="a_node1"><a xlink:href="../../tables/customization_scripts_operating_system_flavors.html" xlink:title="customization_scripts_operating_system_flavors" target="_top">
<polygon fill="#ffffff" stroke="none" points="249,-169 249,-279 632,-279 632,-169 249,-169"/>
<polygon fill="#f5f5f5" stroke="none" points="251.5,-255 251.5,-277 630.5,-277 630.5,-255 251.5,-255"/>
<polygon fill="none" stroke="black" points="251.5,-255 251.5,-277 630.5,-277 630.5,-255 251.5,-255"/>
<text text-anchor="start" x="256.5" y="-264.2" font-family="Helvetica,sans-Serif" font-weight="bold" font-size="11.00">customization_scripts_operating_system_flavors</text>
<text text-anchor="start" x="591.5" y="-263.2" font-family="Helvetica,sans-Serif" font-size="11.00">[table]</text>
<polygon fill="none" stroke="black" points="251.5,-233 251.5,-255 559.5,-255 559.5,-233 251.5,-233"/>
<image xlink:href="../../images/primaryKeys.png" width="11px" height="12px" preserveAspectRatio="xMinYMin meet" x="256.5" y="-250"/>
<text text-anchor="start" x="271.5" y="-241.2" font-family="Helvetica,sans-Serif" font-size="11.00">id</text>
<polygon fill="none" stroke="black" points="559.5,-233 559.5,-255 630.5,-255 630.5,-233 559.5,-233"/>
<text text-anchor="start" x="562.5" y="-241.2" font-family="Helvetica,sans-Serif" font-size="11.00">bigserial[19]</text>
<polygon fill="#ffffff" stroke="none" points="251.5,-211 251.5,-233 559.5,-233 559.5,-211 251.5,-211"/>
<polygon fill="none" stroke="black" points="251.5,-211 251.5,-233 559.5,-233 559.5,-211 251.5,-211"/>
<image xlink:href="../../images/foreignKeys.png" width="11px" height="12px" preserveAspectRatio="xMinYMin meet" x="256.5" y="-228"/>
<text text-anchor="start" x="271.5" y="-219.2" font-family="Helvetica,sans-Serif" font-size="11.00">customization_script_id</text>
<polygon fill="none" stroke="black" points="559.5,-211 559.5,-233 630.5,-233 630.5,-211 559.5,-211"/>
<text text-anchor="start" x="562.5" y="-219.2" font-family="Helvetica,sans-Serif" font-size="11.00">int8[19]</text>
<polygon fill="#ffffff" stroke="none" points="251.5,-189 251.5,-211 559.5,-211 559.5,-189 251.5,-189"/>
<polygon fill="none" stroke="black" points="251.5,-189 251.5,-211 559.5,-211 559.5,-189 251.5,-189"/>
<image xlink:href="../../images/foreignKeys.png" width="11px" height="12px" preserveAspectRatio="xMinYMin meet" x="256.5" y="-206"/>
<text text-anchor="start" x="271.5" y="-197.2" font-family="Helvetica,sans-Serif" font-size="11.00">operating_system_flavor_id</text>
<polygon fill="none" stroke="black" points="559.5,-189 559.5,-211 630.5,-211 630.5,-189 559.5,-189"/>
<text text-anchor="start" x="562.5" y="-197.2" font-family="Helvetica,sans-Serif" font-size="11.00">int8[19]</text>
<polygon fill="#ffffff" stroke="none" points="251.5,-171 251.5,-189 410.5,-189 410.5,-171 251.5,-171"/>
<polygon fill="none" stroke="black" points="251.5,-171 251.5,-189 410.5,-189 410.5,-171 251.5,-171"/>
<text text-anchor="start" x="254.5" y="-177.2" font-family="Helvetica,sans-Serif" font-size="11.00">&lt; 2</text>
<polygon fill="#ffffff" stroke="none" points="410.5,-171 410.5,-189 559.5,-189 559.5,-171 410.5,-171"/>
<polygon fill="none" stroke="black" points="410.5,-171 410.5,-189 559.5,-189 559.5,-171 410.5,-171"/>
<text text-anchor="start" x="549.5" y="-177.2" font-family="Helvetica,sans-Serif" font-size="11.00"> &#160;</text>
<polygon fill="#ffffff" stroke="none" points="559.5,-171 559.5,-189 630.5,-189 630.5,-171 559.5,-171"/>
<polygon fill="none" stroke="black" points="559.5,-171 559.5,-189 630.5,-189 630.5,-171 559.5,-171"/>
<text text-anchor="start" x="610.5" y="-177.2" font-family="Helvetica,sans-Serif" font-size="11.00">0 &gt;</text>
<polygon fill="none" stroke="black" stroke-width="2" points="250,-170 250,-278 631,-278 631,-170 250,-170"/>
</a>
</g>
</g>
<!-- customization_scripts -->
<g id="node2" class="node"><title>customization_scripts</title>
<g id="a_node2"><a xlink:href="../../tables/customization_scripts.html" xlink:title="customization_scripts" target="_top">
<polygon fill="#ffffff" stroke="none" points="18,-182 18,-328 190,-328 190,-182 18,-182"/>
<polygon fill="#f5f5f5" stroke="none" points="18,-306 18,-328 190,-328 190,-306 18,-306"/>
<polygon fill="none" stroke="black" points="18,-306 18,-328 190,-328 190,-306 18,-306"/>
<text text-anchor="start" x="23" y="-315.2" font-family="Helvetica,sans-Serif" font-weight="bold" font-size="11.00">customization_scripts</text>
<text text-anchor="start" x="151" y="-314.2" font-family="Helvetica,sans-Serif" font-size="11.00">[table]</text>
<polygon fill="none" stroke="black" points="18,-284 18,-306 190,-306 190,-284 18,-284"/>
<image xlink:href="../../images/primaryKeys.png" width="11px" height="12px" preserveAspectRatio="xMinYMin meet" x="23" y="-301"/>
<text text-anchor="start" x="49" y="-292.2" font-family="Helvetica,sans-Serif" font-size="11.00">id</text>
<polygon fill="#ffffff" stroke="none" points="18,-262 18,-284 190,-284 190,-262 18,-262"/>
<polygon fill="none" stroke="black" points="18,-262 18,-284 190,-284 190,-262 18,-262"/>
<text text-anchor="start" x="49" y="-270.2" font-family="Helvetica,sans-Serif" font-size="11.00">manager_id</text>
<polygon fill="#ffffff" stroke="none" points="18,-240 18,-262 190,-262 190,-240 18,-240"/>
<polygon fill="none" stroke="black" points="18,-240 18,-262 190,-262 190,-240 18,-240"/>
<text text-anchor="start" x="49" y="-248.2" font-family="Helvetica,sans-Serif" font-size="11.00">manager_ref</text>
<polygon fill="#ffffff" stroke="none" points="18,-218 18,-240 190,-240 190,-218 18,-218"/>
<polygon fill="none" stroke="black" points="18,-218 18,-240 190,-240 190,-218 18,-218"/>
<text text-anchor="start" x="49" y="-226.2" font-family="Helvetica,sans-Serif" font-size="11.00">type</text>
<polygon fill="none" stroke="black" points="18,-200 18,-218 190,-218 190,-200 18,-200"/>
<text text-anchor="start" x="21" y="-206.2" font-family="Helvetica,sans-Serif" font-size="11.00">...</text>
<polygon fill="#ffffff" stroke="none" points="18,-182 18,-200 92,-200 92,-182 18,-182"/>
<polygon fill="none" stroke="black" points="18,-182 18,-200 92,-200 92,-182 18,-182"/>
<text text-anchor="start" x="21" y="-188.2" font-family="Helvetica,sans-Serif" font-size="11.00"> &#160;</text>
<polygon fill="#ffffff" stroke="none" points="92,-182 92,-200 136,-200 136,-182 92,-182"/>
<polygon fill="none" stroke="black" points="92,-182 92,-200 136,-200 136,-182 92,-182"/>
<text text-anchor="start" x="126" y="-188.2" font-family="Helvetica,sans-Serif" font-size="11.00"> &#160;</text>
<polygon fill="#ffffff" stroke="none" points="136,-182 136,-200 190,-200 190,-182 136,-182"/>
<polygon fill="none" stroke="black" points="136,-182 136,-200 190,-200 190,-182 136,-182"/>
<text text-anchor="start" x="170" y="-188.2" font-family="Helvetica,sans-Serif" font-size="11.00">1 &gt;</text>
</a>
</g>
</g>
<!-- customization_scripts_operating_system_flavors&#45;&gt;customization_scripts -->
<g id="edge1" class="edge"><title>customization_scripts_operating_system_flavors:customization_script_id:w&#45;&gt;customization_scripts:id:e</title>
<path fill="none" stroke="black" d="M236.394,-225.925C214.147,-241.088 226.97,-295 191,-295"/>
<polygon fill="black" stroke="black" points="242.793,-224.144 251.465,-225.468 246.646,-223.072 250.5,-222 250.5,-222 250.5,-222 246.646,-223.072 249.535,-218.532 242.793,-224.144 242.793,-224.144"/>
<ellipse fill="none" stroke="black" cx="239.71" cy="-225.002" rx="3.20001" ry="3.20001"/>
</g>
<!-- operating_system_flavors -->
<g id="node3" class="node"><title>operating_system_flavors</title>
<g id="a_node3"><a xlink:href="../../tables/operating_system_flavors.html" xlink:title="operating_system_flavors" target="_top">
<polygon fill="#ffffff" stroke="none" points="8,-37 8,-161 200,-161 200,-37 8,-37"/>
<polygon fill="#f5f5f5" stroke="none" points="8,-139 8,-161 200,-161 200,-139 8,-139"/>
<polygon fill="none" stroke="black" points="8,-139 8,-161 200,-161 200,-139 8,-139"/>
<text text-anchor="start" x="13" y="-148.2" font-family="Helvetica,sans-Serif" font-weight="bold" font-size="11.00">operating_system_flavors</text>
<text text-anchor="start" x="161" y="-147.2" font-family="Helvetica,sans-Serif" font-size="11.00">[table]</text>
<polygon fill="none" stroke="black" points="8,-117 8,-139 200,-139 200,-117 8,-117"/>
<image xlink:href="../../images/primaryKeys.png" width="11px" height="12px" preserveAspectRatio="xMinYMin meet" x="13" y="-134"/>
<text text-anchor="start" x="38" y="-125.2" font-family="Helvetica,sans-Serif" font-size="11.00">id</text>
<polygon fill="#ffffff" stroke="none" points="8,-95 8,-117 200,-117 200,-95 8,-95"/>
<polygon fill="none" stroke="black" points="8,-95 8,-117 200,-117 200,-95 8,-95"/>
<text text-anchor="start" x="38" y="-103.2" font-family="Helvetica,sans-Serif" font-size="11.00">provisioning_manager_id</text>
<polygon fill="#ffffff" stroke="none" points="8,-73 8,-95 200,-95 200,-73 8,-73"/>
<polygon fill="none" stroke="black" points="8,-73 8,-95 200,-95 200,-73 8,-73"/>
<text text-anchor="start" x="38" y="-81.2" font-family="Helvetica,sans-Serif" font-size="11.00">manager_ref</text>
<polygon fill="none" stroke="black" points="8,-55 8,-73 200,-73 200,-55 8,-55"/>
<text text-anchor="start" x="11" y="-61.2" font-family="Helvetica,sans-Serif" font-size="11.00">...</text>
<polygon fill="#ffffff" stroke="none" points="8,-37 8,-55 92,-55 92,-37 8,-37"/>
<polygon fill="none" stroke="black" points="8,-37 8,-55 92,-55 92,-37 8,-37"/>
<text text-anchor="start" x="11" y="-43.2" font-family="Helvetica,sans-Serif" font-size="11.00"> &#160;</text>
<polygon fill="#ffffff" stroke="none" points="92,-37 92,-55 141,-55 141,-37 92,-37"/>
<polygon fill="none" stroke="black" points="92,-37 92,-55 141,-55 141,-37 92,-37"/>
<text text-anchor="start" x="131" y="-43.2" font-family="Helvetica,sans-Serif" font-size="11.00"> &#160;</text>
<polygon fill="#ffffff" stroke="none" points="141,-37 141,-55 200,-55 200,-37 141,-37"/>
<polygon fill="none" stroke="black" points="141,-37 141,-55 200,-55 200,-37 141,-37"/>
<text text-anchor="start" x="180" y="-43.2" font-family="Helvetica,sans-Serif" font-size="11.00">3 &gt;</text>
</a>
</g>
</g>
<!-- customization_scripts_operating_system_flavors&#45;&gt;operating_system_flavors -->
<g id="edge2" class="edge"><title>customization_scripts_operating_system_flavors:operating_system_flavor_id:w&#45;&gt;operating_system_flavors:id:e</title>
<path fill="none" stroke="black" d="M236.693,-195.276C218.833,-179.258 233.765,-128 201,-128"/>
<polygon fill="black" stroke="black" points="242.931,-197.41 249.335,-203.406 246.715,-198.705 250.5,-200 250.5,-200 250.5,-200 246.715,-198.705 251.665,-196.594 242.931,-197.41 242.931,-197.41"/>
<ellipse fill="none" stroke="black" cx="239.903" cy="-196.374" rx="3.20001" ry="3.20001"/>
</g>
</g>
</svg>
