<?xml version="1.0" encoding="UTF-8" standalone="no"?>
<!DOCTYPE svg PUBLIC "-//W3C//DTD SVG 1.1//EN"
 "http://www.w3.org/Graphics/SVG/1.1/DTD/svg11.dtd">
<!-- Generated by graphviz version 2.38.0 (20140413.2041)
 -->
<!-- Title: oneDegreeRelationshipsDiagram Pages: 1 -->
<svg width="669pt" height="333pt"
 viewBox="0.00 0.00 669.00 333.00" xmlns="http://www.w3.org/2000/svg" xmlns:xlink="http://www.w3.org/1999/xlink">
<g id="graph0" class="graph" transform="scale(1 1) rotate(0) translate(4 329)">
<title>oneDegreeRelationshipsDiagram</title>
<polygon fill="#ffffff" stroke="none" points="-4,4 -4,-329 665,-329 665,4 -4,4"/>
<text text-anchor="middle" x="74.5" y="-7.2" font-family="Helvetica,sans-Serif" font-size="11.00">Generated by SchemaSpy</text>
<!-- customization_scripts_operating_system_flavors -->
<g id="node1" class="node"><title>customization_scripts_operating_system_flavors</title>
<g id="a_node1"><a xlink:href="../../tables/customization_scripts_operating_system_flavors.html" xlink:title="customization_scripts_operating_system_flavors" target="_top">
<polygon fill="#ffffff" stroke="none" points="333,-215 333,-321 653,-321 653,-215 333,-215"/>
<polygon fill="#f5f5f5" stroke="none" points="333,-299 333,-321 653,-321 653,-299 333,-299"/>
<polygon fill="none" stroke="black" points="333,-299 333,-321 653,-321 653,-299 333,-299"/>
<text text-anchor="start" x="338" y="-308.2" font-family="Helvetica,sans-Serif" font-weight="bold" font-size="11.00">customization_scripts_operating_system_flavors</text>
<text text-anchor="start" x="614" y="-307.2" font-family="Helvetica,sans-Serif" font-size="11.00">[table]</text>
<polygon fill="none" stroke="black" points="333,-277 333,-299 653,-299 653,-277 333,-277"/>
<image xlink:href="../../images/primaryKeys.png" width="11px" height="12px" preserveAspectRatio="xMinYMin meet" x="338" y="-294"/>
<text text-anchor="start" x="359" y="-285.2" font-family="Helvetica,sans-Serif" font-size="11.00">id</text>
<polygon fill="#ffffff" stroke="none" points="333,-255 333,-277 653,-277 653,-255 333,-255"/>
<polygon fill="none" stroke="black" points="333,-255 333,-277 653,-277 653,-255 333,-255"/>
<image xlink:href="../../images/foreignKeys.png" width="11px" height="12px" preserveAspectRatio="xMinYMin meet" x="338" y="-272"/>
<text text-anchor="start" x="359" y="-263.2" font-family="Helvetica,sans-Serif" font-size="11.00">customization_script_id</text>
<polygon fill="#ffffff" stroke="none" points="333,-233 333,-255 653,-255 653,-233 333,-233"/>
<polygon fill="none" stroke="black" points="333,-233 333,-255 653,-255 653,-233 333,-233"/>
<image xlink:href="../../images/foreignKeys.png" width="11px" height="12px" preserveAspectRatio="xMinYMin meet" x="338" y="-250"/>
<text text-anchor="start" x="359" y="-241.2" font-family="Helvetica,sans-Serif" font-size="11.00">operating_system_flavor_id</text>
<polygon fill="#ffffff" stroke="none" points="333,-215 333,-233 491,-233 491,-215 333,-215"/>
<polygon fill="none" stroke="black" points="333,-215 333,-233 491,-233 491,-215 333,-215"/>
<text text-anchor="start" x="336" y="-221.2" font-family="Helvetica,sans-Serif" font-size="11.00">&lt; 2</text>
<polygon fill="#ffffff" stroke="none" points="491,-215 491,-233 572,-233 572,-215 491,-215"/>
<polygon fill="none" stroke="black" points="491,-215 491,-233 572,-233 572,-215 491,-215"/>
<text text-anchor="start" x="562" y="-221.2" font-family="Helvetica,sans-Serif" font-size="11.00"> &#160;</text>
<polygon fill="#ffffff" stroke="none" points="572,-215 572,-233 653,-233 653,-215 572,-215"/>
<polygon fill="none" stroke="black" points="572,-215 572,-233 653,-233 653,-215 572,-215"/>
<text text-anchor="start" x="643" y="-221.2" font-family="Helvetica,sans-Serif" font-size="11.00"> &#160;</text>
</a>
</g>
</g>
<!-- customization_scripts -->
<g id="node2" class="node"><title>customization_scripts</title>
<g id="a_node2"><a xlink:href="../../tables/customization_scripts.html" xlink:title="customization_scripts" target="_top">
<polygon fill="#ffffff" stroke="none" points="8,-37 8,-301 284,-301 284,-37 8,-37"/>
<polygon fill="#f5f5f5" stroke="none" points="10,-277 10,-299 282,-299 282,-277 10,-277"/>
<polygon fill="none" stroke="black" points="10,-277 10,-299 282,-299 282,-277 10,-277"/>
<text text-anchor="start" x="15" y="-286.2" font-family="Helvetica,sans-Serif" font-weight="bold" font-size="11.00">customization_scripts</text>
<text text-anchor="start" x="243" y="-285.2" font-family="Helvetica,sans-Serif" font-size="11.00">[table]</text>
<polygon fill="none" stroke="black" points="10,-255 10,-277 161,-277 161,-255 10,-255"/>
<image xlink:href="../../images/primaryKeys.png" width="11px" height="12px" preserveAspectRatio="xMinYMin meet" x="15" y="-272"/>
<text text-anchor="start" x="30" y="-263.2" font-family="Helvetica,sans-Serif" font-size="11.00">id</text>
<polygon fill="none" stroke="black" points="161,-255 161,-277 282,-277 282,-255 161,-255"/>
<text text-anchor="start" x="164" y="-263.2" font-family="Helvetica,sans-Serif" font-size="11.00">bigserial[19]</text>
<polygon fill="none" stroke="black" points="10,-233 10,-255 161,-255 161,-233 10,-233"/>
<text text-anchor="start" x="30" y="-241.2" font-family="Helvetica,sans-Serif" font-size="11.00">name</text>
<polygon fill="none" stroke="black" points="161,-233 161,-255 282,-255 282,-233 161,-233"/>
<text text-anchor="start" x="164" y="-241.2" font-family="Helvetica,sans-Serif" font-size="11.00">varchar[2147483647]</text>
<polygon fill="#ffffff" stroke="none" points="10,-211 10,-233 161,-233 161,-211 10,-211"/>
<polygon fill="none" stroke="black" points="10,-211 10,-233 161,-233 161,-211 10,-211"/>
<text text-anchor="start" x="30" y="-219.2" font-family="Helvetica,sans-Serif" font-size="11.00">manager_id</text>
<polygon fill="none" stroke="black" points="161,-211 161,-233 282,-233 282,-211 161,-211"/>
<text text-anchor="start" x="164" y="-219.2" font-family="Helvetica,sans-Serif" font-size="11.00">int8[19]</text>
<polygon fill="#ffffff" stroke="none" points="10,-189 10,-211 161,-211 161,-189 10,-189"/>
<polygon fill="none" stroke="black" points="10,-189 10,-211 161,-211 161,-189 10,-189"/>
<text text-anchor="start" x="30" y="-197.2" font-family="Helvetica,sans-Serif" font-size="11.00">manager_ref</text>
<polygon fill="none" stroke="black" points="161,-189 161,-211 282,-211 282,-189 161,-189"/>
<text text-anchor="start" x="164" y="-197.2" font-family="Helvetica,sans-Serif" font-size="11.00">varchar[2147483647]</text>
<polygon fill="#ffffff" stroke="none" points="10,-167 10,-189 161,-189 161,-167 10,-167"/>
<polygon fill="none" stroke="black" points="10,-167 10,-189 161,-189 161,-167 10,-167"/>
<text text-anchor="start" x="30" y="-175.2" font-family="Helvetica,sans-Serif" font-size="11.00">type</text>
<polygon fill="none" stroke="black" points="161,-167 161,-189 282,-189 282,-167 161,-167"/>
<text text-anchor="start" x="164" y="-175.2" font-family="Helvetica,sans-Serif" font-size="11.00">varchar[2147483647]</text>
<polygon fill="none" stroke="black" points="10,-145 10,-167 161,-167 161,-145 10,-145"/>
<text text-anchor="start" x="30" y="-153.2" font-family="Helvetica,sans-Serif" font-size="11.00">created_at</text>
<polygon fill="none" stroke="black" points="161,-145 161,-167 282,-167 282,-145 161,-145"/>
<text text-anchor="start" x="164" y="-153.2" font-family="Helvetica,sans-Serif" font-size="11.00">timestamp[29,6]</text>
<polygon fill="none" stroke="black" points="10,-123 10,-145 161,-145 161,-123 10,-123"/>
<text text-anchor="start" x="30" y="-131.2" font-family="Helvetica,sans-Serif" font-size="11.00">updated_at</text>
<polygon fill="none" stroke="black" points="161,-123 161,-145 282,-145 282,-123 161,-123"/>
<text text-anchor="start" x="164" y="-131.2" font-family="Helvetica,sans-Serif" font-size="11.00">timestamp[29,6]</text>
<polygon fill="none" stroke="black" points="10,-101 10,-123 161,-123 161,-101 10,-101"/>
<text text-anchor="start" x="30" y="-109.2" font-family="Helvetica,sans-Serif" font-size="11.00">description</text>
<polygon fill="none" stroke="black" points="161,-101 161,-123 282,-123 282,-101 161,-101"/>
<text text-anchor="start" x="164" y="-109.2" font-family="Helvetica,sans-Serif" font-size="11.00">varchar[2147483647]</text>
<polygon fill="none" stroke="black" points="10,-79 10,-101 161,-101 161,-79 10,-79"/>
<text text-anchor="start" x="30" y="-87.2" font-family="Helvetica,sans-Serif" font-size="11.00">user_defined</text>
<polygon fill="none" stroke="black" points="161,-79 161,-101 282,-101 282,-79 161,-79"/>
<text text-anchor="start" x="164" y="-87.2" font-family="Helvetica,sans-Serif" font-size="11.00">bool[1]</text>
<polygon fill="none" stroke="black" points="10,-57 10,-79 161,-79 161,-57 10,-57"/>
<text text-anchor="start" x="30" y="-65.2" font-family="Helvetica,sans-Serif" font-size="11.00">in_use</text>
<polygon fill="none" stroke="black" points="161,-57 161,-79 282,-79 282,-57 161,-57"/>
<text text-anchor="start" x="164" y="-65.2" font-family="Helvetica,sans-Serif" font-size="11.00">bool[1]</text>
<polygon fill="#ffffff" stroke="none" points="10,-39 10,-57 90,-57 90,-39 10,-39"/>
<polygon fill="none" stroke="black" points="10,-39 10,-57 90,-57 90,-39 10,-39"/>
<text text-anchor="start" x="13" y="-45.2" font-family="Helvetica,sans-Serif" font-size="11.00">&lt; 0</text>
<polygon fill="#ffffff" stroke="none" points="90,-39 90,-57 161,-57 161,-39 90,-39"/>
<polygon fill="none" stroke="black" points="90,-39 90,-57 161,-57 161,-39 90,-39"/>
<text text-anchor="start" x="151" y="-45.2" font-family="Helvetica,sans-Serif" font-size="11.00"> &#160;</text>
<polygon fill="#ffffff" stroke="none" points="161,-39 161,-57 282,-57 282,-39 161,-39"/>
<polygon fill="none" stroke="black" points="161,-39 161,-57 282,-57 282,-39 161,-39"/>
<text text-anchor="start" x="262" y="-45.2" font-family="Helvetica,sans-Serif" font-size="11.00">1 &gt;</text>
<polygon fill="none" stroke="black" stroke-width="2" points="9,-38 9,-300 283,-300 283,-38 9,-38"/>
</a>
</g>
</g>
<!-- customization_scripts_operating_system_flavors&#45;&gt;customization_scripts -->
<g id="edge1" class="edge"><title>customization_scripts_operating_system_flavors:customization_script_id:w&#45;&gt;customization_scripts:id.type:e</title>
<path fill="none" stroke="black" d="M317.491,-266C306.177,-266 298.993,-266 283,-266"/>
<polygon fill="black" stroke="black" points="324,-266 332,-269.6 328,-266 332,-266 332,-266 332,-266 328,-266 332,-262.4 324,-266 324,-266"/>
<ellipse fill="none" stroke="black" cx="320.8" cy="-266" rx="3.2" ry="3.2"/>
</g>
</g>
</svg>
