<?xml version="1.0" encoding="UTF-8" standalone="no"?>
<!DOCTYPE svg PUBLIC "-//W3C//DTD SVG 1.1//EN"
 "http://www.w3.org/Graphics/SVG/1.1/DTD/svg11.dtd">
<!-- Generated by graphviz version 2.38.0 (20140413.2041)
 -->
<!-- Title: oneDegreeRelationshipsDiagram Pages: 1 -->
<svg width="537pt" height="841pt"
 viewBox="0.00 0.00 537.00 841.00" xmlns="http://www.w3.org/2000/svg" xmlns:xlink="http://www.w3.org/1999/xlink">
<g id="graph0" class="graph" transform="scale(1 1) rotate(0) translate(4 837)">
<title>oneDegreeRelationshipsDiagram</title>
<polygon fill="#ffffff" stroke="none" points="-4,4 -4,-837 533,-837 533,4 -4,4"/>
<text text-anchor="middle" x="74.5" y="-7.2" font-family="Helvetica,sans-Serif" font-size="11.00">Generated by SchemaSpy</text>
<!-- dialog_fields -->
<g id="node1" class="node"><title>dialog_fields</title>
<g id="a_node1"><a xlink:href="../../tables/dialog_fields.html" xlink:title="dialog_fields" target="_top">
<polygon fill="#ffffff" stroke="none" points="222,-37 222,-829 521,-829 521,-37 222,-37"/>
<polygon fill="#f5f5f5" stroke="none" points="224.5,-805 224.5,-827 519.5,-827 519.5,-805 224.5,-805"/>
<polygon fill="none" stroke="black" points="224.5,-805 224.5,-827 519.5,-827 519.5,-805 224.5,-805"/>
<text text-anchor="start" x="229.5" y="-814.2" font-family="Helvetica,sans-Serif" font-weight="bold" font-size="11.00">dialog_fields</text>
<text text-anchor="start" x="480.5" y="-813.2" font-family="Helvetica,sans-Serif" font-size="11.00">[table]</text>
<polygon fill="none" stroke="black" points="224.5,-783 224.5,-805 398.5,-805 398.5,-783 224.5,-783"/>
<image xlink:href="../../images/primaryKeys.png" width="11px" height="12px" preserveAspectRatio="xMinYMin meet" x="229.5" y="-800"/>
<text text-anchor="start" x="244.5" y="-791.2" font-family="Helvetica,sans-Serif" font-size="11.00">id</text>
<polygon fill="none" stroke="black" points="398.5,-783 398.5,-805 519.5,-805 519.5,-783 398.5,-783"/>
<text text-anchor="start" x="401.5" y="-791.2" font-family="Helvetica,sans-Serif" font-size="11.00">bigserial[19]</text>
<polygon fill="none" stroke="black" points="224.5,-761 224.5,-783 398.5,-783 398.5,-761 224.5,-761"/>
<text text-anchor="start" x="244.5" y="-769.2" font-family="Helvetica,sans-Serif" font-size="11.00">name</text>
<polygon fill="none" stroke="black" points="398.5,-761 398.5,-783 519.5,-783 519.5,-761 398.5,-761"/>
<text text-anchor="start" x="401.5" y="-769.2" font-family="Helvetica,sans-Serif" font-size="11.00">varchar[2147483647]</text>
<polygon fill="none" stroke="black" points="224.5,-739 224.5,-761 398.5,-761 398.5,-739 224.5,-739"/>
<text text-anchor="start" x="244.5" y="-747.2" font-family="Helvetica,sans-Serif" font-size="11.00">description</text>
<polygon fill="none" stroke="black" points="398.5,-739 398.5,-761 519.5,-761 519.5,-739 398.5,-739"/>
<text text-anchor="start" x="401.5" y="-747.2" font-family="Helvetica,sans-Serif" font-size="11.00">text[2147483647]</text>
<polygon fill="#ffffff" stroke="none" points="224.5,-717 224.5,-739 398.5,-739 398.5,-717 224.5,-717"/>
<polygon fill="none" stroke="black" points="224.5,-717 224.5,-739 398.5,-739 398.5,-717 224.5,-717"/>
<text text-anchor="start" x="244.5" y="-725.2" font-family="Helvetica,sans-Serif" font-size="11.00">type</text>
<polygon fill="none" stroke="black" points="398.5,-717 398.5,-739 519.5,-739 519.5,-717 398.5,-717"/>
<text text-anchor="start" x="401.5" y="-725.2" font-family="Helvetica,sans-Serif" font-size="11.00">varchar[2147483647]</text>
<polygon fill="none" stroke="black" points="224.5,-695 224.5,-717 398.5,-717 398.5,-695 224.5,-695"/>
<text text-anchor="start" x="244.5" y="-703.2" font-family="Helvetica,sans-Serif" font-size="11.00">data_type</text>
<polygon fill="none" stroke="black" points="398.5,-695 398.5,-717 519.5,-717 519.5,-695 398.5,-695"/>
<text text-anchor="start" x="401.5" y="-703.2" font-family="Helvetica,sans-Serif" font-size="11.00">varchar[2147483647]</text>
<polygon fill="none" stroke="black" points="224.5,-673 224.5,-695 398.5,-695 398.5,-673 224.5,-673"/>
<text text-anchor="start" x="244.5" y="-681.2" font-family="Helvetica,sans-Serif" font-size="11.00">notes</text>
<polygon fill="none" stroke="black" points="398.5,-673 398.5,-695 519.5,-695 519.5,-673 398.5,-673"/>
<text text-anchor="start" x="401.5" y="-681.2" font-family="Helvetica,sans-Serif" font-size="11.00">varchar[2147483647]</text>
<polygon fill="none" stroke="black" points="224.5,-651 224.5,-673 398.5,-673 398.5,-651 224.5,-651"/>
<text text-anchor="start" x="244.5" y="-659.2" font-family="Helvetica,sans-Serif" font-size="11.00">notes_display</text>
<polygon fill="none" stroke="black" points="398.5,-651 398.5,-673 519.5,-673 519.5,-651 398.5,-651"/>
<text text-anchor="start" x="401.5" y="-659.2" font-family="Helvetica,sans-Serif" font-size="11.00">varchar[2147483647]</text>
<polygon fill="none" stroke="black" points="224.5,-629 224.5,-651 398.5,-651 398.5,-629 224.5,-629"/>
<text text-anchor="start" x="244.5" y="-637.2" font-family="Helvetica,sans-Serif" font-size="11.00">display</text>
<polygon fill="none" stroke="black" points="398.5,-629 398.5,-651 519.5,-651 519.5,-629 398.5,-629"/>
<text text-anchor="start" x="401.5" y="-637.2" font-family="Helvetica,sans-Serif" font-size="11.00">varchar[2147483647]</text>
<polygon fill="none" stroke="black" points="224.5,-607 224.5,-629 398.5,-629 398.5,-607 224.5,-607"/>
<text text-anchor="start" x="244.5" y="-615.2" font-family="Helvetica,sans-Serif" font-size="11.00">display_method</text>
<polygon fill="none" stroke="black" points="398.5,-607 398.5,-629 519.5,-629 519.5,-607 398.5,-607"/>
<text text-anchor="start" x="401.5" y="-615.2" font-family="Helvetica,sans-Serif" font-size="11.00">varchar[2147483647]</text>
<polygon fill="none" stroke="black" points="224.5,-585 224.5,-607 398.5,-607 398.5,-585 224.5,-585"/>
<text text-anchor="start" x="244.5" y="-593.2" font-family="Helvetica,sans-Serif" font-size="11.00">display_method_options</text>
<polygon fill="none" stroke="black" points="398.5,-585 398.5,-607 519.5,-607 519.5,-585 398.5,-585"/>
<text text-anchor="start" x="401.5" y="-593.2" font-family="Helvetica,sans-Serif" font-size="11.00">text[2147483647]</text>
<polygon fill="none" stroke="black" points="224.5,-563 224.5,-585 398.5,-585 398.5,-563 224.5,-563"/>
<text text-anchor="start" x="244.5" y="-571.2" font-family="Helvetica,sans-Serif" font-size="11.00">required</text>
<polygon fill="none" stroke="black" points="398.5,-563 398.5,-585 519.5,-585 519.5,-563 398.5,-563"/>
<text text-anchor="start" x="401.5" y="-571.2" font-family="Helvetica,sans-Serif" font-size="11.00">bool[1]</text>
<polygon fill="none" stroke="black" points="224.5,-541 224.5,-563 398.5,-563 398.5,-541 224.5,-541"/>
<text text-anchor="start" x="244.5" y="-549.2" font-family="Helvetica,sans-Serif" font-size="11.00">required_method</text>
<polygon fill="none" stroke="black" points="398.5,-541 398.5,-563 519.5,-563 519.5,-541 398.5,-541"/>
<text text-anchor="start" x="401.5" y="-549.2" font-family="Helvetica,sans-Serif" font-size="11.00">varchar[2147483647]</text>
<polygon fill="none" stroke="black" points="224.5,-519 224.5,-541 398.5,-541 398.5,-519 224.5,-519"/>
<text text-anchor="start" x="244.5" y="-527.2" font-family="Helvetica,sans-Serif" font-size="11.00">required_method_options</text>
<polygon fill="none" stroke="black" points="398.5,-519 398.5,-541 519.5,-541 519.5,-519 398.5,-519"/>
<text text-anchor="start" x="401.5" y="-527.2" font-family="Helvetica,sans-Serif" font-size="11.00">text[2147483647]</text>
<polygon fill="none" stroke="black" points="224.5,-497 224.5,-519 398.5,-519 398.5,-497 224.5,-497"/>
<text text-anchor="start" x="244.5" y="-505.2" font-family="Helvetica,sans-Serif" font-size="11.00">default_value</text>
<polygon fill="none" stroke="black" points="398.5,-497 398.5,-519 519.5,-519 519.5,-497 398.5,-497"/>
<text text-anchor="start" x="401.5" y="-505.2" font-family="Helvetica,sans-Serif" font-size="11.00">text[2147483647]</text>
<polygon fill="none" stroke="black" points="224.5,-475 224.5,-497 398.5,-497 398.5,-475 224.5,-475"/>
<text text-anchor="start" x="244.5" y="-483.2" font-family="Helvetica,sans-Serif" font-size="11.00">values</text>
<polygon fill="none" stroke="black" points="398.5,-475 398.5,-497 519.5,-497 519.5,-475 398.5,-475"/>
<text text-anchor="start" x="401.5" y="-483.2" font-family="Helvetica,sans-Serif" font-size="11.00">text[2147483647]</text>
<polygon fill="none" stroke="black" points="224.5,-453 224.5,-475 398.5,-475 398.5,-453 224.5,-453"/>
<text text-anchor="start" x="244.5" y="-461.2" font-family="Helvetica,sans-Serif" font-size="11.00">values_method</text>
<polygon fill="none" stroke="black" points="398.5,-453 398.5,-475 519.5,-475 519.5,-453 398.5,-453"/>
<text text-anchor="start" x="401.5" y="-461.2" font-family="Helvetica,sans-Serif" font-size="11.00">varchar[2147483647]</text>
<polygon fill="none" stroke="black" points="224.5,-431 224.5,-453 398.5,-453 398.5,-431 224.5,-431"/>
<text text-anchor="start" x="244.5" y="-439.2" font-family="Helvetica,sans-Serif" font-size="11.00">values_method_options</text>
<polygon fill="none" stroke="black" points="398.5,-431 398.5,-453 519.5,-453 519.5,-431 398.5,-431"/>
<text text-anchor="start" x="401.5" y="-439.2" font-family="Helvetica,sans-Serif" font-size="11.00">text[2147483647]</text>
<polygon fill="none" stroke="black" points="224.5,-409 224.5,-431 398.5,-431 398.5,-409 224.5,-409"/>
<text text-anchor="start" x="244.5" y="-417.2" font-family="Helvetica,sans-Serif" font-size="11.00">options</text>
<polygon fill="none" stroke="black" points="398.5,-409 398.5,-431 519.5,-431 519.5,-409 398.5,-409"/>
<text text-anchor="start" x="401.5" y="-417.2" font-family="Helvetica,sans-Serif" font-size="11.00">text[2147483647]</text>
<polygon fill="none" stroke="black" points="224.5,-387 224.5,-409 398.5,-409 398.5,-387 224.5,-387"/>
<text text-anchor="start" x="244.5" y="-395.2" font-family="Helvetica,sans-Serif" font-size="11.00">created_at</text>
<polygon fill="none" stroke="black" points="398.5,-387 398.5,-409 519.5,-409 519.5,-387 398.5,-387"/>
<text text-anchor="start" x="401.5" y="-395.2" font-family="Helvetica,sans-Serif" font-size="11.00">timestamp[29,6]</text>
<polygon fill="none" stroke="black" points="224.5,-365 224.5,-387 398.5,-387 398.5,-365 224.5,-365"/>
<text text-anchor="start" x="244.5" y="-373.2" font-family="Helvetica,sans-Serif" font-size="11.00">updated_at</text>
<polygon fill="none" stroke="black" points="398.5,-365 398.5,-387 519.5,-387 519.5,-365 398.5,-365"/>
<text text-anchor="start" x="401.5" y="-373.2" font-family="Helvetica,sans-Serif" font-size="11.00">timestamp[29,6]</text>
<polygon fill="none" stroke="black" points="224.5,-343 224.5,-365 398.5,-365 398.5,-343 224.5,-343"/>
<text text-anchor="start" x="244.5" y="-351.2" font-family="Helvetica,sans-Serif" font-size="11.00">label</text>
<polygon fill="none" stroke="black" points="398.5,-343 398.5,-365 519.5,-365 519.5,-343 398.5,-343"/>
<text text-anchor="start" x="401.5" y="-351.2" font-family="Helvetica,sans-Serif" font-size="11.00">varchar[2147483647]</text>
<polygon fill="none" stroke="black" points="224.5,-321 224.5,-343 398.5,-343 398.5,-321 224.5,-321"/>
<image xlink:href="../../images/foreignKeys.png" width="11px" height="12px" preserveAspectRatio="xMinYMin meet" x="229.5" y="-338"/>
<text text-anchor="start" x="244.5" y="-329.2" font-family="Helvetica,sans-Serif" font-size="11.00">dialog_group_id</text>
<polygon fill="none" stroke="black" points="398.5,-321 398.5,-343 519.5,-343 519.5,-321 398.5,-321"/>
<text text-anchor="start" x="401.5" y="-329.2" font-family="Helvetica,sans-Serif" font-size="11.00">int8[19]</text>
<polygon fill="none" stroke="black" points="224.5,-299 224.5,-321 398.5,-321 398.5,-299 224.5,-299"/>
<text text-anchor="start" x="244.5" y="-307.2" font-family="Helvetica,sans-Serif" font-size="11.00">position</text>
<polygon fill="none" stroke="black" points="398.5,-299 398.5,-321 519.5,-321 519.5,-299 398.5,-299"/>
<text text-anchor="start" x="401.5" y="-307.2" font-family="Helvetica,sans-Serif" font-size="11.00">int4[10]</text>
<polygon fill="none" stroke="black" points="224.5,-277 224.5,-299 398.5,-299 398.5,-277 224.5,-277"/>
<text text-anchor="start" x="244.5" y="-285.2" font-family="Helvetica,sans-Serif" font-size="11.00">validator_type</text>
<polygon fill="none" stroke="black" points="398.5,-277 398.5,-299 519.5,-299 519.5,-277 398.5,-277"/>
<text text-anchor="start" x="401.5" y="-285.2" font-family="Helvetica,sans-Serif" font-size="11.00">varchar[2147483647]</text>
<polygon fill="none" stroke="black" points="224.5,-255 224.5,-277 398.5,-277 398.5,-255 224.5,-255"/>
<text text-anchor="start" x="244.5" y="-263.2" font-family="Helvetica,sans-Serif" font-size="11.00">validator_rule</text>
<polygon fill="none" stroke="black" points="398.5,-255 398.5,-277 519.5,-277 519.5,-255 398.5,-255"/>
<text text-anchor="start" x="401.5" y="-263.2" font-family="Helvetica,sans-Serif" font-size="11.00">varchar[2147483647]</text>
<polygon fill="none" stroke="black" points="224.5,-233 224.5,-255 398.5,-255 398.5,-233 224.5,-233"/>
<text text-anchor="start" x="244.5" y="-241.2" font-family="Helvetica,sans-Serif" font-size="11.00">reconfigurable</text>
<polygon fill="none" stroke="black" points="398.5,-233 398.5,-255 519.5,-255 519.5,-233 398.5,-233"/>
<text text-anchor="start" x="401.5" y="-241.2" font-family="Helvetica,sans-Serif" font-size="11.00">bool[1]</text>
<polygon fill="none" stroke="black" points="224.5,-211 224.5,-233 398.5,-233 398.5,-211 224.5,-211"/>
<text text-anchor="start" x="244.5" y="-219.2" font-family="Helvetica,sans-Serif" font-size="11.00">dynamic</text>
<polygon fill="none" stroke="black" points="398.5,-211 398.5,-233 519.5,-233 519.5,-211 398.5,-211"/>
<text text-anchor="start" x="401.5" y="-219.2" font-family="Helvetica,sans-Serif" font-size="11.00">bool[1]</text>
<polygon fill="none" stroke="black" points="224.5,-189 224.5,-211 398.5,-211 398.5,-189 224.5,-189"/>
<text text-anchor="start" x="244.5" y="-197.2" font-family="Helvetica,sans-Serif" font-size="11.00">show_refresh_button</text>
<polygon fill="none" stroke="black" points="398.5,-189 398.5,-211 519.5,-211 519.5,-189 398.5,-189"/>
<text text-anchor="start" x="401.5" y="-197.2" font-family="Helvetica,sans-Serif" font-size="11.00">bool[1]</text>
<polygon fill="none" stroke="black" points="224.5,-167 224.5,-189 398.5,-189 398.5,-167 224.5,-167"/>
<text text-anchor="start" x="244.5" y="-175.2" font-family="Helvetica,sans-Serif" font-size="11.00">load_values_on_init</text>
<polygon fill="none" stroke="black" points="398.5,-167 398.5,-189 519.5,-189 519.5,-167 398.5,-167"/>
<text text-anchor="start" x="401.5" y="-175.2" font-family="Helvetica,sans-Serif" font-size="11.00">bool[1]</text>
<polygon fill="none" stroke="black" points="224.5,-145 224.5,-167 398.5,-167 398.5,-145 224.5,-145"/>
<text text-anchor="start" x="244.5" y="-153.2" font-family="Helvetica,sans-Serif" font-size="11.00">read_only</text>
<polygon fill="none" stroke="black" points="398.5,-145 398.5,-167 519.5,-167 519.5,-145 398.5,-145"/>
<text text-anchor="start" x="401.5" y="-153.2" font-family="Helvetica,sans-Serif" font-size="11.00">bool[1]</text>
<polygon fill="none" stroke="black" points="224.5,-123 224.5,-145 398.5,-145 398.5,-123 224.5,-123"/>
<text text-anchor="start" x="244.5" y="-131.2" font-family="Helvetica,sans-Serif" font-size="11.00">auto_refresh</text>
<polygon fill="none" stroke="black" points="398.5,-123 398.5,-145 519.5,-145 519.5,-123 398.5,-123"/>
<text text-anchor="start" x="401.5" y="-131.2" font-family="Helvetica,sans-Serif" font-size="11.00">bool[1]</text>
<polygon fill="none" stroke="black" points="224.5,-101 224.5,-123 398.5,-123 398.5,-101 224.5,-101"/>
<text text-anchor="start" x="244.5" y="-109.2" font-family="Helvetica,sans-Serif" font-size="11.00">trigger_auto_refresh</text>
<polygon fill="none" stroke="black" points="398.5,-101 398.5,-123 519.5,-123 519.5,-101 398.5,-101"/>
<text text-anchor="start" x="401.5" y="-109.2" font-family="Helvetica,sans-Serif" font-size="11.00">bool[1]</text>
<polygon fill="none" stroke="black" points="224.5,-79 224.5,-101 398.5,-101 398.5,-79 224.5,-79"/>
<text text-anchor="start" x="244.5" y="-87.2" font-family="Helvetica,sans-Serif" font-size="11.00">visible</text>
<polygon fill="none" stroke="black" points="398.5,-79 398.5,-101 519.5,-101 519.5,-79 398.5,-79"/>
<text text-anchor="start" x="401.5" y="-87.2" font-family="Helvetica,sans-Serif" font-size="11.00">bool[1]</text>
<polygon fill="none" stroke="black" points="224.5,-57 224.5,-79 398.5,-79 398.5,-57 224.5,-57"/>
<text text-anchor="start" x="244.5" y="-65.2" font-family="Helvetica,sans-Serif" font-size="11.00">validator_message</text>
<polygon fill="none" stroke="black" points="398.5,-57 398.5,-79 519.5,-79 519.5,-57 398.5,-57"/>
<text text-anchor="start" x="401.5" y="-65.2" font-family="Helvetica,sans-Serif" font-size="11.00">varchar[2147483647]</text>
<polygon fill="#ffffff" stroke="none" points="224.5,-39 224.5,-57 316.5,-57 316.5,-39 224.5,-39"/>
<polygon fill="none" stroke="black" points="224.5,-39 224.5,-57 316.5,-57 316.5,-39 224.5,-39"/>
<text text-anchor="start" x="227.5" y="-45.2" font-family="Helvetica,sans-Serif" font-size="11.00">&lt; 1</text>
<polygon fill="#ffffff" stroke="none" points="316.5,-39 316.5,-57 398.5,-57 398.5,-39 316.5,-39"/>
<polygon fill="none" stroke="black" points="316.5,-39 316.5,-57 398.5,-57 398.5,-39 316.5,-39"/>
<text text-anchor="start" x="388.5" y="-45.2" font-family="Helvetica,sans-Serif" font-size="11.00"> &#160;</text>
<polygon fill="#ffffff" stroke="none" points="398.5,-39 398.5,-57 519.5,-57 519.5,-39 398.5,-39"/>
<polygon fill="none" stroke="black" points="398.5,-39 398.5,-57 519.5,-57 519.5,-39 398.5,-39"/>
<text text-anchor="start" x="499.5" y="-45.2" font-family="Helvetica,sans-Serif" font-size="11.00">0 &gt;</text>
<polygon fill="none" stroke="black" stroke-width="2" points="223,-38 223,-828 520,-828 520,-38 223,-38"/>
</a>
</g>
</g>
<!-- dialog_groups -->
<g id="node2" class="node"><title>dialog_groups</title>
<g id="a_node2"><a xlink:href="../../tables/dialog_groups.html" xlink:title="dialog_groups" target="_top">
<polygon fill="#ffffff" stroke="none" points="8,-263 8,-365 173,-365 173,-263 8,-263"/>
<polygon fill="#f5f5f5" stroke="none" points="8.5,-343 8.5,-365 173.5,-365 173.5,-343 8.5,-343"/>
<polygon fill="none" stroke="black" points="8.5,-343 8.5,-365 173.5,-365 173.5,-343 8.5,-343"/>
<text text-anchor="start" x="13.5" y="-352.2" font-family="Helvetica,sans-Serif" font-weight="bold" font-size="11.00">dialog_groups</text>
<text text-anchor="start" x="134.5" y="-351.2" font-family="Helvetica,sans-Serif" font-size="11.00">[table]</text>
<polygon fill="none" stroke="black" points="8.5,-321 8.5,-343 173.5,-343 173.5,-321 8.5,-321"/>
<image xlink:href="../../images/primaryKeys.png" width="11px" height="12px" preserveAspectRatio="xMinYMin meet" x="13.5" y="-338"/>
<text text-anchor="start" x="28.5" y="-329.2" font-family="Helvetica,sans-Serif" font-size="11.00">id</text>
<polygon fill="none" stroke="black" points="8.5,-299 8.5,-321 173.5,-321 173.5,-299 8.5,-299"/>
<image xlink:href="../../images/foreignKeys.png" width="11px" height="12px" preserveAspectRatio="xMinYMin meet" x="13.5" y="-316"/>
<text text-anchor="start" x="28.5" y="-307.2" font-family="Helvetica,sans-Serif" font-size="11.00">dialog_tab_id</text>
<polygon fill="none" stroke="black" points="8.5,-281 8.5,-299 173.5,-299 173.5,-281 8.5,-281"/>
<text text-anchor="start" x="11.5" y="-287.2" font-family="Helvetica,sans-Serif" font-size="11.00">...</text>
<polygon fill="#ffffff" stroke="none" points="8.5,-263 8.5,-281 84.5,-281 84.5,-263 8.5,-263"/>
<polygon fill="none" stroke="black" points="8.5,-263 8.5,-281 84.5,-281 84.5,-263 8.5,-263"/>
<text text-anchor="start" x="11.5" y="-269.2" font-family="Helvetica,sans-Serif" font-size="11.00">&lt; 1</text>
<polygon fill="#ffffff" stroke="none" points="84.5,-263 84.5,-281 123.5,-281 123.5,-263 84.5,-263"/>
<polygon fill="none" stroke="black" points="84.5,-263 84.5,-281 123.5,-281 123.5,-263 84.5,-263"/>
<text text-anchor="start" x="113.5" y="-269.2" font-family="Helvetica,sans-Serif" font-size="11.00"> &#160;</text>
<polygon fill="#ffffff" stroke="none" points="123.5,-263 123.5,-281 173.5,-281 173.5,-263 123.5,-263"/>
<polygon fill="none" stroke="black" points="123.5,-263 123.5,-281 173.5,-281 173.5,-263 123.5,-263"/>
<text text-anchor="start" x="153.5" y="-269.2" font-family="Helvetica,sans-Serif" font-size="11.00">1 &gt;</text>
</a>
</g>
</g>
<!-- dialog_fields&#45;&gt;dialog_groups -->
<g id="edge1" class="edge"><title>dialog_fields:dialog_group_id:w&#45;&gt;dialog_groups:id:e</title>
<path fill="none" stroke="black" d="M208.991,-332C197.677,-332 190.493,-332 174.5,-332"/>
<polygon fill="black" stroke="black" points="215.5,-332 223.5,-335.6 219.5,-332 223.5,-332 223.5,-332 223.5,-332 219.5,-332 223.5,-328.4 215.5,-332 215.5,-332"/>
<ellipse fill="none" stroke="black" cx="212.3" cy="-332" rx="3.2" ry="3.2"/>
</g>
</g>
</svg>
