<?xml version="1.0" encoding="UTF-8" standalone="no"?>
<!DOCTYPE svg PUBLIC "-//W3C//DTD SVG 1.1//EN"
 "http://www.w3.org/Graphics/SVG/1.1/DTD/svg11.dtd">
<!-- Generated by graphviz version 2.38.0 (20140413.2041)
 -->
<!-- Title: oneDegreeRelationshipsDiagram Pages: 1 -->
<svg width="665pt" height="333pt"
 viewBox="0.00 0.00 665.00 333.00" xmlns="http://www.w3.org/2000/svg" xmlns:xlink="http://www.w3.org/1999/xlink">
<g id="graph0" class="graph" transform="scale(1 1) rotate(0) translate(4 329)">
<title>oneDegreeRelationshipsDiagram</title>
<polygon fill="#ffffff" stroke="none" points="-4,4 -4,-329 661,-329 661,4 -4,4"/>
<text text-anchor="middle" x="74.5" y="-7.2" font-family="Helvetica,sans-Serif" font-size="11.00">Generated by SchemaSpy</text>
<!-- dialog_groups -->
<g id="node1" class="node"><title>dialog_groups</title>
<g id="a_node1"><a xlink:href="../../tables/dialog_groups.html" xlink:title="dialog_groups" target="_top">
<polygon fill="#ffffff" stroke="none" points="484,-219 484,-321 649,-321 649,-219 484,-219"/>
<polygon fill="#f5f5f5" stroke="none" points="484.5,-299 484.5,-321 649.5,-321 649.5,-299 484.5,-299"/>
<polygon fill="none" stroke="black" points="484.5,-299 484.5,-321 649.5,-321 649.5,-299 484.5,-299"/>
<text text-anchor="start" x="489.5" y="-308.2" font-family="Helvetica,sans-Serif" font-weight="bold" font-size="11.00">dialog_groups</text>
<text text-anchor="start" x="610.5" y="-307.2" font-family="Helvetica,sans-Serif" font-size="11.00">[table]</text>
<polygon fill="none" stroke="black" points="484.5,-277 484.5,-299 649.5,-299 649.5,-277 484.5,-277"/>
<image xlink:href="../../images/primaryKeys.png" width="11px" height="12px" preserveAspectRatio="xMinYMin meet" x="489.5" y="-294"/>
<text text-anchor="start" x="504.5" y="-285.2" font-family="Helvetica,sans-Serif" font-size="11.00">id</text>
<polygon fill="none" stroke="black" points="484.5,-255 484.5,-277 649.5,-277 649.5,-255 484.5,-255"/>
<image xlink:href="../../images/foreignKeys.png" width="11px" height="12px" preserveAspectRatio="xMinYMin meet" x="489.5" y="-272"/>
<text text-anchor="start" x="504.5" y="-263.2" font-family="Helvetica,sans-Serif" font-size="11.00">dialog_tab_id</text>
<polygon fill="none" stroke="black" points="484.5,-237 484.5,-255 649.5,-255 649.5,-237 484.5,-237"/>
<text text-anchor="start" x="487.5" y="-243.2" font-family="Helvetica,sans-Serif" font-size="11.00">...</text>
<polygon fill="#ffffff" stroke="none" points="484.5,-219 484.5,-237 560.5,-237 560.5,-219 484.5,-219"/>
<polygon fill="none" stroke="black" points="484.5,-219 484.5,-237 560.5,-237 560.5,-219 484.5,-219"/>
<text text-anchor="start" x="487.5" y="-225.2" font-family="Helvetica,sans-Serif" font-size="11.00">&lt; 1</text>
<polygon fill="#ffffff" stroke="none" points="560.5,-219 560.5,-237 599.5,-237 599.5,-219 560.5,-219"/>
<polygon fill="none" stroke="black" points="560.5,-219 560.5,-237 599.5,-237 599.5,-219 560.5,-219"/>
<text text-anchor="start" x="589.5" y="-225.2" font-family="Helvetica,sans-Serif" font-size="11.00"> &#160;</text>
<polygon fill="#ffffff" stroke="none" points="599.5,-219 599.5,-237 649.5,-237 649.5,-219 599.5,-219"/>
<polygon fill="none" stroke="black" points="599.5,-219 599.5,-237 649.5,-237 649.5,-219 599.5,-219"/>
<text text-anchor="start" x="629.5" y="-225.2" font-family="Helvetica,sans-Serif" font-size="11.00">1 &gt;</text>
</a>
</g>
</g>
<!-- dialog_tabs -->
<g id="node2" class="node"><title>dialog_tabs</title>
<g id="a_node2"><a xlink:href="../../tables/dialog_tabs.html" xlink:title="dialog_tabs" target="_top">
<polygon fill="#ffffff" stroke="none" points="145,-37 145,-301 435,-301 435,-37 145,-37"/>
<polygon fill="#f5f5f5" stroke="none" points="147,-277 147,-299 433,-299 433,-277 147,-277"/>
<polygon fill="none" stroke="black" points="147,-277 147,-299 433,-299 433,-277 147,-277"/>
<text text-anchor="start" x="152" y="-286.2" font-family="Helvetica,sans-Serif" font-weight="bold" font-size="11.00">dialog_tabs</text>
<text text-anchor="start" x="394" y="-285.2" font-family="Helvetica,sans-Serif" font-size="11.00">[table]</text>
<polygon fill="none" stroke="black" points="147,-255 147,-277 312,-277 312,-255 147,-255"/>
<image xlink:href="../../images/primaryKeys.png" width="11px" height="12px" preserveAspectRatio="xMinYMin meet" x="152" y="-272"/>
<text text-anchor="start" x="167" y="-263.2" font-family="Helvetica,sans-Serif" font-size="11.00">id</text>
<polygon fill="none" stroke="black" points="312,-255 312,-277 433,-277 433,-255 312,-255"/>
<text text-anchor="start" x="315" y="-263.2" font-family="Helvetica,sans-Serif" font-size="11.00">bigserial[19]</text>
<polygon fill="none" stroke="black" points="147,-233 147,-255 312,-255 312,-233 147,-233"/>
<text text-anchor="start" x="167" y="-241.2" font-family="Helvetica,sans-Serif" font-size="11.00">description</text>
<polygon fill="none" stroke="black" points="312,-233 312,-255 433,-255 433,-233 312,-233"/>
<text text-anchor="start" x="315" y="-241.2" font-family="Helvetica,sans-Serif" font-size="11.00">varchar[2147483647]</text>
<polygon fill="none" stroke="black" points="147,-211 147,-233 312,-233 312,-211 147,-211"/>
<text text-anchor="start" x="167" y="-219.2" font-family="Helvetica,sans-Serif" font-size="11.00">display</text>
<polygon fill="none" stroke="black" points="312,-211 312,-233 433,-233 433,-211 312,-211"/>
<text text-anchor="start" x="315" y="-219.2" font-family="Helvetica,sans-Serif" font-size="11.00">varchar[2147483647]</text>
<polygon fill="none" stroke="black" points="147,-189 147,-211 312,-211 312,-189 147,-189"/>
<text text-anchor="start" x="167" y="-197.2" font-family="Helvetica,sans-Serif" font-size="11.00">created_at</text>
<polygon fill="none" stroke="black" points="312,-189 312,-211 433,-211 433,-189 312,-189"/>
<text text-anchor="start" x="315" y="-197.2" font-family="Helvetica,sans-Serif" font-size="11.00">timestamp[29,6]</text>
<polygon fill="none" stroke="black" points="147,-167 147,-189 312,-189 312,-167 147,-167"/>
<text text-anchor="start" x="167" y="-175.2" font-family="Helvetica,sans-Serif" font-size="11.00">updated_at</text>
<polygon fill="none" stroke="black" points="312,-167 312,-189 433,-189 433,-167 312,-167"/>
<text text-anchor="start" x="315" y="-175.2" font-family="Helvetica,sans-Serif" font-size="11.00">timestamp[29,6]</text>
<polygon fill="none" stroke="black" points="147,-145 147,-167 312,-167 312,-145 147,-145"/>
<text text-anchor="start" x="167" y="-153.2" font-family="Helvetica,sans-Serif" font-size="11.00">label</text>
<polygon fill="none" stroke="black" points="312,-145 312,-167 433,-167 433,-145 312,-145"/>
<text text-anchor="start" x="315" y="-153.2" font-family="Helvetica,sans-Serif" font-size="11.00">varchar[2147483647]</text>
<polygon fill="none" stroke="black" points="147,-123 147,-145 312,-145 312,-123 147,-123"/>
<text text-anchor="start" x="167" y="-131.2" font-family="Helvetica,sans-Serif" font-size="11.00">display_method</text>
<polygon fill="none" stroke="black" points="312,-123 312,-145 433,-145 433,-123 312,-123"/>
<text text-anchor="start" x="315" y="-131.2" font-family="Helvetica,sans-Serif" font-size="11.00">varchar[2147483647]</text>
<polygon fill="none" stroke="black" points="147,-101 147,-123 312,-123 312,-101 147,-101"/>
<text text-anchor="start" x="167" y="-109.2" font-family="Helvetica,sans-Serif" font-size="11.00">display_method_options</text>
<polygon fill="none" stroke="black" points="312,-101 312,-123 433,-123 433,-101 312,-101"/>
<text text-anchor="start" x="315" y="-109.2" font-family="Helvetica,sans-Serif" font-size="11.00">text[2147483647]</text>
<polygon fill="none" stroke="black" points="147,-79 147,-101 312,-101 312,-79 147,-79"/>
<image xlink:href="../../images/foreignKeys.png" width="11px" height="12px" preserveAspectRatio="xMinYMin meet" x="152" y="-96"/>
<text text-anchor="start" x="167" y="-87.2" font-family="Helvetica,sans-Serif" font-size="11.00">dialog_id</text>
<polygon fill="none" stroke="black" points="312,-79 312,-101 433,-101 433,-79 312,-79"/>
<text text-anchor="start" x="315" y="-87.2" font-family="Helvetica,sans-Serif" font-size="11.00">int8[19]</text>
<polygon fill="none" stroke="black" points="147,-57 147,-79 312,-79 312,-57 147,-57"/>
<text text-anchor="start" x="167" y="-65.2" font-family="Helvetica,sans-Serif" font-size="11.00">position</text>
<polygon fill="none" stroke="black" points="312,-57 312,-79 433,-79 433,-57 312,-57"/>
<text text-anchor="start" x="315" y="-65.2" font-family="Helvetica,sans-Serif" font-size="11.00">int4[10]</text>
<polygon fill="#ffffff" stroke="none" points="147,-39 147,-57 234,-57 234,-39 147,-39"/>
<polygon fill="none" stroke="black" points="147,-39 147,-57 234,-57 234,-39 147,-39"/>
<text text-anchor="start" x="150" y="-45.2" font-family="Helvetica,sans-Serif" font-size="11.00">&lt; 1</text>
<polygon fill="#ffffff" stroke="none" points="234,-39 234,-57 312,-57 312,-39 234,-39"/>
<polygon fill="none" stroke="black" points="234,-39 234,-57 312,-57 312,-39 234,-39"/>
<text text-anchor="start" x="302" y="-45.2" font-family="Helvetica,sans-Serif" font-size="11.00"> &#160;</text>
<polygon fill="#ffffff" stroke="none" points="312,-39 312,-57 433,-57 433,-39 312,-39"/>
<polygon fill="none" stroke="black" points="312,-39 312,-57 433,-57 433,-39 312,-39"/>
<text text-anchor="start" x="413" y="-45.2" font-family="Helvetica,sans-Serif" font-size="11.00">1 &gt;</text>
<polygon fill="none" stroke="black" stroke-width="2" points="146,-38 146,-300 434,-300 434,-38 146,-38"/>
</a>
</g>
</g>
<!-- dialog_groups&#45;&gt;dialog_tabs -->
<g id="edge1" class="edge"><title>dialog_groups:dialog_tab_id:w&#45;&gt;dialog_tabs:id.type:e</title>
<path fill="none" stroke="black" d="M468.843,-266C457.414,-266 450.156,-266 434,-266"/>
<polygon fill="black" stroke="black" points="475.5,-266 483.5,-269.6 479.5,-266 483.5,-266 483.5,-266 483.5,-266 479.5,-266 483.5,-262.4 475.5,-266 475.5,-266"/>
<ellipse fill="none" stroke="black" cx="472.3" cy="-266" rx="3.2" ry="3.2"/>
</g>
<!-- dialogs -->
<g id="node3" class="node"><title>dialogs</title>
<g id="a_node3"><a xlink:href="../../tables/dialogs.html" xlink:title="dialogs" target="_top">
<polygon fill="#ffffff" stroke="none" points="8,-43 8,-123 96,-123 96,-43 8,-43"/>
<polygon fill="#f5f5f5" stroke="none" points="8,-101 8,-123 96,-123 96,-101 8,-101"/>
<polygon fill="none" stroke="black" points="8,-101 8,-123 96,-123 96,-101 8,-101"/>
<text text-anchor="start" x="13" y="-110.2" font-family="Helvetica,sans-Serif" font-weight="bold" font-size="11.00">dialogs</text>
<text text-anchor="start" x="57" y="-109.2" font-family="Helvetica,sans-Serif" font-size="11.00">[table]</text>
<polygon fill="none" stroke="black" points="8,-79 8,-101 96,-101 96,-79 8,-79"/>
<image xlink:href="../../images/primaryKeys.png" width="11px" height="12px" preserveAspectRatio="xMinYMin meet" x="13" y="-96"/>
<text text-anchor="start" x="28" y="-87.2" font-family="Helvetica,sans-Serif" font-size="11.00">id</text>
<polygon fill="none" stroke="black" points="8,-61 8,-79 96,-79 96,-61 8,-61"/>
<text text-anchor="start" x="11" y="-67.2" font-family="Helvetica,sans-Serif" font-size="11.00">...</text>
<polygon fill="#ffffff" stroke="none" points="8,-43 8,-61 40,-61 40,-43 8,-43"/>
<polygon fill="none" stroke="black" points="8,-43 8,-61 40,-61 40,-43 8,-43"/>
<text text-anchor="start" x="11" y="-49.2" font-family="Helvetica,sans-Serif" font-size="11.00"> &#160;</text>
<polygon fill="#ffffff" stroke="none" points="40,-43 40,-61 63,-61 63,-43 40,-43"/>
<polygon fill="none" stroke="black" points="40,-43 40,-61 63,-61 63,-43 40,-43"/>
<text text-anchor="start" x="53" y="-49.2" font-family="Helvetica,sans-Serif" font-size="11.00"> &#160;</text>
<polygon fill="#ffffff" stroke="none" points="63,-43 63,-61 96,-61 96,-43 63,-43"/>
<polygon fill="none" stroke="black" points="63,-43 63,-61 96,-61 96,-43 63,-43"/>
<text text-anchor="start" x="76" y="-49.2" font-family="Helvetica,sans-Serif" font-size="11.00">2 &gt;</text>
</a>
</g>
</g>
<!-- dialog_tabs&#45;&gt;dialogs -->
<g id="edge2" class="edge"><title>dialog_tabs:dialog_id:w&#45;&gt;dialogs:id:e</title>
<path fill="none" stroke="black" d="M131.491,-90C120.177,-90 112.993,-90 97,-90"/>
<polygon fill="black" stroke="black" points="138,-90.0001 146,-93.6 142,-90 146,-90 146,-90 146,-90 142,-90 146,-86.4 138,-90.0001 138,-90.0001"/>
<ellipse fill="none" stroke="black" cx="134.8" cy="-90.0001" rx="3.2" ry="3.2"/>
</g>
</g>
</svg>
