<?xml version="1.0" encoding="UTF-8" standalone="no"?>
<!DOCTYPE svg PUBLIC "-//W3C//DTD SVG 1.1//EN"
 "http://www.w3.org/Graphics/SVG/1.1/DTD/svg11.dtd">
<!-- Generated by graphviz version 2.38.0 (20140413.2041)
 -->
<!-- Title: twoDegreesRelationshipsDiagram Pages: 1 -->
<svg width="832pt" height="412pt"
 viewBox="0.00 0.00 832.00 412.00" xmlns="http://www.w3.org/2000/svg" xmlns:xlink="http://www.w3.org/1999/xlink">
<g id="graph0" class="graph" transform="scale(1 1) rotate(0) translate(4 408)">
<title>twoDegreesRelationshipsDiagram</title>
<polygon fill="#ffffff" stroke="none" points="-4,4 -4,-408 828,-408 828,4 -4,4"/>
<text text-anchor="middle" x="74.5" y="-7.2" font-family="Helvetica,sans-Serif" font-size="11.00">Generated by SchemaSpy</text>
<!-- dialog_fields -->
<g id="node1" class="node"><title>dialog_fields</title>
<g id="a_node1"><a xlink:href="../../tables/dialog_fields.html" xlink:title="dialog_fields" target="_top">
<polygon fill="#ffffff" stroke="none" points="698,-340 698,-398 816,-398 816,-340 698,-340"/>
<polygon fill="#f5f5f5" stroke="none" points="698,-376 698,-398 816,-398 816,-376 698,-376"/>
<polygon fill="none" stroke="black" points="698,-376 698,-398 816,-398 816,-376 698,-376"/>
<text text-anchor="start" x="703" y="-385.2" font-family="Helvetica,sans-Serif" font-weight="bold" font-size="11.00">dialog_fields</text>
<text text-anchor="start" x="777" y="-384.2" font-family="Helvetica,sans-Serif" font-size="11.00">[table]</text>
<polygon fill="none" stroke="black" points="698,-358 698,-376 816,-376 816,-358 698,-358"/>
<text text-anchor="start" x="701" y="-364.2" font-family="Helvetica,sans-Serif" font-size="11.00">...</text>
<polygon fill="#ffffff" stroke="none" points="698,-340 698,-358 755,-358 755,-340 698,-340"/>
<polygon fill="none" stroke="black" points="698,-340 698,-358 755,-358 755,-340 698,-340"/>
<text text-anchor="start" x="701" y="-346.2" font-family="Helvetica,sans-Serif" font-size="11.00">&lt; 1</text>
<polygon fill="#ffffff" stroke="none" points="755,-340 755,-358 785,-358 785,-340 755,-340"/>
<polygon fill="none" stroke="black" points="755,-340 755,-358 785,-358 785,-340 755,-340"/>
<text text-anchor="start" x="775" y="-346.2" font-family="Helvetica,sans-Serif" font-size="11.00"> &#160;</text>
<polygon fill="#ffffff" stroke="none" points="785,-340 785,-358 816,-358 816,-340 785,-340"/>
<polygon fill="none" stroke="black" points="785,-340 785,-358 816,-358 816,-340 785,-340"/>
<text text-anchor="start" x="806" y="-346.2" font-family="Helvetica,sans-Serif" font-size="11.00"> &#160;</text>
</a>
</g>
</g>
<!-- dialog_groups -->
<g id="node2" class="node"><title>dialog_groups</title>
<g id="a_node2"><a xlink:href="../../tables/dialog_groups.html" xlink:title="dialog_groups" target="_top">
<polygon fill="#ffffff" stroke="none" points="484,-298 484,-400 649,-400 649,-298 484,-298"/>
<polygon fill="#f5f5f5" stroke="none" points="484.5,-378 484.5,-400 649.5,-400 649.5,-378 484.5,-378"/>
<polygon fill="none" stroke="black" points="484.5,-378 484.5,-400 649.5,-400 649.5,-378 484.5,-378"/>
<text text-anchor="start" x="489.5" y="-387.2" font-family="Helvetica,sans-Serif" font-weight="bold" font-size="11.00">dialog_groups</text>
<text text-anchor="start" x="610.5" y="-386.2" font-family="Helvetica,sans-Serif" font-size="11.00">[table]</text>
<polygon fill="none" stroke="black" points="484.5,-356 484.5,-378 649.5,-378 649.5,-356 484.5,-356"/>
<image xlink:href="../../images/primaryKeys.png" width="11px" height="12px" preserveAspectRatio="xMinYMin meet" x="489.5" y="-373"/>
<text text-anchor="start" x="504.5" y="-364.2" font-family="Helvetica,sans-Serif" font-size="11.00">id</text>
<polygon fill="none" stroke="black" points="484.5,-334 484.5,-356 649.5,-356 649.5,-334 484.5,-334"/>
<image xlink:href="../../images/foreignKeys.png" width="11px" height="12px" preserveAspectRatio="xMinYMin meet" x="489.5" y="-351"/>
<text text-anchor="start" x="504.5" y="-342.2" font-family="Helvetica,sans-Serif" font-size="11.00">dialog_tab_id</text>
<polygon fill="none" stroke="black" points="484.5,-316 484.5,-334 649.5,-334 649.5,-316 484.5,-316"/>
<text text-anchor="start" x="487.5" y="-322.2" font-family="Helvetica,sans-Serif" font-size="11.00">...</text>
<polygon fill="#ffffff" stroke="none" points="484.5,-298 484.5,-316 560.5,-316 560.5,-298 484.5,-298"/>
<polygon fill="none" stroke="black" points="484.5,-298 484.5,-316 560.5,-316 560.5,-298 484.5,-298"/>
<text text-anchor="start" x="487.5" y="-304.2" font-family="Helvetica,sans-Serif" font-size="11.00">&lt; 1</text>
<polygon fill="#ffffff" stroke="none" points="560.5,-298 560.5,-316 599.5,-316 599.5,-298 560.5,-298"/>
<polygon fill="none" stroke="black" points="560.5,-298 560.5,-316 599.5,-316 599.5,-298 560.5,-298"/>
<text text-anchor="start" x="589.5" y="-304.2" font-family="Helvetica,sans-Serif" font-size="11.00"> &#160;</text>
<polygon fill="#ffffff" stroke="none" points="599.5,-298 599.5,-316 649.5,-316 649.5,-298 599.5,-298"/>
<polygon fill="none" stroke="black" points="599.5,-298 599.5,-316 649.5,-316 649.5,-298 599.5,-298"/>
<text text-anchor="start" x="629.5" y="-304.2" font-family="Helvetica,sans-Serif" font-size="11.00">1 &gt;</text>
</a>
</g>
</g>
<!-- dialog_fields&#45;&gt;dialog_groups -->
<g id="edge1" class="edge"><title>dialog_fields:elipses:w&#45;&gt;dialog_groups:id:e</title>
<path fill="none" stroke="black" d="M682.551,-367C672.201,-367 665.354,-367 650.5,-367"/>
<polygon fill="black" stroke="black" points="689,-367 697,-370.6 693,-367 697,-367 697,-367 697,-367 693,-367 697,-363.4 689,-367 689,-367"/>
<ellipse fill="none" stroke="black" cx="685.8" cy="-367" rx="3.2" ry="3.2"/>
</g>
<!-- dialog_tabs -->
<g id="node3" class="node"><title>dialog_tabs</title>
<g id="a_node3"><a xlink:href="../../tables/dialog_tabs.html" xlink:title="dialog_tabs" target="_top">
<polygon fill="#ffffff" stroke="none" points="145,-116 145,-380 435,-380 435,-116 145,-116"/>
<polygon fill="#f5f5f5" stroke="none" points="147,-356 147,-378 433,-378 433,-356 147,-356"/>
<polygon fill="none" stroke="black" points="147,-356 147,-378 433,-378 433,-356 147,-356"/>
<text text-anchor="start" x="152" y="-365.2" font-family="Helvetica,sans-Serif" font-weight="bold" font-size="11.00">dialog_tabs</text>
<text text-anchor="start" x="394" y="-364.2" font-family="Helvetica,sans-Serif" font-size="11.00">[table]</text>
<polygon fill="none" stroke="black" points="147,-334 147,-356 312,-356 312,-334 147,-334"/>
<image xlink:href="../../images/primaryKeys.png" width="11px" height="12px" preserveAspectRatio="xMinYMin meet" x="152" y="-351"/>
<text text-anchor="start" x="167" y="-342.2" font-family="Helvetica,sans-Serif" font-size="11.00">id</text>
<polygon fill="none" stroke="black" points="312,-334 312,-356 433,-356 433,-334 312,-334"/>
<text text-anchor="start" x="315" y="-342.2" font-family="Helvetica,sans-Serif" font-size="11.00">bigserial[19]</text>
<polygon fill="none" stroke="black" points="147,-312 147,-334 312,-334 312,-312 147,-312"/>
<text text-anchor="start" x="167" y="-320.2" font-family="Helvetica,sans-Serif" font-size="11.00">description</text>
<polygon fill="none" stroke="black" points="312,-312 312,-334 433,-334 433,-312 312,-312"/>
<text text-anchor="start" x="315" y="-320.2" font-family="Helvetica,sans-Serif" font-size="11.00">varchar[2147483647]</text>
<polygon fill="none" stroke="black" points="147,-290 147,-312 312,-312 312,-290 147,-290"/>
<text text-anchor="start" x="167" y="-298.2" font-family="Helvetica,sans-Serif" font-size="11.00">display</text>
<polygon fill="none" stroke="black" points="312,-290 312,-312 433,-312 433,-290 312,-290"/>
<text text-anchor="start" x="315" y="-298.2" font-family="Helvetica,sans-Serif" font-size="11.00">varchar[2147483647]</text>
<polygon fill="none" stroke="black" points="147,-268 147,-290 312,-290 312,-268 147,-268"/>
<text text-anchor="start" x="167" y="-276.2" font-family="Helvetica,sans-Serif" font-size="11.00">created_at</text>
<polygon fill="none" stroke="black" points="312,-268 312,-290 433,-290 433,-268 312,-268"/>
<text text-anchor="start" x="315" y="-276.2" font-family="Helvetica,sans-Serif" font-size="11.00">timestamp[29,6]</text>
<polygon fill="none" stroke="black" points="147,-246 147,-268 312,-268 312,-246 147,-246"/>
<text text-anchor="start" x="167" y="-254.2" font-family="Helvetica,sans-Serif" font-size="11.00">updated_at</text>
<polygon fill="none" stroke="black" points="312,-246 312,-268 433,-268 433,-246 312,-246"/>
<text text-anchor="start" x="315" y="-254.2" font-family="Helvetica,sans-Serif" font-size="11.00">timestamp[29,6]</text>
<polygon fill="none" stroke="black" points="147,-224 147,-246 312,-246 312,-224 147,-224"/>
<text text-anchor="start" x="167" y="-232.2" font-family="Helvetica,sans-Serif" font-size="11.00">label</text>
<polygon fill="none" stroke="black" points="312,-224 312,-246 433,-246 433,-224 312,-224"/>
<text text-anchor="start" x="315" y="-232.2" font-family="Helvetica,sans-Serif" font-size="11.00">varchar[2147483647]</text>
<polygon fill="none" stroke="black" points="147,-202 147,-224 312,-224 312,-202 147,-202"/>
<text text-anchor="start" x="167" y="-210.2" font-family="Helvetica,sans-Serif" font-size="11.00">display_method</text>
<polygon fill="none" stroke="black" points="312,-202 312,-224 433,-224 433,-202 312,-202"/>
<text text-anchor="start" x="315" y="-210.2" font-family="Helvetica,sans-Serif" font-size="11.00">varchar[2147483647]</text>
<polygon fill="none" stroke="black" points="147,-180 147,-202 312,-202 312,-180 147,-180"/>
<text text-anchor="start" x="167" y="-188.2" font-family="Helvetica,sans-Serif" font-size="11.00">display_method_options</text>
<polygon fill="none" stroke="black" points="312,-180 312,-202 433,-202 433,-180 312,-180"/>
<text text-anchor="start" x="315" y="-188.2" font-family="Helvetica,sans-Serif" font-size="11.00">text[2147483647]</text>
<polygon fill="none" stroke="black" points="147,-158 147,-180 312,-180 312,-158 147,-158"/>
<image xlink:href="../../images/foreignKeys.png" width="11px" height="12px" preserveAspectRatio="xMinYMin meet" x="152" y="-175"/>
<text text-anchor="start" x="167" y="-166.2" font-family="Helvetica,sans-Serif" font-size="11.00">dialog_id</text>
<polygon fill="none" stroke="black" points="312,-158 312,-180 433,-180 433,-158 312,-158"/>
<text text-anchor="start" x="315" y="-166.2" font-family="Helvetica,sans-Serif" font-size="11.00">int8[19]</text>
<polygon fill="none" stroke="black" points="147,-136 147,-158 312,-158 312,-136 147,-136"/>
<text text-anchor="start" x="167" y="-144.2" font-family="Helvetica,sans-Serif" font-size="11.00">position</text>
<polygon fill="none" stroke="black" points="312,-136 312,-158 433,-158 433,-136 312,-136"/>
<text text-anchor="start" x="315" y="-144.2" font-family="Helvetica,sans-Serif" font-size="11.00">int4[10]</text>
<polygon fill="#ffffff" stroke="none" points="147,-118 147,-136 234,-136 234,-118 147,-118"/>
<polygon fill="none" stroke="black" points="147,-118 147,-136 234,-136 234,-118 147,-118"/>
<text text-anchor="start" x="150" y="-124.2" font-family="Helvetica,sans-Serif" font-size="11.00">&lt; 1</text>
<polygon fill="#ffffff" stroke="none" points="234,-118 234,-136 312,-136 312,-118 234,-118"/>
<polygon fill="none" stroke="black" points="234,-118 234,-136 312,-136 312,-118 234,-118"/>
<text text-anchor="start" x="302" y="-124.2" font-family="Helvetica,sans-Serif" font-size="11.00"> &#160;</text>
<polygon fill="#ffffff" stroke="none" points="312,-118 312,-136 433,-136 433,-118 312,-118"/>
<polygon fill="none" stroke="black" points="312,-118 312,-136 433,-136 433,-118 312,-118"/>
<text text-anchor="start" x="413" y="-124.2" font-family="Helvetica,sans-Serif" font-size="11.00">1 &gt;</text>
<polygon fill="none" stroke="black" stroke-width="2" points="146,-117 146,-379 434,-379 434,-117 146,-117"/>
</a>
</g>
</g>
<!-- dialog_groups&#45;&gt;dialog_tabs -->
<g id="edge2" class="edge"><title>dialog_groups:dialog_tab_id:w&#45;&gt;dialog_tabs:id.type:e</title>
<path fill="none" stroke="black" d="M468.843,-345C457.414,-345 450.156,-345 434,-345"/>
<polygon fill="black" stroke="black" points="475.5,-345 483.5,-348.6 479.5,-345 483.5,-345 483.5,-345 483.5,-345 479.5,-345 483.5,-341.4 475.5,-345 475.5,-345"/>
<ellipse fill="none" stroke="black" cx="472.3" cy="-345" rx="3.2" ry="3.2"/>
</g>
<!-- dialogs -->
<g id="node4" class="node"><title>dialogs</title>
<g id="a_node4"><a xlink:href="../../tables/dialogs.html" xlink:title="dialogs" target="_top">
<polygon fill="#ffffff" stroke="none" points="8,-69 8,-149 96,-149 96,-69 8,-69"/>
<polygon fill="#f5f5f5" stroke="none" points="8,-127 8,-149 96,-149 96,-127 8,-127"/>
<polygon fill="none" stroke="black" points="8,-127 8,-149 96,-149 96,-127 8,-127"/>
<text text-anchor="start" x="13" y="-136.2" font-family="Helvetica,sans-Serif" font-weight="bold" font-size="11.00">dialogs</text>
<text text-anchor="start" x="57" y="-135.2" font-family="Helvetica,sans-Serif" font-size="11.00">[table]</text>
<polygon fill="none" stroke="black" points="8,-105 8,-127 96,-127 96,-105 8,-105"/>
<image xlink:href="../../images/primaryKeys.png" width="11px" height="12px" preserveAspectRatio="xMinYMin meet" x="13" y="-122"/>
<text text-anchor="start" x="28" y="-113.2" font-family="Helvetica,sans-Serif" font-size="11.00">id</text>
<polygon fill="none" stroke="black" points="8,-87 8,-105 96,-105 96,-87 8,-87"/>
<text text-anchor="start" x="11" y="-93.2" font-family="Helvetica,sans-Serif" font-size="11.00">...</text>
<polygon fill="#ffffff" stroke="none" points="8,-69 8,-87 40,-87 40,-69 8,-69"/>
<polygon fill="none" stroke="black" points="8,-69 8,-87 40,-87 40,-69 8,-69"/>
<text text-anchor="start" x="11" y="-75.2" font-family="Helvetica,sans-Serif" font-size="11.00"> &#160;</text>
<polygon fill="#ffffff" stroke="none" points="40,-69 40,-87 63,-87 63,-69 40,-69"/>
<polygon fill="none" stroke="black" points="40,-69 40,-87 63,-87 63,-69 40,-69"/>
<text text-anchor="start" x="53" y="-75.2" font-family="Helvetica,sans-Serif" font-size="11.00"> &#160;</text>
<polygon fill="#ffffff" stroke="none" points="63,-69 63,-87 96,-87 96,-69 63,-69"/>
<polygon fill="none" stroke="black" points="63,-69 63,-87 96,-87 96,-69 63,-69"/>
<text text-anchor="start" x="76" y="-75.2" font-family="Helvetica,sans-Serif" font-size="11.00">2 &gt;</text>
</a>
</g>
</g>
<!-- dialog_tabs&#45;&gt;dialogs -->
<g id="edge3" class="edge"><title>dialog_tabs:dialog_id:w&#45;&gt;dialogs:id:e</title>
<path fill="none" stroke="black" d="M132.315,-164.109C117.944,-150.988 123.065,-116 97,-116"/>
<polygon fill="black" stroke="black" points="138.467,-166.308 144.788,-172.39 142.233,-167.654 146,-169 146,-169 146,-169 142.233,-167.654 147.212,-165.61 138.467,-166.308 138.467,-166.308"/>
<ellipse fill="none" stroke="black" cx="135.453" cy="-165.231" rx="3.20001" ry="3.20001"/>
</g>
<!-- resource_actions -->
<g id="node5" class="node"><title>resource_actions</title>
<g id="a_node5"><a xlink:href="../../tables/resource_actions.html" xlink:title="resource_actions" target="_top">
<polygon fill="#ffffff" stroke="none" points="218,-37 218,-95 362,-95 362,-37 218,-37"/>
<polygon fill="#f5f5f5" stroke="none" points="218,-73 218,-95 362,-95 362,-73 218,-73"/>
<polygon fill="none" stroke="black" points="218,-73 218,-95 362,-95 362,-73 218,-73"/>
<text text-anchor="start" x="223" y="-82.2" font-family="Helvetica,sans-Serif" font-weight="bold" font-size="11.00">resource_actions</text>
<text text-anchor="start" x="323" y="-81.2" font-family="Helvetica,sans-Serif" font-size="11.00">[table]</text>
<polygon fill="none" stroke="black" points="218,-55 218,-73 362,-73 362,-55 218,-55"/>
<text text-anchor="start" x="221" y="-61.2" font-family="Helvetica,sans-Serif" font-size="11.00">...</text>
<polygon fill="#ffffff" stroke="none" points="218,-37 218,-55 288,-55 288,-37 218,-37"/>
<polygon fill="none" stroke="black" points="218,-37 218,-55 288,-55 288,-37 218,-37"/>
<text text-anchor="start" x="221" y="-43.2" font-family="Helvetica,sans-Serif" font-size="11.00">&lt; 1</text>
<polygon fill="#ffffff" stroke="none" points="288,-37 288,-55 325,-55 325,-37 288,-37"/>
<polygon fill="none" stroke="black" points="288,-37 288,-55 325,-55 325,-37 288,-37"/>
<text text-anchor="start" x="315" y="-43.2" font-family="Helvetica,sans-Serif" font-size="11.00"> &#160;</text>
<polygon fill="#ffffff" stroke="none" points="325,-37 325,-55 362,-55 362,-37 325,-37"/>
<polygon fill="none" stroke="black" points="325,-37 325,-55 362,-55 362,-37 325,-37"/>
<text text-anchor="start" x="352" y="-43.2" font-family="Helvetica,sans-Serif" font-size="11.00"> &#160;</text>
</a>
</g>
</g>
<!-- resource_actions&#45;&gt;dialogs -->
<g id="edge4" class="edge"><title>resource_actions:elipses:w&#45;&gt;dialogs:id:e</title>
<path fill="none" stroke="black" d="M202.54,-66.9447C170.737,-77.945 121.862,-116 97,-116"/>
<polygon fill="black" stroke="black" points="209.161,-65.5965 217.718,-67.5276 213.08,-64.7983 217,-64 217,-64 217,-64 213.08,-64.7983 216.282,-60.4724 209.161,-65.5965 209.161,-65.5965"/>
<ellipse fill="none" stroke="black" cx="206.025" cy="-66.2351" rx="3.2" ry="3.2"/>
</g>
</g>
</svg>
