<?xml version="1.0" encoding="UTF-8" standalone="no"?>
<!DOCTYPE svg PUBLIC "-//W3C//DTD SVG 1.1//EN"
 "http://www.w3.org/Graphics/SVG/1.1/DTD/svg11.dtd">
<!-- Generated by graphviz version 2.38.0 (20140413.2041)
 -->
<!-- Title: twoDegreesRelationshipsDiagram Pages: 1 -->
<svg width="654pt" height="328pt"
 viewBox="0.00 0.00 654.00 328.00" xmlns="http://www.w3.org/2000/svg" xmlns:xlink="http://www.w3.org/1999/xlink">
<g id="graph0" class="graph" transform="scale(1 1) rotate(0) translate(4 324)">
<title>twoDegreesRelationshipsDiagram</title>
<polygon fill="#ffffff" stroke="none" points="-4,4 -4,-324 650,-324 650,4 -4,4"/>
<text text-anchor="middle" x="74.5" y="-7.2" font-family="Helvetica,sans-Serif" font-size="11.00">Generated by SchemaSpy</text>
<!-- dialog_groups -->
<g id="node1" class="node"><title>dialog_groups</title>
<g id="a_node1"><a xlink:href="../../tables/dialog_groups.html" xlink:title="dialog_groups" target="_top">
<polygon fill="#ffffff" stroke="none" points="512,-256 512,-314 638,-314 638,-256 512,-256"/>
<polygon fill="#f5f5f5" stroke="none" points="512,-292 512,-314 638,-314 638,-292 512,-292"/>
<polygon fill="none" stroke="black" points="512,-292 512,-314 638,-314 638,-292 512,-292"/>
<text text-anchor="start" x="517" y="-301.2" font-family="Helvetica,sans-Serif" font-weight="bold" font-size="11.00">dialog_groups</text>
<text text-anchor="start" x="599" y="-300.2" font-family="Helvetica,sans-Serif" font-size="11.00">[table]</text>
<polygon fill="none" stroke="black" points="512,-274 512,-292 638,-292 638,-274 512,-274"/>
<text text-anchor="start" x="515" y="-280.2" font-family="Helvetica,sans-Serif" font-size="11.00">...</text>
<polygon fill="#ffffff" stroke="none" points="512,-256 512,-274 568,-274 568,-256 512,-256"/>
<polygon fill="none" stroke="black" points="512,-256 512,-274 568,-274 568,-256 512,-256"/>
<text text-anchor="start" x="515" y="-262.2" font-family="Helvetica,sans-Serif" font-size="11.00">&lt; 1</text>
<polygon fill="#ffffff" stroke="none" points="568,-256 568,-274 598,-274 598,-256 568,-256"/>
<polygon fill="none" stroke="black" points="568,-256 568,-274 598,-274 598,-256 568,-256"/>
<text text-anchor="start" x="588" y="-262.2" font-family="Helvetica,sans-Serif" font-size="11.00"> &#160;</text>
<polygon fill="#ffffff" stroke="none" points="598,-256 598,-274 638,-274 638,-256 598,-256"/>
<polygon fill="none" stroke="black" points="598,-256 598,-274 638,-274 638,-256 598,-256"/>
<text text-anchor="start" x="618" y="-262.2" font-family="Helvetica,sans-Serif" font-size="11.00">1 &gt;</text>
</a>
</g>
</g>
<!-- dialog_tabs -->
<g id="node2" class="node"><title>dialog_tabs</title>
<g id="a_node2"><a xlink:href="../../tables/dialog_tabs.html" xlink:title="dialog_tabs" target="_top">
<polygon fill="#ffffff" stroke="none" points="284,-214 284,-316 449,-316 449,-214 284,-214"/>
<polygon fill="#f5f5f5" stroke="none" points="284.5,-294 284.5,-316 449.5,-316 449.5,-294 284.5,-294"/>
<polygon fill="none" stroke="black" points="284.5,-294 284.5,-316 449.5,-316 449.5,-294 284.5,-294"/>
<text text-anchor="start" x="289.5" y="-303.2" font-family="Helvetica,sans-Serif" font-weight="bold" font-size="11.00">dialog_tabs</text>
<text text-anchor="start" x="410.5" y="-302.2" font-family="Helvetica,sans-Serif" font-size="11.00">[table]</text>
<polygon fill="none" stroke="black" points="284.5,-272 284.5,-294 449.5,-294 449.5,-272 284.5,-272"/>
<image xlink:href="../../images/primaryKeys.png" width="11px" height="12px" preserveAspectRatio="xMinYMin meet" x="289.5" y="-289"/>
<text text-anchor="start" x="304.5" y="-280.2" font-family="Helvetica,sans-Serif" font-size="11.00">id</text>
<polygon fill="none" stroke="black" points="284.5,-250 284.5,-272 449.5,-272 449.5,-250 284.5,-250"/>
<image xlink:href="../../images/foreignKeys.png" width="11px" height="12px" preserveAspectRatio="xMinYMin meet" x="289.5" y="-267"/>
<text text-anchor="start" x="304.5" y="-258.2" font-family="Helvetica,sans-Serif" font-size="11.00">dialog_id</text>
<polygon fill="none" stroke="black" points="284.5,-232 284.5,-250 449.5,-250 449.5,-232 284.5,-232"/>
<text text-anchor="start" x="287.5" y="-238.2" font-family="Helvetica,sans-Serif" font-size="11.00">...</text>
<polygon fill="#ffffff" stroke="none" points="284.5,-214 284.5,-232 360.5,-232 360.5,-214 284.5,-214"/>
<polygon fill="none" stroke="black" points="284.5,-214 284.5,-232 360.5,-232 360.5,-214 284.5,-214"/>
<text text-anchor="start" x="287.5" y="-220.2" font-family="Helvetica,sans-Serif" font-size="11.00">&lt; 1</text>
<polygon fill="#ffffff" stroke="none" points="360.5,-214 360.5,-232 399.5,-232 399.5,-214 360.5,-214"/>
<polygon fill="none" stroke="black" points="360.5,-214 360.5,-232 399.5,-232 399.5,-214 360.5,-214"/>
<text text-anchor="start" x="389.5" y="-220.2" font-family="Helvetica,sans-Serif" font-size="11.00"> &#160;</text>
<polygon fill="#ffffff" stroke="none" points="399.5,-214 399.5,-232 449.5,-232 449.5,-214 399.5,-214"/>
<polygon fill="none" stroke="black" points="399.5,-214 399.5,-232 449.5,-232 449.5,-214 399.5,-214"/>
<text text-anchor="start" x="429.5" y="-220.2" font-family="Helvetica,sans-Serif" font-size="11.00">1 &gt;</text>
</a>
</g>
</g>
<!-- dialog_groups&#45;&gt;dialog_tabs -->
<g id="edge1" class="edge"><title>dialog_groups:elipses:w&#45;&gt;dialog_tabs:id:e</title>
<path fill="none" stroke="black" d="M496.298,-283C480.378,-283 471.717,-283 450.5,-283"/>
<polygon fill="black" stroke="black" points="503,-283 511,-286.6 507,-283 511,-283 511,-283 511,-283 507,-283 511,-279.4 503,-283 503,-283"/>
<ellipse fill="none" stroke="black" cx="499.8" cy="-283" rx="3.2" ry="3.2"/>
</g>
<!-- dialogs -->
<g id="node3" class="node"><title>dialogs</title>
<g id="a_node3"><a xlink:href="../../tables/dialogs.html" xlink:title="dialogs" target="_top">
<polygon fill="#ffffff" stroke="none" points="8,-37 8,-235 221,-235 221,-37 8,-37"/>
<polygon fill="#f5f5f5" stroke="none" points="10.5,-211 10.5,-233 219.5,-233 219.5,-211 10.5,-211"/>
<polygon fill="none" stroke="black" points="10.5,-211 10.5,-233 219.5,-233 219.5,-211 10.5,-211"/>
<text text-anchor="start" x="15.5" y="-220.2" font-family="Helvetica,sans-Serif" font-weight="bold" font-size="11.00">dialogs</text>
<text text-anchor="start" x="180.5" y="-219.2" font-family="Helvetica,sans-Serif" font-size="11.00">[table]</text>
<polygon fill="none" stroke="black" points="10.5,-189 10.5,-211 98.5,-211 98.5,-189 10.5,-189"/>
<image xlink:href="../../images/primaryKeys.png" width="11px" height="12px" preserveAspectRatio="xMinYMin meet" x="15.5" y="-206"/>
<text text-anchor="start" x="30.5" y="-197.2" font-family="Helvetica,sans-Serif" font-size="11.00">id</text>
<polygon fill="none" stroke="black" points="98.5,-189 98.5,-211 219.5,-211 219.5,-189 98.5,-189"/>
<text text-anchor="start" x="101.5" y="-197.2" font-family="Helvetica,sans-Serif" font-size="11.00">bigserial[19]</text>
<polygon fill="none" stroke="black" points="10.5,-167 10.5,-189 98.5,-189 98.5,-167 10.5,-167"/>
<text text-anchor="start" x="30.5" y="-175.2" font-family="Helvetica,sans-Serif" font-size="11.00">description</text>
<polygon fill="none" stroke="black" points="98.5,-167 98.5,-189 219.5,-189 219.5,-167 98.5,-167"/>
<text text-anchor="start" x="101.5" y="-175.2" font-family="Helvetica,sans-Serif" font-size="11.00">varchar[2147483647]</text>
<polygon fill="none" stroke="black" points="10.5,-145 10.5,-167 98.5,-167 98.5,-145 10.5,-145"/>
<text text-anchor="start" x="30.5" y="-153.2" font-family="Helvetica,sans-Serif" font-size="11.00">buttons</text>
<polygon fill="none" stroke="black" points="98.5,-145 98.5,-167 219.5,-167 219.5,-145 98.5,-145"/>
<text text-anchor="start" x="101.5" y="-153.2" font-family="Helvetica,sans-Serif" font-size="11.00">varchar[2147483647]</text>
<polygon fill="none" stroke="black" points="10.5,-123 10.5,-145 98.5,-145 98.5,-123 10.5,-123"/>
<text text-anchor="start" x="30.5" y="-131.2" font-family="Helvetica,sans-Serif" font-size="11.00">created_at</text>
<polygon fill="none" stroke="black" points="98.5,-123 98.5,-145 219.5,-145 219.5,-123 98.5,-123"/>
<text text-anchor="start" x="101.5" y="-131.2" font-family="Helvetica,sans-Serif" font-size="11.00">timestamp[29,6]</text>
<polygon fill="none" stroke="black" points="10.5,-101 10.5,-123 98.5,-123 98.5,-101 10.5,-101"/>
<text text-anchor="start" x="30.5" y="-109.2" font-family="Helvetica,sans-Serif" font-size="11.00">updated_at</text>
<polygon fill="none" stroke="black" points="98.5,-101 98.5,-123 219.5,-123 219.5,-101 98.5,-101"/>
<text text-anchor="start" x="101.5" y="-109.2" font-family="Helvetica,sans-Serif" font-size="11.00">timestamp[29,6]</text>
<polygon fill="none" stroke="black" points="10.5,-79 10.5,-101 98.5,-101 98.5,-79 10.5,-79"/>
<text text-anchor="start" x="30.5" y="-87.2" font-family="Helvetica,sans-Serif" font-size="11.00">label</text>
<polygon fill="none" stroke="black" points="98.5,-79 98.5,-101 219.5,-101 219.5,-79 98.5,-79"/>
<text text-anchor="start" x="101.5" y="-87.2" font-family="Helvetica,sans-Serif" font-size="11.00">varchar[2147483647]</text>
<polygon fill="none" stroke="black" points="10.5,-57 10.5,-79 98.5,-79 98.5,-57 10.5,-57"/>
<text text-anchor="start" x="30.5" y="-65.2" font-family="Helvetica,sans-Serif" font-size="11.00">system</text>
<polygon fill="none" stroke="black" points="98.5,-57 98.5,-79 219.5,-79 219.5,-57 98.5,-57"/>
<text text-anchor="start" x="101.5" y="-65.2" font-family="Helvetica,sans-Serif" font-size="11.00">bool[1]</text>
<polygon fill="#ffffff" stroke="none" points="10.5,-39 10.5,-57 59.5,-57 59.5,-39 10.5,-39"/>
<polygon fill="none" stroke="black" points="10.5,-39 10.5,-57 59.5,-57 59.5,-39 10.5,-39"/>
<text text-anchor="start" x="13.5" y="-45.2" font-family="Helvetica,sans-Serif" font-size="11.00">&lt; 0</text>
<polygon fill="#ffffff" stroke="none" points="59.5,-39 59.5,-57 98.5,-57 98.5,-39 59.5,-39"/>
<polygon fill="none" stroke="black" points="59.5,-39 59.5,-57 98.5,-57 98.5,-39 59.5,-39"/>
<text text-anchor="start" x="88.5" y="-45.2" font-family="Helvetica,sans-Serif" font-size="11.00"> &#160;</text>
<polygon fill="#ffffff" stroke="none" points="98.5,-39 98.5,-57 219.5,-57 219.5,-39 98.5,-39"/>
<polygon fill="none" stroke="black" points="98.5,-39 98.5,-57 219.5,-57 219.5,-39 98.5,-39"/>
<text text-anchor="start" x="199.5" y="-45.2" font-family="Helvetica,sans-Serif" font-size="11.00">2 &gt;</text>
<polygon fill="none" stroke="black" stroke-width="2" points="9,-38 9,-234 220,-234 220,-38 9,-38"/>
</a>
</g>
</g>
<!-- dialog_tabs&#45;&gt;dialogs -->
<g id="edge2" class="edge"><title>dialog_tabs:dialog_id:w&#45;&gt;dialogs:id.type:e</title>
<path fill="none" stroke="black" d="M269.356,-257.367C247.775,-244.235 253.689,-200 220.5,-200"/>
<polygon fill="black" stroke="black" points="275.752,-259.01 282.604,-264.487 279.626,-260.005 283.5,-261 283.5,-261 283.5,-261 279.626,-260.005 284.396,-257.513 275.752,-259.01 275.752,-259.01"/>
<ellipse fill="none" stroke="black" cx="272.652" cy="-258.214" rx="3.2" ry="3.2"/>
</g>
<!-- resource_actions -->
<g id="node4" class="node"><title>resource_actions</title>
<g id="a_node4"><a xlink:href="../../tables/resource_actions.html" xlink:title="resource_actions" target="_top">
<polygon fill="#ffffff" stroke="none" points="270,-91 270,-193 463,-193 463,-91 270,-91"/>
<polygon fill="#f5f5f5" stroke="none" points="270.5,-171 270.5,-193 463.5,-193 463.5,-171 270.5,-171"/>
<polygon fill="none" stroke="black" points="270.5,-171 270.5,-193 463.5,-193 463.5,-171 270.5,-171"/>
<text text-anchor="start" x="275.5" y="-180.2" font-family="Helvetica,sans-Serif" font-weight="bold" font-size="11.00">resource_actions</text>
<text text-anchor="start" x="424.5" y="-179.2" font-family="Helvetica,sans-Serif" font-size="11.00">[table]</text>
<polygon fill="none" stroke="black" points="270.5,-149 270.5,-171 463.5,-171 463.5,-149 270.5,-149"/>
<image xlink:href="../../images/primaryKeys.png" width="11px" height="12px" preserveAspectRatio="xMinYMin meet" x="275.5" y="-166"/>
<text text-anchor="start" x="290.5" y="-157.2" font-family="Helvetica,sans-Serif" font-size="11.00">id</text>
<polygon fill="none" stroke="black" points="270.5,-127 270.5,-149 463.5,-149 463.5,-127 270.5,-127"/>
<image xlink:href="../../images/foreignKeys.png" width="11px" height="12px" preserveAspectRatio="xMinYMin meet" x="275.5" y="-144"/>
<text text-anchor="start" x="290.5" y="-135.2" font-family="Helvetica,sans-Serif" font-size="11.00">dialog_id</text>
<polygon fill="none" stroke="black" points="270.5,-109 270.5,-127 463.5,-127 463.5,-109 270.5,-109"/>
<text text-anchor="start" x="273.5" y="-115.2" font-family="Helvetica,sans-Serif" font-size="11.00">...</text>
<polygon fill="#ffffff" stroke="none" points="270.5,-91 270.5,-109 365.5,-109 365.5,-91 270.5,-91"/>
<polygon fill="none" stroke="black" points="270.5,-91 270.5,-109 365.5,-109 365.5,-91 270.5,-91"/>
<text text-anchor="start" x="273.5" y="-97.2" font-family="Helvetica,sans-Serif" font-size="11.00">&lt; 1</text>
<polygon fill="#ffffff" stroke="none" points="365.5,-91 365.5,-109 414.5,-109 414.5,-91 365.5,-91"/>
<polygon fill="none" stroke="black" points="365.5,-91 365.5,-109 414.5,-109 414.5,-91 365.5,-91"/>
<text text-anchor="start" x="404.5" y="-97.2" font-family="Helvetica,sans-Serif" font-size="11.00"> &#160;</text>
<polygon fill="#ffffff" stroke="none" points="414.5,-91 414.5,-109 463.5,-109 463.5,-91 414.5,-91"/>
<polygon fill="none" stroke="black" points="414.5,-91 414.5,-109 463.5,-109 463.5,-91 414.5,-91"/>
<text text-anchor="start" x="453.5" y="-97.2" font-family="Helvetica,sans-Serif" font-size="11.00"> &#160;</text>
</a>
</g>
</g>
<!-- resource_actions&#45;&gt;dialogs -->
<g id="edge3" class="edge"><title>resource_actions:dialog_id:w&#45;&gt;dialogs:id.type:e</title>
<path fill="none" stroke="black" d="M255.813,-142.865C240.015,-157.481 249.586,-200 220.5,-200"/>
<polygon fill="black" stroke="black" points="261.962,-140.679 270.706,-141.392 265.731,-139.34 269.5,-138 269.5,-138 269.5,-138 265.731,-139.34 268.294,-134.608 261.962,-140.679 261.962,-140.679"/>
<ellipse fill="none" stroke="black" cx="258.947" cy="-141.751" rx="3.20001" ry="3.20001"/>
</g>
</g>
</svg>
