<?xml version="1.0" encoding="UTF-8" standalone="no"?>
<!DOCTYPE svg PUBLIC "-//W3C//DTD SVG 1.1//EN"
 "http://www.w3.org/Graphics/SVG/1.1/DTD/svg11.dtd">
<!-- Generated by graphviz version 2.38.0 (20140413.2041)
 -->
<!-- Title: twoDegreesRelationshipsDiagram Pages: 1 -->
<svg width="1195pt" height="615pt"
 viewBox="0.00 0.00 1195.00 615.00" xmlns="http://www.w3.org/2000/svg" xmlns:xlink="http://www.w3.org/1999/xlink">
<g id="graph0" class="graph" transform="scale(1 1) rotate(0) translate(4 611)">
<title>twoDegreesRelationshipsDiagram</title>
<polygon fill="#ffffff" stroke="none" points="-4,4 -4,-611 1191,-611 1191,4 -4,4"/>
<text text-anchor="middle" x="74.5" y="-7.2" font-family="Helvetica,sans-Serif" font-size="11.00">Generated by SchemaSpy</text>
<!-- configuration_profiles -->
<g id="node1" class="node"><title>configuration_profiles</title>
<g id="a_node1"><a xlink:href="../../tables/configuration_profiles.html" xlink:title="configuration_profiles" target="_top">
<polygon fill="#ffffff" stroke="none" points="266,-400 266,-458 438,-458 438,-400 266,-400"/>
<polygon fill="#f5f5f5" stroke="none" points="266,-436 266,-458 438,-458 438,-436 266,-436"/>
<polygon fill="none" stroke="black" points="266,-436 266,-458 438,-458 438,-436 266,-436"/>
<text text-anchor="start" x="271" y="-445.2" font-family="Helvetica,sans-Serif" font-weight="bold" font-size="11.00">configuration_profiles</text>
<text text-anchor="start" x="399" y="-444.2" font-family="Helvetica,sans-Serif" font-size="11.00">[table]</text>
<polygon fill="none" stroke="black" points="266,-418 266,-436 438,-436 438,-418 266,-418"/>
<text text-anchor="start" x="269" y="-424.2" font-family="Helvetica,sans-Serif" font-size="11.00">...</text>
<polygon fill="#ffffff" stroke="none" points="266,-400 266,-418 345,-418 345,-400 266,-400"/>
<polygon fill="none" stroke="black" points="266,-400 266,-418 345,-418 345,-400 266,-400"/>
<text text-anchor="start" x="269" y="-406.2" font-family="Helvetica,sans-Serif" font-size="11.00">&lt; 1</text>
<polygon fill="#ffffff" stroke="none" points="345,-400 345,-418 386,-418 386,-400 345,-400"/>
<polygon fill="none" stroke="black" points="345,-400 345,-418 386,-418 386,-400 345,-400"/>
<text text-anchor="start" x="376" y="-406.2" font-family="Helvetica,sans-Serif" font-size="11.00"> &#160;</text>
<polygon fill="#ffffff" stroke="none" points="386,-400 386,-418 438,-418 438,-400 386,-400"/>
<polygon fill="none" stroke="black" points="386,-400 386,-418 438,-418 438,-400 386,-400"/>
<text text-anchor="start" x="418" y="-406.2" font-family="Helvetica,sans-Serif" font-size="11.00">5 &gt;</text>
</a>
</g>
</g>
<!-- operating_system_flavors -->
<g id="node2" class="node"><title>operating_system_flavors</title>
<g id="a_node2"><a xlink:href="../../tables/operating_system_flavors.html" xlink:title="operating_system_flavors" target="_top">
<polygon fill="#ffffff" stroke="none" points="8,-259 8,-317 200,-317 200,-259 8,-259"/>
<polygon fill="#f5f5f5" stroke="none" points="8,-295 8,-317 200,-317 200,-295 8,-295"/>
<polygon fill="none" stroke="black" points="8,-295 8,-317 200,-317 200,-295 8,-295"/>
<text text-anchor="start" x="13" y="-304.2" font-family="Helvetica,sans-Serif" font-weight="bold" font-size="11.00">operating_system_flavors</text>
<text text-anchor="start" x="161" y="-303.2" font-family="Helvetica,sans-Serif" font-size="11.00">[table]</text>
<polygon fill="none" stroke="black" points="8,-277 8,-295 200,-295 200,-277 8,-277"/>
<text text-anchor="start" x="11" y="-283.2" font-family="Helvetica,sans-Serif" font-size="11.00">...</text>
<polygon fill="#ffffff" stroke="none" points="8,-259 8,-277 92,-277 92,-259 8,-259"/>
<polygon fill="none" stroke="black" points="8,-259 8,-277 92,-277 92,-259 8,-259"/>
<text text-anchor="start" x="11" y="-265.2" font-family="Helvetica,sans-Serif" font-size="11.00"> &#160;</text>
<polygon fill="#ffffff" stroke="none" points="92,-259 92,-277 141,-277 141,-259 92,-259"/>
<polygon fill="none" stroke="black" points="92,-259 92,-277 141,-277 141,-259 92,-259"/>
<text text-anchor="start" x="131" y="-265.2" font-family="Helvetica,sans-Serif" font-size="11.00"> &#160;</text>
<polygon fill="#ffffff" stroke="none" points="141,-259 141,-277 200,-277 200,-259 141,-259"/>
<polygon fill="none" stroke="black" points="141,-259 141,-277 200,-277 200,-259 141,-259"/>
<text text-anchor="start" x="180" y="-265.2" font-family="Helvetica,sans-Serif" font-size="11.00">3 &gt;</text>
</a>
</g>
</g>
<!-- configuration_profiles&#45;&gt;operating_system_flavors -->
<g id="edge1" class="edge"><title>configuration_profiles:elipses:w&#45;&gt;operating_system_flavors:elipses:e</title>
<path fill="none" stroke="black" d="M250.782,-424.309C207.303,-404.816 264.175,-286 201,-286"/>
<polygon fill="black" stroke="black" points="257.14,-425.512 264.331,-430.537 261.07,-426.256 265,-427 265,-427 265,-427 261.07,-426.256 265.669,-423.463 257.14,-425.512 257.14,-425.512"/>
<ellipse fill="none" stroke="black" cx="253.995" cy="-424.917" rx="3.2" ry="3.2"/>
</g>
<!-- configuration_profiles_configuration_tags -->
<g id="node3" class="node"><title>configuration_profiles_configuration_tags</title>
<g id="a_node3"><a xlink:href="../../tables/configuration_profiles_configuration_tags.html" xlink:title="configuration_profiles_configuration_tags" target="_top">
<polygon fill="#ffffff" stroke="none" points="853.5,-545 853.5,-603 1134.5,-603 1134.5,-545 853.5,-545"/>
<polygon fill="#f5f5f5" stroke="none" points="854,-581 854,-603 1135,-603 1135,-581 854,-581"/>
<polygon fill="none" stroke="black" points="854,-581 854,-603 1135,-603 1135,-581 854,-581"/>
<text text-anchor="start" x="859" y="-590.2" font-family="Helvetica,sans-Serif" font-weight="bold" font-size="11.00">configuration_profiles_configuration_tags</text>
<text text-anchor="start" x="1096" y="-589.2" font-family="Helvetica,sans-Serif" font-size="11.00">[table]</text>
<polygon fill="none" stroke="black" points="854,-563 854,-581 1135,-581 1135,-563 854,-563"/>
<text text-anchor="start" x="857" y="-569.2" font-family="Helvetica,sans-Serif" font-size="11.00">...</text>
<polygon fill="#ffffff" stroke="none" points="854,-545 854,-563 993,-563 993,-545 854,-545"/>
<polygon fill="none" stroke="black" points="854,-545 854,-563 993,-563 993,-545 854,-545"/>
<text text-anchor="start" x="857" y="-551.2" font-family="Helvetica,sans-Serif" font-size="11.00">&lt; 2</text>
<polygon fill="#ffffff" stroke="none" points="993,-545 993,-563 1064,-563 1064,-545 993,-545"/>
<polygon fill="none" stroke="black" points="993,-545 993,-563 1064,-563 1064,-545 993,-545"/>
<text text-anchor="start" x="1054" y="-551.2" font-family="Helvetica,sans-Serif" font-size="11.00"> &#160;</text>
<polygon fill="#ffffff" stroke="none" points="1064,-545 1064,-563 1135,-563 1135,-545 1064,-545"/>
<polygon fill="none" stroke="black" points="1064,-545 1064,-563 1135,-563 1135,-545 1064,-545"/>
<text text-anchor="start" x="1125" y="-551.2" font-family="Helvetica,sans-Serif" font-size="11.00"> &#160;</text>
</a>
</g>
</g>
<!-- configuration_profiles_configuration_tags&#45;&gt;configuration_profiles -->
<g id="edge2" class="edge"><title>configuration_profiles_configuration_tags:elipses:w&#45;&gt;configuration_profiles:elipses:e</title>
<path fill="none" stroke="black" d="M838.227,-572.089C688.453,-573.871 626.281,-601.055 496,-516 456.668,-490.322 485.973,-427 439,-427"/>
<polygon fill="black" stroke="black" points="845,-572.048 853.022,-575.6 849,-572.024 853,-572 853,-572 853,-572 849,-572.024 852.978,-568.4 845,-572.048 845,-572.048"/>
<ellipse fill="none" stroke="black" cx="841.8" cy="-572.067" rx="3.2" ry="3.2"/>
</g>
<!-- configuration_tags -->
<g id="node4" class="node"><title>configuration_tags</title>
<g id="a_node4"><a xlink:href="../../tables/configuration_tags.html" xlink:title="configuration_tags" target="_top">
<polygon fill="#ffffff" stroke="none" points="555.5,-380 555.5,-482 708.5,-482 708.5,-380 555.5,-380"/>
<polygon fill="#f5f5f5" stroke="none" points="556,-460 556,-482 709,-482 709,-460 556,-460"/>
<polygon fill="none" stroke="black" points="556,-460 556,-482 709,-482 709,-460 556,-460"/>
<text text-anchor="start" x="561" y="-469.2" font-family="Helvetica,sans-Serif" font-weight="bold" font-size="11.00">configuration_tags</text>
<text text-anchor="start" x="670" y="-468.2" font-family="Helvetica,sans-Serif" font-size="11.00">[table]</text>
<polygon fill="none" stroke="black" points="556,-438 556,-460 709,-460 709,-438 556,-438"/>
<image xlink:href="../../images/primaryKeys.png" width="11px" height="12px" preserveAspectRatio="xMinYMin meet" x="561" y="-455"/>
<text text-anchor="start" x="587" y="-446.2" font-family="Helvetica,sans-Serif" font-size="11.00">id</text>
<polygon fill="#ffffff" stroke="none" points="556,-416 556,-438 709,-438 709,-416 556,-416"/>
<polygon fill="none" stroke="black" points="556,-416 556,-438 709,-438 709,-416 556,-416"/>
<text text-anchor="start" x="587" y="-424.2" font-family="Helvetica,sans-Serif" font-size="11.00">type</text>
<polygon fill="none" stroke="black" points="556,-398 556,-416 709,-416 709,-398 556,-398"/>
<text text-anchor="start" x="559" y="-404.2" font-family="Helvetica,sans-Serif" font-size="11.00">...</text>
<polygon fill="#ffffff" stroke="none" points="556,-380 556,-398 621,-398 621,-380 556,-380"/>
<polygon fill="none" stroke="black" points="556,-380 556,-398 621,-398 621,-380 556,-380"/>
<text text-anchor="start" x="559" y="-386.2" font-family="Helvetica,sans-Serif" font-size="11.00"> &#160;</text>
<polygon fill="#ffffff" stroke="none" points="621,-380 621,-398 660,-398 660,-380 621,-380"/>
<polygon fill="none" stroke="black" points="621,-380 621,-398 660,-398 660,-380 621,-380"/>
<text text-anchor="start" x="650" y="-386.2" font-family="Helvetica,sans-Serif" font-size="11.00"> &#160;</text>
<polygon fill="#ffffff" stroke="none" points="660,-380 660,-398 709,-398 709,-380 660,-380"/>
<polygon fill="none" stroke="black" points="660,-380 660,-398 709,-398 709,-380 660,-380"/>
<text text-anchor="start" x="689" y="-386.2" font-family="Helvetica,sans-Serif" font-size="11.00">4 &gt;</text>
</a>
</g>
</g>
<!-- configuration_profiles_configuration_tags&#45;&gt;configuration_tags -->
<g id="edge3" class="edge"><title>configuration_profiles_configuration_tags:elipses:w&#45;&gt;configuration_tags:id:e</title>
<path fill="none" stroke="black" d="M838.5,-570.619C771.827,-557.105 788.592,-449 710,-449"/>
<polygon fill="black" stroke="black" points="845.036,-571.241 852.659,-575.584 849.018,-571.621 853,-572 853,-572 853,-572 849.018,-571.621 853.341,-568.416 845.036,-571.241 845.036,-571.241"/>
<ellipse fill="none" stroke="black" cx="841.85" cy="-570.938" rx="3.2" ry="3.2"/>
</g>
<!-- configuration_tags_configured_systems -->
<g id="node5" class="node"><title>configuration_tags_configured_systems</title>
<g id="a_node5"><a xlink:href="../../tables/configuration_tags_configured_systems.html" xlink:title="configuration_tags_configured_systems" target="_top">
<polygon fill="#ffffff" stroke="none" points="860,-256 860,-314 1128,-314 1128,-256 860,-256"/>
<polygon fill="#f5f5f5" stroke="none" points="860,-292 860,-314 1128,-314 1128,-292 860,-292"/>
<polygon fill="none" stroke="black" points="860,-292 860,-314 1128,-314 1128,-292 860,-292"/>
<text text-anchor="start" x="865" y="-301.2" font-family="Helvetica,sans-Serif" font-weight="bold" font-size="11.00">configuration_tags_configured_systems</text>
<text text-anchor="start" x="1089" y="-300.2" font-family="Helvetica,sans-Serif" font-size="11.00">[table]</text>
<polygon fill="none" stroke="black" points="860,-274 860,-292 1128,-292 1128,-274 860,-274"/>
<text text-anchor="start" x="863" y="-280.2" font-family="Helvetica,sans-Serif" font-size="11.00">...</text>
<polygon fill="#ffffff" stroke="none" points="860,-256 860,-274 992,-274 992,-256 860,-256"/>
<polygon fill="none" stroke="black" points="860,-256 860,-274 992,-274 992,-256 860,-256"/>
<text text-anchor="start" x="863" y="-262.2" font-family="Helvetica,sans-Serif" font-size="11.00">&lt; 2</text>
<polygon fill="#ffffff" stroke="none" points="992,-256 992,-274 1060,-274 1060,-256 992,-256"/>
<polygon fill="none" stroke="black" points="992,-256 992,-274 1060,-274 1060,-256 992,-256"/>
<text text-anchor="start" x="1050" y="-262.2" font-family="Helvetica,sans-Serif" font-size="11.00"> &#160;</text>
<polygon fill="#ffffff" stroke="none" points="1060,-256 1060,-274 1128,-274 1128,-256 1060,-256"/>
<polygon fill="none" stroke="black" points="1060,-256 1060,-274 1128,-274 1128,-256 1060,-256"/>
<text text-anchor="start" x="1118" y="-262.2" font-family="Helvetica,sans-Serif" font-size="11.00"> &#160;</text>
</a>
</g>
</g>
<!-- configuration_tags_configured_systems&#45;&gt;configuration_tags -->
<g id="edge4" class="edge"><title>configuration_tags_configured_systems:elipses:w&#45;&gt;configuration_tags:id:e</title>
<path fill="none" stroke="black" d="M844.511,-284.336C764.646,-300.046 803.911,-449 710,-449"/>
<polygon fill="black" stroke="black" points="851.034,-283.735 859.331,-286.585 855.017,-283.367 859,-283 859,-283 859,-283 855.017,-283.367 858.669,-279.415 851.034,-283.735 851.034,-283.735"/>
<ellipse fill="none" stroke="black" cx="847.847" cy="-284.029" rx="3.2" ry="3.2"/>
</g>
<!-- configured_systems -->
<g id="node6" class="node"><title>configured_systems</title>
<g id="a_node6"><a xlink:href="../../tables/configured_systems.html" xlink:title="configured_systems" target="_top">
<polygon fill="#ffffff" stroke="none" points="504,-37 504,-359 760,-359 760,-37 504,-37"/>
<polygon fill="#f5f5f5" stroke="none" points="504,-337 504,-359 760,-359 760,-337 504,-337"/>
<polygon fill="none" stroke="black" points="504,-337 504,-359 760,-359 760,-337 504,-337"/>
<text text-anchor="start" x="509" y="-346.2" font-family="Helvetica,sans-Serif" font-weight="bold" font-size="11.00">configured_systems</text>
<text text-anchor="start" x="721" y="-345.2" font-family="Helvetica,sans-Serif" font-size="11.00">[table]</text>
<polygon fill="none" stroke="black" points="504,-315 504,-337 760,-337 760,-315 504,-315"/>
<image xlink:href="../../images/primaryKeys.png" width="11px" height="12px" preserveAspectRatio="xMinYMin meet" x="509" y="-332"/>
<text text-anchor="start" x="524" y="-323.2" font-family="Helvetica,sans-Serif" font-size="11.00">id</text>
<polygon fill="#ffffff" stroke="none" points="504,-293 504,-315 760,-315 760,-293 504,-293"/>
<polygon fill="none" stroke="black" points="504,-293 504,-315 760,-315 760,-293 504,-293"/>
<text text-anchor="start" x="524" y="-301.2" font-family="Helvetica,sans-Serif" font-size="11.00">type</text>
<polygon fill="#ffffff" stroke="none" points="504,-271 504,-293 760,-293 760,-271 504,-271"/>
<polygon fill="none" stroke="black" points="504,-271 504,-293 760,-293 760,-271 504,-271"/>
<text text-anchor="start" x="524" y="-279.2" font-family="Helvetica,sans-Serif" font-size="11.00">direct_operating_system_flavor_id</text>
<polygon fill="none" stroke="black" points="504,-249 504,-271 760,-271 760,-249 504,-249"/>
<image xlink:href="../../images/foreignKeys.png" width="11px" height="12px" preserveAspectRatio="xMinYMin meet" x="509" y="-266"/>
<text text-anchor="start" x="524" y="-257.2" font-family="Helvetica,sans-Serif" font-size="11.00">configuration_profile_id</text>
<polygon fill="#ffffff" stroke="none" points="504,-227 504,-249 760,-249 760,-227 504,-227"/>
<polygon fill="none" stroke="black" points="504,-227 504,-249 760,-249 760,-227 504,-227"/>
<text text-anchor="start" x="524" y="-235.2" font-family="Helvetica,sans-Serif" font-size="11.00">manager_id</text>
<polygon fill="#ffffff" stroke="none" points="504,-205 504,-227 760,-227 760,-205 504,-205"/>
<polygon fill="none" stroke="black" points="504,-205 504,-227 760,-227 760,-205 504,-205"/>
<text text-anchor="start" x="524" y="-213.2" font-family="Helvetica,sans-Serif" font-size="11.00">manager_ref</text>
<polygon fill="none" stroke="black" points="504,-183 504,-205 760,-205 760,-183 504,-183"/>
<image xlink:href="../../images/foreignKeys.png" width="11px" height="12px" preserveAspectRatio="xMinYMin meet" x="509" y="-200"/>
<text text-anchor="start" x="524" y="-191.2" font-family="Helvetica,sans-Serif" font-size="11.00">configuration_location_id</text>
<polygon fill="none" stroke="black" points="504,-161 504,-183 760,-183 760,-161 504,-161"/>
<image xlink:href="../../images/foreignKeys.png" width="11px" height="12px" preserveAspectRatio="xMinYMin meet" x="509" y="-178"/>
<text text-anchor="start" x="524" y="-169.2" font-family="Helvetica,sans-Serif" font-size="11.00">configuration_organization_id</text>
<polygon fill="none" stroke="black" points="504,-139 504,-161 760,-161 760,-139 504,-139"/>
<image xlink:href="../../images/foreignKeys.png" width="11px" height="12px" preserveAspectRatio="xMinYMin meet" x="509" y="-156"/>
<text text-anchor="start" x="524" y="-147.2" font-family="Helvetica,sans-Serif" font-size="11.00">operating_system_flavor_id</text>
<polygon fill="#ffffff" stroke="none" points="504,-117 504,-139 760,-139 760,-117 504,-117"/>
<polygon fill="none" stroke="black" points="504,-117 504,-139 760,-139 760,-117 504,-117"/>
<text text-anchor="start" x="524" y="-125.2" font-family="Helvetica,sans-Serif" font-size="11.00">counterpart_type</text>
<polygon fill="#ffffff" stroke="none" points="504,-95 504,-117 760,-117 760,-95 504,-95"/>
<polygon fill="none" stroke="black" points="504,-95 504,-117 760,-117 760,-95 504,-95"/>
<text text-anchor="start" x="524" y="-103.2" font-family="Helvetica,sans-Serif" font-size="11.00">counterpart_id</text>
<polygon fill="#ffffff" stroke="none" points="504,-73 504,-95 760,-95 760,-73 504,-73"/>
<polygon fill="none" stroke="black" points="504,-73 504,-95 760,-95 760,-73 504,-73"/>
<image xlink:href="../../images/foreignKeys.png" width="11px" height="12px" preserveAspectRatio="xMinYMin meet" x="509" y="-90"/>
<text text-anchor="start" x="524" y="-81.2" font-family="Helvetica,sans-Serif" font-size="11.00">orchestration_stack_id</text>
<polygon fill="none" stroke="black" points="504,-55 504,-73 760,-73 760,-55 504,-55"/>
<text text-anchor="start" x="507" y="-61.2" font-family="Helvetica,sans-Serif" font-size="11.00">...</text>
<polygon fill="#ffffff" stroke="none" points="504,-37 504,-55 625,-55 625,-37 504,-37"/>
<polygon fill="none" stroke="black" points="504,-37 504,-55 625,-55 625,-37 504,-37"/>
<text text-anchor="start" x="507" y="-43.2" font-family="Helvetica,sans-Serif" font-size="11.00">&lt; 5</text>
<polygon fill="#ffffff" stroke="none" points="625,-37 625,-55 687,-55 687,-37 625,-37"/>
<polygon fill="none" stroke="black" points="625,-37 625,-55 687,-55 687,-37 625,-37"/>
<text text-anchor="start" x="677" y="-43.2" font-family="Helvetica,sans-Serif" font-size="11.00"> &#160;</text>
<polygon fill="#ffffff" stroke="none" points="687,-37 687,-55 760,-55 760,-37 687,-37"/>
<polygon fill="none" stroke="black" points="687,-37 687,-55 760,-55 760,-37 687,-37"/>
<text text-anchor="start" x="740" y="-43.2" font-family="Helvetica,sans-Serif" font-size="11.00">2 &gt;</text>
</a>
</g>
</g>
<!-- configuration_tags_configured_systems&#45;&gt;configured_systems -->
<g id="edge5" class="edge"><title>configuration_tags_configured_systems:elipses:w&#45;&gt;configured_systems:id:e</title>
<path fill="none" stroke="black" d="M844.426,-284.53C810.212,-292.19 803.176,-326 761,-326"/>
<polygon fill="black" stroke="black" points="851.044,-283.836 859.376,-286.58 855.022,-283.418 859,-283 859,-283 859,-283 855.022,-283.418 858.624,-279.42 851.044,-283.836 851.044,-283.836"/>
<ellipse fill="none" stroke="black" cx="847.861" cy="-284.17" rx="3.2" ry="3.2"/>
</g>
<!-- configured_systems&#45;&gt;configuration_profiles -->
<g id="edge8" class="edge"><title>configured_systems:configuration_profile_id:w&#45;&gt;configuration_profiles:elipses:e</title>
<path fill="none" stroke="black" d="M488.7,-262.361C436.007,-282.659 512.897,-427 439,-427"/>
<polygon fill="black" stroke="black" points="495.107,-261.303 503.586,-263.552 499.053,-260.652 503,-260 503,-260 503,-260 499.053,-260.652 502.414,-256.448 495.107,-261.303 495.107,-261.303"/>
<ellipse fill="none" stroke="black" cx="491.95" cy="-261.824" rx="3.2" ry="3.2"/>
</g>
<!-- configured_systems&#45;&gt;operating_system_flavors -->
<g id="edge9" class="edge"><title>configured_systems:operating_system_flavor_id:w&#45;&gt;operating_system_flavors:elipses:e</title>
<path fill="none" stroke="black" d="M488.479,-149.587C422.005,-146.304 283.955,-125.398 241,-158 193.524,-194.033 260.602,-286 201,-286"/>
<polygon fill="black" stroke="black" points="495.003,-149.772 502.898,-153.599 499.002,-149.886 503,-150 503,-150 503,-150 499.002,-149.886 503.102,-146.401 495.003,-149.772 495.003,-149.772"/>
<ellipse fill="none" stroke="black" cx="491.805" cy="-149.681" rx="3.2" ry="3.2"/>
</g>
<!-- configuration_locations -->
<g id="node7" class="node"><title>configuration_locations</title>
<g id="a_node7"><a xlink:href="../../tables/configuration_locations.html" xlink:title="configuration_locations" target="_top">
<polygon fill="#ffffff" stroke="none" points="261.5,-248 261.5,-306 442.5,-306 442.5,-248 261.5,-248"/>
<polygon fill="#f5f5f5" stroke="none" points="262,-284 262,-306 443,-306 443,-284 262,-284"/>
<polygon fill="none" stroke="black" points="262,-284 262,-306 443,-306 443,-284 262,-284"/>
<text text-anchor="start" x="267" y="-293.2" font-family="Helvetica,sans-Serif" font-weight="bold" font-size="11.00">configuration_locations</text>
<text text-anchor="start" x="404" y="-292.2" font-family="Helvetica,sans-Serif" font-size="11.00">[table]</text>
<polygon fill="none" stroke="black" points="262,-266 262,-284 443,-284 443,-266 262,-266"/>
<text text-anchor="start" x="265" y="-272.2" font-family="Helvetica,sans-Serif" font-size="11.00">...</text>
<polygon fill="#ffffff" stroke="none" points="262,-248 262,-266 341,-266 341,-248 262,-248"/>
<polygon fill="none" stroke="black" points="262,-248 262,-266 341,-266 341,-248 262,-248"/>
<text text-anchor="start" x="265" y="-254.2" font-family="Helvetica,sans-Serif" font-size="11.00"> &#160;</text>
<polygon fill="#ffffff" stroke="none" points="341,-248 341,-266 387,-266 387,-248 341,-248"/>
<polygon fill="none" stroke="black" points="341,-248 341,-266 387,-266 387,-248 341,-248"/>
<text text-anchor="start" x="377" y="-254.2" font-family="Helvetica,sans-Serif" font-size="11.00"> &#160;</text>
<polygon fill="#ffffff" stroke="none" points="387,-248 387,-266 443,-266 443,-248 387,-248"/>
<polygon fill="none" stroke="black" points="387,-248 387,-266 443,-266 443,-248 387,-248"/>
<text text-anchor="start" x="423" y="-254.2" font-family="Helvetica,sans-Serif" font-size="11.00">2 &gt;</text>
</a>
</g>
</g>
<!-- configured_systems&#45;&gt;configuration_locations -->
<g id="edge6" class="edge"><title>configured_systems:configuration_location_id:w&#45;&gt;configuration_locations:elipses:e</title>
<path fill="none" stroke="black" d="M488.853,-197.907C465.135,-214.087 482.623,-275 444,-275"/>
<polygon fill="black" stroke="black" points="495.289,-196.13 503.958,-197.47 499.144,-195.065 503,-194 503,-194 503,-194 499.144,-195.065 502.042,-190.53 495.289,-196.13 495.289,-196.13"/>
<ellipse fill="none" stroke="black" cx="492.204" cy="-196.981" rx="3.20001" ry="3.20001"/>
</g>
<!-- configuration_organizations -->
<g id="node8" class="node"><title>configuration_organizations</title>
<g id="a_node8"><a xlink:href="../../tables/configuration_organizations.html" xlink:title="configuration_organizations" target="_top">
<polygon fill="#ffffff" stroke="none" points="249,-169 249,-227 455,-227 455,-169 249,-169"/>
<polygon fill="#f5f5f5" stroke="none" points="249,-205 249,-227 455,-227 455,-205 249,-205"/>
<polygon fill="none" stroke="black" points="249,-205 249,-227 455,-227 455,-205 249,-205"/>
<text text-anchor="start" x="254" y="-214.2" font-family="Helvetica,sans-Serif" font-weight="bold" font-size="11.00">configuration_organizations</text>
<text text-anchor="start" x="416" y="-213.2" font-family="Helvetica,sans-Serif" font-size="11.00">[table]</text>
<polygon fill="none" stroke="black" points="249,-187 249,-205 455,-205 455,-187 249,-187"/>
<text text-anchor="start" x="252" y="-193.2" font-family="Helvetica,sans-Serif" font-size="11.00">...</text>
<polygon fill="#ffffff" stroke="none" points="249,-169 249,-187 340,-187 340,-169 249,-169"/>
<polygon fill="none" stroke="black" points="249,-169 249,-187 340,-187 340,-169 249,-169"/>
<text text-anchor="start" x="252" y="-175.2" font-family="Helvetica,sans-Serif" font-size="11.00"> &#160;</text>
<polygon fill="#ffffff" stroke="none" points="340,-169 340,-187 392,-187 392,-169 340,-169"/>
<polygon fill="none" stroke="black" points="340,-169 340,-187 392,-187 392,-169 340,-169"/>
<text text-anchor="start" x="382" y="-175.2" font-family="Helvetica,sans-Serif" font-size="11.00"> &#160;</text>
<polygon fill="#ffffff" stroke="none" points="392,-169 392,-187 455,-187 455,-169 392,-169"/>
<polygon fill="none" stroke="black" points="392,-169 392,-187 455,-187 455,-169 392,-169"/>
<text text-anchor="start" x="435" y="-175.2" font-family="Helvetica,sans-Serif" font-size="11.00">2 &gt;</text>
</a>
</g>
</g>
<!-- configured_systems&#45;&gt;configuration_organizations -->
<g id="edge7" class="edge"><title>configured_systems:configuration_organization_id:w&#45;&gt;configuration_organizations:elipses:e</title>
<path fill="none" stroke="black" d="M489.06,-175.75C478.04,-182.5 473.591,-196 456,-196"/>
<polygon fill="black" stroke="black" points="495.275,-174.078 503.935,-175.476 499.137,-173.039 503,-172 503,-172 503,-172 499.137,-173.039 502.065,-168.524 495.275,-174.078 495.275,-174.078"/>
<ellipse fill="none" stroke="black" cx="492.184" cy="-174.909" rx="3.2" ry="3.2"/>
</g>
<!-- orchestration_stacks -->
<g id="node9" class="node"><title>orchestration_stacks</title>
<g id="a_node9"><a xlink:href="../../tables/orchestration_stacks.html" xlink:title="orchestration_stacks" target="_top">
<polygon fill="#ffffff" stroke="none" points="269,-57 269,-115 435,-115 435,-57 269,-57"/>
<polygon fill="#f5f5f5" stroke="none" points="269,-93 269,-115 435,-115 435,-93 269,-93"/>
<polygon fill="none" stroke="black" points="269,-93 269,-115 435,-115 435,-93 269,-93"/>
<text text-anchor="start" x="274" y="-102.2" font-family="Helvetica,sans-Serif" font-weight="bold" font-size="11.00">orchestration_stacks</text>
<text text-anchor="start" x="396" y="-101.2" font-family="Helvetica,sans-Serif" font-size="11.00">[table]</text>
<polygon fill="none" stroke="black" points="269,-75 269,-93 435,-93 435,-75 269,-75"/>
<text text-anchor="start" x="272" y="-81.2" font-family="Helvetica,sans-Serif" font-size="11.00">...</text>
<polygon fill="#ffffff" stroke="none" points="269,-57 269,-75 345,-75 345,-57 269,-57"/>
<polygon fill="none" stroke="black" points="269,-57 269,-75 345,-75 345,-57 269,-57"/>
<text text-anchor="start" x="272" y="-63.2" font-family="Helvetica,sans-Serif" font-size="11.00">&lt; 4</text>
<polygon fill="#ffffff" stroke="none" points="345,-57 345,-75 385,-75 385,-57 345,-57"/>
<polygon fill="none" stroke="black" points="345,-57 345,-75 385,-75 385,-57 345,-57"/>
<text text-anchor="start" x="375" y="-63.2" font-family="Helvetica,sans-Serif" font-size="11.00"> &#160;</text>
<polygon fill="#ffffff" stroke="none" points="385,-57 385,-75 435,-75 435,-57 385,-57"/>
<polygon fill="none" stroke="black" points="385,-57 385,-75 435,-75 435,-57 385,-57"/>
<text text-anchor="start" x="415" y="-63.2" font-family="Helvetica,sans-Serif" font-size="11.00">6 &gt;</text>
</a>
</g>
</g>
<!-- configured_systems&#45;&gt;orchestration_stacks -->
<g id="edge10" class="edge"><title>configured_systems:orchestration_stack_id:w&#45;&gt;orchestration_stacks:elipses:e</title>
<path fill="none" stroke="black" d="M488.581,-84C469.736,-84 460.311,-84 436,-84"/>
<polygon fill="black" stroke="black" points="495,-84.0001 503,-87.6 499,-84 503,-84 503,-84 503,-84 499,-84 503,-80.4 495,-84.0001 495,-84.0001"/>
<ellipse fill="none" stroke="black" cx="491.8" cy="-84.0001" rx="3.2" ry="3.2"/>
</g>
<!-- direct_configuration_profiles_configuration_tags -->
<g id="node10" class="node"><title>direct_configuration_profiles_configuration_tags</title>
<g id="a_node10"><a xlink:href="../../tables/direct_configuration_profiles_configuration_tags.html" xlink:title="direct_configuration_profiles_configuration_tags" target="_top">
<polygon fill="#ffffff" stroke="none" points="834,-466 834,-524 1154,-524 1154,-466 834,-466"/>
<polygon fill="#f5f5f5" stroke="none" points="834,-502 834,-524 1154,-524 1154,-502 834,-502"/>
<polygon fill="none" stroke="black" points="834,-502 834,-524 1154,-524 1154,-502 834,-502"/>
<text text-anchor="start" x="839" y="-511.2" font-family="Helvetica,sans-Serif" font-weight="bold" font-size="11.00">direct_configuration_profiles_configuration_tags</text>
<text text-anchor="start" x="1115" y="-510.2" font-family="Helvetica,sans-Serif" font-size="11.00">[table]</text>
<polygon fill="none" stroke="black" points="834,-484 834,-502 1154,-502 1154,-484 834,-484"/>
<text text-anchor="start" x="837" y="-490.2" font-family="Helvetica,sans-Serif" font-size="11.00">...</text>
<polygon fill="#ffffff" stroke="none" points="834,-466 834,-484 992,-484 992,-466 834,-466"/>
<polygon fill="none" stroke="black" points="834,-466 834,-484 992,-484 992,-466 834,-466"/>
<text text-anchor="start" x="837" y="-472.2" font-family="Helvetica,sans-Serif" font-size="11.00">&lt; 2</text>
<polygon fill="#ffffff" stroke="none" points="992,-466 992,-484 1073,-484 1073,-466 992,-466"/>
<polygon fill="none" stroke="black" points="992,-466 992,-484 1073,-484 1073,-466 992,-466"/>
<text text-anchor="start" x="1063" y="-472.2" font-family="Helvetica,sans-Serif" font-size="11.00"> &#160;</text>
<polygon fill="#ffffff" stroke="none" points="1073,-466 1073,-484 1154,-484 1154,-466 1073,-466"/>
<polygon fill="none" stroke="black" points="1073,-466 1073,-484 1154,-484 1154,-466 1073,-466"/>
<text text-anchor="start" x="1144" y="-472.2" font-family="Helvetica,sans-Serif" font-size="11.00"> &#160;</text>
</a>
</g>
</g>
<!-- direct_configuration_profiles_configuration_tags&#45;&gt;configuration_profiles -->
<g id="edge11" class="edge"><title>direct_configuration_profiles_configuration_tags:elipses:w&#45;&gt;configuration_profiles:elipses:e</title>
<path fill="none" stroke="black" d="M818.401,-493.199C679.74,-497.002 627.67,-553.262 496,-493 460.757,-476.87 477.759,-427 439,-427"/>
<polygon fill="black" stroke="black" points="825.001,-493.109 833.049,-496.6 829,-493.055 833,-493 833,-493 833,-493 829,-493.055 832.951,-489.4 825.001,-493.109 825.001,-493.109"/>
<ellipse fill="none" stroke="black" cx="821.801" cy="-493.153" rx="3.2" ry="3.2"/>
</g>
<!-- direct_configuration_profiles_configuration_tags&#45;&gt;configuration_tags -->
<g id="edge12" class="edge"><title>direct_configuration_profiles_configuration_tags:elipses:w&#45;&gt;configuration_tags:id:e</title>
<path fill="none" stroke="black" d="M818.516,-491.998C773.291,-485.449 762.843,-449 710,-449"/>
<polygon fill="black" stroke="black" points="825.019,-492.448 832.752,-496.591 829.01,-492.724 833,-493 833,-493 833,-493 829.01,-492.724 833.248,-489.409 825.019,-492.448 825.019,-492.448"/>
<ellipse fill="none" stroke="black" cx="821.827" cy="-492.227" rx="3.2" ry="3.2"/>
</g>
<!-- direct_configuration_tags_configured_systems -->
<g id="node11" class="node"><title>direct_configuration_tags_configured_systems</title>
<g id="a_node11"><a xlink:href="../../tables/direct_configuration_tags_configured_systems.html" xlink:title="direct_configuration_tags_configured_systems" target="_top">
<polygon fill="#ffffff" stroke="none" points="809,-335 809,-445 1179,-445 1179,-335 809,-335"/>
<polygon fill="#f5f5f5" stroke="none" points="811,-421 811,-443 1177,-443 1177,-421 811,-421"/>
<polygon fill="none" stroke="black" points="811,-421 811,-443 1177,-443 1177,-421 811,-421"/>
<text text-anchor="start" x="816" y="-430.2" font-family="Helvetica,sans-Serif" font-weight="bold" font-size="11.00">direct_configuration_tags_configured_systems</text>
<text text-anchor="start" x="1138" y="-429.2" font-family="Helvetica,sans-Serif" font-size="11.00">[table]</text>
<polygon fill="none" stroke="black" points="811,-399 811,-421 1106,-421 1106,-399 811,-399"/>
<image xlink:href="../../images/primaryKeys.png" width="11px" height="12px" preserveAspectRatio="xMinYMin meet" x="816" y="-416"/>
<text text-anchor="start" x="831" y="-407.2" font-family="Helvetica,sans-Serif" font-size="11.00">id</text>
<polygon fill="none" stroke="black" points="1106,-399 1106,-421 1177,-421 1177,-399 1106,-399"/>
<text text-anchor="start" x="1109" y="-407.2" font-family="Helvetica,sans-Serif" font-size="11.00">bigserial[19]</text>
<polygon fill="#ffffff" stroke="none" points="811,-377 811,-399 1106,-399 1106,-377 811,-377"/>
<polygon fill="none" stroke="black" points="811,-377 811,-399 1106,-399 1106,-377 811,-377"/>
<image xlink:href="../../images/foreignKeys.png" width="11px" height="12px" preserveAspectRatio="xMinYMin meet" x="816" y="-394"/>
<text text-anchor="start" x="831" y="-385.2" font-family="Helvetica,sans-Serif" font-size="11.00">configured_system_id</text>
<polygon fill="none" stroke="black" points="1106,-377 1106,-399 1177,-399 1177,-377 1106,-377"/>
<text text-anchor="start" x="1109" y="-385.2" font-family="Helvetica,sans-Serif" font-size="11.00">int8[19]</text>
<polygon fill="#ffffff" stroke="none" points="811,-355 811,-377 1106,-377 1106,-355 811,-355"/>
<polygon fill="none" stroke="black" points="811,-355 811,-377 1106,-377 1106,-355 811,-355"/>
<image xlink:href="../../images/foreignKeys.png" width="11px" height="12px" preserveAspectRatio="xMinYMin meet" x="816" y="-372"/>
<text text-anchor="start" x="831" y="-363.2" font-family="Helvetica,sans-Serif" font-size="11.00">configuration_tag_id</text>
<polygon fill="none" stroke="black" points="1106,-355 1106,-377 1177,-377 1177,-355 1106,-355"/>
<text text-anchor="start" x="1109" y="-363.2" font-family="Helvetica,sans-Serif" font-size="11.00">int8[19]</text>
<polygon fill="#ffffff" stroke="none" points="811,-337 811,-355 963,-355 963,-337 811,-337"/>
<polygon fill="none" stroke="black" points="811,-337 811,-355 963,-355 963,-337 811,-337"/>
<text text-anchor="start" x="814" y="-343.2" font-family="Helvetica,sans-Serif" font-size="11.00">&lt; 2</text>
<polygon fill="#ffffff" stroke="none" points="963,-337 963,-355 1106,-355 1106,-337 963,-337"/>
<polygon fill="none" stroke="black" points="963,-337 963,-355 1106,-355 1106,-337 963,-337"/>
<text text-anchor="start" x="1096" y="-343.2" font-family="Helvetica,sans-Serif" font-size="11.00"> &#160;</text>
<polygon fill="#ffffff" stroke="none" points="1106,-337 1106,-355 1177,-355 1177,-337 1106,-337"/>
<polygon fill="none" stroke="black" points="1106,-337 1106,-355 1177,-355 1177,-337 1106,-337"/>
<text text-anchor="start" x="1157" y="-343.2" font-family="Helvetica,sans-Serif" font-size="11.00">0 &gt;</text>
<polygon fill="none" stroke="black" stroke-width="2" points="810,-336 810,-444 1178,-444 1178,-336 810,-336"/>
</a>
</g>
</g>
<!-- direct_configuration_tags_configured_systems&#45;&gt;configuration_tags -->
<g id="edge13" class="edge"><title>direct_configuration_tags_configured_systems:configuration_tag_id:w&#45;&gt;configuration_tags:id:e</title>
<path fill="none" stroke="black" d="M795.567,-368.052C754.507,-380.833 762.344,-449 710,-449"/>
<polygon fill="black" stroke="black" points="802.08,-367.126 810.507,-369.564 806.04,-366.563 810,-366 810,-366 810,-366 806.04,-366.563 809.493,-362.436 802.08,-367.126 802.08,-367.126"/>
<ellipse fill="none" stroke="black" cx="798.911" cy="-367.576" rx="3.2" ry="3.2"/>
</g>
<!-- direct_configuration_tags_configured_systems&#45;&gt;configured_systems -->
<g id="edge14" class="edge"><title>direct_configuration_tags_configured_systems:configured_system_id:w&#45;&gt;configured_systems:id:e</title>
<path fill="none" stroke="black" d="M796.313,-383.135C780.515,-368.519 790.086,-326 761,-326"/>
<polygon fill="black" stroke="black" points="802.462,-385.321 808.794,-391.392 806.231,-386.66 810,-388 810,-388 810,-388 806.231,-386.66 811.206,-384.608 802.462,-385.321 802.462,-385.321"/>
<ellipse fill="none" stroke="black" cx="799.447" cy="-384.249" rx="3.20001" ry="3.20001"/>
</g>
</g>
</svg>
