<?xml version="1.0" encoding="UTF-8" standalone="no"?>
<!DOCTYPE svg PUBLIC "-//W3C//DTD SVG 1.1//EN"
 "http://www.w3.org/Graphics/SVG/1.1/DTD/svg11.dtd">
<!-- Generated by graphviz version 2.38.0 (20140413.2041)
 -->
<!-- Title: oneDegreeRelationshipsDiagram Pages: 1 -->
<svg width="692pt" height="703pt"
 viewBox="0.00 0.00 692.00 703.00" xmlns="http://www.w3.org/2000/svg" xmlns:xlink="http://www.w3.org/1999/xlink">
<g id="graph0" class="graph" transform="scale(1 1) rotate(0) translate(4 699)">
<title>oneDegreeRelationshipsDiagram</title>
<polygon fill="#ffffff" stroke="none" points="-4,4 -4,-699 688,-699 688,4 -4,4"/>
<text text-anchor="middle" x="74.5" y="-7.2" font-family="Helvetica,sans-Serif" font-size="11.00">Generated by SchemaSpy</text>
<!-- disks -->
<g id="node1" class="node"><title>disks</title>
<g id="a_node1"><a xlink:href="../../tables/disks.html" xlink:title="disks" target="_top">
<polygon fill="#ffffff" stroke="none" points="262,-37 262,-631 513,-631 513,-37 262,-37"/>
<polygon fill="#f5f5f5" stroke="none" points="264.5,-607 264.5,-629 511.5,-629 511.5,-607 264.5,-607"/>
<polygon fill="none" stroke="black" points="264.5,-607 264.5,-629 511.5,-629 511.5,-607 264.5,-607"/>
<text text-anchor="start" x="269.5" y="-616.2" font-family="Helvetica,sans-Serif" font-weight="bold" font-size="11.00">disks</text>
<text text-anchor="start" x="472.5" y="-615.2" font-family="Helvetica,sans-Serif" font-size="11.00">[table]</text>
<polygon fill="none" stroke="black" points="264.5,-585 264.5,-607 390.5,-607 390.5,-585 264.5,-585"/>
<image xlink:href="../../images/primaryKeys.png" width="11px" height="12px" preserveAspectRatio="xMinYMin meet" x="269.5" y="-602"/>
<text text-anchor="start" x="284.5" y="-593.2" font-family="Helvetica,sans-Serif" font-size="11.00">id</text>
<polygon fill="none" stroke="black" points="390.5,-585 390.5,-607 511.5,-607 511.5,-585 390.5,-585"/>
<text text-anchor="start" x="393.5" y="-593.2" font-family="Helvetica,sans-Serif" font-size="11.00">bigserial[19]</text>
<polygon fill="#ffffff" stroke="none" points="264.5,-563 264.5,-585 390.5,-585 390.5,-563 264.5,-563"/>
<polygon fill="none" stroke="black" points="264.5,-563 264.5,-585 390.5,-585 390.5,-563 264.5,-563"/>
<text text-anchor="start" x="284.5" y="-571.2" font-family="Helvetica,sans-Serif" font-size="11.00">device_name</text>
<polygon fill="none" stroke="black" points="390.5,-563 390.5,-585 511.5,-585 511.5,-563 390.5,-563"/>
<text text-anchor="start" x="393.5" y="-571.2" font-family="Helvetica,sans-Serif" font-size="11.00">varchar[2147483647]</text>
<polygon fill="#ffffff" stroke="none" points="264.5,-541 264.5,-563 390.5,-563 390.5,-541 264.5,-541"/>
<polygon fill="none" stroke="black" points="264.5,-541 264.5,-563 390.5,-563 390.5,-541 264.5,-541"/>
<text text-anchor="start" x="284.5" y="-549.2" font-family="Helvetica,sans-Serif" font-size="11.00">device_type</text>
<polygon fill="none" stroke="black" points="390.5,-541 390.5,-563 511.5,-563 511.5,-541 390.5,-541"/>
<text text-anchor="start" x="393.5" y="-549.2" font-family="Helvetica,sans-Serif" font-size="11.00">varchar[2147483647]</text>
<polygon fill="none" stroke="black" points="264.5,-519 264.5,-541 390.5,-541 390.5,-519 264.5,-519"/>
<text text-anchor="start" x="284.5" y="-527.2" font-family="Helvetica,sans-Serif" font-size="11.00">location</text>
<polygon fill="none" stroke="black" points="390.5,-519 390.5,-541 511.5,-541 511.5,-519 390.5,-519"/>
<text text-anchor="start" x="393.5" y="-527.2" font-family="Helvetica,sans-Serif" font-size="11.00">varchar[2147483647]</text>
<polygon fill="none" stroke="black" points="264.5,-497 264.5,-519 390.5,-519 390.5,-497 264.5,-497"/>
<text text-anchor="start" x="284.5" y="-505.2" font-family="Helvetica,sans-Serif" font-size="11.00">filename</text>
<polygon fill="none" stroke="black" points="390.5,-497 390.5,-519 511.5,-519 511.5,-497 390.5,-497"/>
<text text-anchor="start" x="393.5" y="-505.2" font-family="Helvetica,sans-Serif" font-size="11.00">varchar[2147483647]</text>
<polygon fill="#ffffff" stroke="none" points="264.5,-475 264.5,-497 390.5,-497 390.5,-475 264.5,-475"/>
<polygon fill="none" stroke="black" points="264.5,-475 264.5,-497 390.5,-497 390.5,-475 264.5,-475"/>
<image xlink:href="../../images/foreignKeys.png" width="11px" height="12px" preserveAspectRatio="xMinYMin meet" x="269.5" y="-492"/>
<text text-anchor="start" x="284.5" y="-483.2" font-family="Helvetica,sans-Serif" font-size="11.00">hardware_id</text>
<polygon fill="none" stroke="black" points="390.5,-475 390.5,-497 511.5,-497 511.5,-475 390.5,-475"/>
<text text-anchor="start" x="393.5" y="-483.2" font-family="Helvetica,sans-Serif" font-size="11.00">int8[19]</text>
<polygon fill="none" stroke="black" points="264.5,-453 264.5,-475 390.5,-475 390.5,-453 264.5,-453"/>
<text text-anchor="start" x="284.5" y="-461.2" font-family="Helvetica,sans-Serif" font-size="11.00">mode</text>
<polygon fill="none" stroke="black" points="390.5,-453 390.5,-475 511.5,-475 511.5,-453 390.5,-453"/>
<text text-anchor="start" x="393.5" y="-461.2" font-family="Helvetica,sans-Serif" font-size="11.00">varchar[2147483647]</text>
<polygon fill="none" stroke="black" points="264.5,-431 264.5,-453 390.5,-453 390.5,-431 264.5,-431"/>
<text text-anchor="start" x="284.5" y="-439.2" font-family="Helvetica,sans-Serif" font-size="11.00">controller_type</text>
<polygon fill="none" stroke="black" points="390.5,-431 390.5,-453 511.5,-453 511.5,-431 390.5,-431"/>
<text text-anchor="start" x="393.5" y="-439.2" font-family="Helvetica,sans-Serif" font-size="11.00">varchar[2147483647]</text>
<polygon fill="none" stroke="black" points="264.5,-409 264.5,-431 390.5,-431 390.5,-409 264.5,-409"/>
<text text-anchor="start" x="284.5" y="-417.2" font-family="Helvetica,sans-Serif" font-size="11.00">size</text>
<polygon fill="none" stroke="black" points="390.5,-409 390.5,-431 511.5,-431 511.5,-409 390.5,-409"/>
<text text-anchor="start" x="393.5" y="-417.2" font-family="Helvetica,sans-Serif" font-size="11.00">int8[19]</text>
<polygon fill="none" stroke="black" points="264.5,-387 264.5,-409 390.5,-409 390.5,-387 264.5,-387"/>
<text text-anchor="start" x="284.5" y="-395.2" font-family="Helvetica,sans-Serif" font-size="11.00">free_space</text>
<polygon fill="none" stroke="black" points="390.5,-387 390.5,-409 511.5,-409 511.5,-387 390.5,-387"/>
<text text-anchor="start" x="393.5" y="-395.2" font-family="Helvetica,sans-Serif" font-size="11.00">int8[19]</text>
<polygon fill="none" stroke="black" points="264.5,-365 264.5,-387 390.5,-387 390.5,-365 264.5,-365"/>
<text text-anchor="start" x="284.5" y="-373.2" font-family="Helvetica,sans-Serif" font-size="11.00">size_on_disk</text>
<polygon fill="none" stroke="black" points="390.5,-365 390.5,-387 511.5,-387 511.5,-365 390.5,-365"/>
<text text-anchor="start" x="393.5" y="-373.2" font-family="Helvetica,sans-Serif" font-size="11.00">int8[19]</text>
<polygon fill="none" stroke="black" points="264.5,-343 264.5,-365 390.5,-365 390.5,-343 264.5,-343"/>
<text text-anchor="start" x="284.5" y="-351.2" font-family="Helvetica,sans-Serif" font-size="11.00">present</text>
<polygon fill="none" stroke="black" points="390.5,-343 390.5,-365 511.5,-365 511.5,-343 390.5,-343"/>
<text text-anchor="start" x="393.5" y="-351.2" font-family="Helvetica,sans-Serif" font-size="11.00">bool[1]</text>
<polygon fill="none" stroke="black" points="264.5,-321 264.5,-343 390.5,-343 390.5,-321 264.5,-321"/>
<text text-anchor="start" x="284.5" y="-329.2" font-family="Helvetica,sans-Serif" font-size="11.00">start_connected</text>
<polygon fill="none" stroke="black" points="390.5,-321 390.5,-343 511.5,-343 511.5,-321 390.5,-321"/>
<text text-anchor="start" x="393.5" y="-329.2" font-family="Helvetica,sans-Serif" font-size="11.00">bool[1]</text>
<polygon fill="none" stroke="black" points="264.5,-299 264.5,-321 390.5,-321 390.5,-299 264.5,-299"/>
<text text-anchor="start" x="284.5" y="-307.2" font-family="Helvetica,sans-Serif" font-size="11.00">auto_detect</text>
<polygon fill="none" stroke="black" points="390.5,-299 390.5,-321 511.5,-321 511.5,-299 390.5,-299"/>
<text text-anchor="start" x="393.5" y="-307.2" font-family="Helvetica,sans-Serif" font-size="11.00">bool[1]</text>
<polygon fill="none" stroke="black" points="264.5,-277 264.5,-299 390.5,-299 390.5,-277 264.5,-277"/>
<text text-anchor="start" x="284.5" y="-285.2" font-family="Helvetica,sans-Serif" font-size="11.00">created_on</text>
<polygon fill="none" stroke="black" points="390.5,-277 390.5,-299 511.5,-299 511.5,-277 390.5,-277"/>
<text text-anchor="start" x="393.5" y="-285.2" font-family="Helvetica,sans-Serif" font-size="11.00">timestamp[29,6]</text>
<polygon fill="none" stroke="black" points="264.5,-255 264.5,-277 390.5,-277 390.5,-255 264.5,-255"/>
<text text-anchor="start" x="284.5" y="-263.2" font-family="Helvetica,sans-Serif" font-size="11.00">updated_on</text>
<polygon fill="none" stroke="black" points="390.5,-255 390.5,-277 511.5,-277 511.5,-255 390.5,-255"/>
<text text-anchor="start" x="393.5" y="-263.2" font-family="Helvetica,sans-Serif" font-size="11.00">timestamp[29,6]</text>
<polygon fill="none" stroke="black" points="264.5,-233 264.5,-255 390.5,-255 390.5,-233 264.5,-233"/>
<text text-anchor="start" x="284.5" y="-241.2" font-family="Helvetica,sans-Serif" font-size="11.00">disk_type</text>
<polygon fill="none" stroke="black" points="390.5,-233 390.5,-255 511.5,-255 511.5,-233 390.5,-233"/>
<text text-anchor="start" x="393.5" y="-241.2" font-family="Helvetica,sans-Serif" font-size="11.00">varchar[2147483647]</text>
<polygon fill="#ffffff" stroke="none" points="264.5,-211 264.5,-233 390.5,-233 390.5,-211 264.5,-211"/>
<polygon fill="none" stroke="black" points="264.5,-211 264.5,-233 390.5,-233 390.5,-211 264.5,-211"/>
<image xlink:href="../../images/foreignKeys.png" width="11px" height="12px" preserveAspectRatio="xMinYMin meet" x="269.5" y="-228"/>
<text text-anchor="start" x="284.5" y="-219.2" font-family="Helvetica,sans-Serif" font-size="11.00">storage_id</text>
<polygon fill="none" stroke="black" points="390.5,-211 390.5,-233 511.5,-233 511.5,-211 390.5,-211"/>
<text text-anchor="start" x="393.5" y="-219.2" font-family="Helvetica,sans-Serif" font-size="11.00">int8[19]</text>
<polygon fill="none" stroke="black" points="264.5,-189 264.5,-211 390.5,-211 390.5,-189 264.5,-189"/>
<text text-anchor="start" x="284.5" y="-197.2" font-family="Helvetica,sans-Serif" font-size="11.00">backing_id</text>
<polygon fill="none" stroke="black" points="390.5,-189 390.5,-211 511.5,-211 511.5,-189 390.5,-189"/>
<text text-anchor="start" x="393.5" y="-197.2" font-family="Helvetica,sans-Serif" font-size="11.00">int8[19]</text>
<polygon fill="none" stroke="black" points="264.5,-167 264.5,-189 390.5,-189 390.5,-167 264.5,-167"/>
<text text-anchor="start" x="284.5" y="-175.2" font-family="Helvetica,sans-Serif" font-size="11.00">backing_type</text>
<polygon fill="none" stroke="black" points="390.5,-167 390.5,-189 511.5,-189 511.5,-167 390.5,-167"/>
<text text-anchor="start" x="393.5" y="-175.2" font-family="Helvetica,sans-Serif" font-size="11.00">varchar[2147483647]</text>
<polygon fill="none" stroke="black" points="264.5,-145 264.5,-167 390.5,-167 390.5,-145 264.5,-145"/>
<image xlink:href="../../images/foreignKeys.png" width="11px" height="12px" preserveAspectRatio="xMinYMin meet" x="269.5" y="-162"/>
<text text-anchor="start" x="284.5" y="-153.2" font-family="Helvetica,sans-Serif" font-size="11.00">storage_profile_id</text>
<polygon fill="none" stroke="black" points="390.5,-145 390.5,-167 511.5,-167 511.5,-145 390.5,-145"/>
<text text-anchor="start" x="393.5" y="-153.2" font-family="Helvetica,sans-Serif" font-size="11.00">int8[19]</text>
<polygon fill="none" stroke="black" points="264.5,-123 264.5,-145 390.5,-145 390.5,-123 264.5,-123"/>
<text text-anchor="start" x="284.5" y="-131.2" font-family="Helvetica,sans-Serif" font-size="11.00">bootable</text>
<polygon fill="none" stroke="black" points="390.5,-123 390.5,-145 511.5,-145 511.5,-123 390.5,-123"/>
<text text-anchor="start" x="393.5" y="-131.2" font-family="Helvetica,sans-Serif" font-size="11.00">bool[1]</text>
<polygon fill="none" stroke="black" points="264.5,-101 264.5,-123 390.5,-123 390.5,-101 264.5,-101"/>
<text text-anchor="start" x="284.5" y="-109.2" font-family="Helvetica,sans-Serif" font-size="11.00">ems_ref</text>
<polygon fill="none" stroke="black" points="390.5,-101 390.5,-123 511.5,-123 511.5,-101 390.5,-101"/>
<text text-anchor="start" x="393.5" y="-109.2" font-family="Helvetica,sans-Serif" font-size="11.00">varchar[2147483647]</text>
<polygon fill="none" stroke="black" points="264.5,-79 264.5,-101 390.5,-101 390.5,-79 264.5,-79"/>
<text text-anchor="start" x="284.5" y="-87.2" font-family="Helvetica,sans-Serif" font-size="11.00">thin</text>
<polygon fill="none" stroke="black" points="390.5,-79 390.5,-101 511.5,-101 511.5,-79 390.5,-79"/>
<text text-anchor="start" x="393.5" y="-87.2" font-family="Helvetica,sans-Serif" font-size="11.00">bool[1]</text>
<polygon fill="none" stroke="black" points="264.5,-57 264.5,-79 390.5,-79 390.5,-57 264.5,-57"/>
<text text-anchor="start" x="284.5" y="-65.2" font-family="Helvetica,sans-Serif" font-size="11.00">format</text>
<polygon fill="none" stroke="black" points="390.5,-57 390.5,-79 511.5,-79 511.5,-57 390.5,-57"/>
<text text-anchor="start" x="393.5" y="-65.2" font-family="Helvetica,sans-Serif" font-size="11.00">varchar[2147483647]</text>
<polygon fill="#ffffff" stroke="none" points="264.5,-39 264.5,-57 332.5,-57 332.5,-39 264.5,-39"/>
<polygon fill="none" stroke="black" points="264.5,-39 264.5,-57 332.5,-57 332.5,-39 264.5,-39"/>
<text text-anchor="start" x="267.5" y="-45.2" font-family="Helvetica,sans-Serif" font-size="11.00">&lt; 3</text>
<polygon fill="#ffffff" stroke="none" points="332.5,-39 332.5,-57 390.5,-57 390.5,-39 332.5,-39"/>
<polygon fill="none" stroke="black" points="332.5,-39 332.5,-57 390.5,-57 390.5,-39 332.5,-39"/>
<text text-anchor="start" x="380.5" y="-45.2" font-family="Helvetica,sans-Serif" font-size="11.00"> &#160;</text>
<polygon fill="#ffffff" stroke="none" points="390.5,-39 390.5,-57 511.5,-57 511.5,-39 390.5,-39"/>
<polygon fill="none" stroke="black" points="390.5,-39 390.5,-57 511.5,-57 511.5,-39 390.5,-39"/>
<text text-anchor="start" x="491.5" y="-45.2" font-family="Helvetica,sans-Serif" font-size="11.00">1 &gt;</text>
<polygon fill="none" stroke="black" stroke-width="2" points="263,-38 263,-630 512,-630 512,-38 263,-38"/>
</a>
</g>
</g>
<!-- hardwares -->
<g id="node2" class="node"><title>hardwares</title>
<g id="a_node2"><a xlink:href="../../tables/hardwares.html" xlink:title="hardwares" target="_top">
<polygon fill="#ffffff" stroke="none" points="31,-387 31,-577 190,-577 190,-387 31,-387"/>
<polygon fill="#f5f5f5" stroke="none" points="31.5,-555 31.5,-577 190.5,-577 190.5,-555 31.5,-555"/>
<polygon fill="none" stroke="black" points="31.5,-555 31.5,-577 190.5,-577 190.5,-555 31.5,-555"/>
<text text-anchor="start" x="36.5" y="-564.2" font-family="Helvetica,sans-Serif" font-weight="bold" font-size="11.00">hardwares</text>
<text text-anchor="start" x="151.5" y="-563.2" font-family="Helvetica,sans-Serif" font-size="11.00">[table]</text>
<polygon fill="none" stroke="black" points="31.5,-533 31.5,-555 190.5,-555 190.5,-533 31.5,-533"/>
<image xlink:href="../../images/primaryKeys.png" width="11px" height="12px" preserveAspectRatio="xMinYMin meet" x="36.5" y="-550"/>
<text text-anchor="start" x="51.5" y="-541.2" font-family="Helvetica,sans-Serif" font-size="11.00">id</text>
<polygon fill="#ffffff" stroke="none" points="31.5,-511 31.5,-533 190.5,-533 190.5,-511 31.5,-511"/>
<polygon fill="none" stroke="black" points="31.5,-511 31.5,-533 190.5,-533 190.5,-511 31.5,-511"/>
<text text-anchor="start" x="51.5" y="-519.2" font-family="Helvetica,sans-Serif" font-size="11.00">vm_or_template_id</text>
<polygon fill="#ffffff" stroke="none" points="31.5,-489 31.5,-511 190.5,-511 190.5,-489 31.5,-489"/>
<polygon fill="none" stroke="black" points="31.5,-489 31.5,-511 190.5,-511 190.5,-489 31.5,-489"/>
<image xlink:href="../../images/foreignKeys.png" width="11px" height="12px" preserveAspectRatio="xMinYMin meet" x="36.5" y="-506"/>
<text text-anchor="start" x="51.5" y="-497.2" font-family="Helvetica,sans-Serif" font-size="11.00">host_id</text>
<polygon fill="#ffffff" stroke="none" points="31.5,-467 31.5,-489 190.5,-489 190.5,-467 31.5,-467"/>
<polygon fill="none" stroke="black" points="31.5,-467 31.5,-489 190.5,-489 190.5,-467 31.5,-467"/>
<image xlink:href="../../images/foreignKeys.png" width="11px" height="12px" preserveAspectRatio="xMinYMin meet" x="36.5" y="-484"/>
<text text-anchor="start" x="51.5" y="-475.2" font-family="Helvetica,sans-Serif" font-size="11.00">computer_system_id</text>
<polygon fill="none" stroke="black" points="31.5,-445 31.5,-467 190.5,-467 190.5,-445 31.5,-445"/>
<image xlink:href="../../images/foreignKeys.png" width="11px" height="12px" preserveAspectRatio="xMinYMin meet" x="36.5" y="-462"/>
<text text-anchor="start" x="51.5" y="-453.2" font-family="Helvetica,sans-Serif" font-size="11.00">switch_id</text>
<polygon fill="none" stroke="black" points="31.5,-423 31.5,-445 190.5,-445 190.5,-423 31.5,-423"/>
<image xlink:href="../../images/foreignKeys.png" width="11px" height="12px" preserveAspectRatio="xMinYMin meet" x="36.5" y="-440"/>
<text text-anchor="start" x="51.5" y="-431.2" font-family="Helvetica,sans-Serif" font-size="11.00">canister_id</text>
<polygon fill="none" stroke="black" points="31.5,-405 31.5,-423 190.5,-423 190.5,-405 31.5,-405"/>
<text text-anchor="start" x="34.5" y="-411.2" font-family="Helvetica,sans-Serif" font-size="11.00">...</text>
<polygon fill="#ffffff" stroke="none" points="31.5,-387 31.5,-405 104.5,-405 104.5,-387 31.5,-387"/>
<polygon fill="none" stroke="black" points="31.5,-387 31.5,-405 104.5,-405 104.5,-387 31.5,-387"/>
<text text-anchor="start" x="34.5" y="-393.2" font-family="Helvetica,sans-Serif" font-size="11.00">&lt; 4</text>
<polygon fill="#ffffff" stroke="none" points="104.5,-387 104.5,-405 142.5,-405 142.5,-387 104.5,-387"/>
<polygon fill="none" stroke="black" points="104.5,-387 104.5,-405 142.5,-405 142.5,-387 104.5,-387"/>
<text text-anchor="start" x="132.5" y="-393.2" font-family="Helvetica,sans-Serif" font-size="11.00"> &#160;</text>
<polygon fill="#ffffff" stroke="none" points="142.5,-387 142.5,-405 190.5,-405 190.5,-387 142.5,-387"/>
<polygon fill="none" stroke="black" points="142.5,-387 142.5,-405 190.5,-405 190.5,-387 142.5,-387"/>
<text text-anchor="start" x="170.5" y="-393.2" font-family="Helvetica,sans-Serif" font-size="11.00">5 &gt;</text>
</a>
</g>
</g>
<!-- disks&#45;&gt;hardwares -->
<g id="edge1" class="edge"><title>disks:hardware_id:w&#45;&gt;hardwares:id:e</title>
<path fill="none" stroke="black" d="M249.259,-488.956C224.235,-500.775 226.973,-544 191.5,-544"/>
<polygon fill="black" stroke="black" points="255.667,-487.626 264.232,-489.525 259.583,-486.813 263.5,-486 263.5,-486 263.5,-486 259.583,-486.813 262.768,-482.475 255.667,-487.626 255.667,-487.626"/>
<ellipse fill="none" stroke="black" cx="252.534" cy="-488.276" rx="3.2" ry="3.2"/>
</g>
<!-- storages -->
<g id="node3" class="node"><title>storages</title>
<g id="a_node3"><a xlink:href="../../tables/storages.html" xlink:title="storages" target="_top">
<polygon fill="#ffffff" stroke="none" points="8,-160 8,-306 213,-306 213,-160 8,-160"/>
<polygon fill="#f5f5f5" stroke="none" points="8.5,-284 8.5,-306 213.5,-306 213.5,-284 8.5,-284"/>
<polygon fill="none" stroke="black" points="8.5,-284 8.5,-306 213.5,-306 213.5,-284 8.5,-284"/>
<text text-anchor="start" x="13.5" y="-293.2" font-family="Helvetica,sans-Serif" font-weight="bold" font-size="11.00">storages</text>
<text text-anchor="start" x="174.5" y="-292.2" font-family="Helvetica,sans-Serif" font-size="11.00">[table]</text>
<polygon fill="none" stroke="black" points="8.5,-262 8.5,-284 213.5,-284 213.5,-262 8.5,-262"/>
<image xlink:href="../../images/primaryKeys.png" width="11px" height="12px" preserveAspectRatio="xMinYMin meet" x="13.5" y="-279"/>
<text text-anchor="start" x="28.5" y="-270.2" font-family="Helvetica,sans-Serif" font-size="11.00">id</text>
<polygon fill="#ffffff" stroke="none" points="8.5,-240 8.5,-262 213.5,-262 213.5,-240 8.5,-240"/>
<polygon fill="none" stroke="black" points="8.5,-240 8.5,-262 213.5,-262 213.5,-240 8.5,-240"/>
<text text-anchor="start" x="28.5" y="-248.2" font-family="Helvetica,sans-Serif" font-size="11.00">name</text>
<polygon fill="#ffffff" stroke="none" points="8.5,-218 8.5,-240 213.5,-240 213.5,-218 8.5,-218"/>
<polygon fill="none" stroke="black" points="8.5,-218 8.5,-240 213.5,-240 213.5,-218 8.5,-218"/>
<text text-anchor="start" x="28.5" y="-226.2" font-family="Helvetica,sans-Serif" font-size="11.00">location</text>
<polygon fill="#ffffff" stroke="none" points="8.5,-196 8.5,-218 213.5,-218 213.5,-196 8.5,-196"/>
<polygon fill="none" stroke="black" points="8.5,-196 8.5,-218 213.5,-218 213.5,-196 8.5,-196"/>
<text text-anchor="start" x="28.5" y="-204.2" font-family="Helvetica,sans-Serif" font-size="11.00">ems_id</text>
<polygon fill="none" stroke="black" points="8.5,-178 8.5,-196 213.5,-196 213.5,-178 8.5,-178"/>
<text text-anchor="start" x="11.5" y="-184.2" font-family="Helvetica,sans-Serif" font-size="11.00">...</text>
<polygon fill="#ffffff" stroke="none" points="8.5,-160 8.5,-178 99.5,-178 99.5,-160 8.5,-160"/>
<polygon fill="none" stroke="black" points="8.5,-160 8.5,-178 99.5,-178 99.5,-160 8.5,-160"/>
<text text-anchor="start" x="11.5" y="-166.2" font-family="Helvetica,sans-Serif" font-size="11.00"> &#160;</text>
<polygon fill="#ffffff" stroke="none" points="99.5,-160 99.5,-178 151.5,-178 151.5,-160 99.5,-160"/>
<polygon fill="none" stroke="black" points="99.5,-160 99.5,-178 151.5,-178 151.5,-160 99.5,-160"/>
<text text-anchor="start" x="141.5" y="-166.2" font-family="Helvetica,sans-Serif" font-size="11.00"> &#160;</text>
<polygon fill="#ffffff" stroke="none" points="151.5,-160 151.5,-178 213.5,-178 213.5,-160 151.5,-160"/>
<polygon fill="none" stroke="black" points="151.5,-160 151.5,-178 213.5,-178 213.5,-160 151.5,-160"/>
<text text-anchor="start" x="193.5" y="-166.2" font-family="Helvetica,sans-Serif" font-size="11.00">8 &gt;</text>
</a>
</g>
</g>
<!-- disks&#45;&gt;storages -->
<g id="edge2" class="edge"><title>disks:storage_id:w&#45;&gt;storages:id:e</title>
<path fill="none" stroke="black" d="M249.591,-227.077C235.755,-239.976 239.794,-273 214.5,-273"/>
<polygon fill="black" stroke="black" points="255.985,-224.743 264.734,-225.382 259.742,-223.371 263.5,-222 263.5,-222 263.5,-222 259.742,-223.371 262.266,-218.618 255.985,-224.743 255.985,-224.743"/>
<ellipse fill="none" stroke="black" cx="252.979" cy="-225.84" rx="3.20001" ry="3.20001"/>
</g>
<!-- storage_profiles -->
<g id="node4" class="node"><title>storage_profiles</title>
<g id="a_node4"><a xlink:href="../../tables/storage_profiles.html" xlink:title="storage_profiles" target="_top">
<polygon fill="#ffffff" stroke="none" points="41.5,-59 41.5,-139 179.5,-139 179.5,-59 41.5,-59"/>
<polygon fill="#f5f5f5" stroke="none" points="41.5,-117 41.5,-139 179.5,-139 179.5,-117 41.5,-117"/>
<polygon fill="none" stroke="black" points="41.5,-117 41.5,-139 179.5,-139 179.5,-117 41.5,-117"/>
<text text-anchor="start" x="46.5" y="-126.2" font-family="Helvetica,sans-Serif" font-weight="bold" font-size="11.00">storage_profiles</text>
<text text-anchor="start" x="140.5" y="-125.2" font-family="Helvetica,sans-Serif" font-size="11.00">[table]</text>
<polygon fill="none" stroke="black" points="41.5,-95 41.5,-117 179.5,-117 179.5,-95 41.5,-95"/>
<image xlink:href="../../images/primaryKeys.png" width="11px" height="12px" preserveAspectRatio="xMinYMin meet" x="46.5" y="-112"/>
<text text-anchor="start" x="72.5" y="-103.2" font-family="Helvetica,sans-Serif" font-size="11.00">id</text>
<polygon fill="none" stroke="black" points="41.5,-77 41.5,-95 179.5,-95 179.5,-77 41.5,-77"/>
<text text-anchor="start" x="44.5" y="-83.2" font-family="Helvetica,sans-Serif" font-size="11.00">...</text>
<polygon fill="#ffffff" stroke="none" points="41.5,-59 41.5,-77 98.5,-77 98.5,-59 41.5,-59"/>
<polygon fill="none" stroke="black" points="41.5,-59 41.5,-77 98.5,-77 98.5,-59 41.5,-59"/>
<text text-anchor="start" x="44.5" y="-65.2" font-family="Helvetica,sans-Serif" font-size="11.00"> &#160;</text>
<polygon fill="#ffffff" stroke="none" points="98.5,-59 98.5,-77 133.5,-77 133.5,-59 98.5,-59"/>
<polygon fill="none" stroke="black" points="98.5,-59 98.5,-77 133.5,-77 133.5,-59 98.5,-59"/>
<text text-anchor="start" x="123.5" y="-65.2" font-family="Helvetica,sans-Serif" font-size="11.00"> &#160;</text>
<polygon fill="#ffffff" stroke="none" points="133.5,-59 133.5,-77 179.5,-77 179.5,-59 133.5,-59"/>
<polygon fill="none" stroke="black" points="133.5,-59 133.5,-77 179.5,-77 179.5,-59 133.5,-59"/>
<text text-anchor="start" x="159.5" y="-65.2" font-family="Helvetica,sans-Serif" font-size="11.00">3 &gt;</text>
</a>
</g>
</g>
<!-- disks&#45;&gt;storage_profiles -->
<g id="edge3" class="edge"><title>disks:storage_profile_id:w&#45;&gt;storage_profiles:id:e</title>
<path fill="none" stroke="black" d="M248.951,-153.722C220.474,-143.94 218.014,-106 180.5,-106"/>
<polygon fill="black" stroke="black" points="255.596,-154.762 262.943,-159.557 259.548,-155.381 263.5,-156 263.5,-156 263.5,-156 259.548,-155.381 264.057,-152.443 255.596,-154.762 255.596,-154.762"/>
<ellipse fill="none" stroke="black" cx="252.435" cy="-154.267" rx="3.2" ry="3.2"/>
</g>
<!-- partitions -->
<g id="node5" class="node"><title>partitions</title>
<g id="a_node5"><a xlink:href="../../tables/partitions.html" xlink:title="partitions" target="_top">
<polygon fill="#ffffff" stroke="none" points="562,-545 562,-691 676,-691 676,-545 562,-545"/>
<polygon fill="#f5f5f5" stroke="none" points="562,-669 562,-691 676,-691 676,-669 562,-669"/>
<polygon fill="none" stroke="black" points="562,-669 562,-691 676,-691 676,-669 562,-669"/>
<text text-anchor="start" x="567" y="-678.2" font-family="Helvetica,sans-Serif" font-weight="bold" font-size="11.00">partitions</text>
<text text-anchor="start" x="637" y="-677.2" font-family="Helvetica,sans-Serif" font-size="11.00">[table]</text>
<polygon fill="none" stroke="black" points="562,-647 562,-669 676,-669 676,-647 562,-647"/>
<image xlink:href="../../images/primaryKeys.png" width="11px" height="12px" preserveAspectRatio="xMinYMin meet" x="567" y="-664"/>
<text text-anchor="start" x="582" y="-655.2" font-family="Helvetica,sans-Serif" font-size="11.00">id</text>
<polygon fill="#ffffff" stroke="none" points="562,-625 562,-647 676,-647 676,-625 562,-625"/>
<polygon fill="none" stroke="black" points="562,-625 562,-647 676,-647 676,-625 562,-625"/>
<image xlink:href="../../images/foreignKeys.png" width="11px" height="12px" preserveAspectRatio="xMinYMin meet" x="567" y="-642"/>
<text text-anchor="start" x="582" y="-633.2" font-family="Helvetica,sans-Serif" font-size="11.00">disk_id</text>
<polygon fill="#ffffff" stroke="none" points="562,-603 562,-625 676,-625 676,-603 562,-603"/>
<polygon fill="none" stroke="black" points="562,-603 562,-625 676,-625 676,-603 562,-603"/>
<image xlink:href="../../images/foreignKeys.png" width="11px" height="12px" preserveAspectRatio="xMinYMin meet" x="567" y="-620"/>
<text text-anchor="start" x="582" y="-611.2" font-family="Helvetica,sans-Serif" font-size="11.00">hardware_id</text>
<polygon fill="#ffffff" stroke="none" points="562,-581 562,-603 676,-603 676,-581 562,-581"/>
<polygon fill="none" stroke="black" points="562,-581 562,-603 676,-603 676,-581 562,-581"/>
<text text-anchor="start" x="582" y="-589.2" font-family="Helvetica,sans-Serif" font-size="11.00">volume_group</text>
<polygon fill="none" stroke="black" points="562,-563 562,-581 676,-581 676,-563 562,-563"/>
<text text-anchor="start" x="565" y="-569.2" font-family="Helvetica,sans-Serif" font-size="11.00">...</text>
<polygon fill="#ffffff" stroke="none" points="562,-545 562,-563 617,-563 617,-545 562,-545"/>
<polygon fill="none" stroke="black" points="562,-545 562,-563 617,-563 617,-545 562,-545"/>
<text text-anchor="start" x="565" y="-551.2" font-family="Helvetica,sans-Serif" font-size="11.00">&lt; 2</text>
<polygon fill="#ffffff" stroke="none" points="617,-545 617,-563 646,-563 646,-545 617,-545"/>
<polygon fill="none" stroke="black" points="617,-545 617,-563 646,-563 646,-545 617,-545"/>
<text text-anchor="start" x="636" y="-551.2" font-family="Helvetica,sans-Serif" font-size="11.00"> &#160;</text>
<polygon fill="#ffffff" stroke="none" points="646,-545 646,-563 676,-563 676,-545 646,-545"/>
<polygon fill="none" stroke="black" points="646,-545 646,-563 676,-563 676,-545 646,-545"/>
<text text-anchor="start" x="666" y="-551.2" font-family="Helvetica,sans-Serif" font-size="11.00"> &#160;</text>
</a>
</g>
</g>
<!-- partitions&#45;&gt;disks -->
<g id="edge4" class="edge"><title>partitions:disk_id:w&#45;&gt;disks:id.type:e</title>
<path fill="none" stroke="black" d="M546.995,-631.095C534.598,-620.414 534.329,-596 512.5,-596"/>
<polygon fill="black" stroke="black" points="553.45,-633.356 559.81,-639.398 557.225,-634.678 561,-636 561,-636 561,-636 557.225,-634.678 562.19,-632.602 553.45,-633.356 553.45,-633.356"/>
<ellipse fill="none" stroke="black" cx="550.43" cy="-632.298" rx="3.20001" ry="3.20001"/>
</g>
<!-- partitions&#45;&gt;hardwares -->
<g id="edge5" class="edge"><title>partitions:hardware_id:w&#45;&gt;hardwares:id:e</title>
<path fill="none" stroke="black" d="M547.082,-618.504C538.756,-625.166 535.714,-637.362 521,-642 407.823,-677.676 358.052,-699.052 254,-642 208.703,-617.163 243.159,-544 191.5,-544"/>
<polygon fill="black" stroke="black" points="553.389,-616.463 562.108,-617.425 557.194,-615.231 561,-614 561,-614 561,-614 557.194,-615.231 559.892,-610.575 553.389,-616.463 553.389,-616.463"/>
<ellipse fill="none" stroke="black" cx="550.344" cy="-617.448" rx="3.20001" ry="3.20001"/>
</g>
</g>
</svg>
