<?xml version="1.0" encoding="UTF-8" standalone="no"?>
<!DOCTYPE svg PUBLIC "-//W3C//DTD SVG 1.1//EN"
 "http://www.w3.org/Graphics/SVG/1.1/DTD/svg11.dtd">
<!-- Generated by graphviz version 2.38.0 (20140413.2041)
 -->
<!-- Title: oneDegreeRelationshipsDiagram Pages: 1 -->
<svg width="495pt" height="373pt"
 viewBox="0.00 0.00 495.00 373.00" xmlns="http://www.w3.org/2000/svg" xmlns:xlink="http://www.w3.org/1999/xlink">
<g id="graph0" class="graph" transform="scale(1 1) rotate(0) translate(4 369)">
<title>oneDegreeRelationshipsDiagram</title>
<polygon fill="#ffffff" stroke="none" points="-4,4 -4,-369 491,-369 491,4 -4,4"/>
<text text-anchor="middle" x="74.5" y="-7.2" font-family="Helvetica,sans-Serif" font-size="11.00">Generated by SchemaSpy</text>
<!-- event_logs -->
<g id="node1" class="node"><title>event_logs</title>
<g id="a_node1"><a xlink:href="../../tables/event_logs.html" xlink:title="event_logs" target="_top">
<polygon fill="#ffffff" stroke="none" points="211,-75 211,-361 479,-361 479,-75 211,-75"/>
<polygon fill="#f5f5f5" stroke="none" points="213,-337 213,-359 477,-359 477,-337 213,-337"/>
<polygon fill="none" stroke="black" points="213,-337 213,-359 477,-359 477,-337 213,-337"/>
<text text-anchor="start" x="218" y="-346.2" font-family="Helvetica,sans-Serif" font-weight="bold" font-size="11.00">event_logs</text>
<text text-anchor="start" x="438" y="-345.2" font-family="Helvetica,sans-Serif" font-size="11.00">[table]</text>
<polygon fill="none" stroke="black" points="213,-315 213,-337 356,-337 356,-315 213,-315"/>
<image xlink:href="../../images/primaryKeys.png" width="11px" height="12px" preserveAspectRatio="xMinYMin meet" x="218" y="-332"/>
<text text-anchor="start" x="233" y="-323.2" font-family="Helvetica,sans-Serif" font-size="11.00">id</text>
<polygon fill="none" stroke="black" points="356,-315 356,-337 477,-337 477,-315 356,-315"/>
<text text-anchor="start" x="359" y="-323.2" font-family="Helvetica,sans-Serif" font-size="11.00">bigserial[19]</text>
<polygon fill="none" stroke="black" points="213,-293 213,-315 356,-315 356,-293 213,-293"/>
<text text-anchor="start" x="233" y="-301.2" font-family="Helvetica,sans-Serif" font-size="11.00">name</text>
<polygon fill="none" stroke="black" points="356,-293 356,-315 477,-315 477,-293 356,-293"/>
<text text-anchor="start" x="359" y="-301.2" font-family="Helvetica,sans-Serif" font-size="11.00">varchar[2147483647]</text>
<polygon fill="none" stroke="black" points="213,-271 213,-293 356,-293 356,-271 213,-271"/>
<text text-anchor="start" x="233" y="-279.2" font-family="Helvetica,sans-Serif" font-size="11.00">generated</text>
<polygon fill="none" stroke="black" points="356,-271 356,-293 477,-293 477,-271 356,-271"/>
<text text-anchor="start" x="359" y="-279.2" font-family="Helvetica,sans-Serif" font-size="11.00">timestamp[29,6]</text>
<polygon fill="none" stroke="black" points="213,-249 213,-271 356,-271 356,-249 213,-249"/>
<text text-anchor="start" x="233" y="-257.2" font-family="Helvetica,sans-Serif" font-size="11.00">message</text>
<polygon fill="none" stroke="black" points="356,-249 356,-271 477,-271 477,-249 356,-249"/>
<text text-anchor="start" x="359" y="-257.2" font-family="Helvetica,sans-Serif" font-size="11.00">text[2147483647]</text>
<polygon fill="none" stroke="black" points="213,-227 213,-249 356,-249 356,-227 213,-227"/>
<text text-anchor="start" x="233" y="-235.2" font-family="Helvetica,sans-Serif" font-size="11.00">uid</text>
<polygon fill="none" stroke="black" points="356,-227 356,-249 477,-249 477,-227 356,-227"/>
<text text-anchor="start" x="359" y="-235.2" font-family="Helvetica,sans-Serif" font-size="11.00">varchar[2147483647]</text>
<polygon fill="#ffffff" stroke="none" points="213,-205 213,-227 356,-227 356,-205 213,-205"/>
<polygon fill="none" stroke="black" points="213,-205 213,-227 356,-227 356,-205 213,-205"/>
<text text-anchor="start" x="233" y="-213.2" font-family="Helvetica,sans-Serif" font-size="11.00">event_id</text>
<polygon fill="none" stroke="black" points="356,-205 356,-227 477,-227 477,-205 356,-205"/>
<text text-anchor="start" x="359" y="-213.2" font-family="Helvetica,sans-Serif" font-size="11.00">int8[19]</text>
<polygon fill="none" stroke="black" points="213,-183 213,-205 356,-205 356,-183 213,-183"/>
<text text-anchor="start" x="233" y="-191.2" font-family="Helvetica,sans-Serif" font-size="11.00">computer_name</text>
<polygon fill="none" stroke="black" points="356,-183 356,-205 477,-205 477,-183 356,-183"/>
<text text-anchor="start" x="359" y="-191.2" font-family="Helvetica,sans-Serif" font-size="11.00">varchar[2147483647]</text>
<polygon fill="none" stroke="black" points="213,-161 213,-183 356,-183 356,-161 213,-161"/>
<text text-anchor="start" x="233" y="-169.2" font-family="Helvetica,sans-Serif" font-size="11.00">source</text>
<polygon fill="none" stroke="black" points="356,-161 356,-183 477,-183 477,-161 356,-161"/>
<text text-anchor="start" x="359" y="-169.2" font-family="Helvetica,sans-Serif" font-size="11.00">varchar[2147483647]</text>
<polygon fill="#ffffff" stroke="none" points="213,-139 213,-161 356,-161 356,-139 213,-139"/>
<polygon fill="none" stroke="black" points="213,-139 213,-161 356,-161 356,-139 213,-139"/>
<image xlink:href="../../images/foreignKeys.png" width="11px" height="12px" preserveAspectRatio="xMinYMin meet" x="218" y="-156"/>
<text text-anchor="start" x="233" y="-147.2" font-family="Helvetica,sans-Serif" font-size="11.00">operating_system_id</text>
<polygon fill="none" stroke="black" points="356,-139 356,-161 477,-161 477,-139 356,-139"/>
<text text-anchor="start" x="359" y="-147.2" font-family="Helvetica,sans-Serif" font-size="11.00">int8[19]</text>
<polygon fill="none" stroke="black" points="213,-117 213,-139 356,-139 356,-117 213,-117"/>
<text text-anchor="start" x="233" y="-125.2" font-family="Helvetica,sans-Serif" font-size="11.00">level</text>
<polygon fill="none" stroke="black" points="356,-117 356,-139 477,-139 477,-117 356,-117"/>
<text text-anchor="start" x="359" y="-125.2" font-family="Helvetica,sans-Serif" font-size="11.00">varchar[2147483647]</text>
<polygon fill="none" stroke="black" points="213,-95 213,-117 356,-117 356,-95 213,-95"/>
<text text-anchor="start" x="233" y="-103.2" font-family="Helvetica,sans-Serif" font-size="11.00">category</text>
<polygon fill="none" stroke="black" points="356,-95 356,-117 477,-117 477,-95 356,-95"/>
<text text-anchor="start" x="359" y="-103.2" font-family="Helvetica,sans-Serif" font-size="11.00">varchar[2147483647]</text>
<polygon fill="#ffffff" stroke="none" points="213,-77 213,-95 289,-95 289,-77 213,-77"/>
<polygon fill="none" stroke="black" points="213,-77 213,-95 289,-95 289,-77 213,-77"/>
<text text-anchor="start" x="216" y="-83.2" font-family="Helvetica,sans-Serif" font-size="11.00">&lt; 1</text>
<polygon fill="#ffffff" stroke="none" points="289,-77 289,-95 356,-95 356,-77 289,-77"/>
<polygon fill="none" stroke="black" points="289,-77 289,-95 356,-95 356,-77 289,-77"/>
<text text-anchor="start" x="346" y="-83.2" font-family="Helvetica,sans-Serif" font-size="11.00"> &#160;</text>
<polygon fill="#ffffff" stroke="none" points="356,-77 356,-95 477,-95 477,-77 356,-77"/>
<polygon fill="none" stroke="black" points="356,-77 356,-95 477,-95 477,-77 356,-77"/>
<text text-anchor="start" x="457" y="-83.2" font-family="Helvetica,sans-Serif" font-size="11.00">0 &gt;</text>
<polygon fill="none" stroke="black" stroke-width="2" points="212,-76 212,-360 478,-360 478,-76 212,-76"/>
</a>
</g>
</g>
<!-- operating_systems -->
<g id="node2" class="node"><title>operating_systems</title>
<g id="a_node2"><a xlink:href="../../tables/operating_systems.html" xlink:title="operating_systems" target="_top">
<polygon fill="#ffffff" stroke="none" points="8,-37 8,-183 162,-183 162,-37 8,-37"/>
<polygon fill="#f5f5f5" stroke="none" points="8,-161 8,-183 162,-183 162,-161 8,-161"/>
<polygon fill="none" stroke="black" points="8,-161 8,-183 162,-183 162,-161 8,-161"/>
<text text-anchor="start" x="13" y="-170.2" font-family="Helvetica,sans-Serif" font-weight="bold" font-size="11.00">operating_systems</text>
<text text-anchor="start" x="123" y="-169.2" font-family="Helvetica,sans-Serif" font-size="11.00">[table]</text>
<polygon fill="none" stroke="black" points="8,-139 8,-161 162,-161 162,-139 8,-139"/>
<image xlink:href="../../images/primaryKeys.png" width="11px" height="12px" preserveAspectRatio="xMinYMin meet" x="13" y="-156"/>
<text text-anchor="start" x="28" y="-147.2" font-family="Helvetica,sans-Serif" font-size="11.00">id</text>
<polygon fill="#ffffff" stroke="none" points="8,-117 8,-139 162,-139 162,-117 8,-117"/>
<polygon fill="none" stroke="black" points="8,-117 8,-139 162,-139 162,-117 8,-117"/>
<text text-anchor="start" x="28" y="-125.2" font-family="Helvetica,sans-Serif" font-size="11.00">vm_or_template_id</text>
<polygon fill="#ffffff" stroke="none" points="8,-95 8,-117 162,-117 162,-95 8,-95"/>
<polygon fill="none" stroke="black" points="8,-95 8,-117 162,-117 162,-95 8,-95"/>
<image xlink:href="../../images/foreignKeys.png" width="11px" height="12px" preserveAspectRatio="xMinYMin meet" x="13" y="-112"/>
<text text-anchor="start" x="28" y="-103.2" font-family="Helvetica,sans-Serif" font-size="11.00">host_id</text>
<polygon fill="#ffffff" stroke="none" points="8,-73 8,-95 162,-95 162,-73 8,-73"/>
<polygon fill="none" stroke="black" points="8,-73 8,-95 162,-95 162,-73 8,-73"/>
<image xlink:href="../../images/foreignKeys.png" width="11px" height="12px" preserveAspectRatio="xMinYMin meet" x="13" y="-90"/>
<text text-anchor="start" x="28" y="-81.2" font-family="Helvetica,sans-Serif" font-size="11.00">computer_system_id</text>
<polygon fill="none" stroke="black" points="8,-55 8,-73 162,-73 162,-55 8,-55"/>
<text text-anchor="start" x="11" y="-61.2" font-family="Helvetica,sans-Serif" font-size="11.00">...</text>
<polygon fill="#ffffff" stroke="none" points="8,-37 8,-55 78,-55 78,-37 8,-37"/>
<polygon fill="none" stroke="black" points="8,-37 8,-55 78,-55 78,-37 8,-37"/>
<text text-anchor="start" x="11" y="-43.2" font-family="Helvetica,sans-Serif" font-size="11.00">&lt; 2</text>
<polygon fill="#ffffff" stroke="none" points="78,-37 78,-55 115,-55 115,-37 78,-37"/>
<polygon fill="none" stroke="black" points="78,-37 78,-55 115,-55 115,-37 78,-37"/>
<text text-anchor="start" x="105" y="-43.2" font-family="Helvetica,sans-Serif" font-size="11.00"> &#160;</text>
<polygon fill="#ffffff" stroke="none" points="115,-37 115,-55 162,-55 162,-37 115,-37"/>
<polygon fill="none" stroke="black" points="115,-37 115,-55 162,-55 162,-37 115,-37"/>
<text text-anchor="start" x="142" y="-43.2" font-family="Helvetica,sans-Serif" font-size="11.00">2 &gt;</text>
</a>
</g>
</g>
<!-- event_logs&#45;&gt;operating_systems -->
<g id="edge1" class="edge"><title>event_logs:operating_system_id:w&#45;&gt;operating_systems:id:e</title>
<path fill="none" stroke="black" d="M197.491,-150C186.177,-150 178.993,-150 163,-150"/>
<polygon fill="black" stroke="black" points="204,-150 212,-153.6 208,-150 212,-150 212,-150 212,-150 208,-150 212,-146.4 204,-150 204,-150"/>
<ellipse fill="none" stroke="black" cx="200.8" cy="-150" rx="3.2" ry="3.2"/>
</g>
</g>
</svg>
