<?xml version="1.0" encoding="UTF-8" standalone="no"?>
<!DOCTYPE svg PUBLIC "-//W3C//DTD SVG 1.1//EN"
 "http://www.w3.org/Graphics/SVG/1.1/DTD/svg11.dtd">
<!-- Generated by graphviz version 2.38.0 (20140413.2041)
 -->
<!-- Title: twoDegreesRelationshipsDiagram Pages: 1 -->
<svg width="699pt" height="445pt"
 viewBox="0.00 0.00 699.00 445.00" xmlns="http://www.w3.org/2000/svg" xmlns:xlink="http://www.w3.org/1999/xlink">
<g id="graph0" class="graph" transform="scale(1 1) rotate(0) translate(4 441)">
<title>twoDegreesRelationshipsDiagram</title>
<polygon fill="#ffffff" stroke="none" points="-4,4 -4,-441 695,-441 695,4 -4,4"/>
<text text-anchor="middle" x="74.5" y="-7.2" font-family="Helvetica,sans-Serif" font-size="11.00">Generated by SchemaSpy</text>
<!-- event_logs -->
<g id="node1" class="node"><title>event_logs</title>
<g id="a_node1"><a xlink:href="../../tables/event_logs.html" xlink:title="event_logs" target="_top">
<polygon fill="#ffffff" stroke="none" points="415,-147 415,-433 683,-433 683,-147 415,-147"/>
<polygon fill="#f5f5f5" stroke="none" points="417,-409 417,-431 681,-431 681,-409 417,-409"/>
<polygon fill="none" stroke="black" points="417,-409 417,-431 681,-431 681,-409 417,-409"/>
<text text-anchor="start" x="422" y="-418.2" font-family="Helvetica,sans-Serif" font-weight="bold" font-size="11.00">event_logs</text>
<text text-anchor="start" x="642" y="-417.2" font-family="Helvetica,sans-Serif" font-size="11.00">[table]</text>
<polygon fill="none" stroke="black" points="417,-387 417,-409 560,-409 560,-387 417,-387"/>
<image xlink:href="../../images/primaryKeys.png" width="11px" height="12px" preserveAspectRatio="xMinYMin meet" x="422" y="-404"/>
<text text-anchor="start" x="437" y="-395.2" font-family="Helvetica,sans-Serif" font-size="11.00">id</text>
<polygon fill="none" stroke="black" points="560,-387 560,-409 681,-409 681,-387 560,-387"/>
<text text-anchor="start" x="563" y="-395.2" font-family="Helvetica,sans-Serif" font-size="11.00">bigserial[19]</text>
<polygon fill="none" stroke="black" points="417,-365 417,-387 560,-387 560,-365 417,-365"/>
<text text-anchor="start" x="437" y="-373.2" font-family="Helvetica,sans-Serif" font-size="11.00">name</text>
<polygon fill="none" stroke="black" points="560,-365 560,-387 681,-387 681,-365 560,-365"/>
<text text-anchor="start" x="563" y="-373.2" font-family="Helvetica,sans-Serif" font-size="11.00">varchar[2147483647]</text>
<polygon fill="none" stroke="black" points="417,-343 417,-365 560,-365 560,-343 417,-343"/>
<text text-anchor="start" x="437" y="-351.2" font-family="Helvetica,sans-Serif" font-size="11.00">generated</text>
<polygon fill="none" stroke="black" points="560,-343 560,-365 681,-365 681,-343 560,-343"/>
<text text-anchor="start" x="563" y="-351.2" font-family="Helvetica,sans-Serif" font-size="11.00">timestamp[29,6]</text>
<polygon fill="none" stroke="black" points="417,-321 417,-343 560,-343 560,-321 417,-321"/>
<text text-anchor="start" x="437" y="-329.2" font-family="Helvetica,sans-Serif" font-size="11.00">message</text>
<polygon fill="none" stroke="black" points="560,-321 560,-343 681,-343 681,-321 560,-321"/>
<text text-anchor="start" x="563" y="-329.2" font-family="Helvetica,sans-Serif" font-size="11.00">text[2147483647]</text>
<polygon fill="none" stroke="black" points="417,-299 417,-321 560,-321 560,-299 417,-299"/>
<text text-anchor="start" x="437" y="-307.2" font-family="Helvetica,sans-Serif" font-size="11.00">uid</text>
<polygon fill="none" stroke="black" points="560,-299 560,-321 681,-321 681,-299 560,-299"/>
<text text-anchor="start" x="563" y="-307.2" font-family="Helvetica,sans-Serif" font-size="11.00">varchar[2147483647]</text>
<polygon fill="#ffffff" stroke="none" points="417,-277 417,-299 560,-299 560,-277 417,-277"/>
<polygon fill="none" stroke="black" points="417,-277 417,-299 560,-299 560,-277 417,-277"/>
<text text-anchor="start" x="437" y="-285.2" font-family="Helvetica,sans-Serif" font-size="11.00">event_id</text>
<polygon fill="none" stroke="black" points="560,-277 560,-299 681,-299 681,-277 560,-277"/>
<text text-anchor="start" x="563" y="-285.2" font-family="Helvetica,sans-Serif" font-size="11.00">int8[19]</text>
<polygon fill="none" stroke="black" points="417,-255 417,-277 560,-277 560,-255 417,-255"/>
<text text-anchor="start" x="437" y="-263.2" font-family="Helvetica,sans-Serif" font-size="11.00">computer_name</text>
<polygon fill="none" stroke="black" points="560,-255 560,-277 681,-277 681,-255 560,-255"/>
<text text-anchor="start" x="563" y="-263.2" font-family="Helvetica,sans-Serif" font-size="11.00">varchar[2147483647]</text>
<polygon fill="none" stroke="black" points="417,-233 417,-255 560,-255 560,-233 417,-233"/>
<text text-anchor="start" x="437" y="-241.2" font-family="Helvetica,sans-Serif" font-size="11.00">source</text>
<polygon fill="none" stroke="black" points="560,-233 560,-255 681,-255 681,-233 560,-233"/>
<text text-anchor="start" x="563" y="-241.2" font-family="Helvetica,sans-Serif" font-size="11.00">varchar[2147483647]</text>
<polygon fill="#ffffff" stroke="none" points="417,-211 417,-233 560,-233 560,-211 417,-211"/>
<polygon fill="none" stroke="black" points="417,-211 417,-233 560,-233 560,-211 417,-211"/>
<image xlink:href="../../images/foreignKeys.png" width="11px" height="12px" preserveAspectRatio="xMinYMin meet" x="422" y="-228"/>
<text text-anchor="start" x="437" y="-219.2" font-family="Helvetica,sans-Serif" font-size="11.00">operating_system_id</text>
<polygon fill="none" stroke="black" points="560,-211 560,-233 681,-233 681,-211 560,-211"/>
<text text-anchor="start" x="563" y="-219.2" font-family="Helvetica,sans-Serif" font-size="11.00">int8[19]</text>
<polygon fill="none" stroke="black" points="417,-189 417,-211 560,-211 560,-189 417,-189"/>
<text text-anchor="start" x="437" y="-197.2" font-family="Helvetica,sans-Serif" font-size="11.00">level</text>
<polygon fill="none" stroke="black" points="560,-189 560,-211 681,-211 681,-189 560,-189"/>
<text text-anchor="start" x="563" y="-197.2" font-family="Helvetica,sans-Serif" font-size="11.00">varchar[2147483647]</text>
<polygon fill="none" stroke="black" points="417,-167 417,-189 560,-189 560,-167 417,-167"/>
<text text-anchor="start" x="437" y="-175.2" font-family="Helvetica,sans-Serif" font-size="11.00">category</text>
<polygon fill="none" stroke="black" points="560,-167 560,-189 681,-189 681,-167 560,-167"/>
<text text-anchor="start" x="563" y="-175.2" font-family="Helvetica,sans-Serif" font-size="11.00">varchar[2147483647]</text>
<polygon fill="#ffffff" stroke="none" points="417,-149 417,-167 493,-167 493,-149 417,-149"/>
<polygon fill="none" stroke="black" points="417,-149 417,-167 493,-167 493,-149 417,-149"/>
<text text-anchor="start" x="420" y="-155.2" font-family="Helvetica,sans-Serif" font-size="11.00">&lt; 1</text>
<polygon fill="#ffffff" stroke="none" points="493,-149 493,-167 560,-167 560,-149 493,-149"/>
<polygon fill="none" stroke="black" points="493,-149 493,-167 560,-167 560,-149 493,-149"/>
<text text-anchor="start" x="550" y="-155.2" font-family="Helvetica,sans-Serif" font-size="11.00"> &#160;</text>
<polygon fill="#ffffff" stroke="none" points="560,-149 560,-167 681,-167 681,-149 560,-149"/>
<polygon fill="none" stroke="black" points="560,-149 560,-167 681,-167 681,-149 560,-149"/>
<text text-anchor="start" x="661" y="-155.2" font-family="Helvetica,sans-Serif" font-size="11.00">0 &gt;</text>
<polygon fill="none" stroke="black" stroke-width="2" points="416,-148 416,-432 682,-432 682,-148 416,-148"/>
</a>
</g>
</g>
<!-- operating_systems -->
<g id="node2" class="node"><title>operating_systems</title>
<g id="a_node2"><a xlink:href="../../tables/operating_systems.html" xlink:title="operating_systems" target="_top">
<polygon fill="#ffffff" stroke="none" points="212,-45 212,-191 366,-191 366,-45 212,-45"/>
<polygon fill="#f5f5f5" stroke="none" points="212,-169 212,-191 366,-191 366,-169 212,-169"/>
<polygon fill="none" stroke="black" points="212,-169 212,-191 366,-191 366,-169 212,-169"/>
<text text-anchor="start" x="217" y="-178.2" font-family="Helvetica,sans-Serif" font-weight="bold" font-size="11.00">operating_systems</text>
<text text-anchor="start" x="327" y="-177.2" font-family="Helvetica,sans-Serif" font-size="11.00">[table]</text>
<polygon fill="none" stroke="black" points="212,-147 212,-169 366,-169 366,-147 212,-147"/>
<image xlink:href="../../images/primaryKeys.png" width="11px" height="12px" preserveAspectRatio="xMinYMin meet" x="217" y="-164"/>
<text text-anchor="start" x="232" y="-155.2" font-family="Helvetica,sans-Serif" font-size="11.00">id</text>
<polygon fill="#ffffff" stroke="none" points="212,-125 212,-147 366,-147 366,-125 212,-125"/>
<polygon fill="none" stroke="black" points="212,-125 212,-147 366,-147 366,-125 212,-125"/>
<text text-anchor="start" x="232" y="-133.2" font-family="Helvetica,sans-Serif" font-size="11.00">vm_or_template_id</text>
<polygon fill="#ffffff" stroke="none" points="212,-103 212,-125 366,-125 366,-103 212,-103"/>
<polygon fill="none" stroke="black" points="212,-103 212,-125 366,-125 366,-103 212,-103"/>
<image xlink:href="../../images/foreignKeys.png" width="11px" height="12px" preserveAspectRatio="xMinYMin meet" x="217" y="-120"/>
<text text-anchor="start" x="232" y="-111.2" font-family="Helvetica,sans-Serif" font-size="11.00">host_id</text>
<polygon fill="#ffffff" stroke="none" points="212,-81 212,-103 366,-103 366,-81 212,-81"/>
<polygon fill="none" stroke="black" points="212,-81 212,-103 366,-103 366,-81 212,-81"/>
<image xlink:href="../../images/foreignKeys.png" width="11px" height="12px" preserveAspectRatio="xMinYMin meet" x="217" y="-98"/>
<text text-anchor="start" x="232" y="-89.2" font-family="Helvetica,sans-Serif" font-size="11.00">computer_system_id</text>
<polygon fill="none" stroke="black" points="212,-63 212,-81 366,-81 366,-63 212,-63"/>
<text text-anchor="start" x="215" y="-69.2" font-family="Helvetica,sans-Serif" font-size="11.00">...</text>
<polygon fill="#ffffff" stroke="none" points="212,-45 212,-63 282,-63 282,-45 212,-45"/>
<polygon fill="none" stroke="black" points="212,-45 212,-63 282,-63 282,-45 212,-45"/>
<text text-anchor="start" x="215" y="-51.2" font-family="Helvetica,sans-Serif" font-size="11.00">&lt; 2</text>
<polygon fill="#ffffff" stroke="none" points="282,-45 282,-63 319,-63 319,-45 282,-45"/>
<polygon fill="none" stroke="black" points="282,-45 282,-63 319,-63 319,-45 282,-45"/>
<text text-anchor="start" x="309" y="-51.2" font-family="Helvetica,sans-Serif" font-size="11.00"> &#160;</text>
<polygon fill="#ffffff" stroke="none" points="319,-45 319,-63 366,-63 366,-45 319,-45"/>
<polygon fill="none" stroke="black" points="319,-45 319,-63 366,-63 366,-45 319,-45"/>
<text text-anchor="start" x="346" y="-51.2" font-family="Helvetica,sans-Serif" font-size="11.00">2 &gt;</text>
</a>
</g>
</g>
<!-- event_logs&#45;&gt;operating_systems -->
<g id="edge1" class="edge"><title>event_logs:operating_system_id:w&#45;&gt;operating_systems:id:e</title>
<path fill="none" stroke="black" d="M402.116,-216.978C386.234,-201.891 396.667,-158 367,-158"/>
<polygon fill="black" stroke="black" points="408.477,-219.279 414.775,-225.385 412.239,-220.639 416,-222 416,-222 416,-222 412.239,-220.639 417.225,-218.615 408.477,-219.279 408.477,-219.279"/>
<ellipse fill="none" stroke="black" cx="405.468" cy="-218.19" rx="3.20001" ry="3.20001"/>
</g>
<!-- computer_systems -->
<g id="node3" class="node"><title>computer_systems</title>
<g id="a_node3"><a xlink:href="../../tables/computer_systems.html" xlink:title="computer_systems" target="_top">
<polygon fill="#ffffff" stroke="none" points="8,-37 8,-95 163,-95 163,-37 8,-37"/>
<polygon fill="#f5f5f5" stroke="none" points="8.5,-73 8.5,-95 163.5,-95 163.5,-73 8.5,-73"/>
<polygon fill="none" stroke="black" points="8.5,-73 8.5,-95 163.5,-95 163.5,-73 8.5,-73"/>
<text text-anchor="start" x="13.5" y="-82.2" font-family="Helvetica,sans-Serif" font-weight="bold" font-size="11.00">computer_systems</text>
<text text-anchor="start" x="124.5" y="-81.2" font-family="Helvetica,sans-Serif" font-size="11.00">[table]</text>
<polygon fill="none" stroke="black" points="8.5,-55 8.5,-73 163.5,-73 163.5,-55 8.5,-55"/>
<text text-anchor="start" x="11.5" y="-61.2" font-family="Helvetica,sans-Serif" font-size="11.00">...</text>
<polygon fill="#ffffff" stroke="none" points="8.5,-37 8.5,-55 74.5,-55 74.5,-37 8.5,-37"/>
<polygon fill="none" stroke="black" points="8.5,-37 8.5,-55 74.5,-55 74.5,-37 8.5,-37"/>
<text text-anchor="start" x="11.5" y="-43.2" font-family="Helvetica,sans-Serif" font-size="11.00"> &#160;</text>
<polygon fill="#ffffff" stroke="none" points="74.5,-37 74.5,-55 113.5,-55 113.5,-37 74.5,-37"/>
<polygon fill="none" stroke="black" points="74.5,-37 74.5,-55 113.5,-55 113.5,-37 74.5,-37"/>
<text text-anchor="start" x="103.5" y="-43.2" font-family="Helvetica,sans-Serif" font-size="11.00"> &#160;</text>
<polygon fill="#ffffff" stroke="none" points="113.5,-37 113.5,-55 163.5,-55 163.5,-37 113.5,-37"/>
<polygon fill="none" stroke="black" points="113.5,-37 113.5,-55 163.5,-55 163.5,-37 113.5,-37"/>
<text text-anchor="start" x="143.5" y="-43.2" font-family="Helvetica,sans-Serif" font-size="11.00">2 &gt;</text>
</a>
</g>
</g>
<!-- operating_systems&#45;&gt;computer_systems -->
<g id="edge2" class="edge"><title>operating_systems:computer_system_id:w&#45;&gt;computer_systems:elipses:e</title>
<path fill="none" stroke="black" d="M196.949,-87.625C186.133,-79.75 182.593,-64 164.5,-64"/>
<polygon fill="black" stroke="black" points="203.362,-89.6216 209.93,-95.4372 207.181,-90.8108 211,-92 211,-92 211,-92 207.181,-90.8108 212.07,-88.5628 203.362,-89.6216 203.362,-89.6216"/>
<ellipse fill="none" stroke="black" cx="200.306" cy="-88.6702" rx="3.20001" ry="3.20001"/>
</g>
<!-- hosts -->
<g id="node4" class="node"><title>hosts</title>
<g id="a_node4"><a xlink:href="../../tables/hosts.html" xlink:title="hosts" target="_top">
<polygon fill="#ffffff" stroke="none" points="46,-116 46,-174 125,-174 125,-116 46,-116"/>
<polygon fill="#f5f5f5" stroke="none" points="46.5,-152 46.5,-174 125.5,-174 125.5,-152 46.5,-152"/>
<polygon fill="none" stroke="black" points="46.5,-152 46.5,-174 125.5,-174 125.5,-152 46.5,-152"/>
<text text-anchor="start" x="51.5" y="-161.2" font-family="Helvetica,sans-Serif" font-weight="bold" font-size="11.00">hosts</text>
<text text-anchor="start" x="86.5" y="-160.2" font-family="Helvetica,sans-Serif" font-size="11.00">[table]</text>
<polygon fill="none" stroke="black" points="46.5,-134 46.5,-152 125.5,-152 125.5,-134 46.5,-134"/>
<text text-anchor="start" x="49.5" y="-140.2" font-family="Helvetica,sans-Serif" font-size="11.00">...</text>
<polygon fill="#ffffff" stroke="none" points="46.5,-116 46.5,-134 75.5,-134 75.5,-116 46.5,-116"/>
<polygon fill="none" stroke="black" points="46.5,-116 46.5,-134 75.5,-134 75.5,-116 46.5,-116"/>
<text text-anchor="start" x="49.5" y="-122.2" font-family="Helvetica,sans-Serif" font-size="11.00">&lt; 3</text>
<polygon fill="#ffffff" stroke="none" points="75.5,-116 75.5,-134 91.5,-134 91.5,-116 75.5,-116"/>
<polygon fill="none" stroke="black" points="75.5,-116 75.5,-134 91.5,-134 91.5,-116 75.5,-116"/>
<text text-anchor="start" x="81.5" y="-122.2" font-family="Helvetica,sans-Serif" font-size="11.00"> &#160;</text>
<polygon fill="#ffffff" stroke="none" points="91.5,-116 91.5,-134 125.5,-134 125.5,-116 91.5,-116"/>
<polygon fill="none" stroke="black" points="91.5,-116 91.5,-134 125.5,-134 125.5,-116 91.5,-116"/>
<text text-anchor="start" x="98.5" y="-122.2" font-family="Helvetica,sans-Serif" font-size="11.00">15 &gt;</text>
</a>
</g>
</g>
<!-- operating_systems&#45;&gt;hosts -->
<g id="edge3" class="edge"><title>operating_systems:host_id:w&#45;&gt;hosts:elipses:e</title>
<path fill="none" stroke="black" d="M196.479,-115.478C169.256,-121.388 160.777,-143 126.5,-143"/>
<polygon fill="black" stroke="black" points="203.041,-114.81 211.365,-117.581 207.021,-114.405 211,-114 211,-114 211,-114 207.021,-114.405 210.635,-110.419 203.041,-114.81 203.041,-114.81"/>
<ellipse fill="none" stroke="black" cx="199.858" cy="-115.134" rx="3.2" ry="3.2"/>
</g>
<!-- os_processes -->
<g id="node5" class="node"><title>os_processes</title>
<g id="a_node5"><a xlink:href="../../tables/os_processes.html" xlink:title="os_processes" target="_top">
<polygon fill="#ffffff" stroke="none" points="489,-68 489,-126 609,-126 609,-68 489,-68"/>
<polygon fill="#f5f5f5" stroke="none" points="489,-104 489,-126 609,-126 609,-104 489,-104"/>
<polygon fill="none" stroke="black" points="489,-104 489,-126 609,-126 609,-104 489,-104"/>
<text text-anchor="start" x="494" y="-113.2" font-family="Helvetica,sans-Serif" font-weight="bold" font-size="11.00">os_processes</text>
<text text-anchor="start" x="570" y="-112.2" font-family="Helvetica,sans-Serif" font-size="11.00">[table]</text>
<polygon fill="none" stroke="black" points="489,-86 489,-104 609,-104 609,-86 489,-86"/>
<text text-anchor="start" x="492" y="-92.2" font-family="Helvetica,sans-Serif" font-size="11.00">...</text>
<polygon fill="#ffffff" stroke="none" points="489,-68 489,-86 547,-86 547,-68 489,-68"/>
<polygon fill="none" stroke="black" points="489,-68 489,-86 547,-86 547,-68 489,-68"/>
<text text-anchor="start" x="492" y="-74.2" font-family="Helvetica,sans-Serif" font-size="11.00">&lt; 1</text>
<polygon fill="#ffffff" stroke="none" points="547,-68 547,-86 578,-86 578,-68 547,-68"/>
<polygon fill="none" stroke="black" points="547,-68 547,-86 578,-86 578,-68 547,-68"/>
<text text-anchor="start" x="568" y="-74.2" font-family="Helvetica,sans-Serif" font-size="11.00"> &#160;</text>
<polygon fill="#ffffff" stroke="none" points="578,-68 578,-86 609,-86 609,-68 578,-68"/>
<polygon fill="none" stroke="black" points="578,-68 578,-86 609,-86 609,-68 578,-68"/>
<text text-anchor="start" x="599" y="-74.2" font-family="Helvetica,sans-Serif" font-size="11.00"> &#160;</text>
</a>
</g>
</g>
<!-- os_processes&#45;&gt;operating_systems -->
<g id="edge4" class="edge"><title>os_processes:elipses:w&#45;&gt;operating_systems:id:e</title>
<path fill="none" stroke="black" d="M473.592,-96.1649C445.699,-101.094 438.177,-120.733 407,-137 389.199,-146.288 387.079,-158 367,-158"/>
<polygon fill="black" stroke="black" points="480.026,-95.6448 488.29,-98.5883 484.013,-95.3224 488,-95 488,-95 488,-95 484.013,-95.3224 487.71,-91.4117 480.026,-95.6448 480.026,-95.6448"/>
<ellipse fill="none" stroke="black" cx="476.836" cy="-95.9027" rx="3.2" ry="3.2"/>
</g>
</g>
</svg>
