<?xml version="1.0" encoding="UTF-8" standalone="no"?>
<!DOCTYPE svg PUBLIC "-//W3C//DTD SVG 1.1//EN"
 "http://www.w3.org/Graphics/SVG/1.1/DTD/svg11.dtd">
<!-- Generated by graphviz version 2.38.0 (20140413.2041)
 -->
<!-- Title: oneDegreeRelationshipsDiagram Pages: 1 -->
<svg width="707pt" height="753pt"
 viewBox="0.00 0.00 707.00 753.00" xmlns="http://www.w3.org/2000/svg" xmlns:xlink="http://www.w3.org/1999/xlink">
<g id="graph0" class="graph" transform="scale(1 1) rotate(0) translate(4 749)">
<title>oneDegreeRelationshipsDiagram</title>
<polygon fill="#ffffff" stroke="none" points="-4,4 -4,-749 703,-749 703,4 -4,4"/>
<text text-anchor="middle" x="74.5" y="-7.2" font-family="Helvetica,sans-Serif" font-size="11.00">Generated by SchemaSpy</text>
<!-- ext_management_systems -->
<g id="node1" class="node"><title>ext_management_systems</title>
<g id="a_node1"><a xlink:href="../../tables/ext_management_systems.html" xlink:title="ext_management_systems" target="_top">
<polygon fill="#ffffff" stroke="none" points="380,-37 380,-741 691,-741 691,-37 380,-37"/>
<polygon fill="#f5f5f5" stroke="none" points="382.5,-717 382.5,-739 689.5,-739 689.5,-717 382.5,-717"/>
<polygon fill="none" stroke="black" points="382.5,-717 382.5,-739 689.5,-739 689.5,-717 382.5,-717"/>
<text text-anchor="start" x="387.5" y="-726.2" font-family="Helvetica,sans-Serif" font-weight="bold" font-size="11.00">ext_management_systems</text>
<text text-anchor="start" x="650.5" y="-725.2" font-family="Helvetica,sans-Serif" font-size="11.00">[table]</text>
<polygon fill="none" stroke="black" points="382.5,-695 382.5,-717 568.5,-717 568.5,-695 382.5,-695"/>
<image xlink:href="../../images/primaryKeys.png" width="11px" height="12px" preserveAspectRatio="xMinYMin meet" x="387.5" y="-712"/>
<text text-anchor="start" x="402.5" y="-703.2" font-family="Helvetica,sans-Serif" font-size="11.00">id</text>
<polygon fill="none" stroke="black" points="568.5,-695 568.5,-717 689.5,-717 689.5,-695 568.5,-695"/>
<text text-anchor="start" x="571.5" y="-703.2" font-family="Helvetica,sans-Serif" font-size="11.00">bigserial[19]</text>
<polygon fill="none" stroke="black" points="382.5,-673 382.5,-695 568.5,-695 568.5,-673 382.5,-673"/>
<text text-anchor="start" x="402.5" y="-681.2" font-family="Helvetica,sans-Serif" font-size="11.00">name</text>
<polygon fill="none" stroke="black" points="568.5,-673 568.5,-695 689.5,-695 689.5,-673 568.5,-673"/>
<text text-anchor="start" x="571.5" y="-681.2" font-family="Helvetica,sans-Serif" font-size="11.00">varchar[2147483647]</text>
<polygon fill="none" stroke="black" points="382.5,-651 382.5,-673 568.5,-673 568.5,-651 382.5,-651"/>
<text text-anchor="start" x="402.5" y="-659.2" font-family="Helvetica,sans-Serif" font-size="11.00">created_on</text>
<polygon fill="none" stroke="black" points="568.5,-651 568.5,-673 689.5,-673 689.5,-651 568.5,-651"/>
<text text-anchor="start" x="571.5" y="-659.2" font-family="Helvetica,sans-Serif" font-size="11.00">timestamp[29,6]</text>
<polygon fill="none" stroke="black" points="382.5,-629 382.5,-651 568.5,-651 568.5,-629 382.5,-629"/>
<text text-anchor="start" x="402.5" y="-637.2" font-family="Helvetica,sans-Serif" font-size="11.00">updated_on</text>
<polygon fill="none" stroke="black" points="568.5,-629 568.5,-651 689.5,-651 689.5,-629 568.5,-629"/>
<text text-anchor="start" x="571.5" y="-637.2" font-family="Helvetica,sans-Serif" font-size="11.00">timestamp[29,6]</text>
<polygon fill="#ffffff" stroke="none" points="382.5,-607 382.5,-629 568.5,-629 568.5,-607 382.5,-607"/>
<polygon fill="none" stroke="black" points="382.5,-607 382.5,-629 568.5,-629 568.5,-607 382.5,-607"/>
<text text-anchor="start" x="402.5" y="-615.2" font-family="Helvetica,sans-Serif" font-size="11.00">guid</text>
<polygon fill="none" stroke="black" points="568.5,-607 568.5,-629 689.5,-629 689.5,-607 568.5,-607"/>
<text text-anchor="start" x="571.5" y="-615.2" font-family="Helvetica,sans-Serif" font-size="11.00">varchar[2147483647]</text>
<polygon fill="none" stroke="black" points="382.5,-585 382.5,-607 568.5,-607 568.5,-585 382.5,-585"/>
<image xlink:href="../../images/foreignKeys.png" width="11px" height="12px" preserveAspectRatio="xMinYMin meet" x="387.5" y="-602"/>
<text text-anchor="start" x="402.5" y="-593.2" font-family="Helvetica,sans-Serif" font-size="11.00">zone_id</text>
<polygon fill="none" stroke="black" points="568.5,-585 568.5,-607 689.5,-607 689.5,-585 568.5,-585"/>
<text text-anchor="start" x="571.5" y="-593.2" font-family="Helvetica,sans-Serif" font-size="11.00">int8[19]</text>
<polygon fill="#ffffff" stroke="none" points="382.5,-563 382.5,-585 568.5,-585 568.5,-563 382.5,-563"/>
<polygon fill="none" stroke="black" points="382.5,-563 382.5,-585 568.5,-585 568.5,-563 382.5,-563"/>
<text text-anchor="start" x="402.5" y="-571.2" font-family="Helvetica,sans-Serif" font-size="11.00">type</text>
<polygon fill="none" stroke="black" points="568.5,-563 568.5,-585 689.5,-585 689.5,-563 568.5,-563"/>
<text text-anchor="start" x="571.5" y="-571.2" font-family="Helvetica,sans-Serif" font-size="11.00">varchar[2147483647]</text>
<polygon fill="none" stroke="black" points="382.5,-541 382.5,-563 568.5,-563 568.5,-541 382.5,-541"/>
<text text-anchor="start" x="402.5" y="-549.2" font-family="Helvetica,sans-Serif" font-size="11.00">api_version</text>
<polygon fill="none" stroke="black" points="568.5,-541 568.5,-563 689.5,-563 689.5,-541 568.5,-541"/>
<text text-anchor="start" x="571.5" y="-549.2" font-family="Helvetica,sans-Serif" font-size="11.00">varchar[2147483647]</text>
<polygon fill="none" stroke="black" points="382.5,-519 382.5,-541 568.5,-541 568.5,-519 382.5,-519"/>
<text text-anchor="start" x="402.5" y="-527.2" font-family="Helvetica,sans-Serif" font-size="11.00">uid_ems</text>
<polygon fill="none" stroke="black" points="568.5,-519 568.5,-541 689.5,-541 689.5,-519 568.5,-519"/>
<text text-anchor="start" x="571.5" y="-527.2" font-family="Helvetica,sans-Serif" font-size="11.00">varchar[2147483647]</text>
<polygon fill="none" stroke="black" points="382.5,-497 382.5,-519 568.5,-519 568.5,-497 382.5,-497"/>
<text text-anchor="start" x="402.5" y="-505.2" font-family="Helvetica,sans-Serif" font-size="11.00">host_default_vnc_port_start</text>
<polygon fill="none" stroke="black" points="568.5,-497 568.5,-519 689.5,-519 689.5,-497 568.5,-497"/>
<text text-anchor="start" x="571.5" y="-505.2" font-family="Helvetica,sans-Serif" font-size="11.00">int4[10]</text>
<polygon fill="none" stroke="black" points="382.5,-475 382.5,-497 568.5,-497 568.5,-475 382.5,-475"/>
<text text-anchor="start" x="402.5" y="-483.2" font-family="Helvetica,sans-Serif" font-size="11.00">host_default_vnc_port_end</text>
<polygon fill="none" stroke="black" points="568.5,-475 568.5,-497 689.5,-497 689.5,-475 568.5,-475"/>
<text text-anchor="start" x="571.5" y="-483.2" font-family="Helvetica,sans-Serif" font-size="11.00">int4[10]</text>
<polygon fill="none" stroke="black" points="382.5,-453 382.5,-475 568.5,-475 568.5,-453 382.5,-453"/>
<text text-anchor="start" x="402.5" y="-461.2" font-family="Helvetica,sans-Serif" font-size="11.00">provider_region</text>
<polygon fill="none" stroke="black" points="568.5,-453 568.5,-475 689.5,-475 689.5,-453 568.5,-453"/>
<text text-anchor="start" x="571.5" y="-461.2" font-family="Helvetica,sans-Serif" font-size="11.00">varchar[2147483647]</text>
<polygon fill="none" stroke="black" points="382.5,-431 382.5,-453 568.5,-453 568.5,-431 382.5,-431"/>
<text text-anchor="start" x="402.5" y="-439.2" font-family="Helvetica,sans-Serif" font-size="11.00">last_refresh_error</text>
<polygon fill="none" stroke="black" points="568.5,-431 568.5,-453 689.5,-453 689.5,-431 568.5,-431"/>
<text text-anchor="start" x="571.5" y="-439.2" font-family="Helvetica,sans-Serif" font-size="11.00">text[2147483647]</text>
<polygon fill="none" stroke="black" points="382.5,-409 382.5,-431 568.5,-431 568.5,-409 382.5,-409"/>
<text text-anchor="start" x="402.5" y="-417.2" font-family="Helvetica,sans-Serif" font-size="11.00">last_refresh_date</text>
<polygon fill="none" stroke="black" points="568.5,-409 568.5,-431 689.5,-431 689.5,-409 568.5,-409"/>
<text text-anchor="start" x="571.5" y="-417.2" font-family="Helvetica,sans-Serif" font-size="11.00">timestamp[29,6]</text>
<polygon fill="none" stroke="black" points="382.5,-387 382.5,-409 568.5,-409 568.5,-387 382.5,-387"/>
<image xlink:href="../../images/foreignKeys.png" width="11px" height="12px" preserveAspectRatio="xMinYMin meet" x="387.5" y="-404"/>
<text text-anchor="start" x="402.5" y="-395.2" font-family="Helvetica,sans-Serif" font-size="11.00">provider_id</text>
<polygon fill="none" stroke="black" points="568.5,-387 568.5,-409 689.5,-409 689.5,-387 568.5,-387"/>
<text text-anchor="start" x="571.5" y="-395.2" font-family="Helvetica,sans-Serif" font-size="11.00">int8[19]</text>
<polygon fill="none" stroke="black" points="382.5,-365 382.5,-387 568.5,-387 568.5,-365 382.5,-365"/>
<text text-anchor="start" x="402.5" y="-373.2" font-family="Helvetica,sans-Serif" font-size="11.00">realm</text>
<polygon fill="none" stroke="black" points="568.5,-365 568.5,-387 689.5,-387 689.5,-365 568.5,-365"/>
<text text-anchor="start" x="571.5" y="-373.2" font-family="Helvetica,sans-Serif" font-size="11.00">varchar[2147483647]</text>
<polygon fill="none" stroke="black" points="382.5,-343 382.5,-365 568.5,-365 568.5,-343 382.5,-343"/>
<image xlink:href="../../images/foreignKeys.png" width="11px" height="12px" preserveAspectRatio="xMinYMin meet" x="387.5" y="-360"/>
<text text-anchor="start" x="402.5" y="-351.2" font-family="Helvetica,sans-Serif" font-size="11.00">tenant_id</text>
<polygon fill="none" stroke="black" points="568.5,-343 568.5,-365 689.5,-365 689.5,-343 568.5,-343"/>
<text text-anchor="start" x="571.5" y="-351.2" font-family="Helvetica,sans-Serif" font-size="11.00">int8[19]</text>
<polygon fill="none" stroke="black" points="382.5,-321 382.5,-343 568.5,-343 568.5,-321 382.5,-321"/>
<text text-anchor="start" x="402.5" y="-329.2" font-family="Helvetica,sans-Serif" font-size="11.00">project</text>
<polygon fill="none" stroke="black" points="568.5,-321 568.5,-343 689.5,-343 689.5,-321 568.5,-321"/>
<text text-anchor="start" x="571.5" y="-329.2" font-family="Helvetica,sans-Serif" font-size="11.00">varchar[2147483647]</text>
<polygon fill="#ffffff" stroke="none" points="382.5,-299 382.5,-321 568.5,-321 568.5,-299 382.5,-299"/>
<polygon fill="none" stroke="black" points="382.5,-299 382.5,-321 568.5,-321 568.5,-299 382.5,-299"/>
<text text-anchor="start" x="402.5" y="-307.2" font-family="Helvetica,sans-Serif" font-size="11.00">parent_ems_id</text>
<polygon fill="none" stroke="black" points="568.5,-299 568.5,-321 689.5,-321 689.5,-299 568.5,-299"/>
<text text-anchor="start" x="571.5" y="-307.2" font-family="Helvetica,sans-Serif" font-size="11.00">int8[19]</text>
<polygon fill="none" stroke="black" points="382.5,-277 382.5,-299 568.5,-299 568.5,-277 382.5,-277"/>
<text text-anchor="start" x="402.5" y="-285.2" font-family="Helvetica,sans-Serif" font-size="11.00">subscription</text>
<polygon fill="none" stroke="black" points="568.5,-277 568.5,-299 689.5,-299 689.5,-277 568.5,-277"/>
<text text-anchor="start" x="571.5" y="-285.2" font-family="Helvetica,sans-Serif" font-size="11.00">varchar[2147483647]</text>
<polygon fill="none" stroke="black" points="382.5,-255 382.5,-277 568.5,-277 568.5,-255 382.5,-255"/>
<text text-anchor="start" x="402.5" y="-263.2" font-family="Helvetica,sans-Serif" font-size="11.00">last_metrics_error</text>
<polygon fill="none" stroke="black" points="568.5,-255 568.5,-277 689.5,-277 689.5,-255 568.5,-255"/>
<text text-anchor="start" x="571.5" y="-263.2" font-family="Helvetica,sans-Serif" font-size="11.00">text[2147483647]</text>
<polygon fill="none" stroke="black" points="382.5,-233 382.5,-255 568.5,-255 568.5,-233 382.5,-233"/>
<text text-anchor="start" x="402.5" y="-241.2" font-family="Helvetica,sans-Serif" font-size="11.00">last_metrics_update_date</text>
<polygon fill="none" stroke="black" points="568.5,-233 568.5,-255 689.5,-255 689.5,-233 568.5,-233"/>
<text text-anchor="start" x="571.5" y="-241.2" font-family="Helvetica,sans-Serif" font-size="11.00">timestamp[29,6]</text>
<polygon fill="none" stroke="black" points="382.5,-211 382.5,-233 568.5,-233 568.5,-211 382.5,-211"/>
<text text-anchor="start" x="402.5" y="-219.2" font-family="Helvetica,sans-Serif" font-size="11.00">last_metrics_success_date</text>
<polygon fill="none" stroke="black" points="568.5,-211 568.5,-233 689.5,-233 689.5,-211 568.5,-211"/>
<text text-anchor="start" x="571.5" y="-219.2" font-family="Helvetica,sans-Serif" font-size="11.00">timestamp[29,6]</text>
<polygon fill="none" stroke="black" points="382.5,-189 382.5,-211 568.5,-211 568.5,-189 382.5,-189"/>
<text text-anchor="start" x="402.5" y="-197.2" font-family="Helvetica,sans-Serif" font-size="11.00">tenant_mapping_enabled</text>
<polygon fill="none" stroke="black" points="568.5,-189 568.5,-211 689.5,-211 689.5,-189 568.5,-189"/>
<text text-anchor="start" x="571.5" y="-197.2" font-family="Helvetica,sans-Serif" font-size="11.00">bool[1]</text>
<polygon fill="none" stroke="black" points="382.5,-167 382.5,-189 568.5,-189 568.5,-167 382.5,-167"/>
<text text-anchor="start" x="402.5" y="-175.2" font-family="Helvetica,sans-Serif" font-size="11.00">enabled</text>
<polygon fill="none" stroke="black" points="568.5,-167 568.5,-189 689.5,-189 689.5,-167 568.5,-167"/>
<text text-anchor="start" x="571.5" y="-175.2" font-family="Helvetica,sans-Serif" font-size="11.00">bool[1]</text>
<polygon fill="none" stroke="black" points="382.5,-145 382.5,-167 568.5,-167 568.5,-145 382.5,-145"/>
<text text-anchor="start" x="402.5" y="-153.2" font-family="Helvetica,sans-Serif" font-size="11.00">options</text>
<polygon fill="none" stroke="black" points="568.5,-145 568.5,-167 689.5,-167 689.5,-145 568.5,-145"/>
<text text-anchor="start" x="571.5" y="-153.2" font-family="Helvetica,sans-Serif" font-size="11.00">text[2147483647]</text>
<polygon fill="#ffffff" stroke="none" points="382.5,-123 382.5,-145 568.5,-145 568.5,-123 382.5,-123"/>
<polygon fill="none" stroke="black" points="382.5,-123 382.5,-145 568.5,-145 568.5,-123 382.5,-123"/>
<text text-anchor="start" x="402.5" y="-131.2" font-family="Helvetica,sans-Serif" font-size="11.00">zone_before_pause_id</text>
<polygon fill="none" stroke="black" points="568.5,-123 568.5,-145 689.5,-145 689.5,-123 568.5,-123"/>
<text text-anchor="start" x="571.5" y="-131.2" font-family="Helvetica,sans-Serif" font-size="11.00">int8[19]</text>
<polygon fill="none" stroke="black" points="382.5,-101 382.5,-123 568.5,-123 568.5,-101 382.5,-101"/>
<text text-anchor="start" x="402.5" y="-109.2" font-family="Helvetica,sans-Serif" font-size="11.00">last_inventory_date</text>
<polygon fill="none" stroke="black" points="568.5,-101 568.5,-123 689.5,-123 689.5,-101 568.5,-101"/>
<text text-anchor="start" x="571.5" y="-109.2" font-family="Helvetica,sans-Serif" font-size="11.00">timestamp[29,6]</text>
<polygon fill="none" stroke="black" points="382.5,-79 382.5,-101 568.5,-101 568.5,-79 382.5,-79"/>
<text text-anchor="start" x="402.5" y="-87.2" font-family="Helvetica,sans-Serif" font-size="11.00">capabilities</text>
<polygon fill="none" stroke="black" points="568.5,-79 568.5,-101 689.5,-101 689.5,-79 568.5,-79"/>
<text text-anchor="start" x="571.5" y="-87.2" font-family="Helvetica,sans-Serif" font-size="11.00">jsonb[2147483647]</text>
<polygon fill="none" stroke="black" points="382.5,-57 382.5,-79 568.5,-79 568.5,-57 382.5,-57"/>
<text text-anchor="start" x="402.5" y="-65.2" font-family="Helvetica,sans-Serif" font-size="11.00">last_refresh_success_date</text>
<polygon fill="none" stroke="black" points="568.5,-57 568.5,-79 689.5,-79 689.5,-57 568.5,-57"/>
<text text-anchor="start" x="571.5" y="-65.2" font-family="Helvetica,sans-Serif" font-size="11.00">timestamp[29,6]</text>
<polygon fill="#ffffff" stroke="none" points="382.5,-39 382.5,-57 480.5,-57 480.5,-39 382.5,-39"/>
<polygon fill="none" stroke="black" points="382.5,-39 382.5,-57 480.5,-57 480.5,-39 382.5,-39"/>
<text text-anchor="start" x="385.5" y="-45.2" font-family="Helvetica,sans-Serif" font-size="11.00">&lt; 3</text>
<polygon fill="#ffffff" stroke="none" points="480.5,-39 480.5,-57 568.5,-57 568.5,-39 480.5,-39"/>
<polygon fill="none" stroke="black" points="480.5,-39 480.5,-57 568.5,-57 568.5,-39 480.5,-39"/>
<text text-anchor="start" x="558.5" y="-45.2" font-family="Helvetica,sans-Serif" font-size="11.00"> &#160;</text>
<polygon fill="#ffffff" stroke="none" points="568.5,-39 568.5,-57 689.5,-57 689.5,-39 568.5,-39"/>
<polygon fill="none" stroke="black" points="568.5,-39 568.5,-57 689.5,-57 689.5,-39 568.5,-39"/>
<text text-anchor="start" x="669.5" y="-45.2" font-family="Helvetica,sans-Serif" font-size="11.00">0 &gt;</text>
<polygon fill="none" stroke="black" stroke-width="2" points="381,-38 381,-740 690,-740 690,-38 381,-38"/>
</a>
</g>
</g>
<!-- providers -->
<g id="node2" class="node"><title>providers</title>
<g id="a_node2"><a xlink:href="../../tables/providers.html" xlink:title="providers" target="_top">
<polygon fill="#ffffff" stroke="none" points="228,-378 228,-524 331,-524 331,-378 228,-378"/>
<polygon fill="#f5f5f5" stroke="none" points="228.5,-502 228.5,-524 331.5,-524 331.5,-502 228.5,-502"/>
<polygon fill="none" stroke="black" points="228.5,-502 228.5,-524 331.5,-524 331.5,-502 228.5,-502"/>
<text text-anchor="start" x="233.5" y="-511.2" font-family="Helvetica,sans-Serif" font-weight="bold" font-size="11.00">providers</text>
<text text-anchor="start" x="292.5" y="-510.2" font-family="Helvetica,sans-Serif" font-size="11.00">[table]</text>
<polygon fill="none" stroke="black" points="228.5,-480 228.5,-502 331.5,-502 331.5,-480 228.5,-480"/>
<image xlink:href="../../images/primaryKeys.png" width="11px" height="12px" preserveAspectRatio="xMinYMin meet" x="233.5" y="-497"/>
<text text-anchor="start" x="255.5" y="-488.2" font-family="Helvetica,sans-Serif" font-size="11.00">id</text>
<polygon fill="#ffffff" stroke="none" points="228.5,-458 228.5,-480 331.5,-480 331.5,-458 228.5,-458"/>
<polygon fill="none" stroke="black" points="228.5,-458 228.5,-480 331.5,-480 331.5,-458 228.5,-458"/>
<text text-anchor="start" x="255.5" y="-466.2" font-family="Helvetica,sans-Serif" font-size="11.00">type</text>
<polygon fill="none" stroke="black" points="228.5,-436 228.5,-458 331.5,-458 331.5,-436 228.5,-436"/>
<image xlink:href="../../images/foreignKeys.png" width="11px" height="12px" preserveAspectRatio="xMinYMin meet" x="233.5" y="-453"/>
<text text-anchor="start" x="255.5" y="-444.2" font-family="Helvetica,sans-Serif" font-size="11.00">zone_id</text>
<polygon fill="none" stroke="black" points="228.5,-414 228.5,-436 331.5,-436 331.5,-414 228.5,-414"/>
<image xlink:href="../../images/foreignKeys.png" width="11px" height="12px" preserveAspectRatio="xMinYMin meet" x="233.5" y="-431"/>
<text text-anchor="start" x="255.5" y="-422.2" font-family="Helvetica,sans-Serif" font-size="11.00">tenant_id</text>
<polygon fill="none" stroke="black" points="228.5,-396 228.5,-414 331.5,-414 331.5,-396 228.5,-396"/>
<text text-anchor="start" x="231.5" y="-402.2" font-family="Helvetica,sans-Serif" font-size="11.00">...</text>
<polygon fill="#ffffff" stroke="none" points="228.5,-378 228.5,-396 273.5,-396 273.5,-378 228.5,-378"/>
<polygon fill="none" stroke="black" points="228.5,-378 228.5,-396 273.5,-396 273.5,-378 228.5,-378"/>
<text text-anchor="start" x="231.5" y="-384.2" font-family="Helvetica,sans-Serif" font-size="11.00">&lt; 2</text>
<polygon fill="#ffffff" stroke="none" points="273.5,-378 273.5,-396 297.5,-396 297.5,-378 273.5,-378"/>
<polygon fill="none" stroke="black" points="273.5,-378 273.5,-396 297.5,-396 297.5,-378 273.5,-378"/>
<text text-anchor="start" x="287.5" y="-384.2" font-family="Helvetica,sans-Serif" font-size="11.00"> &#160;</text>
<polygon fill="#ffffff" stroke="none" points="297.5,-378 297.5,-396 331.5,-396 331.5,-378 297.5,-378"/>
<polygon fill="none" stroke="black" points="297.5,-378 297.5,-396 331.5,-396 331.5,-378 297.5,-378"/>
<text text-anchor="start" x="311.5" y="-384.2" font-family="Helvetica,sans-Serif" font-size="11.00">1 &gt;</text>
</a>
</g>
</g>
<!-- ext_management_systems&#45;&gt;providers -->
<g id="edge1" class="edge"><title>ext_management_systems:provider_id:w&#45;&gt;providers:id:e</title>
<path fill="none" stroke="black" d="M367.586,-402.238C344.723,-420.431 373.197,-491 332.5,-491"/>
<polygon fill="black" stroke="black" points="373.847,-400.331 382.549,-401.444 377.674,-399.165 381.5,-398 381.5,-398 381.5,-398 377.674,-399.165 380.451,-394.556 373.847,-400.331 373.847,-400.331"/>
<ellipse fill="none" stroke="black" cx="370.786" cy="-401.263" rx="3.20001" ry="3.20001"/>
</g>
<!-- tenants -->
<g id="node3" class="node"><title>tenants</title>
<g id="a_node3"><a xlink:href="../../tables/tenants.html" xlink:title="tenants" target="_top">
<polygon fill="#ffffff" stroke="none" points="8,-233 8,-423 179,-423 179,-233 8,-233"/>
<polygon fill="#f5f5f5" stroke="none" points="8.5,-401 8.5,-423 179.5,-423 179.5,-401 8.5,-401"/>
<polygon fill="none" stroke="black" points="8.5,-401 8.5,-423 179.5,-423 179.5,-401 8.5,-401"/>
<text text-anchor="start" x="13.5" y="-410.2" font-family="Helvetica,sans-Serif" font-weight="bold" font-size="11.00">tenants</text>
<text text-anchor="start" x="140.5" y="-409.2" font-family="Helvetica,sans-Serif" font-size="11.00">[table]</text>
<polygon fill="none" stroke="black" points="8.5,-379 8.5,-401 179.5,-401 179.5,-379 8.5,-379"/>
<image xlink:href="../../images/primaryKeys.png" width="11px" height="12px" preserveAspectRatio="xMinYMin meet" x="13.5" y="-396"/>
<text text-anchor="start" x="28.5" y="-387.2" font-family="Helvetica,sans-Serif" font-size="11.00">id</text>
<polygon fill="#ffffff" stroke="none" points="8.5,-357 8.5,-379 179.5,-379 179.5,-357 8.5,-357"/>
<polygon fill="none" stroke="black" points="8.5,-357 8.5,-379 179.5,-379 179.5,-357 8.5,-357"/>
<text text-anchor="start" x="28.5" y="-365.2" font-family="Helvetica,sans-Serif" font-size="11.00">domain</text>
<polygon fill="#ffffff" stroke="none" points="8.5,-335 8.5,-357 179.5,-357 179.5,-335 8.5,-335"/>
<polygon fill="none" stroke="black" points="8.5,-335 8.5,-357 179.5,-357 179.5,-335 8.5,-335"/>
<text text-anchor="start" x="28.5" y="-343.2" font-family="Helvetica,sans-Serif" font-size="11.00">subdomain</text>
<polygon fill="#ffffff" stroke="none" points="8.5,-313 8.5,-335 179.5,-335 179.5,-313 8.5,-313"/>
<polygon fill="none" stroke="black" points="8.5,-313 8.5,-335 179.5,-335 179.5,-313 8.5,-313"/>
<text text-anchor="start" x="28.5" y="-321.2" font-family="Helvetica,sans-Serif" font-size="11.00">ancestry</text>
<polygon fill="#ffffff" stroke="none" points="8.5,-291 8.5,-313 179.5,-313 179.5,-291 8.5,-291"/>
<polygon fill="none" stroke="black" points="8.5,-291 8.5,-313 179.5,-313 179.5,-291 8.5,-291"/>
<text text-anchor="start" x="28.5" y="-299.2" font-family="Helvetica,sans-Serif" font-size="11.00">source_type</text>
<polygon fill="#ffffff" stroke="none" points="8.5,-269 8.5,-291 179.5,-291 179.5,-269 8.5,-269"/>
<polygon fill="none" stroke="black" points="8.5,-269 8.5,-291 179.5,-291 179.5,-269 8.5,-269"/>
<text text-anchor="start" x="28.5" y="-277.2" font-family="Helvetica,sans-Serif" font-size="11.00">source_id</text>
<polygon fill="none" stroke="black" points="8.5,-251 8.5,-269 179.5,-269 179.5,-251 8.5,-251"/>
<text text-anchor="start" x="11.5" y="-257.2" font-family="Helvetica,sans-Serif" font-size="11.00">...</text>
<polygon fill="#ffffff" stroke="none" points="8.5,-233 8.5,-251 78.5,-251 78.5,-233 8.5,-233"/>
<polygon fill="none" stroke="black" points="8.5,-233 8.5,-251 78.5,-251 78.5,-233 8.5,-233"/>
<text text-anchor="start" x="11.5" y="-239.2" font-family="Helvetica,sans-Serif" font-size="11.00"> &#160;</text>
<polygon fill="#ffffff" stroke="none" points="78.5,-233 78.5,-251 120.5,-251 120.5,-233 78.5,-233"/>
<polygon fill="none" stroke="black" points="78.5,-233 78.5,-251 120.5,-251 120.5,-233 78.5,-233"/>
<text text-anchor="start" x="110.5" y="-239.2" font-family="Helvetica,sans-Serif" font-size="11.00"> &#160;</text>
<polygon fill="#ffffff" stroke="none" points="120.5,-233 120.5,-251 179.5,-251 179.5,-233 120.5,-233"/>
<polygon fill="none" stroke="black" points="120.5,-233 120.5,-251 179.5,-251 179.5,-233 120.5,-233"/>
<text text-anchor="start" x="152.5" y="-239.2" font-family="Helvetica,sans-Serif" font-size="11.00">20 &gt;</text>
</a>
</g>
</g>
<!-- ext_management_systems&#45;&gt;tenants -->
<g id="edge2" class="edge"><title>ext_management_systems:tenant_id:w&#45;&gt;tenants:id:e</title>
<path fill="none" stroke="black" d="M367.031,-353.907C306.322,-353.14 284.042,-348.377 220,-368 200.787,-373.887 200.595,-390 180.5,-390"/>
<polygon fill="black" stroke="black" points="373.5,-353.948 381.477,-357.6 377.5,-353.974 381.5,-354 381.5,-354 381.5,-354 377.5,-353.974 381.523,-350.4 373.5,-353.948 373.5,-353.948"/>
<ellipse fill="none" stroke="black" cx="370.3" cy="-353.928" rx="3.2" ry="3.2"/>
</g>
<!-- zones -->
<g id="node4" class="node"><title>zones</title>
<g id="a_node4"><a xlink:href="../../tables/zones.html" xlink:title="zones" target="_top">
<polygon fill="#ffffff" stroke="none" points="34.5,-479 34.5,-559 152.5,-559 152.5,-479 34.5,-479"/>
<polygon fill="#f5f5f5" stroke="none" points="34.5,-537 34.5,-559 152.5,-559 152.5,-537 34.5,-537"/>
<polygon fill="none" stroke="black" points="34.5,-537 34.5,-559 152.5,-559 152.5,-537 34.5,-537"/>
<text text-anchor="start" x="39.5" y="-546.2" font-family="Helvetica,sans-Serif" font-weight="bold" font-size="11.00">zones</text>
<text text-anchor="start" x="113.5" y="-545.2" font-family="Helvetica,sans-Serif" font-size="11.00">[table]</text>
<polygon fill="none" stroke="black" points="34.5,-515 34.5,-537 152.5,-537 152.5,-515 34.5,-515"/>
<image xlink:href="../../images/primaryKeys.png" width="11px" height="12px" preserveAspectRatio="xMinYMin meet" x="39.5" y="-532"/>
<text text-anchor="start" x="54.5" y="-523.2" font-family="Helvetica,sans-Serif" font-size="11.00">id</text>
<polygon fill="none" stroke="black" points="34.5,-497 34.5,-515 152.5,-515 152.5,-497 34.5,-497"/>
<text text-anchor="start" x="37.5" y="-503.2" font-family="Helvetica,sans-Serif" font-size="11.00">...</text>
<polygon fill="#ffffff" stroke="none" points="34.5,-479 34.5,-497 81.5,-497 81.5,-479 34.5,-479"/>
<polygon fill="none" stroke="black" points="34.5,-479 34.5,-497 81.5,-497 81.5,-479 34.5,-479"/>
<text text-anchor="start" x="37.5" y="-485.2" font-family="Helvetica,sans-Serif" font-size="11.00"> &#160;</text>
<polygon fill="#ffffff" stroke="none" points="81.5,-479 81.5,-497 111.5,-497 111.5,-479 81.5,-479"/>
<polygon fill="none" stroke="black" points="81.5,-479 81.5,-497 111.5,-497 111.5,-479 81.5,-479"/>
<text text-anchor="start" x="101.5" y="-485.2" font-family="Helvetica,sans-Serif" font-size="11.00"> &#160;</text>
<polygon fill="#ffffff" stroke="none" points="111.5,-479 111.5,-497 152.5,-497 152.5,-479 111.5,-479"/>
<polygon fill="none" stroke="black" points="111.5,-479 111.5,-497 152.5,-497 152.5,-479 111.5,-479"/>
<text text-anchor="start" x="132.5" y="-485.2" font-family="Helvetica,sans-Serif" font-size="11.00">5 &gt;</text>
</a>
</g>
</g>
<!-- ext_management_systems&#45;&gt;zones -->
<g id="edge3" class="edge"><title>ext_management_systems:zone_id:w&#45;&gt;zones:id:e</title>
<path fill="none" stroke="black" d="M366.882,-595.534C273.761,-589.461 254.429,-526 153.5,-526"/>
<polygon fill="black" stroke="black" points="373.504,-595.745 381.385,-599.598 377.502,-595.873 381.5,-596 381.5,-596 381.5,-596 377.502,-595.873 381.615,-592.402 373.504,-595.745 373.504,-595.745"/>
<ellipse fill="none" stroke="black" cx="370.306" cy="-595.643" rx="3.2" ry="3.2"/>
</g>
<!-- providers&#45;&gt;tenants -->
<g id="edge4" class="edge"><title>providers:tenant_id:w&#45;&gt;tenants:id:e</title>
<path fill="none" stroke="black" d="M213.516,-420.133C202.131,-410.516 200.44,-390 180.5,-390"/>
<polygon fill="black" stroke="black" points="219.944,-422.37 226.317,-428.4 223.722,-423.685 227.5,-425 227.5,-425 227.5,-425 223.722,-423.685 228.683,-421.6 219.944,-422.37 219.944,-422.37"/>
<ellipse fill="none" stroke="black" cx="216.922" cy="-421.319" rx="3.20001" ry="3.20001"/>
</g>
<!-- providers&#45;&gt;zones -->
<g id="edge5" class="edge"><title>providers:zone_id:w&#45;&gt;zones:id:e</title>
<path fill="none" stroke="black" d="M213.258,-450C183.633,-464.431 195.971,-526 153.5,-526"/>
<polygon fill="black" stroke="black" points="219.672,-448.649 228.242,-450.523 223.586,-447.825 227.5,-447 227.5,-447 227.5,-447 223.586,-447.825 226.758,-443.477 219.672,-448.649 219.672,-448.649"/>
<ellipse fill="none" stroke="black" cx="216.541" cy="-449.309" rx="3.2" ry="3.2"/>
</g>
</g>
</svg>
