<?xml version="1.0" encoding="UTF-8" standalone="no"?>
<!DOCTYPE svg PUBLIC "-//W3C//DTD SVG 1.1//EN"
 "http://www.w3.org/Graphics/SVG/1.1/DTD/svg11.dtd">
<!-- Generated by graphviz version 2.38.0 (20140413.2041)
 -->
<!-- Title: twoDegreesRelationshipsDiagram Pages: 1 -->
<svg width="651pt" height="931pt"
 viewBox="0.00 0.00 651.00 931.00" xmlns="http://www.w3.org/2000/svg" xmlns:xlink="http://www.w3.org/1999/xlink">
<g id="graph0" class="graph" transform="scale(1 1) rotate(0) translate(4 927)">
<title>twoDegreesRelationshipsDiagram</title>
<polygon fill="#ffffff" stroke="none" points="-4,4 -4,-927 647,-927 647,4 -4,4"/>
<text text-anchor="middle" x="74.5" y="-7.2" font-family="Helvetica,sans-Serif" font-size="11.00">Generated by SchemaSpy</text>
<!-- filesystems -->
<g id="node1" class="node"><title>filesystems</title>
<g id="a_node1"><a xlink:href="../../tables/filesystems.html" xlink:title="filesystems" target="_top">
<polygon fill="#ffffff" stroke="none" points="346,-290 346,-840 635,-840 635,-290 346,-290"/>
<polygon fill="#f5f5f5" stroke="none" points="348.5,-816 348.5,-838 633.5,-838 633.5,-816 348.5,-816"/>
<polygon fill="none" stroke="black" points="348.5,-816 348.5,-838 633.5,-838 633.5,-816 348.5,-816"/>
<text text-anchor="start" x="353.5" y="-825.2" font-family="Helvetica,sans-Serif" font-weight="bold" font-size="11.00">filesystems</text>
<text text-anchor="start" x="594.5" y="-824.2" font-family="Helvetica,sans-Serif" font-size="11.00">[table]</text>
<polygon fill="none" stroke="black" points="348.5,-794 348.5,-816 512.5,-816 512.5,-794 348.5,-794"/>
<image xlink:href="../../images/primaryKeys.png" width="11px" height="12px" preserveAspectRatio="xMinYMin meet" x="353.5" y="-811"/>
<text text-anchor="start" x="368.5" y="-802.2" font-family="Helvetica,sans-Serif" font-size="11.00">id</text>
<polygon fill="none" stroke="black" points="512.5,-794 512.5,-816 633.5,-816 633.5,-794 512.5,-794"/>
<text text-anchor="start" x="515.5" y="-802.2" font-family="Helvetica,sans-Serif" font-size="11.00">bigserial[19]</text>
<polygon fill="none" stroke="black" points="348.5,-772 348.5,-794 512.5,-794 512.5,-772 348.5,-772"/>
<text text-anchor="start" x="368.5" y="-780.2" font-family="Helvetica,sans-Serif" font-size="11.00">name</text>
<polygon fill="none" stroke="black" points="512.5,-772 512.5,-794 633.5,-794 633.5,-772 512.5,-772"/>
<text text-anchor="start" x="515.5" y="-780.2" font-family="Helvetica,sans-Serif" font-size="11.00">text[2147483647]</text>
<polygon fill="none" stroke="black" points="348.5,-750 348.5,-772 512.5,-772 512.5,-750 348.5,-750"/>
<text text-anchor="start" x="368.5" y="-758.2" font-family="Helvetica,sans-Serif" font-size="11.00">md5</text>
<polygon fill="none" stroke="black" points="512.5,-750 512.5,-772 633.5,-772 633.5,-750 512.5,-750"/>
<text text-anchor="start" x="515.5" y="-758.2" font-family="Helvetica,sans-Serif" font-size="11.00">varchar[2147483647]</text>
<polygon fill="none" stroke="black" points="348.5,-728 348.5,-750 512.5,-750 512.5,-728 348.5,-728"/>
<text text-anchor="start" x="368.5" y="-736.2" font-family="Helvetica,sans-Serif" font-size="11.00">size</text>
<polygon fill="none" stroke="black" points="512.5,-728 512.5,-750 633.5,-750 633.5,-728 512.5,-728"/>
<text text-anchor="start" x="515.5" y="-736.2" font-family="Helvetica,sans-Serif" font-size="11.00">int8[19]</text>
<polygon fill="none" stroke="black" points="348.5,-706 348.5,-728 512.5,-728 512.5,-706 348.5,-706"/>
<text text-anchor="start" x="368.5" y="-714.2" font-family="Helvetica,sans-Serif" font-size="11.00">atime</text>
<polygon fill="none" stroke="black" points="512.5,-706 512.5,-728 633.5,-728 633.5,-706 512.5,-706"/>
<text text-anchor="start" x="515.5" y="-714.2" font-family="Helvetica,sans-Serif" font-size="11.00">timestamp[29,6]</text>
<polygon fill="none" stroke="black" points="348.5,-684 348.5,-706 512.5,-706 512.5,-684 348.5,-684"/>
<text text-anchor="start" x="368.5" y="-692.2" font-family="Helvetica,sans-Serif" font-size="11.00">mtime</text>
<polygon fill="none" stroke="black" points="512.5,-684 512.5,-706 633.5,-706 633.5,-684 512.5,-684"/>
<text text-anchor="start" x="515.5" y="-692.2" font-family="Helvetica,sans-Serif" font-size="11.00">timestamp[29,6]</text>
<polygon fill="none" stroke="black" points="348.5,-662 348.5,-684 512.5,-684 512.5,-662 348.5,-662"/>
<text text-anchor="start" x="368.5" y="-670.2" font-family="Helvetica,sans-Serif" font-size="11.00">ctime</text>
<polygon fill="none" stroke="black" points="512.5,-662 512.5,-684 633.5,-684 633.5,-662 512.5,-662"/>
<text text-anchor="start" x="515.5" y="-670.2" font-family="Helvetica,sans-Serif" font-size="11.00">timestamp[29,6]</text>
<polygon fill="none" stroke="black" points="348.5,-640 348.5,-662 512.5,-662 512.5,-640 348.5,-640"/>
<text text-anchor="start" x="368.5" y="-648.2" font-family="Helvetica,sans-Serif" font-size="11.00">rsc_type</text>
<polygon fill="none" stroke="black" points="512.5,-640 512.5,-662 633.5,-662 633.5,-640 512.5,-640"/>
<text text-anchor="start" x="515.5" y="-648.2" font-family="Helvetica,sans-Serif" font-size="11.00">varchar[2147483647]</text>
<polygon fill="none" stroke="black" points="348.5,-618 348.5,-640 512.5,-640 512.5,-618 348.5,-618"/>
<text text-anchor="start" x="368.5" y="-626.2" font-family="Helvetica,sans-Serif" font-size="11.00">base_name</text>
<polygon fill="none" stroke="black" points="512.5,-618 512.5,-640 633.5,-640 633.5,-618 512.5,-618"/>
<text text-anchor="start" x="515.5" y="-626.2" font-family="Helvetica,sans-Serif" font-size="11.00">text[2147483647]</text>
<polygon fill="#ffffff" stroke="none" points="348.5,-596 348.5,-618 512.5,-618 512.5,-596 348.5,-596"/>
<polygon fill="none" stroke="black" points="348.5,-596 348.5,-618 512.5,-618 512.5,-596 348.5,-596"/>
<image xlink:href="../../images/foreignKeys.png" width="11px" height="12px" preserveAspectRatio="xMinYMin meet" x="353.5" y="-613"/>
<text text-anchor="start" x="368.5" y="-604.2" font-family="Helvetica,sans-Serif" font-size="11.00">miq_set_id</text>
<polygon fill="none" stroke="black" points="512.5,-596 512.5,-618 633.5,-618 633.5,-596 512.5,-596"/>
<text text-anchor="start" x="515.5" y="-604.2" font-family="Helvetica,sans-Serif" font-size="11.00">int8[19]</text>
<polygon fill="#ffffff" stroke="none" points="348.5,-574 348.5,-596 512.5,-596 512.5,-574 348.5,-574"/>
<polygon fill="none" stroke="black" points="348.5,-574 348.5,-596 512.5,-596 512.5,-574 348.5,-574"/>
<image xlink:href="../../images/foreignKeys.png" width="11px" height="12px" preserveAspectRatio="xMinYMin meet" x="353.5" y="-591"/>
<text text-anchor="start" x="368.5" y="-582.2" font-family="Helvetica,sans-Serif" font-size="11.00">scan_item_id</text>
<polygon fill="none" stroke="black" points="512.5,-574 512.5,-596 633.5,-596 633.5,-574 512.5,-574"/>
<text text-anchor="start" x="515.5" y="-582.2" font-family="Helvetica,sans-Serif" font-size="11.00">int8[19]</text>
<polygon fill="none" stroke="black" points="348.5,-552 348.5,-574 512.5,-574 512.5,-552 348.5,-552"/>
<text text-anchor="start" x="368.5" y="-560.2" font-family="Helvetica,sans-Serif" font-size="11.00">created_on</text>
<polygon fill="none" stroke="black" points="512.5,-552 512.5,-574 633.5,-574 633.5,-552 512.5,-552"/>
<text text-anchor="start" x="515.5" y="-560.2" font-family="Helvetica,sans-Serif" font-size="11.00">timestamp[29,6]</text>
<polygon fill="none" stroke="black" points="348.5,-530 348.5,-552 512.5,-552 512.5,-530 348.5,-530"/>
<text text-anchor="start" x="368.5" y="-538.2" font-family="Helvetica,sans-Serif" font-size="11.00">updated_on</text>
<polygon fill="none" stroke="black" points="512.5,-530 512.5,-552 633.5,-552 633.5,-530 512.5,-530"/>
<text text-anchor="start" x="515.5" y="-538.2" font-family="Helvetica,sans-Serif" font-size="11.00">timestamp[29,6]</text>
<polygon fill="none" stroke="black" points="348.5,-508 348.5,-530 512.5,-530 512.5,-508 348.5,-508"/>
<text text-anchor="start" x="368.5" y="-516.2" font-family="Helvetica,sans-Serif" font-size="11.00">file_version</text>
<polygon fill="none" stroke="black" points="512.5,-508 512.5,-530 633.5,-530 633.5,-508 512.5,-508"/>
<text text-anchor="start" x="515.5" y="-516.2" font-family="Helvetica,sans-Serif" font-size="11.00">varchar[2147483647]</text>
<polygon fill="none" stroke="black" points="348.5,-486 348.5,-508 512.5,-508 512.5,-486 348.5,-486"/>
<text text-anchor="start" x="368.5" y="-494.2" font-family="Helvetica,sans-Serif" font-size="11.00">product_version</text>
<polygon fill="none" stroke="black" points="512.5,-486 512.5,-508 633.5,-508 633.5,-486 512.5,-486"/>
<text text-anchor="start" x="515.5" y="-494.2" font-family="Helvetica,sans-Serif" font-size="11.00">varchar[2147483647]</text>
<polygon fill="none" stroke="black" points="348.5,-464 348.5,-486 512.5,-486 512.5,-464 348.5,-464"/>
<text text-anchor="start" x="368.5" y="-472.2" font-family="Helvetica,sans-Serif" font-size="11.00">file_version_header</text>
<polygon fill="none" stroke="black" points="512.5,-464 512.5,-486 633.5,-486 633.5,-464 512.5,-464"/>
<text text-anchor="start" x="515.5" y="-472.2" font-family="Helvetica,sans-Serif" font-size="11.00">varchar[2147483647]</text>
<polygon fill="none" stroke="black" points="348.5,-442 348.5,-464 512.5,-464 512.5,-442 348.5,-442"/>
<text text-anchor="start" x="368.5" y="-450.2" font-family="Helvetica,sans-Serif" font-size="11.00">product_version_header</text>
<polygon fill="none" stroke="black" points="512.5,-442 512.5,-464 633.5,-464 633.5,-442 512.5,-442"/>
<text text-anchor="start" x="515.5" y="-450.2" font-family="Helvetica,sans-Serif" font-size="11.00">varchar[2147483647]</text>
<polygon fill="#ffffff" stroke="none" points="348.5,-420 348.5,-442 512.5,-442 512.5,-420 348.5,-420"/>
<polygon fill="none" stroke="black" points="348.5,-420 348.5,-442 512.5,-442 512.5,-420 348.5,-420"/>
<text text-anchor="start" x="368.5" y="-428.2" font-family="Helvetica,sans-Serif" font-size="11.00">resource_type</text>
<polygon fill="none" stroke="black" points="512.5,-420 512.5,-442 633.5,-442 633.5,-420 512.5,-420"/>
<text text-anchor="start" x="515.5" y="-428.2" font-family="Helvetica,sans-Serif" font-size="11.00">varchar[2147483647]</text>
<polygon fill="#ffffff" stroke="none" points="348.5,-398 348.5,-420 512.5,-420 512.5,-398 348.5,-398"/>
<polygon fill="none" stroke="black" points="348.5,-398 348.5,-420 512.5,-420 512.5,-398 348.5,-398"/>
<text text-anchor="start" x="368.5" y="-406.2" font-family="Helvetica,sans-Serif" font-size="11.00">resource_id</text>
<polygon fill="none" stroke="black" points="512.5,-398 512.5,-420 633.5,-420 633.5,-398 512.5,-398"/>
<text text-anchor="start" x="515.5" y="-406.2" font-family="Helvetica,sans-Serif" font-size="11.00">int8[19]</text>
<polygon fill="none" stroke="black" points="348.5,-376 348.5,-398 512.5,-398 512.5,-376 348.5,-376"/>
<text text-anchor="start" x="368.5" y="-384.2" font-family="Helvetica,sans-Serif" font-size="11.00">permissions</text>
<polygon fill="none" stroke="black" points="512.5,-376 512.5,-398 633.5,-398 633.5,-376 512.5,-376"/>
<text text-anchor="start" x="515.5" y="-384.2" font-family="Helvetica,sans-Serif" font-size="11.00">varchar[2147483647]</text>
<polygon fill="none" stroke="black" points="348.5,-354 348.5,-376 512.5,-376 512.5,-354 348.5,-354"/>
<text text-anchor="start" x="368.5" y="-362.2" font-family="Helvetica,sans-Serif" font-size="11.00">owner</text>
<polygon fill="none" stroke="black" points="512.5,-354 512.5,-376 633.5,-376 633.5,-354 512.5,-354"/>
<text text-anchor="start" x="515.5" y="-362.2" font-family="Helvetica,sans-Serif" font-size="11.00">varchar[2147483647]</text>
<polygon fill="none" stroke="black" points="348.5,-332 348.5,-354 512.5,-354 512.5,-332 348.5,-332"/>
<text text-anchor="start" x="368.5" y="-340.2" font-family="Helvetica,sans-Serif" font-size="11.00">group</text>
<polygon fill="none" stroke="black" points="512.5,-332 512.5,-354 633.5,-354 633.5,-332 512.5,-332"/>
<text text-anchor="start" x="515.5" y="-340.2" font-family="Helvetica,sans-Serif" font-size="11.00">varchar[2147483647]</text>
<polygon fill="#ffffff" stroke="none" points="348.5,-310 348.5,-332 512.5,-332 512.5,-310 348.5,-310"/>
<polygon fill="none" stroke="black" points="348.5,-310 348.5,-332 512.5,-332 512.5,-310 348.5,-310"/>
<image xlink:href="../../images/foreignKeys.png" width="11px" height="12px" preserveAspectRatio="xMinYMin meet" x="353.5" y="-327"/>
<text text-anchor="start" x="368.5" y="-318.2" font-family="Helvetica,sans-Serif" font-size="11.00">host_service_group_id</text>
<polygon fill="none" stroke="black" points="512.5,-310 512.5,-332 633.5,-332 633.5,-310 512.5,-310"/>
<text text-anchor="start" x="515.5" y="-318.2" font-family="Helvetica,sans-Serif" font-size="11.00">int8[19]</text>
<polygon fill="#ffffff" stroke="none" points="348.5,-292 348.5,-310 435.5,-310 435.5,-292 348.5,-292"/>
<polygon fill="none" stroke="black" points="348.5,-292 348.5,-310 435.5,-310 435.5,-292 348.5,-292"/>
<text text-anchor="start" x="351.5" y="-298.2" font-family="Helvetica,sans-Serif" font-size="11.00">&lt; 3</text>
<polygon fill="#ffffff" stroke="none" points="435.5,-292 435.5,-310 512.5,-310 512.5,-292 435.5,-292"/>
<polygon fill="none" stroke="black" points="435.5,-292 435.5,-310 512.5,-310 512.5,-292 435.5,-292"/>
<text text-anchor="start" x="502.5" y="-298.2" font-family="Helvetica,sans-Serif" font-size="11.00"> &#160;</text>
<polygon fill="#ffffff" stroke="none" points="512.5,-292 512.5,-310 633.5,-310 633.5,-292 512.5,-292"/>
<polygon fill="none" stroke="black" points="512.5,-292 512.5,-310 633.5,-310 633.5,-292 512.5,-292"/>
<text text-anchor="start" x="613.5" y="-298.2" font-family="Helvetica,sans-Serif" font-size="11.00">0 &gt;</text>
<polygon fill="none" stroke="black" stroke-width="2" points="347,-291 347,-839 634,-839 634,-291 347,-291"/>
</a>
</g>
</g>
<!-- host_service_groups -->
<g id="node2" class="node"><title>host_service_groups</title>
<g id="a_node2"><a xlink:href="../../tables/host_service_groups.html" xlink:title="host_service_groups" target="_top">
<polygon fill="#ffffff" stroke="none" points="136,-740 136,-864 297,-864 297,-740 136,-740"/>
<polygon fill="#f5f5f5" stroke="none" points="136.5,-842 136.5,-864 297.5,-864 297.5,-842 136.5,-842"/>
<polygon fill="none" stroke="black" points="136.5,-842 136.5,-864 297.5,-864 297.5,-842 136.5,-842"/>
<text text-anchor="start" x="141.5" y="-851.2" font-family="Helvetica,sans-Serif" font-weight="bold" font-size="11.00">host_service_groups</text>
<text text-anchor="start" x="258.5" y="-850.2" font-family="Helvetica,sans-Serif" font-size="11.00">[table]</text>
<polygon fill="none" stroke="black" points="136.5,-820 136.5,-842 297.5,-842 297.5,-820 136.5,-820"/>
<image xlink:href="../../images/primaryKeys.png" width="11px" height="12px" preserveAspectRatio="xMinYMin meet" x="141.5" y="-837"/>
<text text-anchor="start" x="167.5" y="-828.2" font-family="Helvetica,sans-Serif" font-size="11.00">id</text>
<polygon fill="#ffffff" stroke="none" points="136.5,-798 136.5,-820 297.5,-820 297.5,-798 136.5,-798"/>
<polygon fill="none" stroke="black" points="136.5,-798 136.5,-820 297.5,-820 297.5,-798 136.5,-798"/>
<text text-anchor="start" x="167.5" y="-806.2" font-family="Helvetica,sans-Serif" font-size="11.00">type</text>
<polygon fill="none" stroke="black" points="136.5,-776 136.5,-798 297.5,-798 297.5,-776 136.5,-776"/>
<image xlink:href="../../images/foreignKeys.png" width="11px" height="12px" preserveAspectRatio="xMinYMin meet" x="141.5" y="-793"/>
<text text-anchor="start" x="167.5" y="-784.2" font-family="Helvetica,sans-Serif" font-size="11.00">host_id</text>
<polygon fill="none" stroke="black" points="136.5,-758 136.5,-776 297.5,-776 297.5,-758 136.5,-758"/>
<text text-anchor="start" x="139.5" y="-764.2" font-family="Helvetica,sans-Serif" font-size="11.00">...</text>
<polygon fill="#ffffff" stroke="none" points="136.5,-740 136.5,-758 210.5,-758 210.5,-740 136.5,-740"/>
<polygon fill="none" stroke="black" points="136.5,-740 136.5,-758 210.5,-758 210.5,-740 136.5,-740"/>
<text text-anchor="start" x="139.5" y="-746.2" font-family="Helvetica,sans-Serif" font-size="11.00">&lt; 1</text>
<polygon fill="#ffffff" stroke="none" points="210.5,-740 210.5,-758 248.5,-758 248.5,-740 210.5,-740"/>
<polygon fill="none" stroke="black" points="210.5,-740 210.5,-758 248.5,-758 248.5,-740 210.5,-740"/>
<text text-anchor="start" x="238.5" y="-746.2" font-family="Helvetica,sans-Serif" font-size="11.00"> &#160;</text>
<polygon fill="#ffffff" stroke="none" points="248.5,-740 248.5,-758 297.5,-758 297.5,-740 248.5,-740"/>
<polygon fill="none" stroke="black" points="248.5,-740 248.5,-758 297.5,-758 297.5,-740 248.5,-740"/>
<text text-anchor="start" x="277.5" y="-746.2" font-family="Helvetica,sans-Serif" font-size="11.00">2 &gt;</text>
</a>
</g>
</g>
<!-- filesystems&#45;&gt;host_service_groups -->
<g id="edge1" class="edge"><title>filesystems:host_service_group_id:w&#45;&gt;host_service_groups:id:e</title>
<path fill="none" stroke="black" d="M333.357,-324.257C249.756,-367.692 407.018,-831 298.5,-831"/>
<polygon fill="black" stroke="black" points="339.704,-322.795 348.308,-324.508 343.602,-321.898 347.5,-321 347.5,-321 347.5,-321 343.602,-321.898 346.692,-317.492 339.704,-322.795 339.704,-322.795"/>
<ellipse fill="none" stroke="black" cx="336.586" cy="-323.513" rx="3.2" ry="3.2"/>
</g>
<!-- miq_sets -->
<g id="node3" class="node"><title>miq_sets</title>
<g id="a_node3"><a xlink:href="../../tables/miq_sets.html" xlink:title="miq_sets" target="_top">
<polygon fill="#ffffff" stroke="none" points="167.5,-37 167.5,-271 265.5,-271 265.5,-37 167.5,-37"/>
<polygon fill="#f5f5f5" stroke="none" points="167.5,-249 167.5,-271 265.5,-271 265.5,-249 167.5,-249"/>
<polygon fill="none" stroke="black" points="167.5,-249 167.5,-271 265.5,-271 265.5,-249 167.5,-249"/>
<text text-anchor="start" x="172.5" y="-258.2" font-family="Helvetica,sans-Serif" font-weight="bold" font-size="11.00">miq_sets</text>
<text text-anchor="start" x="226.5" y="-257.2" font-family="Helvetica,sans-Serif" font-size="11.00">[table]</text>
<polygon fill="none" stroke="black" points="167.5,-227 167.5,-249 265.5,-249 265.5,-227 167.5,-227"/>
<image xlink:href="../../images/primaryKeys.png" width="11px" height="12px" preserveAspectRatio="xMinYMin meet" x="172.5" y="-244"/>
<text text-anchor="start" x="191.5" y="-235.2" font-family="Helvetica,sans-Serif" font-size="11.00">id</text>
<polygon fill="#ffffff" stroke="none" points="167.5,-205 167.5,-227 265.5,-227 265.5,-205 167.5,-205"/>
<polygon fill="none" stroke="black" points="167.5,-205 167.5,-227 265.5,-227 265.5,-205 167.5,-205"/>
<text text-anchor="start" x="191.5" y="-213.2" font-family="Helvetica,sans-Serif" font-size="11.00">name</text>
<polygon fill="#ffffff" stroke="none" points="167.5,-183 167.5,-205 265.5,-205 265.5,-183 167.5,-183"/>
<polygon fill="none" stroke="black" points="167.5,-183 167.5,-205 265.5,-205 265.5,-183 167.5,-183"/>
<text text-anchor="start" x="191.5" y="-191.2" font-family="Helvetica,sans-Serif" font-size="11.00">set_type</text>
<polygon fill="#ffffff" stroke="none" points="167.5,-161 167.5,-183 265.5,-183 265.5,-161 167.5,-161"/>
<polygon fill="none" stroke="black" points="167.5,-161 167.5,-183 265.5,-183 265.5,-161 167.5,-161"/>
<text text-anchor="start" x="191.5" y="-169.2" font-family="Helvetica,sans-Serif" font-size="11.00">guid</text>
<polygon fill="#ffffff" stroke="none" points="167.5,-139 167.5,-161 265.5,-161 265.5,-139 167.5,-139"/>
<polygon fill="none" stroke="black" points="167.5,-139 167.5,-161 265.5,-161 265.5,-139 167.5,-139"/>
<text text-anchor="start" x="191.5" y="-147.2" font-family="Helvetica,sans-Serif" font-size="11.00">owner_type</text>
<polygon fill="#ffffff" stroke="none" points="167.5,-117 167.5,-139 265.5,-139 265.5,-117 167.5,-117"/>
<polygon fill="none" stroke="black" points="167.5,-117 167.5,-139 265.5,-139 265.5,-117 167.5,-117"/>
<text text-anchor="start" x="191.5" y="-125.2" font-family="Helvetica,sans-Serif" font-size="11.00">owner_id</text>
<polygon fill="#ffffff" stroke="none" points="167.5,-95 167.5,-117 265.5,-117 265.5,-95 167.5,-95"/>
<polygon fill="none" stroke="black" points="167.5,-95 167.5,-117 265.5,-117 265.5,-95 167.5,-95"/>
<text text-anchor="start" x="191.5" y="-103.2" font-family="Helvetica,sans-Serif" font-size="11.00">userid</text>
<polygon fill="#ffffff" stroke="none" points="167.5,-73 167.5,-95 265.5,-95 265.5,-73 167.5,-73"/>
<polygon fill="none" stroke="black" points="167.5,-73 167.5,-95 265.5,-95 265.5,-73 167.5,-73"/>
<text text-anchor="start" x="191.5" y="-81.2" font-family="Helvetica,sans-Serif" font-size="11.00">group_id</text>
<polygon fill="none" stroke="black" points="167.5,-55 167.5,-73 265.5,-73 265.5,-55 167.5,-55"/>
<text text-anchor="start" x="170.5" y="-61.2" font-family="Helvetica,sans-Serif" font-size="11.00">...</text>
<polygon fill="#ffffff" stroke="none" points="167.5,-37 167.5,-55 204.5,-55 204.5,-37 167.5,-37"/>
<polygon fill="none" stroke="black" points="167.5,-37 167.5,-55 204.5,-55 204.5,-37 167.5,-37"/>
<text text-anchor="start" x="170.5" y="-43.2" font-family="Helvetica,sans-Serif" font-size="11.00"> &#160;</text>
<polygon fill="#ffffff" stroke="none" points="204.5,-37 204.5,-55 229.5,-55 229.5,-37 204.5,-37"/>
<polygon fill="none" stroke="black" points="204.5,-37 204.5,-55 229.5,-55 229.5,-37 204.5,-37"/>
<text text-anchor="start" x="219.5" y="-43.2" font-family="Helvetica,sans-Serif" font-size="11.00"> &#160;</text>
<polygon fill="#ffffff" stroke="none" points="229.5,-37 229.5,-55 265.5,-55 265.5,-37 229.5,-37"/>
<polygon fill="none" stroke="black" points="229.5,-37 229.5,-55 265.5,-55 265.5,-37 229.5,-37"/>
<text text-anchor="start" x="245.5" y="-43.2" font-family="Helvetica,sans-Serif" font-size="11.00">3 &gt;</text>
</a>
</g>
</g>
<!-- filesystems&#45;&gt;miq_sets -->
<g id="edge2" class="edge"><title>filesystems:miq_set_id:w&#45;&gt;miq_sets:id:e</title>
<path fill="none" stroke="black" d="M333.678,-602.856C273.743,-562.316 345.205,-238 266.5,-238"/>
<polygon fill="black" stroke="black" points="339.837,-604.703 346.466,-610.448 343.668,-605.851 347.5,-607 347.5,-607 347.5,-607 343.668,-605.851 348.534,-603.552 339.837,-604.703 339.837,-604.703"/>
<ellipse fill="none" stroke="black" cx="336.772" cy="-603.784" rx="3.20001" ry="3.20001"/>
</g>
<!-- scan_items -->
<g id="node4" class="node"><title>scan_items</title>
<g id="a_node4"><a xlink:href="../../tables/scan_items.html" xlink:title="scan_items" target="_top">
<polygon fill="#ffffff" stroke="none" points="161,-382 161,-528 272,-528 272,-382 161,-382"/>
<polygon fill="#f5f5f5" stroke="none" points="161.5,-506 161.5,-528 272.5,-528 272.5,-506 161.5,-506"/>
<polygon fill="none" stroke="black" points="161.5,-506 161.5,-528 272.5,-528 272.5,-506 161.5,-506"/>
<text text-anchor="start" x="166.5" y="-515.2" font-family="Helvetica,sans-Serif" font-weight="bold" font-size="11.00">scan_items</text>
<text text-anchor="start" x="233.5" y="-514.2" font-family="Helvetica,sans-Serif" font-size="11.00">[table]</text>
<polygon fill="none" stroke="black" points="161.5,-484 161.5,-506 272.5,-506 272.5,-484 161.5,-484"/>
<image xlink:href="../../images/primaryKeys.png" width="11px" height="12px" preserveAspectRatio="xMinYMin meet" x="166.5" y="-501"/>
<text text-anchor="start" x="188.5" y="-492.2" font-family="Helvetica,sans-Serif" font-size="11.00">id</text>
<polygon fill="#ffffff" stroke="none" points="161.5,-462 161.5,-484 272.5,-484 272.5,-462 161.5,-462"/>
<polygon fill="none" stroke="black" points="161.5,-462 161.5,-484 272.5,-484 272.5,-462 161.5,-462"/>
<text text-anchor="start" x="188.5" y="-470.2" font-family="Helvetica,sans-Serif" font-size="11.00">name</text>
<polygon fill="#ffffff" stroke="none" points="161.5,-440 161.5,-462 272.5,-462 272.5,-440 161.5,-440"/>
<polygon fill="none" stroke="black" points="161.5,-440 161.5,-462 272.5,-462 272.5,-440 161.5,-440"/>
<text text-anchor="start" x="188.5" y="-448.2" font-family="Helvetica,sans-Serif" font-size="11.00">guid</text>
<polygon fill="#ffffff" stroke="none" points="161.5,-418 161.5,-440 272.5,-440 272.5,-418 161.5,-418"/>
<polygon fill="none" stroke="black" points="161.5,-418 161.5,-440 272.5,-440 272.5,-418 161.5,-418"/>
<text text-anchor="start" x="188.5" y="-426.2" font-family="Helvetica,sans-Serif" font-size="11.00">item_type</text>
<polygon fill="none" stroke="black" points="161.5,-400 161.5,-418 272.5,-418 272.5,-400 161.5,-400"/>
<text text-anchor="start" x="164.5" y="-406.2" font-family="Helvetica,sans-Serif" font-size="11.00">...</text>
<polygon fill="#ffffff" stroke="none" points="161.5,-382 161.5,-400 205.5,-400 205.5,-382 161.5,-382"/>
<polygon fill="none" stroke="black" points="161.5,-382 161.5,-400 205.5,-400 205.5,-382 161.5,-382"/>
<text text-anchor="start" x="164.5" y="-388.2" font-family="Helvetica,sans-Serif" font-size="11.00"> &#160;</text>
<polygon fill="#ffffff" stroke="none" points="205.5,-382 205.5,-400 233.5,-400 233.5,-382 205.5,-382"/>
<polygon fill="none" stroke="black" points="205.5,-382 205.5,-400 233.5,-400 233.5,-382 205.5,-382"/>
<text text-anchor="start" x="223.5" y="-388.2" font-family="Helvetica,sans-Serif" font-size="11.00"> &#160;</text>
<polygon fill="#ffffff" stroke="none" points="233.5,-382 233.5,-400 272.5,-400 272.5,-382 233.5,-382"/>
<polygon fill="none" stroke="black" points="233.5,-382 233.5,-400 272.5,-400 272.5,-382 233.5,-382"/>
<text text-anchor="start" x="252.5" y="-388.2" font-family="Helvetica,sans-Serif" font-size="11.00">2 &gt;</text>
</a>
</g>
</g>
<!-- filesystems&#45;&gt;scan_items -->
<g id="edge3" class="edge"><title>filesystems:scan_item_id:w&#45;&gt;scan_items:id:e</title>
<path fill="none" stroke="black" d="M333.215,-582.006C301.21,-566.389 319.621,-495 273.5,-495"/>
<polygon fill="black" stroke="black" points="339.67,-583.359 346.761,-588.523 343.585,-584.179 347.5,-585 347.5,-585 347.5,-585 343.585,-584.179 348.239,-581.477 339.67,-583.359 339.67,-583.359"/>
<ellipse fill="none" stroke="black" cx="336.538" cy="-582.702" rx="3.2" ry="3.2"/>
</g>
<!-- hosts -->
<g id="node5" class="node"><title>hosts</title>
<g id="a_node5"><a xlink:href="../../tables/hosts.html" xlink:title="hosts" target="_top">
<polygon fill="#ffffff" stroke="none" points="8,-810 8,-868 87,-868 87,-810 8,-810"/>
<polygon fill="#f5f5f5" stroke="none" points="8.5,-846 8.5,-868 87.5,-868 87.5,-846 8.5,-846"/>
<polygon fill="none" stroke="black" points="8.5,-846 8.5,-868 87.5,-868 87.5,-846 8.5,-846"/>
<text text-anchor="start" x="13.5" y="-855.2" font-family="Helvetica,sans-Serif" font-weight="bold" font-size="11.00">hosts</text>
<text text-anchor="start" x="48.5" y="-854.2" font-family="Helvetica,sans-Serif" font-size="11.00">[table]</text>
<polygon fill="none" stroke="black" points="8.5,-828 8.5,-846 87.5,-846 87.5,-828 8.5,-828"/>
<text text-anchor="start" x="11.5" y="-834.2" font-family="Helvetica,sans-Serif" font-size="11.00">...</text>
<polygon fill="#ffffff" stroke="none" points="8.5,-810 8.5,-828 37.5,-828 37.5,-810 8.5,-810"/>
<polygon fill="none" stroke="black" points="8.5,-810 8.5,-828 37.5,-828 37.5,-810 8.5,-810"/>
<text text-anchor="start" x="11.5" y="-816.2" font-family="Helvetica,sans-Serif" font-size="11.00">&lt; 3</text>
<polygon fill="#ffffff" stroke="none" points="37.5,-810 37.5,-828 53.5,-828 53.5,-810 37.5,-810"/>
<polygon fill="none" stroke="black" points="37.5,-810 37.5,-828 53.5,-828 53.5,-810 37.5,-810"/>
<text text-anchor="start" x="43.5" y="-816.2" font-family="Helvetica,sans-Serif" font-size="11.00"> &#160;</text>
<polygon fill="#ffffff" stroke="none" points="53.5,-810 53.5,-828 87.5,-828 87.5,-810 53.5,-810"/>
<polygon fill="none" stroke="black" points="53.5,-810 53.5,-828 87.5,-828 87.5,-810 53.5,-810"/>
<text text-anchor="start" x="60.5" y="-816.2" font-family="Helvetica,sans-Serif" font-size="11.00">15 &gt;</text>
</a>
</g>
</g>
<!-- host_service_groups&#45;&gt;hosts -->
<g id="edge4" class="edge"><title>host_service_groups:host_id:w&#45;&gt;hosts:elipses:e</title>
<path fill="none" stroke="black" d="M121.677,-792.351C108.852,-805.25 112.804,-837 88.5,-837"/>
<polygon fill="black" stroke="black" points="128.039,-789.888 136.8,-790.357 131.77,-788.444 135.5,-787 135.5,-787 135.5,-787 131.77,-788.444 134.2,-783.643 128.039,-789.888 128.039,-789.888"/>
<ellipse fill="none" stroke="black" cx="125.055" cy="-791.043" rx="3.20001" ry="3.20001"/>
</g>
<!-- miq_set_memberships -->
<g id="node6" class="node"><title>miq_set_memberships</title>
<g id="a_node6"><a xlink:href="../../tables/miq_set_memberships.html" xlink:title="miq_set_memberships" target="_top">
<polygon fill="#ffffff" stroke="none" points="403,-132 403,-190 578,-190 578,-132 403,-132"/>
<polygon fill="#f5f5f5" stroke="none" points="403.5,-168 403.5,-190 578.5,-190 578.5,-168 403.5,-168"/>
<polygon fill="none" stroke="black" points="403.5,-168 403.5,-190 578.5,-190 578.5,-168 403.5,-168"/>
<text text-anchor="start" x="408.5" y="-177.2" font-family="Helvetica,sans-Serif" font-weight="bold" font-size="11.00">miq_set_memberships</text>
<text text-anchor="start" x="539.5" y="-176.2" font-family="Helvetica,sans-Serif" font-size="11.00">[table]</text>
<polygon fill="none" stroke="black" points="403.5,-150 403.5,-168 578.5,-168 578.5,-150 403.5,-150"/>
<text text-anchor="start" x="406.5" y="-156.2" font-family="Helvetica,sans-Serif" font-size="11.00">...</text>
<polygon fill="#ffffff" stroke="none" points="403.5,-132 403.5,-150 489.5,-150 489.5,-132 403.5,-132"/>
<polygon fill="none" stroke="black" points="403.5,-132 403.5,-150 489.5,-150 489.5,-132 403.5,-132"/>
<text text-anchor="start" x="406.5" y="-138.2" font-family="Helvetica,sans-Serif" font-size="11.00">&lt; 1</text>
<polygon fill="#ffffff" stroke="none" points="489.5,-132 489.5,-150 533.5,-150 533.5,-132 489.5,-132"/>
<polygon fill="none" stroke="black" points="489.5,-132 489.5,-150 533.5,-150 533.5,-132 489.5,-132"/>
<text text-anchor="start" x="523.5" y="-138.2" font-family="Helvetica,sans-Serif" font-size="11.00"> &#160;</text>
<polygon fill="#ffffff" stroke="none" points="533.5,-132 533.5,-150 578.5,-150 578.5,-132 533.5,-132"/>
<polygon fill="none" stroke="black" points="533.5,-132 533.5,-150 578.5,-150 578.5,-132 533.5,-132"/>
<text text-anchor="start" x="568.5" y="-138.2" font-family="Helvetica,sans-Serif" font-size="11.00"> &#160;</text>
</a>
</g>
</g>
<!-- miq_set_memberships&#45;&gt;miq_sets -->
<g id="edge5" class="edge"><title>miq_set_memberships:elipses:w&#45;&gt;miq_sets:id:e</title>
<path fill="none" stroke="black" d="M388.094,-160.241C332.756,-170.291 331.214,-238 266.5,-238"/>
<polygon fill="black" stroke="black" points="394.53,-159.687 402.809,-162.587 398.515,-159.343 402.5,-159 402.5,-159 402.5,-159 398.515,-159.343 402.191,-155.413 394.53,-159.687 394.53,-159.687"/>
<ellipse fill="none" stroke="black" cx="391.341" cy="-159.961" rx="3.2" ry="3.2"/>
</g>
<!-- registry_items -->
<g id="node7" class="node"><title>registry_items</title>
<g id="a_node7"><a xlink:href="../../tables/registry_items.html" xlink:title="registry_items" target="_top">
<polygon fill="#ffffff" stroke="none" points="425.5,-211 425.5,-269 555.5,-269 555.5,-211 425.5,-211"/>
<polygon fill="#f5f5f5" stroke="none" points="425.5,-247 425.5,-269 555.5,-269 555.5,-247 425.5,-247"/>
<polygon fill="none" stroke="black" points="425.5,-247 425.5,-269 555.5,-269 555.5,-247 425.5,-247"/>
<text text-anchor="start" x="430.5" y="-256.2" font-family="Helvetica,sans-Serif" font-weight="bold" font-size="11.00">registry_items</text>
<text text-anchor="start" x="516.5" y="-255.2" font-family="Helvetica,sans-Serif" font-size="11.00">[table]</text>
<polygon fill="none" stroke="black" points="425.5,-229 425.5,-247 555.5,-247 555.5,-229 425.5,-229"/>
<text text-anchor="start" x="428.5" y="-235.2" font-family="Helvetica,sans-Serif" font-size="11.00">...</text>
<polygon fill="#ffffff" stroke="none" points="425.5,-211 425.5,-229 488.5,-229 488.5,-211 425.5,-211"/>
<polygon fill="none" stroke="black" points="425.5,-211 425.5,-229 488.5,-229 488.5,-211 425.5,-211"/>
<text text-anchor="start" x="428.5" y="-217.2" font-family="Helvetica,sans-Serif" font-size="11.00">&lt; 2</text>
<polygon fill="#ffffff" stroke="none" points="488.5,-211 488.5,-229 521.5,-229 521.5,-211 488.5,-211"/>
<polygon fill="none" stroke="black" points="488.5,-211 488.5,-229 521.5,-229 521.5,-211 488.5,-211"/>
<text text-anchor="start" x="511.5" y="-217.2" font-family="Helvetica,sans-Serif" font-size="11.00"> &#160;</text>
<polygon fill="#ffffff" stroke="none" points="521.5,-211 521.5,-229 555.5,-229 555.5,-211 521.5,-211"/>
<polygon fill="none" stroke="black" points="521.5,-211 521.5,-229 555.5,-229 555.5,-211 521.5,-211"/>
<text text-anchor="start" x="545.5" y="-217.2" font-family="Helvetica,sans-Serif" font-size="11.00"> &#160;</text>
</a>
</g>
</g>
<!-- registry_items&#45;&gt;miq_sets -->
<g id="edge6" class="edge"><title>registry_items:elipses:w&#45;&gt;miq_sets:id:e</title>
<path fill="none" stroke="black" d="M410.061,-238C351.465,-238 331.648,-238 266.5,-238"/>
<polygon fill="black" stroke="black" points="416.5,-238 424.5,-241.6 420.5,-238 424.5,-238 424.5,-238 424.5,-238 420.5,-238 424.5,-234.4 416.5,-238 416.5,-238"/>
<ellipse fill="none" stroke="black" cx="413.3" cy="-238" rx="3.2" ry="3.2"/>
</g>
<!-- registry_items&#45;&gt;scan_items -->
<g id="edge7" class="edge"><title>registry_items:elipses:w&#45;&gt;scan_items:id:e</title>
<path fill="none" stroke="black" d="M409.705,-238.437C377.714,-240.547 362.242,-250.749 338,-279 272.756,-355.033 373.689,-495 273.5,-495"/>
<polygon fill="black" stroke="black" points="416.503,-238.236 424.606,-241.598 420.502,-238.118 424.5,-238 424.5,-238 424.5,-238 420.502,-238.118 424.394,-234.402 416.503,-238.236 416.503,-238.236"/>
<ellipse fill="none" stroke="black" cx="413.305" cy="-238.331" rx="3.2" ry="3.2"/>
</g>
<!-- system_services -->
<g id="node8" class="node"><title>system_services</title>
<g id="a_node8"><a xlink:href="../../tables/system_services.html" xlink:title="system_services" target="_top">
<polygon fill="#ffffff" stroke="none" points="421,-861 421,-919 560,-919 560,-861 421,-861"/>
<polygon fill="#f5f5f5" stroke="none" points="421.5,-897 421.5,-919 560.5,-919 560.5,-897 421.5,-897"/>
<polygon fill="none" stroke="black" points="421.5,-897 421.5,-919 560.5,-919 560.5,-897 421.5,-897"/>
<text text-anchor="start" x="426.5" y="-906.2" font-family="Helvetica,sans-Serif" font-weight="bold" font-size="11.00">system_services</text>
<text text-anchor="start" x="521.5" y="-905.2" font-family="Helvetica,sans-Serif" font-size="11.00">[table]</text>
<polygon fill="none" stroke="black" points="421.5,-879 421.5,-897 560.5,-897 560.5,-879 421.5,-879"/>
<text text-anchor="start" x="424.5" y="-885.2" font-family="Helvetica,sans-Serif" font-size="11.00">...</text>
<polygon fill="#ffffff" stroke="none" points="421.5,-861 421.5,-879 484.5,-879 484.5,-861 421.5,-861"/>
<polygon fill="none" stroke="black" points="421.5,-861 421.5,-879 484.5,-879 484.5,-861 421.5,-861"/>
<text text-anchor="start" x="424.5" y="-867.2" font-family="Helvetica,sans-Serif" font-size="11.00">&lt; 2</text>
<polygon fill="#ffffff" stroke="none" points="484.5,-861 484.5,-879 517.5,-879 517.5,-861 484.5,-861"/>
<polygon fill="none" stroke="black" points="484.5,-861 484.5,-879 517.5,-879 517.5,-861 484.5,-861"/>
<text text-anchor="start" x="507.5" y="-867.2" font-family="Helvetica,sans-Serif" font-size="11.00"> &#160;</text>
<polygon fill="#ffffff" stroke="none" points="517.5,-861 517.5,-879 560.5,-879 560.5,-861 517.5,-861"/>
<polygon fill="none" stroke="black" points="517.5,-861 517.5,-879 560.5,-879 560.5,-861 517.5,-861"/>
<text text-anchor="start" x="540.5" y="-867.2" font-family="Helvetica,sans-Serif" font-size="11.00">1 &gt;</text>
</a>
</g>
</g>
<!-- system_services&#45;&gt;host_service_groups -->
<g id="edge9" class="edge"><title>system_services:elipses:w&#45;&gt;host_service_groups:id:e</title>
<path fill="none" stroke="black" d="M405.768,-886.952C378.097,-882.659 369.311,-865.938 338,-851 320.24,-842.527 318.178,-831 298.5,-831"/>
<polygon fill="black" stroke="black" points="412.52,-887.432 420.245,-891.591 416.51,-887.716 420.5,-888 420.5,-888 420.5,-888 416.51,-887.716 420.755,-884.409 412.52,-887.432 412.52,-887.432"/>
<ellipse fill="none" stroke="black" cx="409.328" cy="-887.205" rx="3.2" ry="3.2"/>
</g>
<!-- system_services&#45;&gt;hosts -->
<g id="edge8" class="edge"><title>system_services:elipses:w&#45;&gt;hosts:elipses:e</title>
<path fill="none" stroke="black" d="M406.003,-888.16C287.001,-890.787 243.035,-924.347 128,-875 105.612,-865.396 112.86,-837 88.5,-837"/>
<polygon fill="black" stroke="black" points="412.5,-888.088 420.54,-891.6 416.5,-888.044 420.5,-888 420.5,-888 420.5,-888 416.5,-888.044 420.46,-884.4 412.5,-888.088 412.5,-888.088"/>
<ellipse fill="none" stroke="black" cx="409.301" cy="-888.123" rx="3.2" ry="3.2"/>
</g>
</g>
</svg>
