<?xml version="1.0" encoding="UTF-8" standalone="no"?>
<!DOCTYPE svg PUBLIC "-//W3C//DTD SVG 1.1//EN"
 "http://www.w3.org/Graphics/SVG/1.1/DTD/svg11.dtd">
<!-- Generated by graphviz version 2.38.0 (20140413.2041)
 -->
<!-- Title: oneDegreeRelationshipsDiagram Pages: 1 -->
<svg width="576pt" height="245pt"
 viewBox="0.00 0.00 576.00 245.00" xmlns="http://www.w3.org/2000/svg" xmlns:xlink="http://www.w3.org/1999/xlink">
<g id="graph0" class="graph" transform="scale(1 1) rotate(0) translate(4 241)">
<title>oneDegreeRelationshipsDiagram</title>
<polygon fill="#ffffff" stroke="none" points="-4,4 -4,-241 572,-241 572,4 -4,4"/>
<text text-anchor="middle" x="74.5" y="-7.2" font-family="Helvetica,sans-Serif" font-size="11.00">Generated by SchemaSpy</text>
<!-- firmware_binaries_firmware_targets -->
<g id="node1" class="node"><title>firmware_binaries_firmware_targets</title>
<g id="a_node1"><a xlink:href="../../tables/firmware_binaries_firmware_targets.html" xlink:title="firmware_binaries_firmware_targets" target="_top">
<polygon fill="#ffffff" stroke="none" points="306,-127 306,-233 560,-233 560,-127 306,-127"/>
<polygon fill="#f5f5f5" stroke="none" points="306,-211 306,-233 560,-233 560,-211 306,-211"/>
<polygon fill="none" stroke="black" points="306,-211 306,-233 560,-233 560,-211 306,-211"/>
<text text-anchor="start" x="311" y="-220.2" font-family="Helvetica,sans-Serif" font-weight="bold" font-size="11.00">firmware_binaries_firmware_targets</text>
<text text-anchor="start" x="521" y="-219.2" font-family="Helvetica,sans-Serif" font-size="11.00">[table]</text>
<polygon fill="none" stroke="black" points="306,-189 306,-211 560,-211 560,-189 306,-189"/>
<image xlink:href="../../images/primaryKeys.png" width="11px" height="12px" preserveAspectRatio="xMinYMin meet" x="311" y="-206"/>
<text text-anchor="start" x="334" y="-197.2" font-family="Helvetica,sans-Serif" font-size="11.00">id</text>
<polygon fill="#ffffff" stroke="none" points="306,-167 306,-189 560,-189 560,-167 306,-167"/>
<polygon fill="none" stroke="black" points="306,-167 306,-189 560,-189 560,-167 306,-167"/>
<image xlink:href="../../images/foreignKeys.png" width="11px" height="12px" preserveAspectRatio="xMinYMin meet" x="311" y="-184"/>
<text text-anchor="start" x="334" y="-175.2" font-family="Helvetica,sans-Serif" font-size="11.00">firmware_binary_id</text>
<polygon fill="#ffffff" stroke="none" points="306,-145 306,-167 560,-167 560,-145 306,-145"/>
<polygon fill="none" stroke="black" points="306,-145 306,-167 560,-167 560,-145 306,-145"/>
<image xlink:href="../../images/foreignKeys.png" width="11px" height="12px" preserveAspectRatio="xMinYMin meet" x="311" y="-162"/>
<text text-anchor="start" x="334" y="-153.2" font-family="Helvetica,sans-Serif" font-size="11.00">firmware_target_id</text>
<polygon fill="#ffffff" stroke="none" points="306,-127 306,-145 431,-145 431,-127 306,-127"/>
<polygon fill="none" stroke="black" points="306,-127 306,-145 431,-145 431,-127 306,-127"/>
<text text-anchor="start" x="309" y="-133.2" font-family="Helvetica,sans-Serif" font-size="11.00">&lt; 2</text>
<polygon fill="#ffffff" stroke="none" points="431,-127 431,-145 495,-145 495,-127 431,-127"/>
<polygon fill="none" stroke="black" points="431,-127 431,-145 495,-145 495,-127 431,-127"/>
<text text-anchor="start" x="485" y="-133.2" font-family="Helvetica,sans-Serif" font-size="11.00"> &#160;</text>
<polygon fill="#ffffff" stroke="none" points="495,-127 495,-145 560,-145 560,-127 495,-127"/>
<polygon fill="none" stroke="black" points="495,-127 495,-145 560,-145 560,-127 495,-127"/>
<text text-anchor="start" x="550" y="-133.2" font-family="Helvetica,sans-Serif" font-size="11.00"> &#160;</text>
</a>
</g>
</g>
<!-- firmware_targets -->
<g id="node2" class="node"><title>firmware_targets</title>
<g id="a_node2"><a xlink:href="../../tables/firmware_targets.html" xlink:title="firmware_targets" target="_top">
<polygon fill="#ffffff" stroke="none" points="8,-37 8,-191 257,-191 257,-37 8,-37"/>
<polygon fill="#f5f5f5" stroke="none" points="10.5,-167 10.5,-189 255.5,-189 255.5,-167 10.5,-167"/>
<polygon fill="none" stroke="black" points="10.5,-167 10.5,-189 255.5,-189 255.5,-167 10.5,-167"/>
<text text-anchor="start" x="15.5" y="-176.2" font-family="Helvetica,sans-Serif" font-weight="bold" font-size="11.00">firmware_targets</text>
<text text-anchor="start" x="216.5" y="-175.2" font-family="Helvetica,sans-Serif" font-size="11.00">[table]</text>
<polygon fill="none" stroke="black" points="10.5,-145 10.5,-167 134.5,-167 134.5,-145 10.5,-145"/>
<image xlink:href="../../images/primaryKeys.png" width="11px" height="12px" preserveAspectRatio="xMinYMin meet" x="15.5" y="-162"/>
<text text-anchor="start" x="30.5" y="-153.2" font-family="Helvetica,sans-Serif" font-size="11.00">id</text>
<polygon fill="none" stroke="black" points="134.5,-145 134.5,-167 255.5,-167 255.5,-145 134.5,-145"/>
<text text-anchor="start" x="137.5" y="-153.2" font-family="Helvetica,sans-Serif" font-size="11.00">bigserial[19]</text>
<polygon fill="none" stroke="black" points="10.5,-123 10.5,-145 134.5,-145 134.5,-123 10.5,-123"/>
<text text-anchor="start" x="30.5" y="-131.2" font-family="Helvetica,sans-Serif" font-size="11.00">manufacturer</text>
<polygon fill="none" stroke="black" points="134.5,-123 134.5,-145 255.5,-145 255.5,-123 134.5,-123"/>
<text text-anchor="start" x="137.5" y="-131.2" font-family="Helvetica,sans-Serif" font-size="11.00">varchar[2147483647]</text>
<polygon fill="none" stroke="black" points="10.5,-101 10.5,-123 134.5,-123 134.5,-101 10.5,-101"/>
<text text-anchor="start" x="30.5" y="-109.2" font-family="Helvetica,sans-Serif" font-size="11.00">model</text>
<polygon fill="none" stroke="black" points="134.5,-101 134.5,-123 255.5,-123 255.5,-101 134.5,-101"/>
<text text-anchor="start" x="137.5" y="-109.2" font-family="Helvetica,sans-Serif" font-size="11.00">varchar[2147483647]</text>
<polygon fill="none" stroke="black" points="10.5,-79 10.5,-101 134.5,-101 134.5,-79 10.5,-79"/>
<text text-anchor="start" x="30.5" y="-87.2" font-family="Helvetica,sans-Serif" font-size="11.00">created_at</text>
<polygon fill="none" stroke="black" points="134.5,-79 134.5,-101 255.5,-101 255.5,-79 134.5,-79"/>
<text text-anchor="start" x="137.5" y="-87.2" font-family="Helvetica,sans-Serif" font-size="11.00">timestamp[29,6]</text>
<polygon fill="none" stroke="black" points="10.5,-57 10.5,-79 134.5,-79 134.5,-57 10.5,-57"/>
<text text-anchor="start" x="30.5" y="-65.2" font-family="Helvetica,sans-Serif" font-size="11.00">updated_at</text>
<polygon fill="none" stroke="black" points="134.5,-57 134.5,-79 255.5,-79 255.5,-57 134.5,-57"/>
<text text-anchor="start" x="137.5" y="-65.2" font-family="Helvetica,sans-Serif" font-size="11.00">timestamp[29,6]</text>
<polygon fill="#ffffff" stroke="none" points="10.5,-39 10.5,-57 77.5,-57 77.5,-39 10.5,-39"/>
<polygon fill="none" stroke="black" points="10.5,-39 10.5,-57 77.5,-57 77.5,-39 10.5,-39"/>
<text text-anchor="start" x="13.5" y="-45.2" font-family="Helvetica,sans-Serif" font-size="11.00">&lt; 0</text>
<polygon fill="#ffffff" stroke="none" points="77.5,-39 77.5,-57 134.5,-57 134.5,-39 77.5,-39"/>
<polygon fill="none" stroke="black" points="77.5,-39 77.5,-57 134.5,-57 134.5,-39 77.5,-39"/>
<text text-anchor="start" x="124.5" y="-45.2" font-family="Helvetica,sans-Serif" font-size="11.00"> &#160;</text>
<polygon fill="#ffffff" stroke="none" points="134.5,-39 134.5,-57 255.5,-57 255.5,-39 134.5,-39"/>
<polygon fill="none" stroke="black" points="134.5,-39 134.5,-57 255.5,-57 255.5,-39 134.5,-39"/>
<text text-anchor="start" x="235.5" y="-45.2" font-family="Helvetica,sans-Serif" font-size="11.00">1 &gt;</text>
<polygon fill="none" stroke="black" stroke-width="2" points="9,-38 9,-190 256,-190 256,-38 9,-38"/>
</a>
</g>
</g>
<!-- firmware_binaries_firmware_targets&#45;&gt;firmware_targets -->
<g id="edge1" class="edge"><title>firmware_binaries_firmware_targets:firmware_target_id:w&#45;&gt;firmware_targets:id.type:e</title>
<path fill="none" stroke="black" d="M290.283,-156C279.289,-156 272.161,-156 256.5,-156"/>
<polygon fill="black" stroke="black" points="297,-156 305,-159.6 301,-156 305,-156 305,-156 305,-156 301,-156 305,-152.4 297,-156 297,-156"/>
<ellipse fill="none" stroke="black" cx="293.8" cy="-156" rx="3.2" ry="3.2"/>
</g>
</g>
</svg>
