<?xml version="1.0" encoding="UTF-8" standalone="no"?>
<!DOCTYPE svg PUBLIC "-//W3C//DTD SVG 1.1//EN"
 "http://www.w3.org/Graphics/SVG/1.1/DTD/svg11.dtd">
<!-- Generated by graphviz version 2.38.0 (20140413.2041)
 -->
<!-- Title: twoDegreesRelationshipsDiagram Pages: 1 -->
<svg width="576pt" height="282pt"
 viewBox="0.00 0.00 576.00 282.00" xmlns="http://www.w3.org/2000/svg" xmlns:xlink="http://www.w3.org/1999/xlink">
<g id="graph0" class="graph" transform="scale(1 1) rotate(0) translate(4 278)">
<title>twoDegreesRelationshipsDiagram</title>
<polygon fill="#ffffff" stroke="none" points="-4,4 -4,-278 572,-278 572,4 -4,4"/>
<text text-anchor="middle" x="74.5" y="-7.2" font-family="Helvetica,sans-Serif" font-size="11.00">Generated by SchemaSpy</text>
<!-- firmware_binaries_firmware_targets -->
<g id="node1" class="node"><title>firmware_binaries_firmware_targets</title>
<g id="a_node1"><a xlink:href="../../tables/firmware_binaries_firmware_targets.html" xlink:title="firmware_binaries_firmware_targets" target="_top">
<polygon fill="#ffffff" stroke="none" points="306,-157 306,-263 560,-263 560,-157 306,-157"/>
<polygon fill="#f5f5f5" stroke="none" points="306,-241 306,-263 560,-263 560,-241 306,-241"/>
<polygon fill="none" stroke="black" points="306,-241 306,-263 560,-263 560,-241 306,-241"/>
<text text-anchor="start" x="311" y="-250.2" font-family="Helvetica,sans-Serif" font-weight="bold" font-size="11.00">firmware_binaries_firmware_targets</text>
<text text-anchor="start" x="521" y="-249.2" font-family="Helvetica,sans-Serif" font-size="11.00">[table]</text>
<polygon fill="none" stroke="black" points="306,-219 306,-241 560,-241 560,-219 306,-219"/>
<image xlink:href="../../images/primaryKeys.png" width="11px" height="12px" preserveAspectRatio="xMinYMin meet" x="311" y="-236"/>
<text text-anchor="start" x="334" y="-227.2" font-family="Helvetica,sans-Serif" font-size="11.00">id</text>
<polygon fill="#ffffff" stroke="none" points="306,-197 306,-219 560,-219 560,-197 306,-197"/>
<polygon fill="none" stroke="black" points="306,-197 306,-219 560,-219 560,-197 306,-197"/>
<image xlink:href="../../images/foreignKeys.png" width="11px" height="12px" preserveAspectRatio="xMinYMin meet" x="311" y="-214"/>
<text text-anchor="start" x="334" y="-205.2" font-family="Helvetica,sans-Serif" font-size="11.00">firmware_binary_id</text>
<polygon fill="#ffffff" stroke="none" points="306,-175 306,-197 560,-197 560,-175 306,-175"/>
<polygon fill="none" stroke="black" points="306,-175 306,-197 560,-197 560,-175 306,-175"/>
<image xlink:href="../../images/foreignKeys.png" width="11px" height="12px" preserveAspectRatio="xMinYMin meet" x="311" y="-192"/>
<text text-anchor="start" x="334" y="-183.2" font-family="Helvetica,sans-Serif" font-size="11.00">firmware_target_id</text>
<polygon fill="#ffffff" stroke="none" points="306,-157 306,-175 431,-175 431,-157 306,-157"/>
<polygon fill="none" stroke="black" points="306,-157 306,-175 431,-175 431,-157 306,-157"/>
<text text-anchor="start" x="309" y="-163.2" font-family="Helvetica,sans-Serif" font-size="11.00">&lt; 2</text>
<polygon fill="#ffffff" stroke="none" points="431,-157 431,-175 495,-175 495,-157 431,-157"/>
<polygon fill="none" stroke="black" points="431,-157 431,-175 495,-175 495,-157 431,-157"/>
<text text-anchor="start" x="485" y="-163.2" font-family="Helvetica,sans-Serif" font-size="11.00"> &#160;</text>
<polygon fill="#ffffff" stroke="none" points="495,-157 495,-175 560,-175 560,-157 495,-157"/>
<polygon fill="none" stroke="black" points="495,-157 495,-175 560,-175 560,-157 495,-157"/>
<text text-anchor="start" x="550" y="-163.2" font-family="Helvetica,sans-Serif" font-size="11.00"> &#160;</text>
</a>
</g>
</g>
<!-- firmware_binaries -->
<g id="node2" class="node"><title>firmware_binaries</title>
<g id="a_node2"><a xlink:href="../../tables/firmware_binaries.html" xlink:title="firmware_binaries" target="_top">
<polygon fill="#ffffff" stroke="none" points="56.5,-212 56.5,-270 208.5,-270 208.5,-212 56.5,-212"/>
<polygon fill="#f5f5f5" stroke="none" points="56.5,-248 56.5,-270 208.5,-270 208.5,-248 56.5,-248"/>
<polygon fill="none" stroke="black" points="56.5,-248 56.5,-270 208.5,-270 208.5,-248 56.5,-248"/>
<text text-anchor="start" x="61.5" y="-257.2" font-family="Helvetica,sans-Serif" font-weight="bold" font-size="11.00">firmware_binaries</text>
<text text-anchor="start" x="169.5" y="-256.2" font-family="Helvetica,sans-Serif" font-size="11.00">[table]</text>
<polygon fill="none" stroke="black" points="56.5,-230 56.5,-248 208.5,-248 208.5,-230 56.5,-230"/>
<text text-anchor="start" x="59.5" y="-236.2" font-family="Helvetica,sans-Serif" font-size="11.00">...</text>
<polygon fill="#ffffff" stroke="none" points="56.5,-212 56.5,-230 125.5,-230 125.5,-212 56.5,-212"/>
<polygon fill="none" stroke="black" points="56.5,-212 56.5,-230 125.5,-230 125.5,-212 56.5,-212"/>
<text text-anchor="start" x="59.5" y="-218.2" font-family="Helvetica,sans-Serif" font-size="11.00">&lt; 1</text>
<polygon fill="#ffffff" stroke="none" points="125.5,-212 125.5,-230 161.5,-230 161.5,-212 125.5,-212"/>
<polygon fill="none" stroke="black" points="125.5,-212 125.5,-230 161.5,-230 161.5,-212 125.5,-212"/>
<text text-anchor="start" x="151.5" y="-218.2" font-family="Helvetica,sans-Serif" font-size="11.00"> &#160;</text>
<polygon fill="#ffffff" stroke="none" points="161.5,-212 161.5,-230 208.5,-230 208.5,-212 161.5,-212"/>
<polygon fill="none" stroke="black" points="161.5,-212 161.5,-230 208.5,-230 208.5,-212 161.5,-212"/>
<text text-anchor="start" x="188.5" y="-218.2" font-family="Helvetica,sans-Serif" font-size="11.00">1 &gt;</text>
</a>
</g>
</g>
<!-- firmware_binaries_firmware_targets&#45;&gt;firmware_binaries -->
<g id="edge1" class="edge"><title>firmware_binaries_firmware_targets:firmware_binary_id:w&#45;&gt;firmware_binaries:elipses:e</title>
<path fill="none" stroke="black" d="M290.341,-209.254C258.299,-215.053 248.721,-239 209.5,-239"/>
<polygon fill="black" stroke="black" points="297.029,-208.682 305.307,-211.587 301.015,-208.341 305,-208 305,-208 305,-208 301.015,-208.341 304.693,-204.413 297.029,-208.682 297.029,-208.682"/>
<ellipse fill="none" stroke="black" cx="293.841" cy="-208.954" rx="3.2" ry="3.2"/>
</g>
<!-- firmware_targets -->
<g id="node3" class="node"><title>firmware_targets</title>
<g id="a_node3"><a xlink:href="../../tables/firmware_targets.html" xlink:title="firmware_targets" target="_top">
<polygon fill="#ffffff" stroke="none" points="8,-37 8,-191 257,-191 257,-37 8,-37"/>
<polygon fill="#f5f5f5" stroke="none" points="10.5,-167 10.5,-189 255.5,-189 255.5,-167 10.5,-167"/>
<polygon fill="none" stroke="black" points="10.5,-167 10.5,-189 255.5,-189 255.5,-167 10.5,-167"/>
<text text-anchor="start" x="15.5" y="-176.2" font-family="Helvetica,sans-Serif" font-weight="bold" font-size="11.00">firmware_targets</text>
<text text-anchor="start" x="216.5" y="-175.2" font-family="Helvetica,sans-Serif" font-size="11.00">[table]</text>
<polygon fill="none" stroke="black" points="10.5,-145 10.5,-167 134.5,-167 134.5,-145 10.5,-145"/>
<image xlink:href="../../images/primaryKeys.png" width="11px" height="12px" preserveAspectRatio="xMinYMin meet" x="15.5" y="-162"/>
<text text-anchor="start" x="30.5" y="-153.2" font-family="Helvetica,sans-Serif" font-size="11.00">id</text>
<polygon fill="none" stroke="black" points="134.5,-145 134.5,-167 255.5,-167 255.5,-145 134.5,-145"/>
<text text-anchor="start" x="137.5" y="-153.2" font-family="Helvetica,sans-Serif" font-size="11.00">bigserial[19]</text>
<polygon fill="none" stroke="black" points="10.5,-123 10.5,-145 134.5,-145 134.5,-123 10.5,-123"/>
<text text-anchor="start" x="30.5" y="-131.2" font-family="Helvetica,sans-Serif" font-size="11.00">manufacturer</text>
<polygon fill="none" stroke="black" points="134.5,-123 134.5,-145 255.5,-145 255.5,-123 134.5,-123"/>
<text text-anchor="start" x="137.5" y="-131.2" font-family="Helvetica,sans-Serif" font-size="11.00">varchar[2147483647]</text>
<polygon fill="none" stroke="black" points="10.5,-101 10.5,-123 134.5,-123 134.5,-101 10.5,-101"/>
<text text-anchor="start" x="30.5" y="-109.2" font-family="Helvetica,sans-Serif" font-size="11.00">model</text>
<polygon fill="none" stroke="black" points="134.5,-101 134.5,-123 255.5,-123 255.5,-101 134.5,-101"/>
<text text-anchor="start" x="137.5" y="-109.2" font-family="Helvetica,sans-Serif" font-size="11.00">varchar[2147483647]</text>
<polygon fill="none" stroke="black" points="10.5,-79 10.5,-101 134.5,-101 134.5,-79 10.5,-79"/>
<text text-anchor="start" x="30.5" y="-87.2" font-family="Helvetica,sans-Serif" font-size="11.00">created_at</text>
<polygon fill="none" stroke="black" points="134.5,-79 134.5,-101 255.5,-101 255.5,-79 134.5,-79"/>
<text text-anchor="start" x="137.5" y="-87.2" font-family="Helvetica,sans-Serif" font-size="11.00">timestamp[29,6]</text>
<polygon fill="none" stroke="black" points="10.5,-57 10.5,-79 134.5,-79 134.5,-57 10.5,-57"/>
<text text-anchor="start" x="30.5" y="-65.2" font-family="Helvetica,sans-Serif" font-size="11.00">updated_at</text>
<polygon fill="none" stroke="black" points="134.5,-57 134.5,-79 255.5,-79 255.5,-57 134.5,-57"/>
<text text-anchor="start" x="137.5" y="-65.2" font-family="Helvetica,sans-Serif" font-size="11.00">timestamp[29,6]</text>
<polygon fill="#ffffff" stroke="none" points="10.5,-39 10.5,-57 77.5,-57 77.5,-39 10.5,-39"/>
<polygon fill="none" stroke="black" points="10.5,-39 10.5,-57 77.5,-57 77.5,-39 10.5,-39"/>
<text text-anchor="start" x="13.5" y="-45.2" font-family="Helvetica,sans-Serif" font-size="11.00">&lt; 0</text>
<polygon fill="#ffffff" stroke="none" points="77.5,-39 77.5,-57 134.5,-57 134.5,-39 77.5,-39"/>
<polygon fill="none" stroke="black" points="77.5,-39 77.5,-57 134.5,-57 134.5,-39 77.5,-39"/>
<text text-anchor="start" x="124.5" y="-45.2" font-family="Helvetica,sans-Serif" font-size="11.00"> &#160;</text>
<polygon fill="#ffffff" stroke="none" points="134.5,-39 134.5,-57 255.5,-57 255.5,-39 134.5,-39"/>
<polygon fill="none" stroke="black" points="134.5,-39 134.5,-57 255.5,-57 255.5,-39 134.5,-39"/>
<text text-anchor="start" x="235.5" y="-45.2" font-family="Helvetica,sans-Serif" font-size="11.00">1 &gt;</text>
<polygon fill="none" stroke="black" stroke-width="2" points="9,-38 9,-190 256,-190 256,-38 9,-38"/>
</a>
</g>
</g>
<!-- firmware_binaries_firmware_targets&#45;&gt;firmware_targets -->
<g id="edge2" class="edge"><title>firmware_binaries_firmware_targets:firmware_target_id:w&#45;&gt;firmware_targets:id.type:e</title>
<path fill="none" stroke="black" d="M291.008,-181.829C279.169,-173.585 275.906,-156 256.5,-156"/>
<polygon fill="black" stroke="black" points="297.333,-183.714 303.971,-189.45 301.167,-184.857 305,-186 305,-186 305,-186 301.167,-184.857 306.029,-182.55 297.333,-183.714 297.333,-183.714"/>
<ellipse fill="none" stroke="black" cx="294.267" cy="-182.8" rx="3.20001" ry="3.20001"/>
</g>
</g>
</svg>
