<?xml version="1.0" encoding="UTF-8" standalone="no"?>
<!DOCTYPE svg PUBLIC "-//W3C//DTD SVG 1.1//EN"
 "http://www.w3.org/Graphics/SVG/1.1/DTD/svg11.dtd">
<!-- Generated by graphviz version 2.38.0 (20140413.2041)
 -->
<!-- Title: oneDegreeRelationshipsDiagram Pages: 1 -->
<svg width="804pt" height="311pt"
 viewBox="0.00 0.00 804.00 311.00" xmlns="http://www.w3.org/2000/svg" xmlns:xlink="http://www.w3.org/1999/xlink">
<g id="graph0" class="graph" transform="scale(1 1) rotate(0) translate(4 307)">
<title>oneDegreeRelationshipsDiagram</title>
<polygon fill="#ffffff" stroke="none" points="-4,4 -4,-307 800,-307 800,4 -4,4"/>
<text text-anchor="middle" x="74.5" y="-7.2" font-family="Helvetica,sans-Serif" font-size="11.00">Generated by SchemaSpy</text>
<!-- firmware_binaries -->
<g id="node1" class="node"><title>firmware_binaries</title>
<g id="a_node1"><a xlink:href="../../tables/firmware_binaries.html" xlink:title="firmware_binaries" target="_top">
<polygon fill="#ffffff" stroke="none" points="216,-37 216,-279 485,-279 485,-37 216,-37"/>
<polygon fill="#f5f5f5" stroke="none" points="218.5,-255 218.5,-277 483.5,-277 483.5,-255 218.5,-255"/>
<polygon fill="none" stroke="black" points="218.5,-255 218.5,-277 483.5,-277 483.5,-255 218.5,-255"/>
<text text-anchor="start" x="223.5" y="-264.2" font-family="Helvetica,sans-Serif" font-weight="bold" font-size="11.00">firmware_binaries</text>
<text text-anchor="start" x="444.5" y="-263.2" font-family="Helvetica,sans-Serif" font-size="11.00">[table]</text>
<polygon fill="none" stroke="black" points="218.5,-233 218.5,-255 362.5,-255 362.5,-233 218.5,-233"/>
<image xlink:href="../../images/primaryKeys.png" width="11px" height="12px" preserveAspectRatio="xMinYMin meet" x="223.5" y="-250"/>
<text text-anchor="start" x="238.5" y="-241.2" font-family="Helvetica,sans-Serif" font-size="11.00">id</text>
<polygon fill="none" stroke="black" points="362.5,-233 362.5,-255 483.5,-255 483.5,-233 362.5,-233"/>
<text text-anchor="start" x="365.5" y="-241.2" font-family="Helvetica,sans-Serif" font-size="11.00">bigserial[19]</text>
<polygon fill="none" stroke="black" points="218.5,-211 218.5,-233 362.5,-233 362.5,-211 218.5,-211"/>
<text text-anchor="start" x="238.5" y="-219.2" font-family="Helvetica,sans-Serif" font-size="11.00">name</text>
<polygon fill="none" stroke="black" points="362.5,-211 362.5,-233 483.5,-233 483.5,-211 362.5,-211"/>
<text text-anchor="start" x="365.5" y="-219.2" font-family="Helvetica,sans-Serif" font-size="11.00">varchar[2147483647]</text>
<polygon fill="none" stroke="black" points="218.5,-189 218.5,-211 362.5,-211 362.5,-189 218.5,-189"/>
<text text-anchor="start" x="238.5" y="-197.2" font-family="Helvetica,sans-Serif" font-size="11.00">external_ref</text>
<polygon fill="none" stroke="black" points="362.5,-189 362.5,-211 483.5,-211 483.5,-189 362.5,-189"/>
<text text-anchor="start" x="365.5" y="-197.2" font-family="Helvetica,sans-Serif" font-size="11.00">varchar[2147483647]</text>
<polygon fill="none" stroke="black" points="218.5,-167 218.5,-189 362.5,-189 362.5,-167 218.5,-167"/>
<text text-anchor="start" x="238.5" y="-175.2" font-family="Helvetica,sans-Serif" font-size="11.00">description</text>
<polygon fill="none" stroke="black" points="362.5,-167 362.5,-189 483.5,-189 483.5,-167 362.5,-167"/>
<text text-anchor="start" x="365.5" y="-175.2" font-family="Helvetica,sans-Serif" font-size="11.00">text[2147483647]</text>
<polygon fill="none" stroke="black" points="218.5,-145 218.5,-167 362.5,-167 362.5,-145 218.5,-145"/>
<text text-anchor="start" x="238.5" y="-153.2" font-family="Helvetica,sans-Serif" font-size="11.00">version</text>
<polygon fill="none" stroke="black" points="362.5,-145 362.5,-167 483.5,-167 483.5,-145 362.5,-145"/>
<text text-anchor="start" x="365.5" y="-153.2" font-family="Helvetica,sans-Serif" font-size="11.00">varchar[2147483647]</text>
<polygon fill="none" stroke="black" points="218.5,-123 218.5,-145 362.5,-145 362.5,-123 218.5,-123"/>
<text text-anchor="start" x="238.5" y="-131.2" font-family="Helvetica,sans-Serif" font-size="11.00">type</text>
<polygon fill="none" stroke="black" points="362.5,-123 362.5,-145 483.5,-145 483.5,-123 362.5,-123"/>
<text text-anchor="start" x="365.5" y="-131.2" font-family="Helvetica,sans-Serif" font-size="11.00">varchar[2147483647]</text>
<polygon fill="#ffffff" stroke="none" points="218.5,-101 218.5,-123 362.5,-123 362.5,-101 218.5,-101"/>
<polygon fill="none" stroke="black" points="218.5,-101 218.5,-123 362.5,-123 362.5,-101 218.5,-101"/>
<image xlink:href="../../images/foreignKeys.png" width="11px" height="12px" preserveAspectRatio="xMinYMin meet" x="223.5" y="-118"/>
<text text-anchor="start" x="238.5" y="-109.2" font-family="Helvetica,sans-Serif" font-size="11.00">firmware_registry_id</text>
<polygon fill="none" stroke="black" points="362.5,-101 362.5,-123 483.5,-123 483.5,-101 362.5,-101"/>
<text text-anchor="start" x="365.5" y="-109.2" font-family="Helvetica,sans-Serif" font-size="11.00">int8[19]</text>
<polygon fill="none" stroke="black" points="218.5,-79 218.5,-101 362.5,-101 362.5,-79 218.5,-79"/>
<text text-anchor="start" x="238.5" y="-87.2" font-family="Helvetica,sans-Serif" font-size="11.00">created_at</text>
<polygon fill="none" stroke="black" points="362.5,-79 362.5,-101 483.5,-101 483.5,-79 362.5,-79"/>
<text text-anchor="start" x="365.5" y="-87.2" font-family="Helvetica,sans-Serif" font-size="11.00">timestamp[29,6]</text>
<polygon fill="none" stroke="black" points="218.5,-57 218.5,-79 362.5,-79 362.5,-57 218.5,-57"/>
<text text-anchor="start" x="238.5" y="-65.2" font-family="Helvetica,sans-Serif" font-size="11.00">updated_at</text>
<polygon fill="none" stroke="black" points="362.5,-57 362.5,-79 483.5,-79 483.5,-57 362.5,-57"/>
<text text-anchor="start" x="365.5" y="-65.2" font-family="Helvetica,sans-Serif" font-size="11.00">timestamp[29,6]</text>
<polygon fill="#ffffff" stroke="none" points="218.5,-39 218.5,-57 295.5,-57 295.5,-39 218.5,-39"/>
<polygon fill="none" stroke="black" points="218.5,-39 218.5,-57 295.5,-57 295.5,-39 218.5,-39"/>
<text text-anchor="start" x="221.5" y="-45.2" font-family="Helvetica,sans-Serif" font-size="11.00">&lt; 1</text>
<polygon fill="#ffffff" stroke="none" points="295.5,-39 295.5,-57 362.5,-57 362.5,-39 295.5,-39"/>
<polygon fill="none" stroke="black" points="295.5,-39 295.5,-57 362.5,-57 362.5,-39 295.5,-39"/>
<text text-anchor="start" x="352.5" y="-45.2" font-family="Helvetica,sans-Serif" font-size="11.00"> &#160;</text>
<polygon fill="#ffffff" stroke="none" points="362.5,-39 362.5,-57 483.5,-57 483.5,-39 362.5,-39"/>
<polygon fill="none" stroke="black" points="362.5,-39 362.5,-57 483.5,-57 483.5,-39 362.5,-39"/>
<text text-anchor="start" x="463.5" y="-45.2" font-family="Helvetica,sans-Serif" font-size="11.00">1 &gt;</text>
<polygon fill="none" stroke="black" stroke-width="2" points="217,-38 217,-278 484,-278 484,-38 217,-38"/>
</a>
</g>
</g>
<!-- firmware_registries -->
<g id="node2" class="node"><title>firmware_registries</title>
<g id="a_node2"><a xlink:href="../../tables/firmware_registries.html" xlink:title="firmware_registries" target="_top">
<polygon fill="#ffffff" stroke="none" points="8,-65 8,-145 167,-145 167,-65 8,-65"/>
<polygon fill="#f5f5f5" stroke="none" points="8.5,-123 8.5,-145 167.5,-145 167.5,-123 8.5,-123"/>
<polygon fill="none" stroke="black" points="8.5,-123 8.5,-145 167.5,-145 167.5,-123 8.5,-123"/>
<text text-anchor="start" x="13.5" y="-132.2" font-family="Helvetica,sans-Serif" font-weight="bold" font-size="11.00">firmware_registries</text>
<text text-anchor="start" x="128.5" y="-131.2" font-family="Helvetica,sans-Serif" font-size="11.00">[table]</text>
<polygon fill="none" stroke="black" points="8.5,-101 8.5,-123 167.5,-123 167.5,-101 8.5,-101"/>
<image xlink:href="../../images/primaryKeys.png" width="11px" height="12px" preserveAspectRatio="xMinYMin meet" x="13.5" y="-118"/>
<text text-anchor="start" x="39.5" y="-109.2" font-family="Helvetica,sans-Serif" font-size="11.00">id</text>
<polygon fill="none" stroke="black" points="8.5,-83 8.5,-101 167.5,-101 167.5,-83 8.5,-83"/>
<text text-anchor="start" x="11.5" y="-89.2" font-family="Helvetica,sans-Serif" font-size="11.00">...</text>
<polygon fill="#ffffff" stroke="none" points="8.5,-65 8.5,-83 76.5,-83 76.5,-65 8.5,-65"/>
<polygon fill="none" stroke="black" points="8.5,-65 8.5,-83 76.5,-83 76.5,-65 8.5,-65"/>
<text text-anchor="start" x="11.5" y="-71.2" font-family="Helvetica,sans-Serif" font-size="11.00"> &#160;</text>
<polygon fill="#ffffff" stroke="none" points="76.5,-65 76.5,-83 116.5,-83 116.5,-65 76.5,-65"/>
<polygon fill="none" stroke="black" points="76.5,-65 76.5,-83 116.5,-83 116.5,-65 76.5,-65"/>
<text text-anchor="start" x="106.5" y="-71.2" font-family="Helvetica,sans-Serif" font-size="11.00"> &#160;</text>
<polygon fill="#ffffff" stroke="none" points="116.5,-65 116.5,-83 167.5,-83 167.5,-65 116.5,-65"/>
<polygon fill="none" stroke="black" points="116.5,-65 116.5,-83 167.5,-83 167.5,-65 116.5,-65"/>
<text text-anchor="start" x="147.5" y="-71.2" font-family="Helvetica,sans-Serif" font-size="11.00">1 &gt;</text>
</a>
</g>
</g>
<!-- firmware_binaries&#45;&gt;firmware_registries -->
<g id="edge1" class="edge"><title>firmware_binaries:firmware_registry_id:w&#45;&gt;firmware_registries:id:e</title>
<path fill="none" stroke="black" d="M202.991,-112C191.677,-112 184.493,-112 168.5,-112"/>
<polygon fill="black" stroke="black" points="209.5,-112 217.5,-115.6 213.5,-112 217.5,-112 217.5,-112 217.5,-112 213.5,-112 217.5,-108.4 209.5,-112 209.5,-112"/>
<ellipse fill="none" stroke="black" cx="206.3" cy="-112" rx="3.2" ry="3.2"/>
</g>
<!-- firmware_binaries_firmware_targets -->
<g id="node3" class="node"><title>firmware_binaries_firmware_targets</title>
<g id="a_node3"><a xlink:href="../../tables/firmware_binaries_firmware_targets.html" xlink:title="firmware_binaries_firmware_targets" target="_top">
<polygon fill="#ffffff" stroke="none" points="534,-193 534,-299 788,-299 788,-193 534,-193"/>
<polygon fill="#f5f5f5" stroke="none" points="534,-277 534,-299 788,-299 788,-277 534,-277"/>
<polygon fill="none" stroke="black" points="534,-277 534,-299 788,-299 788,-277 534,-277"/>
<text text-anchor="start" x="539" y="-286.2" font-family="Helvetica,sans-Serif" font-weight="bold" font-size="11.00">firmware_binaries_firmware_targets</text>
<text text-anchor="start" x="749" y="-285.2" font-family="Helvetica,sans-Serif" font-size="11.00">[table]</text>
<polygon fill="none" stroke="black" points="534,-255 534,-277 788,-277 788,-255 534,-255"/>
<image xlink:href="../../images/primaryKeys.png" width="11px" height="12px" preserveAspectRatio="xMinYMin meet" x="539" y="-272"/>
<text text-anchor="start" x="562" y="-263.2" font-family="Helvetica,sans-Serif" font-size="11.00">id</text>
<polygon fill="#ffffff" stroke="none" points="534,-233 534,-255 788,-255 788,-233 534,-233"/>
<polygon fill="none" stroke="black" points="534,-233 534,-255 788,-255 788,-233 534,-233"/>
<image xlink:href="../../images/foreignKeys.png" width="11px" height="12px" preserveAspectRatio="xMinYMin meet" x="539" y="-250"/>
<text text-anchor="start" x="562" y="-241.2" font-family="Helvetica,sans-Serif" font-size="11.00">firmware_binary_id</text>
<polygon fill="#ffffff" stroke="none" points="534,-211 534,-233 788,-233 788,-211 534,-211"/>
<polygon fill="none" stroke="black" points="534,-211 534,-233 788,-233 788,-211 534,-211"/>
<image xlink:href="../../images/foreignKeys.png" width="11px" height="12px" preserveAspectRatio="xMinYMin meet" x="539" y="-228"/>
<text text-anchor="start" x="562" y="-219.2" font-family="Helvetica,sans-Serif" font-size="11.00">firmware_target_id</text>
<polygon fill="#ffffff" stroke="none" points="534,-193 534,-211 659,-211 659,-193 534,-193"/>
<polygon fill="none" stroke="black" points="534,-193 534,-211 659,-211 659,-193 534,-193"/>
<text text-anchor="start" x="537" y="-199.2" font-family="Helvetica,sans-Serif" font-size="11.00">&lt; 2</text>
<polygon fill="#ffffff" stroke="none" points="659,-193 659,-211 723,-211 723,-193 659,-193"/>
<polygon fill="none" stroke="black" points="659,-193 659,-211 723,-211 723,-193 659,-193"/>
<text text-anchor="start" x="713" y="-199.2" font-family="Helvetica,sans-Serif" font-size="11.00"> &#160;</text>
<polygon fill="#ffffff" stroke="none" points="723,-193 723,-211 788,-211 788,-193 723,-193"/>
<polygon fill="none" stroke="black" points="723,-193 723,-211 788,-211 788,-193 723,-193"/>
<text text-anchor="start" x="778" y="-199.2" font-family="Helvetica,sans-Serif" font-size="11.00"> &#160;</text>
</a>
</g>
</g>
<!-- firmware_binaries_firmware_targets&#45;&gt;firmware_binaries -->
<g id="edge2" class="edge"><title>firmware_binaries_firmware_targets:firmware_binary_id:w&#45;&gt;firmware_binaries:id.type:e</title>
<path fill="none" stroke="black" d="M518.283,-244C507.289,-244 500.161,-244 484.5,-244"/>
<polygon fill="black" stroke="black" points="525,-244 533,-247.6 529,-244 533,-244 533,-244 533,-244 529,-244 533,-240.4 525,-244 525,-244"/>
<ellipse fill="none" stroke="black" cx="521.8" cy="-244" rx="3.2" ry="3.2"/>
</g>
</g>
</svg>
