<?xml version="1.0" encoding="UTF-8" standalone="no"?>
<!DOCTYPE svg PUBLIC "-//W3C//DTD SVG 1.1//EN"
 "http://www.w3.org/Graphics/SVG/1.1/DTD/svg11.dtd">
<!-- Generated by graphviz version 2.38.0 (20140413.2041)
 -->
<!-- Title: twoDegreesRelationshipsDiagram Pages: 1 -->
<svg width="804pt" height="370pt"
 viewBox="0.00 0.00 804.00 370.00" xmlns="http://www.w3.org/2000/svg" xmlns:xlink="http://www.w3.org/1999/xlink">
<g id="graph0" class="graph" transform="scale(1 1) rotate(0) translate(4 366)">
<title>twoDegreesRelationshipsDiagram</title>
<polygon fill="#ffffff" stroke="none" points="-4,4 -4,-366 800,-366 800,4 -4,4"/>
<text text-anchor="middle" x="74.5" y="-7.2" font-family="Helvetica,sans-Serif" font-size="11.00">Generated by SchemaSpy</text>
<!-- firmware_binaries -->
<g id="node1" class="node"><title>firmware_binaries</title>
<g id="a_node1"><a xlink:href="../../tables/firmware_binaries.html" xlink:title="firmware_binaries" target="_top">
<polygon fill="#ffffff" stroke="none" points="216,-116 216,-358 485,-358 485,-116 216,-116"/>
<polygon fill="#f5f5f5" stroke="none" points="218.5,-334 218.5,-356 483.5,-356 483.5,-334 218.5,-334"/>
<polygon fill="none" stroke="black" points="218.5,-334 218.5,-356 483.5,-356 483.5,-334 218.5,-334"/>
<text text-anchor="start" x="223.5" y="-343.2" font-family="Helvetica,sans-Serif" font-weight="bold" font-size="11.00">firmware_binaries</text>
<text text-anchor="start" x="444.5" y="-342.2" font-family="Helvetica,sans-Serif" font-size="11.00">[table]</text>
<polygon fill="none" stroke="black" points="218.5,-312 218.5,-334 362.5,-334 362.5,-312 218.5,-312"/>
<image xlink:href="../../images/primaryKeys.png" width="11px" height="12px" preserveAspectRatio="xMinYMin meet" x="223.5" y="-329"/>
<text text-anchor="start" x="238.5" y="-320.2" font-family="Helvetica,sans-Serif" font-size="11.00">id</text>
<polygon fill="none" stroke="black" points="362.5,-312 362.5,-334 483.5,-334 483.5,-312 362.5,-312"/>
<text text-anchor="start" x="365.5" y="-320.2" font-family="Helvetica,sans-Serif" font-size="11.00">bigserial[19]</text>
<polygon fill="none" stroke="black" points="218.5,-290 218.5,-312 362.5,-312 362.5,-290 218.5,-290"/>
<text text-anchor="start" x="238.5" y="-298.2" font-family="Helvetica,sans-Serif" font-size="11.00">name</text>
<polygon fill="none" stroke="black" points="362.5,-290 362.5,-312 483.5,-312 483.5,-290 362.5,-290"/>
<text text-anchor="start" x="365.5" y="-298.2" font-family="Helvetica,sans-Serif" font-size="11.00">varchar[2147483647]</text>
<polygon fill="none" stroke="black" points="218.5,-268 218.5,-290 362.5,-290 362.5,-268 218.5,-268"/>
<text text-anchor="start" x="238.5" y="-276.2" font-family="Helvetica,sans-Serif" font-size="11.00">external_ref</text>
<polygon fill="none" stroke="black" points="362.5,-268 362.5,-290 483.5,-290 483.5,-268 362.5,-268"/>
<text text-anchor="start" x="365.5" y="-276.2" font-family="Helvetica,sans-Serif" font-size="11.00">varchar[2147483647]</text>
<polygon fill="none" stroke="black" points="218.5,-246 218.5,-268 362.5,-268 362.5,-246 218.5,-246"/>
<text text-anchor="start" x="238.5" y="-254.2" font-family="Helvetica,sans-Serif" font-size="11.00">description</text>
<polygon fill="none" stroke="black" points="362.5,-246 362.5,-268 483.5,-268 483.5,-246 362.5,-246"/>
<text text-anchor="start" x="365.5" y="-254.2" font-family="Helvetica,sans-Serif" font-size="11.00">text[2147483647]</text>
<polygon fill="none" stroke="black" points="218.5,-224 218.5,-246 362.5,-246 362.5,-224 218.5,-224"/>
<text text-anchor="start" x="238.5" y="-232.2" font-family="Helvetica,sans-Serif" font-size="11.00">version</text>
<polygon fill="none" stroke="black" points="362.5,-224 362.5,-246 483.5,-246 483.5,-224 362.5,-224"/>
<text text-anchor="start" x="365.5" y="-232.2" font-family="Helvetica,sans-Serif" font-size="11.00">varchar[2147483647]</text>
<polygon fill="none" stroke="black" points="218.5,-202 218.5,-224 362.5,-224 362.5,-202 218.5,-202"/>
<text text-anchor="start" x="238.5" y="-210.2" font-family="Helvetica,sans-Serif" font-size="11.00">type</text>
<polygon fill="none" stroke="black" points="362.5,-202 362.5,-224 483.5,-224 483.5,-202 362.5,-202"/>
<text text-anchor="start" x="365.5" y="-210.2" font-family="Helvetica,sans-Serif" font-size="11.00">varchar[2147483647]</text>
<polygon fill="#ffffff" stroke="none" points="218.5,-180 218.5,-202 362.5,-202 362.5,-180 218.5,-180"/>
<polygon fill="none" stroke="black" points="218.5,-180 218.5,-202 362.5,-202 362.5,-180 218.5,-180"/>
<image xlink:href="../../images/foreignKeys.png" width="11px" height="12px" preserveAspectRatio="xMinYMin meet" x="223.5" y="-197"/>
<text text-anchor="start" x="238.5" y="-188.2" font-family="Helvetica,sans-Serif" font-size="11.00">firmware_registry_id</text>
<polygon fill="none" stroke="black" points="362.5,-180 362.5,-202 483.5,-202 483.5,-180 362.5,-180"/>
<text text-anchor="start" x="365.5" y="-188.2" font-family="Helvetica,sans-Serif" font-size="11.00">int8[19]</text>
<polygon fill="none" stroke="black" points="218.5,-158 218.5,-180 362.5,-180 362.5,-158 218.5,-158"/>
<text text-anchor="start" x="238.5" y="-166.2" font-family="Helvetica,sans-Serif" font-size="11.00">created_at</text>
<polygon fill="none" stroke="black" points="362.5,-158 362.5,-180 483.5,-180 483.5,-158 362.5,-158"/>
<text text-anchor="start" x="365.5" y="-166.2" font-family="Helvetica,sans-Serif" font-size="11.00">timestamp[29,6]</text>
<polygon fill="none" stroke="black" points="218.5,-136 218.5,-158 362.5,-158 362.5,-136 218.5,-136"/>
<text text-anchor="start" x="238.5" y="-144.2" font-family="Helvetica,sans-Serif" font-size="11.00">updated_at</text>
<polygon fill="none" stroke="black" points="362.5,-136 362.5,-158 483.5,-158 483.5,-136 362.5,-136"/>
<text text-anchor="start" x="365.5" y="-144.2" font-family="Helvetica,sans-Serif" font-size="11.00">timestamp[29,6]</text>
<polygon fill="#ffffff" stroke="none" points="218.5,-118 218.5,-136 295.5,-136 295.5,-118 218.5,-118"/>
<polygon fill="none" stroke="black" points="218.5,-118 218.5,-136 295.5,-136 295.5,-118 218.5,-118"/>
<text text-anchor="start" x="221.5" y="-124.2" font-family="Helvetica,sans-Serif" font-size="11.00">&lt; 1</text>
<polygon fill="#ffffff" stroke="none" points="295.5,-118 295.5,-136 362.5,-136 362.5,-118 295.5,-118"/>
<polygon fill="none" stroke="black" points="295.5,-118 295.5,-136 362.5,-136 362.5,-118 295.5,-118"/>
<text text-anchor="start" x="352.5" y="-124.2" font-family="Helvetica,sans-Serif" font-size="11.00"> &#160;</text>
<polygon fill="#ffffff" stroke="none" points="362.5,-118 362.5,-136 483.5,-136 483.5,-118 362.5,-118"/>
<polygon fill="none" stroke="black" points="362.5,-118 362.5,-136 483.5,-136 483.5,-118 362.5,-118"/>
<text text-anchor="start" x="463.5" y="-124.2" font-family="Helvetica,sans-Serif" font-size="11.00">1 &gt;</text>
<polygon fill="none" stroke="black" stroke-width="2" points="217,-117 217,-357 484,-357 484,-117 217,-117"/>
</a>
</g>
</g>
<!-- firmware_registries -->
<g id="node2" class="node"><title>firmware_registries</title>
<g id="a_node2"><a xlink:href="../../tables/firmware_registries.html" xlink:title="firmware_registries" target="_top">
<polygon fill="#ffffff" stroke="none" points="8,-144 8,-224 167,-224 167,-144 8,-144"/>
<polygon fill="#f5f5f5" stroke="none" points="8.5,-202 8.5,-224 167.5,-224 167.5,-202 8.5,-202"/>
<polygon fill="none" stroke="black" points="8.5,-202 8.5,-224 167.5,-224 167.5,-202 8.5,-202"/>
<text text-anchor="start" x="13.5" y="-211.2" font-family="Helvetica,sans-Serif" font-weight="bold" font-size="11.00">firmware_registries</text>
<text text-anchor="start" x="128.5" y="-210.2" font-family="Helvetica,sans-Serif" font-size="11.00">[table]</text>
<polygon fill="none" stroke="black" points="8.5,-180 8.5,-202 167.5,-202 167.5,-180 8.5,-180"/>
<image xlink:href="../../images/primaryKeys.png" width="11px" height="12px" preserveAspectRatio="xMinYMin meet" x="13.5" y="-197"/>
<text text-anchor="start" x="39.5" y="-188.2" font-family="Helvetica,sans-Serif" font-size="11.00">id</text>
<polygon fill="none" stroke="black" points="8.5,-162 8.5,-180 167.5,-180 167.5,-162 8.5,-162"/>
<text text-anchor="start" x="11.5" y="-168.2" font-family="Helvetica,sans-Serif" font-size="11.00">...</text>
<polygon fill="#ffffff" stroke="none" points="8.5,-144 8.5,-162 76.5,-162 76.5,-144 8.5,-144"/>
<polygon fill="none" stroke="black" points="8.5,-144 8.5,-162 76.5,-162 76.5,-144 8.5,-144"/>
<text text-anchor="start" x="11.5" y="-150.2" font-family="Helvetica,sans-Serif" font-size="11.00"> &#160;</text>
<polygon fill="#ffffff" stroke="none" points="76.5,-144 76.5,-162 116.5,-162 116.5,-144 76.5,-144"/>
<polygon fill="none" stroke="black" points="76.5,-144 76.5,-162 116.5,-162 116.5,-144 76.5,-144"/>
<text text-anchor="start" x="106.5" y="-150.2" font-family="Helvetica,sans-Serif" font-size="11.00"> &#160;</text>
<polygon fill="#ffffff" stroke="none" points="116.5,-144 116.5,-162 167.5,-162 167.5,-144 116.5,-144"/>
<polygon fill="none" stroke="black" points="116.5,-144 116.5,-162 167.5,-162 167.5,-144 116.5,-144"/>
<text text-anchor="start" x="147.5" y="-150.2" font-family="Helvetica,sans-Serif" font-size="11.00">1 &gt;</text>
</a>
</g>
</g>
<!-- firmware_binaries&#45;&gt;firmware_registries -->
<g id="edge1" class="edge"><title>firmware_binaries:firmware_registry_id:w&#45;&gt;firmware_registries:id:e</title>
<path fill="none" stroke="black" d="M202.991,-191C191.677,-191 184.493,-191 168.5,-191"/>
<polygon fill="black" stroke="black" points="209.5,-191 217.5,-194.6 213.5,-191 217.5,-191 217.5,-191 217.5,-191 213.5,-191 217.5,-187.4 209.5,-191 209.5,-191"/>
<ellipse fill="none" stroke="black" cx="206.3" cy="-191" rx="3.2" ry="3.2"/>
</g>
<!-- firmware_binaries_firmware_targets -->
<g id="node3" class="node"><title>firmware_binaries_firmware_targets</title>
<g id="a_node3"><a xlink:href="../../tables/firmware_binaries_firmware_targets.html" xlink:title="firmware_binaries_firmware_targets" target="_top">
<polygon fill="#ffffff" stroke="none" points="534,-153 534,-259 788,-259 788,-153 534,-153"/>
<polygon fill="#f5f5f5" stroke="none" points="534,-237 534,-259 788,-259 788,-237 534,-237"/>
<polygon fill="none" stroke="black" points="534,-237 534,-259 788,-259 788,-237 534,-237"/>
<text text-anchor="start" x="539" y="-246.2" font-family="Helvetica,sans-Serif" font-weight="bold" font-size="11.00">firmware_binaries_firmware_targets</text>
<text text-anchor="start" x="749" y="-245.2" font-family="Helvetica,sans-Serif" font-size="11.00">[table]</text>
<polygon fill="none" stroke="black" points="534,-215 534,-237 788,-237 788,-215 534,-215"/>
<image xlink:href="../../images/primaryKeys.png" width="11px" height="12px" preserveAspectRatio="xMinYMin meet" x="539" y="-232"/>
<text text-anchor="start" x="562" y="-223.2" font-family="Helvetica,sans-Serif" font-size="11.00">id</text>
<polygon fill="#ffffff" stroke="none" points="534,-193 534,-215 788,-215 788,-193 534,-193"/>
<polygon fill="none" stroke="black" points="534,-193 534,-215 788,-215 788,-193 534,-193"/>
<image xlink:href="../../images/foreignKeys.png" width="11px" height="12px" preserveAspectRatio="xMinYMin meet" x="539" y="-210"/>
<text text-anchor="start" x="562" y="-201.2" font-family="Helvetica,sans-Serif" font-size="11.00">firmware_binary_id</text>
<polygon fill="#ffffff" stroke="none" points="534,-171 534,-193 788,-193 788,-171 534,-171"/>
<polygon fill="none" stroke="black" points="534,-171 534,-193 788,-193 788,-171 534,-171"/>
<image xlink:href="../../images/foreignKeys.png" width="11px" height="12px" preserveAspectRatio="xMinYMin meet" x="539" y="-188"/>
<text text-anchor="start" x="562" y="-179.2" font-family="Helvetica,sans-Serif" font-size="11.00">firmware_target_id</text>
<polygon fill="#ffffff" stroke="none" points="534,-153 534,-171 659,-171 659,-153 534,-153"/>
<polygon fill="none" stroke="black" points="534,-153 534,-171 659,-171 659,-153 534,-153"/>
<text text-anchor="start" x="537" y="-159.2" font-family="Helvetica,sans-Serif" font-size="11.00">&lt; 2</text>
<polygon fill="#ffffff" stroke="none" points="659,-153 659,-171 723,-171 723,-153 659,-153"/>
<polygon fill="none" stroke="black" points="659,-153 659,-171 723,-171 723,-153 659,-153"/>
<text text-anchor="start" x="713" y="-159.2" font-family="Helvetica,sans-Serif" font-size="11.00"> &#160;</text>
<polygon fill="#ffffff" stroke="none" points="723,-153 723,-171 788,-171 788,-153 723,-153"/>
<polygon fill="none" stroke="black" points="723,-153 723,-171 788,-171 788,-153 723,-153"/>
<text text-anchor="start" x="778" y="-159.2" font-family="Helvetica,sans-Serif" font-size="11.00"> &#160;</text>
</a>
</g>
</g>
<!-- firmware_binaries_firmware_targets&#45;&gt;firmware_binaries -->
<g id="edge2" class="edge"><title>firmware_binaries_firmware_targets:firmware_binary_id:w&#45;&gt;firmware_binaries:id.type:e</title>
<path fill="none" stroke="black" d="M518.74,-207.692C488.385,-227.778 535.589,-323 484.5,-323"/>
<polygon fill="black" stroke="black" points="525.255,-206.005 533.902,-207.485 529.128,-205.003 533,-204 533,-204 533,-204 529.128,-205.003 532.098,-200.515 525.255,-206.005 525.255,-206.005"/>
<ellipse fill="none" stroke="black" cx="522.157" cy="-206.807" rx="3.2" ry="3.2"/>
</g>
<!-- firmware_targets -->
<g id="node4" class="node"><title>firmware_targets</title>
<g id="a_node4"><a xlink:href="../../tables/firmware_targets.html" xlink:title="firmware_targets" target="_top">
<polygon fill="#ffffff" stroke="none" points="277.5,-37 277.5,-95 423.5,-95 423.5,-37 277.5,-37"/>
<polygon fill="#f5f5f5" stroke="none" points="277.5,-73 277.5,-95 423.5,-95 423.5,-73 277.5,-73"/>
<polygon fill="none" stroke="black" points="277.5,-73 277.5,-95 423.5,-95 423.5,-73 277.5,-73"/>
<text text-anchor="start" x="282.5" y="-82.2" font-family="Helvetica,sans-Serif" font-weight="bold" font-size="11.00">firmware_targets</text>
<text text-anchor="start" x="384.5" y="-81.2" font-family="Helvetica,sans-Serif" font-size="11.00">[table]</text>
<polygon fill="none" stroke="black" points="277.5,-55 277.5,-73 423.5,-73 423.5,-55 277.5,-55"/>
<text text-anchor="start" x="280.5" y="-61.2" font-family="Helvetica,sans-Serif" font-size="11.00">...</text>
<polygon fill="#ffffff" stroke="none" points="277.5,-37 277.5,-55 338.5,-55 338.5,-37 277.5,-37"/>
<polygon fill="none" stroke="black" points="277.5,-37 277.5,-55 338.5,-55 338.5,-37 277.5,-37"/>
<text text-anchor="start" x="280.5" y="-43.2" font-family="Helvetica,sans-Serif" font-size="11.00"> &#160;</text>
<polygon fill="#ffffff" stroke="none" points="338.5,-37 338.5,-55 375.5,-55 375.5,-37 338.5,-37"/>
<polygon fill="none" stroke="black" points="338.5,-37 338.5,-55 375.5,-55 375.5,-37 338.5,-37"/>
<text text-anchor="start" x="365.5" y="-43.2" font-family="Helvetica,sans-Serif" font-size="11.00"> &#160;</text>
<polygon fill="#ffffff" stroke="none" points="375.5,-37 375.5,-55 423.5,-55 423.5,-37 375.5,-37"/>
<polygon fill="none" stroke="black" points="375.5,-37 375.5,-55 423.5,-55 423.5,-37 375.5,-37"/>
<text text-anchor="start" x="403.5" y="-43.2" font-family="Helvetica,sans-Serif" font-size="11.00">1 &gt;</text>
</a>
</g>
</g>
<!-- firmware_binaries_firmware_targets&#45;&gt;firmware_targets -->
<g id="edge3" class="edge"><title>firmware_binaries_firmware_targets:firmware_target_id:w&#45;&gt;firmware_targets:elipses:e</title>
<path fill="none" stroke="black" d="M518.756,-178.415C501.435,-166.75 514.811,-129.29 493,-106 468.589,-79.9343 460.211,-64 424.5,-64"/>
<polygon fill="black" stroke="black" points="525.242,-180.047 532.121,-185.491 529.121,-181.024 533,-182 533,-182 533,-182 529.121,-181.024 533.879,-178.509 525.242,-180.047 525.242,-180.047"/>
<ellipse fill="none" stroke="black" cx="522.139" cy="-179.266" rx="3.2" ry="3.2"/>
</g>
</g>
</svg>
