<?xml version="1.0" encoding="UTF-8" standalone="no"?>
<!DOCTYPE svg PUBLIC "-//W3C//DTD SVG 1.1//EN"
 "http://www.w3.org/Graphics/SVG/1.1/DTD/svg11.dtd">
<!-- Generated by graphviz version 2.38.0 (20140413.2041)
 -->
<!-- Title: twoDegreesRelationshipsDiagram Pages: 1 -->
<svg width="746pt" height="252pt"
 viewBox="0.00 0.00 746.00 252.00" xmlns="http://www.w3.org/2000/svg" xmlns:xlink="http://www.w3.org/1999/xlink">
<g id="graph0" class="graph" transform="scale(1 1) rotate(0) translate(4 248)">
<title>twoDegreesRelationshipsDiagram</title>
<polygon fill="#ffffff" stroke="none" points="-4,4 -4,-248 742,-248 742,4 -4,4"/>
<text text-anchor="middle" x="74.5" y="-7.2" font-family="Helvetica,sans-Serif" font-size="11.00">Generated by SchemaSpy</text>
<!-- firmware_binaries -->
<g id="node1" class="node"><title>firmware_binaries</title>
<g id="a_node1"><a xlink:href="../../tables/firmware_binaries.html" xlink:title="firmware_binaries" target="_top">
<polygon fill="#ffffff" stroke="none" points="216,-138 216,-240 368,-240 368,-138 216,-138"/>
<polygon fill="#f5f5f5" stroke="none" points="216,-218 216,-240 368,-240 368,-218 216,-218"/>
<polygon fill="none" stroke="black" points="216,-218 216,-240 368,-240 368,-218 216,-218"/>
<text text-anchor="start" x="221" y="-227.2" font-family="Helvetica,sans-Serif" font-weight="bold" font-size="11.00">firmware_binaries</text>
<text text-anchor="start" x="329" y="-226.2" font-family="Helvetica,sans-Serif" font-size="11.00">[table]</text>
<polygon fill="none" stroke="black" points="216,-196 216,-218 368,-218 368,-196 216,-196"/>
<image xlink:href="../../images/primaryKeys.png" width="11px" height="12px" preserveAspectRatio="xMinYMin meet" x="221" y="-213"/>
<text text-anchor="start" x="240" y="-204.2" font-family="Helvetica,sans-Serif" font-size="11.00">id</text>
<polygon fill="#ffffff" stroke="none" points="216,-174 216,-196 368,-196 368,-174 216,-174"/>
<polygon fill="none" stroke="black" points="216,-174 216,-196 368,-196 368,-174 216,-174"/>
<image xlink:href="../../images/foreignKeys.png" width="11px" height="12px" preserveAspectRatio="xMinYMin meet" x="221" y="-191"/>
<text text-anchor="start" x="240" y="-182.2" font-family="Helvetica,sans-Serif" font-size="11.00">firmware_registry_id</text>
<polygon fill="none" stroke="black" points="216,-156 216,-174 368,-174 368,-156 216,-156"/>
<text text-anchor="start" x="219" y="-162.2" font-family="Helvetica,sans-Serif" font-size="11.00">...</text>
<polygon fill="#ffffff" stroke="none" points="216,-138 216,-156 285,-156 285,-138 216,-138"/>
<polygon fill="none" stroke="black" points="216,-138 216,-156 285,-156 285,-138 216,-138"/>
<text text-anchor="start" x="219" y="-144.2" font-family="Helvetica,sans-Serif" font-size="11.00">&lt; 1</text>
<polygon fill="#ffffff" stroke="none" points="285,-138 285,-156 321,-156 321,-138 285,-138"/>
<polygon fill="none" stroke="black" points="285,-138 285,-156 321,-156 321,-138 285,-138"/>
<text text-anchor="start" x="311" y="-144.2" font-family="Helvetica,sans-Serif" font-size="11.00"> &#160;</text>
<polygon fill="#ffffff" stroke="none" points="321,-138 321,-156 368,-156 368,-138 321,-138"/>
<polygon fill="none" stroke="black" points="321,-138 321,-156 368,-156 368,-138 321,-138"/>
<text text-anchor="start" x="348" y="-144.2" font-family="Helvetica,sans-Serif" font-size="11.00">1 &gt;</text>
</a>
</g>
</g>
<!-- firmware_registries -->
<g id="node2" class="node"><title>firmware_registries</title>
<g id="a_node2"><a xlink:href="../../tables/firmware_registries.html" xlink:title="firmware_registries" target="_top">
<polygon fill="#ffffff" stroke="none" points="8,-158 8,-216 167,-216 167,-158 8,-158"/>
<polygon fill="#f5f5f5" stroke="none" points="8.5,-194 8.5,-216 167.5,-216 167.5,-194 8.5,-194"/>
<polygon fill="none" stroke="black" points="8.5,-194 8.5,-216 167.5,-216 167.5,-194 8.5,-194"/>
<text text-anchor="start" x="13.5" y="-203.2" font-family="Helvetica,sans-Serif" font-weight="bold" font-size="11.00">firmware_registries</text>
<text text-anchor="start" x="128.5" y="-202.2" font-family="Helvetica,sans-Serif" font-size="11.00">[table]</text>
<polygon fill="none" stroke="black" points="8.5,-176 8.5,-194 167.5,-194 167.5,-176 8.5,-176"/>
<text text-anchor="start" x="11.5" y="-182.2" font-family="Helvetica,sans-Serif" font-size="11.00">...</text>
<polygon fill="#ffffff" stroke="none" points="8.5,-158 8.5,-176 76.5,-176 76.5,-158 8.5,-158"/>
<polygon fill="none" stroke="black" points="8.5,-158 8.5,-176 76.5,-176 76.5,-158 8.5,-158"/>
<text text-anchor="start" x="11.5" y="-164.2" font-family="Helvetica,sans-Serif" font-size="11.00"> &#160;</text>
<polygon fill="#ffffff" stroke="none" points="76.5,-158 76.5,-176 116.5,-176 116.5,-158 76.5,-158"/>
<polygon fill="none" stroke="black" points="76.5,-158 76.5,-176 116.5,-176 116.5,-158 76.5,-158"/>
<text text-anchor="start" x="106.5" y="-164.2" font-family="Helvetica,sans-Serif" font-size="11.00"> &#160;</text>
<polygon fill="#ffffff" stroke="none" points="116.5,-158 116.5,-176 167.5,-176 167.5,-158 116.5,-158"/>
<polygon fill="none" stroke="black" points="116.5,-158 116.5,-176 167.5,-176 167.5,-158 116.5,-158"/>
<text text-anchor="start" x="147.5" y="-164.2" font-family="Helvetica,sans-Serif" font-size="11.00">1 &gt;</text>
</a>
</g>
</g>
<!-- firmware_binaries&#45;&gt;firmware_registries -->
<g id="edge1" class="edge"><title>firmware_binaries:firmware_registry_id:w&#45;&gt;firmware_registries:elipses:e</title>
<path fill="none" stroke="black" d="M200.551,-185C190.201,-185 183.354,-185 168.5,-185"/>
<polygon fill="black" stroke="black" points="207,-185 215,-188.6 211,-185 215,-185 215,-185 215,-185 211,-185 215,-181.4 207,-185 207,-185"/>
<ellipse fill="none" stroke="black" cx="203.8" cy="-185" rx="3.2" ry="3.2"/>
</g>
<!-- firmware_binaries_firmware_targets -->
<g id="node3" class="node"><title>firmware_binaries_firmware_targets</title>
<g id="a_node3"><a xlink:href="../../tables/firmware_binaries_firmware_targets.html" xlink:title="firmware_binaries_firmware_targets" target="_top">
<polygon fill="#ffffff" stroke="none" points="417,-103 417,-213 730,-213 730,-103 417,-103"/>
<polygon fill="#f5f5f5" stroke="none" points="419.5,-189 419.5,-211 728.5,-211 728.5,-189 419.5,-189"/>
<polygon fill="none" stroke="black" points="419.5,-189 419.5,-211 728.5,-211 728.5,-189 419.5,-189"/>
<text text-anchor="start" x="424.5" y="-198.2" font-family="Helvetica,sans-Serif" font-weight="bold" font-size="11.00">firmware_binaries_firmware_targets</text>
<text text-anchor="start" x="689.5" y="-197.2" font-family="Helvetica,sans-Serif" font-size="11.00">[table]</text>
<polygon fill="none" stroke="black" points="419.5,-167 419.5,-189 657.5,-189 657.5,-167 419.5,-167"/>
<image xlink:href="../../images/primaryKeys.png" width="11px" height="12px" preserveAspectRatio="xMinYMin meet" x="424.5" y="-184"/>
<text text-anchor="start" x="439.5" y="-175.2" font-family="Helvetica,sans-Serif" font-size="11.00">id</text>
<polygon fill="none" stroke="black" points="657.5,-167 657.5,-189 728.5,-189 728.5,-167 657.5,-167"/>
<text text-anchor="start" x="660.5" y="-175.2" font-family="Helvetica,sans-Serif" font-size="11.00">bigserial[19]</text>
<polygon fill="#ffffff" stroke="none" points="419.5,-145 419.5,-167 657.5,-167 657.5,-145 419.5,-145"/>
<polygon fill="none" stroke="black" points="419.5,-145 419.5,-167 657.5,-167 657.5,-145 419.5,-145"/>
<image xlink:href="../../images/foreignKeys.png" width="11px" height="12px" preserveAspectRatio="xMinYMin meet" x="424.5" y="-162"/>
<text text-anchor="start" x="439.5" y="-153.2" font-family="Helvetica,sans-Serif" font-size="11.00">firmware_binary_id</text>
<polygon fill="none" stroke="black" points="657.5,-145 657.5,-167 728.5,-167 728.5,-145 657.5,-145"/>
<text text-anchor="start" x="660.5" y="-153.2" font-family="Helvetica,sans-Serif" font-size="11.00">int8[19]</text>
<polygon fill="#ffffff" stroke="none" points="419.5,-123 419.5,-145 657.5,-145 657.5,-123 419.5,-123"/>
<polygon fill="none" stroke="black" points="419.5,-123 419.5,-145 657.5,-145 657.5,-123 419.5,-123"/>
<image xlink:href="../../images/foreignKeys.png" width="11px" height="12px" preserveAspectRatio="xMinYMin meet" x="424.5" y="-140"/>
<text text-anchor="start" x="439.5" y="-131.2" font-family="Helvetica,sans-Serif" font-size="11.00">firmware_target_id</text>
<polygon fill="none" stroke="black" points="657.5,-123 657.5,-145 728.5,-145 728.5,-123 657.5,-123"/>
<text text-anchor="start" x="660.5" y="-131.2" font-family="Helvetica,sans-Serif" font-size="11.00">int8[19]</text>
<polygon fill="#ffffff" stroke="none" points="419.5,-105 419.5,-123 543.5,-123 543.5,-105 419.5,-105"/>
<polygon fill="none" stroke="black" points="419.5,-105 419.5,-123 543.5,-123 543.5,-105 419.5,-105"/>
<text text-anchor="start" x="422.5" y="-111.2" font-family="Helvetica,sans-Serif" font-size="11.00">&lt; 2</text>
<polygon fill="#ffffff" stroke="none" points="543.5,-105 543.5,-123 657.5,-123 657.5,-105 543.5,-105"/>
<polygon fill="none" stroke="black" points="543.5,-105 543.5,-123 657.5,-123 657.5,-105 543.5,-105"/>
<text text-anchor="start" x="647.5" y="-111.2" font-family="Helvetica,sans-Serif" font-size="11.00"> &#160;</text>
<polygon fill="#ffffff" stroke="none" points="657.5,-105 657.5,-123 728.5,-123 728.5,-105 657.5,-105"/>
<polygon fill="none" stroke="black" points="657.5,-105 657.5,-123 728.5,-123 728.5,-105 657.5,-105"/>
<text text-anchor="start" x="708.5" y="-111.2" font-family="Helvetica,sans-Serif" font-size="11.00">0 &gt;</text>
<polygon fill="none" stroke="black" stroke-width="2" points="418,-104 418,-212 729,-212 729,-104 418,-104"/>
</a>
</g>
</g>
<!-- firmware_binaries_firmware_targets&#45;&gt;firmware_binaries -->
<g id="edge2" class="edge"><title>firmware_binaries_firmware_targets:firmware_binary_id:w&#45;&gt;firmware_binaries:id:e</title>
<path fill="none" stroke="black" d="M404.497,-161.077C390.528,-173.976 394.418,-207 369,-207"/>
<polygon fill="black" stroke="black" points="410.979,-158.727 419.727,-159.384 414.739,-157.363 418.5,-156 418.5,-156 418.5,-156 414.739,-157.363 417.273,-152.616 410.979,-158.727 410.979,-158.727"/>
<ellipse fill="none" stroke="black" cx="407.971" cy="-159.817" rx="3.20001" ry="3.20001"/>
</g>
<!-- firmware_targets -->
<g id="node4" class="node"><title>firmware_targets</title>
<g id="a_node4"><a xlink:href="../../tables/firmware_targets.html" xlink:title="firmware_targets" target="_top">
<polygon fill="#ffffff" stroke="none" points="219,-37 219,-117 365,-117 365,-37 219,-37"/>
<polygon fill="#f5f5f5" stroke="none" points="219,-95 219,-117 365,-117 365,-95 219,-95"/>
<polygon fill="none" stroke="black" points="219,-95 219,-117 365,-117 365,-95 219,-95"/>
<text text-anchor="start" x="224" y="-104.2" font-family="Helvetica,sans-Serif" font-weight="bold" font-size="11.00">firmware_targets</text>
<text text-anchor="start" x="326" y="-103.2" font-family="Helvetica,sans-Serif" font-size="11.00">[table]</text>
<polygon fill="none" stroke="black" points="219,-73 219,-95 365,-95 365,-73 219,-73"/>
<image xlink:href="../../images/primaryKeys.png" width="11px" height="12px" preserveAspectRatio="xMinYMin meet" x="224" y="-90"/>
<text text-anchor="start" x="250" y="-81.2" font-family="Helvetica,sans-Serif" font-size="11.00">id</text>
<polygon fill="none" stroke="black" points="219,-55 219,-73 365,-73 365,-55 219,-55"/>
<text text-anchor="start" x="222" y="-61.2" font-family="Helvetica,sans-Serif" font-size="11.00">...</text>
<polygon fill="#ffffff" stroke="none" points="219,-37 219,-55 280,-55 280,-37 219,-37"/>
<polygon fill="none" stroke="black" points="219,-37 219,-55 280,-55 280,-37 219,-37"/>
<text text-anchor="start" x="222" y="-43.2" font-family="Helvetica,sans-Serif" font-size="11.00"> &#160;</text>
<polygon fill="#ffffff" stroke="none" points="280,-37 280,-55 317,-55 317,-37 280,-37"/>
<polygon fill="none" stroke="black" points="280,-37 280,-55 317,-55 317,-37 280,-37"/>
<text text-anchor="start" x="307" y="-43.2" font-family="Helvetica,sans-Serif" font-size="11.00"> &#160;</text>
<polygon fill="#ffffff" stroke="none" points="317,-37 317,-55 365,-55 365,-37 317,-37"/>
<polygon fill="none" stroke="black" points="317,-37 317,-55 365,-55 365,-37 317,-37"/>
<text text-anchor="start" x="345" y="-43.2" font-family="Helvetica,sans-Serif" font-size="11.00">1 &gt;</text>
</a>
</g>
</g>
<!-- firmware_binaries_firmware_targets&#45;&gt;firmware_targets -->
<g id="edge3" class="edge"><title>firmware_binaries_firmware_targets:firmware_target_id:w&#45;&gt;firmware_targets:id:e</title>
<path fill="none" stroke="black" d="M404.451,-129.386C389.204,-117.008 392.181,-84 366,-84"/>
<polygon fill="black" stroke="black" points="410.899,-131.504 417.377,-137.42 414.7,-132.752 418.5,-134 418.5,-134 418.5,-134 414.7,-132.752 419.623,-130.58 410.899,-131.504 410.899,-131.504"/>
<ellipse fill="none" stroke="black" cx="407.859" cy="-130.505" rx="3.20001" ry="3.20001"/>
</g>
</g>
</svg>
