<?xml version="1.0" encoding="UTF-8" standalone="no"?>
<!DOCTYPE svg PUBLIC "-//W3C//DTD SVG 1.1//EN"
 "http://www.w3.org/Graphics/SVG/1.1/DTD/svg11.dtd">
<!-- Generated by graphviz version 2.38.0 (20140413.2041)
 -->
<!-- Title: twoDegreesRelationshipsDiagram Pages: 1 -->
<svg width="1562pt" height="1414pt"
 viewBox="0.00 0.00 1562.00 1413.64" xmlns="http://www.w3.org/2000/svg" xmlns:xlink="http://www.w3.org/1999/xlink">
<g id="graph0" class="graph" transform="scale(1 1) rotate(0) translate(4 1409.64)">
<title>twoDegreesRelationshipsDiagram</title>
<polygon fill="#ffffff" stroke="none" points="-4,4 -4,-1409.64 1558,-1409.64 1558,4 -4,4"/>
<text text-anchor="middle" x="74.5" y="-7.2" font-family="Helvetica,sans-Serif" font-size="11.00">Generated by SchemaSpy</text>
<!-- cloud_networks -->
<g id="node1" class="node"><title>cloud_networks</title>
<g id="a_node1"><a xlink:href="../../tables/cloud_networks.html" xlink:title="cloud_networks" target="_top">
<polygon fill="#ffffff" stroke="none" points="549,-1056.27 549,-1114.27 687,-1114.27 687,-1056.27 549,-1056.27"/>
<polygon fill="#f5f5f5" stroke="none" points="549,-1092.27 549,-1114.27 687,-1114.27 687,-1092.27 549,-1092.27"/>
<polygon fill="none" stroke="black" points="549,-1092.27 549,-1114.27 687,-1114.27 687,-1092.27 549,-1092.27"/>
<text text-anchor="start" x="554" y="-1101.47" font-family="Helvetica,sans-Serif" font-weight="bold" font-size="11.00">cloud_networks</text>
<text text-anchor="start" x="648" y="-1100.47" font-family="Helvetica,sans-Serif" font-size="11.00">[table]</text>
<polygon fill="none" stroke="black" points="549,-1074.27 549,-1092.27 687,-1092.27 687,-1074.27 549,-1074.27"/>
<text text-anchor="start" x="552" y="-1080.47" font-family="Helvetica,sans-Serif" font-size="11.00">...</text>
<polygon fill="#ffffff" stroke="none" points="549,-1056.27 549,-1074.27 611,-1074.27 611,-1056.27 549,-1056.27"/>
<polygon fill="none" stroke="black" points="549,-1056.27 549,-1074.27 611,-1074.27 611,-1056.27 549,-1056.27"/>
<text text-anchor="start" x="552" y="-1062.47" font-family="Helvetica,sans-Serif" font-size="11.00">&lt; 3</text>
<polygon fill="#ffffff" stroke="none" points="611,-1056.27 611,-1074.27 644,-1074.27 644,-1056.27 611,-1056.27"/>
<polygon fill="none" stroke="black" points="611,-1056.27 611,-1074.27 644,-1074.27 644,-1056.27 611,-1056.27"/>
<text text-anchor="start" x="634" y="-1062.47" font-family="Helvetica,sans-Serif" font-size="11.00"> &#160;</text>
<polygon fill="#ffffff" stroke="none" points="644,-1056.27 644,-1074.27 687,-1074.27 687,-1056.27 644,-1056.27"/>
<polygon fill="none" stroke="black" points="644,-1056.27 644,-1074.27 687,-1074.27 687,-1056.27 644,-1056.27"/>
<text text-anchor="start" x="667" y="-1062.47" font-family="Helvetica,sans-Serif" font-size="11.00">5 &gt;</text>
</a>
</g>
</g>
<!-- cloud_tenants -->
<g id="node2" class="node"><title>cloud_tenants</title>
<g id="a_node2"><a xlink:href="../../tables/cloud_tenants.html" xlink:title="cloud_tenants" target="_top">
<polygon fill="#ffffff" stroke="none" points="150,-899.268 150,-957.268 279,-957.268 279,-899.268 150,-899.268"/>
<polygon fill="#f5f5f5" stroke="none" points="150.5,-935.268 150.5,-957.268 279.5,-957.268 279.5,-935.268 150.5,-935.268"/>
<polygon fill="none" stroke="black" points="150.5,-935.268 150.5,-957.268 279.5,-957.268 279.5,-935.268 150.5,-935.268"/>
<text text-anchor="start" x="155.5" y="-944.468" font-family="Helvetica,sans-Serif" font-weight="bold" font-size="11.00">cloud_tenants</text>
<text text-anchor="start" x="240.5" y="-943.468" font-family="Helvetica,sans-Serif" font-size="11.00">[table]</text>
<polygon fill="none" stroke="black" points="150.5,-917.268 150.5,-935.268 279.5,-935.268 279.5,-917.268 150.5,-917.268"/>
<text text-anchor="start" x="153.5" y="-923.468" font-family="Helvetica,sans-Serif" font-size="11.00">...</text>
<polygon fill="#ffffff" stroke="none" points="150.5,-899.268 150.5,-917.268 199.5,-917.268 199.5,-899.268 150.5,-899.268"/>
<polygon fill="none" stroke="black" points="150.5,-899.268 150.5,-917.268 199.5,-917.268 199.5,-899.268 150.5,-899.268"/>
<text text-anchor="start" x="153.5" y="-905.468" font-family="Helvetica,sans-Serif" font-size="11.00"> &#160;</text>
<polygon fill="#ffffff" stroke="none" points="199.5,-899.268 199.5,-917.268 230.5,-917.268 230.5,-899.268 199.5,-899.268"/>
<polygon fill="none" stroke="black" points="199.5,-899.268 199.5,-917.268 230.5,-917.268 230.5,-899.268 199.5,-899.268"/>
<text text-anchor="start" x="220.5" y="-905.468" font-family="Helvetica,sans-Serif" font-size="11.00"> &#160;</text>
<polygon fill="#ffffff" stroke="none" points="230.5,-899.268 230.5,-917.268 279.5,-917.268 279.5,-899.268 230.5,-899.268"/>
<polygon fill="none" stroke="black" points="230.5,-899.268 230.5,-917.268 279.5,-917.268 279.5,-899.268 230.5,-899.268"/>
<text text-anchor="start" x="252.5" y="-905.468" font-family="Helvetica,sans-Serif" font-size="11.00">25 &gt;</text>
</a>
</g>
</g>
<!-- cloud_networks&#45;&gt;cloud_tenants -->
<g id="edge1" class="edge"><title>cloud_networks:elipses:w&#45;&gt;cloud_tenants:elipses:e</title>
<path fill="none" stroke="black" d="M533.435,-1082.96C431.572,-1078.53 409.192,-1026.76 320,-963.268 300.403,-949.319 304.554,-926.268 280.5,-926.268"/>
<polygon fill="black" stroke="black" points="540.002,-1083.1 547.924,-1086.87 544.001,-1083.18 548,-1083.27 548,-1083.27 548,-1083.27 544.001,-1083.18 548.076,-1079.67 540.002,-1083.1 540.002,-1083.1"/>
<ellipse fill="none" stroke="black" cx="536.802" cy="-1083.03" rx="3.2" ry="3.2"/>
</g>
<!-- orchestration_stacks -->
<g id="node3" class="node"><title>orchestration_stacks</title>
<g id="a_node3"><a xlink:href="../../tables/orchestration_stacks.html" xlink:title="orchestration_stacks" target="_top">
<polygon fill="#ffffff" stroke="none" points="328,-1177.27 328,-1235.27 494,-1235.27 494,-1177.27 328,-1177.27"/>
<polygon fill="#f5f5f5" stroke="none" points="328,-1213.27 328,-1235.27 494,-1235.27 494,-1213.27 328,-1213.27"/>
<polygon fill="none" stroke="black" points="328,-1213.27 328,-1235.27 494,-1235.27 494,-1213.27 328,-1213.27"/>
<text text-anchor="start" x="333" y="-1222.47" font-family="Helvetica,sans-Serif" font-weight="bold" font-size="11.00">orchestration_stacks</text>
<text text-anchor="start" x="455" y="-1221.47" font-family="Helvetica,sans-Serif" font-size="11.00">[table]</text>
<polygon fill="none" stroke="black" points="328,-1195.27 328,-1213.27 494,-1213.27 494,-1195.27 328,-1195.27"/>
<text text-anchor="start" x="331" y="-1201.47" font-family="Helvetica,sans-Serif" font-size="11.00">...</text>
<polygon fill="#ffffff" stroke="none" points="328,-1177.27 328,-1195.27 404,-1195.27 404,-1177.27 328,-1177.27"/>
<polygon fill="none" stroke="black" points="328,-1177.27 328,-1195.27 404,-1195.27 404,-1177.27 328,-1177.27"/>
<text text-anchor="start" x="331" y="-1183.47" font-family="Helvetica,sans-Serif" font-size="11.00">&lt; 4</text>
<polygon fill="#ffffff" stroke="none" points="404,-1177.27 404,-1195.27 444,-1195.27 444,-1177.27 404,-1177.27"/>
<polygon fill="none" stroke="black" points="404,-1177.27 404,-1195.27 444,-1195.27 444,-1177.27 404,-1177.27"/>
<text text-anchor="start" x="434" y="-1183.47" font-family="Helvetica,sans-Serif" font-size="11.00"> &#160;</text>
<polygon fill="#ffffff" stroke="none" points="444,-1177.27 444,-1195.27 494,-1195.27 494,-1177.27 444,-1177.27"/>
<polygon fill="none" stroke="black" points="444,-1177.27 444,-1195.27 494,-1195.27 494,-1177.27 444,-1177.27"/>
<text text-anchor="start" x="474" y="-1183.47" font-family="Helvetica,sans-Serif" font-size="11.00">6 &gt;</text>
</a>
</g>
</g>
<!-- cloud_networks&#45;&gt;orchestration_stacks -->
<g id="edge2" class="edge"><title>cloud_networks:elipses:w&#45;&gt;orchestration_stacks:elipses:e</title>
<path fill="none" stroke="black" d="M533.664,-1086.76C501.105,-1106.6 547.748,-1204.27 495,-1204.27"/>
<polygon fill="black" stroke="black" points="540.227,-1085.16 548.852,-1086.77 544.114,-1084.21 548,-1083.27 548,-1083.27 548,-1083.27 544.114,-1084.21 547.148,-1079.77 540.227,-1085.16 540.227,-1085.16"/>
<ellipse fill="none" stroke="black" cx="537.118" cy="-1085.92" rx="3.2" ry="3.2"/>
</g>
<!-- resource_groups -->
<g id="node4" class="node"><title>resource_groups</title>
<g id="a_node4"><a xlink:href="../../tables/resource_groups.html" xlink:title="resource_groups" target="_top">
<polygon fill="#ffffff" stroke="none" points="340.5,-189.268 340.5,-247.268 481.5,-247.268 481.5,-189.268 340.5,-189.268"/>
<polygon fill="#f5f5f5" stroke="none" points="341,-225.268 341,-247.268 482,-247.268 482,-225.268 341,-225.268"/>
<polygon fill="none" stroke="black" points="341,-225.268 341,-247.268 482,-247.268 482,-225.268 341,-225.268"/>
<text text-anchor="start" x="346" y="-234.468" font-family="Helvetica,sans-Serif" font-weight="bold" font-size="11.00">resource_groups</text>
<text text-anchor="start" x="443" y="-233.468" font-family="Helvetica,sans-Serif" font-size="11.00">[table]</text>
<polygon fill="none" stroke="black" points="341,-207.268 341,-225.268 482,-225.268 482,-207.268 341,-207.268"/>
<text text-anchor="start" x="344" y="-213.468" font-family="Helvetica,sans-Serif" font-size="11.00">...</text>
<polygon fill="#ffffff" stroke="none" points="341,-189.268 341,-207.268 400,-207.268 400,-189.268 341,-189.268"/>
<polygon fill="none" stroke="black" points="341,-189.268 341,-207.268 400,-207.268 400,-189.268 341,-189.268"/>
<text text-anchor="start" x="344" y="-195.468" font-family="Helvetica,sans-Serif" font-size="11.00"> &#160;</text>
<polygon fill="#ffffff" stroke="none" points="400,-189.268 400,-207.268 436,-207.268 436,-189.268 400,-189.268"/>
<polygon fill="none" stroke="black" points="400,-189.268 400,-207.268 436,-207.268 436,-189.268 400,-189.268"/>
<text text-anchor="start" x="426" y="-195.468" font-family="Helvetica,sans-Serif" font-size="11.00"> &#160;</text>
<polygon fill="#ffffff" stroke="none" points="436,-189.268 436,-207.268 482,-207.268 482,-189.268 436,-189.268"/>
<polygon fill="none" stroke="black" points="436,-189.268 436,-207.268 482,-207.268 482,-189.268 436,-189.268"/>
<text text-anchor="start" x="462" y="-195.468" font-family="Helvetica,sans-Serif" font-size="11.00">7 &gt;</text>
</a>
</g>
</g>
<!-- cloud_networks&#45;&gt;resource_groups -->
<g id="edge3" class="edge"><title>cloud_networks:elipses:w&#45;&gt;resource_groups:elipses:e</title>
<path fill="none" stroke="black" d="M534.963,-1076.79C463.838,-997.45 574.698,-216.268 483,-216.268"/>
<polygon fill="black" stroke="black" points="540.836,-1079.71 546.398,-1086.49 544.418,-1081.49 548,-1083.27 548,-1083.27 548,-1083.27 544.418,-1081.49 549.602,-1080.04 540.836,-1079.71 540.836,-1079.71"/>
<ellipse fill="none" stroke="black" cx="537.971" cy="-1078.28" rx="3.20001" ry="3.20001"/>
</g>
<!-- orchestration_stacks&#45;&gt;cloud_tenants -->
<g id="edge23" class="edge"><title>orchestration_stacks:elipses:w&#45;&gt;cloud_tenants:elipses:e</title>
<path fill="none" stroke="black" d="M313.805,-1198.46C276.859,-1158.54 337.753,-926.268 280.5,-926.268"/>
<polygon fill="black" stroke="black" points="319.678,-1201.05 325.55,-1207.56 323.339,-1202.66 327,-1204.27 327,-1204.27 327,-1204.27 323.339,-1202.66 328.45,-1200.97 319.678,-1201.05 319.678,-1201.05"/>
<ellipse fill="none" stroke="black" cx="316.749" cy="-1199.76" rx="3.20001" ry="3.20001"/>
</g>
<!-- miq_groups -->
<g id="node16" class="node"><title>miq_groups</title>
<g id="a_node16"><a xlink:href="../../tables/miq_groups.html" xlink:title="miq_groups" target="_top">
<polygon fill="#ffffff" stroke="none" points="157.5,-1202.27 157.5,-1260.27 271.5,-1260.27 271.5,-1202.27 157.5,-1202.27"/>
<polygon fill="#f5f5f5" stroke="none" points="157.5,-1238.27 157.5,-1260.27 271.5,-1260.27 271.5,-1238.27 157.5,-1238.27"/>
<polygon fill="none" stroke="black" points="157.5,-1238.27 157.5,-1260.27 271.5,-1260.27 271.5,-1238.27 157.5,-1238.27"/>
<text text-anchor="start" x="162.5" y="-1247.47" font-family="Helvetica,sans-Serif" font-weight="bold" font-size="11.00">miq_groups</text>
<text text-anchor="start" x="232.5" y="-1246.47" font-family="Helvetica,sans-Serif" font-size="11.00">[table]</text>
<polygon fill="none" stroke="black" points="157.5,-1220.27 157.5,-1238.27 271.5,-1238.27 271.5,-1220.27 157.5,-1220.27"/>
<text text-anchor="start" x="160.5" y="-1226.47" font-family="Helvetica,sans-Serif" font-size="11.00">...</text>
<polygon fill="#ffffff" stroke="none" points="157.5,-1202.27 157.5,-1220.27 204.5,-1220.27 204.5,-1202.27 157.5,-1202.27"/>
<polygon fill="none" stroke="black" points="157.5,-1202.27 157.5,-1220.27 204.5,-1220.27 204.5,-1202.27 157.5,-1202.27"/>
<text text-anchor="start" x="160.5" y="-1208.47" font-family="Helvetica,sans-Serif" font-size="11.00">&lt; 1</text>
<polygon fill="#ffffff" stroke="none" points="204.5,-1202.27 204.5,-1220.27 229.5,-1220.27 229.5,-1202.27 204.5,-1202.27"/>
<polygon fill="none" stroke="black" points="204.5,-1202.27 204.5,-1220.27 229.5,-1220.27 229.5,-1202.27 204.5,-1202.27"/>
<text text-anchor="start" x="219.5" y="-1208.47" font-family="Helvetica,sans-Serif" font-size="11.00"> &#160;</text>
<polygon fill="#ffffff" stroke="none" points="229.5,-1202.27 229.5,-1220.27 271.5,-1220.27 271.5,-1202.27 229.5,-1202.27"/>
<polygon fill="none" stroke="black" points="229.5,-1202.27 229.5,-1220.27 271.5,-1220.27 271.5,-1202.27 229.5,-1202.27"/>
<text text-anchor="start" x="244.5" y="-1208.47" font-family="Helvetica,sans-Serif" font-size="11.00">10 &gt;</text>
</a>
</g>
</g>
<!-- orchestration_stacks&#45;&gt;miq_groups -->
<g id="edge24" class="edge"><title>orchestration_stacks:elipses:w&#45;&gt;miq_groups:elipses:e</title>
<path fill="none" stroke="black" d="M312.632,-1207.33C298.607,-1214.01 293.32,-1229.27 272.5,-1229.27"/>
<polygon fill="black" stroke="black" points="319.176,-1205.94 327.751,-1207.79 323.088,-1205.1 327,-1204.27 327,-1204.27 327,-1204.27 323.088,-1205.1 326.249,-1200.75 319.176,-1205.94 319.176,-1205.94"/>
<ellipse fill="none" stroke="black" cx="316.047" cy="-1206.61" rx="3.2" ry="3.2"/>
</g>
<!-- tenants -->
<g id="node17" class="node"><title>tenants</title>
<g id="a_node17"><a xlink:href="../../tables/tenants.html" xlink:title="tenants" target="_top">
<polygon fill="#ffffff" stroke="none" points="8,-1151.27 8,-1209.27 101,-1209.27 101,-1151.27 8,-1151.27"/>
<polygon fill="#f5f5f5" stroke="none" points="8.5,-1187.27 8.5,-1209.27 101.5,-1209.27 101.5,-1187.27 8.5,-1187.27"/>
<polygon fill="none" stroke="black" points="8.5,-1187.27 8.5,-1209.27 101.5,-1209.27 101.5,-1187.27 8.5,-1187.27"/>
<text text-anchor="start" x="13.5" y="-1196.47" font-family="Helvetica,sans-Serif" font-weight="bold" font-size="11.00">tenants</text>
<text text-anchor="start" x="62.5" y="-1195.47" font-family="Helvetica,sans-Serif" font-size="11.00">[table]</text>
<polygon fill="none" stroke="black" points="8.5,-1169.27 8.5,-1187.27 101.5,-1187.27 101.5,-1169.27 8.5,-1169.27"/>
<text text-anchor="start" x="11.5" y="-1175.47" font-family="Helvetica,sans-Serif" font-size="11.00">...</text>
<polygon fill="#ffffff" stroke="none" points="8.5,-1151.27 8.5,-1169.27 39.5,-1169.27 39.5,-1151.27 8.5,-1151.27"/>
<polygon fill="none" stroke="black" points="8.5,-1151.27 8.5,-1169.27 39.5,-1169.27 39.5,-1151.27 8.5,-1151.27"/>
<text text-anchor="start" x="11.5" y="-1157.47" font-family="Helvetica,sans-Serif" font-size="11.00"> &#160;</text>
<polygon fill="#ffffff" stroke="none" points="39.5,-1151.27 39.5,-1169.27 61.5,-1169.27 61.5,-1151.27 39.5,-1151.27"/>
<polygon fill="none" stroke="black" points="39.5,-1151.27 39.5,-1169.27 61.5,-1169.27 61.5,-1151.27 39.5,-1151.27"/>
<text text-anchor="start" x="51.5" y="-1157.47" font-family="Helvetica,sans-Serif" font-size="11.00"> &#160;</text>
<polygon fill="#ffffff" stroke="none" points="61.5,-1151.27 61.5,-1169.27 101.5,-1169.27 101.5,-1151.27 61.5,-1151.27"/>
<polygon fill="none" stroke="black" points="61.5,-1151.27 61.5,-1169.27 101.5,-1169.27 101.5,-1151.27 61.5,-1151.27"/>
<text text-anchor="start" x="74.5" y="-1157.47" font-family="Helvetica,sans-Serif" font-size="11.00">20 &gt;</text>
</a>
</g>
</g>
<!-- orchestration_stacks&#45;&gt;tenants -->
<g id="edge25" class="edge"><title>orchestration_stacks:elipses:w&#45;&gt;tenants:elipses:e</title>
<path fill="none" stroke="black" d="M312.619,-1201.98C304.724,-1199.18 299.261,-1194.55 287,-1192.27 206.146,-1177.25 184.736,-1178.27 102.5,-1178.27"/>
<polygon fill="black" stroke="black" points="319.1,-1203.01 326.433,-1207.82 323.05,-1203.64 327,-1204.27 327,-1204.27 327,-1204.27 323.05,-1203.64 327.567,-1200.71 319.1,-1203.01 319.1,-1203.01"/>
<ellipse fill="none" stroke="black" cx="315.94" cy="-1202.51" rx="3.2" ry="3.2"/>
</g>
<!-- cloud_subnets -->
<g id="node5" class="node"><title>cloud_subnets</title>
<g id="a_node5"><a xlink:href="../../tables/cloud_subnets.html" xlink:title="cloud_subnets" target="_top">
<polygon fill="#ffffff" stroke="none" points="826.5,-950.268 826.5,-1008.27 956.5,-1008.27 956.5,-950.268 826.5,-950.268"/>
<polygon fill="#f5f5f5" stroke="none" points="826.5,-986.268 826.5,-1008.27 956.5,-1008.27 956.5,-986.268 826.5,-986.268"/>
<polygon fill="none" stroke="black" points="826.5,-986.268 826.5,-1008.27 956.5,-1008.27 956.5,-986.268 826.5,-986.268"/>
<text text-anchor="start" x="831.5" y="-995.468" font-family="Helvetica,sans-Serif" font-weight="bold" font-size="11.00">cloud_subnets</text>
<text text-anchor="start" x="917.5" y="-994.468" font-family="Helvetica,sans-Serif" font-size="11.00">[table]</text>
<polygon fill="none" stroke="black" points="826.5,-968.268 826.5,-986.268 956.5,-986.268 956.5,-968.268 826.5,-968.268"/>
<text text-anchor="start" x="829.5" y="-974.468" font-family="Helvetica,sans-Serif" font-size="11.00">...</text>
<polygon fill="#ffffff" stroke="none" points="826.5,-950.268 826.5,-968.268 884.5,-968.268 884.5,-950.268 826.5,-950.268"/>
<polygon fill="none" stroke="black" points="826.5,-950.268 826.5,-968.268 884.5,-968.268 884.5,-950.268 826.5,-950.268"/>
<text text-anchor="start" x="829.5" y="-956.468" font-family="Helvetica,sans-Serif" font-size="11.00">&lt; 5</text>
<polygon fill="#ffffff" stroke="none" points="884.5,-950.268 884.5,-968.268 915.5,-968.268 915.5,-950.268 884.5,-950.268"/>
<polygon fill="none" stroke="black" points="884.5,-950.268 884.5,-968.268 915.5,-968.268 915.5,-950.268 884.5,-950.268"/>
<text text-anchor="start" x="905.5" y="-956.468" font-family="Helvetica,sans-Serif" font-size="11.00"> &#160;</text>
<polygon fill="#ffffff" stroke="none" points="915.5,-950.268 915.5,-968.268 956.5,-968.268 956.5,-950.268 915.5,-950.268"/>
<polygon fill="none" stroke="black" points="915.5,-950.268 915.5,-968.268 956.5,-968.268 956.5,-950.268 915.5,-950.268"/>
<text text-anchor="start" x="936.5" y="-956.468" font-family="Helvetica,sans-Serif" font-size="11.00">4 &gt;</text>
</a>
</g>
</g>
<!-- cloud_subnets&#45;&gt;cloud_networks -->
<g id="edge5" class="edge"><title>cloud_subnets:elipses:w&#45;&gt;cloud_networks:elipses:e</title>
<path fill="none" stroke="black" d="M812.945,-984.892C779.989,-1009.2 696.063,-1083.27 688,-1083.27"/>
<polygon fill="black" stroke="black" points="818.662,-981.421 827.368,-980.346 822.081,-979.345 825.5,-977.268 825.5,-977.268 825.5,-977.268 822.081,-979.345 823.632,-974.191 818.662,-981.421 818.662,-981.421"/>
<ellipse fill="none" stroke="black" cx="815.927" cy="-983.081" rx="3.20001" ry="3.20001"/>
</g>
<!-- cloud_subnets&#45;&gt;cloud_tenants -->
<g id="edge6" class="edge"><title>cloud_subnets:elipses:w&#45;&gt;cloud_tenants:elipses:e</title>
<path fill="none" stroke="black" d="M811.072,-976.137C728.694,-969.559 321.564,-936.528 320,-936.268 302.135,-933.304 298.609,-926.268 280.5,-926.268"/>
<polygon fill="black" stroke="black" points="817.524,-976.643 825.218,-980.857 821.512,-976.956 825.5,-977.268 825.5,-977.268 825.5,-977.268 821.512,-976.956 825.782,-973.679 817.524,-976.643 817.524,-976.643"/>
<ellipse fill="none" stroke="black" cx="814.334" cy="-976.393" rx="3.2" ry="3.2"/>
</g>
<!-- availability_zones -->
<g id="node6" class="node"><title>availability_zones</title>
<g id="a_node6"><a xlink:href="../../tables/availability_zones.html" xlink:title="availability_zones" target="_top">
<polygon fill="#ffffff" stroke="none" points="543,-977.268 543,-1035.27 693,-1035.27 693,-977.268 543,-977.268"/>
<polygon fill="#f5f5f5" stroke="none" points="543,-1013.27 543,-1035.27 693,-1035.27 693,-1013.27 543,-1013.27"/>
<polygon fill="none" stroke="black" points="543,-1013.27 543,-1035.27 693,-1035.27 693,-1013.27 543,-1013.27"/>
<text text-anchor="start" x="548" y="-1022.47" font-family="Helvetica,sans-Serif" font-weight="bold" font-size="11.00">availability_zones</text>
<text text-anchor="start" x="654" y="-1021.47" font-family="Helvetica,sans-Serif" font-size="11.00">[table]</text>
<polygon fill="none" stroke="black" points="543,-995.268 543,-1013.27 693,-1013.27 693,-995.268 543,-995.268"/>
<text text-anchor="start" x="546" y="-1001.47" font-family="Helvetica,sans-Serif" font-size="11.00">...</text>
<polygon fill="#ffffff" stroke="none" points="543,-977.268 543,-995.268 606,-995.268 606,-977.268 543,-977.268"/>
<polygon fill="none" stroke="black" points="543,-977.268 543,-995.268 606,-995.268 606,-977.268 543,-977.268"/>
<text text-anchor="start" x="546" y="-983.468" font-family="Helvetica,sans-Serif" font-size="11.00"> &#160;</text>
<polygon fill="#ffffff" stroke="none" points="606,-977.268 606,-995.268 644,-995.268 644,-977.268 606,-977.268"/>
<polygon fill="none" stroke="black" points="606,-977.268 606,-995.268 644,-995.268 644,-977.268 606,-977.268"/>
<text text-anchor="start" x="634" y="-983.468" font-family="Helvetica,sans-Serif" font-size="11.00"> &#160;</text>
<polygon fill="#ffffff" stroke="none" points="644,-977.268 644,-995.268 693,-995.268 693,-977.268 644,-977.268"/>
<polygon fill="none" stroke="black" points="644,-977.268 644,-995.268 693,-995.268 693,-977.268 644,-977.268"/>
<text text-anchor="start" x="673" y="-983.468" font-family="Helvetica,sans-Serif" font-size="11.00">8 &gt;</text>
</a>
</g>
</g>
<!-- cloud_subnets&#45;&gt;availability_zones -->
<g id="edge4" class="edge"><title>cloud_subnets:elipses:w&#45;&gt;availability_zones:elipses:e</title>
<path fill="none" stroke="black" d="M811.11,-977.832C763.393,-981.71 748.536,-1004.27 694,-1004.27"/>
<polygon fill="black" stroke="black" points="817.506,-977.582 825.641,-980.866 821.503,-977.425 825.5,-977.268 825.5,-977.268 825.5,-977.268 821.503,-977.425 825.359,-973.671 817.506,-977.582 817.506,-977.582"/>
<ellipse fill="none" stroke="black" cx="814.309" cy="-977.707" rx="3.2" ry="3.2"/>
</g>
<!-- cloud_tenant_flavors -->
<g id="node7" class="node"><title>cloud_tenant_flavors</title>
<g id="a_node7"><a xlink:href="../../tables/cloud_tenant_flavors.html" xlink:title="cloud_tenant_flavors" target="_top">
<polygon fill="#ffffff" stroke="none" points="1102.5,-281.268 1102.5,-387.268 1268.5,-387.268 1268.5,-281.268 1102.5,-281.268"/>
<polygon fill="#f5f5f5" stroke="none" points="1102.5,-365.268 1102.5,-387.268 1268.5,-387.268 1268.5,-365.268 1102.5,-365.268"/>
<polygon fill="none" stroke="black" points="1102.5,-365.268 1102.5,-387.268 1268.5,-387.268 1268.5,-365.268 1102.5,-365.268"/>
<text text-anchor="start" x="1107.5" y="-374.468" font-family="Helvetica,sans-Serif" font-weight="bold" font-size="11.00">cloud_tenant_flavors</text>
<text text-anchor="start" x="1229.5" y="-373.468" font-family="Helvetica,sans-Serif" font-size="11.00">[table]</text>
<polygon fill="none" stroke="black" points="1102.5,-343.268 1102.5,-365.268 1268.5,-365.268 1268.5,-343.268 1102.5,-343.268"/>
<image xlink:href="../../images/primaryKeys.png" width="11px" height="12px" preserveAspectRatio="xMinYMin meet" x="1107.5" y="-360.268"/>
<text text-anchor="start" x="1133.5" y="-351.468" font-family="Helvetica,sans-Serif" font-size="11.00">id</text>
<polygon fill="#ffffff" stroke="none" points="1102.5,-321.268 1102.5,-343.268 1268.5,-343.268 1268.5,-321.268 1102.5,-321.268"/>
<polygon fill="none" stroke="black" points="1102.5,-321.268 1102.5,-343.268 1268.5,-343.268 1268.5,-321.268 1102.5,-321.268"/>
<image xlink:href="../../images/foreignKeys.png" width="11px" height="12px" preserveAspectRatio="xMinYMin meet" x="1107.5" y="-338.268"/>
<text text-anchor="start" x="1133.5" y="-329.468" font-family="Helvetica,sans-Serif" font-size="11.00">cloud_tenant_id</text>
<polygon fill="#ffffff" stroke="none" points="1102.5,-299.268 1102.5,-321.268 1268.5,-321.268 1268.5,-299.268 1102.5,-299.268"/>
<polygon fill="none" stroke="black" points="1102.5,-299.268 1102.5,-321.268 1268.5,-321.268 1268.5,-299.268 1102.5,-299.268"/>
<image xlink:href="../../images/foreignKeys.png" width="11px" height="12px" preserveAspectRatio="xMinYMin meet" x="1107.5" y="-316.268"/>
<text text-anchor="start" x="1133.5" y="-307.468" font-family="Helvetica,sans-Serif" font-size="11.00">flavor_id</text>
<polygon fill="#ffffff" stroke="none" points="1102.5,-281.268 1102.5,-299.268 1183.5,-299.268 1183.5,-281.268 1102.5,-281.268"/>
<polygon fill="none" stroke="black" points="1102.5,-281.268 1102.5,-299.268 1183.5,-299.268 1183.5,-281.268 1102.5,-281.268"/>
<text text-anchor="start" x="1105.5" y="-287.468" font-family="Helvetica,sans-Serif" font-size="11.00">&lt; 2</text>
<polygon fill="#ffffff" stroke="none" points="1183.5,-281.268 1183.5,-299.268 1225.5,-299.268 1225.5,-281.268 1183.5,-281.268"/>
<polygon fill="none" stroke="black" points="1183.5,-281.268 1183.5,-299.268 1225.5,-299.268 1225.5,-281.268 1183.5,-281.268"/>
<text text-anchor="start" x="1215.5" y="-287.468" font-family="Helvetica,sans-Serif" font-size="11.00"> &#160;</text>
<polygon fill="#ffffff" stroke="none" points="1225.5,-281.268 1225.5,-299.268 1268.5,-299.268 1268.5,-281.268 1225.5,-281.268"/>
<polygon fill="none" stroke="black" points="1225.5,-281.268 1225.5,-299.268 1268.5,-299.268 1268.5,-281.268 1225.5,-281.268"/>
<text text-anchor="start" x="1258.5" y="-287.468" font-family="Helvetica,sans-Serif" font-size="11.00"> &#160;</text>
</a>
</g>
</g>
<!-- cloud_tenant_flavors&#45;&gt;cloud_tenants -->
<g id="edge7" class="edge"><title>cloud_tenant_flavors:cloud_tenant_id:w&#45;&gt;cloud_tenants:elipses:e</title>
<path fill="none" stroke="black" d="M1087.12,-330.601C1030.06,-315.265 1111.52,-198.234 1049,-151.268 984.106,-102.523 338.856,-159.178 320,-178.268 261.515,-237.482 363.727,-926.268 280.5,-926.268"/>
<polygon fill="black" stroke="black" points="1093.55,-331.347 1101.09,-335.845 1097.53,-331.808 1101.5,-332.268 1101.5,-332.268 1101.5,-332.268 1097.53,-331.808 1101.91,-328.692 1093.55,-331.347 1093.55,-331.347"/>
<ellipse fill="none" stroke="black" cx="1090.37" cy="-330.979" rx="3.2" ry="3.2"/>
</g>
<!-- flavors -->
<g id="node8" class="node"><title>flavors</title>
<g id="a_node8"><a xlink:href="../../tables/flavors.html" xlink:title="flavors" target="_top">
<polygon fill="#ffffff" stroke="none" points="742,-374.268 742,-902.268 1041,-902.268 1041,-374.268 742,-374.268"/>
<polygon fill="#f5f5f5" stroke="none" points="744.5,-878.268 744.5,-900.268 1039.5,-900.268 1039.5,-878.268 744.5,-878.268"/>
<polygon fill="none" stroke="black" points="744.5,-878.268 744.5,-900.268 1039.5,-900.268 1039.5,-878.268 744.5,-878.268"/>
<text text-anchor="start" x="749.5" y="-887.468" font-family="Helvetica,sans-Serif" font-weight="bold" font-size="11.00">flavors</text>
<text text-anchor="start" x="1000.5" y="-886.468" font-family="Helvetica,sans-Serif" font-size="11.00">[table]</text>
<polygon fill="none" stroke="black" points="744.5,-856.268 744.5,-878.268 918.5,-878.268 918.5,-856.268 744.5,-856.268"/>
<image xlink:href="../../images/primaryKeys.png" width="11px" height="12px" preserveAspectRatio="xMinYMin meet" x="749.5" y="-873.268"/>
<text text-anchor="start" x="764.5" y="-864.468" font-family="Helvetica,sans-Serif" font-size="11.00">id</text>
<polygon fill="none" stroke="black" points="918.5,-856.268 918.5,-878.268 1039.5,-878.268 1039.5,-856.268 918.5,-856.268"/>
<text text-anchor="start" x="921.5" y="-864.468" font-family="Helvetica,sans-Serif" font-size="11.00">bigserial[19]</text>
<polygon fill="#ffffff" stroke="none" points="744.5,-834.268 744.5,-856.268 918.5,-856.268 918.5,-834.268 744.5,-834.268"/>
<polygon fill="none" stroke="black" points="744.5,-834.268 744.5,-856.268 918.5,-856.268 918.5,-834.268 744.5,-834.268"/>
<text text-anchor="start" x="764.5" y="-842.468" font-family="Helvetica,sans-Serif" font-size="11.00">ems_id</text>
<polygon fill="none" stroke="black" points="918.5,-834.268 918.5,-856.268 1039.5,-856.268 1039.5,-834.268 918.5,-834.268"/>
<text text-anchor="start" x="921.5" y="-842.468" font-family="Helvetica,sans-Serif" font-size="11.00">int8[19]</text>
<polygon fill="none" stroke="black" points="744.5,-812.268 744.5,-834.268 918.5,-834.268 918.5,-812.268 744.5,-812.268"/>
<text text-anchor="start" x="764.5" y="-820.468" font-family="Helvetica,sans-Serif" font-size="11.00">name</text>
<polygon fill="none" stroke="black" points="918.5,-812.268 918.5,-834.268 1039.5,-834.268 1039.5,-812.268 918.5,-812.268"/>
<text text-anchor="start" x="921.5" y="-820.468" font-family="Helvetica,sans-Serif" font-size="11.00">varchar[2147483647]</text>
<polygon fill="none" stroke="black" points="744.5,-790.268 744.5,-812.268 918.5,-812.268 918.5,-790.268 744.5,-790.268"/>
<text text-anchor="start" x="764.5" y="-798.468" font-family="Helvetica,sans-Serif" font-size="11.00">description</text>
<polygon fill="none" stroke="black" points="918.5,-790.268 918.5,-812.268 1039.5,-812.268 1039.5,-790.268 918.5,-790.268"/>
<text text-anchor="start" x="921.5" y="-798.468" font-family="Helvetica,sans-Serif" font-size="11.00">varchar[2147483647]</text>
<polygon fill="none" stroke="black" points="744.5,-768.268 744.5,-790.268 918.5,-790.268 918.5,-768.268 744.5,-768.268"/>
<text text-anchor="start" x="764.5" y="-776.468" font-family="Helvetica,sans-Serif" font-size="11.00">cpu_total_cores</text>
<polygon fill="none" stroke="black" points="918.5,-768.268 918.5,-790.268 1039.5,-790.268 1039.5,-768.268 918.5,-768.268"/>
<text text-anchor="start" x="921.5" y="-776.468" font-family="Helvetica,sans-Serif" font-size="11.00">int4[10]</text>
<polygon fill="none" stroke="black" points="744.5,-746.268 744.5,-768.268 918.5,-768.268 918.5,-746.268 744.5,-746.268"/>
<text text-anchor="start" x="764.5" y="-754.468" font-family="Helvetica,sans-Serif" font-size="11.00">cpu_cores_per_socket</text>
<polygon fill="none" stroke="black" points="918.5,-746.268 918.5,-768.268 1039.5,-768.268 1039.5,-746.268 918.5,-746.268"/>
<text text-anchor="start" x="921.5" y="-754.468" font-family="Helvetica,sans-Serif" font-size="11.00">int4[10]</text>
<polygon fill="none" stroke="black" points="744.5,-724.268 744.5,-746.268 918.5,-746.268 918.5,-724.268 744.5,-724.268"/>
<text text-anchor="start" x="764.5" y="-732.468" font-family="Helvetica,sans-Serif" font-size="11.00">memory</text>
<polygon fill="none" stroke="black" points="918.5,-724.268 918.5,-746.268 1039.5,-746.268 1039.5,-724.268 918.5,-724.268"/>
<text text-anchor="start" x="921.5" y="-732.468" font-family="Helvetica,sans-Serif" font-size="11.00">int8[19]</text>
<polygon fill="none" stroke="black" points="744.5,-702.268 744.5,-724.268 918.5,-724.268 918.5,-702.268 744.5,-702.268"/>
<text text-anchor="start" x="764.5" y="-710.468" font-family="Helvetica,sans-Serif" font-size="11.00">ems_ref</text>
<polygon fill="none" stroke="black" points="918.5,-702.268 918.5,-724.268 1039.5,-724.268 1039.5,-702.268 918.5,-702.268"/>
<text text-anchor="start" x="921.5" y="-710.468" font-family="Helvetica,sans-Serif" font-size="11.00">varchar[2147483647]</text>
<polygon fill="#ffffff" stroke="none" points="744.5,-680.268 744.5,-702.268 918.5,-702.268 918.5,-680.268 744.5,-680.268"/>
<polygon fill="none" stroke="black" points="744.5,-680.268 744.5,-702.268 918.5,-702.268 918.5,-680.268 744.5,-680.268"/>
<text text-anchor="start" x="764.5" y="-688.468" font-family="Helvetica,sans-Serif" font-size="11.00">type</text>
<polygon fill="none" stroke="black" points="918.5,-680.268 918.5,-702.268 1039.5,-702.268 1039.5,-680.268 918.5,-680.268"/>
<text text-anchor="start" x="921.5" y="-688.468" font-family="Helvetica,sans-Serif" font-size="11.00">varchar[2147483647]</text>
<polygon fill="none" stroke="black" points="744.5,-658.268 744.5,-680.268 918.5,-680.268 918.5,-658.268 744.5,-658.268"/>
<text text-anchor="start" x="764.5" y="-666.468" font-family="Helvetica,sans-Serif" font-size="11.00">supports_32_bit</text>
<polygon fill="none" stroke="black" points="918.5,-658.268 918.5,-680.268 1039.5,-680.268 1039.5,-658.268 918.5,-658.268"/>
<text text-anchor="start" x="921.5" y="-666.468" font-family="Helvetica,sans-Serif" font-size="11.00">bool[1]</text>
<polygon fill="none" stroke="black" points="744.5,-636.268 744.5,-658.268 918.5,-658.268 918.5,-636.268 744.5,-636.268"/>
<text text-anchor="start" x="764.5" y="-644.468" font-family="Helvetica,sans-Serif" font-size="11.00">supports_64_bit</text>
<polygon fill="none" stroke="black" points="918.5,-636.268 918.5,-658.268 1039.5,-658.268 1039.5,-636.268 918.5,-636.268"/>
<text text-anchor="start" x="921.5" y="-644.468" font-family="Helvetica,sans-Serif" font-size="11.00">bool[1]</text>
<polygon fill="none" stroke="black" points="744.5,-614.268 744.5,-636.268 918.5,-636.268 918.5,-614.268 744.5,-614.268"/>
<text text-anchor="start" x="764.5" y="-622.468" font-family="Helvetica,sans-Serif" font-size="11.00">enabled</text>
<polygon fill="none" stroke="black" points="918.5,-614.268 918.5,-636.268 1039.5,-636.268 1039.5,-614.268 918.5,-614.268"/>
<text text-anchor="start" x="921.5" y="-622.468" font-family="Helvetica,sans-Serif" font-size="11.00">bool[1]</text>
<polygon fill="none" stroke="black" points="744.5,-592.268 744.5,-614.268 918.5,-614.268 918.5,-592.268 744.5,-592.268"/>
<text text-anchor="start" x="764.5" y="-600.468" font-family="Helvetica,sans-Serif" font-size="11.00">supports_hvm</text>
<polygon fill="none" stroke="black" points="918.5,-592.268 918.5,-614.268 1039.5,-614.268 1039.5,-592.268 918.5,-592.268"/>
<text text-anchor="start" x="921.5" y="-600.468" font-family="Helvetica,sans-Serif" font-size="11.00">bool[1]</text>
<polygon fill="none" stroke="black" points="744.5,-570.268 744.5,-592.268 918.5,-592.268 918.5,-570.268 744.5,-570.268"/>
<text text-anchor="start" x="764.5" y="-578.468" font-family="Helvetica,sans-Serif" font-size="11.00">supports_paravirtual</text>
<polygon fill="none" stroke="black" points="918.5,-570.268 918.5,-592.268 1039.5,-592.268 1039.5,-570.268 918.5,-570.268"/>
<text text-anchor="start" x="921.5" y="-578.468" font-family="Helvetica,sans-Serif" font-size="11.00">bool[1]</text>
<polygon fill="none" stroke="black" points="744.5,-548.268 744.5,-570.268 918.5,-570.268 918.5,-548.268 744.5,-548.268"/>
<text text-anchor="start" x="764.5" y="-556.468" font-family="Helvetica,sans-Serif" font-size="11.00">block_storage_based_only</text>
<polygon fill="none" stroke="black" points="918.5,-548.268 918.5,-570.268 1039.5,-570.268 1039.5,-548.268 918.5,-548.268"/>
<text text-anchor="start" x="921.5" y="-556.468" font-family="Helvetica,sans-Serif" font-size="11.00">bool[1]</text>
<polygon fill="none" stroke="black" points="744.5,-526.268 744.5,-548.268 918.5,-548.268 918.5,-526.268 744.5,-526.268"/>
<text text-anchor="start" x="764.5" y="-534.468" font-family="Helvetica,sans-Serif" font-size="11.00">cloud_subnet_required</text>
<polygon fill="none" stroke="black" points="918.5,-526.268 918.5,-548.268 1039.5,-548.268 1039.5,-526.268 918.5,-526.268"/>
<text text-anchor="start" x="921.5" y="-534.468" font-family="Helvetica,sans-Serif" font-size="11.00">bool[1]</text>
<polygon fill="none" stroke="black" points="744.5,-504.268 744.5,-526.268 918.5,-526.268 918.5,-504.268 744.5,-504.268"/>
<text text-anchor="start" x="764.5" y="-512.468" font-family="Helvetica,sans-Serif" font-size="11.00">ephemeral_disk_size</text>
<polygon fill="none" stroke="black" points="918.5,-504.268 918.5,-526.268 1039.5,-526.268 1039.5,-504.268 918.5,-504.268"/>
<text text-anchor="start" x="921.5" y="-512.468" font-family="Helvetica,sans-Serif" font-size="11.00">int8[19]</text>
<polygon fill="none" stroke="black" points="744.5,-482.268 744.5,-504.268 918.5,-504.268 918.5,-482.268 744.5,-482.268"/>
<text text-anchor="start" x="764.5" y="-490.468" font-family="Helvetica,sans-Serif" font-size="11.00">ephemeral_disk_count</text>
<polygon fill="none" stroke="black" points="918.5,-482.268 918.5,-504.268 1039.5,-504.268 1039.5,-482.268 918.5,-482.268"/>
<text text-anchor="start" x="921.5" y="-490.468" font-family="Helvetica,sans-Serif" font-size="11.00">int4[10]</text>
<polygon fill="none" stroke="black" points="744.5,-460.268 744.5,-482.268 918.5,-482.268 918.5,-460.268 744.5,-460.268"/>
<text text-anchor="start" x="764.5" y="-468.468" font-family="Helvetica,sans-Serif" font-size="11.00">root_disk_size</text>
<polygon fill="none" stroke="black" points="918.5,-460.268 918.5,-482.268 1039.5,-482.268 1039.5,-460.268 918.5,-460.268"/>
<text text-anchor="start" x="921.5" y="-468.468" font-family="Helvetica,sans-Serif" font-size="11.00">int8[19]</text>
<polygon fill="none" stroke="black" points="744.5,-438.268 744.5,-460.268 918.5,-460.268 918.5,-438.268 744.5,-438.268"/>
<text text-anchor="start" x="764.5" y="-446.468" font-family="Helvetica,sans-Serif" font-size="11.00">swap_disk_size</text>
<polygon fill="none" stroke="black" points="918.5,-438.268 918.5,-460.268 1039.5,-460.268 1039.5,-438.268 918.5,-438.268"/>
<text text-anchor="start" x="921.5" y="-446.468" font-family="Helvetica,sans-Serif" font-size="11.00">int8[19]</text>
<polygon fill="none" stroke="black" points="744.5,-416.268 744.5,-438.268 918.5,-438.268 918.5,-416.268 744.5,-416.268"/>
<text text-anchor="start" x="764.5" y="-424.468" font-family="Helvetica,sans-Serif" font-size="11.00">publicly_available</text>
<polygon fill="none" stroke="black" points="918.5,-416.268 918.5,-438.268 1039.5,-438.268 1039.5,-416.268 918.5,-416.268"/>
<text text-anchor="start" x="921.5" y="-424.468" font-family="Helvetica,sans-Serif" font-size="11.00">bool[1]</text>
<polygon fill="none" stroke="black" points="744.5,-394.268 744.5,-416.268 918.5,-416.268 918.5,-394.268 744.5,-394.268"/>
<text text-anchor="start" x="764.5" y="-402.468" font-family="Helvetica,sans-Serif" font-size="11.00">cpu_sockets</text>
<polygon fill="none" stroke="black" points="918.5,-394.268 918.5,-416.268 1039.5,-416.268 1039.5,-394.268 918.5,-394.268"/>
<text text-anchor="start" x="921.5" y="-402.468" font-family="Helvetica,sans-Serif" font-size="11.00">int4[10]</text>
<polygon fill="#ffffff" stroke="none" points="744.5,-376.268 744.5,-394.268 836.5,-394.268 836.5,-376.268 744.5,-376.268"/>
<polygon fill="none" stroke="black" points="744.5,-376.268 744.5,-394.268 836.5,-394.268 836.5,-376.268 744.5,-376.268"/>
<text text-anchor="start" x="747.5" y="-382.468" font-family="Helvetica,sans-Serif" font-size="11.00">&lt; 0</text>
<polygon fill="#ffffff" stroke="none" points="836.5,-376.268 836.5,-394.268 918.5,-394.268 918.5,-376.268 836.5,-376.268"/>
<polygon fill="none" stroke="black" points="836.5,-376.268 836.5,-394.268 918.5,-394.268 918.5,-376.268 836.5,-376.268"/>
<text text-anchor="start" x="908.5" y="-382.468" font-family="Helvetica,sans-Serif" font-size="11.00"> &#160;</text>
<polygon fill="#ffffff" stroke="none" points="918.5,-376.268 918.5,-394.268 1039.5,-394.268 1039.5,-376.268 918.5,-376.268"/>
<polygon fill="none" stroke="black" points="918.5,-376.268 918.5,-394.268 1039.5,-394.268 1039.5,-376.268 918.5,-376.268"/>
<text text-anchor="start" x="1019.5" y="-382.468" font-family="Helvetica,sans-Serif" font-size="11.00">2 &gt;</text>
<polygon fill="none" stroke="black" stroke-width="2" points="743,-375.268 743,-901.268 1040,-901.268 1040,-375.268 743,-375.268"/>
</a>
</g>
</g>
<!-- cloud_tenant_flavors&#45;&gt;flavors -->
<g id="edge8" class="edge"><title>cloud_tenant_flavors:flavor_id:w&#45;&gt;flavors:id.type:e</title>
<path fill="none" stroke="black" d="M1089.61,-319.018C1047.98,-389.88 1098.14,-867.268 1040.5,-867.268"/>
<polygon fill="black" stroke="black" points="1095.06,-315.011 1103.63,-313.168 1098.28,-312.64 1101.5,-310.268 1101.5,-310.268 1101.5,-310.268 1098.28,-312.64 1099.37,-307.369 1095.06,-315.011 1095.06,-315.011"/>
<ellipse fill="none" stroke="black" cx="1092.48" cy="-316.908" rx="3.20001" ry="3.20001"/>
</g>
<!-- cloud_tenants_vms -->
<g id="node9" class="node"><title>cloud_tenants_vms</title>
<g id="a_node9"><a xlink:href="../../tables/cloud_tenants_vms.html" xlink:title="cloud_tenants_vms" target="_top">
<polygon fill="#ffffff" stroke="none" points="1359.5,-514.268 1359.5,-572.268 1516.5,-572.268 1516.5,-514.268 1359.5,-514.268"/>
<polygon fill="#f5f5f5" stroke="none" points="1360,-550.268 1360,-572.268 1517,-572.268 1517,-550.268 1360,-550.268"/>
<polygon fill="none" stroke="black" points="1360,-550.268 1360,-572.268 1517,-572.268 1517,-550.268 1360,-550.268"/>
<text text-anchor="start" x="1365" y="-559.468" font-family="Helvetica,sans-Serif" font-weight="bold" font-size="11.00">cloud_tenants_vms</text>
<text text-anchor="start" x="1478" y="-558.468" font-family="Helvetica,sans-Serif" font-size="11.00">[table]</text>
<polygon fill="none" stroke="black" points="1360,-532.268 1360,-550.268 1517,-550.268 1517,-532.268 1360,-532.268"/>
<text text-anchor="start" x="1363" y="-538.468" font-family="Helvetica,sans-Serif" font-size="11.00">...</text>
<polygon fill="#ffffff" stroke="none" points="1360,-514.268 1360,-532.268 1437,-532.268 1437,-514.268 1360,-514.268"/>
<polygon fill="none" stroke="black" points="1360,-514.268 1360,-532.268 1437,-532.268 1437,-514.268 1360,-514.268"/>
<text text-anchor="start" x="1363" y="-520.468" font-family="Helvetica,sans-Serif" font-size="11.00">&lt; 2</text>
<polygon fill="#ffffff" stroke="none" points="1437,-514.268 1437,-532.268 1477,-532.268 1477,-514.268 1437,-514.268"/>
<polygon fill="none" stroke="black" points="1437,-514.268 1437,-532.268 1477,-532.268 1477,-514.268 1437,-514.268"/>
<text text-anchor="start" x="1467" y="-520.468" font-family="Helvetica,sans-Serif" font-size="11.00"> &#160;</text>
<polygon fill="#ffffff" stroke="none" points="1477,-514.268 1477,-532.268 1517,-532.268 1517,-514.268 1477,-514.268"/>
<polygon fill="none" stroke="black" points="1477,-514.268 1477,-532.268 1517,-532.268 1517,-514.268 1477,-514.268"/>
<text text-anchor="start" x="1507" y="-520.468" font-family="Helvetica,sans-Serif" font-size="11.00"> &#160;</text>
</a>
</g>
</g>
<!-- cloud_tenants_vms&#45;&gt;cloud_tenants -->
<g id="edge9" class="edge"><title>cloud_tenants_vms:elipses:w&#45;&gt;cloud_tenants:elipses:e</title>
<path fill="none" stroke="black" d="M1344.33,-540.34C1245.27,-526.698 1359.91,-365.902 1289,-270.268 1215.32,-170.891 1168.38,-161.74 1049,-129.268 892.615,-86.7295 433.517,-34.5977 320,-150.268 259.529,-211.887 366.834,-926.268 280.5,-926.268"/>
<polygon fill="black" stroke="black" points="1351.02,-540.763 1358.77,-544.861 1355.01,-541.016 1359,-541.268 1359,-541.268 1359,-541.268 1355.01,-541.016 1359.23,-537.676 1351.02,-540.763 1351.02,-540.763"/>
<ellipse fill="none" stroke="black" cx="1347.82" cy="-540.561" rx="3.2" ry="3.2"/>
</g>
<!-- vms -->
<g id="node10" class="node"><title>vms</title>
<g id="a_node10"><a xlink:href="../../tables/vms.html" xlink:title="vms" target="_top">
<polygon fill="#ffffff" stroke="none" points="1090,-710.268 1090,-1274.27 1281,-1274.27 1281,-710.268 1090,-710.268"/>
<polygon fill="#f5f5f5" stroke="none" points="1090.5,-1252.27 1090.5,-1274.27 1281.5,-1274.27 1281.5,-1252.27 1090.5,-1252.27"/>
<polygon fill="none" stroke="black" points="1090.5,-1252.27 1090.5,-1274.27 1281.5,-1274.27 1281.5,-1252.27 1090.5,-1252.27"/>
<text text-anchor="start" x="1095.5" y="-1261.47" font-family="Helvetica,sans-Serif" font-weight="bold" font-size="11.00">vms</text>
<text text-anchor="start" x="1242.5" y="-1260.47" font-family="Helvetica,sans-Serif" font-size="11.00">[table]</text>
<polygon fill="none" stroke="black" points="1090.5,-1230.27 1090.5,-1252.27 1281.5,-1252.27 1281.5,-1230.27 1090.5,-1230.27"/>
<image xlink:href="../../images/primaryKeys.png" width="11px" height="12px" preserveAspectRatio="xMinYMin meet" x="1095.5" y="-1247.27"/>
<text text-anchor="start" x="1110.5" y="-1238.47" font-family="Helvetica,sans-Serif" font-size="11.00">id</text>
<polygon fill="#ffffff" stroke="none" points="1090.5,-1208.27 1090.5,-1230.27 1281.5,-1230.27 1281.5,-1208.27 1090.5,-1208.27"/>
<polygon fill="none" stroke="black" points="1090.5,-1208.27 1090.5,-1230.27 1281.5,-1230.27 1281.5,-1208.27 1090.5,-1208.27"/>
<text text-anchor="start" x="1110.5" y="-1216.47" font-family="Helvetica,sans-Serif" font-size="11.00">name</text>
<polygon fill="#ffffff" stroke="none" points="1090.5,-1186.27 1090.5,-1208.27 1281.5,-1208.27 1281.5,-1186.27 1090.5,-1186.27"/>
<polygon fill="none" stroke="black" points="1090.5,-1186.27 1090.5,-1208.27 1281.5,-1208.27 1281.5,-1186.27 1090.5,-1186.27"/>
<text text-anchor="start" x="1110.5" y="-1194.47" font-family="Helvetica,sans-Serif" font-size="11.00">location</text>
<polygon fill="#ffffff" stroke="none" points="1090.5,-1164.27 1090.5,-1186.27 1281.5,-1186.27 1281.5,-1164.27 1090.5,-1164.27"/>
<polygon fill="none" stroke="black" points="1090.5,-1164.27 1090.5,-1186.27 1281.5,-1186.27 1281.5,-1164.27 1090.5,-1164.27"/>
<image xlink:href="../../images/foreignKeys.png" width="11px" height="12px" preserveAspectRatio="xMinYMin meet" x="1095.5" y="-1181.27"/>
<text text-anchor="start" x="1110.5" y="-1172.47" font-family="Helvetica,sans-Serif" font-size="11.00">host_id</text>
<polygon fill="#ffffff" stroke="none" points="1090.5,-1142.27 1090.5,-1164.27 1281.5,-1164.27 1281.5,-1142.27 1090.5,-1142.27"/>
<polygon fill="none" stroke="black" points="1090.5,-1142.27 1090.5,-1164.27 1281.5,-1164.27 1281.5,-1142.27 1090.5,-1142.27"/>
<image xlink:href="../../images/foreignKeys.png" width="11px" height="12px" preserveAspectRatio="xMinYMin meet" x="1095.5" y="-1159.27"/>
<text text-anchor="start" x="1110.5" y="-1150.47" font-family="Helvetica,sans-Serif" font-size="11.00">storage_id</text>
<polygon fill="#ffffff" stroke="none" points="1090.5,-1120.27 1090.5,-1142.27 1281.5,-1142.27 1281.5,-1120.27 1090.5,-1120.27"/>
<polygon fill="none" stroke="black" points="1090.5,-1120.27 1090.5,-1142.27 1281.5,-1142.27 1281.5,-1120.27 1090.5,-1120.27"/>
<text text-anchor="start" x="1110.5" y="-1128.47" font-family="Helvetica,sans-Serif" font-size="11.00">guid</text>
<polygon fill="#ffffff" stroke="none" points="1090.5,-1098.27 1090.5,-1120.27 1281.5,-1120.27 1281.5,-1098.27 1090.5,-1098.27"/>
<polygon fill="none" stroke="black" points="1090.5,-1098.27 1090.5,-1120.27 1281.5,-1120.27 1281.5,-1098.27 1090.5,-1098.27"/>
<text text-anchor="start" x="1110.5" y="-1106.47" font-family="Helvetica,sans-Serif" font-size="11.00">ems_id</text>
<polygon fill="#ffffff" stroke="none" points="1090.5,-1076.27 1090.5,-1098.27 1281.5,-1098.27 1281.5,-1076.27 1090.5,-1076.27"/>
<polygon fill="none" stroke="black" points="1090.5,-1076.27 1090.5,-1098.27 1281.5,-1098.27 1281.5,-1076.27 1090.5,-1076.27"/>
<text text-anchor="start" x="1110.5" y="-1084.47" font-family="Helvetica,sans-Serif" font-size="11.00">uid_ems</text>
<polygon fill="#ffffff" stroke="none" points="1090.5,-1054.27 1090.5,-1076.27 1281.5,-1076.27 1281.5,-1054.27 1090.5,-1054.27"/>
<polygon fill="none" stroke="black" points="1090.5,-1054.27 1090.5,-1076.27 1281.5,-1076.27 1281.5,-1054.27 1090.5,-1054.27"/>
<text text-anchor="start" x="1110.5" y="-1062.47" font-family="Helvetica,sans-Serif" font-size="11.00">evm_owner_id</text>
<polygon fill="#ffffff" stroke="none" points="1090.5,-1032.27 1090.5,-1054.27 1281.5,-1054.27 1281.5,-1032.27 1090.5,-1032.27"/>
<polygon fill="none" stroke="black" points="1090.5,-1032.27 1090.5,-1054.27 1281.5,-1054.27 1281.5,-1032.27 1090.5,-1032.27"/>
<image xlink:href="../../images/foreignKeys.png" width="11px" height="12px" preserveAspectRatio="xMinYMin meet" x="1095.5" y="-1049.27"/>
<text text-anchor="start" x="1110.5" y="-1040.47" font-family="Helvetica,sans-Serif" font-size="11.00">miq_group_id</text>
<polygon fill="#ffffff" stroke="none" points="1090.5,-1010.27 1090.5,-1032.27 1281.5,-1032.27 1281.5,-1010.27 1090.5,-1010.27"/>
<polygon fill="none" stroke="black" points="1090.5,-1010.27 1090.5,-1032.27 1281.5,-1032.27 1281.5,-1010.27 1090.5,-1010.27"/>
<text text-anchor="start" x="1110.5" y="-1018.47" font-family="Helvetica,sans-Serif" font-size="11.00">type</text>
<polygon fill="none" stroke="black" points="1090.5,-988.268 1090.5,-1010.27 1281.5,-1010.27 1281.5,-988.268 1090.5,-988.268"/>
<image xlink:href="../../images/foreignKeys.png" width="11px" height="12px" preserveAspectRatio="xMinYMin meet" x="1095.5" y="-1005.27"/>
<text text-anchor="start" x="1110.5" y="-996.468" font-family="Helvetica,sans-Serif" font-size="11.00">ems_cluster_id</text>
<polygon fill="#ffffff" stroke="none" points="1090.5,-966.268 1090.5,-988.268 1281.5,-988.268 1281.5,-966.268 1090.5,-966.268"/>
<polygon fill="none" stroke="black" points="1090.5,-966.268 1090.5,-988.268 1281.5,-988.268 1281.5,-966.268 1090.5,-966.268"/>
<image xlink:href="../../images/foreignKeys.png" width="11px" height="12px" preserveAspectRatio="xMinYMin meet" x="1095.5" y="-983.268"/>
<text text-anchor="start" x="1110.5" y="-974.468" font-family="Helvetica,sans-Serif" font-size="11.00">flavor_id</text>
<polygon fill="#ffffff" stroke="none" points="1090.5,-944.268 1090.5,-966.268 1281.5,-966.268 1281.5,-944.268 1090.5,-944.268"/>
<polygon fill="none" stroke="black" points="1090.5,-944.268 1090.5,-966.268 1281.5,-966.268 1281.5,-944.268 1090.5,-944.268"/>
<image xlink:href="../../images/foreignKeys.png" width="11px" height="12px" preserveAspectRatio="xMinYMin meet" x="1095.5" y="-961.268"/>
<text text-anchor="start" x="1110.5" y="-952.468" font-family="Helvetica,sans-Serif" font-size="11.00">availability_zone_id</text>
<polygon fill="none" stroke="black" points="1090.5,-922.268 1090.5,-944.268 1281.5,-944.268 1281.5,-922.268 1090.5,-922.268"/>
<image xlink:href="../../images/foreignKeys.png" width="11px" height="12px" preserveAspectRatio="xMinYMin meet" x="1095.5" y="-939.268"/>
<text text-anchor="start" x="1110.5" y="-930.468" font-family="Helvetica,sans-Serif" font-size="11.00">cloud_network_id</text>
<polygon fill="none" stroke="black" points="1090.5,-900.268 1090.5,-922.268 1281.5,-922.268 1281.5,-900.268 1090.5,-900.268"/>
<image xlink:href="../../images/foreignKeys.png" width="11px" height="12px" preserveAspectRatio="xMinYMin meet" x="1095.5" y="-917.268"/>
<text text-anchor="start" x="1110.5" y="-908.468" font-family="Helvetica,sans-Serif" font-size="11.00">cloud_subnet_id</text>
<polygon fill="none" stroke="black" points="1090.5,-878.268 1090.5,-900.268 1281.5,-900.268 1281.5,-878.268 1090.5,-878.268"/>
<image xlink:href="../../images/foreignKeys.png" width="11px" height="12px" preserveAspectRatio="xMinYMin meet" x="1095.5" y="-895.268"/>
<text text-anchor="start" x="1110.5" y="-886.468" font-family="Helvetica,sans-Serif" font-size="11.00">cloud_tenant_id</text>
<polygon fill="none" stroke="black" points="1090.5,-856.268 1090.5,-878.268 1281.5,-878.268 1281.5,-856.268 1090.5,-856.268"/>
<image xlink:href="../../images/foreignKeys.png" width="11px" height="12px" preserveAspectRatio="xMinYMin meet" x="1095.5" y="-873.268"/>
<text text-anchor="start" x="1110.5" y="-864.468" font-family="Helvetica,sans-Serif" font-size="11.00">orchestration_stack_id</text>
<polygon fill="#ffffff" stroke="none" points="1090.5,-834.268 1090.5,-856.268 1281.5,-856.268 1281.5,-834.268 1090.5,-834.268"/>
<polygon fill="none" stroke="black" points="1090.5,-834.268 1090.5,-856.268 1281.5,-856.268 1281.5,-834.268 1090.5,-834.268"/>
<image xlink:href="../../images/foreignKeys.png" width="11px" height="12px" preserveAspectRatio="xMinYMin meet" x="1095.5" y="-851.268"/>
<text text-anchor="start" x="1110.5" y="-842.468" font-family="Helvetica,sans-Serif" font-size="11.00">tenant_id</text>
<polygon fill="none" stroke="black" points="1090.5,-812.268 1090.5,-834.268 1281.5,-834.268 1281.5,-812.268 1090.5,-812.268"/>
<image xlink:href="../../images/foreignKeys.png" width="11px" height="12px" preserveAspectRatio="xMinYMin meet" x="1095.5" y="-829.268"/>
<text text-anchor="start" x="1110.5" y="-820.468" font-family="Helvetica,sans-Serif" font-size="11.00">resource_group_id</text>
<polygon fill="none" stroke="black" points="1090.5,-790.268 1090.5,-812.268 1281.5,-812.268 1281.5,-790.268 1090.5,-790.268"/>
<image xlink:href="../../images/foreignKeys.png" width="11px" height="12px" preserveAspectRatio="xMinYMin meet" x="1095.5" y="-807.268"/>
<text text-anchor="start" x="1110.5" y="-798.468" font-family="Helvetica,sans-Serif" font-size="11.00">storage_profile_id</text>
<polygon fill="#ffffff" stroke="none" points="1090.5,-768.268 1090.5,-790.268 1281.5,-790.268 1281.5,-768.268 1090.5,-768.268"/>
<polygon fill="none" stroke="black" points="1090.5,-768.268 1090.5,-790.268 1281.5,-790.268 1281.5,-768.268 1090.5,-768.268"/>
<text text-anchor="start" x="1110.5" y="-776.468" font-family="Helvetica,sans-Serif" font-size="11.00">ancestry</text>
<polygon fill="#ffffff" stroke="none" points="1090.5,-746.268 1090.5,-768.268 1281.5,-768.268 1281.5,-746.268 1090.5,-746.268"/>
<polygon fill="none" stroke="black" points="1090.5,-746.268 1090.5,-768.268 1281.5,-768.268 1281.5,-746.268 1090.5,-746.268"/>
<image xlink:href="../../images/foreignKeys.png" width="11px" height="12px" preserveAspectRatio="xMinYMin meet" x="1095.5" y="-763.268"/>
<text text-anchor="start" x="1110.5" y="-754.468" font-family="Helvetica,sans-Serif" font-size="11.00">placement_group_id</text>
<polygon fill="none" stroke="black" points="1090.5,-728.268 1090.5,-746.268 1281.5,-746.268 1281.5,-728.268 1090.5,-728.268"/>
<text text-anchor="start" x="1093.5" y="-734.468" font-family="Helvetica,sans-Serif" font-size="11.00">...</text>
<polygon fill="#ffffff" stroke="none" points="1090.5,-710.268 1090.5,-728.268 1182.5,-728.268 1182.5,-710.268 1090.5,-710.268"/>
<polygon fill="none" stroke="black" points="1090.5,-710.268 1090.5,-728.268 1182.5,-728.268 1182.5,-710.268 1090.5,-710.268"/>
<text text-anchor="start" x="1093.5" y="-716.468" font-family="Helvetica,sans-Serif" font-size="11.00">&lt; 14</text>
<polygon fill="#ffffff" stroke="none" points="1182.5,-710.268 1182.5,-728.268 1226.5,-728.268 1226.5,-710.268 1182.5,-710.268"/>
<polygon fill="none" stroke="black" points="1182.5,-710.268 1182.5,-728.268 1226.5,-728.268 1226.5,-710.268 1182.5,-710.268"/>
<text text-anchor="start" x="1216.5" y="-716.468" font-family="Helvetica,sans-Serif" font-size="11.00"> &#160;</text>
<polygon fill="#ffffff" stroke="none" points="1226.5,-710.268 1226.5,-728.268 1281.5,-728.268 1281.5,-710.268 1226.5,-710.268"/>
<polygon fill="none" stroke="black" points="1226.5,-710.268 1226.5,-728.268 1281.5,-728.268 1281.5,-710.268 1226.5,-710.268"/>
<text text-anchor="start" x="1261.5" y="-716.468" font-family="Helvetica,sans-Serif" font-size="11.00">7 &gt;</text>
</a>
</g>
</g>
<!-- cloud_tenants_vms&#45;&gt;vms -->
<g id="edge10" class="edge"><title>cloud_tenants_vms:elipses:w&#45;&gt;vms:id:e</title>
<path fill="none" stroke="black" d="M1346.46,-548.656C1289.86,-623.468 1356,-1241.27 1282.5,-1241.27"/>
<polygon fill="black" stroke="black" points="1352.11,-545.329 1360.83,-544.37 1355.55,-543.299 1359,-541.268 1359,-541.268 1359,-541.268 1355.55,-543.299 1357.17,-538.167 1352.11,-545.329 1352.11,-545.329"/>
<ellipse fill="none" stroke="black" cx="1349.35" cy="-546.953" rx="3.20001" ry="3.20001"/>
</g>
<!-- vms&#45;&gt;cloud_networks -->
<g id="edge31" class="edge"><title>vms:cloud_network_id:w&#45;&gt;cloud_networks:elipses:e</title>
<path fill="none" stroke="black" d="M1075.35,-936.324C1050.04,-950.603 1083.64,-1011.2 1049,-1038.27 921.601,-1137.83 849.686,-1083.27 688,-1083.27"/>
<polygon fill="black" stroke="black" points="1081.68,-934.957 1090.26,-936.787 1085.59,-934.113 1089.5,-933.268 1089.5,-933.268 1089.5,-933.268 1085.59,-934.113 1088.74,-929.75 1081.68,-934.957 1081.68,-934.957"/>
<ellipse fill="none" stroke="black" cx="1078.55" cy="-935.632" rx="3.2" ry="3.2"/>
</g>
<!-- vms&#45;&gt;cloud_tenants -->
<g id="edge33" class="edge"><title>vms:cloud_tenant_id:w&#45;&gt;cloud_tenants:elipses:e</title>
<path fill="none" stroke="black" d="M1075.44,-893.298C1067.08,-899.023 1063.16,-909.26 1049,-913.268 884.659,-959.803 451.302,-926.268 280.5,-926.268"/>
<polygon fill="black" stroke="black" points="1081.81,-891.473 1090.49,-892.729 1085.65,-890.371 1089.5,-889.268 1089.5,-889.268 1089.5,-889.268 1085.65,-890.371 1088.51,-885.808 1081.81,-891.473 1081.81,-891.473"/>
<ellipse fill="none" stroke="black" cx="1078.73" cy="-892.355" rx="3.20001" ry="3.20001"/>
</g>
<!-- vms&#45;&gt;orchestration_stacks -->
<g id="edge38" class="edge"><title>vms:orchestration_stack_id:w&#45;&gt;orchestration_stacks:elipses:e</title>
<path fill="none" stroke="black" d="M1075.17,-869.065C1024.47,-884.138 1103.19,-990.164 1049,-1038.27 943.623,-1131.82 853.75,-999.999 734,-1074.27 711.056,-1088.5 722.402,-1108.81 701,-1125.27 639.496,-1172.56 605.307,-1146.46 535,-1179.27 516.002,-1188.13 515.964,-1204.27 495,-1204.27"/>
<polygon fill="black" stroke="black" points="1081.56,-868.264 1089.95,-870.841 1085.53,-867.766 1089.5,-867.268 1089.5,-867.268 1089.5,-867.268 1085.53,-867.766 1089.05,-863.696 1081.56,-868.264 1081.56,-868.264"/>
<ellipse fill="none" stroke="black" cx="1078.39" cy="-868.662" rx="3.2" ry="3.2"/>
</g>
<!-- vms&#45;&gt;resource_groups -->
<g id="edge40" class="edge"><title>vms:resource_group_id:w&#45;&gt;resource_groups:elipses:e</title>
<path fill="none" stroke="black" d="M1077.59,-815.121C1036.11,-749.048 1089.83,-302.404 1049,-261.268 1037.89,-250.075 498.772,-216.268 483,-216.268"/>
<polygon fill="black" stroke="black" points="1082.9,-818.751 1087.47,-826.24 1086.2,-821.01 1089.5,-823.268 1089.5,-823.268 1089.5,-823.268 1086.2,-821.01 1091.53,-820.297 1082.9,-818.751 1082.9,-818.751"/>
<ellipse fill="none" stroke="black" cx="1080.26" cy="-816.944" rx="3.20001" ry="3.20001"/>
</g>
<!-- vms&#45;&gt;cloud_subnets -->
<g id="edge32" class="edge"><title>vms:cloud_subnet_id:w&#45;&gt;cloud_subnets:elipses:e</title>
<path fill="none" stroke="black" d="M1075.36,-914.563C1066.46,-919.563 1062.29,-929.229 1049,-936.268 1009.62,-957.129 1002.06,-977.268 957.5,-977.268"/>
<polygon fill="black" stroke="black" points="1081.71,-913.084 1090.32,-914.775 1085.6,-912.176 1089.5,-911.268 1089.5,-911.268 1089.5,-911.268 1085.6,-912.176 1088.68,-907.762 1081.71,-913.084 1081.71,-913.084"/>
<ellipse fill="none" stroke="black" cx="1078.59" cy="-913.811" rx="3.2" ry="3.2"/>
</g>
<!-- vms&#45;&gt;availability_zones -->
<g id="edge30" class="edge"><title>vms:availability_zone_id:w&#45;&gt;availability_zones:elipses:e</title>
<path fill="none" stroke="black" d="M1075.79,-959.783C1062.5,-972.072 1072.96,-1006.08 1049,-1019.27 987.68,-1053.03 802.877,-1031.76 734,-1019.27 715.318,-1015.88 712.987,-1004.27 694,-1004.27"/>
<polygon fill="black" stroke="black" points="1081.9,-957.771 1090.63,-958.688 1085.7,-956.52 1089.5,-955.268 1089.5,-955.268 1089.5,-955.268 1085.7,-956.52 1088.37,-951.849 1081.9,-957.771 1081.9,-957.771"/>
<ellipse fill="none" stroke="black" cx="1078.86" cy="-958.772" rx="3.20001" ry="3.20001"/>
</g>
<!-- vms&#45;&gt;flavors -->
<g id="edge35" class="edge"><title>vms:flavor_id:w&#45;&gt;flavors:id.type:e</title>
<path fill="none" stroke="black" d="M1075.28,-973.354C1047.7,-953.758 1087.96,-867.268 1040.5,-867.268"/>
<polygon fill="black" stroke="black" points="1081.79,-975.145 1088.54,-980.739 1085.64,-976.207 1089.5,-977.268 1089.5,-977.268 1089.5,-977.268 1085.64,-976.207 1090.46,-973.798 1081.79,-975.145 1081.79,-975.145"/>
<ellipse fill="none" stroke="black" cx="1078.7" cy="-974.295" rx="3.2" ry="3.2"/>
</g>
<!-- hosts -->
<g id="node12" class="node"><title>hosts</title>
<g id="a_node12"><a xlink:href="../../tables/hosts.html" xlink:title="hosts" target="_top">
<polygon fill="#ffffff" stroke="none" points="852,-1216.27 852,-1274.27 931,-1274.27 931,-1216.27 852,-1216.27"/>
<polygon fill="#f5f5f5" stroke="none" points="852.5,-1252.27 852.5,-1274.27 931.5,-1274.27 931.5,-1252.27 852.5,-1252.27"/>
<polygon fill="none" stroke="black" points="852.5,-1252.27 852.5,-1274.27 931.5,-1274.27 931.5,-1252.27 852.5,-1252.27"/>
<text text-anchor="start" x="857.5" y="-1261.47" font-family="Helvetica,sans-Serif" font-weight="bold" font-size="11.00">hosts</text>
<text text-anchor="start" x="892.5" y="-1260.47" font-family="Helvetica,sans-Serif" font-size="11.00">[table]</text>
<polygon fill="none" stroke="black" points="852.5,-1234.27 852.5,-1252.27 931.5,-1252.27 931.5,-1234.27 852.5,-1234.27"/>
<text text-anchor="start" x="855.5" y="-1240.47" font-family="Helvetica,sans-Serif" font-size="11.00">...</text>
<polygon fill="#ffffff" stroke="none" points="852.5,-1216.27 852.5,-1234.27 881.5,-1234.27 881.5,-1216.27 852.5,-1216.27"/>
<polygon fill="none" stroke="black" points="852.5,-1216.27 852.5,-1234.27 881.5,-1234.27 881.5,-1216.27 852.5,-1216.27"/>
<text text-anchor="start" x="855.5" y="-1222.47" font-family="Helvetica,sans-Serif" font-size="11.00">&lt; 3</text>
<polygon fill="#ffffff" stroke="none" points="881.5,-1216.27 881.5,-1234.27 897.5,-1234.27 897.5,-1216.27 881.5,-1216.27"/>
<polygon fill="none" stroke="black" points="881.5,-1216.27 881.5,-1234.27 897.5,-1234.27 897.5,-1216.27 881.5,-1216.27"/>
<text text-anchor="start" x="887.5" y="-1222.47" font-family="Helvetica,sans-Serif" font-size="11.00"> &#160;</text>
<polygon fill="#ffffff" stroke="none" points="897.5,-1216.27 897.5,-1234.27 931.5,-1234.27 931.5,-1216.27 897.5,-1216.27"/>
<polygon fill="none" stroke="black" points="897.5,-1216.27 897.5,-1234.27 931.5,-1234.27 931.5,-1216.27 897.5,-1216.27"/>
<text text-anchor="start" x="904.5" y="-1222.47" font-family="Helvetica,sans-Serif" font-size="11.00">15 &gt;</text>
</a>
</g>
</g>
<!-- vms&#45;&gt;hosts -->
<g id="edge36" class="edge"><title>vms:host_id:w&#45;&gt;hosts:elipses:e</title>
<path fill="none" stroke="black" d="M1075.53,-1179.25C1066.4,-1185.74 1063.61,-1198.66 1049,-1206.27 1000.82,-1231.38 986.826,-1243.27 932.5,-1243.27"/>
<polygon fill="black" stroke="black" points="1081.81,-1177.46 1090.49,-1178.73 1085.65,-1176.36 1089.5,-1175.27 1089.5,-1175.27 1089.5,-1175.27 1085.65,-1176.36 1088.51,-1171.81 1081.81,-1177.46 1081.81,-1177.46"/>
<ellipse fill="none" stroke="black" cx="1078.73" cy="-1178.34" rx="3.20001" ry="3.20001"/>
</g>
<!-- ems_clusters -->
<g id="node13" class="node"><title>ems_clusters</title>
<g id="a_node13"><a xlink:href="../../tables/ems_clusters.html" xlink:title="ems_clusters" target="_top">
<polygon fill="#ffffff" stroke="none" points="557.5,-1189.27 557.5,-1247.27 678.5,-1247.27 678.5,-1189.27 557.5,-1189.27"/>
<polygon fill="#f5f5f5" stroke="none" points="558,-1225.27 558,-1247.27 679,-1247.27 679,-1225.27 558,-1225.27"/>
<polygon fill="none" stroke="black" points="558,-1225.27 558,-1247.27 679,-1247.27 679,-1225.27 558,-1225.27"/>
<text text-anchor="start" x="563" y="-1234.47" font-family="Helvetica,sans-Serif" font-weight="bold" font-size="11.00">ems_clusters</text>
<text text-anchor="start" x="640" y="-1233.47" font-family="Helvetica,sans-Serif" font-size="11.00">[table]</text>
<polygon fill="none" stroke="black" points="558,-1207.27 558,-1225.27 679,-1225.27 679,-1207.27 558,-1207.27"/>
<text text-anchor="start" x="561" y="-1213.47" font-family="Helvetica,sans-Serif" font-size="11.00">...</text>
<polygon fill="#ffffff" stroke="none" points="558,-1189.27 558,-1207.27 607,-1207.27 607,-1189.27 558,-1189.27"/>
<polygon fill="none" stroke="black" points="558,-1189.27 558,-1207.27 607,-1207.27 607,-1189.27 558,-1189.27"/>
<text text-anchor="start" x="561" y="-1195.47" font-family="Helvetica,sans-Serif" font-size="11.00"> &#160;</text>
<polygon fill="#ffffff" stroke="none" points="607,-1189.27 607,-1207.27 638,-1207.27 638,-1189.27 607,-1189.27"/>
<polygon fill="none" stroke="black" points="607,-1189.27 607,-1207.27 638,-1207.27 638,-1189.27 607,-1189.27"/>
<text text-anchor="start" x="628" y="-1195.47" font-family="Helvetica,sans-Serif" font-size="11.00"> &#160;</text>
<polygon fill="#ffffff" stroke="none" points="638,-1189.27 638,-1207.27 679,-1207.27 679,-1189.27 638,-1189.27"/>
<polygon fill="none" stroke="black" points="638,-1189.27 638,-1207.27 679,-1207.27 679,-1189.27 638,-1189.27"/>
<text text-anchor="start" x="659" y="-1195.47" font-family="Helvetica,sans-Serif" font-size="11.00">4 &gt;</text>
</a>
</g>
</g>
<!-- vms&#45;&gt;ems_clusters -->
<g id="edge34" class="edge"><title>vms:ems_cluster_id:w&#45;&gt;ems_clusters:elipses:e</title>
<path fill="none" stroke="black" d="M1075.29,-1003.34C1058.7,-1016.5 1075.49,-1058.17 1049,-1077.27 934.015,-1160.17 851.676,-1048.23 734,-1127.27 695.592,-1153.06 726.267,-1216.27 680,-1216.27"/>
<polygon fill="black" stroke="black" points="1081.81,-1001.47 1090.49,-1002.73 1085.65,-1000.37 1089.5,-999.268 1089.5,-999.268 1089.5,-999.268 1085.65,-1000.37 1088.51,-995.807 1081.81,-1001.47 1081.81,-1001.47"/>
<ellipse fill="none" stroke="black" cx="1078.73" cy="-1002.35" rx="3.20001" ry="3.20001"/>
</g>
<!-- vms&#45;&gt;miq_groups -->
<g id="edge37" class="edge"><title>vms:miq_group_id:w&#45;&gt;miq_groups:elipses:e</title>
<path fill="none" stroke="black" d="M1076.08,-1049.27C1045.27,-1083.5 1086.39,-1253.62 1049,-1285.27 942.147,-1375.73 873.846,-1291.84 734,-1285.27 549.389,-1276.59 500.408,-1286.39 320,-1246.27 298.112,-1241.4 294.922,-1229.27 272.5,-1229.27"/>
<polygon fill="black" stroke="black" points="1082.2,-1046.53 1090.97,-1046.55 1085.85,-1044.9 1089.5,-1043.27 1089.5,-1043.27 1089.5,-1043.27 1085.85,-1044.9 1088.03,-1039.98 1082.2,-1046.53 1082.2,-1046.53"/>
<ellipse fill="none" stroke="black" cx="1079.28" cy="-1047.84" rx="3.20001" ry="3.20001"/>
</g>
<!-- vms&#45;&gt;tenants -->
<g id="edge43" class="edge"><title>vms:tenant_id:w&#45;&gt;tenants:elipses:e</title>
<path fill="none" stroke="black" d="M1077.63,-837.118C1036.35,-771.03 1090.76,-324.315 1049,-284.268 1014.5,-251.184 666.8,-271.268 619,-271.268 619,-271.268 619,-271.268 410,-271.268 110.619,-271.268 222.578,-600.935 142,-889.268 124.554,-951.696 167.319,-1178.27 102.5,-1178.27"/>
<polygon fill="black" stroke="black" points="1082.9,-840.741 1087.46,-848.236 1086.2,-843.005 1089.5,-845.268 1089.5,-845.268 1089.5,-845.268 1086.2,-843.005 1091.54,-842.301 1082.9,-840.741 1082.9,-840.741"/>
<ellipse fill="none" stroke="black" cx="1080.27" cy="-838.93" rx="3.20001" ry="3.20001"/>
</g>
<!-- placement_groups -->
<g id="node19" class="node"><title>placement_groups</title>
<g id="a_node19"><a xlink:href="../../tables/placement_groups.html" xlink:title="placement_groups" target="_top">
<polygon fill="#ffffff" stroke="none" points="815,-295.268 815,-353.268 968,-353.268 968,-295.268 815,-295.268"/>
<polygon fill="#f5f5f5" stroke="none" points="815.5,-331.268 815.5,-353.268 968.5,-353.268 968.5,-331.268 815.5,-331.268"/>
<polygon fill="none" stroke="black" points="815.5,-331.268 815.5,-353.268 968.5,-353.268 968.5,-331.268 815.5,-331.268"/>
<text text-anchor="start" x="820.5" y="-340.468" font-family="Helvetica,sans-Serif" font-weight="bold" font-size="11.00">placement_groups</text>
<text text-anchor="start" x="929.5" y="-339.468" font-family="Helvetica,sans-Serif" font-size="11.00">[table]</text>
<polygon fill="none" stroke="black" points="815.5,-313.268 815.5,-331.268 968.5,-331.268 968.5,-313.268 815.5,-313.268"/>
<text text-anchor="start" x="818.5" y="-319.468" font-family="Helvetica,sans-Serif" font-size="11.00">...</text>
<polygon fill="#ffffff" stroke="none" points="815.5,-295.268 815.5,-313.268 885.5,-313.268 885.5,-295.268 815.5,-295.268"/>
<polygon fill="none" stroke="black" points="815.5,-295.268 815.5,-313.268 885.5,-313.268 885.5,-295.268 815.5,-295.268"/>
<text text-anchor="start" x="818.5" y="-301.468" font-family="Helvetica,sans-Serif" font-size="11.00">&lt; 2</text>
<polygon fill="#ffffff" stroke="none" points="885.5,-295.268 885.5,-313.268 921.5,-313.268 921.5,-295.268 885.5,-295.268"/>
<polygon fill="none" stroke="black" points="885.5,-295.268 885.5,-313.268 921.5,-313.268 921.5,-295.268 885.5,-295.268"/>
<text text-anchor="start" x="911.5" y="-301.468" font-family="Helvetica,sans-Serif" font-size="11.00"> &#160;</text>
<polygon fill="#ffffff" stroke="none" points="921.5,-295.268 921.5,-313.268 968.5,-313.268 968.5,-295.268 921.5,-295.268"/>
<polygon fill="none" stroke="black" points="921.5,-295.268 921.5,-313.268 968.5,-313.268 968.5,-295.268 921.5,-295.268"/>
<text text-anchor="start" x="948.5" y="-301.468" font-family="Helvetica,sans-Serif" font-size="11.00">1 &gt;</text>
</a>
</g>
</g>
<!-- vms&#45;&gt;placement_groups -->
<g id="edge39" class="edge"><title>vms:placement_group_id:w&#45;&gt;placement_groups:elipses:e</title>
<path fill="none" stroke="black" d="M1075.47,-753.862C1012.7,-719.274 1095.59,-431.582 1049,-363.268 1026.6,-330.424 1009.26,-322.268 969.5,-322.268"/>
<polygon fill="black" stroke="black" points="1081.73,-755.38 1088.65,-760.767 1085.61,-756.324 1089.5,-757.268 1089.5,-757.268 1089.5,-757.268 1085.61,-756.324 1090.35,-753.77 1081.73,-755.38 1081.73,-755.38"/>
<ellipse fill="none" stroke="black" cx="1078.62" cy="-754.625" rx="3.2" ry="3.2"/>
</g>
<!-- storages -->
<g id="node22" class="node"><title>storages</title>
<g id="a_node22"><a xlink:href="../../tables/storages.html" xlink:title="storages" target="_top">
<polygon fill="#ffffff" stroke="none" points="843.5,-1137.27 843.5,-1195.27 939.5,-1195.27 939.5,-1137.27 843.5,-1137.27"/>
<polygon fill="#f5f5f5" stroke="none" points="843.5,-1173.27 843.5,-1195.27 939.5,-1195.27 939.5,-1173.27 843.5,-1173.27"/>
<polygon fill="none" stroke="black" points="843.5,-1173.27 843.5,-1195.27 939.5,-1195.27 939.5,-1173.27 843.5,-1173.27"/>
<text text-anchor="start" x="848.5" y="-1182.47" font-family="Helvetica,sans-Serif" font-weight="bold" font-size="11.00">storages</text>
<text text-anchor="start" x="900.5" y="-1181.47" font-family="Helvetica,sans-Serif" font-size="11.00">[table]</text>
<polygon fill="none" stroke="black" points="843.5,-1155.27 843.5,-1173.27 939.5,-1173.27 939.5,-1155.27 843.5,-1155.27"/>
<text text-anchor="start" x="846.5" y="-1161.47" font-family="Helvetica,sans-Serif" font-size="11.00">...</text>
<polygon fill="#ffffff" stroke="none" points="843.5,-1137.27 843.5,-1155.27 879.5,-1155.27 879.5,-1137.27 843.5,-1137.27"/>
<polygon fill="none" stroke="black" points="843.5,-1137.27 843.5,-1155.27 879.5,-1155.27 879.5,-1137.27 843.5,-1137.27"/>
<text text-anchor="start" x="846.5" y="-1143.47" font-family="Helvetica,sans-Serif" font-size="11.00"> &#160;</text>
<polygon fill="#ffffff" stroke="none" points="879.5,-1137.27 879.5,-1155.27 904.5,-1155.27 904.5,-1137.27 879.5,-1137.27"/>
<polygon fill="none" stroke="black" points="879.5,-1137.27 879.5,-1155.27 904.5,-1155.27 904.5,-1137.27 879.5,-1137.27"/>
<text text-anchor="start" x="894.5" y="-1143.47" font-family="Helvetica,sans-Serif" font-size="11.00"> &#160;</text>
<polygon fill="#ffffff" stroke="none" points="904.5,-1137.27 904.5,-1155.27 939.5,-1155.27 939.5,-1137.27 904.5,-1137.27"/>
<polygon fill="none" stroke="black" points="904.5,-1137.27 904.5,-1155.27 939.5,-1155.27 939.5,-1137.27 904.5,-1137.27"/>
<text text-anchor="start" x="919.5" y="-1143.47" font-family="Helvetica,sans-Serif" font-size="11.00">8 &gt;</text>
</a>
</g>
</g>
<!-- vms&#45;&gt;storages -->
<g id="edge41" class="edge"><title>vms:storage_id:w&#45;&gt;storages:elipses:e</title>
<path fill="none" stroke="black" d="M1074.81,-1153.46C1020.26,-1154.92 1001.71,-1164.27 940.5,-1164.27"/>
<polygon fill="black" stroke="black" points="1081.5,-1153.37 1089.55,-1156.87 1085.5,-1153.32 1089.5,-1153.27 1089.5,-1153.27 1089.5,-1153.27 1085.5,-1153.32 1089.45,-1149.67 1081.5,-1153.37 1081.5,-1153.37"/>
<ellipse fill="none" stroke="black" cx="1078.3" cy="-1153.41" rx="3.2" ry="3.2"/>
</g>
<!-- storage_profiles -->
<g id="node23" class="node"><title>storage_profiles</title>
<g id="a_node23"><a xlink:href="../../tables/storage_profiles.html" xlink:title="storage_profiles" target="_top">
<polygon fill="#ffffff" stroke="none" points="822.5,-162.268 822.5,-220.268 960.5,-220.268 960.5,-162.268 822.5,-162.268"/>
<polygon fill="#f5f5f5" stroke="none" points="822.5,-198.268 822.5,-220.268 960.5,-220.268 960.5,-198.268 822.5,-198.268"/>
<polygon fill="none" stroke="black" points="822.5,-198.268 822.5,-220.268 960.5,-220.268 960.5,-198.268 822.5,-198.268"/>
<text text-anchor="start" x="827.5" y="-207.468" font-family="Helvetica,sans-Serif" font-weight="bold" font-size="11.00">storage_profiles</text>
<text text-anchor="start" x="921.5" y="-206.468" font-family="Helvetica,sans-Serif" font-size="11.00">[table]</text>
<polygon fill="none" stroke="black" points="822.5,-180.268 822.5,-198.268 960.5,-198.268 960.5,-180.268 822.5,-180.268"/>
<text text-anchor="start" x="825.5" y="-186.468" font-family="Helvetica,sans-Serif" font-size="11.00">...</text>
<polygon fill="#ffffff" stroke="none" points="822.5,-162.268 822.5,-180.268 879.5,-180.268 879.5,-162.268 822.5,-162.268"/>
<polygon fill="none" stroke="black" points="822.5,-162.268 822.5,-180.268 879.5,-180.268 879.5,-162.268 822.5,-162.268"/>
<text text-anchor="start" x="825.5" y="-168.468" font-family="Helvetica,sans-Serif" font-size="11.00"> &#160;</text>
<polygon fill="#ffffff" stroke="none" points="879.5,-162.268 879.5,-180.268 914.5,-180.268 914.5,-162.268 879.5,-162.268"/>
<polygon fill="none" stroke="black" points="879.5,-162.268 879.5,-180.268 914.5,-180.268 914.5,-162.268 879.5,-162.268"/>
<text text-anchor="start" x="904.5" y="-168.468" font-family="Helvetica,sans-Serif" font-size="11.00"> &#160;</text>
<polygon fill="#ffffff" stroke="none" points="914.5,-162.268 914.5,-180.268 960.5,-180.268 960.5,-162.268 914.5,-162.268"/>
<polygon fill="none" stroke="black" points="914.5,-162.268 914.5,-180.268 960.5,-180.268 960.5,-162.268 914.5,-162.268"/>
<text text-anchor="start" x="940.5" y="-168.468" font-family="Helvetica,sans-Serif" font-size="11.00">3 &gt;</text>
</a>
</g>
</g>
<!-- vms&#45;&gt;storage_profiles -->
<g id="edge42" class="edge"><title>vms:storage_profile_id:w&#45;&gt;storage_profiles:elipses:e</title>
<path fill="none" stroke="black" d="M1077.34,-793.169C1034.36,-727.471 1081.22,-283.065 1049,-234.268 1024.91,-197.775 1005.23,-189.268 961.5,-189.268"/>
<polygon fill="black" stroke="black" points="1082.84,-796.833 1087.5,-804.264 1086.17,-799.051 1089.5,-801.268 1089.5,-801.268 1089.5,-801.268 1086.17,-799.051 1091.5,-798.273 1082.84,-796.833 1082.84,-796.833"/>
<ellipse fill="none" stroke="black" cx="1080.18" cy="-795.058" rx="3.20001" ry="3.20001"/>
</g>
<!-- floating_ips -->
<g id="node11" class="node"><title>floating_ips</title>
<g id="a_node11"><a xlink:href="../../tables/floating_ips.html" xlink:title="floating_ips" target="_top">
<polygon fill="#ffffff" stroke="none" points="1381.5,-1325.27 1381.5,-1383.27 1494.5,-1383.27 1494.5,-1325.27 1381.5,-1325.27"/>
<polygon fill="#f5f5f5" stroke="none" points="1382,-1361.27 1382,-1383.27 1495,-1383.27 1495,-1361.27 1382,-1361.27"/>
<polygon fill="none" stroke="black" points="1382,-1361.27 1382,-1383.27 1495,-1383.27 1495,-1361.27 1382,-1361.27"/>
<text text-anchor="start" x="1387" y="-1370.47" font-family="Helvetica,sans-Serif" font-weight="bold" font-size="11.00">floating_ips</text>
<text text-anchor="start" x="1456" y="-1369.47" font-family="Helvetica,sans-Serif" font-size="11.00">[table]</text>
<polygon fill="none" stroke="black" points="1382,-1343.27 1382,-1361.27 1495,-1361.27 1495,-1343.27 1382,-1343.27"/>
<text text-anchor="start" x="1385" y="-1349.47" font-family="Helvetica,sans-Serif" font-size="11.00">...</text>
<polygon fill="#ffffff" stroke="none" points="1382,-1325.27 1382,-1343.27 1437,-1343.27 1437,-1325.27 1382,-1325.27"/>
<polygon fill="none" stroke="black" points="1382,-1325.27 1382,-1343.27 1437,-1343.27 1437,-1325.27 1382,-1325.27"/>
<text text-anchor="start" x="1385" y="-1331.47" font-family="Helvetica,sans-Serif" font-size="11.00">&lt; 5</text>
<polygon fill="#ffffff" stroke="none" points="1437,-1325.27 1437,-1343.27 1466,-1343.27 1466,-1325.27 1437,-1325.27"/>
<polygon fill="none" stroke="black" points="1437,-1325.27 1437,-1343.27 1466,-1343.27 1466,-1325.27 1437,-1325.27"/>
<text text-anchor="start" x="1456" y="-1331.47" font-family="Helvetica,sans-Serif" font-size="11.00"> &#160;</text>
<polygon fill="#ffffff" stroke="none" points="1466,-1325.27 1466,-1343.27 1495,-1343.27 1495,-1325.27 1466,-1325.27"/>
<polygon fill="none" stroke="black" points="1466,-1325.27 1466,-1343.27 1495,-1343.27 1495,-1325.27 1466,-1325.27"/>
<text text-anchor="start" x="1485" y="-1331.47" font-family="Helvetica,sans-Serif" font-size="11.00"> &#160;</text>
</a>
</g>
</g>
<!-- floating_ips&#45;&gt;cloud_networks -->
<g id="edge11" class="edge"><title>floating_ips:elipses:w&#45;&gt;cloud_networks:elipses:e</title>
<path fill="none" stroke="black" d="M1366.51,-1352C1336.79,-1350.83 1324.63,-1346.03 1289,-1342.27 1165.7,-1329.24 826.832,-1367.45 734,-1285.27 665.058,-1224.24 780.076,-1083.27 688,-1083.27"/>
<polygon fill="black" stroke="black" points="1373,-1352.12 1380.93,-1355.87 1377,-1352.19 1381,-1352.27 1381,-1352.27 1381,-1352.27 1377,-1352.19 1381.07,-1348.67 1373,-1352.12 1373,-1352.12"/>
<ellipse fill="none" stroke="black" cx="1369.8" cy="-1352.06" rx="3.2" ry="3.2"/>
</g>
<!-- floating_ips&#45;&gt;cloud_tenants -->
<g id="edge12" class="edge"><title>floating_ips:elipses:w&#45;&gt;cloud_tenants:elipses:e</title>
<path fill="none" stroke="black" d="M1366.41,-1352.35C997.619,-1356.56 803.851,-1517.42 535,-1258.27 504.026,-1228.41 527.64,-1201.82 502,-1167.27 441.82,-1086.18 380.662,-1111.99 320,-1031.27 290.047,-991.409 330.36,-926.268 280.5,-926.268"/>
<polygon fill="black" stroke="black" points="1373,-1352.31 1381.02,-1355.87 1377,-1352.29 1381,-1352.27 1381,-1352.27 1381,-1352.27 1377,-1352.29 1380.98,-1348.67 1373,-1352.31 1373,-1352.31"/>
<ellipse fill="none" stroke="black" cx="1369.8" cy="-1352.33" rx="3.2" ry="3.2"/>
</g>
<!-- floating_ips&#45;&gt;vms -->
<g id="edge13" class="edge"><title>floating_ips:elipses:w&#45;&gt;vms:id:e</title>
<path fill="none" stroke="black" d="M1366.42,-1350.91C1347.1,-1346.84 1339.32,-1333.84 1322,-1315.27 1296.57,-1288 1319.78,-1241.27 1282.5,-1241.27"/>
<polygon fill="black" stroke="black" points="1373.03,-1351.53 1380.67,-1355.85 1377.02,-1351.9 1381,-1352.27 1381,-1352.27 1381,-1352.27 1377.02,-1351.9 1381.33,-1348.68 1373.03,-1351.53 1373.03,-1351.53"/>
<ellipse fill="none" stroke="black" cx="1369.85" cy="-1351.23" rx="3.2" ry="3.2"/>
</g>
<!-- hosts&#45;&gt;availability_zones -->
<g id="edge14" class="edge"><title>hosts:elipses:w&#45;&gt;availability_zones:elipses:e</title>
<path fill="none" stroke="black" d="M836.822,-1243.33C791.744,-1243.58 767.111,-1243.22 734,-1206.27 672.926,-1138.11 785.521,-1004.27 694,-1004.27"/>
<polygon fill="black" stroke="black" points="843.5,-1243.3 851.515,-1246.87 847.5,-1243.28 851.5,-1243.27 851.5,-1243.27 851.5,-1243.27 847.5,-1243.28 851.485,-1239.67 843.5,-1243.3 843.5,-1243.3"/>
<ellipse fill="none" stroke="black" cx="840.3" cy="-1243.31" rx="3.2" ry="3.2"/>
</g>
<!-- hosts&#45;&gt;ems_clusters -->
<g id="edge15" class="edge"><title>hosts:elipses:w&#45;&gt;ems_clusters:elipses:e</title>
<path fill="none" stroke="black" d="M836.886,-1242.93C771.793,-1239.8 752.037,-1216.27 680,-1216.27"/>
<polygon fill="black" stroke="black" points="843.502,-1243.08 851.416,-1246.87 847.501,-1243.18 851.5,-1243.27 851.5,-1243.27 851.5,-1243.27 847.501,-1243.18 851.584,-1239.67 843.502,-1243.08 843.502,-1243.08"/>
<ellipse fill="none" stroke="black" cx="840.303" cy="-1243.01" rx="3.2" ry="3.2"/>
</g>
<!-- key_pairs_vms -->
<g id="node14" class="node"><title>key_pairs_vms</title>
<g id="a_node14"><a xlink:href="../../tables/key_pairs_vms.html" xlink:title="key_pairs_vms" target="_top">
<polygon fill="#ffffff" stroke="none" points="1373,-1088.27 1373,-1146.27 1503,-1146.27 1503,-1088.27 1373,-1088.27"/>
<polygon fill="#f5f5f5" stroke="none" points="1373,-1124.27 1373,-1146.27 1503,-1146.27 1503,-1124.27 1373,-1124.27"/>
<polygon fill="none" stroke="black" points="1373,-1124.27 1373,-1146.27 1503,-1146.27 1503,-1124.27 1373,-1124.27"/>
<text text-anchor="start" x="1378" y="-1133.47" font-family="Helvetica,sans-Serif" font-weight="bold" font-size="11.00">key_pairs_vms</text>
<text text-anchor="start" x="1464" y="-1132.47" font-family="Helvetica,sans-Serif" font-size="11.00">[table]</text>
<polygon fill="none" stroke="black" points="1373,-1106.27 1373,-1124.27 1503,-1124.27 1503,-1106.27 1373,-1106.27"/>
<text text-anchor="start" x="1376" y="-1112.47" font-family="Helvetica,sans-Serif" font-size="11.00">...</text>
<polygon fill="#ffffff" stroke="none" points="1373,-1088.27 1373,-1106.27 1436,-1106.27 1436,-1088.27 1373,-1088.27"/>
<polygon fill="none" stroke="black" points="1373,-1088.27 1373,-1106.27 1436,-1106.27 1436,-1088.27 1373,-1088.27"/>
<text text-anchor="start" x="1376" y="-1094.47" font-family="Helvetica,sans-Serif" font-size="11.00">&lt; 2</text>
<polygon fill="#ffffff" stroke="none" points="1436,-1088.27 1436,-1106.27 1469,-1106.27 1469,-1088.27 1436,-1088.27"/>
<polygon fill="none" stroke="black" points="1436,-1088.27 1436,-1106.27 1469,-1106.27 1469,-1088.27 1436,-1088.27"/>
<text text-anchor="start" x="1459" y="-1094.47" font-family="Helvetica,sans-Serif" font-size="11.00"> &#160;</text>
<polygon fill="#ffffff" stroke="none" points="1469,-1088.27 1469,-1106.27 1503,-1106.27 1503,-1088.27 1469,-1088.27"/>
<polygon fill="none" stroke="black" points="1469,-1088.27 1469,-1106.27 1503,-1106.27 1503,-1088.27 1469,-1088.27"/>
<text text-anchor="start" x="1493" y="-1094.47" font-family="Helvetica,sans-Serif" font-size="11.00"> &#160;</text>
</a>
</g>
</g>
<!-- key_pairs_vms&#45;&gt;vms -->
<g id="edge16" class="edge"><title>key_pairs_vms:elipses:w&#45;&gt;vms:id:e</title>
<path fill="none" stroke="black" d="M1357.64,-1117.33C1341.15,-1122.84 1336.24,-1138.76 1322,-1157.27 1296.84,-1189.96 1323.76,-1241.27 1282.5,-1241.27"/>
<polygon fill="black" stroke="black" points="1364.08,-1116.41 1372.51,-1118.83 1368.04,-1115.84 1372,-1115.27 1372,-1115.27 1372,-1115.27 1368.04,-1115.84 1371.49,-1111.71 1364.08,-1116.41 1364.08,-1116.41"/>
<ellipse fill="none" stroke="black" cx="1360.91" cy="-1116.86" rx="3.2" ry="3.2"/>
</g>
<!-- load_balancer_pool_members -->
<g id="node15" class="node"><title>load_balancer_pool_members</title>
<g id="a_node15"><a xlink:href="../../tables/load_balancer_pool_members.html" xlink:title="load_balancer_pool_members" target="_top">
<polygon fill="#ffffff" stroke="none" points="1330,-339.268 1330,-397.268 1546,-397.268 1546,-339.268 1330,-339.268"/>
<polygon fill="#f5f5f5" stroke="none" points="1330,-375.268 1330,-397.268 1546,-397.268 1546,-375.268 1330,-375.268"/>
<polygon fill="none" stroke="black" points="1330,-375.268 1330,-397.268 1546,-397.268 1546,-375.268 1330,-375.268"/>
<text text-anchor="start" x="1335" y="-384.468" font-family="Helvetica,sans-Serif" font-weight="bold" font-size="11.00">load_balancer_pool_members</text>
<text text-anchor="start" x="1507" y="-383.468" font-family="Helvetica,sans-Serif" font-size="11.00">[table]</text>
<polygon fill="none" stroke="black" points="1330,-357.268 1330,-375.268 1546,-375.268 1546,-357.268 1330,-357.268"/>
<text text-anchor="start" x="1333" y="-363.468" font-family="Helvetica,sans-Serif" font-size="11.00">...</text>
<polygon fill="#ffffff" stroke="none" points="1330,-339.268 1330,-357.268 1431,-357.268 1431,-339.268 1330,-339.268"/>
<polygon fill="none" stroke="black" points="1330,-339.268 1330,-357.268 1431,-357.268 1431,-339.268 1330,-339.268"/>
<text text-anchor="start" x="1333" y="-345.468" font-family="Helvetica,sans-Serif" font-size="11.00">&lt; 5</text>
<polygon fill="#ffffff" stroke="none" points="1431,-339.268 1431,-357.268 1483,-357.268 1483,-339.268 1431,-339.268"/>
<polygon fill="none" stroke="black" points="1431,-339.268 1431,-357.268 1483,-357.268 1483,-339.268 1431,-339.268"/>
<text text-anchor="start" x="1473" y="-345.468" font-family="Helvetica,sans-Serif" font-size="11.00"> &#160;</text>
<polygon fill="#ffffff" stroke="none" points="1483,-339.268 1483,-357.268 1546,-357.268 1546,-339.268 1483,-339.268"/>
<polygon fill="none" stroke="black" points="1483,-339.268 1483,-357.268 1546,-357.268 1546,-339.268 1483,-339.268"/>
<text text-anchor="start" x="1526" y="-345.468" font-family="Helvetica,sans-Serif" font-size="11.00">2 &gt;</text>
</a>
</g>
</g>
<!-- load_balancer_pool_members&#45;&gt;cloud_tenants -->
<g id="edge18" class="edge"><title>load_balancer_pool_members:elipses:w&#45;&gt;cloud_tenants:elipses:e</title>
<path fill="none" stroke="black" d="M1314.48,-364.885C1247.56,-350.292 1348.15,-223.815 1289,-157.268 1168.26,-21.4301 1074.24,-57.2685 892.5,-57.2685 892.5,-57.2685 892.5,-57.2685 617,-57.2685 484.456,-57.2685 411.649,11.4836 320,-84.2685 255.239,-151.929 374.158,-926.268 280.5,-926.268"/>
<polygon fill="black" stroke="black" points="1321.04,-365.51 1328.66,-369.852 1325.02,-365.889 1329,-366.268 1329,-366.268 1329,-366.268 1325.02,-365.889 1329.34,-362.685 1321.04,-365.51 1321.04,-365.51"/>
<ellipse fill="none" stroke="black" cx="1317.85" cy="-365.206" rx="3.2" ry="3.2"/>
</g>
<!-- load_balancer_pool_members&#45;&gt;resource_groups -->
<g id="edge19" class="edge"><title>load_balancer_pool_members:elipses:w&#45;&gt;resource_groups:elipses:e</title>
<path fill="none" stroke="black" d="M1314.67,-363.186C1291.6,-350.233 1316.4,-299.525 1289,-270.268 1207.62,-183.369 1164.92,-178.429 1049,-151.268 912.692,-119.331 872.878,-133.578 734,-151.268 619.688,-165.83 598.235,-216.268 483,-216.268"/>
<polygon fill="black" stroke="black" points="1321.18,-364.586 1328.24,-369.788 1325.09,-365.427 1329,-366.268 1329,-366.268 1329,-366.268 1325.09,-365.427 1329.76,-362.749 1321.18,-364.586 1321.18,-364.586"/>
<ellipse fill="none" stroke="black" cx="1318.05" cy="-363.913" rx="3.2" ry="3.2"/>
</g>
<!-- load_balancer_pool_members&#45;&gt;cloud_subnets -->
<g id="edge17" class="edge"><title>load_balancer_pool_members:elipses:w&#45;&gt;cloud_subnets:elipses:e</title>
<path fill="none" stroke="black" d="M1317.13,-374.627C1265.92,-424.386 1090.01,-680.089 1082,-699.268 1044.91,-788.071 1099.85,-831.565 1049,-913.268 1022.78,-955.402 1007.13,-977.268 957.5,-977.268"/>
<polygon fill="black" stroke="black" points="1322.46,-370.874 1331.07,-369.212 1325.73,-368.571 1329,-366.268 1329,-366.268 1329,-366.268 1325.73,-368.571 1326.93,-363.325 1322.46,-370.874 1322.46,-370.874"/>
<ellipse fill="none" stroke="black" cx="1319.84" cy="-372.716" rx="3.20001" ry="3.20001"/>
</g>
<!-- load_balancer_pool_members&#45;&gt;vms -->
<g id="edge20" class="edge"><title>load_balancer_pool_members:elipses:w&#45;&gt;vms:id:e</title>
<path fill="none" stroke="black" d="M1316,-372.808C1246.06,-452.879 1374.92,-1241.27 1282.5,-1241.27"/>
<polygon fill="black" stroke="black" points="1321.85,-369.865 1330.62,-369.484 1325.43,-368.067 1329,-366.268 1329,-366.268 1329,-366.268 1325.43,-368.067 1327.38,-363.053 1321.85,-369.865 1321.85,-369.865"/>
<ellipse fill="none" stroke="black" cx="1319" cy="-371.303" rx="3.20001" ry="3.20001"/>
</g>
<!-- miq_groups&#45;&gt;tenants -->
<g id="edge21" class="edge"><title>miq_groups:elipses:w&#45;&gt;tenants:elipses:e</title>
<path fill="none" stroke="black" d="M142.544,-1224.92C126.355,-1212.59 129.58,-1178.27 102.5,-1178.27"/>
<polygon fill="black" stroke="black" points="148.862,-1226.89 155.429,-1232.71 152.681,-1228.08 156.5,-1229.27 156.5,-1229.27 156.5,-1229.27 152.681,-1228.08 157.571,-1225.83 148.862,-1226.89 148.862,-1226.89"/>
<ellipse fill="none" stroke="black" cx="145.807" cy="-1225.94" rx="3.20001" ry="3.20001"/>
</g>
<!-- miq_servers -->
<g id="node18" class="node"><title>miq_servers</title>
<g id="a_node18"><a xlink:href="../../tables/miq_servers.html" xlink:title="miq_servers" target="_top">
<polygon fill="#ffffff" stroke="none" points="1379.5,-1009.27 1379.5,-1067.27 1496.5,-1067.27 1496.5,-1009.27 1379.5,-1009.27"/>
<polygon fill="#f5f5f5" stroke="none" points="1380,-1045.27 1380,-1067.27 1497,-1067.27 1497,-1045.27 1380,-1045.27"/>
<polygon fill="none" stroke="black" points="1380,-1045.27 1380,-1067.27 1497,-1067.27 1497,-1045.27 1380,-1045.27"/>
<text text-anchor="start" x="1385" y="-1054.47" font-family="Helvetica,sans-Serif" font-weight="bold" font-size="11.00">miq_servers</text>
<text text-anchor="start" x="1458" y="-1053.47" font-family="Helvetica,sans-Serif" font-size="11.00">[table]</text>
<polygon fill="none" stroke="black" points="1380,-1027.27 1380,-1045.27 1497,-1045.27 1497,-1027.27 1380,-1027.27"/>
<text text-anchor="start" x="1383" y="-1033.47" font-family="Helvetica,sans-Serif" font-size="11.00">...</text>
<polygon fill="#ffffff" stroke="none" points="1380,-1009.27 1380,-1027.27 1432,-1027.27 1432,-1009.27 1380,-1009.27"/>
<polygon fill="none" stroke="black" points="1380,-1009.27 1380,-1027.27 1432,-1027.27 1432,-1009.27 1380,-1009.27"/>
<text text-anchor="start" x="1383" y="-1015.47" font-family="Helvetica,sans-Serif" font-size="11.00">&lt; 2</text>
<polygon fill="#ffffff" stroke="none" points="1432,-1009.27 1432,-1027.27 1459,-1027.27 1459,-1009.27 1432,-1009.27"/>
<polygon fill="none" stroke="black" points="1432,-1009.27 1432,-1027.27 1459,-1027.27 1459,-1009.27 1432,-1009.27"/>
<text text-anchor="start" x="1449" y="-1015.47" font-family="Helvetica,sans-Serif" font-size="11.00"> &#160;</text>
<polygon fill="#ffffff" stroke="none" points="1459,-1009.27 1459,-1027.27 1497,-1027.27 1497,-1009.27 1459,-1009.27"/>
<polygon fill="none" stroke="black" points="1459,-1009.27 1459,-1027.27 1497,-1027.27 1497,-1009.27 1459,-1009.27"/>
<text text-anchor="start" x="1477" y="-1015.47" font-family="Helvetica,sans-Serif" font-size="11.00">4 &gt;</text>
</a>
</g>
</g>
<!-- miq_servers&#45;&gt;vms -->
<g id="edge22" class="edge"><title>miq_servers:elipses:w&#45;&gt;vms:id:e</title>
<path fill="none" stroke="black" d="M1364.39,-1037.7C1344.39,-1042.14 1336.36,-1056.67 1322,-1078.27 1280.73,-1140.34 1357.04,-1241.27 1282.5,-1241.27"/>
<polygon fill="black" stroke="black" points="1371.04,-1037.05 1379.35,-1039.85 1375.02,-1036.66 1379,-1036.27 1379,-1036.27 1379,-1036.27 1375.02,-1036.66 1378.65,-1032.69 1371.04,-1037.05 1371.04,-1037.05"/>
<ellipse fill="none" stroke="black" cx="1367.85" cy="-1037.36" rx="3.2" ry="3.2"/>
</g>
<!-- placement_groups&#45;&gt;cloud_tenants -->
<g id="edge27" class="edge"><title>placement_groups:elipses:w&#45;&gt;cloud_tenants:elipses:e</title>
<path fill="none" stroke="black" d="M800.017,-323.085C771.524,-326.607 761.032,-341.324 734,-363.268 671.636,-413.895 360.826,-926.268 280.5,-926.268"/>
<polygon fill="black" stroke="black" points="806.513,-322.719 814.703,-325.863 810.506,-322.494 814.5,-322.268 814.5,-322.268 814.5,-322.268 810.506,-322.494 814.297,-318.674 806.513,-322.719 806.513,-322.719"/>
<ellipse fill="none" stroke="black" cx="803.318" cy="-322.899" rx="3.2" ry="3.2"/>
</g>
<!-- placement_groups&#45;&gt;availability_zones -->
<g id="edge26" class="edge"><title>placement_groups:elipses:w&#45;&gt;availability_zones:elipses:e</title>
<path fill="none" stroke="black" d="M800.007,-322.679C769.566,-324.62 753.197,-334.033 734,-363.268 694.832,-422.919 765.361,-1004.27 694,-1004.27"/>
<polygon fill="black" stroke="black" points="806.503,-322.495 814.602,-325.867 810.502,-322.382 814.5,-322.268 814.5,-322.268 814.5,-322.268 810.502,-322.382 814.398,-318.67 806.503,-322.495 806.503,-322.495"/>
<ellipse fill="none" stroke="black" cx="803.304" cy="-322.586" rx="3.2" ry="3.2"/>
</g>
<!-- security_groups_vms -->
<g id="node20" class="node"><title>security_groups_vms</title>
<g id="a_node20"><a xlink:href="../../tables/security_groups_vms.html" xlink:title="security_groups_vms" target="_top">
<polygon fill="#ffffff" stroke="none" points="1355,-1246.27 1355,-1304.27 1521,-1304.27 1521,-1246.27 1355,-1246.27"/>
<polygon fill="#f5f5f5" stroke="none" points="1355,-1282.27 1355,-1304.27 1521,-1304.27 1521,-1282.27 1355,-1282.27"/>
<polygon fill="none" stroke="black" points="1355,-1282.27 1355,-1304.27 1521,-1304.27 1521,-1282.27 1355,-1282.27"/>
<text text-anchor="start" x="1360" y="-1291.47" font-family="Helvetica,sans-Serif" font-weight="bold" font-size="11.00">security_groups_vms</text>
<text text-anchor="start" x="1482" y="-1290.47" font-family="Helvetica,sans-Serif" font-size="11.00">[table]</text>
<polygon fill="none" stroke="black" points="1355,-1264.27 1355,-1282.27 1521,-1282.27 1521,-1264.27 1355,-1264.27"/>
<text text-anchor="start" x="1358" y="-1270.47" font-family="Helvetica,sans-Serif" font-size="11.00">...</text>
<polygon fill="#ffffff" stroke="none" points="1355,-1246.27 1355,-1264.27 1436,-1264.27 1436,-1246.27 1355,-1246.27"/>
<polygon fill="none" stroke="black" points="1355,-1246.27 1355,-1264.27 1436,-1264.27 1436,-1246.27 1355,-1246.27"/>
<text text-anchor="start" x="1358" y="-1252.47" font-family="Helvetica,sans-Serif" font-size="11.00">&lt; 2</text>
<polygon fill="#ffffff" stroke="none" points="1436,-1246.27 1436,-1264.27 1478,-1264.27 1478,-1246.27 1436,-1246.27"/>
<polygon fill="none" stroke="black" points="1436,-1246.27 1436,-1264.27 1478,-1264.27 1478,-1246.27 1436,-1246.27"/>
<text text-anchor="start" x="1468" y="-1252.47" font-family="Helvetica,sans-Serif" font-size="11.00"> &#160;</text>
<polygon fill="#ffffff" stroke="none" points="1478,-1246.27 1478,-1264.27 1521,-1264.27 1521,-1246.27 1478,-1246.27"/>
<polygon fill="none" stroke="black" points="1478,-1246.27 1478,-1264.27 1521,-1264.27 1521,-1246.27 1478,-1246.27"/>
<text text-anchor="start" x="1511" y="-1252.47" font-family="Helvetica,sans-Serif" font-size="11.00"> &#160;</text>
</a>
</g>
</g>
<!-- security_groups_vms&#45;&gt;vms -->
<g id="edge28" class="edge"><title>security_groups_vms:elipses:w&#45;&gt;vms:id:e</title>
<path fill="none" stroke="black" d="M1339.54,-1271.07C1317.74,-1263.84 1311.74,-1241.27 1282.5,-1241.27"/>
<polygon fill="black" stroke="black" points="1346.09,-1272.07 1353.46,-1276.83 1350.05,-1272.67 1354,-1273.27 1354,-1273.27 1354,-1273.27 1350.05,-1272.67 1354.54,-1269.71 1346.09,-1272.07 1346.09,-1272.07"/>
<ellipse fill="none" stroke="black" cx="1342.93" cy="-1271.58" rx="3.2" ry="3.2"/>
</g>
<!-- system_consoles -->
<g id="node21" class="node"><title>system_consoles</title>
<g id="a_node21"><a xlink:href="../../tables/system_consoles.html" xlink:title="system_consoles" target="_top">
<polygon fill="#ffffff" stroke="none" points="1367,-1167.27 1367,-1225.27 1509,-1225.27 1509,-1167.27 1367,-1167.27"/>
<polygon fill="#f5f5f5" stroke="none" points="1367,-1203.27 1367,-1225.27 1509,-1225.27 1509,-1203.27 1367,-1203.27"/>
<polygon fill="none" stroke="black" points="1367,-1203.27 1367,-1225.27 1509,-1225.27 1509,-1203.27 1367,-1203.27"/>
<text text-anchor="start" x="1372" y="-1212.47" font-family="Helvetica,sans-Serif" font-weight="bold" font-size="11.00">system_consoles</text>
<text text-anchor="start" x="1470" y="-1211.47" font-family="Helvetica,sans-Serif" font-size="11.00">[table]</text>
<polygon fill="none" stroke="black" points="1367,-1185.27 1367,-1203.27 1509,-1203.27 1509,-1185.27 1367,-1185.27"/>
<text text-anchor="start" x="1370" y="-1191.47" font-family="Helvetica,sans-Serif" font-size="11.00">...</text>
<polygon fill="#ffffff" stroke="none" points="1367,-1167.27 1367,-1185.27 1436,-1185.27 1436,-1167.27 1367,-1167.27"/>
<polygon fill="none" stroke="black" points="1367,-1167.27 1367,-1185.27 1436,-1185.27 1436,-1167.27 1367,-1167.27"/>
<text text-anchor="start" x="1370" y="-1173.47" font-family="Helvetica,sans-Serif" font-size="11.00">&lt; 2</text>
<polygon fill="#ffffff" stroke="none" points="1436,-1167.27 1436,-1185.27 1472,-1185.27 1472,-1167.27 1436,-1167.27"/>
<polygon fill="none" stroke="black" points="1436,-1167.27 1436,-1185.27 1472,-1185.27 1472,-1167.27 1436,-1167.27"/>
<text text-anchor="start" x="1462" y="-1173.47" font-family="Helvetica,sans-Serif" font-size="11.00"> &#160;</text>
<polygon fill="#ffffff" stroke="none" points="1472,-1167.27 1472,-1185.27 1509,-1185.27 1509,-1167.27 1472,-1167.27"/>
<polygon fill="none" stroke="black" points="1472,-1167.27 1472,-1185.27 1509,-1185.27 1509,-1167.27 1472,-1167.27"/>
<text text-anchor="start" x="1499" y="-1173.47" font-family="Helvetica,sans-Serif" font-size="11.00"> &#160;</text>
</a>
</g>
</g>
<!-- system_consoles&#45;&gt;vms -->
<g id="edge29" class="edge"><title>system_consoles:elipses:w&#45;&gt;vms:id:e</title>
<path fill="none" stroke="black" d="M1351.55,-1196.41C1323.11,-1205.6 1319.6,-1241.27 1282.5,-1241.27"/>
<polygon fill="black" stroke="black" points="1358.09,-1195.44 1366.53,-1197.83 1362.04,-1194.85 1366,-1194.27 1366,-1194.27 1366,-1194.27 1362.04,-1194.85 1365.47,-1190.71 1358.09,-1195.44 1358.09,-1195.44"/>
<ellipse fill="none" stroke="black" cx="1354.92" cy="-1195.91" rx="3.2" ry="3.2"/>
</g>
</g>
</svg>
