<?xml version="1.0" encoding="UTF-8" standalone="no"?>
<!DOCTYPE svg PUBLIC "-//W3C//DTD SVG 1.1//EN"
 "http://www.w3.org/Graphics/SVG/1.1/DTD/svg11.dtd">
<!-- Generated by graphviz version 2.38.0 (20140413.2041)
 -->
<!-- Title: oneDegreeRelationshipsDiagram Pages: 1 -->
<svg width="582pt" height="247pt"
 viewBox="0.00 0.00 582.00 247.00" xmlns="http://www.w3.org/2000/svg" xmlns:xlink="http://www.w3.org/1999/xlink">
<g id="graph0" class="graph" transform="scale(1 1) rotate(0) translate(4 243)">
<title>oneDegreeRelationshipsDiagram</title>
<polygon fill="#ffffff" stroke="none" points="-4,4 -4,-243 578,-243 578,4 -4,4"/>
<text text-anchor="middle" x="74.5" y="-7.2" font-family="Helvetica,sans-Serif" font-size="11.00">Generated by SchemaSpy</text>
<!-- generic_objects -->
<g id="node1" class="node"><title>generic_objects</title>
<g id="a_node1"><a xlink:href="../../tables/generic_objects.html" xlink:title="generic_objects" target="_top">
<polygon fill="#ffffff" stroke="none" points="254,-37 254,-235 566,-235 566,-37 254,-37"/>
<polygon fill="#f5f5f5" stroke="none" points="256,-211 256,-233 564,-233 564,-211 256,-211"/>
<polygon fill="none" stroke="black" points="256,-211 256,-233 564,-233 564,-211 256,-211"/>
<text text-anchor="start" x="261" y="-220.2" font-family="Helvetica,sans-Serif" font-weight="bold" font-size="11.00">generic_objects</text>
<text text-anchor="start" x="525" y="-219.2" font-family="Helvetica,sans-Serif" font-size="11.00">[table]</text>
<polygon fill="none" stroke="black" points="256,-189 256,-211 443,-211 443,-189 256,-189"/>
<image xlink:href="../../images/primaryKeys.png" width="11px" height="12px" preserveAspectRatio="xMinYMin meet" x="261" y="-206"/>
<text text-anchor="start" x="276" y="-197.2" font-family="Helvetica,sans-Serif" font-size="11.00">id</text>
<polygon fill="none" stroke="black" points="443,-189 443,-211 564,-211 564,-189 443,-189"/>
<text text-anchor="start" x="446" y="-197.2" font-family="Helvetica,sans-Serif" font-size="11.00">bigserial[19]</text>
<polygon fill="none" stroke="black" points="256,-167 256,-189 443,-189 443,-167 256,-167"/>
<text text-anchor="start" x="276" y="-175.2" font-family="Helvetica,sans-Serif" font-size="11.00">name</text>
<polygon fill="none" stroke="black" points="443,-167 443,-189 564,-189 564,-167 443,-167"/>
<text text-anchor="start" x="446" y="-175.2" font-family="Helvetica,sans-Serif" font-size="11.00">varchar[2147483647]</text>
<polygon fill="none" stroke="black" points="256,-145 256,-167 443,-167 443,-145 256,-145"/>
<text text-anchor="start" x="276" y="-153.2" font-family="Helvetica,sans-Serif" font-size="11.00">uid</text>
<polygon fill="none" stroke="black" points="443,-145 443,-167 564,-167 564,-145 443,-145"/>
<text text-anchor="start" x="446" y="-153.2" font-family="Helvetica,sans-Serif" font-size="11.00">varchar[2147483647]</text>
<polygon fill="none" stroke="black" points="256,-123 256,-145 443,-145 443,-123 256,-123"/>
<image xlink:href="../../images/foreignKeys.png" width="11px" height="12px" preserveAspectRatio="xMinYMin meet" x="261" y="-140"/>
<text text-anchor="start" x="276" y="-131.2" font-family="Helvetica,sans-Serif" font-size="11.00">generic_object_definition_id</text>
<polygon fill="none" stroke="black" points="443,-123 443,-145 564,-145 564,-123 443,-123"/>
<text text-anchor="start" x="446" y="-131.2" font-family="Helvetica,sans-Serif" font-size="11.00">int8[19]</text>
<polygon fill="none" stroke="black" points="256,-101 256,-123 443,-123 443,-101 256,-101"/>
<text text-anchor="start" x="276" y="-109.2" font-family="Helvetica,sans-Serif" font-size="11.00">created_at</text>
<polygon fill="none" stroke="black" points="443,-101 443,-123 564,-123 564,-101 443,-101"/>
<text text-anchor="start" x="446" y="-109.2" font-family="Helvetica,sans-Serif" font-size="11.00">timestamp[29,6]</text>
<polygon fill="none" stroke="black" points="256,-79 256,-101 443,-101 443,-79 256,-79"/>
<text text-anchor="start" x="276" y="-87.2" font-family="Helvetica,sans-Serif" font-size="11.00">updated_at</text>
<polygon fill="none" stroke="black" points="443,-79 443,-101 564,-101 564,-79 443,-79"/>
<text text-anchor="start" x="446" y="-87.2" font-family="Helvetica,sans-Serif" font-size="11.00">timestamp[29,6]</text>
<polygon fill="none" stroke="black" points="256,-57 256,-79 443,-79 443,-57 256,-57"/>
<text text-anchor="start" x="276" y="-65.2" font-family="Helvetica,sans-Serif" font-size="11.00">properties</text>
<polygon fill="none" stroke="black" points="443,-57 443,-79 564,-79 564,-57 443,-57"/>
<text text-anchor="start" x="446" y="-65.2" font-family="Helvetica,sans-Serif" font-size="11.00">jsonb[2147483647]</text>
<polygon fill="#ffffff" stroke="none" points="256,-39 256,-57 354,-57 354,-39 256,-39"/>
<polygon fill="none" stroke="black" points="256,-39 256,-57 354,-57 354,-39 256,-39"/>
<text text-anchor="start" x="259" y="-45.2" font-family="Helvetica,sans-Serif" font-size="11.00">&lt; 1</text>
<polygon fill="#ffffff" stroke="none" points="354,-39 354,-57 443,-57 443,-39 354,-39"/>
<polygon fill="none" stroke="black" points="354,-39 354,-57 443,-57 443,-39 354,-39"/>
<text text-anchor="start" x="433" y="-45.2" font-family="Helvetica,sans-Serif" font-size="11.00"> &#160;</text>
<polygon fill="#ffffff" stroke="none" points="443,-39 443,-57 564,-57 564,-39 443,-39"/>
<polygon fill="none" stroke="black" points="443,-39 443,-57 564,-57 564,-39 443,-39"/>
<text text-anchor="start" x="544" y="-45.2" font-family="Helvetica,sans-Serif" font-size="11.00">0 &gt;</text>
<polygon fill="none" stroke="black" stroke-width="2" points="255,-38 255,-234 565,-234 565,-38 255,-38"/>
</a>
</g>
</g>
<!-- generic_object_definitions -->
<g id="node2" class="node"><title>generic_object_definitions</title>
<g id="a_node2"><a xlink:href="../../tables/generic_object_definitions.html" xlink:title="generic_object_definitions" target="_top">
<polygon fill="#ffffff" stroke="none" points="8,-87 8,-167 205,-167 205,-87 8,-87"/>
<polygon fill="#f5f5f5" stroke="none" points="8.5,-145 8.5,-167 205.5,-167 205.5,-145 8.5,-145"/>
<polygon fill="none" stroke="black" points="8.5,-145 8.5,-167 205.5,-167 205.5,-145 8.5,-145"/>
<text text-anchor="start" x="13.5" y="-154.2" font-family="Helvetica,sans-Serif" font-weight="bold" font-size="11.00">generic_object_definitions</text>
<text text-anchor="start" x="166.5" y="-153.2" font-family="Helvetica,sans-Serif" font-size="11.00">[table]</text>
<polygon fill="none" stroke="black" points="8.5,-123 8.5,-145 205.5,-145 205.5,-123 8.5,-123"/>
<image xlink:href="../../images/primaryKeys.png" width="11px" height="12px" preserveAspectRatio="xMinYMin meet" x="13.5" y="-140"/>
<text text-anchor="start" x="39.5" y="-131.2" font-family="Helvetica,sans-Serif" font-size="11.00">id</text>
<polygon fill="none" stroke="black" points="8.5,-105 8.5,-123 205.5,-123 205.5,-105 8.5,-105"/>
<text text-anchor="start" x="11.5" y="-111.2" font-family="Helvetica,sans-Serif" font-size="11.00">...</text>
<polygon fill="#ffffff" stroke="none" points="8.5,-87 8.5,-105 95.5,-105 95.5,-87 8.5,-87"/>
<polygon fill="none" stroke="black" points="8.5,-87 8.5,-105 95.5,-105 95.5,-87 8.5,-87"/>
<text text-anchor="start" x="11.5" y="-93.2" font-family="Helvetica,sans-Serif" font-size="11.00"> &#160;</text>
<polygon fill="#ffffff" stroke="none" points="95.5,-87 95.5,-105 145.5,-105 145.5,-87 95.5,-87"/>
<polygon fill="none" stroke="black" points="95.5,-87 95.5,-105 145.5,-105 145.5,-87 95.5,-87"/>
<text text-anchor="start" x="135.5" y="-93.2" font-family="Helvetica,sans-Serif" font-size="11.00"> &#160;</text>
<polygon fill="#ffffff" stroke="none" points="145.5,-87 145.5,-105 205.5,-105 205.5,-87 145.5,-87"/>
<polygon fill="none" stroke="black" points="145.5,-87 145.5,-105 205.5,-105 205.5,-87 145.5,-87"/>
<text text-anchor="start" x="185.5" y="-93.2" font-family="Helvetica,sans-Serif" font-size="11.00">1 &gt;</text>
</a>
</g>
</g>
<!-- generic_objects&#45;&gt;generic_object_definitions -->
<g id="edge1" class="edge"><title>generic_objects:generic_object_definition_id:w&#45;&gt;generic_object_definitions:id:e</title>
<path fill="none" stroke="black" d="M240.283,-134C229.289,-134 222.161,-134 206.5,-134"/>
<polygon fill="black" stroke="black" points="247,-134 255,-137.6 251,-134 255,-134 255,-134 255,-134 251,-134 255,-130.4 247,-134 247,-134"/>
<ellipse fill="none" stroke="black" cx="243.8" cy="-134" rx="3.2" ry="3.2"/>
</g>
</g>
</svg>
