<?xml version="1.0" encoding="UTF-8" standalone="no"?>
<!DOCTYPE svg PUBLIC "-//W3C//DTD SVG 1.1//EN"
 "http://www.w3.org/Graphics/SVG/1.1/DTD/svg11.dtd">
<!-- Generated by graphviz version 2.38.0 (20140413.2041)
 -->
<!-- Title: twoDegreesRelationshipsDiagram Pages: 1 -->
<svg width="646pt" height="449pt"
 viewBox="0.00 0.00 646.00 449.00" xmlns="http://www.w3.org/2000/svg" xmlns:xlink="http://www.w3.org/1999/xlink">
<g id="graph0" class="graph" transform="scale(1 1) rotate(0) translate(4 445)">
<title>twoDegreesRelationshipsDiagram</title>
<polygon fill="#ffffff" stroke="none" points="-4,4 -4,-445 642,-445 642,4 -4,4"/>
<text text-anchor="middle" x="74.5" y="-7.2" font-family="Helvetica,sans-Serif" font-size="11.00">Generated by SchemaSpy</text>
<!-- configuration_script_sources -->
<g id="node1" class="node"><title>configuration_script_sources</title>
<g id="a_node1"><a xlink:href="../../tables/configuration_script_sources.html" xlink:title="configuration_script_sources" target="_top">
<polygon fill="#ffffff" stroke="none" points="401,-379 401,-437 611,-437 611,-379 401,-379"/>
<polygon fill="#f5f5f5" stroke="none" points="401,-415 401,-437 611,-437 611,-415 401,-415"/>
<polygon fill="none" stroke="black" points="401,-415 401,-437 611,-437 611,-415 401,-415"/>
<text text-anchor="start" x="406" y="-424.2" font-family="Helvetica,sans-Serif" font-weight="bold" font-size="11.00">configuration_script_sources</text>
<text text-anchor="start" x="572" y="-423.2" font-family="Helvetica,sans-Serif" font-size="11.00">[table]</text>
<polygon fill="none" stroke="black" points="401,-397 401,-415 611,-415 611,-397 401,-397"/>
<text text-anchor="start" x="404" y="-403.2" font-family="Helvetica,sans-Serif" font-size="11.00">...</text>
<polygon fill="#ffffff" stroke="none" points="401,-379 401,-397 499,-397 499,-379 401,-379"/>
<polygon fill="none" stroke="black" points="401,-379 401,-397 499,-397 499,-379 401,-379"/>
<text text-anchor="start" x="404" y="-385.2" font-family="Helvetica,sans-Serif" font-size="11.00">&lt; 2</text>
<polygon fill="#ffffff" stroke="none" points="499,-379 499,-397 550,-397 550,-379 499,-379"/>
<polygon fill="none" stroke="black" points="499,-379 499,-397 550,-397 550,-379 499,-379"/>
<text text-anchor="start" x="540" y="-385.2" font-family="Helvetica,sans-Serif" font-size="11.00"> &#160;</text>
<polygon fill="#ffffff" stroke="none" points="550,-379 550,-397 611,-397 611,-379 550,-379"/>
<polygon fill="none" stroke="black" points="550,-379 550,-397 611,-397 611,-379 550,-379"/>
<text text-anchor="start" x="591" y="-385.2" font-family="Helvetica,sans-Serif" font-size="11.00">1 &gt;</text>
</a>
</g>
</g>
<!-- authentications -->
<g id="node2" class="node"><title>authentications</title>
<g id="a_node2"><a xlink:href="../../tables/authentications.html" xlink:title="authentications" target="_top">
<polygon fill="#ffffff" stroke="none" points="8,-260 8,-318 148,-318 148,-260 8,-260"/>
<polygon fill="#f5f5f5" stroke="none" points="8,-296 8,-318 148,-318 148,-296 8,-296"/>
<polygon fill="none" stroke="black" points="8,-296 8,-318 148,-318 148,-296 8,-296"/>
<text text-anchor="start" x="13" y="-305.2" font-family="Helvetica,sans-Serif" font-weight="bold" font-size="11.00">authentications</text>
<text text-anchor="start" x="109" y="-304.2" font-family="Helvetica,sans-Serif" font-size="11.00">[table]</text>
<polygon fill="none" stroke="black" points="8,-278 8,-296 148,-296 148,-278 8,-278"/>
<text text-anchor="start" x="11" y="-284.2" font-family="Helvetica,sans-Serif" font-size="11.00">...</text>
<polygon fill="#ffffff" stroke="none" points="8,-260 8,-278 71,-278 71,-260 8,-260"/>
<polygon fill="none" stroke="black" points="8,-260 8,-278 71,-278 71,-260 8,-260"/>
<text text-anchor="start" x="11" y="-266.2" font-family="Helvetica,sans-Serif" font-size="11.00">&lt; 2</text>
<polygon fill="#ffffff" stroke="none" points="71,-260 71,-278 104,-278 104,-260 71,-260"/>
<polygon fill="none" stroke="black" points="71,-260 71,-278 104,-278 104,-260 71,-260"/>
<text text-anchor="start" x="94" y="-266.2" font-family="Helvetica,sans-Serif" font-size="11.00"> &#160;</text>
<polygon fill="#ffffff" stroke="none" points="104,-260 104,-278 148,-278 148,-260 104,-260"/>
<polygon fill="none" stroke="black" points="104,-260 104,-278 148,-278 148,-260 104,-260"/>
<text text-anchor="start" x="128" y="-266.2" font-family="Helvetica,sans-Serif" font-size="11.00">5 &gt;</text>
</a>
</g>
</g>
<!-- configuration_script_sources&#45;&gt;authentications -->
<g id="edge1" class="edge"><title>configuration_script_sources:elipses:w&#45;&gt;authentications:elipses:e</title>
<path fill="none" stroke="black" d="M385.395,-405.416C276.006,-396.438 267.394,-287 149,-287"/>
<polygon fill="black" stroke="black" points="392.006,-405.68 399.856,-409.597 396.003,-405.84 400,-406 400,-406 400,-406 396.003,-405.84 400.144,-402.403 392.006,-405.68 392.006,-405.68"/>
<ellipse fill="none" stroke="black" cx="388.809" cy="-405.552" rx="3.2" ry="3.2"/>
</g>
<!-- git_repositories -->
<g id="node3" class="node"><title>git_repositories</title>
<g id="a_node3"><a xlink:href="../../tables/git_repositories.html" xlink:title="git_repositories" target="_top">
<polygon fill="#ffffff" stroke="none" points="197,-161 197,-263 333,-263 333,-161 197,-161"/>
<polygon fill="#f5f5f5" stroke="none" points="197,-241 197,-263 333,-263 333,-241 197,-241"/>
<polygon fill="none" stroke="black" points="197,-241 197,-263 333,-263 333,-241 197,-241"/>
<text text-anchor="start" x="202" y="-250.2" font-family="Helvetica,sans-Serif" font-weight="bold" font-size="11.00">git_repositories</text>
<text text-anchor="start" x="294" y="-249.2" font-family="Helvetica,sans-Serif" font-size="11.00">[table]</text>
<polygon fill="none" stroke="black" points="197,-219 197,-241 333,-241 333,-219 197,-219"/>
<image xlink:href="../../images/primaryKeys.png" width="11px" height="12px" preserveAspectRatio="xMinYMin meet" x="202" y="-236"/>
<text text-anchor="start" x="222" y="-227.2" font-family="Helvetica,sans-Serif" font-size="11.00">id</text>
<polygon fill="none" stroke="black" points="197,-197 197,-219 333,-219 333,-197 197,-197"/>
<image xlink:href="../../images/foreignKeys.png" width="11px" height="12px" preserveAspectRatio="xMinYMin meet" x="202" y="-214"/>
<text text-anchor="start" x="222" y="-205.2" font-family="Helvetica,sans-Serif" font-size="11.00">authentication_id</text>
<polygon fill="none" stroke="black" points="197,-179 197,-197 333,-197 333,-179 197,-179"/>
<text text-anchor="start" x="200" y="-185.2" font-family="Helvetica,sans-Serif" font-size="11.00">...</text>
<polygon fill="#ffffff" stroke="none" points="197,-161 197,-179 258,-179 258,-161 197,-161"/>
<polygon fill="none" stroke="black" points="197,-161 197,-179 258,-179 258,-161 197,-161"/>
<text text-anchor="start" x="200" y="-167.2" font-family="Helvetica,sans-Serif" font-size="11.00">&lt; 1</text>
<polygon fill="#ffffff" stroke="none" points="258,-161 258,-179 290,-179 290,-161 258,-161"/>
<polygon fill="none" stroke="black" points="258,-161 258,-179 290,-179 290,-161 258,-161"/>
<text text-anchor="start" x="280" y="-167.2" font-family="Helvetica,sans-Serif" font-size="11.00"> &#160;</text>
<polygon fill="#ffffff" stroke="none" points="290,-161 290,-179 333,-179 333,-161 290,-161"/>
<polygon fill="none" stroke="black" points="290,-161 290,-179 333,-179 333,-161 290,-161"/>
<text text-anchor="start" x="313" y="-167.2" font-family="Helvetica,sans-Serif" font-size="11.00">3 &gt;</text>
</a>
</g>
</g>
<!-- configuration_script_sources&#45;&gt;git_repositories -->
<g id="edge2" class="edge"><title>configuration_script_sources:elipses:w&#45;&gt;git_repositories:id:e</title>
<path fill="none" stroke="black" d="M385.691,-403.775C329.07,-383.401 411.994,-230 334,-230"/>
<polygon fill="black" stroke="black" points="392.095,-404.771 399.447,-409.557 396.048,-405.385 400,-406 400,-406 400,-406 396.048,-405.385 400.553,-402.443 392.095,-404.771 392.095,-404.771"/>
<ellipse fill="none" stroke="black" cx="388.933" cy="-404.279" rx="3.2" ry="3.2"/>
</g>
<!-- git_repositories&#45;&gt;authentications -->
<g id="edge4" class="edge"><title>git_repositories:authentication_id:w&#45;&gt;authentications:elipses:e</title>
<path fill="none" stroke="black" d="M182.307,-212.705C163.785,-229.712 183.791,-287 149,-287"/>
<polygon fill="black" stroke="black" points="188.434,-210.6 197.17,-211.405 192.217,-209.3 196,-208 196,-208 196,-208 192.217,-209.3 194.83,-204.595 188.434,-210.6 188.434,-210.6"/>
<ellipse fill="none" stroke="black" cx="185.408" cy="-211.64" rx="3.20001" ry="3.20001"/>
</g>
<!-- git_references -->
<g id="node4" class="node"><title>git_references</title>
<g id="a_node4"><a xlink:href="../../tables/git_references.html" xlink:title="git_references" target="_top">
<polygon fill="#ffffff" stroke="none" points="382,-116 382,-358 630,-358 630,-116 382,-116"/>
<polygon fill="#f5f5f5" stroke="none" points="384,-334 384,-356 628,-356 628,-334 384,-334"/>
<polygon fill="none" stroke="black" points="384,-334 384,-356 628,-356 628,-334 384,-334"/>
<text text-anchor="start" x="389" y="-343.2" font-family="Helvetica,sans-Serif" font-weight="bold" font-size="11.00">git_references</text>
<text text-anchor="start" x="589" y="-342.2" font-family="Helvetica,sans-Serif" font-size="11.00">[table]</text>
<polygon fill="none" stroke="black" points="384,-312 384,-334 507,-334 507,-312 384,-312"/>
<image xlink:href="../../images/primaryKeys.png" width="11px" height="12px" preserveAspectRatio="xMinYMin meet" x="389" y="-329"/>
<text text-anchor="start" x="404" y="-320.2" font-family="Helvetica,sans-Serif" font-size="11.00">id</text>
<polygon fill="none" stroke="black" points="507,-312 507,-334 628,-334 628,-312 507,-312"/>
<text text-anchor="start" x="510" y="-320.2" font-family="Helvetica,sans-Serif" font-size="11.00">bigserial[19]</text>
<polygon fill="none" stroke="black" points="384,-290 384,-312 507,-312 507,-290 384,-290"/>
<text text-anchor="start" x="404" y="-298.2" font-family="Helvetica,sans-Serif" font-size="11.00">name</text>
<polygon fill="none" stroke="black" points="507,-290 507,-312 628,-312 628,-290 507,-290"/>
<text text-anchor="start" x="510" y="-298.2" font-family="Helvetica,sans-Serif" font-size="11.00">varchar[2147483647]</text>
<polygon fill="none" stroke="black" points="384,-268 384,-290 507,-290 507,-268 384,-268"/>
<text text-anchor="start" x="404" y="-276.2" font-family="Helvetica,sans-Serif" font-size="11.00">commit_sha</text>
<polygon fill="none" stroke="black" points="507,-268 507,-290 628,-290 628,-268 507,-268"/>
<text text-anchor="start" x="510" y="-276.2" font-family="Helvetica,sans-Serif" font-size="11.00">varchar[2147483647]</text>
<polygon fill="none" stroke="black" points="384,-246 384,-268 507,-268 507,-246 384,-246"/>
<text text-anchor="start" x="404" y="-254.2" font-family="Helvetica,sans-Serif" font-size="11.00">commit_time</text>
<polygon fill="none" stroke="black" points="507,-246 507,-268 628,-268 628,-246 507,-246"/>
<text text-anchor="start" x="510" y="-254.2" font-family="Helvetica,sans-Serif" font-size="11.00">timestamp[29,6]</text>
<polygon fill="none" stroke="black" points="384,-224 384,-246 507,-246 507,-224 384,-224"/>
<text text-anchor="start" x="404" y="-232.2" font-family="Helvetica,sans-Serif" font-size="11.00">commit_message</text>
<polygon fill="none" stroke="black" points="507,-224 507,-246 628,-246 628,-224 507,-224"/>
<text text-anchor="start" x="510" y="-232.2" font-family="Helvetica,sans-Serif" font-size="11.00">text[2147483647]</text>
<polygon fill="#ffffff" stroke="none" points="384,-202 384,-224 507,-224 507,-202 384,-202"/>
<polygon fill="none" stroke="black" points="384,-202 384,-224 507,-224 507,-202 384,-202"/>
<text text-anchor="start" x="404" y="-210.2" font-family="Helvetica,sans-Serif" font-size="11.00">type</text>
<polygon fill="none" stroke="black" points="507,-202 507,-224 628,-224 628,-202 507,-202"/>
<text text-anchor="start" x="510" y="-210.2" font-family="Helvetica,sans-Serif" font-size="11.00">varchar[2147483647]</text>
<polygon fill="none" stroke="black" points="384,-180 384,-202 507,-202 507,-180 384,-180"/>
<image xlink:href="../../images/foreignKeys.png" width="11px" height="12px" preserveAspectRatio="xMinYMin meet" x="389" y="-197"/>
<text text-anchor="start" x="404" y="-188.2" font-family="Helvetica,sans-Serif" font-size="11.00">git_repository_id</text>
<polygon fill="none" stroke="black" points="507,-180 507,-202 628,-202 628,-180 507,-180"/>
<text text-anchor="start" x="510" y="-188.2" font-family="Helvetica,sans-Serif" font-size="11.00">int8[19]</text>
<polygon fill="none" stroke="black" points="384,-158 384,-180 507,-180 507,-158 384,-158"/>
<text text-anchor="start" x="404" y="-166.2" font-family="Helvetica,sans-Serif" font-size="11.00">created_at</text>
<polygon fill="none" stroke="black" points="507,-158 507,-180 628,-180 628,-158 507,-158"/>
<text text-anchor="start" x="510" y="-166.2" font-family="Helvetica,sans-Serif" font-size="11.00">timestamp[29,6]</text>
<polygon fill="none" stroke="black" points="384,-136 384,-158 507,-158 507,-136 384,-136"/>
<text text-anchor="start" x="404" y="-144.2" font-family="Helvetica,sans-Serif" font-size="11.00">updated_at</text>
<polygon fill="none" stroke="black" points="507,-136 507,-158 628,-158 628,-136 507,-136"/>
<text text-anchor="start" x="510" y="-144.2" font-family="Helvetica,sans-Serif" font-size="11.00">timestamp[29,6]</text>
<polygon fill="#ffffff" stroke="none" points="384,-118 384,-136 450,-136 450,-118 384,-118"/>
<polygon fill="none" stroke="black" points="384,-118 384,-136 450,-136 450,-118 384,-118"/>
<text text-anchor="start" x="387" y="-124.2" font-family="Helvetica,sans-Serif" font-size="11.00">&lt; 1</text>
<polygon fill="#ffffff" stroke="none" points="450,-118 450,-136 507,-136 507,-118 450,-118"/>
<polygon fill="none" stroke="black" points="450,-118 450,-136 507,-136 507,-118 450,-118"/>
<text text-anchor="start" x="497" y="-124.2" font-family="Helvetica,sans-Serif" font-size="11.00"> &#160;</text>
<polygon fill="#ffffff" stroke="none" points="507,-118 507,-136 628,-136 628,-118 507,-118"/>
<polygon fill="none" stroke="black" points="507,-118 507,-136 628,-136 628,-118 507,-118"/>
<text text-anchor="start" x="608" y="-124.2" font-family="Helvetica,sans-Serif" font-size="11.00">0 &gt;</text>
<polygon fill="none" stroke="black" stroke-width="2" points="383,-117 383,-357 629,-357 629,-117 383,-117"/>
</a>
</g>
</g>
<!-- git_references&#45;&gt;git_repositories -->
<g id="edge3" class="edge"><title>git_references:git_repository_id:w&#45;&gt;git_repositories:id:e</title>
<path fill="none" stroke="black" d="M368.965,-195.782C356.432,-206.196 355.745,-230 334,-230"/>
<polygon fill="black" stroke="black" points="375.427,-193.58 384.161,-194.408 379.214,-192.29 383,-191 383,-191 383,-191 379.214,-192.29 381.839,-187.592 375.427,-193.58 375.427,-193.58"/>
<ellipse fill="none" stroke="black" cx="372.398" cy="-194.612" rx="3.20001" ry="3.20001"/>
</g>
<!-- miq_ae_namespaces -->
<g id="node5" class="node"><title>miq_ae_namespaces</title>
<g id="a_node5"><a xlink:href="../../tables/miq_ae_namespaces.html" xlink:title="miq_ae_namespaces" target="_top">
<polygon fill="#ffffff" stroke="none" points="424.5,-37 424.5,-95 587.5,-95 587.5,-37 424.5,-37"/>
<polygon fill="#f5f5f5" stroke="none" points="425,-73 425,-95 588,-95 588,-73 425,-73"/>
<polygon fill="none" stroke="black" points="425,-73 425,-95 588,-95 588,-73 425,-73"/>
<text text-anchor="start" x="430" y="-82.2" font-family="Helvetica,sans-Serif" font-weight="bold" font-size="11.00">miq_ae_namespaces</text>
<text text-anchor="start" x="549" y="-81.2" font-family="Helvetica,sans-Serif" font-size="11.00">[table]</text>
<polygon fill="none" stroke="black" points="425,-55 425,-73 588,-73 588,-55 425,-55"/>
<text text-anchor="start" x="428" y="-61.2" font-family="Helvetica,sans-Serif" font-size="11.00">...</text>
<polygon fill="#ffffff" stroke="none" points="425,-37 425,-55 505,-55 505,-37 425,-37"/>
<polygon fill="none" stroke="black" points="425,-37 425,-55 505,-55 505,-37 425,-37"/>
<text text-anchor="start" x="428" y="-43.2" font-family="Helvetica,sans-Serif" font-size="11.00">&lt; 2</text>
<polygon fill="#ffffff" stroke="none" points="505,-37 505,-55 546,-55 546,-37 505,-37"/>
<polygon fill="none" stroke="black" points="505,-37 505,-55 546,-55 546,-37 505,-37"/>
<text text-anchor="start" x="536" y="-43.2" font-family="Helvetica,sans-Serif" font-size="11.00"> &#160;</text>
<polygon fill="#ffffff" stroke="none" points="546,-37 546,-55 588,-55 588,-37 546,-37"/>
<polygon fill="none" stroke="black" points="546,-37 546,-55 588,-55 588,-37 546,-37"/>
<text text-anchor="start" x="578" y="-43.2" font-family="Helvetica,sans-Serif" font-size="11.00"> &#160;</text>
</a>
</g>
</g>
<!-- miq_ae_namespaces&#45;&gt;git_repositories -->
<g id="edge5" class="edge"><title>miq_ae_namespaces:elipses:w&#45;&gt;git_repositories:id:e</title>
<path fill="none" stroke="black" d="M409.503,-65.963C392.675,-71.2345 387.034,-86.6218 374,-106 341.682,-154.05 391.908,-230 334,-230"/>
<polygon fill="black" stroke="black" points="416.072,-65.0735 424.483,-67.5674 420.036,-64.5368 424,-64 424,-64 424,-64 420.036,-64.5368 423.517,-60.4326 416.072,-65.0735 416.072,-65.0735"/>
<ellipse fill="none" stroke="black" cx="412.901" cy="-65.503" rx="3.2" ry="3.2"/>
</g>
</g>
</svg>
