<?xml version="1.0" encoding="UTF-8" standalone="no"?>
<!DOCTYPE svg PUBLIC "-//W3C//DTD SVG 1.1//EN"
 "http://www.w3.org/Graphics/SVG/1.1/DTD/svg11.dtd">
<!-- Generated by graphviz version 2.38.0 (20140413.2041)
 -->
<!-- Title: oneDegreeRelationshipsDiagram Pages: 1 -->
<svg width="457pt" height="291pt"
 viewBox="0.00 0.00 457.00 291.00" xmlns="http://www.w3.org/2000/svg" xmlns:xlink="http://www.w3.org/1999/xlink">
<g id="graph0" class="graph" transform="scale(1 1) rotate(0) translate(4 287)">
<title>oneDegreeRelationshipsDiagram</title>
<polygon fill="#ffffff" stroke="none" points="-4,4 -4,-287 453,-287 453,4 -4,4"/>
<text text-anchor="middle" x="74.5" y="-7.2" font-family="Helvetica,sans-Serif" font-size="11.00">Generated by SchemaSpy</text>
<!-- git_references -->
<g id="node1" class="node"><title>git_references</title>
<g id="a_node1"><a xlink:href="../../tables/git_references.html" xlink:title="git_references" target="_top">
<polygon fill="#ffffff" stroke="none" points="193,-37 193,-279 441,-279 441,-37 193,-37"/>
<polygon fill="#f5f5f5" stroke="none" points="195,-255 195,-277 439,-277 439,-255 195,-255"/>
<polygon fill="none" stroke="black" points="195,-255 195,-277 439,-277 439,-255 195,-255"/>
<text text-anchor="start" x="200" y="-264.2" font-family="Helvetica,sans-Serif" font-weight="bold" font-size="11.00">git_references</text>
<text text-anchor="start" x="400" y="-263.2" font-family="Helvetica,sans-Serif" font-size="11.00">[table]</text>
<polygon fill="none" stroke="black" points="195,-233 195,-255 318,-255 318,-233 195,-233"/>
<image xlink:href="../../images/primaryKeys.png" width="11px" height="12px" preserveAspectRatio="xMinYMin meet" x="200" y="-250"/>
<text text-anchor="start" x="215" y="-241.2" font-family="Helvetica,sans-Serif" font-size="11.00">id</text>
<polygon fill="none" stroke="black" points="318,-233 318,-255 439,-255 439,-233 318,-233"/>
<text text-anchor="start" x="321" y="-241.2" font-family="Helvetica,sans-Serif" font-size="11.00">bigserial[19]</text>
<polygon fill="none" stroke="black" points="195,-211 195,-233 318,-233 318,-211 195,-211"/>
<text text-anchor="start" x="215" y="-219.2" font-family="Helvetica,sans-Serif" font-size="11.00">name</text>
<polygon fill="none" stroke="black" points="318,-211 318,-233 439,-233 439,-211 318,-211"/>
<text text-anchor="start" x="321" y="-219.2" font-family="Helvetica,sans-Serif" font-size="11.00">varchar[2147483647]</text>
<polygon fill="none" stroke="black" points="195,-189 195,-211 318,-211 318,-189 195,-189"/>
<text text-anchor="start" x="215" y="-197.2" font-family="Helvetica,sans-Serif" font-size="11.00">commit_sha</text>
<polygon fill="none" stroke="black" points="318,-189 318,-211 439,-211 439,-189 318,-189"/>
<text text-anchor="start" x="321" y="-197.2" font-family="Helvetica,sans-Serif" font-size="11.00">varchar[2147483647]</text>
<polygon fill="none" stroke="black" points="195,-167 195,-189 318,-189 318,-167 195,-167"/>
<text text-anchor="start" x="215" y="-175.2" font-family="Helvetica,sans-Serif" font-size="11.00">commit_time</text>
<polygon fill="none" stroke="black" points="318,-167 318,-189 439,-189 439,-167 318,-167"/>
<text text-anchor="start" x="321" y="-175.2" font-family="Helvetica,sans-Serif" font-size="11.00">timestamp[29,6]</text>
<polygon fill="none" stroke="black" points="195,-145 195,-167 318,-167 318,-145 195,-145"/>
<text text-anchor="start" x="215" y="-153.2" font-family="Helvetica,sans-Serif" font-size="11.00">commit_message</text>
<polygon fill="none" stroke="black" points="318,-145 318,-167 439,-167 439,-145 318,-145"/>
<text text-anchor="start" x="321" y="-153.2" font-family="Helvetica,sans-Serif" font-size="11.00">text[2147483647]</text>
<polygon fill="#ffffff" stroke="none" points="195,-123 195,-145 318,-145 318,-123 195,-123"/>
<polygon fill="none" stroke="black" points="195,-123 195,-145 318,-145 318,-123 195,-123"/>
<text text-anchor="start" x="215" y="-131.2" font-family="Helvetica,sans-Serif" font-size="11.00">type</text>
<polygon fill="none" stroke="black" points="318,-123 318,-145 439,-145 439,-123 318,-123"/>
<text text-anchor="start" x="321" y="-131.2" font-family="Helvetica,sans-Serif" font-size="11.00">varchar[2147483647]</text>
<polygon fill="none" stroke="black" points="195,-101 195,-123 318,-123 318,-101 195,-101"/>
<image xlink:href="../../images/foreignKeys.png" width="11px" height="12px" preserveAspectRatio="xMinYMin meet" x="200" y="-118"/>
<text text-anchor="start" x="215" y="-109.2" font-family="Helvetica,sans-Serif" font-size="11.00">git_repository_id</text>
<polygon fill="none" stroke="black" points="318,-101 318,-123 439,-123 439,-101 318,-101"/>
<text text-anchor="start" x="321" y="-109.2" font-family="Helvetica,sans-Serif" font-size="11.00">int8[19]</text>
<polygon fill="none" stroke="black" points="195,-79 195,-101 318,-101 318,-79 195,-79"/>
<text text-anchor="start" x="215" y="-87.2" font-family="Helvetica,sans-Serif" font-size="11.00">created_at</text>
<polygon fill="none" stroke="black" points="318,-79 318,-101 439,-101 439,-79 318,-79"/>
<text text-anchor="start" x="321" y="-87.2" font-family="Helvetica,sans-Serif" font-size="11.00">timestamp[29,6]</text>
<polygon fill="none" stroke="black" points="195,-57 195,-79 318,-79 318,-57 195,-57"/>
<text text-anchor="start" x="215" y="-65.2" font-family="Helvetica,sans-Serif" font-size="11.00">updated_at</text>
<polygon fill="none" stroke="black" points="318,-57 318,-79 439,-79 439,-57 318,-57"/>
<text text-anchor="start" x="321" y="-65.2" font-family="Helvetica,sans-Serif" font-size="11.00">timestamp[29,6]</text>
<polygon fill="#ffffff" stroke="none" points="195,-39 195,-57 261,-57 261,-39 195,-39"/>
<polygon fill="none" stroke="black" points="195,-39 195,-57 261,-57 261,-39 195,-39"/>
<text text-anchor="start" x="198" y="-45.2" font-family="Helvetica,sans-Serif" font-size="11.00">&lt; 1</text>
<polygon fill="#ffffff" stroke="none" points="261,-39 261,-57 318,-57 318,-39 261,-39"/>
<polygon fill="none" stroke="black" points="261,-39 261,-57 318,-57 318,-39 261,-39"/>
<text text-anchor="start" x="308" y="-45.2" font-family="Helvetica,sans-Serif" font-size="11.00"> &#160;</text>
<polygon fill="#ffffff" stroke="none" points="318,-39 318,-57 439,-57 439,-39 318,-39"/>
<polygon fill="none" stroke="black" points="318,-39 318,-57 439,-57 439,-39 318,-39"/>
<text text-anchor="start" x="419" y="-45.2" font-family="Helvetica,sans-Serif" font-size="11.00">0 &gt;</text>
<polygon fill="none" stroke="black" stroke-width="2" points="194,-38 194,-278 440,-278 440,-38 194,-38"/>
</a>
</g>
</g>
<!-- git_repositories -->
<g id="node2" class="node"><title>git_repositories</title>
<g id="a_node2"><a xlink:href="../../tables/git_repositories.html" xlink:title="git_repositories" target="_top">
<polygon fill="#ffffff" stroke="none" points="8,-43 8,-145 144,-145 144,-43 8,-43"/>
<polygon fill="#f5f5f5" stroke="none" points="8,-123 8,-145 144,-145 144,-123 8,-123"/>
<polygon fill="none" stroke="black" points="8,-123 8,-145 144,-145 144,-123 8,-123"/>
<text text-anchor="start" x="13" y="-132.2" font-family="Helvetica,sans-Serif" font-weight="bold" font-size="11.00">git_repositories</text>
<text text-anchor="start" x="105" y="-131.2" font-family="Helvetica,sans-Serif" font-size="11.00">[table]</text>
<polygon fill="none" stroke="black" points="8,-101 8,-123 144,-123 144,-101 8,-101"/>
<image xlink:href="../../images/primaryKeys.png" width="11px" height="12px" preserveAspectRatio="xMinYMin meet" x="13" y="-118"/>
<text text-anchor="start" x="33" y="-109.2" font-family="Helvetica,sans-Serif" font-size="11.00">id</text>
<polygon fill="none" stroke="black" points="8,-79 8,-101 144,-101 144,-79 8,-79"/>
<image xlink:href="../../images/foreignKeys.png" width="11px" height="12px" preserveAspectRatio="xMinYMin meet" x="13" y="-96"/>
<text text-anchor="start" x="33" y="-87.2" font-family="Helvetica,sans-Serif" font-size="11.00">authentication_id</text>
<polygon fill="none" stroke="black" points="8,-61 8,-79 144,-79 144,-61 8,-61"/>
<text text-anchor="start" x="11" y="-67.2" font-family="Helvetica,sans-Serif" font-size="11.00">...</text>
<polygon fill="#ffffff" stroke="none" points="8,-43 8,-61 69,-61 69,-43 8,-43"/>
<polygon fill="none" stroke="black" points="8,-43 8,-61 69,-61 69,-43 8,-43"/>
<text text-anchor="start" x="11" y="-49.2" font-family="Helvetica,sans-Serif" font-size="11.00">&lt; 1</text>
<polygon fill="#ffffff" stroke="none" points="69,-43 69,-61 101,-61 101,-43 69,-43"/>
<polygon fill="none" stroke="black" points="69,-43 69,-61 101,-61 101,-43 69,-43"/>
<text text-anchor="start" x="91" y="-49.2" font-family="Helvetica,sans-Serif" font-size="11.00"> &#160;</text>
<polygon fill="#ffffff" stroke="none" points="101,-43 101,-61 144,-61 144,-43 101,-43"/>
<polygon fill="none" stroke="black" points="101,-43 101,-61 144,-61 144,-43 101,-43"/>
<text text-anchor="start" x="124" y="-49.2" font-family="Helvetica,sans-Serif" font-size="11.00">3 &gt;</text>
</a>
</g>
</g>
<!-- git_references&#45;&gt;git_repositories -->
<g id="edge1" class="edge"><title>git_references:git_repository_id:w&#45;&gt;git_repositories:id:e</title>
<path fill="none" stroke="black" d="M179.491,-112C168.177,-112 160.993,-112 145,-112"/>
<polygon fill="black" stroke="black" points="186,-112 194,-115.6 190,-112 194,-112 194,-112 194,-112 190,-112 194,-108.4 186,-112 186,-112"/>
<ellipse fill="none" stroke="black" cx="182.8" cy="-112" rx="3.2" ry="3.2"/>
</g>
</g>
</svg>
