<?xml version="1.0" encoding="UTF-8" standalone="no"?>
<!DOCTYPE svg PUBLIC "-//W3C//DTD SVG 1.1//EN"
 "http://www.w3.org/Graphics/SVG/1.1/DTD/svg11.dtd">
<!-- Generated by graphviz version 2.38.0 (20140413.2041)
 -->
<!-- Title: oneDegreeRelationshipsDiagram Pages: 1 -->
<svg width="967pt" height="937pt"
 viewBox="0.00 0.00 967.00 936.70" xmlns="http://www.w3.org/2000/svg" xmlns:xlink="http://www.w3.org/1999/xlink">
<g id="graph0" class="graph" transform="scale(1 1) rotate(0) translate(4 932.702)">
<title>oneDegreeRelationshipsDiagram</title>
<polygon fill="#ffffff" stroke="none" points="-4,4 -4,-932.702 963,-932.702 963,4 -4,4"/>
<text text-anchor="middle" x="74.5" y="-7.2" font-family="Helvetica,sans-Serif" font-size="11.00">Generated by SchemaSpy</text>
<!-- firmwares -->
<g id="node1" class="node"><title>firmwares</title>
<g id="a_node1"><a xlink:href="../../tables/firmwares.html" xlink:title="firmwares" target="_top">
<polygon fill="#ffffff" stroke="none" points="803,-778.702 803,-924.702 916,-924.702 916,-778.702 803,-778.702"/>
<polygon fill="#f5f5f5" stroke="none" points="803.5,-902.702 803.5,-924.702 916.5,-924.702 916.5,-902.702 803.5,-902.702"/>
<polygon fill="none" stroke="black" points="803.5,-902.702 803.5,-924.702 916.5,-924.702 916.5,-902.702 803.5,-902.702"/>
<text text-anchor="start" x="808.5" y="-911.902" font-family="Helvetica,sans-Serif" font-weight="bold" font-size="11.00">firmwares</text>
<text text-anchor="start" x="877.5" y="-910.902" font-family="Helvetica,sans-Serif" font-size="11.00">[table]</text>
<polygon fill="none" stroke="black" points="803.5,-880.702 803.5,-902.702 916.5,-902.702 916.5,-880.702 803.5,-880.702"/>
<image xlink:href="../../images/primaryKeys.png" width="11px" height="12px" preserveAspectRatio="xMinYMin meet" x="808.5" y="-897.702"/>
<text text-anchor="start" x="823.5" y="-888.902" font-family="Helvetica,sans-Serif" font-size="11.00">id</text>
<polygon fill="#ffffff" stroke="none" points="803.5,-858.702 803.5,-880.702 916.5,-880.702 916.5,-858.702 803.5,-858.702"/>
<polygon fill="none" stroke="black" points="803.5,-858.702 803.5,-880.702 916.5,-880.702 916.5,-858.702 803.5,-858.702"/>
<text text-anchor="start" x="823.5" y="-866.902" font-family="Helvetica,sans-Serif" font-size="11.00">resource_id</text>
<polygon fill="#ffffff" stroke="none" points="803.5,-836.702 803.5,-858.702 916.5,-858.702 916.5,-836.702 803.5,-836.702"/>
<polygon fill="none" stroke="black" points="803.5,-836.702 803.5,-858.702 916.5,-858.702 916.5,-836.702 803.5,-836.702"/>
<text text-anchor="start" x="823.5" y="-844.902" font-family="Helvetica,sans-Serif" font-size="11.00">resource_type</text>
<polygon fill="#ffffff" stroke="none" points="803.5,-814.702 803.5,-836.702 916.5,-836.702 916.5,-814.702 803.5,-814.702"/>
<polygon fill="none" stroke="black" points="803.5,-814.702 803.5,-836.702 916.5,-836.702 916.5,-814.702 803.5,-814.702"/>
<image xlink:href="../../images/foreignKeys.png" width="11px" height="12px" preserveAspectRatio="xMinYMin meet" x="808.5" y="-831.702"/>
<text text-anchor="start" x="823.5" y="-822.902" font-family="Helvetica,sans-Serif" font-size="11.00">guest_device_id</text>
<polygon fill="none" stroke="black" points="803.5,-796.702 803.5,-814.702 916.5,-814.702 916.5,-796.702 803.5,-796.702"/>
<text text-anchor="start" x="806.5" y="-802.902" font-family="Helvetica,sans-Serif" font-size="11.00">...</text>
<polygon fill="#ffffff" stroke="none" points="803.5,-778.702 803.5,-796.702 858.5,-796.702 858.5,-778.702 803.5,-778.702"/>
<polygon fill="none" stroke="black" points="803.5,-778.702 803.5,-796.702 858.5,-796.702 858.5,-778.702 803.5,-778.702"/>
<text text-anchor="start" x="806.5" y="-784.902" font-family="Helvetica,sans-Serif" font-size="11.00">&lt; 1</text>
<polygon fill="#ffffff" stroke="none" points="858.5,-778.702 858.5,-796.702 887.5,-796.702 887.5,-778.702 858.5,-778.702"/>
<polygon fill="none" stroke="black" points="858.5,-778.702 858.5,-796.702 887.5,-796.702 887.5,-778.702 858.5,-778.702"/>
<text text-anchor="start" x="877.5" y="-784.902" font-family="Helvetica,sans-Serif" font-size="11.00"> &#160;</text>
<polygon fill="#ffffff" stroke="none" points="887.5,-778.702 887.5,-796.702 916.5,-796.702 916.5,-778.702 887.5,-778.702"/>
<polygon fill="none" stroke="black" points="887.5,-778.702 887.5,-796.702 916.5,-796.702 916.5,-778.702 887.5,-778.702"/>
<text text-anchor="start" x="906.5" y="-784.902" font-family="Helvetica,sans-Serif" font-size="11.00"> &#160;</text>
</a>
</g>
</g>
<!-- guest_devices -->
<g id="node2" class="node"><title>guest_devices</title>
<g id="a_node2"><a xlink:href="../../tables/guest_devices.html" xlink:title="guest_devices" target="_top">
<polygon fill="#ffffff" stroke="none" points="442,-94.7018 442,-798.702 719,-798.702 719,-94.7018 442,-94.7018"/>
<polygon fill="#f5f5f5" stroke="none" points="444.5,-774.702 444.5,-796.702 717.5,-796.702 717.5,-774.702 444.5,-774.702"/>
<polygon fill="none" stroke="black" points="444.5,-774.702 444.5,-796.702 717.5,-796.702 717.5,-774.702 444.5,-774.702"/>
<text text-anchor="start" x="449.5" y="-783.902" font-family="Helvetica,sans-Serif" font-weight="bold" font-size="11.00">guest_devices</text>
<text text-anchor="start" x="678.5" y="-782.902" font-family="Helvetica,sans-Serif" font-size="11.00">[table]</text>
<polygon fill="none" stroke="black" points="444.5,-752.702 444.5,-774.702 596.5,-774.702 596.5,-752.702 444.5,-752.702"/>
<image xlink:href="../../images/primaryKeys.png" width="11px" height="12px" preserveAspectRatio="xMinYMin meet" x="449.5" y="-769.702"/>
<text text-anchor="start" x="464.5" y="-760.902" font-family="Helvetica,sans-Serif" font-size="11.00">id</text>
<polygon fill="none" stroke="black" points="596.5,-752.702 596.5,-774.702 717.5,-774.702 717.5,-752.702 596.5,-752.702"/>
<text text-anchor="start" x="599.5" y="-760.902" font-family="Helvetica,sans-Serif" font-size="11.00">bigserial[19]</text>
<polygon fill="#ffffff" stroke="none" points="444.5,-730.702 444.5,-752.702 596.5,-752.702 596.5,-730.702 444.5,-730.702"/>
<polygon fill="none" stroke="black" points="444.5,-730.702 444.5,-752.702 596.5,-752.702 596.5,-730.702 444.5,-730.702"/>
<text text-anchor="start" x="464.5" y="-738.902" font-family="Helvetica,sans-Serif" font-size="11.00">device_name</text>
<polygon fill="none" stroke="black" points="596.5,-730.702 596.5,-752.702 717.5,-752.702 717.5,-730.702 596.5,-730.702"/>
<text text-anchor="start" x="599.5" y="-738.902" font-family="Helvetica,sans-Serif" font-size="11.00">varchar[2147483647]</text>
<polygon fill="#ffffff" stroke="none" points="444.5,-708.702 444.5,-730.702 596.5,-730.702 596.5,-708.702 444.5,-708.702"/>
<polygon fill="none" stroke="black" points="444.5,-708.702 444.5,-730.702 596.5,-730.702 596.5,-708.702 444.5,-708.702"/>
<text text-anchor="start" x="464.5" y="-716.902" font-family="Helvetica,sans-Serif" font-size="11.00">device_type</text>
<polygon fill="none" stroke="black" points="596.5,-708.702 596.5,-730.702 717.5,-730.702 717.5,-708.702 596.5,-708.702"/>
<text text-anchor="start" x="599.5" y="-716.902" font-family="Helvetica,sans-Serif" font-size="11.00">varchar[2147483647]</text>
<polygon fill="none" stroke="black" points="444.5,-686.702 444.5,-708.702 596.5,-708.702 596.5,-686.702 444.5,-686.702"/>
<text text-anchor="start" x="464.5" y="-694.902" font-family="Helvetica,sans-Serif" font-size="11.00">location</text>
<polygon fill="none" stroke="black" points="596.5,-686.702 596.5,-708.702 717.5,-708.702 717.5,-686.702 596.5,-686.702"/>
<text text-anchor="start" x="599.5" y="-694.902" font-family="Helvetica,sans-Serif" font-size="11.00">varchar[2147483647]</text>
<polygon fill="none" stroke="black" points="444.5,-664.702 444.5,-686.702 596.5,-686.702 596.5,-664.702 444.5,-664.702"/>
<text text-anchor="start" x="464.5" y="-672.902" font-family="Helvetica,sans-Serif" font-size="11.00">filename</text>
<polygon fill="none" stroke="black" points="596.5,-664.702 596.5,-686.702 717.5,-686.702 717.5,-664.702 596.5,-664.702"/>
<text text-anchor="start" x="599.5" y="-672.902" font-family="Helvetica,sans-Serif" font-size="11.00">varchar[2147483647]</text>
<polygon fill="#ffffff" stroke="none" points="444.5,-642.702 444.5,-664.702 596.5,-664.702 596.5,-642.702 444.5,-642.702"/>
<polygon fill="none" stroke="black" points="444.5,-642.702 444.5,-664.702 596.5,-664.702 596.5,-642.702 444.5,-642.702"/>
<image xlink:href="../../images/foreignKeys.png" width="11px" height="12px" preserveAspectRatio="xMinYMin meet" x="449.5" y="-659.702"/>
<text text-anchor="start" x="464.5" y="-650.902" font-family="Helvetica,sans-Serif" font-size="11.00">hardware_id</text>
<polygon fill="none" stroke="black" points="596.5,-642.702 596.5,-664.702 717.5,-664.702 717.5,-642.702 596.5,-642.702"/>
<text text-anchor="start" x="599.5" y="-650.902" font-family="Helvetica,sans-Serif" font-size="11.00">int8[19]</text>
<polygon fill="none" stroke="black" points="444.5,-620.702 444.5,-642.702 596.5,-642.702 596.5,-620.702 444.5,-620.702"/>
<text text-anchor="start" x="464.5" y="-628.902" font-family="Helvetica,sans-Serif" font-size="11.00">mode</text>
<polygon fill="none" stroke="black" points="596.5,-620.702 596.5,-642.702 717.5,-642.702 717.5,-620.702 596.5,-620.702"/>
<text text-anchor="start" x="599.5" y="-628.902" font-family="Helvetica,sans-Serif" font-size="11.00">varchar[2147483647]</text>
<polygon fill="none" stroke="black" points="444.5,-598.702 444.5,-620.702 596.5,-620.702 596.5,-598.702 444.5,-598.702"/>
<text text-anchor="start" x="464.5" y="-606.902" font-family="Helvetica,sans-Serif" font-size="11.00">controller_type</text>
<polygon fill="none" stroke="black" points="596.5,-598.702 596.5,-620.702 717.5,-620.702 717.5,-598.702 596.5,-598.702"/>
<text text-anchor="start" x="599.5" y="-606.902" font-family="Helvetica,sans-Serif" font-size="11.00">varchar[2147483647]</text>
<polygon fill="none" stroke="black" points="444.5,-576.702 444.5,-598.702 596.5,-598.702 596.5,-576.702 444.5,-576.702"/>
<text text-anchor="start" x="464.5" y="-584.902" font-family="Helvetica,sans-Serif" font-size="11.00">size</text>
<polygon fill="none" stroke="black" points="596.5,-576.702 596.5,-598.702 717.5,-598.702 717.5,-576.702 596.5,-576.702"/>
<text text-anchor="start" x="599.5" y="-584.902" font-family="Helvetica,sans-Serif" font-size="11.00">int8[19]</text>
<polygon fill="none" stroke="black" points="444.5,-554.702 444.5,-576.702 596.5,-576.702 596.5,-554.702 444.5,-554.702"/>
<text text-anchor="start" x="464.5" y="-562.902" font-family="Helvetica,sans-Serif" font-size="11.00">free_space</text>
<polygon fill="none" stroke="black" points="596.5,-554.702 596.5,-576.702 717.5,-576.702 717.5,-554.702 596.5,-554.702"/>
<text text-anchor="start" x="599.5" y="-562.902" font-family="Helvetica,sans-Serif" font-size="11.00">int8[19]</text>
<polygon fill="none" stroke="black" points="444.5,-532.702 444.5,-554.702 596.5,-554.702 596.5,-532.702 444.5,-532.702"/>
<text text-anchor="start" x="464.5" y="-540.902" font-family="Helvetica,sans-Serif" font-size="11.00">size_on_disk</text>
<polygon fill="none" stroke="black" points="596.5,-532.702 596.5,-554.702 717.5,-554.702 717.5,-532.702 596.5,-532.702"/>
<text text-anchor="start" x="599.5" y="-540.902" font-family="Helvetica,sans-Serif" font-size="11.00">int8[19]</text>
<polygon fill="none" stroke="black" points="444.5,-510.702 444.5,-532.702 596.5,-532.702 596.5,-510.702 444.5,-510.702"/>
<text text-anchor="start" x="464.5" y="-518.902" font-family="Helvetica,sans-Serif" font-size="11.00">address</text>
<polygon fill="none" stroke="black" points="596.5,-510.702 596.5,-532.702 717.5,-532.702 717.5,-510.702 596.5,-510.702"/>
<text text-anchor="start" x="599.5" y="-518.902" font-family="Helvetica,sans-Serif" font-size="11.00">varchar[2147483647]</text>
<polygon fill="#ffffff" stroke="none" points="444.5,-488.702 444.5,-510.702 596.5,-510.702 596.5,-488.702 444.5,-488.702"/>
<polygon fill="none" stroke="black" points="444.5,-488.702 444.5,-510.702 596.5,-510.702 596.5,-488.702 444.5,-488.702"/>
<image xlink:href="../../images/foreignKeys.png" width="11px" height="12px" preserveAspectRatio="xMinYMin meet" x="449.5" y="-505.702"/>
<text text-anchor="start" x="464.5" y="-496.902" font-family="Helvetica,sans-Serif" font-size="11.00">switch_id</text>
<polygon fill="none" stroke="black" points="596.5,-488.702 596.5,-510.702 717.5,-510.702 717.5,-488.702 596.5,-488.702"/>
<text text-anchor="start" x="599.5" y="-496.902" font-family="Helvetica,sans-Serif" font-size="11.00">int8[19]</text>
<polygon fill="#ffffff" stroke="none" points="444.5,-466.702 444.5,-488.702 596.5,-488.702 596.5,-466.702 444.5,-466.702"/>
<polygon fill="none" stroke="black" points="444.5,-466.702 444.5,-488.702 596.5,-488.702 596.5,-466.702 444.5,-466.702"/>
<image xlink:href="../../images/foreignKeys.png" width="11px" height="12px" preserveAspectRatio="xMinYMin meet" x="449.5" y="-483.702"/>
<text text-anchor="start" x="464.5" y="-474.902" font-family="Helvetica,sans-Serif" font-size="11.00">lan_id</text>
<polygon fill="none" stroke="black" points="596.5,-466.702 596.5,-488.702 717.5,-488.702 717.5,-466.702 596.5,-466.702"/>
<text text-anchor="start" x="599.5" y="-474.902" font-family="Helvetica,sans-Serif" font-size="11.00">int8[19]</text>
<polygon fill="none" stroke="black" points="444.5,-444.702 444.5,-466.702 596.5,-466.702 596.5,-444.702 444.5,-444.702"/>
<text text-anchor="start" x="464.5" y="-452.902" font-family="Helvetica,sans-Serif" font-size="11.00">model</text>
<polygon fill="none" stroke="black" points="596.5,-444.702 596.5,-466.702 717.5,-466.702 717.5,-444.702 596.5,-444.702"/>
<text text-anchor="start" x="599.5" y="-452.902" font-family="Helvetica,sans-Serif" font-size="11.00">varchar[2147483647]</text>
<polygon fill="none" stroke="black" points="444.5,-422.702 444.5,-444.702 596.5,-444.702 596.5,-422.702 444.5,-422.702"/>
<text text-anchor="start" x="464.5" y="-430.902" font-family="Helvetica,sans-Serif" font-size="11.00">iscsi_name</text>
<polygon fill="none" stroke="black" points="596.5,-422.702 596.5,-444.702 717.5,-444.702 717.5,-422.702 596.5,-422.702"/>
<text text-anchor="start" x="599.5" y="-430.902" font-family="Helvetica,sans-Serif" font-size="11.00">varchar[2147483647]</text>
<polygon fill="none" stroke="black" points="444.5,-400.702 444.5,-422.702 596.5,-422.702 596.5,-400.702 444.5,-400.702"/>
<text text-anchor="start" x="464.5" y="-408.902" font-family="Helvetica,sans-Serif" font-size="11.00">iscsi_alias</text>
<polygon fill="none" stroke="black" points="596.5,-400.702 596.5,-422.702 717.5,-422.702 717.5,-400.702 596.5,-400.702"/>
<text text-anchor="start" x="599.5" y="-408.902" font-family="Helvetica,sans-Serif" font-size="11.00">varchar[2147483647]</text>
<polygon fill="none" stroke="black" points="444.5,-378.702 444.5,-400.702 596.5,-400.702 596.5,-378.702 444.5,-378.702"/>
<text text-anchor="start" x="464.5" y="-386.902" font-family="Helvetica,sans-Serif" font-size="11.00">present</text>
<polygon fill="none" stroke="black" points="596.5,-378.702 596.5,-400.702 717.5,-400.702 717.5,-378.702 596.5,-378.702"/>
<text text-anchor="start" x="599.5" y="-386.902" font-family="Helvetica,sans-Serif" font-size="11.00">bool[1]</text>
<polygon fill="none" stroke="black" points="444.5,-356.702 444.5,-378.702 596.5,-378.702 596.5,-356.702 444.5,-356.702"/>
<text text-anchor="start" x="464.5" y="-364.902" font-family="Helvetica,sans-Serif" font-size="11.00">start_connected</text>
<polygon fill="none" stroke="black" points="596.5,-356.702 596.5,-378.702 717.5,-378.702 717.5,-356.702 596.5,-356.702"/>
<text text-anchor="start" x="599.5" y="-364.902" font-family="Helvetica,sans-Serif" font-size="11.00">bool[1]</text>
<polygon fill="none" stroke="black" points="444.5,-334.702 444.5,-356.702 596.5,-356.702 596.5,-334.702 444.5,-334.702"/>
<text text-anchor="start" x="464.5" y="-342.902" font-family="Helvetica,sans-Serif" font-size="11.00">auto_detect</text>
<polygon fill="none" stroke="black" points="596.5,-334.702 596.5,-356.702 717.5,-356.702 717.5,-334.702 596.5,-334.702"/>
<text text-anchor="start" x="599.5" y="-342.902" font-family="Helvetica,sans-Serif" font-size="11.00">bool[1]</text>
<polygon fill="none" stroke="black" points="444.5,-312.702 444.5,-334.702 596.5,-334.702 596.5,-312.702 444.5,-312.702"/>
<text text-anchor="start" x="464.5" y="-320.902" font-family="Helvetica,sans-Serif" font-size="11.00">uid_ems</text>
<polygon fill="none" stroke="black" points="596.5,-312.702 596.5,-334.702 717.5,-334.702 717.5,-312.702 596.5,-312.702"/>
<text text-anchor="start" x="599.5" y="-320.902" font-family="Helvetica,sans-Serif" font-size="11.00">varchar[2147483647]</text>
<polygon fill="none" stroke="black" points="444.5,-290.702 444.5,-312.702 596.5,-312.702 596.5,-290.702 444.5,-290.702"/>
<text text-anchor="start" x="464.5" y="-298.902" font-family="Helvetica,sans-Serif" font-size="11.00">chap_auth_enabled</text>
<polygon fill="none" stroke="black" points="596.5,-290.702 596.5,-312.702 717.5,-312.702 717.5,-290.702 596.5,-290.702"/>
<text text-anchor="start" x="599.5" y="-298.902" font-family="Helvetica,sans-Serif" font-size="11.00">bool[1]</text>
<polygon fill="none" stroke="black" points="444.5,-268.702 444.5,-290.702 596.5,-290.702 596.5,-268.702 444.5,-268.702"/>
<text text-anchor="start" x="464.5" y="-276.902" font-family="Helvetica,sans-Serif" font-size="11.00">manufacturer</text>
<polygon fill="none" stroke="black" points="596.5,-268.702 596.5,-290.702 717.5,-290.702 717.5,-268.702 596.5,-268.702"/>
<text text-anchor="start" x="599.5" y="-276.902" font-family="Helvetica,sans-Serif" font-size="11.00">varchar[2147483647]</text>
<polygon fill="none" stroke="black" points="444.5,-246.702 444.5,-268.702 596.5,-268.702 596.5,-246.702 444.5,-246.702"/>
<text text-anchor="start" x="464.5" y="-254.902" font-family="Helvetica,sans-Serif" font-size="11.00">field_replaceable_unit</text>
<polygon fill="none" stroke="black" points="596.5,-246.702 596.5,-268.702 717.5,-268.702 717.5,-246.702 596.5,-246.702"/>
<text text-anchor="start" x="599.5" y="-254.902" font-family="Helvetica,sans-Serif" font-size="11.00">varchar[2147483647]</text>
<polygon fill="#ffffff" stroke="none" points="444.5,-224.702 444.5,-246.702 596.5,-246.702 596.5,-224.702 444.5,-224.702"/>
<polygon fill="none" stroke="black" points="444.5,-224.702 444.5,-246.702 596.5,-246.702 596.5,-224.702 444.5,-224.702"/>
<text text-anchor="start" x="464.5" y="-232.902" font-family="Helvetica,sans-Serif" font-size="11.00">parent_device_id</text>
<polygon fill="none" stroke="black" points="596.5,-224.702 596.5,-246.702 717.5,-246.702 717.5,-224.702 596.5,-224.702"/>
<text text-anchor="start" x="599.5" y="-232.902" font-family="Helvetica,sans-Serif" font-size="11.00">int8[19]</text>
<polygon fill="none" stroke="black" points="444.5,-202.702 444.5,-224.702 596.5,-224.702 596.5,-202.702 444.5,-202.702"/>
<text text-anchor="start" x="464.5" y="-210.902" font-family="Helvetica,sans-Serif" font-size="11.00">vlan_key</text>
<polygon fill="none" stroke="black" points="596.5,-202.702 596.5,-224.702 717.5,-224.702 717.5,-202.702 596.5,-202.702"/>
<text text-anchor="start" x="599.5" y="-210.902" font-family="Helvetica,sans-Serif" font-size="11.00">varchar[2147483647]</text>
<polygon fill="none" stroke="black" points="444.5,-180.702 444.5,-202.702 596.5,-202.702 596.5,-180.702 444.5,-180.702"/>
<text text-anchor="start" x="464.5" y="-188.902" font-family="Helvetica,sans-Serif" font-size="11.00">vlan_enabled</text>
<polygon fill="none" stroke="black" points="596.5,-180.702 596.5,-202.702 717.5,-202.702 717.5,-180.702 596.5,-180.702"/>
<text text-anchor="start" x="599.5" y="-188.902" font-family="Helvetica,sans-Serif" font-size="11.00">bool[1]</text>
<polygon fill="none" stroke="black" points="444.5,-158.702 444.5,-180.702 596.5,-180.702 596.5,-158.702 444.5,-158.702"/>
<text text-anchor="start" x="464.5" y="-166.902" font-family="Helvetica,sans-Serif" font-size="11.00">peer_mac_address</text>
<polygon fill="none" stroke="black" points="596.5,-158.702 596.5,-180.702 717.5,-180.702 717.5,-158.702 596.5,-158.702"/>
<text text-anchor="start" x="599.5" y="-166.902" font-family="Helvetica,sans-Serif" font-size="11.00">varchar[2147483647]</text>
<polygon fill="none" stroke="black" points="444.5,-136.702 444.5,-158.702 596.5,-158.702 596.5,-136.702 444.5,-136.702"/>
<text text-anchor="start" x="464.5" y="-144.902" font-family="Helvetica,sans-Serif" font-size="11.00">ems_ref</text>
<polygon fill="none" stroke="black" points="596.5,-136.702 596.5,-158.702 717.5,-158.702 717.5,-136.702 596.5,-136.702"/>
<text text-anchor="start" x="599.5" y="-144.902" font-family="Helvetica,sans-Serif" font-size="11.00">varchar[2147483647]</text>
<polygon fill="none" stroke="black" points="444.5,-114.702 444.5,-136.702 596.5,-136.702 596.5,-114.702 444.5,-114.702"/>
<text text-anchor="start" x="464.5" y="-122.902" font-family="Helvetica,sans-Serif" font-size="11.00">speed</text>
<polygon fill="none" stroke="black" points="596.5,-114.702 596.5,-136.702 717.5,-136.702 717.5,-114.702 596.5,-114.702"/>
<text text-anchor="start" x="599.5" y="-122.902" font-family="Helvetica,sans-Serif" font-size="11.00">int8[19]</text>
<polygon fill="#ffffff" stroke="none" points="444.5,-96.7018 444.5,-114.702 525.5,-114.702 525.5,-96.7018 444.5,-96.7018"/>
<polygon fill="none" stroke="black" points="444.5,-96.7018 444.5,-114.702 525.5,-114.702 525.5,-96.7018 444.5,-96.7018"/>
<text text-anchor="start" x="447.5" y="-102.902" font-family="Helvetica,sans-Serif" font-size="11.00">&lt; 3</text>
<polygon fill="#ffffff" stroke="none" points="525.5,-96.7018 525.5,-114.702 596.5,-114.702 596.5,-96.7018 525.5,-96.7018"/>
<polygon fill="none" stroke="black" points="525.5,-96.7018 525.5,-114.702 596.5,-114.702 596.5,-96.7018 525.5,-96.7018"/>
<text text-anchor="start" x="586.5" y="-102.902" font-family="Helvetica,sans-Serif" font-size="11.00"> &#160;</text>
<polygon fill="#ffffff" stroke="none" points="596.5,-96.7018 596.5,-114.702 717.5,-114.702 717.5,-96.7018 596.5,-96.7018"/>
<polygon fill="none" stroke="black" points="596.5,-96.7018 596.5,-114.702 717.5,-114.702 717.5,-96.7018 596.5,-96.7018"/>
<text text-anchor="start" x="697.5" y="-102.902" font-family="Helvetica,sans-Serif" font-size="11.00">3 &gt;</text>
<polygon fill="none" stroke="black" stroke-width="2" points="443,-95.7018 443,-797.702 718,-797.702 718,-95.7018 443,-95.7018"/>
</a>
</g>
</g>
<!-- firmwares&#45;&gt;guest_devices -->
<g id="edge1" class="edge"><title>firmwares:guest_device_id:w&#45;&gt;guest_devices:id.type:e</title>
<path fill="none" stroke="black" d="M788.284,-823.347C757.404,-812.022 759.464,-763.702 718.5,-763.702"/>
<polygon fill="black" stroke="black" points="794.608,-824.395 801.912,-829.253 798.554,-825.048 802.5,-825.702 802.5,-825.702 802.5,-825.702 798.554,-825.048 803.088,-822.15 794.608,-824.395 794.608,-824.395"/>
<ellipse fill="none" stroke="black" cx="791.451" cy="-823.872" rx="3.2" ry="3.2"/>
</g>
<!-- hardwares -->
<g id="node3" class="node"><title>hardwares</title>
<g id="a_node3"><a xlink:href="../../tables/hardwares.html" xlink:title="hardwares" target="_top">
<polygon fill="#ffffff" stroke="none" points="213,-509.702 213,-699.702 372,-699.702 372,-509.702 213,-509.702"/>
<polygon fill="#f5f5f5" stroke="none" points="213.5,-677.702 213.5,-699.702 372.5,-699.702 372.5,-677.702 213.5,-677.702"/>
<polygon fill="none" stroke="black" points="213.5,-677.702 213.5,-699.702 372.5,-699.702 372.5,-677.702 213.5,-677.702"/>
<text text-anchor="start" x="218.5" y="-686.902" font-family="Helvetica,sans-Serif" font-weight="bold" font-size="11.00">hardwares</text>
<text text-anchor="start" x="333.5" y="-685.902" font-family="Helvetica,sans-Serif" font-size="11.00">[table]</text>
<polygon fill="none" stroke="black" points="213.5,-655.702 213.5,-677.702 372.5,-677.702 372.5,-655.702 213.5,-655.702"/>
<image xlink:href="../../images/primaryKeys.png" width="11px" height="12px" preserveAspectRatio="xMinYMin meet" x="218.5" y="-672.702"/>
<text text-anchor="start" x="233.5" y="-663.902" font-family="Helvetica,sans-Serif" font-size="11.00">id</text>
<polygon fill="#ffffff" stroke="none" points="213.5,-633.702 213.5,-655.702 372.5,-655.702 372.5,-633.702 213.5,-633.702"/>
<polygon fill="none" stroke="black" points="213.5,-633.702 213.5,-655.702 372.5,-655.702 372.5,-633.702 213.5,-633.702"/>
<text text-anchor="start" x="233.5" y="-641.902" font-family="Helvetica,sans-Serif" font-size="11.00">vm_or_template_id</text>
<polygon fill="#ffffff" stroke="none" points="213.5,-611.702 213.5,-633.702 372.5,-633.702 372.5,-611.702 213.5,-611.702"/>
<polygon fill="none" stroke="black" points="213.5,-611.702 213.5,-633.702 372.5,-633.702 372.5,-611.702 213.5,-611.702"/>
<image xlink:href="../../images/foreignKeys.png" width="11px" height="12px" preserveAspectRatio="xMinYMin meet" x="218.5" y="-628.702"/>
<text text-anchor="start" x="233.5" y="-619.902" font-family="Helvetica,sans-Serif" font-size="11.00">host_id</text>
<polygon fill="#ffffff" stroke="none" points="213.5,-589.702 213.5,-611.702 372.5,-611.702 372.5,-589.702 213.5,-589.702"/>
<polygon fill="none" stroke="black" points="213.5,-589.702 213.5,-611.702 372.5,-611.702 372.5,-589.702 213.5,-589.702"/>
<image xlink:href="../../images/foreignKeys.png" width="11px" height="12px" preserveAspectRatio="xMinYMin meet" x="218.5" y="-606.702"/>
<text text-anchor="start" x="233.5" y="-597.902" font-family="Helvetica,sans-Serif" font-size="11.00">computer_system_id</text>
<polygon fill="none" stroke="black" points="213.5,-567.702 213.5,-589.702 372.5,-589.702 372.5,-567.702 213.5,-567.702"/>
<image xlink:href="../../images/foreignKeys.png" width="11px" height="12px" preserveAspectRatio="xMinYMin meet" x="218.5" y="-584.702"/>
<text text-anchor="start" x="233.5" y="-575.902" font-family="Helvetica,sans-Serif" font-size="11.00">switch_id</text>
<polygon fill="none" stroke="black" points="213.5,-545.702 213.5,-567.702 372.5,-567.702 372.5,-545.702 213.5,-545.702"/>
<image xlink:href="../../images/foreignKeys.png" width="11px" height="12px" preserveAspectRatio="xMinYMin meet" x="218.5" y="-562.702"/>
<text text-anchor="start" x="233.5" y="-553.902" font-family="Helvetica,sans-Serif" font-size="11.00">canister_id</text>
<polygon fill="none" stroke="black" points="213.5,-527.702 213.5,-545.702 372.5,-545.702 372.5,-527.702 213.5,-527.702"/>
<text text-anchor="start" x="216.5" y="-533.902" font-family="Helvetica,sans-Serif" font-size="11.00">...</text>
<polygon fill="#ffffff" stroke="none" points="213.5,-509.702 213.5,-527.702 286.5,-527.702 286.5,-509.702 213.5,-509.702"/>
<polygon fill="none" stroke="black" points="213.5,-509.702 213.5,-527.702 286.5,-527.702 286.5,-509.702 213.5,-509.702"/>
<text text-anchor="start" x="216.5" y="-515.902" font-family="Helvetica,sans-Serif" font-size="11.00">&lt; 4</text>
<polygon fill="#ffffff" stroke="none" points="286.5,-509.702 286.5,-527.702 324.5,-527.702 324.5,-509.702 286.5,-509.702"/>
<polygon fill="none" stroke="black" points="286.5,-509.702 286.5,-527.702 324.5,-527.702 324.5,-509.702 286.5,-509.702"/>
<text text-anchor="start" x="314.5" y="-515.902" font-family="Helvetica,sans-Serif" font-size="11.00"> &#160;</text>
<polygon fill="#ffffff" stroke="none" points="324.5,-509.702 324.5,-527.702 372.5,-527.702 372.5,-509.702 324.5,-509.702"/>
<polygon fill="none" stroke="black" points="324.5,-509.702 324.5,-527.702 372.5,-527.702 372.5,-509.702 324.5,-509.702"/>
<text text-anchor="start" x="352.5" y="-515.902" font-family="Helvetica,sans-Serif" font-size="11.00">5 &gt;</text>
</a>
</g>
</g>
<!-- guest_devices&#45;&gt;hardwares -->
<g id="edge2" class="edge"><title>guest_devices:hardware_id:w&#45;&gt;hardwares:id:e</title>
<path fill="none" stroke="black" d="M428.853,-654.766C408.726,-657.87 399.581,-666.702 373.5,-666.702"/>
<polygon fill="black" stroke="black" points="435.521,-654.281 443.761,-657.292 439.511,-653.992 443.5,-653.702 443.5,-653.702 443.5,-653.702 439.511,-653.992 443.239,-650.111 435.521,-654.281 435.521,-654.281"/>
<ellipse fill="none" stroke="black" cx="432.329" cy="-654.513" rx="3.2" ry="3.2"/>
</g>
<!-- lans -->
<g id="node4" class="node"><title>lans</title>
<g id="a_node4"><a xlink:href="../../tables/lans.html" xlink:title="lans" target="_top">
<polygon fill="#ffffff" stroke="none" points="192,-359.702 192,-461.702 393,-461.702 393,-359.702 192,-359.702"/>
<polygon fill="#f5f5f5" stroke="none" points="192.5,-439.702 192.5,-461.702 393.5,-461.702 393.5,-439.702 192.5,-439.702"/>
<polygon fill="none" stroke="black" points="192.5,-439.702 192.5,-461.702 393.5,-461.702 393.5,-439.702 192.5,-439.702"/>
<text text-anchor="start" x="197.5" y="-448.902" font-family="Helvetica,sans-Serif" font-weight="bold" font-size="11.00">lans</text>
<text text-anchor="start" x="354.5" y="-447.902" font-family="Helvetica,sans-Serif" font-size="11.00">[table]</text>
<polygon fill="none" stroke="black" points="192.5,-417.702 192.5,-439.702 393.5,-439.702 393.5,-417.702 192.5,-417.702"/>
<image xlink:href="../../images/primaryKeys.png" width="11px" height="12px" preserveAspectRatio="xMinYMin meet" x="197.5" y="-434.702"/>
<text text-anchor="start" x="212.5" y="-425.902" font-family="Helvetica,sans-Serif" font-size="11.00">id</text>
<polygon fill="#ffffff" stroke="none" points="192.5,-395.702 192.5,-417.702 393.5,-417.702 393.5,-395.702 192.5,-395.702"/>
<polygon fill="none" stroke="black" points="192.5,-395.702 192.5,-417.702 393.5,-417.702 393.5,-395.702 192.5,-395.702"/>
<image xlink:href="../../images/foreignKeys.png" width="11px" height="12px" preserveAspectRatio="xMinYMin meet" x="197.5" y="-412.702"/>
<text text-anchor="start" x="212.5" y="-403.902" font-family="Helvetica,sans-Serif" font-size="11.00">switch_id</text>
<polygon fill="none" stroke="black" points="192.5,-377.702 192.5,-395.702 393.5,-395.702 393.5,-377.702 192.5,-377.702"/>
<text text-anchor="start" x="195.5" y="-383.902" font-family="Helvetica,sans-Serif" font-size="11.00">...</text>
<polygon fill="#ffffff" stroke="none" points="192.5,-359.702 192.5,-377.702 286.5,-377.702 286.5,-359.702 192.5,-359.702"/>
<polygon fill="none" stroke="black" points="192.5,-359.702 192.5,-377.702 286.5,-377.702 286.5,-359.702 192.5,-359.702"/>
<text text-anchor="start" x="195.5" y="-365.902" font-family="Helvetica,sans-Serif" font-size="11.00">&lt; 1</text>
<polygon fill="#ffffff" stroke="none" points="286.5,-359.702 286.5,-377.702 334.5,-377.702 334.5,-359.702 286.5,-359.702"/>
<polygon fill="none" stroke="black" points="286.5,-359.702 286.5,-377.702 334.5,-377.702 334.5,-359.702 286.5,-359.702"/>
<text text-anchor="start" x="324.5" y="-365.902" font-family="Helvetica,sans-Serif" font-size="11.00"> &#160;</text>
<polygon fill="#ffffff" stroke="none" points="334.5,-359.702 334.5,-377.702 393.5,-377.702 393.5,-359.702 334.5,-359.702"/>
<polygon fill="none" stroke="black" points="334.5,-359.702 334.5,-377.702 393.5,-377.702 393.5,-359.702 334.5,-359.702"/>
<text text-anchor="start" x="373.5" y="-365.902" font-family="Helvetica,sans-Serif" font-size="11.00">2 &gt;</text>
</a>
</g>
</g>
<!-- guest_devices&#45;&gt;lans -->
<g id="edge3" class="edge"><title>guest_devices:lan_id:w&#45;&gt;lans:id:e</title>
<path fill="none" stroke="black" d="M429.774,-472.824C415.967,-460.43 419.283,-428.702 394.5,-428.702"/>
<polygon fill="black" stroke="black" points="435.962,-475.023 442.295,-481.094 439.731,-476.363 443.5,-477.702 443.5,-477.702 443.5,-477.702 439.731,-476.363 444.705,-474.31 435.962,-475.023 435.962,-475.023"/>
<ellipse fill="none" stroke="black" cx="432.946" cy="-473.952" rx="3.20001" ry="3.20001"/>
</g>
<!-- switches -->
<g id="node5" class="node"><title>switches</title>
<g id="a_node5"><a xlink:href="../../tables/switches.html" xlink:title="switches" target="_top">
<polygon fill="#ffffff" stroke="none" points="8,-354.702 8,-478.702 143,-478.702 143,-354.702 8,-354.702"/>
<polygon fill="#f5f5f5" stroke="none" points="8.5,-456.702 8.5,-478.702 143.5,-478.702 143.5,-456.702 8.5,-456.702"/>
<polygon fill="none" stroke="black" points="8.5,-456.702 8.5,-478.702 143.5,-478.702 143.5,-456.702 8.5,-456.702"/>
<text text-anchor="start" x="13.5" y="-465.902" font-family="Helvetica,sans-Serif" font-weight="bold" font-size="11.00">switches</text>
<text text-anchor="start" x="104.5" y="-464.902" font-family="Helvetica,sans-Serif" font-size="11.00">[table]</text>
<polygon fill="none" stroke="black" points="8.5,-434.702 8.5,-456.702 143.5,-456.702 143.5,-434.702 8.5,-434.702"/>
<image xlink:href="../../images/primaryKeys.png" width="11px" height="12px" preserveAspectRatio="xMinYMin meet" x="13.5" y="-451.702"/>
<text text-anchor="start" x="28.5" y="-442.902" font-family="Helvetica,sans-Serif" font-size="11.00">id</text>
<polygon fill="#ffffff" stroke="none" points="8.5,-412.702 8.5,-434.702 143.5,-434.702 143.5,-412.702 8.5,-412.702"/>
<polygon fill="none" stroke="black" points="8.5,-412.702 8.5,-434.702 143.5,-434.702 143.5,-412.702 8.5,-412.702"/>
<text text-anchor="start" x="28.5" y="-420.902" font-family="Helvetica,sans-Serif" font-size="11.00">name</text>
<polygon fill="#ffffff" stroke="none" points="8.5,-390.702 8.5,-412.702 143.5,-412.702 143.5,-390.702 8.5,-390.702"/>
<polygon fill="none" stroke="black" points="8.5,-390.702 8.5,-412.702 143.5,-412.702 143.5,-390.702 8.5,-390.702"/>
<image xlink:href="../../images/foreignKeys.png" width="11px" height="12px" preserveAspectRatio="xMinYMin meet" x="13.5" y="-407.702"/>
<text text-anchor="start" x="28.5" y="-398.902" font-family="Helvetica,sans-Serif" font-size="11.00">host_id</text>
<polygon fill="none" stroke="black" points="8.5,-372.702 8.5,-390.702 143.5,-390.702 143.5,-372.702 8.5,-372.702"/>
<text text-anchor="start" x="11.5" y="-378.902" font-family="Helvetica,sans-Serif" font-size="11.00">...</text>
<polygon fill="#ffffff" stroke="none" points="8.5,-354.702 8.5,-372.702 69.5,-372.702 69.5,-354.702 8.5,-354.702"/>
<polygon fill="none" stroke="black" points="8.5,-354.702 8.5,-372.702 69.5,-372.702 69.5,-354.702 8.5,-354.702"/>
<text text-anchor="start" x="11.5" y="-360.902" font-family="Helvetica,sans-Serif" font-size="11.00">&lt; 1</text>
<polygon fill="#ffffff" stroke="none" points="69.5,-354.702 69.5,-372.702 101.5,-372.702 101.5,-354.702 69.5,-354.702"/>
<polygon fill="none" stroke="black" points="69.5,-354.702 69.5,-372.702 101.5,-372.702 101.5,-354.702 69.5,-354.702"/>
<text text-anchor="start" x="91.5" y="-360.902" font-family="Helvetica,sans-Serif" font-size="11.00"> &#160;</text>
<polygon fill="#ffffff" stroke="none" points="101.5,-354.702 101.5,-372.702 143.5,-372.702 143.5,-354.702 101.5,-354.702"/>
<polygon fill="none" stroke="black" points="101.5,-354.702 101.5,-372.702 143.5,-372.702 143.5,-354.702 101.5,-354.702"/>
<text text-anchor="start" x="123.5" y="-360.902" font-family="Helvetica,sans-Serif" font-size="11.00">5 &gt;</text>
</a>
</g>
</g>
<!-- guest_devices&#45;&gt;switches -->
<g id="edge4" class="edge"><title>guest_devices:switch_id:w&#45;&gt;switches:id:e</title>
<path fill="none" stroke="black" d="M428.78,-499.577C363.651,-498.556 234.284,-491.15 184,-472.702 164.036,-465.377 165.765,-445.702 144.5,-445.702"/>
<polygon fill="black" stroke="black" points="435.5,-499.634 443.469,-503.302 439.5,-499.668 443.5,-499.702 443.5,-499.702 443.5,-499.702 439.5,-499.668 443.531,-496.102 435.5,-499.634 435.5,-499.634"/>
<ellipse fill="none" stroke="black" cx="432.3" cy="-499.607" rx="3.2" ry="3.2"/>
</g>
<!-- hardwares&#45;&gt;switches -->
<g id="edge5" class="edge"><title>hardwares:switch_id:w&#45;&gt;switches:id:e</title>
<path fill="none" stroke="black" d="M198.124,-575.924C156.276,-556.825 205.184,-445.702 144.5,-445.702"/>
<polygon fill="black" stroke="black" points="204.645,-577.184 211.817,-582.236 208.573,-577.943 212.5,-578.702 212.5,-578.702 212.5,-578.702 208.573,-577.943 213.183,-575.167 204.645,-577.184 204.645,-577.184"/>
<ellipse fill="none" stroke="black" cx="201.503" cy="-576.577" rx="3.2" ry="3.2"/>
</g>
<!-- lans&#45;&gt;switches -->
<g id="edge6" class="edge"><title>lans:switch_id:w&#45;&gt;switches:id:e</title>
<path fill="none" stroke="black" d="M177.909,-411.484C165.897,-421.898 165.706,-445.702 144.5,-445.702"/>
<polygon fill="black" stroke="black" points="183.954,-409.357 192.695,-410.098 187.727,-408.03 191.5,-406.702 191.5,-406.702 191.5,-406.702 187.727,-408.03 190.305,-403.306 183.954,-409.357 183.954,-409.357"/>
<ellipse fill="none" stroke="black" cx="180.935" cy="-410.419" rx="3.20001" ry="3.20001"/>
</g>
<!-- miq_scsi_targets -->
<g id="node6" class="node"><title>miq_scsi_targets</title>
<g id="a_node6"><a xlink:href="../../tables/miq_scsi_targets.html" xlink:title="miq_scsi_targets" target="_top">
<polygon fill="#ffffff" stroke="none" points="789,-655.702 789,-757.702 930,-757.702 930,-655.702 789,-655.702"/>
<polygon fill="#f5f5f5" stroke="none" points="789.5,-735.702 789.5,-757.702 930.5,-757.702 930.5,-735.702 789.5,-735.702"/>
<polygon fill="none" stroke="black" points="789.5,-735.702 789.5,-757.702 930.5,-757.702 930.5,-735.702 789.5,-735.702"/>
<text text-anchor="start" x="794.5" y="-744.902" font-family="Helvetica,sans-Serif" font-weight="bold" font-size="11.00">miq_scsi_targets</text>
<text text-anchor="start" x="891.5" y="-743.902" font-family="Helvetica,sans-Serif" font-size="11.00">[table]</text>
<polygon fill="none" stroke="black" points="789.5,-713.702 789.5,-735.702 930.5,-735.702 930.5,-713.702 789.5,-713.702"/>
<image xlink:href="../../images/primaryKeys.png" width="11px" height="12px" preserveAspectRatio="xMinYMin meet" x="794.5" y="-730.702"/>
<text text-anchor="start" x="821.5" y="-721.902" font-family="Helvetica,sans-Serif" font-size="11.00">id</text>
<polygon fill="#ffffff" stroke="none" points="789.5,-691.702 789.5,-713.702 930.5,-713.702 930.5,-691.702 789.5,-691.702"/>
<polygon fill="none" stroke="black" points="789.5,-691.702 789.5,-713.702 930.5,-713.702 930.5,-691.702 789.5,-691.702"/>
<image xlink:href="../../images/foreignKeys.png" width="11px" height="12px" preserveAspectRatio="xMinYMin meet" x="794.5" y="-708.702"/>
<text text-anchor="start" x="821.5" y="-699.902" font-family="Helvetica,sans-Serif" font-size="11.00">guest_device_id</text>
<polygon fill="none" stroke="black" points="789.5,-673.702 789.5,-691.702 930.5,-691.702 930.5,-673.702 789.5,-673.702"/>
<text text-anchor="start" x="792.5" y="-679.902" font-family="Helvetica,sans-Serif" font-size="11.00">...</text>
<polygon fill="#ffffff" stroke="none" points="789.5,-655.702 789.5,-673.702 853.5,-673.702 853.5,-655.702 789.5,-655.702"/>
<polygon fill="none" stroke="black" points="789.5,-655.702 789.5,-673.702 853.5,-673.702 853.5,-655.702 789.5,-655.702"/>
<text text-anchor="start" x="792.5" y="-661.902" font-family="Helvetica,sans-Serif" font-size="11.00">&lt; 1</text>
<polygon fill="#ffffff" stroke="none" points="853.5,-655.702 853.5,-673.702 886.5,-673.702 886.5,-655.702 853.5,-655.702"/>
<polygon fill="none" stroke="black" points="853.5,-655.702 853.5,-673.702 886.5,-673.702 886.5,-655.702 853.5,-655.702"/>
<text text-anchor="start" x="876.5" y="-661.902" font-family="Helvetica,sans-Serif" font-size="11.00"> &#160;</text>
<polygon fill="#ffffff" stroke="none" points="886.5,-655.702 886.5,-673.702 930.5,-673.702 930.5,-655.702 886.5,-655.702"/>
<polygon fill="none" stroke="black" points="886.5,-655.702 886.5,-673.702 930.5,-673.702 930.5,-655.702 886.5,-655.702"/>
<text text-anchor="start" x="910.5" y="-661.902" font-family="Helvetica,sans-Serif" font-size="11.00">1 &gt;</text>
</a>
</g>
</g>
<!-- miq_scsi_targets&#45;&gt;guest_devices -->
<g id="edge7" class="edge"><title>miq_scsi_targets:guest_device_id:w&#45;&gt;guest_devices:id.type:e</title>
<path fill="none" stroke="black" d="M774.316,-705.811C749.655,-718.241 754.124,-763.702 718.5,-763.702"/>
<polygon fill="black" stroke="black" points="780.686,-704.415 789.271,-706.218 784.593,-703.558 788.5,-702.702 788.5,-702.702 788.5,-702.702 784.593,-703.558 787.729,-699.185 780.686,-704.415 780.686,-704.415"/>
<ellipse fill="none" stroke="black" cx="777.56" cy="-705.1" rx="3.2" ry="3.2"/>
</g>
<!-- physical_network_ports -->
<g id="node7" class="node"><title>physical_network_ports</title>
<g id="a_node7"><a xlink:href="../../tables/physical_network_ports.html" xlink:title="physical_network_ports" target="_top">
<polygon fill="#ffffff" stroke="none" points="768,-267.702 768,-391.702 951,-391.702 951,-267.702 768,-267.702"/>
<polygon fill="#f5f5f5" stroke="none" points="768.5,-369.702 768.5,-391.702 951.5,-391.702 951.5,-369.702 768.5,-369.702"/>
<polygon fill="none" stroke="black" points="768.5,-369.702 768.5,-391.702 951.5,-391.702 951.5,-369.702 768.5,-369.702"/>
<text text-anchor="start" x="773.5" y="-378.902" font-family="Helvetica,sans-Serif" font-weight="bold" font-size="11.00">physical_network_ports</text>
<text text-anchor="start" x="912.5" y="-377.902" font-family="Helvetica,sans-Serif" font-size="11.00">[table]</text>
<polygon fill="none" stroke="black" points="768.5,-347.702 768.5,-369.702 951.5,-369.702 951.5,-347.702 768.5,-347.702"/>
<image xlink:href="../../images/primaryKeys.png" width="11px" height="12px" preserveAspectRatio="xMinYMin meet" x="773.5" y="-364.702"/>
<text text-anchor="start" x="799.5" y="-355.902" font-family="Helvetica,sans-Serif" font-size="11.00">id</text>
<polygon fill="none" stroke="black" points="768.5,-325.702 768.5,-347.702 951.5,-347.702 951.5,-325.702 768.5,-325.702"/>
<image xlink:href="../../images/foreignKeys.png" width="11px" height="12px" preserveAspectRatio="xMinYMin meet" x="773.5" y="-342.702"/>
<text text-anchor="start" x="799.5" y="-333.902" font-family="Helvetica,sans-Serif" font-size="11.00">guest_device_id</text>
<polygon fill="none" stroke="black" points="768.5,-303.702 768.5,-325.702 951.5,-325.702 951.5,-303.702 768.5,-303.702"/>
<image xlink:href="../../images/foreignKeys.png" width="11px" height="12px" preserveAspectRatio="xMinYMin meet" x="773.5" y="-320.702"/>
<text text-anchor="start" x="799.5" y="-311.902" font-family="Helvetica,sans-Serif" font-size="11.00">switch_id</text>
<polygon fill="none" stroke="black" points="768.5,-285.702 768.5,-303.702 951.5,-303.702 951.5,-285.702 768.5,-285.702"/>
<text text-anchor="start" x="771.5" y="-291.902" font-family="Helvetica,sans-Serif" font-size="11.00">...</text>
<polygon fill="#ffffff" stroke="none" points="768.5,-267.702 768.5,-285.702 858.5,-285.702 858.5,-267.702 768.5,-267.702"/>
<polygon fill="none" stroke="black" points="768.5,-267.702 768.5,-285.702 858.5,-285.702 858.5,-267.702 768.5,-267.702"/>
<text text-anchor="start" x="771.5" y="-273.902" font-family="Helvetica,sans-Serif" font-size="11.00">&lt; 2</text>
<polygon fill="#ffffff" stroke="none" points="858.5,-267.702 858.5,-285.702 904.5,-285.702 904.5,-267.702 858.5,-267.702"/>
<polygon fill="none" stroke="black" points="858.5,-267.702 858.5,-285.702 904.5,-285.702 904.5,-267.702 858.5,-267.702"/>
<text text-anchor="start" x="894.5" y="-273.902" font-family="Helvetica,sans-Serif" font-size="11.00"> &#160;</text>
<polygon fill="#ffffff" stroke="none" points="904.5,-267.702 904.5,-285.702 951.5,-285.702 951.5,-267.702 904.5,-267.702"/>
<polygon fill="none" stroke="black" points="904.5,-267.702 904.5,-285.702 951.5,-285.702 951.5,-267.702 904.5,-267.702"/>
<text text-anchor="start" x="941.5" y="-273.902" font-family="Helvetica,sans-Serif" font-size="11.00"> &#160;</text>
</a>
</g>
</g>
<!-- physical_network_ports&#45;&gt;guest_devices -->
<g id="edge8" class="edge"><title>physical_network_ports:guest_device_id:w&#45;&gt;guest_devices:id.type:e</title>
<path fill="none" stroke="black" d="M753.47,-340.656C687.315,-383.703 808.602,-763.702 718.5,-763.702"/>
<polygon fill="black" stroke="black" points="759.8,-338.872 768.477,-340.167 763.65,-337.787 767.5,-336.702 767.5,-336.702 767.5,-336.702 763.65,-337.787 766.523,-333.237 759.8,-338.872 759.8,-338.872"/>
<ellipse fill="none" stroke="black" cx="756.72" cy="-339.74" rx="3.20001" ry="3.20001"/>
</g>
<!-- physical_network_ports&#45;&gt;switches -->
<g id="edge9" class="edge"><title>physical_network_ports:switch_id:w&#45;&gt;switches:id:e</title>
<path fill="none" stroke="black" d="M753.068,-313.378C678.148,-297.75 802.311,-147.91 727,-84.7018 627.254,-0.984999 553.62,-33.2346 434,-84.7018 285.562,-148.568 271.533,-212.868 184,-348.702 158.785,-387.83 191.049,-445.702 144.5,-445.702"/>
<polygon fill="black" stroke="black" points="759.533,-313.971 767.171,-318.287 763.517,-314.336 767.5,-314.702 767.5,-314.702 767.5,-314.702 763.517,-314.336 767.829,-311.117 759.533,-313.971 759.533,-313.971"/>
<ellipse fill="none" stroke="black" cx="756.347" cy="-313.679" rx="3.2" ry="3.2"/>
</g>
</g>
</svg>
