<?xml version="1.0" encoding="UTF-8" standalone="no"?>
<!DOCTYPE svg PUBLIC "-//W3C//DTD SVG 1.1//EN"
 "http://www.w3.org/Graphics/SVG/1.1/DTD/svg11.dtd">
<!-- Generated by graphviz version 2.38.0 (20140413.2041)
 -->
<!-- Title: oneDegreeRelationshipsDiagram Pages: 1 -->
<svg width="460pt" height="428pt"
 viewBox="0.00 0.00 460.00 428.00" xmlns="http://www.w3.org/2000/svg" xmlns:xlink="http://www.w3.org/1999/xlink">
<g id="graph0" class="graph" transform="scale(1 1) rotate(0) translate(4 424)">
<title>oneDegreeRelationshipsDiagram</title>
<polygon fill="#ffffff" stroke="none" points="-4,4 -4,-424 456,-424 456,4 -4,4"/>
<text text-anchor="middle" x="74.5" y="-7.2" font-family="Helvetica,sans-Serif" font-size="11.00">Generated by SchemaSpy</text>
<!-- host_aggregate_hosts -->
<g id="node1" class="node"><title>host_aggregate_hosts</title>
<g id="a_node1"><a xlink:href="../../tables/host_aggregate_hosts.html" xlink:title="host_aggregate_hosts" target="_top">
<polygon fill="#ffffff" stroke="none" points="220,-202 220,-312 444,-312 444,-202 220,-202"/>
<polygon fill="#f5f5f5" stroke="none" points="222,-288 222,-310 442,-310 442,-288 222,-288"/>
<polygon fill="none" stroke="black" points="222,-288 222,-310 442,-310 442,-288 222,-288"/>
<text text-anchor="start" x="227" y="-297.2" font-family="Helvetica,sans-Serif" font-weight="bold" font-size="11.00">host_aggregate_hosts</text>
<text text-anchor="start" x="403" y="-296.2" font-family="Helvetica,sans-Serif" font-size="11.00">[table]</text>
<polygon fill="none" stroke="black" points="222,-266 222,-288 371,-288 371,-266 222,-266"/>
<image xlink:href="../../images/primaryKeys.png" width="11px" height="12px" preserveAspectRatio="xMinYMin meet" x="227" y="-283"/>
<text text-anchor="start" x="242" y="-274.2" font-family="Helvetica,sans-Serif" font-size="11.00">id</text>
<polygon fill="none" stroke="black" points="371,-266 371,-288 442,-288 442,-266 371,-266"/>
<text text-anchor="start" x="374" y="-274.2" font-family="Helvetica,sans-Serif" font-size="11.00">bigserial[19]</text>
<polygon fill="#ffffff" stroke="none" points="222,-244 222,-266 371,-266 371,-244 222,-244"/>
<polygon fill="none" stroke="black" points="222,-244 222,-266 371,-266 371,-244 222,-244"/>
<image xlink:href="../../images/foreignKeys.png" width="11px" height="12px" preserveAspectRatio="xMinYMin meet" x="227" y="-261"/>
<text text-anchor="start" x="242" y="-252.2" font-family="Helvetica,sans-Serif" font-size="11.00">host_id</text>
<polygon fill="none" stroke="black" points="371,-244 371,-266 442,-266 442,-244 371,-244"/>
<text text-anchor="start" x="374" y="-252.2" font-family="Helvetica,sans-Serif" font-size="11.00">int8[19]</text>
<polygon fill="#ffffff" stroke="none" points="222,-222 222,-244 371,-244 371,-222 222,-222"/>
<polygon fill="none" stroke="black" points="222,-222 222,-244 371,-244 371,-222 222,-222"/>
<image xlink:href="../../images/foreignKeys.png" width="11px" height="12px" preserveAspectRatio="xMinYMin meet" x="227" y="-239"/>
<text text-anchor="start" x="242" y="-230.2" font-family="Helvetica,sans-Serif" font-size="11.00">host_aggregate_id</text>
<polygon fill="none" stroke="black" points="371,-222 371,-244 442,-244 442,-222 371,-222"/>
<text text-anchor="start" x="374" y="-230.2" font-family="Helvetica,sans-Serif" font-size="11.00">int8[19]</text>
<polygon fill="#ffffff" stroke="none" points="222,-204 222,-222 301,-222 301,-204 222,-204"/>
<polygon fill="none" stroke="black" points="222,-204 222,-222 301,-222 301,-204 222,-204"/>
<text text-anchor="start" x="225" y="-210.2" font-family="Helvetica,sans-Serif" font-size="11.00">&lt; 2</text>
<polygon fill="#ffffff" stroke="none" points="301,-204 301,-222 371,-222 371,-204 301,-204"/>
<polygon fill="none" stroke="black" points="301,-204 301,-222 371,-222 371,-204 301,-204"/>
<text text-anchor="start" x="361" y="-210.2" font-family="Helvetica,sans-Serif" font-size="11.00"> &#160;</text>
<polygon fill="#ffffff" stroke="none" points="371,-204 371,-222 442,-222 442,-204 371,-204"/>
<polygon fill="none" stroke="black" points="371,-204 371,-222 442,-222 442,-204 371,-204"/>
<text text-anchor="start" x="422" y="-210.2" font-family="Helvetica,sans-Serif" font-size="11.00">0 &gt;</text>
<polygon fill="none" stroke="black" stroke-width="2" points="221,-203 221,-311 443,-311 443,-203 221,-203"/>
</a>
</g>
</g>
<!-- host_aggregates -->
<g id="node2" class="node"><title>host_aggregates</title>
<g id="a_node2"><a xlink:href="../../tables/host_aggregates.html" xlink:title="host_aggregates" target="_top">
<polygon fill="#ffffff" stroke="none" points="20,-37 20,-139 159,-139 159,-37 20,-37"/>
<polygon fill="#f5f5f5" stroke="none" points="20.5,-117 20.5,-139 159.5,-139 159.5,-117 20.5,-117"/>
<polygon fill="none" stroke="black" points="20.5,-117 20.5,-139 159.5,-139 159.5,-117 20.5,-117"/>
<text text-anchor="start" x="25.5" y="-126.2" font-family="Helvetica,sans-Serif" font-weight="bold" font-size="11.00">host_aggregates</text>
<text text-anchor="start" x="120.5" y="-125.2" font-family="Helvetica,sans-Serif" font-size="11.00">[table]</text>
<polygon fill="none" stroke="black" points="20.5,-95 20.5,-117 159.5,-117 159.5,-95 20.5,-95"/>
<image xlink:href="../../images/primaryKeys.png" width="11px" height="12px" preserveAspectRatio="xMinYMin meet" x="25.5" y="-112"/>
<text text-anchor="start" x="51.5" y="-103.2" font-family="Helvetica,sans-Serif" font-size="11.00">id</text>
<polygon fill="#ffffff" stroke="none" points="20.5,-73 20.5,-95 159.5,-95 159.5,-73 20.5,-73"/>
<polygon fill="none" stroke="black" points="20.5,-73 20.5,-95 159.5,-95 159.5,-73 20.5,-73"/>
<text text-anchor="start" x="51.5" y="-81.2" font-family="Helvetica,sans-Serif" font-size="11.00">ems_id</text>
<polygon fill="none" stroke="black" points="20.5,-55 20.5,-73 159.5,-73 159.5,-55 20.5,-55"/>
<text text-anchor="start" x="23.5" y="-61.2" font-family="Helvetica,sans-Serif" font-size="11.00">...</text>
<polygon fill="#ffffff" stroke="none" points="20.5,-37 20.5,-55 78.5,-55 78.5,-37 20.5,-37"/>
<polygon fill="none" stroke="black" points="20.5,-37 20.5,-55 78.5,-55 78.5,-37 20.5,-37"/>
<text text-anchor="start" x="23.5" y="-43.2" font-family="Helvetica,sans-Serif" font-size="11.00"> &#160;</text>
<polygon fill="#ffffff" stroke="none" points="78.5,-37 78.5,-55 113.5,-55 113.5,-37 78.5,-37"/>
<polygon fill="none" stroke="black" points="78.5,-37 78.5,-55 113.5,-55 113.5,-37 78.5,-37"/>
<text text-anchor="start" x="103.5" y="-43.2" font-family="Helvetica,sans-Serif" font-size="11.00"> &#160;</text>
<polygon fill="#ffffff" stroke="none" points="113.5,-37 113.5,-55 159.5,-55 159.5,-37 113.5,-37"/>
<polygon fill="none" stroke="black" points="113.5,-37 113.5,-55 159.5,-55 159.5,-37 113.5,-37"/>
<text text-anchor="start" x="139.5" y="-43.2" font-family="Helvetica,sans-Serif" font-size="11.00">1 &gt;</text>
</a>
</g>
</g>
<!-- host_aggregate_hosts&#45;&gt;host_aggregates -->
<g id="edge1" class="edge"><title>host_aggregate_hosts:host_aggregate_id:w&#45;&gt;host_aggregates:id:e</title>
<path fill="none" stroke="black" d="M206.557,-229.861C169.463,-210.304 217.16,-106 160.5,-106"/>
<polygon fill="black" stroke="black" points="213.183,-231.301 220.235,-236.518 217.091,-232.15 221,-233 221,-233 221,-233 217.091,-232.15 221.765,-229.482 213.183,-231.301 213.183,-231.301"/>
<ellipse fill="none" stroke="black" cx="210.056" cy="-230.621" rx="3.2" ry="3.2"/>
</g>
<!-- hosts -->
<g id="node3" class="node"><title>hosts</title>
<g id="a_node3"><a xlink:href="../../tables/hosts.html" xlink:title="hosts" target="_top">
<polygon fill="#ffffff" stroke="none" points="8,-160 8,-416 171,-416 171,-160 8,-160"/>
<polygon fill="#f5f5f5" stroke="none" points="8.5,-394 8.5,-416 171.5,-416 171.5,-394 8.5,-394"/>
<polygon fill="none" stroke="black" points="8.5,-394 8.5,-416 171.5,-416 171.5,-394 8.5,-394"/>
<text text-anchor="start" x="13.5" y="-403.2" font-family="Helvetica,sans-Serif" font-weight="bold" font-size="11.00">hosts</text>
<text text-anchor="start" x="132.5" y="-402.2" font-family="Helvetica,sans-Serif" font-size="11.00">[table]</text>
<polygon fill="none" stroke="black" points="8.5,-372 8.5,-394 171.5,-394 171.5,-372 8.5,-372"/>
<image xlink:href="../../images/primaryKeys.png" width="11px" height="12px" preserveAspectRatio="xMinYMin meet" x="13.5" y="-389"/>
<text text-anchor="start" x="28.5" y="-380.2" font-family="Helvetica,sans-Serif" font-size="11.00">id</text>
<polygon fill="#ffffff" stroke="none" points="8.5,-350 8.5,-372 171.5,-372 171.5,-350 8.5,-350"/>
<polygon fill="none" stroke="black" points="8.5,-350 8.5,-372 171.5,-372 171.5,-350 8.5,-350"/>
<text text-anchor="start" x="28.5" y="-358.2" font-family="Helvetica,sans-Serif" font-size="11.00">hostname</text>
<polygon fill="#ffffff" stroke="none" points="8.5,-328 8.5,-350 171.5,-350 171.5,-328 8.5,-328"/>
<polygon fill="none" stroke="black" points="8.5,-328 8.5,-350 171.5,-350 171.5,-328 8.5,-328"/>
<text text-anchor="start" x="28.5" y="-336.2" font-family="Helvetica,sans-Serif" font-size="11.00">ipaddress</text>
<polygon fill="#ffffff" stroke="none" points="8.5,-306 8.5,-328 171.5,-328 171.5,-306 8.5,-306"/>
<polygon fill="none" stroke="black" points="8.5,-306 8.5,-328 171.5,-328 171.5,-306 8.5,-306"/>
<text text-anchor="start" x="28.5" y="-314.2" font-family="Helvetica,sans-Serif" font-size="11.00">guid</text>
<polygon fill="#ffffff" stroke="none" points="8.5,-284 8.5,-306 171.5,-306 171.5,-284 8.5,-284"/>
<polygon fill="none" stroke="black" points="8.5,-284 8.5,-306 171.5,-306 171.5,-284 8.5,-284"/>
<text text-anchor="start" x="28.5" y="-292.2" font-family="Helvetica,sans-Serif" font-size="11.00">ems_id</text>
<polygon fill="#ffffff" stroke="none" points="8.5,-262 8.5,-284 171.5,-284 171.5,-262 8.5,-262"/>
<polygon fill="none" stroke="black" points="8.5,-262 8.5,-284 171.5,-284 171.5,-262 8.5,-262"/>
<text text-anchor="start" x="28.5" y="-270.2" font-family="Helvetica,sans-Serif" font-size="11.00">type</text>
<polygon fill="none" stroke="black" points="8.5,-240 8.5,-262 171.5,-262 171.5,-240 8.5,-240"/>
<image xlink:href="../../images/foreignKeys.png" width="11px" height="12px" preserveAspectRatio="xMinYMin meet" x="13.5" y="-257"/>
<text text-anchor="start" x="28.5" y="-248.2" font-family="Helvetica,sans-Serif" font-size="11.00">ems_cluster_id</text>
<polygon fill="#ffffff" stroke="none" points="8.5,-218 8.5,-240 171.5,-240 171.5,-218 8.5,-218"/>
<polygon fill="none" stroke="black" points="8.5,-218 8.5,-240 171.5,-240 171.5,-218 8.5,-218"/>
<image xlink:href="../../images/foreignKeys.png" width="11px" height="12px" preserveAspectRatio="xMinYMin meet" x="13.5" y="-235"/>
<text text-anchor="start" x="28.5" y="-226.2" font-family="Helvetica,sans-Serif" font-size="11.00">availability_zone_id</text>
<polygon fill="none" stroke="black" points="8.5,-196 8.5,-218 171.5,-218 171.5,-196 8.5,-196"/>
<image xlink:href="../../images/foreignKeys.png" width="11px" height="12px" preserveAspectRatio="xMinYMin meet" x="13.5" y="-213"/>
<text text-anchor="start" x="28.5" y="-204.2" font-family="Helvetica,sans-Serif" font-size="11.00">physical_server_id</text>
<polygon fill="none" stroke="black" points="8.5,-178 8.5,-196 171.5,-196 171.5,-178 8.5,-178"/>
<text text-anchor="start" x="11.5" y="-184.2" font-family="Helvetica,sans-Serif" font-size="11.00">...</text>
<polygon fill="#ffffff" stroke="none" points="8.5,-160 8.5,-178 79.5,-178 79.5,-160 8.5,-160"/>
<polygon fill="none" stroke="black" points="8.5,-160 8.5,-178 79.5,-178 79.5,-160 8.5,-160"/>
<text text-anchor="start" x="11.5" y="-166.2" font-family="Helvetica,sans-Serif" font-size="11.00">&lt; 3</text>
<polygon fill="#ffffff" stroke="none" points="79.5,-160 79.5,-178 116.5,-178 116.5,-160 79.5,-160"/>
<polygon fill="none" stroke="black" points="79.5,-160 79.5,-178 116.5,-178 116.5,-160 79.5,-160"/>
<text text-anchor="start" x="106.5" y="-166.2" font-family="Helvetica,sans-Serif" font-size="11.00"> &#160;</text>
<polygon fill="#ffffff" stroke="none" points="116.5,-160 116.5,-178 171.5,-178 171.5,-160 116.5,-160"/>
<polygon fill="none" stroke="black" points="116.5,-160 116.5,-178 171.5,-178 171.5,-160 116.5,-160"/>
<text text-anchor="start" x="144.5" y="-166.2" font-family="Helvetica,sans-Serif" font-size="11.00">15 &gt;</text>
</a>
</g>
</g>
<!-- host_aggregate_hosts&#45;&gt;hosts -->
<g id="edge2" class="edge"><title>host_aggregate_hosts:host_id:w&#45;&gt;hosts:id:e</title>
<path fill="none" stroke="black" d="M206.761,-258.424C173.178,-278.779 227.395,-383 172.5,-383"/>
<polygon fill="black" stroke="black" points="213.222,-256.87 221.842,-258.5 217.111,-255.935 221,-255 221,-255 221,-255 217.111,-255.935 220.158,-251.5 213.222,-256.87 213.222,-256.87"/>
<ellipse fill="none" stroke="black" cx="210.11" cy="-257.618" rx="3.2" ry="3.2"/>
</g>
</g>
</svg>
