<?xml version="1.0" encoding="UTF-8" standalone="no"?>
<!DOCTYPE svg PUBLIC "-//W3C//DTD SVG 1.1//EN"
 "http://www.w3.org/Graphics/SVG/1.1/DTD/svg11.dtd">
<!-- Generated by graphviz version 2.38.0 (20140413.2041)
 -->
<!-- Title: twoDegreesRelationshipsDiagram Pages: 1 -->
<svg width="484pt" height="304pt"
 viewBox="0.00 0.00 484.00 304.00" xmlns="http://www.w3.org/2000/svg" xmlns:xlink="http://www.w3.org/1999/xlink">
<g id="graph0" class="graph" transform="scale(1 1) rotate(0) translate(4 300)">
<title>twoDegreesRelationshipsDiagram</title>
<polygon fill="#ffffff" stroke="none" points="-4,4 -4,-300 480,-300 480,4 -4,4"/>
<text text-anchor="middle" x="74.5" y="-7.2" font-family="Helvetica,sans-Serif" font-size="11.00">Generated by SchemaSpy</text>
<!-- host_aggregate_hosts -->
<g id="node1" class="node"><title>host_aggregate_hosts</title>
<g id="a_node1"><a xlink:href="../../tables/host_aggregate_hosts.html" xlink:title="host_aggregate_hosts" target="_top">
<polygon fill="#ffffff" stroke="none" points="300,-179 300,-285 468,-285 468,-179 300,-179"/>
<polygon fill="#f5f5f5" stroke="none" points="300,-263 300,-285 468,-285 468,-263 300,-263"/>
<polygon fill="none" stroke="black" points="300,-263 300,-285 468,-285 468,-263 300,-263"/>
<text text-anchor="start" x="305" y="-272.2" font-family="Helvetica,sans-Serif" font-weight="bold" font-size="11.00">host_aggregate_hosts</text>
<text text-anchor="start" x="429" y="-271.2" font-family="Helvetica,sans-Serif" font-size="11.00">[table]</text>
<polygon fill="none" stroke="black" points="300,-241 300,-263 468,-263 468,-241 300,-241"/>
<image xlink:href="../../images/primaryKeys.png" width="11px" height="12px" preserveAspectRatio="xMinYMin meet" x="305" y="-258"/>
<text text-anchor="start" x="330" y="-249.2" font-family="Helvetica,sans-Serif" font-size="11.00">id</text>
<polygon fill="#ffffff" stroke="none" points="300,-219 300,-241 468,-241 468,-219 300,-219"/>
<polygon fill="none" stroke="black" points="300,-219 300,-241 468,-241 468,-219 300,-219"/>
<image xlink:href="../../images/foreignKeys.png" width="11px" height="12px" preserveAspectRatio="xMinYMin meet" x="305" y="-236"/>
<text text-anchor="start" x="330" y="-227.2" font-family="Helvetica,sans-Serif" font-size="11.00">host_id</text>
<polygon fill="#ffffff" stroke="none" points="300,-197 300,-219 468,-219 468,-197 300,-197"/>
<polygon fill="none" stroke="black" points="300,-197 300,-219 468,-219 468,-197 300,-197"/>
<image xlink:href="../../images/foreignKeys.png" width="11px" height="12px" preserveAspectRatio="xMinYMin meet" x="305" y="-214"/>
<text text-anchor="start" x="330" y="-205.2" font-family="Helvetica,sans-Serif" font-size="11.00">host_aggregate_id</text>
<polygon fill="#ffffff" stroke="none" points="300,-179 300,-197 382,-197 382,-179 300,-179"/>
<polygon fill="none" stroke="black" points="300,-179 300,-197 382,-197 382,-179 300,-179"/>
<text text-anchor="start" x="303" y="-185.2" font-family="Helvetica,sans-Serif" font-size="11.00">&lt; 2</text>
<polygon fill="#ffffff" stroke="none" points="382,-179 382,-197 425,-197 425,-179 382,-179"/>
<polygon fill="none" stroke="black" points="382,-179 382,-197 425,-197 425,-179 382,-179"/>
<text text-anchor="start" x="415" y="-185.2" font-family="Helvetica,sans-Serif" font-size="11.00"> &#160;</text>
<polygon fill="#ffffff" stroke="none" points="425,-179 425,-197 468,-197 468,-179 425,-179"/>
<polygon fill="none" stroke="black" points="425,-179 425,-197 468,-197 468,-179 425,-179"/>
<text text-anchor="start" x="458" y="-185.2" font-family="Helvetica,sans-Serif" font-size="11.00"> &#160;</text>
</a>
</g>
</g>
<!-- host_aggregates -->
<g id="node2" class="node"><title>host_aggregates</title>
<g id="a_node2"><a xlink:href="../../tables/host_aggregates.html" xlink:title="host_aggregates" target="_top">
<polygon fill="#ffffff" stroke="none" points="8,-37 8,-213 251,-213 251,-37 8,-37"/>
<polygon fill="#f5f5f5" stroke="none" points="10.5,-189 10.5,-211 249.5,-211 249.5,-189 10.5,-189"/>
<polygon fill="none" stroke="black" points="10.5,-189 10.5,-211 249.5,-211 249.5,-189 10.5,-189"/>
<text text-anchor="start" x="15.5" y="-198.2" font-family="Helvetica,sans-Serif" font-weight="bold" font-size="11.00">host_aggregates</text>
<text text-anchor="start" x="210.5" y="-197.2" font-family="Helvetica,sans-Serif" font-size="11.00">[table]</text>
<polygon fill="none" stroke="black" points="10.5,-167 10.5,-189 128.5,-189 128.5,-167 10.5,-167"/>
<image xlink:href="../../images/primaryKeys.png" width="11px" height="12px" preserveAspectRatio="xMinYMin meet" x="15.5" y="-184"/>
<text text-anchor="start" x="30.5" y="-175.2" font-family="Helvetica,sans-Serif" font-size="11.00">id</text>
<polygon fill="none" stroke="black" points="128.5,-167 128.5,-189 249.5,-189 249.5,-167 128.5,-167"/>
<text text-anchor="start" x="131.5" y="-175.2" font-family="Helvetica,sans-Serif" font-size="11.00">bigserial[19]</text>
<polygon fill="#ffffff" stroke="none" points="10.5,-145 10.5,-167 128.5,-167 128.5,-145 10.5,-145"/>
<polygon fill="none" stroke="black" points="10.5,-145 10.5,-167 128.5,-167 128.5,-145 10.5,-145"/>
<text text-anchor="start" x="30.5" y="-153.2" font-family="Helvetica,sans-Serif" font-size="11.00">ems_id</text>
<polygon fill="none" stroke="black" points="128.5,-145 128.5,-167 249.5,-167 249.5,-145 128.5,-145"/>
<text text-anchor="start" x="131.5" y="-153.2" font-family="Helvetica,sans-Serif" font-size="11.00">int8[19]</text>
<polygon fill="none" stroke="black" points="10.5,-123 10.5,-145 128.5,-145 128.5,-123 10.5,-123"/>
<text text-anchor="start" x="30.5" y="-131.2" font-family="Helvetica,sans-Serif" font-size="11.00">name</text>
<polygon fill="none" stroke="black" points="128.5,-123 128.5,-145 249.5,-145 249.5,-123 128.5,-123"/>
<text text-anchor="start" x="131.5" y="-131.2" font-family="Helvetica,sans-Serif" font-size="11.00">varchar[2147483647]</text>
<polygon fill="none" stroke="black" points="10.5,-101 10.5,-123 128.5,-123 128.5,-101 10.5,-101"/>
<text text-anchor="start" x="30.5" y="-109.2" font-family="Helvetica,sans-Serif" font-size="11.00">ems_ref</text>
<polygon fill="none" stroke="black" points="128.5,-101 128.5,-123 249.5,-123 249.5,-101 128.5,-101"/>
<text text-anchor="start" x="131.5" y="-109.2" font-family="Helvetica,sans-Serif" font-size="11.00">varchar[2147483647]</text>
<polygon fill="none" stroke="black" points="10.5,-79 10.5,-101 128.5,-101 128.5,-79 10.5,-79"/>
<text text-anchor="start" x="30.5" y="-87.2" font-family="Helvetica,sans-Serif" font-size="11.00">type</text>
<polygon fill="none" stroke="black" points="128.5,-79 128.5,-101 249.5,-101 249.5,-79 128.5,-79"/>
<text text-anchor="start" x="131.5" y="-87.2" font-family="Helvetica,sans-Serif" font-size="11.00">varchar[2147483647]</text>
<polygon fill="none" stroke="black" points="10.5,-57 10.5,-79 128.5,-79 128.5,-57 10.5,-57"/>
<text text-anchor="start" x="30.5" y="-65.2" font-family="Helvetica,sans-Serif" font-size="11.00">metadata</text>
<polygon fill="none" stroke="black" points="128.5,-57 128.5,-79 249.5,-79 249.5,-57 128.5,-57"/>
<text text-anchor="start" x="131.5" y="-65.2" font-family="Helvetica,sans-Serif" font-size="11.00">text[2147483647]</text>
<polygon fill="#ffffff" stroke="none" points="10.5,-39 10.5,-57 74.5,-57 74.5,-39 10.5,-39"/>
<polygon fill="none" stroke="black" points="10.5,-39 10.5,-57 74.5,-57 74.5,-39 10.5,-39"/>
<text text-anchor="start" x="13.5" y="-45.2" font-family="Helvetica,sans-Serif" font-size="11.00">&lt; 0</text>
<polygon fill="#ffffff" stroke="none" points="74.5,-39 74.5,-57 128.5,-57 128.5,-39 74.5,-39"/>
<polygon fill="none" stroke="black" points="74.5,-39 74.5,-57 128.5,-57 128.5,-39 74.5,-39"/>
<text text-anchor="start" x="118.5" y="-45.2" font-family="Helvetica,sans-Serif" font-size="11.00"> &#160;</text>
<polygon fill="#ffffff" stroke="none" points="128.5,-39 128.5,-57 249.5,-57 249.5,-39 128.5,-39"/>
<polygon fill="none" stroke="black" points="128.5,-39 128.5,-57 249.5,-57 249.5,-39 128.5,-39"/>
<text text-anchor="start" x="229.5" y="-45.2" font-family="Helvetica,sans-Serif" font-size="11.00">1 &gt;</text>
<polygon fill="none" stroke="black" stroke-width="2" points="9,-38 9,-212 250,-212 250,-38 9,-38"/>
</a>
</g>
</g>
<!-- host_aggregate_hosts&#45;&gt;host_aggregates -->
<g id="edge1" class="edge"><title>host_aggregate_hosts:host_aggregate_id:w&#45;&gt;host_aggregates:id.type:e</title>
<path fill="none" stroke="black" d="M285.008,-203.829C273.169,-195.585 269.906,-178 250.5,-178"/>
<polygon fill="black" stroke="black" points="291.333,-205.714 297.971,-211.45 295.167,-206.857 299,-208 299,-208 299,-208 295.167,-206.857 300.029,-204.55 291.333,-205.714 291.333,-205.714"/>
<ellipse fill="none" stroke="black" cx="288.267" cy="-204.8" rx="3.20001" ry="3.20001"/>
</g>
<!-- hosts -->
<g id="node3" class="node"><title>hosts</title>
<g id="a_node3"><a xlink:href="../../tables/hosts.html" xlink:title="hosts" target="_top">
<polygon fill="#ffffff" stroke="none" points="90,-234 90,-292 169,-292 169,-234 90,-234"/>
<polygon fill="#f5f5f5" stroke="none" points="90.5,-270 90.5,-292 169.5,-292 169.5,-270 90.5,-270"/>
<polygon fill="none" stroke="black" points="90.5,-270 90.5,-292 169.5,-292 169.5,-270 90.5,-270"/>
<text text-anchor="start" x="95.5" y="-279.2" font-family="Helvetica,sans-Serif" font-weight="bold" font-size="11.00">hosts</text>
<text text-anchor="start" x="130.5" y="-278.2" font-family="Helvetica,sans-Serif" font-size="11.00">[table]</text>
<polygon fill="none" stroke="black" points="90.5,-252 90.5,-270 169.5,-270 169.5,-252 90.5,-252"/>
<text text-anchor="start" x="93.5" y="-258.2" font-family="Helvetica,sans-Serif" font-size="11.00">...</text>
<polygon fill="#ffffff" stroke="none" points="90.5,-234 90.5,-252 119.5,-252 119.5,-234 90.5,-234"/>
<polygon fill="none" stroke="black" points="90.5,-234 90.5,-252 119.5,-252 119.5,-234 90.5,-234"/>
<text text-anchor="start" x="93.5" y="-240.2" font-family="Helvetica,sans-Serif" font-size="11.00">&lt; 3</text>
<polygon fill="#ffffff" stroke="none" points="119.5,-234 119.5,-252 135.5,-252 135.5,-234 119.5,-234"/>
<polygon fill="none" stroke="black" points="119.5,-234 119.5,-252 135.5,-252 135.5,-234 119.5,-234"/>
<text text-anchor="start" x="125.5" y="-240.2" font-family="Helvetica,sans-Serif" font-size="11.00"> &#160;</text>
<polygon fill="#ffffff" stroke="none" points="135.5,-234 135.5,-252 169.5,-252 169.5,-234 135.5,-234"/>
<polygon fill="none" stroke="black" points="135.5,-234 135.5,-252 169.5,-252 169.5,-234 135.5,-234"/>
<text text-anchor="start" x="142.5" y="-240.2" font-family="Helvetica,sans-Serif" font-size="11.00">15 &gt;</text>
</a>
</g>
</g>
<!-- host_aggregate_hosts&#45;&gt;hosts -->
<g id="edge2" class="edge"><title>host_aggregate_hosts:host_id:w&#45;&gt;hosts:elipses:e</title>
<path fill="none" stroke="black" d="M284.551,-230.676C237.948,-235.21 224.086,-261 170.5,-261"/>
<polygon fill="black" stroke="black" points="291.009,-230.374 299.168,-233.596 295.004,-230.187 299,-230 299,-230 299,-230 295.004,-230.187 298.832,-226.404 291.009,-230.374 291.009,-230.374"/>
<ellipse fill="none" stroke="black" cx="287.812" cy="-230.524" rx="3.2" ry="3.2"/>
</g>
</g>
</svg>
