<?xml version="1.0" encoding="UTF-8" standalone="no"?>
<!DOCTYPE svg PUBLIC "-//W3C//DTD SVG 1.1//EN"
 "http://www.w3.org/Graphics/SVG/1.1/DTD/svg11.dtd">
<!-- Generated by graphviz version 2.38.0 (20140413.2041)
 -->
<!-- Title: oneDegreeRelationshipsDiagram Pages: 1 -->
<svg width="456pt" height="472pt"
 viewBox="0.00 0.00 456.00 472.00" xmlns="http://www.w3.org/2000/svg" xmlns:xlink="http://www.w3.org/1999/xlink">
<g id="graph0" class="graph" transform="scale(1 1) rotate(0) translate(4 468)">
<title>oneDegreeRelationshipsDiagram</title>
<polygon fill="#ffffff" stroke="none" points="-4,4 -4,-468 452,-468 452,4 -4,4"/>
<text text-anchor="middle" x="74.5" y="-7.2" font-family="Helvetica,sans-Serif" font-size="11.00">Generated by SchemaSpy</text>
<!-- host_storages -->
<g id="node1" class="node"><title>host_storages</title>
<g id="a_node1"><a xlink:href="../../tables/host_storages.html" xlink:title="host_storages" target="_top">
<polygon fill="#ffffff" stroke="none" points="262,-257 262,-411 440,-411 440,-257 262,-257"/>
<polygon fill="#f5f5f5" stroke="none" points="264,-387 264,-409 438,-409 438,-387 264,-387"/>
<polygon fill="none" stroke="black" points="264,-387 264,-409 438,-409 438,-387 264,-387"/>
<text text-anchor="start" x="269" y="-396.2" font-family="Helvetica,sans-Serif" font-weight="bold" font-size="11.00">host_storages</text>
<text text-anchor="start" x="399" y="-395.2" font-family="Helvetica,sans-Serif" font-size="11.00">[table]</text>
<polygon fill="none" stroke="black" points="264,-365 264,-387 367,-387 367,-365 264,-365"/>
<image xlink:href="../../images/primaryKeys.png" width="11px" height="12px" preserveAspectRatio="xMinYMin meet" x="269" y="-382"/>
<text text-anchor="start" x="284" y="-373.2" font-family="Helvetica,sans-Serif" font-size="11.00">id</text>
<polygon fill="none" stroke="black" points="367,-365 367,-387 438,-387 438,-365 367,-365"/>
<text text-anchor="start" x="370" y="-373.2" font-family="Helvetica,sans-Serif" font-size="11.00">bigserial[19]</text>
<polygon fill="#ffffff" stroke="none" points="264,-343 264,-365 367,-365 367,-343 264,-343"/>
<polygon fill="none" stroke="black" points="264,-343 264,-365 367,-365 367,-343 264,-343"/>
<image xlink:href="../../images/foreignKeys.png" width="11px" height="12px" preserveAspectRatio="xMinYMin meet" x="269" y="-360"/>
<text text-anchor="start" x="284" y="-351.2" font-family="Helvetica,sans-Serif" font-size="11.00">storage_id</text>
<polygon fill="none" stroke="black" points="367,-343 367,-365 438,-365 438,-343 367,-343"/>
<text text-anchor="start" x="370" y="-351.2" font-family="Helvetica,sans-Serif" font-size="11.00">int8[19]</text>
<polygon fill="#ffffff" stroke="none" points="264,-321 264,-343 367,-343 367,-321 264,-321"/>
<polygon fill="none" stroke="black" points="264,-321 264,-343 367,-343 367,-321 264,-321"/>
<image xlink:href="../../images/foreignKeys.png" width="11px" height="12px" preserveAspectRatio="xMinYMin meet" x="269" y="-338"/>
<text text-anchor="start" x="284" y="-329.2" font-family="Helvetica,sans-Serif" font-size="11.00">host_id</text>
<polygon fill="none" stroke="black" points="367,-321 367,-343 438,-343 438,-321 367,-321"/>
<text text-anchor="start" x="370" y="-329.2" font-family="Helvetica,sans-Serif" font-size="11.00">int8[19]</text>
<polygon fill="none" stroke="black" points="264,-299 264,-321 367,-321 367,-299 264,-299"/>
<text text-anchor="start" x="284" y="-307.2" font-family="Helvetica,sans-Serif" font-size="11.00">read_only</text>
<polygon fill="none" stroke="black" points="367,-299 367,-321 438,-321 438,-299 367,-299"/>
<text text-anchor="start" x="370" y="-307.2" font-family="Helvetica,sans-Serif" font-size="11.00">bool[1]</text>
<polygon fill="none" stroke="black" points="264,-277 264,-299 367,-299 367,-277 264,-277"/>
<text text-anchor="start" x="284" y="-285.2" font-family="Helvetica,sans-Serif" font-size="11.00">accessible</text>
<polygon fill="none" stroke="black" points="367,-277 367,-299 438,-299 438,-277 367,-277"/>
<text text-anchor="start" x="370" y="-285.2" font-family="Helvetica,sans-Serif" font-size="11.00">bool[1]</text>
<polygon fill="#ffffff" stroke="none" points="264,-259 264,-277 320,-277 320,-259 264,-259"/>
<polygon fill="none" stroke="black" points="264,-259 264,-277 320,-277 320,-259 264,-259"/>
<text text-anchor="start" x="267" y="-265.2" font-family="Helvetica,sans-Serif" font-size="11.00">&lt; 2</text>
<polygon fill="#ffffff" stroke="none" points="320,-259 320,-277 367,-277 367,-259 320,-259"/>
<polygon fill="none" stroke="black" points="320,-259 320,-277 367,-277 367,-259 320,-259"/>
<text text-anchor="start" x="357" y="-265.2" font-family="Helvetica,sans-Serif" font-size="11.00"> &#160;</text>
<polygon fill="#ffffff" stroke="none" points="367,-259 367,-277 438,-277 438,-259 367,-259"/>
<polygon fill="none" stroke="black" points="367,-259 367,-277 438,-277 438,-259 367,-259"/>
<text text-anchor="start" x="418" y="-265.2" font-family="Helvetica,sans-Serif" font-size="11.00">0 &gt;</text>
<polygon fill="none" stroke="black" stroke-width="2" points="263,-258 263,-410 439,-410 439,-258 263,-258"/>
</a>
</g>
</g>
<!-- hosts -->
<g id="node2" class="node"><title>hosts</title>
<g id="a_node2"><a xlink:href="../../tables/hosts.html" xlink:title="hosts" target="_top">
<polygon fill="#ffffff" stroke="none" points="29,-37 29,-293 192,-293 192,-37 29,-37"/>
<polygon fill="#f5f5f5" stroke="none" points="29.5,-271 29.5,-293 192.5,-293 192.5,-271 29.5,-271"/>
<polygon fill="none" stroke="black" points="29.5,-271 29.5,-293 192.5,-293 192.5,-271 29.5,-271"/>
<text text-anchor="start" x="34.5" y="-280.2" font-family="Helvetica,sans-Serif" font-weight="bold" font-size="11.00">hosts</text>
<text text-anchor="start" x="153.5" y="-279.2" font-family="Helvetica,sans-Serif" font-size="11.00">[table]</text>
<polygon fill="none" stroke="black" points="29.5,-249 29.5,-271 192.5,-271 192.5,-249 29.5,-249"/>
<image xlink:href="../../images/primaryKeys.png" width="11px" height="12px" preserveAspectRatio="xMinYMin meet" x="34.5" y="-266"/>
<text text-anchor="start" x="49.5" y="-257.2" font-family="Helvetica,sans-Serif" font-size="11.00">id</text>
<polygon fill="#ffffff" stroke="none" points="29.5,-227 29.5,-249 192.5,-249 192.5,-227 29.5,-227"/>
<polygon fill="none" stroke="black" points="29.5,-227 29.5,-249 192.5,-249 192.5,-227 29.5,-227"/>
<text text-anchor="start" x="49.5" y="-235.2" font-family="Helvetica,sans-Serif" font-size="11.00">hostname</text>
<polygon fill="#ffffff" stroke="none" points="29.5,-205 29.5,-227 192.5,-227 192.5,-205 29.5,-205"/>
<polygon fill="none" stroke="black" points="29.5,-205 29.5,-227 192.5,-227 192.5,-205 29.5,-205"/>
<text text-anchor="start" x="49.5" y="-213.2" font-family="Helvetica,sans-Serif" font-size="11.00">ipaddress</text>
<polygon fill="#ffffff" stroke="none" points="29.5,-183 29.5,-205 192.5,-205 192.5,-183 29.5,-183"/>
<polygon fill="none" stroke="black" points="29.5,-183 29.5,-205 192.5,-205 192.5,-183 29.5,-183"/>
<text text-anchor="start" x="49.5" y="-191.2" font-family="Helvetica,sans-Serif" font-size="11.00">guid</text>
<polygon fill="#ffffff" stroke="none" points="29.5,-161 29.5,-183 192.5,-183 192.5,-161 29.5,-161"/>
<polygon fill="none" stroke="black" points="29.5,-161 29.5,-183 192.5,-183 192.5,-161 29.5,-161"/>
<text text-anchor="start" x="49.5" y="-169.2" font-family="Helvetica,sans-Serif" font-size="11.00">ems_id</text>
<polygon fill="#ffffff" stroke="none" points="29.5,-139 29.5,-161 192.5,-161 192.5,-139 29.5,-139"/>
<polygon fill="none" stroke="black" points="29.5,-139 29.5,-161 192.5,-161 192.5,-139 29.5,-139"/>
<text text-anchor="start" x="49.5" y="-147.2" font-family="Helvetica,sans-Serif" font-size="11.00">type</text>
<polygon fill="none" stroke="black" points="29.5,-117 29.5,-139 192.5,-139 192.5,-117 29.5,-117"/>
<image xlink:href="../../images/foreignKeys.png" width="11px" height="12px" preserveAspectRatio="xMinYMin meet" x="34.5" y="-134"/>
<text text-anchor="start" x="49.5" y="-125.2" font-family="Helvetica,sans-Serif" font-size="11.00">ems_cluster_id</text>
<polygon fill="#ffffff" stroke="none" points="29.5,-95 29.5,-117 192.5,-117 192.5,-95 29.5,-95"/>
<polygon fill="none" stroke="black" points="29.5,-95 29.5,-117 192.5,-117 192.5,-95 29.5,-95"/>
<image xlink:href="../../images/foreignKeys.png" width="11px" height="12px" preserveAspectRatio="xMinYMin meet" x="34.5" y="-112"/>
<text text-anchor="start" x="49.5" y="-103.2" font-family="Helvetica,sans-Serif" font-size="11.00">availability_zone_id</text>
<polygon fill="none" stroke="black" points="29.5,-73 29.5,-95 192.5,-95 192.5,-73 29.5,-73"/>
<image xlink:href="../../images/foreignKeys.png" width="11px" height="12px" preserveAspectRatio="xMinYMin meet" x="34.5" y="-90"/>
<text text-anchor="start" x="49.5" y="-81.2" font-family="Helvetica,sans-Serif" font-size="11.00">physical_server_id</text>
<polygon fill="none" stroke="black" points="29.5,-55 29.5,-73 192.5,-73 192.5,-55 29.5,-55"/>
<text text-anchor="start" x="32.5" y="-61.2" font-family="Helvetica,sans-Serif" font-size="11.00">...</text>
<polygon fill="#ffffff" stroke="none" points="29.5,-37 29.5,-55 100.5,-55 100.5,-37 29.5,-37"/>
<polygon fill="none" stroke="black" points="29.5,-37 29.5,-55 100.5,-55 100.5,-37 29.5,-37"/>
<text text-anchor="start" x="32.5" y="-43.2" font-family="Helvetica,sans-Serif" font-size="11.00">&lt; 3</text>
<polygon fill="#ffffff" stroke="none" points="100.5,-37 100.5,-55 137.5,-55 137.5,-37 100.5,-37"/>
<polygon fill="none" stroke="black" points="100.5,-37 100.5,-55 137.5,-55 137.5,-37 100.5,-37"/>
<text text-anchor="start" x="127.5" y="-43.2" font-family="Helvetica,sans-Serif" font-size="11.00"> &#160;</text>
<polygon fill="#ffffff" stroke="none" points="137.5,-37 137.5,-55 192.5,-55 192.5,-37 137.5,-37"/>
<polygon fill="none" stroke="black" points="137.5,-37 137.5,-55 192.5,-55 192.5,-37 137.5,-37"/>
<text text-anchor="start" x="165.5" y="-43.2" font-family="Helvetica,sans-Serif" font-size="11.00">15 &gt;</text>
</a>
</g>
</g>
<!-- host_storages&#45;&gt;hosts -->
<g id="edge1" class="edge"><title>host_storages:host_id:w&#45;&gt;hosts:id:e</title>
<path fill="none" stroke="black" d="M248.713,-328.719C222.477,-314.634 232.243,-260 193.5,-260"/>
<polygon fill="black" stroke="black" points="255.203,-330.209 262.194,-335.509 259.101,-331.105 263,-332 263,-332 263,-332 259.101,-331.105 263.806,-328.491 255.203,-330.209 255.203,-330.209"/>
<ellipse fill="none" stroke="black" cx="252.084" cy="-329.493" rx="3.2" ry="3.2"/>
</g>
<!-- storages -->
<g id="node3" class="node"><title>storages</title>
<g id="a_node3"><a xlink:href="../../tables/storages.html" xlink:title="storages" target="_top">
<polygon fill="#ffffff" stroke="none" points="8,-314 8,-460 213,-460 213,-314 8,-314"/>
<polygon fill="#f5f5f5" stroke="none" points="8.5,-438 8.5,-460 213.5,-460 213.5,-438 8.5,-438"/>
<polygon fill="none" stroke="black" points="8.5,-438 8.5,-460 213.5,-460 213.5,-438 8.5,-438"/>
<text text-anchor="start" x="13.5" y="-447.2" font-family="Helvetica,sans-Serif" font-weight="bold" font-size="11.00">storages</text>
<text text-anchor="start" x="174.5" y="-446.2" font-family="Helvetica,sans-Serif" font-size="11.00">[table]</text>
<polygon fill="none" stroke="black" points="8.5,-416 8.5,-438 213.5,-438 213.5,-416 8.5,-416"/>
<image xlink:href="../../images/primaryKeys.png" width="11px" height="12px" preserveAspectRatio="xMinYMin meet" x="13.5" y="-433"/>
<text text-anchor="start" x="28.5" y="-424.2" font-family="Helvetica,sans-Serif" font-size="11.00">id</text>
<polygon fill="#ffffff" stroke="none" points="8.5,-394 8.5,-416 213.5,-416 213.5,-394 8.5,-394"/>
<polygon fill="none" stroke="black" points="8.5,-394 8.5,-416 213.5,-416 213.5,-394 8.5,-394"/>
<text text-anchor="start" x="28.5" y="-402.2" font-family="Helvetica,sans-Serif" font-size="11.00">name</text>
<polygon fill="#ffffff" stroke="none" points="8.5,-372 8.5,-394 213.5,-394 213.5,-372 8.5,-372"/>
<polygon fill="none" stroke="black" points="8.5,-372 8.5,-394 213.5,-394 213.5,-372 8.5,-372"/>
<text text-anchor="start" x="28.5" y="-380.2" font-family="Helvetica,sans-Serif" font-size="11.00">location</text>
<polygon fill="#ffffff" stroke="none" points="8.5,-350 8.5,-372 213.5,-372 213.5,-350 8.5,-350"/>
<polygon fill="none" stroke="black" points="8.5,-350 8.5,-372 213.5,-372 213.5,-350 8.5,-350"/>
<text text-anchor="start" x="28.5" y="-358.2" font-family="Helvetica,sans-Serif" font-size="11.00">ems_id</text>
<polygon fill="none" stroke="black" points="8.5,-332 8.5,-350 213.5,-350 213.5,-332 8.5,-332"/>
<text text-anchor="start" x="11.5" y="-338.2" font-family="Helvetica,sans-Serif" font-size="11.00">...</text>
<polygon fill="#ffffff" stroke="none" points="8.5,-314 8.5,-332 99.5,-332 99.5,-314 8.5,-314"/>
<polygon fill="none" stroke="black" points="8.5,-314 8.5,-332 99.5,-332 99.5,-314 8.5,-314"/>
<text text-anchor="start" x="11.5" y="-320.2" font-family="Helvetica,sans-Serif" font-size="11.00"> &#160;</text>
<polygon fill="#ffffff" stroke="none" points="99.5,-314 99.5,-332 151.5,-332 151.5,-314 99.5,-314"/>
<polygon fill="none" stroke="black" points="99.5,-314 99.5,-332 151.5,-332 151.5,-314 99.5,-314"/>
<text text-anchor="start" x="141.5" y="-320.2" font-family="Helvetica,sans-Serif" font-size="11.00"> &#160;</text>
<polygon fill="#ffffff" stroke="none" points="151.5,-314 151.5,-332 213.5,-332 213.5,-314 151.5,-314"/>
<polygon fill="none" stroke="black" points="151.5,-314 151.5,-332 213.5,-332 213.5,-314 151.5,-314"/>
<text text-anchor="start" x="193.5" y="-320.2" font-family="Helvetica,sans-Serif" font-size="11.00">8 &gt;</text>
</a>
</g>
</g>
<!-- host_storages&#45;&gt;storages -->
<g id="edge2" class="edge"><title>host_storages:storage_id:w&#45;&gt;storages:id:e</title>
<path fill="none" stroke="black" d="M249.226,-358.79C231.568,-375.03 247.366,-427 214.5,-427"/>
<polygon fill="black" stroke="black" points="255.444,-356.628 264.182,-357.4 259.222,-355.314 263,-354 263,-354 263,-354 259.222,-355.314 261.818,-350.6 255.444,-356.628 255.444,-356.628"/>
<ellipse fill="none" stroke="black" cx="252.421" cy="-357.679" rx="3.20001" ry="3.20001"/>
</g>
</g>
</svg>
