<?xml version="1.0" encoding="UTF-8" standalone="no"?>
<!DOCTYPE svg PUBLIC "-//W3C//DTD SVG 1.1//EN"
 "http://www.w3.org/Graphics/SVG/1.1/DTD/svg11.dtd">
<!-- Generated by graphviz version 2.38.0 (20140413.2041)
 -->
<!-- Title: twoDegreesRelationshipsDiagram Pages: 1 -->
<svg width="1180pt" height="738pt"
 viewBox="0.00 0.00 1180.00 738.00" xmlns="http://www.w3.org/2000/svg" xmlns:xlink="http://www.w3.org/1999/xlink">
<g id="graph0" class="graph" transform="scale(1 1) rotate(0) translate(4 734)">
<title>twoDegreesRelationshipsDiagram</title>
<polygon fill="#ffffff" stroke="none" points="-4,4 -4,-734 1176,-734 1176,4 -4,4"/>
<text text-anchor="middle" x="74.5" y="-7.2" font-family="Helvetica,sans-Serif" font-size="11.00">Generated by SchemaSpy</text>
<!-- canisters -->
<g id="node1" class="node"><title>canisters</title>
<g id="a_node1"><a xlink:href="../../tables/canisters.html" xlink:title="canisters" target="_top">
<polygon fill="#ffffff" stroke="none" points="564,-116 564,-174 664,-174 664,-116 564,-116"/>
<polygon fill="#f5f5f5" stroke="none" points="564,-152 564,-174 664,-174 664,-152 564,-152"/>
<polygon fill="none" stroke="black" points="564,-152 564,-174 664,-174 664,-152 564,-152"/>
<text text-anchor="start" x="569" y="-161.2" font-family="Helvetica,sans-Serif" font-weight="bold" font-size="11.00">canisters</text>
<text text-anchor="start" x="625" y="-160.2" font-family="Helvetica,sans-Serif" font-size="11.00">[table]</text>
<polygon fill="none" stroke="black" points="564,-134 564,-152 664,-152 664,-134 564,-134"/>
<text text-anchor="start" x="567" y="-140.2" font-family="Helvetica,sans-Serif" font-size="11.00">...</text>
<polygon fill="#ffffff" stroke="none" points="564,-116 564,-134 607,-134 607,-116 564,-116"/>
<polygon fill="none" stroke="black" points="564,-116 564,-134 607,-134 607,-116 564,-116"/>
<text text-anchor="start" x="567" y="-122.2" font-family="Helvetica,sans-Serif" font-size="11.00">&lt; 1</text>
<polygon fill="#ffffff" stroke="none" points="607,-116 607,-134 630,-134 630,-116 607,-116"/>
<polygon fill="none" stroke="black" points="607,-116 607,-134 630,-134 630,-116 607,-116"/>
<text text-anchor="start" x="620" y="-122.2" font-family="Helvetica,sans-Serif" font-size="11.00"> &#160;</text>
<polygon fill="#ffffff" stroke="none" points="630,-116 630,-134 664,-134 664,-116 630,-116"/>
<polygon fill="none" stroke="black" points="630,-116 630,-134 664,-134 664,-116 630,-116"/>
<text text-anchor="start" x="644" y="-122.2" font-family="Helvetica,sans-Serif" font-size="11.00">2 &gt;</text>
</a>
</g>
</g>
<!-- physical_storages -->
<g id="node2" class="node"><title>physical_storages</title>
<g id="a_node2"><a xlink:href="../../tables/physical_storages.html" xlink:title="physical_storages" target="_top">
<polygon fill="#ffffff" stroke="none" points="250,-158 250,-282 429,-282 429,-158 250,-158"/>
<polygon fill="#f5f5f5" stroke="none" points="250.5,-260 250.5,-282 429.5,-282 429.5,-260 250.5,-260"/>
<polygon fill="none" stroke="black" points="250.5,-260 250.5,-282 429.5,-282 429.5,-260 250.5,-260"/>
<text text-anchor="start" x="255.5" y="-269.2" font-family="Helvetica,sans-Serif" font-weight="bold" font-size="11.00">physical_storages</text>
<text text-anchor="start" x="390.5" y="-268.2" font-family="Helvetica,sans-Serif" font-size="11.00">[table]</text>
<polygon fill="none" stroke="black" points="250.5,-238 250.5,-260 429.5,-260 429.5,-238 250.5,-238"/>
<image xlink:href="../../images/primaryKeys.png" width="11px" height="12px" preserveAspectRatio="xMinYMin meet" x="255.5" y="-255"/>
<text text-anchor="start" x="270.5" y="-246.2" font-family="Helvetica,sans-Serif" font-size="11.00">id</text>
<polygon fill="none" stroke="black" points="250.5,-216 250.5,-238 429.5,-238 429.5,-216 250.5,-216"/>
<image xlink:href="../../images/foreignKeys.png" width="11px" height="12px" preserveAspectRatio="xMinYMin meet" x="255.5" y="-233"/>
<text text-anchor="start" x="270.5" y="-224.2" font-family="Helvetica,sans-Serif" font-size="11.00">physical_rack_id</text>
<polygon fill="#ffffff" stroke="none" points="250.5,-194 250.5,-216 429.5,-216 429.5,-194 250.5,-194"/>
<polygon fill="none" stroke="black" points="250.5,-194 250.5,-216 429.5,-216 429.5,-194 250.5,-194"/>
<image xlink:href="../../images/foreignKeys.png" width="11px" height="12px" preserveAspectRatio="xMinYMin meet" x="255.5" y="-211"/>
<text text-anchor="start" x="270.5" y="-202.2" font-family="Helvetica,sans-Serif" font-size="11.00">physical_storage_family_id</text>
<polygon fill="none" stroke="black" points="250.5,-176 250.5,-194 429.5,-194 429.5,-176 250.5,-176"/>
<text text-anchor="start" x="253.5" y="-182.2" font-family="Helvetica,sans-Serif" font-size="11.00">...</text>
<polygon fill="#ffffff" stroke="none" points="250.5,-158 250.5,-176 333.5,-176 333.5,-158 250.5,-158"/>
<polygon fill="none" stroke="black" points="250.5,-158 250.5,-176 333.5,-176 333.5,-158 250.5,-158"/>
<text text-anchor="start" x="253.5" y="-164.2" font-family="Helvetica,sans-Serif" font-size="11.00">&lt; 2</text>
<polygon fill="#ffffff" stroke="none" points="333.5,-158 333.5,-176 376.5,-176 376.5,-158 333.5,-158"/>
<polygon fill="none" stroke="black" points="333.5,-158 333.5,-176 376.5,-176 376.5,-158 333.5,-158"/>
<text text-anchor="start" x="366.5" y="-164.2" font-family="Helvetica,sans-Serif" font-size="11.00"> &#160;</text>
<polygon fill="#ffffff" stroke="none" points="376.5,-158 376.5,-176 429.5,-176 429.5,-158 376.5,-158"/>
<polygon fill="none" stroke="black" points="376.5,-158 376.5,-176 429.5,-176 429.5,-158 376.5,-158"/>
<text text-anchor="start" x="409.5" y="-164.2" font-family="Helvetica,sans-Serif" font-size="11.00">7 &gt;</text>
</a>
</g>
</g>
<!-- canisters&#45;&gt;physical_storages -->
<g id="edge1" class="edge"><title>canisters:elipses:w&#45;&gt;physical_storages:id:e</title>
<path fill="none" stroke="black" d="M548.595,-143.564C513.934,-146.512 500.519,-161.048 470,-188 445.79,-209.38 462.799,-249 430.5,-249"/>
<polygon fill="black" stroke="black" points="555.006,-143.313 563.141,-146.597 559.003,-143.157 563,-143 563,-143 563,-143 559.003,-143.157 562.859,-139.403 555.006,-143.313 555.006,-143.313"/>
<ellipse fill="none" stroke="black" cx="551.809" cy="-143.438" rx="3.2" ry="3.2"/>
</g>
<!-- physical_racks -->
<g id="node9" class="node"><title>physical_racks</title>
<g id="a_node9"><a xlink:href="../../tables/physical_racks.html" xlink:title="physical_racks" target="_top">
<polygon fill="#ffffff" stroke="none" points="39.5,-229 39.5,-287 169.5,-287 169.5,-229 39.5,-229"/>
<polygon fill="#f5f5f5" stroke="none" points="39.5,-265 39.5,-287 169.5,-287 169.5,-265 39.5,-265"/>
<polygon fill="none" stroke="black" points="39.5,-265 39.5,-287 169.5,-287 169.5,-265 39.5,-265"/>
<text text-anchor="start" x="44.5" y="-274.2" font-family="Helvetica,sans-Serif" font-weight="bold" font-size="11.00">physical_racks</text>
<text text-anchor="start" x="130.5" y="-273.2" font-family="Helvetica,sans-Serif" font-size="11.00">[table]</text>
<polygon fill="none" stroke="black" points="39.5,-247 39.5,-265 169.5,-265 169.5,-247 39.5,-247"/>
<text text-anchor="start" x="42.5" y="-253.2" font-family="Helvetica,sans-Serif" font-size="11.00">...</text>
<polygon fill="#ffffff" stroke="none" points="39.5,-229 39.5,-247 92.5,-247 92.5,-229 39.5,-229"/>
<polygon fill="none" stroke="black" points="39.5,-229 39.5,-247 92.5,-247 92.5,-229 39.5,-229"/>
<text text-anchor="start" x="42.5" y="-235.2" font-family="Helvetica,sans-Serif" font-size="11.00"> &#160;</text>
<polygon fill="#ffffff" stroke="none" points="92.5,-229 92.5,-247 125.5,-247 125.5,-229 92.5,-229"/>
<polygon fill="none" stroke="black" points="92.5,-229 92.5,-247 125.5,-247 125.5,-229 92.5,-229"/>
<text text-anchor="start" x="115.5" y="-235.2" font-family="Helvetica,sans-Serif" font-size="11.00"> &#160;</text>
<polygon fill="#ffffff" stroke="none" points="125.5,-229 125.5,-247 169.5,-247 169.5,-229 125.5,-229"/>
<polygon fill="none" stroke="black" points="125.5,-229 125.5,-247 169.5,-247 169.5,-229 125.5,-229"/>
<text text-anchor="start" x="149.5" y="-235.2" font-family="Helvetica,sans-Serif" font-size="11.00">3 &gt;</text>
</a>
</g>
</g>
<!-- physical_storages&#45;&gt;physical_racks -->
<g id="edge9" class="edge"><title>physical_storages:physical_rack_id:w&#45;&gt;physical_racks:elipses:e</title>
<path fill="none" stroke="black" d="M235.163,-228.642C210.191,-234.777 202.496,-256 170.5,-256"/>
<polygon fill="black" stroke="black" points="241.552,-227.91 249.91,-230.577 245.526,-227.455 249.5,-227 249.5,-227 249.5,-227 245.526,-227.455 249.09,-223.423 241.552,-227.91 241.552,-227.91"/>
<ellipse fill="none" stroke="black" cx="238.373" cy="-228.275" rx="3.2" ry="3.2"/>
</g>
<!-- physical_storage_families -->
<g id="node10" class="node"><title>physical_storage_families</title>
<g id="a_node10"><a xlink:href="../../tables/physical_storage_families.html" xlink:title="physical_storage_families" target="_top">
<polygon fill="#ffffff" stroke="none" points="8,-150 8,-208 201,-208 201,-150 8,-150"/>
<polygon fill="#f5f5f5" stroke="none" points="8.5,-186 8.5,-208 201.5,-208 201.5,-186 8.5,-186"/>
<polygon fill="none" stroke="black" points="8.5,-186 8.5,-208 201.5,-208 201.5,-186 8.5,-186"/>
<text text-anchor="start" x="13.5" y="-195.2" font-family="Helvetica,sans-Serif" font-weight="bold" font-size="11.00">physical_storage_families</text>
<text text-anchor="start" x="162.5" y="-194.2" font-family="Helvetica,sans-Serif" font-size="11.00">[table]</text>
<polygon fill="none" stroke="black" points="8.5,-168 8.5,-186 201.5,-186 201.5,-168 8.5,-168"/>
<text text-anchor="start" x="11.5" y="-174.2" font-family="Helvetica,sans-Serif" font-size="11.00">...</text>
<polygon fill="#ffffff" stroke="none" points="8.5,-150 8.5,-168 93.5,-168 93.5,-150 8.5,-150"/>
<polygon fill="none" stroke="black" points="8.5,-150 8.5,-168 93.5,-168 93.5,-150 8.5,-150"/>
<text text-anchor="start" x="11.5" y="-156.2" font-family="Helvetica,sans-Serif" font-size="11.00"> &#160;</text>
<polygon fill="#ffffff" stroke="none" points="93.5,-150 93.5,-168 142.5,-168 142.5,-150 93.5,-150"/>
<polygon fill="none" stroke="black" points="93.5,-150 93.5,-168 142.5,-168 142.5,-150 93.5,-150"/>
<text text-anchor="start" x="132.5" y="-156.2" font-family="Helvetica,sans-Serif" font-size="11.00"> &#160;</text>
<polygon fill="#ffffff" stroke="none" points="142.5,-150 142.5,-168 201.5,-168 201.5,-150 142.5,-150"/>
<polygon fill="none" stroke="black" points="142.5,-150 142.5,-168 201.5,-168 201.5,-150 142.5,-150"/>
<text text-anchor="start" x="181.5" y="-156.2" font-family="Helvetica,sans-Serif" font-size="11.00">1 &gt;</text>
</a>
</g>
</g>
<!-- physical_storages&#45;&gt;physical_storage_families -->
<g id="edge10" class="edge"><title>physical_storages:physical_storage_family_id:w&#45;&gt;physical_storage_families:elipses:e</title>
<path fill="none" stroke="black" d="M235.662,-200.869C224.453,-193.08 220.926,-177 202.5,-177"/>
<polygon fill="black" stroke="black" points="241.834,-202.711 248.47,-208.45 245.667,-203.856 249.5,-205 249.5,-205 249.5,-205 245.667,-203.856 250.53,-201.55 241.834,-202.711 241.834,-202.711"/>
<ellipse fill="none" stroke="black" cx="238.768" cy="-201.796" rx="3.20001" ry="3.20001"/>
</g>
<!-- cloud_volumes -->
<g id="node3" class="node"><title>cloud_volumes</title>
<g id="a_node3"><a xlink:href="../../tables/cloud_volumes.html" xlink:title="cloud_volumes" target="_top">
<polygon fill="#ffffff" stroke="none" points="811.5,-668 811.5,-726 944.5,-726 944.5,-668 811.5,-668"/>
<polygon fill="#f5f5f5" stroke="none" points="812,-704 812,-726 945,-726 945,-704 812,-704"/>
<polygon fill="none" stroke="black" points="812,-704 812,-726 945,-726 945,-704 812,-704"/>
<text text-anchor="start" x="817" y="-713.2" font-family="Helvetica,sans-Serif" font-weight="bold" font-size="11.00">cloud_volumes</text>
<text text-anchor="start" x="906" y="-712.2" font-family="Helvetica,sans-Serif" font-size="11.00">[table]</text>
<polygon fill="none" stroke="black" points="812,-686 812,-704 945,-704 945,-686 812,-686"/>
<text text-anchor="start" x="815" y="-692.2" font-family="Helvetica,sans-Serif" font-size="11.00">...</text>
<polygon fill="#ffffff" stroke="none" points="812,-668 812,-686 872,-686 872,-668 812,-668"/>
<polygon fill="none" stroke="black" points="812,-668 812,-686 872,-686 872,-668 812,-668"/>
<text text-anchor="start" x="815" y="-674.2" font-family="Helvetica,sans-Serif" font-size="11.00">&lt; 5</text>
<polygon fill="#ffffff" stroke="none" points="872,-668 872,-686 903,-686 903,-668 872,-668"/>
<polygon fill="none" stroke="black" points="872,-668 872,-686 903,-686 903,-668 872,-668"/>
<text text-anchor="start" x="893" y="-674.2" font-family="Helvetica,sans-Serif" font-size="11.00"> &#160;</text>
<polygon fill="#ffffff" stroke="none" points="903,-668 903,-686 945,-686 945,-668 903,-668"/>
<polygon fill="none" stroke="black" points="903,-668 903,-686 945,-686 945,-668 903,-668"/>
<text text-anchor="start" x="925" y="-674.2" font-family="Helvetica,sans-Serif" font-size="11.00">3 &gt;</text>
</a>
</g>
</g>
<!-- storage_resources -->
<g id="node4" class="node"><title>storage_resources</title>
<g id="a_node4"><a xlink:href="../../tables/storage_resources.html" xlink:title="storage_resources" target="_top">
<polygon fill="#ffffff" stroke="none" points="539,-650 539,-708 689,-708 689,-650 539,-650"/>
<polygon fill="#f5f5f5" stroke="none" points="539,-686 539,-708 689,-708 689,-686 539,-686"/>
<polygon fill="none" stroke="black" points="539,-686 539,-708 689,-708 689,-686 539,-686"/>
<text text-anchor="start" x="544" y="-695.2" font-family="Helvetica,sans-Serif" font-weight="bold" font-size="11.00">storage_resources</text>
<text text-anchor="start" x="650" y="-694.2" font-family="Helvetica,sans-Serif" font-size="11.00">[table]</text>
<polygon fill="none" stroke="black" points="539,-668 539,-686 689,-686 689,-668 539,-668"/>
<text text-anchor="start" x="542" y="-674.2" font-family="Helvetica,sans-Serif" font-size="11.00">...</text>
<polygon fill="#ffffff" stroke="none" points="539,-650 539,-668 607,-668 607,-650 539,-650"/>
<polygon fill="none" stroke="black" points="539,-650 539,-668 607,-668 607,-650 539,-650"/>
<text text-anchor="start" x="542" y="-656.2" font-family="Helvetica,sans-Serif" font-size="11.00">&lt; 1</text>
<polygon fill="#ffffff" stroke="none" points="607,-650 607,-668 643,-668 643,-650 607,-650"/>
<polygon fill="none" stroke="black" points="607,-650 607,-668 643,-668 643,-650 607,-650"/>
<text text-anchor="start" x="633" y="-656.2" font-family="Helvetica,sans-Serif" font-size="11.00"> &#160;</text>
<polygon fill="#ffffff" stroke="none" points="643,-650 643,-668 689,-668 689,-650 643,-650"/>
<polygon fill="none" stroke="black" points="643,-650 643,-668 689,-668 689,-650 643,-650"/>
<text text-anchor="start" x="669" y="-656.2" font-family="Helvetica,sans-Serif" font-size="11.00">2 &gt;</text>
</a>
</g>
</g>
<!-- cloud_volumes&#45;&gt;storage_resources -->
<g id="edge2" class="edge"><title>cloud_volumes:elipses:w&#45;&gt;storage_resources:elipses:e</title>
<path fill="none" stroke="black" d="M796.473,-694.537C753.898,-691.72 739.166,-677 690,-677"/>
<polygon fill="black" stroke="black" points="803.004,-694.745 810.885,-698.598 807.002,-694.873 811,-695 811,-695 811,-695 807.002,-694.873 811.115,-691.402 803.004,-694.745 803.004,-694.745"/>
<ellipse fill="none" stroke="black" cx="799.806" cy="-694.643" rx="3.2" ry="3.2"/>
</g>
<!-- storage_resources&#45;&gt;physical_storages -->
<g id="edge11" class="edge"><title>storage_resources:elipses:w&#45;&gt;physical_storages:id:e</title>
<path fill="none" stroke="black" d="M523.49,-675.568C490.987,-668.499 486.359,-636.16 470,-599 438.463,-527.363 508.772,-249 430.5,-249"/>
<polygon fill="black" stroke="black" points="530.039,-676.215 537.647,-680.583 534.019,-676.607 538,-677 538,-677 538,-677 534.019,-676.607 538.353,-673.417 530.039,-676.215 530.039,-676.215"/>
<ellipse fill="none" stroke="black" cx="526.854" cy="-675.9" rx="3.2" ry="3.2"/>
</g>
<!-- event_streams -->
<g id="node5" class="node"><title>event_streams</title>
<g id="a_node5"><a xlink:href="../../tables/event_streams.html" xlink:title="event_streams" target="_top">
<polygon fill="#ffffff" stroke="none" points="548,-222 548,-280 680,-280 680,-222 548,-222"/>
<polygon fill="#f5f5f5" stroke="none" points="548,-258 548,-280 680,-280 680,-258 548,-258"/>
<polygon fill="none" stroke="black" points="548,-258 548,-280 680,-280 680,-258 548,-258"/>
<text text-anchor="start" x="553" y="-267.2" font-family="Helvetica,sans-Serif" font-weight="bold" font-size="11.00">event_streams</text>
<text text-anchor="start" x="641" y="-266.2" font-family="Helvetica,sans-Serif" font-size="11.00">[table]</text>
<polygon fill="none" stroke="black" points="548,-240 548,-258 680,-258 680,-240 548,-240"/>
<text text-anchor="start" x="551" y="-246.2" font-family="Helvetica,sans-Serif" font-size="11.00">...</text>
<polygon fill="#ffffff" stroke="none" points="548,-222 548,-240 616,-240 616,-222 548,-222"/>
<polygon fill="none" stroke="black" points="548,-222 548,-240 616,-240 616,-222 548,-222"/>
<text text-anchor="start" x="551" y="-228.2" font-family="Helvetica,sans-Serif" font-size="11.00">&lt; 11</text>
<polygon fill="#ffffff" stroke="none" points="616,-222 616,-240 648,-240 648,-222 616,-222"/>
<polygon fill="none" stroke="black" points="616,-222 616,-240 648,-240 648,-222 616,-222"/>
<text text-anchor="start" x="638" y="-228.2" font-family="Helvetica,sans-Serif" font-size="11.00"> &#160;</text>
<polygon fill="#ffffff" stroke="none" points="648,-222 648,-240 680,-240 680,-222 648,-222"/>
<polygon fill="none" stroke="black" points="648,-222 648,-240 680,-240 680,-222 648,-222"/>
<text text-anchor="start" x="670" y="-228.2" font-family="Helvetica,sans-Serif" font-size="11.00"> &#160;</text>
</a>
</g>
</g>
<!-- event_streams&#45;&gt;physical_storages -->
<g id="edge3" class="edge"><title>event_streams:elipses:w&#45;&gt;physical_storages:id:e</title>
<path fill="none" stroke="black" d="M532.344,-249C492.192,-249 477.019,-249 430.5,-249"/>
<polygon fill="black" stroke="black" points="539,-249 547,-252.6 543,-249 547,-249 547,-249 547,-249 543,-249 547,-245.4 539,-249 539,-249"/>
<ellipse fill="none" stroke="black" cx="535.8" cy="-249" rx="3.2" ry="3.2"/>
</g>
<!-- host_initiator_groups -->
<g id="node6" class="node"><title>host_initiator_groups</title>
<g id="a_node6"><a xlink:href="../../tables/host_initiator_groups.html" xlink:title="host_initiator_groups" target="_top">
<polygon fill="#ffffff" stroke="none" points="478,-301 478,-565 750,-565 750,-301 478,-301"/>
<polygon fill="#f5f5f5" stroke="none" points="480,-541 480,-563 748,-563 748,-541 480,-541"/>
<polygon fill="none" stroke="black" points="480,-541 480,-563 748,-563 748,-541 480,-541"/>
<text text-anchor="start" x="485" y="-550.2" font-family="Helvetica,sans-Serif" font-weight="bold" font-size="11.00">host_initiator_groups</text>
<text text-anchor="start" x="709" y="-549.2" font-family="Helvetica,sans-Serif" font-size="11.00">[table]</text>
<polygon fill="none" stroke="black" points="480,-519 480,-541 627,-541 627,-519 480,-519"/>
<image xlink:href="../../images/primaryKeys.png" width="11px" height="12px" preserveAspectRatio="xMinYMin meet" x="485" y="-536"/>
<text text-anchor="start" x="500" y="-527.2" font-family="Helvetica,sans-Serif" font-size="11.00">id</text>
<polygon fill="none" stroke="black" points="627,-519 627,-541 748,-541 748,-519 627,-519"/>
<text text-anchor="start" x="630" y="-527.2" font-family="Helvetica,sans-Serif" font-size="11.00">bigserial[19]</text>
<polygon fill="#ffffff" stroke="none" points="480,-497 480,-519 627,-519 627,-497 480,-497"/>
<polygon fill="none" stroke="black" points="480,-497 480,-519 627,-519 627,-497 480,-497"/>
<text text-anchor="start" x="500" y="-505.2" font-family="Helvetica,sans-Serif" font-size="11.00">ems_id</text>
<polygon fill="none" stroke="black" points="627,-497 627,-519 748,-519 748,-497 627,-497"/>
<text text-anchor="start" x="630" y="-505.2" font-family="Helvetica,sans-Serif" font-size="11.00">int8[19]</text>
<polygon fill="#ffffff" stroke="none" points="480,-475 480,-497 627,-497 627,-475 480,-475"/>
<polygon fill="none" stroke="black" points="480,-475 480,-497 627,-497 627,-475 480,-475"/>
<image xlink:href="../../images/foreignKeys.png" width="11px" height="12px" preserveAspectRatio="xMinYMin meet" x="485" y="-492"/>
<text text-anchor="start" x="500" y="-483.2" font-family="Helvetica,sans-Serif" font-size="11.00">physical_storage_id</text>
<polygon fill="none" stroke="black" points="627,-475 627,-497 748,-497 748,-475 627,-475"/>
<text text-anchor="start" x="630" y="-483.2" font-family="Helvetica,sans-Serif" font-size="11.00">int8[19]</text>
<polygon fill="none" stroke="black" points="480,-453 480,-475 627,-475 627,-453 480,-453"/>
<text text-anchor="start" x="500" y="-461.2" font-family="Helvetica,sans-Serif" font-size="11.00">name</text>
<polygon fill="none" stroke="black" points="627,-453 627,-475 748,-475 748,-453 627,-453"/>
<text text-anchor="start" x="630" y="-461.2" font-family="Helvetica,sans-Serif" font-size="11.00">varchar[2147483647]</text>
<polygon fill="none" stroke="black" points="480,-431 480,-453 627,-453 627,-431 480,-431"/>
<text text-anchor="start" x="500" y="-439.2" font-family="Helvetica,sans-Serif" font-size="11.00">status</text>
<polygon fill="none" stroke="black" points="627,-431 627,-453 748,-453 748,-431 627,-431"/>
<text text-anchor="start" x="630" y="-439.2" font-family="Helvetica,sans-Serif" font-size="11.00">varchar[2147483647]</text>
<polygon fill="none" stroke="black" points="480,-409 480,-431 627,-431 627,-409 480,-409"/>
<text text-anchor="start" x="500" y="-417.2" font-family="Helvetica,sans-Serif" font-size="11.00">ems_ref</text>
<polygon fill="none" stroke="black" points="627,-409 627,-431 748,-431 748,-409 627,-409"/>
<text text-anchor="start" x="630" y="-417.2" font-family="Helvetica,sans-Serif" font-size="11.00">varchar[2147483647]</text>
<polygon fill="none" stroke="black" points="480,-387 480,-409 627,-409 627,-387 480,-387"/>
<text text-anchor="start" x="500" y="-395.2" font-family="Helvetica,sans-Serif" font-size="11.00">uid_ems</text>
<polygon fill="none" stroke="black" points="627,-387 627,-409 748,-409 748,-387 627,-387"/>
<text text-anchor="start" x="630" y="-395.2" font-family="Helvetica,sans-Serif" font-size="11.00">varchar[2147483647]</text>
<polygon fill="none" stroke="black" points="480,-365 480,-387 627,-387 627,-365 480,-365"/>
<text text-anchor="start" x="500" y="-373.2" font-family="Helvetica,sans-Serif" font-size="11.00">created_at</text>
<polygon fill="none" stroke="black" points="627,-365 627,-387 748,-387 748,-365 627,-365"/>
<text text-anchor="start" x="630" y="-373.2" font-family="Helvetica,sans-Serif" font-size="11.00">timestamp[29,6]</text>
<polygon fill="none" stroke="black" points="480,-343 480,-365 627,-365 627,-343 480,-343"/>
<text text-anchor="start" x="500" y="-351.2" font-family="Helvetica,sans-Serif" font-size="11.00">updated_at</text>
<polygon fill="none" stroke="black" points="627,-343 627,-365 748,-365 748,-343 627,-343"/>
<text text-anchor="start" x="630" y="-351.2" font-family="Helvetica,sans-Serif" font-size="11.00">timestamp[29,6]</text>
<polygon fill="none" stroke="black" points="480,-321 480,-343 627,-343 627,-321 480,-321"/>
<text text-anchor="start" x="500" y="-329.2" font-family="Helvetica,sans-Serif" font-size="11.00">type</text>
<polygon fill="none" stroke="black" points="627,-321 627,-343 748,-343 748,-321 627,-321"/>
<text text-anchor="start" x="630" y="-329.2" font-family="Helvetica,sans-Serif" font-size="11.00">varchar[2147483647]</text>
<polygon fill="#ffffff" stroke="none" points="480,-303 480,-321 558,-321 558,-303 480,-303"/>
<polygon fill="none" stroke="black" points="480,-303 480,-321 558,-321 558,-303 480,-303"/>
<text text-anchor="start" x="483" y="-309.2" font-family="Helvetica,sans-Serif" font-size="11.00">&lt; 1</text>
<polygon fill="#ffffff" stroke="none" points="558,-303 558,-321 627,-321 627,-303 558,-303"/>
<polygon fill="none" stroke="black" points="558,-303 558,-321 627,-321 627,-303 558,-303"/>
<text text-anchor="start" x="617" y="-309.2" font-family="Helvetica,sans-Serif" font-size="11.00"> &#160;</text>
<polygon fill="#ffffff" stroke="none" points="627,-303 627,-321 748,-321 748,-303 627,-303"/>
<polygon fill="none" stroke="black" points="627,-303 627,-321 748,-321 748,-303 627,-303"/>
<text text-anchor="start" x="728" y="-309.2" font-family="Helvetica,sans-Serif" font-size="11.00">2 &gt;</text>
<polygon fill="none" stroke="black" stroke-width="2" points="479,-302 479,-564 749,-564 749,-302 479,-302"/>
</a>
</g>
</g>
<!-- host_initiator_groups&#45;&gt;physical_storages -->
<g id="edge4" class="edge"><title>host_initiator_groups:physical_storage_id:w&#45;&gt;physical_storages:id:e</title>
<path fill="none" stroke="black" d="M464.669,-484.229C387.69,-462.541 532.556,-249 430.5,-249"/>
<polygon fill="black" stroke="black" points="471.06,-485.019 478.558,-489.573 475.03,-485.509 479,-486 479,-486 479,-486 475.03,-485.509 479.442,-482.427 471.06,-485.019 471.06,-485.019"/>
<ellipse fill="none" stroke="black" cx="467.885" cy="-484.626" rx="3.2" ry="3.2"/>
</g>
<!-- host_initiators -->
<g id="node7" class="node"><title>host_initiators</title>
<g id="a_node7"><a xlink:href="../../tables/host_initiators.html" xlink:title="host_initiators" target="_top">
<polygon fill="#ffffff" stroke="none" points="799,-501 799,-647 957,-647 957,-501 799,-501"/>
<polygon fill="#f5f5f5" stroke="none" points="799,-625 799,-647 957,-647 957,-625 799,-625"/>
<polygon fill="none" stroke="black" points="799,-625 799,-647 957,-647 957,-625 799,-625"/>
<text text-anchor="start" x="804" y="-634.2" font-family="Helvetica,sans-Serif" font-weight="bold" font-size="11.00">host_initiators</text>
<text text-anchor="start" x="918" y="-633.2" font-family="Helvetica,sans-Serif" font-size="11.00">[table]</text>
<polygon fill="none" stroke="black" points="799,-603 799,-625 957,-625 957,-603 799,-603"/>
<image xlink:href="../../images/primaryKeys.png" width="11px" height="12px" preserveAspectRatio="xMinYMin meet" x="804" y="-620"/>
<text text-anchor="start" x="819" y="-611.2" font-family="Helvetica,sans-Serif" font-size="11.00">id</text>
<polygon fill="#ffffff" stroke="none" points="799,-581 799,-603 957,-603 957,-581 799,-581"/>
<polygon fill="none" stroke="black" points="799,-581 799,-603 957,-603 957,-581 799,-581"/>
<text text-anchor="start" x="819" y="-589.2" font-family="Helvetica,sans-Serif" font-size="11.00">ems_id</text>
<polygon fill="#ffffff" stroke="none" points="799,-559 799,-581 957,-581 957,-559 799,-559"/>
<polygon fill="none" stroke="black" points="799,-559 799,-581 957,-581 957,-559 799,-559"/>
<image xlink:href="../../images/foreignKeys.png" width="11px" height="12px" preserveAspectRatio="xMinYMin meet" x="804" y="-576"/>
<text text-anchor="start" x="819" y="-567.2" font-family="Helvetica,sans-Serif" font-size="11.00">physical_storage_id</text>
<polygon fill="#ffffff" stroke="none" points="799,-537 799,-559 957,-559 957,-537 799,-537"/>
<polygon fill="none" stroke="black" points="799,-537 799,-559 957,-559 957,-537 799,-537"/>
<image xlink:href="../../images/foreignKeys.png" width="11px" height="12px" preserveAspectRatio="xMinYMin meet" x="804" y="-554"/>
<text text-anchor="start" x="819" y="-545.2" font-family="Helvetica,sans-Serif" font-size="11.00">host_initiator_group_id</text>
<polygon fill="none" stroke="black" points="799,-519 799,-537 957,-537 957,-519 799,-519"/>
<text text-anchor="start" x="802" y="-525.2" font-family="Helvetica,sans-Serif" font-size="11.00">...</text>
<polygon fill="#ffffff" stroke="none" points="799,-501 799,-519 871,-519 871,-501 799,-501"/>
<polygon fill="none" stroke="black" points="799,-501 799,-519 871,-519 871,-501 799,-501"/>
<text text-anchor="start" x="802" y="-507.2" font-family="Helvetica,sans-Serif" font-size="11.00">&lt; 2</text>
<polygon fill="#ffffff" stroke="none" points="871,-501 871,-519 909,-519 909,-501 871,-501"/>
<polygon fill="none" stroke="black" points="871,-501 871,-519 909,-519 909,-501 871,-501"/>
<text text-anchor="start" x="899" y="-507.2" font-family="Helvetica,sans-Serif" font-size="11.00"> &#160;</text>
<polygon fill="#ffffff" stroke="none" points="909,-501 909,-519 957,-519 957,-501 909,-501"/>
<polygon fill="none" stroke="black" points="909,-501 909,-519 957,-519 957,-501 909,-501"/>
<text text-anchor="start" x="937" y="-507.2" font-family="Helvetica,sans-Serif" font-size="11.00">1 &gt;</text>
</a>
</g>
</g>
<!-- host_initiators&#45;&gt;physical_storages -->
<g id="edge6" class="edge"><title>host_initiators:physical_storage_id:w&#45;&gt;physical_storages:id:e</title>
<path fill="none" stroke="black" d="M783.532,-571.276C775.71,-572.758 769.905,-575.112 758,-576 630.355,-585.52 565.783,-660.909 470,-576 415.228,-527.446 503.695,-249 430.5,-249"/>
<polygon fill="black" stroke="black" points="790.031,-570.703 798.316,-573.586 794.015,-570.351 798,-570 798,-570 798,-570 794.015,-570.351 797.684,-566.414 790.031,-570.703 790.031,-570.703"/>
<ellipse fill="none" stroke="black" cx="786.843" cy="-570.984" rx="3.2" ry="3.2"/>
</g>
<!-- host_initiators&#45;&gt;host_initiator_groups -->
<g id="edge5" class="edge"><title>host_initiators:host_initiator_group_id:w&#45;&gt;host_initiator_groups:id.type:e</title>
<path fill="none" stroke="black" d="M783.819,-545.188C772.212,-540.125 766.401,-530 749,-530"/>
<polygon fill="black" stroke="black" points="790.153,-546.444 797.3,-551.531 794.076,-547.222 798,-548 798,-548 798,-548 794.076,-547.222 798.7,-544.469 790.153,-546.444 790.153,-546.444"/>
<ellipse fill="none" stroke="black" cx="787.014" cy="-545.821" rx="3.2" ry="3.2"/>
</g>
<!-- physical_disks -->
<g id="node8" class="node"><title>physical_disks</title>
<g id="a_node8"><a xlink:href="../../tables/physical_disks.html" xlink:title="physical_disks" target="_top">
<polygon fill="#ffffff" stroke="none" points="813.5,-144 813.5,-202 942.5,-202 942.5,-144 813.5,-144"/>
<polygon fill="#f5f5f5" stroke="none" points="814,-180 814,-202 943,-202 943,-180 814,-180"/>
<polygon fill="none" stroke="black" points="814,-180 814,-202 943,-202 943,-180 814,-180"/>
<text text-anchor="start" x="819" y="-189.2" font-family="Helvetica,sans-Serif" font-weight="bold" font-size="11.00">physical_disks</text>
<text text-anchor="start" x="904" y="-188.2" font-family="Helvetica,sans-Serif" font-size="11.00">[table]</text>
<polygon fill="none" stroke="black" points="814,-162 814,-180 943,-180 943,-162 814,-162"/>
<text text-anchor="start" x="817" y="-168.2" font-family="Helvetica,sans-Serif" font-size="11.00">...</text>
<polygon fill="#ffffff" stroke="none" points="814,-144 814,-162 877,-162 877,-144 814,-144"/>
<polygon fill="none" stroke="black" points="814,-144 814,-162 877,-162 877,-144 814,-144"/>
<text text-anchor="start" x="817" y="-150.2" font-family="Helvetica,sans-Serif" font-size="11.00">&lt; 2</text>
<polygon fill="#ffffff" stroke="none" points="877,-144 877,-162 910,-162 910,-144 877,-144"/>
<polygon fill="none" stroke="black" points="877,-144 877,-162 910,-162 910,-144 877,-144"/>
<text text-anchor="start" x="900" y="-150.2" font-family="Helvetica,sans-Serif" font-size="11.00"> &#160;</text>
<polygon fill="#ffffff" stroke="none" points="910,-144 910,-162 943,-162 943,-144 910,-144"/>
<polygon fill="none" stroke="black" points="910,-144 910,-162 943,-162 943,-144 910,-144"/>
<text text-anchor="start" x="933" y="-150.2" font-family="Helvetica,sans-Serif" font-size="11.00"> &#160;</text>
</a>
</g>
</g>
<!-- physical_disks&#45;&gt;canisters -->
<g id="edge7" class="edge"><title>physical_disks:elipses:w&#45;&gt;canisters:elipses:e</title>
<path fill="none" stroke="black" d="M798.575,-170.537C743.599,-166.897 726.845,-143 665,-143"/>
<polygon fill="black" stroke="black" points="805.004,-170.744 812.885,-174.598 809.002,-170.872 813,-171 813,-171 813,-171 809.002,-170.872 813.115,-167.402 805.004,-170.744 805.004,-170.744"/>
<ellipse fill="none" stroke="black" cx="801.806" cy="-170.641" rx="3.2" ry="3.2"/>
</g>
<!-- physical_disks&#45;&gt;physical_storages -->
<g id="edge8" class="edge"><title>physical_disks:elipses:w&#45;&gt;physical_storages:id:e</title>
<path fill="none" stroke="black" d="M798.549,-172.215C784.562,-174.797 777.17,-180.851 758,-184 631.138,-204.836 586.871,-157.434 470,-211 447.855,-221.15 454.86,-249 430.5,-249"/>
<polygon fill="black" stroke="black" points="805.028,-171.67 813.302,-174.587 809.014,-171.335 813,-171 813,-171 813,-171 809.014,-171.335 812.698,-167.413 805.028,-171.67 805.028,-171.67"/>
<ellipse fill="none" stroke="black" cx="801.839" cy="-171.938" rx="3.2" ry="3.2"/>
</g>
<!-- volume_mappings -->
<g id="node11" class="node"><title>volume_mappings</title>
<g id="a_node11"><a xlink:href="../../tables/volume_mappings.html" xlink:title="volume_mappings" target="_top">
<polygon fill="#ffffff" stroke="none" points="1006,-545 1006,-713 1164,-713 1164,-545 1006,-545"/>
<polygon fill="#f5f5f5" stroke="none" points="1006,-691 1006,-713 1164,-713 1164,-691 1006,-691"/>
<polygon fill="none" stroke="black" points="1006,-691 1006,-713 1164,-713 1164,-691 1006,-691"/>
<text text-anchor="start" x="1011" y="-700.2" font-family="Helvetica,sans-Serif" font-weight="bold" font-size="11.00">volume_mappings</text>
<text text-anchor="start" x="1125" y="-699.2" font-family="Helvetica,sans-Serif" font-size="11.00">[table]</text>
<polygon fill="none" stroke="black" points="1006,-669 1006,-691 1164,-691 1164,-669 1006,-669"/>
<image xlink:href="../../images/primaryKeys.png" width="11px" height="12px" preserveAspectRatio="xMinYMin meet" x="1011" y="-686"/>
<text text-anchor="start" x="1026" y="-677.2" font-family="Helvetica,sans-Serif" font-size="11.00">id</text>
<polygon fill="#ffffff" stroke="none" points="1006,-647 1006,-669 1164,-669 1164,-647 1006,-647"/>
<polygon fill="none" stroke="black" points="1006,-647 1006,-669 1164,-669 1164,-647 1006,-647"/>
<text text-anchor="start" x="1026" y="-655.2" font-family="Helvetica,sans-Serif" font-size="11.00">ems_id</text>
<polygon fill="#ffffff" stroke="none" points="1006,-625 1006,-647 1164,-647 1164,-625 1006,-625"/>
<polygon fill="none" stroke="black" points="1006,-625 1006,-647 1164,-647 1164,-625 1006,-625"/>
<image xlink:href="../../images/foreignKeys.png" width="11px" height="12px" preserveAspectRatio="xMinYMin meet" x="1011" y="-642"/>
<text text-anchor="start" x="1026" y="-633.2" font-family="Helvetica,sans-Serif" font-size="11.00">cloud_volume_id</text>
<polygon fill="#ffffff" stroke="none" points="1006,-603 1006,-625 1164,-625 1164,-603 1006,-603"/>
<polygon fill="none" stroke="black" points="1006,-603 1006,-625 1164,-625 1164,-603 1006,-603"/>
<image xlink:href="../../images/foreignKeys.png" width="11px" height="12px" preserveAspectRatio="xMinYMin meet" x="1011" y="-620"/>
<text text-anchor="start" x="1026" y="-611.2" font-family="Helvetica,sans-Serif" font-size="11.00">host_initiator_id</text>
<polygon fill="#ffffff" stroke="none" points="1006,-581 1006,-603 1164,-603 1164,-581 1006,-581"/>
<polygon fill="none" stroke="black" points="1006,-581 1006,-603 1164,-603 1164,-581 1006,-581"/>
<image xlink:href="../../images/foreignKeys.png" width="11px" height="12px" preserveAspectRatio="xMinYMin meet" x="1011" y="-598"/>
<text text-anchor="start" x="1026" y="-589.2" font-family="Helvetica,sans-Serif" font-size="11.00">host_initiator_group_id</text>
<polygon fill="none" stroke="black" points="1006,-563 1006,-581 1164,-581 1164,-563 1006,-563"/>
<text text-anchor="start" x="1009" y="-569.2" font-family="Helvetica,sans-Serif" font-size="11.00">...</text>
<polygon fill="#ffffff" stroke="none" points="1006,-545 1006,-563 1083,-563 1083,-545 1006,-545"/>
<polygon fill="none" stroke="black" points="1006,-545 1006,-563 1083,-563 1083,-545 1006,-545"/>
<text text-anchor="start" x="1009" y="-551.2" font-family="Helvetica,sans-Serif" font-size="11.00">&lt; 3</text>
<polygon fill="#ffffff" stroke="none" points="1083,-545 1083,-563 1123,-563 1123,-545 1083,-545"/>
<polygon fill="none" stroke="black" points="1083,-545 1083,-563 1123,-563 1123,-545 1083,-545"/>
<text text-anchor="start" x="1113" y="-551.2" font-family="Helvetica,sans-Serif" font-size="11.00"> &#160;</text>
<polygon fill="#ffffff" stroke="none" points="1123,-545 1123,-563 1164,-563 1164,-545 1123,-545"/>
<polygon fill="none" stroke="black" points="1123,-545 1123,-563 1164,-563 1164,-545 1123,-545"/>
<text text-anchor="start" x="1154" y="-551.2" font-family="Helvetica,sans-Serif" font-size="11.00"> &#160;</text>
</a>
</g>
</g>
<!-- volume_mappings&#45;&gt;cloud_volumes -->
<g id="edge12" class="edge"><title>volume_mappings:cloud_volume_id:w&#45;&gt;cloud_volumes:elipses:e</title>
<path fill="none" stroke="black" d="M991.045,-639.871C971.38,-652.997 977.289,-695 946,-695"/>
<polygon fill="black" stroke="black" points="997.291,-638.139 1005.96,-639.469 1001.15,-637.069 1005,-636 1005,-636 1005,-636 1001.15,-637.069 1004.04,-632.531 997.291,-638.139 997.291,-638.139"/>
<ellipse fill="none" stroke="black" cx="994.208" cy="-638.994" rx="3.20001" ry="3.20001"/>
</g>
<!-- volume_mappings&#45;&gt;host_initiator_groups -->
<g id="edge13" class="edge"><title>volume_mappings:host_initiator_group_id:w&#45;&gt;host_initiator_groups:id.type:e</title>
<path fill="none" stroke="black" d="M990.744,-588.576C967.685,-573.733 999.786,-514.638 965,-491 901.037,-447.535 862.982,-462.733 791,-491 767.289,-500.311 774.473,-530 749,-530"/>
<polygon fill="black" stroke="black" points="997.221,-590.132 1004.16,-595.5 1001.11,-591.066 1005,-592 1005,-592 1005,-592 1001.11,-591.066 1005.84,-588.5 997.221,-590.132 997.221,-590.132"/>
<ellipse fill="none" stroke="black" cx="994.11" cy="-589.384" rx="3.2" ry="3.2"/>
</g>
<!-- volume_mappings&#45;&gt;host_initiators -->
<g id="edge14" class="edge"><title>volume_mappings:host_initiator_id:w&#45;&gt;host_initiators:id:e</title>
<path fill="none" stroke="black" d="M990.396,-614C979.934,-614 973.014,-614 958,-614"/>
<polygon fill="black" stroke="black" points="997,-614 1005,-617.6 1001,-614 1005,-614 1005,-614 1005,-614 1001,-614 1005,-610.4 997,-614 997,-614"/>
<ellipse fill="none" stroke="black" cx="993.8" cy="-614" rx="3.2" ry="3.2"/>
</g>
<!-- wwpn_candidates -->
<g id="node12" class="node"><title>wwpn_candidates</title>
<g id="a_node12"><a xlink:href="../../tables/wwpn_candidates.html" xlink:title="wwpn_candidates" target="_top">
<polygon fill="#ffffff" stroke="none" points="538.5,-37 538.5,-95 689.5,-95 689.5,-37 538.5,-37"/>
<polygon fill="#f5f5f5" stroke="none" points="539,-73 539,-95 690,-95 690,-73 539,-73"/>
<polygon fill="none" stroke="black" points="539,-73 539,-95 690,-95 690,-73 539,-73"/>
<text text-anchor="start" x="544" y="-82.2" font-family="Helvetica,sans-Serif" font-weight="bold" font-size="11.00">wwpn_candidates</text>
<text text-anchor="start" x="651" y="-81.2" font-family="Helvetica,sans-Serif" font-size="11.00">[table]</text>
<polygon fill="none" stroke="black" points="539,-55 539,-73 690,-73 690,-55 539,-55"/>
<text text-anchor="start" x="542" y="-61.2" font-family="Helvetica,sans-Serif" font-size="11.00">...</text>
<polygon fill="#ffffff" stroke="none" points="539,-37 539,-55 613,-55 613,-37 539,-37"/>
<polygon fill="none" stroke="black" points="539,-37 539,-55 613,-55 613,-37 539,-37"/>
<text text-anchor="start" x="542" y="-43.2" font-family="Helvetica,sans-Serif" font-size="11.00">&lt; 1</text>
<polygon fill="#ffffff" stroke="none" points="613,-37 613,-55 651,-55 651,-37 613,-37"/>
<polygon fill="none" stroke="black" points="613,-37 613,-55 651,-55 651,-37 613,-37"/>
<text text-anchor="start" x="641" y="-43.2" font-family="Helvetica,sans-Serif" font-size="11.00"> &#160;</text>
<polygon fill="#ffffff" stroke="none" points="651,-37 651,-55 690,-55 690,-37 651,-37"/>
<polygon fill="none" stroke="black" points="651,-37 651,-55 690,-55 690,-37 651,-37"/>
<text text-anchor="start" x="680" y="-43.2" font-family="Helvetica,sans-Serif" font-size="11.00"> &#160;</text>
</a>
</g>
</g>
<!-- wwpn_candidates&#45;&gt;physical_storages -->
<g id="edge15" class="edge"><title>wwpn_candidates:elipses:w&#45;&gt;physical_storages:id:e</title>
<path fill="none" stroke="black" d="M523.414,-64.9041C499.004,-68.2735 488.055,-81.1489 470,-105 429.945,-157.913 496.864,-249 430.5,-249"/>
<polygon fill="black" stroke="black" points="530.015,-64.495 538.223,-67.5931 534.008,-64.2475 538,-64 538,-64 538,-64 534.008,-64.2475 537.777,-60.4069 530.015,-64.495 530.015,-64.495"/>
<ellipse fill="none" stroke="black" cx="526.821" cy="-64.693" rx="3.2" ry="3.2"/>
</g>
</g>
</svg>
