<?xml version="1.0" encoding="UTF-8" standalone="no"?>
<!DOCTYPE svg PUBLIC "-//W3C//DTD SVG 1.1//EN"
 "http://www.w3.org/Graphics/SVG/1.1/DTD/svg11.dtd">
<!-- Generated by graphviz version 2.38.0 (20140413.2041)
 -->
<!-- Title: twoDegreesRelationshipsDiagram Pages: 1 -->
<svg width="534pt" height="971pt"
 viewBox="0.00 0.00 534.00 971.00" xmlns="http://www.w3.org/2000/svg" xmlns:xlink="http://www.w3.org/1999/xlink">
<g id="graph0" class="graph" transform="scale(1 1) rotate(0) translate(4 967)">
<title>twoDegreesRelationshipsDiagram</title>
<polygon fill="#ffffff" stroke="none" points="-4,4 -4,-967 530,-967 530,4 -4,4"/>
<text text-anchor="middle" x="74.5" y="-7.2" font-family="Helvetica,sans-Serif" font-size="11.00">Generated by SchemaSpy</text>
<!-- customization_templates -->
<g id="node1" class="node"><title>customization_templates</title>
<g id="a_node1"><a xlink:href="../../tables/customization_templates.html" xlink:title="customization_templates" target="_top">
<polygon fill="#ffffff" stroke="none" points="293.5,-901 293.5,-959 486.5,-959 486.5,-901 293.5,-901"/>
<polygon fill="#f5f5f5" stroke="none" points="294,-937 294,-959 487,-959 487,-937 294,-937"/>
<polygon fill="none" stroke="black" points="294,-937 294,-959 487,-959 487,-937 294,-937"/>
<text text-anchor="start" x="299" y="-946.2" font-family="Helvetica,sans-Serif" font-weight="bold" font-size="11.00">customization_templates</text>
<text text-anchor="start" x="448" y="-945.2" font-family="Helvetica,sans-Serif" font-size="11.00">[table]</text>
<polygon fill="none" stroke="black" points="294,-919 294,-937 487,-937 487,-919 294,-919"/>
<text text-anchor="start" x="297" y="-925.2" font-family="Helvetica,sans-Serif" font-size="11.00">...</text>
<polygon fill="#ffffff" stroke="none" points="294,-901 294,-919 389,-919 389,-901 294,-901"/>
<polygon fill="none" stroke="black" points="294,-901 294,-919 389,-919 389,-901 294,-901"/>
<text text-anchor="start" x="297" y="-907.2" font-family="Helvetica,sans-Serif" font-size="11.00">&lt; 1</text>
<polygon fill="#ffffff" stroke="none" points="389,-901 389,-919 438,-919 438,-901 389,-901"/>
<polygon fill="none" stroke="black" points="389,-901 389,-919 438,-919 438,-901 389,-901"/>
<text text-anchor="start" x="428" y="-907.2" font-family="Helvetica,sans-Serif" font-size="11.00"> &#160;</text>
<polygon fill="#ffffff" stroke="none" points="438,-901 438,-919 487,-919 487,-901 438,-901"/>
<polygon fill="none" stroke="black" points="438,-901 438,-919 487,-919 487,-901 438,-901"/>
<text text-anchor="start" x="477" y="-907.2" font-family="Helvetica,sans-Serif" font-size="11.00"> &#160;</text>
</a>
</g>
</g>
<!-- pxe_image_types -->
<g id="node2" class="node"><title>pxe_image_types</title>
<g id="a_node2"><a xlink:href="../../tables/pxe_image_types.html" xlink:title="pxe_image_types" target="_top">
<polygon fill="#ffffff" stroke="none" points="38,-762 38,-842 183,-842 183,-762 38,-762"/>
<polygon fill="#f5f5f5" stroke="none" points="38.5,-820 38.5,-842 183.5,-842 183.5,-820 38.5,-820"/>
<polygon fill="none" stroke="black" points="38.5,-820 38.5,-842 183.5,-842 183.5,-820 38.5,-820"/>
<text text-anchor="start" x="43.5" y="-829.2" font-family="Helvetica,sans-Serif" font-weight="bold" font-size="11.00">pxe_image_types</text>
<text text-anchor="start" x="144.5" y="-828.2" font-family="Helvetica,sans-Serif" font-size="11.00">[table]</text>
<polygon fill="none" stroke="black" points="38.5,-798 38.5,-820 183.5,-820 183.5,-798 38.5,-798"/>
<image xlink:href="../../images/primaryKeys.png" width="11px" height="12px" preserveAspectRatio="xMinYMin meet" x="43.5" y="-815"/>
<text text-anchor="start" x="70.5" y="-806.2" font-family="Helvetica,sans-Serif" font-size="11.00">id</text>
<polygon fill="none" stroke="black" points="38.5,-780 38.5,-798 183.5,-798 183.5,-780 38.5,-780"/>
<text text-anchor="start" x="41.5" y="-786.2" font-family="Helvetica,sans-Serif" font-size="11.00">...</text>
<polygon fill="#ffffff" stroke="none" points="38.5,-762 38.5,-780 99.5,-780 99.5,-762 38.5,-762"/>
<polygon fill="none" stroke="black" points="38.5,-762 38.5,-780 99.5,-780 99.5,-762 38.5,-762"/>
<text text-anchor="start" x="41.5" y="-768.2" font-family="Helvetica,sans-Serif" font-size="11.00"> &#160;</text>
<polygon fill="#ffffff" stroke="none" points="99.5,-762 99.5,-780 136.5,-780 136.5,-762 99.5,-762"/>
<polygon fill="none" stroke="black" points="99.5,-762 99.5,-780 136.5,-780 136.5,-762 99.5,-762"/>
<text text-anchor="start" x="126.5" y="-768.2" font-family="Helvetica,sans-Serif" font-size="11.00"> &#160;</text>
<polygon fill="#ffffff" stroke="none" points="136.5,-762 136.5,-780 183.5,-780 183.5,-762 136.5,-762"/>
<polygon fill="none" stroke="black" points="136.5,-762 136.5,-780 183.5,-780 183.5,-762 136.5,-762"/>
<text text-anchor="start" x="163.5" y="-768.2" font-family="Helvetica,sans-Serif" font-size="11.00">4 &gt;</text>
</a>
</g>
</g>
<!-- customization_templates&#45;&gt;pxe_image_types -->
<g id="edge1" class="edge"><title>customization_templates:elipses:w&#45;&gt;pxe_image_types:id:e</title>
<path fill="none" stroke="black" d="M278.4,-926.034C226.089,-910.562 250.621,-809 184.5,-809"/>
<polygon fill="black" stroke="black" points="285.072,-926.932 292.52,-931.568 289.036,-927.466 293,-928 293,-928 293,-928 289.036,-927.466 293.48,-924.432 285.072,-926.932 285.072,-926.932"/>
<ellipse fill="none" stroke="black" cx="281.9" cy="-926.505" rx="3.2" ry="3.2"/>
</g>
<!-- disks -->
<g id="node3" class="node"><title>disks</title>
<g id="a_node3"><a xlink:href="../../tables/disks.html" xlink:title="disks" target="_top">
<polygon fill="#ffffff" stroke="none" points="351.5,-511 351.5,-569 428.5,-569 428.5,-511 351.5,-511"/>
<polygon fill="#f5f5f5" stroke="none" points="352,-547 352,-569 429,-569 429,-547 352,-547"/>
<polygon fill="none" stroke="black" points="352,-547 352,-569 429,-569 429,-547 352,-547"/>
<text text-anchor="start" x="357" y="-556.2" font-family="Helvetica,sans-Serif" font-weight="bold" font-size="11.00">disks</text>
<text text-anchor="start" x="390" y="-555.2" font-family="Helvetica,sans-Serif" font-size="11.00">[table]</text>
<polygon fill="none" stroke="black" points="352,-529 352,-547 429,-547 429,-529 352,-529"/>
<text text-anchor="start" x="355" y="-535.2" font-family="Helvetica,sans-Serif" font-size="11.00">...</text>
<polygon fill="#ffffff" stroke="none" points="352,-511 352,-529 384,-529 384,-511 352,-511"/>
<polygon fill="none" stroke="black" points="352,-511 352,-529 384,-529 384,-511 352,-511"/>
<text text-anchor="start" x="355" y="-517.2" font-family="Helvetica,sans-Serif" font-size="11.00">&lt; 3</text>
<polygon fill="#ffffff" stroke="none" points="384,-511 384,-529 401,-529 401,-511 384,-511"/>
<polygon fill="none" stroke="black" points="384,-511 384,-529 401,-529 401,-511 384,-511"/>
<text text-anchor="start" x="391" y="-517.2" font-family="Helvetica,sans-Serif" font-size="11.00"> &#160;</text>
<polygon fill="#ffffff" stroke="none" points="401,-511 401,-529 429,-529 429,-511 401,-511"/>
<polygon fill="none" stroke="black" points="401,-511 401,-529 429,-529 429,-511 401,-511"/>
<text text-anchor="start" x="409" y="-517.2" font-family="Helvetica,sans-Serif" font-size="11.00">1 &gt;</text>
</a>
</g>
</g>
<!-- storages -->
<g id="node4" class="node"><title>storages</title>
<g id="a_node4"><a xlink:href="../../tables/storages.html" xlink:title="storages" target="_top">
<polygon fill="#ffffff" stroke="none" points="8,-227 8,-373 213,-373 213,-227 8,-227"/>
<polygon fill="#f5f5f5" stroke="none" points="8.5,-351 8.5,-373 213.5,-373 213.5,-351 8.5,-351"/>
<polygon fill="none" stroke="black" points="8.5,-351 8.5,-373 213.5,-373 213.5,-351 8.5,-351"/>
<text text-anchor="start" x="13.5" y="-360.2" font-family="Helvetica,sans-Serif" font-weight="bold" font-size="11.00">storages</text>
<text text-anchor="start" x="174.5" y="-359.2" font-family="Helvetica,sans-Serif" font-size="11.00">[table]</text>
<polygon fill="none" stroke="black" points="8.5,-329 8.5,-351 213.5,-351 213.5,-329 8.5,-329"/>
<image xlink:href="../../images/primaryKeys.png" width="11px" height="12px" preserveAspectRatio="xMinYMin meet" x="13.5" y="-346"/>
<text text-anchor="start" x="28.5" y="-337.2" font-family="Helvetica,sans-Serif" font-size="11.00">id</text>
<polygon fill="#ffffff" stroke="none" points="8.5,-307 8.5,-329 213.5,-329 213.5,-307 8.5,-307"/>
<polygon fill="none" stroke="black" points="8.5,-307 8.5,-329 213.5,-329 213.5,-307 8.5,-307"/>
<text text-anchor="start" x="28.5" y="-315.2" font-family="Helvetica,sans-Serif" font-size="11.00">name</text>
<polygon fill="#ffffff" stroke="none" points="8.5,-285 8.5,-307 213.5,-307 213.5,-285 8.5,-285"/>
<polygon fill="none" stroke="black" points="8.5,-285 8.5,-307 213.5,-307 213.5,-285 8.5,-285"/>
<text text-anchor="start" x="28.5" y="-293.2" font-family="Helvetica,sans-Serif" font-size="11.00">location</text>
<polygon fill="#ffffff" stroke="none" points="8.5,-263 8.5,-285 213.5,-285 213.5,-263 8.5,-263"/>
<polygon fill="none" stroke="black" points="8.5,-263 8.5,-285 213.5,-285 213.5,-263 8.5,-263"/>
<text text-anchor="start" x="28.5" y="-271.2" font-family="Helvetica,sans-Serif" font-size="11.00">ems_id</text>
<polygon fill="none" stroke="black" points="8.5,-245 8.5,-263 213.5,-263 213.5,-245 8.5,-245"/>
<text text-anchor="start" x="11.5" y="-251.2" font-family="Helvetica,sans-Serif" font-size="11.00">...</text>
<polygon fill="#ffffff" stroke="none" points="8.5,-227 8.5,-245 99.5,-245 99.5,-227 8.5,-227"/>
<polygon fill="none" stroke="black" points="8.5,-227 8.5,-245 99.5,-245 99.5,-227 8.5,-227"/>
<text text-anchor="start" x="11.5" y="-233.2" font-family="Helvetica,sans-Serif" font-size="11.00"> &#160;</text>
<polygon fill="#ffffff" stroke="none" points="99.5,-227 99.5,-245 151.5,-245 151.5,-227 99.5,-227"/>
<polygon fill="none" stroke="black" points="99.5,-227 99.5,-245 151.5,-245 151.5,-227 99.5,-227"/>
<text text-anchor="start" x="141.5" y="-233.2" font-family="Helvetica,sans-Serif" font-size="11.00"> &#160;</text>
<polygon fill="#ffffff" stroke="none" points="151.5,-227 151.5,-245 213.5,-245 213.5,-227 151.5,-227"/>
<polygon fill="none" stroke="black" points="151.5,-227 151.5,-245 213.5,-245 213.5,-227 151.5,-227"/>
<text text-anchor="start" x="193.5" y="-233.2" font-family="Helvetica,sans-Serif" font-size="11.00">8 &gt;</text>
</a>
</g>
</g>
<!-- disks&#45;&gt;storages -->
<g id="edge2" class="edge"><title>disks:elipses:w&#45;&gt;storages:id:e</title>
<path fill="none" stroke="black" d="M336.218,-537.836C299.994,-536.873 281.063,-530.874 254,-500 205.718,-444.92 287.746,-340 214.5,-340"/>
<polygon fill="black" stroke="black" points="343,-537.911 350.96,-541.6 347,-537.956 351,-538 351,-538 351,-538 347,-537.956 351.04,-534.4 343,-537.911 343,-537.911"/>
<ellipse fill="none" stroke="black" cx="339.801" cy="-537.876" rx="3.2" ry="3.2"/>
</g>
<!-- host_storages -->
<g id="node5" class="node"><title>host_storages</title>
<g id="a_node5"><a xlink:href="../../tables/host_storages.html" xlink:title="host_storages" target="_top">
<polygon fill="#ffffff" stroke="none" points="327.5,-432 327.5,-490 452.5,-490 452.5,-432 327.5,-432"/>
<polygon fill="#f5f5f5" stroke="none" points="328,-468 328,-490 453,-490 453,-468 328,-468"/>
<polygon fill="none" stroke="black" points="328,-468 328,-490 453,-490 453,-468 328,-468"/>
<text text-anchor="start" x="333" y="-477.2" font-family="Helvetica,sans-Serif" font-weight="bold" font-size="11.00">host_storages</text>
<text text-anchor="start" x="414" y="-476.2" font-family="Helvetica,sans-Serif" font-size="11.00">[table]</text>
<polygon fill="none" stroke="black" points="328,-450 328,-468 453,-468 453,-450 328,-450"/>
<text text-anchor="start" x="331" y="-456.2" font-family="Helvetica,sans-Serif" font-size="11.00">...</text>
<polygon fill="#ffffff" stroke="none" points="328,-432 328,-450 389,-450 389,-432 328,-432"/>
<polygon fill="none" stroke="black" points="328,-432 328,-450 389,-450 389,-432 328,-432"/>
<text text-anchor="start" x="331" y="-438.2" font-family="Helvetica,sans-Serif" font-size="11.00">&lt; 2</text>
<polygon fill="#ffffff" stroke="none" points="389,-432 389,-450 421,-450 421,-432 389,-432"/>
<polygon fill="none" stroke="black" points="389,-432 389,-450 421,-450 421,-432 389,-432"/>
<text text-anchor="start" x="411" y="-438.2" font-family="Helvetica,sans-Serif" font-size="11.00"> &#160;</text>
<polygon fill="#ffffff" stroke="none" points="421,-432 421,-450 453,-450 453,-432 421,-432"/>
<polygon fill="none" stroke="black" points="421,-432 421,-450 453,-450 453,-432 421,-432"/>
<text text-anchor="start" x="443" y="-438.2" font-family="Helvetica,sans-Serif" font-size="11.00"> &#160;</text>
</a>
</g>
</g>
<!-- host_storages&#45;&gt;storages -->
<g id="edge3" class="edge"><title>host_storages:elipses:w&#45;&gt;storages:id:e</title>
<path fill="none" stroke="black" d="M312.277,-458.212C286.865,-455.18 275.734,-443.312 254,-421 226.052,-392.31 254.552,-340 214.5,-340"/>
<polygon fill="black" stroke="black" points="319.011,-458.572 326.807,-462.595 323.006,-458.786 327,-459 327,-459 327,-459 323.006,-458.786 327.193,-455.405 319.011,-458.572 319.011,-458.572"/>
<ellipse fill="none" stroke="black" cx="315.816" cy="-458.401" rx="3.2" ry="3.2"/>
</g>
<!-- iso_images -->
<g id="node6" class="node"><title>iso_images</title>
<g id="a_node6"><a xlink:href="../../tables/iso_images.html" xlink:title="iso_images" target="_top">
<polygon fill="#ffffff" stroke="none" points="262,-590 262,-722 518,-722 518,-590 262,-590"/>
<polygon fill="#f5f5f5" stroke="none" points="264,-698 264,-720 516,-720 516,-698 264,-698"/>
<polygon fill="none" stroke="black" points="264,-698 264,-720 516,-720 516,-698 264,-698"/>
<text text-anchor="start" x="269" y="-707.2" font-family="Helvetica,sans-Serif" font-weight="bold" font-size="11.00">iso_images</text>
<text text-anchor="start" x="477" y="-706.2" font-family="Helvetica,sans-Serif" font-size="11.00">[table]</text>
<polygon fill="none" stroke="black" points="264,-676 264,-698 395,-698 395,-676 264,-676"/>
<image xlink:href="../../images/primaryKeys.png" width="11px" height="12px" preserveAspectRatio="xMinYMin meet" x="269" y="-693"/>
<text text-anchor="start" x="284" y="-684.2" font-family="Helvetica,sans-Serif" font-size="11.00">id</text>
<polygon fill="none" stroke="black" points="395,-676 395,-698 516,-698 516,-676 395,-676"/>
<text text-anchor="start" x="398" y="-684.2" font-family="Helvetica,sans-Serif" font-size="11.00">bigserial[19]</text>
<polygon fill="none" stroke="black" points="264,-654 264,-676 395,-676 395,-654 264,-654"/>
<text text-anchor="start" x="284" y="-662.2" font-family="Helvetica,sans-Serif" font-size="11.00">name</text>
<polygon fill="none" stroke="black" points="395,-654 395,-676 516,-676 516,-654 395,-654"/>
<text text-anchor="start" x="398" y="-662.2" font-family="Helvetica,sans-Serif" font-size="11.00">varchar[2147483647]</text>
<polygon fill="none" stroke="black" points="264,-632 264,-654 395,-654 395,-632 264,-632"/>
<image xlink:href="../../images/foreignKeys.png" width="11px" height="12px" preserveAspectRatio="xMinYMin meet" x="269" y="-649"/>
<text text-anchor="start" x="284" y="-640.2" font-family="Helvetica,sans-Serif" font-size="11.00">pxe_image_type_id</text>
<polygon fill="none" stroke="black" points="395,-632 395,-654 516,-654 516,-632 395,-632"/>
<text text-anchor="start" x="398" y="-640.2" font-family="Helvetica,sans-Serif" font-size="11.00">int8[19]</text>
<polygon fill="#ffffff" stroke="none" points="264,-610 264,-632 395,-632 395,-610 264,-610"/>
<polygon fill="none" stroke="black" points="264,-610 264,-632 395,-632 395,-610 264,-610"/>
<image xlink:href="../../images/foreignKeys.png" width="11px" height="12px" preserveAspectRatio="xMinYMin meet" x="269" y="-627"/>
<text text-anchor="start" x="284" y="-618.2" font-family="Helvetica,sans-Serif" font-size="11.00">storage_id</text>
<polygon fill="none" stroke="black" points="395,-610 395,-632 516,-632 516,-610 395,-610"/>
<text text-anchor="start" x="398" y="-618.2" font-family="Helvetica,sans-Serif" font-size="11.00">int8[19]</text>
<polygon fill="#ffffff" stroke="none" points="264,-592 264,-610 334,-610 334,-592 264,-592"/>
<polygon fill="none" stroke="black" points="264,-592 264,-610 334,-610 334,-592 264,-592"/>
<text text-anchor="start" x="267" y="-598.2" font-family="Helvetica,sans-Serif" font-size="11.00">&lt; 2</text>
<polygon fill="#ffffff" stroke="none" points="334,-592 334,-610 395,-610 395,-592 334,-592"/>
<polygon fill="none" stroke="black" points="334,-592 334,-610 395,-610 395,-592 334,-592"/>
<text text-anchor="start" x="385" y="-598.2" font-family="Helvetica,sans-Serif" font-size="11.00"> &#160;</text>
<polygon fill="#ffffff" stroke="none" points="395,-592 395,-610 516,-610 516,-592 395,-592"/>
<polygon fill="none" stroke="black" points="395,-592 395,-610 516,-610 516,-592 395,-592"/>
<text text-anchor="start" x="496" y="-598.2" font-family="Helvetica,sans-Serif" font-size="11.00">0 &gt;</text>
<polygon fill="none" stroke="black" stroke-width="2" points="263,-591 263,-721 517,-721 517,-591 263,-591"/>
</a>
</g>
</g>
<!-- iso_images&#45;&gt;pxe_image_types -->
<g id="edge4" class="edge"><title>iso_images:pxe_image_type_id:w&#45;&gt;pxe_image_types:id:e</title>
<path fill="none" stroke="black" d="M248.489,-645.221C192.195,-664.92 260.532,-809 184.5,-809"/>
<polygon fill="black" stroke="black" points="255.092,-644.21 263.545,-646.559 259.046,-643.605 263,-643 263,-643 263,-643 259.046,-643.605 262.455,-639.441 255.092,-644.21 255.092,-644.21"/>
<ellipse fill="none" stroke="black" cx="251.929" cy="-644.695" rx="3.2" ry="3.2"/>
</g>
<!-- iso_images&#45;&gt;storages -->
<g id="edge5" class="edge"><title>iso_images:storage_id:w&#45;&gt;storages:id:e</title>
<path fill="none" stroke="black" d="M249.621,-615.131C212.033,-574.778 272.422,-340 214.5,-340"/>
<polygon fill="black" stroke="black" points="255.674,-617.786 261.554,-624.297 259.337,-619.393 263,-621 263,-621 263,-621 259.337,-619.393 264.446,-617.703 255.674,-617.786 255.674,-617.786"/>
<ellipse fill="none" stroke="black" cx="252.743" cy="-616.501" rx="3.20001" ry="3.20001"/>
</g>
<!-- pxe_images -->
<g id="node7" class="node"><title>pxe_images</title>
<g id="a_node7"><a xlink:href="../../tables/pxe_images.html" xlink:title="pxe_images" target="_top">
<polygon fill="#ffffff" stroke="none" points="333,-822 333,-880 447,-880 447,-822 333,-822"/>
<polygon fill="#f5f5f5" stroke="none" points="333,-858 333,-880 447,-880 447,-858 333,-858"/>
<polygon fill="none" stroke="black" points="333,-858 333,-880 447,-880 447,-858 333,-858"/>
<text text-anchor="start" x="338" y="-867.2" font-family="Helvetica,sans-Serif" font-weight="bold" font-size="11.00">pxe_images</text>
<text text-anchor="start" x="408" y="-866.2" font-family="Helvetica,sans-Serif" font-size="11.00">[table]</text>
<polygon fill="none" stroke="black" points="333,-840 333,-858 447,-858 447,-840 333,-840"/>
<text text-anchor="start" x="336" y="-846.2" font-family="Helvetica,sans-Serif" font-size="11.00">...</text>
<polygon fill="#ffffff" stroke="none" points="333,-822 333,-840 388,-840 388,-822 333,-822"/>
<polygon fill="none" stroke="black" points="333,-822 333,-840 388,-840 388,-822 333,-822"/>
<text text-anchor="start" x="336" y="-828.2" font-family="Helvetica,sans-Serif" font-size="11.00">&lt; 3</text>
<polygon fill="#ffffff" stroke="none" points="388,-822 388,-840 417,-840 417,-822 388,-822"/>
<polygon fill="none" stroke="black" points="388,-822 388,-840 417,-840 417,-822 388,-822"/>
<text text-anchor="start" x="407" y="-828.2" font-family="Helvetica,sans-Serif" font-size="11.00"> &#160;</text>
<polygon fill="#ffffff" stroke="none" points="417,-822 417,-840 447,-840 447,-822 417,-822"/>
<polygon fill="none" stroke="black" points="417,-822 417,-840 447,-840 447,-822 417,-822"/>
<text text-anchor="start" x="437" y="-828.2" font-family="Helvetica,sans-Serif" font-size="11.00"> &#160;</text>
</a>
</g>
</g>
<!-- pxe_images&#45;&gt;pxe_image_types -->
<g id="edge6" class="edge"><title>pxe_images:elipses:w&#45;&gt;pxe_image_types:id:e</title>
<path fill="none" stroke="black" d="M317.408,-848.339C261.975,-843.138 247.249,-809 184.5,-809"/>
<polygon fill="black" stroke="black" points="324.008,-848.638 331.837,-852.596 328.004,-848.819 332,-849 332,-849 332,-849 328.004,-848.819 332.163,-845.404 324.008,-848.638 324.008,-848.638"/>
<ellipse fill="none" stroke="black" cx="320.811" cy="-848.493" rx="3.2" ry="3.2"/>
</g>
<!-- repositories -->
<g id="node8" class="node"><title>repositories</title>
<g id="a_node8"><a xlink:href="../../tables/repositories.html" xlink:title="repositories" target="_top">
<polygon fill="#ffffff" stroke="none" points="331.5,-353 331.5,-411 448.5,-411 448.5,-353 331.5,-353"/>
<polygon fill="#f5f5f5" stroke="none" points="332,-389 332,-411 449,-411 449,-389 332,-389"/>
<polygon fill="none" stroke="black" points="332,-389 332,-411 449,-411 449,-389 332,-389"/>
<text text-anchor="start" x="337" y="-398.2" font-family="Helvetica,sans-Serif" font-weight="bold" font-size="11.00">repositories</text>
<text text-anchor="start" x="410" y="-397.2" font-family="Helvetica,sans-Serif" font-size="11.00">[table]</text>
<polygon fill="none" stroke="black" points="332,-371 332,-389 449,-389 449,-371 332,-371"/>
<text text-anchor="start" x="335" y="-377.2" font-family="Helvetica,sans-Serif" font-size="11.00">...</text>
<polygon fill="#ffffff" stroke="none" points="332,-353 332,-371 389,-371 389,-353 332,-353"/>
<polygon fill="none" stroke="black" points="332,-353 332,-371 389,-371 389,-353 332,-353"/>
<text text-anchor="start" x="335" y="-359.2" font-family="Helvetica,sans-Serif" font-size="11.00">&lt; 1</text>
<polygon fill="#ffffff" stroke="none" points="389,-353 389,-371 419,-371 419,-353 389,-353"/>
<polygon fill="none" stroke="black" points="389,-353 389,-371 419,-371 419,-353 389,-353"/>
<text text-anchor="start" x="409" y="-359.2" font-family="Helvetica,sans-Serif" font-size="11.00"> &#160;</text>
<polygon fill="#ffffff" stroke="none" points="419,-353 419,-371 449,-371 449,-353 419,-353"/>
<polygon fill="none" stroke="black" points="419,-353 419,-371 449,-371 449,-353 419,-353"/>
<text text-anchor="start" x="439" y="-359.2" font-family="Helvetica,sans-Serif" font-size="11.00"> &#160;</text>
</a>
</g>
</g>
<!-- repositories&#45;&gt;storages -->
<g id="edge7" class="edge"><title>repositories:elipses:w&#45;&gt;storages:id:e</title>
<path fill="none" stroke="black" d="M316.51,-378.971C274.476,-372.71 264.006,-340 214.5,-340"/>
<polygon fill="black" stroke="black" points="323.02,-379.433 330.745,-383.591 327.01,-379.717 331,-380 331,-380 331,-380 327.01,-379.717 331.255,-376.409 323.02,-379.433 323.02,-379.433"/>
<ellipse fill="none" stroke="black" cx="319.828" cy="-379.207" rx="3.2" ry="3.2"/>
</g>
<!-- storage_files -->
<g id="node9" class="node"><title>storage_files</title>
<g id="a_node9"><a xlink:href="../../tables/storage_files.html" xlink:title="storage_files" target="_top">
<polygon fill="#ffffff" stroke="none" points="331,-274 331,-332 449,-332 449,-274 331,-274"/>
<polygon fill="#f5f5f5" stroke="none" points="331,-310 331,-332 449,-332 449,-310 331,-310"/>
<polygon fill="none" stroke="black" points="331,-310 331,-332 449,-332 449,-310 331,-310"/>
<text text-anchor="start" x="336" y="-319.2" font-family="Helvetica,sans-Serif" font-weight="bold" font-size="11.00">storage_files</text>
<text text-anchor="start" x="410" y="-318.2" font-family="Helvetica,sans-Serif" font-size="11.00">[table]</text>
<polygon fill="none" stroke="black" points="331,-292 331,-310 449,-310 449,-292 331,-292"/>
<text text-anchor="start" x="334" y="-298.2" font-family="Helvetica,sans-Serif" font-size="11.00">...</text>
<polygon fill="#ffffff" stroke="none" points="331,-274 331,-292 388,-292 388,-274 331,-274"/>
<polygon fill="none" stroke="black" points="331,-274 331,-292 388,-292 388,-274 331,-274"/>
<text text-anchor="start" x="334" y="-280.2" font-family="Helvetica,sans-Serif" font-size="11.00">&lt; 1</text>
<polygon fill="#ffffff" stroke="none" points="388,-274 388,-292 418,-292 418,-274 388,-274"/>
<polygon fill="none" stroke="black" points="388,-274 388,-292 418,-292 418,-274 388,-274"/>
<text text-anchor="start" x="408" y="-280.2" font-family="Helvetica,sans-Serif" font-size="11.00"> &#160;</text>
<polygon fill="#ffffff" stroke="none" points="418,-274 418,-292 449,-292 449,-274 418,-274"/>
<polygon fill="none" stroke="black" points="418,-274 418,-292 449,-292 449,-274 418,-274"/>
<text text-anchor="start" x="439" y="-280.2" font-family="Helvetica,sans-Serif" font-size="11.00"> &#160;</text>
</a>
</g>
</g>
<!-- storage_files&#45;&gt;storages -->
<g id="edge8" class="edge"><title>storage_files:elipses:w&#45;&gt;storages:id:e</title>
<path fill="none" stroke="black" d="M315.385,-302.043C273.976,-308.245 263.39,-340 214.5,-340"/>
<polygon fill="black" stroke="black" points="322.02,-301.57 330.256,-304.591 326.01,-301.285 330,-301 330,-301 330,-301 326.01,-301.285 329.744,-297.409 322.02,-301.57 322.02,-301.57"/>
<ellipse fill="none" stroke="black" cx="318.828" cy="-301.797" rx="3.2" ry="3.2"/>
</g>
<!-- storage_profile_storages -->
<g id="node10" class="node"><title>storage_profile_storages</title>
<g id="a_node10"><a xlink:href="../../tables/storage_profile_storages.html" xlink:title="storage_profile_storages" target="_top">
<polygon fill="#ffffff" stroke="none" points="298,-195 298,-253 482,-253 482,-195 298,-195"/>
<polygon fill="#f5f5f5" stroke="none" points="298,-231 298,-253 482,-253 482,-231 298,-231"/>
<polygon fill="none" stroke="black" points="298,-231 298,-253 482,-253 482,-231 298,-231"/>
<text text-anchor="start" x="303" y="-240.2" font-family="Helvetica,sans-Serif" font-weight="bold" font-size="11.00">storage_profile_storages</text>
<text text-anchor="start" x="443" y="-239.2" font-family="Helvetica,sans-Serif" font-size="11.00">[table]</text>
<polygon fill="none" stroke="black" points="298,-213 298,-231 482,-231 482,-213 298,-213"/>
<text text-anchor="start" x="301" y="-219.2" font-family="Helvetica,sans-Serif" font-size="11.00">...</text>
<polygon fill="#ffffff" stroke="none" points="298,-195 298,-213 388,-213 388,-195 298,-195"/>
<polygon fill="none" stroke="black" points="298,-195 298,-213 388,-213 388,-195 298,-195"/>
<text text-anchor="start" x="301" y="-201.2" font-family="Helvetica,sans-Serif" font-size="11.00">&lt; 2</text>
<polygon fill="#ffffff" stroke="none" points="388,-195 388,-213 435,-213 435,-195 388,-195"/>
<polygon fill="none" stroke="black" points="388,-195 388,-213 435,-213 435,-195 388,-195"/>
<text text-anchor="start" x="425" y="-201.2" font-family="Helvetica,sans-Serif" font-size="11.00"> &#160;</text>
<polygon fill="#ffffff" stroke="none" points="435,-195 435,-213 482,-213 482,-195 435,-195"/>
<polygon fill="none" stroke="black" points="435,-195 435,-213 482,-213 482,-195 435,-195"/>
<text text-anchor="start" x="472" y="-201.2" font-family="Helvetica,sans-Serif" font-size="11.00"> &#160;</text>
</a>
</g>
</g>
<!-- storage_profile_storages&#45;&gt;storages -->
<g id="edge9" class="edge"><title>storage_profile_storages:elipses:w&#45;&gt;storages:id:e</title>
<path fill="none" stroke="black" d="M282.524,-224.84C269.465,-231.059 266.223,-246.638 254,-263 230.981,-293.814 252.962,-340 214.5,-340"/>
<polygon fill="black" stroke="black" points="289.15,-223.54 297.693,-225.533 293.075,-222.77 297,-222 297,-222 297,-222 293.075,-222.77 296.307,-218.467 289.15,-223.54 289.15,-223.54"/>
<ellipse fill="none" stroke="black" cx="286.01" cy="-224.157" rx="3.2" ry="3.2"/>
</g>
<!-- storages_vms_and_templates -->
<g id="node11" class="node"><title>storages_vms_and_templates</title>
<g id="a_node11"><a xlink:href="../../tables/storages_vms_and_templates.html" xlink:title="storages_vms_and_templates" target="_top">
<polygon fill="#ffffff" stroke="none" points="283.5,-116 283.5,-174 496.5,-174 496.5,-116 283.5,-116"/>
<polygon fill="#f5f5f5" stroke="none" points="284,-152 284,-174 497,-174 497,-152 284,-152"/>
<polygon fill="none" stroke="black" points="284,-152 284,-174 497,-174 497,-152 284,-152"/>
<text text-anchor="start" x="289" y="-161.2" font-family="Helvetica,sans-Serif" font-weight="bold" font-size="11.00">storages_vms_and_templates</text>
<text text-anchor="start" x="458" y="-160.2" font-family="Helvetica,sans-Serif" font-size="11.00">[table]</text>
<polygon fill="none" stroke="black" points="284,-134 284,-152 497,-152 497,-134 284,-134"/>
<text text-anchor="start" x="287" y="-140.2" font-family="Helvetica,sans-Serif" font-size="11.00">...</text>
<polygon fill="#ffffff" stroke="none" points="284,-116 284,-134 389,-134 389,-116 284,-116"/>
<polygon fill="none" stroke="black" points="284,-116 284,-134 389,-134 389,-116 284,-116"/>
<text text-anchor="start" x="287" y="-122.2" font-family="Helvetica,sans-Serif" font-size="11.00">&lt; 1</text>
<polygon fill="#ffffff" stroke="none" points="389,-116 389,-134 443,-134 443,-116 389,-116"/>
<polygon fill="none" stroke="black" points="389,-116 389,-134 443,-134 443,-116 389,-116"/>
<text text-anchor="start" x="433" y="-122.2" font-family="Helvetica,sans-Serif" font-size="11.00"> &#160;</text>
<polygon fill="#ffffff" stroke="none" points="443,-116 443,-134 497,-134 497,-116 443,-116"/>
<polygon fill="none" stroke="black" points="443,-116 443,-134 497,-134 497,-116 443,-116"/>
<text text-anchor="start" x="487" y="-122.2" font-family="Helvetica,sans-Serif" font-size="11.00"> &#160;</text>
</a>
</g>
</g>
<!-- storages_vms_and_templates&#45;&gt;storages -->
<g id="edge10" class="edge"><title>storages_vms_and_templates:elipses:w&#45;&gt;storages:id:e</title>
<path fill="none" stroke="black" d="M268.374,-145.079C203.689,-166.133 301.585,-340 214.5,-340"/>
<polygon fill="black" stroke="black" points="275.08,-144.126 283.507,-146.564 279.04,-143.563 283,-143 283,-143 283,-143 279.04,-143.563 282.493,-139.436 275.08,-144.126 275.08,-144.126"/>
<ellipse fill="none" stroke="black" cx="271.911" cy="-144.576" rx="3.2" ry="3.2"/>
</g>
<!-- vms -->
<g id="node12" class="node"><title>vms</title>
<g id="a_node12"><a xlink:href="../../tables/vms.html" xlink:title="vms" target="_top">
<polygon fill="#ffffff" stroke="none" points="354,-37 354,-95 426,-95 426,-37 354,-37"/>
<polygon fill="#f5f5f5" stroke="none" points="354,-73 354,-95 426,-95 426,-73 354,-73"/>
<polygon fill="none" stroke="black" points="354,-73 354,-95 426,-95 426,-73 354,-73"/>
<text text-anchor="start" x="359" y="-82.2" font-family="Helvetica,sans-Serif" font-weight="bold" font-size="11.00">vms</text>
<text text-anchor="start" x="387" y="-81.2" font-family="Helvetica,sans-Serif" font-size="11.00">[table]</text>
<polygon fill="none" stroke="black" points="354,-55 354,-73 426,-73 426,-55 354,-55"/>
<text text-anchor="start" x="357" y="-61.2" font-family="Helvetica,sans-Serif" font-size="11.00">...</text>
<polygon fill="#ffffff" stroke="none" points="354,-37 354,-55 387,-55 387,-37 354,-37"/>
<polygon fill="none" stroke="black" points="354,-37 354,-55 387,-55 387,-37 354,-37"/>
<text text-anchor="start" x="357" y="-43.2" font-family="Helvetica,sans-Serif" font-size="11.00">&lt; 14</text>
<polygon fill="#ffffff" stroke="none" points="387,-37 387,-55 401,-55 401,-37 387,-37"/>
<polygon fill="none" stroke="black" points="387,-37 387,-55 401,-55 401,-37 387,-37"/>
<text text-anchor="start" x="391" y="-43.2" font-family="Helvetica,sans-Serif" font-size="11.00"> &#160;</text>
<polygon fill="#ffffff" stroke="none" points="401,-37 401,-55 426,-55 426,-37 401,-37"/>
<polygon fill="none" stroke="black" points="401,-37 401,-55 426,-55 426,-37 401,-37"/>
<text text-anchor="start" x="406" y="-43.2" font-family="Helvetica,sans-Serif" font-size="11.00">7 &gt;</text>
</a>
</g>
</g>
<!-- vms&#45;&gt;storages -->
<g id="edge11" class="edge"><title>vms:elipses:w&#45;&gt;storages:id:e</title>
<path fill="none" stroke="black" d="M338.259,-64.1732C300.531,-65.2192 280.417,-71.8159 254,-105 221.019,-146.43 267.455,-340 214.5,-340"/>
<polygon fill="black" stroke="black" points="345.001,-64.094 353.042,-67.5998 349,-64.047 353,-64 353,-64 353,-64 349,-64.047 352.958,-60.4002 345.001,-64.094 345.001,-64.094"/>
<ellipse fill="none" stroke="black" cx="341.801" cy="-64.1317" rx="3.2" ry="3.2"/>
</g>
<!-- windows_images -->
<g id="node13" class="node"><title>windows_images</title>
<g id="a_node13"><a xlink:href="../../tables/windows_images.html" xlink:title="windows_images" target="_top">
<polygon fill="#ffffff" stroke="none" points="318.5,-743 318.5,-801 461.5,-801 461.5,-743 318.5,-743"/>
<polygon fill="#f5f5f5" stroke="none" points="319,-779 319,-801 462,-801 462,-779 319,-779"/>
<polygon fill="none" stroke="black" points="319,-779 319,-801 462,-801 462,-779 319,-779"/>
<text text-anchor="start" x="324" y="-788.2" font-family="Helvetica,sans-Serif" font-weight="bold" font-size="11.00">windows_images</text>
<text text-anchor="start" x="423" y="-787.2" font-family="Helvetica,sans-Serif" font-size="11.00">[table]</text>
<polygon fill="none" stroke="black" points="319,-761 319,-779 462,-779 462,-761 319,-761"/>
<text text-anchor="start" x="322" y="-767.2" font-family="Helvetica,sans-Serif" font-size="11.00">...</text>
<polygon fill="#ffffff" stroke="none" points="319,-743 319,-761 389,-761 389,-743 319,-743"/>
<polygon fill="none" stroke="black" points="319,-743 319,-761 389,-761 389,-743 319,-743"/>
<text text-anchor="start" x="322" y="-749.2" font-family="Helvetica,sans-Serif" font-size="11.00">&lt; 2</text>
<polygon fill="#ffffff" stroke="none" points="389,-743 389,-761 425,-761 425,-743 389,-743"/>
<polygon fill="none" stroke="black" points="389,-743 389,-761 425,-761 425,-743 389,-743"/>
<text text-anchor="start" x="415" y="-749.2" font-family="Helvetica,sans-Serif" font-size="11.00"> &#160;</text>
<polygon fill="#ffffff" stroke="none" points="425,-743 425,-761 462,-761 462,-743 425,-743"/>
<polygon fill="none" stroke="black" points="425,-743 425,-761 462,-761 462,-743 425,-743"/>
<text text-anchor="start" x="452" y="-749.2" font-family="Helvetica,sans-Serif" font-size="11.00"> &#160;</text>
</a>
</g>
</g>
<!-- windows_images&#45;&gt;pxe_image_types -->
<g id="edge12" class="edge"><title>windows_images:elipses:w&#45;&gt;pxe_image_types:id:e</title>
<path fill="none" stroke="black" d="M303.463,-770.779C254.162,-776.276 241.122,-809 184.5,-809"/>
<polygon fill="black" stroke="black" points="310.011,-770.428 318.193,-773.595 314.006,-770.214 318,-770 318,-770 318,-770 314.006,-770.214 317.807,-766.405 310.011,-770.428 310.011,-770.428"/>
<ellipse fill="none" stroke="black" cx="306.816" cy="-770.599" rx="3.2" ry="3.2"/>
</g>
</g>
</svg>
