<?xml version="1.0" encoding="UTF-8" standalone="no"?>
<!DOCTYPE svg PUBLIC "-//W3C//DTD SVG 1.1//EN"
 "http://www.w3.org/Graphics/SVG/1.1/DTD/svg11.dtd">
<!-- Generated by graphviz version 2.38.0 (20140413.2041)
 -->
<!-- Title: oneDegreeRelationshipsDiagram Pages: 1 -->
<svg width="534pt" height="302pt"
 viewBox="0.00 0.00 534.00 302.00" xmlns="http://www.w3.org/2000/svg" xmlns:xlink="http://www.w3.org/1999/xlink">
<g id="graph0" class="graph" transform="scale(1 1) rotate(0) translate(4 298)">
<title>oneDegreeRelationshipsDiagram</title>
<polygon fill="#ffffff" stroke="none" points="-4,4 -4,-298 530,-298 530,4 -4,4"/>
<text text-anchor="middle" x="74.5" y="-7.2" font-family="Helvetica,sans-Serif" font-size="11.00">Generated by SchemaSpy</text>
<!-- iso_images -->
<g id="node1" class="node"><title>iso_images</title>
<g id="a_node1"><a xlink:href="../../tables/iso_images.html" xlink:title="iso_images" target="_top">
<polygon fill="#ffffff" stroke="none" points="262,-158 262,-290 518,-290 518,-158 262,-158"/>
<polygon fill="#f5f5f5" stroke="none" points="264,-266 264,-288 516,-288 516,-266 264,-266"/>
<polygon fill="none" stroke="black" points="264,-266 264,-288 516,-288 516,-266 264,-266"/>
<text text-anchor="start" x="269" y="-275.2" font-family="Helvetica,sans-Serif" font-weight="bold" font-size="11.00">iso_images</text>
<text text-anchor="start" x="477" y="-274.2" font-family="Helvetica,sans-Serif" font-size="11.00">[table]</text>
<polygon fill="none" stroke="black" points="264,-244 264,-266 395,-266 395,-244 264,-244"/>
<image xlink:href="../../images/primaryKeys.png" width="11px" height="12px" preserveAspectRatio="xMinYMin meet" x="269" y="-261"/>
<text text-anchor="start" x="284" y="-252.2" font-family="Helvetica,sans-Serif" font-size="11.00">id</text>
<polygon fill="none" stroke="black" points="395,-244 395,-266 516,-266 516,-244 395,-244"/>
<text text-anchor="start" x="398" y="-252.2" font-family="Helvetica,sans-Serif" font-size="11.00">bigserial[19]</text>
<polygon fill="none" stroke="black" points="264,-222 264,-244 395,-244 395,-222 264,-222"/>
<text text-anchor="start" x="284" y="-230.2" font-family="Helvetica,sans-Serif" font-size="11.00">name</text>
<polygon fill="none" stroke="black" points="395,-222 395,-244 516,-244 516,-222 395,-222"/>
<text text-anchor="start" x="398" y="-230.2" font-family="Helvetica,sans-Serif" font-size="11.00">varchar[2147483647]</text>
<polygon fill="none" stroke="black" points="264,-200 264,-222 395,-222 395,-200 264,-200"/>
<image xlink:href="../../images/foreignKeys.png" width="11px" height="12px" preserveAspectRatio="xMinYMin meet" x="269" y="-217"/>
<text text-anchor="start" x="284" y="-208.2" font-family="Helvetica,sans-Serif" font-size="11.00">pxe_image_type_id</text>
<polygon fill="none" stroke="black" points="395,-200 395,-222 516,-222 516,-200 395,-200"/>
<text text-anchor="start" x="398" y="-208.2" font-family="Helvetica,sans-Serif" font-size="11.00">int8[19]</text>
<polygon fill="#ffffff" stroke="none" points="264,-178 264,-200 395,-200 395,-178 264,-178"/>
<polygon fill="none" stroke="black" points="264,-178 264,-200 395,-200 395,-178 264,-178"/>
<image xlink:href="../../images/foreignKeys.png" width="11px" height="12px" preserveAspectRatio="xMinYMin meet" x="269" y="-195"/>
<text text-anchor="start" x="284" y="-186.2" font-family="Helvetica,sans-Serif" font-size="11.00">storage_id</text>
<polygon fill="none" stroke="black" points="395,-178 395,-200 516,-200 516,-178 395,-178"/>
<text text-anchor="start" x="398" y="-186.2" font-family="Helvetica,sans-Serif" font-size="11.00">int8[19]</text>
<polygon fill="#ffffff" stroke="none" points="264,-160 264,-178 334,-178 334,-160 264,-160"/>
<polygon fill="none" stroke="black" points="264,-160 264,-178 334,-178 334,-160 264,-160"/>
<text text-anchor="start" x="267" y="-166.2" font-family="Helvetica,sans-Serif" font-size="11.00">&lt; 2</text>
<polygon fill="#ffffff" stroke="none" points="334,-160 334,-178 395,-178 395,-160 334,-160"/>
<polygon fill="none" stroke="black" points="334,-160 334,-178 395,-178 395,-160 334,-160"/>
<text text-anchor="start" x="385" y="-166.2" font-family="Helvetica,sans-Serif" font-size="11.00"> &#160;</text>
<polygon fill="#ffffff" stroke="none" points="395,-160 395,-178 516,-178 516,-160 395,-160"/>
<polygon fill="none" stroke="black" points="395,-160 395,-178 516,-178 516,-160 395,-160"/>
<text text-anchor="start" x="496" y="-166.2" font-family="Helvetica,sans-Serif" font-size="11.00">0 &gt;</text>
<polygon fill="none" stroke="black" stroke-width="2" points="263,-159 263,-289 517,-289 517,-159 263,-159"/>
</a>
</g>
</g>
<!-- pxe_image_types -->
<g id="node2" class="node"><title>pxe_image_types</title>
<g id="a_node2"><a xlink:href="../../tables/pxe_image_types.html" xlink:title="pxe_image_types" target="_top">
<polygon fill="#ffffff" stroke="none" points="38,-204 38,-284 183,-284 183,-204 38,-204"/>
<polygon fill="#f5f5f5" stroke="none" points="38.5,-262 38.5,-284 183.5,-284 183.5,-262 38.5,-262"/>
<polygon fill="none" stroke="black" points="38.5,-262 38.5,-284 183.5,-284 183.5,-262 38.5,-262"/>
<text text-anchor="start" x="43.5" y="-271.2" font-family="Helvetica,sans-Serif" font-weight="bold" font-size="11.00">pxe_image_types</text>
<text text-anchor="start" x="144.5" y="-270.2" font-family="Helvetica,sans-Serif" font-size="11.00">[table]</text>
<polygon fill="none" stroke="black" points="38.5,-240 38.5,-262 183.5,-262 183.5,-240 38.5,-240"/>
<image xlink:href="../../images/primaryKeys.png" width="11px" height="12px" preserveAspectRatio="xMinYMin meet" x="43.5" y="-257"/>
<text text-anchor="start" x="70.5" y="-248.2" font-family="Helvetica,sans-Serif" font-size="11.00">id</text>
<polygon fill="none" stroke="black" points="38.5,-222 38.5,-240 183.5,-240 183.5,-222 38.5,-222"/>
<text text-anchor="start" x="41.5" y="-228.2" font-family="Helvetica,sans-Serif" font-size="11.00">...</text>
<polygon fill="#ffffff" stroke="none" points="38.5,-204 38.5,-222 99.5,-222 99.5,-204 38.5,-204"/>
<polygon fill="none" stroke="black" points="38.5,-204 38.5,-222 99.5,-222 99.5,-204 38.5,-204"/>
<text text-anchor="start" x="41.5" y="-210.2" font-family="Helvetica,sans-Serif" font-size="11.00"> &#160;</text>
<polygon fill="#ffffff" stroke="none" points="99.5,-204 99.5,-222 136.5,-222 136.5,-204 99.5,-204"/>
<polygon fill="none" stroke="black" points="99.5,-204 99.5,-222 136.5,-222 136.5,-204 99.5,-204"/>
<text text-anchor="start" x="126.5" y="-210.2" font-family="Helvetica,sans-Serif" font-size="11.00"> &#160;</text>
<polygon fill="#ffffff" stroke="none" points="136.5,-204 136.5,-222 183.5,-222 183.5,-204 136.5,-204"/>
<polygon fill="none" stroke="black" points="136.5,-204 136.5,-222 183.5,-222 183.5,-204 136.5,-204"/>
<text text-anchor="start" x="163.5" y="-210.2" font-family="Helvetica,sans-Serif" font-size="11.00">4 &gt;</text>
</a>
</g>
</g>
<!-- iso_images&#45;&gt;pxe_image_types -->
<g id="edge1" class="edge"><title>iso_images:pxe_image_type_id:w&#45;&gt;pxe_image_types:id:e</title>
<path fill="none" stroke="black" d="M248.576,-213.151C223.02,-221.459 218.151,-251 184.5,-251"/>
<polygon fill="black" stroke="black" points="255.087,-212.18 263.531,-214.561 259.044,-211.59 263,-211 263,-211 263,-211 259.044,-211.59 262.469,-207.439 255.087,-212.18 255.087,-212.18"/>
<ellipse fill="none" stroke="black" cx="251.922" cy="-212.652" rx="3.2" ry="3.2"/>
</g>
<!-- storages -->
<g id="node3" class="node"><title>storages</title>
<g id="a_node3"><a xlink:href="../../tables/storages.html" xlink:title="storages" target="_top">
<polygon fill="#ffffff" stroke="none" points="8,-37 8,-183 213,-183 213,-37 8,-37"/>
<polygon fill="#f5f5f5" stroke="none" points="8.5,-161 8.5,-183 213.5,-183 213.5,-161 8.5,-161"/>
<polygon fill="none" stroke="black" points="8.5,-161 8.5,-183 213.5,-183 213.5,-161 8.5,-161"/>
<text text-anchor="start" x="13.5" y="-170.2" font-family="Helvetica,sans-Serif" font-weight="bold" font-size="11.00">storages</text>
<text text-anchor="start" x="174.5" y="-169.2" font-family="Helvetica,sans-Serif" font-size="11.00">[table]</text>
<polygon fill="none" stroke="black" points="8.5,-139 8.5,-161 213.5,-161 213.5,-139 8.5,-139"/>
<image xlink:href="../../images/primaryKeys.png" width="11px" height="12px" preserveAspectRatio="xMinYMin meet" x="13.5" y="-156"/>
<text text-anchor="start" x="28.5" y="-147.2" font-family="Helvetica,sans-Serif" font-size="11.00">id</text>
<polygon fill="#ffffff" stroke="none" points="8.5,-117 8.5,-139 213.5,-139 213.5,-117 8.5,-117"/>
<polygon fill="none" stroke="black" points="8.5,-117 8.5,-139 213.5,-139 213.5,-117 8.5,-117"/>
<text text-anchor="start" x="28.5" y="-125.2" font-family="Helvetica,sans-Serif" font-size="11.00">name</text>
<polygon fill="#ffffff" stroke="none" points="8.5,-95 8.5,-117 213.5,-117 213.5,-95 8.5,-95"/>
<polygon fill="none" stroke="black" points="8.5,-95 8.5,-117 213.5,-117 213.5,-95 8.5,-95"/>
<text text-anchor="start" x="28.5" y="-103.2" font-family="Helvetica,sans-Serif" font-size="11.00">location</text>
<polygon fill="#ffffff" stroke="none" points="8.5,-73 8.5,-95 213.5,-95 213.5,-73 8.5,-73"/>
<polygon fill="none" stroke="black" points="8.5,-73 8.5,-95 213.5,-95 213.5,-73 8.5,-73"/>
<text text-anchor="start" x="28.5" y="-81.2" font-family="Helvetica,sans-Serif" font-size="11.00">ems_id</text>
<polygon fill="none" stroke="black" points="8.5,-55 8.5,-73 213.5,-73 213.5,-55 8.5,-55"/>
<text text-anchor="start" x="11.5" y="-61.2" font-family="Helvetica,sans-Serif" font-size="11.00">...</text>
<polygon fill="#ffffff" stroke="none" points="8.5,-37 8.5,-55 99.5,-55 99.5,-37 8.5,-37"/>
<polygon fill="none" stroke="black" points="8.5,-37 8.5,-55 99.5,-55 99.5,-37 8.5,-37"/>
<text text-anchor="start" x="11.5" y="-43.2" font-family="Helvetica,sans-Serif" font-size="11.00"> &#160;</text>
<polygon fill="#ffffff" stroke="none" points="99.5,-37 99.5,-55 151.5,-55 151.5,-37 99.5,-37"/>
<polygon fill="none" stroke="black" points="99.5,-37 99.5,-55 151.5,-55 151.5,-37 99.5,-37"/>
<text text-anchor="start" x="141.5" y="-43.2" font-family="Helvetica,sans-Serif" font-size="11.00"> &#160;</text>
<polygon fill="#ffffff" stroke="none" points="151.5,-37 151.5,-55 213.5,-55 213.5,-37 151.5,-37"/>
<polygon fill="none" stroke="black" points="151.5,-37 151.5,-55 213.5,-55 213.5,-37 151.5,-37"/>
<text text-anchor="start" x="193.5" y="-43.2" font-family="Helvetica,sans-Serif" font-size="11.00">8 &gt;</text>
</a>
</g>
</g>
<!-- iso_images&#45;&gt;storages -->
<g id="edge2" class="edge"><title>iso_images:storage_id:w&#45;&gt;storages:id:e</title>
<path fill="none" stroke="black" d="M249.076,-184.218C236.674,-173.804 236.11,-150 214.5,-150"/>
<polygon fill="black" stroke="black" points="255.434,-186.401 261.831,-192.405 259.217,-187.701 263,-189 263,-189 263,-189 259.217,-187.701 264.169,-185.595 255.434,-186.401 255.434,-186.401"/>
<ellipse fill="none" stroke="black" cx="252.407" cy="-185.362" rx="3.20001" ry="3.20001"/>
</g>
</g>
</svg>
