<?xml version="1.0" encoding="UTF-8" standalone="no"?>
<!DOCTYPE svg PUBLIC "-//W3C//DTD SVG 1.1//EN"
 "http://www.w3.org/Graphics/SVG/1.1/DTD/svg11.dtd">
<!-- Generated by graphviz version 2.38.0 (20140413.2041)
 -->
<!-- Title: oneDegreeRelationshipsDiagram Pages: 1 -->
<svg width="465pt" height="824pt"
 viewBox="0.00 0.00 465.00 824.00" xmlns="http://www.w3.org/2000/svg" xmlns:xlink="http://www.w3.org/1999/xlink">
<g id="graph0" class="graph" transform="scale(1 1) rotate(0) translate(4 820)">
<title>oneDegreeRelationshipsDiagram</title>
<polygon fill="#ffffff" stroke="none" points="-4,4 -4,-820 461,-820 461,4 -4,4"/>
<text text-anchor="middle" x="74.5" y="-7.2" font-family="Helvetica,sans-Serif" font-size="11.00">Generated by SchemaSpy</text>
<!-- key_pairs_vms -->
<g id="node1" class="node"><title>key_pairs_vms</title>
<g id="a_node1"><a xlink:href="../../tables/key_pairs_vms.html" xlink:title="key_pairs_vms" target="_top">
<polygon fill="#ffffff" stroke="none" points="248,-631 248,-741 449,-741 449,-631 248,-631"/>
<polygon fill="#f5f5f5" stroke="none" points="250.5,-717 250.5,-739 447.5,-739 447.5,-717 250.5,-717"/>
<polygon fill="none" stroke="black" points="250.5,-717 250.5,-739 447.5,-739 447.5,-717 250.5,-717"/>
<text text-anchor="start" x="255.5" y="-726.2" font-family="Helvetica,sans-Serif" font-weight="bold" font-size="11.00">key_pairs_vms</text>
<text text-anchor="start" x="408.5" y="-725.2" font-family="Helvetica,sans-Serif" font-size="11.00">[table]</text>
<polygon fill="none" stroke="black" points="250.5,-695 250.5,-717 376.5,-717 376.5,-695 250.5,-695"/>
<image xlink:href="../../images/primaryKeys.png" width="11px" height="12px" preserveAspectRatio="xMinYMin meet" x="255.5" y="-712"/>
<text text-anchor="start" x="270.5" y="-703.2" font-family="Helvetica,sans-Serif" font-size="11.00">id</text>
<polygon fill="none" stroke="black" points="376.5,-695 376.5,-717 447.5,-717 447.5,-695 376.5,-695"/>
<text text-anchor="start" x="379.5" y="-703.2" font-family="Helvetica,sans-Serif" font-size="11.00">bigserial[19]</text>
<polygon fill="none" stroke="black" points="250.5,-673 250.5,-695 376.5,-695 376.5,-673 250.5,-673"/>
<image xlink:href="../../images/foreignKeys.png" width="11px" height="12px" preserveAspectRatio="xMinYMin meet" x="255.5" y="-690"/>
<text text-anchor="start" x="270.5" y="-681.2" font-family="Helvetica,sans-Serif" font-size="11.00">authentication_id</text>
<polygon fill="none" stroke="black" points="376.5,-673 376.5,-695 447.5,-695 447.5,-673 376.5,-673"/>
<text text-anchor="start" x="379.5" y="-681.2" font-family="Helvetica,sans-Serif" font-size="11.00">int8[19]</text>
<polygon fill="#ffffff" stroke="none" points="250.5,-651 250.5,-673 376.5,-673 376.5,-651 250.5,-651"/>
<polygon fill="none" stroke="black" points="250.5,-651 250.5,-673 376.5,-673 376.5,-651 250.5,-651"/>
<image xlink:href="../../images/foreignKeys.png" width="11px" height="12px" preserveAspectRatio="xMinYMin meet" x="255.5" y="-668"/>
<text text-anchor="start" x="270.5" y="-659.2" font-family="Helvetica,sans-Serif" font-size="11.00">vm_id</text>
<polygon fill="none" stroke="black" points="376.5,-651 376.5,-673 447.5,-673 447.5,-651 376.5,-651"/>
<text text-anchor="start" x="379.5" y="-659.2" font-family="Helvetica,sans-Serif" font-size="11.00">int8[19]</text>
<polygon fill="#ffffff" stroke="none" points="250.5,-633 250.5,-651 318.5,-651 318.5,-633 250.5,-633"/>
<polygon fill="none" stroke="black" points="250.5,-633 250.5,-651 318.5,-651 318.5,-633 250.5,-633"/>
<text text-anchor="start" x="253.5" y="-639.2" font-family="Helvetica,sans-Serif" font-size="11.00">&lt; 2</text>
<polygon fill="#ffffff" stroke="none" points="318.5,-633 318.5,-651 376.5,-651 376.5,-633 318.5,-633"/>
<polygon fill="none" stroke="black" points="318.5,-633 318.5,-651 376.5,-651 376.5,-633 318.5,-633"/>
<text text-anchor="start" x="366.5" y="-639.2" font-family="Helvetica,sans-Serif" font-size="11.00"> &#160;</text>
<polygon fill="#ffffff" stroke="none" points="376.5,-633 376.5,-651 447.5,-651 447.5,-633 376.5,-633"/>
<polygon fill="none" stroke="black" points="376.5,-633 376.5,-651 447.5,-651 447.5,-633 376.5,-633"/>
<text text-anchor="start" x="427.5" y="-639.2" font-family="Helvetica,sans-Serif" font-size="11.00">0 &gt;</text>
<polygon fill="none" stroke="black" stroke-width="2" points="249,-632 249,-740 448,-740 448,-632 249,-632"/>
</a>
</g>
</g>
<!-- authentications -->
<g id="node2" class="node"><title>authentications</title>
<g id="a_node2"><a xlink:href="../../tables/authentications.html" xlink:title="authentications" target="_top">
<polygon fill="#ffffff" stroke="none" points="22,-622 22,-812 185,-812 185,-622 22,-622"/>
<polygon fill="#f5f5f5" stroke="none" points="22.5,-790 22.5,-812 185.5,-812 185.5,-790 22.5,-790"/>
<polygon fill="none" stroke="black" points="22.5,-790 22.5,-812 185.5,-812 185.5,-790 22.5,-790"/>
<text text-anchor="start" x="27.5" y="-799.2" font-family="Helvetica,sans-Serif" font-weight="bold" font-size="11.00">authentications</text>
<text text-anchor="start" x="146.5" y="-798.2" font-family="Helvetica,sans-Serif" font-size="11.00">[table]</text>
<polygon fill="none" stroke="black" points="22.5,-768 22.5,-790 185.5,-790 185.5,-768 22.5,-768"/>
<image xlink:href="../../images/primaryKeys.png" width="11px" height="12px" preserveAspectRatio="xMinYMin meet" x="27.5" y="-785"/>
<text text-anchor="start" x="42.5" y="-776.2" font-family="Helvetica,sans-Serif" font-size="11.00">id</text>
<polygon fill="#ffffff" stroke="none" points="22.5,-746 22.5,-768 185.5,-768 185.5,-746 22.5,-746"/>
<polygon fill="none" stroke="black" points="22.5,-746 22.5,-768 185.5,-768 185.5,-746 22.5,-746"/>
<text text-anchor="start" x="42.5" y="-754.2" font-family="Helvetica,sans-Serif" font-size="11.00">resource_id</text>
<polygon fill="#ffffff" stroke="none" points="22.5,-724 22.5,-746 185.5,-746 185.5,-724 22.5,-724"/>
<polygon fill="none" stroke="black" points="22.5,-724 22.5,-746 185.5,-746 185.5,-724 22.5,-724"/>
<text text-anchor="start" x="42.5" y="-732.2" font-family="Helvetica,sans-Serif" font-size="11.00">resource_type</text>
<polygon fill="#ffffff" stroke="none" points="22.5,-702 22.5,-724 185.5,-724 185.5,-702 22.5,-702"/>
<polygon fill="none" stroke="black" points="22.5,-702 22.5,-724 185.5,-724 185.5,-702 22.5,-702"/>
<text text-anchor="start" x="42.5" y="-710.2" font-family="Helvetica,sans-Serif" font-size="11.00">type</text>
<polygon fill="none" stroke="black" points="22.5,-680 22.5,-702 185.5,-702 185.5,-680 22.5,-680"/>
<image xlink:href="../../images/foreignKeys.png" width="11px" height="12px" preserveAspectRatio="xMinYMin meet" x="27.5" y="-697"/>
<text text-anchor="start" x="42.5" y="-688.2" font-family="Helvetica,sans-Serif" font-size="11.00">miq_group_id</text>
<polygon fill="none" stroke="black" points="22.5,-658 22.5,-680 185.5,-680 185.5,-658 22.5,-658"/>
<image xlink:href="../../images/foreignKeys.png" width="11px" height="12px" preserveAspectRatio="xMinYMin meet" x="27.5" y="-675"/>
<text text-anchor="start" x="42.5" y="-666.2" font-family="Helvetica,sans-Serif" font-size="11.00">tenant_id</text>
<polygon fill="none" stroke="black" points="22.5,-640 22.5,-658 185.5,-658 185.5,-640 22.5,-640"/>
<text text-anchor="start" x="25.5" y="-646.2" font-family="Helvetica,sans-Serif" font-size="11.00">...</text>
<polygon fill="#ffffff" stroke="none" points="22.5,-622 22.5,-640 97.5,-640 97.5,-622 22.5,-622"/>
<polygon fill="none" stroke="black" points="22.5,-622 22.5,-640 97.5,-640 97.5,-622 22.5,-622"/>
<text text-anchor="start" x="25.5" y="-628.2" font-family="Helvetica,sans-Serif" font-size="11.00">&lt; 2</text>
<polygon fill="#ffffff" stroke="none" points="97.5,-622 97.5,-640 136.5,-640 136.5,-622 97.5,-622"/>
<polygon fill="none" stroke="black" points="97.5,-622 97.5,-640 136.5,-640 136.5,-622 97.5,-622"/>
<text text-anchor="start" x="126.5" y="-628.2" font-family="Helvetica,sans-Serif" font-size="11.00"> &#160;</text>
<polygon fill="#ffffff" stroke="none" points="136.5,-622 136.5,-640 185.5,-640 185.5,-622 136.5,-622"/>
<polygon fill="none" stroke="black" points="136.5,-622 136.5,-640 185.5,-640 185.5,-622 136.5,-622"/>
<text text-anchor="start" x="165.5" y="-628.2" font-family="Helvetica,sans-Serif" font-size="11.00">5 &gt;</text>
</a>
</g>
</g>
<!-- key_pairs_vms&#45;&gt;authentications -->
<g id="edge1" class="edge"><title>key_pairs_vms:authentication_id:w&#45;&gt;authentications:id:e</title>
<path fill="none" stroke="black" d="M235.45,-687.381C206.378,-704.304 231.424,-779 186.5,-779"/>
<polygon fill="black" stroke="black" points="241.722,-685.872 250.342,-687.5 245.611,-684.936 249.5,-684 249.5,-684 249.5,-684 245.611,-684.936 248.658,-680.5 241.722,-685.872 241.722,-685.872"/>
<ellipse fill="none" stroke="black" cx="238.611" cy="-686.62" rx="3.2" ry="3.2"/>
</g>
<!-- vms -->
<g id="node3" class="node"><title>vms</title>
<g id="a_node3"><a xlink:href="../../tables/vms.html" xlink:title="vms" target="_top">
<polygon fill="#ffffff" stroke="none" points="8,-37 8,-601 199,-601 199,-37 8,-37"/>
<polygon fill="#f5f5f5" stroke="none" points="8.5,-579 8.5,-601 199.5,-601 199.5,-579 8.5,-579"/>
<polygon fill="none" stroke="black" points="8.5,-579 8.5,-601 199.5,-601 199.5,-579 8.5,-579"/>
<text text-anchor="start" x="13.5" y="-588.2" font-family="Helvetica,sans-Serif" font-weight="bold" font-size="11.00">vms</text>
<text text-anchor="start" x="160.5" y="-587.2" font-family="Helvetica,sans-Serif" font-size="11.00">[table]</text>
<polygon fill="none" stroke="black" points="8.5,-557 8.5,-579 199.5,-579 199.5,-557 8.5,-557"/>
<image xlink:href="../../images/primaryKeys.png" width="11px" height="12px" preserveAspectRatio="xMinYMin meet" x="13.5" y="-574"/>
<text text-anchor="start" x="28.5" y="-565.2" font-family="Helvetica,sans-Serif" font-size="11.00">id</text>
<polygon fill="#ffffff" stroke="none" points="8.5,-535 8.5,-557 199.5,-557 199.5,-535 8.5,-535"/>
<polygon fill="none" stroke="black" points="8.5,-535 8.5,-557 199.5,-557 199.5,-535 8.5,-535"/>
<text text-anchor="start" x="28.5" y="-543.2" font-family="Helvetica,sans-Serif" font-size="11.00">name</text>
<polygon fill="#ffffff" stroke="none" points="8.5,-513 8.5,-535 199.5,-535 199.5,-513 8.5,-513"/>
<polygon fill="none" stroke="black" points="8.5,-513 8.5,-535 199.5,-535 199.5,-513 8.5,-513"/>
<text text-anchor="start" x="28.5" y="-521.2" font-family="Helvetica,sans-Serif" font-size="11.00">location</text>
<polygon fill="#ffffff" stroke="none" points="8.5,-491 8.5,-513 199.5,-513 199.5,-491 8.5,-491"/>
<polygon fill="none" stroke="black" points="8.5,-491 8.5,-513 199.5,-513 199.5,-491 8.5,-491"/>
<image xlink:href="../../images/foreignKeys.png" width="11px" height="12px" preserveAspectRatio="xMinYMin meet" x="13.5" y="-508"/>
<text text-anchor="start" x="28.5" y="-499.2" font-family="Helvetica,sans-Serif" font-size="11.00">host_id</text>
<polygon fill="#ffffff" stroke="none" points="8.5,-469 8.5,-491 199.5,-491 199.5,-469 8.5,-469"/>
<polygon fill="none" stroke="black" points="8.5,-469 8.5,-491 199.5,-491 199.5,-469 8.5,-469"/>
<image xlink:href="../../images/foreignKeys.png" width="11px" height="12px" preserveAspectRatio="xMinYMin meet" x="13.5" y="-486"/>
<text text-anchor="start" x="28.5" y="-477.2" font-family="Helvetica,sans-Serif" font-size="11.00">storage_id</text>
<polygon fill="#ffffff" stroke="none" points="8.5,-447 8.5,-469 199.5,-469 199.5,-447 8.5,-447"/>
<polygon fill="none" stroke="black" points="8.5,-447 8.5,-469 199.5,-469 199.5,-447 8.5,-447"/>
<text text-anchor="start" x="28.5" y="-455.2" font-family="Helvetica,sans-Serif" font-size="11.00">guid</text>
<polygon fill="#ffffff" stroke="none" points="8.5,-425 8.5,-447 199.5,-447 199.5,-425 8.5,-425"/>
<polygon fill="none" stroke="black" points="8.5,-425 8.5,-447 199.5,-447 199.5,-425 8.5,-425"/>
<text text-anchor="start" x="28.5" y="-433.2" font-family="Helvetica,sans-Serif" font-size="11.00">ems_id</text>
<polygon fill="#ffffff" stroke="none" points="8.5,-403 8.5,-425 199.5,-425 199.5,-403 8.5,-403"/>
<polygon fill="none" stroke="black" points="8.5,-403 8.5,-425 199.5,-425 199.5,-403 8.5,-403"/>
<text text-anchor="start" x="28.5" y="-411.2" font-family="Helvetica,sans-Serif" font-size="11.00">uid_ems</text>
<polygon fill="#ffffff" stroke="none" points="8.5,-381 8.5,-403 199.5,-403 199.5,-381 8.5,-381"/>
<polygon fill="none" stroke="black" points="8.5,-381 8.5,-403 199.5,-403 199.5,-381 8.5,-381"/>
<text text-anchor="start" x="28.5" y="-389.2" font-family="Helvetica,sans-Serif" font-size="11.00">evm_owner_id</text>
<polygon fill="#ffffff" stroke="none" points="8.5,-359 8.5,-381 199.5,-381 199.5,-359 8.5,-359"/>
<polygon fill="none" stroke="black" points="8.5,-359 8.5,-381 199.5,-381 199.5,-359 8.5,-359"/>
<image xlink:href="../../images/foreignKeys.png" width="11px" height="12px" preserveAspectRatio="xMinYMin meet" x="13.5" y="-376"/>
<text text-anchor="start" x="28.5" y="-367.2" font-family="Helvetica,sans-Serif" font-size="11.00">miq_group_id</text>
<polygon fill="#ffffff" stroke="none" points="8.5,-337 8.5,-359 199.5,-359 199.5,-337 8.5,-337"/>
<polygon fill="none" stroke="black" points="8.5,-337 8.5,-359 199.5,-359 199.5,-337 8.5,-337"/>
<text text-anchor="start" x="28.5" y="-345.2" font-family="Helvetica,sans-Serif" font-size="11.00">type</text>
<polygon fill="none" stroke="black" points="8.5,-315 8.5,-337 199.5,-337 199.5,-315 8.5,-315"/>
<image xlink:href="../../images/foreignKeys.png" width="11px" height="12px" preserveAspectRatio="xMinYMin meet" x="13.5" y="-332"/>
<text text-anchor="start" x="28.5" y="-323.2" font-family="Helvetica,sans-Serif" font-size="11.00">ems_cluster_id</text>
<polygon fill="#ffffff" stroke="none" points="8.5,-293 8.5,-315 199.5,-315 199.5,-293 8.5,-293"/>
<polygon fill="none" stroke="black" points="8.5,-293 8.5,-315 199.5,-315 199.5,-293 8.5,-293"/>
<image xlink:href="../../images/foreignKeys.png" width="11px" height="12px" preserveAspectRatio="xMinYMin meet" x="13.5" y="-310"/>
<text text-anchor="start" x="28.5" y="-301.2" font-family="Helvetica,sans-Serif" font-size="11.00">flavor_id</text>
<polygon fill="#ffffff" stroke="none" points="8.5,-271 8.5,-293 199.5,-293 199.5,-271 8.5,-271"/>
<polygon fill="none" stroke="black" points="8.5,-271 8.5,-293 199.5,-293 199.5,-271 8.5,-271"/>
<image xlink:href="../../images/foreignKeys.png" width="11px" height="12px" preserveAspectRatio="xMinYMin meet" x="13.5" y="-288"/>
<text text-anchor="start" x="28.5" y="-279.2" font-family="Helvetica,sans-Serif" font-size="11.00">availability_zone_id</text>
<polygon fill="none" stroke="black" points="8.5,-249 8.5,-271 199.5,-271 199.5,-249 8.5,-249"/>
<image xlink:href="../../images/foreignKeys.png" width="11px" height="12px" preserveAspectRatio="xMinYMin meet" x="13.5" y="-266"/>
<text text-anchor="start" x="28.5" y="-257.2" font-family="Helvetica,sans-Serif" font-size="11.00">cloud_network_id</text>
<polygon fill="none" stroke="black" points="8.5,-227 8.5,-249 199.5,-249 199.5,-227 8.5,-227"/>
<image xlink:href="../../images/foreignKeys.png" width="11px" height="12px" preserveAspectRatio="xMinYMin meet" x="13.5" y="-244"/>
<text text-anchor="start" x="28.5" y="-235.2" font-family="Helvetica,sans-Serif" font-size="11.00">cloud_subnet_id</text>
<polygon fill="none" stroke="black" points="8.5,-205 8.5,-227 199.5,-227 199.5,-205 8.5,-205"/>
<image xlink:href="../../images/foreignKeys.png" width="11px" height="12px" preserveAspectRatio="xMinYMin meet" x="13.5" y="-222"/>
<text text-anchor="start" x="28.5" y="-213.2" font-family="Helvetica,sans-Serif" font-size="11.00">cloud_tenant_id</text>
<polygon fill="none" stroke="black" points="8.5,-183 8.5,-205 199.5,-205 199.5,-183 8.5,-183"/>
<image xlink:href="../../images/foreignKeys.png" width="11px" height="12px" preserveAspectRatio="xMinYMin meet" x="13.5" y="-200"/>
<text text-anchor="start" x="28.5" y="-191.2" font-family="Helvetica,sans-Serif" font-size="11.00">orchestration_stack_id</text>
<polygon fill="#ffffff" stroke="none" points="8.5,-161 8.5,-183 199.5,-183 199.5,-161 8.5,-161"/>
<polygon fill="none" stroke="black" points="8.5,-161 8.5,-183 199.5,-183 199.5,-161 8.5,-161"/>
<image xlink:href="../../images/foreignKeys.png" width="11px" height="12px" preserveAspectRatio="xMinYMin meet" x="13.5" y="-178"/>
<text text-anchor="start" x="28.5" y="-169.2" font-family="Helvetica,sans-Serif" font-size="11.00">tenant_id</text>
<polygon fill="none" stroke="black" points="8.5,-139 8.5,-161 199.5,-161 199.5,-139 8.5,-139"/>
<image xlink:href="../../images/foreignKeys.png" width="11px" height="12px" preserveAspectRatio="xMinYMin meet" x="13.5" y="-156"/>
<text text-anchor="start" x="28.5" y="-147.2" font-family="Helvetica,sans-Serif" font-size="11.00">resource_group_id</text>
<polygon fill="none" stroke="black" points="8.5,-117 8.5,-139 199.5,-139 199.5,-117 8.5,-117"/>
<image xlink:href="../../images/foreignKeys.png" width="11px" height="12px" preserveAspectRatio="xMinYMin meet" x="13.5" y="-134"/>
<text text-anchor="start" x="28.5" y="-125.2" font-family="Helvetica,sans-Serif" font-size="11.00">storage_profile_id</text>
<polygon fill="#ffffff" stroke="none" points="8.5,-95 8.5,-117 199.5,-117 199.5,-95 8.5,-95"/>
<polygon fill="none" stroke="black" points="8.5,-95 8.5,-117 199.5,-117 199.5,-95 8.5,-95"/>
<text text-anchor="start" x="28.5" y="-103.2" font-family="Helvetica,sans-Serif" font-size="11.00">ancestry</text>
<polygon fill="#ffffff" stroke="none" points="8.5,-73 8.5,-95 199.5,-95 199.5,-73 8.5,-73"/>
<polygon fill="none" stroke="black" points="8.5,-73 8.5,-95 199.5,-95 199.5,-73 8.5,-73"/>
<image xlink:href="../../images/foreignKeys.png" width="11px" height="12px" preserveAspectRatio="xMinYMin meet" x="13.5" y="-90"/>
<text text-anchor="start" x="28.5" y="-81.2" font-family="Helvetica,sans-Serif" font-size="11.00">placement_group_id</text>
<polygon fill="none" stroke="black" points="8.5,-55 8.5,-73 199.5,-73 199.5,-55 8.5,-55"/>
<text text-anchor="start" x="11.5" y="-61.2" font-family="Helvetica,sans-Serif" font-size="11.00">...</text>
<polygon fill="#ffffff" stroke="none" points="8.5,-37 8.5,-55 100.5,-55 100.5,-37 8.5,-37"/>
<polygon fill="none" stroke="black" points="8.5,-37 8.5,-55 100.5,-55 100.5,-37 8.5,-37"/>
<text text-anchor="start" x="11.5" y="-43.2" font-family="Helvetica,sans-Serif" font-size="11.00">&lt; 14</text>
<polygon fill="#ffffff" stroke="none" points="100.5,-37 100.5,-55 144.5,-55 144.5,-37 100.5,-37"/>
<polygon fill="none" stroke="black" points="100.5,-37 100.5,-55 144.5,-55 144.5,-37 100.5,-37"/>
<text text-anchor="start" x="134.5" y="-43.2" font-family="Helvetica,sans-Serif" font-size="11.00"> &#160;</text>
<polygon fill="#ffffff" stroke="none" points="144.5,-37 144.5,-55 199.5,-55 199.5,-37 144.5,-37"/>
<polygon fill="none" stroke="black" points="144.5,-37 144.5,-55 199.5,-55 199.5,-37 144.5,-37"/>
<text text-anchor="start" x="179.5" y="-43.2" font-family="Helvetica,sans-Serif" font-size="11.00">7 &gt;</text>
</a>
</g>
</g>
<!-- key_pairs_vms&#45;&gt;vms -->
<g id="edge2" class="edge"><title>key_pairs_vms:vm_id:w&#45;&gt;vms:id:e</title>
<path fill="none" stroke="black" d="M235.488,-657.717C212.512,-639.328 241.54,-568 200.5,-568"/>
<polygon fill="black" stroke="black" points="241.849,-659.661 248.448,-665.443 245.675,-660.831 249.5,-662 249.5,-662 249.5,-662 245.675,-660.831 250.552,-658.557 241.849,-659.661 241.849,-659.661"/>
<ellipse fill="none" stroke="black" cx="238.789" cy="-658.726" rx="3.20001" ry="3.20001"/>
</g>
</g>
</svg>
