<?xml version="1.0" encoding="UTF-8" standalone="no"?>
<!DOCTYPE svg PUBLIC "-//W3C//DTD SVG 1.1//EN"
 "http://www.w3.org/Graphics/SVG/1.1/DTD/svg11.dtd">
<!-- Generated by graphviz version 2.38.0 (20140413.2041)
 -->
<!-- Title: oneDegreeRelationshipsDiagram Pages: 1 -->
<svg width="735pt" height="568pt"
 viewBox="0.00 0.00 735.00 568.00" xmlns="http://www.w3.org/2000/svg" xmlns:xlink="http://www.w3.org/1999/xlink">
<g id="graph0" class="graph" transform="scale(1 1) rotate(0) translate(4 564)">
<title>oneDegreeRelationshipsDiagram</title>
<polygon fill="#ffffff" stroke="none" points="-4,4 -4,-564 731,-564 731,4 -4,4"/>
<text text-anchor="middle" x="74.5" y="-7.2" font-family="Helvetica,sans-Serif" font-size="11.00">Generated by SchemaSpy</text>
<!-- guest_devices -->
<g id="node1" class="node"><title>guest_devices</title>
<g id="a_node1"><a xlink:href="../../tables/guest_devices.html" xlink:title="guest_devices" target="_top">
<polygon fill="#ffffff" stroke="none" points="567,-344 567,-556 719,-556 719,-344 567,-344"/>
<polygon fill="#f5f5f5" stroke="none" points="567,-534 567,-556 719,-556 719,-534 567,-534"/>
<polygon fill="none" stroke="black" points="567,-534 567,-556 719,-556 719,-534 567,-534"/>
<text text-anchor="start" x="572" y="-543.2" font-family="Helvetica,sans-Serif" font-weight="bold" font-size="11.00">guest_devices</text>
<text text-anchor="start" x="680" y="-542.2" font-family="Helvetica,sans-Serif" font-size="11.00">[table]</text>
<polygon fill="none" stroke="black" points="567,-512 567,-534 719,-534 719,-512 567,-512"/>
<image xlink:href="../../images/primaryKeys.png" width="11px" height="12px" preserveAspectRatio="xMinYMin meet" x="572" y="-529"/>
<text text-anchor="start" x="587" y="-520.2" font-family="Helvetica,sans-Serif" font-size="11.00">id</text>
<polygon fill="#ffffff" stroke="none" points="567,-490 567,-512 719,-512 719,-490 567,-490"/>
<polygon fill="none" stroke="black" points="567,-490 567,-512 719,-512 719,-490 567,-490"/>
<text text-anchor="start" x="587" y="-498.2" font-family="Helvetica,sans-Serif" font-size="11.00">device_name</text>
<polygon fill="#ffffff" stroke="none" points="567,-468 567,-490 719,-490 719,-468 567,-468"/>
<polygon fill="none" stroke="black" points="567,-468 567,-490 719,-490 719,-468 567,-468"/>
<text text-anchor="start" x="587" y="-476.2" font-family="Helvetica,sans-Serif" font-size="11.00">device_type</text>
<polygon fill="#ffffff" stroke="none" points="567,-446 567,-468 719,-468 719,-446 567,-446"/>
<polygon fill="none" stroke="black" points="567,-446 567,-468 719,-468 719,-446 567,-446"/>
<image xlink:href="../../images/foreignKeys.png" width="11px" height="12px" preserveAspectRatio="xMinYMin meet" x="572" y="-463"/>
<text text-anchor="start" x="587" y="-454.2" font-family="Helvetica,sans-Serif" font-size="11.00">hardware_id</text>
<polygon fill="#ffffff" stroke="none" points="567,-424 567,-446 719,-446 719,-424 567,-424"/>
<polygon fill="none" stroke="black" points="567,-424 567,-446 719,-446 719,-424 567,-424"/>
<image xlink:href="../../images/foreignKeys.png" width="11px" height="12px" preserveAspectRatio="xMinYMin meet" x="572" y="-441"/>
<text text-anchor="start" x="587" y="-432.2" font-family="Helvetica,sans-Serif" font-size="11.00">switch_id</text>
<polygon fill="#ffffff" stroke="none" points="567,-402 567,-424 719,-424 719,-402 567,-402"/>
<polygon fill="none" stroke="black" points="567,-402 567,-424 719,-424 719,-402 567,-402"/>
<image xlink:href="../../images/foreignKeys.png" width="11px" height="12px" preserveAspectRatio="xMinYMin meet" x="572" y="-419"/>
<text text-anchor="start" x="587" y="-410.2" font-family="Helvetica,sans-Serif" font-size="11.00">lan_id</text>
<polygon fill="#ffffff" stroke="none" points="567,-380 567,-402 719,-402 719,-380 567,-380"/>
<polygon fill="none" stroke="black" points="567,-380 567,-402 719,-402 719,-380 567,-380"/>
<text text-anchor="start" x="587" y="-388.2" font-family="Helvetica,sans-Serif" font-size="11.00">parent_device_id</text>
<polygon fill="none" stroke="black" points="567,-362 567,-380 719,-380 719,-362 567,-362"/>
<text text-anchor="start" x="570" y="-368.2" font-family="Helvetica,sans-Serif" font-size="11.00">...</text>
<polygon fill="#ffffff" stroke="none" points="567,-344 567,-362 636,-362 636,-344 567,-344"/>
<polygon fill="none" stroke="black" points="567,-344 567,-362 636,-362 636,-344 567,-344"/>
<text text-anchor="start" x="570" y="-350.2" font-family="Helvetica,sans-Serif" font-size="11.00">&lt; 3</text>
<polygon fill="#ffffff" stroke="none" points="636,-344 636,-362 672,-362 672,-344 636,-344"/>
<polygon fill="none" stroke="black" points="636,-344 636,-362 672,-362 672,-344 636,-344"/>
<text text-anchor="start" x="662" y="-350.2" font-family="Helvetica,sans-Serif" font-size="11.00"> &#160;</text>
<polygon fill="#ffffff" stroke="none" points="672,-344 672,-362 719,-362 719,-344 672,-344"/>
<polygon fill="none" stroke="black" points="672,-344 672,-362 719,-362 719,-344 672,-344"/>
<text text-anchor="start" x="699" y="-350.2" font-family="Helvetica,sans-Serif" font-size="11.00">3 &gt;</text>
</a>
</g>
</g>
<!-- lans -->
<g id="node2" class="node"><title>lans</title>
<g id="a_node2"><a xlink:href="../../tables/lans.html" xlink:title="lans" target="_top">
<polygon fill="#ffffff" stroke="none" points="192,-37 192,-411 518,-411 518,-37 192,-37"/>
<polygon fill="#f5f5f5" stroke="none" points="194,-387 194,-409 516,-409 516,-387 194,-387"/>
<polygon fill="none" stroke="black" points="194,-387 194,-409 516,-409 516,-387 194,-387"/>
<text text-anchor="start" x="199" y="-396.2" font-family="Helvetica,sans-Serif" font-weight="bold" font-size="11.00">lans</text>
<text text-anchor="start" x="477" y="-395.2" font-family="Helvetica,sans-Serif" font-size="11.00">[table]</text>
<polygon fill="none" stroke="black" points="194,-365 194,-387 395,-387 395,-365 194,-365"/>
<image xlink:href="../../images/primaryKeys.png" width="11px" height="12px" preserveAspectRatio="xMinYMin meet" x="199" y="-382"/>
<text text-anchor="start" x="214" y="-373.2" font-family="Helvetica,sans-Serif" font-size="11.00">id</text>
<polygon fill="none" stroke="black" points="395,-365 395,-387 516,-387 516,-365 395,-365"/>
<text text-anchor="start" x="398" y="-373.2" font-family="Helvetica,sans-Serif" font-size="11.00">bigserial[19]</text>
<polygon fill="#ffffff" stroke="none" points="194,-343 194,-365 395,-365 395,-343 194,-343"/>
<polygon fill="none" stroke="black" points="194,-343 194,-365 395,-365 395,-343 194,-343"/>
<image xlink:href="../../images/foreignKeys.png" width="11px" height="12px" preserveAspectRatio="xMinYMin meet" x="199" y="-360"/>
<text text-anchor="start" x="214" y="-351.2" font-family="Helvetica,sans-Serif" font-size="11.00">switch_id</text>
<polygon fill="none" stroke="black" points="395,-343 395,-365 516,-365 516,-343 395,-343"/>
<text text-anchor="start" x="398" y="-351.2" font-family="Helvetica,sans-Serif" font-size="11.00">int8[19]</text>
<polygon fill="none" stroke="black" points="194,-321 194,-343 395,-343 395,-321 194,-321"/>
<text text-anchor="start" x="214" y="-329.2" font-family="Helvetica,sans-Serif" font-size="11.00">name</text>
<polygon fill="none" stroke="black" points="395,-321 395,-343 516,-343 516,-321 395,-321"/>
<text text-anchor="start" x="398" y="-329.2" font-family="Helvetica,sans-Serif" font-size="11.00">varchar[2147483647]</text>
<polygon fill="none" stroke="black" points="194,-299 194,-321 395,-321 395,-299 194,-299"/>
<text text-anchor="start" x="214" y="-307.2" font-family="Helvetica,sans-Serif" font-size="11.00">tag</text>
<polygon fill="none" stroke="black" points="395,-299 395,-321 516,-321 516,-299 395,-299"/>
<text text-anchor="start" x="398" y="-307.2" font-family="Helvetica,sans-Serif" font-size="11.00">varchar[2147483647]</text>
<polygon fill="none" stroke="black" points="194,-277 194,-299 395,-299 395,-277 194,-277"/>
<text text-anchor="start" x="214" y="-285.2" font-family="Helvetica,sans-Serif" font-size="11.00">created_on</text>
<polygon fill="none" stroke="black" points="395,-277 395,-299 516,-299 516,-277 395,-277"/>
<text text-anchor="start" x="398" y="-285.2" font-family="Helvetica,sans-Serif" font-size="11.00">timestamp[29,6]</text>
<polygon fill="none" stroke="black" points="194,-255 194,-277 395,-277 395,-255 194,-255"/>
<text text-anchor="start" x="214" y="-263.2" font-family="Helvetica,sans-Serif" font-size="11.00">updated_on</text>
<polygon fill="none" stroke="black" points="395,-255 395,-277 516,-277 516,-255 395,-255"/>
<text text-anchor="start" x="398" y="-263.2" font-family="Helvetica,sans-Serif" font-size="11.00">timestamp[29,6]</text>
<polygon fill="none" stroke="black" points="194,-233 194,-255 395,-255 395,-233 194,-233"/>
<text text-anchor="start" x="214" y="-241.2" font-family="Helvetica,sans-Serif" font-size="11.00">uid_ems</text>
<polygon fill="none" stroke="black" points="395,-233 395,-255 516,-255 516,-233 395,-233"/>
<text text-anchor="start" x="398" y="-241.2" font-family="Helvetica,sans-Serif" font-size="11.00">varchar[2147483647]</text>
<polygon fill="none" stroke="black" points="194,-211 194,-233 395,-233 395,-211 194,-211"/>
<text text-anchor="start" x="214" y="-219.2" font-family="Helvetica,sans-Serif" font-size="11.00">allow_promiscuous</text>
<polygon fill="none" stroke="black" points="395,-211 395,-233 516,-233 516,-211 395,-211"/>
<text text-anchor="start" x="398" y="-219.2" font-family="Helvetica,sans-Serif" font-size="11.00">bool[1]</text>
<polygon fill="none" stroke="black" points="194,-189 194,-211 395,-211 395,-189 194,-189"/>
<text text-anchor="start" x="214" y="-197.2" font-family="Helvetica,sans-Serif" font-size="11.00">forged_transmits</text>
<polygon fill="none" stroke="black" points="395,-189 395,-211 516,-211 516,-189 395,-189"/>
<text text-anchor="start" x="398" y="-197.2" font-family="Helvetica,sans-Serif" font-size="11.00">bool[1]</text>
<polygon fill="none" stroke="black" points="194,-167 194,-189 395,-189 395,-167 194,-167"/>
<text text-anchor="start" x="214" y="-175.2" font-family="Helvetica,sans-Serif" font-size="11.00">mac_changes</text>
<polygon fill="none" stroke="black" points="395,-167 395,-189 516,-189 516,-167 395,-167"/>
<text text-anchor="start" x="398" y="-175.2" font-family="Helvetica,sans-Serif" font-size="11.00">bool[1]</text>
<polygon fill="none" stroke="black" points="194,-145 194,-167 395,-167 395,-145 194,-145"/>
<text text-anchor="start" x="214" y="-153.2" font-family="Helvetica,sans-Serif" font-size="11.00">computed_allow_promiscuous</text>
<polygon fill="none" stroke="black" points="395,-145 395,-167 516,-167 516,-145 395,-145"/>
<text text-anchor="start" x="398" y="-153.2" font-family="Helvetica,sans-Serif" font-size="11.00">bool[1]</text>
<polygon fill="none" stroke="black" points="194,-123 194,-145 395,-145 395,-123 194,-123"/>
<text text-anchor="start" x="214" y="-131.2" font-family="Helvetica,sans-Serif" font-size="11.00">computed_forged_transmits</text>
<polygon fill="none" stroke="black" points="395,-123 395,-145 516,-145 516,-123 395,-123"/>
<text text-anchor="start" x="398" y="-131.2" font-family="Helvetica,sans-Serif" font-size="11.00">bool[1]</text>
<polygon fill="none" stroke="black" points="194,-101 194,-123 395,-123 395,-101 194,-101"/>
<text text-anchor="start" x="214" y="-109.2" font-family="Helvetica,sans-Serif" font-size="11.00">computed_mac_changes</text>
<polygon fill="none" stroke="black" points="395,-101 395,-123 516,-123 516,-101 395,-101"/>
<text text-anchor="start" x="398" y="-109.2" font-family="Helvetica,sans-Serif" font-size="11.00">bool[1]</text>
<polygon fill="none" stroke="black" points="194,-79 194,-101 395,-101 395,-79 194,-79"/>
<text text-anchor="start" x="214" y="-87.2" font-family="Helvetica,sans-Serif" font-size="11.00">parent_id</text>
<polygon fill="none" stroke="black" points="395,-79 395,-101 516,-101 516,-79 395,-79"/>
<text text-anchor="start" x="398" y="-87.2" font-family="Helvetica,sans-Serif" font-size="11.00">int8[19]</text>
<polygon fill="none" stroke="black" points="194,-57 194,-79 395,-79 395,-57 194,-57"/>
<text text-anchor="start" x="214" y="-65.2" font-family="Helvetica,sans-Serif" font-size="11.00">ems_ref</text>
<polygon fill="none" stroke="black" points="395,-57 395,-79 516,-79 516,-57 395,-57"/>
<text text-anchor="start" x="398" y="-65.2" font-family="Helvetica,sans-Serif" font-size="11.00">varchar[2147483647]</text>
<polygon fill="#ffffff" stroke="none" points="194,-39 194,-57 299,-57 299,-39 194,-39"/>
<polygon fill="none" stroke="black" points="194,-39 194,-57 299,-57 299,-39 194,-39"/>
<text text-anchor="start" x="197" y="-45.2" font-family="Helvetica,sans-Serif" font-size="11.00">&lt; 1</text>
<polygon fill="#ffffff" stroke="none" points="299,-39 299,-57 395,-57 395,-39 299,-39"/>
<polygon fill="none" stroke="black" points="299,-39 299,-57 395,-57 395,-39 299,-39"/>
<text text-anchor="start" x="385" y="-45.2" font-family="Helvetica,sans-Serif" font-size="11.00"> &#160;</text>
<polygon fill="#ffffff" stroke="none" points="395,-39 395,-57 516,-57 516,-39 395,-39"/>
<polygon fill="none" stroke="black" points="395,-39 395,-57 516,-57 516,-39 395,-39"/>
<text text-anchor="start" x="496" y="-45.2" font-family="Helvetica,sans-Serif" font-size="11.00">2 &gt;</text>
<polygon fill="none" stroke="black" stroke-width="2" points="193,-38 193,-410 517,-410 517,-38 193,-38"/>
</a>
</g>
</g>
<!-- guest_devices&#45;&gt;lans -->
<g id="edge1" class="edge"><title>guest_devices:lan_id:w&#45;&gt;lans:id.type:e</title>
<path fill="none" stroke="black" d="M552.122,-408.463C539.579,-398.583 538.32,-376 517,-376"/>
<polygon fill="black" stroke="black" points="558.396,-410.514 564.881,-416.422 562.198,-411.757 566,-413 566,-413 566,-413 562.198,-411.757 567.119,-409.578 558.396,-410.514 558.396,-410.514"/>
<ellipse fill="none" stroke="black" cx="555.354" cy="-409.52" rx="3.20001" ry="3.20001"/>
</g>
<!-- switches -->
<g id="node3" class="node"><title>switches</title>
<g id="a_node3"><a xlink:href="../../tables/switches.html" xlink:title="switches" target="_top">
<polygon fill="#ffffff" stroke="none" points="8,-303 8,-427 143,-427 143,-303 8,-303"/>
<polygon fill="#f5f5f5" stroke="none" points="8.5,-405 8.5,-427 143.5,-427 143.5,-405 8.5,-405"/>
<polygon fill="none" stroke="black" points="8.5,-405 8.5,-427 143.5,-427 143.5,-405 8.5,-405"/>
<text text-anchor="start" x="13.5" y="-414.2" font-family="Helvetica,sans-Serif" font-weight="bold" font-size="11.00">switches</text>
<text text-anchor="start" x="104.5" y="-413.2" font-family="Helvetica,sans-Serif" font-size="11.00">[table]</text>
<polygon fill="none" stroke="black" points="8.5,-383 8.5,-405 143.5,-405 143.5,-383 8.5,-383"/>
<image xlink:href="../../images/primaryKeys.png" width="11px" height="12px" preserveAspectRatio="xMinYMin meet" x="13.5" y="-400"/>
<text text-anchor="start" x="28.5" y="-391.2" font-family="Helvetica,sans-Serif" font-size="11.00">id</text>
<polygon fill="#ffffff" stroke="none" points="8.5,-361 8.5,-383 143.5,-383 143.5,-361 8.5,-361"/>
<polygon fill="none" stroke="black" points="8.5,-361 8.5,-383 143.5,-383 143.5,-361 8.5,-361"/>
<text text-anchor="start" x="28.5" y="-369.2" font-family="Helvetica,sans-Serif" font-size="11.00">name</text>
<polygon fill="#ffffff" stroke="none" points="8.5,-339 8.5,-361 143.5,-361 143.5,-339 8.5,-339"/>
<polygon fill="none" stroke="black" points="8.5,-339 8.5,-361 143.5,-361 143.5,-339 8.5,-339"/>
<image xlink:href="../../images/foreignKeys.png" width="11px" height="12px" preserveAspectRatio="xMinYMin meet" x="13.5" y="-356"/>
<text text-anchor="start" x="28.5" y="-347.2" font-family="Helvetica,sans-Serif" font-size="11.00">host_id</text>
<polygon fill="none" stroke="black" points="8.5,-321 8.5,-339 143.5,-339 143.5,-321 8.5,-321"/>
<text text-anchor="start" x="11.5" y="-327.2" font-family="Helvetica,sans-Serif" font-size="11.00">...</text>
<polygon fill="#ffffff" stroke="none" points="8.5,-303 8.5,-321 69.5,-321 69.5,-303 8.5,-303"/>
<polygon fill="none" stroke="black" points="8.5,-303 8.5,-321 69.5,-321 69.5,-303 8.5,-303"/>
<text text-anchor="start" x="11.5" y="-309.2" font-family="Helvetica,sans-Serif" font-size="11.00">&lt; 1</text>
<polygon fill="#ffffff" stroke="none" points="69.5,-303 69.5,-321 101.5,-321 101.5,-303 69.5,-303"/>
<polygon fill="none" stroke="black" points="69.5,-303 69.5,-321 101.5,-321 101.5,-303 69.5,-303"/>
<text text-anchor="start" x="91.5" y="-309.2" font-family="Helvetica,sans-Serif" font-size="11.00"> &#160;</text>
<polygon fill="#ffffff" stroke="none" points="101.5,-303 101.5,-321 143.5,-321 143.5,-303 101.5,-303"/>
<polygon fill="none" stroke="black" points="101.5,-303 101.5,-321 143.5,-321 143.5,-303 101.5,-303"/>
<text text-anchor="start" x="123.5" y="-309.2" font-family="Helvetica,sans-Serif" font-size="11.00">5 &gt;</text>
</a>
</g>
</g>
<!-- guest_devices&#45;&gt;switches -->
<g id="edge2" class="edge"><title>guest_devices:switch_id:w&#45;&gt;switches:id:e</title>
<path fill="none" stroke="black" d="M551.369,-435.103C393.032,-437.338 340.249,-474.706 184,-422 163.61,-415.122 166.019,-394 144.5,-394"/>
<polygon fill="black" stroke="black" points="558,-435.056 566.025,-438.6 562,-435.028 566,-435 566,-435 566,-435 562,-435.028 565.975,-431.4 558,-435.056 558,-435.056"/>
<ellipse fill="none" stroke="black" cx="554.8" cy="-435.079" rx="3.2" ry="3.2"/>
</g>
<!-- lans&#45;&gt;switches -->
<g id="edge3" class="edge"><title>lans:switch_id:w&#45;&gt;switches:id:e</title>
<path fill="none" stroke="black" d="M178.995,-358.905C166.598,-369.586 166.329,-394 144.5,-394"/>
<polygon fill="black" stroke="black" points="185.45,-356.644 194.19,-357.398 189.225,-355.322 193,-354 193,-354 193,-354 189.225,-355.322 191.81,-350.602 185.45,-356.644 185.45,-356.644"/>
<ellipse fill="none" stroke="black" cx="182.43" cy="-357.702" rx="3.20001" ry="3.20001"/>
</g>
<!-- subnets -->
<g id="node4" class="node"><title>subnets</title>
<g id="a_node4"><a xlink:href="../../tables/subnets.html" xlink:title="subnets" target="_top">
<polygon fill="#ffffff" stroke="none" points="596,-221 596,-323 690,-323 690,-221 596,-221"/>
<polygon fill="#f5f5f5" stroke="none" points="596,-301 596,-323 690,-323 690,-301 596,-301"/>
<polygon fill="none" stroke="black" points="596,-301 596,-323 690,-323 690,-301 596,-301"/>
<text text-anchor="start" x="601" y="-310.2" font-family="Helvetica,sans-Serif" font-weight="bold" font-size="11.00">subnets</text>
<text text-anchor="start" x="651" y="-309.2" font-family="Helvetica,sans-Serif" font-size="11.00">[table]</text>
<polygon fill="none" stroke="black" points="596,-279 596,-301 690,-301 690,-279 596,-279"/>
<image xlink:href="../../images/primaryKeys.png" width="11px" height="12px" preserveAspectRatio="xMinYMin meet" x="601" y="-296"/>
<text text-anchor="start" x="629" y="-287.2" font-family="Helvetica,sans-Serif" font-size="11.00">id</text>
<polygon fill="none" stroke="black" points="596,-257 596,-279 690,-279 690,-257 596,-257"/>
<image xlink:href="../../images/foreignKeys.png" width="11px" height="12px" preserveAspectRatio="xMinYMin meet" x="601" y="-274"/>
<text text-anchor="start" x="629" y="-265.2" font-family="Helvetica,sans-Serif" font-size="11.00">lan_id</text>
<polygon fill="none" stroke="black" points="596,-239 596,-257 690,-257 690,-239 596,-239"/>
<text text-anchor="start" x="599" y="-245.2" font-family="Helvetica,sans-Serif" font-size="11.00">...</text>
<polygon fill="#ffffff" stroke="none" points="596,-221 596,-239 641,-239 641,-221 596,-221"/>
<polygon fill="none" stroke="black" points="596,-221 596,-239 641,-239 641,-221 596,-221"/>
<text text-anchor="start" x="599" y="-227.2" font-family="Helvetica,sans-Serif" font-size="11.00">&lt; 1</text>
<polygon fill="#ffffff" stroke="none" points="641,-221 641,-239 665,-239 665,-221 641,-221"/>
<polygon fill="none" stroke="black" points="641,-221 641,-239 665,-239 665,-221 641,-221"/>
<text text-anchor="start" x="655" y="-227.2" font-family="Helvetica,sans-Serif" font-size="11.00"> &#160;</text>
<polygon fill="#ffffff" stroke="none" points="665,-221 665,-239 690,-239 690,-221 665,-221"/>
<polygon fill="none" stroke="black" points="665,-221 665,-239 690,-239 690,-221 665,-221"/>
<text text-anchor="start" x="680" y="-227.2" font-family="Helvetica,sans-Serif" font-size="11.00"> &#160;</text>
</a>
</g>
</g>
<!-- subnets&#45;&gt;lans -->
<g id="edge4" class="edge"><title>subnets:lan_id:w&#45;&gt;lans:id.type:e</title>
<path fill="none" stroke="black" d="M580.81,-270.67C542.493,-287.301 570.659,-376 517,-376"/>
<polygon fill="black" stroke="black" points="587.138,-269.479 595.666,-271.538 591.069,-268.74 595,-268 595,-268 595,-268 591.069,-268.74 594.334,-264.462 587.138,-269.479 587.138,-269.479"/>
<ellipse fill="none" stroke="black" cx="583.993" cy="-270.071" rx="3.2" ry="3.2"/>
</g>
</g>
</svg>
