<?xml version="1.0" encoding="UTF-8" standalone="no"?>
<!DOCTYPE svg PUBLIC "-//W3C//DTD SVG 1.1//EN"
 "http://www.w3.org/Graphics/SVG/1.1/DTD/svg11.dtd">
<!-- Generated by graphviz version 2.38.0 (20140413.2041)
 -->
<!-- Title: twoDegreesRelationshipsDiagram Pages: 1 -->
<svg width="1095pt" height="711pt"
 viewBox="0.00 0.00 1095.00 711.00" xmlns="http://www.w3.org/2000/svg" xmlns:xlink="http://www.w3.org/1999/xlink">
<g id="graph0" class="graph" transform="scale(1 1) rotate(0) translate(4 707)">
<title>twoDegreesRelationshipsDiagram</title>
<polygon fill="#ffffff" stroke="none" points="-4,4 -4,-707 1091,-707 1091,4 -4,4"/>
<text text-anchor="middle" x="74.5" y="-7.2" font-family="Helvetica,sans-Serif" font-size="11.00">Generated by SchemaSpy</text>
<!-- firmwares -->
<g id="node1" class="node"><title>firmwares</title>
<g id="a_node1"><a xlink:href="../../tables/firmwares.html" xlink:title="firmwares" target="_top">
<polygon fill="#ffffff" stroke="none" points="934.5,-641 934.5,-699 1040.5,-699 1040.5,-641 934.5,-641"/>
<polygon fill="#f5f5f5" stroke="none" points="934.5,-677 934.5,-699 1040.5,-699 1040.5,-677 934.5,-677"/>
<polygon fill="none" stroke="black" points="934.5,-677 934.5,-699 1040.5,-699 1040.5,-677 934.5,-677"/>
<text text-anchor="start" x="939.5" y="-686.2" font-family="Helvetica,sans-Serif" font-weight="bold" font-size="11.00">firmwares</text>
<text text-anchor="start" x="1001.5" y="-685.2" font-family="Helvetica,sans-Serif" font-size="11.00">[table]</text>
<polygon fill="none" stroke="black" points="934.5,-659 934.5,-677 1040.5,-677 1040.5,-659 934.5,-659"/>
<text text-anchor="start" x="937.5" y="-665.2" font-family="Helvetica,sans-Serif" font-size="11.00">...</text>
<polygon fill="#ffffff" stroke="none" points="934.5,-641 934.5,-659 985.5,-659 985.5,-641 934.5,-641"/>
<polygon fill="none" stroke="black" points="934.5,-641 934.5,-659 985.5,-659 985.5,-641 934.5,-641"/>
<text text-anchor="start" x="937.5" y="-647.2" font-family="Helvetica,sans-Serif" font-size="11.00">&lt; 1</text>
<polygon fill="#ffffff" stroke="none" points="985.5,-641 985.5,-659 1012.5,-659 1012.5,-641 985.5,-641"/>
<polygon fill="none" stroke="black" points="985.5,-641 985.5,-659 1012.5,-659 1012.5,-641 985.5,-641"/>
<text text-anchor="start" x="1002.5" y="-647.2" font-family="Helvetica,sans-Serif" font-size="11.00"> &#160;</text>
<polygon fill="#ffffff" stroke="none" points="1012.5,-641 1012.5,-659 1040.5,-659 1040.5,-641 1012.5,-641"/>
<polygon fill="none" stroke="black" points="1012.5,-641 1012.5,-659 1040.5,-659 1040.5,-641 1012.5,-641"/>
<text text-anchor="start" x="1030.5" y="-647.2" font-family="Helvetica,sans-Serif" font-size="11.00"> &#160;</text>
</a>
</g>
</g>
<!-- guest_devices -->
<g id="node2" class="node"><title>guest_devices</title>
<g id="a_node2"><a xlink:href="../../tables/guest_devices.html" xlink:title="guest_devices" target="_top">
<polygon fill="#ffffff" stroke="none" points="695,-450 695,-662 847,-662 847,-450 695,-450"/>
<polygon fill="#f5f5f5" stroke="none" points="695,-640 695,-662 847,-662 847,-640 695,-640"/>
<polygon fill="none" stroke="black" points="695,-640 695,-662 847,-662 847,-640 695,-640"/>
<text text-anchor="start" x="700" y="-649.2" font-family="Helvetica,sans-Serif" font-weight="bold" font-size="11.00">guest_devices</text>
<text text-anchor="start" x="808" y="-648.2" font-family="Helvetica,sans-Serif" font-size="11.00">[table]</text>
<polygon fill="none" stroke="black" points="695,-618 695,-640 847,-640 847,-618 695,-618"/>
<image xlink:href="../../images/primaryKeys.png" width="11px" height="12px" preserveAspectRatio="xMinYMin meet" x="700" y="-635"/>
<text text-anchor="start" x="715" y="-626.2" font-family="Helvetica,sans-Serif" font-size="11.00">id</text>
<polygon fill="#ffffff" stroke="none" points="695,-596 695,-618 847,-618 847,-596 695,-596"/>
<polygon fill="none" stroke="black" points="695,-596 695,-618 847,-618 847,-596 695,-596"/>
<text text-anchor="start" x="715" y="-604.2" font-family="Helvetica,sans-Serif" font-size="11.00">device_name</text>
<polygon fill="#ffffff" stroke="none" points="695,-574 695,-596 847,-596 847,-574 695,-574"/>
<polygon fill="none" stroke="black" points="695,-574 695,-596 847,-596 847,-574 695,-574"/>
<text text-anchor="start" x="715" y="-582.2" font-family="Helvetica,sans-Serif" font-size="11.00">device_type</text>
<polygon fill="#ffffff" stroke="none" points="695,-552 695,-574 847,-574 847,-552 695,-552"/>
<polygon fill="none" stroke="black" points="695,-552 695,-574 847,-574 847,-552 695,-552"/>
<image xlink:href="../../images/foreignKeys.png" width="11px" height="12px" preserveAspectRatio="xMinYMin meet" x="700" y="-569"/>
<text text-anchor="start" x="715" y="-560.2" font-family="Helvetica,sans-Serif" font-size="11.00">hardware_id</text>
<polygon fill="#ffffff" stroke="none" points="695,-530 695,-552 847,-552 847,-530 695,-530"/>
<polygon fill="none" stroke="black" points="695,-530 695,-552 847,-552 847,-530 695,-530"/>
<image xlink:href="../../images/foreignKeys.png" width="11px" height="12px" preserveAspectRatio="xMinYMin meet" x="700" y="-547"/>
<text text-anchor="start" x="715" y="-538.2" font-family="Helvetica,sans-Serif" font-size="11.00">switch_id</text>
<polygon fill="#ffffff" stroke="none" points="695,-508 695,-530 847,-530 847,-508 695,-508"/>
<polygon fill="none" stroke="black" points="695,-508 695,-530 847,-530 847,-508 695,-508"/>
<image xlink:href="../../images/foreignKeys.png" width="11px" height="12px" preserveAspectRatio="xMinYMin meet" x="700" y="-525"/>
<text text-anchor="start" x="715" y="-516.2" font-family="Helvetica,sans-Serif" font-size="11.00">lan_id</text>
<polygon fill="#ffffff" stroke="none" points="695,-486 695,-508 847,-508 847,-486 695,-486"/>
<polygon fill="none" stroke="black" points="695,-486 695,-508 847,-508 847,-486 695,-486"/>
<text text-anchor="start" x="715" y="-494.2" font-family="Helvetica,sans-Serif" font-size="11.00">parent_device_id</text>
<polygon fill="none" stroke="black" points="695,-468 695,-486 847,-486 847,-468 695,-468"/>
<text text-anchor="start" x="698" y="-474.2" font-family="Helvetica,sans-Serif" font-size="11.00">...</text>
<polygon fill="#ffffff" stroke="none" points="695,-450 695,-468 764,-468 764,-450 695,-450"/>
<polygon fill="none" stroke="black" points="695,-450 695,-468 764,-468 764,-450 695,-450"/>
<text text-anchor="start" x="698" y="-456.2" font-family="Helvetica,sans-Serif" font-size="11.00">&lt; 3</text>
<polygon fill="#ffffff" stroke="none" points="764,-450 764,-468 800,-468 800,-450 764,-450"/>
<polygon fill="none" stroke="black" points="764,-450 764,-468 800,-468 800,-450 764,-450"/>
<text text-anchor="start" x="790" y="-456.2" font-family="Helvetica,sans-Serif" font-size="11.00"> &#160;</text>
<polygon fill="#ffffff" stroke="none" points="800,-450 800,-468 847,-468 847,-450 800,-450"/>
<polygon fill="none" stroke="black" points="800,-450 800,-468 847,-468 847,-450 800,-450"/>
<text text-anchor="start" x="827" y="-456.2" font-family="Helvetica,sans-Serif" font-size="11.00">3 &gt;</text>
</a>
</g>
</g>
<!-- firmwares&#45;&gt;guest_devices -->
<g id="edge1" class="edge"><title>firmwares:elipses:w&#45;&gt;guest_devices:id:e</title>
<path fill="none" stroke="black" d="M919.162,-666.223C890.565,-658.593 884.383,-629 848,-629"/>
<polygon fill="black" stroke="black" points="925.561,-667.016 933.057,-671.573 929.53,-667.508 933.5,-668 933.5,-668 933.5,-668 929.53,-667.508 933.943,-664.427 925.561,-667.016 925.561,-667.016"/>
<ellipse fill="none" stroke="black" cx="922.385" cy="-666.622" rx="3.2" ry="3.2"/>
</g>
<!-- hardwares -->
<g id="node3" class="node"><title>hardwares</title>
<g id="a_node3"><a xlink:href="../../tables/hardwares.html" xlink:title="hardwares" target="_top">
<polygon fill="#ffffff" stroke="none" points="428.5,-565 428.5,-623 537.5,-623 537.5,-565 428.5,-565"/>
<polygon fill="#f5f5f5" stroke="none" points="429,-601 429,-623 538,-623 538,-601 429,-601"/>
<polygon fill="none" stroke="black" points="429,-601 429,-623 538,-623 538,-601 429,-601"/>
<text text-anchor="start" x="434" y="-610.2" font-family="Helvetica,sans-Serif" font-weight="bold" font-size="11.00">hardwares</text>
<text text-anchor="start" x="499" y="-609.2" font-family="Helvetica,sans-Serif" font-size="11.00">[table]</text>
<polygon fill="none" stroke="black" points="429,-583 429,-601 538,-601 538,-583 429,-583"/>
<text text-anchor="start" x="432" y="-589.2" font-family="Helvetica,sans-Serif" font-size="11.00">...</text>
<polygon fill="#ffffff" stroke="none" points="429,-565 429,-583 477,-583 477,-565 429,-565"/>
<polygon fill="none" stroke="black" points="429,-565 429,-583 477,-583 477,-565 429,-565"/>
<text text-anchor="start" x="432" y="-571.2" font-family="Helvetica,sans-Serif" font-size="11.00">&lt; 4</text>
<polygon fill="#ffffff" stroke="none" points="477,-565 477,-583 502,-583 502,-565 477,-565"/>
<polygon fill="none" stroke="black" points="477,-565 477,-583 502,-583 502,-565 477,-565"/>
<text text-anchor="start" x="492" y="-571.2" font-family="Helvetica,sans-Serif" font-size="11.00"> &#160;</text>
<polygon fill="#ffffff" stroke="none" points="502,-565 502,-583 538,-583 538,-565 502,-565"/>
<polygon fill="none" stroke="black" points="502,-565 502,-583 538,-583 538,-565 502,-565"/>
<text text-anchor="start" x="518" y="-571.2" font-family="Helvetica,sans-Serif" font-size="11.00">5 &gt;</text>
</a>
</g>
</g>
<!-- guest_devices&#45;&gt;hardwares -->
<g id="edge2" class="edge"><title>guest_devices:hardware_id:w&#45;&gt;hardwares:elipses:e</title>
<path fill="none" stroke="black" d="M679.263,-563.456C621.41,-567.145 603.883,-592 539,-592"/>
<polygon fill="black" stroke="black" points="686.004,-563.247 694.111,-566.598 690.002,-563.124 694,-563 694,-563 694,-563 690.002,-563.124 693.889,-559.402 686.004,-563.247 686.004,-563.247"/>
<ellipse fill="none" stroke="black" cx="682.805" cy="-563.346" rx="3.2" ry="3.2"/>
</g>
<!-- lans -->
<g id="node4" class="node"><title>lans</title>
<g id="a_node4"><a xlink:href="../../tables/lans.html" xlink:title="lans" target="_top">
<polygon fill="#ffffff" stroke="none" points="320,-143 320,-517 646,-517 646,-143 320,-143"/>
<polygon fill="#f5f5f5" stroke="none" points="322,-493 322,-515 644,-515 644,-493 322,-493"/>
<polygon fill="none" stroke="black" points="322,-493 322,-515 644,-515 644,-493 322,-493"/>
<text text-anchor="start" x="327" y="-502.2" font-family="Helvetica,sans-Serif" font-weight="bold" font-size="11.00">lans</text>
<text text-anchor="start" x="605" y="-501.2" font-family="Helvetica,sans-Serif" font-size="11.00">[table]</text>
<polygon fill="none" stroke="black" points="322,-471 322,-493 523,-493 523,-471 322,-471"/>
<image xlink:href="../../images/primaryKeys.png" width="11px" height="12px" preserveAspectRatio="xMinYMin meet" x="327" y="-488"/>
<text text-anchor="start" x="342" y="-479.2" font-family="Helvetica,sans-Serif" font-size="11.00">id</text>
<polygon fill="none" stroke="black" points="523,-471 523,-493 644,-493 644,-471 523,-471"/>
<text text-anchor="start" x="526" y="-479.2" font-family="Helvetica,sans-Serif" font-size="11.00">bigserial[19]</text>
<polygon fill="#ffffff" stroke="none" points="322,-449 322,-471 523,-471 523,-449 322,-449"/>
<polygon fill="none" stroke="black" points="322,-449 322,-471 523,-471 523,-449 322,-449"/>
<image xlink:href="../../images/foreignKeys.png" width="11px" height="12px" preserveAspectRatio="xMinYMin meet" x="327" y="-466"/>
<text text-anchor="start" x="342" y="-457.2" font-family="Helvetica,sans-Serif" font-size="11.00">switch_id</text>
<polygon fill="none" stroke="black" points="523,-449 523,-471 644,-471 644,-449 523,-449"/>
<text text-anchor="start" x="526" y="-457.2" font-family="Helvetica,sans-Serif" font-size="11.00">int8[19]</text>
<polygon fill="none" stroke="black" points="322,-427 322,-449 523,-449 523,-427 322,-427"/>
<text text-anchor="start" x="342" y="-435.2" font-family="Helvetica,sans-Serif" font-size="11.00">name</text>
<polygon fill="none" stroke="black" points="523,-427 523,-449 644,-449 644,-427 523,-427"/>
<text text-anchor="start" x="526" y="-435.2" font-family="Helvetica,sans-Serif" font-size="11.00">varchar[2147483647]</text>
<polygon fill="none" stroke="black" points="322,-405 322,-427 523,-427 523,-405 322,-405"/>
<text text-anchor="start" x="342" y="-413.2" font-family="Helvetica,sans-Serif" font-size="11.00">tag</text>
<polygon fill="none" stroke="black" points="523,-405 523,-427 644,-427 644,-405 523,-405"/>
<text text-anchor="start" x="526" y="-413.2" font-family="Helvetica,sans-Serif" font-size="11.00">varchar[2147483647]</text>
<polygon fill="none" stroke="black" points="322,-383 322,-405 523,-405 523,-383 322,-383"/>
<text text-anchor="start" x="342" y="-391.2" font-family="Helvetica,sans-Serif" font-size="11.00">created_on</text>
<polygon fill="none" stroke="black" points="523,-383 523,-405 644,-405 644,-383 523,-383"/>
<text text-anchor="start" x="526" y="-391.2" font-family="Helvetica,sans-Serif" font-size="11.00">timestamp[29,6]</text>
<polygon fill="none" stroke="black" points="322,-361 322,-383 523,-383 523,-361 322,-361"/>
<text text-anchor="start" x="342" y="-369.2" font-family="Helvetica,sans-Serif" font-size="11.00">updated_on</text>
<polygon fill="none" stroke="black" points="523,-361 523,-383 644,-383 644,-361 523,-361"/>
<text text-anchor="start" x="526" y="-369.2" font-family="Helvetica,sans-Serif" font-size="11.00">timestamp[29,6]</text>
<polygon fill="none" stroke="black" points="322,-339 322,-361 523,-361 523,-339 322,-339"/>
<text text-anchor="start" x="342" y="-347.2" font-family="Helvetica,sans-Serif" font-size="11.00">uid_ems</text>
<polygon fill="none" stroke="black" points="523,-339 523,-361 644,-361 644,-339 523,-339"/>
<text text-anchor="start" x="526" y="-347.2" font-family="Helvetica,sans-Serif" font-size="11.00">varchar[2147483647]</text>
<polygon fill="none" stroke="black" points="322,-317 322,-339 523,-339 523,-317 322,-317"/>
<text text-anchor="start" x="342" y="-325.2" font-family="Helvetica,sans-Serif" font-size="11.00">allow_promiscuous</text>
<polygon fill="none" stroke="black" points="523,-317 523,-339 644,-339 644,-317 523,-317"/>
<text text-anchor="start" x="526" y="-325.2" font-family="Helvetica,sans-Serif" font-size="11.00">bool[1]</text>
<polygon fill="none" stroke="black" points="322,-295 322,-317 523,-317 523,-295 322,-295"/>
<text text-anchor="start" x="342" y="-303.2" font-family="Helvetica,sans-Serif" font-size="11.00">forged_transmits</text>
<polygon fill="none" stroke="black" points="523,-295 523,-317 644,-317 644,-295 523,-295"/>
<text text-anchor="start" x="526" y="-303.2" font-family="Helvetica,sans-Serif" font-size="11.00">bool[1]</text>
<polygon fill="none" stroke="black" points="322,-273 322,-295 523,-295 523,-273 322,-273"/>
<text text-anchor="start" x="342" y="-281.2" font-family="Helvetica,sans-Serif" font-size="11.00">mac_changes</text>
<polygon fill="none" stroke="black" points="523,-273 523,-295 644,-295 644,-273 523,-273"/>
<text text-anchor="start" x="526" y="-281.2" font-family="Helvetica,sans-Serif" font-size="11.00">bool[1]</text>
<polygon fill="none" stroke="black" points="322,-251 322,-273 523,-273 523,-251 322,-251"/>
<text text-anchor="start" x="342" y="-259.2" font-family="Helvetica,sans-Serif" font-size="11.00">computed_allow_promiscuous</text>
<polygon fill="none" stroke="black" points="523,-251 523,-273 644,-273 644,-251 523,-251"/>
<text text-anchor="start" x="526" y="-259.2" font-family="Helvetica,sans-Serif" font-size="11.00">bool[1]</text>
<polygon fill="none" stroke="black" points="322,-229 322,-251 523,-251 523,-229 322,-229"/>
<text text-anchor="start" x="342" y="-237.2" font-family="Helvetica,sans-Serif" font-size="11.00">computed_forged_transmits</text>
<polygon fill="none" stroke="black" points="523,-229 523,-251 644,-251 644,-229 523,-229"/>
<text text-anchor="start" x="526" y="-237.2" font-family="Helvetica,sans-Serif" font-size="11.00">bool[1]</text>
<polygon fill="none" stroke="black" points="322,-207 322,-229 523,-229 523,-207 322,-207"/>
<text text-anchor="start" x="342" y="-215.2" font-family="Helvetica,sans-Serif" font-size="11.00">computed_mac_changes</text>
<polygon fill="none" stroke="black" points="523,-207 523,-229 644,-229 644,-207 523,-207"/>
<text text-anchor="start" x="526" y="-215.2" font-family="Helvetica,sans-Serif" font-size="11.00">bool[1]</text>
<polygon fill="none" stroke="black" points="322,-185 322,-207 523,-207 523,-185 322,-185"/>
<text text-anchor="start" x="342" y="-193.2" font-family="Helvetica,sans-Serif" font-size="11.00">parent_id</text>
<polygon fill="none" stroke="black" points="523,-185 523,-207 644,-207 644,-185 523,-185"/>
<text text-anchor="start" x="526" y="-193.2" font-family="Helvetica,sans-Serif" font-size="11.00">int8[19]</text>
<polygon fill="none" stroke="black" points="322,-163 322,-185 523,-185 523,-163 322,-163"/>
<text text-anchor="start" x="342" y="-171.2" font-family="Helvetica,sans-Serif" font-size="11.00">ems_ref</text>
<polygon fill="none" stroke="black" points="523,-163 523,-185 644,-185 644,-163 523,-163"/>
<text text-anchor="start" x="526" y="-171.2" font-family="Helvetica,sans-Serif" font-size="11.00">varchar[2147483647]</text>
<polygon fill="#ffffff" stroke="none" points="322,-145 322,-163 427,-163 427,-145 322,-145"/>
<polygon fill="none" stroke="black" points="322,-145 322,-163 427,-163 427,-145 322,-145"/>
<text text-anchor="start" x="325" y="-151.2" font-family="Helvetica,sans-Serif" font-size="11.00">&lt; 1</text>
<polygon fill="#ffffff" stroke="none" points="427,-145 427,-163 523,-163 523,-145 427,-145"/>
<polygon fill="none" stroke="black" points="427,-145 427,-163 523,-163 523,-145 427,-145"/>
<text text-anchor="start" x="513" y="-151.2" font-family="Helvetica,sans-Serif" font-size="11.00"> &#160;</text>
<polygon fill="#ffffff" stroke="none" points="523,-145 523,-163 644,-163 644,-145 523,-145"/>
<polygon fill="none" stroke="black" points="523,-145 523,-163 644,-163 644,-145 523,-145"/>
<text text-anchor="start" x="624" y="-151.2" font-family="Helvetica,sans-Serif" font-size="11.00">2 &gt;</text>
<polygon fill="none" stroke="black" stroke-width="2" points="321,-144 321,-516 645,-516 645,-144 321,-144"/>
</a>
</g>
</g>
<!-- guest_devices&#45;&gt;lans -->
<g id="edge3" class="edge"><title>guest_devices:lan_id:w&#45;&gt;lans:id.type:e</title>
<path fill="none" stroke="black" d="M680.122,-514.463C667.579,-504.583 666.32,-482 645,-482"/>
<polygon fill="black" stroke="black" points="686.396,-516.514 692.881,-522.422 690.198,-517.757 694,-519 694,-519 694,-519 690.198,-517.757 695.119,-515.578 686.396,-516.514 686.396,-516.514"/>
<ellipse fill="none" stroke="black" cx="683.354" cy="-515.52" rx="3.20001" ry="3.20001"/>
</g>
<!-- switches -->
<g id="node5" class="node"><title>switches</title>
<g id="a_node5"><a xlink:href="../../tables/switches.html" xlink:title="switches" target="_top">
<polygon fill="#ffffff" stroke="none" points="136,-369 136,-493 271,-493 271,-369 136,-369"/>
<polygon fill="#f5f5f5" stroke="none" points="136.5,-471 136.5,-493 271.5,-493 271.5,-471 136.5,-471"/>
<polygon fill="none" stroke="black" points="136.5,-471 136.5,-493 271.5,-493 271.5,-471 136.5,-471"/>
<text text-anchor="start" x="141.5" y="-480.2" font-family="Helvetica,sans-Serif" font-weight="bold" font-size="11.00">switches</text>
<text text-anchor="start" x="232.5" y="-479.2" font-family="Helvetica,sans-Serif" font-size="11.00">[table]</text>
<polygon fill="none" stroke="black" points="136.5,-449 136.5,-471 271.5,-471 271.5,-449 136.5,-449"/>
<image xlink:href="../../images/primaryKeys.png" width="11px" height="12px" preserveAspectRatio="xMinYMin meet" x="141.5" y="-466"/>
<text text-anchor="start" x="156.5" y="-457.2" font-family="Helvetica,sans-Serif" font-size="11.00">id</text>
<polygon fill="#ffffff" stroke="none" points="136.5,-427 136.5,-449 271.5,-449 271.5,-427 136.5,-427"/>
<polygon fill="none" stroke="black" points="136.5,-427 136.5,-449 271.5,-449 271.5,-427 136.5,-427"/>
<text text-anchor="start" x="156.5" y="-435.2" font-family="Helvetica,sans-Serif" font-size="11.00">name</text>
<polygon fill="#ffffff" stroke="none" points="136.5,-405 136.5,-427 271.5,-427 271.5,-405 136.5,-405"/>
<polygon fill="none" stroke="black" points="136.5,-405 136.5,-427 271.5,-427 271.5,-405 136.5,-405"/>
<image xlink:href="../../images/foreignKeys.png" width="11px" height="12px" preserveAspectRatio="xMinYMin meet" x="141.5" y="-422"/>
<text text-anchor="start" x="156.5" y="-413.2" font-family="Helvetica,sans-Serif" font-size="11.00">host_id</text>
<polygon fill="none" stroke="black" points="136.5,-387 136.5,-405 271.5,-405 271.5,-387 136.5,-387"/>
<text text-anchor="start" x="139.5" y="-393.2" font-family="Helvetica,sans-Serif" font-size="11.00">...</text>
<polygon fill="#ffffff" stroke="none" points="136.5,-369 136.5,-387 197.5,-387 197.5,-369 136.5,-369"/>
<polygon fill="none" stroke="black" points="136.5,-369 136.5,-387 197.5,-387 197.5,-369 136.5,-369"/>
<text text-anchor="start" x="139.5" y="-375.2" font-family="Helvetica,sans-Serif" font-size="11.00">&lt; 1</text>
<polygon fill="#ffffff" stroke="none" points="197.5,-369 197.5,-387 229.5,-387 229.5,-369 197.5,-369"/>
<polygon fill="none" stroke="black" points="197.5,-369 197.5,-387 229.5,-387 229.5,-369 197.5,-369"/>
<text text-anchor="start" x="219.5" y="-375.2" font-family="Helvetica,sans-Serif" font-size="11.00"> &#160;</text>
<polygon fill="#ffffff" stroke="none" points="229.5,-369 229.5,-387 271.5,-387 271.5,-369 229.5,-369"/>
<polygon fill="none" stroke="black" points="229.5,-369 229.5,-387 271.5,-387 271.5,-369 229.5,-369"/>
<text text-anchor="start" x="251.5" y="-375.2" font-family="Helvetica,sans-Serif" font-size="11.00">5 &gt;</text>
</a>
</g>
</g>
<!-- guest_devices&#45;&gt;switches -->
<g id="edge4" class="edge"><title>guest_devices:switch_id:w&#45;&gt;switches:id:e</title>
<path fill="none" stroke="black" d="M679.443,-541.24C585.839,-544.023 381.04,-569.317 312,-528 282.009,-510.052 307.451,-460 272.5,-460"/>
<polygon fill="black" stroke="black" points="686.001,-541.132 694.059,-544.6 690.001,-541.066 694,-541 694,-541 694,-541 690.001,-541.066 693.941,-537.4 686.001,-541.132 686.001,-541.132"/>
<ellipse fill="none" stroke="black" cx="682.802" cy="-541.185" rx="3.2" ry="3.2"/>
</g>
<!-- hardwares&#45;&gt;switches -->
<g id="edge6" class="edge"><title>hardwares:elipses:w&#45;&gt;switches:id:e</title>
<path fill="none" stroke="black" d="M413.457,-591.878C369.156,-591.01 348.242,-584.797 312,-551 279.755,-520.93 316.59,-460 272.5,-460"/>
<polygon fill="black" stroke="black" points="420,-591.933 427.97,-595.6 424,-591.966 428,-592 428,-592 428,-592 424,-591.966 428.03,-588.4 420,-591.933 420,-591.933"/>
<ellipse fill="none" stroke="black" cx="416.8" cy="-591.906" rx="3.2" ry="3.2"/>
</g>
<!-- hosts -->
<g id="node6" class="node"><title>hosts</title>
<g id="a_node6"><a xlink:href="../../tables/hosts.html" xlink:title="hosts" target="_top">
<polygon fill="#ffffff" stroke="none" points="8,-389 8,-447 87,-447 87,-389 8,-389"/>
<polygon fill="#f5f5f5" stroke="none" points="8.5,-425 8.5,-447 87.5,-447 87.5,-425 8.5,-425"/>
<polygon fill="none" stroke="black" points="8.5,-425 8.5,-447 87.5,-447 87.5,-425 8.5,-425"/>
<text text-anchor="start" x="13.5" y="-434.2" font-family="Helvetica,sans-Serif" font-weight="bold" font-size="11.00">hosts</text>
<text text-anchor="start" x="48.5" y="-433.2" font-family="Helvetica,sans-Serif" font-size="11.00">[table]</text>
<polygon fill="none" stroke="black" points="8.5,-407 8.5,-425 87.5,-425 87.5,-407 8.5,-407"/>
<text text-anchor="start" x="11.5" y="-413.2" font-family="Helvetica,sans-Serif" font-size="11.00">...</text>
<polygon fill="#ffffff" stroke="none" points="8.5,-389 8.5,-407 37.5,-407 37.5,-389 8.5,-389"/>
<polygon fill="none" stroke="black" points="8.5,-389 8.5,-407 37.5,-407 37.5,-389 8.5,-389"/>
<text text-anchor="start" x="11.5" y="-395.2" font-family="Helvetica,sans-Serif" font-size="11.00">&lt; 3</text>
<polygon fill="#ffffff" stroke="none" points="37.5,-389 37.5,-407 53.5,-407 53.5,-389 37.5,-389"/>
<polygon fill="none" stroke="black" points="37.5,-389 37.5,-407 53.5,-407 53.5,-389 37.5,-389"/>
<text text-anchor="start" x="43.5" y="-395.2" font-family="Helvetica,sans-Serif" font-size="11.00"> &#160;</text>
<polygon fill="#ffffff" stroke="none" points="53.5,-389 53.5,-407 87.5,-407 87.5,-389 53.5,-389"/>
<polygon fill="none" stroke="black" points="53.5,-389 53.5,-407 87.5,-407 87.5,-389 53.5,-389"/>
<text text-anchor="start" x="60.5" y="-395.2" font-family="Helvetica,sans-Serif" font-size="11.00">15 &gt;</text>
</a>
</g>
</g>
<!-- hardwares&#45;&gt;hosts -->
<g id="edge5" class="edge"><title>hardwares:elipses:w&#45;&gt;hosts:elipses:e</title>
<path fill="none" stroke="black" d="M413.255,-592.008C284.916,-592.116 228.945,-592.02 128,-504 95.6881,-475.825 131.37,-416 88.5,-416"/>
<polygon fill="black" stroke="black" points="420,-592.005 428.002,-595.6 424,-592.002 428,-592 428,-592 428,-592 424,-592.002 427.998,-588.4 420,-592.005 420,-592.005"/>
<ellipse fill="none" stroke="black" cx="416.8" cy="-592.006" rx="3.2" ry="3.2"/>
</g>
<!-- lans&#45;&gt;switches -->
<g id="edge9" class="edge"><title>lans:switch_id:w&#45;&gt;switches:id:e</title>
<path fill="none" stroke="black" d="M306.283,-460C295.289,-460 288.161,-460 272.5,-460"/>
<polygon fill="black" stroke="black" points="313,-460 321,-463.6 317,-460 321,-460 321,-460 321,-460 317,-460 321,-456.4 313,-460 313,-460"/>
<ellipse fill="none" stroke="black" cx="309.8" cy="-460" rx="3.2" ry="3.2"/>
</g>
<!-- switches&#45;&gt;hosts -->
<g id="edge14" class="edge"><title>switches:host_id:w&#45;&gt;hosts:elipses:e</title>
<path fill="none" stroke="black" d="M120.896,-416C110.434,-416 103.514,-416 88.5,-416"/>
<polygon fill="black" stroke="black" points="127.5,-416 135.5,-419.6 131.5,-416 135.5,-416 135.5,-416 135.5,-416 131.5,-416 135.5,-412.4 127.5,-416 127.5,-416"/>
<ellipse fill="none" stroke="black" cx="124.3" cy="-416" rx="3.2" ry="3.2"/>
</g>
<!-- host_switches -->
<g id="node7" class="node"><title>host_switches</title>
<g id="a_node7"><a xlink:href="../../tables/host_switches.html" xlink:title="host_switches" target="_top">
<polygon fill="#ffffff" stroke="none" points="419.5,-37 419.5,-95 546.5,-95 546.5,-37 419.5,-37"/>
<polygon fill="#f5f5f5" stroke="none" points="420,-73 420,-95 547,-95 547,-73 420,-73"/>
<polygon fill="none" stroke="black" points="420,-73 420,-95 547,-95 547,-73 420,-73"/>
<text text-anchor="start" x="425" y="-82.2" font-family="Helvetica,sans-Serif" font-weight="bold" font-size="11.00">host_switches</text>
<text text-anchor="start" x="508" y="-81.2" font-family="Helvetica,sans-Serif" font-size="11.00">[table]</text>
<polygon fill="none" stroke="black" points="420,-55 420,-73 547,-73 547,-55 420,-55"/>
<text text-anchor="start" x="423" y="-61.2" font-family="Helvetica,sans-Serif" font-size="11.00">...</text>
<polygon fill="#ffffff" stroke="none" points="420,-37 420,-55 482,-55 482,-37 420,-37"/>
<polygon fill="none" stroke="black" points="420,-37 420,-55 482,-55 482,-37 420,-37"/>
<text text-anchor="start" x="423" y="-43.2" font-family="Helvetica,sans-Serif" font-size="11.00">&lt; 2</text>
<polygon fill="#ffffff" stroke="none" points="482,-37 482,-55 514,-55 514,-37 482,-37"/>
<polygon fill="none" stroke="black" points="482,-37 482,-55 514,-55 514,-37 482,-37"/>
<text text-anchor="start" x="504" y="-43.2" font-family="Helvetica,sans-Serif" font-size="11.00"> &#160;</text>
<polygon fill="#ffffff" stroke="none" points="514,-37 514,-55 547,-55 547,-37 514,-37"/>
<polygon fill="none" stroke="black" points="514,-37 514,-55 547,-55 547,-37 514,-37"/>
<text text-anchor="start" x="537" y="-43.2" font-family="Helvetica,sans-Serif" font-size="11.00"> &#160;</text>
</a>
</g>
</g>
<!-- host_switches&#45;&gt;switches -->
<g id="edge8" class="edge"><title>host_switches:elipses:w&#45;&gt;switches:id:e</title>
<path fill="none" stroke="black" d="M404.357,-64.1435C362.465,-65.109 339.829,-71.8078 312,-109 264.975,-171.847 350.992,-460 272.5,-460"/>
<polygon fill="black" stroke="black" points="411,-64.0784 419.035,-67.5998 415,-64.0392 419,-64 419,-64 419,-64 415,-64.0392 418.965,-60.4002 411,-64.0784 411,-64.0784"/>
<ellipse fill="none" stroke="black" cx="407.801" cy="-64.1098" rx="3.2" ry="3.2"/>
</g>
<!-- host_switches&#45;&gt;hosts -->
<g id="edge7" class="edge"><title>host_switches:elipses:w&#45;&gt;hosts:elipses:e</title>
<path fill="none" stroke="black" d="M404.353,-64.4118C364.128,-66.8576 348.438,-80.3534 312,-109 203.824,-194.045 207.632,-245.779 128,-358 109.951,-383.435 119.688,-416 88.5,-416"/>
<polygon fill="black" stroke="black" points="411.003,-64.2249 419.101,-67.5986 415.002,-64.1124 419,-64 419,-64 419,-64 415.002,-64.1124 418.899,-60.4014 411.003,-64.2249 411.003,-64.2249"/>
<ellipse fill="none" stroke="black" cx="407.804" cy="-64.3148" rx="3.2" ry="3.2"/>
</g>
<!-- miq_scsi_targets -->
<g id="node8" class="node"><title>miq_scsi_targets</title>
<g id="a_node8"><a xlink:href="../../tables/miq_scsi_targets.html" xlink:title="miq_scsi_targets" target="_top">
<polygon fill="#ffffff" stroke="none" points="917,-562 917,-620 1058,-620 1058,-562 917,-562"/>
<polygon fill="#f5f5f5" stroke="none" points="917.5,-598 917.5,-620 1058.5,-620 1058.5,-598 917.5,-598"/>
<polygon fill="none" stroke="black" points="917.5,-598 917.5,-620 1058.5,-620 1058.5,-598 917.5,-598"/>
<text text-anchor="start" x="922.5" y="-607.2" font-family="Helvetica,sans-Serif" font-weight="bold" font-size="11.00">miq_scsi_targets</text>
<text text-anchor="start" x="1019.5" y="-606.2" font-family="Helvetica,sans-Serif" font-size="11.00">[table]</text>
<polygon fill="none" stroke="black" points="917.5,-580 917.5,-598 1058.5,-598 1058.5,-580 917.5,-580"/>
<text text-anchor="start" x="920.5" y="-586.2" font-family="Helvetica,sans-Serif" font-size="11.00">...</text>
<polygon fill="#ffffff" stroke="none" points="917.5,-562 917.5,-580 981.5,-580 981.5,-562 917.5,-562"/>
<polygon fill="none" stroke="black" points="917.5,-562 917.5,-580 981.5,-580 981.5,-562 917.5,-562"/>
<text text-anchor="start" x="920.5" y="-568.2" font-family="Helvetica,sans-Serif" font-size="11.00">&lt; 1</text>
<polygon fill="#ffffff" stroke="none" points="981.5,-562 981.5,-580 1014.5,-580 1014.5,-562 981.5,-562"/>
<polygon fill="none" stroke="black" points="981.5,-562 981.5,-580 1014.5,-580 1014.5,-562 981.5,-562"/>
<text text-anchor="start" x="1004.5" y="-568.2" font-family="Helvetica,sans-Serif" font-size="11.00"> &#160;</text>
<polygon fill="#ffffff" stroke="none" points="1014.5,-562 1014.5,-580 1058.5,-580 1058.5,-562 1014.5,-562"/>
<polygon fill="none" stroke="black" points="1014.5,-562 1014.5,-580 1058.5,-580 1058.5,-562 1014.5,-562"/>
<text text-anchor="start" x="1038.5" y="-568.2" font-family="Helvetica,sans-Serif" font-size="11.00">1 &gt;</text>
</a>
</g>
</g>
<!-- miq_scsi_targets&#45;&gt;guest_devices -->
<g id="edge10" class="edge"><title>miq_scsi_targets:elipses:w&#45;&gt;guest_devices:id:e</title>
<path fill="none" stroke="black" d="M902.122,-591.749C880.933,-600.786 877.609,-629 848,-629"/>
<polygon fill="black" stroke="black" points="908.642,-590.503 917.176,-592.536 912.571,-589.751 916.5,-589 916.5,-589 916.5,-589 912.571,-589.751 915.824,-585.464 908.642,-590.503 908.642,-590.503"/>
<ellipse fill="none" stroke="black" cx="905.499" cy="-591.104" rx="3.2" ry="3.2"/>
</g>
<!-- physical_network_ports -->
<g id="node9" class="node"><title>physical_network_ports</title>
<g id="a_node9"><a xlink:href="../../tables/physical_network_ports.html" xlink:title="physical_network_ports" target="_top">
<polygon fill="#ffffff" stroke="none" points="896,-287 896,-345 1079,-345 1079,-287 896,-287"/>
<polygon fill="#f5f5f5" stroke="none" points="896.5,-323 896.5,-345 1079.5,-345 1079.5,-323 896.5,-323"/>
<polygon fill="none" stroke="black" points="896.5,-323 896.5,-345 1079.5,-345 1079.5,-323 896.5,-323"/>
<text text-anchor="start" x="901.5" y="-332.2" font-family="Helvetica,sans-Serif" font-weight="bold" font-size="11.00">physical_network_ports</text>
<text text-anchor="start" x="1040.5" y="-331.2" font-family="Helvetica,sans-Serif" font-size="11.00">[table]</text>
<polygon fill="none" stroke="black" points="896.5,-305 896.5,-323 1079.5,-323 1079.5,-305 896.5,-305"/>
<text text-anchor="start" x="899.5" y="-311.2" font-family="Helvetica,sans-Serif" font-size="11.00">...</text>
<polygon fill="#ffffff" stroke="none" points="896.5,-287 896.5,-305 986.5,-305 986.5,-287 896.5,-287"/>
<polygon fill="none" stroke="black" points="896.5,-287 896.5,-305 986.5,-305 986.5,-287 896.5,-287"/>
<text text-anchor="start" x="899.5" y="-293.2" font-family="Helvetica,sans-Serif" font-size="11.00">&lt; 2</text>
<polygon fill="#ffffff" stroke="none" points="986.5,-287 986.5,-305 1032.5,-305 1032.5,-287 986.5,-287"/>
<polygon fill="none" stroke="black" points="986.5,-287 986.5,-305 1032.5,-305 1032.5,-287 986.5,-287"/>
<text text-anchor="start" x="1022.5" y="-293.2" font-family="Helvetica,sans-Serif" font-size="11.00"> &#160;</text>
<polygon fill="#ffffff" stroke="none" points="1032.5,-287 1032.5,-305 1079.5,-305 1079.5,-287 1032.5,-287"/>
<polygon fill="none" stroke="black" points="1032.5,-287 1032.5,-305 1079.5,-305 1079.5,-287 1032.5,-287"/>
<text text-anchor="start" x="1069.5" y="-293.2" font-family="Helvetica,sans-Serif" font-size="11.00"> &#160;</text>
</a>
</g>
</g>
<!-- physical_network_ports&#45;&gt;guest_devices -->
<g id="edge11" class="edge"><title>physical_network_ports:elipses:w&#45;&gt;guest_devices:id:e</title>
<path fill="none" stroke="black" d="M882.047,-319.205C838.085,-360.161 913.399,-629 848,-629"/>
<polygon fill="black" stroke="black" points="888.039,-316.887 896.799,-317.357 891.769,-315.443 895.5,-314 895.5,-314 895.5,-314 891.769,-315.443 894.201,-310.643 888.039,-316.887 888.039,-316.887"/>
<ellipse fill="none" stroke="black" cx="885.054" cy="-318.041" rx="3.20001" ry="3.20001"/>
</g>
<!-- physical_network_ports&#45;&gt;switches -->
<g id="edge12" class="edge"><title>physical_network_ports:elipses:w&#45;&gt;switches:id:e</title>
<path fill="none" stroke="black" d="M880.8,-313.407C762.436,-303.526 776.6,-173.024 654,-132 617.964,-119.942 340.431,-106.787 312,-132 257.072,-180.71 345.916,-460 272.5,-460"/>
<polygon fill="black" stroke="black" points="887.507,-313.677 895.355,-317.597 891.503,-313.839 895.5,-314 895.5,-314 895.5,-314 891.503,-313.839 895.645,-310.403 887.507,-313.677 887.507,-313.677"/>
<ellipse fill="none" stroke="black" cx="884.309" cy="-313.548" rx="3.2" ry="3.2"/>
</g>
<!-- subnets -->
<g id="node10" class="node"><title>subnets</title>
<g id="a_node10"><a xlink:href="../../tables/subnets.html" xlink:title="subnets" target="_top">
<polygon fill="#ffffff" stroke="none" points="724,-327 724,-429 818,-429 818,-327 724,-327"/>
<polygon fill="#f5f5f5" stroke="none" points="724,-407 724,-429 818,-429 818,-407 724,-407"/>
<polygon fill="none" stroke="black" points="724,-407 724,-429 818,-429 818,-407 724,-407"/>
<text text-anchor="start" x="729" y="-416.2" font-family="Helvetica,sans-Serif" font-weight="bold" font-size="11.00">subnets</text>
<text text-anchor="start" x="779" y="-415.2" font-family="Helvetica,sans-Serif" font-size="11.00">[table]</text>
<polygon fill="none" stroke="black" points="724,-385 724,-407 818,-407 818,-385 724,-385"/>
<image xlink:href="../../images/primaryKeys.png" width="11px" height="12px" preserveAspectRatio="xMinYMin meet" x="729" y="-402"/>
<text text-anchor="start" x="757" y="-393.2" font-family="Helvetica,sans-Serif" font-size="11.00">id</text>
<polygon fill="none" stroke="black" points="724,-363 724,-385 818,-385 818,-363 724,-363"/>
<image xlink:href="../../images/foreignKeys.png" width="11px" height="12px" preserveAspectRatio="xMinYMin meet" x="729" y="-380"/>
<text text-anchor="start" x="757" y="-371.2" font-family="Helvetica,sans-Serif" font-size="11.00">lan_id</text>
<polygon fill="none" stroke="black" points="724,-345 724,-363 818,-363 818,-345 724,-345"/>
<text text-anchor="start" x="727" y="-351.2" font-family="Helvetica,sans-Serif" font-size="11.00">...</text>
<polygon fill="#ffffff" stroke="none" points="724,-327 724,-345 769,-345 769,-327 724,-327"/>
<polygon fill="none" stroke="black" points="724,-327 724,-345 769,-345 769,-327 724,-327"/>
<text text-anchor="start" x="727" y="-333.2" font-family="Helvetica,sans-Serif" font-size="11.00">&lt; 1</text>
<polygon fill="#ffffff" stroke="none" points="769,-327 769,-345 793,-345 793,-327 769,-327"/>
<polygon fill="none" stroke="black" points="769,-327 769,-345 793,-345 793,-327 769,-327"/>
<text text-anchor="start" x="783" y="-333.2" font-family="Helvetica,sans-Serif" font-size="11.00"> &#160;</text>
<polygon fill="#ffffff" stroke="none" points="793,-327 793,-345 818,-345 818,-327 793,-327"/>
<polygon fill="none" stroke="black" points="793,-327 793,-345 818,-345 818,-327 793,-327"/>
<text text-anchor="start" x="808" y="-333.2" font-family="Helvetica,sans-Serif" font-size="11.00"> &#160;</text>
</a>
</g>
</g>
<!-- subnets&#45;&gt;lans -->
<g id="edge13" class="edge"><title>subnets:lan_id:w&#45;&gt;lans:id.type:e</title>
<path fill="none" stroke="black" d="M708.81,-376.67C670.493,-393.301 698.659,-482 645,-482"/>
<polygon fill="black" stroke="black" points="715.138,-375.479 723.666,-377.538 719.069,-374.74 723,-374 723,-374 723,-374 719.069,-374.74 722.334,-370.462 715.138,-375.479 715.138,-375.479"/>
<ellipse fill="none" stroke="black" cx="711.993" cy="-376.071" rx="3.2" ry="3.2"/>
</g>
</g>
</svg>
