<?xml version="1.0" encoding="UTF-8" standalone="no"?>
<!DOCTYPE svg PUBLIC "-//W3C//DTD SVG 1.1//EN"
 "http://www.w3.org/Graphics/SVG/1.1/DTD/svg11.dtd">
<!-- Generated by graphviz version 2.38.0 (20140413.2041)
 -->
<!-- Title: oneDegreeRelationshipsDiagram Pages: 1 -->
<svg width="789pt" height="438pt"
 viewBox="0.00 0.00 789.00 438.00" xmlns="http://www.w3.org/2000/svg" xmlns:xlink="http://www.w3.org/1999/xlink">
<g id="graph0" class="graph" transform="scale(1 1) rotate(0) translate(4 434)">
<title>oneDegreeRelationshipsDiagram</title>
<polygon fill="#ffffff" stroke="none" points="-4,4 -4,-434 785,-434 785,4 -4,4"/>
<text text-anchor="middle" x="74.5" y="-7.2" font-family="Helvetica,sans-Serif" font-size="11.00">Generated by SchemaSpy</text>
<!-- load_balancer_listener_pools -->
<g id="node1" class="node"><title>load_balancer_listener_pools</title>
<g id="a_node1"><a xlink:href="../../tables/load_balancer_listener_pools.html" xlink:title="load_balancer_listener_pools" target="_top">
<polygon fill="#ffffff" stroke="none" points="545,-302 545,-426 756,-426 756,-302 545,-302"/>
<polygon fill="#f5f5f5" stroke="none" points="545.5,-404 545.5,-426 756.5,-426 756.5,-404 545.5,-404"/>
<polygon fill="none" stroke="black" points="545.5,-404 545.5,-426 756.5,-426 756.5,-404 545.5,-404"/>
<text text-anchor="start" x="550.5" y="-413.2" font-family="Helvetica,sans-Serif" font-weight="bold" font-size="11.00">load_balancer_listener_pools</text>
<text text-anchor="start" x="717.5" y="-412.2" font-family="Helvetica,sans-Serif" font-size="11.00">[table]</text>
<polygon fill="none" stroke="black" points="545.5,-382 545.5,-404 756.5,-404 756.5,-382 545.5,-382"/>
<image xlink:href="../../images/primaryKeys.png" width="11px" height="12px" preserveAspectRatio="xMinYMin meet" x="550.5" y="-399"/>
<text text-anchor="start" x="575.5" y="-390.2" font-family="Helvetica,sans-Serif" font-size="11.00">id</text>
<polygon fill="#ffffff" stroke="none" points="545.5,-360 545.5,-382 756.5,-382 756.5,-360 545.5,-360"/>
<polygon fill="none" stroke="black" points="545.5,-360 545.5,-382 756.5,-382 756.5,-360 545.5,-360"/>
<image xlink:href="../../images/foreignKeys.png" width="11px" height="12px" preserveAspectRatio="xMinYMin meet" x="550.5" y="-377"/>
<text text-anchor="start" x="575.5" y="-368.2" font-family="Helvetica,sans-Serif" font-size="11.00">load_balancer_listener_id</text>
<polygon fill="#ffffff" stroke="none" points="545.5,-338 545.5,-360 756.5,-360 756.5,-338 545.5,-338"/>
<polygon fill="none" stroke="black" points="545.5,-338 545.5,-360 756.5,-360 756.5,-338 545.5,-338"/>
<image xlink:href="../../images/foreignKeys.png" width="11px" height="12px" preserveAspectRatio="xMinYMin meet" x="550.5" y="-355"/>
<text text-anchor="start" x="575.5" y="-346.2" font-family="Helvetica,sans-Serif" font-size="11.00">load_balancer_pool_id</text>
<polygon fill="none" stroke="black" points="545.5,-320 545.5,-338 756.5,-338 756.5,-320 545.5,-320"/>
<text text-anchor="start" x="548.5" y="-326.2" font-family="Helvetica,sans-Serif" font-size="11.00">...</text>
<polygon fill="#ffffff" stroke="none" points="545.5,-302 545.5,-320 649.5,-320 649.5,-302 545.5,-302"/>
<polygon fill="none" stroke="black" points="545.5,-302 545.5,-320 649.5,-320 649.5,-302 545.5,-302"/>
<text text-anchor="start" x="548.5" y="-308.2" font-family="Helvetica,sans-Serif" font-size="11.00">&lt; 2</text>
<polygon fill="#ffffff" stroke="none" points="649.5,-302 649.5,-320 702.5,-320 702.5,-302 649.5,-302"/>
<polygon fill="none" stroke="black" points="649.5,-302 649.5,-320 702.5,-320 702.5,-302 649.5,-302"/>
<text text-anchor="start" x="692.5" y="-308.2" font-family="Helvetica,sans-Serif" font-size="11.00"> &#160;</text>
<polygon fill="#ffffff" stroke="none" points="702.5,-302 702.5,-320 756.5,-320 756.5,-302 702.5,-302"/>
<polygon fill="none" stroke="black" points="702.5,-302 702.5,-320 756.5,-320 756.5,-302 702.5,-302"/>
<text text-anchor="start" x="746.5" y="-308.2" font-family="Helvetica,sans-Serif" font-size="11.00"> &#160;</text>
</a>
</g>
</g>
<!-- load_balancer_pools -->
<g id="node2" class="node"><title>load_balancer_pools</title>
<g id="a_node2"><a xlink:href="../../tables/load_balancer_pools.html" xlink:title="load_balancer_pools" target="_top">
<polygon fill="#ffffff" stroke="none" points="186,-37 186,-323 479,-323 479,-37 186,-37"/>
<polygon fill="#f5f5f5" stroke="none" points="188.5,-299 188.5,-321 477.5,-321 477.5,-299 188.5,-299"/>
<polygon fill="none" stroke="black" points="188.5,-299 188.5,-321 477.5,-321 477.5,-299 188.5,-299"/>
<text text-anchor="start" x="193.5" y="-308.2" font-family="Helvetica,sans-Serif" font-weight="bold" font-size="11.00">load_balancer_pools</text>
<text text-anchor="start" x="438.5" y="-307.2" font-family="Helvetica,sans-Serif" font-size="11.00">[table]</text>
<polygon fill="none" stroke="black" points="188.5,-277 188.5,-299 356.5,-299 356.5,-277 188.5,-277"/>
<image xlink:href="../../images/primaryKeys.png" width="11px" height="12px" preserveAspectRatio="xMinYMin meet" x="193.5" y="-294"/>
<text text-anchor="start" x="208.5" y="-285.2" font-family="Helvetica,sans-Serif" font-size="11.00">id</text>
<polygon fill="none" stroke="black" points="356.5,-277 356.5,-299 477.5,-299 477.5,-277 356.5,-277"/>
<text text-anchor="start" x="359.5" y="-285.2" font-family="Helvetica,sans-Serif" font-size="11.00">bigserial[19]</text>
<polygon fill="#ffffff" stroke="none" points="188.5,-255 188.5,-277 356.5,-277 356.5,-255 188.5,-255"/>
<polygon fill="none" stroke="black" points="188.5,-255 188.5,-277 356.5,-277 356.5,-255 188.5,-255"/>
<text text-anchor="start" x="208.5" y="-263.2" font-family="Helvetica,sans-Serif" font-size="11.00">ems_ref</text>
<polygon fill="none" stroke="black" points="356.5,-255 356.5,-277 477.5,-277 477.5,-255 356.5,-255"/>
<text text-anchor="start" x="359.5" y="-263.2" font-family="Helvetica,sans-Serif" font-size="11.00">varchar[2147483647]</text>
<polygon fill="none" stroke="black" points="188.5,-233 188.5,-255 356.5,-255 356.5,-233 188.5,-233"/>
<text text-anchor="start" x="208.5" y="-241.2" font-family="Helvetica,sans-Serif" font-size="11.00">name</text>
<polygon fill="none" stroke="black" points="356.5,-233 356.5,-255 477.5,-255 477.5,-233 356.5,-233"/>
<text text-anchor="start" x="359.5" y="-241.2" font-family="Helvetica,sans-Serif" font-size="11.00">varchar[2147483647]</text>
<polygon fill="none" stroke="black" points="188.5,-211 188.5,-233 356.5,-233 356.5,-211 188.5,-211"/>
<text text-anchor="start" x="208.5" y="-219.2" font-family="Helvetica,sans-Serif" font-size="11.00">description</text>
<polygon fill="none" stroke="black" points="356.5,-211 356.5,-233 477.5,-233 477.5,-211 356.5,-211"/>
<text text-anchor="start" x="359.5" y="-219.2" font-family="Helvetica,sans-Serif" font-size="11.00">varchar[2147483647]</text>
<polygon fill="none" stroke="black" points="188.5,-189 188.5,-211 356.5,-211 356.5,-189 188.5,-189"/>
<text text-anchor="start" x="208.5" y="-197.2" font-family="Helvetica,sans-Serif" font-size="11.00">load_balancer_algorithm</text>
<polygon fill="none" stroke="black" points="356.5,-189 356.5,-211 477.5,-211 477.5,-189 356.5,-189"/>
<text text-anchor="start" x="359.5" y="-197.2" font-family="Helvetica,sans-Serif" font-size="11.00">varchar[2147483647]</text>
<polygon fill="none" stroke="black" points="188.5,-167 188.5,-189 356.5,-189 356.5,-167 188.5,-167"/>
<text text-anchor="start" x="208.5" y="-175.2" font-family="Helvetica,sans-Serif" font-size="11.00">protocol</text>
<polygon fill="none" stroke="black" points="356.5,-167 356.5,-189 477.5,-189 477.5,-167 356.5,-167"/>
<text text-anchor="start" x="359.5" y="-175.2" font-family="Helvetica,sans-Serif" font-size="11.00">varchar[2147483647]</text>
<polygon fill="#ffffff" stroke="none" points="188.5,-145 188.5,-167 356.5,-167 356.5,-145 188.5,-145"/>
<polygon fill="none" stroke="black" points="188.5,-145 188.5,-167 356.5,-167 356.5,-145 188.5,-145"/>
<text text-anchor="start" x="208.5" y="-153.2" font-family="Helvetica,sans-Serif" font-size="11.00">ems_id</text>
<polygon fill="none" stroke="black" points="356.5,-145 356.5,-167 477.5,-167 477.5,-145 356.5,-145"/>
<text text-anchor="start" x="359.5" y="-153.2" font-family="Helvetica,sans-Serif" font-size="11.00">int8[19]</text>
<polygon fill="#ffffff" stroke="none" points="188.5,-123 188.5,-145 356.5,-145 356.5,-123 188.5,-123"/>
<polygon fill="none" stroke="black" points="188.5,-123 188.5,-145 356.5,-145 356.5,-123 188.5,-123"/>
<image xlink:href="../../images/foreignKeys.png" width="11px" height="12px" preserveAspectRatio="xMinYMin meet" x="193.5" y="-140"/>
<text text-anchor="start" x="208.5" y="-131.2" font-family="Helvetica,sans-Serif" font-size="11.00">cloud_tenant_id</text>
<polygon fill="none" stroke="black" points="356.5,-123 356.5,-145 477.5,-145 477.5,-123 356.5,-123"/>
<text text-anchor="start" x="359.5" y="-131.2" font-family="Helvetica,sans-Serif" font-size="11.00">int8[19]</text>
<polygon fill="none" stroke="black" points="188.5,-101 188.5,-123 356.5,-123 356.5,-101 188.5,-101"/>
<text text-anchor="start" x="208.5" y="-109.2" font-family="Helvetica,sans-Serif" font-size="11.00">created_at</text>
<polygon fill="none" stroke="black" points="356.5,-101 356.5,-123 477.5,-123 477.5,-101 356.5,-101"/>
<text text-anchor="start" x="359.5" y="-109.2" font-family="Helvetica,sans-Serif" font-size="11.00">timestamp[29,6]</text>
<polygon fill="none" stroke="black" points="188.5,-79 188.5,-101 356.5,-101 356.5,-79 188.5,-79"/>
<text text-anchor="start" x="208.5" y="-87.2" font-family="Helvetica,sans-Serif" font-size="11.00">updated_at</text>
<polygon fill="none" stroke="black" points="356.5,-79 356.5,-101 477.5,-101 477.5,-79 356.5,-79"/>
<text text-anchor="start" x="359.5" y="-87.2" font-family="Helvetica,sans-Serif" font-size="11.00">timestamp[29,6]</text>
<polygon fill="none" stroke="black" points="188.5,-57 188.5,-79 356.5,-79 356.5,-57 188.5,-57"/>
<text text-anchor="start" x="208.5" y="-65.2" font-family="Helvetica,sans-Serif" font-size="11.00">type</text>
<polygon fill="none" stroke="black" points="356.5,-57 356.5,-79 477.5,-79 477.5,-57 356.5,-57"/>
<text text-anchor="start" x="359.5" y="-65.2" font-family="Helvetica,sans-Serif" font-size="11.00">varchar[2147483647]</text>
<polygon fill="#ffffff" stroke="none" points="188.5,-39 188.5,-57 277.5,-57 277.5,-39 188.5,-39"/>
<polygon fill="none" stroke="black" points="188.5,-39 188.5,-57 277.5,-57 277.5,-39 188.5,-39"/>
<text text-anchor="start" x="191.5" y="-45.2" font-family="Helvetica,sans-Serif" font-size="11.00">&lt; 1</text>
<polygon fill="#ffffff" stroke="none" points="277.5,-39 277.5,-57 356.5,-57 356.5,-39 277.5,-39"/>
<polygon fill="none" stroke="black" points="277.5,-39 277.5,-57 356.5,-57 356.5,-39 277.5,-39"/>
<text text-anchor="start" x="346.5" y="-45.2" font-family="Helvetica,sans-Serif" font-size="11.00"> &#160;</text>
<polygon fill="#ffffff" stroke="none" points="356.5,-39 356.5,-57 477.5,-57 477.5,-39 356.5,-39"/>
<polygon fill="none" stroke="black" points="356.5,-39 356.5,-57 477.5,-57 477.5,-39 356.5,-39"/>
<text text-anchor="start" x="457.5" y="-45.2" font-family="Helvetica,sans-Serif" font-size="11.00">2 &gt;</text>
<polygon fill="none" stroke="black" stroke-width="2" points="187,-38 187,-322 478,-322 478,-38 187,-38"/>
</a>
</g>
</g>
<!-- load_balancer_listener_pools&#45;&gt;load_balancer_pools -->
<g id="edge1" class="edge"><title>load_balancer_listener_pools:load_balancer_pool_id:w&#45;&gt;load_balancer_pools:id.type:e</title>
<path fill="none" stroke="black" d="M530.229,-345.546C507.446,-332.641 512.67,-288 478.5,-288"/>
<polygon fill="black" stroke="black" points="536.725,-347.118 543.653,-352.499 540.612,-348.059 544.5,-349 544.5,-349 544.5,-349 540.612,-348.059 545.347,-345.501 536.725,-347.118 536.725,-347.118"/>
<ellipse fill="none" stroke="black" cx="533.614" cy="-346.365" rx="3.2" ry="3.2"/>
</g>
<!-- cloud_tenants -->
<g id="node4" class="node"><title>cloud_tenants</title>
<g id="a_node4"><a xlink:href="../../tables/cloud_tenants.html" xlink:title="cloud_tenants" target="_top">
<polygon fill="#ffffff" stroke="none" points="8,-65 8,-167 137,-167 137,-65 8,-65"/>
<polygon fill="#f5f5f5" stroke="none" points="8.5,-145 8.5,-167 137.5,-167 137.5,-145 8.5,-145"/>
<polygon fill="none" stroke="black" points="8.5,-145 8.5,-167 137.5,-167 137.5,-145 8.5,-145"/>
<text text-anchor="start" x="13.5" y="-154.2" font-family="Helvetica,sans-Serif" font-weight="bold" font-size="11.00">cloud_tenants</text>
<text text-anchor="start" x="98.5" y="-153.2" font-family="Helvetica,sans-Serif" font-size="11.00">[table]</text>
<polygon fill="none" stroke="black" points="8.5,-123 8.5,-145 137.5,-145 137.5,-123 8.5,-123"/>
<image xlink:href="../../images/primaryKeys.png" width="11px" height="12px" preserveAspectRatio="xMinYMin meet" x="13.5" y="-140"/>
<text text-anchor="start" x="40.5" y="-131.2" font-family="Helvetica,sans-Serif" font-size="11.00">id</text>
<polygon fill="#ffffff" stroke="none" points="8.5,-101 8.5,-123 137.5,-123 137.5,-101 8.5,-101"/>
<polygon fill="none" stroke="black" points="8.5,-101 8.5,-123 137.5,-123 137.5,-101 8.5,-101"/>
<text text-anchor="start" x="40.5" y="-109.2" font-family="Helvetica,sans-Serif" font-size="11.00">type</text>
<polygon fill="none" stroke="black" points="8.5,-83 8.5,-101 137.5,-101 137.5,-83 8.5,-83"/>
<text text-anchor="start" x="11.5" y="-89.2" font-family="Helvetica,sans-Serif" font-size="11.00">...</text>
<polygon fill="#ffffff" stroke="none" points="8.5,-65 8.5,-83 57.5,-83 57.5,-65 8.5,-65"/>
<polygon fill="none" stroke="black" points="8.5,-65 8.5,-83 57.5,-83 57.5,-65 8.5,-65"/>
<text text-anchor="start" x="11.5" y="-71.2" font-family="Helvetica,sans-Serif" font-size="11.00"> &#160;</text>
<polygon fill="#ffffff" stroke="none" points="57.5,-65 57.5,-83 88.5,-83 88.5,-65 57.5,-65"/>
<polygon fill="none" stroke="black" points="57.5,-65 57.5,-83 88.5,-83 88.5,-65 57.5,-65"/>
<text text-anchor="start" x="78.5" y="-71.2" font-family="Helvetica,sans-Serif" font-size="11.00"> &#160;</text>
<polygon fill="#ffffff" stroke="none" points="88.5,-65 88.5,-83 137.5,-83 137.5,-65 88.5,-65"/>
<polygon fill="none" stroke="black" points="88.5,-65 88.5,-83 137.5,-83 137.5,-65 88.5,-65"/>
<text text-anchor="start" x="110.5" y="-71.2" font-family="Helvetica,sans-Serif" font-size="11.00">25 &gt;</text>
</a>
</g>
</g>
<!-- load_balancer_pools&#45;&gt;cloud_tenants -->
<g id="edge3" class="edge"><title>load_balancer_pools:cloud_tenant_id:w&#45;&gt;cloud_tenants:id:e</title>
<path fill="none" stroke="black" d="M172.991,-134C161.677,-134 154.493,-134 138.5,-134"/>
<polygon fill="black" stroke="black" points="179.5,-134 187.5,-137.6 183.5,-134 187.5,-134 187.5,-134 187.5,-134 183.5,-134 187.5,-130.4 179.5,-134 179.5,-134"/>
<ellipse fill="none" stroke="black" cx="176.3" cy="-134" rx="3.2" ry="3.2"/>
</g>
<!-- load_balancer_pool_member_pools -->
<g id="node3" class="node"><title>load_balancer_pool_member_pools</title>
<g id="a_node3"><a xlink:href="../../tables/load_balancer_pool_member_pools.html" xlink:title="load_balancer_pool_member_pools" target="_top">
<polygon fill="#ffffff" stroke="none" points="528,-175 528,-281 773,-281 773,-175 528,-175"/>
<polygon fill="#f5f5f5" stroke="none" points="528.5,-259 528.5,-281 773.5,-281 773.5,-259 528.5,-259"/>
<polygon fill="none" stroke="black" points="528.5,-259 528.5,-281 773.5,-281 773.5,-259 528.5,-259"/>
<text text-anchor="start" x="533.5" y="-268.2" font-family="Helvetica,sans-Serif" font-weight="bold" font-size="11.00">load_balancer_pool_member_pools</text>
<text text-anchor="start" x="734.5" y="-267.2" font-family="Helvetica,sans-Serif" font-size="11.00">[table]</text>
<polygon fill="none" stroke="black" points="528.5,-237 528.5,-259 773.5,-259 773.5,-237 528.5,-237"/>
<image xlink:href="../../images/primaryKeys.png" width="11px" height="12px" preserveAspectRatio="xMinYMin meet" x="533.5" y="-254"/>
<text text-anchor="start" x="557.5" y="-245.2" font-family="Helvetica,sans-Serif" font-size="11.00">id</text>
<polygon fill="#ffffff" stroke="none" points="528.5,-215 528.5,-237 773.5,-237 773.5,-215 528.5,-215"/>
<polygon fill="none" stroke="black" points="528.5,-215 528.5,-237 773.5,-237 773.5,-215 528.5,-215"/>
<image xlink:href="../../images/foreignKeys.png" width="11px" height="12px" preserveAspectRatio="xMinYMin meet" x="533.5" y="-232"/>
<text text-anchor="start" x="557.5" y="-223.2" font-family="Helvetica,sans-Serif" font-size="11.00">load_balancer_pool_id</text>
<polygon fill="#ffffff" stroke="none" points="528.5,-193 528.5,-215 773.5,-215 773.5,-193 528.5,-193"/>
<polygon fill="none" stroke="black" points="528.5,-193 528.5,-215 773.5,-215 773.5,-193 528.5,-193"/>
<image xlink:href="../../images/foreignKeys.png" width="11px" height="12px" preserveAspectRatio="xMinYMin meet" x="533.5" y="-210"/>
<text text-anchor="start" x="557.5" y="-201.2" font-family="Helvetica,sans-Serif" font-size="11.00">load_balancer_pool_member_id</text>
<polygon fill="#ffffff" stroke="none" points="528.5,-175 528.5,-193 649.5,-193 649.5,-175 528.5,-175"/>
<polygon fill="none" stroke="black" points="528.5,-175 528.5,-193 649.5,-193 649.5,-175 528.5,-175"/>
<text text-anchor="start" x="531.5" y="-181.2" font-family="Helvetica,sans-Serif" font-size="11.00">&lt; 2</text>
<polygon fill="#ffffff" stroke="none" points="649.5,-175 649.5,-193 711.5,-193 711.5,-175 649.5,-175"/>
<polygon fill="none" stroke="black" points="649.5,-175 649.5,-193 711.5,-193 711.5,-175 649.5,-175"/>
<text text-anchor="start" x="701.5" y="-181.2" font-family="Helvetica,sans-Serif" font-size="11.00"> &#160;</text>
<polygon fill="#ffffff" stroke="none" points="711.5,-175 711.5,-193 773.5,-193 773.5,-175 711.5,-175"/>
<polygon fill="none" stroke="black" points="711.5,-175 711.5,-193 773.5,-193 773.5,-175 711.5,-175"/>
<text text-anchor="start" x="763.5" y="-181.2" font-family="Helvetica,sans-Serif" font-size="11.00"> &#160;</text>
</a>
</g>
</g>
<!-- load_balancer_pool_member_pools&#45;&gt;load_balancer_pools -->
<g id="edge2" class="edge"><title>load_balancer_pool_member_pools:load_balancer_pool_id:w&#45;&gt;load_balancer_pools:id.type:e</title>
<path fill="none" stroke="black" d="M513.813,-230.865C498.015,-245.481 507.586,-288 478.5,-288"/>
<polygon fill="black" stroke="black" points="519.962,-228.679 528.706,-229.392 523.731,-227.34 527.5,-226 527.5,-226 527.5,-226 523.731,-227.34 526.294,-222.608 519.962,-228.679 519.962,-228.679"/>
<ellipse fill="none" stroke="black" cx="516.947" cy="-229.751" rx="3.20001" ry="3.20001"/>
</g>
</g>
</svg>
