<?xml version="1.0" encoding="UTF-8" standalone="no"?>
<!DOCTYPE svg PUBLIC "-//W3C//DTD SVG 1.1//EN"
 "http://www.w3.org/Graphics/SVG/1.1/DTD/svg11.dtd">
<!-- Generated by graphviz version 2.38.0 (20140413.2041)
 -->
<!-- Title: oneDegreeRelationshipsDiagram Pages: 1 -->
<svg width="970pt" height="639pt"
 viewBox="0.00 0.00 970.00 639.00" xmlns="http://www.w3.org/2000/svg" xmlns:xlink="http://www.w3.org/1999/xlink">
<g id="graph0" class="graph" transform="scale(1 1) rotate(0) translate(4 635)">
<title>oneDegreeRelationshipsDiagram</title>
<polygon fill="#ffffff" stroke="none" points="-4,4 -4,-635 966,-635 966,4 -4,4"/>
<text text-anchor="middle" x="74.5" y="-7.2" font-family="Helvetica,sans-Serif" font-size="11.00">Generated by SchemaSpy</text>
<!-- load_balancer_health_checks -->
<g id="node1" class="node"><title>load_balancer_health_checks</title>
<g id="a_node1"><a xlink:href="../../tables/load_balancer_health_checks.html" xlink:title="load_balancer_health_checks" target="_top">
<polygon fill="#ffffff" stroke="none" points="741,-366 741,-556 954,-556 954,-366 741,-366"/>
<polygon fill="#f5f5f5" stroke="none" points="741.5,-534 741.5,-556 954.5,-556 954.5,-534 741.5,-534"/>
<polygon fill="none" stroke="black" points="741.5,-534 741.5,-556 954.5,-556 954.5,-534 741.5,-534"/>
<text text-anchor="start" x="746.5" y="-543.2" font-family="Helvetica,sans-Serif" font-weight="bold" font-size="11.00">load_balancer_health_checks</text>
<text text-anchor="start" x="915.5" y="-542.2" font-family="Helvetica,sans-Serif" font-size="11.00">[table]</text>
<polygon fill="none" stroke="black" points="741.5,-512 741.5,-534 954.5,-534 954.5,-512 741.5,-512"/>
<image xlink:href="../../images/primaryKeys.png" width="11px" height="12px" preserveAspectRatio="xMinYMin meet" x="746.5" y="-529"/>
<text text-anchor="start" x="771.5" y="-520.2" font-family="Helvetica,sans-Serif" font-size="11.00">id</text>
<polygon fill="#ffffff" stroke="none" points="741.5,-490 741.5,-512 954.5,-512 954.5,-490 741.5,-490"/>
<polygon fill="none" stroke="black" points="741.5,-490 741.5,-512 954.5,-512 954.5,-490 741.5,-490"/>
<text text-anchor="start" x="771.5" y="-498.2" font-family="Helvetica,sans-Serif" font-size="11.00">ems_ref</text>
<polygon fill="#ffffff" stroke="none" points="741.5,-468 741.5,-490 954.5,-490 954.5,-468 741.5,-468"/>
<polygon fill="none" stroke="black" points="741.5,-468 741.5,-490 954.5,-490 954.5,-468 741.5,-468"/>
<text text-anchor="start" x="771.5" y="-476.2" font-family="Helvetica,sans-Serif" font-size="11.00">ems_id</text>
<polygon fill="#ffffff" stroke="none" points="741.5,-446 741.5,-468 954.5,-468 954.5,-446 741.5,-446"/>
<polygon fill="none" stroke="black" points="741.5,-446 741.5,-468 954.5,-468 954.5,-446 741.5,-446"/>
<image xlink:href="../../images/foreignKeys.png" width="11px" height="12px" preserveAspectRatio="xMinYMin meet" x="746.5" y="-463"/>
<text text-anchor="start" x="771.5" y="-454.2" font-family="Helvetica,sans-Serif" font-size="11.00">load_balancer_listener_id</text>
<polygon fill="#ffffff" stroke="none" points="741.5,-424 741.5,-446 954.5,-446 954.5,-424 741.5,-424"/>
<polygon fill="none" stroke="black" points="741.5,-424 741.5,-446 954.5,-446 954.5,-424 741.5,-424"/>
<image xlink:href="../../images/foreignKeys.png" width="11px" height="12px" preserveAspectRatio="xMinYMin meet" x="746.5" y="-441"/>
<text text-anchor="start" x="771.5" y="-432.2" font-family="Helvetica,sans-Serif" font-size="11.00">cloud_tenant_id</text>
<polygon fill="#ffffff" stroke="none" points="741.5,-402 741.5,-424 954.5,-424 954.5,-402 741.5,-402"/>
<polygon fill="none" stroke="black" points="741.5,-402 741.5,-424 954.5,-424 954.5,-402 741.5,-402"/>
<image xlink:href="../../images/foreignKeys.png" width="11px" height="12px" preserveAspectRatio="xMinYMin meet" x="746.5" y="-419"/>
<text text-anchor="start" x="771.5" y="-410.2" font-family="Helvetica,sans-Serif" font-size="11.00">load_balancer_id</text>
<polygon fill="none" stroke="black" points="741.5,-384 741.5,-402 954.5,-402 954.5,-384 741.5,-384"/>
<text text-anchor="start" x="744.5" y="-390.2" font-family="Helvetica,sans-Serif" font-size="11.00">...</text>
<polygon fill="#ffffff" stroke="none" points="741.5,-366 741.5,-384 841.5,-384 841.5,-366 741.5,-366"/>
<polygon fill="none" stroke="black" points="741.5,-366 741.5,-384 841.5,-384 841.5,-366 741.5,-366"/>
<text text-anchor="start" x="744.5" y="-372.2" font-family="Helvetica,sans-Serif" font-size="11.00">&lt; 3</text>
<polygon fill="#ffffff" stroke="none" points="841.5,-366 841.5,-384 892.5,-384 892.5,-366 841.5,-366"/>
<polygon fill="none" stroke="black" points="841.5,-366 841.5,-384 892.5,-384 892.5,-366 841.5,-366"/>
<text text-anchor="start" x="882.5" y="-372.2" font-family="Helvetica,sans-Serif" font-size="11.00"> &#160;</text>
<polygon fill="#ffffff" stroke="none" points="892.5,-366 892.5,-384 954.5,-384 954.5,-366 892.5,-366"/>
<polygon fill="none" stroke="black" points="892.5,-366 892.5,-384 954.5,-384 954.5,-366 892.5,-366"/>
<text text-anchor="start" x="934.5" y="-372.2" font-family="Helvetica,sans-Serif" font-size="11.00">1 &gt;</text>
</a>
</g>
</g>
<!-- cloud_tenants -->
<g id="node2" class="node"><title>cloud_tenants</title>
<g id="a_node2"><a xlink:href="../../tables/cloud_tenants.html" xlink:title="cloud_tenants" target="_top">
<polygon fill="#ffffff" stroke="none" points="8,-366 8,-468 137,-468 137,-366 8,-366"/>
<polygon fill="#f5f5f5" stroke="none" points="8.5,-446 8.5,-468 137.5,-468 137.5,-446 8.5,-446"/>
<polygon fill="none" stroke="black" points="8.5,-446 8.5,-468 137.5,-468 137.5,-446 8.5,-446"/>
<text text-anchor="start" x="13.5" y="-455.2" font-family="Helvetica,sans-Serif" font-weight="bold" font-size="11.00">cloud_tenants</text>
<text text-anchor="start" x="98.5" y="-454.2" font-family="Helvetica,sans-Serif" font-size="11.00">[table]</text>
<polygon fill="none" stroke="black" points="8.5,-424 8.5,-446 137.5,-446 137.5,-424 8.5,-424"/>
<image xlink:href="../../images/primaryKeys.png" width="11px" height="12px" preserveAspectRatio="xMinYMin meet" x="13.5" y="-441"/>
<text text-anchor="start" x="40.5" y="-432.2" font-family="Helvetica,sans-Serif" font-size="11.00">id</text>
<polygon fill="#ffffff" stroke="none" points="8.5,-402 8.5,-424 137.5,-424 137.5,-402 8.5,-402"/>
<polygon fill="none" stroke="black" points="8.5,-402 8.5,-424 137.5,-424 137.5,-402 8.5,-402"/>
<text text-anchor="start" x="40.5" y="-410.2" font-family="Helvetica,sans-Serif" font-size="11.00">type</text>
<polygon fill="none" stroke="black" points="8.5,-384 8.5,-402 137.5,-402 137.5,-384 8.5,-384"/>
<text text-anchor="start" x="11.5" y="-390.2" font-family="Helvetica,sans-Serif" font-size="11.00">...</text>
<polygon fill="#ffffff" stroke="none" points="8.5,-366 8.5,-384 57.5,-384 57.5,-366 8.5,-366"/>
<polygon fill="none" stroke="black" points="8.5,-366 8.5,-384 57.5,-384 57.5,-366 8.5,-366"/>
<text text-anchor="start" x="11.5" y="-372.2" font-family="Helvetica,sans-Serif" font-size="11.00"> &#160;</text>
<polygon fill="#ffffff" stroke="none" points="57.5,-366 57.5,-384 88.5,-384 88.5,-366 57.5,-366"/>
<polygon fill="none" stroke="black" points="57.5,-366 57.5,-384 88.5,-384 88.5,-366 57.5,-366"/>
<text text-anchor="start" x="78.5" y="-372.2" font-family="Helvetica,sans-Serif" font-size="11.00"> &#160;</text>
<polygon fill="#ffffff" stroke="none" points="88.5,-366 88.5,-384 137.5,-384 137.5,-366 88.5,-366"/>
<polygon fill="none" stroke="black" points="88.5,-366 88.5,-384 137.5,-384 137.5,-366 88.5,-366"/>
<text text-anchor="start" x="110.5" y="-372.2" font-family="Helvetica,sans-Serif" font-size="11.00">25 &gt;</text>
</a>
</g>
</g>
<!-- load_balancer_health_checks&#45;&gt;cloud_tenants -->
<g id="edge1" class="edge"><title>load_balancer_health_checks:cloud_tenant_id:w&#45;&gt;cloud_tenants:id:e</title>
<path fill="none" stroke="black" d="M725.811,-435C470.393,-435 401.091,-435 138.5,-435"/>
<polygon fill="black" stroke="black" points="732.5,-435 740.5,-438.6 736.5,-435 740.5,-435 740.5,-435 740.5,-435 736.5,-435 740.5,-431.4 732.5,-435 732.5,-435"/>
<ellipse fill="none" stroke="black" cx="729.3" cy="-435" rx="3.2" ry="3.2"/>
</g>
<!-- load_balancers -->
<g id="node3" class="node"><title>load_balancers</title>
<g id="a_node3"><a xlink:href="../../tables/load_balancers.html" xlink:title="load_balancers" target="_top">
<polygon fill="#ffffff" stroke="none" points="186,-37 186,-411 461,-411 461,-37 186,-37"/>
<polygon fill="#f5f5f5" stroke="none" points="188.5,-387 188.5,-409 459.5,-409 459.5,-387 188.5,-387"/>
<polygon fill="none" stroke="black" points="188.5,-387 188.5,-409 459.5,-409 459.5,-387 188.5,-387"/>
<text text-anchor="start" x="193.5" y="-396.2" font-family="Helvetica,sans-Serif" font-weight="bold" font-size="11.00">load_balancers</text>
<text text-anchor="start" x="420.5" y="-395.2" font-family="Helvetica,sans-Serif" font-size="11.00">[table]</text>
<polygon fill="none" stroke="black" points="188.5,-365 188.5,-387 338.5,-387 338.5,-365 188.5,-365"/>
<image xlink:href="../../images/primaryKeys.png" width="11px" height="12px" preserveAspectRatio="xMinYMin meet" x="193.5" y="-382"/>
<text text-anchor="start" x="208.5" y="-373.2" font-family="Helvetica,sans-Serif" font-size="11.00">id</text>
<polygon fill="none" stroke="black" points="338.5,-365 338.5,-387 459.5,-387 459.5,-365 338.5,-365"/>
<text text-anchor="start" x="341.5" y="-373.2" font-family="Helvetica,sans-Serif" font-size="11.00">bigserial[19]</text>
<polygon fill="#ffffff" stroke="none" points="188.5,-343 188.5,-365 338.5,-365 338.5,-343 188.5,-343"/>
<polygon fill="none" stroke="black" points="188.5,-343 188.5,-365 338.5,-365 338.5,-343 188.5,-343"/>
<text text-anchor="start" x="208.5" y="-351.2" font-family="Helvetica,sans-Serif" font-size="11.00">ems_ref</text>
<polygon fill="none" stroke="black" points="338.5,-343 338.5,-365 459.5,-365 459.5,-343 338.5,-343"/>
<text text-anchor="start" x="341.5" y="-351.2" font-family="Helvetica,sans-Serif" font-size="11.00">varchar[2147483647]</text>
<polygon fill="none" stroke="black" points="188.5,-321 188.5,-343 338.5,-343 338.5,-321 188.5,-321"/>
<text text-anchor="start" x="208.5" y="-329.2" font-family="Helvetica,sans-Serif" font-size="11.00">name</text>
<polygon fill="none" stroke="black" points="338.5,-321 338.5,-343 459.5,-343 459.5,-321 338.5,-321"/>
<text text-anchor="start" x="341.5" y="-329.2" font-family="Helvetica,sans-Serif" font-size="11.00">varchar[2147483647]</text>
<polygon fill="none" stroke="black" points="188.5,-299 188.5,-321 338.5,-321 338.5,-299 188.5,-299"/>
<text text-anchor="start" x="208.5" y="-307.2" font-family="Helvetica,sans-Serif" font-size="11.00">description</text>
<polygon fill="none" stroke="black" points="338.5,-299 338.5,-321 459.5,-321 459.5,-299 338.5,-299"/>
<text text-anchor="start" x="341.5" y="-307.2" font-family="Helvetica,sans-Serif" font-size="11.00">varchar[2147483647]</text>
<polygon fill="#ffffff" stroke="none" points="188.5,-277 188.5,-299 338.5,-299 338.5,-277 188.5,-277"/>
<polygon fill="none" stroke="black" points="188.5,-277 188.5,-299 338.5,-299 338.5,-277 188.5,-277"/>
<text text-anchor="start" x="208.5" y="-285.2" font-family="Helvetica,sans-Serif" font-size="11.00">ems_id</text>
<polygon fill="none" stroke="black" points="338.5,-277 338.5,-299 459.5,-299 459.5,-277 338.5,-277"/>
<text text-anchor="start" x="341.5" y="-285.2" font-family="Helvetica,sans-Serif" font-size="11.00">int8[19]</text>
<polygon fill="#ffffff" stroke="none" points="188.5,-255 188.5,-277 338.5,-277 338.5,-255 188.5,-255"/>
<polygon fill="none" stroke="black" points="188.5,-255 188.5,-277 338.5,-277 338.5,-255 188.5,-255"/>
<image xlink:href="../../images/foreignKeys.png" width="11px" height="12px" preserveAspectRatio="xMinYMin meet" x="193.5" y="-272"/>
<text text-anchor="start" x="208.5" y="-263.2" font-family="Helvetica,sans-Serif" font-size="11.00">cloud_tenant_id</text>
<polygon fill="none" stroke="black" points="338.5,-255 338.5,-277 459.5,-277 459.5,-255 338.5,-255"/>
<text text-anchor="start" x="341.5" y="-263.2" font-family="Helvetica,sans-Serif" font-size="11.00">int8[19]</text>
<polygon fill="none" stroke="black" points="188.5,-233 188.5,-255 338.5,-255 338.5,-233 188.5,-233"/>
<text text-anchor="start" x="208.5" y="-241.2" font-family="Helvetica,sans-Serif" font-size="11.00">created_at</text>
<polygon fill="none" stroke="black" points="338.5,-233 338.5,-255 459.5,-255 459.5,-233 338.5,-233"/>
<text text-anchor="start" x="341.5" y="-241.2" font-family="Helvetica,sans-Serif" font-size="11.00">timestamp[29,6]</text>
<polygon fill="none" stroke="black" points="188.5,-211 188.5,-233 338.5,-233 338.5,-211 188.5,-211"/>
<text text-anchor="start" x="208.5" y="-219.2" font-family="Helvetica,sans-Serif" font-size="11.00">updated_at</text>
<polygon fill="none" stroke="black" points="338.5,-211 338.5,-233 459.5,-233 459.5,-211 338.5,-211"/>
<text text-anchor="start" x="341.5" y="-219.2" font-family="Helvetica,sans-Serif" font-size="11.00">timestamp[29,6]</text>
<polygon fill="none" stroke="black" points="188.5,-189 188.5,-211 338.5,-211 338.5,-189 188.5,-189"/>
<text text-anchor="start" x="208.5" y="-197.2" font-family="Helvetica,sans-Serif" font-size="11.00">type</text>
<polygon fill="none" stroke="black" points="338.5,-189 338.5,-211 459.5,-211 459.5,-189 338.5,-189"/>
<text text-anchor="start" x="341.5" y="-197.2" font-family="Helvetica,sans-Serif" font-size="11.00">varchar[2147483647]</text>
<polygon fill="none" stroke="black" points="188.5,-167 188.5,-189 338.5,-189 338.5,-167 188.5,-167"/>
<text text-anchor="start" x="208.5" y="-175.2" font-family="Helvetica,sans-Serif" font-size="11.00">retired</text>
<polygon fill="none" stroke="black" points="338.5,-167 338.5,-189 459.5,-189 459.5,-167 338.5,-167"/>
<text text-anchor="start" x="341.5" y="-175.2" font-family="Helvetica,sans-Serif" font-size="11.00">bool[1]</text>
<polygon fill="none" stroke="black" points="188.5,-145 188.5,-167 338.5,-167 338.5,-145 188.5,-145"/>
<text text-anchor="start" x="208.5" y="-153.2" font-family="Helvetica,sans-Serif" font-size="11.00">retires_on</text>
<polygon fill="none" stroke="black" points="338.5,-145 338.5,-167 459.5,-167 459.5,-145 338.5,-145"/>
<text text-anchor="start" x="341.5" y="-153.2" font-family="Helvetica,sans-Serif" font-size="11.00">timestamp[29,6]</text>
<polygon fill="none" stroke="black" points="188.5,-123 188.5,-145 338.5,-145 338.5,-123 188.5,-123"/>
<text text-anchor="start" x="208.5" y="-131.2" font-family="Helvetica,sans-Serif" font-size="11.00">retirement_warn</text>
<polygon fill="none" stroke="black" points="338.5,-123 338.5,-145 459.5,-145 459.5,-123 338.5,-123"/>
<text text-anchor="start" x="341.5" y="-131.2" font-family="Helvetica,sans-Serif" font-size="11.00">int8[19]</text>
<polygon fill="none" stroke="black" points="188.5,-101 188.5,-123 338.5,-123 338.5,-101 188.5,-101"/>
<text text-anchor="start" x="208.5" y="-109.2" font-family="Helvetica,sans-Serif" font-size="11.00">retirement_last_warn</text>
<polygon fill="none" stroke="black" points="338.5,-101 338.5,-123 459.5,-123 459.5,-101 338.5,-101"/>
<text text-anchor="start" x="341.5" y="-109.2" font-family="Helvetica,sans-Serif" font-size="11.00">timestamp[29,6]</text>
<polygon fill="none" stroke="black" points="188.5,-79 188.5,-101 338.5,-101 338.5,-79 188.5,-79"/>
<text text-anchor="start" x="208.5" y="-87.2" font-family="Helvetica,sans-Serif" font-size="11.00">retirement_state</text>
<polygon fill="none" stroke="black" points="338.5,-79 338.5,-101 459.5,-101 459.5,-79 338.5,-79"/>
<text text-anchor="start" x="341.5" y="-87.2" font-family="Helvetica,sans-Serif" font-size="11.00">varchar[2147483647]</text>
<polygon fill="none" stroke="black" points="188.5,-57 188.5,-79 338.5,-79 338.5,-57 188.5,-57"/>
<text text-anchor="start" x="208.5" y="-65.2" font-family="Helvetica,sans-Serif" font-size="11.00">retirement_requester</text>
<polygon fill="none" stroke="black" points="338.5,-57 338.5,-79 459.5,-79 459.5,-57 338.5,-57"/>
<text text-anchor="start" x="341.5" y="-65.2" font-family="Helvetica,sans-Serif" font-size="11.00">varchar[2147483647]</text>
<polygon fill="#ffffff" stroke="none" points="188.5,-39 188.5,-57 268.5,-57 268.5,-39 188.5,-39"/>
<polygon fill="none" stroke="black" points="188.5,-39 188.5,-57 268.5,-57 268.5,-39 188.5,-39"/>
<text text-anchor="start" x="191.5" y="-45.2" font-family="Helvetica,sans-Serif" font-size="11.00">&lt; 1</text>
<polygon fill="#ffffff" stroke="none" points="268.5,-39 268.5,-57 338.5,-57 338.5,-39 268.5,-39"/>
<polygon fill="none" stroke="black" points="268.5,-39 268.5,-57 338.5,-57 338.5,-39 268.5,-39"/>
<text text-anchor="start" x="328.5" y="-45.2" font-family="Helvetica,sans-Serif" font-size="11.00"> &#160;</text>
<polygon fill="#ffffff" stroke="none" points="338.5,-39 338.5,-57 459.5,-57 459.5,-39 338.5,-39"/>
<polygon fill="none" stroke="black" points="338.5,-39 338.5,-57 459.5,-57 459.5,-39 338.5,-39"/>
<text text-anchor="start" x="439.5" y="-45.2" font-family="Helvetica,sans-Serif" font-size="11.00">2 &gt;</text>
<polygon fill="none" stroke="black" stroke-width="2" points="187,-38 187,-410 460,-410 460,-38 187,-38"/>
</a>
</g>
</g>
<!-- load_balancer_health_checks&#45;&gt;load_balancers -->
<g id="edge2" class="edge"><title>load_balancer_health_checks:load_balancer_id:w&#45;&gt;load_balancers:id.type:e</title>
<path fill="none" stroke="black" d="M725.874,-412.827C612.501,-410.096 581,-376 460.5,-376"/>
<polygon fill="black" stroke="black" points="732.501,-412.905 740.457,-416.6 736.5,-412.953 740.5,-413 740.5,-413 740.5,-413 736.5,-412.953 740.543,-409.4 732.501,-412.905 732.501,-412.905"/>
<ellipse fill="none" stroke="black" cx="729.301" cy="-412.867" rx="3.2" ry="3.2"/>
</g>
<!-- load_balancer_listeners -->
<g id="node4" class="node"><title>load_balancer_listeners</title>
<g id="a_node4"><a xlink:href="../../tables/load_balancer_listeners.html" xlink:title="load_balancer_listeners" target="_top">
<polygon fill="#ffffff" stroke="none" points="510,-459 510,-627 692,-627 692,-459 510,-459"/>
<polygon fill="#f5f5f5" stroke="none" points="510,-605 510,-627 692,-627 692,-605 510,-605"/>
<polygon fill="none" stroke="black" points="510,-605 510,-627 692,-627 692,-605 510,-605"/>
<text text-anchor="start" x="515" y="-614.2" font-family="Helvetica,sans-Serif" font-weight="bold" font-size="11.00">load_balancer_listeners</text>
<text text-anchor="start" x="653" y="-613.2" font-family="Helvetica,sans-Serif" font-size="11.00">[table]</text>
<polygon fill="none" stroke="black" points="510,-583 510,-605 692,-605 692,-583 510,-583"/>
<image xlink:href="../../images/primaryKeys.png" width="11px" height="12px" preserveAspectRatio="xMinYMin meet" x="515" y="-600"/>
<text text-anchor="start" x="534" y="-591.2" font-family="Helvetica,sans-Serif" font-size="11.00">id</text>
<polygon fill="#ffffff" stroke="none" points="510,-561 510,-583 692,-583 692,-561 510,-561"/>
<polygon fill="none" stroke="black" points="510,-561 510,-583 692,-583 692,-561 510,-561"/>
<text text-anchor="start" x="534" y="-569.2" font-family="Helvetica,sans-Serif" font-size="11.00">ems_ref</text>
<polygon fill="#ffffff" stroke="none" points="510,-539 510,-561 692,-561 692,-539 510,-539"/>
<polygon fill="none" stroke="black" points="510,-539 510,-561 692,-561 692,-539 510,-539"/>
<text text-anchor="start" x="534" y="-547.2" font-family="Helvetica,sans-Serif" font-size="11.00">ems_id</text>
<polygon fill="#ffffff" stroke="none" points="510,-517 510,-539 692,-539 692,-517 510,-517"/>
<polygon fill="none" stroke="black" points="510,-517 510,-539 692,-539 692,-517 510,-517"/>
<image xlink:href="../../images/foreignKeys.png" width="11px" height="12px" preserveAspectRatio="xMinYMin meet" x="515" y="-534"/>
<text text-anchor="start" x="534" y="-525.2" font-family="Helvetica,sans-Serif" font-size="11.00">cloud_tenant_id</text>
<polygon fill="#ffffff" stroke="none" points="510,-495 510,-517 692,-517 692,-495 510,-495"/>
<polygon fill="none" stroke="black" points="510,-495 510,-517 692,-517 692,-495 510,-495"/>
<image xlink:href="../../images/foreignKeys.png" width="11px" height="12px" preserveAspectRatio="xMinYMin meet" x="515" y="-512"/>
<text text-anchor="start" x="534" y="-503.2" font-family="Helvetica,sans-Serif" font-size="11.00">load_balancer_id</text>
<polygon fill="none" stroke="black" points="510,-477 510,-495 692,-495 692,-477 510,-477"/>
<text text-anchor="start" x="513" y="-483.2" font-family="Helvetica,sans-Serif" font-size="11.00">...</text>
<polygon fill="#ffffff" stroke="none" points="510,-459 510,-477 594,-477 594,-459 510,-459"/>
<polygon fill="none" stroke="black" points="510,-459 510,-477 594,-477 594,-459 510,-459"/>
<text text-anchor="start" x="513" y="-465.2" font-family="Helvetica,sans-Serif" font-size="11.00">&lt; 2</text>
<polygon fill="#ffffff" stroke="none" points="594,-459 594,-477 638,-477 638,-459 594,-459"/>
<polygon fill="none" stroke="black" points="594,-459 594,-477 638,-477 638,-459 594,-459"/>
<text text-anchor="start" x="628" y="-465.2" font-family="Helvetica,sans-Serif" font-size="11.00"> &#160;</text>
<polygon fill="#ffffff" stroke="none" points="638,-459 638,-477 692,-477 692,-459 638,-459"/>
<polygon fill="none" stroke="black" points="638,-459 638,-477 692,-477 692,-459 638,-459"/>
<text text-anchor="start" x="672" y="-465.2" font-family="Helvetica,sans-Serif" font-size="11.00">2 &gt;</text>
</a>
</g>
</g>
<!-- load_balancer_health_checks&#45;&gt;load_balancer_listeners -->
<g id="edge3" class="edge"><title>load_balancer_health_checks:load_balancer_listener_id:w&#45;&gt;load_balancer_listeners:id:e</title>
<path fill="none" stroke="black" d="M725.98,-460.387C690.034,-481.483 751.403,-594 693,-594"/>
<polygon fill="black" stroke="black" points="732.709,-458.817 741.318,-460.506 736.605,-457.909 740.5,-457 740.5,-457 740.5,-457 736.605,-457.909 739.682,-453.494 732.709,-458.817 732.709,-458.817"/>
<ellipse fill="none" stroke="black" cx="729.593" cy="-459.544" rx="3.2" ry="3.2"/>
</g>
<!-- load_balancers&#45;&gt;cloud_tenants -->
<g id="edge6" class="edge"><title>load_balancers:cloud_tenant_id:w&#45;&gt;cloud_tenants:id:e</title>
<path fill="none" stroke="black" d="M173.313,-268.52C123.85,-289.543 211.053,-435 138.5,-435"/>
<polygon fill="black" stroke="black" points="179.623,-267.399 188.13,-269.545 183.562,-266.7 187.5,-266 187.5,-266 187.5,-266 183.562,-266.7 186.87,-262.455 179.623,-267.399 179.623,-267.399"/>
<ellipse fill="none" stroke="black" cx="176.473" cy="-267.959" rx="3.2" ry="3.2"/>
</g>
<!-- load_balancer_listeners&#45;&gt;cloud_tenants -->
<g id="edge4" class="edge"><title>load_balancer_listeners:cloud_tenant_id:w&#45;&gt;cloud_tenants:id:e</title>
<path fill="none" stroke="black" d="M494.279,-527.85C355.065,-524.959 320.186,-480.825 178,-445 160.439,-440.575 156.609,-435 138.5,-435"/>
<polygon fill="black" stroke="black" points="501,-527.918 508.963,-531.6 505,-527.959 509,-528 509,-528 509,-528 505,-527.959 509.037,-524.4 501,-527.918 501,-527.918"/>
<ellipse fill="none" stroke="black" cx="497.801" cy="-527.886" rx="3.2" ry="3.2"/>
</g>
<!-- load_balancer_listeners&#45;&gt;load_balancers -->
<g id="edge5" class="edge"><title>load_balancer_listeners:load_balancer_id:w&#45;&gt;load_balancers:id.type:e</title>
<path fill="none" stroke="black" d="M494.584,-502.523C460.647,-481.849 516.146,-376 460.5,-376"/>
<polygon fill="black" stroke="black" points="501.223,-504.124 508.156,-509.5 505.112,-505.062 509,-506 509,-506 509,-506 505.112,-505.062 509.844,-502.5 501.223,-504.124 501.223,-504.124"/>
<ellipse fill="none" stroke="black" cx="498.112" cy="-503.374" rx="3.2" ry="3.2"/>
</g>
</g>
</svg>
