<?xml version="1.0" encoding="UTF-8" standalone="no"?>
<!DOCTYPE svg PUBLIC "-//W3C//DTD SVG 1.1//EN"
 "http://www.w3.org/Graphics/SVG/1.1/DTD/svg11.dtd">
<!-- Generated by graphviz version 2.38.0 (20140413.2041)
 -->
<!-- Title: oneDegreeRelationshipsDiagram Pages: 1 -->
<svg width="1265pt" height="547pt"
 viewBox="0.00 0.00 1265.00 547.00" xmlns="http://www.w3.org/2000/svg" xmlns:xlink="http://www.w3.org/1999/xlink">
<g id="graph0" class="graph" transform="scale(1 1) rotate(0) translate(4 543)">
<title>oneDegreeRelationshipsDiagram</title>
<polygon fill="#ffffff" stroke="none" points="-4,4 -4,-543 1261,-543 1261,4 -4,4"/>
<text text-anchor="middle" x="74.5" y="-7.2" font-family="Helvetica,sans-Serif" font-size="11.00">Generated by SchemaSpy</text>
<!-- load_balancer_health_check_members -->
<g id="node1" class="node"><title>load_balancer_health_check_members</title>
<g id="a_node1"><a xlink:href="../../tables/load_balancer_health_check_members.html" xlink:title="load_balancer_health_check_members" target="_top">
<polygon fill="#ffffff" stroke="none" points="983,-411 983,-535 1249,-535 1249,-411 983,-411"/>
<polygon fill="#f5f5f5" stroke="none" points="983,-513 983,-535 1249,-535 1249,-513 983,-513"/>
<polygon fill="none" stroke="black" points="983,-513 983,-535 1249,-535 1249,-513 983,-513"/>
<text text-anchor="start" x="988" y="-522.2" font-family="Helvetica,sans-Serif" font-weight="bold" font-size="11.00">load_balancer_health_check_members</text>
<text text-anchor="start" x="1210" y="-521.2" font-family="Helvetica,sans-Serif" font-size="11.00">[table]</text>
<polygon fill="none" stroke="black" points="983,-491 983,-513 1249,-513 1249,-491 983,-491"/>
<image xlink:href="../../images/primaryKeys.png" width="11px" height="12px" preserveAspectRatio="xMinYMin meet" x="988" y="-508"/>
<text text-anchor="start" x="1012" y="-499.2" font-family="Helvetica,sans-Serif" font-size="11.00">id</text>
<polygon fill="#ffffff" stroke="none" points="983,-469 983,-491 1249,-491 1249,-469 983,-469"/>
<polygon fill="none" stroke="black" points="983,-469 983,-491 1249,-491 1249,-469 983,-469"/>
<image xlink:href="../../images/foreignKeys.png" width="11px" height="12px" preserveAspectRatio="xMinYMin meet" x="988" y="-486"/>
<text text-anchor="start" x="1012" y="-477.2" font-family="Helvetica,sans-Serif" font-size="11.00">load_balancer_health_check_id</text>
<polygon fill="#ffffff" stroke="none" points="983,-447 983,-469 1249,-469 1249,-447 983,-447"/>
<polygon fill="none" stroke="black" points="983,-447 983,-469 1249,-469 1249,-447 983,-447"/>
<image xlink:href="../../images/foreignKeys.png" width="11px" height="12px" preserveAspectRatio="xMinYMin meet" x="988" y="-464"/>
<text text-anchor="start" x="1012" y="-455.2" font-family="Helvetica,sans-Serif" font-size="11.00">load_balancer_pool_member_id</text>
<polygon fill="none" stroke="black" points="983,-429 983,-447 1249,-447 1249,-429 983,-429"/>
<text text-anchor="start" x="986" y="-435.2" font-family="Helvetica,sans-Serif" font-size="11.00">...</text>
<polygon fill="#ffffff" stroke="none" points="983,-411 983,-429 1114,-429 1114,-411 983,-411"/>
<polygon fill="none" stroke="black" points="983,-411 983,-429 1114,-429 1114,-411 983,-411"/>
<text text-anchor="start" x="986" y="-417.2" font-family="Helvetica,sans-Serif" font-size="11.00">&lt; 2</text>
<polygon fill="#ffffff" stroke="none" points="1114,-411 1114,-429 1181,-429 1181,-411 1114,-411"/>
<polygon fill="none" stroke="black" points="1114,-411 1114,-429 1181,-429 1181,-411 1114,-411"/>
<text text-anchor="start" x="1171" y="-417.2" font-family="Helvetica,sans-Serif" font-size="11.00"> &#160;</text>
<polygon fill="#ffffff" stroke="none" points="1181,-411 1181,-429 1249,-429 1249,-411 1181,-411"/>
<polygon fill="none" stroke="black" points="1181,-411 1181,-429 1249,-429 1249,-411 1181,-411"/>
<text text-anchor="start" x="1239" y="-417.2" font-family="Helvetica,sans-Serif" font-size="11.00"> &#160;</text>
</a>
</g>
</g>
<!-- load_balancer_health_checks -->
<g id="node2" class="node"><title>load_balancer_health_checks</title>
<g id="a_node2"><a xlink:href="../../tables/load_balancer_health_checks.html" xlink:title="load_balancer_health_checks" target="_top">
<polygon fill="#ffffff" stroke="none" points="616,-97 616,-515 934,-515 934,-97 616,-97"/>
<polygon fill="#f5f5f5" stroke="none" points="618,-491 618,-513 932,-513 932,-491 618,-491"/>
<polygon fill="none" stroke="black" points="618,-491 618,-513 932,-513 932,-491 618,-491"/>
<text text-anchor="start" x="623" y="-500.2" font-family="Helvetica,sans-Serif" font-weight="bold" font-size="11.00">load_balancer_health_checks</text>
<text text-anchor="start" x="893" y="-499.2" font-family="Helvetica,sans-Serif" font-size="11.00">[table]</text>
<polygon fill="none" stroke="black" points="618,-469 618,-491 811,-491 811,-469 618,-469"/>
<image xlink:href="../../images/primaryKeys.png" width="11px" height="12px" preserveAspectRatio="xMinYMin meet" x="623" y="-486"/>
<text text-anchor="start" x="638" y="-477.2" font-family="Helvetica,sans-Serif" font-size="11.00">id</text>
<polygon fill="none" stroke="black" points="811,-469 811,-491 932,-491 932,-469 811,-469"/>
<text text-anchor="start" x="814" y="-477.2" font-family="Helvetica,sans-Serif" font-size="11.00">bigserial[19]</text>
<polygon fill="#ffffff" stroke="none" points="618,-447 618,-469 811,-469 811,-447 618,-447"/>
<polygon fill="none" stroke="black" points="618,-447 618,-469 811,-469 811,-447 618,-447"/>
<text text-anchor="start" x="638" y="-455.2" font-family="Helvetica,sans-Serif" font-size="11.00">ems_ref</text>
<polygon fill="none" stroke="black" points="811,-447 811,-469 932,-469 932,-447 811,-447"/>
<text text-anchor="start" x="814" y="-455.2" font-family="Helvetica,sans-Serif" font-size="11.00">varchar[2147483647]</text>
<polygon fill="none" stroke="black" points="618,-425 618,-447 811,-447 811,-425 618,-425"/>
<text text-anchor="start" x="638" y="-433.2" font-family="Helvetica,sans-Serif" font-size="11.00">name</text>
<polygon fill="none" stroke="black" points="811,-425 811,-447 932,-447 932,-425 811,-425"/>
<text text-anchor="start" x="814" y="-433.2" font-family="Helvetica,sans-Serif" font-size="11.00">varchar[2147483647]</text>
<polygon fill="none" stroke="black" points="618,-403 618,-425 811,-425 811,-403 618,-403"/>
<text text-anchor="start" x="638" y="-411.2" font-family="Helvetica,sans-Serif" font-size="11.00">protocol</text>
<polygon fill="none" stroke="black" points="811,-403 811,-425 932,-425 932,-403 811,-403"/>
<text text-anchor="start" x="814" y="-411.2" font-family="Helvetica,sans-Serif" font-size="11.00">varchar[2147483647]</text>
<polygon fill="none" stroke="black" points="618,-381 618,-403 811,-403 811,-381 618,-381"/>
<text text-anchor="start" x="638" y="-389.2" font-family="Helvetica,sans-Serif" font-size="11.00">port</text>
<polygon fill="none" stroke="black" points="811,-381 811,-403 932,-403 932,-381 811,-381"/>
<text text-anchor="start" x="814" y="-389.2" font-family="Helvetica,sans-Serif" font-size="11.00">int4[10]</text>
<polygon fill="none" stroke="black" points="618,-359 618,-381 811,-381 811,-359 618,-359"/>
<text text-anchor="start" x="638" y="-367.2" font-family="Helvetica,sans-Serif" font-size="11.00">url_path</text>
<polygon fill="none" stroke="black" points="811,-359 811,-381 932,-381 932,-359 811,-359"/>
<text text-anchor="start" x="814" y="-367.2" font-family="Helvetica,sans-Serif" font-size="11.00">varchar[2147483647]</text>
<polygon fill="none" stroke="black" points="618,-337 618,-359 811,-359 811,-337 618,-337"/>
<text text-anchor="start" x="638" y="-345.2" font-family="Helvetica,sans-Serif" font-size="11.00">interval</text>
<polygon fill="none" stroke="black" points="811,-337 811,-359 932,-359 932,-337 811,-337"/>
<text text-anchor="start" x="814" y="-345.2" font-family="Helvetica,sans-Serif" font-size="11.00">int4[10]</text>
<polygon fill="none" stroke="black" points="618,-315 618,-337 811,-337 811,-315 618,-315"/>
<text text-anchor="start" x="638" y="-323.2" font-family="Helvetica,sans-Serif" font-size="11.00">timeout</text>
<polygon fill="none" stroke="black" points="811,-315 811,-337 932,-337 932,-315 811,-315"/>
<text text-anchor="start" x="814" y="-323.2" font-family="Helvetica,sans-Serif" font-size="11.00">int4[10]</text>
<polygon fill="none" stroke="black" points="618,-293 618,-315 811,-315 811,-293 618,-293"/>
<text text-anchor="start" x="638" y="-301.2" font-family="Helvetica,sans-Serif" font-size="11.00">healthy_threshold</text>
<polygon fill="none" stroke="black" points="811,-293 811,-315 932,-315 932,-293 811,-293"/>
<text text-anchor="start" x="814" y="-301.2" font-family="Helvetica,sans-Serif" font-size="11.00">int4[10]</text>
<polygon fill="none" stroke="black" points="618,-271 618,-293 811,-293 811,-271 618,-271"/>
<text text-anchor="start" x="638" y="-279.2" font-family="Helvetica,sans-Serif" font-size="11.00">unhealthy_threshold</text>
<polygon fill="none" stroke="black" points="811,-271 811,-293 932,-293 932,-271 811,-271"/>
<text text-anchor="start" x="814" y="-279.2" font-family="Helvetica,sans-Serif" font-size="11.00">int4[10]</text>
<polygon fill="#ffffff" stroke="none" points="618,-249 618,-271 811,-271 811,-249 618,-249"/>
<polygon fill="none" stroke="black" points="618,-249 618,-271 811,-271 811,-249 618,-249"/>
<text text-anchor="start" x="638" y="-257.2" font-family="Helvetica,sans-Serif" font-size="11.00">ems_id</text>
<polygon fill="none" stroke="black" points="811,-249 811,-271 932,-271 932,-249 811,-249"/>
<text text-anchor="start" x="814" y="-257.2" font-family="Helvetica,sans-Serif" font-size="11.00">int8[19]</text>
<polygon fill="#ffffff" stroke="none" points="618,-227 618,-249 811,-249 811,-227 618,-227"/>
<polygon fill="none" stroke="black" points="618,-227 618,-249 811,-249 811,-227 618,-227"/>
<image xlink:href="../../images/foreignKeys.png" width="11px" height="12px" preserveAspectRatio="xMinYMin meet" x="623" y="-244"/>
<text text-anchor="start" x="638" y="-235.2" font-family="Helvetica,sans-Serif" font-size="11.00">load_balancer_listener_id</text>
<polygon fill="none" stroke="black" points="811,-227 811,-249 932,-249 932,-227 811,-227"/>
<text text-anchor="start" x="814" y="-235.2" font-family="Helvetica,sans-Serif" font-size="11.00">int8[19]</text>
<polygon fill="#ffffff" stroke="none" points="618,-205 618,-227 811,-227 811,-205 618,-205"/>
<polygon fill="none" stroke="black" points="618,-205 618,-227 811,-227 811,-205 618,-205"/>
<image xlink:href="../../images/foreignKeys.png" width="11px" height="12px" preserveAspectRatio="xMinYMin meet" x="623" y="-222"/>
<text text-anchor="start" x="638" y="-213.2" font-family="Helvetica,sans-Serif" font-size="11.00">cloud_tenant_id</text>
<polygon fill="none" stroke="black" points="811,-205 811,-227 932,-227 932,-205 811,-205"/>
<text text-anchor="start" x="814" y="-213.2" font-family="Helvetica,sans-Serif" font-size="11.00">int8[19]</text>
<polygon fill="none" stroke="black" points="618,-183 618,-205 811,-205 811,-183 618,-183"/>
<text text-anchor="start" x="638" y="-191.2" font-family="Helvetica,sans-Serif" font-size="11.00">created_at</text>
<polygon fill="none" stroke="black" points="811,-183 811,-205 932,-205 932,-183 811,-183"/>
<text text-anchor="start" x="814" y="-191.2" font-family="Helvetica,sans-Serif" font-size="11.00">timestamp[29,6]</text>
<polygon fill="none" stroke="black" points="618,-161 618,-183 811,-183 811,-161 618,-161"/>
<text text-anchor="start" x="638" y="-169.2" font-family="Helvetica,sans-Serif" font-size="11.00">updated_at</text>
<polygon fill="none" stroke="black" points="811,-161 811,-183 932,-183 932,-161 811,-161"/>
<text text-anchor="start" x="814" y="-169.2" font-family="Helvetica,sans-Serif" font-size="11.00">timestamp[29,6]</text>
<polygon fill="#ffffff" stroke="none" points="618,-139 618,-161 811,-161 811,-139 618,-139"/>
<polygon fill="none" stroke="black" points="618,-139 618,-161 811,-161 811,-139 618,-139"/>
<image xlink:href="../../images/foreignKeys.png" width="11px" height="12px" preserveAspectRatio="xMinYMin meet" x="623" y="-156"/>
<text text-anchor="start" x="638" y="-147.2" font-family="Helvetica,sans-Serif" font-size="11.00">load_balancer_id</text>
<polygon fill="none" stroke="black" points="811,-139 811,-161 932,-161 932,-139 811,-139"/>
<text text-anchor="start" x="814" y="-147.2" font-family="Helvetica,sans-Serif" font-size="11.00">int8[19]</text>
<polygon fill="none" stroke="black" points="618,-117 618,-139 811,-139 811,-117 618,-117"/>
<text text-anchor="start" x="638" y="-125.2" font-family="Helvetica,sans-Serif" font-size="11.00">type</text>
<polygon fill="none" stroke="black" points="811,-117 811,-139 932,-139 932,-117 811,-117"/>
<text text-anchor="start" x="814" y="-125.2" font-family="Helvetica,sans-Serif" font-size="11.00">varchar[2147483647]</text>
<polygon fill="#ffffff" stroke="none" points="618,-99 618,-117 719,-117 719,-99 618,-99"/>
<polygon fill="none" stroke="black" points="618,-99 618,-117 719,-117 719,-99 618,-99"/>
<text text-anchor="start" x="621" y="-105.2" font-family="Helvetica,sans-Serif" font-size="11.00">&lt; 3</text>
<polygon fill="#ffffff" stroke="none" points="719,-99 719,-117 811,-117 811,-99 719,-99"/>
<polygon fill="none" stroke="black" points="719,-99 719,-117 811,-117 811,-99 719,-99"/>
<text text-anchor="start" x="801" y="-105.2" font-family="Helvetica,sans-Serif" font-size="11.00"> &#160;</text>
<polygon fill="#ffffff" stroke="none" points="811,-99 811,-117 932,-117 932,-99 811,-99"/>
<polygon fill="none" stroke="black" points="811,-99 811,-117 932,-117 932,-99 811,-99"/>
<text text-anchor="start" x="912" y="-105.2" font-family="Helvetica,sans-Serif" font-size="11.00">1 &gt;</text>
<polygon fill="none" stroke="black" stroke-width="2" points="617,-98 617,-514 933,-514 933,-98 617,-98"/>
</a>
</g>
</g>
<!-- load_balancer_health_check_members&#45;&gt;load_balancer_health_checks -->
<g id="edge1" class="edge"><title>load_balancer_health_check_members:load_balancer_health_check_id:w&#45;&gt;load_balancer_health_checks:id.type:e</title>
<path fill="none" stroke="black" d="M967.491,-480C956.177,-480 948.993,-480 933,-480"/>
<polygon fill="black" stroke="black" points="974,-480 982,-483.6 978,-480 982,-480 982,-480 982,-480 978,-480 982,-476.4 974,-480 974,-480"/>
<ellipse fill="none" stroke="black" cx="970.8" cy="-480" rx="3.2" ry="3.2"/>
</g>
<!-- cloud_tenants -->
<g id="node3" class="node"><title>cloud_tenants</title>
<g id="a_node3"><a xlink:href="../../tables/cloud_tenants.html" xlink:title="cloud_tenants" target="_top">
<polygon fill="#ffffff" stroke="none" points="8,-138 8,-240 137,-240 137,-138 8,-138"/>
<polygon fill="#f5f5f5" stroke="none" points="8.5,-218 8.5,-240 137.5,-240 137.5,-218 8.5,-218"/>
<polygon fill="none" stroke="black" points="8.5,-218 8.5,-240 137.5,-240 137.5,-218 8.5,-218"/>
<text text-anchor="start" x="13.5" y="-227.2" font-family="Helvetica,sans-Serif" font-weight="bold" font-size="11.00">cloud_tenants</text>
<text text-anchor="start" x="98.5" y="-226.2" font-family="Helvetica,sans-Serif" font-size="11.00">[table]</text>
<polygon fill="none" stroke="black" points="8.5,-196 8.5,-218 137.5,-218 137.5,-196 8.5,-196"/>
<image xlink:href="../../images/primaryKeys.png" width="11px" height="12px" preserveAspectRatio="xMinYMin meet" x="13.5" y="-213"/>
<text text-anchor="start" x="40.5" y="-204.2" font-family="Helvetica,sans-Serif" font-size="11.00">id</text>
<polygon fill="#ffffff" stroke="none" points="8.5,-174 8.5,-196 137.5,-196 137.5,-174 8.5,-174"/>
<polygon fill="none" stroke="black" points="8.5,-174 8.5,-196 137.5,-196 137.5,-174 8.5,-174"/>
<text text-anchor="start" x="40.5" y="-182.2" font-family="Helvetica,sans-Serif" font-size="11.00">type</text>
<polygon fill="none" stroke="black" points="8.5,-156 8.5,-174 137.5,-174 137.5,-156 8.5,-156"/>
<text text-anchor="start" x="11.5" y="-162.2" font-family="Helvetica,sans-Serif" font-size="11.00">...</text>
<polygon fill="#ffffff" stroke="none" points="8.5,-138 8.5,-156 57.5,-156 57.5,-138 8.5,-138"/>
<polygon fill="none" stroke="black" points="8.5,-138 8.5,-156 57.5,-156 57.5,-138 8.5,-138"/>
<text text-anchor="start" x="11.5" y="-144.2" font-family="Helvetica,sans-Serif" font-size="11.00"> &#160;</text>
<polygon fill="#ffffff" stroke="none" points="57.5,-138 57.5,-156 88.5,-156 88.5,-138 57.5,-138"/>
<polygon fill="none" stroke="black" points="57.5,-138 57.5,-156 88.5,-156 88.5,-138 57.5,-138"/>
<text text-anchor="start" x="78.5" y="-144.2" font-family="Helvetica,sans-Serif" font-size="11.00"> &#160;</text>
<polygon fill="#ffffff" stroke="none" points="88.5,-138 88.5,-156 137.5,-156 137.5,-138 88.5,-138"/>
<polygon fill="none" stroke="black" points="88.5,-138 88.5,-156 137.5,-156 137.5,-138 88.5,-138"/>
<text text-anchor="start" x="110.5" y="-144.2" font-family="Helvetica,sans-Serif" font-size="11.00">25 &gt;</text>
</a>
</g>
</g>
<!-- load_balancer_health_checks&#45;&gt;cloud_tenants -->
<g id="edge2" class="edge"><title>load_balancer_health_checks:cloud_tenant_id:w&#45;&gt;cloud_tenants:id:e</title>
<path fill="none" stroke="black" d="M602.303,-215.985C401.719,-215.583 346.219,-207 138.5,-207"/>
<polygon fill="black" stroke="black" points="609,-215.992 616.996,-219.6 613,-215.996 617,-216 617,-216 617,-216 613,-215.996 617.004,-212.4 609,-215.992 609,-215.992"/>
<ellipse fill="none" stroke="black" cx="605.8" cy="-215.989" rx="3.2" ry="3.2"/>
</g>
<!-- load_balancers -->
<g id="node4" class="node"><title>load_balancers</title>
<g id="a_node4"><a xlink:href="../../tables/load_balancers.html" xlink:title="load_balancers" target="_top">
<polygon fill="#ffffff" stroke="none" points="186,-37 186,-183 336,-183 336,-37 186,-37"/>
<polygon fill="#f5f5f5" stroke="none" points="186,-161 186,-183 336,-183 336,-161 186,-161"/>
<polygon fill="none" stroke="black" points="186,-161 186,-183 336,-183 336,-161 186,-161"/>
<text text-anchor="start" x="191" y="-170.2" font-family="Helvetica,sans-Serif" font-weight="bold" font-size="11.00">load_balancers</text>
<text text-anchor="start" x="297" y="-169.2" font-family="Helvetica,sans-Serif" font-size="11.00">[table]</text>
<polygon fill="none" stroke="black" points="186,-139 186,-161 336,-161 336,-139 186,-139"/>
<image xlink:href="../../images/primaryKeys.png" width="11px" height="12px" preserveAspectRatio="xMinYMin meet" x="191" y="-156"/>
<text text-anchor="start" x="206" y="-147.2" font-family="Helvetica,sans-Serif" font-size="11.00">id</text>
<polygon fill="#ffffff" stroke="none" points="186,-117 186,-139 336,-139 336,-117 186,-117"/>
<polygon fill="none" stroke="black" points="186,-117 186,-139 336,-139 336,-117 186,-117"/>
<text text-anchor="start" x="206" y="-125.2" font-family="Helvetica,sans-Serif" font-size="11.00">ems_ref</text>
<polygon fill="#ffffff" stroke="none" points="186,-95 186,-117 336,-117 336,-95 186,-95"/>
<polygon fill="none" stroke="black" points="186,-95 186,-117 336,-117 336,-95 186,-95"/>
<text text-anchor="start" x="206" y="-103.2" font-family="Helvetica,sans-Serif" font-size="11.00">ems_id</text>
<polygon fill="#ffffff" stroke="none" points="186,-73 186,-95 336,-95 336,-73 186,-73"/>
<polygon fill="none" stroke="black" points="186,-73 186,-95 336,-95 336,-73 186,-73"/>
<image xlink:href="../../images/foreignKeys.png" width="11px" height="12px" preserveAspectRatio="xMinYMin meet" x="191" y="-90"/>
<text text-anchor="start" x="206" y="-81.2" font-family="Helvetica,sans-Serif" font-size="11.00">cloud_tenant_id</text>
<polygon fill="none" stroke="black" points="186,-55 186,-73 336,-73 336,-55 186,-55"/>
<text text-anchor="start" x="189" y="-61.2" font-family="Helvetica,sans-Serif" font-size="11.00">...</text>
<polygon fill="#ffffff" stroke="none" points="186,-37 186,-55 254,-55 254,-37 186,-37"/>
<polygon fill="none" stroke="black" points="186,-37 186,-55 254,-55 254,-37 186,-37"/>
<text text-anchor="start" x="189" y="-43.2" font-family="Helvetica,sans-Serif" font-size="11.00">&lt; 1</text>
<polygon fill="#ffffff" stroke="none" points="254,-37 254,-55 290,-55 290,-37 254,-37"/>
<polygon fill="none" stroke="black" points="254,-37 254,-55 290,-55 290,-37 254,-37"/>
<text text-anchor="start" x="280" y="-43.2" font-family="Helvetica,sans-Serif" font-size="11.00"> &#160;</text>
<polygon fill="#ffffff" stroke="none" points="290,-37 290,-55 336,-55 336,-37 290,-37"/>
<polygon fill="none" stroke="black" points="290,-37 290,-55 336,-55 336,-37 290,-37"/>
<text text-anchor="start" x="316" y="-43.2" font-family="Helvetica,sans-Serif" font-size="11.00">2 &gt;</text>
</a>
</g>
</g>
<!-- load_balancer_health_checks&#45;&gt;load_balancers -->
<g id="edge3" class="edge"><title>load_balancer_health_checks:load_balancer_id:w&#45;&gt;load_balancers:id:e</title>
<path fill="none" stroke="black" d="M602.489,-150C489.915,-150 456.462,-150 337,-150"/>
<polygon fill="black" stroke="black" points="609,-150 617,-153.6 613,-150 617,-150 617,-150 617,-150 613,-150 617,-146.4 609,-150 609,-150"/>
<ellipse fill="none" stroke="black" cx="605.8" cy="-150" rx="3.2" ry="3.2"/>
</g>
<!-- load_balancer_listeners -->
<g id="node5" class="node"><title>load_balancer_listeners</title>
<g id="a_node5"><a xlink:href="../../tables/load_balancer_listeners.html" xlink:title="load_balancer_listeners" target="_top">
<polygon fill="#ffffff" stroke="none" points="385,-231 385,-399 567,-399 567,-231 385,-231"/>
<polygon fill="#f5f5f5" stroke="none" points="385,-377 385,-399 567,-399 567,-377 385,-377"/>
<polygon fill="none" stroke="black" points="385,-377 385,-399 567,-399 567,-377 385,-377"/>
<text text-anchor="start" x="390" y="-386.2" font-family="Helvetica,sans-Serif" font-weight="bold" font-size="11.00">load_balancer_listeners</text>
<text text-anchor="start" x="528" y="-385.2" font-family="Helvetica,sans-Serif" font-size="11.00">[table]</text>
<polygon fill="none" stroke="black" points="385,-355 385,-377 567,-377 567,-355 385,-355"/>
<image xlink:href="../../images/primaryKeys.png" width="11px" height="12px" preserveAspectRatio="xMinYMin meet" x="390" y="-372"/>
<text text-anchor="start" x="409" y="-363.2" font-family="Helvetica,sans-Serif" font-size="11.00">id</text>
<polygon fill="#ffffff" stroke="none" points="385,-333 385,-355 567,-355 567,-333 385,-333"/>
<polygon fill="none" stroke="black" points="385,-333 385,-355 567,-355 567,-333 385,-333"/>
<text text-anchor="start" x="409" y="-341.2" font-family="Helvetica,sans-Serif" font-size="11.00">ems_ref</text>
<polygon fill="#ffffff" stroke="none" points="385,-311 385,-333 567,-333 567,-311 385,-311"/>
<polygon fill="none" stroke="black" points="385,-311 385,-333 567,-333 567,-311 385,-311"/>
<text text-anchor="start" x="409" y="-319.2" font-family="Helvetica,sans-Serif" font-size="11.00">ems_id</text>
<polygon fill="#ffffff" stroke="none" points="385,-289 385,-311 567,-311 567,-289 385,-289"/>
<polygon fill="none" stroke="black" points="385,-289 385,-311 567,-311 567,-289 385,-289"/>
<image xlink:href="../../images/foreignKeys.png" width="11px" height="12px" preserveAspectRatio="xMinYMin meet" x="390" y="-306"/>
<text text-anchor="start" x="409" y="-297.2" font-family="Helvetica,sans-Serif" font-size="11.00">cloud_tenant_id</text>
<polygon fill="#ffffff" stroke="none" points="385,-267 385,-289 567,-289 567,-267 385,-267"/>
<polygon fill="none" stroke="black" points="385,-267 385,-289 567,-289 567,-267 385,-267"/>
<image xlink:href="../../images/foreignKeys.png" width="11px" height="12px" preserveAspectRatio="xMinYMin meet" x="390" y="-284"/>
<text text-anchor="start" x="409" y="-275.2" font-family="Helvetica,sans-Serif" font-size="11.00">load_balancer_id</text>
<polygon fill="none" stroke="black" points="385,-249 385,-267 567,-267 567,-249 385,-249"/>
<text text-anchor="start" x="388" y="-255.2" font-family="Helvetica,sans-Serif" font-size="11.00">...</text>
<polygon fill="#ffffff" stroke="none" points="385,-231 385,-249 469,-249 469,-231 385,-231"/>
<polygon fill="none" stroke="black" points="385,-231 385,-249 469,-249 469,-231 385,-231"/>
<text text-anchor="start" x="388" y="-237.2" font-family="Helvetica,sans-Serif" font-size="11.00">&lt; 2</text>
<polygon fill="#ffffff" stroke="none" points="469,-231 469,-249 513,-249 513,-231 469,-231"/>
<polygon fill="none" stroke="black" points="469,-231 469,-249 513,-249 513,-231 469,-231"/>
<text text-anchor="start" x="503" y="-237.2" font-family="Helvetica,sans-Serif" font-size="11.00"> &#160;</text>
<polygon fill="#ffffff" stroke="none" points="513,-231 513,-249 567,-249 567,-231 513,-231"/>
<polygon fill="none" stroke="black" points="513,-231 513,-249 567,-249 567,-231 513,-231"/>
<text text-anchor="start" x="547" y="-237.2" font-family="Helvetica,sans-Serif" font-size="11.00">2 &gt;</text>
</a>
</g>
</g>
<!-- load_balancer_health_checks&#45;&gt;load_balancer_listeners -->
<g id="edge4" class="edge"><title>load_balancer_health_checks:load_balancer_listener_id:w&#45;&gt;load_balancer_listeners:id:e</title>
<path fill="none" stroke="black" d="M602.731,-241.424C569.034,-261.779 622.966,-366 568,-366"/>
<polygon fill="black" stroke="black" points="609.221,-239.867 617.84,-241.501 613.11,-238.933 617,-238 617,-238 617,-238 613.11,-238.933 616.16,-234.499 609.221,-239.867 609.221,-239.867"/>
<ellipse fill="none" stroke="black" cx="606.109" cy="-240.613" rx="3.2" ry="3.2"/>
</g>
<!-- load_balancers&#45;&gt;cloud_tenants -->
<g id="edge7" class="edge"><title>load_balancers:cloud_tenant_id:w&#45;&gt;cloud_tenants:id:e</title>
<path fill="none" stroke="black" d="M170.91,-87.5485C139.525,-107.716 191.007,-207 138.5,-207"/>
<polygon fill="black" stroke="black" points="177.242,-85.9538 185.879,-87.491 181.121,-84.9769 185,-84 185,-84 185,-84 181.121,-84.9769 184.121,-80.509 177.242,-85.9538 177.242,-85.9538"/>
<ellipse fill="none" stroke="black" cx="174.139" cy="-86.7353" rx="3.2" ry="3.2"/>
</g>
<!-- load_balancer_listeners&#45;&gt;cloud_tenants -->
<g id="edge5" class="edge"><title>load_balancer_listeners:cloud_tenant_id:w&#45;&gt;cloud_tenants:id:e</title>
<path fill="none" stroke="black" d="M369.869,-297.115C317.109,-281.417 164.593,-207 138.5,-207"/>
<polygon fill="black" stroke="black" points="376.162,-298.4 383.28,-303.527 380.081,-299.2 384,-300 384,-300 384,-300 380.081,-299.2 384.72,-296.473 376.162,-298.4 376.162,-298.4"/>
<ellipse fill="none" stroke="black" cx="373.026" cy="-297.759" rx="3.2" ry="3.2"/>
</g>
<!-- load_balancer_listeners&#45;&gt;load_balancers -->
<g id="edge6" class="edge"><title>load_balancer_listeners:load_balancer_id:w&#45;&gt;load_balancers:id:e</title>
<path fill="none" stroke="black" d="M369.851,-274.576C336.605,-254.221 391.684,-150 337,-150"/>
<polygon fill="black" stroke="black" points="376.224,-276.118 383.153,-281.499 380.112,-277.059 384,-278 384,-278 384,-278 380.112,-277.059 384.847,-274.501 376.224,-276.118 376.224,-276.118"/>
<ellipse fill="none" stroke="black" cx="373.114" cy="-275.366" rx="3.2" ry="3.2"/>
</g>
</g>
</svg>
