<?xml version="1.0" encoding="UTF-8" standalone="no"?>
<!DOCTYPE svg PUBLIC "-//W3C//DTD SVG 1.1//EN"
 "http://www.w3.org/Graphics/SVG/1.1/DTD/svg11.dtd">
<!-- Generated by graphviz version 2.38.0 (20140413.2041)
 -->
<!-- Title: oneDegreeRelationshipsDiagram Pages: 1 -->
<svg width="592pt" height="450pt"
 viewBox="0.00 0.00 592.00 450.00" xmlns="http://www.w3.org/2000/svg" xmlns:xlink="http://www.w3.org/1999/xlink">
<g id="graph0" class="graph" transform="scale(1 1) rotate(0) translate(4 446)">
<title>oneDegreeRelationshipsDiagram</title>
<polygon fill="#ffffff" stroke="none" points="-4,4 -4,-446 588,-446 588,4 -4,4"/>
<text text-anchor="middle" x="74.5" y="-7.2" font-family="Helvetica,sans-Serif" font-size="11.00">Generated by SchemaSpy</text>
<!-- load_balancer_pool_member_pools -->
<g id="node1" class="node"><title>load_balancer_pool_member_pools</title>
<g id="a_node1"><a xlink:href="../../tables/load_balancer_pool_member_pools.html" xlink:title="load_balancer_pool_member_pools" target="_top">
<polygon fill="#ffffff" stroke="none" points="273,-279 273,-389 576,-389 576,-279 273,-279"/>
<polygon fill="#f5f5f5" stroke="none" points="275.5,-365 275.5,-387 574.5,-387 574.5,-365 275.5,-365"/>
<polygon fill="none" stroke="black" points="275.5,-365 275.5,-387 574.5,-387 574.5,-365 275.5,-365"/>
<text text-anchor="start" x="280.5" y="-374.2" font-family="Helvetica,sans-Serif" font-weight="bold" font-size="11.00">load_balancer_pool_member_pools</text>
<text text-anchor="start" x="535.5" y="-373.2" font-family="Helvetica,sans-Serif" font-size="11.00">[table]</text>
<polygon fill="none" stroke="black" points="275.5,-343 275.5,-365 503.5,-365 503.5,-343 275.5,-343"/>
<image xlink:href="../../images/primaryKeys.png" width="11px" height="12px" preserveAspectRatio="xMinYMin meet" x="280.5" y="-360"/>
<text text-anchor="start" x="295.5" y="-351.2" font-family="Helvetica,sans-Serif" font-size="11.00">id</text>
<polygon fill="none" stroke="black" points="503.5,-343 503.5,-365 574.5,-365 574.5,-343 503.5,-343"/>
<text text-anchor="start" x="506.5" y="-351.2" font-family="Helvetica,sans-Serif" font-size="11.00">bigserial[19]</text>
<polygon fill="#ffffff" stroke="none" points="275.5,-321 275.5,-343 503.5,-343 503.5,-321 275.5,-321"/>
<polygon fill="none" stroke="black" points="275.5,-321 275.5,-343 503.5,-343 503.5,-321 275.5,-321"/>
<image xlink:href="../../images/foreignKeys.png" width="11px" height="12px" preserveAspectRatio="xMinYMin meet" x="280.5" y="-338"/>
<text text-anchor="start" x="295.5" y="-329.2" font-family="Helvetica,sans-Serif" font-size="11.00">load_balancer_pool_id</text>
<polygon fill="none" stroke="black" points="503.5,-321 503.5,-343 574.5,-343 574.5,-321 503.5,-321"/>
<text text-anchor="start" x="506.5" y="-329.2" font-family="Helvetica,sans-Serif" font-size="11.00">int8[19]</text>
<polygon fill="#ffffff" stroke="none" points="275.5,-299 275.5,-321 503.5,-321 503.5,-299 275.5,-299"/>
<polygon fill="none" stroke="black" points="275.5,-299 275.5,-321 503.5,-321 503.5,-299 275.5,-299"/>
<image xlink:href="../../images/foreignKeys.png" width="11px" height="12px" preserveAspectRatio="xMinYMin meet" x="280.5" y="-316"/>
<text text-anchor="start" x="295.5" y="-307.2" font-family="Helvetica,sans-Serif" font-size="11.00">load_balancer_pool_member_id</text>
<polygon fill="none" stroke="black" points="503.5,-299 503.5,-321 574.5,-321 574.5,-299 503.5,-299"/>
<text text-anchor="start" x="506.5" y="-307.2" font-family="Helvetica,sans-Serif" font-size="11.00">int8[19]</text>
<polygon fill="#ffffff" stroke="none" points="275.5,-281 275.5,-299 394.5,-299 394.5,-281 275.5,-281"/>
<polygon fill="none" stroke="black" points="275.5,-281 275.5,-299 394.5,-299 394.5,-281 275.5,-281"/>
<text text-anchor="start" x="278.5" y="-287.2" font-family="Helvetica,sans-Serif" font-size="11.00">&lt; 2</text>
<polygon fill="#ffffff" stroke="none" points="394.5,-281 394.5,-299 503.5,-299 503.5,-281 394.5,-281"/>
<polygon fill="none" stroke="black" points="394.5,-281 394.5,-299 503.5,-299 503.5,-281 394.5,-281"/>
<text text-anchor="start" x="493.5" y="-287.2" font-family="Helvetica,sans-Serif" font-size="11.00"> &#160;</text>
<polygon fill="#ffffff" stroke="none" points="503.5,-281 503.5,-299 574.5,-299 574.5,-281 503.5,-281"/>
<polygon fill="none" stroke="black" points="503.5,-281 503.5,-299 574.5,-299 574.5,-281 503.5,-281"/>
<text text-anchor="start" x="554.5" y="-287.2" font-family="Helvetica,sans-Serif" font-size="11.00">0 &gt;</text>
<polygon fill="none" stroke="black" stroke-width="2" points="274,-280 274,-388 575,-388 575,-280 274,-280"/>
</a>
</g>
</g>
<!-- load_balancer_pools -->
<g id="node2" class="node"><title>load_balancer_pools</title>
<g id="a_node2"><a xlink:href="../../tables/load_balancer_pools.html" xlink:title="load_balancer_pools" target="_top">
<polygon fill="#ffffff" stroke="none" points="32,-292 32,-438 200,-438 200,-292 32,-292"/>
<polygon fill="#f5f5f5" stroke="none" points="32,-416 32,-438 200,-438 200,-416 32,-416"/>
<polygon fill="none" stroke="black" points="32,-416 32,-438 200,-438 200,-416 32,-416"/>
<text text-anchor="start" x="37" y="-425.2" font-family="Helvetica,sans-Serif" font-weight="bold" font-size="11.00">load_balancer_pools</text>
<text text-anchor="start" x="161" y="-424.2" font-family="Helvetica,sans-Serif" font-size="11.00">[table]</text>
<polygon fill="none" stroke="black" points="32,-394 32,-416 200,-416 200,-394 32,-394"/>
<image xlink:href="../../images/primaryKeys.png" width="11px" height="12px" preserveAspectRatio="xMinYMin meet" x="37" y="-411"/>
<text text-anchor="start" x="52" y="-402.2" font-family="Helvetica,sans-Serif" font-size="11.00">id</text>
<polygon fill="#ffffff" stroke="none" points="32,-372 32,-394 200,-394 200,-372 32,-372"/>
<polygon fill="none" stroke="black" points="32,-372 32,-394 200,-394 200,-372 32,-372"/>
<text text-anchor="start" x="52" y="-380.2" font-family="Helvetica,sans-Serif" font-size="11.00">ems_ref</text>
<polygon fill="#ffffff" stroke="none" points="32,-350 32,-372 200,-372 200,-350 32,-350"/>
<polygon fill="none" stroke="black" points="32,-350 32,-372 200,-372 200,-350 32,-350"/>
<text text-anchor="start" x="52" y="-358.2" font-family="Helvetica,sans-Serif" font-size="11.00">ems_id</text>
<polygon fill="#ffffff" stroke="none" points="32,-328 32,-350 200,-350 200,-328 32,-328"/>
<polygon fill="none" stroke="black" points="32,-328 32,-350 200,-350 200,-328 32,-328"/>
<image xlink:href="../../images/foreignKeys.png" width="11px" height="12px" preserveAspectRatio="xMinYMin meet" x="37" y="-345"/>
<text text-anchor="start" x="52" y="-336.2" font-family="Helvetica,sans-Serif" font-size="11.00">cloud_tenant_id</text>
<polygon fill="none" stroke="black" points="32,-310 32,-328 200,-328 200,-310 32,-310"/>
<text text-anchor="start" x="35" y="-316.2" font-family="Helvetica,sans-Serif" font-size="11.00">...</text>
<polygon fill="#ffffff" stroke="none" points="32,-292 32,-310 109,-310 109,-292 32,-292"/>
<polygon fill="none" stroke="black" points="32,-292 32,-310 109,-310 109,-292 32,-292"/>
<text text-anchor="start" x="35" y="-298.2" font-family="Helvetica,sans-Serif" font-size="11.00">&lt; 1</text>
<polygon fill="#ffffff" stroke="none" points="109,-292 109,-310 149,-310 149,-292 109,-292"/>
<polygon fill="none" stroke="black" points="109,-292 109,-310 149,-310 149,-292 109,-292"/>
<text text-anchor="start" x="139" y="-298.2" font-family="Helvetica,sans-Serif" font-size="11.00"> &#160;</text>
<polygon fill="#ffffff" stroke="none" points="149,-292 149,-310 200,-310 200,-292 149,-292"/>
<polygon fill="none" stroke="black" points="149,-292 149,-310 200,-310 200,-292 149,-292"/>
<text text-anchor="start" x="180" y="-298.2" font-family="Helvetica,sans-Serif" font-size="11.00">2 &gt;</text>
</a>
</g>
</g>
<!-- load_balancer_pool_member_pools&#45;&gt;load_balancer_pools -->
<g id="edge1" class="edge"><title>load_balancer_pool_member_pools:load_balancer_pool_id:w&#45;&gt;load_balancer_pools:id:e</title>
<path fill="none" stroke="black" d="M260.388,-334.952C232.012,-348.609 241.466,-405 201,-405"/>
<polygon fill="black" stroke="black" points="266.669,-333.638 275.237,-335.524 270.585,-332.819 274.5,-332 274.5,-332 274.5,-332 270.585,-332.819 273.763,-328.476 266.669,-333.638 266.669,-333.638"/>
<ellipse fill="none" stroke="black" cx="263.537" cy="-334.293" rx="3.2" ry="3.2"/>
</g>
<!-- load_balancer_pool_members -->
<g id="node3" class="node"><title>load_balancer_pool_members</title>
<g id="a_node3"><a xlink:href="../../tables/load_balancer_pool_members.html" xlink:title="load_balancer_pool_members" target="_top">
<polygon fill="#ffffff" stroke="none" points="8,-37 8,-271 224,-271 224,-37 8,-37"/>
<polygon fill="#f5f5f5" stroke="none" points="8,-249 8,-271 224,-271 224,-249 8,-249"/>
<polygon fill="none" stroke="black" points="8,-249 8,-271 224,-271 224,-249 8,-249"/>
<text text-anchor="start" x="13" y="-258.2" font-family="Helvetica,sans-Serif" font-weight="bold" font-size="11.00">load_balancer_pool_members</text>
<text text-anchor="start" x="185" y="-257.2" font-family="Helvetica,sans-Serif" font-size="11.00">[table]</text>
<polygon fill="none" stroke="black" points="8,-227 8,-249 224,-249 224,-227 8,-227"/>
<image xlink:href="../../images/primaryKeys.png" width="11px" height="12px" preserveAspectRatio="xMinYMin meet" x="13" y="-244"/>
<text text-anchor="start" x="38" y="-235.2" font-family="Helvetica,sans-Serif" font-size="11.00">id</text>
<polygon fill="#ffffff" stroke="none" points="8,-205 8,-227 224,-227 224,-205 8,-205"/>
<polygon fill="none" stroke="black" points="8,-205 8,-227 224,-227 224,-205 8,-205"/>
<text text-anchor="start" x="38" y="-213.2" font-family="Helvetica,sans-Serif" font-size="11.00">ems_ref</text>
<polygon fill="#ffffff" stroke="none" points="8,-183 8,-205 224,-205 224,-183 8,-183"/>
<polygon fill="none" stroke="black" points="8,-183 8,-205 224,-205 224,-183 8,-183"/>
<image xlink:href="../../images/foreignKeys.png" width="11px" height="12px" preserveAspectRatio="xMinYMin meet" x="13" y="-200"/>
<text text-anchor="start" x="38" y="-191.2" font-family="Helvetica,sans-Serif" font-size="11.00">cloud_tenant_id</text>
<polygon fill="#ffffff" stroke="none" points="8,-161 8,-183 224,-183 224,-161 8,-161"/>
<polygon fill="none" stroke="black" points="8,-161 8,-183 224,-183 224,-161 8,-161"/>
<image xlink:href="../../images/foreignKeys.png" width="11px" height="12px" preserveAspectRatio="xMinYMin meet" x="13" y="-178"/>
<text text-anchor="start" x="38" y="-169.2" font-family="Helvetica,sans-Serif" font-size="11.00">cloud_subnet_id</text>
<polygon fill="#ffffff" stroke="none" points="8,-139 8,-161 224,-161 224,-139 8,-139"/>
<polygon fill="none" stroke="black" points="8,-139 8,-161 224,-161 224,-139 8,-139"/>
<image xlink:href="../../images/foreignKeys.png" width="11px" height="12px" preserveAspectRatio="xMinYMin meet" x="13" y="-156"/>
<text text-anchor="start" x="38" y="-147.2" font-family="Helvetica,sans-Serif" font-size="11.00">network_port_id</text>
<polygon fill="#ffffff" stroke="none" points="8,-117 8,-139 224,-139 224,-117 8,-117"/>
<polygon fill="none" stroke="black" points="8,-117 8,-139 224,-139 224,-117 8,-117"/>
<image xlink:href="../../images/foreignKeys.png" width="11px" height="12px" preserveAspectRatio="xMinYMin meet" x="13" y="-134"/>
<text text-anchor="start" x="38" y="-125.2" font-family="Helvetica,sans-Serif" font-size="11.00">resource_group_id</text>
<polygon fill="#ffffff" stroke="none" points="8,-95 8,-117 224,-117 224,-95 8,-95"/>
<polygon fill="none" stroke="black" points="8,-95 8,-117 224,-117 224,-95 8,-95"/>
<image xlink:href="../../images/foreignKeys.png" width="11px" height="12px" preserveAspectRatio="xMinYMin meet" x="13" y="-112"/>
<text text-anchor="start" x="38" y="-103.2" font-family="Helvetica,sans-Serif" font-size="11.00">vm_id</text>
<polygon fill="#ffffff" stroke="none" points="8,-73 8,-95 224,-95 224,-73 8,-73"/>
<polygon fill="none" stroke="black" points="8,-73 8,-95 224,-95 224,-73 8,-73"/>
<text text-anchor="start" x="38" y="-81.2" font-family="Helvetica,sans-Serif" font-size="11.00">ems_id</text>
<polygon fill="none" stroke="black" points="8,-55 8,-73 224,-73 224,-55 8,-55"/>
<text text-anchor="start" x="11" y="-61.2" font-family="Helvetica,sans-Serif" font-size="11.00">...</text>
<polygon fill="#ffffff" stroke="none" points="8,-37 8,-55 109,-55 109,-37 8,-37"/>
<polygon fill="none" stroke="black" points="8,-37 8,-55 109,-55 109,-37 8,-37"/>
<text text-anchor="start" x="11" y="-43.2" font-family="Helvetica,sans-Serif" font-size="11.00">&lt; 5</text>
<polygon fill="#ffffff" stroke="none" points="109,-37 109,-55 161,-55 161,-37 109,-37"/>
<polygon fill="none" stroke="black" points="109,-37 109,-55 161,-55 161,-37 109,-37"/>
<text text-anchor="start" x="151" y="-43.2" font-family="Helvetica,sans-Serif" font-size="11.00"> &#160;</text>
<polygon fill="#ffffff" stroke="none" points="161,-37 161,-55 224,-55 224,-37 161,-37"/>
<polygon fill="none" stroke="black" points="161,-37 161,-55 224,-55 224,-37 161,-37"/>
<text text-anchor="start" x="204" y="-43.2" font-family="Helvetica,sans-Serif" font-size="11.00">2 &gt;</text>
</a>
</g>
</g>
<!-- load_balancer_pool_member_pools&#45;&gt;load_balancer_pool_members -->
<g id="edge2" class="edge"><title>load_balancer_pool_member_pools:load_balancer_pool_member_id:w&#45;&gt;load_balancer_pool_members:id:e</title>
<path fill="none" stroke="black" d="M260.693,-305.276C242.833,-289.258 257.765,-238 225,-238"/>
<polygon fill="black" stroke="black" points="266.931,-307.41 273.335,-313.406 270.715,-308.705 274.5,-310 274.5,-310 274.5,-310 270.715,-308.705 275.665,-306.594 266.931,-307.41 266.931,-307.41"/>
<ellipse fill="none" stroke="black" cx="263.903" cy="-306.374" rx="3.20001" ry="3.20001"/>
</g>
</g>
</svg>
