<?xml version="1.0" encoding="UTF-8" standalone="no"?>
<!DOCTYPE svg PUBLIC "-//W3C//DTD SVG 1.1//EN"
 "http://www.w3.org/Graphics/SVG/1.1/DTD/svg11.dtd">
<!-- Generated by graphviz version 2.38.0 (20140413.2041)
 -->
<!-- Title: oneDegreeRelationshipsDiagram Pages: 1 -->
<svg width="1358pt" height="1121pt"
 viewBox="0.00 0.00 1358.00 1121.00" xmlns="http://www.w3.org/2000/svg" xmlns:xlink="http://www.w3.org/1999/xlink">
<g id="graph0" class="graph" transform="scale(1 1) rotate(0) translate(4 1117)">
<title>oneDegreeRelationshipsDiagram</title>
<polygon fill="#ffffff" stroke="none" points="-4,4 -4,-1117 1354,-1117 1354,4 -4,4"/>
<text text-anchor="middle" x="74.5" y="-7.2" font-family="Helvetica,sans-Serif" font-size="11.00">Generated by SchemaSpy</text>
<!-- cloud_subnets -->
<g id="node1" class="node"><title>cloud_subnets</title>
<g id="a_node1"><a xlink:href="../../tables/cloud_subnets.html" xlink:title="cloud_subnets" target="_top">
<polygon fill="#ffffff" stroke="none" points="186,-521 186,-777 407,-777 407,-521 186,-521"/>
<polygon fill="#f5f5f5" stroke="none" points="186.5,-755 186.5,-777 407.5,-777 407.5,-755 186.5,-755"/>
<polygon fill="none" stroke="black" points="186.5,-755 186.5,-777 407.5,-777 407.5,-755 186.5,-755"/>
<text text-anchor="start" x="191.5" y="-764.2" font-family="Helvetica,sans-Serif" font-weight="bold" font-size="11.00">cloud_subnets</text>
<text text-anchor="start" x="368.5" y="-763.2" font-family="Helvetica,sans-Serif" font-size="11.00">[table]</text>
<polygon fill="none" stroke="black" points="186.5,-733 186.5,-755 407.5,-755 407.5,-733 186.5,-733"/>
<image xlink:href="../../images/primaryKeys.png" width="11px" height="12px" preserveAspectRatio="xMinYMin meet" x="191.5" y="-750"/>
<text text-anchor="start" x="206.5" y="-741.2" font-family="Helvetica,sans-Serif" font-size="11.00">id</text>
<polygon fill="#ffffff" stroke="none" points="186.5,-711 186.5,-733 407.5,-733 407.5,-711 186.5,-711"/>
<polygon fill="none" stroke="black" points="186.5,-711 186.5,-733 407.5,-733 407.5,-711 186.5,-711"/>
<text text-anchor="start" x="206.5" y="-719.2" font-family="Helvetica,sans-Serif" font-size="11.00">ems_id</text>
<polygon fill="none" stroke="black" points="186.5,-689 186.5,-711 407.5,-711 407.5,-689 186.5,-689"/>
<image xlink:href="../../images/foreignKeys.png" width="11px" height="12px" preserveAspectRatio="xMinYMin meet" x="191.5" y="-706"/>
<text text-anchor="start" x="206.5" y="-697.2" font-family="Helvetica,sans-Serif" font-size="11.00">availability_zone_id</text>
<polygon fill="#ffffff" stroke="none" points="186.5,-667 186.5,-689 407.5,-689 407.5,-667 186.5,-667"/>
<polygon fill="none" stroke="black" points="186.5,-667 186.5,-689 407.5,-689 407.5,-667 186.5,-667"/>
<image xlink:href="../../images/foreignKeys.png" width="11px" height="12px" preserveAspectRatio="xMinYMin meet" x="191.5" y="-684"/>
<text text-anchor="start" x="206.5" y="-675.2" font-family="Helvetica,sans-Serif" font-size="11.00">cloud_network_id</text>
<polygon fill="#ffffff" stroke="none" points="186.5,-645 186.5,-667 407.5,-667 407.5,-645 186.5,-645"/>
<polygon fill="none" stroke="black" points="186.5,-645 186.5,-667 407.5,-667 407.5,-645 186.5,-645"/>
<image xlink:href="../../images/foreignKeys.png" width="11px" height="12px" preserveAspectRatio="xMinYMin meet" x="191.5" y="-662"/>
<text text-anchor="start" x="206.5" y="-653.2" font-family="Helvetica,sans-Serif" font-size="11.00">cloud_tenant_id</text>
<polygon fill="#ffffff" stroke="none" points="186.5,-623 186.5,-645 407.5,-645 407.5,-623 186.5,-623"/>
<polygon fill="none" stroke="black" points="186.5,-623 186.5,-645 407.5,-645 407.5,-623 186.5,-623"/>
<text text-anchor="start" x="206.5" y="-631.2" font-family="Helvetica,sans-Serif" font-size="11.00">type</text>
<polygon fill="none" stroke="black" points="186.5,-601 186.5,-623 407.5,-623 407.5,-601 186.5,-601"/>
<image xlink:href="../../images/foreignKeys.png" width="11px" height="12px" preserveAspectRatio="xMinYMin meet" x="191.5" y="-618"/>
<text text-anchor="start" x="206.5" y="-609.2" font-family="Helvetica,sans-Serif" font-size="11.00">network_router_id</text>
<polygon fill="#ffffff" stroke="none" points="186.5,-579 186.5,-601 407.5,-601 407.5,-579 186.5,-579"/>
<polygon fill="none" stroke="black" points="186.5,-579 186.5,-601 407.5,-601 407.5,-579 186.5,-579"/>
<image xlink:href="../../images/foreignKeys.png" width="11px" height="12px" preserveAspectRatio="xMinYMin meet" x="191.5" y="-596"/>
<text text-anchor="start" x="206.5" y="-587.2" font-family="Helvetica,sans-Serif" font-size="11.00">network_group_id</text>
<polygon fill="#ffffff" stroke="none" points="186.5,-557 186.5,-579 407.5,-579 407.5,-557 186.5,-557"/>
<polygon fill="none" stroke="black" points="186.5,-557 186.5,-579 407.5,-579 407.5,-557 186.5,-557"/>
<text text-anchor="start" x="206.5" y="-565.2" font-family="Helvetica,sans-Serif" font-size="11.00">parent_cloud_subnet_id</text>
<polygon fill="none" stroke="black" points="186.5,-539 186.5,-557 407.5,-557 407.5,-539 186.5,-539"/>
<text text-anchor="start" x="189.5" y="-545.2" font-family="Helvetica,sans-Serif" font-size="11.00">...</text>
<polygon fill="#ffffff" stroke="none" points="186.5,-521 186.5,-539 290.5,-539 290.5,-521 186.5,-521"/>
<polygon fill="none" stroke="black" points="186.5,-521 186.5,-539 290.5,-539 290.5,-521 186.5,-521"/>
<text text-anchor="start" x="189.5" y="-527.2" font-family="Helvetica,sans-Serif" font-size="11.00">&lt; 5</text>
<polygon fill="#ffffff" stroke="none" points="290.5,-521 290.5,-539 343.5,-539 343.5,-521 290.5,-521"/>
<polygon fill="none" stroke="black" points="290.5,-521 290.5,-539 343.5,-539 343.5,-521 290.5,-521"/>
<text text-anchor="start" x="333.5" y="-527.2" font-family="Helvetica,sans-Serif" font-size="11.00"> &#160;</text>
<polygon fill="#ffffff" stroke="none" points="343.5,-521 343.5,-539 407.5,-539 407.5,-521 343.5,-521"/>
<polygon fill="none" stroke="black" points="343.5,-521 343.5,-539 407.5,-539 407.5,-521 343.5,-521"/>
<text text-anchor="start" x="387.5" y="-527.2" font-family="Helvetica,sans-Serif" font-size="11.00">4 &gt;</text>
</a>
</g>
</g>
<!-- cloud_tenants -->
<g id="node2" class="node"><title>cloud_tenants</title>
<g id="a_node2"><a xlink:href="../../tables/cloud_tenants.html" xlink:title="cloud_tenants" target="_top">
<polygon fill="#ffffff" stroke="none" points="8,-659 8,-761 137,-761 137,-659 8,-659"/>
<polygon fill="#f5f5f5" stroke="none" points="8.5,-739 8.5,-761 137.5,-761 137.5,-739 8.5,-739"/>
<polygon fill="none" stroke="black" points="8.5,-739 8.5,-761 137.5,-761 137.5,-739 8.5,-739"/>
<text text-anchor="start" x="13.5" y="-748.2" font-family="Helvetica,sans-Serif" font-weight="bold" font-size="11.00">cloud_tenants</text>
<text text-anchor="start" x="98.5" y="-747.2" font-family="Helvetica,sans-Serif" font-size="11.00">[table]</text>
<polygon fill="none" stroke="black" points="8.5,-717 8.5,-739 137.5,-739 137.5,-717 8.5,-717"/>
<image xlink:href="../../images/primaryKeys.png" width="11px" height="12px" preserveAspectRatio="xMinYMin meet" x="13.5" y="-734"/>
<text text-anchor="start" x="40.5" y="-725.2" font-family="Helvetica,sans-Serif" font-size="11.00">id</text>
<polygon fill="#ffffff" stroke="none" points="8.5,-695 8.5,-717 137.5,-717 137.5,-695 8.5,-695"/>
<polygon fill="none" stroke="black" points="8.5,-695 8.5,-717 137.5,-717 137.5,-695 8.5,-695"/>
<text text-anchor="start" x="40.5" y="-703.2" font-family="Helvetica,sans-Serif" font-size="11.00">type</text>
<polygon fill="none" stroke="black" points="8.5,-677 8.5,-695 137.5,-695 137.5,-677 8.5,-677"/>
<text text-anchor="start" x="11.5" y="-683.2" font-family="Helvetica,sans-Serif" font-size="11.00">...</text>
<polygon fill="#ffffff" stroke="none" points="8.5,-659 8.5,-677 57.5,-677 57.5,-659 8.5,-659"/>
<polygon fill="none" stroke="black" points="8.5,-659 8.5,-677 57.5,-677 57.5,-659 8.5,-659"/>
<text text-anchor="start" x="11.5" y="-665.2" font-family="Helvetica,sans-Serif" font-size="11.00"> &#160;</text>
<polygon fill="#ffffff" stroke="none" points="57.5,-659 57.5,-677 88.5,-677 88.5,-659 57.5,-659"/>
<polygon fill="none" stroke="black" points="57.5,-659 57.5,-677 88.5,-677 88.5,-659 57.5,-659"/>
<text text-anchor="start" x="78.5" y="-665.2" font-family="Helvetica,sans-Serif" font-size="11.00"> &#160;</text>
<polygon fill="#ffffff" stroke="none" points="88.5,-659 88.5,-677 137.5,-677 137.5,-659 88.5,-659"/>
<polygon fill="none" stroke="black" points="88.5,-659 88.5,-677 137.5,-677 137.5,-659 88.5,-659"/>
<text text-anchor="start" x="110.5" y="-665.2" font-family="Helvetica,sans-Serif" font-size="11.00">25 &gt;</text>
</a>
</g>
</g>
<!-- cloud_subnets&#45;&gt;cloud_tenants -->
<g id="edge1" class="edge"><title>cloud_subnets:cloud_tenant_id:w&#45;&gt;cloud_tenants:id:e</title>
<path fill="none" stroke="black" d="M171.556,-661.178C155.121,-677.687 170.445,-728 138.5,-728"/>
<polygon fill="black" stroke="black" points="178,-658.785 186.753,-659.375 181.75,-657.393 185.5,-656 185.5,-656 185.5,-656 181.75,-657.393 184.247,-652.625 178,-658.785 178,-658.785"/>
<ellipse fill="none" stroke="black" cx="175.001" cy="-659.899" rx="3.20001" ry="3.20001"/>
</g>
<!-- load_balancer_health_check_members -->
<g id="node3" class="node"><title>load_balancer_health_check_members</title>
<g id="a_node3"><a xlink:href="../../tables/load_balancer_health_check_members.html" xlink:title="load_balancer_health_check_members" target="_top">
<polygon fill="#ffffff" stroke="none" points="1076,-985 1076,-1109 1342,-1109 1342,-985 1076,-985"/>
<polygon fill="#f5f5f5" stroke="none" points="1076,-1087 1076,-1109 1342,-1109 1342,-1087 1076,-1087"/>
<polygon fill="none" stroke="black" points="1076,-1087 1076,-1109 1342,-1109 1342,-1087 1076,-1087"/>
<text text-anchor="start" x="1081" y="-1096.2" font-family="Helvetica,sans-Serif" font-weight="bold" font-size="11.00">load_balancer_health_check_members</text>
<text text-anchor="start" x="1303" y="-1095.2" font-family="Helvetica,sans-Serif" font-size="11.00">[table]</text>
<polygon fill="none" stroke="black" points="1076,-1065 1076,-1087 1342,-1087 1342,-1065 1076,-1065"/>
<image xlink:href="../../images/primaryKeys.png" width="11px" height="12px" preserveAspectRatio="xMinYMin meet" x="1081" y="-1082"/>
<text text-anchor="start" x="1105" y="-1073.2" font-family="Helvetica,sans-Serif" font-size="11.00">id</text>
<polygon fill="#ffffff" stroke="none" points="1076,-1043 1076,-1065 1342,-1065 1342,-1043 1076,-1043"/>
<polygon fill="none" stroke="black" points="1076,-1043 1076,-1065 1342,-1065 1342,-1043 1076,-1043"/>
<image xlink:href="../../images/foreignKeys.png" width="11px" height="12px" preserveAspectRatio="xMinYMin meet" x="1081" y="-1060"/>
<text text-anchor="start" x="1105" y="-1051.2" font-family="Helvetica,sans-Serif" font-size="11.00">load_balancer_health_check_id</text>
<polygon fill="#ffffff" stroke="none" points="1076,-1021 1076,-1043 1342,-1043 1342,-1021 1076,-1021"/>
<polygon fill="none" stroke="black" points="1076,-1021 1076,-1043 1342,-1043 1342,-1021 1076,-1021"/>
<image xlink:href="../../images/foreignKeys.png" width="11px" height="12px" preserveAspectRatio="xMinYMin meet" x="1081" y="-1038"/>
<text text-anchor="start" x="1105" y="-1029.2" font-family="Helvetica,sans-Serif" font-size="11.00">load_balancer_pool_member_id</text>
<polygon fill="none" stroke="black" points="1076,-1003 1076,-1021 1342,-1021 1342,-1003 1076,-1003"/>
<text text-anchor="start" x="1079" y="-1009.2" font-family="Helvetica,sans-Serif" font-size="11.00">...</text>
<polygon fill="#ffffff" stroke="none" points="1076,-985 1076,-1003 1207,-1003 1207,-985 1076,-985"/>
<polygon fill="none" stroke="black" points="1076,-985 1076,-1003 1207,-1003 1207,-985 1076,-985"/>
<text text-anchor="start" x="1079" y="-991.2" font-family="Helvetica,sans-Serif" font-size="11.00">&lt; 2</text>
<polygon fill="#ffffff" stroke="none" points="1207,-985 1207,-1003 1274,-1003 1274,-985 1207,-985"/>
<polygon fill="none" stroke="black" points="1207,-985 1207,-1003 1274,-1003 1274,-985 1207,-985"/>
<text text-anchor="start" x="1264" y="-991.2" font-family="Helvetica,sans-Serif" font-size="11.00"> &#160;</text>
<polygon fill="#ffffff" stroke="none" points="1274,-985 1274,-1003 1342,-1003 1342,-985 1274,-985"/>
<polygon fill="none" stroke="black" points="1274,-985 1274,-1003 1342,-1003 1342,-985 1274,-985"/>
<text text-anchor="start" x="1332" y="-991.2" font-family="Helvetica,sans-Serif" font-size="11.00"> &#160;</text>
</a>
</g>
</g>
<!-- load_balancer_pool_members -->
<g id="node4" class="node"><title>load_balancer_pool_members</title>
<g id="a_node4"><a xlink:href="../../tables/load_balancer_pool_members.html" xlink:title="load_balancer_pool_members" target="_top">
<polygon fill="#ffffff" stroke="none" points="706,-665 706,-995 1027,-995 1027,-665 706,-665"/>
<polygon fill="#f5f5f5" stroke="none" points="708.5,-971 708.5,-993 1025.5,-993 1025.5,-971 708.5,-971"/>
<polygon fill="none" stroke="black" points="708.5,-971 708.5,-993 1025.5,-993 1025.5,-971 708.5,-971"/>
<text text-anchor="start" x="713.5" y="-980.2" font-family="Helvetica,sans-Serif" font-weight="bold" font-size="11.00">load_balancer_pool_members</text>
<text text-anchor="start" x="986.5" y="-979.2" font-family="Helvetica,sans-Serif" font-size="11.00">[table]</text>
<polygon fill="none" stroke="black" points="708.5,-949 708.5,-971 904.5,-971 904.5,-949 708.5,-949"/>
<image xlink:href="../../images/primaryKeys.png" width="11px" height="12px" preserveAspectRatio="xMinYMin meet" x="713.5" y="-966"/>
<text text-anchor="start" x="728.5" y="-957.2" font-family="Helvetica,sans-Serif" font-size="11.00">id</text>
<polygon fill="none" stroke="black" points="904.5,-949 904.5,-971 1025.5,-971 1025.5,-949 904.5,-949"/>
<text text-anchor="start" x="907.5" y="-957.2" font-family="Helvetica,sans-Serif" font-size="11.00">bigserial[19]</text>
<polygon fill="#ffffff" stroke="none" points="708.5,-927 708.5,-949 904.5,-949 904.5,-927 708.5,-927"/>
<polygon fill="none" stroke="black" points="708.5,-927 708.5,-949 904.5,-949 904.5,-927 708.5,-927"/>
<text text-anchor="start" x="728.5" y="-935.2" font-family="Helvetica,sans-Serif" font-size="11.00">ems_ref</text>
<polygon fill="none" stroke="black" points="904.5,-927 904.5,-949 1025.5,-949 1025.5,-927 904.5,-927"/>
<text text-anchor="start" x="907.5" y="-935.2" font-family="Helvetica,sans-Serif" font-size="11.00">varchar[2147483647]</text>
<polygon fill="none" stroke="black" points="708.5,-905 708.5,-927 904.5,-927 904.5,-905 708.5,-905"/>
<text text-anchor="start" x="728.5" y="-913.2" font-family="Helvetica,sans-Serif" font-size="11.00">address</text>
<polygon fill="none" stroke="black" points="904.5,-905 904.5,-927 1025.5,-927 1025.5,-905 904.5,-905"/>
<text text-anchor="start" x="907.5" y="-913.2" font-family="Helvetica,sans-Serif" font-size="11.00">varchar[2147483647]</text>
<polygon fill="none" stroke="black" points="708.5,-883 708.5,-905 904.5,-905 904.5,-883 708.5,-883"/>
<text text-anchor="start" x="728.5" y="-891.2" font-family="Helvetica,sans-Serif" font-size="11.00">port</text>
<polygon fill="none" stroke="black" points="904.5,-883 904.5,-905 1025.5,-905 1025.5,-883 904.5,-883"/>
<text text-anchor="start" x="907.5" y="-891.2" font-family="Helvetica,sans-Serif" font-size="11.00">int4[10]</text>
<polygon fill="#ffffff" stroke="none" points="708.5,-861 708.5,-883 904.5,-883 904.5,-861 708.5,-861"/>
<polygon fill="none" stroke="black" points="708.5,-861 708.5,-883 904.5,-883 904.5,-861 708.5,-861"/>
<image xlink:href="../../images/foreignKeys.png" width="11px" height="12px" preserveAspectRatio="xMinYMin meet" x="713.5" y="-878"/>
<text text-anchor="start" x="728.5" y="-869.2" font-family="Helvetica,sans-Serif" font-size="11.00">cloud_tenant_id</text>
<polygon fill="none" stroke="black" points="904.5,-861 904.5,-883 1025.5,-883 1025.5,-861 904.5,-861"/>
<text text-anchor="start" x="907.5" y="-869.2" font-family="Helvetica,sans-Serif" font-size="11.00">int8[19]</text>
<polygon fill="#ffffff" stroke="none" points="708.5,-839 708.5,-861 904.5,-861 904.5,-839 708.5,-839"/>
<polygon fill="none" stroke="black" points="708.5,-839 708.5,-861 904.5,-861 904.5,-839 708.5,-839"/>
<image xlink:href="../../images/foreignKeys.png" width="11px" height="12px" preserveAspectRatio="xMinYMin meet" x="713.5" y="-856"/>
<text text-anchor="start" x="728.5" y="-847.2" font-family="Helvetica,sans-Serif" font-size="11.00">cloud_subnet_id</text>
<polygon fill="none" stroke="black" points="904.5,-839 904.5,-861 1025.5,-861 1025.5,-839 904.5,-839"/>
<text text-anchor="start" x="907.5" y="-847.2" font-family="Helvetica,sans-Serif" font-size="11.00">int8[19]</text>
<polygon fill="#ffffff" stroke="none" points="708.5,-817 708.5,-839 904.5,-839 904.5,-817 708.5,-817"/>
<polygon fill="none" stroke="black" points="708.5,-817 708.5,-839 904.5,-839 904.5,-817 708.5,-817"/>
<image xlink:href="../../images/foreignKeys.png" width="11px" height="12px" preserveAspectRatio="xMinYMin meet" x="713.5" y="-834"/>
<text text-anchor="start" x="728.5" y="-825.2" font-family="Helvetica,sans-Serif" font-size="11.00">network_port_id</text>
<polygon fill="none" stroke="black" points="904.5,-817 904.5,-839 1025.5,-839 1025.5,-817 904.5,-817"/>
<text text-anchor="start" x="907.5" y="-825.2" font-family="Helvetica,sans-Serif" font-size="11.00">int8[19]</text>
<polygon fill="#ffffff" stroke="none" points="708.5,-795 708.5,-817 904.5,-817 904.5,-795 708.5,-795"/>
<polygon fill="none" stroke="black" points="708.5,-795 708.5,-817 904.5,-817 904.5,-795 708.5,-795"/>
<image xlink:href="../../images/foreignKeys.png" width="11px" height="12px" preserveAspectRatio="xMinYMin meet" x="713.5" y="-812"/>
<text text-anchor="start" x="728.5" y="-803.2" font-family="Helvetica,sans-Serif" font-size="11.00">resource_group_id</text>
<polygon fill="none" stroke="black" points="904.5,-795 904.5,-817 1025.5,-817 1025.5,-795 904.5,-795"/>
<text text-anchor="start" x="907.5" y="-803.2" font-family="Helvetica,sans-Serif" font-size="11.00">int8[19]</text>
<polygon fill="none" stroke="black" points="708.5,-773 708.5,-795 904.5,-795 904.5,-773 708.5,-773"/>
<text text-anchor="start" x="728.5" y="-781.2" font-family="Helvetica,sans-Serif" font-size="11.00">created_at</text>
<polygon fill="none" stroke="black" points="904.5,-773 904.5,-795 1025.5,-795 1025.5,-773 904.5,-773"/>
<text text-anchor="start" x="907.5" y="-781.2" font-family="Helvetica,sans-Serif" font-size="11.00">timestamp[29,6]</text>
<polygon fill="none" stroke="black" points="708.5,-751 708.5,-773 904.5,-773 904.5,-751 708.5,-751"/>
<text text-anchor="start" x="728.5" y="-759.2" font-family="Helvetica,sans-Serif" font-size="11.00">updated_at</text>
<polygon fill="none" stroke="black" points="904.5,-751 904.5,-773 1025.5,-773 1025.5,-751 904.5,-751"/>
<text text-anchor="start" x="907.5" y="-759.2" font-family="Helvetica,sans-Serif" font-size="11.00">timestamp[29,6]</text>
<polygon fill="#ffffff" stroke="none" points="708.5,-729 708.5,-751 904.5,-751 904.5,-729 708.5,-729"/>
<polygon fill="none" stroke="black" points="708.5,-729 708.5,-751 904.5,-751 904.5,-729 708.5,-729"/>
<image xlink:href="../../images/foreignKeys.png" width="11px" height="12px" preserveAspectRatio="xMinYMin meet" x="713.5" y="-746"/>
<text text-anchor="start" x="728.5" y="-737.2" font-family="Helvetica,sans-Serif" font-size="11.00">vm_id</text>
<polygon fill="none" stroke="black" points="904.5,-729 904.5,-751 1025.5,-751 1025.5,-729 904.5,-729"/>
<text text-anchor="start" x="907.5" y="-737.2" font-family="Helvetica,sans-Serif" font-size="11.00">int8[19]</text>
<polygon fill="none" stroke="black" points="708.5,-707 708.5,-729 904.5,-729 904.5,-707 708.5,-707"/>
<text text-anchor="start" x="728.5" y="-715.2" font-family="Helvetica,sans-Serif" font-size="11.00">type</text>
<polygon fill="none" stroke="black" points="904.5,-707 904.5,-729 1025.5,-729 1025.5,-707 904.5,-707"/>
<text text-anchor="start" x="907.5" y="-715.2" font-family="Helvetica,sans-Serif" font-size="11.00">varchar[2147483647]</text>
<polygon fill="#ffffff" stroke="none" points="708.5,-685 708.5,-707 904.5,-707 904.5,-685 708.5,-685"/>
<polygon fill="none" stroke="black" points="708.5,-685 708.5,-707 904.5,-707 904.5,-685 708.5,-685"/>
<text text-anchor="start" x="728.5" y="-693.2" font-family="Helvetica,sans-Serif" font-size="11.00">ems_id</text>
<polygon fill="none" stroke="black" points="904.5,-685 904.5,-707 1025.5,-707 1025.5,-685 904.5,-685"/>
<text text-anchor="start" x="907.5" y="-693.2" font-family="Helvetica,sans-Serif" font-size="11.00">int8[19]</text>
<polygon fill="#ffffff" stroke="none" points="708.5,-667 708.5,-685 811.5,-685 811.5,-667 708.5,-667"/>
<polygon fill="none" stroke="black" points="708.5,-667 708.5,-685 811.5,-685 811.5,-667 708.5,-667"/>
<text text-anchor="start" x="711.5" y="-673.2" font-family="Helvetica,sans-Serif" font-size="11.00">&lt; 5</text>
<polygon fill="#ffffff" stroke="none" points="811.5,-667 811.5,-685 904.5,-685 904.5,-667 811.5,-667"/>
<polygon fill="none" stroke="black" points="811.5,-667 811.5,-685 904.5,-685 904.5,-667 811.5,-667"/>
<text text-anchor="start" x="894.5" y="-673.2" font-family="Helvetica,sans-Serif" font-size="11.00"> &#160;</text>
<polygon fill="#ffffff" stroke="none" points="904.5,-667 904.5,-685 1025.5,-685 1025.5,-667 904.5,-667"/>
<polygon fill="none" stroke="black" points="904.5,-667 904.5,-685 1025.5,-685 1025.5,-667 904.5,-667"/>
<text text-anchor="start" x="1005.5" y="-673.2" font-family="Helvetica,sans-Serif" font-size="11.00">2 &gt;</text>
<polygon fill="none" stroke="black" stroke-width="2" points="707,-666 707,-994 1026,-994 1026,-666 707,-666"/>
</a>
</g>
</g>
<!-- load_balancer_health_check_members&#45;&gt;load_balancer_pool_members -->
<g id="edge2" class="edge"><title>load_balancer_health_check_members:load_balancer_pool_member_id:w&#45;&gt;load_balancer_pool_members:id.type:e</title>
<path fill="none" stroke="black" d="M1061.33,-1027.28C1043.73,-1011.26 1059.05,-960 1026.5,-960"/>
<polygon fill="black" stroke="black" points="1067.44,-1029.39 1073.82,-1035.4 1071.22,-1030.69 1075,-1032 1075,-1032 1075,-1032 1071.22,-1030.69 1076.18,-1028.6 1067.44,-1029.39 1067.44,-1029.39"/>
<ellipse fill="none" stroke="black" cx="1064.41" cy="-1028.34" rx="3.20001" ry="3.20001"/>
</g>
<!-- load_balancer_pool_members&#45;&gt;cloud_subnets -->
<g id="edge4" class="edge"><title>load_balancer_pool_members:cloud_subnet_id:w&#45;&gt;cloud_subnets:id:e</title>
<path fill="none" stroke="black" d="M693.321,-853.396C684.265,-858.416 679.586,-867.593 665,-871 618.042,-881.968 486.833,-899.59 448,-871 400.398,-835.954 467.612,-744 408.5,-744"/>
<polygon fill="black" stroke="black" points="699.72,-851.863 708.338,-853.501 703.61,-850.932 707.5,-850 707.5,-850 707.5,-850 703.61,-850.932 706.662,-846.499 699.72,-851.863 699.72,-851.863"/>
<ellipse fill="none" stroke="black" cx="696.608" cy="-852.609" rx="3.2" ry="3.2"/>
</g>
<!-- load_balancer_pool_members&#45;&gt;cloud_tenants -->
<g id="edge5" class="edge"><title>load_balancer_pool_members:cloud_tenant_id:w&#45;&gt;cloud_tenants:id:e</title>
<path fill="none" stroke="black" d="M693.243,-874.89C684.294,-878.989 679.046,-886.295 665,-889 570.296,-907.238 543.627,-901.531 448,-889 324.859,-872.863 272.438,-897.656 178,-817 145.092,-788.895 181.776,-728 138.5,-728"/>
<polygon fill="black" stroke="black" points="699.659,-873.589 708.215,-875.528 703.58,-872.795 707.5,-872 707.5,-872 707.5,-872 703.58,-872.795 706.785,-868.472 699.659,-873.589 699.659,-873.589"/>
<ellipse fill="none" stroke="black" cx="696.523" cy="-874.225" rx="3.2" ry="3.2"/>
</g>
<!-- network_ports -->
<g id="node6" class="node"><title>network_ports</title>
<g id="a_node6"><a xlink:href="../../tables/network_ports.html" xlink:title="network_ports" target="_top">
<polygon fill="#ffffff" stroke="none" points="456,-649 456,-861 657,-861 657,-649 456,-649"/>
<polygon fill="#f5f5f5" stroke="none" points="456.5,-839 456.5,-861 657.5,-861 657.5,-839 456.5,-839"/>
<polygon fill="none" stroke="black" points="456.5,-839 456.5,-861 657.5,-861 657.5,-839 456.5,-839"/>
<text text-anchor="start" x="461.5" y="-848.2" font-family="Helvetica,sans-Serif" font-weight="bold" font-size="11.00">network_ports</text>
<text text-anchor="start" x="618.5" y="-847.2" font-family="Helvetica,sans-Serif" font-size="11.00">[table]</text>
<polygon fill="none" stroke="black" points="456.5,-817 456.5,-839 657.5,-839 657.5,-817 456.5,-817"/>
<image xlink:href="../../images/primaryKeys.png" width="11px" height="12px" preserveAspectRatio="xMinYMin meet" x="461.5" y="-834"/>
<text text-anchor="start" x="476.5" y="-825.2" font-family="Helvetica,sans-Serif" font-size="11.00">id</text>
<polygon fill="#ffffff" stroke="none" points="456.5,-795 456.5,-817 657.5,-817 657.5,-795 456.5,-795"/>
<polygon fill="none" stroke="black" points="456.5,-795 456.5,-817 657.5,-817 657.5,-795 456.5,-795"/>
<text text-anchor="start" x="476.5" y="-803.2" font-family="Helvetica,sans-Serif" font-size="11.00">type</text>
<polygon fill="#ffffff" stroke="none" points="456.5,-773 456.5,-795 657.5,-795 657.5,-773 456.5,-773"/>
<polygon fill="none" stroke="black" points="456.5,-773 456.5,-795 657.5,-795 657.5,-773 456.5,-773"/>
<text text-anchor="start" x="476.5" y="-781.2" font-family="Helvetica,sans-Serif" font-size="11.00">ems_id</text>
<polygon fill="#ffffff" stroke="none" points="456.5,-751 456.5,-773 657.5,-773 657.5,-751 456.5,-751"/>
<polygon fill="none" stroke="black" points="456.5,-751 456.5,-773 657.5,-773 657.5,-751 456.5,-751"/>
<text text-anchor="start" x="476.5" y="-759.2" font-family="Helvetica,sans-Serif" font-size="11.00">device_id</text>
<polygon fill="#ffffff" stroke="none" points="456.5,-729 456.5,-751 657.5,-751 657.5,-729 456.5,-729"/>
<polygon fill="none" stroke="black" points="456.5,-729 456.5,-751 657.5,-751 657.5,-729 456.5,-729"/>
<text text-anchor="start" x="476.5" y="-737.2" font-family="Helvetica,sans-Serif" font-size="11.00">device_type</text>
<polygon fill="#ffffff" stroke="none" points="456.5,-707 456.5,-729 657.5,-729 657.5,-707 456.5,-707"/>
<polygon fill="none" stroke="black" points="456.5,-707 456.5,-729 657.5,-729 657.5,-707 456.5,-707"/>
<image xlink:href="../../images/foreignKeys.png" width="11px" height="12px" preserveAspectRatio="xMinYMin meet" x="461.5" y="-724"/>
<text text-anchor="start" x="476.5" y="-715.2" font-family="Helvetica,sans-Serif" font-size="11.00">cloud_tenant_id</text>
<polygon fill="#ffffff" stroke="none" points="456.5,-685 456.5,-707 657.5,-707 657.5,-685 456.5,-685"/>
<polygon fill="none" stroke="black" points="456.5,-685 456.5,-707 657.5,-707 657.5,-685 456.5,-685"/>
<image xlink:href="../../images/foreignKeys.png" width="11px" height="12px" preserveAspectRatio="xMinYMin meet" x="461.5" y="-702"/>
<text text-anchor="start" x="476.5" y="-693.2" font-family="Helvetica,sans-Serif" font-size="11.00">resource_group_id</text>
<polygon fill="none" stroke="black" points="456.5,-667 456.5,-685 657.5,-685 657.5,-667 456.5,-667"/>
<text text-anchor="start" x="459.5" y="-673.2" font-family="Helvetica,sans-Serif" font-size="11.00">...</text>
<polygon fill="#ffffff" stroke="none" points="456.5,-649 456.5,-667 550.5,-667 550.5,-649 456.5,-649"/>
<polygon fill="none" stroke="black" points="456.5,-649 456.5,-667 550.5,-667 550.5,-649 456.5,-649"/>
<text text-anchor="start" x="459.5" y="-655.2" font-family="Helvetica,sans-Serif" font-size="11.00">&lt; 2</text>
<polygon fill="#ffffff" stroke="none" points="550.5,-649 550.5,-667 598.5,-667 598.5,-649 550.5,-649"/>
<polygon fill="none" stroke="black" points="550.5,-649 550.5,-667 598.5,-667 598.5,-649 550.5,-649"/>
<text text-anchor="start" x="588.5" y="-655.2" font-family="Helvetica,sans-Serif" font-size="11.00"> &#160;</text>
<polygon fill="#ffffff" stroke="none" points="598.5,-649 598.5,-667 657.5,-667 657.5,-649 598.5,-649"/>
<polygon fill="none" stroke="black" points="598.5,-649 598.5,-667 657.5,-667 657.5,-649 598.5,-649"/>
<text text-anchor="start" x="637.5" y="-655.2" font-family="Helvetica,sans-Serif" font-size="11.00">4 &gt;</text>
</a>
</g>
</g>
<!-- load_balancer_pool_members&#45;&gt;network_ports -->
<g id="edge6" class="edge"><title>load_balancer_pool_members:network_port_id:w&#45;&gt;network_ports:id:e</title>
<path fill="none" stroke="black" d="M692.991,-828C681.677,-828 674.493,-828 658.5,-828"/>
<polygon fill="black" stroke="black" points="699.5,-828 707.5,-831.6 703.5,-828 707.5,-828 707.5,-828 707.5,-828 703.5,-828 707.5,-824.4 699.5,-828 699.5,-828"/>
<ellipse fill="none" stroke="black" cx="696.3" cy="-828" rx="3.2" ry="3.2"/>
</g>
<!-- resource_groups -->
<g id="node7" class="node"><title>resource_groups</title>
<g id="a_node7"><a xlink:href="../../tables/resource_groups.html" xlink:title="resource_groups" target="_top">
<polygon fill="#ffffff" stroke="none" points="226,-420 226,-500 367,-500 367,-420 226,-420"/>
<polygon fill="#f5f5f5" stroke="none" points="226.5,-478 226.5,-500 367.5,-500 367.5,-478 226.5,-478"/>
<polygon fill="none" stroke="black" points="226.5,-478 226.5,-500 367.5,-500 367.5,-478 226.5,-478"/>
<text text-anchor="start" x="231.5" y="-487.2" font-family="Helvetica,sans-Serif" font-weight="bold" font-size="11.00">resource_groups</text>
<text text-anchor="start" x="328.5" y="-486.2" font-family="Helvetica,sans-Serif" font-size="11.00">[table]</text>
<polygon fill="none" stroke="black" points="226.5,-456 226.5,-478 367.5,-478 367.5,-456 226.5,-456"/>
<image xlink:href="../../images/primaryKeys.png" width="11px" height="12px" preserveAspectRatio="xMinYMin meet" x="231.5" y="-473"/>
<text text-anchor="start" x="257.5" y="-464.2" font-family="Helvetica,sans-Serif" font-size="11.00">id</text>
<polygon fill="none" stroke="black" points="226.5,-438 226.5,-456 367.5,-456 367.5,-438 226.5,-438"/>
<text text-anchor="start" x="229.5" y="-444.2" font-family="Helvetica,sans-Serif" font-size="11.00">...</text>
<polygon fill="#ffffff" stroke="none" points="226.5,-420 226.5,-438 285.5,-438 285.5,-420 226.5,-420"/>
<polygon fill="none" stroke="black" points="226.5,-420 226.5,-438 285.5,-438 285.5,-420 226.5,-420"/>
<text text-anchor="start" x="229.5" y="-426.2" font-family="Helvetica,sans-Serif" font-size="11.00"> &#160;</text>
<polygon fill="#ffffff" stroke="none" points="285.5,-420 285.5,-438 321.5,-438 321.5,-420 285.5,-420"/>
<polygon fill="none" stroke="black" points="285.5,-420 285.5,-438 321.5,-438 321.5,-420 285.5,-420"/>
<text text-anchor="start" x="311.5" y="-426.2" font-family="Helvetica,sans-Serif" font-size="11.00"> &#160;</text>
<polygon fill="#ffffff" stroke="none" points="321.5,-420 321.5,-438 367.5,-438 367.5,-420 321.5,-420"/>
<polygon fill="none" stroke="black" points="321.5,-420 321.5,-438 367.5,-438 367.5,-420 321.5,-420"/>
<text text-anchor="start" x="347.5" y="-426.2" font-family="Helvetica,sans-Serif" font-size="11.00">7 &gt;</text>
</a>
</g>
</g>
<!-- load_balancer_pool_members&#45;&gt;resource_groups -->
<g id="edge7" class="edge"><title>load_balancer_pool_members:resource_group_id:w&#45;&gt;resource_groups:id:e</title>
<path fill="none" stroke="black" d="M693.018,-804.141C643.348,-788.994 718.445,-685.198 665,-638 592.152,-573.667 522.993,-672.818 448,-611 411.56,-580.962 440.489,-549.754 415,-510 399.807,-486.304 396.649,-467 368.5,-467"/>
<polygon fill="black" stroke="black" points="699.565,-804.981 707.042,-809.571 703.533,-805.491 707.5,-806 707.5,-806 707.5,-806 703.533,-805.491 707.958,-802.429 699.565,-804.981 699.565,-804.981"/>
<ellipse fill="none" stroke="black" cx="696.391" cy="-804.574" rx="3.2" ry="3.2"/>
</g>
<!-- vms -->
<g id="node8" class="node"><title>vms</title>
<g id="a_node8"><a xlink:href="../../tables/vms.html" xlink:title="vms" target="_top">
<polygon fill="#ffffff" stroke="none" points="461,-37 461,-601 652,-601 652,-37 461,-37"/>
<polygon fill="#f5f5f5" stroke="none" points="461.5,-579 461.5,-601 652.5,-601 652.5,-579 461.5,-579"/>
<polygon fill="none" stroke="black" points="461.5,-579 461.5,-601 652.5,-601 652.5,-579 461.5,-579"/>
<text text-anchor="start" x="466.5" y="-588.2" font-family="Helvetica,sans-Serif" font-weight="bold" font-size="11.00">vms</text>
<text text-anchor="start" x="613.5" y="-587.2" font-family="Helvetica,sans-Serif" font-size="11.00">[table]</text>
<polygon fill="none" stroke="black" points="461.5,-557 461.5,-579 652.5,-579 652.5,-557 461.5,-557"/>
<image xlink:href="../../images/primaryKeys.png" width="11px" height="12px" preserveAspectRatio="xMinYMin meet" x="466.5" y="-574"/>
<text text-anchor="start" x="481.5" y="-565.2" font-family="Helvetica,sans-Serif" font-size="11.00">id</text>
<polygon fill="#ffffff" stroke="none" points="461.5,-535 461.5,-557 652.5,-557 652.5,-535 461.5,-535"/>
<polygon fill="none" stroke="black" points="461.5,-535 461.5,-557 652.5,-557 652.5,-535 461.5,-535"/>
<text text-anchor="start" x="481.5" y="-543.2" font-family="Helvetica,sans-Serif" font-size="11.00">name</text>
<polygon fill="#ffffff" stroke="none" points="461.5,-513 461.5,-535 652.5,-535 652.5,-513 461.5,-513"/>
<polygon fill="none" stroke="black" points="461.5,-513 461.5,-535 652.5,-535 652.5,-513 461.5,-513"/>
<text text-anchor="start" x="481.5" y="-521.2" font-family="Helvetica,sans-Serif" font-size="11.00">location</text>
<polygon fill="#ffffff" stroke="none" points="461.5,-491 461.5,-513 652.5,-513 652.5,-491 461.5,-491"/>
<polygon fill="none" stroke="black" points="461.5,-491 461.5,-513 652.5,-513 652.5,-491 461.5,-491"/>
<image xlink:href="../../images/foreignKeys.png" width="11px" height="12px" preserveAspectRatio="xMinYMin meet" x="466.5" y="-508"/>
<text text-anchor="start" x="481.5" y="-499.2" font-family="Helvetica,sans-Serif" font-size="11.00">host_id</text>
<polygon fill="#ffffff" stroke="none" points="461.5,-469 461.5,-491 652.5,-491 652.5,-469 461.5,-469"/>
<polygon fill="none" stroke="black" points="461.5,-469 461.5,-491 652.5,-491 652.5,-469 461.5,-469"/>
<image xlink:href="../../images/foreignKeys.png" width="11px" height="12px" preserveAspectRatio="xMinYMin meet" x="466.5" y="-486"/>
<text text-anchor="start" x="481.5" y="-477.2" font-family="Helvetica,sans-Serif" font-size="11.00">storage_id</text>
<polygon fill="#ffffff" stroke="none" points="461.5,-447 461.5,-469 652.5,-469 652.5,-447 461.5,-447"/>
<polygon fill="none" stroke="black" points="461.5,-447 461.5,-469 652.5,-469 652.5,-447 461.5,-447"/>
<text text-anchor="start" x="481.5" y="-455.2" font-family="Helvetica,sans-Serif" font-size="11.00">guid</text>
<polygon fill="#ffffff" stroke="none" points="461.5,-425 461.5,-447 652.5,-447 652.5,-425 461.5,-425"/>
<polygon fill="none" stroke="black" points="461.5,-425 461.5,-447 652.5,-447 652.5,-425 461.5,-425"/>
<text text-anchor="start" x="481.5" y="-433.2" font-family="Helvetica,sans-Serif" font-size="11.00">ems_id</text>
<polygon fill="#ffffff" stroke="none" points="461.5,-403 461.5,-425 652.5,-425 652.5,-403 461.5,-403"/>
<polygon fill="none" stroke="black" points="461.5,-403 461.5,-425 652.5,-425 652.5,-403 461.5,-403"/>
<text text-anchor="start" x="481.5" y="-411.2" font-family="Helvetica,sans-Serif" font-size="11.00">uid_ems</text>
<polygon fill="#ffffff" stroke="none" points="461.5,-381 461.5,-403 652.5,-403 652.5,-381 461.5,-381"/>
<polygon fill="none" stroke="black" points="461.5,-381 461.5,-403 652.5,-403 652.5,-381 461.5,-381"/>
<text text-anchor="start" x="481.5" y="-389.2" font-family="Helvetica,sans-Serif" font-size="11.00">evm_owner_id</text>
<polygon fill="#ffffff" stroke="none" points="461.5,-359 461.5,-381 652.5,-381 652.5,-359 461.5,-359"/>
<polygon fill="none" stroke="black" points="461.5,-359 461.5,-381 652.5,-381 652.5,-359 461.5,-359"/>
<image xlink:href="../../images/foreignKeys.png" width="11px" height="12px" preserveAspectRatio="xMinYMin meet" x="466.5" y="-376"/>
<text text-anchor="start" x="481.5" y="-367.2" font-family="Helvetica,sans-Serif" font-size="11.00">miq_group_id</text>
<polygon fill="#ffffff" stroke="none" points="461.5,-337 461.5,-359 652.5,-359 652.5,-337 461.5,-337"/>
<polygon fill="none" stroke="black" points="461.5,-337 461.5,-359 652.5,-359 652.5,-337 461.5,-337"/>
<text text-anchor="start" x="481.5" y="-345.2" font-family="Helvetica,sans-Serif" font-size="11.00">type</text>
<polygon fill="none" stroke="black" points="461.5,-315 461.5,-337 652.5,-337 652.5,-315 461.5,-315"/>
<image xlink:href="../../images/foreignKeys.png" width="11px" height="12px" preserveAspectRatio="xMinYMin meet" x="466.5" y="-332"/>
<text text-anchor="start" x="481.5" y="-323.2" font-family="Helvetica,sans-Serif" font-size="11.00">ems_cluster_id</text>
<polygon fill="#ffffff" stroke="none" points="461.5,-293 461.5,-315 652.5,-315 652.5,-293 461.5,-293"/>
<polygon fill="none" stroke="black" points="461.5,-293 461.5,-315 652.5,-315 652.5,-293 461.5,-293"/>
<image xlink:href="../../images/foreignKeys.png" width="11px" height="12px" preserveAspectRatio="xMinYMin meet" x="466.5" y="-310"/>
<text text-anchor="start" x="481.5" y="-301.2" font-family="Helvetica,sans-Serif" font-size="11.00">flavor_id</text>
<polygon fill="#ffffff" stroke="none" points="461.5,-271 461.5,-293 652.5,-293 652.5,-271 461.5,-271"/>
<polygon fill="none" stroke="black" points="461.5,-271 461.5,-293 652.5,-293 652.5,-271 461.5,-271"/>
<image xlink:href="../../images/foreignKeys.png" width="11px" height="12px" preserveAspectRatio="xMinYMin meet" x="466.5" y="-288"/>
<text text-anchor="start" x="481.5" y="-279.2" font-family="Helvetica,sans-Serif" font-size="11.00">availability_zone_id</text>
<polygon fill="none" stroke="black" points="461.5,-249 461.5,-271 652.5,-271 652.5,-249 461.5,-249"/>
<image xlink:href="../../images/foreignKeys.png" width="11px" height="12px" preserveAspectRatio="xMinYMin meet" x="466.5" y="-266"/>
<text text-anchor="start" x="481.5" y="-257.2" font-family="Helvetica,sans-Serif" font-size="11.00">cloud_network_id</text>
<polygon fill="none" stroke="black" points="461.5,-227 461.5,-249 652.5,-249 652.5,-227 461.5,-227"/>
<image xlink:href="../../images/foreignKeys.png" width="11px" height="12px" preserveAspectRatio="xMinYMin meet" x="466.5" y="-244"/>
<text text-anchor="start" x="481.5" y="-235.2" font-family="Helvetica,sans-Serif" font-size="11.00">cloud_subnet_id</text>
<polygon fill="none" stroke="black" points="461.5,-205 461.5,-227 652.5,-227 652.5,-205 461.5,-205"/>
<image xlink:href="../../images/foreignKeys.png" width="11px" height="12px" preserveAspectRatio="xMinYMin meet" x="466.5" y="-222"/>
<text text-anchor="start" x="481.5" y="-213.2" font-family="Helvetica,sans-Serif" font-size="11.00">cloud_tenant_id</text>
<polygon fill="none" stroke="black" points="461.5,-183 461.5,-205 652.5,-205 652.5,-183 461.5,-183"/>
<image xlink:href="../../images/foreignKeys.png" width="11px" height="12px" preserveAspectRatio="xMinYMin meet" x="466.5" y="-200"/>
<text text-anchor="start" x="481.5" y="-191.2" font-family="Helvetica,sans-Serif" font-size="11.00">orchestration_stack_id</text>
<polygon fill="#ffffff" stroke="none" points="461.5,-161 461.5,-183 652.5,-183 652.5,-161 461.5,-161"/>
<polygon fill="none" stroke="black" points="461.5,-161 461.5,-183 652.5,-183 652.5,-161 461.5,-161"/>
<image xlink:href="../../images/foreignKeys.png" width="11px" height="12px" preserveAspectRatio="xMinYMin meet" x="466.5" y="-178"/>
<text text-anchor="start" x="481.5" y="-169.2" font-family="Helvetica,sans-Serif" font-size="11.00">tenant_id</text>
<polygon fill="none" stroke="black" points="461.5,-139 461.5,-161 652.5,-161 652.5,-139 461.5,-139"/>
<image xlink:href="../../images/foreignKeys.png" width="11px" height="12px" preserveAspectRatio="xMinYMin meet" x="466.5" y="-156"/>
<text text-anchor="start" x="481.5" y="-147.2" font-family="Helvetica,sans-Serif" font-size="11.00">resource_group_id</text>
<polygon fill="none" stroke="black" points="461.5,-117 461.5,-139 652.5,-139 652.5,-117 461.5,-117"/>
<image xlink:href="../../images/foreignKeys.png" width="11px" height="12px" preserveAspectRatio="xMinYMin meet" x="466.5" y="-134"/>
<text text-anchor="start" x="481.5" y="-125.2" font-family="Helvetica,sans-Serif" font-size="11.00">storage_profile_id</text>
<polygon fill="#ffffff" stroke="none" points="461.5,-95 461.5,-117 652.5,-117 652.5,-95 461.5,-95"/>
<polygon fill="none" stroke="black" points="461.5,-95 461.5,-117 652.5,-117 652.5,-95 461.5,-95"/>
<text text-anchor="start" x="481.5" y="-103.2" font-family="Helvetica,sans-Serif" font-size="11.00">ancestry</text>
<polygon fill="#ffffff" stroke="none" points="461.5,-73 461.5,-95 652.5,-95 652.5,-73 461.5,-73"/>
<polygon fill="none" stroke="black" points="461.5,-73 461.5,-95 652.5,-95 652.5,-73 461.5,-73"/>
<image xlink:href="../../images/foreignKeys.png" width="11px" height="12px" preserveAspectRatio="xMinYMin meet" x="466.5" y="-90"/>
<text text-anchor="start" x="481.5" y="-81.2" font-family="Helvetica,sans-Serif" font-size="11.00">placement_group_id</text>
<polygon fill="none" stroke="black" points="461.5,-55 461.5,-73 652.5,-73 652.5,-55 461.5,-55"/>
<text text-anchor="start" x="464.5" y="-61.2" font-family="Helvetica,sans-Serif" font-size="11.00">...</text>
<polygon fill="#ffffff" stroke="none" points="461.5,-37 461.5,-55 553.5,-55 553.5,-37 461.5,-37"/>
<polygon fill="none" stroke="black" points="461.5,-37 461.5,-55 553.5,-55 553.5,-37 461.5,-37"/>
<text text-anchor="start" x="464.5" y="-43.2" font-family="Helvetica,sans-Serif" font-size="11.00">&lt; 14</text>
<polygon fill="#ffffff" stroke="none" points="553.5,-37 553.5,-55 597.5,-55 597.5,-37 553.5,-37"/>
<polygon fill="none" stroke="black" points="553.5,-37 553.5,-55 597.5,-55 597.5,-37 553.5,-37"/>
<text text-anchor="start" x="587.5" y="-43.2" font-family="Helvetica,sans-Serif" font-size="11.00"> &#160;</text>
<polygon fill="#ffffff" stroke="none" points="597.5,-37 597.5,-55 652.5,-55 652.5,-37 597.5,-37"/>
<polygon fill="none" stroke="black" points="597.5,-37 597.5,-55 652.5,-55 652.5,-37 597.5,-37"/>
<text text-anchor="start" x="632.5" y="-43.2" font-family="Helvetica,sans-Serif" font-size="11.00">7 &gt;</text>
</a>
</g>
</g>
<!-- load_balancer_pool_members&#45;&gt;vms -->
<g id="edge8" class="edge"><title>load_balancer_pool_members:vm_id:w&#45;&gt;vms:id:e</title>
<path fill="none" stroke="black" d="M693.234,-737.569C641.396,-716.663 727.99,-568 653.5,-568"/>
<polygon fill="black" stroke="black" points="699.614,-738.656 706.895,-743.549 703.557,-739.328 707.5,-740 707.5,-740 707.5,-740 703.557,-739.328 708.105,-736.451 699.614,-738.656 699.614,-738.656"/>
<ellipse fill="none" stroke="black" cx="696.459" cy="-738.118" rx="3.2" ry="3.2"/>
</g>
<!-- load_balancer_pool_member_pools -->
<g id="node5" class="node"><title>load_balancer_pool_member_pools</title>
<g id="a_node5"><a xlink:href="../../tables/load_balancer_pool_member_pools.html" xlink:title="load_balancer_pool_member_pools" target="_top">
<polygon fill="#ffffff" stroke="none" points="1086.5,-858 1086.5,-964 1331.5,-964 1331.5,-858 1086.5,-858"/>
<polygon fill="#f5f5f5" stroke="none" points="1087,-942 1087,-964 1332,-964 1332,-942 1087,-942"/>
<polygon fill="none" stroke="black" points="1087,-942 1087,-964 1332,-964 1332,-942 1087,-942"/>
<text text-anchor="start" x="1092" y="-951.2" font-family="Helvetica,sans-Serif" font-weight="bold" font-size="11.00">load_balancer_pool_member_pools</text>
<text text-anchor="start" x="1293" y="-950.2" font-family="Helvetica,sans-Serif" font-size="11.00">[table]</text>
<polygon fill="none" stroke="black" points="1087,-920 1087,-942 1332,-942 1332,-920 1087,-920"/>
<image xlink:href="../../images/primaryKeys.png" width="11px" height="12px" preserveAspectRatio="xMinYMin meet" x="1092" y="-937"/>
<text text-anchor="start" x="1116" y="-928.2" font-family="Helvetica,sans-Serif" font-size="11.00">id</text>
<polygon fill="#ffffff" stroke="none" points="1087,-898 1087,-920 1332,-920 1332,-898 1087,-898"/>
<polygon fill="none" stroke="black" points="1087,-898 1087,-920 1332,-920 1332,-898 1087,-898"/>
<image xlink:href="../../images/foreignKeys.png" width="11px" height="12px" preserveAspectRatio="xMinYMin meet" x="1092" y="-915"/>
<text text-anchor="start" x="1116" y="-906.2" font-family="Helvetica,sans-Serif" font-size="11.00">load_balancer_pool_id</text>
<polygon fill="#ffffff" stroke="none" points="1087,-876 1087,-898 1332,-898 1332,-876 1087,-876"/>
<polygon fill="none" stroke="black" points="1087,-876 1087,-898 1332,-898 1332,-876 1087,-876"/>
<image xlink:href="../../images/foreignKeys.png" width="11px" height="12px" preserveAspectRatio="xMinYMin meet" x="1092" y="-893"/>
<text text-anchor="start" x="1116" y="-884.2" font-family="Helvetica,sans-Serif" font-size="11.00">load_balancer_pool_member_id</text>
<polygon fill="#ffffff" stroke="none" points="1087,-858 1087,-876 1208,-876 1208,-858 1087,-858"/>
<polygon fill="none" stroke="black" points="1087,-858 1087,-876 1208,-876 1208,-858 1087,-858"/>
<text text-anchor="start" x="1090" y="-864.2" font-family="Helvetica,sans-Serif" font-size="11.00">&lt; 2</text>
<polygon fill="#ffffff" stroke="none" points="1208,-858 1208,-876 1270,-876 1270,-858 1208,-858"/>
<polygon fill="none" stroke="black" points="1208,-858 1208,-876 1270,-876 1270,-858 1208,-858"/>
<text text-anchor="start" x="1260" y="-864.2" font-family="Helvetica,sans-Serif" font-size="11.00"> &#160;</text>
<polygon fill="#ffffff" stroke="none" points="1270,-858 1270,-876 1332,-876 1332,-858 1270,-858"/>
<polygon fill="none" stroke="black" points="1270,-858 1270,-876 1332,-876 1332,-858 1270,-858"/>
<text text-anchor="start" x="1322" y="-864.2" font-family="Helvetica,sans-Serif" font-size="11.00"> &#160;</text>
</a>
</g>
</g>
<!-- load_balancer_pool_member_pools&#45;&gt;load_balancer_pool_members -->
<g id="edge3" class="edge"><title>load_balancer_pool_member_pools:load_balancer_pool_member_id:w&#45;&gt;load_balancer_pool_members:id.type:e</title>
<path fill="none" stroke="black" d="M1071.89,-890.925C1049.65,-906.088 1062.47,-960 1026.5,-960"/>
<polygon fill="black" stroke="black" points="1078.29,-889.144 1086.97,-890.468 1082.15,-888.072 1086,-887 1086,-887 1086,-887 1082.15,-888.072 1085.03,-883.532 1078.29,-889.144 1078.29,-889.144"/>
<ellipse fill="none" stroke="black" cx="1075.21" cy="-890.002" rx="3.20001" ry="3.20001"/>
</g>
<!-- network_ports&#45;&gt;cloud_tenants -->
<g id="edge9" class="edge"><title>network_ports:cloud_tenant_id:w&#45;&gt;cloud_tenants:id:e</title>
<path fill="none" stroke="black" d="M441.6,-722.479C427.422,-735.36 440.314,-772.506 415,-787 323.59,-839.339 270.918,-836.612 178,-787 150.163,-772.137 170.056,-728 138.5,-728"/>
<polygon fill="black" stroke="black" points="447.886,-720.454 456.604,-721.427 451.693,-719.227 455.5,-718 455.5,-718 455.5,-718 451.693,-719.227 454.396,-714.573 447.886,-720.454 447.886,-720.454"/>
<ellipse fill="none" stroke="black" cx="444.84" cy="-721.435" rx="3.20001" ry="3.20001"/>
</g>
<!-- network_ports&#45;&gt;resource_groups -->
<g id="edge10" class="edge"><title>network_ports:resource_group_id:w&#45;&gt;resource_groups:id:e</title>
<path fill="none" stroke="black" d="M440.816,-694.555C381.767,-681.224 454.208,-578.567 415,-510 401.027,-485.564 396.649,-467 368.5,-467"/>
<polygon fill="black" stroke="black" points="447.538,-695.217 455.148,-699.583 451.519,-695.608 455.5,-696 455.5,-696 455.5,-696 451.519,-695.608 455.852,-692.417 447.538,-695.217 447.538,-695.217"/>
<ellipse fill="none" stroke="black" cx="444.354" cy="-694.903" rx="3.2" ry="3.2"/>
</g>
<!-- vms&#45;&gt;cloud_subnets -->
<g id="edge11" class="edge"><title>vms:cloud_subnet_id:w&#45;&gt;cloud_subnets:id:e</title>
<path fill="none" stroke="black" d="M449.063,-247.215C413.003,-315.794 460.492,-744 408.5,-744"/>
<polygon fill="black" stroke="black" points="454.27,-243.019 462.759,-240.803 457.385,-240.51 460.5,-238 460.5,-238 460.5,-238 457.385,-240.51 458.241,-235.197 454.27,-243.019 454.27,-243.019"/>
<ellipse fill="none" stroke="black" cx="451.778" cy="-245.027" rx="3.20001" ry="3.20001"/>
</g>
<!-- vms&#45;&gt;cloud_tenants -->
<g id="edge12" class="edge"><title>vms:cloud_tenant_id:w&#45;&gt;cloud_tenants:id:e</title>
<path fill="none" stroke="black" d="M445.682,-216.209C305.003,-220.267 254.504,-283.465 178,-409 140.828,-469.996 209.93,-728 138.5,-728"/>
<polygon fill="black" stroke="black" points="452.501,-216.113 460.551,-219.6 456.5,-216.056 460.5,-216 460.5,-216 460.5,-216 456.5,-216.056 460.449,-212.4 452.501,-216.113 452.501,-216.113"/>
<ellipse fill="none" stroke="black" cx="449.301" cy="-216.158" rx="3.2" ry="3.2"/>
</g>
<!-- vms&#45;&gt;resource_groups -->
<g id="edge13" class="edge"><title>vms:resource_group_id:w&#45;&gt;resource_groups:id:e</title>
<path fill="none" stroke="black" d="M447.132,-155.48C416.366,-184.231 427.827,-317.859 415,-358 398.968,-408.169 421.169,-467 368.5,-467"/>
<polygon fill="black" stroke="black" points="453.098,-153.034 461.865,-153.331 456.799,-151.517 460.5,-150 460.5,-150 460.5,-150 456.799,-151.517 459.135,-146.669 453.098,-153.034 453.098,-153.034"/>
<ellipse fill="none" stroke="black" cx="450.137" cy="-154.248" rx="3.20001" ry="3.20001"/>
</g>
</g>
</svg>
