<?xml version="1.0" encoding="UTF-8" standalone="no"?>
<!DOCTYPE svg PUBLIC "-//W3C//DTD SVG 1.1//EN"
 "http://www.w3.org/Graphics/SVG/1.1/DTD/svg11.dtd">
<!-- Generated by graphviz version 2.38.0 (20140413.2041)
 -->
<!-- Title: twoDegreesRelationshipsDiagram Pages: 1 -->
<svg width="659pt" height="739pt"
 viewBox="0.00 0.00 659.00 739.00" xmlns="http://www.w3.org/2000/svg" xmlns:xlink="http://www.w3.org/1999/xlink">
<g id="graph0" class="graph" transform="scale(1 1) rotate(0) translate(4 735)">
<title>twoDegreesRelationshipsDiagram</title>
<polygon fill="#ffffff" stroke="none" points="-4,4 -4,-735 655,-735 655,4 -4,4"/>
<text text-anchor="middle" x="74.5" y="-7.2" font-family="Helvetica,sans-Serif" font-size="11.00">Generated by SchemaSpy</text>
<!-- jobs -->
<g id="node1" class="node"><title>jobs</title>
<g id="a_node1"><a xlink:href="../../tables/jobs.html" xlink:title="jobs" target="_top">
<polygon fill="#ffffff" stroke="none" points="478.5,-669 478.5,-727 550.5,-727 550.5,-669 478.5,-669"/>
<polygon fill="#f5f5f5" stroke="none" points="478.5,-705 478.5,-727 550.5,-727 550.5,-705 478.5,-705"/>
<polygon fill="none" stroke="black" points="478.5,-705 478.5,-727 550.5,-727 550.5,-705 478.5,-705"/>
<text text-anchor="start" x="483.5" y="-714.2" font-family="Helvetica,sans-Serif" font-weight="bold" font-size="11.00">jobs</text>
<text text-anchor="start" x="511.5" y="-713.2" font-family="Helvetica,sans-Serif" font-size="11.00">[table]</text>
<polygon fill="none" stroke="black" points="478.5,-687 478.5,-705 550.5,-705 550.5,-687 478.5,-687"/>
<text text-anchor="start" x="481.5" y="-693.2" font-family="Helvetica,sans-Serif" font-size="11.00">...</text>
<polygon fill="#ffffff" stroke="none" points="478.5,-669 478.5,-687 512.5,-687 512.5,-669 478.5,-669"/>
<polygon fill="none" stroke="black" points="478.5,-669 478.5,-687 512.5,-687 512.5,-669 478.5,-669"/>
<text text-anchor="start" x="481.5" y="-675.2" font-family="Helvetica,sans-Serif" font-size="11.00">&lt; 2</text>
<polygon fill="#ffffff" stroke="none" points="512.5,-669 512.5,-687 531.5,-687 531.5,-669 512.5,-669"/>
<polygon fill="none" stroke="black" points="512.5,-669 512.5,-687 531.5,-687 531.5,-669 512.5,-669"/>
<text text-anchor="start" x="521.5" y="-675.2" font-family="Helvetica,sans-Serif" font-size="11.00"> &#160;</text>
<polygon fill="#ffffff" stroke="none" points="531.5,-669 531.5,-687 550.5,-687 550.5,-669 531.5,-669"/>
<polygon fill="none" stroke="black" points="531.5,-669 531.5,-687 550.5,-687 550.5,-669 531.5,-669"/>
<text text-anchor="start" x="540.5" y="-675.2" font-family="Helvetica,sans-Serif" font-size="11.00"> &#160;</text>
</a>
</g>
</g>
<!-- miq_servers -->
<g id="node2" class="node"><title>miq_servers</title>
<g id="a_node2"><a xlink:href="../../tables/miq_servers.html" xlink:title="miq_servers" target="_top">
<polygon fill="#ffffff" stroke="none" points="23.5,-578 23.5,-636 140.5,-636 140.5,-578 23.5,-578"/>
<polygon fill="#f5f5f5" stroke="none" points="24,-614 24,-636 141,-636 141,-614 24,-614"/>
<polygon fill="none" stroke="black" points="24,-614 24,-636 141,-636 141,-614 24,-614"/>
<text text-anchor="start" x="29" y="-623.2" font-family="Helvetica,sans-Serif" font-weight="bold" font-size="11.00">miq_servers</text>
<text text-anchor="start" x="102" y="-622.2" font-family="Helvetica,sans-Serif" font-size="11.00">[table]</text>
<polygon fill="none" stroke="black" points="24,-596 24,-614 141,-614 141,-596 24,-596"/>
<text text-anchor="start" x="27" y="-602.2" font-family="Helvetica,sans-Serif" font-size="11.00">...</text>
<polygon fill="#ffffff" stroke="none" points="24,-578 24,-596 76,-596 76,-578 24,-578"/>
<polygon fill="none" stroke="black" points="24,-578 24,-596 76,-596 76,-578 24,-578"/>
<text text-anchor="start" x="27" y="-584.2" font-family="Helvetica,sans-Serif" font-size="11.00">&lt; 2</text>
<polygon fill="#ffffff" stroke="none" points="76,-578 76,-596 103,-596 103,-578 76,-578"/>
<polygon fill="none" stroke="black" points="76,-578 76,-596 103,-596 103,-578 76,-578"/>
<text text-anchor="start" x="93" y="-584.2" font-family="Helvetica,sans-Serif" font-size="11.00"> &#160;</text>
<polygon fill="#ffffff" stroke="none" points="103,-578 103,-596 141,-596 141,-578 103,-578"/>
<polygon fill="none" stroke="black" points="103,-578 103,-596 141,-596 141,-578 103,-578"/>
<text text-anchor="start" x="121" y="-584.2" font-family="Helvetica,sans-Serif" font-size="11.00">4 &gt;</text>
</a>
</g>
</g>
<!-- jobs&#45;&gt;miq_servers -->
<g id="edge1" class="edge"><title>jobs:elipses:w&#45;&gt;miq_servers:elipses:e</title>
<path fill="none" stroke="black" d="M462.953,-695.723C321.16,-690.229 291.52,-605 142,-605"/>
<polygon fill="black" stroke="black" points="469.501,-695.847 477.431,-699.599 473.501,-695.924 477.5,-696 477.5,-696 477.5,-696 473.501,-695.924 477.569,-692.401 469.501,-695.847 469.501,-695.847"/>
<ellipse fill="none" stroke="black" cx="466.302" cy="-695.786" rx="3.2" ry="3.2"/>
</g>
<!-- miq_tasks -->
<g id="node3" class="node"><title>miq_tasks</title>
<g id="a_node3"><a xlink:href="../../tables/miq_tasks.html" xlink:title="miq_tasks" target="_top">
<polygon fill="#ffffff" stroke="none" points="218.5,-494 218.5,-596 323.5,-596 323.5,-494 218.5,-494"/>
<polygon fill="#f5f5f5" stroke="none" points="219,-574 219,-596 324,-596 324,-574 219,-574"/>
<polygon fill="none" stroke="black" points="219,-574 219,-596 324,-596 324,-574 219,-574"/>
<text text-anchor="start" x="224" y="-583.2" font-family="Helvetica,sans-Serif" font-weight="bold" font-size="11.00">miq_tasks</text>
<text text-anchor="start" x="285" y="-582.2" font-family="Helvetica,sans-Serif" font-size="11.00">[table]</text>
<polygon fill="none" stroke="black" points="219,-552 219,-574 324,-574 324,-552 219,-552"/>
<image xlink:href="../../images/primaryKeys.png" width="11px" height="12px" preserveAspectRatio="xMinYMin meet" x="224" y="-569"/>
<text text-anchor="start" x="240" y="-560.2" font-family="Helvetica,sans-Serif" font-size="11.00">id</text>
<polygon fill="#ffffff" stroke="none" points="219,-530 219,-552 324,-552 324,-530 219,-530"/>
<polygon fill="none" stroke="black" points="219,-530 219,-552 324,-552 324,-530 219,-530"/>
<image xlink:href="../../images/foreignKeys.png" width="11px" height="12px" preserveAspectRatio="xMinYMin meet" x="224" y="-547"/>
<text text-anchor="start" x="240" y="-538.2" font-family="Helvetica,sans-Serif" font-size="11.00">miq_server_id</text>
<polygon fill="none" stroke="black" points="219,-512 219,-530 324,-530 324,-512 219,-512"/>
<text text-anchor="start" x="222" y="-518.2" font-family="Helvetica,sans-Serif" font-size="11.00">...</text>
<polygon fill="#ffffff" stroke="none" points="219,-494 219,-512 265,-512 265,-494 219,-494"/>
<polygon fill="none" stroke="black" points="219,-494 219,-512 265,-512 265,-494 219,-494"/>
<text text-anchor="start" x="222" y="-500.2" font-family="Helvetica,sans-Serif" font-size="11.00">&lt; 1</text>
<polygon fill="#ffffff" stroke="none" points="265,-494 265,-512 289,-512 289,-494 265,-494"/>
<polygon fill="none" stroke="black" points="265,-494 265,-512 289,-512 289,-494 265,-494"/>
<text text-anchor="start" x="279" y="-500.2" font-family="Helvetica,sans-Serif" font-size="11.00"> &#160;</text>
<polygon fill="#ffffff" stroke="none" points="289,-494 289,-512 324,-512 324,-494 289,-494"/>
<polygon fill="none" stroke="black" points="289,-494 289,-512 324,-512 324,-494 289,-494"/>
<text text-anchor="start" x="304" y="-500.2" font-family="Helvetica,sans-Serif" font-size="11.00">5 &gt;</text>
</a>
</g>
</g>
<!-- jobs&#45;&gt;miq_tasks -->
<g id="edge2" class="edge"><title>jobs:elipses:w&#45;&gt;miq_tasks:id:e</title>
<path fill="none" stroke="black" d="M463.052,-695.753C426.464,-694.349 409.834,-686.428 378,-659 341.077,-627.188 373.737,-563 325,-563"/>
<polygon fill="black" stroke="black" points="469.501,-695.863 477.439,-699.599 473.501,-695.932 477.5,-696 477.5,-696 477.5,-696 473.501,-695.932 477.561,-692.401 469.501,-695.863 469.501,-695.863"/>
<ellipse fill="none" stroke="black" cx="466.302" cy="-695.809" rx="3.2" ry="3.2"/>
</g>
<!-- miq_tasks&#45;&gt;miq_servers -->
<g id="edge8" class="edge"><title>miq_tasks:miq_server_id:w&#45;&gt;miq_servers:elipses:e</title>
<path fill="none" stroke="black" d="M203.496,-543.916C176.078,-556.437 180.467,-605 142,-605"/>
<polygon fill="black" stroke="black" points="210.157,-542.577 218.71,-544.529 214.078,-541.789 218,-541 218,-541 218,-541 214.078,-541.789 217.29,-537.471 210.157,-542.577 210.157,-542.577"/>
<ellipse fill="none" stroke="black" cx="207.02" cy="-543.208" rx="3.2" ry="3.2"/>
</g>
<!-- log_files -->
<g id="node4" class="node"><title>log_files</title>
<g id="a_node4"><a xlink:href="../../tables/log_files.html" xlink:title="log_files" target="_top">
<polygon fill="#ffffff" stroke="none" points="386,-116 386,-490 643,-490 643,-116 386,-116"/>
<polygon fill="#f5f5f5" stroke="none" points="388.5,-466 388.5,-488 641.5,-488 641.5,-466 388.5,-466"/>
<polygon fill="none" stroke="black" points="388.5,-466 388.5,-488 641.5,-488 641.5,-466 388.5,-466"/>
<text text-anchor="start" x="393.5" y="-475.2" font-family="Helvetica,sans-Serif" font-weight="bold" font-size="11.00">log_files</text>
<text text-anchor="start" x="602.5" y="-474.2" font-family="Helvetica,sans-Serif" font-size="11.00">[table]</text>
<polygon fill="none" stroke="black" points="388.5,-444 388.5,-466 520.5,-466 520.5,-444 388.5,-444"/>
<image xlink:href="../../images/primaryKeys.png" width="11px" height="12px" preserveAspectRatio="xMinYMin meet" x="393.5" y="-461"/>
<text text-anchor="start" x="408.5" y="-452.2" font-family="Helvetica,sans-Serif" font-size="11.00">id</text>
<polygon fill="none" stroke="black" points="520.5,-444 520.5,-466 641.5,-466 641.5,-444 520.5,-444"/>
<text text-anchor="start" x="523.5" y="-452.2" font-family="Helvetica,sans-Serif" font-size="11.00">bigserial[19]</text>
<polygon fill="none" stroke="black" points="388.5,-422 388.5,-444 520.5,-444 520.5,-422 388.5,-422"/>
<text text-anchor="start" x="408.5" y="-430.2" font-family="Helvetica,sans-Serif" font-size="11.00">name</text>
<polygon fill="none" stroke="black" points="520.5,-422 520.5,-444 641.5,-444 641.5,-422 520.5,-422"/>
<text text-anchor="start" x="523.5" y="-430.2" font-family="Helvetica,sans-Serif" font-size="11.00">varchar[2147483647]</text>
<polygon fill="none" stroke="black" points="388.5,-400 388.5,-422 520.5,-422 520.5,-400 388.5,-400"/>
<text text-anchor="start" x="408.5" y="-408.2" font-family="Helvetica,sans-Serif" font-size="11.00">description</text>
<polygon fill="none" stroke="black" points="520.5,-400 520.5,-422 641.5,-422 641.5,-400 520.5,-400"/>
<text text-anchor="start" x="523.5" y="-408.2" font-family="Helvetica,sans-Serif" font-size="11.00">varchar[2147483647]</text>
<polygon fill="#ffffff" stroke="none" points="388.5,-378 388.5,-400 520.5,-400 520.5,-378 388.5,-378"/>
<polygon fill="none" stroke="black" points="388.5,-378 388.5,-400 520.5,-400 520.5,-378 388.5,-378"/>
<text text-anchor="start" x="408.5" y="-386.2" font-family="Helvetica,sans-Serif" font-size="11.00">resource_type</text>
<polygon fill="none" stroke="black" points="520.5,-378 520.5,-400 641.5,-400 641.5,-378 520.5,-378"/>
<text text-anchor="start" x="523.5" y="-386.2" font-family="Helvetica,sans-Serif" font-size="11.00">varchar[2147483647]</text>
<polygon fill="#ffffff" stroke="none" points="388.5,-356 388.5,-378 520.5,-378 520.5,-356 388.5,-356"/>
<polygon fill="none" stroke="black" points="388.5,-356 388.5,-378 520.5,-378 520.5,-356 388.5,-356"/>
<text text-anchor="start" x="408.5" y="-364.2" font-family="Helvetica,sans-Serif" font-size="11.00">resource_id</text>
<polygon fill="none" stroke="black" points="520.5,-356 520.5,-378 641.5,-378 641.5,-356 520.5,-356"/>
<text text-anchor="start" x="523.5" y="-364.2" font-family="Helvetica,sans-Serif" font-size="11.00">int8[19]</text>
<polygon fill="#ffffff" stroke="none" points="388.5,-334 388.5,-356 520.5,-356 520.5,-334 388.5,-334"/>
<polygon fill="none" stroke="black" points="388.5,-334 388.5,-356 520.5,-356 520.5,-334 388.5,-334"/>
<image xlink:href="../../images/foreignKeys.png" width="11px" height="12px" preserveAspectRatio="xMinYMin meet" x="393.5" y="-351"/>
<text text-anchor="start" x="408.5" y="-342.2" font-family="Helvetica,sans-Serif" font-size="11.00">miq_task_id</text>
<polygon fill="none" stroke="black" points="520.5,-334 520.5,-356 641.5,-356 641.5,-334 520.5,-334"/>
<text text-anchor="start" x="523.5" y="-342.2" font-family="Helvetica,sans-Serif" font-size="11.00">int8[19]</text>
<polygon fill="none" stroke="black" points="388.5,-312 388.5,-334 520.5,-334 520.5,-312 388.5,-312"/>
<text text-anchor="start" x="408.5" y="-320.2" font-family="Helvetica,sans-Serif" font-size="11.00">created_on</text>
<polygon fill="none" stroke="black" points="520.5,-312 520.5,-334 641.5,-334 641.5,-312 520.5,-312"/>
<text text-anchor="start" x="523.5" y="-320.2" font-family="Helvetica,sans-Serif" font-size="11.00">timestamp[29,6]</text>
<polygon fill="none" stroke="black" points="388.5,-290 388.5,-312 520.5,-312 520.5,-290 388.5,-290"/>
<text text-anchor="start" x="408.5" y="-298.2" font-family="Helvetica,sans-Serif" font-size="11.00">updated_on</text>
<polygon fill="none" stroke="black" points="520.5,-290 520.5,-312 641.5,-312 641.5,-290 520.5,-290"/>
<text text-anchor="start" x="523.5" y="-298.2" font-family="Helvetica,sans-Serif" font-size="11.00">timestamp[29,6]</text>
<polygon fill="none" stroke="black" points="388.5,-268 388.5,-290 520.5,-290 520.5,-268 388.5,-268"/>
<text text-anchor="start" x="408.5" y="-276.2" font-family="Helvetica,sans-Serif" font-size="11.00">logging_started_on</text>
<polygon fill="none" stroke="black" points="520.5,-268 520.5,-290 641.5,-290 641.5,-268 520.5,-268"/>
<text text-anchor="start" x="523.5" y="-276.2" font-family="Helvetica,sans-Serif" font-size="11.00">timestamp[29,6]</text>
<polygon fill="none" stroke="black" points="388.5,-246 388.5,-268 520.5,-268 520.5,-246 388.5,-246"/>
<text text-anchor="start" x="408.5" y="-254.2" font-family="Helvetica,sans-Serif" font-size="11.00">logging_ended_on</text>
<polygon fill="none" stroke="black" points="520.5,-246 520.5,-268 641.5,-268 641.5,-246 520.5,-246"/>
<text text-anchor="start" x="523.5" y="-254.2" font-family="Helvetica,sans-Serif" font-size="11.00">timestamp[29,6]</text>
<polygon fill="none" stroke="black" points="388.5,-224 388.5,-246 520.5,-246 520.5,-224 388.5,-224"/>
<text text-anchor="start" x="408.5" y="-232.2" font-family="Helvetica,sans-Serif" font-size="11.00">state</text>
<polygon fill="none" stroke="black" points="520.5,-224 520.5,-246 641.5,-246 641.5,-224 520.5,-224"/>
<text text-anchor="start" x="523.5" y="-232.2" font-family="Helvetica,sans-Serif" font-size="11.00">varchar[2147483647]</text>
<polygon fill="none" stroke="black" points="388.5,-202 388.5,-224 520.5,-224 520.5,-202 388.5,-202"/>
<text text-anchor="start" x="408.5" y="-210.2" font-family="Helvetica,sans-Serif" font-size="11.00">historical</text>
<polygon fill="none" stroke="black" points="520.5,-202 520.5,-224 641.5,-224 641.5,-202 520.5,-202"/>
<text text-anchor="start" x="523.5" y="-210.2" font-family="Helvetica,sans-Serif" font-size="11.00">bool[1]</text>
<polygon fill="none" stroke="black" points="388.5,-180 388.5,-202 520.5,-202 520.5,-180 388.5,-180"/>
<text text-anchor="start" x="408.5" y="-188.2" font-family="Helvetica,sans-Serif" font-size="11.00">log_uri</text>
<polygon fill="none" stroke="black" points="520.5,-180 520.5,-202 641.5,-202 641.5,-180 520.5,-180"/>
<text text-anchor="start" x="523.5" y="-188.2" font-family="Helvetica,sans-Serif" font-size="11.00">varchar[2147483647]</text>
<polygon fill="none" stroke="black" points="388.5,-158 388.5,-180 520.5,-180 520.5,-158 388.5,-158"/>
<image xlink:href="../../images/foreignKeys.png" width="11px" height="12px" preserveAspectRatio="xMinYMin meet" x="393.5" y="-175"/>
<text text-anchor="start" x="408.5" y="-166.2" font-family="Helvetica,sans-Serif" font-size="11.00">file_depot_id</text>
<polygon fill="none" stroke="black" points="520.5,-158 520.5,-180 641.5,-180 641.5,-158 520.5,-158"/>
<text text-anchor="start" x="523.5" y="-166.2" font-family="Helvetica,sans-Serif" font-size="11.00">int8[19]</text>
<polygon fill="none" stroke="black" points="388.5,-136 388.5,-158 520.5,-158 520.5,-136 388.5,-136"/>
<text text-anchor="start" x="408.5" y="-144.2" font-family="Helvetica,sans-Serif" font-size="11.00">local_file</text>
<polygon fill="none" stroke="black" points="520.5,-136 520.5,-158 641.5,-158 641.5,-136 520.5,-136"/>
<text text-anchor="start" x="523.5" y="-144.2" font-family="Helvetica,sans-Serif" font-size="11.00">varchar[2147483647]</text>
<polygon fill="#ffffff" stroke="none" points="388.5,-118 388.5,-136 459.5,-136 459.5,-118 388.5,-118"/>
<polygon fill="none" stroke="black" points="388.5,-118 388.5,-136 459.5,-136 459.5,-118 388.5,-118"/>
<text text-anchor="start" x="391.5" y="-124.2" font-family="Helvetica,sans-Serif" font-size="11.00">&lt; 2</text>
<polygon fill="#ffffff" stroke="none" points="459.5,-118 459.5,-136 520.5,-136 520.5,-118 459.5,-118"/>
<polygon fill="none" stroke="black" points="459.5,-118 459.5,-136 520.5,-136 520.5,-118 459.5,-118"/>
<text text-anchor="start" x="510.5" y="-124.2" font-family="Helvetica,sans-Serif" font-size="11.00"> &#160;</text>
<polygon fill="#ffffff" stroke="none" points="520.5,-118 520.5,-136 641.5,-136 641.5,-118 520.5,-118"/>
<polygon fill="none" stroke="black" points="520.5,-118 520.5,-136 641.5,-136 641.5,-118 520.5,-118"/>
<text text-anchor="start" x="621.5" y="-124.2" font-family="Helvetica,sans-Serif" font-size="11.00">0 &gt;</text>
<polygon fill="none" stroke="black" stroke-width="2" points="387,-117 387,-489 642,-489 642,-117 387,-117"/>
</a>
</g>
</g>
<!-- log_files&#45;&gt;miq_tasks -->
<g id="edge4" class="edge"><title>log_files:miq_task_id:w&#45;&gt;miq_tasks:id:e</title>
<path fill="none" stroke="black" d="M373.038,-346.885C301.203,-368.192 420.28,-563 325,-563"/>
<polygon fill="black" stroke="black" points="379.567,-346.034 387.965,-348.57 383.534,-345.517 387.5,-345 387.5,-345 387.5,-345 383.534,-345.517 387.035,-341.43 379.567,-346.034 379.567,-346.034"/>
<ellipse fill="none" stroke="black" cx="376.394" cy="-346.447" rx="3.2" ry="3.2"/>
</g>
<!-- file_depots -->
<g id="node5" class="node"><title>file_depots</title>
<g id="a_node5"><a xlink:href="../../tables/file_depots.html" xlink:title="file_depots" target="_top">
<polygon fill="#ffffff" stroke="none" points="8,-48 8,-150 156,-150 156,-48 8,-48"/>
<polygon fill="#f5f5f5" stroke="none" points="8,-128 8,-150 156,-150 156,-128 8,-128"/>
<polygon fill="none" stroke="black" points="8,-128 8,-150 156,-150 156,-128 8,-128"/>
<text text-anchor="start" x="13" y="-137.2" font-family="Helvetica,sans-Serif" font-weight="bold" font-size="11.00">file_depots</text>
<text text-anchor="start" x="117" y="-136.2" font-family="Helvetica,sans-Serif" font-size="11.00">[table]</text>
<polygon fill="none" stroke="black" points="8,-106 8,-128 156,-128 156,-106 8,-106"/>
<image xlink:href="../../images/primaryKeys.png" width="11px" height="12px" preserveAspectRatio="xMinYMin meet" x="13" y="-123"/>
<text text-anchor="start" x="28" y="-114.2" font-family="Helvetica,sans-Serif" font-size="11.00">id</text>
<polygon fill="#ffffff" stroke="none" points="8,-84 8,-106 156,-106 156,-84 8,-84"/>
<polygon fill="none" stroke="black" points="8,-84 8,-106 156,-106 156,-84 8,-84"/>
<text text-anchor="start" x="28" y="-92.2" font-family="Helvetica,sans-Serif" font-size="11.00">type</text>
<polygon fill="none" stroke="black" points="8,-66 8,-84 156,-84 156,-66 8,-66"/>
<text text-anchor="start" x="11" y="-72.2" font-family="Helvetica,sans-Serif" font-size="11.00">...</text>
<polygon fill="#ffffff" stroke="none" points="8,-48 8,-66 70,-66 70,-48 8,-48"/>
<polygon fill="none" stroke="black" points="8,-48 8,-66 70,-66 70,-48 8,-48"/>
<text text-anchor="start" x="11" y="-54.2" font-family="Helvetica,sans-Serif" font-size="11.00"> &#160;</text>
<polygon fill="#ffffff" stroke="none" points="70,-48 70,-66 108,-66 108,-48 70,-48"/>
<polygon fill="none" stroke="black" points="70,-48 70,-66 108,-66 108,-48 70,-48"/>
<text text-anchor="start" x="98" y="-54.2" font-family="Helvetica,sans-Serif" font-size="11.00"> &#160;</text>
<polygon fill="#ffffff" stroke="none" points="108,-48 108,-66 156,-66 156,-48 108,-48"/>
<polygon fill="none" stroke="black" points="108,-48 108,-66 156,-66 156,-48 108,-48"/>
<text text-anchor="start" x="136" y="-54.2" font-family="Helvetica,sans-Serif" font-size="11.00">2 &gt;</text>
</a>
</g>
</g>
<!-- log_files&#45;&gt;file_depots -->
<g id="edge3" class="edge"><title>log_files:file_depot_id:w&#45;&gt;file_depots:id:e</title>
<path fill="none" stroke="black" d="M372.986,-168.654C280.329,-164.143 256.994,-117 157,-117"/>
<polygon fill="black" stroke="black" points="379.502,-168.809 387.414,-172.599 383.501,-168.905 387.5,-169 387.5,-169 387.5,-169 383.501,-168.905 387.586,-165.401 379.502,-168.809 379.502,-168.809"/>
<ellipse fill="none" stroke="black" cx="376.303" cy="-168.733" rx="3.2" ry="3.2"/>
</g>
<!-- miq_queue -->
<g id="node6" class="node"><title>miq_queue</title>
<g id="a_node6"><a xlink:href="../../tables/miq_queue.html" xlink:title="miq_queue" target="_top">
<polygon fill="#ffffff" stroke="none" points="458.5,-511 458.5,-569 570.5,-569 570.5,-511 458.5,-511"/>
<polygon fill="#f5f5f5" stroke="none" points="458.5,-547 458.5,-569 570.5,-569 570.5,-547 458.5,-547"/>
<polygon fill="none" stroke="black" points="458.5,-547 458.5,-569 570.5,-569 570.5,-547 458.5,-547"/>
<text text-anchor="start" x="463.5" y="-556.2" font-family="Helvetica,sans-Serif" font-weight="bold" font-size="11.00">miq_queue</text>
<text text-anchor="start" x="531.5" y="-555.2" font-family="Helvetica,sans-Serif" font-size="11.00">[table]</text>
<polygon fill="none" stroke="black" points="458.5,-529 458.5,-547 570.5,-547 570.5,-529 458.5,-529"/>
<text text-anchor="start" x="461.5" y="-535.2" font-family="Helvetica,sans-Serif" font-size="11.00">...</text>
<polygon fill="#ffffff" stroke="none" points="458.5,-511 458.5,-529 512.5,-529 512.5,-511 458.5,-511"/>
<polygon fill="none" stroke="black" points="458.5,-511 458.5,-529 512.5,-529 512.5,-511 458.5,-511"/>
<text text-anchor="start" x="461.5" y="-517.2" font-family="Helvetica,sans-Serif" font-size="11.00">&lt; 3</text>
<polygon fill="#ffffff" stroke="none" points="512.5,-511 512.5,-529 541.5,-529 541.5,-511 512.5,-511"/>
<polygon fill="none" stroke="black" points="512.5,-511 512.5,-529 541.5,-529 541.5,-511 512.5,-511"/>
<text text-anchor="start" x="531.5" y="-517.2" font-family="Helvetica,sans-Serif" font-size="11.00"> &#160;</text>
<polygon fill="#ffffff" stroke="none" points="541.5,-511 541.5,-529 570.5,-529 570.5,-511 541.5,-511"/>
<polygon fill="none" stroke="black" points="541.5,-511 541.5,-529 570.5,-529 570.5,-511 541.5,-511"/>
<text text-anchor="start" x="560.5" y="-517.2" font-family="Helvetica,sans-Serif" font-size="11.00"> &#160;</text>
</a>
</g>
</g>
<!-- miq_queue&#45;&gt;miq_tasks -->
<g id="edge5" class="edge"><title>miq_queue:elipses:w&#45;&gt;miq_tasks:id:e</title>
<path fill="none" stroke="black" d="M443.037,-538.522C395.05,-542.112 379.778,-563 325,-563"/>
<polygon fill="black" stroke="black" points="449.505,-538.289 457.63,-541.598 453.503,-538.144 457.5,-538 457.5,-538 457.5,-538 453.503,-538.144 457.37,-534.402 449.505,-538.289 449.505,-538.289"/>
<ellipse fill="none" stroke="black" cx="446.307" cy="-538.404" rx="3.2" ry="3.2"/>
</g>
<!-- miq_report_results -->
<g id="node7" class="node"><title>miq_report_results</title>
<g id="a_node7"><a xlink:href="../../tables/miq_report_results.html" xlink:title="miq_report_results" target="_top">
<polygon fill="#ffffff" stroke="none" points="436.5,-590 436.5,-648 592.5,-648 592.5,-590 436.5,-590"/>
<polygon fill="#f5f5f5" stroke="none" points="436.5,-626 436.5,-648 592.5,-648 592.5,-626 436.5,-626"/>
<polygon fill="none" stroke="black" points="436.5,-626 436.5,-648 592.5,-648 592.5,-626 436.5,-626"/>
<text text-anchor="start" x="441.5" y="-635.2" font-family="Helvetica,sans-Serif" font-weight="bold" font-size="11.00">miq_report_results</text>
<text text-anchor="start" x="553.5" y="-634.2" font-family="Helvetica,sans-Serif" font-size="11.00">[table]</text>
<polygon fill="none" stroke="black" points="436.5,-608 436.5,-626 592.5,-626 592.5,-608 436.5,-608"/>
<text text-anchor="start" x="439.5" y="-614.2" font-family="Helvetica,sans-Serif" font-size="11.00">...</text>
<polygon fill="#ffffff" stroke="none" points="436.5,-590 436.5,-608 507.5,-608 507.5,-590 436.5,-590"/>
<polygon fill="none" stroke="black" points="436.5,-590 436.5,-608 507.5,-608 507.5,-590 436.5,-590"/>
<text text-anchor="start" x="439.5" y="-596.2" font-family="Helvetica,sans-Serif" font-size="11.00">&lt; 3</text>
<polygon fill="#ffffff" stroke="none" points="507.5,-590 507.5,-608 544.5,-608 544.5,-590 507.5,-590"/>
<polygon fill="none" stroke="black" points="507.5,-590 507.5,-608 544.5,-608 544.5,-590 507.5,-590"/>
<text text-anchor="start" x="534.5" y="-596.2" font-family="Helvetica,sans-Serif" font-size="11.00"> &#160;</text>
<polygon fill="#ffffff" stroke="none" points="544.5,-590 544.5,-608 592.5,-608 592.5,-590 544.5,-590"/>
<polygon fill="none" stroke="black" points="544.5,-590 544.5,-608 592.5,-608 592.5,-590 544.5,-590"/>
<text text-anchor="start" x="572.5" y="-596.2" font-family="Helvetica,sans-Serif" font-size="11.00">2 &gt;</text>
</a>
</g>
</g>
<!-- miq_report_results&#45;&gt;miq_tasks -->
<g id="edge6" class="edge"><title>miq_report_results:elipses:w&#45;&gt;miq_tasks:id:e</title>
<path fill="none" stroke="black" d="M420.916,-615.556C380.098,-606.968 374.324,-563 325,-563"/>
<polygon fill="black" stroke="black" points="427.539,-616.211 435.145,-620.582 431.519,-616.606 435.5,-617 435.5,-617 435.5,-617 431.519,-616.606 435.855,-613.418 427.539,-616.211 427.539,-616.211"/>
<ellipse fill="none" stroke="black" cx="424.355" cy="-615.896" rx="3.2" ry="3.2"/>
</g>
<!-- miq_schedules -->
<g id="node8" class="node"><title>miq_schedules</title>
<g id="a_node8"><a xlink:href="../../tables/miq_schedules.html" xlink:title="miq_schedules" target="_top">
<polygon fill="#ffffff" stroke="none" points="205,-50 205,-108 337,-108 337,-50 205,-50"/>
<polygon fill="#f5f5f5" stroke="none" points="205,-86 205,-108 337,-108 337,-86 205,-86"/>
<polygon fill="none" stroke="black" points="205,-86 205,-108 337,-108 337,-86 205,-86"/>
<text text-anchor="start" x="210" y="-95.2" font-family="Helvetica,sans-Serif" font-weight="bold" font-size="11.00">miq_schedules</text>
<text text-anchor="start" x="298" y="-94.2" font-family="Helvetica,sans-Serif" font-size="11.00">[table]</text>
<polygon fill="none" stroke="black" points="205,-68 205,-86 337,-86 337,-68 205,-68"/>
<text text-anchor="start" x="208" y="-74.2" font-family="Helvetica,sans-Serif" font-size="11.00">...</text>
<polygon fill="#ffffff" stroke="none" points="205,-50 205,-68 264,-68 264,-50 205,-50"/>
<polygon fill="none" stroke="black" points="205,-50 205,-68 264,-68 264,-50 205,-50"/>
<text text-anchor="start" x="208" y="-56.2" font-family="Helvetica,sans-Serif" font-size="11.00">&lt; 3</text>
<polygon fill="#ffffff" stroke="none" points="264,-50 264,-68 295,-68 295,-50 264,-50"/>
<polygon fill="none" stroke="black" points="264,-50 264,-68 295,-68 295,-50 264,-50"/>
<text text-anchor="start" x="285" y="-56.2" font-family="Helvetica,sans-Serif" font-size="11.00"> &#160;</text>
<polygon fill="#ffffff" stroke="none" points="295,-50 295,-68 337,-68 337,-50 295,-50"/>
<polygon fill="none" stroke="black" points="295,-50 295,-68 337,-68 337,-50 295,-50"/>
<text text-anchor="start" x="317" y="-56.2" font-family="Helvetica,sans-Serif" font-size="11.00">1 &gt;</text>
</a>
</g>
</g>
<!-- miq_schedules&#45;&gt;file_depots -->
<g id="edge7" class="edge"><title>miq_schedules:elipses:w&#45;&gt;file_depots:id:e</title>
<path fill="none" stroke="black" d="M190.326,-81.9048C178.32,-92.5859 178.43,-117 157,-117"/>
<polygon fill="black" stroke="black" points="196.47,-79.7011 205.216,-80.3886 200.235,-78.3506 204,-77 204,-77 204,-77 200.235,-78.3506 202.784,-73.6114 196.47,-79.7011 196.47,-79.7011"/>
<ellipse fill="none" stroke="black" cx="193.458" cy="-80.7816" rx="3.20001" ry="3.20001"/>
</g>
<!-- miq_widgets -->
<g id="node9" class="node"><title>miq_widgets</title>
<g id="a_node9"><a xlink:href="../../tables/miq_widgets.html" xlink:title="miq_widgets" target="_top">
<polygon fill="#ffffff" stroke="none" points="454.5,-37 454.5,-95 574.5,-95 574.5,-37 454.5,-37"/>
<polygon fill="#f5f5f5" stroke="none" points="454.5,-73 454.5,-95 574.5,-95 574.5,-73 454.5,-73"/>
<polygon fill="none" stroke="black" points="454.5,-73 454.5,-95 574.5,-95 574.5,-73 454.5,-73"/>
<text text-anchor="start" x="459.5" y="-82.2" font-family="Helvetica,sans-Serif" font-weight="bold" font-size="11.00">miq_widgets</text>
<text text-anchor="start" x="535.5" y="-81.2" font-family="Helvetica,sans-Serif" font-size="11.00">[table]</text>
<polygon fill="none" stroke="black" points="454.5,-55 454.5,-73 574.5,-73 574.5,-55 454.5,-55"/>
<text text-anchor="start" x="457.5" y="-61.2" font-family="Helvetica,sans-Serif" font-size="11.00">...</text>
<polygon fill="#ffffff" stroke="none" points="454.5,-37 454.5,-55 507.5,-55 507.5,-37 454.5,-37"/>
<polygon fill="none" stroke="black" points="454.5,-37 454.5,-55 507.5,-55 507.5,-37 454.5,-37"/>
<text text-anchor="start" x="457.5" y="-43.2" font-family="Helvetica,sans-Serif" font-size="11.00">&lt; 3</text>
<polygon fill="#ffffff" stroke="none" points="507.5,-37 507.5,-55 535.5,-55 535.5,-37 507.5,-37"/>
<polygon fill="none" stroke="black" points="507.5,-37 507.5,-55 535.5,-55 535.5,-37 507.5,-37"/>
<text text-anchor="start" x="525.5" y="-43.2" font-family="Helvetica,sans-Serif" font-size="11.00"> &#160;</text>
<polygon fill="#ffffff" stroke="none" points="535.5,-37 535.5,-55 574.5,-55 574.5,-37 535.5,-37"/>
<polygon fill="none" stroke="black" points="535.5,-37 535.5,-55 574.5,-55 574.5,-37 535.5,-37"/>
<text text-anchor="start" x="554.5" y="-43.2" font-family="Helvetica,sans-Serif" font-size="11.00">2 &gt;</text>
</a>
</g>
</g>
<!-- miq_widgets&#45;&gt;miq_tasks -->
<g id="edge10" class="edge"><title>miq_widgets:elipses:w&#45;&gt;miq_tasks:id:e</title>
<path fill="none" stroke="black" d="M439.015,-64.558C410.856,-66.9763 396.456,-77.6875 378,-105 320.635,-189.892 427.457,-563 325,-563"/>
<polygon fill="black" stroke="black" points="445.506,-64.308 453.639,-67.5973 449.503,-64.154 453.5,-64 453.5,-64 453.5,-64 449.503,-64.154 453.361,-60.4027 445.506,-64.308 445.506,-64.308"/>
<ellipse fill="none" stroke="black" cx="442.308" cy="-64.4312" rx="3.2" ry="3.2"/>
</g>
<!-- miq_widgets&#45;&gt;miq_schedules -->
<g id="edge9" class="edge"><title>miq_widgets:elipses:w&#45;&gt;miq_schedules:elipses:e</title>
<path fill="none" stroke="black" d="M438.899,-64.375C398.96,-66.5065 384.411,-77 338,-77"/>
<polygon fill="black" stroke="black" points="445.503,-64.2055 453.592,-67.5988 449.501,-64.1027 453.5,-64 453.5,-64 453.5,-64 449.501,-64.1027 453.408,-60.4012 445.503,-64.2055 445.503,-64.2055"/>
<ellipse fill="none" stroke="black" cx="442.304" cy="-64.2877" rx="3.2" ry="3.2"/>
</g>
</g>
</svg>
