<?xml version="1.0" encoding="UTF-8" standalone="no"?>
<!DOCTYPE svg PUBLIC "-//W3C//DTD SVG 1.1//EN"
 "http://www.w3.org/Graphics/SVG/1.1/DTD/svg11.dtd">
<!-- Generated by graphviz version 2.38.0 (20140413.2041)
 -->
<!-- Title: oneDegreeRelationshipsDiagram Pages: 1 -->
<svg width="478pt" height="439pt"
 viewBox="0.00 0.00 478.00 439.00" xmlns="http://www.w3.org/2000/svg" xmlns:xlink="http://www.w3.org/1999/xlink">
<g id="graph0" class="graph" transform="scale(1 1) rotate(0) translate(4 435)">
<title>oneDegreeRelationshipsDiagram</title>
<polygon fill="#ffffff" stroke="none" points="-4,4 -4,-435 474,-435 474,4 -4,4"/>
<text text-anchor="middle" x="74.5" y="-7.2" font-family="Helvetica,sans-Serif" font-size="11.00">Generated by SchemaSpy</text>
<!-- log_files -->
<g id="node1" class="node"><title>log_files</title>
<g id="a_node1"><a xlink:href="../../tables/log_files.html" xlink:title="log_files" target="_top">
<polygon fill="#ffffff" stroke="none" points="205,-53 205,-427 462,-427 462,-53 205,-53"/>
<polygon fill="#f5f5f5" stroke="none" points="207.5,-403 207.5,-425 460.5,-425 460.5,-403 207.5,-403"/>
<polygon fill="none" stroke="black" points="207.5,-403 207.5,-425 460.5,-425 460.5,-403 207.5,-403"/>
<text text-anchor="start" x="212.5" y="-412.2" font-family="Helvetica,sans-Serif" font-weight="bold" font-size="11.00">log_files</text>
<text text-anchor="start" x="421.5" y="-411.2" font-family="Helvetica,sans-Serif" font-size="11.00">[table]</text>
<polygon fill="none" stroke="black" points="207.5,-381 207.5,-403 339.5,-403 339.5,-381 207.5,-381"/>
<image xlink:href="../../images/primaryKeys.png" width="11px" height="12px" preserveAspectRatio="xMinYMin meet" x="212.5" y="-398"/>
<text text-anchor="start" x="227.5" y="-389.2" font-family="Helvetica,sans-Serif" font-size="11.00">id</text>
<polygon fill="none" stroke="black" points="339.5,-381 339.5,-403 460.5,-403 460.5,-381 339.5,-381"/>
<text text-anchor="start" x="342.5" y="-389.2" font-family="Helvetica,sans-Serif" font-size="11.00">bigserial[19]</text>
<polygon fill="none" stroke="black" points="207.5,-359 207.5,-381 339.5,-381 339.5,-359 207.5,-359"/>
<text text-anchor="start" x="227.5" y="-367.2" font-family="Helvetica,sans-Serif" font-size="11.00">name</text>
<polygon fill="none" stroke="black" points="339.5,-359 339.5,-381 460.5,-381 460.5,-359 339.5,-359"/>
<text text-anchor="start" x="342.5" y="-367.2" font-family="Helvetica,sans-Serif" font-size="11.00">varchar[2147483647]</text>
<polygon fill="none" stroke="black" points="207.5,-337 207.5,-359 339.5,-359 339.5,-337 207.5,-337"/>
<text text-anchor="start" x="227.5" y="-345.2" font-family="Helvetica,sans-Serif" font-size="11.00">description</text>
<polygon fill="none" stroke="black" points="339.5,-337 339.5,-359 460.5,-359 460.5,-337 339.5,-337"/>
<text text-anchor="start" x="342.5" y="-345.2" font-family="Helvetica,sans-Serif" font-size="11.00">varchar[2147483647]</text>
<polygon fill="#ffffff" stroke="none" points="207.5,-315 207.5,-337 339.5,-337 339.5,-315 207.5,-315"/>
<polygon fill="none" stroke="black" points="207.5,-315 207.5,-337 339.5,-337 339.5,-315 207.5,-315"/>
<text text-anchor="start" x="227.5" y="-323.2" font-family="Helvetica,sans-Serif" font-size="11.00">resource_type</text>
<polygon fill="none" stroke="black" points="339.5,-315 339.5,-337 460.5,-337 460.5,-315 339.5,-315"/>
<text text-anchor="start" x="342.5" y="-323.2" font-family="Helvetica,sans-Serif" font-size="11.00">varchar[2147483647]</text>
<polygon fill="#ffffff" stroke="none" points="207.5,-293 207.5,-315 339.5,-315 339.5,-293 207.5,-293"/>
<polygon fill="none" stroke="black" points="207.5,-293 207.5,-315 339.5,-315 339.5,-293 207.5,-293"/>
<text text-anchor="start" x="227.5" y="-301.2" font-family="Helvetica,sans-Serif" font-size="11.00">resource_id</text>
<polygon fill="none" stroke="black" points="339.5,-293 339.5,-315 460.5,-315 460.5,-293 339.5,-293"/>
<text text-anchor="start" x="342.5" y="-301.2" font-family="Helvetica,sans-Serif" font-size="11.00">int8[19]</text>
<polygon fill="#ffffff" stroke="none" points="207.5,-271 207.5,-293 339.5,-293 339.5,-271 207.5,-271"/>
<polygon fill="none" stroke="black" points="207.5,-271 207.5,-293 339.5,-293 339.5,-271 207.5,-271"/>
<image xlink:href="../../images/foreignKeys.png" width="11px" height="12px" preserveAspectRatio="xMinYMin meet" x="212.5" y="-288"/>
<text text-anchor="start" x="227.5" y="-279.2" font-family="Helvetica,sans-Serif" font-size="11.00">miq_task_id</text>
<polygon fill="none" stroke="black" points="339.5,-271 339.5,-293 460.5,-293 460.5,-271 339.5,-271"/>
<text text-anchor="start" x="342.5" y="-279.2" font-family="Helvetica,sans-Serif" font-size="11.00">int8[19]</text>
<polygon fill="none" stroke="black" points="207.5,-249 207.5,-271 339.5,-271 339.5,-249 207.5,-249"/>
<text text-anchor="start" x="227.5" y="-257.2" font-family="Helvetica,sans-Serif" font-size="11.00">created_on</text>
<polygon fill="none" stroke="black" points="339.5,-249 339.5,-271 460.5,-271 460.5,-249 339.5,-249"/>
<text text-anchor="start" x="342.5" y="-257.2" font-family="Helvetica,sans-Serif" font-size="11.00">timestamp[29,6]</text>
<polygon fill="none" stroke="black" points="207.5,-227 207.5,-249 339.5,-249 339.5,-227 207.5,-227"/>
<text text-anchor="start" x="227.5" y="-235.2" font-family="Helvetica,sans-Serif" font-size="11.00">updated_on</text>
<polygon fill="none" stroke="black" points="339.5,-227 339.5,-249 460.5,-249 460.5,-227 339.5,-227"/>
<text text-anchor="start" x="342.5" y="-235.2" font-family="Helvetica,sans-Serif" font-size="11.00">timestamp[29,6]</text>
<polygon fill="none" stroke="black" points="207.5,-205 207.5,-227 339.5,-227 339.5,-205 207.5,-205"/>
<text text-anchor="start" x="227.5" y="-213.2" font-family="Helvetica,sans-Serif" font-size="11.00">logging_started_on</text>
<polygon fill="none" stroke="black" points="339.5,-205 339.5,-227 460.5,-227 460.5,-205 339.5,-205"/>
<text text-anchor="start" x="342.5" y="-213.2" font-family="Helvetica,sans-Serif" font-size="11.00">timestamp[29,6]</text>
<polygon fill="none" stroke="black" points="207.5,-183 207.5,-205 339.5,-205 339.5,-183 207.5,-183"/>
<text text-anchor="start" x="227.5" y="-191.2" font-family="Helvetica,sans-Serif" font-size="11.00">logging_ended_on</text>
<polygon fill="none" stroke="black" points="339.5,-183 339.5,-205 460.5,-205 460.5,-183 339.5,-183"/>
<text text-anchor="start" x="342.5" y="-191.2" font-family="Helvetica,sans-Serif" font-size="11.00">timestamp[29,6]</text>
<polygon fill="none" stroke="black" points="207.5,-161 207.5,-183 339.5,-183 339.5,-161 207.5,-161"/>
<text text-anchor="start" x="227.5" y="-169.2" font-family="Helvetica,sans-Serif" font-size="11.00">state</text>
<polygon fill="none" stroke="black" points="339.5,-161 339.5,-183 460.5,-183 460.5,-161 339.5,-161"/>
<text text-anchor="start" x="342.5" y="-169.2" font-family="Helvetica,sans-Serif" font-size="11.00">varchar[2147483647]</text>
<polygon fill="none" stroke="black" points="207.5,-139 207.5,-161 339.5,-161 339.5,-139 207.5,-139"/>
<text text-anchor="start" x="227.5" y="-147.2" font-family="Helvetica,sans-Serif" font-size="11.00">historical</text>
<polygon fill="none" stroke="black" points="339.5,-139 339.5,-161 460.5,-161 460.5,-139 339.5,-139"/>
<text text-anchor="start" x="342.5" y="-147.2" font-family="Helvetica,sans-Serif" font-size="11.00">bool[1]</text>
<polygon fill="none" stroke="black" points="207.5,-117 207.5,-139 339.5,-139 339.5,-117 207.5,-117"/>
<text text-anchor="start" x="227.5" y="-125.2" font-family="Helvetica,sans-Serif" font-size="11.00">log_uri</text>
<polygon fill="none" stroke="black" points="339.5,-117 339.5,-139 460.5,-139 460.5,-117 339.5,-117"/>
<text text-anchor="start" x="342.5" y="-125.2" font-family="Helvetica,sans-Serif" font-size="11.00">varchar[2147483647]</text>
<polygon fill="none" stroke="black" points="207.5,-95 207.5,-117 339.5,-117 339.5,-95 207.5,-95"/>
<image xlink:href="../../images/foreignKeys.png" width="11px" height="12px" preserveAspectRatio="xMinYMin meet" x="212.5" y="-112"/>
<text text-anchor="start" x="227.5" y="-103.2" font-family="Helvetica,sans-Serif" font-size="11.00">file_depot_id</text>
<polygon fill="none" stroke="black" points="339.5,-95 339.5,-117 460.5,-117 460.5,-95 339.5,-95"/>
<text text-anchor="start" x="342.5" y="-103.2" font-family="Helvetica,sans-Serif" font-size="11.00">int8[19]</text>
<polygon fill="none" stroke="black" points="207.5,-73 207.5,-95 339.5,-95 339.5,-73 207.5,-73"/>
<text text-anchor="start" x="227.5" y="-81.2" font-family="Helvetica,sans-Serif" font-size="11.00">local_file</text>
<polygon fill="none" stroke="black" points="339.5,-73 339.5,-95 460.5,-95 460.5,-73 339.5,-73"/>
<text text-anchor="start" x="342.5" y="-81.2" font-family="Helvetica,sans-Serif" font-size="11.00">varchar[2147483647]</text>
<polygon fill="#ffffff" stroke="none" points="207.5,-55 207.5,-73 278.5,-73 278.5,-55 207.5,-55"/>
<polygon fill="none" stroke="black" points="207.5,-55 207.5,-73 278.5,-73 278.5,-55 207.5,-55"/>
<text text-anchor="start" x="210.5" y="-61.2" font-family="Helvetica,sans-Serif" font-size="11.00">&lt; 2</text>
<polygon fill="#ffffff" stroke="none" points="278.5,-55 278.5,-73 339.5,-73 339.5,-55 278.5,-55"/>
<polygon fill="none" stroke="black" points="278.5,-55 278.5,-73 339.5,-73 339.5,-55 278.5,-55"/>
<text text-anchor="start" x="329.5" y="-61.2" font-family="Helvetica,sans-Serif" font-size="11.00"> &#160;</text>
<polygon fill="#ffffff" stroke="none" points="339.5,-55 339.5,-73 460.5,-73 460.5,-55 339.5,-55"/>
<polygon fill="none" stroke="black" points="339.5,-55 339.5,-73 460.5,-73 460.5,-55 339.5,-55"/>
<text text-anchor="start" x="440.5" y="-61.2" font-family="Helvetica,sans-Serif" font-size="11.00">0 &gt;</text>
<polygon fill="none" stroke="black" stroke-width="2" points="206,-54 206,-426 461,-426 461,-54 206,-54"/>
</a>
</g>
</g>
<!-- file_depots -->
<g id="node2" class="node"><title>file_depots</title>
<g id="a_node2"><a xlink:href="../../tables/file_depots.html" xlink:title="file_depots" target="_top">
<polygon fill="#ffffff" stroke="none" points="8,-37 8,-139 156,-139 156,-37 8,-37"/>
<polygon fill="#f5f5f5" stroke="none" points="8,-117 8,-139 156,-139 156,-117 8,-117"/>
<polygon fill="none" stroke="black" points="8,-117 8,-139 156,-139 156,-117 8,-117"/>
<text text-anchor="start" x="13" y="-126.2" font-family="Helvetica,sans-Serif" font-weight="bold" font-size="11.00">file_depots</text>
<text text-anchor="start" x="117" y="-125.2" font-family="Helvetica,sans-Serif" font-size="11.00">[table]</text>
<polygon fill="none" stroke="black" points="8,-95 8,-117 156,-117 156,-95 8,-95"/>
<image xlink:href="../../images/primaryKeys.png" width="11px" height="12px" preserveAspectRatio="xMinYMin meet" x="13" y="-112"/>
<text text-anchor="start" x="28" y="-103.2" font-family="Helvetica,sans-Serif" font-size="11.00">id</text>
<polygon fill="#ffffff" stroke="none" points="8,-73 8,-95 156,-95 156,-73 8,-73"/>
<polygon fill="none" stroke="black" points="8,-73 8,-95 156,-95 156,-73 8,-73"/>
<text text-anchor="start" x="28" y="-81.2" font-family="Helvetica,sans-Serif" font-size="11.00">type</text>
<polygon fill="none" stroke="black" points="8,-55 8,-73 156,-73 156,-55 8,-55"/>
<text text-anchor="start" x="11" y="-61.2" font-family="Helvetica,sans-Serif" font-size="11.00">...</text>
<polygon fill="#ffffff" stroke="none" points="8,-37 8,-55 70,-55 70,-37 8,-37"/>
<polygon fill="none" stroke="black" points="8,-37 8,-55 70,-55 70,-37 8,-37"/>
<text text-anchor="start" x="11" y="-43.2" font-family="Helvetica,sans-Serif" font-size="11.00"> &#160;</text>
<polygon fill="#ffffff" stroke="none" points="70,-37 70,-55 108,-55 108,-37 70,-37"/>
<polygon fill="none" stroke="black" points="70,-37 70,-55 108,-55 108,-37 70,-37"/>
<text text-anchor="start" x="98" y="-43.2" font-family="Helvetica,sans-Serif" font-size="11.00"> &#160;</text>
<polygon fill="#ffffff" stroke="none" points="108,-37 108,-55 156,-55 156,-37 108,-37"/>
<polygon fill="none" stroke="black" points="108,-37 108,-55 156,-55 156,-37 108,-37"/>
<text text-anchor="start" x="136" y="-43.2" font-family="Helvetica,sans-Serif" font-size="11.00">2 &gt;</text>
</a>
</g>
</g>
<!-- log_files&#45;&gt;file_depots -->
<g id="edge1" class="edge"><title>log_files:file_depot_id:w&#45;&gt;file_depots:id:e</title>
<path fill="none" stroke="black" d="M191.843,-106C180.414,-106 173.156,-106 157,-106"/>
<polygon fill="black" stroke="black" points="198.5,-106 206.5,-109.6 202.5,-106 206.5,-106 206.5,-106 206.5,-106 202.5,-106 206.5,-102.4 198.5,-106 198.5,-106"/>
<ellipse fill="none" stroke="black" cx="195.3" cy="-106" rx="3.2" ry="3.2"/>
</g>
<!-- miq_tasks -->
<g id="node3" class="node"><title>miq_tasks</title>
<g id="a_node3"><a xlink:href="../../tables/miq_tasks.html" xlink:title="miq_tasks" target="_top">
<polygon fill="#ffffff" stroke="none" points="29.5,-213 29.5,-315 134.5,-315 134.5,-213 29.5,-213"/>
<polygon fill="#f5f5f5" stroke="none" points="30,-293 30,-315 135,-315 135,-293 30,-293"/>
<polygon fill="none" stroke="black" points="30,-293 30,-315 135,-315 135,-293 30,-293"/>
<text text-anchor="start" x="35" y="-302.2" font-family="Helvetica,sans-Serif" font-weight="bold" font-size="11.00">miq_tasks</text>
<text text-anchor="start" x="96" y="-301.2" font-family="Helvetica,sans-Serif" font-size="11.00">[table]</text>
<polygon fill="none" stroke="black" points="30,-271 30,-293 135,-293 135,-271 30,-271"/>
<image xlink:href="../../images/primaryKeys.png" width="11px" height="12px" preserveAspectRatio="xMinYMin meet" x="35" y="-288"/>
<text text-anchor="start" x="51" y="-279.2" font-family="Helvetica,sans-Serif" font-size="11.00">id</text>
<polygon fill="#ffffff" stroke="none" points="30,-249 30,-271 135,-271 135,-249 30,-249"/>
<polygon fill="none" stroke="black" points="30,-249 30,-271 135,-271 135,-249 30,-249"/>
<image xlink:href="../../images/foreignKeys.png" width="11px" height="12px" preserveAspectRatio="xMinYMin meet" x="35" y="-266"/>
<text text-anchor="start" x="51" y="-257.2" font-family="Helvetica,sans-Serif" font-size="11.00">miq_server_id</text>
<polygon fill="none" stroke="black" points="30,-231 30,-249 135,-249 135,-231 30,-231"/>
<text text-anchor="start" x="33" y="-237.2" font-family="Helvetica,sans-Serif" font-size="11.00">...</text>
<polygon fill="#ffffff" stroke="none" points="30,-213 30,-231 76,-231 76,-213 30,-213"/>
<polygon fill="none" stroke="black" points="30,-213 30,-231 76,-231 76,-213 30,-213"/>
<text text-anchor="start" x="33" y="-219.2" font-family="Helvetica,sans-Serif" font-size="11.00">&lt; 1</text>
<polygon fill="#ffffff" stroke="none" points="76,-213 76,-231 100,-231 100,-213 76,-213"/>
<polygon fill="none" stroke="black" points="76,-213 76,-231 100,-231 100,-213 76,-213"/>
<text text-anchor="start" x="90" y="-219.2" font-family="Helvetica,sans-Serif" font-size="11.00"> &#160;</text>
<polygon fill="#ffffff" stroke="none" points="100,-213 100,-231 135,-231 135,-213 100,-213"/>
<polygon fill="none" stroke="black" points="100,-213 100,-231 135,-231 135,-213 100,-213"/>
<text text-anchor="start" x="115" y="-219.2" font-family="Helvetica,sans-Serif" font-size="11.00">5 &gt;</text>
</a>
</g>
</g>
<!-- log_files&#45;&gt;miq_tasks -->
<g id="edge2" class="edge"><title>log_files:miq_task_id:w&#45;&gt;miq_tasks:id:e</title>
<path fill="none" stroke="black" d="M191.9,-282C171.687,-282 161.826,-282 136,-282"/>
<polygon fill="black" stroke="black" points="198.5,-282 206.5,-285.6 202.5,-282 206.5,-282 206.5,-282 206.5,-282 202.5,-282 206.5,-278.4 198.5,-282 198.5,-282"/>
<ellipse fill="none" stroke="black" cx="195.3" cy="-282" rx="3.2" ry="3.2"/>
</g>
</g>
</svg>
