<?xml version="1.0" encoding="UTF-8" standalone="no"?>
<!DOCTYPE svg PUBLIC "-//W3C//DTD SVG 1.1//EN"
 "http://www.w3.org/Graphics/SVG/1.1/DTD/svg11.dtd">
<!-- Generated by graphviz version 2.38.0 (20140413.2041)
 -->
<!-- Title: oneDegreeRelationshipsDiagram Pages: 1 -->
<svg width="721pt" height="676pt"
 viewBox="0.00 0.00 720.53 676.00" xmlns="http://www.w3.org/2000/svg" xmlns:xlink="http://www.w3.org/1999/xlink">
<g id="graph0" class="graph" transform="scale(1 1) rotate(0) translate(4 672)">
<title>oneDegreeRelationshipsDiagram</title>
<polygon fill="#ffffff" stroke="none" points="-4,4 -4,-672 716.533,-672 716.533,4 -4,4"/>
<text text-anchor="middle" x="74.5" y="-7.2" font-family="Helvetica,sans-Serif" font-size="11.00">Generated by SchemaSpy</text>
<!-- miq_request_tasks -->
<g id="node1" class="node"><title>miq_request_tasks</title>
<g id="a_node1"><a xlink:href="../../tables/miq_request_tasks.html" xlink:title="miq_request_tasks" target="_top">
<polygon fill="#ffffff" stroke="none" points="410,-118 410,-646 677,-646 677,-118 410,-118"/>
<polygon fill="#f5f5f5" stroke="none" points="412.5,-622 412.5,-644 675.5,-644 675.5,-622 412.5,-622"/>
<polygon fill="none" stroke="black" points="412.5,-622 412.5,-644 675.5,-644 675.5,-622 412.5,-622"/>
<text text-anchor="start" x="417.5" y="-631.2" font-family="Helvetica,sans-Serif" font-weight="bold" font-size="11.00">miq_request_tasks</text>
<text text-anchor="start" x="636.5" y="-630.2" font-family="Helvetica,sans-Serif" font-size="11.00">[table]</text>
<polygon fill="none" stroke="black" points="412.5,-600 412.5,-622 554.5,-622 554.5,-600 412.5,-600"/>
<image xlink:href="../../images/primaryKeys.png" width="11px" height="12px" preserveAspectRatio="xMinYMin meet" x="417.5" y="-617"/>
<text text-anchor="start" x="432.5" y="-608.2" font-family="Helvetica,sans-Serif" font-size="11.00">id</text>
<polygon fill="none" stroke="black" points="554.5,-600 554.5,-622 675.5,-622 675.5,-600 554.5,-600"/>
<text text-anchor="start" x="557.5" y="-608.2" font-family="Helvetica,sans-Serif" font-size="11.00">bigserial[19]</text>
<polygon fill="none" stroke="black" points="412.5,-578 412.5,-600 554.5,-600 554.5,-578 412.5,-578"/>
<text text-anchor="start" x="432.5" y="-586.2" font-family="Helvetica,sans-Serif" font-size="11.00">description</text>
<polygon fill="none" stroke="black" points="554.5,-578 554.5,-600 675.5,-600 675.5,-578 554.5,-578"/>
<text text-anchor="start" x="557.5" y="-586.2" font-family="Helvetica,sans-Serif" font-size="11.00">varchar[2147483647]</text>
<polygon fill="none" stroke="black" points="412.5,-556 412.5,-578 554.5,-578 554.5,-556 412.5,-556"/>
<text text-anchor="start" x="432.5" y="-564.2" font-family="Helvetica,sans-Serif" font-size="11.00">state</text>
<polygon fill="none" stroke="black" points="554.5,-556 554.5,-578 675.5,-578 675.5,-556 554.5,-556"/>
<text text-anchor="start" x="557.5" y="-564.2" font-family="Helvetica,sans-Serif" font-size="11.00">varchar[2147483647]</text>
<polygon fill="none" stroke="black" points="412.5,-534 412.5,-556 554.5,-556 554.5,-534 412.5,-534"/>
<text text-anchor="start" x="432.5" y="-542.2" font-family="Helvetica,sans-Serif" font-size="11.00">request_type</text>
<polygon fill="none" stroke="black" points="554.5,-534 554.5,-556 675.5,-556 675.5,-534 554.5,-534"/>
<text text-anchor="start" x="557.5" y="-542.2" font-family="Helvetica,sans-Serif" font-size="11.00">varchar[2147483647]</text>
<polygon fill="none" stroke="black" points="412.5,-512 412.5,-534 554.5,-534 554.5,-512 412.5,-512"/>
<text text-anchor="start" x="432.5" y="-520.2" font-family="Helvetica,sans-Serif" font-size="11.00">userid</text>
<polygon fill="none" stroke="black" points="554.5,-512 554.5,-534 675.5,-534 675.5,-512 554.5,-512"/>
<text text-anchor="start" x="557.5" y="-520.2" font-family="Helvetica,sans-Serif" font-size="11.00">varchar[2147483647]</text>
<polygon fill="none" stroke="black" points="412.5,-490 412.5,-512 554.5,-512 554.5,-490 412.5,-490"/>
<text text-anchor="start" x="432.5" y="-498.2" font-family="Helvetica,sans-Serif" font-size="11.00">options</text>
<polygon fill="none" stroke="black" points="554.5,-490 554.5,-512 675.5,-512 675.5,-490 554.5,-490"/>
<text text-anchor="start" x="557.5" y="-498.2" font-family="Helvetica,sans-Serif" font-size="11.00">text[2147483647]</text>
<polygon fill="none" stroke="black" points="412.5,-468 412.5,-490 554.5,-490 554.5,-468 412.5,-468"/>
<text text-anchor="start" x="432.5" y="-476.2" font-family="Helvetica,sans-Serif" font-size="11.00">created_on</text>
<polygon fill="none" stroke="black" points="554.5,-468 554.5,-490 675.5,-490 675.5,-468 554.5,-468"/>
<text text-anchor="start" x="557.5" y="-476.2" font-family="Helvetica,sans-Serif" font-size="11.00">timestamp[29,6]</text>
<polygon fill="none" stroke="black" points="412.5,-446 412.5,-468 554.5,-468 554.5,-446 412.5,-446"/>
<text text-anchor="start" x="432.5" y="-454.2" font-family="Helvetica,sans-Serif" font-size="11.00">updated_on</text>
<polygon fill="none" stroke="black" points="554.5,-446 554.5,-468 675.5,-468 675.5,-446 554.5,-446"/>
<text text-anchor="start" x="557.5" y="-454.2" font-family="Helvetica,sans-Serif" font-size="11.00">timestamp[29,6]</text>
<polygon fill="none" stroke="black" points="412.5,-424 412.5,-446 554.5,-446 554.5,-424 412.5,-424"/>
<text text-anchor="start" x="432.5" y="-432.2" font-family="Helvetica,sans-Serif" font-size="11.00">message</text>
<polygon fill="none" stroke="black" points="554.5,-424 554.5,-446 675.5,-446 675.5,-424 554.5,-424"/>
<text text-anchor="start" x="557.5" y="-432.2" font-family="Helvetica,sans-Serif" font-size="11.00">varchar[2147483647]</text>
<polygon fill="none" stroke="black" points="412.5,-402 412.5,-424 554.5,-424 554.5,-402 412.5,-402"/>
<text text-anchor="start" x="432.5" y="-410.2" font-family="Helvetica,sans-Serif" font-size="11.00">status</text>
<polygon fill="none" stroke="black" points="554.5,-402 554.5,-424 675.5,-424 675.5,-402 554.5,-402"/>
<text text-anchor="start" x="557.5" y="-410.2" font-family="Helvetica,sans-Serif" font-size="11.00">varchar[2147483647]</text>
<polygon fill="#ffffff" stroke="none" points="412.5,-380 412.5,-402 554.5,-402 554.5,-380 412.5,-380"/>
<polygon fill="none" stroke="black" points="412.5,-380 412.5,-402 554.5,-402 554.5,-380 412.5,-380"/>
<text text-anchor="start" x="432.5" y="-388.2" font-family="Helvetica,sans-Serif" font-size="11.00">type</text>
<polygon fill="none" stroke="black" points="554.5,-380 554.5,-402 675.5,-402 675.5,-380 554.5,-380"/>
<text text-anchor="start" x="557.5" y="-388.2" font-family="Helvetica,sans-Serif" font-size="11.00">varchar[2147483647]</text>
<polygon fill="#ffffff" stroke="none" points="412.5,-358 412.5,-380 554.5,-380 554.5,-358 412.5,-358"/>
<polygon fill="none" stroke="black" points="412.5,-358 412.5,-380 554.5,-380 554.5,-358 412.5,-358"/>
<image xlink:href="../../images/foreignKeys.png" width="11px" height="12px" preserveAspectRatio="xMinYMin meet" x="417.5" y="-375"/>
<text text-anchor="start" x="432.5" y="-366.2" font-family="Helvetica,sans-Serif" font-size="11.00">miq_request_id</text>
<polygon fill="none" stroke="black" points="554.5,-358 554.5,-380 675.5,-380 675.5,-358 554.5,-358"/>
<text text-anchor="start" x="557.5" y="-366.2" font-family="Helvetica,sans-Serif" font-size="11.00">int8[19]</text>
<polygon fill="#ffffff" stroke="none" points="412.5,-336 412.5,-358 554.5,-358 554.5,-336 412.5,-336"/>
<polygon fill="none" stroke="black" points="412.5,-336 412.5,-358 554.5,-358 554.5,-336 412.5,-336"/>
<text text-anchor="start" x="432.5" y="-344.2" font-family="Helvetica,sans-Serif" font-size="11.00">source_id</text>
<polygon fill="none" stroke="black" points="554.5,-336 554.5,-358 675.5,-358 675.5,-336 554.5,-336"/>
<text text-anchor="start" x="557.5" y="-344.2" font-family="Helvetica,sans-Serif" font-size="11.00">int8[19]</text>
<polygon fill="#ffffff" stroke="none" points="412.5,-314 412.5,-336 554.5,-336 554.5,-314 412.5,-314"/>
<polygon fill="none" stroke="black" points="412.5,-314 412.5,-336 554.5,-336 554.5,-314 412.5,-314"/>
<text text-anchor="start" x="432.5" y="-322.2" font-family="Helvetica,sans-Serif" font-size="11.00">source_type</text>
<polygon fill="none" stroke="black" points="554.5,-314 554.5,-336 675.5,-336 675.5,-314 554.5,-314"/>
<text text-anchor="start" x="557.5" y="-322.2" font-family="Helvetica,sans-Serif" font-size="11.00">varchar[2147483647]</text>
<polygon fill="#ffffff" stroke="none" points="412.5,-292 412.5,-314 554.5,-314 554.5,-292 412.5,-292"/>
<polygon fill="none" stroke="black" points="412.5,-292 412.5,-314 554.5,-314 554.5,-292 412.5,-292"/>
<text text-anchor="start" x="432.5" y="-300.2" font-family="Helvetica,sans-Serif" font-size="11.00">destination_id</text>
<polygon fill="none" stroke="black" points="554.5,-292 554.5,-314 675.5,-314 675.5,-292 554.5,-292"/>
<text text-anchor="start" x="557.5" y="-300.2" font-family="Helvetica,sans-Serif" font-size="11.00">int8[19]</text>
<polygon fill="#ffffff" stroke="none" points="412.5,-270 412.5,-292 554.5,-292 554.5,-270 412.5,-270"/>
<polygon fill="none" stroke="black" points="412.5,-270 412.5,-292 554.5,-292 554.5,-270 412.5,-270"/>
<text text-anchor="start" x="432.5" y="-278.2" font-family="Helvetica,sans-Serif" font-size="11.00">destination_type</text>
<polygon fill="none" stroke="black" points="554.5,-270 554.5,-292 675.5,-292 675.5,-270 554.5,-270"/>
<text text-anchor="start" x="557.5" y="-278.2" font-family="Helvetica,sans-Serif" font-size="11.00">varchar[2147483647]</text>
<polygon fill="none" stroke="black" points="412.5,-248 412.5,-270 554.5,-270 554.5,-248 412.5,-248"/>
<image xlink:href="../../images/foreignKeys.png" width="11px" height="12px" preserveAspectRatio="xMinYMin meet" x="417.5" y="-265"/>
<text text-anchor="start" x="432.5" y="-256.2" font-family="Helvetica,sans-Serif" font-size="11.00">miq_request_task_id</text>
<polygon fill="none" stroke="black" points="554.5,-248 554.5,-270 675.5,-270 675.5,-248 554.5,-248"/>
<text text-anchor="start" x="557.5" y="-256.2" font-family="Helvetica,sans-Serif" font-size="11.00">int8[19]</text>
<polygon fill="none" stroke="black" points="412.5,-226 412.5,-248 554.5,-248 554.5,-226 412.5,-226"/>
<text text-anchor="start" x="432.5" y="-234.2" font-family="Helvetica,sans-Serif" font-size="11.00">phase</text>
<polygon fill="none" stroke="black" points="554.5,-226 554.5,-248 675.5,-248 675.5,-226 554.5,-226"/>
<text text-anchor="start" x="557.5" y="-234.2" font-family="Helvetica,sans-Serif" font-size="11.00">varchar[2147483647]</text>
<polygon fill="none" stroke="black" points="412.5,-204 412.5,-226 554.5,-226 554.5,-204 412.5,-204"/>
<text text-anchor="start" x="432.5" y="-212.2" font-family="Helvetica,sans-Serif" font-size="11.00">phase_context</text>
<polygon fill="none" stroke="black" points="554.5,-204 554.5,-226 675.5,-226 675.5,-204 554.5,-204"/>
<text text-anchor="start" x="557.5" y="-212.2" font-family="Helvetica,sans-Serif" font-size="11.00">text[2147483647]</text>
<polygon fill="none" stroke="black" points="412.5,-182 412.5,-204 554.5,-204 554.5,-182 412.5,-182"/>
<image xlink:href="../../images/foreignKeys.png" width="11px" height="12px" preserveAspectRatio="xMinYMin meet" x="417.5" y="-199"/>
<text text-anchor="start" x="432.5" y="-190.2" font-family="Helvetica,sans-Serif" font-size="11.00">tenant_id</text>
<polygon fill="none" stroke="black" points="554.5,-182 554.5,-204 675.5,-204 675.5,-182 554.5,-182"/>
<text text-anchor="start" x="557.5" y="-190.2" font-family="Helvetica,sans-Serif" font-size="11.00">int8[19]</text>
<polygon fill="none" stroke="black" points="412.5,-160 412.5,-182 554.5,-182 554.5,-160 412.5,-160"/>
<text text-anchor="start" x="432.5" y="-168.2" font-family="Helvetica,sans-Serif" font-size="11.00">cancelation_status</text>
<polygon fill="none" stroke="black" points="554.5,-160 554.5,-182 675.5,-182 675.5,-160 554.5,-160"/>
<text text-anchor="start" x="557.5" y="-168.2" font-family="Helvetica,sans-Serif" font-size="11.00">varchar[2147483647]</text>
<polygon fill="none" stroke="black" points="412.5,-138 412.5,-160 554.5,-160 554.5,-138 412.5,-138"/>
<text text-anchor="start" x="432.5" y="-146.2" font-family="Helvetica,sans-Serif" font-size="11.00">conversion_host_id</text>
<polygon fill="none" stroke="black" points="554.5,-138 554.5,-160 675.5,-160 675.5,-138 554.5,-138"/>
<text text-anchor="start" x="557.5" y="-146.2" font-family="Helvetica,sans-Serif" font-size="11.00">int8[19]</text>
<polygon fill="#ffffff" stroke="none" points="412.5,-120 412.5,-138 488.5,-138 488.5,-120 412.5,-120"/>
<polygon fill="none" stroke="black" points="412.5,-120 412.5,-138 488.5,-138 488.5,-120 412.5,-120"/>
<text text-anchor="start" x="415.5" y="-126.2" font-family="Helvetica,sans-Serif" font-size="11.00">&lt; 3</text>
<polygon fill="#ffffff" stroke="none" points="488.5,-120 488.5,-138 554.5,-138 554.5,-120 488.5,-120"/>
<polygon fill="none" stroke="black" points="488.5,-120 488.5,-138 554.5,-138 554.5,-120 488.5,-120"/>
<text text-anchor="start" x="544.5" y="-126.2" font-family="Helvetica,sans-Serif" font-size="11.00"> &#160;</text>
<polygon fill="#ffffff" stroke="none" points="554.5,-120 554.5,-138 675.5,-138 675.5,-120 554.5,-120"/>
<polygon fill="none" stroke="black" points="554.5,-120 554.5,-138 675.5,-138 675.5,-120 554.5,-120"/>
<text text-anchor="start" x="655.5" y="-126.2" font-family="Helvetica,sans-Serif" font-size="11.00">1 &gt;</text>
<polygon fill="none" stroke="black" stroke-width="2" points="411,-119 411,-645 676,-645 676,-119 411,-119"/>
</a>
</g>
</g>
<!-- miq_request_tasks&#45;&gt;miq_request_tasks -->
<g id="edge2" class="edge"><title>miq_request_tasks:miq_request_task_id:w&#45;&gt;miq_request_tasks:id.type:e</title>
<path fill="none" stroke="black" d="M405.193,-271.583C350.826,-377.602 358.437,-663 544,-663 737.5,-663 737.5,-654.333 675.5,-611"/>
<polygon fill="black" stroke="black" points="408.482,-265.918 415.613,-260.808 410.491,-262.459 412.5,-259 412.5,-259 412.5,-259 410.491,-262.459 409.387,-257.192 408.482,-265.918 408.482,-265.918"/>
<ellipse fill="none" stroke="black" cx="406.875" cy="-268.685" rx="3.20001" ry="3.20001"/>
</g>
<!-- miq_requests -->
<g id="node2" class="node"><title>miq_requests</title>
<g id="a_node2"><a xlink:href="../../tables/miq_requests.html" xlink:title="miq_requests" target="_top">
<polygon fill="#ffffff" stroke="none" points="228,-160 228,-460 361,-460 361,-160 228,-160"/>
<polygon fill="#f5f5f5" stroke="none" points="228.5,-438 228.5,-460 361.5,-460 361.5,-438 228.5,-438"/>
<polygon fill="none" stroke="black" points="228.5,-438 228.5,-460 361.5,-460 361.5,-438 228.5,-438"/>
<text text-anchor="start" x="233.5" y="-447.2" font-family="Helvetica,sans-Serif" font-weight="bold" font-size="11.00">miq_requests</text>
<text text-anchor="start" x="322.5" y="-446.2" font-family="Helvetica,sans-Serif" font-size="11.00">[table]</text>
<polygon fill="none" stroke="black" points="228.5,-416 228.5,-438 361.5,-438 361.5,-416 228.5,-416"/>
<image xlink:href="../../images/primaryKeys.png" width="11px" height="12px" preserveAspectRatio="xMinYMin meet" x="233.5" y="-433"/>
<text text-anchor="start" x="248.5" y="-424.2" font-family="Helvetica,sans-Serif" font-size="11.00">id</text>
<polygon fill="#ffffff" stroke="none" points="228.5,-394 228.5,-416 361.5,-416 361.5,-394 228.5,-394"/>
<polygon fill="none" stroke="black" points="228.5,-394 228.5,-416 361.5,-416 361.5,-394 228.5,-394"/>
<text text-anchor="start" x="248.5" y="-402.2" font-family="Helvetica,sans-Serif" font-size="11.00">approval_state</text>
<polygon fill="#ffffff" stroke="none" points="228.5,-372 228.5,-394 361.5,-394 361.5,-372 228.5,-372"/>
<polygon fill="none" stroke="black" points="228.5,-372 228.5,-394 361.5,-394 361.5,-372 228.5,-372"/>
<text text-anchor="start" x="248.5" y="-380.2" font-family="Helvetica,sans-Serif" font-size="11.00">type</text>
<polygon fill="#ffffff" stroke="none" points="228.5,-350 228.5,-372 361.5,-372 361.5,-350 228.5,-350"/>
<polygon fill="none" stroke="black" points="228.5,-350 228.5,-372 361.5,-372 361.5,-350 228.5,-350"/>
<text text-anchor="start" x="248.5" y="-358.2" font-family="Helvetica,sans-Serif" font-size="11.00">requester_id</text>
<polygon fill="#ffffff" stroke="none" points="228.5,-328 228.5,-350 361.5,-350 361.5,-328 228.5,-328"/>
<polygon fill="none" stroke="black" points="228.5,-328 228.5,-350 361.5,-350 361.5,-328 228.5,-328"/>
<text text-anchor="start" x="248.5" y="-336.2" font-family="Helvetica,sans-Serif" font-size="11.00">source_id</text>
<polygon fill="#ffffff" stroke="none" points="228.5,-306 228.5,-328 361.5,-328 361.5,-306 228.5,-306"/>
<polygon fill="none" stroke="black" points="228.5,-306 228.5,-328 361.5,-328 361.5,-306 228.5,-306"/>
<text text-anchor="start" x="248.5" y="-314.2" font-family="Helvetica,sans-Serif" font-size="11.00">source_type</text>
<polygon fill="#ffffff" stroke="none" points="228.5,-284 228.5,-306 361.5,-306 361.5,-284 228.5,-284"/>
<polygon fill="none" stroke="black" points="228.5,-284 228.5,-306 361.5,-306 361.5,-284 228.5,-284"/>
<text text-anchor="start" x="248.5" y="-292.2" font-family="Helvetica,sans-Serif" font-size="11.00">destination_id</text>
<polygon fill="#ffffff" stroke="none" points="228.5,-262 228.5,-284 361.5,-284 361.5,-262 228.5,-262"/>
<polygon fill="none" stroke="black" points="228.5,-262 228.5,-284 361.5,-284 361.5,-262 228.5,-262"/>
<text text-anchor="start" x="248.5" y="-270.2" font-family="Helvetica,sans-Serif" font-size="11.00">destination_type</text>
<polygon fill="#ffffff" stroke="none" points="228.5,-240 228.5,-262 361.5,-262 361.5,-240 228.5,-240"/>
<polygon fill="none" stroke="black" points="228.5,-240 228.5,-262 361.5,-262 361.5,-240 228.5,-240"/>
<image xlink:href="../../images/foreignKeys.png" width="11px" height="12px" preserveAspectRatio="xMinYMin meet" x="233.5" y="-257"/>
<text text-anchor="start" x="248.5" y="-248.2" font-family="Helvetica,sans-Serif" font-size="11.00">tenant_id</text>
<polygon fill="none" stroke="black" points="228.5,-218 228.5,-240 361.5,-240 361.5,-218 228.5,-218"/>
<image xlink:href="../../images/foreignKeys.png" width="11px" height="12px" preserveAspectRatio="xMinYMin meet" x="233.5" y="-235"/>
<text text-anchor="start" x="248.5" y="-226.2" font-family="Helvetica,sans-Serif" font-size="11.00">service_order_id</text>
<polygon fill="#ffffff" stroke="none" points="228.5,-196 228.5,-218 361.5,-218 361.5,-196 228.5,-196"/>
<polygon fill="none" stroke="black" points="228.5,-196 228.5,-218 361.5,-218 361.5,-196 228.5,-196"/>
<text text-anchor="start" x="248.5" y="-204.2" font-family="Helvetica,sans-Serif" font-size="11.00">parent_id</text>
<polygon fill="none" stroke="black" points="228.5,-178 228.5,-196 361.5,-196 361.5,-178 228.5,-178"/>
<text text-anchor="start" x="231.5" y="-184.2" font-family="Helvetica,sans-Serif" font-size="11.00">...</text>
<polygon fill="#ffffff" stroke="none" points="228.5,-160 228.5,-178 288.5,-178 288.5,-160 228.5,-160"/>
<polygon fill="none" stroke="black" points="228.5,-160 228.5,-178 288.5,-178 288.5,-160 228.5,-160"/>
<text text-anchor="start" x="231.5" y="-166.2" font-family="Helvetica,sans-Serif" font-size="11.00">&lt; 2</text>
<polygon fill="#ffffff" stroke="none" points="288.5,-160 288.5,-178 319.5,-178 319.5,-160 288.5,-160"/>
<polygon fill="none" stroke="black" points="288.5,-160 288.5,-178 319.5,-178 319.5,-160 288.5,-160"/>
<text text-anchor="start" x="309.5" y="-166.2" font-family="Helvetica,sans-Serif" font-size="11.00"> &#160;</text>
<polygon fill="#ffffff" stroke="none" points="319.5,-160 319.5,-178 361.5,-178 361.5,-160 319.5,-160"/>
<polygon fill="none" stroke="black" points="319.5,-160 319.5,-178 361.5,-178 361.5,-160 319.5,-160"/>
<text text-anchor="start" x="341.5" y="-166.2" font-family="Helvetica,sans-Serif" font-size="11.00">2 &gt;</text>
</a>
</g>
</g>
<!-- miq_request_tasks&#45;&gt;miq_requests -->
<g id="edge1" class="edge"><title>miq_request_tasks:miq_request_id:w&#45;&gt;miq_requests:id:e</title>
<path fill="none" stroke="black" d="M397.763,-373.945C382.713,-387.971 390.182,-427 362.5,-427"/>
<polygon fill="black" stroke="black" points="403.973,-371.71 412.719,-372.387 407.736,-370.355 411.5,-369 411.5,-369 411.5,-369 407.736,-370.355 410.281,-365.613 403.973,-371.71 403.973,-371.71"/>
<ellipse fill="none" stroke="black" cx="400.962" cy="-372.793" rx="3.20001" ry="3.20001"/>
</g>
<!-- tenants -->
<g id="node3" class="node"><title>tenants</title>
<g id="a_node3"><a xlink:href="../../tables/tenants.html" xlink:title="tenants" target="_top">
<polygon fill="#ffffff" stroke="none" points="8,-37 8,-227 179,-227 179,-37 8,-37"/>
<polygon fill="#f5f5f5" stroke="none" points="8.5,-205 8.5,-227 179.5,-227 179.5,-205 8.5,-205"/>
<polygon fill="none" stroke="black" points="8.5,-205 8.5,-227 179.5,-227 179.5,-205 8.5,-205"/>
<text text-anchor="start" x="13.5" y="-214.2" font-family="Helvetica,sans-Serif" font-weight="bold" font-size="11.00">tenants</text>
<text text-anchor="start" x="140.5" y="-213.2" font-family="Helvetica,sans-Serif" font-size="11.00">[table]</text>
<polygon fill="none" stroke="black" points="8.5,-183 8.5,-205 179.5,-205 179.5,-183 8.5,-183"/>
<image xlink:href="../../images/primaryKeys.png" width="11px" height="12px" preserveAspectRatio="xMinYMin meet" x="13.5" y="-200"/>
<text text-anchor="start" x="28.5" y="-191.2" font-family="Helvetica,sans-Serif" font-size="11.00">id</text>
<polygon fill="#ffffff" stroke="none" points="8.5,-161 8.5,-183 179.5,-183 179.5,-161 8.5,-161"/>
<polygon fill="none" stroke="black" points="8.5,-161 8.5,-183 179.5,-183 179.5,-161 8.5,-161"/>
<text text-anchor="start" x="28.5" y="-169.2" font-family="Helvetica,sans-Serif" font-size="11.00">domain</text>
<polygon fill="#ffffff" stroke="none" points="8.5,-139 8.5,-161 179.5,-161 179.5,-139 8.5,-139"/>
<polygon fill="none" stroke="black" points="8.5,-139 8.5,-161 179.5,-161 179.5,-139 8.5,-139"/>
<text text-anchor="start" x="28.5" y="-147.2" font-family="Helvetica,sans-Serif" font-size="11.00">subdomain</text>
<polygon fill="#ffffff" stroke="none" points="8.5,-117 8.5,-139 179.5,-139 179.5,-117 8.5,-117"/>
<polygon fill="none" stroke="black" points="8.5,-117 8.5,-139 179.5,-139 179.5,-117 8.5,-117"/>
<text text-anchor="start" x="28.5" y="-125.2" font-family="Helvetica,sans-Serif" font-size="11.00">ancestry</text>
<polygon fill="#ffffff" stroke="none" points="8.5,-95 8.5,-117 179.5,-117 179.5,-95 8.5,-95"/>
<polygon fill="none" stroke="black" points="8.5,-95 8.5,-117 179.5,-117 179.5,-95 8.5,-95"/>
<text text-anchor="start" x="28.5" y="-103.2" font-family="Helvetica,sans-Serif" font-size="11.00">source_type</text>
<polygon fill="#ffffff" stroke="none" points="8.5,-73 8.5,-95 179.5,-95 179.5,-73 8.5,-73"/>
<polygon fill="none" stroke="black" points="8.5,-73 8.5,-95 179.5,-95 179.5,-73 8.5,-73"/>
<text text-anchor="start" x="28.5" y="-81.2" font-family="Helvetica,sans-Serif" font-size="11.00">source_id</text>
<polygon fill="none" stroke="black" points="8.5,-55 8.5,-73 179.5,-73 179.5,-55 8.5,-55"/>
<text text-anchor="start" x="11.5" y="-61.2" font-family="Helvetica,sans-Serif" font-size="11.00">...</text>
<polygon fill="#ffffff" stroke="none" points="8.5,-37 8.5,-55 78.5,-55 78.5,-37 8.5,-37"/>
<polygon fill="none" stroke="black" points="8.5,-37 8.5,-55 78.5,-55 78.5,-37 8.5,-37"/>
<text text-anchor="start" x="11.5" y="-43.2" font-family="Helvetica,sans-Serif" font-size="11.00"> &#160;</text>
<polygon fill="#ffffff" stroke="none" points="78.5,-37 78.5,-55 120.5,-55 120.5,-37 78.5,-37"/>
<polygon fill="none" stroke="black" points="78.5,-37 78.5,-55 120.5,-55 120.5,-37 78.5,-37"/>
<text text-anchor="start" x="110.5" y="-43.2" font-family="Helvetica,sans-Serif" font-size="11.00"> &#160;</text>
<polygon fill="#ffffff" stroke="none" points="120.5,-37 120.5,-55 179.5,-55 179.5,-37 120.5,-37"/>
<polygon fill="none" stroke="black" points="120.5,-37 120.5,-55 179.5,-55 179.5,-37 120.5,-37"/>
<text text-anchor="start" x="152.5" y="-43.2" font-family="Helvetica,sans-Serif" font-size="11.00">20 &gt;</text>
</a>
</g>
</g>
<!-- miq_request_tasks&#45;&gt;tenants -->
<g id="edge3" class="edge"><title>miq_request_tasks:tenant_id:w&#45;&gt;tenants:id:e</title>
<path fill="none" stroke="black" d="M397.542,-188.222C386.957,-178.604 388.162,-157.132 369,-149 308.041,-123.128 280.326,-121.683 220,-149 195.758,-159.977 207.112,-194 180.5,-194"/>
<polygon fill="black" stroke="black" points="403.931,-190.409 410.334,-196.406 407.716,-191.705 411.5,-193 411.5,-193 411.5,-193 407.716,-191.705 412.666,-189.594 403.931,-190.409 403.931,-190.409"/>
<ellipse fill="none" stroke="black" cx="400.904" cy="-189.373" rx="3.20001" ry="3.20001"/>
</g>
<!-- miq_requests&#45;&gt;tenants -->
<g id="edge4" class="edge"><title>miq_requests:tenant_id:w&#45;&gt;tenants:id:e</title>
<path fill="none" stroke="black" d="M213.784,-245.74C199.856,-231.629 207.178,-194 180.5,-194"/>
<polygon fill="black" stroke="black" points="220.03,-248.135 226.211,-254.361 223.765,-249.568 227.5,-251 227.5,-251 227.5,-251 223.765,-249.568 228.789,-247.639 220.03,-248.135 220.03,-248.135"/>
<ellipse fill="none" stroke="black" cx="217.043" cy="-246.99" rx="3.20001" ry="3.20001"/>
</g>
</g>
</svg>
