<?xml version="1.0" encoding="UTF-8" standalone="no"?>
<!DOCTYPE svg PUBLIC "-//W3C//DTD SVG 1.1//EN"
 "http://www.w3.org/Graphics/SVG/1.1/DTD/svg11.dtd">
<!-- Generated by graphviz version 2.38.0 (20140413.2041)
 -->
<!-- Title: oneDegreeRelationshipsDiagram Pages: 1 -->
<svg width="516pt" height="599pt"
 viewBox="0.00 0.00 516.00 599.00" xmlns="http://www.w3.org/2000/svg" xmlns:xlink="http://www.w3.org/1999/xlink">
<g id="graph0" class="graph" transform="scale(1 1) rotate(0) translate(4 595)">
<title>oneDegreeRelationshipsDiagram</title>
<polygon fill="#ffffff" stroke="none" points="-4,4 -4,-595 512,-595 512,4 -4,4"/>
<text text-anchor="middle" x="74.5" y="-7.2" font-family="Helvetica,sans-Serif" font-size="11.00">Generated by SchemaSpy</text>
<!-- miq_ae_namespaces -->
<g id="node1" class="node"><title>miq_ae_namespaces</title>
<g id="a_node1"><a xlink:href="../../tables/miq_ae_namespaces.html" xlink:title="miq_ae_namespaces" target="_top">
<polygon fill="#ffffff" stroke="none" points="228,-37 228,-587 500,-587 500,-37 228,-37"/>
<polygon fill="#f5f5f5" stroke="none" points="230,-563 230,-585 498,-585 498,-563 230,-563"/>
<polygon fill="none" stroke="black" points="230,-563 230,-585 498,-585 498,-563 230,-563"/>
<text text-anchor="start" x="235" y="-572.2" font-family="Helvetica,sans-Serif" font-weight="bold" font-size="11.00">miq_ae_namespaces</text>
<text text-anchor="start" x="459" y="-571.2" font-family="Helvetica,sans-Serif" font-size="11.00">[table]</text>
<polygon fill="none" stroke="black" points="230,-541 230,-563 377,-563 377,-541 230,-541"/>
<image xlink:href="../../images/primaryKeys.png" width="11px" height="12px" preserveAspectRatio="xMinYMin meet" x="235" y="-558"/>
<text text-anchor="start" x="250" y="-549.2" font-family="Helvetica,sans-Serif" font-size="11.00">id</text>
<polygon fill="none" stroke="black" points="377,-541 377,-563 498,-563 498,-541 377,-541"/>
<text text-anchor="start" x="380" y="-549.2" font-family="Helvetica,sans-Serif" font-size="11.00">bigserial[19]</text>
<polygon fill="none" stroke="black" points="230,-519 230,-541 377,-541 377,-519 230,-519"/>
<text text-anchor="start" x="250" y="-527.2" font-family="Helvetica,sans-Serif" font-size="11.00">name</text>
<polygon fill="none" stroke="black" points="377,-519 377,-541 498,-541 498,-519 377,-519"/>
<text text-anchor="start" x="380" y="-527.2" font-family="Helvetica,sans-Serif" font-size="11.00">varchar[2147483647]</text>
<polygon fill="none" stroke="black" points="230,-497 230,-519 377,-519 377,-497 230,-497"/>
<text text-anchor="start" x="250" y="-505.2" font-family="Helvetica,sans-Serif" font-size="11.00">created_on</text>
<polygon fill="none" stroke="black" points="377,-497 377,-519 498,-519 498,-497 377,-497"/>
<text text-anchor="start" x="380" y="-505.2" font-family="Helvetica,sans-Serif" font-size="11.00">timestamp[29,6]</text>
<polygon fill="none" stroke="black" points="230,-475 230,-497 377,-497 377,-475 230,-475"/>
<text text-anchor="start" x="250" y="-483.2" font-family="Helvetica,sans-Serif" font-size="11.00">updated_on</text>
<polygon fill="none" stroke="black" points="377,-475 377,-497 498,-497 498,-475 377,-475"/>
<text text-anchor="start" x="380" y="-483.2" font-family="Helvetica,sans-Serif" font-size="11.00">timestamp[29,6]</text>
<polygon fill="none" stroke="black" points="230,-453 230,-475 377,-475 377,-453 230,-453"/>
<text text-anchor="start" x="250" y="-461.2" font-family="Helvetica,sans-Serif" font-size="11.00">description</text>
<polygon fill="none" stroke="black" points="377,-453 377,-475 498,-475 498,-453 377,-453"/>
<text text-anchor="start" x="380" y="-461.2" font-family="Helvetica,sans-Serif" font-size="11.00">text[2147483647]</text>
<polygon fill="none" stroke="black" points="230,-431 230,-453 377,-453 377,-431 230,-431"/>
<text text-anchor="start" x="250" y="-439.2" font-family="Helvetica,sans-Serif" font-size="11.00">display_name</text>
<polygon fill="none" stroke="black" points="377,-431 377,-453 498,-453 498,-431 377,-431"/>
<text text-anchor="start" x="380" y="-439.2" font-family="Helvetica,sans-Serif" font-size="11.00">varchar[2147483647]</text>
<polygon fill="none" stroke="black" points="230,-409 230,-431 377,-431 377,-409 230,-409"/>
<text text-anchor="start" x="250" y="-417.2" font-family="Helvetica,sans-Serif" font-size="11.00">updated_by</text>
<polygon fill="none" stroke="black" points="377,-409 377,-431 498,-431 498,-409 377,-409"/>
<text text-anchor="start" x="380" y="-417.2" font-family="Helvetica,sans-Serif" font-size="11.00">varchar[2147483647]</text>
<polygon fill="#ffffff" stroke="none" points="230,-387 230,-409 377,-409 377,-387 230,-387"/>
<polygon fill="none" stroke="black" points="230,-387 230,-409 377,-409 377,-387 230,-387"/>
<text text-anchor="start" x="250" y="-395.2" font-family="Helvetica,sans-Serif" font-size="11.00">updated_by_user_id</text>
<polygon fill="none" stroke="black" points="377,-387 377,-409 498,-409 498,-387 377,-387"/>
<text text-anchor="start" x="380" y="-395.2" font-family="Helvetica,sans-Serif" font-size="11.00">int8[19]</text>
<polygon fill="none" stroke="black" points="230,-365 230,-387 377,-387 377,-365 230,-365"/>
<text text-anchor="start" x="250" y="-373.2" font-family="Helvetica,sans-Serif" font-size="11.00">priority</text>
<polygon fill="none" stroke="black" points="377,-365 377,-387 498,-387 498,-365 377,-365"/>
<text text-anchor="start" x="380" y="-373.2" font-family="Helvetica,sans-Serif" font-size="11.00">int4[10]</text>
<polygon fill="none" stroke="black" points="230,-343 230,-365 377,-365 377,-343 230,-343"/>
<text text-anchor="start" x="250" y="-351.2" font-family="Helvetica,sans-Serif" font-size="11.00">enabled</text>
<polygon fill="none" stroke="black" points="377,-343 377,-365 498,-365 498,-343 377,-343"/>
<text text-anchor="start" x="380" y="-351.2" font-family="Helvetica,sans-Serif" font-size="11.00">bool[1]</text>
<polygon fill="none" stroke="black" points="230,-321 230,-343 377,-343 377,-321 230,-321"/>
<image xlink:href="../../images/foreignKeys.png" width="11px" height="12px" preserveAspectRatio="xMinYMin meet" x="235" y="-338"/>
<text text-anchor="start" x="250" y="-329.2" font-family="Helvetica,sans-Serif" font-size="11.00">tenant_id</text>
<polygon fill="none" stroke="black" points="377,-321 377,-343 498,-343 498,-321 377,-321"/>
<text text-anchor="start" x="380" y="-329.2" font-family="Helvetica,sans-Serif" font-size="11.00">int8[19]</text>
<polygon fill="none" stroke="black" points="230,-299 230,-321 377,-321 377,-299 230,-299"/>
<text text-anchor="start" x="250" y="-307.2" font-family="Helvetica,sans-Serif" font-size="11.00">commit_sha</text>
<polygon fill="none" stroke="black" points="377,-299 377,-321 498,-321 498,-299 377,-299"/>
<text text-anchor="start" x="380" y="-307.2" font-family="Helvetica,sans-Serif" font-size="11.00">varchar[2147483647]</text>
<polygon fill="none" stroke="black" points="230,-277 230,-299 377,-299 377,-277 230,-277"/>
<text text-anchor="start" x="250" y="-285.2" font-family="Helvetica,sans-Serif" font-size="11.00">commit_time</text>
<polygon fill="none" stroke="black" points="377,-277 377,-299 498,-299 498,-277 377,-277"/>
<text text-anchor="start" x="380" y="-285.2" font-family="Helvetica,sans-Serif" font-size="11.00">timestamp[29,6]</text>
<polygon fill="none" stroke="black" points="230,-255 230,-277 377,-277 377,-255 230,-255"/>
<text text-anchor="start" x="250" y="-263.2" font-family="Helvetica,sans-Serif" font-size="11.00">commit_message</text>
<polygon fill="none" stroke="black" points="377,-255 377,-277 498,-277 498,-255 377,-255"/>
<text text-anchor="start" x="380" y="-263.2" font-family="Helvetica,sans-Serif" font-size="11.00">text[2147483647]</text>
<polygon fill="none" stroke="black" points="230,-233 230,-255 377,-255 377,-233 230,-233"/>
<image xlink:href="../../images/foreignKeys.png" width="11px" height="12px" preserveAspectRatio="xMinYMin meet" x="235" y="-250"/>
<text text-anchor="start" x="250" y="-241.2" font-family="Helvetica,sans-Serif" font-size="11.00">git_repository_id</text>
<polygon fill="none" stroke="black" points="377,-233 377,-255 498,-255 498,-233 377,-233"/>
<text text-anchor="start" x="380" y="-241.2" font-family="Helvetica,sans-Serif" font-size="11.00">int8[19]</text>
<polygon fill="none" stroke="black" points="230,-211 230,-233 377,-233 377,-211 230,-211"/>
<text text-anchor="start" x="250" y="-219.2" font-family="Helvetica,sans-Serif" font-size="11.00">ref</text>
<polygon fill="none" stroke="black" points="377,-211 377,-233 498,-233 498,-211 377,-211"/>
<text text-anchor="start" x="380" y="-219.2" font-family="Helvetica,sans-Serif" font-size="11.00">varchar[2147483647]</text>
<polygon fill="none" stroke="black" points="230,-189 230,-211 377,-211 377,-189 230,-189"/>
<text text-anchor="start" x="250" y="-197.2" font-family="Helvetica,sans-Serif" font-size="11.00">ref_type</text>
<polygon fill="none" stroke="black" points="377,-189 377,-211 498,-211 498,-189 377,-189"/>
<text text-anchor="start" x="380" y="-197.2" font-family="Helvetica,sans-Serif" font-size="11.00">varchar[2147483647]</text>
<polygon fill="none" stroke="black" points="230,-167 230,-189 377,-189 377,-167 230,-167"/>
<text text-anchor="start" x="250" y="-175.2" font-family="Helvetica,sans-Serif" font-size="11.00">last_import_on</text>
<polygon fill="none" stroke="black" points="377,-167 377,-189 498,-189 498,-167 377,-167"/>
<text text-anchor="start" x="380" y="-175.2" font-family="Helvetica,sans-Serif" font-size="11.00">timestamp[29,6]</text>
<polygon fill="none" stroke="black" points="230,-145 230,-167 377,-167 377,-145 230,-145"/>
<text text-anchor="start" x="250" y="-153.2" font-family="Helvetica,sans-Serif" font-size="11.00">source</text>
<polygon fill="none" stroke="black" points="377,-145 377,-167 498,-167 498,-145 377,-145"/>
<text text-anchor="start" x="380" y="-153.2" font-family="Helvetica,sans-Serif" font-size="11.00">varchar[2147483647]</text>
<polygon fill="none" stroke="black" points="230,-123 230,-145 377,-145 377,-123 230,-123"/>
<text text-anchor="start" x="250" y="-131.2" font-family="Helvetica,sans-Serif" font-size="11.00">top_level_namespace</text>
<polygon fill="none" stroke="black" points="377,-123 377,-145 498,-145 498,-123 377,-123"/>
<text text-anchor="start" x="380" y="-131.2" font-family="Helvetica,sans-Serif" font-size="11.00">varchar[2147483647]</text>
<polygon fill="#ffffff" stroke="none" points="230,-101 230,-123 377,-123 377,-101 230,-101"/>
<polygon fill="none" stroke="black" points="230,-101 230,-123 377,-123 377,-101 230,-101"/>
<text text-anchor="start" x="250" y="-109.2" font-family="Helvetica,sans-Serif" font-size="11.00">ancestry</text>
<polygon fill="none" stroke="black" points="377,-101 377,-123 498,-123 498,-101 377,-101"/>
<text text-anchor="start" x="380" y="-109.2" font-family="Helvetica,sans-Serif" font-size="11.00">varchar[2147483647]</text>
<polygon fill="none" stroke="black" points="230,-79 230,-101 377,-101 377,-79 230,-79"/>
<text text-anchor="start" x="250" y="-87.2" font-family="Helvetica,sans-Serif" font-size="11.00">domain_id</text>
<polygon fill="none" stroke="black" points="377,-79 377,-101 498,-101 498,-79 377,-79"/>
<text text-anchor="start" x="380" y="-87.2" font-family="Helvetica,sans-Serif" font-size="11.00">int8[19]</text>
<polygon fill="#ffffff" stroke="none" points="230,-57 230,-79 377,-79 377,-57 230,-57"/>
<polygon fill="none" stroke="black" points="230,-57 230,-79 377,-79 377,-57 230,-57"/>
<text text-anchor="start" x="250" y="-65.2" font-family="Helvetica,sans-Serif" font-size="11.00">relative_path</text>
<polygon fill="none" stroke="black" points="377,-57 377,-79 498,-79 498,-57 377,-57"/>
<text text-anchor="start" x="380" y="-65.2" font-family="Helvetica,sans-Serif" font-size="11.00">varchar[2147483647]</text>
<polygon fill="#ffffff" stroke="none" points="230,-39 230,-57 308,-57 308,-39 230,-39"/>
<polygon fill="none" stroke="black" points="230,-39 230,-57 308,-57 308,-39 230,-39"/>
<text text-anchor="start" x="233" y="-45.2" font-family="Helvetica,sans-Serif" font-size="11.00">&lt; 2</text>
<polygon fill="#ffffff" stroke="none" points="308,-39 308,-57 377,-57 377,-39 308,-39"/>
<polygon fill="none" stroke="black" points="308,-39 308,-57 377,-57 377,-39 308,-39"/>
<text text-anchor="start" x="367" y="-45.2" font-family="Helvetica,sans-Serif" font-size="11.00"> &#160;</text>
<polygon fill="#ffffff" stroke="none" points="377,-39 377,-57 498,-57 498,-39 377,-39"/>
<polygon fill="none" stroke="black" points="377,-39 377,-57 498,-57 498,-39 377,-39"/>
<text text-anchor="start" x="478" y="-45.2" font-family="Helvetica,sans-Serif" font-size="11.00">0 &gt;</text>
<polygon fill="none" stroke="black" stroke-width="2" points="229,-38 229,-586 499,-586 499,-38 229,-38"/>
</a>
</g>
</g>
<!-- git_repositories -->
<g id="node2" class="node"><title>git_repositories</title>
<g id="a_node2"><a xlink:href="../../tables/git_repositories.html" xlink:title="git_repositories" target="_top">
<polygon fill="#ffffff" stroke="none" points="25.5,-114 25.5,-216 161.5,-216 161.5,-114 25.5,-114"/>
<polygon fill="#f5f5f5" stroke="none" points="25.5,-194 25.5,-216 161.5,-216 161.5,-194 25.5,-194"/>
<polygon fill="none" stroke="black" points="25.5,-194 25.5,-216 161.5,-216 161.5,-194 25.5,-194"/>
<text text-anchor="start" x="30.5" y="-203.2" font-family="Helvetica,sans-Serif" font-weight="bold" font-size="11.00">git_repositories</text>
<text text-anchor="start" x="122.5" y="-202.2" font-family="Helvetica,sans-Serif" font-size="11.00">[table]</text>
<polygon fill="none" stroke="black" points="25.5,-172 25.5,-194 161.5,-194 161.5,-172 25.5,-172"/>
<image xlink:href="../../images/primaryKeys.png" width="11px" height="12px" preserveAspectRatio="xMinYMin meet" x="30.5" y="-189"/>
<text text-anchor="start" x="50.5" y="-180.2" font-family="Helvetica,sans-Serif" font-size="11.00">id</text>
<polygon fill="none" stroke="black" points="25.5,-150 25.5,-172 161.5,-172 161.5,-150 25.5,-150"/>
<image xlink:href="../../images/foreignKeys.png" width="11px" height="12px" preserveAspectRatio="xMinYMin meet" x="30.5" y="-167"/>
<text text-anchor="start" x="50.5" y="-158.2" font-family="Helvetica,sans-Serif" font-size="11.00">authentication_id</text>
<polygon fill="none" stroke="black" points="25.5,-132 25.5,-150 161.5,-150 161.5,-132 25.5,-132"/>
<text text-anchor="start" x="28.5" y="-138.2" font-family="Helvetica,sans-Serif" font-size="11.00">...</text>
<polygon fill="#ffffff" stroke="none" points="25.5,-114 25.5,-132 86.5,-132 86.5,-114 25.5,-114"/>
<polygon fill="none" stroke="black" points="25.5,-114 25.5,-132 86.5,-132 86.5,-114 25.5,-114"/>
<text text-anchor="start" x="28.5" y="-120.2" font-family="Helvetica,sans-Serif" font-size="11.00">&lt; 1</text>
<polygon fill="#ffffff" stroke="none" points="86.5,-114 86.5,-132 118.5,-132 118.5,-114 86.5,-114"/>
<polygon fill="none" stroke="black" points="86.5,-114 86.5,-132 118.5,-132 118.5,-114 86.5,-114"/>
<text text-anchor="start" x="108.5" y="-120.2" font-family="Helvetica,sans-Serif" font-size="11.00"> &#160;</text>
<polygon fill="#ffffff" stroke="none" points="118.5,-114 118.5,-132 161.5,-132 161.5,-114 118.5,-114"/>
<polygon fill="none" stroke="black" points="118.5,-114 118.5,-132 161.5,-132 161.5,-114 118.5,-114"/>
<text text-anchor="start" x="141.5" y="-120.2" font-family="Helvetica,sans-Serif" font-size="11.00">3 &gt;</text>
</a>
</g>
</g>
<!-- miq_ae_namespaces&#45;&gt;git_repositories -->
<g id="edge1" class="edge"><title>miq_ae_namespaces:git_repository_id:w&#45;&gt;git_repositories:id:e</title>
<path fill="none" stroke="black" d="M214.974,-240.72C191.686,-228.05 196.967,-183 162.5,-183"/>
<polygon fill="black" stroke="black" points="221.21,-242.179 228.18,-247.505 225.105,-243.089 229,-244 229,-244 229,-244 225.105,-243.089 229.82,-240.495 221.21,-242.179 221.21,-242.179"/>
<ellipse fill="none" stroke="black" cx="218.094" cy="-241.45" rx="3.2" ry="3.2"/>
</g>
<!-- tenants -->
<g id="node3" class="node"><title>tenants</title>
<g id="a_node3"><a xlink:href="../../tables/tenants.html" xlink:title="tenants" target="_top">
<polygon fill="#ffffff" stroke="none" points="8,-237 8,-427 179,-427 179,-237 8,-237"/>
<polygon fill="#f5f5f5" stroke="none" points="8.5,-405 8.5,-427 179.5,-427 179.5,-405 8.5,-405"/>
<polygon fill="none" stroke="black" points="8.5,-405 8.5,-427 179.5,-427 179.5,-405 8.5,-405"/>
<text text-anchor="start" x="13.5" y="-414.2" font-family="Helvetica,sans-Serif" font-weight="bold" font-size="11.00">tenants</text>
<text text-anchor="start" x="140.5" y="-413.2" font-family="Helvetica,sans-Serif" font-size="11.00">[table]</text>
<polygon fill="none" stroke="black" points="8.5,-383 8.5,-405 179.5,-405 179.5,-383 8.5,-383"/>
<image xlink:href="../../images/primaryKeys.png" width="11px" height="12px" preserveAspectRatio="xMinYMin meet" x="13.5" y="-400"/>
<text text-anchor="start" x="28.5" y="-391.2" font-family="Helvetica,sans-Serif" font-size="11.00">id</text>
<polygon fill="#ffffff" stroke="none" points="8.5,-361 8.5,-383 179.5,-383 179.5,-361 8.5,-361"/>
<polygon fill="none" stroke="black" points="8.5,-361 8.5,-383 179.5,-383 179.5,-361 8.5,-361"/>
<text text-anchor="start" x="28.5" y="-369.2" font-family="Helvetica,sans-Serif" font-size="11.00">domain</text>
<polygon fill="#ffffff" stroke="none" points="8.5,-339 8.5,-361 179.5,-361 179.5,-339 8.5,-339"/>
<polygon fill="none" stroke="black" points="8.5,-339 8.5,-361 179.5,-361 179.5,-339 8.5,-339"/>
<text text-anchor="start" x="28.5" y="-347.2" font-family="Helvetica,sans-Serif" font-size="11.00">subdomain</text>
<polygon fill="#ffffff" stroke="none" points="8.5,-317 8.5,-339 179.5,-339 179.5,-317 8.5,-317"/>
<polygon fill="none" stroke="black" points="8.5,-317 8.5,-339 179.5,-339 179.5,-317 8.5,-317"/>
<text text-anchor="start" x="28.5" y="-325.2" font-family="Helvetica,sans-Serif" font-size="11.00">ancestry</text>
<polygon fill="#ffffff" stroke="none" points="8.5,-295 8.5,-317 179.5,-317 179.5,-295 8.5,-295"/>
<polygon fill="none" stroke="black" points="8.5,-295 8.5,-317 179.5,-317 179.5,-295 8.5,-295"/>
<text text-anchor="start" x="28.5" y="-303.2" font-family="Helvetica,sans-Serif" font-size="11.00">source_type</text>
<polygon fill="#ffffff" stroke="none" points="8.5,-273 8.5,-295 179.5,-295 179.5,-273 8.5,-273"/>
<polygon fill="none" stroke="black" points="8.5,-273 8.5,-295 179.5,-295 179.5,-273 8.5,-273"/>
<text text-anchor="start" x="28.5" y="-281.2" font-family="Helvetica,sans-Serif" font-size="11.00">source_id</text>
<polygon fill="none" stroke="black" points="8.5,-255 8.5,-273 179.5,-273 179.5,-255 8.5,-255"/>
<text text-anchor="start" x="11.5" y="-261.2" font-family="Helvetica,sans-Serif" font-size="11.00">...</text>
<polygon fill="#ffffff" stroke="none" points="8.5,-237 8.5,-255 78.5,-255 78.5,-237 8.5,-237"/>
<polygon fill="none" stroke="black" points="8.5,-237 8.5,-255 78.5,-255 78.5,-237 8.5,-237"/>
<text text-anchor="start" x="11.5" y="-243.2" font-family="Helvetica,sans-Serif" font-size="11.00"> &#160;</text>
<polygon fill="#ffffff" stroke="none" points="78.5,-237 78.5,-255 120.5,-255 120.5,-237 78.5,-237"/>
<polygon fill="none" stroke="black" points="78.5,-237 78.5,-255 120.5,-255 120.5,-237 78.5,-237"/>
<text text-anchor="start" x="110.5" y="-243.2" font-family="Helvetica,sans-Serif" font-size="11.00"> &#160;</text>
<polygon fill="#ffffff" stroke="none" points="120.5,-237 120.5,-255 179.5,-255 179.5,-237 120.5,-237"/>
<polygon fill="none" stroke="black" points="120.5,-237 120.5,-255 179.5,-255 179.5,-237 120.5,-237"/>
<text text-anchor="start" x="152.5" y="-243.2" font-family="Helvetica,sans-Serif" font-size="11.00">20 &gt;</text>
</a>
</g>
</g>
<!-- miq_ae_namespaces&#45;&gt;tenants -->
<g id="edge2" class="edge"><title>miq_ae_namespaces:tenant_id:w&#45;&gt;tenants:id:e</title>
<path fill="none" stroke="black" d="M215.391,-336.865C199.728,-351.481 209.472,-394 180.5,-394"/>
<polygon fill="black" stroke="black" points="221.467,-334.693 230.212,-335.39 225.233,-333.346 229,-332 229,-332 229,-332 225.233,-333.346 227.788,-328.61 221.467,-334.693 221.467,-334.693"/>
<ellipse fill="none" stroke="black" cx="218.454" cy="-335.77" rx="3.20001" ry="3.20001"/>
</g>
</g>
</svg>
