<?xml version="1.0" encoding="UTF-8" standalone="no"?>
<!DOCTYPE svg PUBLIC "-//W3C//DTD SVG 1.1//EN"
 "http://www.w3.org/Graphics/SVG/1.1/DTD/svg11.dtd">
<!-- Generated by graphviz version 2.38.0 (20140413.2041)
 -->
<!-- Title: oneDegreeRelationshipsDiagram Pages: 1 -->
<svg width="464pt" height="676pt"
 viewBox="0.00 0.00 464.00 676.00" xmlns="http://www.w3.org/2000/svg" xmlns:xlink="http://www.w3.org/1999/xlink">
<g id="graph0" class="graph" transform="scale(1 1) rotate(0) translate(4 672)">
<title>oneDegreeRelationshipsDiagram</title>
<polygon fill="#ffffff" stroke="none" points="-4,4 -4,-672 460,-672 460,4 -4,4"/>
<text text-anchor="middle" x="74.5" y="-7.2" font-family="Helvetica,sans-Serif" font-size="11.00">Generated by SchemaSpy</text>
<!-- filesystems -->
<g id="node1" class="node"><title>filesystems</title>
<g id="a_node1"><a xlink:href="../../tables/filesystems.html" xlink:title="filesystems" target="_top">
<polygon fill="#ffffff" stroke="none" points="278.5,-474 278.5,-664 442.5,-664 442.5,-474 278.5,-474"/>
<polygon fill="#f5f5f5" stroke="none" points="278.5,-642 278.5,-664 442.5,-664 442.5,-642 278.5,-642"/>
<polygon fill="none" stroke="black" points="278.5,-642 278.5,-664 442.5,-664 442.5,-642 278.5,-642"/>
<text text-anchor="start" x="283.5" y="-651.2" font-family="Helvetica,sans-Serif" font-weight="bold" font-size="11.00">filesystems</text>
<text text-anchor="start" x="403.5" y="-650.2" font-family="Helvetica,sans-Serif" font-size="11.00">[table]</text>
<polygon fill="none" stroke="black" points="278.5,-620 278.5,-642 442.5,-642 442.5,-620 278.5,-620"/>
<image xlink:href="../../images/primaryKeys.png" width="11px" height="12px" preserveAspectRatio="xMinYMin meet" x="283.5" y="-637"/>
<text text-anchor="start" x="298.5" y="-628.2" font-family="Helvetica,sans-Serif" font-size="11.00">id</text>
<polygon fill="#ffffff" stroke="none" points="278.5,-598 278.5,-620 442.5,-620 442.5,-598 278.5,-598"/>
<polygon fill="none" stroke="black" points="278.5,-598 278.5,-620 442.5,-620 442.5,-598 278.5,-598"/>
<image xlink:href="../../images/foreignKeys.png" width="11px" height="12px" preserveAspectRatio="xMinYMin meet" x="283.5" y="-615"/>
<text text-anchor="start" x="298.5" y="-606.2" font-family="Helvetica,sans-Serif" font-size="11.00">miq_set_id</text>
<polygon fill="#ffffff" stroke="none" points="278.5,-576 278.5,-598 442.5,-598 442.5,-576 278.5,-576"/>
<polygon fill="none" stroke="black" points="278.5,-576 278.5,-598 442.5,-598 442.5,-576 278.5,-576"/>
<image xlink:href="../../images/foreignKeys.png" width="11px" height="12px" preserveAspectRatio="xMinYMin meet" x="283.5" y="-593"/>
<text text-anchor="start" x="298.5" y="-584.2" font-family="Helvetica,sans-Serif" font-size="11.00">scan_item_id</text>
<polygon fill="#ffffff" stroke="none" points="278.5,-554 278.5,-576 442.5,-576 442.5,-554 278.5,-554"/>
<polygon fill="none" stroke="black" points="278.5,-554 278.5,-576 442.5,-576 442.5,-554 278.5,-554"/>
<text text-anchor="start" x="298.5" y="-562.2" font-family="Helvetica,sans-Serif" font-size="11.00">resource_type</text>
<polygon fill="#ffffff" stroke="none" points="278.5,-532 278.5,-554 442.5,-554 442.5,-532 278.5,-532"/>
<polygon fill="none" stroke="black" points="278.5,-532 278.5,-554 442.5,-554 442.5,-532 278.5,-532"/>
<text text-anchor="start" x="298.5" y="-540.2" font-family="Helvetica,sans-Serif" font-size="11.00">resource_id</text>
<polygon fill="#ffffff" stroke="none" points="278.5,-510 278.5,-532 442.5,-532 442.5,-510 278.5,-510"/>
<polygon fill="none" stroke="black" points="278.5,-510 278.5,-532 442.5,-532 442.5,-510 278.5,-510"/>
<image xlink:href="../../images/foreignKeys.png" width="11px" height="12px" preserveAspectRatio="xMinYMin meet" x="283.5" y="-527"/>
<text text-anchor="start" x="298.5" y="-518.2" font-family="Helvetica,sans-Serif" font-size="11.00">host_service_group_id</text>
<polygon fill="none" stroke="black" points="278.5,-492 278.5,-510 442.5,-510 442.5,-492 278.5,-492"/>
<text text-anchor="start" x="281.5" y="-498.2" font-family="Helvetica,sans-Serif" font-size="11.00">...</text>
<polygon fill="#ffffff" stroke="none" points="278.5,-474 278.5,-492 358.5,-492 358.5,-474 278.5,-474"/>
<polygon fill="none" stroke="black" points="278.5,-474 278.5,-492 358.5,-492 358.5,-474 278.5,-474"/>
<text text-anchor="start" x="281.5" y="-480.2" font-family="Helvetica,sans-Serif" font-size="11.00">&lt; 3</text>
<polygon fill="#ffffff" stroke="none" points="358.5,-474 358.5,-492 400.5,-492 400.5,-474 358.5,-474"/>
<polygon fill="none" stroke="black" points="358.5,-474 358.5,-492 400.5,-492 400.5,-474 358.5,-474"/>
<text text-anchor="start" x="390.5" y="-480.2" font-family="Helvetica,sans-Serif" font-size="11.00"> &#160;</text>
<polygon fill="#ffffff" stroke="none" points="400.5,-474 400.5,-492 442.5,-492 442.5,-474 400.5,-474"/>
<polygon fill="none" stroke="black" points="400.5,-474 400.5,-492 442.5,-492 442.5,-474 400.5,-474"/>
<text text-anchor="start" x="432.5" y="-480.2" font-family="Helvetica,sans-Serif" font-size="11.00"> &#160;</text>
</a>
</g>
</g>
<!-- miq_sets -->
<g id="node2" class="node"><title>miq_sets</title>
<g id="a_node2"><a xlink:href="../../tables/miq_sets.html" xlink:title="miq_sets" target="_top">
<polygon fill="#ffffff" stroke="none" points="8,-37 8,-389 224,-389 224,-37 8,-37"/>
<polygon fill="#f5f5f5" stroke="none" points="10,-365 10,-387 222,-387 222,-365 10,-365"/>
<polygon fill="none" stroke="black" points="10,-365 10,-387 222,-387 222,-365 10,-365"/>
<text text-anchor="start" x="15" y="-374.2" font-family="Helvetica,sans-Serif" font-weight="bold" font-size="11.00">miq_sets</text>
<text text-anchor="start" x="183" y="-373.2" font-family="Helvetica,sans-Serif" font-size="11.00">[table]</text>
<polygon fill="none" stroke="black" points="10,-343 10,-365 101,-365 101,-343 10,-343"/>
<image xlink:href="../../images/primaryKeys.png" width="11px" height="12px" preserveAspectRatio="xMinYMin meet" x="15" y="-360"/>
<text text-anchor="start" x="30" y="-351.2" font-family="Helvetica,sans-Serif" font-size="11.00">id</text>
<polygon fill="none" stroke="black" points="101,-343 101,-365 222,-365 222,-343 101,-343"/>
<text text-anchor="start" x="104" y="-351.2" font-family="Helvetica,sans-Serif" font-size="11.00">bigserial[19]</text>
<polygon fill="#ffffff" stroke="none" points="10,-321 10,-343 101,-343 101,-321 10,-321"/>
<polygon fill="none" stroke="black" points="10,-321 10,-343 101,-343 101,-321 10,-321"/>
<text text-anchor="start" x="30" y="-329.2" font-family="Helvetica,sans-Serif" font-size="11.00">name</text>
<polygon fill="none" stroke="black" points="101,-321 101,-343 222,-343 222,-321 101,-321"/>
<text text-anchor="start" x="104" y="-329.2" font-family="Helvetica,sans-Serif" font-size="11.00">varchar[2147483647]</text>
<polygon fill="none" stroke="black" points="10,-299 10,-321 101,-321 101,-299 10,-299"/>
<text text-anchor="start" x="30" y="-307.2" font-family="Helvetica,sans-Serif" font-size="11.00">description</text>
<polygon fill="none" stroke="black" points="101,-299 101,-321 222,-321 222,-299 101,-299"/>
<text text-anchor="start" x="104" y="-307.2" font-family="Helvetica,sans-Serif" font-size="11.00">varchar[2147483647]</text>
<polygon fill="#ffffff" stroke="none" points="10,-277 10,-299 101,-299 101,-277 10,-277"/>
<polygon fill="none" stroke="black" points="10,-277 10,-299 101,-299 101,-277 10,-277"/>
<text text-anchor="start" x="30" y="-285.2" font-family="Helvetica,sans-Serif" font-size="11.00">set_type</text>
<polygon fill="none" stroke="black" points="101,-277 101,-299 222,-299 222,-277 101,-277"/>
<text text-anchor="start" x="104" y="-285.2" font-family="Helvetica,sans-Serif" font-size="11.00">varchar[2147483647]</text>
<polygon fill="none" stroke="black" points="10,-255 10,-277 101,-277 101,-255 10,-255"/>
<text text-anchor="start" x="30" y="-263.2" font-family="Helvetica,sans-Serif" font-size="11.00">created_on</text>
<polygon fill="none" stroke="black" points="101,-255 101,-277 222,-277 222,-255 101,-255"/>
<text text-anchor="start" x="104" y="-263.2" font-family="Helvetica,sans-Serif" font-size="11.00">timestamp[29,6]</text>
<polygon fill="none" stroke="black" points="10,-233 10,-255 101,-255 101,-233 10,-233"/>
<text text-anchor="start" x="30" y="-241.2" font-family="Helvetica,sans-Serif" font-size="11.00">updated_on</text>
<polygon fill="none" stroke="black" points="101,-233 101,-255 222,-255 222,-233 101,-233"/>
<text text-anchor="start" x="104" y="-241.2" font-family="Helvetica,sans-Serif" font-size="11.00">timestamp[29,6]</text>
<polygon fill="#ffffff" stroke="none" points="10,-211 10,-233 101,-233 101,-211 10,-211"/>
<polygon fill="none" stroke="black" points="10,-211 10,-233 101,-233 101,-211 10,-211"/>
<text text-anchor="start" x="30" y="-219.2" font-family="Helvetica,sans-Serif" font-size="11.00">guid</text>
<polygon fill="none" stroke="black" points="101,-211 101,-233 222,-233 222,-211 101,-211"/>
<text text-anchor="start" x="104" y="-219.2" font-family="Helvetica,sans-Serif" font-size="11.00">varchar[2147483647]</text>
<polygon fill="none" stroke="black" points="10,-189 10,-211 101,-211 101,-189 10,-189"/>
<text text-anchor="start" x="30" y="-197.2" font-family="Helvetica,sans-Serif" font-size="11.00">read_only</text>
<polygon fill="none" stroke="black" points="101,-189 101,-211 222,-211 222,-189 101,-189"/>
<text text-anchor="start" x="104" y="-197.2" font-family="Helvetica,sans-Serif" font-size="11.00">bool[1]</text>
<polygon fill="none" stroke="black" points="10,-167 10,-189 101,-189 101,-167 10,-167"/>
<text text-anchor="start" x="30" y="-175.2" font-family="Helvetica,sans-Serif" font-size="11.00">set_data</text>
<polygon fill="none" stroke="black" points="101,-167 101,-189 222,-189 222,-167 101,-167"/>
<text text-anchor="start" x="104" y="-175.2" font-family="Helvetica,sans-Serif" font-size="11.00">text[2147483647]</text>
<polygon fill="none" stroke="black" points="10,-145 10,-167 101,-167 101,-145 10,-145"/>
<text text-anchor="start" x="30" y="-153.2" font-family="Helvetica,sans-Serif" font-size="11.00">mode</text>
<polygon fill="none" stroke="black" points="101,-145 101,-167 222,-167 222,-145 101,-145"/>
<text text-anchor="start" x="104" y="-153.2" font-family="Helvetica,sans-Serif" font-size="11.00">varchar[2147483647]</text>
<polygon fill="#ffffff" stroke="none" points="10,-123 10,-145 101,-145 101,-123 10,-123"/>
<polygon fill="none" stroke="black" points="10,-123 10,-145 101,-145 101,-123 10,-123"/>
<text text-anchor="start" x="30" y="-131.2" font-family="Helvetica,sans-Serif" font-size="11.00">owner_type</text>
<polygon fill="none" stroke="black" points="101,-123 101,-145 222,-145 222,-123 101,-123"/>
<text text-anchor="start" x="104" y="-131.2" font-family="Helvetica,sans-Serif" font-size="11.00">varchar[2147483647]</text>
<polygon fill="#ffffff" stroke="none" points="10,-101 10,-123 101,-123 101,-101 10,-101"/>
<polygon fill="none" stroke="black" points="10,-101 10,-123 101,-123 101,-101 10,-101"/>
<text text-anchor="start" x="30" y="-109.2" font-family="Helvetica,sans-Serif" font-size="11.00">owner_id</text>
<polygon fill="none" stroke="black" points="101,-101 101,-123 222,-123 222,-101 101,-101"/>
<text text-anchor="start" x="104" y="-109.2" font-family="Helvetica,sans-Serif" font-size="11.00">int8[19]</text>
<polygon fill="#ffffff" stroke="none" points="10,-79 10,-101 101,-101 101,-79 10,-79"/>
<polygon fill="none" stroke="black" points="10,-79 10,-101 101,-101 101,-79 10,-79"/>
<text text-anchor="start" x="30" y="-87.2" font-family="Helvetica,sans-Serif" font-size="11.00">userid</text>
<polygon fill="none" stroke="black" points="101,-79 101,-101 222,-101 222,-79 101,-79"/>
<text text-anchor="start" x="104" y="-87.2" font-family="Helvetica,sans-Serif" font-size="11.00">varchar[2147483647]</text>
<polygon fill="#ffffff" stroke="none" points="10,-57 10,-79 101,-79 101,-57 10,-57"/>
<polygon fill="none" stroke="black" points="10,-57 10,-79 101,-79 101,-57 10,-57"/>
<text text-anchor="start" x="30" y="-65.2" font-family="Helvetica,sans-Serif" font-size="11.00">group_id</text>
<polygon fill="none" stroke="black" points="101,-57 101,-79 222,-79 222,-57 101,-57"/>
<text text-anchor="start" x="104" y="-65.2" font-family="Helvetica,sans-Serif" font-size="11.00">int8[19]</text>
<polygon fill="#ffffff" stroke="none" points="10,-39 10,-57 60,-57 60,-39 10,-39"/>
<polygon fill="none" stroke="black" points="10,-39 10,-57 60,-57 60,-39 10,-39"/>
<text text-anchor="start" x="13" y="-45.2" font-family="Helvetica,sans-Serif" font-size="11.00">&lt; 0</text>
<polygon fill="#ffffff" stroke="none" points="60,-39 60,-57 101,-57 101,-39 60,-39"/>
<polygon fill="none" stroke="black" points="60,-39 60,-57 101,-57 101,-39 60,-39"/>
<text text-anchor="start" x="91" y="-45.2" font-family="Helvetica,sans-Serif" font-size="11.00"> &#160;</text>
<polygon fill="#ffffff" stroke="none" points="101,-39 101,-57 222,-57 222,-39 101,-39"/>
<polygon fill="none" stroke="black" points="101,-39 101,-57 222,-57 222,-39 101,-39"/>
<text text-anchor="start" x="202" y="-45.2" font-family="Helvetica,sans-Serif" font-size="11.00">3 &gt;</text>
<polygon fill="none" stroke="black" stroke-width="2" points="9,-38 9,-388 223,-388 223,-38 9,-38"/>
</a>
</g>
</g>
<!-- filesystems&#45;&gt;miq_sets -->
<g id="edge1" class="edge"><title>filesystems:miq_set_id:w&#45;&gt;miq_sets:id.type:e</title>
<path fill="none" stroke="black" d="M263.075,-607.372C177.583,-585.654 333.46,-354 223,-354"/>
<polygon fill="black" stroke="black" points="269.55,-608.103 277.096,-612.577 273.525,-608.551 277.5,-609 277.5,-609 277.5,-609 273.525,-608.551 277.904,-605.423 269.55,-608.103 269.55,-608.103"/>
<ellipse fill="none" stroke="black" cx="266.371" cy="-607.744" rx="3.2" ry="3.2"/>
</g>
<!-- miq_set_memberships -->
<g id="node3" class="node"><title>miq_set_memberships</title>
<g id="a_node3"><a xlink:href="../../tables/miq_set_memberships.html" xlink:title="miq_set_memberships" target="_top">
<polygon fill="#ffffff" stroke="none" points="273,-307 273,-453 448,-453 448,-307 273,-307"/>
<polygon fill="#f5f5f5" stroke="none" points="273.5,-431 273.5,-453 448.5,-453 448.5,-431 273.5,-431"/>
<polygon fill="none" stroke="black" points="273.5,-431 273.5,-453 448.5,-453 448.5,-431 273.5,-431"/>
<text text-anchor="start" x="278.5" y="-440.2" font-family="Helvetica,sans-Serif" font-weight="bold" font-size="11.00">miq_set_memberships</text>
<text text-anchor="start" x="409.5" y="-439.2" font-family="Helvetica,sans-Serif" font-size="11.00">[table]</text>
<polygon fill="none" stroke="black" points="273.5,-409 273.5,-431 448.5,-431 448.5,-409 273.5,-409"/>
<image xlink:href="../../images/primaryKeys.png" width="11px" height="12px" preserveAspectRatio="xMinYMin meet" x="278.5" y="-426"/>
<text text-anchor="start" x="304.5" y="-417.2" font-family="Helvetica,sans-Serif" font-size="11.00">id</text>
<polygon fill="#ffffff" stroke="none" points="273.5,-387 273.5,-409 448.5,-409 448.5,-387 273.5,-387"/>
<polygon fill="none" stroke="black" points="273.5,-387 273.5,-409 448.5,-409 448.5,-387 273.5,-387"/>
<text text-anchor="start" x="304.5" y="-395.2" font-family="Helvetica,sans-Serif" font-size="11.00">member_type</text>
<polygon fill="#ffffff" stroke="none" points="273.5,-365 273.5,-387 448.5,-387 448.5,-365 273.5,-365"/>
<polygon fill="none" stroke="black" points="273.5,-365 273.5,-387 448.5,-387 448.5,-365 273.5,-365"/>
<text text-anchor="start" x="304.5" y="-373.2" font-family="Helvetica,sans-Serif" font-size="11.00">member_id</text>
<polygon fill="#ffffff" stroke="none" points="273.5,-343 273.5,-365 448.5,-365 448.5,-343 273.5,-343"/>
<polygon fill="none" stroke="black" points="273.5,-343 273.5,-365 448.5,-365 448.5,-343 273.5,-343"/>
<image xlink:href="../../images/foreignKeys.png" width="11px" height="12px" preserveAspectRatio="xMinYMin meet" x="278.5" y="-360"/>
<text text-anchor="start" x="304.5" y="-351.2" font-family="Helvetica,sans-Serif" font-size="11.00">miq_set_id</text>
<polygon fill="none" stroke="black" points="273.5,-325 273.5,-343 448.5,-343 448.5,-325 273.5,-325"/>
<text text-anchor="start" x="276.5" y="-331.2" font-family="Helvetica,sans-Serif" font-size="11.00">...</text>
<polygon fill="#ffffff" stroke="none" points="273.5,-307 273.5,-325 359.5,-325 359.5,-307 273.5,-307"/>
<polygon fill="none" stroke="black" points="273.5,-307 273.5,-325 359.5,-325 359.5,-307 273.5,-307"/>
<text text-anchor="start" x="276.5" y="-313.2" font-family="Helvetica,sans-Serif" font-size="11.00">&lt; 1</text>
<polygon fill="#ffffff" stroke="none" points="359.5,-307 359.5,-325 403.5,-325 403.5,-307 359.5,-307"/>
<polygon fill="none" stroke="black" points="359.5,-307 359.5,-325 403.5,-325 403.5,-307 359.5,-307"/>
<text text-anchor="start" x="393.5" y="-313.2" font-family="Helvetica,sans-Serif" font-size="11.00"> &#160;</text>
<polygon fill="#ffffff" stroke="none" points="403.5,-307 403.5,-325 448.5,-325 448.5,-307 403.5,-307"/>
<polygon fill="none" stroke="black" points="403.5,-307 403.5,-325 448.5,-325 448.5,-307 403.5,-307"/>
<text text-anchor="start" x="438.5" y="-313.2" font-family="Helvetica,sans-Serif" font-size="11.00"> &#160;</text>
</a>
</g>
</g>
<!-- miq_set_memberships&#45;&gt;miq_sets -->
<g id="edge2" class="edge"><title>miq_set_memberships:miq_set_id:w&#45;&gt;miq_sets:id.type:e</title>
<path fill="none" stroke="black" d="M257.843,-354C246.414,-354 239.156,-354 223,-354"/>
<polygon fill="black" stroke="black" points="264.5,-354 272.5,-357.6 268.5,-354 272.5,-354 272.5,-354 272.5,-354 268.5,-354 272.5,-350.4 264.5,-354 264.5,-354"/>
<ellipse fill="none" stroke="black" cx="261.3" cy="-354" rx="3.2" ry="3.2"/>
</g>
<!-- registry_items -->
<g id="node4" class="node"><title>registry_items</title>
<g id="a_node4"><a xlink:href="../../tables/registry_items.html" xlink:title="registry_items" target="_top">
<polygon fill="#ffffff" stroke="none" points="294,-140 294,-286 427,-286 427,-140 294,-140"/>
<polygon fill="#f5f5f5" stroke="none" points="294.5,-264 294.5,-286 427.5,-286 427.5,-264 294.5,-264"/>
<polygon fill="none" stroke="black" points="294.5,-264 294.5,-286 427.5,-286 427.5,-264 294.5,-264"/>
<text text-anchor="start" x="299.5" y="-273.2" font-family="Helvetica,sans-Serif" font-weight="bold" font-size="11.00">registry_items</text>
<text text-anchor="start" x="388.5" y="-272.2" font-family="Helvetica,sans-Serif" font-size="11.00">[table]</text>
<polygon fill="none" stroke="black" points="294.5,-242 294.5,-264 427.5,-264 427.5,-242 294.5,-242"/>
<image xlink:href="../../images/primaryKeys.png" width="11px" height="12px" preserveAspectRatio="xMinYMin meet" x="299.5" y="-259"/>
<text text-anchor="start" x="314.5" y="-250.2" font-family="Helvetica,sans-Serif" font-size="11.00">id</text>
<polygon fill="#ffffff" stroke="none" points="294.5,-220 294.5,-242 427.5,-242 427.5,-220 294.5,-220"/>
<polygon fill="none" stroke="black" points="294.5,-220 294.5,-242 427.5,-242 427.5,-220 294.5,-220"/>
<image xlink:href="../../images/foreignKeys.png" width="11px" height="12px" preserveAspectRatio="xMinYMin meet" x="299.5" y="-237"/>
<text text-anchor="start" x="314.5" y="-228.2" font-family="Helvetica,sans-Serif" font-size="11.00">miq_set_id</text>
<polygon fill="#ffffff" stroke="none" points="294.5,-198 294.5,-220 427.5,-220 427.5,-198 294.5,-198"/>
<polygon fill="none" stroke="black" points="294.5,-198 294.5,-220 427.5,-220 427.5,-198 294.5,-198"/>
<image xlink:href="../../images/foreignKeys.png" width="11px" height="12px" preserveAspectRatio="xMinYMin meet" x="299.5" y="-215"/>
<text text-anchor="start" x="314.5" y="-206.2" font-family="Helvetica,sans-Serif" font-size="11.00">scan_item_id</text>
<polygon fill="#ffffff" stroke="none" points="294.5,-176 294.5,-198 427.5,-198 427.5,-176 294.5,-176"/>
<polygon fill="none" stroke="black" points="294.5,-176 294.5,-198 427.5,-198 427.5,-176 294.5,-176"/>
<text text-anchor="start" x="314.5" y="-184.2" font-family="Helvetica,sans-Serif" font-size="11.00">vm_or_template_id</text>
<polygon fill="none" stroke="black" points="294.5,-158 294.5,-176 427.5,-176 427.5,-158 294.5,-158"/>
<text text-anchor="start" x="297.5" y="-164.2" font-family="Helvetica,sans-Serif" font-size="11.00">...</text>
<polygon fill="#ffffff" stroke="none" points="294.5,-140 294.5,-158 359.5,-158 359.5,-140 294.5,-140"/>
<polygon fill="none" stroke="black" points="294.5,-140 294.5,-158 359.5,-158 359.5,-140 294.5,-140"/>
<text text-anchor="start" x="297.5" y="-146.2" font-family="Helvetica,sans-Serif" font-size="11.00">&lt; 2</text>
<polygon fill="#ffffff" stroke="none" points="359.5,-140 359.5,-158 393.5,-158 393.5,-140 359.5,-140"/>
<polygon fill="none" stroke="black" points="359.5,-140 359.5,-158 393.5,-158 393.5,-140 359.5,-140"/>
<text text-anchor="start" x="383.5" y="-146.2" font-family="Helvetica,sans-Serif" font-size="11.00"> &#160;</text>
<polygon fill="#ffffff" stroke="none" points="393.5,-140 393.5,-158 427.5,-158 427.5,-140 393.5,-140"/>
<polygon fill="none" stroke="black" points="393.5,-140 393.5,-158 427.5,-158 427.5,-140 393.5,-140"/>
<text text-anchor="start" x="417.5" y="-146.2" font-family="Helvetica,sans-Serif" font-size="11.00"> &#160;</text>
</a>
</g>
</g>
<!-- registry_items&#45;&gt;miq_sets -->
<g id="edge3" class="edge"><title>registry_items:miq_set_id:w&#45;&gt;miq_sets:id.type:e</title>
<path fill="none" stroke="black" d="M279.215,-233.8C239.51,-252.109 280.349,-354 223,-354"/>
<polygon fill="black" stroke="black" points="285.649,-232.539 294.193,-234.533 289.575,-231.769 293.5,-231 293.5,-231 293.5,-231 289.575,-231.769 292.807,-227.467 285.649,-232.539 285.649,-232.539"/>
<ellipse fill="none" stroke="black" cx="282.509" cy="-233.155" rx="3.2" ry="3.2"/>
</g>
</g>
</svg>
