<?xml version="1.0" encoding="UTF-8" standalone="no"?>
<!DOCTYPE svg PUBLIC "-//W3C//DTD SVG 1.1//EN"
 "http://www.w3.org/Graphics/SVG/1.1/DTD/svg11.dtd">
<!-- Generated by graphviz version 2.38.0 (20140413.2041)
 -->
<!-- Title: oneDegreeRelationshipsDiagram Pages: 1 -->
<svg width="450pt" height="351pt"
 viewBox="0.00 0.00 450.00 351.00" xmlns="http://www.w3.org/2000/svg" xmlns:xlink="http://www.w3.org/1999/xlink">
<g id="graph0" class="graph" transform="scale(1 1) rotate(0) translate(4 347)">
<title>oneDegreeRelationshipsDiagram</title>
<polygon fill="#ffffff" stroke="none" points="-4,4 -4,-347 446,-347 446,4 -4,4"/>
<text text-anchor="middle" x="74.5" y="-7.2" font-family="Helvetica,sans-Serif" font-size="11.00">Generated by SchemaSpy</text>
<!-- miq_set_memberships -->
<g id="node1" class="node"><title>miq_set_memberships</title>
<g id="a_node1"><a xlink:href="../../tables/miq_set_memberships.html" xlink:title="miq_set_memberships" target="_top">
<polygon fill="#ffffff" stroke="none" points="155,-163 155,-339 434,-339 434,-163 155,-163"/>
<polygon fill="#f5f5f5" stroke="none" points="157.5,-315 157.5,-337 432.5,-337 432.5,-315 157.5,-315"/>
<polygon fill="none" stroke="black" points="157.5,-315 157.5,-337 432.5,-337 432.5,-315 157.5,-315"/>
<text text-anchor="start" x="162.5" y="-324.2" font-family="Helvetica,sans-Serif" font-weight="bold" font-size="11.00">miq_set_memberships</text>
<text text-anchor="start" x="393.5" y="-323.2" font-family="Helvetica,sans-Serif" font-size="11.00">[table]</text>
<polygon fill="none" stroke="black" points="157.5,-293 157.5,-315 311.5,-315 311.5,-293 157.5,-293"/>
<image xlink:href="../../images/primaryKeys.png" width="11px" height="12px" preserveAspectRatio="xMinYMin meet" x="162.5" y="-310"/>
<text text-anchor="start" x="177.5" y="-301.2" font-family="Helvetica,sans-Serif" font-size="11.00">id</text>
<polygon fill="none" stroke="black" points="311.5,-293 311.5,-315 432.5,-315 432.5,-293 311.5,-293"/>
<text text-anchor="start" x="314.5" y="-301.2" font-family="Helvetica,sans-Serif" font-size="11.00">bigserial[19]</text>
<polygon fill="#ffffff" stroke="none" points="157.5,-271 157.5,-293 311.5,-293 311.5,-271 157.5,-271"/>
<polygon fill="none" stroke="black" points="157.5,-271 157.5,-293 311.5,-293 311.5,-271 157.5,-271"/>
<text text-anchor="start" x="177.5" y="-279.2" font-family="Helvetica,sans-Serif" font-size="11.00">member_type</text>
<polygon fill="none" stroke="black" points="311.5,-271 311.5,-293 432.5,-293 432.5,-271 311.5,-271"/>
<text text-anchor="start" x="314.5" y="-279.2" font-family="Helvetica,sans-Serif" font-size="11.00">varchar[2147483647]</text>
<polygon fill="#ffffff" stroke="none" points="157.5,-249 157.5,-271 311.5,-271 311.5,-249 157.5,-249"/>
<polygon fill="none" stroke="black" points="157.5,-249 157.5,-271 311.5,-271 311.5,-249 157.5,-249"/>
<text text-anchor="start" x="177.5" y="-257.2" font-family="Helvetica,sans-Serif" font-size="11.00">member_id</text>
<polygon fill="none" stroke="black" points="311.5,-249 311.5,-271 432.5,-271 432.5,-249 311.5,-249"/>
<text text-anchor="start" x="314.5" y="-257.2" font-family="Helvetica,sans-Serif" font-size="11.00">int8[19]</text>
<polygon fill="#ffffff" stroke="none" points="157.5,-227 157.5,-249 311.5,-249 311.5,-227 157.5,-227"/>
<polygon fill="none" stroke="black" points="157.5,-227 157.5,-249 311.5,-249 311.5,-227 157.5,-227"/>
<image xlink:href="../../images/foreignKeys.png" width="11px" height="12px" preserveAspectRatio="xMinYMin meet" x="162.5" y="-244"/>
<text text-anchor="start" x="177.5" y="-235.2" font-family="Helvetica,sans-Serif" font-size="11.00">miq_set_id</text>
<polygon fill="none" stroke="black" points="311.5,-227 311.5,-249 432.5,-249 432.5,-227 311.5,-227"/>
<text text-anchor="start" x="314.5" y="-235.2" font-family="Helvetica,sans-Serif" font-size="11.00">int8[19]</text>
<polygon fill="none" stroke="black" points="157.5,-205 157.5,-227 311.5,-227 311.5,-205 157.5,-205"/>
<text text-anchor="start" x="177.5" y="-213.2" font-family="Helvetica,sans-Serif" font-size="11.00">created_at</text>
<polygon fill="none" stroke="black" points="311.5,-205 311.5,-227 432.5,-227 432.5,-205 311.5,-205"/>
<text text-anchor="start" x="314.5" y="-213.2" font-family="Helvetica,sans-Serif" font-size="11.00">timestamp[29,6]</text>
<polygon fill="none" stroke="black" points="157.5,-183 157.5,-205 311.5,-205 311.5,-183 157.5,-183"/>
<text text-anchor="start" x="177.5" y="-191.2" font-family="Helvetica,sans-Serif" font-size="11.00">updated_at</text>
<polygon fill="none" stroke="black" points="311.5,-183 311.5,-205 432.5,-205 432.5,-183 311.5,-183"/>
<text text-anchor="start" x="314.5" y="-191.2" font-family="Helvetica,sans-Serif" font-size="11.00">timestamp[29,6]</text>
<polygon fill="#ffffff" stroke="none" points="157.5,-165 157.5,-183 239.5,-183 239.5,-165 157.5,-165"/>
<polygon fill="none" stroke="black" points="157.5,-165 157.5,-183 239.5,-183 239.5,-165 157.5,-165"/>
<text text-anchor="start" x="160.5" y="-171.2" font-family="Helvetica,sans-Serif" font-size="11.00">&lt; 1</text>
<polygon fill="#ffffff" stroke="none" points="239.5,-165 239.5,-183 311.5,-183 311.5,-165 239.5,-165"/>
<polygon fill="none" stroke="black" points="239.5,-165 239.5,-183 311.5,-183 311.5,-165 239.5,-165"/>
<text text-anchor="start" x="301.5" y="-171.2" font-family="Helvetica,sans-Serif" font-size="11.00"> &#160;</text>
<polygon fill="#ffffff" stroke="none" points="311.5,-165 311.5,-183 432.5,-183 432.5,-165 311.5,-165"/>
<polygon fill="none" stroke="black" points="311.5,-165 311.5,-183 432.5,-183 432.5,-165 311.5,-165"/>
<text text-anchor="start" x="412.5" y="-171.2" font-family="Helvetica,sans-Serif" font-size="11.00">0 &gt;</text>
<polygon fill="none" stroke="black" stroke-width="2" points="156,-164 156,-338 433,-338 433,-164 156,-164"/>
</a>
</g>
</g>
<!-- miq_sets -->
<g id="node2" class="node"><title>miq_sets</title>
<g id="a_node2"><a xlink:href="../../tables/miq_sets.html" xlink:title="miq_sets" target="_top">
<polygon fill="#ffffff" stroke="none" points="8,-37 8,-271 106,-271 106,-37 8,-37"/>
<polygon fill="#f5f5f5" stroke="none" points="8,-249 8,-271 106,-271 106,-249 8,-249"/>
<polygon fill="none" stroke="black" points="8,-249 8,-271 106,-271 106,-249 8,-249"/>
<text text-anchor="start" x="13" y="-258.2" font-family="Helvetica,sans-Serif" font-weight="bold" font-size="11.00">miq_sets</text>
<text text-anchor="start" x="67" y="-257.2" font-family="Helvetica,sans-Serif" font-size="11.00">[table]</text>
<polygon fill="none" stroke="black" points="8,-227 8,-249 106,-249 106,-227 8,-227"/>
<image xlink:href="../../images/primaryKeys.png" width="11px" height="12px" preserveAspectRatio="xMinYMin meet" x="13" y="-244"/>
<text text-anchor="start" x="32" y="-235.2" font-family="Helvetica,sans-Serif" font-size="11.00">id</text>
<polygon fill="#ffffff" stroke="none" points="8,-205 8,-227 106,-227 106,-205 8,-205"/>
<polygon fill="none" stroke="black" points="8,-205 8,-227 106,-227 106,-205 8,-205"/>
<text text-anchor="start" x="32" y="-213.2" font-family="Helvetica,sans-Serif" font-size="11.00">name</text>
<polygon fill="#ffffff" stroke="none" points="8,-183 8,-205 106,-205 106,-183 8,-183"/>
<polygon fill="none" stroke="black" points="8,-183 8,-205 106,-205 106,-183 8,-183"/>
<text text-anchor="start" x="32" y="-191.2" font-family="Helvetica,sans-Serif" font-size="11.00">set_type</text>
<polygon fill="#ffffff" stroke="none" points="8,-161 8,-183 106,-183 106,-161 8,-161"/>
<polygon fill="none" stroke="black" points="8,-161 8,-183 106,-183 106,-161 8,-161"/>
<text text-anchor="start" x="32" y="-169.2" font-family="Helvetica,sans-Serif" font-size="11.00">guid</text>
<polygon fill="#ffffff" stroke="none" points="8,-139 8,-161 106,-161 106,-139 8,-139"/>
<polygon fill="none" stroke="black" points="8,-139 8,-161 106,-161 106,-139 8,-139"/>
<text text-anchor="start" x="32" y="-147.2" font-family="Helvetica,sans-Serif" font-size="11.00">owner_type</text>
<polygon fill="#ffffff" stroke="none" points="8,-117 8,-139 106,-139 106,-117 8,-117"/>
<polygon fill="none" stroke="black" points="8,-117 8,-139 106,-139 106,-117 8,-117"/>
<text text-anchor="start" x="32" y="-125.2" font-family="Helvetica,sans-Serif" font-size="11.00">owner_id</text>
<polygon fill="#ffffff" stroke="none" points="8,-95 8,-117 106,-117 106,-95 8,-95"/>
<polygon fill="none" stroke="black" points="8,-95 8,-117 106,-117 106,-95 8,-95"/>
<text text-anchor="start" x="32" y="-103.2" font-family="Helvetica,sans-Serif" font-size="11.00">userid</text>
<polygon fill="#ffffff" stroke="none" points="8,-73 8,-95 106,-95 106,-73 8,-73"/>
<polygon fill="none" stroke="black" points="8,-73 8,-95 106,-95 106,-73 8,-73"/>
<text text-anchor="start" x="32" y="-81.2" font-family="Helvetica,sans-Serif" font-size="11.00">group_id</text>
<polygon fill="none" stroke="black" points="8,-55 8,-73 106,-73 106,-55 8,-55"/>
<text text-anchor="start" x="11" y="-61.2" font-family="Helvetica,sans-Serif" font-size="11.00">...</text>
<polygon fill="#ffffff" stroke="none" points="8,-37 8,-55 45,-55 45,-37 8,-37"/>
<polygon fill="none" stroke="black" points="8,-37 8,-55 45,-55 45,-37 8,-37"/>
<text text-anchor="start" x="11" y="-43.2" font-family="Helvetica,sans-Serif" font-size="11.00"> &#160;</text>
<polygon fill="#ffffff" stroke="none" points="45,-37 45,-55 70,-55 70,-37 45,-37"/>
<polygon fill="none" stroke="black" points="45,-37 45,-55 70,-55 70,-37 45,-37"/>
<text text-anchor="start" x="60" y="-43.2" font-family="Helvetica,sans-Serif" font-size="11.00"> &#160;</text>
<polygon fill="#ffffff" stroke="none" points="70,-37 70,-55 106,-55 106,-37 70,-37"/>
<polygon fill="none" stroke="black" points="70,-37 70,-55 106,-55 106,-37 70,-37"/>
<text text-anchor="start" x="86" y="-43.2" font-family="Helvetica,sans-Serif" font-size="11.00">3 &gt;</text>
</a>
</g>
</g>
<!-- miq_set_memberships&#45;&gt;miq_sets -->
<g id="edge1" class="edge"><title>miq_set_memberships:miq_set_id:w&#45;&gt;miq_sets:id:e</title>
<path fill="none" stroke="black" d="M141.843,-238C130.414,-238 123.156,-238 107,-238"/>
<polygon fill="black" stroke="black" points="148.5,-238 156.5,-241.6 152.5,-238 156.5,-238 156.5,-238 156.5,-238 152.5,-238 156.5,-234.4 148.5,-238 148.5,-238"/>
<ellipse fill="none" stroke="black" cx="145.3" cy="-238" rx="3.2" ry="3.2"/>
</g>
</g>
</svg>
