<?xml version="1.0" encoding="UTF-8" standalone="no"?>
<!DOCTYPE svg PUBLIC "-//W3C//DTD SVG 1.1//EN"
 "http://www.w3.org/Graphics/SVG/1.1/DTD/svg11.dtd">
<!-- Generated by graphviz version 2.38.0 (20140413.2041)
 -->
<!-- Title: oneDegreeRelationshipsDiagram Pages: 1 -->
<svg width="645pt" height="305pt"
 viewBox="0.00 0.00 645.00 305.00" xmlns="http://www.w3.org/2000/svg" xmlns:xlink="http://www.w3.org/1999/xlink">
<g id="graph0" class="graph" transform="scale(1 1) rotate(0) translate(4 301)">
<title>oneDegreeRelationshipsDiagram</title>
<polygon fill="#ffffff" stroke="none" points="-4,4 -4,-301 641,-301 641,4 -4,4"/>
<text text-anchor="middle" x="74.5" y="-7.2" font-family="Helvetica,sans-Serif" font-size="11.00">Generated by SchemaSpy</text>
<!-- miq_scsi_luns -->
<g id="node1" class="node"><title>miq_scsi_luns</title>
<g id="a_node1"><a xlink:href="../../tables/miq_scsi_luns.html" xlink:title="miq_scsi_luns" target="_top">
<polygon fill="#ffffff" stroke="none" points="501,-191 501,-293 629,-293 629,-191 501,-191"/>
<polygon fill="#f5f5f5" stroke="none" points="501,-271 501,-293 629,-293 629,-271 501,-271"/>
<polygon fill="none" stroke="black" points="501,-271 501,-293 629,-293 629,-271 501,-271"/>
<text text-anchor="start" x="506" y="-280.2" font-family="Helvetica,sans-Serif" font-weight="bold" font-size="11.00">miq_scsi_luns</text>
<text text-anchor="start" x="590" y="-279.2" font-family="Helvetica,sans-Serif" font-size="11.00">[table]</text>
<polygon fill="none" stroke="black" points="501,-249 501,-271 629,-271 629,-249 501,-249"/>
<image xlink:href="../../images/primaryKeys.png" width="11px" height="12px" preserveAspectRatio="xMinYMin meet" x="506" y="-266"/>
<text text-anchor="start" x="521" y="-257.2" font-family="Helvetica,sans-Serif" font-size="11.00">id</text>
<polygon fill="#ffffff" stroke="none" points="501,-227 501,-249 629,-249 629,-227 501,-227"/>
<polygon fill="none" stroke="black" points="501,-227 501,-249 629,-249 629,-227 501,-227"/>
<image xlink:href="../../images/foreignKeys.png" width="11px" height="12px" preserveAspectRatio="xMinYMin meet" x="506" y="-244"/>
<text text-anchor="start" x="521" y="-235.2" font-family="Helvetica,sans-Serif" font-size="11.00">miq_scsi_target_id</text>
<polygon fill="none" stroke="black" points="501,-209 501,-227 629,-227 629,-209 501,-209"/>
<text text-anchor="start" x="504" y="-215.2" font-family="Helvetica,sans-Serif" font-size="11.00">...</text>
<polygon fill="#ffffff" stroke="none" points="501,-191 501,-209 563,-209 563,-191 501,-191"/>
<polygon fill="none" stroke="black" points="501,-191 501,-209 563,-209 563,-191 501,-191"/>
<text text-anchor="start" x="504" y="-197.2" font-family="Helvetica,sans-Serif" font-size="11.00">&lt; 1</text>
<polygon fill="#ffffff" stroke="none" points="563,-191 563,-209 596,-209 596,-191 563,-191"/>
<polygon fill="none" stroke="black" points="563,-191 563,-209 596,-209 596,-191 563,-191"/>
<text text-anchor="start" x="586" y="-197.2" font-family="Helvetica,sans-Serif" font-size="11.00"> &#160;</text>
<polygon fill="#ffffff" stroke="none" points="596,-191 596,-209 629,-209 629,-191 596,-191"/>
<polygon fill="none" stroke="black" points="596,-191 596,-209 629,-209 629,-191 596,-191"/>
<text text-anchor="start" x="619" y="-197.2" font-family="Helvetica,sans-Serif" font-size="11.00"> &#160;</text>
</a>
</g>
</g>
<!-- miq_scsi_targets -->
<g id="node2" class="node"><title>miq_scsi_targets</title>
<g id="a_node2"><a xlink:href="../../tables/miq_scsi_targets.html" xlink:title="miq_scsi_targets" target="_top">
<polygon fill="#ffffff" stroke="none" points="209,-75 209,-273 452,-273 452,-75 209,-75"/>
<polygon fill="#f5f5f5" stroke="none" points="211.5,-249 211.5,-271 450.5,-271 450.5,-249 211.5,-249"/>
<polygon fill="none" stroke="black" points="211.5,-249 211.5,-271 450.5,-271 450.5,-249 211.5,-249"/>
<text text-anchor="start" x="216.5" y="-258.2" font-family="Helvetica,sans-Serif" font-weight="bold" font-size="11.00">miq_scsi_targets</text>
<text text-anchor="start" x="411.5" y="-257.2" font-family="Helvetica,sans-Serif" font-size="11.00">[table]</text>
<polygon fill="none" stroke="black" points="211.5,-227 211.5,-249 329.5,-249 329.5,-227 211.5,-227"/>
<image xlink:href="../../images/primaryKeys.png" width="11px" height="12px" preserveAspectRatio="xMinYMin meet" x="216.5" y="-244"/>
<text text-anchor="start" x="231.5" y="-235.2" font-family="Helvetica,sans-Serif" font-size="11.00">id</text>
<polygon fill="none" stroke="black" points="329.5,-227 329.5,-249 450.5,-249 450.5,-227 329.5,-227"/>
<text text-anchor="start" x="332.5" y="-235.2" font-family="Helvetica,sans-Serif" font-size="11.00">bigserial[19]</text>
<polygon fill="#ffffff" stroke="none" points="211.5,-205 211.5,-227 329.5,-227 329.5,-205 211.5,-205"/>
<polygon fill="none" stroke="black" points="211.5,-205 211.5,-227 329.5,-227 329.5,-205 211.5,-205"/>
<image xlink:href="../../images/foreignKeys.png" width="11px" height="12px" preserveAspectRatio="xMinYMin meet" x="216.5" y="-222"/>
<text text-anchor="start" x="231.5" y="-213.2" font-family="Helvetica,sans-Serif" font-size="11.00">guest_device_id</text>
<polygon fill="none" stroke="black" points="329.5,-205 329.5,-227 450.5,-227 450.5,-205 329.5,-205"/>
<text text-anchor="start" x="332.5" y="-213.2" font-family="Helvetica,sans-Serif" font-size="11.00">int8[19]</text>
<polygon fill="none" stroke="black" points="211.5,-183 211.5,-205 329.5,-205 329.5,-183 211.5,-183"/>
<text text-anchor="start" x="231.5" y="-191.2" font-family="Helvetica,sans-Serif" font-size="11.00">target</text>
<polygon fill="none" stroke="black" points="329.5,-183 329.5,-205 450.5,-205 450.5,-183 329.5,-183"/>
<text text-anchor="start" x="332.5" y="-191.2" font-family="Helvetica,sans-Serif" font-size="11.00">int4[10]</text>
<polygon fill="none" stroke="black" points="211.5,-161 211.5,-183 329.5,-183 329.5,-161 211.5,-161"/>
<text text-anchor="start" x="231.5" y="-169.2" font-family="Helvetica,sans-Serif" font-size="11.00">iscsi_name</text>
<polygon fill="none" stroke="black" points="329.5,-161 329.5,-183 450.5,-183 450.5,-161 329.5,-161"/>
<text text-anchor="start" x="332.5" y="-169.2" font-family="Helvetica,sans-Serif" font-size="11.00">varchar[2147483647]</text>
<polygon fill="none" stroke="black" points="211.5,-139 211.5,-161 329.5,-161 329.5,-139 211.5,-139"/>
<text text-anchor="start" x="231.5" y="-147.2" font-family="Helvetica,sans-Serif" font-size="11.00">iscsi_alias</text>
<polygon fill="none" stroke="black" points="329.5,-139 329.5,-161 450.5,-161 450.5,-139 329.5,-139"/>
<text text-anchor="start" x="332.5" y="-147.2" font-family="Helvetica,sans-Serif" font-size="11.00">varchar[2147483647]</text>
<polygon fill="none" stroke="black" points="211.5,-117 211.5,-139 329.5,-139 329.5,-117 211.5,-117"/>
<text text-anchor="start" x="231.5" y="-125.2" font-family="Helvetica,sans-Serif" font-size="11.00">address</text>
<polygon fill="none" stroke="black" points="329.5,-117 329.5,-139 450.5,-139 450.5,-117 329.5,-117"/>
<text text-anchor="start" x="332.5" y="-125.2" font-family="Helvetica,sans-Serif" font-size="11.00">varchar[2147483647]</text>
<polygon fill="none" stroke="black" points="211.5,-95 211.5,-117 329.5,-117 329.5,-95 211.5,-95"/>
<text text-anchor="start" x="231.5" y="-103.2" font-family="Helvetica,sans-Serif" font-size="11.00">uid_ems</text>
<polygon fill="none" stroke="black" points="329.5,-95 329.5,-117 450.5,-117 450.5,-95 329.5,-95"/>
<text text-anchor="start" x="332.5" y="-103.2" font-family="Helvetica,sans-Serif" font-size="11.00">varchar[2147483647]</text>
<polygon fill="#ffffff" stroke="none" points="211.5,-77 211.5,-95 275.5,-95 275.5,-77 211.5,-77"/>
<polygon fill="none" stroke="black" points="211.5,-77 211.5,-95 275.5,-95 275.5,-77 211.5,-77"/>
<text text-anchor="start" x="214.5" y="-83.2" font-family="Helvetica,sans-Serif" font-size="11.00">&lt; 1</text>
<polygon fill="#ffffff" stroke="none" points="275.5,-77 275.5,-95 329.5,-95 329.5,-77 275.5,-77"/>
<polygon fill="none" stroke="black" points="275.5,-77 275.5,-95 329.5,-95 329.5,-77 275.5,-77"/>
<text text-anchor="start" x="319.5" y="-83.2" font-family="Helvetica,sans-Serif" font-size="11.00"> &#160;</text>
<polygon fill="#ffffff" stroke="none" points="329.5,-77 329.5,-95 450.5,-95 450.5,-77 329.5,-77"/>
<polygon fill="none" stroke="black" points="329.5,-77 329.5,-95 450.5,-95 450.5,-77 329.5,-77"/>
<text text-anchor="start" x="430.5" y="-83.2" font-family="Helvetica,sans-Serif" font-size="11.00">1 &gt;</text>
<polygon fill="none" stroke="black" stroke-width="2" points="210,-76 210,-272 451,-272 451,-76 210,-76"/>
</a>
</g>
</g>
<!-- miq_scsi_luns&#45;&gt;miq_scsi_targets -->
<g id="edge1" class="edge"><title>miq_scsi_luns:miq_scsi_target_id:w&#45;&gt;miq_scsi_targets:id.type:e</title>
<path fill="none" stroke="black" d="M485.283,-238C474.289,-238 467.161,-238 451.5,-238"/>
<polygon fill="black" stroke="black" points="492,-238 500,-241.6 496,-238 500,-238 500,-238 500,-238 496,-238 500,-234.4 492,-238 492,-238"/>
<ellipse fill="none" stroke="black" cx="488.8" cy="-238" rx="3.2" ry="3.2"/>
</g>
<!-- guest_devices -->
<g id="node3" class="node"><title>guest_devices</title>
<g id="a_node3"><a xlink:href="../../tables/guest_devices.html" xlink:title="guest_devices" target="_top">
<polygon fill="#ffffff" stroke="none" points="8,-37 8,-249 160,-249 160,-37 8,-37"/>
<polygon fill="#f5f5f5" stroke="none" points="8,-227 8,-249 160,-249 160,-227 8,-227"/>
<polygon fill="none" stroke="black" points="8,-227 8,-249 160,-249 160,-227 8,-227"/>
<text text-anchor="start" x="13" y="-236.2" font-family="Helvetica,sans-Serif" font-weight="bold" font-size="11.00">guest_devices</text>
<text text-anchor="start" x="121" y="-235.2" font-family="Helvetica,sans-Serif" font-size="11.00">[table]</text>
<polygon fill="none" stroke="black" points="8,-205 8,-227 160,-227 160,-205 8,-205"/>
<image xlink:href="../../images/primaryKeys.png" width="11px" height="12px" preserveAspectRatio="xMinYMin meet" x="13" y="-222"/>
<text text-anchor="start" x="28" y="-213.2" font-family="Helvetica,sans-Serif" font-size="11.00">id</text>
<polygon fill="#ffffff" stroke="none" points="8,-183 8,-205 160,-205 160,-183 8,-183"/>
<polygon fill="none" stroke="black" points="8,-183 8,-205 160,-205 160,-183 8,-183"/>
<text text-anchor="start" x="28" y="-191.2" font-family="Helvetica,sans-Serif" font-size="11.00">device_name</text>
<polygon fill="#ffffff" stroke="none" points="8,-161 8,-183 160,-183 160,-161 8,-161"/>
<polygon fill="none" stroke="black" points="8,-161 8,-183 160,-183 160,-161 8,-161"/>
<text text-anchor="start" x="28" y="-169.2" font-family="Helvetica,sans-Serif" font-size="11.00">device_type</text>
<polygon fill="#ffffff" stroke="none" points="8,-139 8,-161 160,-161 160,-139 8,-139"/>
<polygon fill="none" stroke="black" points="8,-139 8,-161 160,-161 160,-139 8,-139"/>
<image xlink:href="../../images/foreignKeys.png" width="11px" height="12px" preserveAspectRatio="xMinYMin meet" x="13" y="-156"/>
<text text-anchor="start" x="28" y="-147.2" font-family="Helvetica,sans-Serif" font-size="11.00">hardware_id</text>
<polygon fill="#ffffff" stroke="none" points="8,-117 8,-139 160,-139 160,-117 8,-117"/>
<polygon fill="none" stroke="black" points="8,-117 8,-139 160,-139 160,-117 8,-117"/>
<image xlink:href="../../images/foreignKeys.png" width="11px" height="12px" preserveAspectRatio="xMinYMin meet" x="13" y="-134"/>
<text text-anchor="start" x="28" y="-125.2" font-family="Helvetica,sans-Serif" font-size="11.00">switch_id</text>
<polygon fill="#ffffff" stroke="none" points="8,-95 8,-117 160,-117 160,-95 8,-95"/>
<polygon fill="none" stroke="black" points="8,-95 8,-117 160,-117 160,-95 8,-95"/>
<image xlink:href="../../images/foreignKeys.png" width="11px" height="12px" preserveAspectRatio="xMinYMin meet" x="13" y="-112"/>
<text text-anchor="start" x="28" y="-103.2" font-family="Helvetica,sans-Serif" font-size="11.00">lan_id</text>
<polygon fill="#ffffff" stroke="none" points="8,-73 8,-95 160,-95 160,-73 8,-73"/>
<polygon fill="none" stroke="black" points="8,-73 8,-95 160,-95 160,-73 8,-73"/>
<text text-anchor="start" x="28" y="-81.2" font-family="Helvetica,sans-Serif" font-size="11.00">parent_device_id</text>
<polygon fill="none" stroke="black" points="8,-55 8,-73 160,-73 160,-55 8,-55"/>
<text text-anchor="start" x="11" y="-61.2" font-family="Helvetica,sans-Serif" font-size="11.00">...</text>
<polygon fill="#ffffff" stroke="none" points="8,-37 8,-55 77,-55 77,-37 8,-37"/>
<polygon fill="none" stroke="black" points="8,-37 8,-55 77,-55 77,-37 8,-37"/>
<text text-anchor="start" x="11" y="-43.2" font-family="Helvetica,sans-Serif" font-size="11.00">&lt; 3</text>
<polygon fill="#ffffff" stroke="none" points="77,-37 77,-55 113,-55 113,-37 77,-37"/>
<polygon fill="none" stroke="black" points="77,-37 77,-55 113,-55 113,-37 77,-37"/>
<text text-anchor="start" x="103" y="-43.2" font-family="Helvetica,sans-Serif" font-size="11.00"> &#160;</text>
<polygon fill="#ffffff" stroke="none" points="113,-37 113,-55 160,-55 160,-37 113,-37"/>
<polygon fill="none" stroke="black" points="113,-37 113,-55 160,-55 160,-37 113,-37"/>
<text text-anchor="start" x="140" y="-43.2" font-family="Helvetica,sans-Serif" font-size="11.00">3 &gt;</text>
</a>
</g>
</g>
<!-- miq_scsi_targets&#45;&gt;guest_devices -->
<g id="edge2" class="edge"><title>miq_scsi_targets:guest_device_id:w&#45;&gt;guest_devices:id:e</title>
<path fill="none" stroke="black" d="M195.843,-216C184.414,-216 177.156,-216 161,-216"/>
<polygon fill="black" stroke="black" points="202.5,-216 210.5,-219.6 206.5,-216 210.5,-216 210.5,-216 210.5,-216 206.5,-216 210.5,-212.4 202.5,-216 202.5,-216"/>
<ellipse fill="none" stroke="black" cx="199.3" cy="-216" rx="3.2" ry="3.2"/>
</g>
</g>
</svg>
