<?xml version="1.0" encoding="UTF-8" standalone="no"?>
<!DOCTYPE svg PUBLIC "-//W3C//DTD SVG 1.1//EN"
 "http://www.w3.org/Graphics/SVG/1.1/DTD/svg11.dtd">
<!-- Generated by graphviz version 2.38.0 (20140413.2041)
 -->
<!-- Title: twoDegreesRelationshipsDiagram Pages: 1 -->
<svg width="963pt" height="591pt"
 viewBox="0.00 0.00 963.00 590.79" xmlns="http://www.w3.org/2000/svg" xmlns:xlink="http://www.w3.org/1999/xlink">
<g id="graph0" class="graph" transform="scale(1 1) rotate(0) translate(4 586.785)">
<title>twoDegreesRelationshipsDiagram</title>
<polygon fill="#ffffff" stroke="none" points="-4,4 -4,-586.785 959,-586.785 959,4 -4,4"/>
<text text-anchor="middle" x="74.5" y="-7.2" font-family="Helvetica,sans-Serif" font-size="11.00">Generated by SchemaSpy</text>
<!-- hosts -->
<g id="node1" class="node"><title>hosts</title>
<g id="a_node1"><a xlink:href="../../tables/hosts.html" xlink:title="hosts" target="_top">
<polygon fill="#ffffff" stroke="none" points="277,-77.7852 277,-135.785 356,-135.785 356,-77.7852 277,-77.7852"/>
<polygon fill="#f5f5f5" stroke="none" points="277.5,-113.785 277.5,-135.785 356.5,-135.785 356.5,-113.785 277.5,-113.785"/>
<polygon fill="none" stroke="black" points="277.5,-113.785 277.5,-135.785 356.5,-135.785 356.5,-113.785 277.5,-113.785"/>
<text text-anchor="start" x="282.5" y="-122.985" font-family="Helvetica,sans-Serif" font-weight="bold" font-size="11.00">hosts</text>
<text text-anchor="start" x="317.5" y="-121.985" font-family="Helvetica,sans-Serif" font-size="11.00">[table]</text>
<polygon fill="none" stroke="black" points="277.5,-95.7852 277.5,-113.785 356.5,-113.785 356.5,-95.7852 277.5,-95.7852"/>
<text text-anchor="start" x="280.5" y="-101.985" font-family="Helvetica,sans-Serif" font-size="11.00">...</text>
<polygon fill="#ffffff" stroke="none" points="277.5,-77.7852 277.5,-95.7852 306.5,-95.7852 306.5,-77.7852 277.5,-77.7852"/>
<polygon fill="none" stroke="black" points="277.5,-77.7852 277.5,-95.7852 306.5,-95.7852 306.5,-77.7852 277.5,-77.7852"/>
<text text-anchor="start" x="280.5" y="-83.9852" font-family="Helvetica,sans-Serif" font-size="11.00">&lt; 3</text>
<polygon fill="#ffffff" stroke="none" points="306.5,-77.7852 306.5,-95.7852 322.5,-95.7852 322.5,-77.7852 306.5,-77.7852"/>
<polygon fill="none" stroke="black" points="306.5,-77.7852 306.5,-95.7852 322.5,-95.7852 322.5,-77.7852 306.5,-77.7852"/>
<text text-anchor="start" x="312.5" y="-83.9852" font-family="Helvetica,sans-Serif" font-size="11.00"> &#160;</text>
<polygon fill="#ffffff" stroke="none" points="322.5,-77.7852 322.5,-95.7852 356.5,-95.7852 356.5,-77.7852 322.5,-77.7852"/>
<polygon fill="none" stroke="black" points="322.5,-77.7852 322.5,-95.7852 356.5,-95.7852 356.5,-77.7852 322.5,-77.7852"/>
<text text-anchor="start" x="329.5" y="-83.9852" font-family="Helvetica,sans-Serif" font-size="11.00">15 &gt;</text>
</a>
</g>
</g>
<!-- ems_clusters -->
<g id="node2" class="node"><title>ems_clusters</title>
<g id="a_node2"><a xlink:href="../../tables/ems_clusters.html" xlink:title="ems_clusters" target="_top">
<polygon fill="#ffffff" stroke="none" points="8,-51.7852 8,-109.785 129,-109.785 129,-51.7852 8,-51.7852"/>
<polygon fill="#f5f5f5" stroke="none" points="8.5,-87.7852 8.5,-109.785 129.5,-109.785 129.5,-87.7852 8.5,-87.7852"/>
<polygon fill="none" stroke="black" points="8.5,-87.7852 8.5,-109.785 129.5,-109.785 129.5,-87.7852 8.5,-87.7852"/>
<text text-anchor="start" x="13.5" y="-96.9852" font-family="Helvetica,sans-Serif" font-weight="bold" font-size="11.00">ems_clusters</text>
<text text-anchor="start" x="90.5" y="-95.9852" font-family="Helvetica,sans-Serif" font-size="11.00">[table]</text>
<polygon fill="none" stroke="black" points="8.5,-69.7852 8.5,-87.7852 129.5,-87.7852 129.5,-69.7852 8.5,-69.7852"/>
<text text-anchor="start" x="11.5" y="-75.9852" font-family="Helvetica,sans-Serif" font-size="11.00">...</text>
<polygon fill="#ffffff" stroke="none" points="8.5,-51.7852 8.5,-69.7852 57.5,-69.7852 57.5,-51.7852 8.5,-51.7852"/>
<polygon fill="none" stroke="black" points="8.5,-51.7852 8.5,-69.7852 57.5,-69.7852 57.5,-51.7852 8.5,-51.7852"/>
<text text-anchor="start" x="11.5" y="-57.9852" font-family="Helvetica,sans-Serif" font-size="11.00"> &#160;</text>
<polygon fill="#ffffff" stroke="none" points="57.5,-51.7852 57.5,-69.7852 88.5,-69.7852 88.5,-51.7852 57.5,-51.7852"/>
<polygon fill="none" stroke="black" points="57.5,-51.7852 57.5,-69.7852 88.5,-69.7852 88.5,-51.7852 57.5,-51.7852"/>
<text text-anchor="start" x="78.5" y="-57.9852" font-family="Helvetica,sans-Serif" font-size="11.00"> &#160;</text>
<polygon fill="#ffffff" stroke="none" points="88.5,-51.7852 88.5,-69.7852 129.5,-69.7852 129.5,-51.7852 88.5,-51.7852"/>
<polygon fill="none" stroke="black" points="88.5,-51.7852 88.5,-69.7852 129.5,-69.7852 129.5,-51.7852 88.5,-51.7852"/>
<text text-anchor="start" x="109.5" y="-57.9852" font-family="Helvetica,sans-Serif" font-size="11.00">4 &gt;</text>
</a>
</g>
</g>
<!-- hosts&#45;&gt;ems_clusters -->
<g id="edge1" class="edge"><title>hosts:elipses:w&#45;&gt;ems_clusters:elipses:e</title>
<path fill="none" stroke="black" d="M261.95,-104.334C208.059,-100.881 191.261,-78.7852 130.5,-78.7852"/>
<polygon fill="black" stroke="black" points="268.504,-104.537 276.388,-108.383 272.502,-104.661 276.5,-104.785 276.5,-104.785 276.5,-104.785 272.502,-104.661 276.612,-101.187 268.504,-104.537 268.504,-104.537"/>
<ellipse fill="none" stroke="black" cx="265.305" cy="-104.438" rx="3.2" ry="3.2"/>
</g>
<!-- miq_policy_contents -->
<g id="node3" class="node"><title>miq_policy_contents</title>
<g id="a_node3"><a xlink:href="../../tables/miq_policy_contents.html" xlink:title="miq_policy_contents" target="_top">
<polygon fill="#ffffff" stroke="none" points="531,-399.785 531,-545.785 696,-545.785 696,-399.785 531,-399.785"/>
<polygon fill="#f5f5f5" stroke="none" points="531.5,-523.785 531.5,-545.785 696.5,-545.785 696.5,-523.785 531.5,-523.785"/>
<polygon fill="none" stroke="black" points="531.5,-523.785 531.5,-545.785 696.5,-545.785 696.5,-523.785 531.5,-523.785"/>
<text text-anchor="start" x="536.5" y="-532.985" font-family="Helvetica,sans-Serif" font-weight="bold" font-size="11.00">miq_policy_contents</text>
<text text-anchor="start" x="657.5" y="-531.985" font-family="Helvetica,sans-Serif" font-size="11.00">[table]</text>
<polygon fill="none" stroke="black" points="531.5,-501.785 531.5,-523.785 696.5,-523.785 696.5,-501.785 531.5,-501.785"/>
<image xlink:href="../../images/primaryKeys.png" width="11px" height="12px" preserveAspectRatio="xMinYMin meet" x="536.5" y="-518.785"/>
<text text-anchor="start" x="553.5" y="-509.985" font-family="Helvetica,sans-Serif" font-size="11.00">id</text>
<polygon fill="#ffffff" stroke="none" points="531.5,-479.785 531.5,-501.785 696.5,-501.785 696.5,-479.785 531.5,-479.785"/>
<polygon fill="none" stroke="black" points="531.5,-479.785 531.5,-501.785 696.5,-501.785 696.5,-479.785 531.5,-479.785"/>
<image xlink:href="../../images/foreignKeys.png" width="11px" height="12px" preserveAspectRatio="xMinYMin meet" x="536.5" y="-496.785"/>
<text text-anchor="start" x="553.5" y="-487.985" font-family="Helvetica,sans-Serif" font-size="11.00">miq_policy_id</text>
<polygon fill="#ffffff" stroke="none" points="531.5,-457.785 531.5,-479.785 696.5,-479.785 696.5,-457.785 531.5,-457.785"/>
<polygon fill="none" stroke="black" points="531.5,-457.785 531.5,-479.785 696.5,-479.785 696.5,-457.785 531.5,-457.785"/>
<image xlink:href="../../images/foreignKeys.png" width="11px" height="12px" preserveAspectRatio="xMinYMin meet" x="536.5" y="-474.785"/>
<text text-anchor="start" x="553.5" y="-465.985" font-family="Helvetica,sans-Serif" font-size="11.00">miq_action_id</text>
<polygon fill="#ffffff" stroke="none" points="531.5,-435.785 531.5,-457.785 696.5,-457.785 696.5,-435.785 531.5,-435.785"/>
<polygon fill="none" stroke="black" points="531.5,-435.785 531.5,-457.785 696.5,-457.785 696.5,-435.785 531.5,-435.785"/>
<image xlink:href="../../images/foreignKeys.png" width="11px" height="12px" preserveAspectRatio="xMinYMin meet" x="536.5" y="-452.785"/>
<text text-anchor="start" x="553.5" y="-443.985" font-family="Helvetica,sans-Serif" font-size="11.00">miq_event_definition_id</text>
<polygon fill="none" stroke="black" points="531.5,-417.785 531.5,-435.785 696.5,-435.785 696.5,-417.785 531.5,-417.785"/>
<text text-anchor="start" x="534.5" y="-423.985" font-family="Helvetica,sans-Serif" font-size="11.00">...</text>
<polygon fill="#ffffff" stroke="none" points="531.5,-399.785 531.5,-417.785 612.5,-417.785 612.5,-399.785 531.5,-399.785"/>
<polygon fill="none" stroke="black" points="531.5,-399.785 531.5,-417.785 612.5,-417.785 612.5,-399.785 531.5,-399.785"/>
<text text-anchor="start" x="534.5" y="-405.985" font-family="Helvetica,sans-Serif" font-size="11.00">&lt; 3</text>
<polygon fill="#ffffff" stroke="none" points="612.5,-399.785 612.5,-417.785 654.5,-417.785 654.5,-399.785 612.5,-399.785"/>
<polygon fill="none" stroke="black" points="612.5,-399.785 612.5,-417.785 654.5,-417.785 654.5,-399.785 612.5,-399.785"/>
<text text-anchor="start" x="644.5" y="-405.985" font-family="Helvetica,sans-Serif" font-size="11.00"> &#160;</text>
<polygon fill="#ffffff" stroke="none" points="654.5,-399.785 654.5,-417.785 696.5,-417.785 696.5,-399.785 654.5,-399.785"/>
<polygon fill="none" stroke="black" points="654.5,-399.785 654.5,-417.785 696.5,-417.785 696.5,-399.785 654.5,-399.785"/>
<text text-anchor="start" x="686.5" y="-405.985" font-family="Helvetica,sans-Serif" font-size="11.00"> &#160;</text>
</a>
</g>
</g>
<!-- miq_actions -->
<g id="node4" class="node"><title>miq_actions</title>
<g id="a_node4"><a xlink:href="../../tables/miq_actions.html" xlink:title="miq_actions" target="_top">
<polygon fill="#ffffff" stroke="none" points="258,-441.785 258,-499.785 375,-499.785 375,-441.785 258,-441.785"/>
<polygon fill="#f5f5f5" stroke="none" points="258.5,-477.785 258.5,-499.785 375.5,-499.785 375.5,-477.785 258.5,-477.785"/>
<polygon fill="none" stroke="black" points="258.5,-477.785 258.5,-499.785 375.5,-499.785 375.5,-477.785 258.5,-477.785"/>
<text text-anchor="start" x="263.5" y="-486.985" font-family="Helvetica,sans-Serif" font-weight="bold" font-size="11.00">miq_actions</text>
<text text-anchor="start" x="336.5" y="-485.985" font-family="Helvetica,sans-Serif" font-size="11.00">[table]</text>
<polygon fill="none" stroke="black" points="258.5,-459.785 258.5,-477.785 375.5,-477.785 375.5,-459.785 258.5,-459.785"/>
<text text-anchor="start" x="261.5" y="-465.985" font-family="Helvetica,sans-Serif" font-size="11.00">...</text>
<polygon fill="#ffffff" stroke="none" points="258.5,-441.785 258.5,-459.785 305.5,-459.785 305.5,-441.785 258.5,-441.785"/>
<polygon fill="none" stroke="black" points="258.5,-441.785 258.5,-459.785 305.5,-459.785 305.5,-441.785 258.5,-441.785"/>
<text text-anchor="start" x="261.5" y="-447.985" font-family="Helvetica,sans-Serif" font-size="11.00"> &#160;</text>
<polygon fill="#ffffff" stroke="none" points="305.5,-441.785 305.5,-459.785 335.5,-459.785 335.5,-441.785 305.5,-441.785"/>
<polygon fill="none" stroke="black" points="305.5,-441.785 305.5,-459.785 335.5,-459.785 335.5,-441.785 305.5,-441.785"/>
<text text-anchor="start" x="325.5" y="-447.985" font-family="Helvetica,sans-Serif" font-size="11.00"> &#160;</text>
<polygon fill="#ffffff" stroke="none" points="335.5,-441.785 335.5,-459.785 375.5,-459.785 375.5,-441.785 335.5,-441.785"/>
<polygon fill="none" stroke="black" points="335.5,-441.785 335.5,-459.785 375.5,-459.785 375.5,-441.785 335.5,-441.785"/>
<text text-anchor="start" x="355.5" y="-447.985" font-family="Helvetica,sans-Serif" font-size="11.00">1 &gt;</text>
</a>
</g>
</g>
<!-- miq_policy_contents&#45;&gt;miq_actions -->
<g id="edge2" class="edge"><title>miq_policy_contents:miq_action_id:w&#45;&gt;miq_actions:elipses:e</title>
<path fill="none" stroke="black" d="M516.067,-468.785C459.233,-468.785 439.865,-468.785 376.5,-468.785"/>
<polygon fill="black" stroke="black" points="522.5,-468.785 530.5,-472.385 526.5,-468.785 530.5,-468.785 530.5,-468.785 530.5,-468.785 526.5,-468.785 530.5,-465.185 522.5,-468.785 522.5,-468.785"/>
<ellipse fill="none" stroke="black" cx="519.3" cy="-468.785" rx="3.2" ry="3.2"/>
</g>
<!-- miq_event_definitions -->
<g id="node5" class="node"><title>miq_event_definitions</title>
<g id="a_node5"><a xlink:href="../../tables/miq_event_definitions.html" xlink:title="miq_event_definitions" target="_top">
<polygon fill="#ffffff" stroke="none" points="178,-156.785 178,-420.785 455,-420.785 455,-156.785 178,-156.785"/>
<polygon fill="#f5f5f5" stroke="none" points="180.5,-396.785 180.5,-418.785 453.5,-418.785 453.5,-396.785 180.5,-396.785"/>
<polygon fill="none" stroke="black" points="180.5,-396.785 180.5,-418.785 453.5,-418.785 453.5,-396.785 180.5,-396.785"/>
<text text-anchor="start" x="185.5" y="-405.985" font-family="Helvetica,sans-Serif" font-weight="bold" font-size="11.00">miq_event_definitions</text>
<text text-anchor="start" x="414.5" y="-404.985" font-family="Helvetica,sans-Serif" font-size="11.00">[table]</text>
<polygon fill="none" stroke="black" points="180.5,-374.785 180.5,-396.785 332.5,-396.785 332.5,-374.785 180.5,-374.785"/>
<image xlink:href="../../images/primaryKeys.png" width="11px" height="12px" preserveAspectRatio="xMinYMin meet" x="185.5" y="-391.785"/>
<text text-anchor="start" x="200.5" y="-382.985" font-family="Helvetica,sans-Serif" font-size="11.00">id</text>
<polygon fill="none" stroke="black" points="332.5,-374.785 332.5,-396.785 453.5,-396.785 453.5,-374.785 332.5,-374.785"/>
<text text-anchor="start" x="335.5" y="-382.985" font-family="Helvetica,sans-Serif" font-size="11.00">bigserial[19]</text>
<polygon fill="none" stroke="black" points="180.5,-352.785 180.5,-374.785 332.5,-374.785 332.5,-352.785 180.5,-352.785"/>
<text text-anchor="start" x="200.5" y="-360.985" font-family="Helvetica,sans-Serif" font-size="11.00">name</text>
<polygon fill="none" stroke="black" points="332.5,-352.785 332.5,-374.785 453.5,-374.785 453.5,-352.785 332.5,-352.785"/>
<text text-anchor="start" x="335.5" y="-360.985" font-family="Helvetica,sans-Serif" font-size="11.00">varchar[2147483647]</text>
<polygon fill="none" stroke="black" points="180.5,-330.785 180.5,-352.785 332.5,-352.785 332.5,-330.785 180.5,-330.785"/>
<text text-anchor="start" x="200.5" y="-338.985" font-family="Helvetica,sans-Serif" font-size="11.00">description</text>
<polygon fill="none" stroke="black" points="332.5,-330.785 332.5,-352.785 453.5,-352.785 453.5,-330.785 332.5,-330.785"/>
<text text-anchor="start" x="335.5" y="-338.985" font-family="Helvetica,sans-Serif" font-size="11.00">varchar[2147483647]</text>
<polygon fill="none" stroke="black" points="180.5,-308.785 180.5,-330.785 332.5,-330.785 332.5,-308.785 180.5,-308.785"/>
<text text-anchor="start" x="200.5" y="-316.985" font-family="Helvetica,sans-Serif" font-size="11.00">created_on</text>
<polygon fill="none" stroke="black" points="332.5,-308.785 332.5,-330.785 453.5,-330.785 453.5,-308.785 332.5,-308.785"/>
<text text-anchor="start" x="335.5" y="-316.985" font-family="Helvetica,sans-Serif" font-size="11.00">timestamp[29,6]</text>
<polygon fill="none" stroke="black" points="180.5,-286.785 180.5,-308.785 332.5,-308.785 332.5,-286.785 180.5,-286.785"/>
<text text-anchor="start" x="200.5" y="-294.985" font-family="Helvetica,sans-Serif" font-size="11.00">updated_on</text>
<polygon fill="none" stroke="black" points="332.5,-286.785 332.5,-308.785 453.5,-308.785 453.5,-286.785 332.5,-286.785"/>
<text text-anchor="start" x="335.5" y="-294.985" font-family="Helvetica,sans-Serif" font-size="11.00">timestamp[29,6]</text>
<polygon fill="#ffffff" stroke="none" points="180.5,-264.785 180.5,-286.785 332.5,-286.785 332.5,-264.785 180.5,-264.785"/>
<polygon fill="none" stroke="black" points="180.5,-264.785 180.5,-286.785 332.5,-286.785 332.5,-264.785 180.5,-264.785"/>
<text text-anchor="start" x="200.5" y="-272.985" font-family="Helvetica,sans-Serif" font-size="11.00">guid</text>
<polygon fill="none" stroke="black" points="332.5,-264.785 332.5,-286.785 453.5,-286.785 453.5,-264.785 332.5,-264.785"/>
<text text-anchor="start" x="335.5" y="-272.985" font-family="Helvetica,sans-Serif" font-size="11.00">varchar[2147483647]</text>
<polygon fill="none" stroke="black" points="180.5,-242.785 180.5,-264.785 332.5,-264.785 332.5,-242.785 180.5,-242.785"/>
<text text-anchor="start" x="200.5" y="-250.985" font-family="Helvetica,sans-Serif" font-size="11.00">event_type</text>
<polygon fill="none" stroke="black" points="332.5,-242.785 332.5,-264.785 453.5,-264.785 453.5,-242.785 332.5,-242.785"/>
<text text-anchor="start" x="335.5" y="-250.985" font-family="Helvetica,sans-Serif" font-size="11.00">varchar[2147483647]</text>
<polygon fill="none" stroke="black" points="180.5,-220.785 180.5,-242.785 332.5,-242.785 332.5,-220.785 180.5,-220.785"/>
<text text-anchor="start" x="200.5" y="-228.985" font-family="Helvetica,sans-Serif" font-size="11.00">definition</text>
<polygon fill="none" stroke="black" points="332.5,-220.785 332.5,-242.785 453.5,-242.785 453.5,-220.785 332.5,-220.785"/>
<text text-anchor="start" x="335.5" y="-228.985" font-family="Helvetica,sans-Serif" font-size="11.00">text[2147483647]</text>
<polygon fill="none" stroke="black" points="180.5,-198.785 180.5,-220.785 332.5,-220.785 332.5,-198.785 180.5,-198.785"/>
<text text-anchor="start" x="200.5" y="-206.985" font-family="Helvetica,sans-Serif" font-size="11.00">default</text>
<polygon fill="none" stroke="black" points="332.5,-198.785 332.5,-220.785 453.5,-220.785 453.5,-198.785 332.5,-198.785"/>
<text text-anchor="start" x="335.5" y="-206.985" font-family="Helvetica,sans-Serif" font-size="11.00">bool[1]</text>
<polygon fill="none" stroke="black" points="180.5,-176.785 180.5,-198.785 332.5,-198.785 332.5,-176.785 180.5,-176.785"/>
<text text-anchor="start" x="200.5" y="-184.985" font-family="Helvetica,sans-Serif" font-size="11.00">enabled</text>
<polygon fill="none" stroke="black" points="332.5,-176.785 332.5,-198.785 453.5,-198.785 453.5,-176.785 332.5,-176.785"/>
<text text-anchor="start" x="335.5" y="-184.985" font-family="Helvetica,sans-Serif" font-size="11.00">bool[1]</text>
<polygon fill="#ffffff" stroke="none" points="180.5,-158.785 180.5,-176.785 261.5,-176.785 261.5,-158.785 180.5,-158.785"/>
<polygon fill="none" stroke="black" points="180.5,-158.785 180.5,-176.785 261.5,-176.785 261.5,-158.785 180.5,-158.785"/>
<text text-anchor="start" x="183.5" y="-164.985" font-family="Helvetica,sans-Serif" font-size="11.00">&lt; 0</text>
<polygon fill="#ffffff" stroke="none" points="261.5,-158.785 261.5,-176.785 332.5,-176.785 332.5,-158.785 261.5,-158.785"/>
<polygon fill="none" stroke="black" points="261.5,-158.785 261.5,-176.785 332.5,-176.785 332.5,-158.785 261.5,-158.785"/>
<text text-anchor="start" x="322.5" y="-164.985" font-family="Helvetica,sans-Serif" font-size="11.00"> &#160;</text>
<polygon fill="#ffffff" stroke="none" points="332.5,-158.785 332.5,-176.785 453.5,-176.785 453.5,-158.785 332.5,-158.785"/>
<polygon fill="none" stroke="black" points="332.5,-158.785 332.5,-176.785 453.5,-176.785 453.5,-158.785 332.5,-158.785"/>
<text text-anchor="start" x="433.5" y="-164.985" font-family="Helvetica,sans-Serif" font-size="11.00">2 &gt;</text>
<polygon fill="none" stroke="black" stroke-width="2" points="179,-157.785 179,-419.785 454,-419.785 454,-157.785 179,-157.785"/>
</a>
</g>
</g>
<!-- miq_policy_contents&#45;&gt;miq_event_definitions -->
<g id="edge3" class="edge"><title>miq_policy_contents:miq_event_definition_id:w&#45;&gt;miq_event_definitions:id.type:e</title>
<path fill="none" stroke="black" d="M516.208,-444.006C489.031,-432.072 492.229,-385.785 454.5,-385.785"/>
<polygon fill="black" stroke="black" points="522.647,-445.258 529.813,-450.319 526.574,-446.022 530.5,-446.785 530.5,-446.785 530.5,-446.785 526.574,-446.022 531.187,-443.251 522.647,-445.258 522.647,-445.258"/>
<ellipse fill="none" stroke="black" cx="519.506" cy="-444.647" rx="3.2" ry="3.2"/>
</g>
<!-- miq_policies -->
<g id="node6" class="node"><title>miq_policies</title>
<g id="a_node6"><a xlink:href="../../tables/miq_policies.html" xlink:title="miq_policies" target="_top">
<polygon fill="#ffffff" stroke="none" points="257,-520.785 257,-578.785 376,-578.785 376,-520.785 257,-520.785"/>
<polygon fill="#f5f5f5" stroke="none" points="257.5,-556.785 257.5,-578.785 376.5,-578.785 376.5,-556.785 257.5,-556.785"/>
<polygon fill="none" stroke="black" points="257.5,-556.785 257.5,-578.785 376.5,-578.785 376.5,-556.785 257.5,-556.785"/>
<text text-anchor="start" x="262.5" y="-565.985" font-family="Helvetica,sans-Serif" font-weight="bold" font-size="11.00">miq_policies</text>
<text text-anchor="start" x="337.5" y="-564.985" font-family="Helvetica,sans-Serif" font-size="11.00">[table]</text>
<polygon fill="none" stroke="black" points="257.5,-538.785 257.5,-556.785 376.5,-556.785 376.5,-538.785 257.5,-538.785"/>
<text text-anchor="start" x="260.5" y="-544.985" font-family="Helvetica,sans-Serif" font-size="11.00">...</text>
<polygon fill="#ffffff" stroke="none" points="257.5,-520.785 257.5,-538.785 305.5,-538.785 305.5,-520.785 257.5,-520.785"/>
<polygon fill="none" stroke="black" points="257.5,-520.785 257.5,-538.785 305.5,-538.785 305.5,-520.785 257.5,-520.785"/>
<text text-anchor="start" x="260.5" y="-526.985" font-family="Helvetica,sans-Serif" font-size="11.00"> &#160;</text>
<polygon fill="#ffffff" stroke="none" points="305.5,-520.785 305.5,-538.785 335.5,-538.785 335.5,-520.785 305.5,-520.785"/>
<polygon fill="none" stroke="black" points="305.5,-520.785 305.5,-538.785 335.5,-538.785 335.5,-520.785 305.5,-520.785"/>
<text text-anchor="start" x="325.5" y="-526.985" font-family="Helvetica,sans-Serif" font-size="11.00"> &#160;</text>
<polygon fill="#ffffff" stroke="none" points="335.5,-520.785 335.5,-538.785 376.5,-538.785 376.5,-520.785 335.5,-520.785"/>
<polygon fill="none" stroke="black" points="335.5,-520.785 335.5,-538.785 376.5,-538.785 376.5,-520.785 335.5,-520.785"/>
<text text-anchor="start" x="356.5" y="-526.985" font-family="Helvetica,sans-Serif" font-size="11.00">5 &gt;</text>
</a>
</g>
</g>
<!-- miq_policy_contents&#45;&gt;miq_policies -->
<g id="edge4" class="edge"><title>miq_policy_contents:miq_policy_id:w&#45;&gt;miq_policies:elipses:e</title>
<path fill="none" stroke="black" d="M516.108,-491.591C456.508,-498.519 444.963,-547.785 377.5,-547.785"/>
<polygon fill="black" stroke="black" points="522.513,-491.232 530.701,-494.38 526.506,-491.009 530.5,-490.785 530.5,-490.785 530.5,-490.785 526.506,-491.009 530.299,-487.191 522.513,-491.232 522.513,-491.232"/>
<ellipse fill="none" stroke="black" cx="519.318" cy="-491.411" rx="3.2" ry="3.2"/>
</g>
<!-- policy_event_contents -->
<g id="node7" class="node"><title>policy_event_contents</title>
<g id="a_node7"><a xlink:href="../../tables/policy_event_contents.html" xlink:title="policy_event_contents" target="_top">
<polygon fill="#ffffff" stroke="none" points="772,-263.785 772,-321.785 947,-321.785 947,-263.785 772,-263.785"/>
<polygon fill="#f5f5f5" stroke="none" points="772.5,-299.785 772.5,-321.785 947.5,-321.785 947.5,-299.785 772.5,-299.785"/>
<polygon fill="none" stroke="black" points="772.5,-299.785 772.5,-321.785 947.5,-321.785 947.5,-299.785 772.5,-299.785"/>
<text text-anchor="start" x="777.5" y="-308.985" font-family="Helvetica,sans-Serif" font-weight="bold" font-size="11.00">policy_event_contents</text>
<text text-anchor="start" x="908.5" y="-307.985" font-family="Helvetica,sans-Serif" font-size="11.00">[table]</text>
<polygon fill="none" stroke="black" points="772.5,-281.785 772.5,-299.785 947.5,-299.785 947.5,-281.785 772.5,-281.785"/>
<text text-anchor="start" x="775.5" y="-287.985" font-family="Helvetica,sans-Serif" font-size="11.00">...</text>
<polygon fill="#ffffff" stroke="none" points="772.5,-263.785 772.5,-281.785 858.5,-281.785 858.5,-263.785 772.5,-263.785"/>
<polygon fill="none" stroke="black" points="772.5,-263.785 772.5,-281.785 858.5,-281.785 858.5,-263.785 772.5,-263.785"/>
<text text-anchor="start" x="775.5" y="-269.985" font-family="Helvetica,sans-Serif" font-size="11.00">&lt; 1</text>
<polygon fill="#ffffff" stroke="none" points="858.5,-263.785 858.5,-281.785 902.5,-281.785 902.5,-263.785 858.5,-263.785"/>
<polygon fill="none" stroke="black" points="858.5,-263.785 858.5,-281.785 902.5,-281.785 902.5,-263.785 858.5,-263.785"/>
<text text-anchor="start" x="892.5" y="-269.985" font-family="Helvetica,sans-Serif" font-size="11.00"> &#160;</text>
<polygon fill="#ffffff" stroke="none" points="902.5,-263.785 902.5,-281.785 947.5,-281.785 947.5,-263.785 902.5,-263.785"/>
<polygon fill="none" stroke="black" points="902.5,-263.785 902.5,-281.785 947.5,-281.785 947.5,-263.785 902.5,-263.785"/>
<text text-anchor="start" x="937.5" y="-269.985" font-family="Helvetica,sans-Serif" font-size="11.00"> &#160;</text>
</a>
</g>
</g>
<!-- policy_events -->
<g id="node8" class="node"><title>policy_events</title>
<g id="a_node8"><a xlink:href="../../tables/policy_events.html" xlink:title="policy_events" target="_top">
<polygon fill="#ffffff" stroke="none" points="504,-67.7852 504,-323.785 723,-323.785 723,-67.7852 504,-67.7852"/>
<polygon fill="#f5f5f5" stroke="none" points="504.5,-301.785 504.5,-323.785 723.5,-323.785 723.5,-301.785 504.5,-301.785"/>
<polygon fill="none" stroke="black" points="504.5,-301.785 504.5,-323.785 723.5,-323.785 723.5,-301.785 504.5,-301.785"/>
<text text-anchor="start" x="509.5" y="-310.985" font-family="Helvetica,sans-Serif" font-weight="bold" font-size="11.00">policy_events</text>
<text text-anchor="start" x="684.5" y="-309.985" font-family="Helvetica,sans-Serif" font-size="11.00">[table]</text>
<polygon fill="none" stroke="black" points="504.5,-279.785 504.5,-301.785 723.5,-301.785 723.5,-279.785 504.5,-279.785"/>
<image xlink:href="../../images/primaryKeys.png" width="11px" height="12px" preserveAspectRatio="xMinYMin meet" x="509.5" y="-296.785"/>
<text text-anchor="start" x="524.5" y="-287.985" font-family="Helvetica,sans-Serif" font-size="11.00">id</text>
<polygon fill="#ffffff" stroke="none" points="504.5,-257.785 504.5,-279.785 723.5,-279.785 723.5,-257.785 504.5,-257.785"/>
<polygon fill="none" stroke="black" points="504.5,-257.785 504.5,-279.785 723.5,-279.785 723.5,-257.785 504.5,-257.785"/>
<image xlink:href="../../images/foreignKeys.png" width="11px" height="12px" preserveAspectRatio="xMinYMin meet" x="509.5" y="-274.785"/>
<text text-anchor="start" x="524.5" y="-265.985" font-family="Helvetica,sans-Serif" font-size="11.00">miq_event_definition_id</text>
<polygon fill="#ffffff" stroke="none" points="504.5,-235.785 504.5,-257.785 723.5,-257.785 723.5,-235.785 504.5,-235.785"/>
<polygon fill="none" stroke="black" points="504.5,-235.785 504.5,-257.785 723.5,-257.785 723.5,-235.785 504.5,-235.785"/>
<image xlink:href="../../images/foreignKeys.png" width="11px" height="12px" preserveAspectRatio="xMinYMin meet" x="509.5" y="-252.785"/>
<text text-anchor="start" x="524.5" y="-243.985" font-family="Helvetica,sans-Serif" font-size="11.00">miq_policy_id</text>
<polygon fill="#ffffff" stroke="none" points="504.5,-213.785 504.5,-235.785 723.5,-235.785 723.5,-213.785 504.5,-213.785"/>
<polygon fill="none" stroke="black" points="504.5,-213.785 504.5,-235.785 723.5,-235.785 723.5,-213.785 504.5,-213.785"/>
<text text-anchor="start" x="524.5" y="-221.985" font-family="Helvetica,sans-Serif" font-size="11.00">target_id</text>
<polygon fill="#ffffff" stroke="none" points="504.5,-191.785 504.5,-213.785 723.5,-213.785 723.5,-191.785 504.5,-191.785"/>
<polygon fill="none" stroke="black" points="504.5,-191.785 504.5,-213.785 723.5,-213.785 723.5,-191.785 504.5,-191.785"/>
<text text-anchor="start" x="524.5" y="-199.985" font-family="Helvetica,sans-Serif" font-size="11.00">target_class</text>
<polygon fill="#ffffff" stroke="none" points="504.5,-169.785 504.5,-191.785 723.5,-191.785 723.5,-169.785 504.5,-169.785"/>
<polygon fill="none" stroke="black" points="504.5,-169.785 504.5,-191.785 723.5,-191.785 723.5,-169.785 504.5,-169.785"/>
<text text-anchor="start" x="524.5" y="-177.985" font-family="Helvetica,sans-Serif" font-size="11.00">chain_id</text>
<polygon fill="#ffffff" stroke="none" points="504.5,-147.785 504.5,-169.785 723.5,-169.785 723.5,-147.785 504.5,-147.785"/>
<polygon fill="none" stroke="black" points="504.5,-147.785 504.5,-169.785 723.5,-169.785 723.5,-147.785 504.5,-147.785"/>
<image xlink:href="../../images/foreignKeys.png" width="11px" height="12px" preserveAspectRatio="xMinYMin meet" x="509.5" y="-164.785"/>
<text text-anchor="start" x="524.5" y="-155.985" font-family="Helvetica,sans-Serif" font-size="11.00">host_id</text>
<polygon fill="#ffffff" stroke="none" points="504.5,-125.785 504.5,-147.785 723.5,-147.785 723.5,-125.785 504.5,-125.785"/>
<polygon fill="none" stroke="black" points="504.5,-125.785 504.5,-147.785 723.5,-147.785 723.5,-125.785 504.5,-125.785"/>
<image xlink:href="../../images/foreignKeys.png" width="11px" height="12px" preserveAspectRatio="xMinYMin meet" x="509.5" y="-142.785"/>
<text text-anchor="start" x="524.5" y="-133.985" font-family="Helvetica,sans-Serif" font-size="11.00">ems_cluster_id</text>
<polygon fill="#ffffff" stroke="none" points="504.5,-103.785 504.5,-125.785 723.5,-125.785 723.5,-103.785 504.5,-103.785"/>
<polygon fill="none" stroke="black" points="504.5,-103.785 504.5,-125.785 723.5,-125.785 723.5,-103.785 504.5,-103.785"/>
<text text-anchor="start" x="524.5" y="-111.985" font-family="Helvetica,sans-Serif" font-size="11.00">ems_id</text>
<polygon fill="none" stroke="black" points="504.5,-85.7852 504.5,-103.785 723.5,-103.785 723.5,-85.7852 504.5,-85.7852"/>
<text text-anchor="start" x="507.5" y="-91.9852" font-family="Helvetica,sans-Serif" font-size="11.00">...</text>
<polygon fill="#ffffff" stroke="none" points="504.5,-67.7852 504.5,-85.7852 607.5,-85.7852 607.5,-67.7852 504.5,-67.7852"/>
<polygon fill="none" stroke="black" points="504.5,-67.7852 504.5,-85.7852 607.5,-85.7852 607.5,-67.7852 504.5,-67.7852"/>
<text text-anchor="start" x="507.5" y="-73.9852" font-family="Helvetica,sans-Serif" font-size="11.00">&lt; 4</text>
<polygon fill="#ffffff" stroke="none" points="607.5,-67.7852 607.5,-85.7852 660.5,-85.7852 660.5,-67.7852 607.5,-67.7852"/>
<polygon fill="none" stroke="black" points="607.5,-67.7852 607.5,-85.7852 660.5,-85.7852 660.5,-67.7852 607.5,-67.7852"/>
<text text-anchor="start" x="650.5" y="-73.9852" font-family="Helvetica,sans-Serif" font-size="11.00"> &#160;</text>
<polygon fill="#ffffff" stroke="none" points="660.5,-67.7852 660.5,-85.7852 723.5,-85.7852 723.5,-67.7852 660.5,-67.7852"/>
<polygon fill="none" stroke="black" points="660.5,-67.7852 660.5,-85.7852 723.5,-85.7852 723.5,-67.7852 660.5,-67.7852"/>
<text text-anchor="start" x="703.5" y="-73.9852" font-family="Helvetica,sans-Serif" font-size="11.00">1 &gt;</text>
</a>
</g>
</g>
<!-- policy_event_contents&#45;&gt;policy_events -->
<g id="edge5" class="edge"><title>policy_event_contents:elipses:w&#45;&gt;policy_events:id:e</title>
<path fill="none" stroke="black" d="M756.896,-290.785C746.434,-290.785 739.514,-290.785 724.5,-290.785"/>
<polygon fill="black" stroke="black" points="763.5,-290.785 771.5,-294.385 767.5,-290.785 771.5,-290.785 771.5,-290.785 771.5,-290.785 767.5,-290.785 771.5,-287.185 763.5,-290.785 763.5,-290.785"/>
<ellipse fill="none" stroke="black" cx="760.3" cy="-290.785" rx="3.2" ry="3.2"/>
</g>
<!-- policy_events&#45;&gt;hosts -->
<g id="edge7" class="edge"><title>policy_events:host_id:w&#45;&gt;hosts:elipses:e</title>
<path fill="none" stroke="black" d="M489.217,-155.242C453.687,-143.229 372.094,-104.785 357.5,-104.785"/>
<polygon fill="black" stroke="black" points="495.735,-156.859 502.633,-162.279 499.618,-157.822 503.5,-158.785 503.5,-158.785 503.5,-158.785 499.618,-157.822 504.367,-155.291 495.735,-156.859 495.735,-156.859"/>
<ellipse fill="none" stroke="black" cx="492.629" cy="-156.088" rx="3.2" ry="3.2"/>
</g>
<!-- policy_events&#45;&gt;ems_clusters -->
<g id="edge6" class="edge"><title>policy_events:ems_cluster_id:w&#45;&gt;ems_clusters:elipses:e</title>
<path fill="none" stroke="black" d="M489.483,-132.244C475.245,-119.183 488.541,-81.5158 463,-66.7852 350.194,-1.7257 298.809,-47.651 170,-66.7852 151.851,-69.4811 148.848,-78.7852 130.5,-78.7852"/>
<polygon fill="black" stroke="black" points="495.889,-134.319 502.39,-140.21 499.695,-135.552 503.5,-136.785 503.5,-136.785 503.5,-136.785 499.695,-135.552 504.61,-133.36 495.889,-134.319 495.889,-134.319"/>
<ellipse fill="none" stroke="black" cx="492.845" cy="-133.333" rx="3.20001" ry="3.20001"/>
</g>
<!-- policy_events&#45;&gt;miq_event_definitions -->
<g id="edge8" class="edge"><title>policy_events:miq_event_definition_id:w&#45;&gt;miq_event_definitions:id.type:e</title>
<path fill="none" stroke="black" d="M489.389,-272.415C459.235,-292.163 504.93,-385.785 454.5,-385.785"/>
<polygon fill="black" stroke="black" points="495.752,-270.778 504.397,-272.272 499.626,-269.782 503.5,-268.785 503.5,-268.785 503.5,-268.785 499.626,-269.782 502.603,-265.299 495.752,-270.778 495.752,-270.778"/>
<ellipse fill="none" stroke="black" cx="492.653" cy="-271.575" rx="3.2" ry="3.2"/>
</g>
<!-- policy_events&#45;&gt;miq_policies -->
<g id="edge9" class="edge"><title>policy_events:miq_policy_id:w&#45;&gt;miq_policies:elipses:e</title>
<path fill="none" stroke="black" d="M489.656,-252.188C453.678,-285.981 495.864,-468.204 463,-510.785 437.702,-543.564 418.906,-547.785 377.5,-547.785"/>
<polygon fill="black" stroke="black" points="496.047,-249.694 504.809,-250.139 499.774,-248.239 503.5,-246.785 503.5,-246.785 503.5,-246.785 499.774,-248.239 502.191,-243.432 496.047,-249.694 496.047,-249.694"/>
<ellipse fill="none" stroke="black" cx="493.066" cy="-250.857" rx="3.20001" ry="3.20001"/>
</g>
</g>
</svg>
