<?xml version="1.0" encoding="UTF-8" standalone="no"?>
<!DOCTYPE svg PUBLIC "-//W3C//DTD SVG 1.1//EN"
 "http://www.w3.org/Graphics/SVG/1.1/DTD/svg11.dtd">
<!-- Generated by graphviz version 2.38.0 (20140413.2041)
 -->
<!-- Title: twoDegreesRelationshipsDiagram Pages: 1 -->
<svg width="600pt" height="427pt"
 viewBox="0.00 0.00 600.00 427.00" xmlns="http://www.w3.org/2000/svg" xmlns:xlink="http://www.w3.org/1999/xlink">
<g id="graph0" class="graph" transform="scale(1 1) rotate(0) translate(4 423)">
<title>twoDegreesRelationshipsDiagram</title>
<polygon fill="#ffffff" stroke="none" points="-4,4 -4,-423 596,-423 596,4 -4,4"/>
<text text-anchor="middle" x="74.5" y="-7.2" font-family="Helvetica,sans-Serif" font-size="11.00">Generated by SchemaSpy</text>
<!-- miq_schedules -->
<g id="node1" class="node"><title>miq_schedules</title>
<g id="a_node1"><a xlink:href="../../tables/miq_schedules.html" xlink:title="miq_schedules" target="_top">
<polygon fill="#ffffff" stroke="none" points="283,-74 283,-242 415,-242 415,-74 283,-74"/>
<polygon fill="#f5f5f5" stroke="none" points="283,-220 283,-242 415,-242 415,-220 283,-220"/>
<polygon fill="none" stroke="black" points="283,-220 283,-242 415,-242 415,-220 283,-220"/>
<text text-anchor="start" x="288" y="-229.2" font-family="Helvetica,sans-Serif" font-weight="bold" font-size="11.00">miq_schedules</text>
<text text-anchor="start" x="376" y="-228.2" font-family="Helvetica,sans-Serif" font-size="11.00">[table]</text>
<polygon fill="none" stroke="black" points="283,-198 283,-220 415,-220 415,-198 283,-198"/>
<image xlink:href="../../images/primaryKeys.png" width="11px" height="12px" preserveAspectRatio="xMinYMin meet" x="288" y="-215"/>
<text text-anchor="start" x="315" y="-206.2" font-family="Helvetica,sans-Serif" font-size="11.00">id</text>
<polygon fill="#ffffff" stroke="none" points="283,-176 283,-198 415,-198 415,-176 283,-176"/>
<polygon fill="none" stroke="black" points="283,-176 283,-198 415,-198 415,-176 283,-176"/>
<text text-anchor="start" x="315" y="-184.2" font-family="Helvetica,sans-Serif" font-size="11.00">updated_at</text>
<polygon fill="#ffffff" stroke="none" points="283,-154 283,-176 415,-176 415,-154 283,-154"/>
<polygon fill="none" stroke="black" points="283,-154 283,-176 415,-176 415,-154 283,-154"/>
<image xlink:href="../../images/foreignKeys.png" width="11px" height="12px" preserveAspectRatio="xMinYMin meet" x="288" y="-171"/>
<text text-anchor="start" x="315" y="-162.2" font-family="Helvetica,sans-Serif" font-size="11.00">miq_search_id</text>
<polygon fill="#ffffff" stroke="none" points="283,-132 283,-154 415,-154 415,-132 283,-132"/>
<polygon fill="none" stroke="black" points="283,-132 283,-154 415,-154 415,-132 283,-132"/>
<image xlink:href="../../images/foreignKeys.png" width="11px" height="12px" preserveAspectRatio="xMinYMin meet" x="288" y="-149"/>
<text text-anchor="start" x="315" y="-140.2" font-family="Helvetica,sans-Serif" font-size="11.00">zone_id</text>
<polygon fill="none" stroke="black" points="283,-110 283,-132 415,-132 415,-110 283,-110"/>
<image xlink:href="../../images/foreignKeys.png" width="11px" height="12px" preserveAspectRatio="xMinYMin meet" x="288" y="-127"/>
<text text-anchor="start" x="315" y="-118.2" font-family="Helvetica,sans-Serif" font-size="11.00">file_depot_id</text>
<polygon fill="none" stroke="black" points="283,-92 283,-110 415,-110 415,-92 283,-92"/>
<text text-anchor="start" x="286" y="-98.2" font-family="Helvetica,sans-Serif" font-size="11.00">...</text>
<polygon fill="#ffffff" stroke="none" points="283,-74 283,-92 342,-92 342,-74 283,-74"/>
<polygon fill="none" stroke="black" points="283,-74 283,-92 342,-92 342,-74 283,-74"/>
<text text-anchor="start" x="286" y="-80.2" font-family="Helvetica,sans-Serif" font-size="11.00">&lt; 3</text>
<polygon fill="#ffffff" stroke="none" points="342,-74 342,-92 373,-92 373,-74 342,-74"/>
<polygon fill="none" stroke="black" points="342,-74 342,-92 373,-92 373,-74 342,-74"/>
<text text-anchor="start" x="363" y="-80.2" font-family="Helvetica,sans-Serif" font-size="11.00"> &#160;</text>
<polygon fill="#ffffff" stroke="none" points="373,-74 373,-92 415,-92 415,-74 373,-74"/>
<polygon fill="none" stroke="black" points="373,-74 373,-92 415,-92 415,-74 373,-74"/>
<text text-anchor="start" x="395" y="-80.2" font-family="Helvetica,sans-Serif" font-size="11.00">1 &gt;</text>
</a>
</g>
</g>
<!-- file_depots -->
<g id="node2" class="node"><title>file_depots</title>
<g id="a_node2"><a xlink:href="../../tables/file_depots.html" xlink:title="file_depots" target="_top">
<polygon fill="#ffffff" stroke="none" points="66,-37 66,-95 176,-95 176,-37 66,-37"/>
<polygon fill="#f5f5f5" stroke="none" points="66,-73 66,-95 176,-95 176,-73 66,-73"/>
<polygon fill="none" stroke="black" points="66,-73 66,-95 176,-95 176,-73 66,-73"/>
<text text-anchor="start" x="71" y="-82.2" font-family="Helvetica,sans-Serif" font-weight="bold" font-size="11.00">file_depots</text>
<text text-anchor="start" x="137" y="-81.2" font-family="Helvetica,sans-Serif" font-size="11.00">[table]</text>
<polygon fill="none" stroke="black" points="66,-55 66,-73 176,-73 176,-55 66,-55"/>
<text text-anchor="start" x="69" y="-61.2" font-family="Helvetica,sans-Serif" font-size="11.00">...</text>
<polygon fill="#ffffff" stroke="none" points="66,-37 66,-55 109,-55 109,-37 66,-37"/>
<polygon fill="none" stroke="black" points="66,-37 66,-55 109,-55 109,-37 66,-37"/>
<text text-anchor="start" x="69" y="-43.2" font-family="Helvetica,sans-Serif" font-size="11.00"> &#160;</text>
<polygon fill="#ffffff" stroke="none" points="109,-37 109,-55 137,-55 137,-37 109,-37"/>
<polygon fill="none" stroke="black" points="109,-37 109,-55 137,-55 137,-37 109,-37"/>
<text text-anchor="start" x="127" y="-43.2" font-family="Helvetica,sans-Serif" font-size="11.00"> &#160;</text>
<polygon fill="#ffffff" stroke="none" points="137,-37 137,-55 176,-55 176,-37 137,-37"/>
<polygon fill="none" stroke="black" points="137,-37 137,-55 176,-55 176,-37 137,-37"/>
<text text-anchor="start" x="156" y="-43.2" font-family="Helvetica,sans-Serif" font-size="11.00">2 &gt;</text>
</a>
</g>
</g>
<!-- miq_schedules&#45;&gt;file_depots -->
<g id="edge1" class="edge"><title>miq_schedules:file_depot_id:w&#45;&gt;file_depots:elipses:e</title>
<path fill="none" stroke="black" d="M267.891,-117.26C239.85,-104.579 199.401,-64 177,-64"/>
<polygon fill="black" stroke="black" points="274.267,-118.95 281.078,-124.48 278.134,-119.975 282,-121 282,-121 282,-121 278.134,-119.975 282.922,-117.52 274.267,-118.95 274.267,-118.95"/>
<ellipse fill="none" stroke="black" cx="271.174" cy="-118.13" rx="3.2" ry="3.2"/>
</g>
<!-- miq_searches -->
<g id="node3" class="node"><title>miq_searches</title>
<g id="a_node3"><a xlink:href="../../tables/miq_searches.html" xlink:title="miq_searches" target="_top">
<polygon fill="#ffffff" stroke="none" points="8,-195 8,-415 234,-415 234,-195 8,-195"/>
<polygon fill="#f5f5f5" stroke="none" points="10,-391 10,-413 232,-413 232,-391 10,-391"/>
<polygon fill="none" stroke="black" points="10,-391 10,-413 232,-413 232,-391 10,-391"/>
<text text-anchor="start" x="15" y="-400.2" font-family="Helvetica,sans-Serif" font-weight="bold" font-size="11.00">miq_searches</text>
<text text-anchor="start" x="193" y="-399.2" font-family="Helvetica,sans-Serif" font-size="11.00">[table]</text>
<polygon fill="none" stroke="black" points="10,-369 10,-391 111,-391 111,-369 10,-369"/>
<image xlink:href="../../images/primaryKeys.png" width="11px" height="12px" preserveAspectRatio="xMinYMin meet" x="15" y="-386"/>
<text text-anchor="start" x="30" y="-377.2" font-family="Helvetica,sans-Serif" font-size="11.00">id</text>
<polygon fill="none" stroke="black" points="111,-369 111,-391 232,-391 232,-369 111,-369"/>
<text text-anchor="start" x="114" y="-377.2" font-family="Helvetica,sans-Serif" font-size="11.00">bigserial[19]</text>
<polygon fill="none" stroke="black" points="10,-347 10,-369 111,-369 111,-347 10,-347"/>
<text text-anchor="start" x="30" y="-355.2" font-family="Helvetica,sans-Serif" font-size="11.00">name</text>
<polygon fill="none" stroke="black" points="111,-347 111,-369 232,-369 232,-347 111,-347"/>
<text text-anchor="start" x="114" y="-355.2" font-family="Helvetica,sans-Serif" font-size="11.00">varchar[2147483647]</text>
<polygon fill="none" stroke="black" points="10,-325 10,-347 111,-347 111,-325 10,-325"/>
<text text-anchor="start" x="30" y="-333.2" font-family="Helvetica,sans-Serif" font-size="11.00">description</text>
<polygon fill="none" stroke="black" points="111,-325 111,-347 232,-347 232,-325 111,-325"/>
<text text-anchor="start" x="114" y="-333.2" font-family="Helvetica,sans-Serif" font-size="11.00">varchar[2147483647]</text>
<polygon fill="none" stroke="black" points="10,-303 10,-325 111,-325 111,-303 10,-303"/>
<text text-anchor="start" x="30" y="-311.2" font-family="Helvetica,sans-Serif" font-size="11.00">options</text>
<polygon fill="none" stroke="black" points="111,-303 111,-325 232,-325 232,-303 111,-303"/>
<text text-anchor="start" x="114" y="-311.2" font-family="Helvetica,sans-Serif" font-size="11.00">text[2147483647]</text>
<polygon fill="none" stroke="black" points="10,-281 10,-303 111,-303 111,-281 10,-281"/>
<text text-anchor="start" x="30" y="-289.2" font-family="Helvetica,sans-Serif" font-size="11.00">filter</text>
<polygon fill="none" stroke="black" points="111,-281 111,-303 232,-303 232,-281 111,-281"/>
<text text-anchor="start" x="114" y="-289.2" font-family="Helvetica,sans-Serif" font-size="11.00">text[2147483647]</text>
<polygon fill="none" stroke="black" points="10,-259 10,-281 111,-281 111,-259 10,-259"/>
<text text-anchor="start" x="30" y="-267.2" font-family="Helvetica,sans-Serif" font-size="11.00">db</text>
<polygon fill="none" stroke="black" points="111,-259 111,-281 232,-281 232,-259 111,-259"/>
<text text-anchor="start" x="114" y="-267.2" font-family="Helvetica,sans-Serif" font-size="11.00">varchar[2147483647]</text>
<polygon fill="none" stroke="black" points="10,-237 10,-259 111,-259 111,-237 10,-237"/>
<text text-anchor="start" x="30" y="-245.2" font-family="Helvetica,sans-Serif" font-size="11.00">search_type</text>
<polygon fill="none" stroke="black" points="111,-237 111,-259 232,-259 232,-237 111,-237"/>
<text text-anchor="start" x="114" y="-245.2" font-family="Helvetica,sans-Serif" font-size="11.00">varchar[2147483647]</text>
<polygon fill="none" stroke="black" points="10,-215 10,-237 111,-237 111,-215 10,-215"/>
<text text-anchor="start" x="30" y="-223.2" font-family="Helvetica,sans-Serif" font-size="11.00">search_key</text>
<polygon fill="none" stroke="black" points="111,-215 111,-237 232,-237 232,-215 111,-215"/>
<text text-anchor="start" x="114" y="-223.2" font-family="Helvetica,sans-Serif" font-size="11.00">varchar[2147483647]</text>
<polygon fill="#ffffff" stroke="none" points="10,-197 10,-215 65,-215 65,-197 10,-197"/>
<polygon fill="none" stroke="black" points="10,-197 10,-215 65,-215 65,-197 10,-197"/>
<text text-anchor="start" x="13" y="-203.2" font-family="Helvetica,sans-Serif" font-size="11.00">&lt; 0</text>
<polygon fill="#ffffff" stroke="none" points="65,-197 65,-215 111,-215 111,-197 65,-197"/>
<polygon fill="none" stroke="black" points="65,-197 65,-215 111,-215 111,-197 65,-197"/>
<text text-anchor="start" x="101" y="-203.2" font-family="Helvetica,sans-Serif" font-size="11.00"> &#160;</text>
<polygon fill="#ffffff" stroke="none" points="111,-197 111,-215 232,-215 232,-197 111,-197"/>
<polygon fill="none" stroke="black" points="111,-197 111,-215 232,-215 232,-197 111,-197"/>
<text text-anchor="start" x="212" y="-203.2" font-family="Helvetica,sans-Serif" font-size="11.00">1 &gt;</text>
<polygon fill="none" stroke="black" stroke-width="2" points="9,-196 9,-414 233,-414 233,-196 9,-196"/>
</a>
</g>
</g>
<!-- miq_schedules&#45;&gt;miq_searches -->
<g id="edge2" class="edge"><title>miq_schedules:miq_search_id:w&#45;&gt;miq_searches:id.type:e</title>
<path fill="none" stroke="black" d="M267.616,-166.991C199.862,-188.666 325.455,-380 233,-380"/>
<polygon fill="black" stroke="black" points="274.076,-166.097 282.494,-168.566 278.038,-165.548 282,-165 282,-165 282,-165 278.038,-165.548 281.506,-161.434 274.076,-166.097 274.076,-166.097"/>
<ellipse fill="none" stroke="black" cx="270.906" cy="-166.536" rx="3.2" ry="3.2"/>
</g>
<!-- zones -->
<g id="node4" class="node"><title>zones</title>
<g id="a_node4"><a xlink:href="../../tables/zones.html" xlink:title="zones" target="_top">
<polygon fill="#ffffff" stroke="none" points="81,-116 81,-174 161,-174 161,-116 81,-116"/>
<polygon fill="#f5f5f5" stroke="none" points="81,-152 81,-174 161,-174 161,-152 81,-152"/>
<polygon fill="none" stroke="black" points="81,-152 81,-174 161,-174 161,-152 81,-152"/>
<text text-anchor="start" x="86" y="-161.2" font-family="Helvetica,sans-Serif" font-weight="bold" font-size="11.00">zones</text>
<text text-anchor="start" x="122" y="-160.2" font-family="Helvetica,sans-Serif" font-size="11.00">[table]</text>
<polygon fill="none" stroke="black" points="81,-134 81,-152 161,-152 161,-134 81,-134"/>
<text text-anchor="start" x="84" y="-140.2" font-family="Helvetica,sans-Serif" font-size="11.00">...</text>
<polygon fill="#ffffff" stroke="none" points="81,-116 81,-134 109,-134 109,-116 81,-116"/>
<polygon fill="none" stroke="black" points="81,-116 81,-134 109,-134 109,-116 81,-116"/>
<text text-anchor="start" x="84" y="-122.2" font-family="Helvetica,sans-Serif" font-size="11.00"> &#160;</text>
<polygon fill="#ffffff" stroke="none" points="109,-116 109,-134 130,-134 130,-116 109,-116"/>
<polygon fill="none" stroke="black" points="109,-116 109,-134 130,-134 130,-116 109,-116"/>
<text text-anchor="start" x="120" y="-122.2" font-family="Helvetica,sans-Serif" font-size="11.00"> &#160;</text>
<polygon fill="#ffffff" stroke="none" points="130,-116 130,-134 161,-134 161,-116 130,-116"/>
<polygon fill="none" stroke="black" points="130,-116 130,-134 161,-134 161,-116 130,-116"/>
<text text-anchor="start" x="141" y="-122.2" font-family="Helvetica,sans-Serif" font-size="11.00">5 &gt;</text>
</a>
</g>
</g>
<!-- miq_schedules&#45;&gt;zones -->
<g id="edge3" class="edge"><title>miq_schedules:zone_id:w&#45;&gt;zones:elipses:e</title>
<path fill="none" stroke="black" d="M267.445,-143C225.681,-143 210.125,-143 162,-143"/>
<polygon fill="black" stroke="black" points="274,-143 282,-146.6 278,-143 282,-143 282,-143 282,-143 278,-143 282,-139.4 274,-143 274,-143"/>
<ellipse fill="none" stroke="black" cx="270.8" cy="-143" rx="3.2" ry="3.2"/>
</g>
<!-- miq_widgets -->
<g id="node5" class="node"><title>miq_widgets</title>
<g id="a_node5"><a xlink:href="../../tables/miq_widgets.html" xlink:title="miq_widgets" target="_top">
<polygon fill="#ffffff" stroke="none" points="464,-182 464,-240 584,-240 584,-182 464,-182"/>
<polygon fill="#f5f5f5" stroke="none" points="464,-218 464,-240 584,-240 584,-218 464,-218"/>
<polygon fill="none" stroke="black" points="464,-218 464,-240 584,-240 584,-218 464,-218"/>
<text text-anchor="start" x="469" y="-227.2" font-family="Helvetica,sans-Serif" font-weight="bold" font-size="11.00">miq_widgets</text>
<text text-anchor="start" x="545" y="-226.2" font-family="Helvetica,sans-Serif" font-size="11.00">[table]</text>
<polygon fill="none" stroke="black" points="464,-200 464,-218 584,-218 584,-200 464,-200"/>
<text text-anchor="start" x="467" y="-206.2" font-family="Helvetica,sans-Serif" font-size="11.00">...</text>
<polygon fill="#ffffff" stroke="none" points="464,-182 464,-200 517,-200 517,-182 464,-182"/>
<polygon fill="none" stroke="black" points="464,-182 464,-200 517,-200 517,-182 464,-182"/>
<text text-anchor="start" x="467" y="-188.2" font-family="Helvetica,sans-Serif" font-size="11.00">&lt; 3</text>
<polygon fill="#ffffff" stroke="none" points="517,-182 517,-200 545,-200 545,-182 517,-182"/>
<polygon fill="none" stroke="black" points="517,-182 517,-200 545,-200 545,-182 517,-182"/>
<text text-anchor="start" x="535" y="-188.2" font-family="Helvetica,sans-Serif" font-size="11.00"> &#160;</text>
<polygon fill="#ffffff" stroke="none" points="545,-182 545,-200 584,-200 584,-182 545,-182"/>
<polygon fill="none" stroke="black" points="545,-182 545,-200 584,-200 584,-182 545,-182"/>
<text text-anchor="start" x="564" y="-188.2" font-family="Helvetica,sans-Serif" font-size="11.00">2 &gt;</text>
</a>
</g>
</g>
<!-- miq_widgets&#45;&gt;miq_schedules -->
<g id="edge4" class="edge"><title>miq_widgets:elipses:w&#45;&gt;miq_schedules:id:e</title>
<path fill="none" stroke="black" d="M448.396,-209C437.934,-209 431.014,-209 416,-209"/>
<polygon fill="black" stroke="black" points="455,-209 463,-212.6 459,-209 463,-209 463,-209 463,-209 459,-209 463,-205.4 455,-209 455,-209"/>
<ellipse fill="none" stroke="black" cx="451.8" cy="-209" rx="3.2" ry="3.2"/>
</g>
</g>
</svg>
