<?xml version="1.0" encoding="UTF-8" standalone="no"?>
<!DOCTYPE svg PUBLIC "-//W3C//DTD SVG 1.1//EN"
 "http://www.w3.org/Graphics/SVG/1.1/DTD/svg11.dtd">
<!-- Generated by graphviz version 2.38.0 (20140413.2041)
 -->
<!-- Title: oneDegreeRelationshipsDiagram Pages: 1 -->
<svg width="521pt" height="390pt"
 viewBox="0.00 0.00 521.00 390.00" xmlns="http://www.w3.org/2000/svg" xmlns:xlink="http://www.w3.org/1999/xlink">
<g id="graph0" class="graph" transform="scale(1 1) rotate(0) translate(4 386)">
<title>oneDegreeRelationshipsDiagram</title>
<polygon fill="#ffffff" stroke="none" points="-4,4 -4,-386 517,-386 517,4 -4,4"/>
<text text-anchor="middle" x="74.5" y="-7.2" font-family="Helvetica,sans-Serif" font-size="11.00">Generated by SchemaSpy</text>
<!-- miq_alert_status_actions -->
<g id="node1" class="node"><title>miq_alert_status_actions</title>
<g id="a_node1"><a xlink:href="../../tables/miq_alert_status_actions.html" xlink:title="miq_alert_status_actions" target="_top">
<polygon fill="#ffffff" stroke="none" points="212,-158 212,-378 505,-378 505,-158 212,-158"/>
<polygon fill="#f5f5f5" stroke="none" points="214.5,-354 214.5,-376 503.5,-376 503.5,-354 214.5,-354"/>
<polygon fill="none" stroke="black" points="214.5,-354 214.5,-376 503.5,-376 503.5,-354 214.5,-354"/>
<text text-anchor="start" x="219.5" y="-363.2" font-family="Helvetica,sans-Serif" font-weight="bold" font-size="11.00">miq_alert_status_actions</text>
<text text-anchor="start" x="464.5" y="-362.2" font-family="Helvetica,sans-Serif" font-size="11.00">[table]</text>
<polygon fill="none" stroke="black" points="214.5,-332 214.5,-354 382.5,-354 382.5,-332 214.5,-332"/>
<image xlink:href="../../images/primaryKeys.png" width="11px" height="12px" preserveAspectRatio="xMinYMin meet" x="219.5" y="-349"/>
<text text-anchor="start" x="234.5" y="-340.2" font-family="Helvetica,sans-Serif" font-size="11.00">id</text>
<polygon fill="none" stroke="black" points="382.5,-332 382.5,-354 503.5,-354 503.5,-332 382.5,-332"/>
<text text-anchor="start" x="385.5" y="-340.2" font-family="Helvetica,sans-Serif" font-size="11.00">bigserial[19]</text>
<polygon fill="none" stroke="black" points="214.5,-310 214.5,-332 382.5,-332 382.5,-310 214.5,-310"/>
<text text-anchor="start" x="234.5" y="-318.2" font-family="Helvetica,sans-Serif" font-size="11.00">action_type</text>
<polygon fill="none" stroke="black" points="382.5,-310 382.5,-332 503.5,-332 503.5,-310 382.5,-310"/>
<text text-anchor="start" x="385.5" y="-318.2" font-family="Helvetica,sans-Serif" font-size="11.00">varchar[2147483647]</text>
<polygon fill="#ffffff" stroke="none" points="214.5,-288 214.5,-310 382.5,-310 382.5,-288 214.5,-288"/>
<polygon fill="none" stroke="black" points="214.5,-288 214.5,-310 382.5,-310 382.5,-288 214.5,-288"/>
<image xlink:href="../../images/foreignKeys.png" width="11px" height="12px" preserveAspectRatio="xMinYMin meet" x="219.5" y="-305"/>
<text text-anchor="start" x="234.5" y="-296.2" font-family="Helvetica,sans-Serif" font-size="11.00">user_id</text>
<polygon fill="none" stroke="black" points="382.5,-288 382.5,-310 503.5,-310 503.5,-288 382.5,-288"/>
<text text-anchor="start" x="385.5" y="-296.2" font-family="Helvetica,sans-Serif" font-size="11.00">int8[19]</text>
<polygon fill="none" stroke="black" points="214.5,-266 214.5,-288 382.5,-288 382.5,-266 214.5,-266"/>
<text text-anchor="start" x="234.5" y="-274.2" font-family="Helvetica,sans-Serif" font-size="11.00">comment</text>
<polygon fill="none" stroke="black" points="382.5,-266 382.5,-288 503.5,-288 503.5,-266 382.5,-266"/>
<text text-anchor="start" x="385.5" y="-274.2" font-family="Helvetica,sans-Serif" font-size="11.00">varchar[2147483647]</text>
<polygon fill="#ffffff" stroke="none" points="214.5,-244 214.5,-266 382.5,-266 382.5,-244 214.5,-244"/>
<polygon fill="none" stroke="black" points="214.5,-244 214.5,-266 382.5,-266 382.5,-244 214.5,-244"/>
<text text-anchor="start" x="234.5" y="-252.2" font-family="Helvetica,sans-Serif" font-size="11.00">assignee_id</text>
<polygon fill="none" stroke="black" points="382.5,-244 382.5,-266 503.5,-266 503.5,-244 382.5,-244"/>
<text text-anchor="start" x="385.5" y="-252.2" font-family="Helvetica,sans-Serif" font-size="11.00">int8[19]</text>
<polygon fill="#ffffff" stroke="none" points="214.5,-222 214.5,-244 382.5,-244 382.5,-222 214.5,-222"/>
<polygon fill="none" stroke="black" points="214.5,-222 214.5,-244 382.5,-244 382.5,-222 214.5,-222"/>
<image xlink:href="../../images/foreignKeys.png" width="11px" height="12px" preserveAspectRatio="xMinYMin meet" x="219.5" y="-239"/>
<text text-anchor="start" x="234.5" y="-230.2" font-family="Helvetica,sans-Serif" font-size="11.00">miq_alert_status_id</text>
<polygon fill="none" stroke="black" points="382.5,-222 382.5,-244 503.5,-244 503.5,-222 382.5,-222"/>
<text text-anchor="start" x="385.5" y="-230.2" font-family="Helvetica,sans-Serif" font-size="11.00">int8[19]</text>
<polygon fill="none" stroke="black" points="214.5,-200 214.5,-222 382.5,-222 382.5,-200 214.5,-200"/>
<text text-anchor="start" x="234.5" y="-208.2" font-family="Helvetica,sans-Serif" font-size="11.00">created_at</text>
<polygon fill="none" stroke="black" points="382.5,-200 382.5,-222 503.5,-222 503.5,-200 382.5,-200"/>
<text text-anchor="start" x="385.5" y="-208.2" font-family="Helvetica,sans-Serif" font-size="11.00">timestamp[29,6]</text>
<polygon fill="none" stroke="black" points="214.5,-178 214.5,-200 382.5,-200 382.5,-178 214.5,-178"/>
<text text-anchor="start" x="234.5" y="-186.2" font-family="Helvetica,sans-Serif" font-size="11.00">updated_at</text>
<polygon fill="none" stroke="black" points="382.5,-178 382.5,-200 503.5,-200 503.5,-178 382.5,-178"/>
<text text-anchor="start" x="385.5" y="-186.2" font-family="Helvetica,sans-Serif" font-size="11.00">timestamp[29,6]</text>
<polygon fill="#ffffff" stroke="none" points="214.5,-160 214.5,-178 303.5,-178 303.5,-160 214.5,-160"/>
<polygon fill="none" stroke="black" points="214.5,-160 214.5,-178 303.5,-178 303.5,-160 214.5,-160"/>
<text text-anchor="start" x="217.5" y="-166.2" font-family="Helvetica,sans-Serif" font-size="11.00">&lt; 2</text>
<polygon fill="#ffffff" stroke="none" points="303.5,-160 303.5,-178 382.5,-178 382.5,-160 303.5,-160"/>
<polygon fill="none" stroke="black" points="303.5,-160 303.5,-178 382.5,-178 382.5,-160 303.5,-160"/>
<text text-anchor="start" x="372.5" y="-166.2" font-family="Helvetica,sans-Serif" font-size="11.00"> &#160;</text>
<polygon fill="#ffffff" stroke="none" points="382.5,-160 382.5,-178 503.5,-178 503.5,-160 382.5,-160"/>
<polygon fill="none" stroke="black" points="382.5,-160 382.5,-178 503.5,-178 503.5,-160 382.5,-160"/>
<text text-anchor="start" x="483.5" y="-166.2" font-family="Helvetica,sans-Serif" font-size="11.00">0 &gt;</text>
<polygon fill="none" stroke="black" stroke-width="2" points="213,-159 213,-377 504,-377 504,-159 213,-159"/>
</a>
</g>
</g>
<!-- miq_alert_statuses -->
<g id="node2" class="node"><title>miq_alert_statuses</title>
<g id="a_node2"><a xlink:href="../../tables/miq_alert_statuses.html" xlink:title="miq_alert_statuses" target="_top">
<polygon fill="#ffffff" stroke="none" points="8,-37 8,-227 163,-227 163,-37 8,-37"/>
<polygon fill="#f5f5f5" stroke="none" points="8.5,-205 8.5,-227 163.5,-227 163.5,-205 8.5,-205"/>
<polygon fill="none" stroke="black" points="8.5,-205 8.5,-227 163.5,-227 163.5,-205 8.5,-205"/>
<text text-anchor="start" x="13.5" y="-214.2" font-family="Helvetica,sans-Serif" font-weight="bold" font-size="11.00">miq_alert_statuses</text>
<text text-anchor="start" x="124.5" y="-213.2" font-family="Helvetica,sans-Serif" font-size="11.00">[table]</text>
<polygon fill="none" stroke="black" points="8.5,-183 8.5,-205 163.5,-205 163.5,-183 8.5,-183"/>
<image xlink:href="../../images/primaryKeys.png" width="11px" height="12px" preserveAspectRatio="xMinYMin meet" x="13.5" y="-200"/>
<text text-anchor="start" x="39.5" y="-191.2" font-family="Helvetica,sans-Serif" font-size="11.00">id</text>
<polygon fill="#ffffff" stroke="none" points="8.5,-161 8.5,-183 163.5,-183 163.5,-161 8.5,-161"/>
<polygon fill="none" stroke="black" points="8.5,-161 8.5,-183 163.5,-183 163.5,-161 8.5,-161"/>
<image xlink:href="../../images/foreignKeys.png" width="11px" height="12px" preserveAspectRatio="xMinYMin meet" x="13.5" y="-178"/>
<text text-anchor="start" x="39.5" y="-169.2" font-family="Helvetica,sans-Serif" font-size="11.00">miq_alert_id</text>
<polygon fill="#ffffff" stroke="none" points="8.5,-139 8.5,-161 163.5,-161 163.5,-139 8.5,-139"/>
<polygon fill="none" stroke="black" points="8.5,-139 8.5,-161 163.5,-161 163.5,-139 8.5,-139"/>
<text text-anchor="start" x="39.5" y="-147.2" font-family="Helvetica,sans-Serif" font-size="11.00">resource_id</text>
<polygon fill="#ffffff" stroke="none" points="8.5,-117 8.5,-139 163.5,-139 163.5,-117 8.5,-117"/>
<polygon fill="none" stroke="black" points="8.5,-117 8.5,-139 163.5,-139 163.5,-117 8.5,-117"/>
<text text-anchor="start" x="39.5" y="-125.2" font-family="Helvetica,sans-Serif" font-size="11.00">resource_type</text>
<polygon fill="#ffffff" stroke="none" points="8.5,-95 8.5,-117 163.5,-117 163.5,-95 8.5,-95"/>
<polygon fill="none" stroke="black" points="8.5,-95 8.5,-117 163.5,-117 163.5,-95 8.5,-95"/>
<text text-anchor="start" x="39.5" y="-103.2" font-family="Helvetica,sans-Serif" font-size="11.00">event_ems_ref</text>
<polygon fill="#ffffff" stroke="none" points="8.5,-73 8.5,-95 163.5,-95 163.5,-73 8.5,-73"/>
<polygon fill="none" stroke="black" points="8.5,-73 8.5,-95 163.5,-95 163.5,-73 8.5,-73"/>
<text text-anchor="start" x="39.5" y="-81.2" font-family="Helvetica,sans-Serif" font-size="11.00">assignee_id</text>
<polygon fill="none" stroke="black" points="8.5,-55 8.5,-73 163.5,-73 163.5,-55 8.5,-55"/>
<text text-anchor="start" x="11.5" y="-61.2" font-family="Helvetica,sans-Serif" font-size="11.00">...</text>
<polygon fill="#ffffff" stroke="none" points="8.5,-37 8.5,-55 79.5,-55 79.5,-37 8.5,-37"/>
<polygon fill="none" stroke="black" points="8.5,-37 8.5,-55 79.5,-55 79.5,-37 8.5,-37"/>
<text text-anchor="start" x="11.5" y="-43.2" font-family="Helvetica,sans-Serif" font-size="11.00">&lt; 1</text>
<polygon fill="#ffffff" stroke="none" points="79.5,-37 79.5,-55 116.5,-55 116.5,-37 79.5,-37"/>
<polygon fill="none" stroke="black" points="79.5,-37 79.5,-55 116.5,-55 116.5,-37 79.5,-37"/>
<text text-anchor="start" x="106.5" y="-43.2" font-family="Helvetica,sans-Serif" font-size="11.00"> &#160;</text>
<polygon fill="#ffffff" stroke="none" points="116.5,-37 116.5,-55 163.5,-55 163.5,-37 116.5,-37"/>
<polygon fill="none" stroke="black" points="116.5,-37 116.5,-55 163.5,-55 163.5,-37 116.5,-37"/>
<text text-anchor="start" x="143.5" y="-43.2" font-family="Helvetica,sans-Serif" font-size="11.00">1 &gt;</text>
</a>
</g>
</g>
<!-- miq_alert_status_actions&#45;&gt;miq_alert_statuses -->
<g id="edge1" class="edge"><title>miq_alert_status_actions:miq_alert_status_id:w&#45;&gt;miq_alert_statuses:id:e</title>
<path fill="none" stroke="black" d="M199.465,-228.218C186.932,-217.804 186.245,-194 164.5,-194"/>
<polygon fill="black" stroke="black" points="205.927,-230.42 212.339,-236.408 209.714,-231.71 213.5,-233 213.5,-233 213.5,-233 209.714,-231.71 214.661,-229.592 205.927,-230.42 205.927,-230.42"/>
<ellipse fill="none" stroke="black" cx="202.898" cy="-229.388" rx="3.20001" ry="3.20001"/>
</g>
<!-- users -->
<g id="node3" class="node"><title>users</title>
<g id="a_node3"><a xlink:href="../../tables/users.html" xlink:title="users" target="_top">
<polygon fill="#ffffff" stroke="none" points="11,-248 11,-372 160,-372 160,-248 11,-248"/>
<polygon fill="#f5f5f5" stroke="none" points="11.5,-350 11.5,-372 160.5,-372 160.5,-350 11.5,-350"/>
<polygon fill="none" stroke="black" points="11.5,-350 11.5,-372 160.5,-372 160.5,-350 11.5,-350"/>
<text text-anchor="start" x="16.5" y="-359.2" font-family="Helvetica,sans-Serif" font-weight="bold" font-size="11.00">users</text>
<text text-anchor="start" x="121.5" y="-358.2" font-family="Helvetica,sans-Serif" font-size="11.00">[table]</text>
<polygon fill="none" stroke="black" points="11.5,-328 11.5,-350 160.5,-350 160.5,-328 11.5,-328"/>
<image xlink:href="../../images/primaryKeys.png" width="11px" height="12px" preserveAspectRatio="xMinYMin meet" x="16.5" y="-345"/>
<text text-anchor="start" x="31.5" y="-336.2" font-family="Helvetica,sans-Serif" font-size="11.00">id</text>
<polygon fill="#ffffff" stroke="none" points="11.5,-306 11.5,-328 160.5,-328 160.5,-306 11.5,-306"/>
<polygon fill="none" stroke="black" points="11.5,-306 11.5,-328 160.5,-328 160.5,-306 11.5,-306"/>
<text text-anchor="start" x="31.5" y="-314.2" font-family="Helvetica,sans-Serif" font-size="11.00">userid</text>
<polygon fill="#ffffff" stroke="none" points="11.5,-284 11.5,-306 160.5,-306 160.5,-284 11.5,-284"/>
<polygon fill="none" stroke="black" points="11.5,-284 11.5,-306 160.5,-306 160.5,-284 11.5,-284"/>
<text text-anchor="start" x="31.5" y="-292.2" font-family="Helvetica,sans-Serif" font-size="11.00">current_group_id</text>
<polygon fill="none" stroke="black" points="11.5,-266 11.5,-284 160.5,-284 160.5,-266 11.5,-266"/>
<text text-anchor="start" x="14.5" y="-272.2" font-family="Helvetica,sans-Serif" font-size="11.00">...</text>
<polygon fill="#ffffff" stroke="none" points="11.5,-248 11.5,-266 70.5,-266 70.5,-248 11.5,-248"/>
<polygon fill="none" stroke="black" points="11.5,-248 11.5,-266 70.5,-266 70.5,-248 11.5,-248"/>
<text text-anchor="start" x="14.5" y="-254.2" font-family="Helvetica,sans-Serif" font-size="11.00"> &#160;</text>
<polygon fill="#ffffff" stroke="none" points="70.5,-248 70.5,-266 106.5,-266 106.5,-248 70.5,-248"/>
<polygon fill="none" stroke="black" points="70.5,-248 70.5,-266 106.5,-266 106.5,-248 70.5,-248"/>
<text text-anchor="start" x="96.5" y="-254.2" font-family="Helvetica,sans-Serif" font-size="11.00"> &#160;</text>
<polygon fill="#ffffff" stroke="none" points="106.5,-248 106.5,-266 160.5,-266 160.5,-248 106.5,-248"/>
<polygon fill="none" stroke="black" points="106.5,-248 106.5,-266 160.5,-266 160.5,-248 106.5,-248"/>
<text text-anchor="start" x="133.5" y="-254.2" font-family="Helvetica,sans-Serif" font-size="11.00">15 &gt;</text>
</a>
</g>
</g>
<!-- miq_alert_status_actions&#45;&gt;users -->
<g id="edge2" class="edge"><title>miq_alert_status_actions:user_id:w&#45;&gt;users:id:e</title>
<path fill="none" stroke="black" d="M199.528,-303.281C185.444,-313.6 184.735,-339 161.5,-339"/>
<polygon fill="black" stroke="black" points="205.851,-301.344 214.555,-302.442 209.675,-300.172 213.5,-299 213.5,-299 213.5,-299 209.675,-300.172 212.445,-295.558 205.851,-301.344 205.851,-301.344"/>
<ellipse fill="none" stroke="black" cx="202.791" cy="-302.281" rx="3.20001" ry="3.20001"/>
</g>
</g>
</svg>
