<?xml version="1.0" encoding="UTF-8" standalone="no"?>
<!DOCTYPE svg PUBLIC "-//W3C//DTD SVG 1.1//EN"
 "http://www.w3.org/Graphics/SVG/1.1/DTD/svg11.dtd">
<!-- Generated by graphviz version 2.38.0 (20140413.2041)
 -->
<!-- Title: oneDegreeRelationshipsDiagram Pages: 1 -->
<svg width="445pt" height="439pt"
 viewBox="0.00 0.00 445.00 439.00" xmlns="http://www.w3.org/2000/svg" xmlns:xlink="http://www.w3.org/1999/xlink">
<g id="graph0" class="graph" transform="scale(1 1) rotate(0) translate(4 435)">
<title>oneDegreeRelationshipsDiagram</title>
<polygon fill="#ffffff" stroke="none" points="-4,4 -4,-435 441,-435 441,4 -4,4"/>
<text text-anchor="middle" x="74.5" y="-7.2" font-family="Helvetica,sans-Serif" font-size="11.00">Generated by SchemaSpy</text>
<!-- miq_approvals -->
<g id="node1" class="node"><title>miq_approvals</title>
<g id="a_node1"><a xlink:href="../../tables/miq_approvals.html" xlink:title="miq_approvals" target="_top">
<polygon fill="#ffffff" stroke="none" points="190,-97 190,-427 429,-427 429,-97 190,-97"/>
<polygon fill="#f5f5f5" stroke="none" points="192.5,-403 192.5,-425 427.5,-425 427.5,-403 192.5,-403"/>
<polygon fill="none" stroke="black" points="192.5,-403 192.5,-425 427.5,-425 427.5,-403 192.5,-403"/>
<text text-anchor="start" x="197.5" y="-412.2" font-family="Helvetica,sans-Serif" font-weight="bold" font-size="11.00">miq_approvals</text>
<text text-anchor="start" x="388.5" y="-411.2" font-family="Helvetica,sans-Serif" font-size="11.00">[table]</text>
<polygon fill="none" stroke="black" points="192.5,-381 192.5,-403 306.5,-403 306.5,-381 192.5,-381"/>
<image xlink:href="../../images/primaryKeys.png" width="11px" height="12px" preserveAspectRatio="xMinYMin meet" x="197.5" y="-398"/>
<text text-anchor="start" x="212.5" y="-389.2" font-family="Helvetica,sans-Serif" font-size="11.00">id</text>
<polygon fill="none" stroke="black" points="306.5,-381 306.5,-403 427.5,-403 427.5,-381 306.5,-381"/>
<text text-anchor="start" x="309.5" y="-389.2" font-family="Helvetica,sans-Serif" font-size="11.00">bigserial[19]</text>
<polygon fill="none" stroke="black" points="192.5,-359 192.5,-381 306.5,-381 306.5,-359 192.5,-359"/>
<text text-anchor="start" x="212.5" y="-367.2" font-family="Helvetica,sans-Serif" font-size="11.00">description</text>
<polygon fill="none" stroke="black" points="306.5,-359 306.5,-381 427.5,-381 427.5,-359 306.5,-359"/>
<text text-anchor="start" x="309.5" y="-367.2" font-family="Helvetica,sans-Serif" font-size="11.00">varchar[2147483647]</text>
<polygon fill="none" stroke="black" points="192.5,-337 192.5,-359 306.5,-359 306.5,-337 192.5,-337"/>
<text text-anchor="start" x="212.5" y="-345.2" font-family="Helvetica,sans-Serif" font-size="11.00">state</text>
<polygon fill="none" stroke="black" points="306.5,-337 306.5,-359 427.5,-359 427.5,-337 306.5,-337"/>
<text text-anchor="start" x="309.5" y="-345.2" font-family="Helvetica,sans-Serif" font-size="11.00">varchar[2147483647]</text>
<polygon fill="none" stroke="black" points="192.5,-315 192.5,-337 306.5,-337 306.5,-315 192.5,-315"/>
<text text-anchor="start" x="212.5" y="-323.2" font-family="Helvetica,sans-Serif" font-size="11.00">reason</text>
<polygon fill="none" stroke="black" points="306.5,-315 306.5,-337 427.5,-337 427.5,-315 306.5,-315"/>
<text text-anchor="start" x="309.5" y="-323.2" font-family="Helvetica,sans-Serif" font-size="11.00">varchar[2147483647]</text>
<polygon fill="#ffffff" stroke="none" points="192.5,-293 192.5,-315 306.5,-315 306.5,-293 192.5,-293"/>
<polygon fill="none" stroke="black" points="192.5,-293 192.5,-315 306.5,-315 306.5,-293 192.5,-293"/>
<image xlink:href="../../images/foreignKeys.png" width="11px" height="12px" preserveAspectRatio="xMinYMin meet" x="197.5" y="-310"/>
<text text-anchor="start" x="212.5" y="-301.2" font-family="Helvetica,sans-Serif" font-size="11.00">miq_request_id</text>
<polygon fill="none" stroke="black" points="306.5,-293 306.5,-315 427.5,-315 427.5,-293 306.5,-293"/>
<text text-anchor="start" x="309.5" y="-301.2" font-family="Helvetica,sans-Serif" font-size="11.00">int8[19]</text>
<polygon fill="none" stroke="black" points="192.5,-271 192.5,-293 306.5,-293 306.5,-271 192.5,-271"/>
<text text-anchor="start" x="212.5" y="-279.2" font-family="Helvetica,sans-Serif" font-size="11.00">stamped_on</text>
<polygon fill="none" stroke="black" points="306.5,-271 306.5,-293 427.5,-293 427.5,-271 306.5,-271"/>
<text text-anchor="start" x="309.5" y="-279.2" font-family="Helvetica,sans-Serif" font-size="11.00">timestamp[29,6]</text>
<polygon fill="none" stroke="black" points="192.5,-249 192.5,-271 306.5,-271 306.5,-249 192.5,-249"/>
<text text-anchor="start" x="212.5" y="-257.2" font-family="Helvetica,sans-Serif" font-size="11.00">stamper_name</text>
<polygon fill="none" stroke="black" points="306.5,-249 306.5,-271 427.5,-271 427.5,-249 306.5,-249"/>
<text text-anchor="start" x="309.5" y="-257.2" font-family="Helvetica,sans-Serif" font-size="11.00">varchar[2147483647]</text>
<polygon fill="#ffffff" stroke="none" points="192.5,-227 192.5,-249 306.5,-249 306.5,-227 192.5,-227"/>
<polygon fill="none" stroke="black" points="192.5,-227 192.5,-249 306.5,-249 306.5,-227 192.5,-227"/>
<text text-anchor="start" x="212.5" y="-235.2" font-family="Helvetica,sans-Serif" font-size="11.00">stamper_id</text>
<polygon fill="none" stroke="black" points="306.5,-227 306.5,-249 427.5,-249 427.5,-227 306.5,-227"/>
<text text-anchor="start" x="309.5" y="-235.2" font-family="Helvetica,sans-Serif" font-size="11.00">int8[19]</text>
<polygon fill="#ffffff" stroke="none" points="192.5,-205 192.5,-227 306.5,-227 306.5,-205 192.5,-205"/>
<polygon fill="none" stroke="black" points="192.5,-205 192.5,-227 306.5,-227 306.5,-205 192.5,-205"/>
<text text-anchor="start" x="212.5" y="-213.2" font-family="Helvetica,sans-Serif" font-size="11.00">approver_id</text>
<polygon fill="none" stroke="black" points="306.5,-205 306.5,-227 427.5,-227 427.5,-205 306.5,-205"/>
<text text-anchor="start" x="309.5" y="-213.2" font-family="Helvetica,sans-Serif" font-size="11.00">int8[19]</text>
<polygon fill="#ffffff" stroke="none" points="192.5,-183 192.5,-205 306.5,-205 306.5,-183 192.5,-183"/>
<polygon fill="none" stroke="black" points="192.5,-183 192.5,-205 306.5,-205 306.5,-183 192.5,-183"/>
<text text-anchor="start" x="212.5" y="-191.2" font-family="Helvetica,sans-Serif" font-size="11.00">approver_type</text>
<polygon fill="none" stroke="black" points="306.5,-183 306.5,-205 427.5,-205 427.5,-183 306.5,-183"/>
<text text-anchor="start" x="309.5" y="-191.2" font-family="Helvetica,sans-Serif" font-size="11.00">varchar[2147483647]</text>
<polygon fill="none" stroke="black" points="192.5,-161 192.5,-183 306.5,-183 306.5,-161 192.5,-161"/>
<text text-anchor="start" x="212.5" y="-169.2" font-family="Helvetica,sans-Serif" font-size="11.00">approver_name</text>
<polygon fill="none" stroke="black" points="306.5,-161 306.5,-183 427.5,-183 427.5,-161 306.5,-161"/>
<text text-anchor="start" x="309.5" y="-169.2" font-family="Helvetica,sans-Serif" font-size="11.00">varchar[2147483647]</text>
<polygon fill="none" stroke="black" points="192.5,-139 192.5,-161 306.5,-161 306.5,-139 192.5,-139"/>
<text text-anchor="start" x="212.5" y="-147.2" font-family="Helvetica,sans-Serif" font-size="11.00">created_on</text>
<polygon fill="none" stroke="black" points="306.5,-139 306.5,-161 427.5,-161 427.5,-139 306.5,-139"/>
<text text-anchor="start" x="309.5" y="-147.2" font-family="Helvetica,sans-Serif" font-size="11.00">timestamp[29,6]</text>
<polygon fill="none" stroke="black" points="192.5,-117 192.5,-139 306.5,-139 306.5,-117 192.5,-117"/>
<text text-anchor="start" x="212.5" y="-125.2" font-family="Helvetica,sans-Serif" font-size="11.00">updated_on</text>
<polygon fill="none" stroke="black" points="306.5,-117 306.5,-139 427.5,-139 427.5,-117 306.5,-117"/>
<text text-anchor="start" x="309.5" y="-125.2" font-family="Helvetica,sans-Serif" font-size="11.00">timestamp[29,6]</text>
<polygon fill="#ffffff" stroke="none" points="192.5,-99 192.5,-117 254.5,-117 254.5,-99 192.5,-99"/>
<polygon fill="none" stroke="black" points="192.5,-99 192.5,-117 254.5,-117 254.5,-99 192.5,-99"/>
<text text-anchor="start" x="195.5" y="-105.2" font-family="Helvetica,sans-Serif" font-size="11.00">&lt; 1</text>
<polygon fill="#ffffff" stroke="none" points="254.5,-99 254.5,-117 306.5,-117 306.5,-99 254.5,-99"/>
<polygon fill="none" stroke="black" points="254.5,-99 254.5,-117 306.5,-117 306.5,-99 254.5,-99"/>
<text text-anchor="start" x="296.5" y="-105.2" font-family="Helvetica,sans-Serif" font-size="11.00"> &#160;</text>
<polygon fill="#ffffff" stroke="none" points="306.5,-99 306.5,-117 427.5,-117 427.5,-99 306.5,-99"/>
<polygon fill="none" stroke="black" points="306.5,-99 306.5,-117 427.5,-117 427.5,-99 306.5,-99"/>
<text text-anchor="start" x="407.5" y="-105.2" font-family="Helvetica,sans-Serif" font-size="11.00">0 &gt;</text>
<polygon fill="none" stroke="black" stroke-width="2" points="191,-98 191,-426 428,-426 428,-98 191,-98"/>
</a>
</g>
</g>
<!-- miq_requests -->
<g id="node2" class="node"><title>miq_requests</title>
<g id="a_node2"><a xlink:href="../../tables/miq_requests.html" xlink:title="miq_requests" target="_top">
<polygon fill="#ffffff" stroke="none" points="8,-37 8,-337 141,-337 141,-37 8,-37"/>
<polygon fill="#f5f5f5" stroke="none" points="8.5,-315 8.5,-337 141.5,-337 141.5,-315 8.5,-315"/>
<polygon fill="none" stroke="black" points="8.5,-315 8.5,-337 141.5,-337 141.5,-315 8.5,-315"/>
<text text-anchor="start" x="13.5" y="-324.2" font-family="Helvetica,sans-Serif" font-weight="bold" font-size="11.00">miq_requests</text>
<text text-anchor="start" x="102.5" y="-323.2" font-family="Helvetica,sans-Serif" font-size="11.00">[table]</text>
<polygon fill="none" stroke="black" points="8.5,-293 8.5,-315 141.5,-315 141.5,-293 8.5,-293"/>
<image xlink:href="../../images/primaryKeys.png" width="11px" height="12px" preserveAspectRatio="xMinYMin meet" x="13.5" y="-310"/>
<text text-anchor="start" x="28.5" y="-301.2" font-family="Helvetica,sans-Serif" font-size="11.00">id</text>
<polygon fill="#ffffff" stroke="none" points="8.5,-271 8.5,-293 141.5,-293 141.5,-271 8.5,-271"/>
<polygon fill="none" stroke="black" points="8.5,-271 8.5,-293 141.5,-293 141.5,-271 8.5,-271"/>
<text text-anchor="start" x="28.5" y="-279.2" font-family="Helvetica,sans-Serif" font-size="11.00">approval_state</text>
<polygon fill="#ffffff" stroke="none" points="8.5,-249 8.5,-271 141.5,-271 141.5,-249 8.5,-249"/>
<polygon fill="none" stroke="black" points="8.5,-249 8.5,-271 141.5,-271 141.5,-249 8.5,-249"/>
<text text-anchor="start" x="28.5" y="-257.2" font-family="Helvetica,sans-Serif" font-size="11.00">type</text>
<polygon fill="#ffffff" stroke="none" points="8.5,-227 8.5,-249 141.5,-249 141.5,-227 8.5,-227"/>
<polygon fill="none" stroke="black" points="8.5,-227 8.5,-249 141.5,-249 141.5,-227 8.5,-227"/>
<text text-anchor="start" x="28.5" y="-235.2" font-family="Helvetica,sans-Serif" font-size="11.00">requester_id</text>
<polygon fill="#ffffff" stroke="none" points="8.5,-205 8.5,-227 141.5,-227 141.5,-205 8.5,-205"/>
<polygon fill="none" stroke="black" points="8.5,-205 8.5,-227 141.5,-227 141.5,-205 8.5,-205"/>
<text text-anchor="start" x="28.5" y="-213.2" font-family="Helvetica,sans-Serif" font-size="11.00">source_id</text>
<polygon fill="#ffffff" stroke="none" points="8.5,-183 8.5,-205 141.5,-205 141.5,-183 8.5,-183"/>
<polygon fill="none" stroke="black" points="8.5,-183 8.5,-205 141.5,-205 141.5,-183 8.5,-183"/>
<text text-anchor="start" x="28.5" y="-191.2" font-family="Helvetica,sans-Serif" font-size="11.00">source_type</text>
<polygon fill="#ffffff" stroke="none" points="8.5,-161 8.5,-183 141.5,-183 141.5,-161 8.5,-161"/>
<polygon fill="none" stroke="black" points="8.5,-161 8.5,-183 141.5,-183 141.5,-161 8.5,-161"/>
<text text-anchor="start" x="28.5" y="-169.2" font-family="Helvetica,sans-Serif" font-size="11.00">destination_id</text>
<polygon fill="#ffffff" stroke="none" points="8.5,-139 8.5,-161 141.5,-161 141.5,-139 8.5,-139"/>
<polygon fill="none" stroke="black" points="8.5,-139 8.5,-161 141.5,-161 141.5,-139 8.5,-139"/>
<text text-anchor="start" x="28.5" y="-147.2" font-family="Helvetica,sans-Serif" font-size="11.00">destination_type</text>
<polygon fill="#ffffff" stroke="none" points="8.5,-117 8.5,-139 141.5,-139 141.5,-117 8.5,-117"/>
<polygon fill="none" stroke="black" points="8.5,-117 8.5,-139 141.5,-139 141.5,-117 8.5,-117"/>
<image xlink:href="../../images/foreignKeys.png" width="11px" height="12px" preserveAspectRatio="xMinYMin meet" x="13.5" y="-134"/>
<text text-anchor="start" x="28.5" y="-125.2" font-family="Helvetica,sans-Serif" font-size="11.00">tenant_id</text>
<polygon fill="none" stroke="black" points="8.5,-95 8.5,-117 141.5,-117 141.5,-95 8.5,-95"/>
<image xlink:href="../../images/foreignKeys.png" width="11px" height="12px" preserveAspectRatio="xMinYMin meet" x="13.5" y="-112"/>
<text text-anchor="start" x="28.5" y="-103.2" font-family="Helvetica,sans-Serif" font-size="11.00">service_order_id</text>
<polygon fill="#ffffff" stroke="none" points="8.5,-73 8.5,-95 141.5,-95 141.5,-73 8.5,-73"/>
<polygon fill="none" stroke="black" points="8.5,-73 8.5,-95 141.5,-95 141.5,-73 8.5,-73"/>
<text text-anchor="start" x="28.5" y="-81.2" font-family="Helvetica,sans-Serif" font-size="11.00">parent_id</text>
<polygon fill="none" stroke="black" points="8.5,-55 8.5,-73 141.5,-73 141.5,-55 8.5,-55"/>
<text text-anchor="start" x="11.5" y="-61.2" font-family="Helvetica,sans-Serif" font-size="11.00">...</text>
<polygon fill="#ffffff" stroke="none" points="8.5,-37 8.5,-55 68.5,-55 68.5,-37 8.5,-37"/>
<polygon fill="none" stroke="black" points="8.5,-37 8.5,-55 68.5,-55 68.5,-37 8.5,-37"/>
<text text-anchor="start" x="11.5" y="-43.2" font-family="Helvetica,sans-Serif" font-size="11.00">&lt; 2</text>
<polygon fill="#ffffff" stroke="none" points="68.5,-37 68.5,-55 99.5,-55 99.5,-37 68.5,-37"/>
<polygon fill="none" stroke="black" points="68.5,-37 68.5,-55 99.5,-55 99.5,-37 68.5,-37"/>
<text text-anchor="start" x="89.5" y="-43.2" font-family="Helvetica,sans-Serif" font-size="11.00"> &#160;</text>
<polygon fill="#ffffff" stroke="none" points="99.5,-37 99.5,-55 141.5,-55 141.5,-37 99.5,-37"/>
<polygon fill="none" stroke="black" points="99.5,-37 99.5,-55 141.5,-55 141.5,-37 99.5,-37"/>
<text text-anchor="start" x="121.5" y="-43.2" font-family="Helvetica,sans-Serif" font-size="11.00">2 &gt;</text>
</a>
</g>
</g>
<!-- miq_approvals&#45;&gt;miq_requests -->
<g id="edge1" class="edge"><title>miq_approvals:miq_request_id:w&#45;&gt;miq_requests:id:e</title>
<path fill="none" stroke="black" d="M176.991,-304C165.677,-304 158.493,-304 142.5,-304"/>
<polygon fill="black" stroke="black" points="183.5,-304 191.5,-307.6 187.5,-304 191.5,-304 191.5,-304 191.5,-304 187.5,-304 191.5,-300.4 183.5,-304 183.5,-304"/>
<ellipse fill="none" stroke="black" cx="180.3" cy="-304" rx="3.2" ry="3.2"/>
</g>
</g>
</svg>
