<?xml version="1.0" encoding="UTF-8" standalone="no"?>
<!DOCTYPE svg PUBLIC "-//W3C//DTD SVG 1.1//EN"
 "http://www.w3.org/Graphics/SVG/1.1/DTD/svg11.dtd">
<!-- Generated by graphviz version 2.38.0 (20140413.2041)
 -->
<!-- Title: twoDegreesRelationshipsDiagram Pages: 1 -->
<svg width="707pt" height="484pt"
 viewBox="0.00 0.00 707.00 484.00" xmlns="http://www.w3.org/2000/svg" xmlns:xlink="http://www.w3.org/1999/xlink">
<g id="graph0" class="graph" transform="scale(1 1) rotate(0) translate(4 480)">
<title>twoDegreesRelationshipsDiagram</title>
<polygon fill="#ffffff" stroke="none" points="-4,4 -4,-480 703,-480 703,4 -4,4"/>
<text text-anchor="middle" x="74.5" y="-7.2" font-family="Helvetica,sans-Serif" font-size="11.00">Generated by SchemaSpy</text>
<!-- miq_alert_status_actions -->
<g id="node1" class="node"><title>miq_alert_status_actions</title>
<g id="a_node1"><a xlink:href="../../tables/miq_alert_status_actions.html" xlink:title="miq_alert_status_actions" target="_top">
<polygon fill="#ffffff" stroke="none" points="502,-326 502,-472 691,-472 691,-326 502,-326"/>
<polygon fill="#f5f5f5" stroke="none" points="502.5,-450 502.5,-472 691.5,-472 691.5,-450 502.5,-450"/>
<polygon fill="none" stroke="black" points="502.5,-450 502.5,-472 691.5,-472 691.5,-450 502.5,-450"/>
<text text-anchor="start" x="507.5" y="-459.2" font-family="Helvetica,sans-Serif" font-weight="bold" font-size="11.00">miq_alert_status_actions</text>
<text text-anchor="start" x="652.5" y="-458.2" font-family="Helvetica,sans-Serif" font-size="11.00">[table]</text>
<polygon fill="none" stroke="black" points="502.5,-428 502.5,-450 691.5,-450 691.5,-428 502.5,-428"/>
<image xlink:href="../../images/primaryKeys.png" width="11px" height="12px" preserveAspectRatio="xMinYMin meet" x="507.5" y="-445"/>
<text text-anchor="start" x="533.5" y="-436.2" font-family="Helvetica,sans-Serif" font-size="11.00">id</text>
<polygon fill="#ffffff" stroke="none" points="502.5,-406 502.5,-428 691.5,-428 691.5,-406 502.5,-406"/>
<polygon fill="none" stroke="black" points="502.5,-406 502.5,-428 691.5,-428 691.5,-406 502.5,-406"/>
<image xlink:href="../../images/foreignKeys.png" width="11px" height="12px" preserveAspectRatio="xMinYMin meet" x="507.5" y="-423"/>
<text text-anchor="start" x="533.5" y="-414.2" font-family="Helvetica,sans-Serif" font-size="11.00">user_id</text>
<polygon fill="#ffffff" stroke="none" points="502.5,-384 502.5,-406 691.5,-406 691.5,-384 502.5,-384"/>
<polygon fill="none" stroke="black" points="502.5,-384 502.5,-406 691.5,-406 691.5,-384 502.5,-384"/>
<text text-anchor="start" x="533.5" y="-392.2" font-family="Helvetica,sans-Serif" font-size="11.00">assignee_id</text>
<polygon fill="#ffffff" stroke="none" points="502.5,-362 502.5,-384 691.5,-384 691.5,-362 502.5,-362"/>
<polygon fill="none" stroke="black" points="502.5,-362 502.5,-384 691.5,-384 691.5,-362 502.5,-362"/>
<image xlink:href="../../images/foreignKeys.png" width="11px" height="12px" preserveAspectRatio="xMinYMin meet" x="507.5" y="-379"/>
<text text-anchor="start" x="533.5" y="-370.2" font-family="Helvetica,sans-Serif" font-size="11.00">miq_alert_status_id</text>
<polygon fill="none" stroke="black" points="502.5,-344 502.5,-362 691.5,-362 691.5,-344 502.5,-344"/>
<text text-anchor="start" x="505.5" y="-350.2" font-family="Helvetica,sans-Serif" font-size="11.00">...</text>
<polygon fill="#ffffff" stroke="none" points="502.5,-326 502.5,-344 595.5,-344 595.5,-326 502.5,-326"/>
<polygon fill="none" stroke="black" points="502.5,-326 502.5,-344 595.5,-344 595.5,-326 502.5,-326"/>
<text text-anchor="start" x="505.5" y="-332.2" font-family="Helvetica,sans-Serif" font-size="11.00">&lt; 2</text>
<polygon fill="#ffffff" stroke="none" points="595.5,-326 595.5,-344 643.5,-344 643.5,-326 595.5,-326"/>
<polygon fill="none" stroke="black" points="595.5,-326 595.5,-344 643.5,-344 643.5,-326 595.5,-326"/>
<text text-anchor="start" x="633.5" y="-332.2" font-family="Helvetica,sans-Serif" font-size="11.00"> &#160;</text>
<polygon fill="#ffffff" stroke="none" points="643.5,-326 643.5,-344 691.5,-344 691.5,-326 643.5,-326"/>
<polygon fill="none" stroke="black" points="643.5,-326 643.5,-344 691.5,-344 691.5,-326 643.5,-326"/>
<text text-anchor="start" x="681.5" y="-332.2" font-family="Helvetica,sans-Serif" font-size="11.00"> &#160;</text>
</a>
</g>
</g>
<!-- miq_alert_statuses -->
<g id="node2" class="node"><title>miq_alert_statuses</title>
<g id="a_node2"><a xlink:href="../../tables/miq_alert_statuses.html" xlink:title="miq_alert_statuses" target="_top">
<polygon fill="#ffffff" stroke="none" points="195,-37 195,-389 453,-389 453,-37 195,-37"/>
<polygon fill="#f5f5f5" stroke="none" points="197,-365 197,-387 451,-387 451,-365 197,-365"/>
<polygon fill="none" stroke="black" points="197,-365 197,-387 451,-387 451,-365 197,-365"/>
<text text-anchor="start" x="202" y="-374.2" font-family="Helvetica,sans-Serif" font-weight="bold" font-size="11.00">miq_alert_statuses</text>
<text text-anchor="start" x="412" y="-373.2" font-family="Helvetica,sans-Serif" font-size="11.00">[table]</text>
<polygon fill="none" stroke="black" points="197,-343 197,-365 330,-365 330,-343 197,-343"/>
<image xlink:href="../../images/primaryKeys.png" width="11px" height="12px" preserveAspectRatio="xMinYMin meet" x="202" y="-360"/>
<text text-anchor="start" x="217" y="-351.2" font-family="Helvetica,sans-Serif" font-size="11.00">id</text>
<polygon fill="none" stroke="black" points="330,-343 330,-365 451,-365 451,-343 330,-343"/>
<text text-anchor="start" x="333" y="-351.2" font-family="Helvetica,sans-Serif" font-size="11.00">bigserial[19]</text>
<polygon fill="#ffffff" stroke="none" points="197,-321 197,-343 330,-343 330,-321 197,-321"/>
<polygon fill="none" stroke="black" points="197,-321 197,-343 330,-343 330,-321 197,-321"/>
<image xlink:href="../../images/foreignKeys.png" width="11px" height="12px" preserveAspectRatio="xMinYMin meet" x="202" y="-338"/>
<text text-anchor="start" x="217" y="-329.2" font-family="Helvetica,sans-Serif" font-size="11.00">miq_alert_id</text>
<polygon fill="none" stroke="black" points="330,-321 330,-343 451,-343 451,-321 330,-321"/>
<text text-anchor="start" x="333" y="-329.2" font-family="Helvetica,sans-Serif" font-size="11.00">int8[19]</text>
<polygon fill="#ffffff" stroke="none" points="197,-299 197,-321 330,-321 330,-299 197,-299"/>
<polygon fill="none" stroke="black" points="197,-299 197,-321 330,-321 330,-299 197,-299"/>
<text text-anchor="start" x="217" y="-307.2" font-family="Helvetica,sans-Serif" font-size="11.00">resource_id</text>
<polygon fill="none" stroke="black" points="330,-299 330,-321 451,-321 451,-299 330,-299"/>
<text text-anchor="start" x="333" y="-307.2" font-family="Helvetica,sans-Serif" font-size="11.00">int8[19]</text>
<polygon fill="#ffffff" stroke="none" points="197,-277 197,-299 330,-299 330,-277 197,-277"/>
<polygon fill="none" stroke="black" points="197,-277 197,-299 330,-299 330,-277 197,-277"/>
<text text-anchor="start" x="217" y="-285.2" font-family="Helvetica,sans-Serif" font-size="11.00">resource_type</text>
<polygon fill="none" stroke="black" points="330,-277 330,-299 451,-299 451,-277 330,-277"/>
<text text-anchor="start" x="333" y="-285.2" font-family="Helvetica,sans-Serif" font-size="11.00">varchar[2147483647]</text>
<polygon fill="none" stroke="black" points="197,-255 197,-277 330,-277 330,-255 197,-255"/>
<text text-anchor="start" x="217" y="-263.2" font-family="Helvetica,sans-Serif" font-size="11.00">evaluated_on</text>
<polygon fill="none" stroke="black" points="330,-255 330,-277 451,-277 451,-255 330,-255"/>
<text text-anchor="start" x="333" y="-263.2" font-family="Helvetica,sans-Serif" font-size="11.00">timestamp[29,6]</text>
<polygon fill="none" stroke="black" points="197,-233 197,-255 330,-255 330,-233 197,-233"/>
<text text-anchor="start" x="217" y="-241.2" font-family="Helvetica,sans-Serif" font-size="11.00">result</text>
<polygon fill="none" stroke="black" points="330,-233 330,-255 451,-255 451,-233 330,-233"/>
<text text-anchor="start" x="333" y="-241.2" font-family="Helvetica,sans-Serif" font-size="11.00">bool[1]</text>
<polygon fill="none" stroke="black" points="197,-211 197,-233 330,-233 330,-211 197,-211"/>
<text text-anchor="start" x="217" y="-219.2" font-family="Helvetica,sans-Serif" font-size="11.00">url</text>
<polygon fill="none" stroke="black" points="330,-211 330,-233 451,-233 451,-211 330,-211"/>
<text text-anchor="start" x="333" y="-219.2" font-family="Helvetica,sans-Serif" font-size="11.00">text[2147483647]</text>
<polygon fill="none" stroke="black" points="197,-189 197,-211 330,-211 330,-189 197,-189"/>
<text text-anchor="start" x="217" y="-197.2" font-family="Helvetica,sans-Serif" font-size="11.00">severity</text>
<polygon fill="none" stroke="black" points="330,-189 330,-211 451,-211 451,-189 330,-189"/>
<text text-anchor="start" x="333" y="-197.2" font-family="Helvetica,sans-Serif" font-size="11.00">varchar[2147483647]</text>
<polygon fill="none" stroke="black" points="197,-167 197,-189 330,-189 330,-167 197,-167"/>
<text text-anchor="start" x="217" y="-175.2" font-family="Helvetica,sans-Serif" font-size="11.00">acknowledged</text>
<polygon fill="none" stroke="black" points="330,-167 330,-189 451,-189 451,-167 330,-167"/>
<text text-anchor="start" x="333" y="-175.2" font-family="Helvetica,sans-Serif" font-size="11.00">bool[1]</text>
<polygon fill="none" stroke="black" points="197,-145 197,-167 330,-167 330,-145 197,-145"/>
<text text-anchor="start" x="217" y="-153.2" font-family="Helvetica,sans-Serif" font-size="11.00">ems_id</text>
<polygon fill="none" stroke="black" points="330,-145 330,-167 451,-167 451,-145 330,-145"/>
<text text-anchor="start" x="333" y="-153.2" font-family="Helvetica,sans-Serif" font-size="11.00">int8[19]</text>
<polygon fill="none" stroke="black" points="197,-123 197,-145 330,-145 330,-123 197,-123"/>
<text text-anchor="start" x="217" y="-131.2" font-family="Helvetica,sans-Serif" font-size="11.00">description</text>
<polygon fill="none" stroke="black" points="330,-123 330,-145 451,-145 451,-123 330,-123"/>
<text text-anchor="start" x="333" y="-131.2" font-family="Helvetica,sans-Serif" font-size="11.00">varchar[2147483647]</text>
<polygon fill="none" stroke="black" points="197,-101 197,-123 330,-123 330,-101 197,-101"/>
<text text-anchor="start" x="217" y="-109.2" font-family="Helvetica,sans-Serif" font-size="11.00">resolved</text>
<polygon fill="none" stroke="black" points="330,-101 330,-123 451,-123 451,-101 330,-101"/>
<text text-anchor="start" x="333" y="-109.2" font-family="Helvetica,sans-Serif" font-size="11.00">bool[1]</text>
<polygon fill="#ffffff" stroke="none" points="197,-79 197,-101 330,-101 330,-79 197,-79"/>
<polygon fill="none" stroke="black" points="197,-79 197,-101 330,-101 330,-79 197,-79"/>
<text text-anchor="start" x="217" y="-87.2" font-family="Helvetica,sans-Serif" font-size="11.00">event_ems_ref</text>
<polygon fill="none" stroke="black" points="330,-79 330,-101 451,-101 451,-79 330,-79"/>
<text text-anchor="start" x="333" y="-87.2" font-family="Helvetica,sans-Serif" font-size="11.00">varchar[2147483647]</text>
<polygon fill="#ffffff" stroke="none" points="197,-57 197,-79 330,-79 330,-57 197,-57"/>
<polygon fill="none" stroke="black" points="197,-57 197,-79 330,-79 330,-57 197,-57"/>
<text text-anchor="start" x="217" y="-65.2" font-family="Helvetica,sans-Serif" font-size="11.00">assignee_id</text>
<polygon fill="none" stroke="black" points="330,-57 330,-79 451,-79 451,-57 330,-57"/>
<text text-anchor="start" x="333" y="-65.2" font-family="Helvetica,sans-Serif" font-size="11.00">int8[19]</text>
<polygon fill="#ffffff" stroke="none" points="197,-39 197,-57 268,-57 268,-39 197,-39"/>
<polygon fill="none" stroke="black" points="197,-39 197,-57 268,-57 268,-39 197,-39"/>
<text text-anchor="start" x="200" y="-45.2" font-family="Helvetica,sans-Serif" font-size="11.00">&lt; 1</text>
<polygon fill="#ffffff" stroke="none" points="268,-39 268,-57 330,-57 330,-39 268,-39"/>
<polygon fill="none" stroke="black" points="268,-39 268,-57 330,-57 330,-39 268,-39"/>
<text text-anchor="start" x="320" y="-45.2" font-family="Helvetica,sans-Serif" font-size="11.00"> &#160;</text>
<polygon fill="#ffffff" stroke="none" points="330,-39 330,-57 451,-57 451,-39 330,-39"/>
<polygon fill="none" stroke="black" points="330,-39 330,-57 451,-57 451,-39 330,-39"/>
<text text-anchor="start" x="431" y="-45.2" font-family="Helvetica,sans-Serif" font-size="11.00">1 &gt;</text>
<polygon fill="none" stroke="black" stroke-width="2" points="196,-38 196,-388 452,-388 452,-38 196,-38"/>
</a>
</g>
</g>
<!-- miq_alert_status_actions&#45;&gt;miq_alert_statuses -->
<g id="edge1" class="edge"><title>miq_alert_status_actions:miq_alert_status_id:w&#45;&gt;miq_alert_statuses:id.type:e</title>
<path fill="none" stroke="black" d="M487.138,-370.031C475.425,-364.688 469.674,-354 452,-354"/>
<polygon fill="black" stroke="black" points="493.666,-371.381 500.771,-376.525 497.583,-372.19 501.5,-373 501.5,-373 501.5,-373 497.583,-372.19 502.229,-369.475 493.666,-371.381 493.666,-371.381"/>
<ellipse fill="none" stroke="black" cx="490.532" cy="-370.733" rx="3.2" ry="3.2"/>
</g>
<!-- users -->
<g id="node3" class="node"><title>users</title>
<g id="a_node3"><a xlink:href="../../tables/users.html" xlink:title="users" target="_top">
<polygon fill="#ffffff" stroke="none" points="284.5,-410 284.5,-468 363.5,-468 363.5,-410 284.5,-410"/>
<polygon fill="#f5f5f5" stroke="none" points="285,-446 285,-468 364,-468 364,-446 285,-446"/>
<polygon fill="none" stroke="black" points="285,-446 285,-468 364,-468 364,-446 285,-446"/>
<text text-anchor="start" x="290" y="-455.2" font-family="Helvetica,sans-Serif" font-weight="bold" font-size="11.00">users</text>
<text text-anchor="start" x="325" y="-454.2" font-family="Helvetica,sans-Serif" font-size="11.00">[table]</text>
<polygon fill="none" stroke="black" points="285,-428 285,-446 364,-446 364,-428 285,-428"/>
<text text-anchor="start" x="288" y="-434.2" font-family="Helvetica,sans-Serif" font-size="11.00">...</text>
<polygon fill="#ffffff" stroke="none" points="285,-410 285,-428 309,-428 309,-410 285,-410"/>
<polygon fill="none" stroke="black" points="285,-410 285,-428 309,-428 309,-410 285,-410"/>
<text text-anchor="start" x="288" y="-416.2" font-family="Helvetica,sans-Serif" font-size="11.00"> &#160;</text>
<polygon fill="#ffffff" stroke="none" points="309,-410 309,-428 328,-428 328,-410 309,-410"/>
<polygon fill="none" stroke="black" points="309,-410 309,-428 328,-428 328,-410 309,-410"/>
<text text-anchor="start" x="318" y="-416.2" font-family="Helvetica,sans-Serif" font-size="11.00"> &#160;</text>
<polygon fill="#ffffff" stroke="none" points="328,-410 328,-428 364,-428 364,-410 328,-410"/>
<polygon fill="none" stroke="black" points="328,-410 328,-428 364,-428 364,-410 328,-410"/>
<text text-anchor="start" x="337" y="-416.2" font-family="Helvetica,sans-Serif" font-size="11.00">15 &gt;</text>
</a>
</g>
</g>
<!-- miq_alert_status_actions&#45;&gt;users -->
<g id="edge2" class="edge"><title>miq_alert_status_actions:user_id:w&#45;&gt;users:elipses:e</title>
<path fill="none" stroke="black" d="M486.999,-417.4C437.521,-420.218 421.165,-437 365,-437"/>
<polygon fill="black" stroke="black" points="493.503,-417.22 501.599,-420.599 497.502,-417.11 501.5,-417 501.5,-417 501.5,-417 497.502,-417.11 501.401,-413.401 493.503,-417.22 493.503,-417.22"/>
<ellipse fill="none" stroke="black" cx="490.304" cy="-417.309" rx="3.2" ry="3.2"/>
</g>
<!-- miq_alerts -->
<g id="node4" class="node"><title>miq_alerts</title>
<g id="a_node4"><a xlink:href="../../tables/miq_alerts.html" xlink:title="miq_alerts" target="_top">
<polygon fill="#ffffff" stroke="none" points="8,-285 8,-365 146,-365 146,-285 8,-285"/>
<polygon fill="#f5f5f5" stroke="none" points="8,-343 8,-365 146,-365 146,-343 8,-343"/>
<polygon fill="none" stroke="black" points="8,-343 8,-365 146,-365 146,-343 8,-343"/>
<text text-anchor="start" x="13" y="-352.2" font-family="Helvetica,sans-Serif" font-weight="bold" font-size="11.00">miq_alerts</text>
<text text-anchor="start" x="107" y="-351.2" font-family="Helvetica,sans-Serif" font-size="11.00">[table]</text>
<polygon fill="none" stroke="black" points="8,-321 8,-343 146,-343 146,-321 8,-321"/>
<image xlink:href="../../images/primaryKeys.png" width="11px" height="12px" preserveAspectRatio="xMinYMin meet" x="13" y="-338"/>
<text text-anchor="start" x="28" y="-329.2" font-family="Helvetica,sans-Serif" font-size="11.00">id</text>
<polygon fill="none" stroke="black" points="8,-303 8,-321 146,-321 146,-303 8,-303"/>
<text text-anchor="start" x="11" y="-309.2" font-family="Helvetica,sans-Serif" font-size="11.00">...</text>
<polygon fill="#ffffff" stroke="none" points="8,-285 8,-303 65,-303 65,-285 8,-285"/>
<polygon fill="none" stroke="black" points="8,-285 8,-303 65,-303 65,-285 8,-285"/>
<text text-anchor="start" x="11" y="-291.2" font-family="Helvetica,sans-Serif" font-size="11.00"> &#160;</text>
<polygon fill="#ffffff" stroke="none" points="65,-285 65,-303 100,-303 100,-285 65,-285"/>
<polygon fill="none" stroke="black" points="65,-285 65,-303 100,-303 100,-285 65,-285"/>
<text text-anchor="start" x="90" y="-291.2" font-family="Helvetica,sans-Serif" font-size="11.00"> &#160;</text>
<polygon fill="#ffffff" stroke="none" points="100,-285 100,-303 146,-303 146,-285 100,-285"/>
<polygon fill="none" stroke="black" points="100,-285 100,-303 146,-303 146,-285 100,-285"/>
<text text-anchor="start" x="126" y="-291.2" font-family="Helvetica,sans-Serif" font-size="11.00">1 &gt;</text>
</a>
</g>
</g>
<!-- miq_alert_statuses&#45;&gt;miq_alerts -->
<g id="edge3" class="edge"><title>miq_alert_statuses:miq_alert_id:w&#45;&gt;miq_alerts:id:e</title>
<path fill="none" stroke="black" d="M181.491,-332C170.177,-332 162.993,-332 147,-332"/>
<polygon fill="black" stroke="black" points="188,-332 196,-335.6 192,-332 196,-332 196,-332 196,-332 192,-332 196,-328.4 188,-332 188,-332"/>
<ellipse fill="none" stroke="black" cx="184.8" cy="-332" rx="3.2" ry="3.2"/>
</g>
</g>
</svg>
