<?xml version="1.0" encoding="UTF-8" standalone="no"?>
<!DOCTYPE svg PUBLIC "-//W3C//DTD SVG 1.1//EN"
 "http://www.w3.org/Graphics/SVG/1.1/DTD/svg11.dtd">
<!-- Generated by graphviz version 2.38.0 (20140413.2041)
 -->
<!-- Title: oneDegreeRelationshipsDiagram Pages: 1 -->
<svg width="555pt" height="219pt"
 viewBox="0.00 0.00 555.00 219.00" xmlns="http://www.w3.org/2000/svg" xmlns:xlink="http://www.w3.org/1999/xlink">
<g id="graph0" class="graph" transform="scale(1 1) rotate(0) translate(4 215)">
<title>oneDegreeRelationshipsDiagram</title>
<polygon fill="#ffffff" stroke="none" points="-4,4 -4,-215 551,-215 551,4 -4,4"/>
<text text-anchor="middle" x="74.5" y="-7.2" font-family="Helvetica,sans-Serif" font-size="11.00">Generated by SchemaSpy</text>
<!-- miq_report_result_details -->
<g id="node1" class="node"><title>miq_report_result_details</title>
<g id="a_node1"><a xlink:href="../../tables/miq_report_result_details.html" xlink:title="miq_report_result_details" target="_top">
<polygon fill="#ffffff" stroke="none" points="242,-75 242,-207 539,-207 539,-75 242,-75"/>
<polygon fill="#f5f5f5" stroke="none" points="244.5,-183 244.5,-205 537.5,-205 537.5,-183 244.5,-183"/>
<polygon fill="none" stroke="black" points="244.5,-183 244.5,-205 537.5,-205 537.5,-183 244.5,-183"/>
<text text-anchor="start" x="249.5" y="-192.2" font-family="Helvetica,sans-Serif" font-weight="bold" font-size="11.00">miq_report_result_details</text>
<text text-anchor="start" x="498.5" y="-191.2" font-family="Helvetica,sans-Serif" font-size="11.00">[table]</text>
<polygon fill="none" stroke="black" points="244.5,-161 244.5,-183 416.5,-183 416.5,-161 244.5,-161"/>
<image xlink:href="../../images/primaryKeys.png" width="11px" height="12px" preserveAspectRatio="xMinYMin meet" x="249.5" y="-178"/>
<text text-anchor="start" x="264.5" y="-169.2" font-family="Helvetica,sans-Serif" font-size="11.00">id</text>
<polygon fill="none" stroke="black" points="416.5,-161 416.5,-183 537.5,-183 537.5,-161 416.5,-161"/>
<text text-anchor="start" x="419.5" y="-169.2" font-family="Helvetica,sans-Serif" font-size="11.00">bigserial[19]</text>
<polygon fill="#ffffff" stroke="none" points="244.5,-139 244.5,-161 416.5,-161 416.5,-139 244.5,-139"/>
<polygon fill="none" stroke="black" points="244.5,-139 244.5,-161 416.5,-161 416.5,-139 244.5,-139"/>
<image xlink:href="../../images/foreignKeys.png" width="11px" height="12px" preserveAspectRatio="xMinYMin meet" x="249.5" y="-156"/>
<text text-anchor="start" x="264.5" y="-147.2" font-family="Helvetica,sans-Serif" font-size="11.00">miq_report_result_id</text>
<polygon fill="none" stroke="black" points="416.5,-139 416.5,-161 537.5,-161 537.5,-139 416.5,-139"/>
<text text-anchor="start" x="419.5" y="-147.2" font-family="Helvetica,sans-Serif" font-size="11.00">int8[19]</text>
<polygon fill="#ffffff" stroke="none" points="244.5,-117 244.5,-139 416.5,-139 416.5,-117 244.5,-117"/>
<polygon fill="none" stroke="black" points="244.5,-117 244.5,-139 416.5,-139 416.5,-117 244.5,-117"/>
<text text-anchor="start" x="264.5" y="-125.2" font-family="Helvetica,sans-Serif" font-size="11.00">data_type</text>
<polygon fill="none" stroke="black" points="416.5,-117 416.5,-139 537.5,-139 537.5,-117 416.5,-117"/>
<text text-anchor="start" x="419.5" y="-125.2" font-family="Helvetica,sans-Serif" font-size="11.00">varchar[2147483647]</text>
<polygon fill="none" stroke="black" points="244.5,-95 244.5,-117 416.5,-117 416.5,-95 244.5,-95"/>
<text text-anchor="start" x="264.5" y="-103.2" font-family="Helvetica,sans-Serif" font-size="11.00">data</text>
<polygon fill="none" stroke="black" points="416.5,-95 416.5,-117 537.5,-117 537.5,-95 416.5,-95"/>
<text text-anchor="start" x="419.5" y="-103.2" font-family="Helvetica,sans-Serif" font-size="11.00">text[2147483647]</text>
<polygon fill="#ffffff" stroke="none" points="244.5,-77 244.5,-95 335.5,-95 335.5,-77 244.5,-77"/>
<polygon fill="none" stroke="black" points="244.5,-77 244.5,-95 335.5,-95 335.5,-77 244.5,-77"/>
<text text-anchor="start" x="247.5" y="-83.2" font-family="Helvetica,sans-Serif" font-size="11.00">&lt; 1</text>
<polygon fill="#ffffff" stroke="none" points="335.5,-77 335.5,-95 416.5,-95 416.5,-77 335.5,-77"/>
<polygon fill="none" stroke="black" points="335.5,-77 335.5,-95 416.5,-95 416.5,-77 335.5,-77"/>
<text text-anchor="start" x="406.5" y="-83.2" font-family="Helvetica,sans-Serif" font-size="11.00"> &#160;</text>
<polygon fill="#ffffff" stroke="none" points="416.5,-77 416.5,-95 537.5,-95 537.5,-77 416.5,-77"/>
<polygon fill="none" stroke="black" points="416.5,-77 416.5,-95 537.5,-95 537.5,-77 416.5,-77"/>
<text text-anchor="start" x="517.5" y="-83.2" font-family="Helvetica,sans-Serif" font-size="11.00">0 &gt;</text>
<polygon fill="none" stroke="black" stroke-width="2" points="243,-76 243,-206 538,-206 538,-76 243,-76"/>
</a>
</g>
</g>
<!-- miq_report_results -->
<g id="node2" class="node"><title>miq_report_results</title>
<g id="a_node2"><a xlink:href="../../tables/miq_report_results.html" xlink:title="miq_report_results" target="_top">
<polygon fill="#ffffff" stroke="none" points="8,-37 8,-183 193,-183 193,-37 8,-37"/>
<polygon fill="#f5f5f5" stroke="none" points="8.5,-161 8.5,-183 193.5,-183 193.5,-161 8.5,-161"/>
<polygon fill="none" stroke="black" points="8.5,-161 8.5,-183 193.5,-183 193.5,-161 8.5,-161"/>
<text text-anchor="start" x="13.5" y="-170.2" font-family="Helvetica,sans-Serif" font-weight="bold" font-size="11.00">miq_report_results</text>
<text text-anchor="start" x="154.5" y="-169.2" font-family="Helvetica,sans-Serif" font-size="11.00">[table]</text>
<polygon fill="none" stroke="black" points="8.5,-139 8.5,-161 193.5,-161 193.5,-139 8.5,-139"/>
<image xlink:href="../../images/primaryKeys.png" width="11px" height="12px" preserveAspectRatio="xMinYMin meet" x="13.5" y="-156"/>
<text text-anchor="start" x="28.5" y="-147.2" font-family="Helvetica,sans-Serif" font-size="11.00">id</text>
<polygon fill="#ffffff" stroke="none" points="8.5,-117 8.5,-139 193.5,-139 193.5,-117 8.5,-117"/>
<polygon fill="none" stroke="black" points="8.5,-117 8.5,-139 193.5,-139 193.5,-117 8.5,-117"/>
<image xlink:href="../../images/foreignKeys.png" width="11px" height="12px" preserveAspectRatio="xMinYMin meet" x="13.5" y="-134"/>
<text text-anchor="start" x="28.5" y="-125.2" font-family="Helvetica,sans-Serif" font-size="11.00">miq_report_id</text>
<polygon fill="#ffffff" stroke="none" points="8.5,-95 8.5,-117 193.5,-117 193.5,-95 8.5,-95"/>
<polygon fill="none" stroke="black" points="8.5,-95 8.5,-117 193.5,-117 193.5,-95 8.5,-95"/>
<image xlink:href="../../images/foreignKeys.png" width="11px" height="12px" preserveAspectRatio="xMinYMin meet" x="13.5" y="-112"/>
<text text-anchor="start" x="28.5" y="-103.2" font-family="Helvetica,sans-Serif" font-size="11.00">miq_task_id</text>
<polygon fill="#ffffff" stroke="none" points="8.5,-73 8.5,-95 193.5,-95 193.5,-73 8.5,-73"/>
<polygon fill="none" stroke="black" points="8.5,-73 8.5,-95 193.5,-95 193.5,-73 8.5,-73"/>
<image xlink:href="../../images/foreignKeys.png" width="11px" height="12px" preserveAspectRatio="xMinYMin meet" x="13.5" y="-90"/>
<text text-anchor="start" x="28.5" y="-81.2" font-family="Helvetica,sans-Serif" font-size="11.00">miq_group_id</text>
<polygon fill="none" stroke="black" points="8.5,-55 8.5,-73 193.5,-73 193.5,-55 8.5,-55"/>
<text text-anchor="start" x="11.5" y="-61.2" font-family="Helvetica,sans-Serif" font-size="11.00">...</text>
<polygon fill="#ffffff" stroke="none" points="8.5,-37 8.5,-55 94.5,-55 94.5,-37 8.5,-37"/>
<polygon fill="none" stroke="black" points="8.5,-37 8.5,-55 94.5,-55 94.5,-37 8.5,-37"/>
<text text-anchor="start" x="11.5" y="-43.2" font-family="Helvetica,sans-Serif" font-size="11.00">&lt; 3</text>
<polygon fill="#ffffff" stroke="none" points="94.5,-37 94.5,-55 138.5,-55 138.5,-37 94.5,-37"/>
<polygon fill="none" stroke="black" points="94.5,-37 94.5,-55 138.5,-55 138.5,-37 94.5,-37"/>
<text text-anchor="start" x="128.5" y="-43.2" font-family="Helvetica,sans-Serif" font-size="11.00"> &#160;</text>
<polygon fill="#ffffff" stroke="none" points="138.5,-37 138.5,-55 193.5,-55 193.5,-37 138.5,-37"/>
<polygon fill="none" stroke="black" points="138.5,-37 138.5,-55 193.5,-55 193.5,-37 138.5,-37"/>
<text text-anchor="start" x="173.5" y="-43.2" font-family="Helvetica,sans-Serif" font-size="11.00">2 &gt;</text>
</a>
</g>
</g>
<!-- miq_report_result_details&#45;&gt;miq_report_results -->
<g id="edge1" class="edge"><title>miq_report_result_details:miq_report_result_id:w&#45;&gt;miq_report_results:id:e</title>
<path fill="none" stroke="black" d="M228.991,-150C217.677,-150 210.493,-150 194.5,-150"/>
<polygon fill="black" stroke="black" points="235.5,-150 243.5,-153.6 239.5,-150 243.5,-150 243.5,-150 243.5,-150 239.5,-150 243.5,-146.4 235.5,-150 235.5,-150"/>
<ellipse fill="none" stroke="black" cx="232.3" cy="-150" rx="3.2" ry="3.2"/>
</g>
</g>
</svg>
