<?xml version="1.0" encoding="UTF-8" standalone="no"?>
<!DOCTYPE svg PUBLIC "-//W3C//DTD SVG 1.1//EN"
 "http://www.w3.org/Graphics/SVG/1.1/DTD/svg11.dtd">
<!-- Generated by graphviz version 2.38.0 (20140413.2041)
 -->
<!-- Title: twoDegreesRelationshipsDiagram Pages: 1 -->
<svg width="729pt" height="399pt"
 viewBox="0.00 0.00 729.00 399.00" xmlns="http://www.w3.org/2000/svg" xmlns:xlink="http://www.w3.org/1999/xlink">
<g id="graph0" class="graph" transform="scale(1 1) rotate(0) translate(4 395)">
<title>twoDegreesRelationshipsDiagram</title>
<polygon fill="#ffffff" stroke="none" points="-4,4 -4,-395 725,-395 725,4 -4,4"/>
<text text-anchor="middle" x="74.5" y="-7.2" font-family="Helvetica,sans-Serif" font-size="11.00">Generated by SchemaSpy</text>
<!-- miq_alert_status_actions -->
<g id="node1" class="node"><title>miq_alert_status_actions</title>
<g id="a_node1"><a xlink:href="../../tables/miq_alert_status_actions.html" xlink:title="miq_alert_status_actions" target="_top">
<polygon fill="#ffffff" stroke="none" points="524,-327 524,-385 713,-385 713,-327 524,-327"/>
<polygon fill="#f5f5f5" stroke="none" points="524.5,-363 524.5,-385 713.5,-385 713.5,-363 524.5,-363"/>
<polygon fill="none" stroke="black" points="524.5,-363 524.5,-385 713.5,-385 713.5,-363 524.5,-363"/>
<text text-anchor="start" x="529.5" y="-372.2" font-family="Helvetica,sans-Serif" font-weight="bold" font-size="11.00">miq_alert_status_actions</text>
<text text-anchor="start" x="674.5" y="-371.2" font-family="Helvetica,sans-Serif" font-size="11.00">[table]</text>
<polygon fill="none" stroke="black" points="524.5,-345 524.5,-363 713.5,-363 713.5,-345 524.5,-345"/>
<text text-anchor="start" x="527.5" y="-351.2" font-family="Helvetica,sans-Serif" font-size="11.00">...</text>
<polygon fill="#ffffff" stroke="none" points="524.5,-327 524.5,-345 617.5,-345 617.5,-327 524.5,-327"/>
<polygon fill="none" stroke="black" points="524.5,-327 524.5,-345 617.5,-345 617.5,-327 524.5,-327"/>
<text text-anchor="start" x="527.5" y="-333.2" font-family="Helvetica,sans-Serif" font-size="11.00">&lt; 2</text>
<polygon fill="#ffffff" stroke="none" points="617.5,-327 617.5,-345 665.5,-345 665.5,-327 617.5,-327"/>
<polygon fill="none" stroke="black" points="617.5,-327 617.5,-345 665.5,-345 665.5,-327 617.5,-327"/>
<text text-anchor="start" x="655.5" y="-333.2" font-family="Helvetica,sans-Serif" font-size="11.00"> &#160;</text>
<polygon fill="#ffffff" stroke="none" points="665.5,-327 665.5,-345 713.5,-345 713.5,-327 665.5,-327"/>
<polygon fill="none" stroke="black" points="665.5,-327 665.5,-345 713.5,-345 713.5,-327 665.5,-327"/>
<text text-anchor="start" x="703.5" y="-333.2" font-family="Helvetica,sans-Serif" font-size="11.00"> &#160;</text>
</a>
</g>
</g>
<!-- miq_alert_statuses -->
<g id="node2" class="node"><title>miq_alert_statuses</title>
<g id="a_node2"><a xlink:href="../../tables/miq_alert_statuses.html" xlink:title="miq_alert_statuses" target="_top">
<polygon fill="#ffffff" stroke="none" points="320,-197 320,-387 475,-387 475,-197 320,-197"/>
<polygon fill="#f5f5f5" stroke="none" points="320.5,-365 320.5,-387 475.5,-387 475.5,-365 320.5,-365"/>
<polygon fill="none" stroke="black" points="320.5,-365 320.5,-387 475.5,-387 475.5,-365 320.5,-365"/>
<text text-anchor="start" x="325.5" y="-374.2" font-family="Helvetica,sans-Serif" font-weight="bold" font-size="11.00">miq_alert_statuses</text>
<text text-anchor="start" x="436.5" y="-373.2" font-family="Helvetica,sans-Serif" font-size="11.00">[table]</text>
<polygon fill="none" stroke="black" points="320.5,-343 320.5,-365 475.5,-365 475.5,-343 320.5,-343"/>
<image xlink:href="../../images/primaryKeys.png" width="11px" height="12px" preserveAspectRatio="xMinYMin meet" x="325.5" y="-360"/>
<text text-anchor="start" x="351.5" y="-351.2" font-family="Helvetica,sans-Serif" font-size="11.00">id</text>
<polygon fill="#ffffff" stroke="none" points="320.5,-321 320.5,-343 475.5,-343 475.5,-321 320.5,-321"/>
<polygon fill="none" stroke="black" points="320.5,-321 320.5,-343 475.5,-343 475.5,-321 320.5,-321"/>
<image xlink:href="../../images/foreignKeys.png" width="11px" height="12px" preserveAspectRatio="xMinYMin meet" x="325.5" y="-338"/>
<text text-anchor="start" x="351.5" y="-329.2" font-family="Helvetica,sans-Serif" font-size="11.00">miq_alert_id</text>
<polygon fill="#ffffff" stroke="none" points="320.5,-299 320.5,-321 475.5,-321 475.5,-299 320.5,-299"/>
<polygon fill="none" stroke="black" points="320.5,-299 320.5,-321 475.5,-321 475.5,-299 320.5,-299"/>
<text text-anchor="start" x="351.5" y="-307.2" font-family="Helvetica,sans-Serif" font-size="11.00">resource_id</text>
<polygon fill="#ffffff" stroke="none" points="320.5,-277 320.5,-299 475.5,-299 475.5,-277 320.5,-277"/>
<polygon fill="none" stroke="black" points="320.5,-277 320.5,-299 475.5,-299 475.5,-277 320.5,-277"/>
<text text-anchor="start" x="351.5" y="-285.2" font-family="Helvetica,sans-Serif" font-size="11.00">resource_type</text>
<polygon fill="#ffffff" stroke="none" points="320.5,-255 320.5,-277 475.5,-277 475.5,-255 320.5,-255"/>
<polygon fill="none" stroke="black" points="320.5,-255 320.5,-277 475.5,-277 475.5,-255 320.5,-255"/>
<text text-anchor="start" x="351.5" y="-263.2" font-family="Helvetica,sans-Serif" font-size="11.00">event_ems_ref</text>
<polygon fill="#ffffff" stroke="none" points="320.5,-233 320.5,-255 475.5,-255 475.5,-233 320.5,-233"/>
<polygon fill="none" stroke="black" points="320.5,-233 320.5,-255 475.5,-255 475.5,-233 320.5,-233"/>
<text text-anchor="start" x="351.5" y="-241.2" font-family="Helvetica,sans-Serif" font-size="11.00">assignee_id</text>
<polygon fill="none" stroke="black" points="320.5,-215 320.5,-233 475.5,-233 475.5,-215 320.5,-215"/>
<text text-anchor="start" x="323.5" y="-221.2" font-family="Helvetica,sans-Serif" font-size="11.00">...</text>
<polygon fill="#ffffff" stroke="none" points="320.5,-197 320.5,-215 391.5,-215 391.5,-197 320.5,-197"/>
<polygon fill="none" stroke="black" points="320.5,-197 320.5,-215 391.5,-215 391.5,-197 320.5,-197"/>
<text text-anchor="start" x="323.5" y="-203.2" font-family="Helvetica,sans-Serif" font-size="11.00">&lt; 1</text>
<polygon fill="#ffffff" stroke="none" points="391.5,-197 391.5,-215 428.5,-215 428.5,-197 391.5,-197"/>
<polygon fill="none" stroke="black" points="391.5,-197 391.5,-215 428.5,-215 428.5,-197 391.5,-197"/>
<text text-anchor="start" x="418.5" y="-203.2" font-family="Helvetica,sans-Serif" font-size="11.00"> &#160;</text>
<polygon fill="#ffffff" stroke="none" points="428.5,-197 428.5,-215 475.5,-215 475.5,-197 428.5,-197"/>
<polygon fill="none" stroke="black" points="428.5,-197 428.5,-215 475.5,-215 475.5,-197 428.5,-197"/>
<text text-anchor="start" x="455.5" y="-203.2" font-family="Helvetica,sans-Serif" font-size="11.00">1 &gt;</text>
</a>
</g>
</g>
<!-- miq_alert_status_actions&#45;&gt;miq_alert_statuses -->
<g id="edge1" class="edge"><title>miq_alert_status_actions:elipses:w&#45;&gt;miq_alert_statuses:id:e</title>
<path fill="none" stroke="black" d="M508.896,-354C498.434,-354 491.514,-354 476.5,-354"/>
<polygon fill="black" stroke="black" points="515.5,-354 523.5,-357.6 519.5,-354 523.5,-354 523.5,-354 523.5,-354 519.5,-354 523.5,-350.4 515.5,-354 515.5,-354"/>
<ellipse fill="none" stroke="black" cx="512.3" cy="-354" rx="3.2" ry="3.2"/>
</g>
<!-- miq_alerts -->
<g id="node3" class="node"><title>miq_alerts</title>
<g id="a_node3"><a xlink:href="../../tables/miq_alerts.html" xlink:title="miq_alerts" target="_top">
<polygon fill="#ffffff" stroke="none" points="8,-37 8,-367 271,-367 271,-37 8,-37"/>
<polygon fill="#f5f5f5" stroke="none" points="10.5,-343 10.5,-365 269.5,-365 269.5,-343 10.5,-343"/>
<polygon fill="none" stroke="black" points="10.5,-343 10.5,-365 269.5,-365 269.5,-343 10.5,-343"/>
<text text-anchor="start" x="15.5" y="-352.2" font-family="Helvetica,sans-Serif" font-weight="bold" font-size="11.00">miq_alerts</text>
<text text-anchor="start" x="230.5" y="-351.2" font-family="Helvetica,sans-Serif" font-size="11.00">[table]</text>
<polygon fill="none" stroke="black" points="10.5,-321 10.5,-343 148.5,-343 148.5,-321 10.5,-321"/>
<image xlink:href="../../images/primaryKeys.png" width="11px" height="12px" preserveAspectRatio="xMinYMin meet" x="15.5" y="-338"/>
<text text-anchor="start" x="30.5" y="-329.2" font-family="Helvetica,sans-Serif" font-size="11.00">id</text>
<polygon fill="none" stroke="black" points="148.5,-321 148.5,-343 269.5,-343 269.5,-321 148.5,-321"/>
<text text-anchor="start" x="151.5" y="-329.2" font-family="Helvetica,sans-Serif" font-size="11.00">bigserial[19]</text>
<polygon fill="none" stroke="black" points="10.5,-299 10.5,-321 148.5,-321 148.5,-299 10.5,-299"/>
<text text-anchor="start" x="30.5" y="-307.2" font-family="Helvetica,sans-Serif" font-size="11.00">guid</text>
<polygon fill="none" stroke="black" points="148.5,-299 148.5,-321 269.5,-321 269.5,-299 148.5,-299"/>
<text text-anchor="start" x="151.5" y="-307.2" font-family="Helvetica,sans-Serif" font-size="11.00">varchar[2147483647]</text>
<polygon fill="none" stroke="black" points="10.5,-277 10.5,-299 148.5,-299 148.5,-277 10.5,-277"/>
<text text-anchor="start" x="30.5" y="-285.2" font-family="Helvetica,sans-Serif" font-size="11.00">description</text>
<polygon fill="none" stroke="black" points="148.5,-277 148.5,-299 269.5,-299 269.5,-277 148.5,-277"/>
<text text-anchor="start" x="151.5" y="-285.2" font-family="Helvetica,sans-Serif" font-size="11.00">varchar[2147483647]</text>
<polygon fill="none" stroke="black" points="10.5,-255 10.5,-277 148.5,-277 148.5,-255 10.5,-255"/>
<text text-anchor="start" x="30.5" y="-263.2" font-family="Helvetica,sans-Serif" font-size="11.00">created_on</text>
<polygon fill="none" stroke="black" points="148.5,-255 148.5,-277 269.5,-277 269.5,-255 148.5,-255"/>
<text text-anchor="start" x="151.5" y="-263.2" font-family="Helvetica,sans-Serif" font-size="11.00">timestamp[29,6]</text>
<polygon fill="none" stroke="black" points="10.5,-233 10.5,-255 148.5,-255 148.5,-233 10.5,-233"/>
<text text-anchor="start" x="30.5" y="-241.2" font-family="Helvetica,sans-Serif" font-size="11.00">updated_on</text>
<polygon fill="none" stroke="black" points="148.5,-233 148.5,-255 269.5,-255 269.5,-233 148.5,-233"/>
<text text-anchor="start" x="151.5" y="-241.2" font-family="Helvetica,sans-Serif" font-size="11.00">timestamp[29,6]</text>
<polygon fill="none" stroke="black" points="10.5,-211 10.5,-233 148.5,-233 148.5,-211 10.5,-211"/>
<text text-anchor="start" x="30.5" y="-219.2" font-family="Helvetica,sans-Serif" font-size="11.00">options</text>
<polygon fill="none" stroke="black" points="148.5,-211 148.5,-233 269.5,-233 269.5,-211 148.5,-211"/>
<text text-anchor="start" x="151.5" y="-219.2" font-family="Helvetica,sans-Serif" font-size="11.00">text[2147483647]</text>
<polygon fill="none" stroke="black" points="10.5,-189 10.5,-211 148.5,-211 148.5,-189 10.5,-189"/>
<text text-anchor="start" x="30.5" y="-197.2" font-family="Helvetica,sans-Serif" font-size="11.00">db</text>
<polygon fill="none" stroke="black" points="148.5,-189 148.5,-211 269.5,-211 269.5,-189 148.5,-189"/>
<text text-anchor="start" x="151.5" y="-197.2" font-family="Helvetica,sans-Serif" font-size="11.00">varchar[2147483647]</text>
<polygon fill="none" stroke="black" points="10.5,-167 10.5,-189 148.5,-189 148.5,-167 10.5,-167"/>
<text text-anchor="start" x="30.5" y="-175.2" font-family="Helvetica,sans-Serif" font-size="11.00">miq_expression</text>
<polygon fill="none" stroke="black" points="148.5,-167 148.5,-189 269.5,-189 269.5,-167 148.5,-167"/>
<text text-anchor="start" x="151.5" y="-175.2" font-family="Helvetica,sans-Serif" font-size="11.00">text[2147483647]</text>
<polygon fill="none" stroke="black" points="10.5,-145 10.5,-167 148.5,-167 148.5,-145 10.5,-145"/>
<text text-anchor="start" x="30.5" y="-153.2" font-family="Helvetica,sans-Serif" font-size="11.00">responds_to_events</text>
<polygon fill="none" stroke="black" points="148.5,-145 148.5,-167 269.5,-167 269.5,-145 148.5,-145"/>
<text text-anchor="start" x="151.5" y="-153.2" font-family="Helvetica,sans-Serif" font-size="11.00">text[2147483647]</text>
<polygon fill="none" stroke="black" points="10.5,-123 10.5,-145 148.5,-145 148.5,-123 10.5,-123"/>
<text text-anchor="start" x="30.5" y="-131.2" font-family="Helvetica,sans-Serif" font-size="11.00">enabled</text>
<polygon fill="none" stroke="black" points="148.5,-123 148.5,-145 269.5,-145 269.5,-123 148.5,-123"/>
<text text-anchor="start" x="151.5" y="-131.2" font-family="Helvetica,sans-Serif" font-size="11.00">bool[1]</text>
<polygon fill="none" stroke="black" points="10.5,-101 10.5,-123 148.5,-123 148.5,-101 10.5,-101"/>
<text text-anchor="start" x="30.5" y="-109.2" font-family="Helvetica,sans-Serif" font-size="11.00">read_only</text>
<polygon fill="none" stroke="black" points="148.5,-101 148.5,-123 269.5,-123 269.5,-101 148.5,-101"/>
<text text-anchor="start" x="151.5" y="-109.2" font-family="Helvetica,sans-Serif" font-size="11.00">bool[1]</text>
<polygon fill="none" stroke="black" points="10.5,-79 10.5,-101 148.5,-101 148.5,-79 10.5,-79"/>
<text text-anchor="start" x="30.5" y="-87.2" font-family="Helvetica,sans-Serif" font-size="11.00">hash_expression</text>
<polygon fill="none" stroke="black" points="148.5,-79 148.5,-101 269.5,-101 269.5,-79 148.5,-79"/>
<text text-anchor="start" x="151.5" y="-87.2" font-family="Helvetica,sans-Serif" font-size="11.00">text[2147483647]</text>
<polygon fill="none" stroke="black" points="10.5,-57 10.5,-79 148.5,-79 148.5,-57 10.5,-57"/>
<text text-anchor="start" x="30.5" y="-65.2" font-family="Helvetica,sans-Serif" font-size="11.00">severity</text>
<polygon fill="none" stroke="black" points="148.5,-57 148.5,-79 269.5,-79 269.5,-57 148.5,-57"/>
<text text-anchor="start" x="151.5" y="-65.2" font-family="Helvetica,sans-Serif" font-size="11.00">varchar[2147483647]</text>
<polygon fill="#ffffff" stroke="none" points="10.5,-39 10.5,-57 84.5,-57 84.5,-39 10.5,-39"/>
<polygon fill="none" stroke="black" points="10.5,-39 10.5,-57 84.5,-57 84.5,-39 10.5,-39"/>
<text text-anchor="start" x="13.5" y="-45.2" font-family="Helvetica,sans-Serif" font-size="11.00">&lt; 0</text>
<polygon fill="#ffffff" stroke="none" points="84.5,-39 84.5,-57 148.5,-57 148.5,-39 84.5,-39"/>
<polygon fill="none" stroke="black" points="84.5,-39 84.5,-57 148.5,-57 148.5,-39 84.5,-39"/>
<text text-anchor="start" x="138.5" y="-45.2" font-family="Helvetica,sans-Serif" font-size="11.00"> &#160;</text>
<polygon fill="#ffffff" stroke="none" points="148.5,-39 148.5,-57 269.5,-57 269.5,-39 148.5,-39"/>
<polygon fill="none" stroke="black" points="148.5,-39 148.5,-57 269.5,-57 269.5,-39 148.5,-39"/>
<text text-anchor="start" x="249.5" y="-45.2" font-family="Helvetica,sans-Serif" font-size="11.00">1 &gt;</text>
<polygon fill="none" stroke="black" stroke-width="2" points="9,-38 9,-366 270,-366 270,-38 9,-38"/>
</a>
</g>
</g>
<!-- miq_alert_statuses&#45;&gt;miq_alerts -->
<g id="edge2" class="edge"><title>miq_alert_statuses:miq_alert_id:w&#45;&gt;miq_alerts:id.type:e</title>
<path fill="none" stroke="black" d="M304.991,-332C293.677,-332 286.493,-332 270.5,-332"/>
<polygon fill="black" stroke="black" points="311.5,-332 319.5,-335.6 315.5,-332 319.5,-332 319.5,-332 319.5,-332 315.5,-332 319.5,-328.4 311.5,-332 311.5,-332"/>
<ellipse fill="none" stroke="black" cx="308.3" cy="-332" rx="3.2" ry="3.2"/>
</g>
</g>
</svg>
