<?xml version="1.0" encoding="UTF-8" standalone="no"?>
<!DOCTYPE svg PUBLIC "-//W3C//DTD SVG 1.1//EN"
 "http://www.w3.org/Graphics/SVG/1.1/DTD/svg11.dtd">
<!-- Generated by graphviz version 2.38.0 (20140413.2041)
 -->
<!-- Title: oneDegreeRelationshipsDiagram Pages: 1 -->
<svg width="484pt" height="274pt"
 viewBox="0.00 0.00 484.00 274.00" xmlns="http://www.w3.org/2000/svg" xmlns:xlink="http://www.w3.org/1999/xlink">
<g id="graph0" class="graph" transform="scale(1 1) rotate(0) translate(4 270)">
<title>oneDegreeRelationshipsDiagram</title>
<polygon fill="#ffffff" stroke="none" points="-4,4 -4,-270 480,-270 480,4 -4,4"/>
<text text-anchor="middle" x="74.5" y="-7.2" font-family="Helvetica,sans-Serif" font-size="11.00">Generated by SchemaSpy</text>
<!-- miq_roles_features -->
<g id="node1" class="node"><title>miq_roles_features</title>
<g id="a_node1"><a xlink:href="../../tables/miq_roles_features.html" xlink:title="miq_roles_features" target="_top">
<polygon fill="#ffffff" stroke="none" points="231,-136 231,-246 468,-246 468,-136 231,-136"/>
<polygon fill="#f5f5f5" stroke="none" points="233.5,-222 233.5,-244 466.5,-244 466.5,-222 233.5,-222"/>
<polygon fill="none" stroke="black" points="233.5,-222 233.5,-244 466.5,-244 466.5,-222 233.5,-222"/>
<text text-anchor="start" x="238.5" y="-231.2" font-family="Helvetica,sans-Serif" font-weight="bold" font-size="11.00">miq_roles_features</text>
<text text-anchor="start" x="427.5" y="-230.2" font-family="Helvetica,sans-Serif" font-size="11.00">[table]</text>
<polygon fill="none" stroke="black" points="233.5,-200 233.5,-222 395.5,-222 395.5,-200 233.5,-200"/>
<image xlink:href="../../images/primaryKeys.png" width="11px" height="12px" preserveAspectRatio="xMinYMin meet" x="238.5" y="-217"/>
<text text-anchor="start" x="253.5" y="-208.2" font-family="Helvetica,sans-Serif" font-size="11.00">id</text>
<polygon fill="none" stroke="black" points="395.5,-200 395.5,-222 466.5,-222 466.5,-200 395.5,-200"/>
<text text-anchor="start" x="398.5" y="-208.2" font-family="Helvetica,sans-Serif" font-size="11.00">bigserial[19]</text>
<polygon fill="#ffffff" stroke="none" points="233.5,-178 233.5,-200 395.5,-200 395.5,-178 233.5,-178"/>
<polygon fill="none" stroke="black" points="233.5,-178 233.5,-200 395.5,-200 395.5,-178 233.5,-178"/>
<image xlink:href="../../images/foreignKeys.png" width="11px" height="12px" preserveAspectRatio="xMinYMin meet" x="238.5" y="-195"/>
<text text-anchor="start" x="253.5" y="-186.2" font-family="Helvetica,sans-Serif" font-size="11.00">miq_user_role_id</text>
<polygon fill="none" stroke="black" points="395.5,-178 395.5,-200 466.5,-200 466.5,-178 395.5,-178"/>
<text text-anchor="start" x="398.5" y="-186.2" font-family="Helvetica,sans-Serif" font-size="11.00">int8[19]</text>
<polygon fill="none" stroke="black" points="233.5,-156 233.5,-178 395.5,-178 395.5,-156 233.5,-156"/>
<image xlink:href="../../images/foreignKeys.png" width="11px" height="12px" preserveAspectRatio="xMinYMin meet" x="238.5" y="-173"/>
<text text-anchor="start" x="253.5" y="-164.2" font-family="Helvetica,sans-Serif" font-size="11.00">miq_product_feature_id</text>
<polygon fill="none" stroke="black" points="395.5,-156 395.5,-178 466.5,-178 466.5,-156 395.5,-156"/>
<text text-anchor="start" x="398.5" y="-164.2" font-family="Helvetica,sans-Serif" font-size="11.00">int8[19]</text>
<polygon fill="#ffffff" stroke="none" points="233.5,-138 233.5,-156 319.5,-156 319.5,-138 233.5,-138"/>
<polygon fill="none" stroke="black" points="233.5,-138 233.5,-156 319.5,-156 319.5,-138 233.5,-138"/>
<text text-anchor="start" x="236.5" y="-144.2" font-family="Helvetica,sans-Serif" font-size="11.00">&lt; 2</text>
<polygon fill="#ffffff" stroke="none" points="319.5,-138 319.5,-156 395.5,-156 395.5,-138 319.5,-138"/>
<polygon fill="none" stroke="black" points="319.5,-138 319.5,-156 395.5,-156 395.5,-138 319.5,-138"/>
<text text-anchor="start" x="385.5" y="-144.2" font-family="Helvetica,sans-Serif" font-size="11.00"> &#160;</text>
<polygon fill="#ffffff" stroke="none" points="395.5,-138 395.5,-156 466.5,-156 466.5,-138 395.5,-138"/>
<polygon fill="none" stroke="black" points="395.5,-138 395.5,-156 466.5,-156 466.5,-138 395.5,-138"/>
<text text-anchor="start" x="446.5" y="-144.2" font-family="Helvetica,sans-Serif" font-size="11.00">0 &gt;</text>
<polygon fill="none" stroke="black" stroke-width="2" points="232,-137 232,-245 467,-245 467,-137 232,-137"/>
</a>
</g>
</g>
<!-- miq_product_features -->
<g id="node2" class="node"><title>miq_product_features</title>
<g id="a_node2"><a xlink:href="../../tables/miq_product_features.html" xlink:title="miq_product_features" target="_top">
<polygon fill="#ffffff" stroke="none" points="8,-37 8,-161 182,-161 182,-37 8,-37"/>
<polygon fill="#f5f5f5" stroke="none" points="8,-139 8,-161 182,-161 182,-139 8,-139"/>
<polygon fill="none" stroke="black" points="8,-139 8,-161 182,-161 182,-139 8,-139"/>
<text text-anchor="start" x="13" y="-148.2" font-family="Helvetica,sans-Serif" font-weight="bold" font-size="11.00">miq_product_features</text>
<text text-anchor="start" x="143" y="-147.2" font-family="Helvetica,sans-Serif" font-size="11.00">[table]</text>
<polygon fill="none" stroke="black" points="8,-117 8,-139 182,-139 182,-117 8,-117"/>
<image xlink:href="../../images/primaryKeys.png" width="11px" height="12px" preserveAspectRatio="xMinYMin meet" x="13" y="-134"/>
<text text-anchor="start" x="40" y="-125.2" font-family="Helvetica,sans-Serif" font-size="11.00">id</text>
<polygon fill="#ffffff" stroke="none" points="8,-95 8,-117 182,-117 182,-95 8,-95"/>
<polygon fill="none" stroke="black" points="8,-95 8,-117 182,-117 182,-95 8,-95"/>
<text text-anchor="start" x="40" y="-103.2" font-family="Helvetica,sans-Serif" font-size="11.00">parent_id</text>
<polygon fill="#ffffff" stroke="none" points="8,-73 8,-95 182,-95 182,-73 8,-73"/>
<polygon fill="none" stroke="black" points="8,-73 8,-95 182,-95 182,-73 8,-73"/>
<image xlink:href="../../images/foreignKeys.png" width="11px" height="12px" preserveAspectRatio="xMinYMin meet" x="13" y="-90"/>
<text text-anchor="start" x="40" y="-81.2" font-family="Helvetica,sans-Serif" font-size="11.00">tenant_id</text>
<polygon fill="none" stroke="black" points="8,-55 8,-73 182,-73 182,-55 8,-55"/>
<text text-anchor="start" x="11" y="-61.2" font-family="Helvetica,sans-Serif" font-size="11.00">...</text>
<polygon fill="#ffffff" stroke="none" points="8,-37 8,-55 88,-55 88,-37 8,-37"/>
<polygon fill="none" stroke="black" points="8,-37 8,-55 88,-55 88,-37 8,-37"/>
<text text-anchor="start" x="11" y="-43.2" font-family="Helvetica,sans-Serif" font-size="11.00">&lt; 1</text>
<polygon fill="#ffffff" stroke="none" points="88,-37 88,-55 130,-55 130,-37 88,-37"/>
<polygon fill="none" stroke="black" points="88,-37 88,-55 130,-55 130,-37 88,-37"/>
<text text-anchor="start" x="120" y="-43.2" font-family="Helvetica,sans-Serif" font-size="11.00"> &#160;</text>
<polygon fill="#ffffff" stroke="none" points="130,-37 130,-55 182,-55 182,-37 130,-37"/>
<polygon fill="none" stroke="black" points="130,-37 130,-55 182,-55 182,-37 130,-37"/>
<text text-anchor="start" x="162" y="-43.2" font-family="Helvetica,sans-Serif" font-size="11.00">2 &gt;</text>
</a>
</g>
</g>
<!-- miq_roles_features&#45;&gt;miq_product_features -->
<g id="edge1" class="edge"><title>miq_roles_features:miq_product_feature_id:w&#45;&gt;miq_product_features:id:e</title>
<path fill="none" stroke="black" d="M218.737,-162.526C205.705,-152.282 205.1,-128 183,-128"/>
<polygon fill="black" stroke="black" points="224.892,-164.527 231.387,-170.424 228.696,-165.763 232.5,-167 232.5,-167 232.5,-167 228.696,-165.763 233.613,-163.576 224.892,-164.527 224.892,-164.527"/>
<ellipse fill="none" stroke="black" cx="221.849" cy="-163.538" rx="3.20001" ry="3.20001"/>
</g>
<!-- miq_user_roles -->
<g id="node3" class="node"><title>miq_user_roles</title>
<g id="a_node3"><a xlink:href="../../tables/miq_user_roles.html" xlink:title="miq_user_roles" target="_top">
<polygon fill="#ffffff" stroke="none" points="28.5,-182 28.5,-262 161.5,-262 161.5,-182 28.5,-182"/>
<polygon fill="#f5f5f5" stroke="none" points="29,-240 29,-262 162,-262 162,-240 29,-240"/>
<polygon fill="none" stroke="black" points="29,-240 29,-262 162,-262 162,-240 29,-240"/>
<text text-anchor="start" x="34" y="-249.2" font-family="Helvetica,sans-Serif" font-weight="bold" font-size="11.00">miq_user_roles</text>
<text text-anchor="start" x="123" y="-248.2" font-family="Helvetica,sans-Serif" font-size="11.00">[table]</text>
<polygon fill="none" stroke="black" points="29,-218 29,-240 162,-240 162,-218 29,-218"/>
<image xlink:href="../../images/primaryKeys.png" width="11px" height="12px" preserveAspectRatio="xMinYMin meet" x="34" y="-235"/>
<text text-anchor="start" x="61" y="-226.2" font-family="Helvetica,sans-Serif" font-size="11.00">id</text>
<polygon fill="none" stroke="black" points="29,-200 29,-218 162,-218 162,-200 29,-200"/>
<text text-anchor="start" x="32" y="-206.2" font-family="Helvetica,sans-Serif" font-size="11.00">...</text>
<polygon fill="#ffffff" stroke="none" points="29,-182 29,-200 84,-200 84,-182 29,-182"/>
<polygon fill="none" stroke="black" points="29,-182 29,-200 84,-200 84,-182 29,-182"/>
<text text-anchor="start" x="32" y="-188.2" font-family="Helvetica,sans-Serif" font-size="11.00"> &#160;</text>
<polygon fill="#ffffff" stroke="none" points="84,-182 84,-200 118,-200 118,-182 84,-182"/>
<polygon fill="none" stroke="black" points="84,-182 84,-200 118,-200 118,-182 84,-182"/>
<text text-anchor="start" x="108" y="-188.2" font-family="Helvetica,sans-Serif" font-size="11.00"> &#160;</text>
<polygon fill="#ffffff" stroke="none" points="118,-182 118,-200 162,-200 162,-182 118,-182"/>
<polygon fill="none" stroke="black" points="118,-182 118,-200 162,-200 162,-182 118,-182"/>
<text text-anchor="start" x="142" y="-188.2" font-family="Helvetica,sans-Serif" font-size="11.00">2 &gt;</text>
</a>
</g>
</g>
<!-- miq_roles_features&#45;&gt;miq_user_roles -->
<g id="edge2" class="edge"><title>miq_roles_features:miq_user_role_id:w&#45;&gt;miq_user_roles:id:e</title>
<path fill="none" stroke="black" d="M218.249,-191.625C196.503,-200.523 193.071,-229 163,-229"/>
<polygon fill="black" stroke="black" points="224.632,-190.449 233.152,-192.54 228.566,-189.724 232.5,-189 232.5,-189 232.5,-189 228.566,-189.724 231.848,-185.46 224.632,-190.449 224.632,-190.449"/>
<ellipse fill="none" stroke="black" cx="221.485" cy="-191.029" rx="3.2" ry="3.2"/>
</g>
</g>
</svg>
