<?xml version="1.0" encoding="UTF-8" standalone="no"?>
<!DOCTYPE svg PUBLIC "-//W3C//DTD SVG 1.1//EN"
 "http://www.w3.org/Graphics/SVG/1.1/DTD/svg11.dtd">
<!-- Generated by graphviz version 2.38.0 (20140413.2041)
 -->
<!-- Title: oneDegreeRelationshipsDiagram Pages: 1 -->
<svg width="750pt" height="678pt"
 viewBox="0.00 0.00 750.00 678.00" xmlns="http://www.w3.org/2000/svg" xmlns:xlink="http://www.w3.org/1999/xlink">
<g id="graph0" class="graph" transform="scale(1 1) rotate(0) translate(4 674)">
<title>oneDegreeRelationshipsDiagram</title>
<polygon fill="#ffffff" stroke="none" points="-4,4 -4,-674 746,-674 746,4 -4,4"/>
<text text-anchor="middle" x="74.5" y="-7.2" font-family="Helvetica,sans-Serif" font-size="11.00">Generated by SchemaSpy</text>
<!-- miq_widget_contents -->
<g id="node1" class="node"><title>miq_widget_contents</title>
<g id="a_node1"><a xlink:href="../../tables/miq_widget_contents.html" xlink:title="miq_widget_contents" target="_top">
<polygon fill="#ffffff" stroke="none" points="563,-498 563,-666 732,-666 732,-498 563,-498"/>
<polygon fill="#f5f5f5" stroke="none" points="563.5,-644 563.5,-666 732.5,-666 732.5,-644 563.5,-644"/>
<polygon fill="none" stroke="black" points="563.5,-644 563.5,-666 732.5,-666 732.5,-644 563.5,-644"/>
<text text-anchor="start" x="568.5" y="-653.2" font-family="Helvetica,sans-Serif" font-weight="bold" font-size="11.00">miq_widget_contents</text>
<text text-anchor="start" x="693.5" y="-652.2" font-family="Helvetica,sans-Serif" font-size="11.00">[table]</text>
<polygon fill="none" stroke="black" points="563.5,-622 563.5,-644 732.5,-644 732.5,-622 563.5,-622"/>
<image xlink:href="../../images/primaryKeys.png" width="11px" height="12px" preserveAspectRatio="xMinYMin meet" x="568.5" y="-639"/>
<text text-anchor="start" x="594.5" y="-630.2" font-family="Helvetica,sans-Serif" font-size="11.00">id</text>
<polygon fill="#ffffff" stroke="none" points="563.5,-600 563.5,-622 732.5,-622 732.5,-600 563.5,-600"/>
<polygon fill="none" stroke="black" points="563.5,-600 563.5,-622 732.5,-622 732.5,-600 563.5,-600"/>
<image xlink:href="../../images/foreignKeys.png" width="11px" height="12px" preserveAspectRatio="xMinYMin meet" x="568.5" y="-617"/>
<text text-anchor="start" x="594.5" y="-608.2" font-family="Helvetica,sans-Serif" font-size="11.00">miq_widget_id</text>
<polygon fill="#ffffff" stroke="none" points="563.5,-578 563.5,-600 732.5,-600 732.5,-578 563.5,-578"/>
<polygon fill="none" stroke="black" points="563.5,-578 563.5,-600 732.5,-600 732.5,-578 563.5,-578"/>
<image xlink:href="../../images/foreignKeys.png" width="11px" height="12px" preserveAspectRatio="xMinYMin meet" x="568.5" y="-595"/>
<text text-anchor="start" x="594.5" y="-586.2" font-family="Helvetica,sans-Serif" font-size="11.00">miq_report_result_id</text>
<polygon fill="none" stroke="black" points="563.5,-556 563.5,-578 732.5,-578 732.5,-556 563.5,-556"/>
<image xlink:href="../../images/foreignKeys.png" width="11px" height="12px" preserveAspectRatio="xMinYMin meet" x="568.5" y="-573"/>
<text text-anchor="start" x="594.5" y="-564.2" font-family="Helvetica,sans-Serif" font-size="11.00">miq_group_id</text>
<polygon fill="#ffffff" stroke="none" points="563.5,-534 563.5,-556 732.5,-556 732.5,-534 563.5,-534"/>
<polygon fill="none" stroke="black" points="563.5,-534 563.5,-556 732.5,-556 732.5,-534 563.5,-534"/>
<image xlink:href="../../images/foreignKeys.png" width="11px" height="12px" preserveAspectRatio="xMinYMin meet" x="568.5" y="-551"/>
<text text-anchor="start" x="594.5" y="-542.2" font-family="Helvetica,sans-Serif" font-size="11.00">user_id</text>
<polygon fill="none" stroke="black" points="563.5,-516 563.5,-534 732.5,-534 732.5,-516 563.5,-516"/>
<text text-anchor="start" x="566.5" y="-522.2" font-family="Helvetica,sans-Serif" font-size="11.00">...</text>
<polygon fill="#ffffff" stroke="none" points="563.5,-498 563.5,-516 646.5,-516 646.5,-498 563.5,-498"/>
<polygon fill="none" stroke="black" points="563.5,-498 563.5,-516 646.5,-516 646.5,-498 563.5,-498"/>
<text text-anchor="start" x="566.5" y="-504.2" font-family="Helvetica,sans-Serif" font-size="11.00">&lt; 4</text>
<polygon fill="#ffffff" stroke="none" points="646.5,-498 646.5,-516 689.5,-516 689.5,-498 646.5,-498"/>
<polygon fill="none" stroke="black" points="646.5,-498 646.5,-516 689.5,-516 689.5,-498 646.5,-498"/>
<text text-anchor="start" x="679.5" y="-504.2" font-family="Helvetica,sans-Serif" font-size="11.00"> &#160;</text>
<polygon fill="#ffffff" stroke="none" points="689.5,-498 689.5,-516 732.5,-516 732.5,-498 689.5,-498"/>
<polygon fill="none" stroke="black" points="689.5,-498 689.5,-516 732.5,-516 732.5,-498 689.5,-498"/>
<text text-anchor="start" x="722.5" y="-504.2" font-family="Helvetica,sans-Serif" font-size="11.00"> &#160;</text>
</a>
</g>
</g>
<!-- miq_widgets -->
<g id="node2" class="node"><title>miq_widgets</title>
<g id="a_node2"><a xlink:href="../../tables/miq_widgets.html" xlink:title="miq_widgets" target="_top">
<polygon fill="#ffffff" stroke="none" points="206,-103 206,-521 512,-521 512,-103 206,-103"/>
<polygon fill="#f5f5f5" stroke="none" points="208,-497 208,-519 510,-519 510,-497 208,-497"/>
<polygon fill="none" stroke="black" points="208,-497 208,-519 510,-519 510,-497 208,-497"/>
<text text-anchor="start" x="213" y="-506.2" font-family="Helvetica,sans-Serif" font-weight="bold" font-size="11.00">miq_widgets</text>
<text text-anchor="start" x="471" y="-505.2" font-family="Helvetica,sans-Serif" font-size="11.00">[table]</text>
<polygon fill="none" stroke="black" points="208,-475 208,-497 389,-497 389,-475 208,-475"/>
<image xlink:href="../../images/primaryKeys.png" width="11px" height="12px" preserveAspectRatio="xMinYMin meet" x="213" y="-492"/>
<text text-anchor="start" x="228" y="-483.2" font-family="Helvetica,sans-Serif" font-size="11.00">id</text>
<polygon fill="none" stroke="black" points="389,-475 389,-497 510,-497 510,-475 389,-475"/>
<text text-anchor="start" x="392" y="-483.2" font-family="Helvetica,sans-Serif" font-size="11.00">bigserial[19]</text>
<polygon fill="none" stroke="black" points="208,-453 208,-475 389,-475 389,-453 208,-453"/>
<text text-anchor="start" x="228" y="-461.2" font-family="Helvetica,sans-Serif" font-size="11.00">guid</text>
<polygon fill="none" stroke="black" points="389,-453 389,-475 510,-475 510,-453 389,-453"/>
<text text-anchor="start" x="392" y="-461.2" font-family="Helvetica,sans-Serif" font-size="11.00">varchar[2147483647]</text>
<polygon fill="none" stroke="black" points="208,-431 208,-453 389,-453 389,-431 208,-431"/>
<text text-anchor="start" x="228" y="-439.2" font-family="Helvetica,sans-Serif" font-size="11.00">description</text>
<polygon fill="none" stroke="black" points="389,-431 389,-453 510,-453 510,-431 389,-431"/>
<text text-anchor="start" x="392" y="-439.2" font-family="Helvetica,sans-Serif" font-size="11.00">varchar[2147483647]</text>
<polygon fill="none" stroke="black" points="208,-409 208,-431 389,-431 389,-409 208,-409"/>
<text text-anchor="start" x="228" y="-417.2" font-family="Helvetica,sans-Serif" font-size="11.00">title</text>
<polygon fill="none" stroke="black" points="389,-409 389,-431 510,-431 510,-409 389,-409"/>
<text text-anchor="start" x="392" y="-417.2" font-family="Helvetica,sans-Serif" font-size="11.00">varchar[2147483647]</text>
<polygon fill="none" stroke="black" points="208,-387 208,-409 389,-409 389,-387 208,-387"/>
<text text-anchor="start" x="228" y="-395.2" font-family="Helvetica,sans-Serif" font-size="11.00">content_type</text>
<polygon fill="none" stroke="black" points="389,-387 389,-409 510,-409 510,-387 389,-387"/>
<text text-anchor="start" x="392" y="-395.2" font-family="Helvetica,sans-Serif" font-size="11.00">varchar[2147483647]</text>
<polygon fill="none" stroke="black" points="208,-365 208,-387 389,-387 389,-365 208,-365"/>
<text text-anchor="start" x="228" y="-373.2" font-family="Helvetica,sans-Serif" font-size="11.00">options</text>
<polygon fill="none" stroke="black" points="389,-365 389,-387 510,-387 510,-365 389,-365"/>
<text text-anchor="start" x="392" y="-373.2" font-family="Helvetica,sans-Serif" font-size="11.00">text[2147483647]</text>
<polygon fill="none" stroke="black" points="208,-343 208,-365 389,-365 389,-343 208,-343"/>
<text text-anchor="start" x="228" y="-351.2" font-family="Helvetica,sans-Serif" font-size="11.00">visibility</text>
<polygon fill="none" stroke="black" points="389,-343 389,-365 510,-365 510,-343 389,-343"/>
<text text-anchor="start" x="392" y="-351.2" font-family="Helvetica,sans-Serif" font-size="11.00">text[2147483647]</text>
<polygon fill="#ffffff" stroke="none" points="208,-321 208,-343 389,-343 389,-321 208,-321"/>
<polygon fill="none" stroke="black" points="208,-321 208,-343 389,-343 389,-321 208,-321"/>
<image xlink:href="../../images/foreignKeys.png" width="11px" height="12px" preserveAspectRatio="xMinYMin meet" x="213" y="-338"/>
<text text-anchor="start" x="228" y="-329.2" font-family="Helvetica,sans-Serif" font-size="11.00">user_id</text>
<polygon fill="none" stroke="black" points="389,-321 389,-343 510,-343 510,-321 389,-321"/>
<text text-anchor="start" x="392" y="-329.2" font-family="Helvetica,sans-Serif" font-size="11.00">int8[19]</text>
<polygon fill="#ffffff" stroke="none" points="208,-299 208,-321 389,-321 389,-299 208,-299"/>
<polygon fill="none" stroke="black" points="208,-299 208,-321 389,-321 389,-299 208,-299"/>
<text text-anchor="start" x="228" y="-307.2" font-family="Helvetica,sans-Serif" font-size="11.00">resource_id</text>
<polygon fill="none" stroke="black" points="389,-299 389,-321 510,-321 510,-299 389,-299"/>
<text text-anchor="start" x="392" y="-307.2" font-family="Helvetica,sans-Serif" font-size="11.00">int8[19]</text>
<polygon fill="#ffffff" stroke="none" points="208,-277 208,-299 389,-299 389,-277 208,-277"/>
<polygon fill="none" stroke="black" points="208,-277 208,-299 389,-299 389,-277 208,-277"/>
<text text-anchor="start" x="228" y="-285.2" font-family="Helvetica,sans-Serif" font-size="11.00">resource_type</text>
<polygon fill="none" stroke="black" points="389,-277 389,-299 510,-299 510,-277 389,-277"/>
<text text-anchor="start" x="392" y="-285.2" font-family="Helvetica,sans-Serif" font-size="11.00">varchar[2147483647]</text>
<polygon fill="#ffffff" stroke="none" points="208,-255 208,-277 389,-277 389,-255 208,-255"/>
<polygon fill="none" stroke="black" points="208,-255 208,-277 389,-277 389,-255 208,-255"/>
<image xlink:href="../../images/foreignKeys.png" width="11px" height="12px" preserveAspectRatio="xMinYMin meet" x="213" y="-272"/>
<text text-anchor="start" x="228" y="-263.2" font-family="Helvetica,sans-Serif" font-size="11.00">miq_schedule_id</text>
<polygon fill="none" stroke="black" points="389,-255 389,-277 510,-277 510,-255 389,-255"/>
<text text-anchor="start" x="392" y="-263.2" font-family="Helvetica,sans-Serif" font-size="11.00">int8[19]</text>
<polygon fill="none" stroke="black" points="208,-233 208,-255 389,-255 389,-233 208,-233"/>
<text text-anchor="start" x="228" y="-241.2" font-family="Helvetica,sans-Serif" font-size="11.00">enabled</text>
<polygon fill="none" stroke="black" points="389,-233 389,-255 510,-255 510,-233 389,-233"/>
<text text-anchor="start" x="392" y="-241.2" font-family="Helvetica,sans-Serif" font-size="11.00">bool[1]</text>
<polygon fill="none" stroke="black" points="208,-211 208,-233 389,-233 389,-211 208,-211"/>
<text text-anchor="start" x="228" y="-219.2" font-family="Helvetica,sans-Serif" font-size="11.00">read_only</text>
<polygon fill="none" stroke="black" points="389,-211 389,-233 510,-233 510,-211 389,-211"/>
<text text-anchor="start" x="392" y="-219.2" font-family="Helvetica,sans-Serif" font-size="11.00">bool[1]</text>
<polygon fill="none" stroke="black" points="208,-189 208,-211 389,-211 389,-189 208,-189"/>
<text text-anchor="start" x="228" y="-197.2" font-family="Helvetica,sans-Serif" font-size="11.00">created_at</text>
<polygon fill="none" stroke="black" points="389,-189 389,-211 510,-211 510,-189 389,-189"/>
<text text-anchor="start" x="392" y="-197.2" font-family="Helvetica,sans-Serif" font-size="11.00">timestamp[29,6]</text>
<polygon fill="none" stroke="black" points="208,-167 208,-189 389,-189 389,-167 208,-167"/>
<text text-anchor="start" x="228" y="-175.2" font-family="Helvetica,sans-Serif" font-size="11.00">updated_at</text>
<polygon fill="none" stroke="black" points="389,-167 389,-189 510,-189 510,-167 389,-167"/>
<text text-anchor="start" x="392" y="-175.2" font-family="Helvetica,sans-Serif" font-size="11.00">timestamp[29,6]</text>
<polygon fill="none" stroke="black" points="208,-145 208,-167 389,-167 389,-145 208,-145"/>
<text text-anchor="start" x="228" y="-153.2" font-family="Helvetica,sans-Serif" font-size="11.00">last_generated_content_on</text>
<polygon fill="none" stroke="black" points="389,-145 389,-167 510,-167 510,-145 389,-145"/>
<text text-anchor="start" x="392" y="-153.2" font-family="Helvetica,sans-Serif" font-size="11.00">timestamp[29,6]</text>
<polygon fill="#ffffff" stroke="none" points="208,-123 208,-145 389,-145 389,-123 208,-123"/>
<polygon fill="none" stroke="black" points="208,-123 208,-145 389,-145 389,-123 208,-123"/>
<image xlink:href="../../images/foreignKeys.png" width="11px" height="12px" preserveAspectRatio="xMinYMin meet" x="213" y="-140"/>
<text text-anchor="start" x="228" y="-131.2" font-family="Helvetica,sans-Serif" font-size="11.00">miq_task_id</text>
<polygon fill="none" stroke="black" points="389,-123 389,-145 510,-145 510,-123 389,-123"/>
<text text-anchor="start" x="392" y="-131.2" font-family="Helvetica,sans-Serif" font-size="11.00">int8[19]</text>
<polygon fill="#ffffff" stroke="none" points="208,-105 208,-123 303,-123 303,-105 208,-105"/>
<polygon fill="none" stroke="black" points="208,-105 208,-123 303,-123 303,-105 208,-105"/>
<text text-anchor="start" x="211" y="-111.2" font-family="Helvetica,sans-Serif" font-size="11.00">&lt; 3</text>
<polygon fill="#ffffff" stroke="none" points="303,-105 303,-123 389,-123 389,-105 303,-105"/>
<polygon fill="none" stroke="black" points="303,-105 303,-123 389,-123 389,-105 303,-105"/>
<text text-anchor="start" x="379" y="-111.2" font-family="Helvetica,sans-Serif" font-size="11.00"> &#160;</text>
<polygon fill="#ffffff" stroke="none" points="389,-105 389,-123 510,-123 510,-105 389,-105"/>
<polygon fill="none" stroke="black" points="389,-105 389,-123 510,-123 510,-105 389,-105"/>
<text text-anchor="start" x="490" y="-111.2" font-family="Helvetica,sans-Serif" font-size="11.00">2 &gt;</text>
<polygon fill="none" stroke="black" stroke-width="2" points="207,-104 207,-520 511,-520 511,-104 207,-104"/>
</a>
</g>
</g>
<!-- miq_widget_contents&#45;&gt;miq_widgets -->
<g id="edge1" class="edge"><title>miq_widget_contents:miq_widget_id:w&#45;&gt;miq_widgets:id.type:e</title>
<path fill="none" stroke="black" d="M548.341,-607.657C514.599,-587.778 565.218,-486 511,-486"/>
<polygon fill="black" stroke="black" points="554.714,-609.161 561.673,-614.504 558.607,-610.081 562.5,-611 562.5,-611 562.5,-611 558.607,-610.081 563.327,-607.496 554.714,-609.161 554.714,-609.161"/>
<ellipse fill="none" stroke="black" cx="551.6" cy="-608.426" rx="3.2" ry="3.2"/>
</g>
<!-- users -->
<g id="node3" class="node"><title>users</title>
<g id="a_node3"><a xlink:href="../../tables/users.html" xlink:title="users" target="_top">
<polygon fill="#ffffff" stroke="none" points="8,-401 8,-525 157,-525 157,-401 8,-401"/>
<polygon fill="#f5f5f5" stroke="none" points="8.5,-503 8.5,-525 157.5,-525 157.5,-503 8.5,-503"/>
<polygon fill="none" stroke="black" points="8.5,-503 8.5,-525 157.5,-525 157.5,-503 8.5,-503"/>
<text text-anchor="start" x="13.5" y="-512.2" font-family="Helvetica,sans-Serif" font-weight="bold" font-size="11.00">users</text>
<text text-anchor="start" x="118.5" y="-511.2" font-family="Helvetica,sans-Serif" font-size="11.00">[table]</text>
<polygon fill="none" stroke="black" points="8.5,-481 8.5,-503 157.5,-503 157.5,-481 8.5,-481"/>
<image xlink:href="../../images/primaryKeys.png" width="11px" height="12px" preserveAspectRatio="xMinYMin meet" x="13.5" y="-498"/>
<text text-anchor="start" x="28.5" y="-489.2" font-family="Helvetica,sans-Serif" font-size="11.00">id</text>
<polygon fill="#ffffff" stroke="none" points="8.5,-459 8.5,-481 157.5,-481 157.5,-459 8.5,-459"/>
<polygon fill="none" stroke="black" points="8.5,-459 8.5,-481 157.5,-481 157.5,-459 8.5,-459"/>
<text text-anchor="start" x="28.5" y="-467.2" font-family="Helvetica,sans-Serif" font-size="11.00">userid</text>
<polygon fill="#ffffff" stroke="none" points="8.5,-437 8.5,-459 157.5,-459 157.5,-437 8.5,-437"/>
<polygon fill="none" stroke="black" points="8.5,-437 8.5,-459 157.5,-459 157.5,-437 8.5,-437"/>
<text text-anchor="start" x="28.5" y="-445.2" font-family="Helvetica,sans-Serif" font-size="11.00">current_group_id</text>
<polygon fill="none" stroke="black" points="8.5,-419 8.5,-437 157.5,-437 157.5,-419 8.5,-419"/>
<text text-anchor="start" x="11.5" y="-425.2" font-family="Helvetica,sans-Serif" font-size="11.00">...</text>
<polygon fill="#ffffff" stroke="none" points="8.5,-401 8.5,-419 67.5,-419 67.5,-401 8.5,-401"/>
<polygon fill="none" stroke="black" points="8.5,-401 8.5,-419 67.5,-419 67.5,-401 8.5,-401"/>
<text text-anchor="start" x="11.5" y="-407.2" font-family="Helvetica,sans-Serif" font-size="11.00"> &#160;</text>
<polygon fill="#ffffff" stroke="none" points="67.5,-401 67.5,-419 103.5,-419 103.5,-401 67.5,-401"/>
<polygon fill="none" stroke="black" points="67.5,-401 67.5,-419 103.5,-419 103.5,-401 67.5,-401"/>
<text text-anchor="start" x="93.5" y="-407.2" font-family="Helvetica,sans-Serif" font-size="11.00"> &#160;</text>
<polygon fill="#ffffff" stroke="none" points="103.5,-401 103.5,-419 157.5,-419 157.5,-401 103.5,-401"/>
<polygon fill="none" stroke="black" points="103.5,-401 103.5,-419 157.5,-419 157.5,-401 103.5,-401"/>
<text text-anchor="start" x="130.5" y="-407.2" font-family="Helvetica,sans-Serif" font-size="11.00">15 &gt;</text>
</a>
</g>
</g>
<!-- miq_widget_contents&#45;&gt;users -->
<g id="edge2" class="edge"><title>miq_widget_contents:user_id:w&#45;&gt;users:id:e</title>
<path fill="none" stroke="black" d="M548.069,-545.134C397.047,-547.948 342.263,-593.48 198,-531 175.361,-521.195 183.171,-492 158.5,-492"/>
<polygon fill="black" stroke="black" points="554.5,-545.074 562.533,-548.6 558.5,-545.037 562.5,-545 562.5,-545 562.5,-545 558.5,-545.037 562.467,-541.4 554.5,-545.074 554.5,-545.074"/>
<ellipse fill="none" stroke="black" cx="551.3" cy="-545.104" rx="3.2" ry="3.2"/>
</g>
<!-- miq_widgets&#45;&gt;users -->
<g id="edge6" class="edge"><title>miq_widgets:user_id:w&#45;&gt;users:id:e</title>
<path fill="none" stroke="black" d="M192.612,-334.777C147.272,-356.023 227.001,-492 158.5,-492"/>
<polygon fill="black" stroke="black" points="199.145,-333.516 207.682,-335.535 203.072,-332.758 207,-332 207,-332 207,-332 203.072,-332.758 206.318,-328.465 199.145,-333.516 199.145,-333.516"/>
<ellipse fill="none" stroke="black" cx="196.003" cy="-334.123" rx="3.2" ry="3.2"/>
</g>
<!-- miq_schedules -->
<g id="node5" class="node"><title>miq_schedules</title>
<g id="a_node5"><a xlink:href="../../tables/miq_schedules.html" xlink:title="miq_schedules" target="_top">
<polygon fill="#ffffff" stroke="none" points="16.5,-160 16.5,-328 148.5,-328 148.5,-160 16.5,-160"/>
<polygon fill="#f5f5f5" stroke="none" points="16.5,-306 16.5,-328 148.5,-328 148.5,-306 16.5,-306"/>
<polygon fill="none" stroke="black" points="16.5,-306 16.5,-328 148.5,-328 148.5,-306 16.5,-306"/>
<text text-anchor="start" x="21.5" y="-315.2" font-family="Helvetica,sans-Serif" font-weight="bold" font-size="11.00">miq_schedules</text>
<text text-anchor="start" x="109.5" y="-314.2" font-family="Helvetica,sans-Serif" font-size="11.00">[table]</text>
<polygon fill="none" stroke="black" points="16.5,-284 16.5,-306 148.5,-306 148.5,-284 16.5,-284"/>
<image xlink:href="../../images/primaryKeys.png" width="11px" height="12px" preserveAspectRatio="xMinYMin meet" x="21.5" y="-301"/>
<text text-anchor="start" x="48.5" y="-292.2" font-family="Helvetica,sans-Serif" font-size="11.00">id</text>
<polygon fill="#ffffff" stroke="none" points="16.5,-262 16.5,-284 148.5,-284 148.5,-262 16.5,-262"/>
<polygon fill="none" stroke="black" points="16.5,-262 16.5,-284 148.5,-284 148.5,-262 16.5,-262"/>
<text text-anchor="start" x="48.5" y="-270.2" font-family="Helvetica,sans-Serif" font-size="11.00">updated_at</text>
<polygon fill="#ffffff" stroke="none" points="16.5,-240 16.5,-262 148.5,-262 148.5,-240 16.5,-240"/>
<polygon fill="none" stroke="black" points="16.5,-240 16.5,-262 148.5,-262 148.5,-240 16.5,-240"/>
<image xlink:href="../../images/foreignKeys.png" width="11px" height="12px" preserveAspectRatio="xMinYMin meet" x="21.5" y="-257"/>
<text text-anchor="start" x="48.5" y="-248.2" font-family="Helvetica,sans-Serif" font-size="11.00">miq_search_id</text>
<polygon fill="#ffffff" stroke="none" points="16.5,-218 16.5,-240 148.5,-240 148.5,-218 16.5,-218"/>
<polygon fill="none" stroke="black" points="16.5,-218 16.5,-240 148.5,-240 148.5,-218 16.5,-218"/>
<image xlink:href="../../images/foreignKeys.png" width="11px" height="12px" preserveAspectRatio="xMinYMin meet" x="21.5" y="-235"/>
<text text-anchor="start" x="48.5" y="-226.2" font-family="Helvetica,sans-Serif" font-size="11.00">zone_id</text>
<polygon fill="none" stroke="black" points="16.5,-196 16.5,-218 148.5,-218 148.5,-196 16.5,-196"/>
<image xlink:href="../../images/foreignKeys.png" width="11px" height="12px" preserveAspectRatio="xMinYMin meet" x="21.5" y="-213"/>
<text text-anchor="start" x="48.5" y="-204.2" font-family="Helvetica,sans-Serif" font-size="11.00">file_depot_id</text>
<polygon fill="none" stroke="black" points="16.5,-178 16.5,-196 148.5,-196 148.5,-178 16.5,-178"/>
<text text-anchor="start" x="19.5" y="-184.2" font-family="Helvetica,sans-Serif" font-size="11.00">...</text>
<polygon fill="#ffffff" stroke="none" points="16.5,-160 16.5,-178 75.5,-178 75.5,-160 16.5,-160"/>
<polygon fill="none" stroke="black" points="16.5,-160 16.5,-178 75.5,-178 75.5,-160 16.5,-160"/>
<text text-anchor="start" x="19.5" y="-166.2" font-family="Helvetica,sans-Serif" font-size="11.00">&lt; 3</text>
<polygon fill="#ffffff" stroke="none" points="75.5,-160 75.5,-178 106.5,-178 106.5,-160 75.5,-160"/>
<polygon fill="none" stroke="black" points="75.5,-160 75.5,-178 106.5,-178 106.5,-160 75.5,-160"/>
<text text-anchor="start" x="96.5" y="-166.2" font-family="Helvetica,sans-Serif" font-size="11.00"> &#160;</text>
<polygon fill="#ffffff" stroke="none" points="106.5,-160 106.5,-178 148.5,-178 148.5,-160 106.5,-160"/>
<polygon fill="none" stroke="black" points="106.5,-160 106.5,-178 148.5,-178 148.5,-160 106.5,-160"/>
<text text-anchor="start" x="128.5" y="-166.2" font-family="Helvetica,sans-Serif" font-size="11.00">1 &gt;</text>
</a>
</g>
</g>
<!-- miq_widgets&#45;&gt;miq_schedules -->
<g id="edge4" class="edge"><title>miq_widgets:miq_schedule_id:w&#45;&gt;miq_schedules:id:e</title>
<path fill="none" stroke="black" d="M192.594,-269.104C177.104,-276.585 172.308,-295 149.5,-295"/>
<polygon fill="black" stroke="black" points="199.179,-267.685 207.758,-269.519 203.09,-266.842 207,-266 207,-266 207,-266 203.09,-266.842 206.242,-262.481 199.179,-267.685 199.179,-267.685"/>
<ellipse fill="none" stroke="black" cx="196.051" cy="-268.359" rx="3.2" ry="3.2"/>
</g>
<!-- miq_tasks -->
<g id="node6" class="node"><title>miq_tasks</title>
<g id="a_node6"><a xlink:href="../../tables/miq_tasks.html" xlink:title="miq_tasks" target="_top">
<polygon fill="#ffffff" stroke="none" points="30,-37 30,-139 135,-139 135,-37 30,-37"/>
<polygon fill="#f5f5f5" stroke="none" points="30.5,-117 30.5,-139 135.5,-139 135.5,-117 30.5,-117"/>
<polygon fill="none" stroke="black" points="30.5,-117 30.5,-139 135.5,-139 135.5,-117 30.5,-117"/>
<text text-anchor="start" x="35.5" y="-126.2" font-family="Helvetica,sans-Serif" font-weight="bold" font-size="11.00">miq_tasks</text>
<text text-anchor="start" x="96.5" y="-125.2" font-family="Helvetica,sans-Serif" font-size="11.00">[table]</text>
<polygon fill="none" stroke="black" points="30.5,-95 30.5,-117 135.5,-117 135.5,-95 30.5,-95"/>
<image xlink:href="../../images/primaryKeys.png" width="11px" height="12px" preserveAspectRatio="xMinYMin meet" x="35.5" y="-112"/>
<text text-anchor="start" x="51.5" y="-103.2" font-family="Helvetica,sans-Serif" font-size="11.00">id</text>
<polygon fill="#ffffff" stroke="none" points="30.5,-73 30.5,-95 135.5,-95 135.5,-73 30.5,-73"/>
<polygon fill="none" stroke="black" points="30.5,-73 30.5,-95 135.5,-95 135.5,-73 30.5,-73"/>
<image xlink:href="../../images/foreignKeys.png" width="11px" height="12px" preserveAspectRatio="xMinYMin meet" x="35.5" y="-90"/>
<text text-anchor="start" x="51.5" y="-81.2" font-family="Helvetica,sans-Serif" font-size="11.00">miq_server_id</text>
<polygon fill="none" stroke="black" points="30.5,-55 30.5,-73 135.5,-73 135.5,-55 30.5,-55"/>
<text text-anchor="start" x="33.5" y="-61.2" font-family="Helvetica,sans-Serif" font-size="11.00">...</text>
<polygon fill="#ffffff" stroke="none" points="30.5,-37 30.5,-55 76.5,-55 76.5,-37 30.5,-37"/>
<polygon fill="none" stroke="black" points="30.5,-37 30.5,-55 76.5,-55 76.5,-37 30.5,-37"/>
<text text-anchor="start" x="33.5" y="-43.2" font-family="Helvetica,sans-Serif" font-size="11.00">&lt; 1</text>
<polygon fill="#ffffff" stroke="none" points="76.5,-37 76.5,-55 100.5,-55 100.5,-37 76.5,-37"/>
<polygon fill="none" stroke="black" points="76.5,-37 76.5,-55 100.5,-55 100.5,-37 76.5,-37"/>
<text text-anchor="start" x="90.5" y="-43.2" font-family="Helvetica,sans-Serif" font-size="11.00"> &#160;</text>
<polygon fill="#ffffff" stroke="none" points="100.5,-37 100.5,-55 135.5,-55 135.5,-37 100.5,-37"/>
<polygon fill="none" stroke="black" points="100.5,-37 100.5,-55 135.5,-55 135.5,-37 100.5,-37"/>
<text text-anchor="start" x="115.5" y="-43.2" font-family="Helvetica,sans-Serif" font-size="11.00">5 &gt;</text>
</a>
</g>
</g>
<!-- miq_widgets&#45;&gt;miq_tasks -->
<g id="edge5" class="edge"><title>miq_widgets:miq_task_id:w&#45;&gt;miq_tasks:id:e</title>
<path fill="none" stroke="black" d="M192.61,-131.986C171.453,-125.566 164.683,-106 136.5,-106"/>
<polygon fill="black" stroke="black" points="199.077,-132.891 206.501,-137.565 203.039,-133.446 207,-134 207,-134 207,-134 203.039,-133.446 207.499,-130.435 199.077,-132.891 199.077,-132.891"/>
<ellipse fill="none" stroke="black" cx="195.908" cy="-132.448" rx="3.2" ry="3.2"/>
</g>
<!-- miq_widget_shortcuts -->
<g id="node4" class="node"><title>miq_widget_shortcuts</title>
<g id="a_node4"><a xlink:href="../../tables/miq_widget_shortcuts.html" xlink:title="miq_widget_shortcuts" target="_top">
<polygon fill="#ffffff" stroke="none" points="561,-353 561,-477 734,-477 734,-353 561,-353"/>
<polygon fill="#f5f5f5" stroke="none" points="561.5,-455 561.5,-477 734.5,-477 734.5,-455 561.5,-455"/>
<polygon fill="none" stroke="black" points="561.5,-455 561.5,-477 734.5,-477 734.5,-455 561.5,-455"/>
<text text-anchor="start" x="566.5" y="-464.2" font-family="Helvetica,sans-Serif" font-weight="bold" font-size="11.00">miq_widget_shortcuts</text>
<text text-anchor="start" x="695.5" y="-463.2" font-family="Helvetica,sans-Serif" font-size="11.00">[table]</text>
<polygon fill="none" stroke="black" points="561.5,-433 561.5,-455 734.5,-455 734.5,-433 561.5,-433"/>
<image xlink:href="../../images/primaryKeys.png" width="11px" height="12px" preserveAspectRatio="xMinYMin meet" x="566.5" y="-450"/>
<text text-anchor="start" x="592.5" y="-441.2" font-family="Helvetica,sans-Serif" font-size="11.00">id</text>
<polygon fill="none" stroke="black" points="561.5,-411 561.5,-433 734.5,-433 734.5,-411 561.5,-411"/>
<image xlink:href="../../images/foreignKeys.png" width="11px" height="12px" preserveAspectRatio="xMinYMin meet" x="566.5" y="-428"/>
<text text-anchor="start" x="592.5" y="-419.2" font-family="Helvetica,sans-Serif" font-size="11.00">miq_shortcut_id</text>
<polygon fill="none" stroke="black" points="561.5,-389 561.5,-411 734.5,-411 734.5,-389 561.5,-389"/>
<image xlink:href="../../images/foreignKeys.png" width="11px" height="12px" preserveAspectRatio="xMinYMin meet" x="566.5" y="-406"/>
<text text-anchor="start" x="592.5" y="-397.2" font-family="Helvetica,sans-Serif" font-size="11.00">miq_widget_id</text>
<polygon fill="none" stroke="black" points="561.5,-371 561.5,-389 734.5,-389 734.5,-371 561.5,-371"/>
<text text-anchor="start" x="564.5" y="-377.2" font-family="Helvetica,sans-Serif" font-size="11.00">...</text>
<polygon fill="#ffffff" stroke="none" points="561.5,-353 561.5,-371 646.5,-371 646.5,-353 561.5,-353"/>
<polygon fill="none" stroke="black" points="561.5,-353 561.5,-371 646.5,-371 646.5,-353 561.5,-353"/>
<text text-anchor="start" x="564.5" y="-359.2" font-family="Helvetica,sans-Serif" font-size="11.00">&lt; 2</text>
<polygon fill="#ffffff" stroke="none" points="646.5,-353 646.5,-371 690.5,-371 690.5,-353 646.5,-353"/>
<polygon fill="none" stroke="black" points="646.5,-353 646.5,-371 690.5,-371 690.5,-353 646.5,-353"/>
<text text-anchor="start" x="680.5" y="-359.2" font-family="Helvetica,sans-Serif" font-size="11.00"> &#160;</text>
<polygon fill="#ffffff" stroke="none" points="690.5,-353 690.5,-371 734.5,-371 734.5,-353 690.5,-353"/>
<polygon fill="none" stroke="black" points="690.5,-353 690.5,-371 734.5,-371 734.5,-353 690.5,-353"/>
<text text-anchor="start" x="724.5" y="-359.2" font-family="Helvetica,sans-Serif" font-size="11.00"> &#160;</text>
</a>
</g>
</g>
<!-- miq_widget_shortcuts&#45;&gt;miq_widgets -->
<g id="edge3" class="edge"><title>miq_widget_shortcuts:miq_widget_id:w&#45;&gt;miq_widgets:id.type:e</title>
<path fill="none" stroke="black" d="M546.632,-404.383C525.434,-421.908 549.072,-486 511,-486"/>
<polygon fill="black" stroke="black" points="552.872,-402.411 561.585,-403.433 556.686,-401.205 560.5,-400 560.5,-400 560.5,-400 556.686,-401.205 559.415,-396.567 552.872,-402.411 552.872,-402.411"/>
<ellipse fill="none" stroke="black" cx="549.821" cy="-403.375" rx="3.20001" ry="3.20001"/>
</g>
</g>
</svg>
