<?xml version="1.0" encoding="UTF-8" standalone="no"?>
<!DOCTYPE svg PUBLIC "-//W3C//DTD SVG 1.1//EN"
 "http://www.w3.org/Graphics/SVG/1.1/DTD/svg11.dtd">
<!-- Generated by graphviz version 2.38.0 (20140413.2041)
 -->
<!-- Title: twoDegreesRelationshipsDiagram Pages: 1 -->
<svg width="950pt" height="410pt"
 viewBox="0.00 0.00 950.00 410.00" xmlns="http://www.w3.org/2000/svg" xmlns:xlink="http://www.w3.org/1999/xlink">
<g id="graph0" class="graph" transform="scale(1 1) rotate(0) translate(4 406)">
<title>twoDegreesRelationshipsDiagram</title>
<polygon fill="#ffffff" stroke="none" points="-4,4 -4,-406 946,-406 946,4 -4,4"/>
<text text-anchor="middle" x="74.5" y="-7.2" font-family="Helvetica,sans-Serif" font-size="11.00">Generated by SchemaSpy</text>
<!-- firmwares -->
<g id="node1" class="node"><title>firmwares</title>
<g id="a_node1"><a xlink:href="../../tables/firmwares.html" xlink:title="firmwares" target="_top">
<polygon fill="#ffffff" stroke="none" points="582.5,-340 582.5,-398 688.5,-398 688.5,-340 582.5,-340"/>
<polygon fill="#f5f5f5" stroke="none" points="582.5,-376 582.5,-398 688.5,-398 688.5,-376 582.5,-376"/>
<polygon fill="none" stroke="black" points="582.5,-376 582.5,-398 688.5,-398 688.5,-376 582.5,-376"/>
<text text-anchor="start" x="587.5" y="-385.2" font-family="Helvetica,sans-Serif" font-weight="bold" font-size="11.00">firmwares</text>
<text text-anchor="start" x="649.5" y="-384.2" font-family="Helvetica,sans-Serif" font-size="11.00">[table]</text>
<polygon fill="none" stroke="black" points="582.5,-358 582.5,-376 688.5,-376 688.5,-358 582.5,-358"/>
<text text-anchor="start" x="585.5" y="-364.2" font-family="Helvetica,sans-Serif" font-size="11.00">...</text>
<polygon fill="#ffffff" stroke="none" points="582.5,-340 582.5,-358 633.5,-358 633.5,-340 582.5,-340"/>
<polygon fill="none" stroke="black" points="582.5,-340 582.5,-358 633.5,-358 633.5,-340 582.5,-340"/>
<text text-anchor="start" x="585.5" y="-346.2" font-family="Helvetica,sans-Serif" font-size="11.00">&lt; 1</text>
<polygon fill="#ffffff" stroke="none" points="633.5,-340 633.5,-358 660.5,-358 660.5,-340 633.5,-340"/>
<polygon fill="none" stroke="black" points="633.5,-340 633.5,-358 660.5,-358 660.5,-340 633.5,-340"/>
<text text-anchor="start" x="650.5" y="-346.2" font-family="Helvetica,sans-Serif" font-size="11.00"> &#160;</text>
<polygon fill="#ffffff" stroke="none" points="660.5,-340 660.5,-358 688.5,-358 688.5,-340 660.5,-340"/>
<polygon fill="none" stroke="black" points="660.5,-340 660.5,-358 688.5,-358 688.5,-340 660.5,-340"/>
<text text-anchor="start" x="678.5" y="-346.2" font-family="Helvetica,sans-Serif" font-size="11.00"> &#160;</text>
</a>
</g>
</g>
<!-- guest_devices -->
<g id="node2" class="node"><title>guest_devices</title>
<g id="a_node2"><a xlink:href="../../tables/guest_devices.html" xlink:title="guest_devices" target="_top">
<polygon fill="#ffffff" stroke="none" points="313,-86 313,-298 465,-298 465,-86 313,-86"/>
<polygon fill="#f5f5f5" stroke="none" points="313,-276 313,-298 465,-298 465,-276 313,-276"/>
<polygon fill="none" stroke="black" points="313,-276 313,-298 465,-298 465,-276 313,-276"/>
<text text-anchor="start" x="318" y="-285.2" font-family="Helvetica,sans-Serif" font-weight="bold" font-size="11.00">guest_devices</text>
<text text-anchor="start" x="426" y="-284.2" font-family="Helvetica,sans-Serif" font-size="11.00">[table]</text>
<polygon fill="none" stroke="black" points="313,-254 313,-276 465,-276 465,-254 313,-254"/>
<image xlink:href="../../images/primaryKeys.png" width="11px" height="12px" preserveAspectRatio="xMinYMin meet" x="318" y="-271"/>
<text text-anchor="start" x="333" y="-262.2" font-family="Helvetica,sans-Serif" font-size="11.00">id</text>
<polygon fill="#ffffff" stroke="none" points="313,-232 313,-254 465,-254 465,-232 313,-232"/>
<polygon fill="none" stroke="black" points="313,-232 313,-254 465,-254 465,-232 313,-232"/>
<text text-anchor="start" x="333" y="-240.2" font-family="Helvetica,sans-Serif" font-size="11.00">device_name</text>
<polygon fill="#ffffff" stroke="none" points="313,-210 313,-232 465,-232 465,-210 313,-210"/>
<polygon fill="none" stroke="black" points="313,-210 313,-232 465,-232 465,-210 313,-210"/>
<text text-anchor="start" x="333" y="-218.2" font-family="Helvetica,sans-Serif" font-size="11.00">device_type</text>
<polygon fill="#ffffff" stroke="none" points="313,-188 313,-210 465,-210 465,-188 313,-188"/>
<polygon fill="none" stroke="black" points="313,-188 313,-210 465,-210 465,-188 313,-188"/>
<image xlink:href="../../images/foreignKeys.png" width="11px" height="12px" preserveAspectRatio="xMinYMin meet" x="318" y="-205"/>
<text text-anchor="start" x="333" y="-196.2" font-family="Helvetica,sans-Serif" font-size="11.00">hardware_id</text>
<polygon fill="#ffffff" stroke="none" points="313,-166 313,-188 465,-188 465,-166 313,-166"/>
<polygon fill="none" stroke="black" points="313,-166 313,-188 465,-188 465,-166 313,-166"/>
<image xlink:href="../../images/foreignKeys.png" width="11px" height="12px" preserveAspectRatio="xMinYMin meet" x="318" y="-183"/>
<text text-anchor="start" x="333" y="-174.2" font-family="Helvetica,sans-Serif" font-size="11.00">switch_id</text>
<polygon fill="#ffffff" stroke="none" points="313,-144 313,-166 465,-166 465,-144 313,-144"/>
<polygon fill="none" stroke="black" points="313,-144 313,-166 465,-166 465,-144 313,-144"/>
<image xlink:href="../../images/foreignKeys.png" width="11px" height="12px" preserveAspectRatio="xMinYMin meet" x="318" y="-161"/>
<text text-anchor="start" x="333" y="-152.2" font-family="Helvetica,sans-Serif" font-size="11.00">lan_id</text>
<polygon fill="#ffffff" stroke="none" points="313,-122 313,-144 465,-144 465,-122 313,-122"/>
<polygon fill="none" stroke="black" points="313,-122 313,-144 465,-144 465,-122 313,-122"/>
<text text-anchor="start" x="333" y="-130.2" font-family="Helvetica,sans-Serif" font-size="11.00">parent_device_id</text>
<polygon fill="none" stroke="black" points="313,-104 313,-122 465,-122 465,-104 313,-104"/>
<text text-anchor="start" x="316" y="-110.2" font-family="Helvetica,sans-Serif" font-size="11.00">...</text>
<polygon fill="#ffffff" stroke="none" points="313,-86 313,-104 382,-104 382,-86 313,-86"/>
<polygon fill="none" stroke="black" points="313,-86 313,-104 382,-104 382,-86 313,-86"/>
<text text-anchor="start" x="316" y="-92.2" font-family="Helvetica,sans-Serif" font-size="11.00">&lt; 3</text>
<polygon fill="#ffffff" stroke="none" points="382,-86 382,-104 418,-104 418,-86 382,-86"/>
<polygon fill="none" stroke="black" points="382,-86 382,-104 418,-104 418,-86 382,-86"/>
<text text-anchor="start" x="408" y="-92.2" font-family="Helvetica,sans-Serif" font-size="11.00"> &#160;</text>
<polygon fill="#ffffff" stroke="none" points="418,-86 418,-104 465,-104 465,-86 418,-86"/>
<polygon fill="none" stroke="black" points="418,-86 418,-104 465,-104 465,-86 418,-86"/>
<text text-anchor="start" x="445" y="-92.2" font-family="Helvetica,sans-Serif" font-size="11.00">3 &gt;</text>
</a>
</g>
</g>
<!-- firmwares&#45;&gt;guest_devices -->
<g id="edge1" class="edge"><title>firmwares:elipses:w&#45;&gt;guest_devices:id:e</title>
<path fill="none" stroke="black" d="M566.85,-366.252C540.746,-363.291 529.663,-351.494 506,-330 480.891,-307.193 499.921,-265 466,-265"/>
<polygon fill="black" stroke="black" points="573.51,-366.592 581.316,-370.595 577.505,-366.796 581.5,-367 581.5,-367 581.5,-367 577.505,-366.796 581.684,-363.405 573.51,-366.592 573.51,-366.592"/>
<ellipse fill="none" stroke="black" cx="570.315" cy="-366.429" rx="3.2" ry="3.2"/>
</g>
<!-- hardwares -->
<g id="node3" class="node"><title>hardwares</title>
<g id="a_node3"><a xlink:href="../../tables/hardwares.html" xlink:title="hardwares" target="_top">
<polygon fill="#ffffff" stroke="none" points="155,-196 155,-254 264,-254 264,-196 155,-196"/>
<polygon fill="#f5f5f5" stroke="none" points="155.5,-232 155.5,-254 264.5,-254 264.5,-232 155.5,-232"/>
<polygon fill="none" stroke="black" points="155.5,-232 155.5,-254 264.5,-254 264.5,-232 155.5,-232"/>
<text text-anchor="start" x="160.5" y="-241.2" font-family="Helvetica,sans-Serif" font-weight="bold" font-size="11.00">hardwares</text>
<text text-anchor="start" x="225.5" y="-240.2" font-family="Helvetica,sans-Serif" font-size="11.00">[table]</text>
<polygon fill="none" stroke="black" points="155.5,-214 155.5,-232 264.5,-232 264.5,-214 155.5,-214"/>
<text text-anchor="start" x="158.5" y="-220.2" font-family="Helvetica,sans-Serif" font-size="11.00">...</text>
<polygon fill="#ffffff" stroke="none" points="155.5,-196 155.5,-214 203.5,-214 203.5,-196 155.5,-196"/>
<polygon fill="none" stroke="black" points="155.5,-196 155.5,-214 203.5,-214 203.5,-196 155.5,-196"/>
<text text-anchor="start" x="158.5" y="-202.2" font-family="Helvetica,sans-Serif" font-size="11.00">&lt; 4</text>
<polygon fill="#ffffff" stroke="none" points="203.5,-196 203.5,-214 228.5,-214 228.5,-196 203.5,-196"/>
<polygon fill="none" stroke="black" points="203.5,-196 203.5,-214 228.5,-214 228.5,-196 203.5,-196"/>
<text text-anchor="start" x="218.5" y="-202.2" font-family="Helvetica,sans-Serif" font-size="11.00"> &#160;</text>
<polygon fill="#ffffff" stroke="none" points="228.5,-196 228.5,-214 264.5,-214 264.5,-196 228.5,-196"/>
<polygon fill="none" stroke="black" points="228.5,-196 228.5,-214 264.5,-214 264.5,-196 228.5,-196"/>
<text text-anchor="start" x="244.5" y="-202.2" font-family="Helvetica,sans-Serif" font-size="11.00">5 &gt;</text>
</a>
</g>
</g>
<!-- guest_devices&#45;&gt;hardwares -->
<g id="edge2" class="edge"><title>guest_devices:hardware_id:w&#45;&gt;hardwares:elipses:e</title>
<path fill="none" stroke="black" d="M297.855,-202.963C287.203,-209.78 282.761,-223 265.5,-223"/>
<polygon fill="black" stroke="black" points="304.297,-201.158 312.971,-202.467 308.148,-200.079 312,-199 312,-199 312,-199 308.148,-200.079 311.029,-195.533 304.297,-201.158 304.297,-201.158"/>
<ellipse fill="none" stroke="black" cx="301.215" cy="-202.022" rx="3.20001" ry="3.20001"/>
</g>
<!-- lans -->
<g id="node4" class="node"><title>lans</title>
<g id="a_node4"><a xlink:href="../../tables/lans.html" xlink:title="lans" target="_top">
<polygon fill="#ffffff" stroke="none" points="173.5,-90 173.5,-148 245.5,-148 245.5,-90 173.5,-90"/>
<polygon fill="#f5f5f5" stroke="none" points="173.5,-126 173.5,-148 245.5,-148 245.5,-126 173.5,-126"/>
<polygon fill="none" stroke="black" points="173.5,-126 173.5,-148 245.5,-148 245.5,-126 173.5,-126"/>
<text text-anchor="start" x="178.5" y="-135.2" font-family="Helvetica,sans-Serif" font-weight="bold" font-size="11.00">lans</text>
<text text-anchor="start" x="206.5" y="-134.2" font-family="Helvetica,sans-Serif" font-size="11.00">[table]</text>
<polygon fill="none" stroke="black" points="173.5,-108 173.5,-126 245.5,-126 245.5,-108 173.5,-108"/>
<text text-anchor="start" x="176.5" y="-114.2" font-family="Helvetica,sans-Serif" font-size="11.00">...</text>
<polygon fill="#ffffff" stroke="none" points="173.5,-90 173.5,-108 202.5,-108 202.5,-90 173.5,-90"/>
<polygon fill="none" stroke="black" points="173.5,-90 173.5,-108 202.5,-108 202.5,-90 173.5,-90"/>
<text text-anchor="start" x="176.5" y="-96.2" font-family="Helvetica,sans-Serif" font-size="11.00">&lt; 1</text>
<polygon fill="#ffffff" stroke="none" points="202.5,-90 202.5,-108 218.5,-108 218.5,-90 202.5,-90"/>
<polygon fill="none" stroke="black" points="202.5,-90 202.5,-108 218.5,-108 218.5,-90 202.5,-90"/>
<text text-anchor="start" x="208.5" y="-96.2" font-family="Helvetica,sans-Serif" font-size="11.00"> &#160;</text>
<polygon fill="#ffffff" stroke="none" points="218.5,-90 218.5,-108 245.5,-108 245.5,-90 218.5,-90"/>
<polygon fill="none" stroke="black" points="218.5,-90 218.5,-108 245.5,-108 245.5,-90 218.5,-90"/>
<text text-anchor="start" x="225.5" y="-96.2" font-family="Helvetica,sans-Serif" font-size="11.00">2 &gt;</text>
</a>
</g>
</g>
<!-- guest_devices&#45;&gt;lans -->
<g id="edge3" class="edge"><title>guest_devices:lan_id:w&#45;&gt;lans:elipses:e</title>
<path fill="none" stroke="black" d="M297.707,-152.144C277.952,-143.306 274.502,-117 246.5,-117"/>
<polygon fill="black" stroke="black" points="304.155,-153.432 311.295,-158.53 308.078,-154.216 312,-155 312,-155 312,-155 308.078,-154.216 312.705,-151.47 304.155,-153.432 304.155,-153.432"/>
<ellipse fill="none" stroke="black" cx="301.017" cy="-152.805" rx="3.2" ry="3.2"/>
</g>
<!-- switches -->
<g id="node5" class="node"><title>switches</title>
<g id="a_node5"><a xlink:href="../../tables/switches.html" xlink:title="switches" target="_top">
<polygon fill="#ffffff" stroke="none" points="8,-117 8,-175 106,-175 106,-117 8,-117"/>
<polygon fill="#f5f5f5" stroke="none" points="8,-153 8,-175 106,-175 106,-153 8,-153"/>
<polygon fill="none" stroke="black" points="8,-153 8,-175 106,-175 106,-153 8,-153"/>
<text text-anchor="start" x="13" y="-162.2" font-family="Helvetica,sans-Serif" font-weight="bold" font-size="11.00">switches</text>
<text text-anchor="start" x="67" y="-161.2" font-family="Helvetica,sans-Serif" font-size="11.00">[table]</text>
<polygon fill="none" stroke="black" points="8,-135 8,-153 106,-153 106,-135 8,-135"/>
<text text-anchor="start" x="11" y="-141.2" font-family="Helvetica,sans-Serif" font-size="11.00">...</text>
<polygon fill="#ffffff" stroke="none" points="8,-117 8,-135 50,-135 50,-117 8,-117"/>
<polygon fill="none" stroke="black" points="8,-117 8,-135 50,-135 50,-117 8,-117"/>
<text text-anchor="start" x="11" y="-123.2" font-family="Helvetica,sans-Serif" font-size="11.00">&lt; 1</text>
<polygon fill="#ffffff" stroke="none" points="50,-117 50,-135 73,-135 73,-117 50,-117"/>
<polygon fill="none" stroke="black" points="50,-117 50,-135 73,-135 73,-117 50,-117"/>
<text text-anchor="start" x="63" y="-123.2" font-family="Helvetica,sans-Serif" font-size="11.00"> &#160;</text>
<polygon fill="#ffffff" stroke="none" points="73,-117 73,-135 106,-135 106,-117 73,-117"/>
<polygon fill="none" stroke="black" points="73,-117 73,-135 106,-135 106,-117 73,-117"/>
<text text-anchor="start" x="86" y="-123.2" font-family="Helvetica,sans-Serif" font-size="11.00">5 &gt;</text>
</a>
</g>
</g>
<!-- guest_devices&#45;&gt;switches -->
<g id="edge4" class="edge"><title>guest_devices:switch_id:w&#45;&gt;switches:elipses:e</title>
<path fill="none" stroke="black" d="M297.599,-176.982C235.325,-176.799 213.857,-174.916 147,-159 128.53,-154.603 125.987,-144 107,-144"/>
<polygon fill="black" stroke="black" points="304,-176.99 311.996,-180.6 308,-176.995 312,-177 312,-177 312,-177 308,-176.995 312.004,-173.4 304,-176.99 304,-176.99"/>
<ellipse fill="none" stroke="black" cx="300.8" cy="-176.986" rx="3.2" ry="3.2"/>
</g>
<!-- hardwares&#45;&gt;switches -->
<g id="edge5" class="edge"><title>hardwares:elipses:w&#45;&gt;switches:elipses:e</title>
<path fill="none" stroke="black" d="M140.747,-218.295C122.093,-201.288 141.888,-144 107,-144"/>
<polygon fill="black" stroke="black" points="146.931,-220.41 153.335,-226.406 150.715,-221.705 154.5,-223 154.5,-223 154.5,-223 150.715,-221.705 155.665,-219.594 146.931,-220.41 146.931,-220.41"/>
<ellipse fill="none" stroke="black" cx="143.903" cy="-219.374" rx="3.20001" ry="3.20001"/>
</g>
<!-- lans&#45;&gt;switches -->
<g id="edge6" class="edge"><title>lans:elipses:w&#45;&gt;switches:elipses:e</title>
<path fill="none" stroke="black" d="M158.265,-119.21C139.23,-125.658 132.953,-144 107,-144"/>
<polygon fill="black" stroke="black" points="164.595,-118.227 173.052,-120.557 168.547,-117.614 172.5,-117 172.5,-117 172.5,-117 168.547,-117.614 171.948,-113.443 164.595,-118.227 164.595,-118.227"/>
<ellipse fill="none" stroke="black" cx="161.433" cy="-118.718" rx="3.2" ry="3.2"/>
</g>
<!-- miq_scsi_luns -->
<g id="node6" class="node"><title>miq_scsi_luns</title>
<g id="a_node6"><a xlink:href="../../tables/miq_scsi_luns.html" xlink:title="miq_scsi_luns" target="_top">
<polygon fill="#ffffff" stroke="none" points="806,-237 806,-339 934,-339 934,-237 806,-237"/>
<polygon fill="#f5f5f5" stroke="none" points="806,-317 806,-339 934,-339 934,-317 806,-317"/>
<polygon fill="none" stroke="black" points="806,-317 806,-339 934,-339 934,-317 806,-317"/>
<text text-anchor="start" x="811" y="-326.2" font-family="Helvetica,sans-Serif" font-weight="bold" font-size="11.00">miq_scsi_luns</text>
<text text-anchor="start" x="895" y="-325.2" font-family="Helvetica,sans-Serif" font-size="11.00">[table]</text>
<polygon fill="none" stroke="black" points="806,-295 806,-317 934,-317 934,-295 806,-295"/>
<image xlink:href="../../images/primaryKeys.png" width="11px" height="12px" preserveAspectRatio="xMinYMin meet" x="811" y="-312"/>
<text text-anchor="start" x="826" y="-303.2" font-family="Helvetica,sans-Serif" font-size="11.00">id</text>
<polygon fill="#ffffff" stroke="none" points="806,-273 806,-295 934,-295 934,-273 806,-273"/>
<polygon fill="none" stroke="black" points="806,-273 806,-295 934,-295 934,-273 806,-273"/>
<image xlink:href="../../images/foreignKeys.png" width="11px" height="12px" preserveAspectRatio="xMinYMin meet" x="811" y="-290"/>
<text text-anchor="start" x="826" y="-281.2" font-family="Helvetica,sans-Serif" font-size="11.00">miq_scsi_target_id</text>
<polygon fill="none" stroke="black" points="806,-255 806,-273 934,-273 934,-255 806,-255"/>
<text text-anchor="start" x="809" y="-261.2" font-family="Helvetica,sans-Serif" font-size="11.00">...</text>
<polygon fill="#ffffff" stroke="none" points="806,-237 806,-255 868,-255 868,-237 806,-237"/>
<polygon fill="none" stroke="black" points="806,-237 806,-255 868,-255 868,-237 806,-237"/>
<text text-anchor="start" x="809" y="-243.2" font-family="Helvetica,sans-Serif" font-size="11.00">&lt; 1</text>
<polygon fill="#ffffff" stroke="none" points="868,-237 868,-255 901,-255 901,-237 868,-237"/>
<polygon fill="none" stroke="black" points="868,-237 868,-255 901,-255 901,-237 868,-237"/>
<text text-anchor="start" x="891" y="-243.2" font-family="Helvetica,sans-Serif" font-size="11.00"> &#160;</text>
<polygon fill="#ffffff" stroke="none" points="901,-237 901,-255 934,-255 934,-237 901,-237"/>
<polygon fill="none" stroke="black" points="901,-237 901,-255 934,-255 934,-237 901,-237"/>
<text text-anchor="start" x="924" y="-243.2" font-family="Helvetica,sans-Serif" font-size="11.00"> &#160;</text>
</a>
</g>
</g>
<!-- miq_scsi_targets -->
<g id="node7" class="node"><title>miq_scsi_targets</title>
<g id="a_node7"><a xlink:href="../../tables/miq_scsi_targets.html" xlink:title="miq_scsi_targets" target="_top">
<polygon fill="#ffffff" stroke="none" points="514,-121 514,-319 757,-319 757,-121 514,-121"/>
<polygon fill="#f5f5f5" stroke="none" points="516.5,-295 516.5,-317 755.5,-317 755.5,-295 516.5,-295"/>
<polygon fill="none" stroke="black" points="516.5,-295 516.5,-317 755.5,-317 755.5,-295 516.5,-295"/>
<text text-anchor="start" x="521.5" y="-304.2" font-family="Helvetica,sans-Serif" font-weight="bold" font-size="11.00">miq_scsi_targets</text>
<text text-anchor="start" x="716.5" y="-303.2" font-family="Helvetica,sans-Serif" font-size="11.00">[table]</text>
<polygon fill="none" stroke="black" points="516.5,-273 516.5,-295 634.5,-295 634.5,-273 516.5,-273"/>
<image xlink:href="../../images/primaryKeys.png" width="11px" height="12px" preserveAspectRatio="xMinYMin meet" x="521.5" y="-290"/>
<text text-anchor="start" x="536.5" y="-281.2" font-family="Helvetica,sans-Serif" font-size="11.00">id</text>
<polygon fill="none" stroke="black" points="634.5,-273 634.5,-295 755.5,-295 755.5,-273 634.5,-273"/>
<text text-anchor="start" x="637.5" y="-281.2" font-family="Helvetica,sans-Serif" font-size="11.00">bigserial[19]</text>
<polygon fill="#ffffff" stroke="none" points="516.5,-251 516.5,-273 634.5,-273 634.5,-251 516.5,-251"/>
<polygon fill="none" stroke="black" points="516.5,-251 516.5,-273 634.5,-273 634.5,-251 516.5,-251"/>
<image xlink:href="../../images/foreignKeys.png" width="11px" height="12px" preserveAspectRatio="xMinYMin meet" x="521.5" y="-268"/>
<text text-anchor="start" x="536.5" y="-259.2" font-family="Helvetica,sans-Serif" font-size="11.00">guest_device_id</text>
<polygon fill="none" stroke="black" points="634.5,-251 634.5,-273 755.5,-273 755.5,-251 634.5,-251"/>
<text text-anchor="start" x="637.5" y="-259.2" font-family="Helvetica,sans-Serif" font-size="11.00">int8[19]</text>
<polygon fill="none" stroke="black" points="516.5,-229 516.5,-251 634.5,-251 634.5,-229 516.5,-229"/>
<text text-anchor="start" x="536.5" y="-237.2" font-family="Helvetica,sans-Serif" font-size="11.00">target</text>
<polygon fill="none" stroke="black" points="634.5,-229 634.5,-251 755.5,-251 755.5,-229 634.5,-229"/>
<text text-anchor="start" x="637.5" y="-237.2" font-family="Helvetica,sans-Serif" font-size="11.00">int4[10]</text>
<polygon fill="none" stroke="black" points="516.5,-207 516.5,-229 634.5,-229 634.5,-207 516.5,-207"/>
<text text-anchor="start" x="536.5" y="-215.2" font-family="Helvetica,sans-Serif" font-size="11.00">iscsi_name</text>
<polygon fill="none" stroke="black" points="634.5,-207 634.5,-229 755.5,-229 755.5,-207 634.5,-207"/>
<text text-anchor="start" x="637.5" y="-215.2" font-family="Helvetica,sans-Serif" font-size="11.00">varchar[2147483647]</text>
<polygon fill="none" stroke="black" points="516.5,-185 516.5,-207 634.5,-207 634.5,-185 516.5,-185"/>
<text text-anchor="start" x="536.5" y="-193.2" font-family="Helvetica,sans-Serif" font-size="11.00">iscsi_alias</text>
<polygon fill="none" stroke="black" points="634.5,-185 634.5,-207 755.5,-207 755.5,-185 634.5,-185"/>
<text text-anchor="start" x="637.5" y="-193.2" font-family="Helvetica,sans-Serif" font-size="11.00">varchar[2147483647]</text>
<polygon fill="none" stroke="black" points="516.5,-163 516.5,-185 634.5,-185 634.5,-163 516.5,-163"/>
<text text-anchor="start" x="536.5" y="-171.2" font-family="Helvetica,sans-Serif" font-size="11.00">address</text>
<polygon fill="none" stroke="black" points="634.5,-163 634.5,-185 755.5,-185 755.5,-163 634.5,-163"/>
<text text-anchor="start" x="637.5" y="-171.2" font-family="Helvetica,sans-Serif" font-size="11.00">varchar[2147483647]</text>
<polygon fill="none" stroke="black" points="516.5,-141 516.5,-163 634.5,-163 634.5,-141 516.5,-141"/>
<text text-anchor="start" x="536.5" y="-149.2" font-family="Helvetica,sans-Serif" font-size="11.00">uid_ems</text>
<polygon fill="none" stroke="black" points="634.5,-141 634.5,-163 755.5,-163 755.5,-141 634.5,-141"/>
<text text-anchor="start" x="637.5" y="-149.2" font-family="Helvetica,sans-Serif" font-size="11.00">varchar[2147483647]</text>
<polygon fill="#ffffff" stroke="none" points="516.5,-123 516.5,-141 580.5,-141 580.5,-123 516.5,-123"/>
<polygon fill="none" stroke="black" points="516.5,-123 516.5,-141 580.5,-141 580.5,-123 516.5,-123"/>
<text text-anchor="start" x="519.5" y="-129.2" font-family="Helvetica,sans-Serif" font-size="11.00">&lt; 1</text>
<polygon fill="#ffffff" stroke="none" points="580.5,-123 580.5,-141 634.5,-141 634.5,-123 580.5,-123"/>
<polygon fill="none" stroke="black" points="580.5,-123 580.5,-141 634.5,-141 634.5,-123 580.5,-123"/>
<text text-anchor="start" x="624.5" y="-129.2" font-family="Helvetica,sans-Serif" font-size="11.00"> &#160;</text>
<polygon fill="#ffffff" stroke="none" points="634.5,-123 634.5,-141 755.5,-141 755.5,-123 634.5,-123"/>
<polygon fill="none" stroke="black" points="634.5,-123 634.5,-141 755.5,-141 755.5,-123 634.5,-123"/>
<text text-anchor="start" x="735.5" y="-129.2" font-family="Helvetica,sans-Serif" font-size="11.00">1 &gt;</text>
<polygon fill="none" stroke="black" stroke-width="2" points="515,-122 515,-318 756,-318 756,-122 515,-122"/>
</a>
</g>
</g>
<!-- miq_scsi_luns&#45;&gt;miq_scsi_targets -->
<g id="edge7" class="edge"><title>miq_scsi_luns:miq_scsi_target_id:w&#45;&gt;miq_scsi_targets:id.type:e</title>
<path fill="none" stroke="black" d="M790.283,-284C779.289,-284 772.161,-284 756.5,-284"/>
<polygon fill="black" stroke="black" points="797,-284 805,-287.6 801,-284 805,-284 805,-284 805,-284 801,-284 805,-280.4 797,-284 797,-284"/>
<ellipse fill="none" stroke="black" cx="793.8" cy="-284" rx="3.2" ry="3.2"/>
</g>
<!-- miq_scsi_targets&#45;&gt;guest_devices -->
<g id="edge8" class="edge"><title>miq_scsi_targets:guest_device_id:w&#45;&gt;guest_devices:id:e</title>
<path fill="none" stroke="black" d="M500.832,-262.523C489.408,-263.382 482.186,-265 466,-265"/>
<polygon fill="black" stroke="black" points="507.505,-262.285 515.628,-265.598 511.503,-262.142 515.5,-262 515.5,-262 515.5,-262 511.503,-262.142 515.372,-258.402 507.505,-262.285 507.505,-262.285"/>
<ellipse fill="none" stroke="black" cx="504.307" cy="-262.399" rx="3.2" ry="3.2"/>
</g>
<!-- physical_network_ports -->
<g id="node8" class="node"><title>physical_network_ports</title>
<g id="a_node8"><a xlink:href="../../tables/physical_network_ports.html" xlink:title="physical_network_ports" target="_top">
<polygon fill="#ffffff" stroke="none" points="544,-37 544,-95 727,-95 727,-37 544,-37"/>
<polygon fill="#f5f5f5" stroke="none" points="544.5,-73 544.5,-95 727.5,-95 727.5,-73 544.5,-73"/>
<polygon fill="none" stroke="black" points="544.5,-73 544.5,-95 727.5,-95 727.5,-73 544.5,-73"/>
<text text-anchor="start" x="549.5" y="-82.2" font-family="Helvetica,sans-Serif" font-weight="bold" font-size="11.00">physical_network_ports</text>
<text text-anchor="start" x="688.5" y="-81.2" font-family="Helvetica,sans-Serif" font-size="11.00">[table]</text>
<polygon fill="none" stroke="black" points="544.5,-55 544.5,-73 727.5,-73 727.5,-55 544.5,-55"/>
<text text-anchor="start" x="547.5" y="-61.2" font-family="Helvetica,sans-Serif" font-size="11.00">...</text>
<polygon fill="#ffffff" stroke="none" points="544.5,-37 544.5,-55 634.5,-55 634.5,-37 544.5,-37"/>
<polygon fill="none" stroke="black" points="544.5,-37 544.5,-55 634.5,-55 634.5,-37 544.5,-37"/>
<text text-anchor="start" x="547.5" y="-43.2" font-family="Helvetica,sans-Serif" font-size="11.00">&lt; 2</text>
<polygon fill="#ffffff" stroke="none" points="634.5,-37 634.5,-55 680.5,-55 680.5,-37 634.5,-37"/>
<polygon fill="none" stroke="black" points="634.5,-37 634.5,-55 680.5,-55 680.5,-37 634.5,-37"/>
<text text-anchor="start" x="670.5" y="-43.2" font-family="Helvetica,sans-Serif" font-size="11.00"> &#160;</text>
<polygon fill="#ffffff" stroke="none" points="680.5,-37 680.5,-55 727.5,-55 727.5,-37 680.5,-37"/>
<polygon fill="none" stroke="black" points="680.5,-37 680.5,-55 727.5,-55 727.5,-37 680.5,-37"/>
<text text-anchor="start" x="717.5" y="-43.2" font-family="Helvetica,sans-Serif" font-size="11.00"> &#160;</text>
</a>
</g>
</g>
<!-- physical_network_ports&#45;&gt;guest_devices -->
<g id="edge9" class="edge"><title>physical_network_ports:elipses:w&#45;&gt;guest_devices:id:e</title>
<path fill="none" stroke="black" d="M529.156,-67.2978C516.636,-74.5082 515.246,-92.5147 506,-111 474.366,-174.246 536.716,-265 466,-265"/>
<polygon fill="black" stroke="black" points="535.703,-65.7926 544.307,-67.5085 539.602,-64.8963 543.5,-64 543.5,-64 543.5,-64 539.602,-64.8963 542.693,-60.4915 535.703,-65.7926 535.703,-65.7926"/>
<ellipse fill="none" stroke="black" cx="532.585" cy="-66.5096" rx="3.2" ry="3.2"/>
</g>
<!-- physical_network_ports&#45;&gt;switches -->
<g id="edge10" class="edge"><title>physical_network_ports:elipses:w&#45;&gt;switches:elipses:e</title>
<path fill="none" stroke="black" d="M528.773,-63.8307C363.236,-60.0178 295.183,6.08072 147,-80 117.996,-96.8489 140.543,-144 107,-144"/>
<polygon fill="black" stroke="black" points="535.501,-63.908 543.459,-67.5998 539.5,-63.954 543.5,-64 543.5,-64 543.5,-64 539.5,-63.954 543.541,-60.4002 535.501,-63.908 535.501,-63.908"/>
<ellipse fill="none" stroke="black" cx="532.301" cy="-63.8711" rx="3.2" ry="3.2"/>
</g>
</g>
</svg>
