<?xml version="1.0" encoding="UTF-8" standalone="no"?>
<!DOCTYPE svg PUBLIC "-//W3C//DTD SVG 1.1//EN"
 "http://www.w3.org/Graphics/SVG/1.1/DTD/svg11.dtd">
<!-- Generated by graphviz version 2.38.0 (20140413.2041)
 -->
<!-- Title: oneDegreeRelationshipsDiagram Pages: 1 -->
<svg width="728pt" height="477pt"
 viewBox="0.00 0.00 728.00 477.00" xmlns="http://www.w3.org/2000/svg" xmlns:xlink="http://www.w3.org/1999/xlink">
<g id="graph0" class="graph" transform="scale(1 1) rotate(0) translate(4 473)">
<title>oneDegreeRelationshipsDiagram</title>
<polygon fill="#ffffff" stroke="none" points="-4,4 -4,-473 724,-473 724,4 -4,4"/>
<text text-anchor="middle" x="74.5" y="-7.2" font-family="Helvetica,sans-Serif" font-size="11.00">Generated by SchemaSpy</text>
<!-- miq_report_results -->
<g id="node1" class="node"><title>miq_report_results</title>
<g id="a_node1"><a xlink:href="../../tables/miq_report_results.html" xlink:title="miq_report_results" target="_top">
<polygon fill="#ffffff" stroke="none" points="206,-108 206,-254 391,-254 391,-108 206,-108"/>
<polygon fill="#f5f5f5" stroke="none" points="206.5,-232 206.5,-254 391.5,-254 391.5,-232 206.5,-232"/>
<polygon fill="none" stroke="black" points="206.5,-232 206.5,-254 391.5,-254 391.5,-232 206.5,-232"/>
<text text-anchor="start" x="211.5" y="-241.2" font-family="Helvetica,sans-Serif" font-weight="bold" font-size="11.00">miq_report_results</text>
<text text-anchor="start" x="352.5" y="-240.2" font-family="Helvetica,sans-Serif" font-size="11.00">[table]</text>
<polygon fill="none" stroke="black" points="206.5,-210 206.5,-232 391.5,-232 391.5,-210 206.5,-210"/>
<image xlink:href="../../images/primaryKeys.png" width="11px" height="12px" preserveAspectRatio="xMinYMin meet" x="211.5" y="-227"/>
<text text-anchor="start" x="226.5" y="-218.2" font-family="Helvetica,sans-Serif" font-size="11.00">id</text>
<polygon fill="#ffffff" stroke="none" points="206.5,-188 206.5,-210 391.5,-210 391.5,-188 206.5,-188"/>
<polygon fill="none" stroke="black" points="206.5,-188 206.5,-210 391.5,-210 391.5,-188 206.5,-188"/>
<image xlink:href="../../images/foreignKeys.png" width="11px" height="12px" preserveAspectRatio="xMinYMin meet" x="211.5" y="-205"/>
<text text-anchor="start" x="226.5" y="-196.2" font-family="Helvetica,sans-Serif" font-size="11.00">miq_report_id</text>
<polygon fill="#ffffff" stroke="none" points="206.5,-166 206.5,-188 391.5,-188 391.5,-166 206.5,-166"/>
<polygon fill="none" stroke="black" points="206.5,-166 206.5,-188 391.5,-188 391.5,-166 206.5,-166"/>
<image xlink:href="../../images/foreignKeys.png" width="11px" height="12px" preserveAspectRatio="xMinYMin meet" x="211.5" y="-183"/>
<text text-anchor="start" x="226.5" y="-174.2" font-family="Helvetica,sans-Serif" font-size="11.00">miq_task_id</text>
<polygon fill="#ffffff" stroke="none" points="206.5,-144 206.5,-166 391.5,-166 391.5,-144 206.5,-144"/>
<polygon fill="none" stroke="black" points="206.5,-144 206.5,-166 391.5,-166 391.5,-144 206.5,-144"/>
<image xlink:href="../../images/foreignKeys.png" width="11px" height="12px" preserveAspectRatio="xMinYMin meet" x="211.5" y="-161"/>
<text text-anchor="start" x="226.5" y="-152.2" font-family="Helvetica,sans-Serif" font-size="11.00">miq_group_id</text>
<polygon fill="none" stroke="black" points="206.5,-126 206.5,-144 391.5,-144 391.5,-126 206.5,-126"/>
<text text-anchor="start" x="209.5" y="-132.2" font-family="Helvetica,sans-Serif" font-size="11.00">...</text>
<polygon fill="#ffffff" stroke="none" points="206.5,-108 206.5,-126 292.5,-126 292.5,-108 206.5,-108"/>
<polygon fill="none" stroke="black" points="206.5,-108 206.5,-126 292.5,-126 292.5,-108 206.5,-108"/>
<text text-anchor="start" x="209.5" y="-114.2" font-family="Helvetica,sans-Serif" font-size="11.00">&lt; 3</text>
<polygon fill="#ffffff" stroke="none" points="292.5,-108 292.5,-126 336.5,-126 336.5,-108 292.5,-108"/>
<polygon fill="none" stroke="black" points="292.5,-108 292.5,-126 336.5,-126 336.5,-108 292.5,-108"/>
<text text-anchor="start" x="326.5" y="-114.2" font-family="Helvetica,sans-Serif" font-size="11.00"> &#160;</text>
<polygon fill="#ffffff" stroke="none" points="336.5,-108 336.5,-126 391.5,-126 391.5,-108 336.5,-108"/>
<polygon fill="none" stroke="black" points="336.5,-108 336.5,-126 391.5,-126 391.5,-108 336.5,-108"/>
<text text-anchor="start" x="371.5" y="-114.2" font-family="Helvetica,sans-Serif" font-size="11.00">2 &gt;</text>
</a>
</g>
</g>
<!-- miq_groups -->
<g id="node2" class="node"><title>miq_groups</title>
<g id="a_node2"><a xlink:href="../../tables/miq_groups.html" xlink:title="miq_groups" target="_top">
<polygon fill="#ffffff" stroke="none" points="11.5,-37 11.5,-139 153.5,-139 153.5,-37 11.5,-37"/>
<polygon fill="#f5f5f5" stroke="none" points="11.5,-117 11.5,-139 153.5,-139 153.5,-117 11.5,-117"/>
<polygon fill="none" stroke="black" points="11.5,-117 11.5,-139 153.5,-139 153.5,-117 11.5,-117"/>
<text text-anchor="start" x="16.5" y="-126.2" font-family="Helvetica,sans-Serif" font-weight="bold" font-size="11.00">miq_groups</text>
<text text-anchor="start" x="114.5" y="-125.2" font-family="Helvetica,sans-Serif" font-size="11.00">[table]</text>
<polygon fill="none" stroke="black" points="11.5,-95 11.5,-117 153.5,-117 153.5,-95 11.5,-95"/>
<image xlink:href="../../images/primaryKeys.png" width="11px" height="12px" preserveAspectRatio="xMinYMin meet" x="16.5" y="-112"/>
<text text-anchor="start" x="31.5" y="-103.2" font-family="Helvetica,sans-Serif" font-size="11.00">id</text>
<polygon fill="none" stroke="black" points="11.5,-73 11.5,-95 153.5,-95 153.5,-73 11.5,-73"/>
<image xlink:href="../../images/foreignKeys.png" width="11px" height="12px" preserveAspectRatio="xMinYMin meet" x="16.5" y="-90"/>
<text text-anchor="start" x="31.5" y="-81.2" font-family="Helvetica,sans-Serif" font-size="11.00">tenant_id</text>
<polygon fill="none" stroke="black" points="11.5,-55 11.5,-73 153.5,-73 153.5,-55 11.5,-55"/>
<text text-anchor="start" x="14.5" y="-61.2" font-family="Helvetica,sans-Serif" font-size="11.00">...</text>
<polygon fill="#ffffff" stroke="none" points="11.5,-37 11.5,-55 72.5,-55 72.5,-37 11.5,-37"/>
<polygon fill="none" stroke="black" points="11.5,-37 11.5,-55 72.5,-55 72.5,-37 11.5,-37"/>
<text text-anchor="start" x="14.5" y="-43.2" font-family="Helvetica,sans-Serif" font-size="11.00">&lt; 1</text>
<polygon fill="#ffffff" stroke="none" points="72.5,-37 72.5,-55 104.5,-55 104.5,-37 72.5,-37"/>
<polygon fill="none" stroke="black" points="72.5,-37 72.5,-55 104.5,-55 104.5,-37 72.5,-37"/>
<text text-anchor="start" x="94.5" y="-43.2" font-family="Helvetica,sans-Serif" font-size="11.00"> &#160;</text>
<polygon fill="#ffffff" stroke="none" points="104.5,-37 104.5,-55 153.5,-55 153.5,-37 104.5,-37"/>
<polygon fill="none" stroke="black" points="104.5,-37 104.5,-55 153.5,-55 153.5,-37 104.5,-37"/>
<text text-anchor="start" x="126.5" y="-43.2" font-family="Helvetica,sans-Serif" font-size="11.00">10 &gt;</text>
</a>
</g>
</g>
<!-- miq_report_results&#45;&gt;miq_groups -->
<g id="edge1" class="edge"><title>miq_report_results:miq_group_id:w&#45;&gt;miq_groups:id:e</title>
<path fill="none" stroke="black" d="M191.815,-150.478C176.994,-138.348 180.04,-106 154.5,-106"/>
<polygon fill="black" stroke="black" points="197.904,-152.49 204.371,-158.418 201.702,-153.745 205.5,-155 205.5,-155 205.5,-155 201.702,-153.745 206.629,-151.582 197.904,-152.49 197.904,-152.49"/>
<ellipse fill="none" stroke="black" cx="194.866" cy="-151.486" rx="3.20001" ry="3.20001"/>
</g>
<!-- miq_widget_contents -->
<g id="node3" class="node"><title>miq_widget_contents</title>
<g id="a_node3"><a xlink:href="../../tables/miq_widget_contents.html" xlink:title="miq_widget_contents" target="_top">
<polygon fill="#ffffff" stroke="none" points="440,-55 440,-297 712,-297 712,-55 440,-55"/>
<polygon fill="#f5f5f5" stroke="none" points="442,-273 442,-295 710,-295 710,-273 442,-273"/>
<polygon fill="none" stroke="black" points="442,-273 442,-295 710,-295 710,-273 442,-273"/>
<text text-anchor="start" x="447" y="-282.2" font-family="Helvetica,sans-Serif" font-weight="bold" font-size="11.00">miq_widget_contents</text>
<text text-anchor="start" x="671" y="-281.2" font-family="Helvetica,sans-Serif" font-size="11.00">[table]</text>
<polygon fill="none" stroke="black" points="442,-251 442,-273 589,-273 589,-251 442,-251"/>
<image xlink:href="../../images/primaryKeys.png" width="11px" height="12px" preserveAspectRatio="xMinYMin meet" x="447" y="-268"/>
<text text-anchor="start" x="462" y="-259.2" font-family="Helvetica,sans-Serif" font-size="11.00">id</text>
<polygon fill="none" stroke="black" points="589,-251 589,-273 710,-273 710,-251 589,-251"/>
<text text-anchor="start" x="592" y="-259.2" font-family="Helvetica,sans-Serif" font-size="11.00">bigserial[19]</text>
<polygon fill="#ffffff" stroke="none" points="442,-229 442,-251 589,-251 589,-229 442,-229"/>
<polygon fill="none" stroke="black" points="442,-229 442,-251 589,-251 589,-229 442,-229"/>
<image xlink:href="../../images/foreignKeys.png" width="11px" height="12px" preserveAspectRatio="xMinYMin meet" x="447" y="-246"/>
<text text-anchor="start" x="462" y="-237.2" font-family="Helvetica,sans-Serif" font-size="11.00">miq_widget_id</text>
<polygon fill="none" stroke="black" points="589,-229 589,-251 710,-251 710,-229 589,-229"/>
<text text-anchor="start" x="592" y="-237.2" font-family="Helvetica,sans-Serif" font-size="11.00">int8[19]</text>
<polygon fill="#ffffff" stroke="none" points="442,-207 442,-229 589,-229 589,-207 442,-207"/>
<polygon fill="none" stroke="black" points="442,-207 442,-229 589,-229 589,-207 442,-207"/>
<image xlink:href="../../images/foreignKeys.png" width="11px" height="12px" preserveAspectRatio="xMinYMin meet" x="447" y="-224"/>
<text text-anchor="start" x="462" y="-215.2" font-family="Helvetica,sans-Serif" font-size="11.00">miq_report_result_id</text>
<polygon fill="none" stroke="black" points="589,-207 589,-229 710,-229 710,-207 589,-207"/>
<text text-anchor="start" x="592" y="-215.2" font-family="Helvetica,sans-Serif" font-size="11.00">int8[19]</text>
<polygon fill="none" stroke="black" points="442,-185 442,-207 589,-207 589,-185 442,-185"/>
<text text-anchor="start" x="462" y="-193.2" font-family="Helvetica,sans-Serif" font-size="11.00">contents</text>
<polygon fill="none" stroke="black" points="589,-185 589,-207 710,-207 710,-185 589,-185"/>
<text text-anchor="start" x="592" y="-193.2" font-family="Helvetica,sans-Serif" font-size="11.00">text[2147483647]</text>
<polygon fill="none" stroke="black" points="442,-163 442,-185 589,-185 589,-163 442,-163"/>
<text text-anchor="start" x="462" y="-171.2" font-family="Helvetica,sans-Serif" font-size="11.00">created_at</text>
<polygon fill="none" stroke="black" points="589,-163 589,-185 710,-185 710,-163 589,-163"/>
<text text-anchor="start" x="592" y="-171.2" font-family="Helvetica,sans-Serif" font-size="11.00">timestamp[29,6]</text>
<polygon fill="none" stroke="black" points="442,-141 442,-163 589,-163 589,-141 442,-141"/>
<text text-anchor="start" x="462" y="-149.2" font-family="Helvetica,sans-Serif" font-size="11.00">updated_at</text>
<polygon fill="none" stroke="black" points="589,-141 589,-163 710,-163 710,-141 589,-141"/>
<text text-anchor="start" x="592" y="-149.2" font-family="Helvetica,sans-Serif" font-size="11.00">timestamp[29,6]</text>
<polygon fill="none" stroke="black" points="442,-119 442,-141 589,-141 589,-119 442,-119"/>
<text text-anchor="start" x="462" y="-127.2" font-family="Helvetica,sans-Serif" font-size="11.00">timezone</text>
<polygon fill="none" stroke="black" points="589,-119 589,-141 710,-141 710,-119 589,-119"/>
<text text-anchor="start" x="592" y="-127.2" font-family="Helvetica,sans-Serif" font-size="11.00">varchar[2147483647]</text>
<polygon fill="none" stroke="black" points="442,-97 442,-119 589,-119 589,-97 442,-97"/>
<image xlink:href="../../images/foreignKeys.png" width="11px" height="12px" preserveAspectRatio="xMinYMin meet" x="447" y="-114"/>
<text text-anchor="start" x="462" y="-105.2" font-family="Helvetica,sans-Serif" font-size="11.00">miq_group_id</text>
<polygon fill="none" stroke="black" points="589,-97 589,-119 710,-119 710,-97 589,-97"/>
<text text-anchor="start" x="592" y="-105.2" font-family="Helvetica,sans-Serif" font-size="11.00">int8[19]</text>
<polygon fill="#ffffff" stroke="none" points="442,-75 442,-97 589,-97 589,-75 442,-75"/>
<polygon fill="none" stroke="black" points="442,-75 442,-97 589,-97 589,-75 442,-75"/>
<image xlink:href="../../images/foreignKeys.png" width="11px" height="12px" preserveAspectRatio="xMinYMin meet" x="447" y="-92"/>
<text text-anchor="start" x="462" y="-83.2" font-family="Helvetica,sans-Serif" font-size="11.00">user_id</text>
<polygon fill="none" stroke="black" points="589,-75 589,-97 710,-97 710,-75 589,-75"/>
<text text-anchor="start" x="592" y="-83.2" font-family="Helvetica,sans-Serif" font-size="11.00">int8[19]</text>
<polygon fill="#ffffff" stroke="none" points="442,-57 442,-75 520,-75 520,-57 442,-57"/>
<polygon fill="none" stroke="black" points="442,-57 442,-75 520,-75 520,-57 442,-57"/>
<text text-anchor="start" x="445" y="-63.2" font-family="Helvetica,sans-Serif" font-size="11.00">&lt; 4</text>
<polygon fill="#ffffff" stroke="none" points="520,-57 520,-75 589,-75 589,-57 520,-57"/>
<polygon fill="none" stroke="black" points="520,-57 520,-75 589,-75 589,-57 520,-57"/>
<text text-anchor="start" x="579" y="-63.2" font-family="Helvetica,sans-Serif" font-size="11.00"> &#160;</text>
<polygon fill="#ffffff" stroke="none" points="589,-57 589,-75 710,-75 710,-57 589,-57"/>
<polygon fill="none" stroke="black" points="589,-57 589,-75 710,-75 710,-57 589,-57"/>
<text text-anchor="start" x="690" y="-63.2" font-family="Helvetica,sans-Serif" font-size="11.00">0 &gt;</text>
<polygon fill="none" stroke="black" stroke-width="2" points="441,-56 441,-296 711,-296 711,-56 441,-56"/>
</a>
</g>
</g>
<!-- miq_widget_contents&#45;&gt;miq_report_results -->
<g id="edge3" class="edge"><title>miq_widget_contents:miq_report_result_id:w&#45;&gt;miq_report_results:id:e</title>
<path fill="none" stroke="black" d="M426.272,-218.55C415.283,-219.416 408.191,-221 392.5,-221"/>
<polygon fill="black" stroke="black" points="433.006,-218.299 441.134,-221.597 437.003,-218.149 441,-218 441,-218 441,-218 437.003,-218.149 440.866,-214.403 433.006,-218.299 433.006,-218.299"/>
<ellipse fill="none" stroke="black" cx="429.808" cy="-218.418" rx="3.2" ry="3.2"/>
</g>
<!-- miq_widget_contents&#45;&gt;miq_groups -->
<g id="edge2" class="edge"><title>miq_widget_contents:miq_group_id:w&#45;&gt;miq_groups:id:e</title>
<path fill="none" stroke="black" d="M427.183,-103.572C417.57,-95.7959 415.803,-79.9487 399,-74 314.788,-44.1865 282.879,-46.143 198,-74 175.196,-81.4843 178.501,-106 154.5,-106"/>
<polygon fill="black" stroke="black" points="433.382,-105.558 439.901,-111.428 437.191,-106.779 441,-108 441,-108 441,-108 437.191,-106.779 442.099,-104.572 433.382,-105.558 433.382,-105.558"/>
<ellipse fill="none" stroke="black" cx="430.334" cy="-104.582" rx="3.20001" ry="3.20001"/>
</g>
<!-- miq_widgets -->
<g id="node4" class="node"><title>miq_widgets</title>
<g id="a_node4"><a xlink:href="../../tables/miq_widgets.html" xlink:title="miq_widgets" target="_top">
<polygon fill="#ffffff" stroke="none" points="208,-275 208,-465 389,-465 389,-275 208,-275"/>
<polygon fill="#f5f5f5" stroke="none" points="208.5,-443 208.5,-465 389.5,-465 389.5,-443 208.5,-443"/>
<polygon fill="none" stroke="black" points="208.5,-443 208.5,-465 389.5,-465 389.5,-443 208.5,-443"/>
<text text-anchor="start" x="213.5" y="-452.2" font-family="Helvetica,sans-Serif" font-weight="bold" font-size="11.00">miq_widgets</text>
<text text-anchor="start" x="350.5" y="-451.2" font-family="Helvetica,sans-Serif" font-size="11.00">[table]</text>
<polygon fill="none" stroke="black" points="208.5,-421 208.5,-443 389.5,-443 389.5,-421 208.5,-421"/>
<image xlink:href="../../images/primaryKeys.png" width="11px" height="12px" preserveAspectRatio="xMinYMin meet" x="213.5" y="-438"/>
<text text-anchor="start" x="228.5" y="-429.2" font-family="Helvetica,sans-Serif" font-size="11.00">id</text>
<polygon fill="#ffffff" stroke="none" points="208.5,-399 208.5,-421 389.5,-421 389.5,-399 208.5,-399"/>
<polygon fill="none" stroke="black" points="208.5,-399 208.5,-421 389.5,-421 389.5,-399 208.5,-399"/>
<image xlink:href="../../images/foreignKeys.png" width="11px" height="12px" preserveAspectRatio="xMinYMin meet" x="213.5" y="-416"/>
<text text-anchor="start" x="228.5" y="-407.2" font-family="Helvetica,sans-Serif" font-size="11.00">user_id</text>
<polygon fill="#ffffff" stroke="none" points="208.5,-377 208.5,-399 389.5,-399 389.5,-377 208.5,-377"/>
<polygon fill="none" stroke="black" points="208.5,-377 208.5,-399 389.5,-399 389.5,-377 208.5,-377"/>
<text text-anchor="start" x="228.5" y="-385.2" font-family="Helvetica,sans-Serif" font-size="11.00">resource_id</text>
<polygon fill="#ffffff" stroke="none" points="208.5,-355 208.5,-377 389.5,-377 389.5,-355 208.5,-355"/>
<polygon fill="none" stroke="black" points="208.5,-355 208.5,-377 389.5,-377 389.5,-355 208.5,-355"/>
<text text-anchor="start" x="228.5" y="-363.2" font-family="Helvetica,sans-Serif" font-size="11.00">resource_type</text>
<polygon fill="#ffffff" stroke="none" points="208.5,-333 208.5,-355 389.5,-355 389.5,-333 208.5,-333"/>
<polygon fill="none" stroke="black" points="208.5,-333 208.5,-355 389.5,-355 389.5,-333 208.5,-333"/>
<image xlink:href="../../images/foreignKeys.png" width="11px" height="12px" preserveAspectRatio="xMinYMin meet" x="213.5" y="-350"/>
<text text-anchor="start" x="228.5" y="-341.2" font-family="Helvetica,sans-Serif" font-size="11.00">miq_schedule_id</text>
<polygon fill="#ffffff" stroke="none" points="208.5,-311 208.5,-333 389.5,-333 389.5,-311 208.5,-311"/>
<polygon fill="none" stroke="black" points="208.5,-311 208.5,-333 389.5,-333 389.5,-311 208.5,-311"/>
<image xlink:href="../../images/foreignKeys.png" width="11px" height="12px" preserveAspectRatio="xMinYMin meet" x="213.5" y="-328"/>
<text text-anchor="start" x="228.5" y="-319.2" font-family="Helvetica,sans-Serif" font-size="11.00">miq_task_id</text>
<polygon fill="none" stroke="black" points="208.5,-293 208.5,-311 389.5,-311 389.5,-293 208.5,-293"/>
<text text-anchor="start" x="211.5" y="-299.2" font-family="Helvetica,sans-Serif" font-size="11.00">...</text>
<polygon fill="#ffffff" stroke="none" points="208.5,-275 208.5,-293 292.5,-293 292.5,-275 208.5,-275"/>
<polygon fill="none" stroke="black" points="208.5,-275 208.5,-293 292.5,-293 292.5,-275 208.5,-275"/>
<text text-anchor="start" x="211.5" y="-281.2" font-family="Helvetica,sans-Serif" font-size="11.00">&lt; 3</text>
<polygon fill="#ffffff" stroke="none" points="292.5,-275 292.5,-293 335.5,-293 335.5,-275 292.5,-275"/>
<polygon fill="none" stroke="black" points="292.5,-275 292.5,-293 335.5,-293 335.5,-275 292.5,-275"/>
<text text-anchor="start" x="325.5" y="-281.2" font-family="Helvetica,sans-Serif" font-size="11.00"> &#160;</text>
<polygon fill="#ffffff" stroke="none" points="335.5,-275 335.5,-293 389.5,-293 389.5,-275 335.5,-275"/>
<polygon fill="none" stroke="black" points="335.5,-275 335.5,-293 389.5,-293 389.5,-275 335.5,-275"/>
<text text-anchor="start" x="369.5" y="-281.2" font-family="Helvetica,sans-Serif" font-size="11.00">2 &gt;</text>
</a>
</g>
</g>
<!-- miq_widget_contents&#45;&gt;miq_widgets -->
<g id="edge4" class="edge"><title>miq_widget_contents:miq_widget_id:w&#45;&gt;miq_widgets:id:e</title>
<path fill="none" stroke="black" d="M426.494,-242.29C368.113,-263.952 473.049,-432 390.5,-432"/>
<polygon fill="black" stroke="black" points="433.098,-241.247 441.561,-243.556 437.049,-240.624 441,-240 441,-240 441,-240 437.049,-240.624 440.439,-236.444 433.098,-241.247 433.098,-241.247"/>
<ellipse fill="none" stroke="black" cx="429.937" cy="-241.746" rx="3.2" ry="3.2"/>
</g>
<!-- users -->
<g id="node5" class="node"><title>users</title>
<g id="a_node5"><a xlink:href="../../tables/users.html" xlink:title="users" target="_top">
<polygon fill="#ffffff" stroke="none" points="8,-239 8,-363 157,-363 157,-239 8,-239"/>
<polygon fill="#f5f5f5" stroke="none" points="8.5,-341 8.5,-363 157.5,-363 157.5,-341 8.5,-341"/>
<polygon fill="none" stroke="black" points="8.5,-341 8.5,-363 157.5,-363 157.5,-341 8.5,-341"/>
<text text-anchor="start" x="13.5" y="-350.2" font-family="Helvetica,sans-Serif" font-weight="bold" font-size="11.00">users</text>
<text text-anchor="start" x="118.5" y="-349.2" font-family="Helvetica,sans-Serif" font-size="11.00">[table]</text>
<polygon fill="none" stroke="black" points="8.5,-319 8.5,-341 157.5,-341 157.5,-319 8.5,-319"/>
<image xlink:href="../../images/primaryKeys.png" width="11px" height="12px" preserveAspectRatio="xMinYMin meet" x="13.5" y="-336"/>
<text text-anchor="start" x="28.5" y="-327.2" font-family="Helvetica,sans-Serif" font-size="11.00">id</text>
<polygon fill="#ffffff" stroke="none" points="8.5,-297 8.5,-319 157.5,-319 157.5,-297 8.5,-297"/>
<polygon fill="none" stroke="black" points="8.5,-297 8.5,-319 157.5,-319 157.5,-297 8.5,-297"/>
<text text-anchor="start" x="28.5" y="-305.2" font-family="Helvetica,sans-Serif" font-size="11.00">userid</text>
<polygon fill="#ffffff" stroke="none" points="8.5,-275 8.5,-297 157.5,-297 157.5,-275 8.5,-275"/>
<polygon fill="none" stroke="black" points="8.5,-275 8.5,-297 157.5,-297 157.5,-275 8.5,-275"/>
<text text-anchor="start" x="28.5" y="-283.2" font-family="Helvetica,sans-Serif" font-size="11.00">current_group_id</text>
<polygon fill="none" stroke="black" points="8.5,-257 8.5,-275 157.5,-275 157.5,-257 8.5,-257"/>
<text text-anchor="start" x="11.5" y="-263.2" font-family="Helvetica,sans-Serif" font-size="11.00">...</text>
<polygon fill="#ffffff" stroke="none" points="8.5,-239 8.5,-257 67.5,-257 67.5,-239 8.5,-239"/>
<polygon fill="none" stroke="black" points="8.5,-239 8.5,-257 67.5,-257 67.5,-239 8.5,-239"/>
<text text-anchor="start" x="11.5" y="-245.2" font-family="Helvetica,sans-Serif" font-size="11.00"> &#160;</text>
<polygon fill="#ffffff" stroke="none" points="67.5,-239 67.5,-257 103.5,-257 103.5,-239 67.5,-239"/>
<polygon fill="none" stroke="black" points="67.5,-239 67.5,-257 103.5,-257 103.5,-239 67.5,-239"/>
<text text-anchor="start" x="93.5" y="-245.2" font-family="Helvetica,sans-Serif" font-size="11.00"> &#160;</text>
<polygon fill="#ffffff" stroke="none" points="103.5,-239 103.5,-257 157.5,-257 157.5,-239 103.5,-239"/>
<polygon fill="none" stroke="black" points="103.5,-239 103.5,-257 157.5,-257 157.5,-239 103.5,-239"/>
<text text-anchor="start" x="130.5" y="-245.2" font-family="Helvetica,sans-Serif" font-size="11.00">15 &gt;</text>
</a>
</g>
</g>
<!-- miq_widget_contents&#45;&gt;users -->
<g id="edge5" class="edge"><title>miq_widget_contents:user_id:w&#45;&gt;users:id:e</title>
<path fill="none" stroke="black" d="M426.302,-85.5666C363.862,-82.4156 235.252,-64.0598 198,-97 158.658,-131.788 211.017,-330 158.5,-330"/>
<polygon fill="black" stroke="black" points="433.003,-85.7642 440.894,-89.5984 437.002,-85.8821 441,-86 441,-86 441,-86 437.002,-85.8821 441.106,-82.4016 433.003,-85.7642 433.003,-85.7642"/>
<ellipse fill="none" stroke="black" cx="429.805" cy="-85.6698" rx="3.2" ry="3.2"/>
</g>
<!-- miq_widgets&#45;&gt;users -->
<g id="edge6" class="edge"><title>miq_widgets:user_id:w&#45;&gt;users:id:e</title>
<path fill="none" stroke="black" d="M193.73,-405.47C174.157,-388.546 194.169,-330 158.5,-330"/>
<polygon fill="black" stroke="black" points="199.901,-407.5 206.375,-413.42 203.7,-408.75 207.5,-410 207.5,-410 207.5,-410 203.7,-408.75 208.625,-406.58 199.901,-407.5 199.901,-407.5"/>
<ellipse fill="none" stroke="black" cx="196.861" cy="-406.5" rx="3.20001" ry="3.20001"/>
</g>
</g>
</svg>
