<?xml version="1.0" encoding="UTF-8" standalone="no"?>
<!DOCTYPE svg PUBLIC "-//W3C//DTD SVG 1.1//EN"
 "http://www.w3.org/Graphics/SVG/1.1/DTD/svg11.dtd">
<!-- Generated by graphviz version 2.38.0 (20140413.2041)
 -->
<!-- Title: oneDegreeRelationshipsDiagram Pages: 1 -->
<svg width="424pt" height="296pt"
 viewBox="0.00 0.00 424.00 296.00" xmlns="http://www.w3.org/2000/svg" xmlns:xlink="http://www.w3.org/1999/xlink">
<g id="graph0" class="graph" transform="scale(1 1) rotate(0) translate(4 292)">
<title>oneDegreeRelationshipsDiagram</title>
<polygon fill="#ffffff" stroke="none" points="-4,4 -4,-292 420,-292 420,4 -4,4"/>
<text text-anchor="middle" x="74.5" y="-7.2" font-family="Helvetica,sans-Serif" font-size="11.00">Generated by SchemaSpy</text>
<!-- miq_groups_users -->
<g id="node1" class="node"><title>miq_groups_users</title>
<g id="a_node1"><a xlink:href="../../tables/miq_groups_users.html" xlink:title="miq_groups_users" target="_top">
<polygon fill="#ffffff" stroke="none" points="206,-147 206,-257 408,-257 408,-147 206,-147"/>
<polygon fill="#f5f5f5" stroke="none" points="208,-233 208,-255 406,-255 406,-233 208,-233"/>
<polygon fill="none" stroke="black" points="208,-233 208,-255 406,-255 406,-233 208,-233"/>
<text text-anchor="start" x="213" y="-242.2" font-family="Helvetica,sans-Serif" font-weight="bold" font-size="11.00">miq_groups_users</text>
<text text-anchor="start" x="367" y="-241.2" font-family="Helvetica,sans-Serif" font-size="11.00">[table]</text>
<polygon fill="none" stroke="black" points="208,-211 208,-233 335,-233 335,-211 208,-211"/>
<image xlink:href="../../images/primaryKeys.png" width="11px" height="12px" preserveAspectRatio="xMinYMin meet" x="213" y="-228"/>
<text text-anchor="start" x="228" y="-219.2" font-family="Helvetica,sans-Serif" font-size="11.00">id</text>
<polygon fill="none" stroke="black" points="335,-211 335,-233 406,-233 406,-211 335,-211"/>
<text text-anchor="start" x="338" y="-219.2" font-family="Helvetica,sans-Serif" font-size="11.00">bigserial[19]</text>
<polygon fill="#ffffff" stroke="none" points="208,-189 208,-211 335,-211 335,-189 208,-189"/>
<polygon fill="none" stroke="black" points="208,-189 208,-211 335,-211 335,-189 208,-189"/>
<image xlink:href="../../images/foreignKeys.png" width="11px" height="12px" preserveAspectRatio="xMinYMin meet" x="213" y="-206"/>
<text text-anchor="start" x="228" y="-197.2" font-family="Helvetica,sans-Serif" font-size="11.00">miq_group_id</text>
<polygon fill="none" stroke="black" points="335,-189 335,-211 406,-211 406,-189 335,-189"/>
<text text-anchor="start" x="338" y="-197.2" font-family="Helvetica,sans-Serif" font-size="11.00">int8[19]</text>
<polygon fill="#ffffff" stroke="none" points="208,-167 208,-189 335,-189 335,-167 208,-167"/>
<polygon fill="none" stroke="black" points="208,-167 208,-189 335,-189 335,-167 208,-167"/>
<image xlink:href="../../images/foreignKeys.png" width="11px" height="12px" preserveAspectRatio="xMinYMin meet" x="213" y="-184"/>
<text text-anchor="start" x="228" y="-175.2" font-family="Helvetica,sans-Serif" font-size="11.00">user_id</text>
<polygon fill="none" stroke="black" points="335,-167 335,-189 406,-189 406,-167 335,-167"/>
<text text-anchor="start" x="338" y="-175.2" font-family="Helvetica,sans-Serif" font-size="11.00">int8[19]</text>
<polygon fill="#ffffff" stroke="none" points="208,-149 208,-167 276,-167 276,-149 208,-149"/>
<polygon fill="none" stroke="black" points="208,-149 208,-167 276,-167 276,-149 208,-149"/>
<text text-anchor="start" x="211" y="-155.2" font-family="Helvetica,sans-Serif" font-size="11.00">&lt; 2</text>
<polygon fill="#ffffff" stroke="none" points="276,-149 276,-167 335,-167 335,-149 276,-149"/>
<polygon fill="none" stroke="black" points="276,-149 276,-167 335,-167 335,-149 276,-149"/>
<text text-anchor="start" x="325" y="-155.2" font-family="Helvetica,sans-Serif" font-size="11.00"> &#160;</text>
<polygon fill="#ffffff" stroke="none" points="335,-149 335,-167 406,-167 406,-149 335,-149"/>
<polygon fill="none" stroke="black" points="335,-149 335,-167 406,-167 406,-149 335,-149"/>
<text text-anchor="start" x="386" y="-155.2" font-family="Helvetica,sans-Serif" font-size="11.00">0 &gt;</text>
<polygon fill="none" stroke="black" stroke-width="2" points="207,-148 207,-256 407,-256 407,-148 207,-148"/>
</a>
</g>
</g>
<!-- miq_groups -->
<g id="node2" class="node"><title>miq_groups</title>
<g id="a_node2"><a xlink:href="../../tables/miq_groups.html" xlink:title="miq_groups" target="_top">
<polygon fill="#ffffff" stroke="none" points="11.5,-182 11.5,-284 153.5,-284 153.5,-182 11.5,-182"/>
<polygon fill="#f5f5f5" stroke="none" points="11.5,-262 11.5,-284 153.5,-284 153.5,-262 11.5,-262"/>
<polygon fill="none" stroke="black" points="11.5,-262 11.5,-284 153.5,-284 153.5,-262 11.5,-262"/>
<text text-anchor="start" x="16.5" y="-271.2" font-family="Helvetica,sans-Serif" font-weight="bold" font-size="11.00">miq_groups</text>
<text text-anchor="start" x="114.5" y="-270.2" font-family="Helvetica,sans-Serif" font-size="11.00">[table]</text>
<polygon fill="none" stroke="black" points="11.5,-240 11.5,-262 153.5,-262 153.5,-240 11.5,-240"/>
<image xlink:href="../../images/primaryKeys.png" width="11px" height="12px" preserveAspectRatio="xMinYMin meet" x="16.5" y="-257"/>
<text text-anchor="start" x="31.5" y="-248.2" font-family="Helvetica,sans-Serif" font-size="11.00">id</text>
<polygon fill="none" stroke="black" points="11.5,-218 11.5,-240 153.5,-240 153.5,-218 11.5,-218"/>
<image xlink:href="../../images/foreignKeys.png" width="11px" height="12px" preserveAspectRatio="xMinYMin meet" x="16.5" y="-235"/>
<text text-anchor="start" x="31.5" y="-226.2" font-family="Helvetica,sans-Serif" font-size="11.00">tenant_id</text>
<polygon fill="none" stroke="black" points="11.5,-200 11.5,-218 153.5,-218 153.5,-200 11.5,-200"/>
<text text-anchor="start" x="14.5" y="-206.2" font-family="Helvetica,sans-Serif" font-size="11.00">...</text>
<polygon fill="#ffffff" stroke="none" points="11.5,-182 11.5,-200 72.5,-200 72.5,-182 11.5,-182"/>
<polygon fill="none" stroke="black" points="11.5,-182 11.5,-200 72.5,-200 72.5,-182 11.5,-182"/>
<text text-anchor="start" x="14.5" y="-188.2" font-family="Helvetica,sans-Serif" font-size="11.00">&lt; 1</text>
<polygon fill="#ffffff" stroke="none" points="72.5,-182 72.5,-200 104.5,-200 104.5,-182 72.5,-182"/>
<polygon fill="none" stroke="black" points="72.5,-182 72.5,-200 104.5,-200 104.5,-182 72.5,-182"/>
<text text-anchor="start" x="94.5" y="-188.2" font-family="Helvetica,sans-Serif" font-size="11.00"> &#160;</text>
<polygon fill="#ffffff" stroke="none" points="104.5,-182 104.5,-200 153.5,-200 153.5,-182 104.5,-182"/>
<polygon fill="none" stroke="black" points="104.5,-182 104.5,-200 153.5,-200 153.5,-182 104.5,-182"/>
<text text-anchor="start" x="126.5" y="-188.2" font-family="Helvetica,sans-Serif" font-size="11.00">10 &gt;</text>
</a>
</g>
</g>
<!-- miq_groups_users&#45;&gt;miq_groups -->
<g id="edge1" class="edge"><title>miq_groups_users:miq_group_id:w&#45;&gt;miq_groups:id:e</title>
<path fill="none" stroke="black" d="M192.863,-204.707C177.595,-217.332 180.931,-251 154.5,-251"/>
<polygon fill="black" stroke="black" points="199.41,-202.527 208.137,-203.416 203.205,-201.264 207,-200 207,-200 207,-200 203.205,-201.264 205.863,-196.584 199.41,-202.527 199.41,-202.527"/>
<ellipse fill="none" stroke="black" cx="196.373" cy="-203.538" rx="3.20001" ry="3.20001"/>
</g>
<!-- users -->
<g id="node3" class="node"><title>users</title>
<g id="a_node3"><a xlink:href="../../tables/users.html" xlink:title="users" target="_top">
<polygon fill="#ffffff" stroke="none" points="8,-37 8,-161 157,-161 157,-37 8,-37"/>
<polygon fill="#f5f5f5" stroke="none" points="8.5,-139 8.5,-161 157.5,-161 157.5,-139 8.5,-139"/>
<polygon fill="none" stroke="black" points="8.5,-139 8.5,-161 157.5,-161 157.5,-139 8.5,-139"/>
<text text-anchor="start" x="13.5" y="-148.2" font-family="Helvetica,sans-Serif" font-weight="bold" font-size="11.00">users</text>
<text text-anchor="start" x="118.5" y="-147.2" font-family="Helvetica,sans-Serif" font-size="11.00">[table]</text>
<polygon fill="none" stroke="black" points="8.5,-117 8.5,-139 157.5,-139 157.5,-117 8.5,-117"/>
<image xlink:href="../../images/primaryKeys.png" width="11px" height="12px" preserveAspectRatio="xMinYMin meet" x="13.5" y="-134"/>
<text text-anchor="start" x="28.5" y="-125.2" font-family="Helvetica,sans-Serif" font-size="11.00">id</text>
<polygon fill="#ffffff" stroke="none" points="8.5,-95 8.5,-117 157.5,-117 157.5,-95 8.5,-95"/>
<polygon fill="none" stroke="black" points="8.5,-95 8.5,-117 157.5,-117 157.5,-95 8.5,-95"/>
<text text-anchor="start" x="28.5" y="-103.2" font-family="Helvetica,sans-Serif" font-size="11.00">userid</text>
<polygon fill="#ffffff" stroke="none" points="8.5,-73 8.5,-95 157.5,-95 157.5,-73 8.5,-73"/>
<polygon fill="none" stroke="black" points="8.5,-73 8.5,-95 157.5,-95 157.5,-73 8.5,-73"/>
<text text-anchor="start" x="28.5" y="-81.2" font-family="Helvetica,sans-Serif" font-size="11.00">current_group_id</text>
<polygon fill="none" stroke="black" points="8.5,-55 8.5,-73 157.5,-73 157.5,-55 8.5,-55"/>
<text text-anchor="start" x="11.5" y="-61.2" font-family="Helvetica,sans-Serif" font-size="11.00">...</text>
<polygon fill="#ffffff" stroke="none" points="8.5,-37 8.5,-55 67.5,-55 67.5,-37 8.5,-37"/>
<polygon fill="none" stroke="black" points="8.5,-37 8.5,-55 67.5,-55 67.5,-37 8.5,-37"/>
<text text-anchor="start" x="11.5" y="-43.2" font-family="Helvetica,sans-Serif" font-size="11.00"> &#160;</text>
<polygon fill="#ffffff" stroke="none" points="67.5,-37 67.5,-55 103.5,-55 103.5,-37 67.5,-37"/>
<polygon fill="none" stroke="black" points="67.5,-37 67.5,-55 103.5,-55 103.5,-37 67.5,-37"/>
<text text-anchor="start" x="93.5" y="-43.2" font-family="Helvetica,sans-Serif" font-size="11.00"> &#160;</text>
<polygon fill="#ffffff" stroke="none" points="103.5,-37 103.5,-55 157.5,-55 157.5,-37 103.5,-37"/>
<polygon fill="none" stroke="black" points="103.5,-37 103.5,-55 157.5,-55 157.5,-37 103.5,-37"/>
<text text-anchor="start" x="130.5" y="-43.2" font-family="Helvetica,sans-Serif" font-size="11.00">15 &gt;</text>
</a>
</g>
</g>
<!-- miq_groups_users&#45;&gt;users -->
<g id="edge2" class="edge"><title>miq_groups_users:user_id:w&#45;&gt;users:id:e</title>
<path fill="none" stroke="black" d="M193.277,-173.023C179.59,-160.376 183.412,-128 158.5,-128"/>
<polygon fill="black" stroke="black" points="199.479,-175.272 205.773,-181.384 203.24,-176.636 207,-178 207,-178 207,-178 203.24,-176.636 208.227,-174.616 199.479,-175.272 199.479,-175.272"/>
<ellipse fill="none" stroke="black" cx="196.471" cy="-174.181" rx="3.20001" ry="3.20001"/>
</g>
</g>
</svg>
