<?xml version="1.0" encoding="UTF-8" standalone="no"?>
<!DOCTYPE svg PUBLIC "-//W3C//DTD SVG 1.1//EN"
 "http://www.w3.org/Graphics/SVG/1.1/DTD/svg11.dtd">
<!-- Generated by graphviz version 2.38.0 (20140413.2041)
 -->
<!-- Title: twoDegreesRelationshipsDiagram Pages: 1 -->
<svg width="711pt" height="378pt"
 viewBox="0.00 0.00 711.00 378.00" xmlns="http://www.w3.org/2000/svg" xmlns:xlink="http://www.w3.org/1999/xlink">
<g id="graph0" class="graph" transform="scale(1 1) rotate(0) translate(4 374)">
<title>twoDegreesRelationshipsDiagram</title>
<polygon fill="#ffffff" stroke="none" points="-4,4 -4,-374 707,-374 707,4 -4,4"/>
<text text-anchor="middle" x="74.5" y="-7.2" font-family="Helvetica,sans-Serif" font-size="11.00">Generated by SchemaSpy</text>
<!-- miq_widget_contents -->
<g id="node1" class="node"><title>miq_widget_contents</title>
<g id="a_node1"><a xlink:href="../../tables/miq_widget_contents.html" xlink:title="miq_widget_contents" target="_top">
<polygon fill="#ffffff" stroke="none" points="472.5,-296 472.5,-354 641.5,-354 641.5,-296 472.5,-296"/>
<polygon fill="#f5f5f5" stroke="none" points="473,-332 473,-354 642,-354 642,-332 473,-332"/>
<polygon fill="none" stroke="black" points="473,-332 473,-354 642,-354 642,-332 473,-332"/>
<text text-anchor="start" x="478" y="-341.2" font-family="Helvetica,sans-Serif" font-weight="bold" font-size="11.00">miq_widget_contents</text>
<text text-anchor="start" x="603" y="-340.2" font-family="Helvetica,sans-Serif" font-size="11.00">[table]</text>
<polygon fill="none" stroke="black" points="473,-314 473,-332 642,-332 642,-314 473,-314"/>
<text text-anchor="start" x="476" y="-320.2" font-family="Helvetica,sans-Serif" font-size="11.00">...</text>
<polygon fill="#ffffff" stroke="none" points="473,-296 473,-314 556,-314 556,-296 473,-296"/>
<polygon fill="none" stroke="black" points="473,-296 473,-314 556,-314 556,-296 473,-296"/>
<text text-anchor="start" x="476" y="-302.2" font-family="Helvetica,sans-Serif" font-size="11.00">&lt; 4</text>
<polygon fill="#ffffff" stroke="none" points="556,-296 556,-314 599,-314 599,-296 556,-296"/>
<polygon fill="none" stroke="black" points="556,-296 556,-314 599,-314 599,-296 556,-296"/>
<text text-anchor="start" x="589" y="-302.2" font-family="Helvetica,sans-Serif" font-size="11.00"> &#160;</text>
<polygon fill="#ffffff" stroke="none" points="599,-296 599,-314 642,-314 642,-296 599,-296"/>
<polygon fill="none" stroke="black" points="599,-296 599,-314 642,-314 642,-296 599,-296"/>
<text text-anchor="start" x="632" y="-302.2" font-family="Helvetica,sans-Serif" font-size="11.00"> &#160;</text>
</a>
</g>
</g>
<!-- miq_widgets -->
<g id="node2" class="node"><title>miq_widgets</title>
<g id="a_node2"><a xlink:href="../../tables/miq_widgets.html" xlink:title="miq_widgets" target="_top">
<polygon fill="#ffffff" stroke="none" points="189,-138 189,-328 370,-328 370,-138 189,-138"/>
<polygon fill="#f5f5f5" stroke="none" points="189.5,-306 189.5,-328 370.5,-328 370.5,-306 189.5,-306"/>
<polygon fill="none" stroke="black" points="189.5,-306 189.5,-328 370.5,-328 370.5,-306 189.5,-306"/>
<text text-anchor="start" x="194.5" y="-315.2" font-family="Helvetica,sans-Serif" font-weight="bold" font-size="11.00">miq_widgets</text>
<text text-anchor="start" x="331.5" y="-314.2" font-family="Helvetica,sans-Serif" font-size="11.00">[table]</text>
<polygon fill="none" stroke="black" points="189.5,-284 189.5,-306 370.5,-306 370.5,-284 189.5,-284"/>
<image xlink:href="../../images/primaryKeys.png" width="11px" height="12px" preserveAspectRatio="xMinYMin meet" x="194.5" y="-301"/>
<text text-anchor="start" x="209.5" y="-292.2" font-family="Helvetica,sans-Serif" font-size="11.00">id</text>
<polygon fill="#ffffff" stroke="none" points="189.5,-262 189.5,-284 370.5,-284 370.5,-262 189.5,-262"/>
<polygon fill="none" stroke="black" points="189.5,-262 189.5,-284 370.5,-284 370.5,-262 189.5,-262"/>
<image xlink:href="../../images/foreignKeys.png" width="11px" height="12px" preserveAspectRatio="xMinYMin meet" x="194.5" y="-279"/>
<text text-anchor="start" x="209.5" y="-270.2" font-family="Helvetica,sans-Serif" font-size="11.00">user_id</text>
<polygon fill="#ffffff" stroke="none" points="189.5,-240 189.5,-262 370.5,-262 370.5,-240 189.5,-240"/>
<polygon fill="none" stroke="black" points="189.5,-240 189.5,-262 370.5,-262 370.5,-240 189.5,-240"/>
<text text-anchor="start" x="209.5" y="-248.2" font-family="Helvetica,sans-Serif" font-size="11.00">resource_id</text>
<polygon fill="#ffffff" stroke="none" points="189.5,-218 189.5,-240 370.5,-240 370.5,-218 189.5,-218"/>
<polygon fill="none" stroke="black" points="189.5,-218 189.5,-240 370.5,-240 370.5,-218 189.5,-218"/>
<text text-anchor="start" x="209.5" y="-226.2" font-family="Helvetica,sans-Serif" font-size="11.00">resource_type</text>
<polygon fill="#ffffff" stroke="none" points="189.5,-196 189.5,-218 370.5,-218 370.5,-196 189.5,-196"/>
<polygon fill="none" stroke="black" points="189.5,-196 189.5,-218 370.5,-218 370.5,-196 189.5,-196"/>
<image xlink:href="../../images/foreignKeys.png" width="11px" height="12px" preserveAspectRatio="xMinYMin meet" x="194.5" y="-213"/>
<text text-anchor="start" x="209.5" y="-204.2" font-family="Helvetica,sans-Serif" font-size="11.00">miq_schedule_id</text>
<polygon fill="#ffffff" stroke="none" points="189.5,-174 189.5,-196 370.5,-196 370.5,-174 189.5,-174"/>
<polygon fill="none" stroke="black" points="189.5,-174 189.5,-196 370.5,-196 370.5,-174 189.5,-174"/>
<image xlink:href="../../images/foreignKeys.png" width="11px" height="12px" preserveAspectRatio="xMinYMin meet" x="194.5" y="-191"/>
<text text-anchor="start" x="209.5" y="-182.2" font-family="Helvetica,sans-Serif" font-size="11.00">miq_task_id</text>
<polygon fill="none" stroke="black" points="189.5,-156 189.5,-174 370.5,-174 370.5,-156 189.5,-156"/>
<text text-anchor="start" x="192.5" y="-162.2" font-family="Helvetica,sans-Serif" font-size="11.00">...</text>
<polygon fill="#ffffff" stroke="none" points="189.5,-138 189.5,-156 273.5,-156 273.5,-138 189.5,-138"/>
<polygon fill="none" stroke="black" points="189.5,-138 189.5,-156 273.5,-156 273.5,-138 189.5,-138"/>
<text text-anchor="start" x="192.5" y="-144.2" font-family="Helvetica,sans-Serif" font-size="11.00">&lt; 3</text>
<polygon fill="#ffffff" stroke="none" points="273.5,-138 273.5,-156 316.5,-156 316.5,-138 273.5,-138"/>
<polygon fill="none" stroke="black" points="273.5,-138 273.5,-156 316.5,-156 316.5,-138 273.5,-138"/>
<text text-anchor="start" x="306.5" y="-144.2" font-family="Helvetica,sans-Serif" font-size="11.00"> &#160;</text>
<polygon fill="#ffffff" stroke="none" points="316.5,-138 316.5,-156 370.5,-156 370.5,-138 316.5,-138"/>
<polygon fill="none" stroke="black" points="316.5,-138 316.5,-156 370.5,-156 370.5,-138 316.5,-138"/>
<text text-anchor="start" x="350.5" y="-144.2" font-family="Helvetica,sans-Serif" font-size="11.00">2 &gt;</text>
</a>
</g>
</g>
<!-- miq_widget_contents&#45;&gt;miq_widgets -->
<g id="edge1" class="edge"><title>miq_widget_contents:elipses:w&#45;&gt;miq_widgets:id:e</title>
<path fill="none" stroke="black" d="M457.616,-322.003C423.378,-317.016 412.615,-295 371.5,-295"/>
<polygon fill="black" stroke="black" points="464.019,-322.447 471.751,-326.591 468.01,-322.724 472,-323 472,-323 472,-323 468.01,-322.724 472.249,-319.409 464.019,-322.447 464.019,-322.447"/>
<ellipse fill="none" stroke="black" cx="460.827" cy="-322.226" rx="3.2" ry="3.2"/>
</g>
<!-- users -->
<g id="node3" class="node"><title>users</title>
<g id="a_node3"><a xlink:href="../../tables/users.html" xlink:title="users" target="_top">
<polygon fill="#ffffff" stroke="none" points="34.5,-308 34.5,-366 113.5,-366 113.5,-308 34.5,-308"/>
<polygon fill="#f5f5f5" stroke="none" points="35,-344 35,-366 114,-366 114,-344 35,-344"/>
<polygon fill="none" stroke="black" points="35,-344 35,-366 114,-366 114,-344 35,-344"/>
<text text-anchor="start" x="40" y="-353.2" font-family="Helvetica,sans-Serif" font-weight="bold" font-size="11.00">users</text>
<text text-anchor="start" x="75" y="-352.2" font-family="Helvetica,sans-Serif" font-size="11.00">[table]</text>
<polygon fill="none" stroke="black" points="35,-326 35,-344 114,-344 114,-326 35,-326"/>
<text text-anchor="start" x="38" y="-332.2" font-family="Helvetica,sans-Serif" font-size="11.00">...</text>
<polygon fill="#ffffff" stroke="none" points="35,-308 35,-326 59,-326 59,-308 35,-308"/>
<polygon fill="none" stroke="black" points="35,-308 35,-326 59,-326 59,-308 35,-308"/>
<text text-anchor="start" x="38" y="-314.2" font-family="Helvetica,sans-Serif" font-size="11.00"> &#160;</text>
<polygon fill="#ffffff" stroke="none" points="59,-308 59,-326 78,-326 78,-308 59,-308"/>
<polygon fill="none" stroke="black" points="59,-308 59,-326 78,-326 78,-308 59,-308"/>
<text text-anchor="start" x="68" y="-314.2" font-family="Helvetica,sans-Serif" font-size="11.00"> &#160;</text>
<polygon fill="#ffffff" stroke="none" points="78,-308 78,-326 114,-326 114,-308 78,-308"/>
<polygon fill="none" stroke="black" points="78,-308 78,-326 114,-326 114,-308 78,-308"/>
<text text-anchor="start" x="87" y="-314.2" font-family="Helvetica,sans-Serif" font-size="11.00">15 &gt;</text>
</a>
</g>
</g>
<!-- miq_widget_contents&#45;&gt;users -->
<g id="edge2" class="edge"><title>miq_widget_contents:elipses:w&#45;&gt;users:elipses:e</title>
<path fill="none" stroke="black" d="M457.526,-323.541C426.76,-325.969 414.95,-335.878 378,-339 290.755,-346.372 268.515,-341.65 181,-339 151.626,-338.111 144.387,-335 115,-335"/>
<polygon fill="black" stroke="black" points="464.006,-323.299 472.135,-326.597 468.003,-323.149 472,-323 472,-323 472,-323 468.003,-323.149 471.865,-319.403 464.006,-323.299 464.006,-323.299"/>
<ellipse fill="none" stroke="black" cx="460.808" cy="-323.419" rx="3.2" ry="3.2"/>
</g>
<!-- miq_widgets&#45;&gt;users -->
<g id="edge7" class="edge"><title>miq_widgets:user_id:w&#45;&gt;users:elipses:e</title>
<path fill="none" stroke="black" d="M174.111,-275.99C147.979,-288.375 152.061,-335 115,-335"/>
<polygon fill="black" stroke="black" points="180.667,-274.628 189.233,-276.525 184.584,-273.814 188.5,-273 188.5,-273 188.5,-273 184.584,-273.814 187.767,-269.475 180.667,-274.628 180.667,-274.628"/>
<ellipse fill="none" stroke="black" cx="177.534" cy="-275.279" rx="3.2" ry="3.2"/>
</g>
<!-- miq_schedules -->
<g id="node6" class="node"><title>miq_schedules</title>
<g id="a_node6"><a xlink:href="../../tables/miq_schedules.html" xlink:title="miq_schedules" target="_top">
<polygon fill="#ffffff" stroke="none" points="8,-196 8,-254 140,-254 140,-196 8,-196"/>
<polygon fill="#f5f5f5" stroke="none" points="8,-232 8,-254 140,-254 140,-232 8,-232"/>
<polygon fill="none" stroke="black" points="8,-232 8,-254 140,-254 140,-232 8,-232"/>
<text text-anchor="start" x="13" y="-241.2" font-family="Helvetica,sans-Serif" font-weight="bold" font-size="11.00">miq_schedules</text>
<text text-anchor="start" x="101" y="-240.2" font-family="Helvetica,sans-Serif" font-size="11.00">[table]</text>
<polygon fill="none" stroke="black" points="8,-214 8,-232 140,-232 140,-214 8,-214"/>
<text text-anchor="start" x="11" y="-220.2" font-family="Helvetica,sans-Serif" font-size="11.00">...</text>
<polygon fill="#ffffff" stroke="none" points="8,-196 8,-214 67,-214 67,-196 8,-196"/>
<polygon fill="none" stroke="black" points="8,-196 8,-214 67,-214 67,-196 8,-196"/>
<text text-anchor="start" x="11" y="-202.2" font-family="Helvetica,sans-Serif" font-size="11.00">&lt; 3</text>
<polygon fill="#ffffff" stroke="none" points="67,-196 67,-214 98,-214 98,-196 67,-196"/>
<polygon fill="none" stroke="black" points="67,-196 67,-214 98,-214 98,-196 67,-196"/>
<text text-anchor="start" x="88" y="-202.2" font-family="Helvetica,sans-Serif" font-size="11.00"> &#160;</text>
<polygon fill="#ffffff" stroke="none" points="98,-196 98,-214 140,-214 140,-196 98,-196"/>
<polygon fill="none" stroke="black" points="98,-196 98,-214 140,-214 140,-196 98,-196"/>
<text text-anchor="start" x="120" y="-202.2" font-family="Helvetica,sans-Serif" font-size="11.00">1 &gt;</text>
</a>
</g>
</g>
<!-- miq_widgets&#45;&gt;miq_schedules -->
<g id="edge5" class="edge"><title>miq_widgets:miq_schedule_id:w&#45;&gt;miq_schedules:elipses:e</title>
<path fill="none" stroke="black" d="M174.115,-209.787C163.294,-214.371 157.359,-223 141,-223"/>
<polygon fill="black" stroke="black" points="180.646,-208.522 189.185,-210.534 184.573,-207.761 188.5,-207 188.5,-207 188.5,-207 184.573,-207.761 187.815,-203.466 180.646,-208.522 180.646,-208.522"/>
<ellipse fill="none" stroke="black" cx="177.504" cy="-209.13" rx="3.2" ry="3.2"/>
</g>
<!-- miq_tasks -->
<g id="node7" class="node"><title>miq_tasks</title>
<g id="a_node7"><a xlink:href="../../tables/miq_tasks.html" xlink:title="miq_tasks" target="_top">
<polygon fill="#ffffff" stroke="none" points="21.5,-117 21.5,-175 126.5,-175 126.5,-117 21.5,-117"/>
<polygon fill="#f5f5f5" stroke="none" points="22,-153 22,-175 127,-175 127,-153 22,-153"/>
<polygon fill="none" stroke="black" points="22,-153 22,-175 127,-175 127,-153 22,-153"/>
<text text-anchor="start" x="27" y="-162.2" font-family="Helvetica,sans-Serif" font-weight="bold" font-size="11.00">miq_tasks</text>
<text text-anchor="start" x="88" y="-161.2" font-family="Helvetica,sans-Serif" font-size="11.00">[table]</text>
<polygon fill="none" stroke="black" points="22,-135 22,-153 127,-153 127,-135 22,-135"/>
<text text-anchor="start" x="25" y="-141.2" font-family="Helvetica,sans-Serif" font-size="11.00">...</text>
<polygon fill="#ffffff" stroke="none" points="22,-117 22,-135 68,-135 68,-117 22,-117"/>
<polygon fill="none" stroke="black" points="22,-117 22,-135 68,-135 68,-117 22,-117"/>
<text text-anchor="start" x="25" y="-123.2" font-family="Helvetica,sans-Serif" font-size="11.00">&lt; 1</text>
<polygon fill="#ffffff" stroke="none" points="68,-117 68,-135 92,-135 92,-117 68,-117"/>
<polygon fill="none" stroke="black" points="68,-117 68,-135 92,-135 92,-117 68,-117"/>
<text text-anchor="start" x="82" y="-123.2" font-family="Helvetica,sans-Serif" font-size="11.00"> &#160;</text>
<polygon fill="#ffffff" stroke="none" points="92,-117 92,-135 127,-135 127,-117 92,-117"/>
<polygon fill="none" stroke="black" points="92,-117 92,-135 127,-135 127,-117 92,-117"/>
<text text-anchor="start" x="107" y="-123.2" font-family="Helvetica,sans-Serif" font-size="11.00">5 &gt;</text>
</a>
</g>
</g>
<!-- miq_widgets&#45;&gt;miq_tasks -->
<g id="edge6" class="edge"><title>miq_widgets:miq_task_id:w&#45;&gt;miq_tasks:elipses:e</title>
<path fill="none" stroke="black" d="M174.394,-181.645C156.446,-171.853 154.772,-144 128,-144"/>
<polygon fill="black" stroke="black" points="180.717,-183.149 187.667,-188.502 184.609,-184.074 188.5,-185 188.5,-185 188.5,-185 184.609,-184.074 189.333,-181.498 180.717,-183.149 180.717,-183.149"/>
<ellipse fill="none" stroke="black" cx="177.604" cy="-182.408" rx="3.2" ry="3.2"/>
</g>
<!-- miq_widget_shortcuts -->
<g id="node4" class="node"><title>miq_widget_shortcuts</title>
<g id="a_node4"><a xlink:href="../../tables/miq_widget_shortcuts.html" xlink:title="miq_widget_shortcuts" target="_top">
<polygon fill="#ffffff" stroke="none" points="419,-79 419,-233 695,-233 695,-79 419,-79"/>
<polygon fill="#f5f5f5" stroke="none" points="421,-209 421,-231 693,-231 693,-209 421,-209"/>
<polygon fill="none" stroke="black" points="421,-209 421,-231 693,-231 693,-209 421,-209"/>
<text text-anchor="start" x="426" y="-218.2" font-family="Helvetica,sans-Serif" font-weight="bold" font-size="11.00">miq_widget_shortcuts</text>
<text text-anchor="start" x="654" y="-217.2" font-family="Helvetica,sans-Serif" font-size="11.00">[table]</text>
<polygon fill="none" stroke="black" points="421,-187 421,-209 572,-209 572,-187 421,-187"/>
<image xlink:href="../../images/primaryKeys.png" width="11px" height="12px" preserveAspectRatio="xMinYMin meet" x="426" y="-204"/>
<text text-anchor="start" x="441" y="-195.2" font-family="Helvetica,sans-Serif" font-size="11.00">id</text>
<polygon fill="none" stroke="black" points="572,-187 572,-209 693,-209 693,-187 572,-187"/>
<text text-anchor="start" x="575" y="-195.2" font-family="Helvetica,sans-Serif" font-size="11.00">bigserial[19]</text>
<polygon fill="none" stroke="black" points="421,-165 421,-187 572,-187 572,-165 421,-165"/>
<text text-anchor="start" x="441" y="-173.2" font-family="Helvetica,sans-Serif" font-size="11.00">description</text>
<polygon fill="none" stroke="black" points="572,-165 572,-187 693,-187 693,-165 572,-165"/>
<text text-anchor="start" x="575" y="-173.2" font-family="Helvetica,sans-Serif" font-size="11.00">varchar[2147483647]</text>
<polygon fill="none" stroke="black" points="421,-143 421,-165 572,-165 572,-143 421,-143"/>
<image xlink:href="../../images/foreignKeys.png" width="11px" height="12px" preserveAspectRatio="xMinYMin meet" x="426" y="-160"/>
<text text-anchor="start" x="441" y="-151.2" font-family="Helvetica,sans-Serif" font-size="11.00">miq_shortcut_id</text>
<polygon fill="none" stroke="black" points="572,-143 572,-165 693,-165 693,-143 572,-143"/>
<text text-anchor="start" x="575" y="-151.2" font-family="Helvetica,sans-Serif" font-size="11.00">int8[19]</text>
<polygon fill="none" stroke="black" points="421,-121 421,-143 572,-143 572,-121 421,-121"/>
<image xlink:href="../../images/foreignKeys.png" width="11px" height="12px" preserveAspectRatio="xMinYMin meet" x="426" y="-138"/>
<text text-anchor="start" x="441" y="-129.2" font-family="Helvetica,sans-Serif" font-size="11.00">miq_widget_id</text>
<polygon fill="none" stroke="black" points="572,-121 572,-143 693,-143 693,-121 572,-121"/>
<text text-anchor="start" x="575" y="-129.2" font-family="Helvetica,sans-Serif" font-size="11.00">int8[19]</text>
<polygon fill="none" stroke="black" points="421,-99 421,-121 572,-121 572,-99 421,-99"/>
<text text-anchor="start" x="441" y="-107.2" font-family="Helvetica,sans-Serif" font-size="11.00">sequence</text>
<polygon fill="none" stroke="black" points="572,-99 572,-121 693,-121 693,-99 572,-99"/>
<text text-anchor="start" x="575" y="-107.2" font-family="Helvetica,sans-Serif" font-size="11.00">int4[10]</text>
<polygon fill="#ffffff" stroke="none" points="421,-81 421,-99 501,-99 501,-81 421,-81"/>
<polygon fill="none" stroke="black" points="421,-81 421,-99 501,-99 501,-81 421,-81"/>
<text text-anchor="start" x="424" y="-87.2" font-family="Helvetica,sans-Serif" font-size="11.00">&lt; 2</text>
<polygon fill="#ffffff" stroke="none" points="501,-81 501,-99 572,-99 572,-81 501,-81"/>
<polygon fill="none" stroke="black" points="501,-81 501,-99 572,-99 572,-81 501,-81"/>
<text text-anchor="start" x="562" y="-87.2" font-family="Helvetica,sans-Serif" font-size="11.00"> &#160;</text>
<polygon fill="#ffffff" stroke="none" points="572,-81 572,-99 693,-99 693,-81 572,-81"/>
<polygon fill="none" stroke="black" points="572,-81 572,-99 693,-99 693,-81 572,-81"/>
<text text-anchor="start" x="673" y="-87.2" font-family="Helvetica,sans-Serif" font-size="11.00">0 &gt;</text>
<polygon fill="none" stroke="black" stroke-width="2" points="420,-80 420,-232 694,-232 694,-80 420,-80"/>
</a>
</g>
</g>
<!-- miq_widget_shortcuts&#45;&gt;miq_widgets -->
<g id="edge4" class="edge"><title>miq_widget_shortcuts:miq_widget_id:w&#45;&gt;miq_widgets:id:e</title>
<path fill="none" stroke="black" d="M405.673,-134.693C359.023,-155.886 441.326,-295 371.5,-295"/>
<polygon fill="black" stroke="black" points="412.138,-133.478 420.665,-135.538 416.069,-132.739 420,-132 420,-132 420,-132 416.069,-132.739 419.335,-128.462 412.138,-133.478 412.138,-133.478"/>
<ellipse fill="none" stroke="black" cx="408.993" cy="-134.069" rx="3.2" ry="3.2"/>
</g>
<!-- miq_shortcuts -->
<g id="node5" class="node"><title>miq_shortcuts</title>
<g id="a_node5"><a xlink:href="../../tables/miq_shortcuts.html" xlink:title="miq_shortcuts" target="_top">
<polygon fill="#ffffff" stroke="none" points="212,-37 212,-117 347,-117 347,-37 212,-37"/>
<polygon fill="#f5f5f5" stroke="none" points="212.5,-95 212.5,-117 347.5,-117 347.5,-95 212.5,-95"/>
<polygon fill="none" stroke="black" points="212.5,-95 212.5,-117 347.5,-117 347.5,-95 212.5,-95"/>
<text text-anchor="start" x="217.5" y="-104.2" font-family="Helvetica,sans-Serif" font-weight="bold" font-size="11.00">miq_shortcuts</text>
<text text-anchor="start" x="308.5" y="-103.2" font-family="Helvetica,sans-Serif" font-size="11.00">[table]</text>
<polygon fill="none" stroke="black" points="212.5,-73 212.5,-95 347.5,-95 347.5,-73 212.5,-73"/>
<image xlink:href="../../images/primaryKeys.png" width="11px" height="12px" preserveAspectRatio="xMinYMin meet" x="217.5" y="-90"/>
<text text-anchor="start" x="232.5" y="-81.2" font-family="Helvetica,sans-Serif" font-size="11.00">id</text>
<polygon fill="none" stroke="black" points="212.5,-55 212.5,-73 347.5,-73 347.5,-55 212.5,-55"/>
<text text-anchor="start" x="215.5" y="-61.2" font-family="Helvetica,sans-Serif" font-size="11.00">...</text>
<polygon fill="#ffffff" stroke="none" points="212.5,-37 212.5,-55 268.5,-55 268.5,-37 212.5,-37"/>
<polygon fill="none" stroke="black" points="212.5,-37 212.5,-55 268.5,-55 268.5,-37 212.5,-37"/>
<text text-anchor="start" x="215.5" y="-43.2" font-family="Helvetica,sans-Serif" font-size="11.00"> &#160;</text>
<polygon fill="#ffffff" stroke="none" points="268.5,-37 268.5,-55 302.5,-55 302.5,-37 268.5,-37"/>
<polygon fill="none" stroke="black" points="268.5,-37 268.5,-55 302.5,-55 302.5,-37 268.5,-37"/>
<text text-anchor="start" x="292.5" y="-43.2" font-family="Helvetica,sans-Serif" font-size="11.00"> &#160;</text>
<polygon fill="#ffffff" stroke="none" points="302.5,-37 302.5,-55 347.5,-55 347.5,-37 302.5,-37"/>
<polygon fill="none" stroke="black" points="302.5,-37 302.5,-55 347.5,-55 347.5,-37 302.5,-37"/>
<text text-anchor="start" x="327.5" y="-43.2" font-family="Helvetica,sans-Serif" font-size="11.00">1 &gt;</text>
</a>
</g>
</g>
<!-- miq_widget_shortcuts&#45;&gt;miq_shortcuts -->
<g id="edge3" class="edge"><title>miq_widget_shortcuts:miq_shortcut_id:w&#45;&gt;miq_shortcuts:id:e</title>
<path fill="none" stroke="black" d="M405.623,-150.81C378.997,-137.116 387.239,-84 348.5,-84"/>
<polygon fill="black" stroke="black" points="412.19,-152.267 419.22,-157.515 416.095,-153.134 420,-154 420,-154 420,-154 416.095,-153.134 420.78,-150.485 412.19,-152.267 412.19,-152.267"/>
<ellipse fill="none" stroke="black" cx="409.066" cy="-151.574" rx="3.2" ry="3.2"/>
</g>
</g>
</svg>
