<?xml version="1.0" encoding="UTF-8" standalone="no"?>
<!DOCTYPE svg PUBLIC "-//W3C//DTD SVG 1.1//EN"
 "http://www.w3.org/Graphics/SVG/1.1/DTD/svg11.dtd">
<!-- Generated by graphviz version 2.38.0 (20140413.2041)
 -->
<!-- Title: twoDegreesRelationshipsDiagram Pages: 1 -->
<svg width="469pt" height="383pt"
 viewBox="0.00 0.00 469.00 383.00" xmlns="http://www.w3.org/2000/svg" xmlns:xlink="http://www.w3.org/1999/xlink">
<g id="graph0" class="graph" transform="scale(1 1) rotate(0) translate(4 379)">
<title>twoDegreesRelationshipsDiagram</title>
<polygon fill="#ffffff" stroke="none" points="-4,4 -4,-379 465,-379 465,4 -4,4"/>
<text text-anchor="middle" x="74.5" y="-7.2" font-family="Helvetica,sans-Serif" font-size="11.00">Generated by SchemaSpy</text>
<!-- entitlements -->
<g id="node1" class="node"><title>entitlements</title>
<g id="a_node1"><a xlink:href="../../tables/entitlements.html" xlink:title="entitlements" target="_top">
<polygon fill="#ffffff" stroke="none" points="310,-240 310,-364 434,-364 434,-240 310,-240"/>
<polygon fill="#f5f5f5" stroke="none" points="310,-342 310,-364 434,-364 434,-342 310,-342"/>
<polygon fill="none" stroke="black" points="310,-342 310,-364 434,-364 434,-342 310,-342"/>
<text text-anchor="start" x="315" y="-351.2" font-family="Helvetica,sans-Serif" font-weight="bold" font-size="11.00">entitlements</text>
<text text-anchor="start" x="395" y="-350.2" font-family="Helvetica,sans-Serif" font-size="11.00">[table]</text>
<polygon fill="none" stroke="black" points="310,-320 310,-342 434,-342 434,-320 310,-320"/>
<image xlink:href="../../images/primaryKeys.png" width="11px" height="12px" preserveAspectRatio="xMinYMin meet" x="315" y="-337"/>
<text text-anchor="start" x="332" y="-328.2" font-family="Helvetica,sans-Serif" font-size="11.00">id</text>
<polygon fill="#ffffff" stroke="none" points="310,-298 310,-320 434,-320 434,-298 310,-298"/>
<polygon fill="none" stroke="black" points="310,-298 310,-320 434,-320 434,-298 310,-298"/>
<image xlink:href="../../images/foreignKeys.png" width="11px" height="12px" preserveAspectRatio="xMinYMin meet" x="315" y="-315"/>
<text text-anchor="start" x="332" y="-306.2" font-family="Helvetica,sans-Serif" font-size="11.00">miq_group_id</text>
<polygon fill="none" stroke="black" points="310,-276 310,-298 434,-298 434,-276 310,-276"/>
<image xlink:href="../../images/foreignKeys.png" width="11px" height="12px" preserveAspectRatio="xMinYMin meet" x="315" y="-293"/>
<text text-anchor="start" x="332" y="-284.2" font-family="Helvetica,sans-Serif" font-size="11.00">miq_user_role_id</text>
<polygon fill="none" stroke="black" points="310,-258 310,-276 434,-276 434,-258 310,-258"/>
<text text-anchor="start" x="313" y="-264.2" font-family="Helvetica,sans-Serif" font-size="11.00">...</text>
<polygon fill="#ffffff" stroke="none" points="310,-240 310,-258 370,-258 370,-240 310,-240"/>
<polygon fill="none" stroke="black" points="310,-240 310,-258 370,-258 370,-240 310,-240"/>
<text text-anchor="start" x="313" y="-246.2" font-family="Helvetica,sans-Serif" font-size="11.00">&lt; 2</text>
<polygon fill="#ffffff" stroke="none" points="370,-240 370,-258 402,-258 402,-240 370,-240"/>
<polygon fill="none" stroke="black" points="370,-240 370,-258 402,-258 402,-240 370,-240"/>
<text text-anchor="start" x="392" y="-246.2" font-family="Helvetica,sans-Serif" font-size="11.00"> &#160;</text>
<polygon fill="#ffffff" stroke="none" points="402,-240 402,-258 434,-258 434,-240 402,-240"/>
<polygon fill="none" stroke="black" points="402,-240 402,-258 434,-258 434,-240 402,-240"/>
<text text-anchor="start" x="424" y="-246.2" font-family="Helvetica,sans-Serif" font-size="11.00"> &#160;</text>
</a>
</g>
</g>
<!-- miq_groups -->
<g id="node2" class="node"><title>miq_groups</title>
<g id="a_node2"><a xlink:href="../../tables/miq_groups.html" xlink:title="miq_groups" target="_top">
<polygon fill="#ffffff" stroke="none" points="68,-313 68,-371 182,-371 182,-313 68,-313"/>
<polygon fill="#f5f5f5" stroke="none" points="68,-349 68,-371 182,-371 182,-349 68,-349"/>
<polygon fill="none" stroke="black" points="68,-349 68,-371 182,-371 182,-349 68,-349"/>
<text text-anchor="start" x="73" y="-358.2" font-family="Helvetica,sans-Serif" font-weight="bold" font-size="11.00">miq_groups</text>
<text text-anchor="start" x="143" y="-357.2" font-family="Helvetica,sans-Serif" font-size="11.00">[table]</text>
<polygon fill="none" stroke="black" points="68,-331 68,-349 182,-349 182,-331 68,-331"/>
<text text-anchor="start" x="71" y="-337.2" font-family="Helvetica,sans-Serif" font-size="11.00">...</text>
<polygon fill="#ffffff" stroke="none" points="68,-313 68,-331 115,-331 115,-313 68,-313"/>
<polygon fill="none" stroke="black" points="68,-313 68,-331 115,-331 115,-313 68,-313"/>
<text text-anchor="start" x="71" y="-319.2" font-family="Helvetica,sans-Serif" font-size="11.00">&lt; 1</text>
<polygon fill="#ffffff" stroke="none" points="115,-313 115,-331 140,-331 140,-313 115,-313"/>
<polygon fill="none" stroke="black" points="115,-313 115,-331 140,-331 140,-313 115,-313"/>
<text text-anchor="start" x="130" y="-319.2" font-family="Helvetica,sans-Serif" font-size="11.00"> &#160;</text>
<polygon fill="#ffffff" stroke="none" points="140,-313 140,-331 182,-331 182,-313 140,-313"/>
<polygon fill="none" stroke="black" points="140,-313 140,-331 182,-331 182,-313 140,-313"/>
<text text-anchor="start" x="155" y="-319.2" font-family="Helvetica,sans-Serif" font-size="11.00">10 &gt;</text>
</a>
</g>
</g>
<!-- entitlements&#45;&gt;miq_groups -->
<g id="edge1" class="edge"><title>entitlements:miq_group_id:w&#45;&gt;miq_groups:elipses:e</title>
<path fill="none" stroke="black" d="M294.526,-309.706C249.035,-314.32 235.489,-340 183,-340"/>
<polygon fill="black" stroke="black" points="301.009,-309.39 309.175,-312.596 305.005,-309.195 309,-309 309,-309 309,-309 305.005,-309.195 308.825,-305.404 301.009,-309.39 301.009,-309.39"/>
<ellipse fill="none" stroke="black" cx="297.813" cy="-309.546" rx="3.2" ry="3.2"/>
</g>
<!-- miq_user_roles -->
<g id="node3" class="node"><title>miq_user_roles</title>
<g id="a_node3"><a xlink:href="../../tables/miq_user_roles.html" xlink:title="miq_user_roles" target="_top">
<polygon fill="#ffffff" stroke="none" points="8,-116 8,-292 242,-292 242,-116 8,-116"/>
<polygon fill="#f5f5f5" stroke="none" points="10,-268 10,-290 240,-290 240,-268 10,-268"/>
<polygon fill="none" stroke="black" points="10,-268 10,-290 240,-290 240,-268 10,-268"/>
<text text-anchor="start" x="15" y="-277.2" font-family="Helvetica,sans-Serif" font-weight="bold" font-size="11.00">miq_user_roles</text>
<text text-anchor="start" x="201" y="-276.2" font-family="Helvetica,sans-Serif" font-size="11.00">[table]</text>
<polygon fill="none" stroke="black" points="10,-246 10,-268 119,-268 119,-246 10,-246"/>
<image xlink:href="../../images/primaryKeys.png" width="11px" height="12px" preserveAspectRatio="xMinYMin meet" x="15" y="-263"/>
<text text-anchor="start" x="30" y="-254.2" font-family="Helvetica,sans-Serif" font-size="11.00">id</text>
<polygon fill="none" stroke="black" points="119,-246 119,-268 240,-268 240,-246 119,-246"/>
<text text-anchor="start" x="122" y="-254.2" font-family="Helvetica,sans-Serif" font-size="11.00">bigserial[19]</text>
<polygon fill="none" stroke="black" points="10,-224 10,-246 119,-246 119,-224 10,-224"/>
<text text-anchor="start" x="30" y="-232.2" font-family="Helvetica,sans-Serif" font-size="11.00">name</text>
<polygon fill="none" stroke="black" points="119,-224 119,-246 240,-246 240,-224 119,-224"/>
<text text-anchor="start" x="122" y="-232.2" font-family="Helvetica,sans-Serif" font-size="11.00">varchar[2147483647]</text>
<polygon fill="none" stroke="black" points="10,-202 10,-224 119,-224 119,-202 10,-202"/>
<text text-anchor="start" x="30" y="-210.2" font-family="Helvetica,sans-Serif" font-size="11.00">read_only</text>
<polygon fill="none" stroke="black" points="119,-202 119,-224 240,-224 240,-202 119,-202"/>
<text text-anchor="start" x="122" y="-210.2" font-family="Helvetica,sans-Serif" font-size="11.00">bool[1]</text>
<polygon fill="none" stroke="black" points="10,-180 10,-202 119,-202 119,-180 10,-180"/>
<text text-anchor="start" x="30" y="-188.2" font-family="Helvetica,sans-Serif" font-size="11.00">created_at</text>
<polygon fill="none" stroke="black" points="119,-180 119,-202 240,-202 240,-180 119,-180"/>
<text text-anchor="start" x="122" y="-188.2" font-family="Helvetica,sans-Serif" font-size="11.00">timestamp[29,6]</text>
<polygon fill="none" stroke="black" points="10,-158 10,-180 119,-180 119,-158 10,-158"/>
<text text-anchor="start" x="30" y="-166.2" font-family="Helvetica,sans-Serif" font-size="11.00">updated_at</text>
<polygon fill="none" stroke="black" points="119,-158 119,-180 240,-180 240,-158 119,-158"/>
<text text-anchor="start" x="122" y="-166.2" font-family="Helvetica,sans-Serif" font-size="11.00">timestamp[29,6]</text>
<polygon fill="none" stroke="black" points="10,-136 10,-158 119,-158 119,-136 10,-136"/>
<text text-anchor="start" x="30" y="-144.2" font-family="Helvetica,sans-Serif" font-size="11.00">settings</text>
<polygon fill="none" stroke="black" points="119,-136 119,-158 240,-158 240,-136 119,-136"/>
<text text-anchor="start" x="122" y="-144.2" font-family="Helvetica,sans-Serif" font-size="11.00">text[2147483647]</text>
<polygon fill="#ffffff" stroke="none" points="10,-118 10,-136 69,-136 69,-118 10,-118"/>
<polygon fill="none" stroke="black" points="10,-118 10,-136 69,-136 69,-118 10,-118"/>
<text text-anchor="start" x="13" y="-124.2" font-family="Helvetica,sans-Serif" font-size="11.00">&lt; 0</text>
<polygon fill="#ffffff" stroke="none" points="69,-118 69,-136 119,-136 119,-118 69,-118"/>
<polygon fill="none" stroke="black" points="69,-118 69,-136 119,-136 119,-118 69,-118"/>
<text text-anchor="start" x="109" y="-124.2" font-family="Helvetica,sans-Serif" font-size="11.00"> &#160;</text>
<polygon fill="#ffffff" stroke="none" points="119,-118 119,-136 240,-136 240,-118 119,-118"/>
<polygon fill="none" stroke="black" points="119,-118 119,-136 240,-136 240,-118 119,-118"/>
<text text-anchor="start" x="220" y="-124.2" font-family="Helvetica,sans-Serif" font-size="11.00">2 &gt;</text>
<polygon fill="none" stroke="black" stroke-width="2" points="9,-117 9,-291 241,-291 241,-117 9,-117"/>
</a>
</g>
</g>
<!-- entitlements&#45;&gt;miq_user_roles -->
<g id="edge2" class="edge"><title>entitlements:miq_user_role_id:w&#45;&gt;miq_user_roles:id.type:e</title>
<path fill="none" stroke="black" d="M294.692,-284.745C274.44,-277.768 268.484,-257 241,-257"/>
<polygon fill="black" stroke="black" points="301.098,-285.755 308.44,-290.556 305.049,-286.377 309,-287 309,-287 309,-287 305.049,-286.377 309.56,-283.444 301.098,-285.755 301.098,-285.755"/>
<ellipse fill="none" stroke="black" cx="297.937" cy="-285.256" rx="3.2" ry="3.2"/>
</g>
<!-- miq_roles_features -->
<g id="node4" class="node"><title>miq_roles_features</title>
<g id="a_node4"><a xlink:href="../../tables/miq_roles_features.html" xlink:title="miq_roles_features" target="_top">
<polygon fill="#ffffff" stroke="none" points="291,-89 291,-195 453,-195 453,-89 291,-89"/>
<polygon fill="#f5f5f5" stroke="none" points="291,-173 291,-195 453,-195 453,-173 291,-173"/>
<polygon fill="none" stroke="black" points="291,-173 291,-195 453,-195 453,-173 291,-173"/>
<text text-anchor="start" x="296" y="-182.2" font-family="Helvetica,sans-Serif" font-weight="bold" font-size="11.00">miq_roles_features</text>
<text text-anchor="start" x="414" y="-181.2" font-family="Helvetica,sans-Serif" font-size="11.00">[table]</text>
<polygon fill="none" stroke="black" points="291,-151 291,-173 453,-173 453,-151 291,-151"/>
<image xlink:href="../../images/primaryKeys.png" width="11px" height="12px" preserveAspectRatio="xMinYMin meet" x="296" y="-168"/>
<text text-anchor="start" x="311" y="-159.2" font-family="Helvetica,sans-Serif" font-size="11.00">id</text>
<polygon fill="#ffffff" stroke="none" points="291,-129 291,-151 453,-151 453,-129 291,-129"/>
<polygon fill="none" stroke="black" points="291,-129 291,-151 453,-151 453,-129 291,-129"/>
<image xlink:href="../../images/foreignKeys.png" width="11px" height="12px" preserveAspectRatio="xMinYMin meet" x="296" y="-146"/>
<text text-anchor="start" x="311" y="-137.2" font-family="Helvetica,sans-Serif" font-size="11.00">miq_user_role_id</text>
<polygon fill="none" stroke="black" points="291,-107 291,-129 453,-129 453,-107 291,-107"/>
<image xlink:href="../../images/foreignKeys.png" width="11px" height="12px" preserveAspectRatio="xMinYMin meet" x="296" y="-124"/>
<text text-anchor="start" x="311" y="-115.2" font-family="Helvetica,sans-Serif" font-size="11.00">miq_product_feature_id</text>
<polygon fill="#ffffff" stroke="none" points="291,-89 291,-107 370,-107 370,-89 291,-89"/>
<polygon fill="none" stroke="black" points="291,-89 291,-107 370,-107 370,-89 291,-89"/>
<text text-anchor="start" x="294" y="-95.2" font-family="Helvetica,sans-Serif" font-size="11.00">&lt; 2</text>
<polygon fill="#ffffff" stroke="none" points="370,-89 370,-107 411,-107 411,-89 370,-89"/>
<polygon fill="none" stroke="black" points="370,-89 370,-107 411,-107 411,-89 370,-89"/>
<text text-anchor="start" x="401" y="-95.2" font-family="Helvetica,sans-Serif" font-size="11.00"> &#160;</text>
<polygon fill="#ffffff" stroke="none" points="411,-89 411,-107 453,-107 453,-89 411,-89"/>
<polygon fill="none" stroke="black" points="411,-89 411,-107 453,-107 453,-89 411,-89"/>
<text text-anchor="start" x="443" y="-95.2" font-family="Helvetica,sans-Serif" font-size="11.00"> &#160;</text>
</a>
</g>
</g>
<!-- miq_roles_features&#45;&gt;miq_user_roles -->
<g id="edge4" class="edge"><title>miq_roles_features:miq_user_role_id:w&#45;&gt;miq_user_roles:id.type:e</title>
<path fill="none" stroke="black" d="M275.889,-143.63C245.735,-163.378 291.43,-257 241,-257"/>
<polygon fill="black" stroke="black" points="282.252,-141.993 290.897,-143.486 286.126,-140.997 290,-140 290,-140 290,-140 286.126,-140.997 289.103,-136.514 282.252,-141.993 282.252,-141.993"/>
<ellipse fill="none" stroke="black" cx="279.153" cy="-142.79" rx="3.2" ry="3.2"/>
</g>
<!-- miq_product_features -->
<g id="node5" class="node"><title>miq_product_features</title>
<g id="a_node5"><a xlink:href="../../tables/miq_product_features.html" xlink:title="miq_product_features" target="_top">
<polygon fill="#ffffff" stroke="none" points="38,-37 38,-95 212,-95 212,-37 38,-37"/>
<polygon fill="#f5f5f5" stroke="none" points="38,-73 38,-95 212,-95 212,-73 38,-73"/>
<polygon fill="none" stroke="black" points="38,-73 38,-95 212,-95 212,-73 38,-73"/>
<text text-anchor="start" x="43" y="-82.2" font-family="Helvetica,sans-Serif" font-weight="bold" font-size="11.00">miq_product_features</text>
<text text-anchor="start" x="173" y="-81.2" font-family="Helvetica,sans-Serif" font-size="11.00">[table]</text>
<polygon fill="none" stroke="black" points="38,-55 38,-73 212,-73 212,-55 38,-55"/>
<text text-anchor="start" x="41" y="-61.2" font-family="Helvetica,sans-Serif" font-size="11.00">...</text>
<polygon fill="#ffffff" stroke="none" points="38,-37 38,-55 118,-55 118,-37 38,-37"/>
<polygon fill="none" stroke="black" points="38,-37 38,-55 118,-55 118,-37 38,-37"/>
<text text-anchor="start" x="41" y="-43.2" font-family="Helvetica,sans-Serif" font-size="11.00">&lt; 1</text>
<polygon fill="#ffffff" stroke="none" points="118,-37 118,-55 160,-55 160,-37 118,-37"/>
<polygon fill="none" stroke="black" points="118,-37 118,-55 160,-55 160,-37 118,-37"/>
<text text-anchor="start" x="150" y="-43.2" font-family="Helvetica,sans-Serif" font-size="11.00"> &#160;</text>
<polygon fill="#ffffff" stroke="none" points="160,-37 160,-55 212,-55 212,-37 160,-37"/>
<polygon fill="none" stroke="black" points="160,-37 160,-55 212,-55 212,-37 160,-37"/>
<text text-anchor="start" x="192" y="-43.2" font-family="Helvetica,sans-Serif" font-size="11.00">2 &gt;</text>
</a>
</g>
</g>
<!-- miq_roles_features&#45;&gt;miq_product_features -->
<g id="edge3" class="edge"><title>miq_roles_features:miq_product_feature_id:w&#45;&gt;miq_product_features:elipses:e</title>
<path fill="none" stroke="black" d="M275.68,-115.395C249.1,-104.609 249.248,-64 213,-64"/>
<polygon fill="black" stroke="black" points="282.129,-116.568 289.356,-121.542 286.065,-117.284 290,-118 290,-118 290,-118 286.065,-117.284 290.644,-114.458 282.129,-116.568 282.129,-116.568"/>
<ellipse fill="none" stroke="black" cx="278.981" cy="-115.996" rx="3.2" ry="3.2"/>
</g>
</g>
</svg>
