<?xml version="1.0" encoding="UTF-8" standalone="no"?>
<!DOCTYPE svg PUBLIC "-//W3C//DTD SVG 1.1//EN"
 "http://www.w3.org/Graphics/SVG/1.1/DTD/svg11.dtd">
<!-- Generated by graphviz version 2.38.0 (20140413.2041)
 -->
<!-- Title: twoDegreesRelationshipsDiagram Pages: 1 -->
<svg width="643pt" height="335pt"
 viewBox="0.00 0.00 643.00 335.00" xmlns="http://www.w3.org/2000/svg" xmlns:xlink="http://www.w3.org/1999/xlink">
<g id="graph0" class="graph" transform="scale(1 1) rotate(0) translate(4 331)">
<title>twoDegreesRelationshipsDiagram</title>
<polygon fill="#ffffff" stroke="none" points="-4,4 -4,-331 639,-331 639,4 -4,4"/>
<text text-anchor="middle" x="74.5" y="-7.2" font-family="Helvetica,sans-Serif" font-size="11.00">Generated by SchemaSpy</text>
<!-- miq_scsi_luns -->
<g id="node1" class="node"><title>miq_scsi_luns</title>
<g id="a_node1"><a xlink:href="../../tables/miq_scsi_luns.html" xlink:title="miq_scsi_luns" target="_top">
<polygon fill="#ffffff" stroke="none" points="374,-37 374,-323 627,-323 627,-37 374,-37"/>
<polygon fill="#f5f5f5" stroke="none" points="376.5,-299 376.5,-321 625.5,-321 625.5,-299 376.5,-299"/>
<polygon fill="none" stroke="black" points="376.5,-299 376.5,-321 625.5,-321 625.5,-299 376.5,-299"/>
<text text-anchor="start" x="381.5" y="-308.2" font-family="Helvetica,sans-Serif" font-weight="bold" font-size="11.00">miq_scsi_luns</text>
<text text-anchor="start" x="586.5" y="-307.2" font-family="Helvetica,sans-Serif" font-size="11.00">[table]</text>
<polygon fill="none" stroke="black" points="376.5,-277 376.5,-299 504.5,-299 504.5,-277 376.5,-277"/>
<image xlink:href="../../images/primaryKeys.png" width="11px" height="12px" preserveAspectRatio="xMinYMin meet" x="381.5" y="-294"/>
<text text-anchor="start" x="396.5" y="-285.2" font-family="Helvetica,sans-Serif" font-size="11.00">id</text>
<polygon fill="none" stroke="black" points="504.5,-277 504.5,-299 625.5,-299 625.5,-277 504.5,-277"/>
<text text-anchor="start" x="507.5" y="-285.2" font-family="Helvetica,sans-Serif" font-size="11.00">bigserial[19]</text>
<polygon fill="#ffffff" stroke="none" points="376.5,-255 376.5,-277 504.5,-277 504.5,-255 376.5,-255"/>
<polygon fill="none" stroke="black" points="376.5,-255 376.5,-277 504.5,-277 504.5,-255 376.5,-255"/>
<image xlink:href="../../images/foreignKeys.png" width="11px" height="12px" preserveAspectRatio="xMinYMin meet" x="381.5" y="-272"/>
<text text-anchor="start" x="396.5" y="-263.2" font-family="Helvetica,sans-Serif" font-size="11.00">miq_scsi_target_id</text>
<polygon fill="none" stroke="black" points="504.5,-255 504.5,-277 625.5,-277 625.5,-255 504.5,-255"/>
<text text-anchor="start" x="507.5" y="-263.2" font-family="Helvetica,sans-Serif" font-size="11.00">int8[19]</text>
<polygon fill="none" stroke="black" points="376.5,-233 376.5,-255 504.5,-255 504.5,-233 376.5,-233"/>
<text text-anchor="start" x="396.5" y="-241.2" font-family="Helvetica,sans-Serif" font-size="11.00">lun</text>
<polygon fill="none" stroke="black" points="504.5,-233 504.5,-255 625.5,-255 625.5,-233 504.5,-233"/>
<text text-anchor="start" x="507.5" y="-241.2" font-family="Helvetica,sans-Serif" font-size="11.00">int4[10]</text>
<polygon fill="none" stroke="black" points="376.5,-211 376.5,-233 504.5,-233 504.5,-211 376.5,-211"/>
<text text-anchor="start" x="396.5" y="-219.2" font-family="Helvetica,sans-Serif" font-size="11.00">canonical_name</text>
<polygon fill="none" stroke="black" points="504.5,-211 504.5,-233 625.5,-233 625.5,-211 504.5,-211"/>
<text text-anchor="start" x="507.5" y="-219.2" font-family="Helvetica,sans-Serif" font-size="11.00">varchar[2147483647]</text>
<polygon fill="none" stroke="black" points="376.5,-189 376.5,-211 504.5,-211 504.5,-189 376.5,-189"/>
<text text-anchor="start" x="396.5" y="-197.2" font-family="Helvetica,sans-Serif" font-size="11.00">lun_type</text>
<polygon fill="none" stroke="black" points="504.5,-189 504.5,-211 625.5,-211 625.5,-189 504.5,-189"/>
<text text-anchor="start" x="507.5" y="-197.2" font-family="Helvetica,sans-Serif" font-size="11.00">varchar[2147483647]</text>
<polygon fill="none" stroke="black" points="376.5,-167 376.5,-189 504.5,-189 504.5,-167 376.5,-167"/>
<text text-anchor="start" x="396.5" y="-175.2" font-family="Helvetica,sans-Serif" font-size="11.00">device_name</text>
<polygon fill="none" stroke="black" points="504.5,-167 504.5,-189 625.5,-189 625.5,-167 504.5,-167"/>
<text text-anchor="start" x="507.5" y="-175.2" font-family="Helvetica,sans-Serif" font-size="11.00">varchar[2147483647]</text>
<polygon fill="none" stroke="black" points="376.5,-145 376.5,-167 504.5,-167 504.5,-145 376.5,-145"/>
<text text-anchor="start" x="396.5" y="-153.2" font-family="Helvetica,sans-Serif" font-size="11.00">block</text>
<polygon fill="none" stroke="black" points="504.5,-145 504.5,-167 625.5,-167 625.5,-145 504.5,-145"/>
<text text-anchor="start" x="507.5" y="-153.2" font-family="Helvetica,sans-Serif" font-size="11.00">int8[19]</text>
<polygon fill="none" stroke="black" points="376.5,-123 376.5,-145 504.5,-145 504.5,-123 376.5,-123"/>
<text text-anchor="start" x="396.5" y="-131.2" font-family="Helvetica,sans-Serif" font-size="11.00">block_size</text>
<polygon fill="none" stroke="black" points="504.5,-123 504.5,-145 625.5,-145 625.5,-123 504.5,-123"/>
<text text-anchor="start" x="507.5" y="-131.2" font-family="Helvetica,sans-Serif" font-size="11.00">int4[10]</text>
<polygon fill="none" stroke="black" points="376.5,-101 376.5,-123 504.5,-123 504.5,-101 376.5,-101"/>
<text text-anchor="start" x="396.5" y="-109.2" font-family="Helvetica,sans-Serif" font-size="11.00">capacity</text>
<polygon fill="none" stroke="black" points="504.5,-101 504.5,-123 625.5,-123 625.5,-101 504.5,-101"/>
<text text-anchor="start" x="507.5" y="-109.2" font-family="Helvetica,sans-Serif" font-size="11.00">int8[19]</text>
<polygon fill="none" stroke="black" points="376.5,-79 376.5,-101 504.5,-101 504.5,-79 376.5,-79"/>
<text text-anchor="start" x="396.5" y="-87.2" font-family="Helvetica,sans-Serif" font-size="11.00">device_type</text>
<polygon fill="none" stroke="black" points="504.5,-79 504.5,-101 625.5,-101 625.5,-79 504.5,-79"/>
<text text-anchor="start" x="507.5" y="-87.2" font-family="Helvetica,sans-Serif" font-size="11.00">varchar[2147483647]</text>
<polygon fill="none" stroke="black" points="376.5,-57 376.5,-79 504.5,-79 504.5,-57 376.5,-57"/>
<text text-anchor="start" x="396.5" y="-65.2" font-family="Helvetica,sans-Serif" font-size="11.00">uid_ems</text>
<polygon fill="none" stroke="black" points="504.5,-57 504.5,-79 625.5,-79 625.5,-57 504.5,-57"/>
<text text-anchor="start" x="507.5" y="-65.2" font-family="Helvetica,sans-Serif" font-size="11.00">varchar[2147483647]</text>
<polygon fill="#ffffff" stroke="none" points="376.5,-39 376.5,-57 445.5,-57 445.5,-39 376.5,-39"/>
<polygon fill="none" stroke="black" points="376.5,-39 376.5,-57 445.5,-57 445.5,-39 376.5,-39"/>
<text text-anchor="start" x="379.5" y="-45.2" font-family="Helvetica,sans-Serif" font-size="11.00">&lt; 1</text>
<polygon fill="#ffffff" stroke="none" points="445.5,-39 445.5,-57 504.5,-57 504.5,-39 445.5,-39"/>
<polygon fill="none" stroke="black" points="445.5,-39 445.5,-57 504.5,-57 504.5,-39 445.5,-39"/>
<text text-anchor="start" x="494.5" y="-45.2" font-family="Helvetica,sans-Serif" font-size="11.00"> &#160;</text>
<polygon fill="#ffffff" stroke="none" points="504.5,-39 504.5,-57 625.5,-57 625.5,-39 504.5,-39"/>
<polygon fill="none" stroke="black" points="504.5,-39 504.5,-57 625.5,-57 625.5,-39 504.5,-39"/>
<text text-anchor="start" x="605.5" y="-45.2" font-family="Helvetica,sans-Serif" font-size="11.00">0 &gt;</text>
<polygon fill="none" stroke="black" stroke-width="2" points="375,-38 375,-322 626,-322 626,-38 375,-38"/>
</a>
</g>
</g>
<!-- miq_scsi_targets -->
<g id="node2" class="node"><title>miq_scsi_targets</title>
<g id="a_node2"><a xlink:href="../../tables/miq_scsi_targets.html" xlink:title="miq_scsi_targets" target="_top">
<polygon fill="#ffffff" stroke="none" points="184,-197 184,-299 325,-299 325,-197 184,-197"/>
<polygon fill="#f5f5f5" stroke="none" points="184.5,-277 184.5,-299 325.5,-299 325.5,-277 184.5,-277"/>
<polygon fill="none" stroke="black" points="184.5,-277 184.5,-299 325.5,-299 325.5,-277 184.5,-277"/>
<text text-anchor="start" x="189.5" y="-286.2" font-family="Helvetica,sans-Serif" font-weight="bold" font-size="11.00">miq_scsi_targets</text>
<text text-anchor="start" x="286.5" y="-285.2" font-family="Helvetica,sans-Serif" font-size="11.00">[table]</text>
<polygon fill="none" stroke="black" points="184.5,-255 184.5,-277 325.5,-277 325.5,-255 184.5,-255"/>
<image xlink:href="../../images/primaryKeys.png" width="11px" height="12px" preserveAspectRatio="xMinYMin meet" x="189.5" y="-272"/>
<text text-anchor="start" x="216.5" y="-263.2" font-family="Helvetica,sans-Serif" font-size="11.00">id</text>
<polygon fill="#ffffff" stroke="none" points="184.5,-233 184.5,-255 325.5,-255 325.5,-233 184.5,-233"/>
<polygon fill="none" stroke="black" points="184.5,-233 184.5,-255 325.5,-255 325.5,-233 184.5,-233"/>
<image xlink:href="../../images/foreignKeys.png" width="11px" height="12px" preserveAspectRatio="xMinYMin meet" x="189.5" y="-250"/>
<text text-anchor="start" x="216.5" y="-241.2" font-family="Helvetica,sans-Serif" font-size="11.00">guest_device_id</text>
<polygon fill="none" stroke="black" points="184.5,-215 184.5,-233 325.5,-233 325.5,-215 184.5,-215"/>
<text text-anchor="start" x="187.5" y="-221.2" font-family="Helvetica,sans-Serif" font-size="11.00">...</text>
<polygon fill="#ffffff" stroke="none" points="184.5,-197 184.5,-215 248.5,-215 248.5,-197 184.5,-197"/>
<polygon fill="none" stroke="black" points="184.5,-197 184.5,-215 248.5,-215 248.5,-197 184.5,-197"/>
<text text-anchor="start" x="187.5" y="-203.2" font-family="Helvetica,sans-Serif" font-size="11.00">&lt; 1</text>
<polygon fill="#ffffff" stroke="none" points="248.5,-197 248.5,-215 281.5,-215 281.5,-197 248.5,-197"/>
<polygon fill="none" stroke="black" points="248.5,-197 248.5,-215 281.5,-215 281.5,-197 248.5,-197"/>
<text text-anchor="start" x="271.5" y="-203.2" font-family="Helvetica,sans-Serif" font-size="11.00"> &#160;</text>
<polygon fill="#ffffff" stroke="none" points="281.5,-197 281.5,-215 325.5,-215 325.5,-197 281.5,-197"/>
<polygon fill="none" stroke="black" points="281.5,-197 281.5,-215 325.5,-215 325.5,-197 281.5,-197"/>
<text text-anchor="start" x="305.5" y="-203.2" font-family="Helvetica,sans-Serif" font-size="11.00">1 &gt;</text>
</a>
</g>
</g>
<!-- miq_scsi_luns&#45;&gt;miq_scsi_targets -->
<g id="edge1" class="edge"><title>miq_scsi_luns:miq_scsi_target_id:w&#45;&gt;miq_scsi_targets:id:e</title>
<path fill="none" stroke="black" d="M360.991,-266C349.677,-266 342.493,-266 326.5,-266"/>
<polygon fill="black" stroke="black" points="367.5,-266 375.5,-269.6 371.5,-266 375.5,-266 375.5,-266 375.5,-266 371.5,-266 375.5,-262.4 367.5,-266 367.5,-266"/>
<ellipse fill="none" stroke="black" cx="364.3" cy="-266" rx="3.2" ry="3.2"/>
</g>
<!-- guest_devices -->
<g id="node3" class="node"><title>guest_devices</title>
<g id="a_node3"><a xlink:href="../../tables/guest_devices.html" xlink:title="guest_devices" target="_top">
<polygon fill="#ffffff" stroke="none" points="8,-217 8,-275 135,-275 135,-217 8,-217"/>
<polygon fill="#f5f5f5" stroke="none" points="8.5,-253 8.5,-275 135.5,-275 135.5,-253 8.5,-253"/>
<polygon fill="none" stroke="black" points="8.5,-253 8.5,-275 135.5,-275 135.5,-253 8.5,-253"/>
<text text-anchor="start" x="13.5" y="-262.2" font-family="Helvetica,sans-Serif" font-weight="bold" font-size="11.00">guest_devices</text>
<text text-anchor="start" x="96.5" y="-261.2" font-family="Helvetica,sans-Serif" font-size="11.00">[table]</text>
<polygon fill="none" stroke="black" points="8.5,-235 8.5,-253 135.5,-253 135.5,-235 8.5,-235"/>
<text text-anchor="start" x="11.5" y="-241.2" font-family="Helvetica,sans-Serif" font-size="11.00">...</text>
<polygon fill="#ffffff" stroke="none" points="8.5,-217 8.5,-235 65.5,-235 65.5,-217 8.5,-217"/>
<polygon fill="none" stroke="black" points="8.5,-217 8.5,-235 65.5,-235 65.5,-217 8.5,-217"/>
<text text-anchor="start" x="11.5" y="-223.2" font-family="Helvetica,sans-Serif" font-size="11.00">&lt; 3</text>
<polygon fill="#ffffff" stroke="none" points="65.5,-217 65.5,-235 95.5,-235 95.5,-217 65.5,-217"/>
<polygon fill="none" stroke="black" points="65.5,-217 65.5,-235 95.5,-235 95.5,-217 65.5,-217"/>
<text text-anchor="start" x="85.5" y="-223.2" font-family="Helvetica,sans-Serif" font-size="11.00"> &#160;</text>
<polygon fill="#ffffff" stroke="none" points="95.5,-217 95.5,-235 135.5,-235 135.5,-217 95.5,-217"/>
<polygon fill="none" stroke="black" points="95.5,-217 95.5,-235 135.5,-235 135.5,-217 95.5,-217"/>
<text text-anchor="start" x="115.5" y="-223.2" font-family="Helvetica,sans-Serif" font-size="11.00">3 &gt;</text>
</a>
</g>
</g>
<!-- miq_scsi_targets&#45;&gt;guest_devices -->
<g id="edge2" class="edge"><title>miq_scsi_targets:guest_device_id:w&#45;&gt;guest_devices:elipses:e</title>
<path fill="none" stroke="black" d="M168.896,-244C158.434,-244 151.514,-244 136.5,-244"/>
<polygon fill="black" stroke="black" points="175.5,-244 183.5,-247.6 179.5,-244 183.5,-244 183.5,-244 183.5,-244 179.5,-244 183.5,-240.4 175.5,-244 175.5,-244"/>
<ellipse fill="none" stroke="black" cx="172.3" cy="-244" rx="3.2" ry="3.2"/>
</g>
</g>
</svg>
