<?xml version="1.0" encoding="UTF-8" standalone="no"?>
<!DOCTYPE svg PUBLIC "-//W3C//DTD SVG 1.1//EN"
 "http://www.w3.org/Graphics/SVG/1.1/DTD/svg11.dtd">
<!-- Generated by graphviz version 2.38.0 (20140413.2041)
 -->
<!-- Title: twoDegreesRelationshipsDiagram Pages: 1 -->
<svg width="914pt" height="881pt"
 viewBox="0.00 0.00 914.00 881.00" xmlns="http://www.w3.org/2000/svg" xmlns:xlink="http://www.w3.org/1999/xlink">
<g id="graph0" class="graph" transform="scale(1 1) rotate(0) translate(4 877)">
<title>twoDegreesRelationshipsDiagram</title>
<polygon fill="#ffffff" stroke="none" points="-4,4 -4,-877 910,-877 910,4 -4,4"/>
<text text-anchor="middle" x="74.5" y="-7.2" font-family="Helvetica,sans-Serif" font-size="11.00">Generated by SchemaSpy</text>
<!-- compliance_details -->
<g id="node1" class="node"><title>compliance_details</title>
<g id="a_node1"><a xlink:href="../../tables/compliance_details.html" xlink:title="compliance_details" target="_top">
<polygon fill="#ffffff" stroke="none" points="727,-718 727,-864 885,-864 885,-718 727,-718"/>
<polygon fill="#f5f5f5" stroke="none" points="727,-842 727,-864 885,-864 885,-842 727,-842"/>
<polygon fill="none" stroke="black" points="727,-842 727,-864 885,-864 885,-842 727,-842"/>
<text text-anchor="start" x="732" y="-851.2" font-family="Helvetica,sans-Serif" font-weight="bold" font-size="11.00">compliance_details</text>
<text text-anchor="start" x="846" y="-850.2" font-family="Helvetica,sans-Serif" font-size="11.00">[table]</text>
<polygon fill="none" stroke="black" points="727,-820 727,-842 885,-842 885,-820 727,-820"/>
<image xlink:href="../../images/primaryKeys.png" width="11px" height="12px" preserveAspectRatio="xMinYMin meet" x="732" y="-837"/>
<text text-anchor="start" x="759" y="-828.2" font-family="Helvetica,sans-Serif" font-size="11.00">id</text>
<polygon fill="#ffffff" stroke="none" points="727,-798 727,-820 885,-820 885,-798 727,-798"/>
<polygon fill="none" stroke="black" points="727,-798 727,-820 885,-820 885,-798 727,-798"/>
<image xlink:href="../../images/foreignKeys.png" width="11px" height="12px" preserveAspectRatio="xMinYMin meet" x="732" y="-815"/>
<text text-anchor="start" x="759" y="-806.2" font-family="Helvetica,sans-Serif" font-size="11.00">compliance_id</text>
<polygon fill="#ffffff" stroke="none" points="727,-776 727,-798 885,-798 885,-776 727,-776"/>
<polygon fill="none" stroke="black" points="727,-776 727,-798 885,-798 885,-776 727,-776"/>
<image xlink:href="../../images/foreignKeys.png" width="11px" height="12px" preserveAspectRatio="xMinYMin meet" x="732" y="-793"/>
<text text-anchor="start" x="759" y="-784.2" font-family="Helvetica,sans-Serif" font-size="11.00">miq_policy_id</text>
<polygon fill="#ffffff" stroke="none" points="727,-754 727,-776 885,-776 885,-754 727,-754"/>
<polygon fill="none" stroke="black" points="727,-754 727,-776 885,-776 885,-754 727,-754"/>
<image xlink:href="../../images/foreignKeys.png" width="11px" height="12px" preserveAspectRatio="xMinYMin meet" x="732" y="-771"/>
<text text-anchor="start" x="759" y="-762.2" font-family="Helvetica,sans-Serif" font-size="11.00">condition_id</text>
<polygon fill="none" stroke="black" points="727,-736 727,-754 885,-754 885,-736 727,-736"/>
<text text-anchor="start" x="730" y="-742.2" font-family="Helvetica,sans-Serif" font-size="11.00">...</text>
<polygon fill="#ffffff" stroke="none" points="727,-718 727,-736 804,-736 804,-718 727,-718"/>
<polygon fill="none" stroke="black" points="727,-718 727,-736 804,-736 804,-718 727,-718"/>
<text text-anchor="start" x="730" y="-724.2" font-family="Helvetica,sans-Serif" font-size="11.00">&lt; 3</text>
<polygon fill="#ffffff" stroke="none" points="804,-718 804,-736 844,-736 844,-718 804,-718"/>
<polygon fill="none" stroke="black" points="804,-718 804,-736 844,-736 844,-718 804,-718"/>
<text text-anchor="start" x="834" y="-724.2" font-family="Helvetica,sans-Serif" font-size="11.00"> &#160;</text>
<polygon fill="#ffffff" stroke="none" points="844,-718 844,-736 885,-736 885,-718 844,-718"/>
<polygon fill="none" stroke="black" points="844,-718 844,-736 885,-736 885,-718 844,-718"/>
<text text-anchor="start" x="875" y="-724.2" font-family="Helvetica,sans-Serif" font-size="11.00"> &#160;</text>
</a>
</g>
</g>
<!-- compliances -->
<g id="node2" class="node"><title>compliances</title>
<g id="a_node2"><a xlink:href="../../tables/compliances.html" xlink:title="compliances" target="_top">
<polygon fill="#ffffff" stroke="none" points="495.5,-811 495.5,-869 615.5,-869 615.5,-811 495.5,-811"/>
<polygon fill="#f5f5f5" stroke="none" points="495.5,-847 495.5,-869 615.5,-869 615.5,-847 495.5,-847"/>
<polygon fill="none" stroke="black" points="495.5,-847 495.5,-869 615.5,-869 615.5,-847 495.5,-847"/>
<text text-anchor="start" x="500.5" y="-856.2" font-family="Helvetica,sans-Serif" font-weight="bold" font-size="11.00">compliances</text>
<text text-anchor="start" x="576.5" y="-855.2" font-family="Helvetica,sans-Serif" font-size="11.00">[table]</text>
<polygon fill="none" stroke="black" points="495.5,-829 495.5,-847 615.5,-847 615.5,-829 495.5,-829"/>
<text text-anchor="start" x="498.5" y="-835.2" font-family="Helvetica,sans-Serif" font-size="11.00">...</text>
<polygon fill="#ffffff" stroke="none" points="495.5,-811 495.5,-829 543.5,-829 543.5,-811 495.5,-811"/>
<polygon fill="none" stroke="black" points="495.5,-811 495.5,-829 543.5,-829 543.5,-811 495.5,-811"/>
<text text-anchor="start" x="498.5" y="-817.2" font-family="Helvetica,sans-Serif" font-size="11.00"> &#160;</text>
<polygon fill="#ffffff" stroke="none" points="543.5,-811 543.5,-829 574.5,-829 574.5,-811 543.5,-811"/>
<polygon fill="none" stroke="black" points="543.5,-811 543.5,-829 574.5,-829 574.5,-811 543.5,-811"/>
<text text-anchor="start" x="564.5" y="-817.2" font-family="Helvetica,sans-Serif" font-size="11.00"> &#160;</text>
<polygon fill="#ffffff" stroke="none" points="574.5,-811 574.5,-829 615.5,-829 615.5,-811 574.5,-811"/>
<polygon fill="none" stroke="black" points="574.5,-811 574.5,-829 615.5,-829 615.5,-811 574.5,-811"/>
<text text-anchor="start" x="595.5" y="-817.2" font-family="Helvetica,sans-Serif" font-size="11.00">1 &gt;</text>
</a>
</g>
</g>
<!-- compliance_details&#45;&gt;compliances -->
<g id="edge1" class="edge"><title>compliance_details:compliance_id:w&#45;&gt;compliances:elipses:e</title>
<path fill="none" stroke="black" d="M711.359,-809.9C673.335,-814.795 661.535,-838 616.5,-838"/>
<polygon fill="black" stroke="black" points="718.015,-809.491 726.221,-812.593 722.008,-809.245 726,-809 726,-809 726,-809 722.008,-809.245 725.779,-805.407 718.015,-809.491 718.015,-809.491"/>
<ellipse fill="none" stroke="black" cx="714.821" cy="-809.687" rx="3.2" ry="3.2"/>
</g>
<!-- conditions -->
<g id="node3" class="node"><title>conditions</title>
<g id="a_node3"><a xlink:href="../../tables/conditions.html" xlink:title="conditions" target="_top">
<polygon fill="#ffffff" stroke="none" points="501,-639 501,-763 610,-763 610,-639 501,-639"/>
<polygon fill="#f5f5f5" stroke="none" points="501.5,-741 501.5,-763 610.5,-763 610.5,-741 501.5,-741"/>
<polygon fill="none" stroke="black" points="501.5,-741 501.5,-763 610.5,-763 610.5,-741 501.5,-741"/>
<text text-anchor="start" x="506.5" y="-750.2" font-family="Helvetica,sans-Serif" font-weight="bold" font-size="11.00">conditions</text>
<text text-anchor="start" x="571.5" y="-749.2" font-family="Helvetica,sans-Serif" font-size="11.00">[table]</text>
<polygon fill="none" stroke="black" points="501.5,-719 501.5,-741 610.5,-741 610.5,-719 501.5,-719"/>
<image xlink:href="../../images/primaryKeys.png" width="11px" height="12px" preserveAspectRatio="xMinYMin meet" x="506.5" y="-736"/>
<text text-anchor="start" x="522.5" y="-727.2" font-family="Helvetica,sans-Serif" font-size="11.00">id</text>
<polygon fill="#ffffff" stroke="none" points="501.5,-697 501.5,-719 610.5,-719 610.5,-697 501.5,-697"/>
<polygon fill="none" stroke="black" points="501.5,-697 501.5,-719 610.5,-719 610.5,-697 501.5,-697"/>
<text text-anchor="start" x="522.5" y="-705.2" font-family="Helvetica,sans-Serif" font-size="11.00">guid</text>
<polygon fill="#ffffff" stroke="none" points="501.5,-675 501.5,-697 610.5,-697 610.5,-675 501.5,-675"/>
<polygon fill="none" stroke="black" points="501.5,-675 501.5,-697 610.5,-697 610.5,-675 501.5,-675"/>
<image xlink:href="../../images/foreignKeys.png" width="11px" height="12px" preserveAspectRatio="xMinYMin meet" x="506.5" y="-692"/>
<text text-anchor="start" x="522.5" y="-683.2" font-family="Helvetica,sans-Serif" font-size="11.00">miq_policy_id</text>
<polygon fill="none" stroke="black" points="501.5,-657 501.5,-675 610.5,-675 610.5,-657 501.5,-657"/>
<text text-anchor="start" x="504.5" y="-663.2" font-family="Helvetica,sans-Serif" font-size="11.00">...</text>
<polygon fill="#ffffff" stroke="none" points="501.5,-639 501.5,-657 549.5,-657 549.5,-639 501.5,-639"/>
<polygon fill="none" stroke="black" points="501.5,-639 501.5,-657 549.5,-657 549.5,-639 501.5,-639"/>
<text text-anchor="start" x="504.5" y="-645.2" font-family="Helvetica,sans-Serif" font-size="11.00">&lt; 1</text>
<polygon fill="#ffffff" stroke="none" points="549.5,-639 549.5,-657 574.5,-657 574.5,-639 549.5,-639"/>
<polygon fill="none" stroke="black" points="549.5,-639 549.5,-657 574.5,-657 574.5,-639 549.5,-639"/>
<text text-anchor="start" x="564.5" y="-645.2" font-family="Helvetica,sans-Serif" font-size="11.00"> &#160;</text>
<polygon fill="#ffffff" stroke="none" points="574.5,-639 574.5,-657 610.5,-657 610.5,-639 574.5,-639"/>
<polygon fill="none" stroke="black" points="574.5,-639 574.5,-657 610.5,-657 610.5,-639 574.5,-639"/>
<text text-anchor="start" x="590.5" y="-645.2" font-family="Helvetica,sans-Serif" font-size="11.00">2 &gt;</text>
</a>
</g>
</g>
<!-- compliance_details&#45;&gt;conditions -->
<g id="edge2" class="edge"><title>compliance_details:condition_id:w&#45;&gt;conditions:id:e</title>
<path fill="none" stroke="black" d="M711.618,-764.064C670.779,-758.498 659.517,-730 611.5,-730"/>
<polygon fill="black" stroke="black" points="718.017,-764.48 725.766,-768.592 722.008,-764.74 726,-765 726,-765 726,-765 722.008,-764.74 726.234,-761.408 718.017,-764.48 718.017,-764.48"/>
<ellipse fill="none" stroke="black" cx="714.824" cy="-764.272" rx="3.2" ry="3.2"/>
</g>
<!-- miq_policies -->
<g id="node4" class="node"><title>miq_policies</title>
<g id="a_node4"><a xlink:href="../../tables/miq_policies.html" xlink:title="miq_policies" target="_top">
<polygon fill="#ffffff" stroke="none" points="178,-369 178,-721 397,-721 397,-369 178,-369"/>
<polygon fill="#f5f5f5" stroke="none" points="180.5,-697 180.5,-719 395.5,-719 395.5,-697 180.5,-697"/>
<polygon fill="none" stroke="black" points="180.5,-697 180.5,-719 395.5,-719 395.5,-697 180.5,-697"/>
<text text-anchor="start" x="185.5" y="-706.2" font-family="Helvetica,sans-Serif" font-weight="bold" font-size="11.00">miq_policies</text>
<text text-anchor="start" x="356.5" y="-705.2" font-family="Helvetica,sans-Serif" font-size="11.00">[table]</text>
<polygon fill="none" stroke="black" points="180.5,-675 180.5,-697 274.5,-697 274.5,-675 180.5,-675"/>
<image xlink:href="../../images/primaryKeys.png" width="11px" height="12px" preserveAspectRatio="xMinYMin meet" x="185.5" y="-692"/>
<text text-anchor="start" x="200.5" y="-683.2" font-family="Helvetica,sans-Serif" font-size="11.00">id</text>
<polygon fill="none" stroke="black" points="274.5,-675 274.5,-697 395.5,-697 395.5,-675 274.5,-675"/>
<text text-anchor="start" x="277.5" y="-683.2" font-family="Helvetica,sans-Serif" font-size="11.00">bigserial[19]</text>
<polygon fill="none" stroke="black" points="180.5,-653 180.5,-675 274.5,-675 274.5,-653 180.5,-653"/>
<text text-anchor="start" x="200.5" y="-661.2" font-family="Helvetica,sans-Serif" font-size="11.00">name</text>
<polygon fill="none" stroke="black" points="274.5,-653 274.5,-675 395.5,-675 395.5,-653 274.5,-653"/>
<text text-anchor="start" x="277.5" y="-661.2" font-family="Helvetica,sans-Serif" font-size="11.00">varchar[2147483647]</text>
<polygon fill="none" stroke="black" points="180.5,-631 180.5,-653 274.5,-653 274.5,-631 180.5,-631"/>
<text text-anchor="start" x="200.5" y="-639.2" font-family="Helvetica,sans-Serif" font-size="11.00">description</text>
<polygon fill="none" stroke="black" points="274.5,-631 274.5,-653 395.5,-653 395.5,-631 274.5,-631"/>
<text text-anchor="start" x="277.5" y="-639.2" font-family="Helvetica,sans-Serif" font-size="11.00">varchar[2147483647]</text>
<polygon fill="none" stroke="black" points="180.5,-609 180.5,-631 274.5,-631 274.5,-609 180.5,-609"/>
<text text-anchor="start" x="200.5" y="-617.2" font-family="Helvetica,sans-Serif" font-size="11.00">created_on</text>
<polygon fill="none" stroke="black" points="274.5,-609 274.5,-631 395.5,-631 395.5,-609 274.5,-609"/>
<text text-anchor="start" x="277.5" y="-617.2" font-family="Helvetica,sans-Serif" font-size="11.00">timestamp[29,6]</text>
<polygon fill="none" stroke="black" points="180.5,-587 180.5,-609 274.5,-609 274.5,-587 180.5,-587"/>
<text text-anchor="start" x="200.5" y="-595.2" font-family="Helvetica,sans-Serif" font-size="11.00">updated_on</text>
<polygon fill="none" stroke="black" points="274.5,-587 274.5,-609 395.5,-609 395.5,-587 274.5,-587"/>
<text text-anchor="start" x="277.5" y="-595.2" font-family="Helvetica,sans-Serif" font-size="11.00">timestamp[29,6]</text>
<polygon fill="none" stroke="black" points="180.5,-565 180.5,-587 274.5,-587 274.5,-565 180.5,-565"/>
<text text-anchor="start" x="200.5" y="-573.2" font-family="Helvetica,sans-Serif" font-size="11.00">expression</text>
<polygon fill="none" stroke="black" points="274.5,-565 274.5,-587 395.5,-587 395.5,-565 274.5,-565"/>
<text text-anchor="start" x="277.5" y="-573.2" font-family="Helvetica,sans-Serif" font-size="11.00">text[2147483647]</text>
<polygon fill="none" stroke="black" points="180.5,-543 180.5,-565 274.5,-565 274.5,-543 180.5,-543"/>
<text text-anchor="start" x="200.5" y="-551.2" font-family="Helvetica,sans-Serif" font-size="11.00">towhat</text>
<polygon fill="none" stroke="black" points="274.5,-543 274.5,-565 395.5,-565 395.5,-543 274.5,-543"/>
<text text-anchor="start" x="277.5" y="-551.2" font-family="Helvetica,sans-Serif" font-size="11.00">varchar[2147483647]</text>
<polygon fill="none" stroke="black" points="180.5,-521 180.5,-543 274.5,-543 274.5,-521 180.5,-521"/>
<text text-anchor="start" x="200.5" y="-529.2" font-family="Helvetica,sans-Serif" font-size="11.00">guid</text>
<polygon fill="none" stroke="black" points="274.5,-521 274.5,-543 395.5,-543 395.5,-521 274.5,-521"/>
<text text-anchor="start" x="277.5" y="-529.2" font-family="Helvetica,sans-Serif" font-size="11.00">varchar[2147483647]</text>
<polygon fill="none" stroke="black" points="180.5,-499 180.5,-521 274.5,-521 274.5,-499 180.5,-499"/>
<text text-anchor="start" x="200.5" y="-507.2" font-family="Helvetica,sans-Serif" font-size="11.00">created_by</text>
<polygon fill="none" stroke="black" points="274.5,-499 274.5,-521 395.5,-521 395.5,-499 274.5,-499"/>
<text text-anchor="start" x="277.5" y="-507.2" font-family="Helvetica,sans-Serif" font-size="11.00">varchar[2147483647]</text>
<polygon fill="none" stroke="black" points="180.5,-477 180.5,-499 274.5,-499 274.5,-477 180.5,-477"/>
<text text-anchor="start" x="200.5" y="-485.2" font-family="Helvetica,sans-Serif" font-size="11.00">updated_by</text>
<polygon fill="none" stroke="black" points="274.5,-477 274.5,-499 395.5,-499 395.5,-477 274.5,-477"/>
<text text-anchor="start" x="277.5" y="-485.2" font-family="Helvetica,sans-Serif" font-size="11.00">varchar[2147483647]</text>
<polygon fill="none" stroke="black" points="180.5,-455 180.5,-477 274.5,-477 274.5,-455 180.5,-455"/>
<text text-anchor="start" x="200.5" y="-463.2" font-family="Helvetica,sans-Serif" font-size="11.00">notes</text>
<polygon fill="none" stroke="black" points="274.5,-455 274.5,-477 395.5,-477 395.5,-455 274.5,-455"/>
<text text-anchor="start" x="277.5" y="-463.2" font-family="Helvetica,sans-Serif" font-size="11.00">varchar[2147483647]</text>
<polygon fill="none" stroke="black" points="180.5,-433 180.5,-455 274.5,-455 274.5,-433 180.5,-433"/>
<text text-anchor="start" x="200.5" y="-441.2" font-family="Helvetica,sans-Serif" font-size="11.00">active</text>
<polygon fill="none" stroke="black" points="274.5,-433 274.5,-455 395.5,-455 395.5,-433 274.5,-433"/>
<text text-anchor="start" x="277.5" y="-441.2" font-family="Helvetica,sans-Serif" font-size="11.00">bool[1]</text>
<polygon fill="none" stroke="black" points="180.5,-411 180.5,-433 274.5,-433 274.5,-411 180.5,-411"/>
<text text-anchor="start" x="200.5" y="-419.2" font-family="Helvetica,sans-Serif" font-size="11.00">mode</text>
<polygon fill="none" stroke="black" points="274.5,-411 274.5,-433 395.5,-433 395.5,-411 274.5,-411"/>
<text text-anchor="start" x="277.5" y="-419.2" font-family="Helvetica,sans-Serif" font-size="11.00">varchar[2147483647]</text>
<polygon fill="none" stroke="black" points="180.5,-389 180.5,-411 274.5,-411 274.5,-389 180.5,-389"/>
<text text-anchor="start" x="200.5" y="-397.2" font-family="Helvetica,sans-Serif" font-size="11.00">read_only</text>
<polygon fill="none" stroke="black" points="274.5,-389 274.5,-411 395.5,-411 395.5,-389 274.5,-389"/>
<text text-anchor="start" x="277.5" y="-397.2" font-family="Helvetica,sans-Serif" font-size="11.00">bool[1]</text>
<polygon fill="#ffffff" stroke="none" points="180.5,-371 180.5,-389 232.5,-389 232.5,-371 180.5,-371"/>
<polygon fill="none" stroke="black" points="180.5,-371 180.5,-389 232.5,-389 232.5,-371 180.5,-371"/>
<text text-anchor="start" x="183.5" y="-377.2" font-family="Helvetica,sans-Serif" font-size="11.00">&lt; 0</text>
<polygon fill="#ffffff" stroke="none" points="232.5,-371 232.5,-389 274.5,-389 274.5,-371 232.5,-371"/>
<polygon fill="none" stroke="black" points="232.5,-371 232.5,-389 274.5,-389 274.5,-371 232.5,-371"/>
<text text-anchor="start" x="264.5" y="-377.2" font-family="Helvetica,sans-Serif" font-size="11.00"> &#160;</text>
<polygon fill="#ffffff" stroke="none" points="274.5,-371 274.5,-389 395.5,-389 395.5,-371 274.5,-371"/>
<polygon fill="none" stroke="black" points="274.5,-371 274.5,-389 395.5,-389 395.5,-371 274.5,-371"/>
<text text-anchor="start" x="375.5" y="-377.2" font-family="Helvetica,sans-Serif" font-size="11.00">5 &gt;</text>
<polygon fill="none" stroke="black" stroke-width="2" points="179,-370 179,-720 396,-720 396,-370 179,-370"/>
</a>
</g>
</g>
<!-- compliance_details&#45;&gt;miq_policies -->
<g id="edge3" class="edge"><title>compliance_details:miq_policy_id:w&#45;&gt;miq_policies:id.type:e</title>
<path fill="none" stroke="black" d="M711.439,-787.29C639.157,-789.807 487.674,-807.089 438,-774 402.011,-750.027 439.742,-686 396.5,-686"/>
<polygon fill="black" stroke="black" points="718.002,-787.159 726.072,-790.599 722.001,-787.08 726,-787 726,-787 726,-787 722.001,-787.08 725.928,-783.401 718.002,-787.159 718.002,-787.159"/>
<ellipse fill="none" stroke="black" cx="714.802" cy="-787.223" rx="3.2" ry="3.2"/>
</g>
<!-- conditions&#45;&gt;miq_policies -->
<g id="edge4" class="edge"><title>conditions:miq_policy_id:w&#45;&gt;miq_policies:id.type:e</title>
<path fill="none" stroke="black" d="M486.025,-686C451.215,-686 437.486,-686 396.5,-686"/>
<polygon fill="black" stroke="black" points="492.5,-686 500.5,-689.6 496.5,-686 500.5,-686 500.5,-686 500.5,-686 496.5,-686 500.5,-682.4 492.5,-686 492.5,-686"/>
<ellipse fill="none" stroke="black" cx="489.3" cy="-686" rx="3.2" ry="3.2"/>
</g>
<!-- conditions_miq_policies -->
<g id="node5" class="node"><title>conditions_miq_policies</title>
<g id="a_node5"><a xlink:href="../../tables/conditions_miq_policies.html" xlink:title="conditions_miq_policies" target="_top">
<polygon fill="#ffffff" stroke="none" points="714,-577 714,-683 898,-683 898,-577 714,-577"/>
<polygon fill="#f5f5f5" stroke="none" points="714,-661 714,-683 898,-683 898,-661 714,-661"/>
<polygon fill="none" stroke="black" points="714,-661 714,-683 898,-683 898,-661 714,-661"/>
<text text-anchor="start" x="719" y="-670.2" font-family="Helvetica,sans-Serif" font-weight="bold" font-size="11.00">conditions_miq_policies</text>
<text text-anchor="start" x="859" y="-669.2" font-family="Helvetica,sans-Serif" font-size="11.00">[table]</text>
<polygon fill="none" stroke="black" points="714,-639 714,-661 898,-661 898,-639 714,-639"/>
<image xlink:href="../../images/primaryKeys.png" width="11px" height="12px" preserveAspectRatio="xMinYMin meet" x="719" y="-656"/>
<text text-anchor="start" x="745" y="-647.2" font-family="Helvetica,sans-Serif" font-size="11.00">id</text>
<polygon fill="none" stroke="black" points="714,-617 714,-639 898,-639 898,-617 714,-617"/>
<image xlink:href="../../images/foreignKeys.png" width="11px" height="12px" preserveAspectRatio="xMinYMin meet" x="719" y="-634"/>
<text text-anchor="start" x="745" y="-625.2" font-family="Helvetica,sans-Serif" font-size="11.00">miq_policy_id</text>
<polygon fill="none" stroke="black" points="714,-595 714,-617 898,-617 898,-595 714,-595"/>
<image xlink:href="../../images/foreignKeys.png" width="11px" height="12px" preserveAspectRatio="xMinYMin meet" x="719" y="-612"/>
<text text-anchor="start" x="745" y="-603.2" font-family="Helvetica,sans-Serif" font-size="11.00">condition_id</text>
<polygon fill="#ffffff" stroke="none" points="714,-577 714,-595 804,-595 804,-577 714,-577"/>
<polygon fill="none" stroke="black" points="714,-577 714,-595 804,-595 804,-577 714,-577"/>
<text text-anchor="start" x="717" y="-583.2" font-family="Helvetica,sans-Serif" font-size="11.00">&lt; 2</text>
<polygon fill="#ffffff" stroke="none" points="804,-577 804,-595 851,-595 851,-577 804,-577"/>
<polygon fill="none" stroke="black" points="804,-577 804,-595 851,-595 851,-577 804,-577"/>
<text text-anchor="start" x="841" y="-583.2" font-family="Helvetica,sans-Serif" font-size="11.00"> &#160;</text>
<polygon fill="#ffffff" stroke="none" points="851,-577 851,-595 898,-595 898,-577 851,-577"/>
<polygon fill="none" stroke="black" points="851,-577 851,-595 898,-595 898,-577 851,-577"/>
<text text-anchor="start" x="888" y="-583.2" font-family="Helvetica,sans-Serif" font-size="11.00"> &#160;</text>
</a>
</g>
</g>
<!-- conditions_miq_policies&#45;&gt;conditions -->
<g id="edge5" class="edge"><title>conditions_miq_policies:condition_id:w&#45;&gt;conditions:id:e</title>
<path fill="none" stroke="black" d="M698.578,-608.049C647.366,-624.171 677.295,-730 611.5,-730"/>
<polygon fill="black" stroke="black" points="705.08,-607.125 713.506,-609.564 709.04,-606.563 713,-606 713,-606 713,-606 709.04,-606.563 712.494,-602.436 705.08,-607.125 705.08,-607.125"/>
<ellipse fill="none" stroke="black" cx="701.911" cy="-607.575" rx="3.2" ry="3.2"/>
</g>
<!-- conditions_miq_policies&#45;&gt;miq_policies -->
<g id="edge6" class="edge"><title>conditions_miq_policies:miq_policy_id:w&#45;&gt;miq_policies:id.type:e</title>
<path fill="none" stroke="black" d="M698.346,-627.736C587.063,-623.704 542.365,-575.65 438,-629 410.098,-643.263 427.836,-686 396.5,-686"/>
<polygon fill="black" stroke="black" points="705.001,-627.856 712.935,-631.599 709.001,-627.928 713,-628 713,-628 713,-628 709.001,-627.928 713.065,-624.401 705.001,-627.856 705.001,-627.856"/>
<ellipse fill="none" stroke="black" cx="701.802" cy="-627.798" rx="3.2" ry="3.2"/>
</g>
<!-- hosts -->
<g id="node6" class="node"><title>hosts</title>
<g id="a_node6"><a xlink:href="../../tables/hosts.html" xlink:title="hosts" target="_top">
<polygon fill="#ffffff" stroke="none" points="248,-116 248,-174 327,-174 327,-116 248,-116"/>
<polygon fill="#f5f5f5" stroke="none" points="248.5,-152 248.5,-174 327.5,-174 327.5,-152 248.5,-152"/>
<polygon fill="none" stroke="black" points="248.5,-152 248.5,-174 327.5,-174 327.5,-152 248.5,-152"/>
<text text-anchor="start" x="253.5" y="-161.2" font-family="Helvetica,sans-Serif" font-weight="bold" font-size="11.00">hosts</text>
<text text-anchor="start" x="288.5" y="-160.2" font-family="Helvetica,sans-Serif" font-size="11.00">[table]</text>
<polygon fill="none" stroke="black" points="248.5,-134 248.5,-152 327.5,-152 327.5,-134 248.5,-134"/>
<text text-anchor="start" x="251.5" y="-140.2" font-family="Helvetica,sans-Serif" font-size="11.00">...</text>
<polygon fill="#ffffff" stroke="none" points="248.5,-116 248.5,-134 277.5,-134 277.5,-116 248.5,-116"/>
<polygon fill="none" stroke="black" points="248.5,-116 248.5,-134 277.5,-134 277.5,-116 248.5,-116"/>
<text text-anchor="start" x="251.5" y="-122.2" font-family="Helvetica,sans-Serif" font-size="11.00">&lt; 3</text>
<polygon fill="#ffffff" stroke="none" points="277.5,-116 277.5,-134 293.5,-134 293.5,-116 277.5,-116"/>
<polygon fill="none" stroke="black" points="277.5,-116 277.5,-134 293.5,-134 293.5,-116 277.5,-116"/>
<text text-anchor="start" x="283.5" y="-122.2" font-family="Helvetica,sans-Serif" font-size="11.00"> &#160;</text>
<polygon fill="#ffffff" stroke="none" points="293.5,-116 293.5,-134 327.5,-134 327.5,-116 293.5,-116"/>
<polygon fill="none" stroke="black" points="293.5,-116 293.5,-134 327.5,-134 327.5,-116 293.5,-116"/>
<text text-anchor="start" x="300.5" y="-122.2" font-family="Helvetica,sans-Serif" font-size="11.00">15 &gt;</text>
</a>
</g>
</g>
<!-- ems_clusters -->
<g id="node7" class="node"><title>ems_clusters</title>
<g id="a_node7"><a xlink:href="../../tables/ems_clusters.html" xlink:title="ems_clusters" target="_top">
<polygon fill="#ffffff" stroke="none" points="8,-90 8,-148 129,-148 129,-90 8,-90"/>
<polygon fill="#f5f5f5" stroke="none" points="8.5,-126 8.5,-148 129.5,-148 129.5,-126 8.5,-126"/>
<polygon fill="none" stroke="black" points="8.5,-126 8.5,-148 129.5,-148 129.5,-126 8.5,-126"/>
<text text-anchor="start" x="13.5" y="-135.2" font-family="Helvetica,sans-Serif" font-weight="bold" font-size="11.00">ems_clusters</text>
<text text-anchor="start" x="90.5" y="-134.2" font-family="Helvetica,sans-Serif" font-size="11.00">[table]</text>
<polygon fill="none" stroke="black" points="8.5,-108 8.5,-126 129.5,-126 129.5,-108 8.5,-108"/>
<text text-anchor="start" x="11.5" y="-114.2" font-family="Helvetica,sans-Serif" font-size="11.00">...</text>
<polygon fill="#ffffff" stroke="none" points="8.5,-90 8.5,-108 57.5,-108 57.5,-90 8.5,-90"/>
<polygon fill="none" stroke="black" points="8.5,-90 8.5,-108 57.5,-108 57.5,-90 8.5,-90"/>
<text text-anchor="start" x="11.5" y="-96.2" font-family="Helvetica,sans-Serif" font-size="11.00"> &#160;</text>
<polygon fill="#ffffff" stroke="none" points="57.5,-90 57.5,-108 88.5,-108 88.5,-90 57.5,-90"/>
<polygon fill="none" stroke="black" points="57.5,-90 57.5,-108 88.5,-108 88.5,-90 57.5,-90"/>
<text text-anchor="start" x="78.5" y="-96.2" font-family="Helvetica,sans-Serif" font-size="11.00"> &#160;</text>
<polygon fill="#ffffff" stroke="none" points="88.5,-90 88.5,-108 129.5,-108 129.5,-90 88.5,-90"/>
<polygon fill="none" stroke="black" points="88.5,-90 88.5,-108 129.5,-108 129.5,-90 88.5,-90"/>
<text text-anchor="start" x="109.5" y="-96.2" font-family="Helvetica,sans-Serif" font-size="11.00">4 &gt;</text>
</a>
</g>
</g>
<!-- hosts&#45;&gt;ems_clusters -->
<g id="edge7" class="edge"><title>hosts:elipses:w&#45;&gt;ems_clusters:elipses:e</title>
<path fill="none" stroke="black" d="M233.039,-142.305C191.78,-138.17 178.566,-117 130.5,-117"/>
<polygon fill="black" stroke="black" points="239.509,-142.616 247.327,-146.596 243.505,-142.808 247.5,-143 247.5,-143 247.5,-143 243.505,-142.808 247.673,-139.404 239.509,-142.616 239.509,-142.616"/>
<ellipse fill="none" stroke="black" cx="236.313" cy="-142.462" rx="3.2" ry="3.2"/>
</g>
<!-- miq_policy_contents -->
<g id="node8" class="node"><title>miq_policy_contents</title>
<g id="a_node8"><a xlink:href="../../tables/miq_policy_contents.html" xlink:title="miq_policy_contents" target="_top">
<polygon fill="#ffffff" stroke="none" points="473,-314 473,-460 638,-460 638,-314 473,-314"/>
<polygon fill="#f5f5f5" stroke="none" points="473.5,-438 473.5,-460 638.5,-460 638.5,-438 473.5,-438"/>
<polygon fill="none" stroke="black" points="473.5,-438 473.5,-460 638.5,-460 638.5,-438 473.5,-438"/>
<text text-anchor="start" x="478.5" y="-447.2" font-family="Helvetica,sans-Serif" font-weight="bold" font-size="11.00">miq_policy_contents</text>
<text text-anchor="start" x="599.5" y="-446.2" font-family="Helvetica,sans-Serif" font-size="11.00">[table]</text>
<polygon fill="none" stroke="black" points="473.5,-416 473.5,-438 638.5,-438 638.5,-416 473.5,-416"/>
<image xlink:href="../../images/primaryKeys.png" width="11px" height="12px" preserveAspectRatio="xMinYMin meet" x="478.5" y="-433"/>
<text text-anchor="start" x="495.5" y="-424.2" font-family="Helvetica,sans-Serif" font-size="11.00">id</text>
<polygon fill="#ffffff" stroke="none" points="473.5,-394 473.5,-416 638.5,-416 638.5,-394 473.5,-394"/>
<polygon fill="none" stroke="black" points="473.5,-394 473.5,-416 638.5,-416 638.5,-394 473.5,-394"/>
<image xlink:href="../../images/foreignKeys.png" width="11px" height="12px" preserveAspectRatio="xMinYMin meet" x="478.5" y="-411"/>
<text text-anchor="start" x="495.5" y="-402.2" font-family="Helvetica,sans-Serif" font-size="11.00">miq_policy_id</text>
<polygon fill="#ffffff" stroke="none" points="473.5,-372 473.5,-394 638.5,-394 638.5,-372 473.5,-372"/>
<polygon fill="none" stroke="black" points="473.5,-372 473.5,-394 638.5,-394 638.5,-372 473.5,-372"/>
<image xlink:href="../../images/foreignKeys.png" width="11px" height="12px" preserveAspectRatio="xMinYMin meet" x="478.5" y="-389"/>
<text text-anchor="start" x="495.5" y="-380.2" font-family="Helvetica,sans-Serif" font-size="11.00">miq_action_id</text>
<polygon fill="#ffffff" stroke="none" points="473.5,-350 473.5,-372 638.5,-372 638.5,-350 473.5,-350"/>
<polygon fill="none" stroke="black" points="473.5,-350 473.5,-372 638.5,-372 638.5,-350 473.5,-350"/>
<image xlink:href="../../images/foreignKeys.png" width="11px" height="12px" preserveAspectRatio="xMinYMin meet" x="478.5" y="-367"/>
<text text-anchor="start" x="495.5" y="-358.2" font-family="Helvetica,sans-Serif" font-size="11.00">miq_event_definition_id</text>
<polygon fill="none" stroke="black" points="473.5,-332 473.5,-350 638.5,-350 638.5,-332 473.5,-332"/>
<text text-anchor="start" x="476.5" y="-338.2" font-family="Helvetica,sans-Serif" font-size="11.00">...</text>
<polygon fill="#ffffff" stroke="none" points="473.5,-314 473.5,-332 554.5,-332 554.5,-314 473.5,-314"/>
<polygon fill="none" stroke="black" points="473.5,-314 473.5,-332 554.5,-332 554.5,-314 473.5,-314"/>
<text text-anchor="start" x="476.5" y="-320.2" font-family="Helvetica,sans-Serif" font-size="11.00">&lt; 3</text>
<polygon fill="#ffffff" stroke="none" points="554.5,-314 554.5,-332 596.5,-332 596.5,-314 554.5,-314"/>
<polygon fill="none" stroke="black" points="554.5,-314 554.5,-332 596.5,-332 596.5,-314 554.5,-314"/>
<text text-anchor="start" x="586.5" y="-320.2" font-family="Helvetica,sans-Serif" font-size="11.00"> &#160;</text>
<polygon fill="#ffffff" stroke="none" points="596.5,-314 596.5,-332 638.5,-332 638.5,-314 596.5,-314"/>
<polygon fill="none" stroke="black" points="596.5,-314 596.5,-332 638.5,-332 638.5,-314 596.5,-314"/>
<text text-anchor="start" x="628.5" y="-320.2" font-family="Helvetica,sans-Serif" font-size="11.00"> &#160;</text>
</a>
</g>
</g>
<!-- miq_policy_contents&#45;&gt;miq_policies -->
<g id="edge10" class="edge"><title>miq_policy_contents:miq_policy_id:w&#45;&gt;miq_policies:id.type:e</title>
<path fill="none" stroke="black" d="M458.834,-410.362C415.775,-449.211 455.882,-686 396.5,-686"/>
<polygon fill="black" stroke="black" points="465.053,-407.922 473.815,-408.351 468.776,-406.461 472.5,-405 472.5,-405 472.5,-405 468.776,-406.461 471.185,-401.649 465.053,-407.922 465.053,-407.922"/>
<ellipse fill="none" stroke="black" cx="462.074" cy="-409.091" rx="3.20001" ry="3.20001"/>
</g>
<!-- miq_actions -->
<g id="node9" class="node"><title>miq_actions</title>
<g id="a_node9"><a xlink:href="../../tables/miq_actions.html" xlink:title="miq_actions" target="_top">
<polygon fill="#ffffff" stroke="none" points="229,-290 229,-348 346,-348 346,-290 229,-290"/>
<polygon fill="#f5f5f5" stroke="none" points="229.5,-326 229.5,-348 346.5,-348 346.5,-326 229.5,-326"/>
<polygon fill="none" stroke="black" points="229.5,-326 229.5,-348 346.5,-348 346.5,-326 229.5,-326"/>
<text text-anchor="start" x="234.5" y="-335.2" font-family="Helvetica,sans-Serif" font-weight="bold" font-size="11.00">miq_actions</text>
<text text-anchor="start" x="307.5" y="-334.2" font-family="Helvetica,sans-Serif" font-size="11.00">[table]</text>
<polygon fill="none" stroke="black" points="229.5,-308 229.5,-326 346.5,-326 346.5,-308 229.5,-308"/>
<text text-anchor="start" x="232.5" y="-314.2" font-family="Helvetica,sans-Serif" font-size="11.00">...</text>
<polygon fill="#ffffff" stroke="none" points="229.5,-290 229.5,-308 276.5,-308 276.5,-290 229.5,-290"/>
<polygon fill="none" stroke="black" points="229.5,-290 229.5,-308 276.5,-308 276.5,-290 229.5,-290"/>
<text text-anchor="start" x="232.5" y="-296.2" font-family="Helvetica,sans-Serif" font-size="11.00"> &#160;</text>
<polygon fill="#ffffff" stroke="none" points="276.5,-290 276.5,-308 306.5,-308 306.5,-290 276.5,-290"/>
<polygon fill="none" stroke="black" points="276.5,-290 276.5,-308 306.5,-308 306.5,-290 276.5,-290"/>
<text text-anchor="start" x="296.5" y="-296.2" font-family="Helvetica,sans-Serif" font-size="11.00"> &#160;</text>
<polygon fill="#ffffff" stroke="none" points="306.5,-290 306.5,-308 346.5,-308 346.5,-290 306.5,-290"/>
<polygon fill="none" stroke="black" points="306.5,-290 306.5,-308 346.5,-308 346.5,-290 306.5,-290"/>
<text text-anchor="start" x="326.5" y="-296.2" font-family="Helvetica,sans-Serif" font-size="11.00">1 &gt;</text>
</a>
</g>
</g>
<!-- miq_policy_contents&#45;&gt;miq_actions -->
<g id="edge8" class="edge"><title>miq_policy_contents:miq_action_id:w&#45;&gt;miq_actions:elipses:e</title>
<path fill="none" stroke="black" d="M457.939,-381.682C409.337,-372.38 405.048,-317 347.5,-317"/>
<polygon fill="black" stroke="black" points="464.533,-382.279 472.175,-386.585 468.516,-382.639 472.5,-383 472.5,-383 472.5,-383 468.516,-382.639 472.825,-379.415 464.533,-382.279 464.533,-382.279"/>
<ellipse fill="none" stroke="black" cx="461.346" cy="-381.99" rx="3.2" ry="3.2"/>
</g>
<!-- miq_event_definitions -->
<g id="node10" class="node"><title>miq_event_definitions</title>
<g id="a_node10"><a xlink:href="../../tables/miq_event_definitions.html" xlink:title="miq_event_definitions" target="_top">
<polygon fill="#ffffff" stroke="none" points="200,-211 200,-269 375,-269 375,-211 200,-211"/>
<polygon fill="#f5f5f5" stroke="none" points="200.5,-247 200.5,-269 375.5,-269 375.5,-247 200.5,-247"/>
<polygon fill="none" stroke="black" points="200.5,-247 200.5,-269 375.5,-269 375.5,-247 200.5,-247"/>
<text text-anchor="start" x="205.5" y="-256.2" font-family="Helvetica,sans-Serif" font-weight="bold" font-size="11.00">miq_event_definitions</text>
<text text-anchor="start" x="336.5" y="-255.2" font-family="Helvetica,sans-Serif" font-size="11.00">[table]</text>
<polygon fill="none" stroke="black" points="200.5,-229 200.5,-247 375.5,-247 375.5,-229 200.5,-229"/>
<text text-anchor="start" x="203.5" y="-235.2" font-family="Helvetica,sans-Serif" font-size="11.00">...</text>
<polygon fill="#ffffff" stroke="none" points="200.5,-211 200.5,-229 276.5,-229 276.5,-211 200.5,-211"/>
<polygon fill="none" stroke="black" points="200.5,-211 200.5,-229 276.5,-229 276.5,-211 200.5,-211"/>
<text text-anchor="start" x="203.5" y="-217.2" font-family="Helvetica,sans-Serif" font-size="11.00"> &#160;</text>
<polygon fill="#ffffff" stroke="none" points="276.5,-211 276.5,-229 320.5,-229 320.5,-211 276.5,-211"/>
<polygon fill="none" stroke="black" points="276.5,-211 276.5,-229 320.5,-229 320.5,-211 276.5,-211"/>
<text text-anchor="start" x="310.5" y="-217.2" font-family="Helvetica,sans-Serif" font-size="11.00"> &#160;</text>
<polygon fill="#ffffff" stroke="none" points="320.5,-211 320.5,-229 375.5,-229 375.5,-211 320.5,-211"/>
<polygon fill="none" stroke="black" points="320.5,-211 320.5,-229 375.5,-229 375.5,-211 320.5,-211"/>
<text text-anchor="start" x="355.5" y="-217.2" font-family="Helvetica,sans-Serif" font-size="11.00">2 &gt;</text>
</a>
</g>
</g>
<!-- miq_policy_contents&#45;&gt;miq_event_definitions -->
<g id="edge9" class="edge"><title>miq_policy_contents:miq_event_definition_id:w&#45;&gt;miq_event_definitions:elipses:e</title>
<path fill="none" stroke="black" d="M458.192,-358.865C409.141,-342.532 440.428,-238 376.5,-238"/>
<polygon fill="black" stroke="black" points="464.588,-359.819 471.969,-364.561 468.544,-360.41 472.5,-361 472.5,-361 472.5,-361 468.544,-360.41 473.031,-357.439 464.588,-359.819 464.588,-359.819"/>
<ellipse fill="none" stroke="black" cx="461.423" cy="-359.347" rx="3.2" ry="3.2"/>
</g>
<!-- policy_event_contents -->
<g id="node11" class="node"><title>policy_event_contents</title>
<g id="a_node11"><a xlink:href="../../tables/policy_event_contents.html" xlink:title="policy_event_contents" target="_top">
<polygon fill="#ffffff" stroke="none" points="718.5,-233 718.5,-291 893.5,-291 893.5,-233 718.5,-233"/>
<polygon fill="#f5f5f5" stroke="none" points="719,-269 719,-291 894,-291 894,-269 719,-269"/>
<polygon fill="none" stroke="black" points="719,-269 719,-291 894,-291 894,-269 719,-269"/>
<text text-anchor="start" x="724" y="-278.2" font-family="Helvetica,sans-Serif" font-weight="bold" font-size="11.00">policy_event_contents</text>
<text text-anchor="start" x="855" y="-277.2" font-family="Helvetica,sans-Serif" font-size="11.00">[table]</text>
<polygon fill="none" stroke="black" points="719,-251 719,-269 894,-269 894,-251 719,-251"/>
<text text-anchor="start" x="722" y="-257.2" font-family="Helvetica,sans-Serif" font-size="11.00">...</text>
<polygon fill="#ffffff" stroke="none" points="719,-233 719,-251 805,-251 805,-233 719,-233"/>
<polygon fill="none" stroke="black" points="719,-233 719,-251 805,-251 805,-233 719,-233"/>
<text text-anchor="start" x="722" y="-239.2" font-family="Helvetica,sans-Serif" font-size="11.00">&lt; 1</text>
<polygon fill="#ffffff" stroke="none" points="805,-233 805,-251 849,-251 849,-233 805,-233"/>
<polygon fill="none" stroke="black" points="805,-233 805,-251 849,-251 849,-233 805,-233"/>
<text text-anchor="start" x="839" y="-239.2" font-family="Helvetica,sans-Serif" font-size="11.00"> &#160;</text>
<polygon fill="#ffffff" stroke="none" points="849,-233 849,-251 894,-251 894,-233 849,-233"/>
<polygon fill="none" stroke="black" points="849,-233 849,-251 894,-251 894,-233 849,-233"/>
<text text-anchor="start" x="884" y="-239.2" font-family="Helvetica,sans-Serif" font-size="11.00"> &#160;</text>
</a>
</g>
</g>
<!-- policy_events -->
<g id="node12" class="node"><title>policy_events</title>
<g id="a_node12"><a xlink:href="../../tables/policy_events.html" xlink:title="policy_events" target="_top">
<polygon fill="#ffffff" stroke="none" points="446,-37 446,-293 665,-293 665,-37 446,-37"/>
<polygon fill="#f5f5f5" stroke="none" points="446.5,-271 446.5,-293 665.5,-293 665.5,-271 446.5,-271"/>
<polygon fill="none" stroke="black" points="446.5,-271 446.5,-293 665.5,-293 665.5,-271 446.5,-271"/>
<text text-anchor="start" x="451.5" y="-280.2" font-family="Helvetica,sans-Serif" font-weight="bold" font-size="11.00">policy_events</text>
<text text-anchor="start" x="626.5" y="-279.2" font-family="Helvetica,sans-Serif" font-size="11.00">[table]</text>
<polygon fill="none" stroke="black" points="446.5,-249 446.5,-271 665.5,-271 665.5,-249 446.5,-249"/>
<image xlink:href="../../images/primaryKeys.png" width="11px" height="12px" preserveAspectRatio="xMinYMin meet" x="451.5" y="-266"/>
<text text-anchor="start" x="466.5" y="-257.2" font-family="Helvetica,sans-Serif" font-size="11.00">id</text>
<polygon fill="#ffffff" stroke="none" points="446.5,-227 446.5,-249 665.5,-249 665.5,-227 446.5,-227"/>
<polygon fill="none" stroke="black" points="446.5,-227 446.5,-249 665.5,-249 665.5,-227 446.5,-227"/>
<image xlink:href="../../images/foreignKeys.png" width="11px" height="12px" preserveAspectRatio="xMinYMin meet" x="451.5" y="-244"/>
<text text-anchor="start" x="466.5" y="-235.2" font-family="Helvetica,sans-Serif" font-size="11.00">miq_event_definition_id</text>
<polygon fill="#ffffff" stroke="none" points="446.5,-205 446.5,-227 665.5,-227 665.5,-205 446.5,-205"/>
<polygon fill="none" stroke="black" points="446.5,-205 446.5,-227 665.5,-227 665.5,-205 446.5,-205"/>
<image xlink:href="../../images/foreignKeys.png" width="11px" height="12px" preserveAspectRatio="xMinYMin meet" x="451.5" y="-222"/>
<text text-anchor="start" x="466.5" y="-213.2" font-family="Helvetica,sans-Serif" font-size="11.00">miq_policy_id</text>
<polygon fill="#ffffff" stroke="none" points="446.5,-183 446.5,-205 665.5,-205 665.5,-183 446.5,-183"/>
<polygon fill="none" stroke="black" points="446.5,-183 446.5,-205 665.5,-205 665.5,-183 446.5,-183"/>
<text text-anchor="start" x="466.5" y="-191.2" font-family="Helvetica,sans-Serif" font-size="11.00">target_id</text>
<polygon fill="#ffffff" stroke="none" points="446.5,-161 446.5,-183 665.5,-183 665.5,-161 446.5,-161"/>
<polygon fill="none" stroke="black" points="446.5,-161 446.5,-183 665.5,-183 665.5,-161 446.5,-161"/>
<text text-anchor="start" x="466.5" y="-169.2" font-family="Helvetica,sans-Serif" font-size="11.00">target_class</text>
<polygon fill="#ffffff" stroke="none" points="446.5,-139 446.5,-161 665.5,-161 665.5,-139 446.5,-139"/>
<polygon fill="none" stroke="black" points="446.5,-139 446.5,-161 665.5,-161 665.5,-139 446.5,-139"/>
<text text-anchor="start" x="466.5" y="-147.2" font-family="Helvetica,sans-Serif" font-size="11.00">chain_id</text>
<polygon fill="#ffffff" stroke="none" points="446.5,-117 446.5,-139 665.5,-139 665.5,-117 446.5,-117"/>
<polygon fill="none" stroke="black" points="446.5,-117 446.5,-139 665.5,-139 665.5,-117 446.5,-117"/>
<image xlink:href="../../images/foreignKeys.png" width="11px" height="12px" preserveAspectRatio="xMinYMin meet" x="451.5" y="-134"/>
<text text-anchor="start" x="466.5" y="-125.2" font-family="Helvetica,sans-Serif" font-size="11.00">host_id</text>
<polygon fill="#ffffff" stroke="none" points="446.5,-95 446.5,-117 665.5,-117 665.5,-95 446.5,-95"/>
<polygon fill="none" stroke="black" points="446.5,-95 446.5,-117 665.5,-117 665.5,-95 446.5,-95"/>
<image xlink:href="../../images/foreignKeys.png" width="11px" height="12px" preserveAspectRatio="xMinYMin meet" x="451.5" y="-112"/>
<text text-anchor="start" x="466.5" y="-103.2" font-family="Helvetica,sans-Serif" font-size="11.00">ems_cluster_id</text>
<polygon fill="#ffffff" stroke="none" points="446.5,-73 446.5,-95 665.5,-95 665.5,-73 446.5,-73"/>
<polygon fill="none" stroke="black" points="446.5,-73 446.5,-95 665.5,-95 665.5,-73 446.5,-73"/>
<text text-anchor="start" x="466.5" y="-81.2" font-family="Helvetica,sans-Serif" font-size="11.00">ems_id</text>
<polygon fill="none" stroke="black" points="446.5,-55 446.5,-73 665.5,-73 665.5,-55 446.5,-55"/>
<text text-anchor="start" x="449.5" y="-61.2" font-family="Helvetica,sans-Serif" font-size="11.00">...</text>
<polygon fill="#ffffff" stroke="none" points="446.5,-37 446.5,-55 549.5,-55 549.5,-37 446.5,-37"/>
<polygon fill="none" stroke="black" points="446.5,-37 446.5,-55 549.5,-55 549.5,-37 446.5,-37"/>
<text text-anchor="start" x="449.5" y="-43.2" font-family="Helvetica,sans-Serif" font-size="11.00">&lt; 4</text>
<polygon fill="#ffffff" stroke="none" points="549.5,-37 549.5,-55 602.5,-55 602.5,-37 549.5,-37"/>
<polygon fill="none" stroke="black" points="549.5,-37 549.5,-55 602.5,-55 602.5,-37 549.5,-37"/>
<text text-anchor="start" x="592.5" y="-43.2" font-family="Helvetica,sans-Serif" font-size="11.00"> &#160;</text>
<polygon fill="#ffffff" stroke="none" points="602.5,-37 602.5,-55 665.5,-55 665.5,-37 602.5,-37"/>
<polygon fill="none" stroke="black" points="602.5,-37 602.5,-55 665.5,-55 665.5,-37 602.5,-37"/>
<text text-anchor="start" x="645.5" y="-43.2" font-family="Helvetica,sans-Serif" font-size="11.00">1 &gt;</text>
</a>
</g>
</g>
<!-- policy_event_contents&#45;&gt;policy_events -->
<g id="edge11" class="edge"><title>policy_event_contents:elipses:w&#45;&gt;policy_events:id:e</title>
<path fill="none" stroke="black" d="M703.516,-260C691.177,-260 683.667,-260 666.5,-260"/>
<polygon fill="black" stroke="black" points="710,-260 718,-263.6 714,-260 718,-260 718,-260 718,-260 714,-260 718,-256.4 710,-260 710,-260"/>
<ellipse fill="none" stroke="black" cx="706.8" cy="-260" rx="3.2" ry="3.2"/>
</g>
<!-- policy_events&#45;&gt;miq_policies -->
<g id="edge15" class="edge"><title>policy_events:miq_policy_id:w&#45;&gt;miq_policies:id.type:e</title>
<path fill="none" stroke="black" d="M431.491,-219.513C356.157,-262.522 496.178,-686 396.5,-686"/>
<polygon fill="black" stroke="black" points="437.74,-217.946 446.376,-219.492 441.62,-216.973 445.5,-216 445.5,-216 445.5,-216 441.62,-216.973 444.624,-212.508 437.74,-217.946 437.74,-217.946"/>
<ellipse fill="none" stroke="black" cx="434.636" cy="-218.724" rx="3.2" ry="3.2"/>
</g>
<!-- policy_events&#45;&gt;hosts -->
<g id="edge13" class="edge"><title>policy_events:host_id:w&#45;&gt;hosts:elipses:e</title>
<path fill="none" stroke="black" d="M430.953,-128.417C390.254,-130.839 375.704,-143 328.5,-143"/>
<polygon fill="black" stroke="black" points="437.503,-128.229 445.603,-131.599 441.502,-128.115 445.5,-128 445.5,-128 445.5,-128 441.502,-128.115 445.397,-124.401 437.503,-128.229 437.503,-128.229"/>
<ellipse fill="none" stroke="black" cx="434.305" cy="-128.321" rx="3.2" ry="3.2"/>
</g>
<!-- policy_events&#45;&gt;ems_clusters -->
<g id="edge12" class="edge"><title>policy_events:ems_cluster_id:w&#45;&gt;ems_clusters:elipses:e</title>
<path fill="none" stroke="black" d="M430.905,-105.787C422.952,-105.54 416.956,-105.148 405,-105 300.564,-103.711 273.311,-89.6535 170,-105 151.851,-107.696 148.848,-117 130.5,-117"/>
<polygon fill="black" stroke="black" points="437.501,-105.883 445.447,-109.6 441.5,-105.942 445.5,-106 445.5,-106 445.5,-106 441.5,-105.942 445.553,-102.4 437.501,-105.883 437.501,-105.883"/>
<ellipse fill="none" stroke="black" cx="434.301" cy="-105.837" rx="3.2" ry="3.2"/>
</g>
<!-- policy_events&#45;&gt;miq_event_definitions -->
<g id="edge14" class="edge"><title>policy_events:miq_event_definition_id:w&#45;&gt;miq_event_definitions:elipses:e</title>
<path fill="none" stroke="black" d="M430.93,-238C411.336,-238 401.656,-238 376.5,-238"/>
<polygon fill="black" stroke="black" points="437.5,-238 445.5,-241.6 441.5,-238 445.5,-238 445.5,-238 445.5,-238 441.5,-238 445.5,-234.4 437.5,-238 437.5,-238"/>
<ellipse fill="none" stroke="black" cx="434.3" cy="-238" rx="3.2" ry="3.2"/>
</g>
</g>
</svg>
