<?xml version="1.0" encoding="UTF-8" standalone="no"?>
<!DOCTYPE svg PUBLIC "-//W3C//DTD SVG 1.1//EN"
 "http://www.w3.org/Graphics/SVG/1.1/DTD/svg11.dtd">
<!-- Generated by graphviz version 2.38.0 (20140413.2041)
 -->
<!-- Title: oneDegreeRelationshipsDiagram Pages: 1 -->
<svg width="1211pt" height="525pt"
 viewBox="0.00 0.00 1211.00 525.00" xmlns="http://www.w3.org/2000/svg" xmlns:xlink="http://www.w3.org/1999/xlink">
<g id="graph0" class="graph" transform="scale(1 1) rotate(0) translate(4 521)">
<title>oneDegreeRelationshipsDiagram</title>
<polygon fill="#ffffff" stroke="none" points="-4,4 -4,-521 1207,-521 1207,4 -4,4"/>
<text text-anchor="middle" x="74.5" y="-7.2" font-family="Helvetica,sans-Serif" font-size="11.00">Generated by SchemaSpy</text>
<!-- cloud_subnets -->
<g id="node1" class="node"><title>cloud_subnets</title>
<g id="a_node1"><a xlink:href="../../tables/cloud_subnets.html" xlink:title="cloud_subnets" target="_top">
<polygon fill="#ffffff" stroke="none" points="769,-44 769,-300 990,-300 990,-44 769,-44"/>
<polygon fill="#f5f5f5" stroke="none" points="769.5,-278 769.5,-300 990.5,-300 990.5,-278 769.5,-278"/>
<polygon fill="none" stroke="black" points="769.5,-278 769.5,-300 990.5,-300 990.5,-278 769.5,-278"/>
<text text-anchor="start" x="774.5" y="-287.2" font-family="Helvetica,sans-Serif" font-weight="bold" font-size="11.00">cloud_subnets</text>
<text text-anchor="start" x="951.5" y="-286.2" font-family="Helvetica,sans-Serif" font-size="11.00">[table]</text>
<polygon fill="none" stroke="black" points="769.5,-256 769.5,-278 990.5,-278 990.5,-256 769.5,-256"/>
<image xlink:href="../../images/primaryKeys.png" width="11px" height="12px" preserveAspectRatio="xMinYMin meet" x="774.5" y="-273"/>
<text text-anchor="start" x="789.5" y="-264.2" font-family="Helvetica,sans-Serif" font-size="11.00">id</text>
<polygon fill="#ffffff" stroke="none" points="769.5,-234 769.5,-256 990.5,-256 990.5,-234 769.5,-234"/>
<polygon fill="none" stroke="black" points="769.5,-234 769.5,-256 990.5,-256 990.5,-234 769.5,-234"/>
<text text-anchor="start" x="789.5" y="-242.2" font-family="Helvetica,sans-Serif" font-size="11.00">ems_id</text>
<polygon fill="none" stroke="black" points="769.5,-212 769.5,-234 990.5,-234 990.5,-212 769.5,-212"/>
<image xlink:href="../../images/foreignKeys.png" width="11px" height="12px" preserveAspectRatio="xMinYMin meet" x="774.5" y="-229"/>
<text text-anchor="start" x="789.5" y="-220.2" font-family="Helvetica,sans-Serif" font-size="11.00">availability_zone_id</text>
<polygon fill="#ffffff" stroke="none" points="769.5,-190 769.5,-212 990.5,-212 990.5,-190 769.5,-190"/>
<polygon fill="none" stroke="black" points="769.5,-190 769.5,-212 990.5,-212 990.5,-190 769.5,-190"/>
<image xlink:href="../../images/foreignKeys.png" width="11px" height="12px" preserveAspectRatio="xMinYMin meet" x="774.5" y="-207"/>
<text text-anchor="start" x="789.5" y="-198.2" font-family="Helvetica,sans-Serif" font-size="11.00">cloud_network_id</text>
<polygon fill="#ffffff" stroke="none" points="769.5,-168 769.5,-190 990.5,-190 990.5,-168 769.5,-168"/>
<polygon fill="none" stroke="black" points="769.5,-168 769.5,-190 990.5,-190 990.5,-168 769.5,-168"/>
<image xlink:href="../../images/foreignKeys.png" width="11px" height="12px" preserveAspectRatio="xMinYMin meet" x="774.5" y="-185"/>
<text text-anchor="start" x="789.5" y="-176.2" font-family="Helvetica,sans-Serif" font-size="11.00">cloud_tenant_id</text>
<polygon fill="#ffffff" stroke="none" points="769.5,-146 769.5,-168 990.5,-168 990.5,-146 769.5,-146"/>
<polygon fill="none" stroke="black" points="769.5,-146 769.5,-168 990.5,-168 990.5,-146 769.5,-146"/>
<text text-anchor="start" x="789.5" y="-154.2" font-family="Helvetica,sans-Serif" font-size="11.00">type</text>
<polygon fill="none" stroke="black" points="769.5,-124 769.5,-146 990.5,-146 990.5,-124 769.5,-124"/>
<image xlink:href="../../images/foreignKeys.png" width="11px" height="12px" preserveAspectRatio="xMinYMin meet" x="774.5" y="-141"/>
<text text-anchor="start" x="789.5" y="-132.2" font-family="Helvetica,sans-Serif" font-size="11.00">network_router_id</text>
<polygon fill="#ffffff" stroke="none" points="769.5,-102 769.5,-124 990.5,-124 990.5,-102 769.5,-102"/>
<polygon fill="none" stroke="black" points="769.5,-102 769.5,-124 990.5,-124 990.5,-102 769.5,-102"/>
<image xlink:href="../../images/foreignKeys.png" width="11px" height="12px" preserveAspectRatio="xMinYMin meet" x="774.5" y="-119"/>
<text text-anchor="start" x="789.5" y="-110.2" font-family="Helvetica,sans-Serif" font-size="11.00">network_group_id</text>
<polygon fill="#ffffff" stroke="none" points="769.5,-80 769.5,-102 990.5,-102 990.5,-80 769.5,-80"/>
<polygon fill="none" stroke="black" points="769.5,-80 769.5,-102 990.5,-102 990.5,-80 769.5,-80"/>
<text text-anchor="start" x="789.5" y="-88.2" font-family="Helvetica,sans-Serif" font-size="11.00">parent_cloud_subnet_id</text>
<polygon fill="none" stroke="black" points="769.5,-62 769.5,-80 990.5,-80 990.5,-62 769.5,-62"/>
<text text-anchor="start" x="772.5" y="-68.2" font-family="Helvetica,sans-Serif" font-size="11.00">...</text>
<polygon fill="#ffffff" stroke="none" points="769.5,-44 769.5,-62 873.5,-62 873.5,-44 769.5,-44"/>
<polygon fill="none" stroke="black" points="769.5,-44 769.5,-62 873.5,-62 873.5,-44 769.5,-44"/>
<text text-anchor="start" x="772.5" y="-50.2" font-family="Helvetica,sans-Serif" font-size="11.00">&lt; 5</text>
<polygon fill="#ffffff" stroke="none" points="873.5,-44 873.5,-62 926.5,-62 926.5,-44 873.5,-44"/>
<polygon fill="none" stroke="black" points="873.5,-44 873.5,-62 926.5,-62 926.5,-44 873.5,-44"/>
<text text-anchor="start" x="916.5" y="-50.2" font-family="Helvetica,sans-Serif" font-size="11.00"> &#160;</text>
<polygon fill="#ffffff" stroke="none" points="926.5,-44 926.5,-62 990.5,-62 990.5,-44 926.5,-44"/>
<polygon fill="none" stroke="black" points="926.5,-44 926.5,-62 990.5,-62 990.5,-44 926.5,-44"/>
<text text-anchor="start" x="970.5" y="-50.2" font-family="Helvetica,sans-Serif" font-size="11.00">4 &gt;</text>
</a>
</g>
</g>
<!-- network_groups -->
<g id="node2" class="node"><title>network_groups</title>
<g id="a_node2"><a xlink:href="../../tables/network_groups.html" xlink:title="network_groups" target="_top">
<polygon fill="#ffffff" stroke="none" points="247,-45 247,-287 528,-287 528,-45 247,-45"/>
<polygon fill="#f5f5f5" stroke="none" points="249.5,-263 249.5,-285 526.5,-285 526.5,-263 249.5,-263"/>
<polygon fill="none" stroke="black" points="249.5,-263 249.5,-285 526.5,-285 526.5,-263 249.5,-263"/>
<text text-anchor="start" x="254.5" y="-272.2" font-family="Helvetica,sans-Serif" font-weight="bold" font-size="11.00">network_groups</text>
<text text-anchor="start" x="487.5" y="-271.2" font-family="Helvetica,sans-Serif" font-size="11.00">[table]</text>
<polygon fill="none" stroke="black" points="249.5,-241 249.5,-263 405.5,-263 405.5,-241 249.5,-241"/>
<image xlink:href="../../images/primaryKeys.png" width="11px" height="12px" preserveAspectRatio="xMinYMin meet" x="254.5" y="-258"/>
<text text-anchor="start" x="269.5" y="-249.2" font-family="Helvetica,sans-Serif" font-size="11.00">id</text>
<polygon fill="none" stroke="black" points="405.5,-241 405.5,-263 526.5,-263 526.5,-241 405.5,-241"/>
<text text-anchor="start" x="408.5" y="-249.2" font-family="Helvetica,sans-Serif" font-size="11.00">bigserial[19]</text>
<polygon fill="none" stroke="black" points="249.5,-219 249.5,-241 405.5,-241 405.5,-219 249.5,-219"/>
<text text-anchor="start" x="269.5" y="-227.2" font-family="Helvetica,sans-Serif" font-size="11.00">ems_ref</text>
<polygon fill="none" stroke="black" points="405.5,-219 405.5,-241 526.5,-241 526.5,-219 405.5,-219"/>
<text text-anchor="start" x="408.5" y="-227.2" font-family="Helvetica,sans-Serif" font-size="11.00">varchar[2147483647]</text>
<polygon fill="none" stroke="black" points="249.5,-197 249.5,-219 405.5,-219 405.5,-197 249.5,-197"/>
<text text-anchor="start" x="269.5" y="-205.2" font-family="Helvetica,sans-Serif" font-size="11.00">name</text>
<polygon fill="none" stroke="black" points="405.5,-197 405.5,-219 526.5,-219 526.5,-197 405.5,-197"/>
<text text-anchor="start" x="408.5" y="-205.2" font-family="Helvetica,sans-Serif" font-size="11.00">varchar[2147483647]</text>
<polygon fill="none" stroke="black" points="249.5,-175 249.5,-197 405.5,-197 405.5,-175 249.5,-175"/>
<text text-anchor="start" x="269.5" y="-183.2" font-family="Helvetica,sans-Serif" font-size="11.00">cidr</text>
<polygon fill="none" stroke="black" points="405.5,-175 405.5,-197 526.5,-197 526.5,-175 405.5,-175"/>
<text text-anchor="start" x="408.5" y="-183.2" font-family="Helvetica,sans-Serif" font-size="11.00">varchar[2147483647]</text>
<polygon fill="none" stroke="black" points="249.5,-153 249.5,-175 405.5,-175 405.5,-153 249.5,-153"/>
<text text-anchor="start" x="269.5" y="-161.2" font-family="Helvetica,sans-Serif" font-size="11.00">status</text>
<polygon fill="none" stroke="black" points="405.5,-153 405.5,-175 526.5,-175 526.5,-153 405.5,-153"/>
<text text-anchor="start" x="408.5" y="-161.2" font-family="Helvetica,sans-Serif" font-size="11.00">varchar[2147483647]</text>
<polygon fill="none" stroke="black" points="249.5,-131 249.5,-153 405.5,-153 405.5,-131 249.5,-131"/>
<text text-anchor="start" x="269.5" y="-139.2" font-family="Helvetica,sans-Serif" font-size="11.00">enabled</text>
<polygon fill="none" stroke="black" points="405.5,-131 405.5,-153 526.5,-153 526.5,-131 405.5,-131"/>
<text text-anchor="start" x="408.5" y="-139.2" font-family="Helvetica,sans-Serif" font-size="11.00">bool[1]</text>
<polygon fill="#ffffff" stroke="none" points="249.5,-109 249.5,-131 405.5,-131 405.5,-109 249.5,-109"/>
<polygon fill="none" stroke="black" points="249.5,-109 249.5,-131 405.5,-131 405.5,-109 249.5,-109"/>
<text text-anchor="start" x="269.5" y="-117.2" font-family="Helvetica,sans-Serif" font-size="11.00">ems_id</text>
<polygon fill="none" stroke="black" points="405.5,-109 405.5,-131 526.5,-131 526.5,-109 405.5,-109"/>
<text text-anchor="start" x="408.5" y="-117.2" font-family="Helvetica,sans-Serif" font-size="11.00">int8[19]</text>
<polygon fill="#ffffff" stroke="none" points="249.5,-87 249.5,-109 405.5,-109 405.5,-87 249.5,-87"/>
<polygon fill="none" stroke="black" points="249.5,-87 249.5,-109 405.5,-109 405.5,-87 249.5,-87"/>
<image xlink:href="../../images/foreignKeys.png" width="11px" height="12px" preserveAspectRatio="xMinYMin meet" x="254.5" y="-104"/>
<text text-anchor="start" x="269.5" y="-95.2" font-family="Helvetica,sans-Serif" font-size="11.00">orchestration_stack_id</text>
<polygon fill="none" stroke="black" points="405.5,-87 405.5,-109 526.5,-109 526.5,-87 405.5,-87"/>
<text text-anchor="start" x="408.5" y="-95.2" font-family="Helvetica,sans-Serif" font-size="11.00">int8[19]</text>
<polygon fill="#ffffff" stroke="none" points="249.5,-65 249.5,-87 405.5,-87 405.5,-65 249.5,-65"/>
<polygon fill="none" stroke="black" points="249.5,-65 249.5,-87 405.5,-87 405.5,-65 249.5,-65"/>
<text text-anchor="start" x="269.5" y="-73.2" font-family="Helvetica,sans-Serif" font-size="11.00">type</text>
<polygon fill="none" stroke="black" points="405.5,-65 405.5,-87 526.5,-87 526.5,-65 405.5,-65"/>
<text text-anchor="start" x="408.5" y="-73.2" font-family="Helvetica,sans-Serif" font-size="11.00">varchar[2147483647]</text>
<polygon fill="#ffffff" stroke="none" points="249.5,-47 249.5,-65 332.5,-65 332.5,-47 249.5,-47"/>
<polygon fill="none" stroke="black" points="249.5,-47 249.5,-65 332.5,-65 332.5,-47 249.5,-47"/>
<text text-anchor="start" x="252.5" y="-53.2" font-family="Helvetica,sans-Serif" font-size="11.00">&lt; 1</text>
<polygon fill="#ffffff" stroke="none" points="332.5,-47 332.5,-65 405.5,-65 405.5,-47 332.5,-47"/>
<polygon fill="none" stroke="black" points="332.5,-47 332.5,-65 405.5,-65 405.5,-47 332.5,-47"/>
<text text-anchor="start" x="395.5" y="-53.2" font-family="Helvetica,sans-Serif" font-size="11.00"> &#160;</text>
<polygon fill="#ffffff" stroke="none" points="405.5,-47 405.5,-65 526.5,-65 526.5,-47 405.5,-47"/>
<polygon fill="none" stroke="black" points="405.5,-47 405.5,-65 526.5,-65 526.5,-47 405.5,-47"/>
<text text-anchor="start" x="506.5" y="-53.2" font-family="Helvetica,sans-Serif" font-size="11.00">3 &gt;</text>
<polygon fill="none" stroke="black" stroke-width="2" points="248,-46 248,-286 527,-286 527,-46 248,-46"/>
</a>
</g>
</g>
<!-- cloud_subnets&#45;&gt;network_groups -->
<g id="edge1" class="edge"><title>cloud_subnets:network_group_id:w&#45;&gt;network_groups:id.type:e</title>
<path fill="none" stroke="black" d="M753.854,-112.627C674.974,-108.618 635.278,-74.6838 569,-126 522.381,-162.095 586.459,-252 527.5,-252"/>
<polygon fill="black" stroke="black" points="760.503,-112.796 768.408,-116.599 764.501,-112.898 768.5,-113 768.5,-113 768.5,-113 764.501,-112.898 768.592,-109.401 760.503,-112.796 760.503,-112.796"/>
<ellipse fill="none" stroke="black" cx="757.304" cy="-112.714" rx="3.2" ry="3.2"/>
</g>
<!-- network_routers -->
<g id="node3" class="node"><title>network_routers</title>
<g id="a_node3"><a xlink:href="../../tables/network_routers.html" xlink:title="network_routers" target="_top">
<polygon fill="#ffffff" stroke="none" points="577,-137 577,-327 720,-327 720,-137 577,-137"/>
<polygon fill="#f5f5f5" stroke="none" points="577.5,-305 577.5,-327 720.5,-327 720.5,-305 577.5,-305"/>
<polygon fill="none" stroke="black" points="577.5,-305 577.5,-327 720.5,-327 720.5,-305 577.5,-305"/>
<text text-anchor="start" x="582.5" y="-314.2" font-family="Helvetica,sans-Serif" font-weight="bold" font-size="11.00">network_routers</text>
<text text-anchor="start" x="681.5" y="-313.2" font-family="Helvetica,sans-Serif" font-size="11.00">[table]</text>
<polygon fill="none" stroke="black" points="577.5,-283 577.5,-305 720.5,-305 720.5,-283 577.5,-283"/>
<image xlink:href="../../images/primaryKeys.png" width="11px" height="12px" preserveAspectRatio="xMinYMin meet" x="582.5" y="-300"/>
<text text-anchor="start" x="605.5" y="-291.2" font-family="Helvetica,sans-Serif" font-size="11.00">id</text>
<polygon fill="#ffffff" stroke="none" points="577.5,-261 577.5,-283 720.5,-283 720.5,-261 577.5,-261"/>
<polygon fill="none" stroke="black" points="577.5,-261 577.5,-283 720.5,-283 720.5,-261 577.5,-261"/>
<text text-anchor="start" x="605.5" y="-269.2" font-family="Helvetica,sans-Serif" font-size="11.00">type</text>
<polygon fill="#ffffff" stroke="none" points="577.5,-239 577.5,-261 720.5,-261 720.5,-239 577.5,-239"/>
<polygon fill="none" stroke="black" points="577.5,-239 577.5,-261 720.5,-261 720.5,-239 577.5,-239"/>
<text text-anchor="start" x="605.5" y="-247.2" font-family="Helvetica,sans-Serif" font-size="11.00">ems_id</text>
<polygon fill="#ffffff" stroke="none" points="577.5,-217 577.5,-239 720.5,-239 720.5,-217 577.5,-217"/>
<polygon fill="none" stroke="black" points="577.5,-217 577.5,-239 720.5,-239 720.5,-217 577.5,-217"/>
<image xlink:href="../../images/foreignKeys.png" width="11px" height="12px" preserveAspectRatio="xMinYMin meet" x="582.5" y="-234"/>
<text text-anchor="start" x="605.5" y="-225.2" font-family="Helvetica,sans-Serif" font-size="11.00">cloud_network_id</text>
<polygon fill="#ffffff" stroke="none" points="577.5,-195 577.5,-217 720.5,-217 720.5,-195 577.5,-195"/>
<polygon fill="none" stroke="black" points="577.5,-195 577.5,-217 720.5,-217 720.5,-195 577.5,-195"/>
<image xlink:href="../../images/foreignKeys.png" width="11px" height="12px" preserveAspectRatio="xMinYMin meet" x="582.5" y="-212"/>
<text text-anchor="start" x="605.5" y="-203.2" font-family="Helvetica,sans-Serif" font-size="11.00">cloud_tenant_id</text>
<polygon fill="#ffffff" stroke="none" points="577.5,-173 577.5,-195 720.5,-195 720.5,-173 577.5,-173"/>
<polygon fill="none" stroke="black" points="577.5,-173 577.5,-195 720.5,-195 720.5,-173 577.5,-173"/>
<image xlink:href="../../images/foreignKeys.png" width="11px" height="12px" preserveAspectRatio="xMinYMin meet" x="582.5" y="-190"/>
<text text-anchor="start" x="605.5" y="-181.2" font-family="Helvetica,sans-Serif" font-size="11.00">network_group_id</text>
<polygon fill="none" stroke="black" points="577.5,-155 577.5,-173 720.5,-173 720.5,-155 577.5,-155"/>
<text text-anchor="start" x="580.5" y="-161.2" font-family="Helvetica,sans-Serif" font-size="11.00">...</text>
<polygon fill="#ffffff" stroke="none" points="577.5,-137 577.5,-155 642.5,-155 642.5,-137 577.5,-137"/>
<polygon fill="none" stroke="black" points="577.5,-137 577.5,-155 642.5,-155 642.5,-137 577.5,-137"/>
<text text-anchor="start" x="580.5" y="-143.2" font-family="Helvetica,sans-Serif" font-size="11.00">&lt; 3</text>
<polygon fill="#ffffff" stroke="none" points="642.5,-137 642.5,-155 676.5,-155 676.5,-137 642.5,-137"/>
<polygon fill="none" stroke="black" points="642.5,-137 642.5,-155 676.5,-155 676.5,-137 642.5,-137"/>
<text text-anchor="start" x="666.5" y="-143.2" font-family="Helvetica,sans-Serif" font-size="11.00"> &#160;</text>
<polygon fill="#ffffff" stroke="none" points="676.5,-137 676.5,-155 720.5,-155 720.5,-137 676.5,-137"/>
<polygon fill="none" stroke="black" points="676.5,-137 676.5,-155 720.5,-155 720.5,-137 676.5,-137"/>
<text text-anchor="start" x="700.5" y="-143.2" font-family="Helvetica,sans-Serif" font-size="11.00">3 &gt;</text>
</a>
</g>
</g>
<!-- cloud_subnets&#45;&gt;network_routers -->
<g id="edge2" class="edge"><title>cloud_subnets:network_router_id:w&#45;&gt;network_routers:id:e</title>
<path fill="none" stroke="black" d="M754.25,-137.76C709.432,-158.873 789.432,-294 721.5,-294"/>
<polygon fill="black" stroke="black" points="760.646,-136.521 769.185,-138.534 764.573,-135.761 768.5,-135 768.5,-135 768.5,-135 764.573,-135.761 767.815,-131.466 760.646,-136.521 760.646,-136.521"/>
<ellipse fill="none" stroke="black" cx="757.504" cy="-137.13" rx="3.2" ry="3.2"/>
</g>
<!-- orchestration_stacks -->
<g id="node4" class="node"><title>orchestration_stacks</title>
<g id="a_node4"><a xlink:href="../../tables/orchestration_stacks.html" xlink:title="orchestration_stacks" target="_top">
<polygon fill="#ffffff" stroke="none" points="8,-37 8,-271 198,-271 198,-37 8,-37"/>
<polygon fill="#f5f5f5" stroke="none" points="8,-249 8,-271 198,-271 198,-249 8,-249"/>
<polygon fill="none" stroke="black" points="8,-249 8,-271 198,-271 198,-249 8,-249"/>
<text text-anchor="start" x="13" y="-258.2" font-family="Helvetica,sans-Serif" font-weight="bold" font-size="11.00">orchestration_stacks</text>
<text text-anchor="start" x="159" y="-257.2" font-family="Helvetica,sans-Serif" font-size="11.00">[table]</text>
<polygon fill="none" stroke="black" points="8,-227 8,-249 198,-249 198,-227 8,-227"/>
<image xlink:href="../../images/primaryKeys.png" width="11px" height="12px" preserveAspectRatio="xMinYMin meet" x="13" y="-244"/>
<text text-anchor="start" x="28" y="-235.2" font-family="Helvetica,sans-Serif" font-size="11.00">id</text>
<polygon fill="#ffffff" stroke="none" points="8,-205 8,-227 198,-227 198,-205 8,-205"/>
<polygon fill="none" stroke="black" points="8,-205 8,-227 198,-227 198,-205 8,-205"/>
<text text-anchor="start" x="28" y="-213.2" font-family="Helvetica,sans-Serif" font-size="11.00">type</text>
<polygon fill="#ffffff" stroke="none" points="8,-183 8,-205 198,-205 198,-183 8,-183"/>
<polygon fill="none" stroke="black" points="8,-183 8,-205 198,-205 198,-183 8,-183"/>
<text text-anchor="start" x="28" y="-191.2" font-family="Helvetica,sans-Serif" font-size="11.00">ancestry</text>
<polygon fill="#ffffff" stroke="none" points="8,-161 8,-183 198,-183 198,-161 8,-161"/>
<polygon fill="none" stroke="black" points="8,-161 8,-183 198,-183 198,-161 8,-161"/>
<image xlink:href="../../images/foreignKeys.png" width="11px" height="12px" preserveAspectRatio="xMinYMin meet" x="13" y="-178"/>
<text text-anchor="start" x="28" y="-169.2" font-family="Helvetica,sans-Serif" font-size="11.00">orchestration_template_id</text>
<polygon fill="none" stroke="black" points="8,-139 8,-161 198,-161 198,-139 8,-139"/>
<image xlink:href="../../images/foreignKeys.png" width="11px" height="12px" preserveAspectRatio="xMinYMin meet" x="13" y="-156"/>
<text text-anchor="start" x="28" y="-147.2" font-family="Helvetica,sans-Serif" font-size="11.00">cloud_tenant_id</text>
<polygon fill="#ffffff" stroke="none" points="8,-117 8,-139 198,-139 198,-117 8,-117"/>
<polygon fill="none" stroke="black" points="8,-117 8,-139 198,-139 198,-117 8,-117"/>
<text text-anchor="start" x="28" y="-125.2" font-family="Helvetica,sans-Serif" font-size="11.00">evm_owner_id</text>
<polygon fill="#ffffff" stroke="none" points="8,-95 8,-117 198,-117 198,-95 8,-95"/>
<polygon fill="none" stroke="black" points="8,-95 8,-117 198,-117 198,-95 8,-95"/>
<image xlink:href="../../images/foreignKeys.png" width="11px" height="12px" preserveAspectRatio="xMinYMin meet" x="13" y="-112"/>
<text text-anchor="start" x="28" y="-103.2" font-family="Helvetica,sans-Serif" font-size="11.00">miq_group_id</text>
<polygon fill="#ffffff" stroke="none" points="8,-73 8,-95 198,-95 198,-73 8,-73"/>
<polygon fill="none" stroke="black" points="8,-73 8,-95 198,-95 198,-73 8,-73"/>
<image xlink:href="../../images/foreignKeys.png" width="11px" height="12px" preserveAspectRatio="xMinYMin meet" x="13" y="-90"/>
<text text-anchor="start" x="28" y="-81.2" font-family="Helvetica,sans-Serif" font-size="11.00">tenant_id</text>
<polygon fill="none" stroke="black" points="8,-55 8,-73 198,-73 198,-55 8,-55"/>
<text text-anchor="start" x="11" y="-61.2" font-family="Helvetica,sans-Serif" font-size="11.00">...</text>
<polygon fill="#ffffff" stroke="none" points="8,-37 8,-55 96,-55 96,-37 8,-37"/>
<polygon fill="none" stroke="black" points="8,-37 8,-55 96,-55 96,-37 8,-37"/>
<text text-anchor="start" x="11" y="-43.2" font-family="Helvetica,sans-Serif" font-size="11.00">&lt; 4</text>
<polygon fill="#ffffff" stroke="none" points="96,-37 96,-55 142,-55 142,-37 96,-37"/>
<polygon fill="none" stroke="black" points="96,-37 96,-55 142,-55 142,-37 96,-37"/>
<text text-anchor="start" x="132" y="-43.2" font-family="Helvetica,sans-Serif" font-size="11.00"> &#160;</text>
<polygon fill="#ffffff" stroke="none" points="142,-37 142,-55 198,-55 198,-37 142,-37"/>
<polygon fill="none" stroke="black" points="142,-37 142,-55 198,-55 198,-37 142,-37"/>
<text text-anchor="start" x="178" y="-43.2" font-family="Helvetica,sans-Serif" font-size="11.00">6 &gt;</text>
</a>
</g>
</g>
<!-- network_groups&#45;&gt;orchestration_stacks -->
<g id="edge3" class="edge"><title>network_groups:orchestration_stack_id:w&#45;&gt;orchestration_stacks:id:e</title>
<path fill="none" stroke="black" d="M234.092,-101.187C196.128,-122.026 259.068,-238 199,-238"/>
<polygon fill="black" stroke="black" points="240.689,-99.7279 249.278,-101.515 244.594,-98.864 248.5,-98 248.5,-98 248.5,-98 244.594,-98.864 247.722,-94.485 240.689,-99.7279 240.689,-99.7279"/>
<ellipse fill="none" stroke="black" cx="237.564" cy="-100.419" rx="3.2" ry="3.2"/>
</g>
<!-- network_routers&#45;&gt;network_groups -->
<g id="edge4" class="edge"><title>network_routers:network_group_id:w&#45;&gt;network_groups:id.type:e</title>
<path fill="none" stroke="black" d="M562.679,-188.89C545.928,-204.482 558.64,-252 527.5,-252"/>
<polygon fill="black" stroke="black" points="568.958,-186.669 577.701,-187.394 572.729,-185.334 576.5,-184 576.5,-184 576.5,-184 572.729,-185.334 575.299,-180.606 568.958,-186.669 568.958,-186.669"/>
<ellipse fill="none" stroke="black" cx="565.941" cy="-187.736" rx="3.20001" ry="3.20001"/>
</g>
<!-- security_groups -->
<g id="node5" class="node"><title>security_groups</title>
<g id="a_node5"><a xlink:href="../../tables/security_groups.html" xlink:title="security_groups" target="_top">
<polygon fill="#ffffff" stroke="none" points="1039,-235 1039,-513 1195,-513 1195,-235 1039,-235"/>
<polygon fill="#f5f5f5" stroke="none" points="1039,-491 1039,-513 1195,-513 1195,-491 1039,-491"/>
<polygon fill="none" stroke="black" points="1039,-491 1039,-513 1195,-513 1195,-491 1039,-491"/>
<text text-anchor="start" x="1044" y="-500.2" font-family="Helvetica,sans-Serif" font-weight="bold" font-size="11.00">security_groups</text>
<text text-anchor="start" x="1156" y="-499.2" font-family="Helvetica,sans-Serif" font-size="11.00">[table]</text>
<polygon fill="none" stroke="black" points="1039,-469 1039,-491 1195,-491 1195,-469 1039,-469"/>
<image xlink:href="../../images/primaryKeys.png" width="11px" height="12px" preserveAspectRatio="xMinYMin meet" x="1044" y="-486"/>
<text text-anchor="start" x="1059" y="-477.2" font-family="Helvetica,sans-Serif" font-size="11.00">id</text>
<polygon fill="#ffffff" stroke="none" points="1039,-447 1039,-469 1195,-469 1195,-447 1039,-447"/>
<polygon fill="none" stroke="black" points="1039,-447 1039,-469 1195,-469 1195,-447 1039,-447"/>
<text text-anchor="start" x="1059" y="-455.2" font-family="Helvetica,sans-Serif" font-size="11.00">type</text>
<polygon fill="#ffffff" stroke="none" points="1039,-425 1039,-447 1195,-447 1195,-425 1039,-425"/>
<polygon fill="none" stroke="black" points="1039,-425 1039,-447 1195,-447 1195,-425 1039,-425"/>
<text text-anchor="start" x="1059" y="-433.2" font-family="Helvetica,sans-Serif" font-size="11.00">ems_id</text>
<polygon fill="#ffffff" stroke="none" points="1039,-403 1039,-425 1195,-425 1195,-403 1039,-403"/>
<polygon fill="none" stroke="black" points="1039,-403 1039,-425 1195,-425 1195,-403 1039,-403"/>
<image xlink:href="../../images/foreignKeys.png" width="11px" height="12px" preserveAspectRatio="xMinYMin meet" x="1044" y="-420"/>
<text text-anchor="start" x="1059" y="-411.2" font-family="Helvetica,sans-Serif" font-size="11.00">cloud_network_id</text>
<polygon fill="#ffffff" stroke="none" points="1039,-381 1039,-403 1195,-403 1195,-381 1039,-381"/>
<polygon fill="none" stroke="black" points="1039,-381 1039,-403 1195,-403 1195,-381 1039,-381"/>
<image xlink:href="../../images/foreignKeys.png" width="11px" height="12px" preserveAspectRatio="xMinYMin meet" x="1044" y="-398"/>
<text text-anchor="start" x="1059" y="-389.2" font-family="Helvetica,sans-Serif" font-size="11.00">cloud_tenant_id</text>
<polygon fill="#ffffff" stroke="none" points="1039,-359 1039,-381 1195,-381 1195,-359 1039,-359"/>
<polygon fill="none" stroke="black" points="1039,-359 1039,-381 1195,-381 1195,-359 1039,-359"/>
<image xlink:href="../../images/foreignKeys.png" width="11px" height="12px" preserveAspectRatio="xMinYMin meet" x="1044" y="-376"/>
<text text-anchor="start" x="1059" y="-367.2" font-family="Helvetica,sans-Serif" font-size="11.00">orchestration_stack_id</text>
<polygon fill="#ffffff" stroke="none" points="1039,-337 1039,-359 1195,-359 1195,-337 1039,-337"/>
<polygon fill="none" stroke="black" points="1039,-337 1039,-359 1195,-359 1195,-337 1039,-337"/>
<image xlink:href="../../images/foreignKeys.png" width="11px" height="12px" preserveAspectRatio="xMinYMin meet" x="1044" y="-354"/>
<text text-anchor="start" x="1059" y="-345.2" font-family="Helvetica,sans-Serif" font-size="11.00">network_group_id</text>
<polygon fill="#ffffff" stroke="none" points="1039,-315 1039,-337 1195,-337 1195,-315 1039,-315"/>
<polygon fill="none" stroke="black" points="1039,-315 1039,-337 1195,-337 1195,-315 1039,-315"/>
<image xlink:href="../../images/foreignKeys.png" width="11px" height="12px" preserveAspectRatio="xMinYMin meet" x="1044" y="-332"/>
<text text-anchor="start" x="1059" y="-323.2" font-family="Helvetica,sans-Serif" font-size="11.00">network_router_id</text>
<polygon fill="#ffffff" stroke="none" points="1039,-293 1039,-315 1195,-315 1195,-293 1039,-293"/>
<polygon fill="none" stroke="black" points="1039,-293 1039,-315 1195,-315 1195,-293 1039,-293"/>
<image xlink:href="../../images/foreignKeys.png" width="11px" height="12px" preserveAspectRatio="xMinYMin meet" x="1044" y="-310"/>
<text text-anchor="start" x="1059" y="-301.2" font-family="Helvetica,sans-Serif" font-size="11.00">cloud_subnet_id</text>
<polygon fill="#ffffff" stroke="none" points="1039,-271 1039,-293 1195,-293 1195,-271 1039,-271"/>
<polygon fill="none" stroke="black" points="1039,-271 1039,-293 1195,-293 1195,-271 1039,-271"/>
<image xlink:href="../../images/foreignKeys.png" width="11px" height="12px" preserveAspectRatio="xMinYMin meet" x="1044" y="-288"/>
<text text-anchor="start" x="1059" y="-279.2" font-family="Helvetica,sans-Serif" font-size="11.00">resource_group_id</text>
<polygon fill="none" stroke="black" points="1039,-253 1039,-271 1195,-271 1195,-253 1039,-253"/>
<text text-anchor="start" x="1042" y="-259.2" font-family="Helvetica,sans-Serif" font-size="11.00">...</text>
<polygon fill="#ffffff" stroke="none" points="1039,-235 1039,-253 1110,-253 1110,-235 1039,-235"/>
<polygon fill="none" stroke="black" points="1039,-235 1039,-253 1110,-253 1110,-235 1039,-235"/>
<text text-anchor="start" x="1042" y="-241.2" font-family="Helvetica,sans-Serif" font-size="11.00">&lt; 7</text>
<polygon fill="#ffffff" stroke="none" points="1110,-235 1110,-253 1147,-253 1147,-235 1110,-235"/>
<polygon fill="none" stroke="black" points="1110,-235 1110,-253 1147,-253 1147,-235 1110,-235"/>
<text text-anchor="start" x="1137" y="-241.2" font-family="Helvetica,sans-Serif" font-size="11.00"> &#160;</text>
<polygon fill="#ffffff" stroke="none" points="1147,-235 1147,-253 1195,-253 1195,-235 1147,-235"/>
<polygon fill="none" stroke="black" points="1147,-235 1147,-253 1195,-253 1195,-235 1147,-235"/>
<text text-anchor="start" x="1175" y="-241.2" font-family="Helvetica,sans-Serif" font-size="11.00">4 &gt;</text>
</a>
</g>
</g>
<!-- security_groups&#45;&gt;cloud_subnets -->
<g id="edge5" class="edge"><title>security_groups:cloud_subnet_id:w&#45;&gt;cloud_subnets:id:e</title>
<path fill="none" stroke="black" d="M1024.33,-299.163C1012.77,-289.134 1011.93,-267 991.5,-267"/>
<polygon fill="black" stroke="black" points="1030.46,-301.332 1036.8,-307.394 1034.23,-302.666 1038,-304 1038,-304 1038,-304 1034.23,-302.666 1039.2,-300.606 1030.46,-301.332 1030.46,-301.332"/>
<ellipse fill="none" stroke="black" cx="1027.44" cy="-300.264" rx="3.20001" ry="3.20001"/>
</g>
<!-- security_groups&#45;&gt;network_groups -->
<g id="edge6" class="edge"><title>security_groups:network_group_id:w&#45;&gt;network_groups:id.type:e</title>
<path fill="none" stroke="black" d="M1023.29,-348.256C909.769,-351.877 652.84,-391.888 569,-338 533.299,-315.053 569.94,-252 527.5,-252"/>
<polygon fill="black" stroke="black" points="1030,-348.139 1038.06,-351.599 1034,-348.07 1038,-348 1038,-348 1038,-348 1034,-348.07 1037.94,-344.401 1030,-348.139 1030,-348.139"/>
<ellipse fill="none" stroke="black" cx="1026.8" cy="-348.195" rx="3.2" ry="3.2"/>
</g>
<!-- security_groups&#45;&gt;network_routers -->
<g id="edge7" class="edge"><title>security_groups:network_router_id:w&#45;&gt;network_routers:id:e</title>
<path fill="none" stroke="black" d="M1023.27,-326.063C911.801,-327.008 876.114,-337.985 761,-311 742.392,-306.638 740.612,-294 721.5,-294"/>
<polygon fill="black" stroke="black" points="1030,-326.034 1038.02,-329.6 1034,-326.017 1038,-326 1038,-326 1038,-326 1034,-326.017 1037.98,-322.4 1030,-326.034 1030,-326.034"/>
<ellipse fill="none" stroke="black" cx="1026.8" cy="-326.048" rx="3.2" ry="3.2"/>
</g>
<!-- security_groups&#45;&gt;orchestration_stacks -->
<g id="edge8" class="edge"><title>security_groups:orchestration_stack_id:w&#45;&gt;orchestration_stacks:id:e</title>
<path fill="none" stroke="black" d="M1023.59,-370.023C826.933,-370.644 771.334,-383.634 569,-361 420.527,-344.391 363.697,-379.285 239,-297 212.558,-279.551 230.681,-238 199,-238"/>
<polygon fill="black" stroke="black" points="1030,-370.013 1038.01,-373.6 1034,-370.006 1038,-370 1038,-370 1038,-370 1034,-370.006 1037.99,-366.4 1030,-370.013 1030,-370.013"/>
<ellipse fill="none" stroke="black" cx="1026.8" cy="-370.018" rx="3.2" ry="3.2"/>
</g>
</g>
</svg>
