<?xml version="1.0" encoding="UTF-8" standalone="no"?>
<!DOCTYPE svg PUBLIC "-//W3C//DTD SVG 1.1//EN"
 "http://www.w3.org/Graphics/SVG/1.1/DTD/svg11.dtd">
<!-- Generated by graphviz version 2.38.0 (20140413.2041)
 -->
<!-- Title: oneDegreeRelationshipsDiagram Pages: 1 -->
<svg width="511pt" height="357pt"
 viewBox="0.00 0.00 511.00 357.00" xmlns="http://www.w3.org/2000/svg" xmlns:xlink="http://www.w3.org/1999/xlink">
<g id="graph0" class="graph" transform="scale(1 1) rotate(0) translate(4 353)">
<title>oneDegreeRelationshipsDiagram</title>
<polygon fill="#ffffff" stroke="none" points="-4,4 -4,-353 507,-353 507,4 -4,4"/>
<text text-anchor="middle" x="74.5" y="-7.2" font-family="Helvetica,sans-Serif" font-size="11.00">Generated by SchemaSpy</text>
<!-- network_service_entries -->
<g id="node1" class="node"><title>network_service_entries</title>
<g id="a_node1"><a xlink:href="../../tables/network_service_entries.html" xlink:title="network_service_entries" target="_top">
<polygon fill="#ffffff" stroke="none" points="204,-37 204,-345 495,-345 495,-37 204,-37"/>
<polygon fill="#f5f5f5" stroke="none" points="206.5,-321 206.5,-343 493.5,-343 493.5,-321 206.5,-321"/>
<polygon fill="none" stroke="black" points="206.5,-321 206.5,-343 493.5,-343 493.5,-321 206.5,-321"/>
<text text-anchor="start" x="211.5" y="-330.2" font-family="Helvetica,sans-Serif" font-weight="bold" font-size="11.00">network_service_entries</text>
<text text-anchor="start" x="454.5" y="-329.2" font-family="Helvetica,sans-Serif" font-size="11.00">[table]</text>
<polygon fill="none" stroke="black" points="206.5,-299 206.5,-321 372.5,-321 372.5,-299 206.5,-299"/>
<image xlink:href="../../images/primaryKeys.png" width="11px" height="12px" preserveAspectRatio="xMinYMin meet" x="211.5" y="-316"/>
<text text-anchor="start" x="226.5" y="-307.2" font-family="Helvetica,sans-Serif" font-size="11.00">id</text>
<polygon fill="none" stroke="black" points="372.5,-299 372.5,-321 493.5,-321 493.5,-299 372.5,-299"/>
<text text-anchor="start" x="375.5" y="-307.2" font-family="Helvetica,sans-Serif" font-size="11.00">bigserial[19]</text>
<polygon fill="#ffffff" stroke="none" points="206.5,-277 206.5,-299 372.5,-299 372.5,-277 206.5,-277"/>
<polygon fill="none" stroke="black" points="206.5,-277 206.5,-299 372.5,-299 372.5,-277 206.5,-277"/>
<text text-anchor="start" x="226.5" y="-285.2" font-family="Helvetica,sans-Serif" font-size="11.00">type</text>
<polygon fill="none" stroke="black" points="372.5,-277 372.5,-299 493.5,-299 493.5,-277 372.5,-277"/>
<text text-anchor="start" x="375.5" y="-285.2" font-family="Helvetica,sans-Serif" font-size="11.00">varchar[2147483647]</text>
<polygon fill="none" stroke="black" points="206.5,-255 206.5,-277 372.5,-277 372.5,-255 206.5,-255"/>
<text text-anchor="start" x="226.5" y="-263.2" font-family="Helvetica,sans-Serif" font-size="11.00">name</text>
<polygon fill="none" stroke="black" points="372.5,-255 372.5,-277 493.5,-277 493.5,-255 372.5,-255"/>
<text text-anchor="start" x="375.5" y="-263.2" font-family="Helvetica,sans-Serif" font-size="11.00">varchar[2147483647]</text>
<polygon fill="none" stroke="black" points="206.5,-233 206.5,-255 372.5,-255 372.5,-233 206.5,-233"/>
<text text-anchor="start" x="226.5" y="-241.2" font-family="Helvetica,sans-Serif" font-size="11.00">description</text>
<polygon fill="none" stroke="black" points="372.5,-233 372.5,-255 493.5,-255 493.5,-233 372.5,-233"/>
<text text-anchor="start" x="375.5" y="-241.2" font-family="Helvetica,sans-Serif" font-size="11.00">varchar[2147483647]</text>
<polygon fill="none" stroke="black" points="206.5,-211 206.5,-233 372.5,-233 372.5,-211 206.5,-211"/>
<text text-anchor="start" x="226.5" y="-219.2" font-family="Helvetica,sans-Serif" font-size="11.00">ems_ref</text>
<polygon fill="none" stroke="black" points="372.5,-211 372.5,-233 493.5,-233 493.5,-211 372.5,-211"/>
<text text-anchor="start" x="375.5" y="-219.2" font-family="Helvetica,sans-Serif" font-size="11.00">varchar[2147483647]</text>
<polygon fill="#ffffff" stroke="none" points="206.5,-189 206.5,-211 372.5,-211 372.5,-189 206.5,-189"/>
<polygon fill="none" stroke="black" points="206.5,-189 206.5,-211 372.5,-211 372.5,-189 206.5,-189"/>
<text text-anchor="start" x="226.5" y="-197.2" font-family="Helvetica,sans-Serif" font-size="11.00">ems_id</text>
<polygon fill="none" stroke="black" points="372.5,-189 372.5,-211 493.5,-211 493.5,-189 372.5,-189"/>
<text text-anchor="start" x="375.5" y="-197.2" font-family="Helvetica,sans-Serif" font-size="11.00">int8[19]</text>
<polygon fill="#ffffff" stroke="none" points="206.5,-167 206.5,-189 372.5,-189 372.5,-167 206.5,-167"/>
<polygon fill="none" stroke="black" points="206.5,-167 206.5,-189 372.5,-189 372.5,-167 206.5,-167"/>
<image xlink:href="../../images/foreignKeys.png" width="11px" height="12px" preserveAspectRatio="xMinYMin meet" x="211.5" y="-184"/>
<text text-anchor="start" x="226.5" y="-175.2" font-family="Helvetica,sans-Serif" font-size="11.00">network_service_id</text>
<polygon fill="none" stroke="black" points="372.5,-167 372.5,-189 493.5,-189 493.5,-167 372.5,-167"/>
<text text-anchor="start" x="375.5" y="-175.2" font-family="Helvetica,sans-Serif" font-size="11.00">int8[19]</text>
<polygon fill="none" stroke="black" points="206.5,-145 206.5,-167 372.5,-167 372.5,-145 206.5,-145"/>
<text text-anchor="start" x="226.5" y="-153.2" font-family="Helvetica,sans-Serif" font-size="11.00">protocol</text>
<polygon fill="none" stroke="black" points="372.5,-145 372.5,-167 493.5,-167 493.5,-145 372.5,-145"/>
<text text-anchor="start" x="375.5" y="-153.2" font-family="Helvetica,sans-Serif" font-size="11.00">varchar[2147483647]</text>
<polygon fill="none" stroke="black" points="206.5,-123 206.5,-145 372.5,-145 372.5,-123 206.5,-123"/>
<text text-anchor="start" x="226.5" y="-131.2" font-family="Helvetica,sans-Serif" font-size="11.00">source_ports</text>
<polygon fill="none" stroke="black" points="372.5,-123 372.5,-145 493.5,-145 493.5,-123 372.5,-123"/>
<text text-anchor="start" x="375.5" y="-131.2" font-family="Helvetica,sans-Serif" font-size="11.00">varchar[2147483647]</text>
<polygon fill="none" stroke="black" points="206.5,-101 206.5,-123 372.5,-123 372.5,-101 206.5,-101"/>
<text text-anchor="start" x="226.5" y="-109.2" font-family="Helvetica,sans-Serif" font-size="11.00">destination_ports</text>
<polygon fill="none" stroke="black" points="372.5,-101 372.5,-123 493.5,-123 493.5,-101 372.5,-101"/>
<text text-anchor="start" x="375.5" y="-109.2" font-family="Helvetica,sans-Serif" font-size="11.00">varchar[2147483647]</text>
<polygon fill="none" stroke="black" points="206.5,-79 206.5,-101 372.5,-101 372.5,-79 206.5,-79"/>
<text text-anchor="start" x="226.5" y="-87.2" font-family="Helvetica,sans-Serif" font-size="11.00">created_at</text>
<polygon fill="none" stroke="black" points="372.5,-79 372.5,-101 493.5,-101 493.5,-79 372.5,-79"/>
<text text-anchor="start" x="375.5" y="-87.2" font-family="Helvetica,sans-Serif" font-size="11.00">timestamp[29,6]</text>
<polygon fill="none" stroke="black" points="206.5,-57 206.5,-79 372.5,-79 372.5,-57 206.5,-57"/>
<text text-anchor="start" x="226.5" y="-65.2" font-family="Helvetica,sans-Serif" font-size="11.00">updated_at</text>
<polygon fill="none" stroke="black" points="372.5,-57 372.5,-79 493.5,-79 493.5,-57 372.5,-57"/>
<text text-anchor="start" x="375.5" y="-65.2" font-family="Helvetica,sans-Serif" font-size="11.00">timestamp[29,6]</text>
<polygon fill="#ffffff" stroke="none" points="206.5,-39 206.5,-57 294.5,-57 294.5,-39 206.5,-39"/>
<polygon fill="none" stroke="black" points="206.5,-39 206.5,-57 294.5,-57 294.5,-39 206.5,-39"/>
<text text-anchor="start" x="209.5" y="-45.2" font-family="Helvetica,sans-Serif" font-size="11.00">&lt; 1</text>
<polygon fill="#ffffff" stroke="none" points="294.5,-39 294.5,-57 372.5,-57 372.5,-39 294.5,-39"/>
<polygon fill="none" stroke="black" points="294.5,-39 294.5,-57 372.5,-57 372.5,-39 294.5,-39"/>
<text text-anchor="start" x="362.5" y="-45.2" font-family="Helvetica,sans-Serif" font-size="11.00"> &#160;</text>
<polygon fill="#ffffff" stroke="none" points="372.5,-39 372.5,-57 493.5,-57 493.5,-39 372.5,-39"/>
<polygon fill="none" stroke="black" points="372.5,-39 372.5,-57 493.5,-57 493.5,-39 372.5,-39"/>
<text text-anchor="start" x="473.5" y="-45.2" font-family="Helvetica,sans-Serif" font-size="11.00">0 &gt;</text>
<polygon fill="none" stroke="black" stroke-width="2" points="205,-38 205,-344 494,-344 494,-38 205,-38"/>
</a>
</g>
</g>
<!-- network_services -->
<g id="node2" class="node"><title>network_services</title>
<g id="a_node2"><a xlink:href="../../tables/network_services.html" xlink:title="network_services" target="_top">
<polygon fill="#ffffff" stroke="none" points="8,-65 8,-211 155,-211 155,-65 8,-65"/>
<polygon fill="#f5f5f5" stroke="none" points="8.5,-189 8.5,-211 155.5,-211 155.5,-189 8.5,-189"/>
<polygon fill="none" stroke="black" points="8.5,-189 8.5,-211 155.5,-211 155.5,-189 8.5,-189"/>
<text text-anchor="start" x="13.5" y="-198.2" font-family="Helvetica,sans-Serif" font-weight="bold" font-size="11.00">network_services</text>
<text text-anchor="start" x="116.5" y="-197.2" font-family="Helvetica,sans-Serif" font-size="11.00">[table]</text>
<polygon fill="none" stroke="black" points="8.5,-167 8.5,-189 155.5,-189 155.5,-167 8.5,-167"/>
<image xlink:href="../../images/primaryKeys.png" width="11px" height="12px" preserveAspectRatio="xMinYMin meet" x="13.5" y="-184"/>
<text text-anchor="start" x="40.5" y="-175.2" font-family="Helvetica,sans-Serif" font-size="11.00">id</text>
<polygon fill="#ffffff" stroke="none" points="8.5,-145 8.5,-167 155.5,-167 155.5,-145 8.5,-145"/>
<polygon fill="none" stroke="black" points="8.5,-145 8.5,-167 155.5,-167 155.5,-145 8.5,-145"/>
<text text-anchor="start" x="40.5" y="-153.2" font-family="Helvetica,sans-Serif" font-size="11.00">type</text>
<polygon fill="#ffffff" stroke="none" points="8.5,-123 8.5,-145 155.5,-145 155.5,-123 8.5,-123"/>
<polygon fill="none" stroke="black" points="8.5,-123 8.5,-145 155.5,-145 155.5,-123 8.5,-123"/>
<text text-anchor="start" x="40.5" y="-131.2" font-family="Helvetica,sans-Serif" font-size="11.00">ems_id</text>
<polygon fill="#ffffff" stroke="none" points="8.5,-101 8.5,-123 155.5,-123 155.5,-101 8.5,-101"/>
<polygon fill="none" stroke="black" points="8.5,-101 8.5,-123 155.5,-123 155.5,-101 8.5,-101"/>
<image xlink:href="../../images/foreignKeys.png" width="11px" height="12px" preserveAspectRatio="xMinYMin meet" x="13.5" y="-118"/>
<text text-anchor="start" x="40.5" y="-109.2" font-family="Helvetica,sans-Serif" font-size="11.00">cloud_tenant_id</text>
<polygon fill="none" stroke="black" points="8.5,-83 8.5,-101 155.5,-101 155.5,-83 8.5,-83"/>
<text text-anchor="start" x="11.5" y="-89.2" font-family="Helvetica,sans-Serif" font-size="11.00">...</text>
<polygon fill="#ffffff" stroke="none" points="8.5,-65 8.5,-83 75.5,-83 75.5,-65 8.5,-65"/>
<polygon fill="none" stroke="black" points="8.5,-65 8.5,-83 75.5,-83 75.5,-65 8.5,-65"/>
<text text-anchor="start" x="11.5" y="-71.2" font-family="Helvetica,sans-Serif" font-size="11.00">&lt; 1</text>
<polygon fill="#ffffff" stroke="none" points="75.5,-65 75.5,-83 110.5,-83 110.5,-65 75.5,-65"/>
<polygon fill="none" stroke="black" points="75.5,-65 75.5,-83 110.5,-83 110.5,-65 75.5,-65"/>
<text text-anchor="start" x="100.5" y="-71.2" font-family="Helvetica,sans-Serif" font-size="11.00"> &#160;</text>
<polygon fill="#ffffff" stroke="none" points="110.5,-65 110.5,-83 155.5,-83 155.5,-65 110.5,-65"/>
<polygon fill="none" stroke="black" points="110.5,-65 110.5,-83 155.5,-83 155.5,-65 110.5,-65"/>
<text text-anchor="start" x="135.5" y="-71.2" font-family="Helvetica,sans-Serif" font-size="11.00">2 &gt;</text>
</a>
</g>
</g>
<!-- network_service_entries&#45;&gt;network_services -->
<g id="edge1" class="edge"><title>network_service_entries:network_service_id:w&#45;&gt;network_services:id:e</title>
<path fill="none" stroke="black" d="M190.991,-178C179.677,-178 172.493,-178 156.5,-178"/>
<polygon fill="black" stroke="black" points="197.5,-178 205.5,-181.6 201.5,-178 205.5,-178 205.5,-178 205.5,-178 201.5,-178 205.5,-174.4 197.5,-178 197.5,-178"/>
<ellipse fill="none" stroke="black" cx="194.3" cy="-178" rx="3.2" ry="3.2"/>
</g>
</g>
</svg>
