<?xml version="1.0" encoding="UTF-8" standalone="no"?>
<!DOCTYPE svg PUBLIC "-//W3C//DTD SVG 1.1//EN"
 "http://www.w3.org/Graphics/SVG/1.1/DTD/svg11.dtd">
<!-- Generated by graphviz version 2.38.0 (20140413.2041)
 -->
<!-- Title: oneDegreeRelationshipsDiagram Pages: 1 -->
<svg width="1160pt" height="730pt"
 viewBox="0.00 0.00 1160.00 730.23" xmlns="http://www.w3.org/2000/svg" xmlns:xlink="http://www.w3.org/1999/xlink">
<g id="graph0" class="graph" transform="scale(1 1) rotate(0) translate(4 726.229)">
<title>oneDegreeRelationshipsDiagram</title>
<polygon fill="#ffffff" stroke="none" points="-4,4 -4,-726.229 1156,-726.229 1156,4 -4,4"/>
<text text-anchor="middle" x="74.5" y="-7.2" font-family="Helvetica,sans-Serif" font-size="11.00">Generated by SchemaSpy</text>
<!-- cloud_networks -->
<g id="node1" class="node"><title>cloud_networks</title>
<g id="a_node1"><a xlink:href="../../tables/cloud_networks.html" xlink:title="cloud_networks" target="_top">
<polygon fill="#ffffff" stroke="none" points="186,-388 186,-578 367,-578 367,-388 186,-388"/>
<polygon fill="#f5f5f5" stroke="none" points="186.5,-556 186.5,-578 367.5,-578 367.5,-556 186.5,-556"/>
<polygon fill="none" stroke="black" points="186.5,-556 186.5,-578 367.5,-578 367.5,-556 186.5,-556"/>
<text text-anchor="start" x="191.5" y="-565.2" font-family="Helvetica,sans-Serif" font-weight="bold" font-size="11.00">cloud_networks</text>
<text text-anchor="start" x="328.5" y="-564.2" font-family="Helvetica,sans-Serif" font-size="11.00">[table]</text>
<polygon fill="none" stroke="black" points="186.5,-534 186.5,-556 367.5,-556 367.5,-534 186.5,-534"/>
<image xlink:href="../../images/primaryKeys.png" width="11px" height="12px" preserveAspectRatio="xMinYMin meet" x="191.5" y="-551"/>
<text text-anchor="start" x="206.5" y="-542.2" font-family="Helvetica,sans-Serif" font-size="11.00">id</text>
<polygon fill="#ffffff" stroke="none" points="186.5,-512 186.5,-534 367.5,-534 367.5,-512 186.5,-512"/>
<polygon fill="none" stroke="black" points="186.5,-512 186.5,-534 367.5,-534 367.5,-512 186.5,-512"/>
<text text-anchor="start" x="206.5" y="-520.2" font-family="Helvetica,sans-Serif" font-size="11.00">ems_id</text>
<polygon fill="#ffffff" stroke="none" points="186.5,-490 186.5,-512 367.5,-512 367.5,-490 186.5,-490"/>
<polygon fill="none" stroke="black" points="186.5,-490 186.5,-512 367.5,-512 367.5,-490 186.5,-490"/>
<image xlink:href="../../images/foreignKeys.png" width="11px" height="12px" preserveAspectRatio="xMinYMin meet" x="191.5" y="-507"/>
<text text-anchor="start" x="206.5" y="-498.2" font-family="Helvetica,sans-Serif" font-size="11.00">cloud_tenant_id</text>
<polygon fill="none" stroke="black" points="186.5,-468 186.5,-490 367.5,-490 367.5,-468 186.5,-468"/>
<image xlink:href="../../images/foreignKeys.png" width="11px" height="12px" preserveAspectRatio="xMinYMin meet" x="191.5" y="-485"/>
<text text-anchor="start" x="206.5" y="-476.2" font-family="Helvetica,sans-Serif" font-size="11.00">orchestration_stack_id</text>
<polygon fill="#ffffff" stroke="none" points="186.5,-446 186.5,-468 367.5,-468 367.5,-446 186.5,-446"/>
<polygon fill="none" stroke="black" points="186.5,-446 186.5,-468 367.5,-468 367.5,-446 186.5,-446"/>
<text text-anchor="start" x="206.5" y="-454.2" font-family="Helvetica,sans-Serif" font-size="11.00">type</text>
<polygon fill="#ffffff" stroke="none" points="186.5,-424 186.5,-446 367.5,-446 367.5,-424 186.5,-424"/>
<polygon fill="none" stroke="black" points="186.5,-424 186.5,-446 367.5,-446 367.5,-424 186.5,-424"/>
<image xlink:href="../../images/foreignKeys.png" width="11px" height="12px" preserveAspectRatio="xMinYMin meet" x="191.5" y="-441"/>
<text text-anchor="start" x="206.5" y="-432.2" font-family="Helvetica,sans-Serif" font-size="11.00">resource_group_id</text>
<polygon fill="none" stroke="black" points="186.5,-406 186.5,-424 367.5,-424 367.5,-406 186.5,-406"/>
<text text-anchor="start" x="189.5" y="-412.2" font-family="Helvetica,sans-Serif" font-size="11.00">...</text>
<polygon fill="#ffffff" stroke="none" points="186.5,-388 186.5,-406 270.5,-406 270.5,-388 186.5,-388"/>
<polygon fill="none" stroke="black" points="186.5,-388 186.5,-406 270.5,-406 270.5,-388 186.5,-388"/>
<text text-anchor="start" x="189.5" y="-394.2" font-family="Helvetica,sans-Serif" font-size="11.00">&lt; 3</text>
<polygon fill="#ffffff" stroke="none" points="270.5,-388 270.5,-406 313.5,-406 313.5,-388 270.5,-388"/>
<polygon fill="none" stroke="black" points="270.5,-388 270.5,-406 313.5,-406 313.5,-388 270.5,-388"/>
<text text-anchor="start" x="303.5" y="-394.2" font-family="Helvetica,sans-Serif" font-size="11.00"> &#160;</text>
<polygon fill="#ffffff" stroke="none" points="313.5,-388 313.5,-406 367.5,-406 367.5,-388 313.5,-388"/>
<polygon fill="none" stroke="black" points="313.5,-388 313.5,-406 367.5,-406 367.5,-388 313.5,-388"/>
<text text-anchor="start" x="347.5" y="-394.2" font-family="Helvetica,sans-Serif" font-size="11.00">5 &gt;</text>
</a>
</g>
</g>
<!-- cloud_tenants -->
<g id="node2" class="node"><title>cloud_tenants</title>
<g id="a_node2"><a xlink:href="../../tables/cloud_tenants.html" xlink:title="cloud_tenants" target="_top">
<polygon fill="#ffffff" stroke="none" points="8,-432 8,-534 137,-534 137,-432 8,-432"/>
<polygon fill="#f5f5f5" stroke="none" points="8.5,-512 8.5,-534 137.5,-534 137.5,-512 8.5,-512"/>
<polygon fill="none" stroke="black" points="8.5,-512 8.5,-534 137.5,-534 137.5,-512 8.5,-512"/>
<text text-anchor="start" x="13.5" y="-521.2" font-family="Helvetica,sans-Serif" font-weight="bold" font-size="11.00">cloud_tenants</text>
<text text-anchor="start" x="98.5" y="-520.2" font-family="Helvetica,sans-Serif" font-size="11.00">[table]</text>
<polygon fill="none" stroke="black" points="8.5,-490 8.5,-512 137.5,-512 137.5,-490 8.5,-490"/>
<image xlink:href="../../images/primaryKeys.png" width="11px" height="12px" preserveAspectRatio="xMinYMin meet" x="13.5" y="-507"/>
<text text-anchor="start" x="40.5" y="-498.2" font-family="Helvetica,sans-Serif" font-size="11.00">id</text>
<polygon fill="#ffffff" stroke="none" points="8.5,-468 8.5,-490 137.5,-490 137.5,-468 8.5,-468"/>
<polygon fill="none" stroke="black" points="8.5,-468 8.5,-490 137.5,-490 137.5,-468 8.5,-468"/>
<text text-anchor="start" x="40.5" y="-476.2" font-family="Helvetica,sans-Serif" font-size="11.00">type</text>
<polygon fill="none" stroke="black" points="8.5,-450 8.5,-468 137.5,-468 137.5,-450 8.5,-450"/>
<text text-anchor="start" x="11.5" y="-456.2" font-family="Helvetica,sans-Serif" font-size="11.00">...</text>
<polygon fill="#ffffff" stroke="none" points="8.5,-432 8.5,-450 57.5,-450 57.5,-432 8.5,-432"/>
<polygon fill="none" stroke="black" points="8.5,-432 8.5,-450 57.5,-450 57.5,-432 8.5,-432"/>
<text text-anchor="start" x="11.5" y="-438.2" font-family="Helvetica,sans-Serif" font-size="11.00"> &#160;</text>
<polygon fill="#ffffff" stroke="none" points="57.5,-432 57.5,-450 88.5,-450 88.5,-432 57.5,-432"/>
<polygon fill="none" stroke="black" points="57.5,-432 57.5,-450 88.5,-450 88.5,-432 57.5,-432"/>
<text text-anchor="start" x="78.5" y="-438.2" font-family="Helvetica,sans-Serif" font-size="11.00"> &#160;</text>
<polygon fill="#ffffff" stroke="none" points="88.5,-432 88.5,-450 137.5,-450 137.5,-432 88.5,-432"/>
<polygon fill="none" stroke="black" points="88.5,-432 88.5,-450 137.5,-450 137.5,-432 88.5,-432"/>
<text text-anchor="start" x="110.5" y="-438.2" font-family="Helvetica,sans-Serif" font-size="11.00">25 &gt;</text>
</a>
</g>
</g>
<!-- cloud_networks&#45;&gt;cloud_tenants -->
<g id="edge1" class="edge"><title>cloud_networks:cloud_tenant_id:w&#45;&gt;cloud_tenants:id:e</title>
<path fill="none" stroke="black" d="M170.896,-501C160.434,-501 153.514,-501 138.5,-501"/>
<polygon fill="black" stroke="black" points="177.5,-501 185.5,-504.6 181.5,-501 185.5,-501 185.5,-501 185.5,-501 181.5,-501 185.5,-497.4 177.5,-501 177.5,-501"/>
<ellipse fill="none" stroke="black" cx="174.3" cy="-501" rx="3.2" ry="3.2"/>
</g>
<!-- cloud_subnets -->
<g id="node3" class="node"><title>cloud_subnets</title>
<g id="a_node3"><a xlink:href="../../tables/cloud_subnets.html" xlink:title="cloud_subnets" target="_top">
<polygon fill="#ffffff" stroke="none" points="718,-37 718,-293 939,-293 939,-37 718,-37"/>
<polygon fill="#f5f5f5" stroke="none" points="718.5,-271 718.5,-293 939.5,-293 939.5,-271 718.5,-271"/>
<polygon fill="none" stroke="black" points="718.5,-271 718.5,-293 939.5,-293 939.5,-271 718.5,-271"/>
<text text-anchor="start" x="723.5" y="-280.2" font-family="Helvetica,sans-Serif" font-weight="bold" font-size="11.00">cloud_subnets</text>
<text text-anchor="start" x="900.5" y="-279.2" font-family="Helvetica,sans-Serif" font-size="11.00">[table]</text>
<polygon fill="none" stroke="black" points="718.5,-249 718.5,-271 939.5,-271 939.5,-249 718.5,-249"/>
<image xlink:href="../../images/primaryKeys.png" width="11px" height="12px" preserveAspectRatio="xMinYMin meet" x="723.5" y="-266"/>
<text text-anchor="start" x="738.5" y="-257.2" font-family="Helvetica,sans-Serif" font-size="11.00">id</text>
<polygon fill="#ffffff" stroke="none" points="718.5,-227 718.5,-249 939.5,-249 939.5,-227 718.5,-227"/>
<polygon fill="none" stroke="black" points="718.5,-227 718.5,-249 939.5,-249 939.5,-227 718.5,-227"/>
<text text-anchor="start" x="738.5" y="-235.2" font-family="Helvetica,sans-Serif" font-size="11.00">ems_id</text>
<polygon fill="none" stroke="black" points="718.5,-205 718.5,-227 939.5,-227 939.5,-205 718.5,-205"/>
<image xlink:href="../../images/foreignKeys.png" width="11px" height="12px" preserveAspectRatio="xMinYMin meet" x="723.5" y="-222"/>
<text text-anchor="start" x="738.5" y="-213.2" font-family="Helvetica,sans-Serif" font-size="11.00">availability_zone_id</text>
<polygon fill="#ffffff" stroke="none" points="718.5,-183 718.5,-205 939.5,-205 939.5,-183 718.5,-183"/>
<polygon fill="none" stroke="black" points="718.5,-183 718.5,-205 939.5,-205 939.5,-183 718.5,-183"/>
<image xlink:href="../../images/foreignKeys.png" width="11px" height="12px" preserveAspectRatio="xMinYMin meet" x="723.5" y="-200"/>
<text text-anchor="start" x="738.5" y="-191.2" font-family="Helvetica,sans-Serif" font-size="11.00">cloud_network_id</text>
<polygon fill="#ffffff" stroke="none" points="718.5,-161 718.5,-183 939.5,-183 939.5,-161 718.5,-161"/>
<polygon fill="none" stroke="black" points="718.5,-161 718.5,-183 939.5,-183 939.5,-161 718.5,-161"/>
<image xlink:href="../../images/foreignKeys.png" width="11px" height="12px" preserveAspectRatio="xMinYMin meet" x="723.5" y="-178"/>
<text text-anchor="start" x="738.5" y="-169.2" font-family="Helvetica,sans-Serif" font-size="11.00">cloud_tenant_id</text>
<polygon fill="#ffffff" stroke="none" points="718.5,-139 718.5,-161 939.5,-161 939.5,-139 718.5,-139"/>
<polygon fill="none" stroke="black" points="718.5,-139 718.5,-161 939.5,-161 939.5,-139 718.5,-139"/>
<text text-anchor="start" x="738.5" y="-147.2" font-family="Helvetica,sans-Serif" font-size="11.00">type</text>
<polygon fill="none" stroke="black" points="718.5,-117 718.5,-139 939.5,-139 939.5,-117 718.5,-117"/>
<image xlink:href="../../images/foreignKeys.png" width="11px" height="12px" preserveAspectRatio="xMinYMin meet" x="723.5" y="-134"/>
<text text-anchor="start" x="738.5" y="-125.2" font-family="Helvetica,sans-Serif" font-size="11.00">network_router_id</text>
<polygon fill="#ffffff" stroke="none" points="718.5,-95 718.5,-117 939.5,-117 939.5,-95 718.5,-95"/>
<polygon fill="none" stroke="black" points="718.5,-95 718.5,-117 939.5,-117 939.5,-95 718.5,-95"/>
<image xlink:href="../../images/foreignKeys.png" width="11px" height="12px" preserveAspectRatio="xMinYMin meet" x="723.5" y="-112"/>
<text text-anchor="start" x="738.5" y="-103.2" font-family="Helvetica,sans-Serif" font-size="11.00">network_group_id</text>
<polygon fill="#ffffff" stroke="none" points="718.5,-73 718.5,-95 939.5,-95 939.5,-73 718.5,-73"/>
<polygon fill="none" stroke="black" points="718.5,-73 718.5,-95 939.5,-95 939.5,-73 718.5,-73"/>
<text text-anchor="start" x="738.5" y="-81.2" font-family="Helvetica,sans-Serif" font-size="11.00">parent_cloud_subnet_id</text>
<polygon fill="none" stroke="black" points="718.5,-55 718.5,-73 939.5,-73 939.5,-55 718.5,-55"/>
<text text-anchor="start" x="721.5" y="-61.2" font-family="Helvetica,sans-Serif" font-size="11.00">...</text>
<polygon fill="#ffffff" stroke="none" points="718.5,-37 718.5,-55 822.5,-55 822.5,-37 718.5,-37"/>
<polygon fill="none" stroke="black" points="718.5,-37 718.5,-55 822.5,-55 822.5,-37 718.5,-37"/>
<text text-anchor="start" x="721.5" y="-43.2" font-family="Helvetica,sans-Serif" font-size="11.00">&lt; 5</text>
<polygon fill="#ffffff" stroke="none" points="822.5,-37 822.5,-55 875.5,-55 875.5,-37 822.5,-37"/>
<polygon fill="none" stroke="black" points="822.5,-37 822.5,-55 875.5,-55 875.5,-37 822.5,-37"/>
<text text-anchor="start" x="865.5" y="-43.2" font-family="Helvetica,sans-Serif" font-size="11.00"> &#160;</text>
<polygon fill="#ffffff" stroke="none" points="875.5,-37 875.5,-55 939.5,-55 939.5,-37 875.5,-37"/>
<polygon fill="none" stroke="black" points="875.5,-37 875.5,-55 939.5,-55 939.5,-37 875.5,-37"/>
<text text-anchor="start" x="919.5" y="-43.2" font-family="Helvetica,sans-Serif" font-size="11.00">4 &gt;</text>
</a>
</g>
</g>
<!-- cloud_subnets&#45;&gt;cloud_networks -->
<g id="edge2" class="edge"><title>cloud_subnets:cloud_network_id:w&#45;&gt;cloud_networks:id:e</title>
<path fill="none" stroke="black" d="M703.512,-198.321C653.875,-234.456 728.941,-486.196 677,-534 626.524,-580.455 437.099,-545 368.5,-545"/>
<polygon fill="black" stroke="black" points="709.856,-196.361 718.563,-197.44 713.678,-195.181 717.5,-194 717.5,-194 717.5,-194 713.678,-195.181 716.437,-190.56 709.856,-196.361 709.856,-196.361"/>
<ellipse fill="none" stroke="black" cx="706.799" cy="-197.306" rx="3.20001" ry="3.20001"/>
</g>
<!-- cloud_subnets&#45;&gt;cloud_tenants -->
<g id="edge3" class="edge"><title>cloud_subnets:cloud_tenant_id:w&#45;&gt;cloud_tenants:id:e</title>
<path fill="none" stroke="black" d="M703.555,-167.413C694.95,-160.336 692.289,-147.046 677,-142 466.394,-72.4936 342.575,4.66458 178,-144 118.77,-197.504 218.317,-501 138.5,-501"/>
<polygon fill="black" stroke="black" points="709.901,-169.5 716.375,-175.42 713.7,-170.75 717.5,-172 717.5,-172 717.5,-172 713.7,-170.75 718.625,-168.58 709.901,-169.5 709.901,-169.5"/>
<ellipse fill="none" stroke="black" cx="706.861" cy="-168.5" rx="3.20001" ry="3.20001"/>
</g>
<!-- network_groups -->
<g id="node4" class="node"><title>network_groups</title>
<g id="a_node4"><a xlink:href="../../tables/network_groups.html" xlink:title="network_groups" target="_top">
<polygon fill="#ffffff" stroke="none" points="198.5,-155 198.5,-301 354.5,-301 354.5,-155 198.5,-155"/>
<polygon fill="#f5f5f5" stroke="none" points="198.5,-279 198.5,-301 354.5,-301 354.5,-279 198.5,-279"/>
<polygon fill="none" stroke="black" points="198.5,-279 198.5,-301 354.5,-301 354.5,-279 198.5,-279"/>
<text text-anchor="start" x="203.5" y="-288.2" font-family="Helvetica,sans-Serif" font-weight="bold" font-size="11.00">network_groups</text>
<text text-anchor="start" x="315.5" y="-287.2" font-family="Helvetica,sans-Serif" font-size="11.00">[table]</text>
<polygon fill="none" stroke="black" points="198.5,-257 198.5,-279 354.5,-279 354.5,-257 198.5,-257"/>
<image xlink:href="../../images/primaryKeys.png" width="11px" height="12px" preserveAspectRatio="xMinYMin meet" x="203.5" y="-274"/>
<text text-anchor="start" x="218.5" y="-265.2" font-family="Helvetica,sans-Serif" font-size="11.00">id</text>
<polygon fill="#ffffff" stroke="none" points="198.5,-235 198.5,-257 354.5,-257 354.5,-235 198.5,-235"/>
<polygon fill="none" stroke="black" points="198.5,-235 198.5,-257 354.5,-257 354.5,-235 198.5,-235"/>
<text text-anchor="start" x="218.5" y="-243.2" font-family="Helvetica,sans-Serif" font-size="11.00">ems_id</text>
<polygon fill="#ffffff" stroke="none" points="198.5,-213 198.5,-235 354.5,-235 354.5,-213 198.5,-213"/>
<polygon fill="none" stroke="black" points="198.5,-213 198.5,-235 354.5,-235 354.5,-213 198.5,-213"/>
<image xlink:href="../../images/foreignKeys.png" width="11px" height="12px" preserveAspectRatio="xMinYMin meet" x="203.5" y="-230"/>
<text text-anchor="start" x="218.5" y="-221.2" font-family="Helvetica,sans-Serif" font-size="11.00">orchestration_stack_id</text>
<polygon fill="#ffffff" stroke="none" points="198.5,-191 198.5,-213 354.5,-213 354.5,-191 198.5,-191"/>
<polygon fill="none" stroke="black" points="198.5,-191 198.5,-213 354.5,-213 354.5,-191 198.5,-191"/>
<text text-anchor="start" x="218.5" y="-199.2" font-family="Helvetica,sans-Serif" font-size="11.00">type</text>
<polygon fill="none" stroke="black" points="198.5,-173 198.5,-191 354.5,-191 354.5,-173 198.5,-173"/>
<text text-anchor="start" x="201.5" y="-179.2" font-family="Helvetica,sans-Serif" font-size="11.00">...</text>
<polygon fill="#ffffff" stroke="none" points="198.5,-155 198.5,-173 269.5,-173 269.5,-155 198.5,-155"/>
<polygon fill="none" stroke="black" points="198.5,-155 198.5,-173 269.5,-173 269.5,-155 198.5,-155"/>
<text text-anchor="start" x="201.5" y="-161.2" font-family="Helvetica,sans-Serif" font-size="11.00">&lt; 1</text>
<polygon fill="#ffffff" stroke="none" points="269.5,-155 269.5,-173 306.5,-173 306.5,-155 269.5,-155"/>
<polygon fill="none" stroke="black" points="269.5,-155 269.5,-173 306.5,-173 306.5,-155 269.5,-155"/>
<text text-anchor="start" x="296.5" y="-161.2" font-family="Helvetica,sans-Serif" font-size="11.00"> &#160;</text>
<polygon fill="#ffffff" stroke="none" points="306.5,-155 306.5,-173 354.5,-173 354.5,-155 306.5,-155"/>
<polygon fill="none" stroke="black" points="306.5,-155 306.5,-173 354.5,-173 354.5,-155 306.5,-155"/>
<text text-anchor="start" x="334.5" y="-161.2" font-family="Helvetica,sans-Serif" font-size="11.00">3 &gt;</text>
</a>
</g>
</g>
<!-- cloud_subnets&#45;&gt;network_groups -->
<g id="edge4" class="edge"><title>cloud_subnets:network_group_id:w&#45;&gt;network_groups:id:e</title>
<path fill="none" stroke="black" d="M703.519,-110.423C694.288,-117.924 692.58,-133.094 677,-141 567.591,-196.521 512.018,-137.937 408,-203 376.517,-222.693 392.635,-268 355.5,-268"/>
<polygon fill="black" stroke="black" points="709.873,-108.413 718.586,-109.432 713.686,-107.207 717.5,-106 717.5,-106 717.5,-106 713.686,-107.207 716.414,-102.568 709.873,-108.413 709.873,-108.413"/>
<ellipse fill="none" stroke="black" cx="706.822" cy="-109.378" rx="3.20001" ry="3.20001"/>
</g>
<!-- network_routers -->
<g id="node5" class="node"><title>network_routers</title>
<g id="a_node5"><a xlink:href="../../tables/network_routers.html" xlink:title="network_routers" target="_top">
<polygon fill="#ffffff" stroke="none" points="416,-237 416,-523 669,-523 669,-237 416,-237"/>
<polygon fill="#f5f5f5" stroke="none" points="418.5,-499 418.5,-521 667.5,-521 667.5,-499 418.5,-499"/>
<polygon fill="none" stroke="black" points="418.5,-499 418.5,-521 667.5,-521 667.5,-499 418.5,-499"/>
<text text-anchor="start" x="423.5" y="-508.2" font-family="Helvetica,sans-Serif" font-weight="bold" font-size="11.00">network_routers</text>
<text text-anchor="start" x="628.5" y="-507.2" font-family="Helvetica,sans-Serif" font-size="11.00">[table]</text>
<polygon fill="none" stroke="black" points="418.5,-477 418.5,-499 546.5,-499 546.5,-477 418.5,-477"/>
<image xlink:href="../../images/primaryKeys.png" width="11px" height="12px" preserveAspectRatio="xMinYMin meet" x="423.5" y="-494"/>
<text text-anchor="start" x="438.5" y="-485.2" font-family="Helvetica,sans-Serif" font-size="11.00">id</text>
<polygon fill="none" stroke="black" points="546.5,-477 546.5,-499 667.5,-499 667.5,-477 546.5,-477"/>
<text text-anchor="start" x="549.5" y="-485.2" font-family="Helvetica,sans-Serif" font-size="11.00">bigserial[19]</text>
<polygon fill="#ffffff" stroke="none" points="418.5,-455 418.5,-477 546.5,-477 546.5,-455 418.5,-455"/>
<polygon fill="none" stroke="black" points="418.5,-455 418.5,-477 546.5,-477 546.5,-455 418.5,-455"/>
<text text-anchor="start" x="438.5" y="-463.2" font-family="Helvetica,sans-Serif" font-size="11.00">type</text>
<polygon fill="none" stroke="black" points="546.5,-455 546.5,-477 667.5,-477 667.5,-455 546.5,-455"/>
<text text-anchor="start" x="549.5" y="-463.2" font-family="Helvetica,sans-Serif" font-size="11.00">varchar[2147483647]</text>
<polygon fill="none" stroke="black" points="418.5,-433 418.5,-455 546.5,-455 546.5,-433 418.5,-433"/>
<text text-anchor="start" x="438.5" y="-441.2" font-family="Helvetica,sans-Serif" font-size="11.00">name</text>
<polygon fill="none" stroke="black" points="546.5,-433 546.5,-455 667.5,-455 667.5,-433 546.5,-433"/>
<text text-anchor="start" x="549.5" y="-441.2" font-family="Helvetica,sans-Serif" font-size="11.00">varchar[2147483647]</text>
<polygon fill="none" stroke="black" points="418.5,-411 418.5,-433 546.5,-433 546.5,-411 418.5,-411"/>
<text text-anchor="start" x="438.5" y="-419.2" font-family="Helvetica,sans-Serif" font-size="11.00">ems_ref</text>
<polygon fill="none" stroke="black" points="546.5,-411 546.5,-433 667.5,-433 667.5,-411 546.5,-411"/>
<text text-anchor="start" x="549.5" y="-419.2" font-family="Helvetica,sans-Serif" font-size="11.00">varchar[2147483647]</text>
<polygon fill="#ffffff" stroke="none" points="418.5,-389 418.5,-411 546.5,-411 546.5,-389 418.5,-389"/>
<polygon fill="none" stroke="black" points="418.5,-389 418.5,-411 546.5,-411 546.5,-389 418.5,-389"/>
<text text-anchor="start" x="438.5" y="-397.2" font-family="Helvetica,sans-Serif" font-size="11.00">ems_id</text>
<polygon fill="none" stroke="black" points="546.5,-389 546.5,-411 667.5,-411 667.5,-389 546.5,-389"/>
<text text-anchor="start" x="549.5" y="-397.2" font-family="Helvetica,sans-Serif" font-size="11.00">int8[19]</text>
<polygon fill="#ffffff" stroke="none" points="418.5,-367 418.5,-389 546.5,-389 546.5,-367 418.5,-367"/>
<polygon fill="none" stroke="black" points="418.5,-367 418.5,-389 546.5,-389 546.5,-367 418.5,-367"/>
<image xlink:href="../../images/foreignKeys.png" width="11px" height="12px" preserveAspectRatio="xMinYMin meet" x="423.5" y="-384"/>
<text text-anchor="start" x="438.5" y="-375.2" font-family="Helvetica,sans-Serif" font-size="11.00">cloud_network_id</text>
<polygon fill="none" stroke="black" points="546.5,-367 546.5,-389 667.5,-389 667.5,-367 546.5,-367"/>
<text text-anchor="start" x="549.5" y="-375.2" font-family="Helvetica,sans-Serif" font-size="11.00">int8[19]</text>
<polygon fill="none" stroke="black" points="418.5,-345 418.5,-367 546.5,-367 546.5,-345 418.5,-345"/>
<text text-anchor="start" x="438.5" y="-353.2" font-family="Helvetica,sans-Serif" font-size="11.00">admin_state_up</text>
<polygon fill="none" stroke="black" points="546.5,-345 546.5,-367 667.5,-367 667.5,-345 546.5,-345"/>
<text text-anchor="start" x="549.5" y="-353.2" font-family="Helvetica,sans-Serif" font-size="11.00">bool[1]</text>
<polygon fill="#ffffff" stroke="none" points="418.5,-323 418.5,-345 546.5,-345 546.5,-323 418.5,-323"/>
<polygon fill="none" stroke="black" points="418.5,-323 418.5,-345 546.5,-345 546.5,-323 418.5,-323"/>
<image xlink:href="../../images/foreignKeys.png" width="11px" height="12px" preserveAspectRatio="xMinYMin meet" x="423.5" y="-340"/>
<text text-anchor="start" x="438.5" y="-331.2" font-family="Helvetica,sans-Serif" font-size="11.00">cloud_tenant_id</text>
<polygon fill="none" stroke="black" points="546.5,-323 546.5,-345 667.5,-345 667.5,-323 546.5,-323"/>
<text text-anchor="start" x="549.5" y="-331.2" font-family="Helvetica,sans-Serif" font-size="11.00">int8[19]</text>
<polygon fill="none" stroke="black" points="418.5,-301 418.5,-323 546.5,-323 546.5,-301 418.5,-301"/>
<text text-anchor="start" x="438.5" y="-309.2" font-family="Helvetica,sans-Serif" font-size="11.00">status</text>
<polygon fill="none" stroke="black" points="546.5,-301 546.5,-323 667.5,-323 667.5,-301 546.5,-301"/>
<text text-anchor="start" x="549.5" y="-309.2" font-family="Helvetica,sans-Serif" font-size="11.00">varchar[2147483647]</text>
<polygon fill="none" stroke="black" points="418.5,-279 418.5,-301 546.5,-301 546.5,-279 418.5,-279"/>
<text text-anchor="start" x="438.5" y="-287.2" font-family="Helvetica,sans-Serif" font-size="11.00">extra_attributes</text>
<polygon fill="none" stroke="black" points="546.5,-279 546.5,-301 667.5,-301 667.5,-279 546.5,-279"/>
<text text-anchor="start" x="549.5" y="-287.2" font-family="Helvetica,sans-Serif" font-size="11.00">text[2147483647]</text>
<polygon fill="#ffffff" stroke="none" points="418.5,-257 418.5,-279 546.5,-279 546.5,-257 418.5,-257"/>
<polygon fill="none" stroke="black" points="418.5,-257 418.5,-279 546.5,-279 546.5,-257 418.5,-257"/>
<image xlink:href="../../images/foreignKeys.png" width="11px" height="12px" preserveAspectRatio="xMinYMin meet" x="423.5" y="-274"/>
<text text-anchor="start" x="438.5" y="-265.2" font-family="Helvetica,sans-Serif" font-size="11.00">network_group_id</text>
<polygon fill="none" stroke="black" points="546.5,-257 546.5,-279 667.5,-279 667.5,-257 546.5,-257"/>
<text text-anchor="start" x="549.5" y="-265.2" font-family="Helvetica,sans-Serif" font-size="11.00">int8[19]</text>
<polygon fill="#ffffff" stroke="none" points="418.5,-239 418.5,-257 487.5,-257 487.5,-239 418.5,-239"/>
<polygon fill="none" stroke="black" points="418.5,-239 418.5,-257 487.5,-257 487.5,-239 418.5,-239"/>
<text text-anchor="start" x="421.5" y="-245.2" font-family="Helvetica,sans-Serif" font-size="11.00">&lt; 3</text>
<polygon fill="#ffffff" stroke="none" points="487.5,-239 487.5,-257 546.5,-257 546.5,-239 487.5,-239"/>
<polygon fill="none" stroke="black" points="487.5,-239 487.5,-257 546.5,-257 546.5,-239 487.5,-239"/>
<text text-anchor="start" x="536.5" y="-245.2" font-family="Helvetica,sans-Serif" font-size="11.00"> &#160;</text>
<polygon fill="#ffffff" stroke="none" points="546.5,-239 546.5,-257 667.5,-257 667.5,-239 546.5,-239"/>
<polygon fill="none" stroke="black" points="546.5,-239 546.5,-257 667.5,-257 667.5,-239 546.5,-239"/>
<text text-anchor="start" x="647.5" y="-245.2" font-family="Helvetica,sans-Serif" font-size="11.00">3 &gt;</text>
<polygon fill="none" stroke="black" stroke-width="2" points="417,-238 417,-522 668,-522 668,-238 417,-238"/>
</a>
</g>
</g>
<!-- cloud_subnets&#45;&gt;network_routers -->
<g id="edge5" class="edge"><title>cloud_subnets:network_router_id:w&#45;&gt;network_routers:id.type:e</title>
<path fill="none" stroke="black" d="M703.528,-132.817C651.237,-175.536 743.718,-488 668.5,-488"/>
<polygon fill="black" stroke="black" points="709.937,-130.607 718.673,-131.403 713.718,-129.304 717.5,-128 717.5,-128 717.5,-128 713.718,-129.304 716.327,-124.597 709.937,-130.607 709.937,-130.607"/>
<ellipse fill="none" stroke="black" cx="706.912" cy="-131.65" rx="3.20001" ry="3.20001"/>
</g>
<!-- network_routers&#45;&gt;cloud_networks -->
<g id="edge9" class="edge"><title>network_routers:cloud_network_id:w&#45;&gt;cloud_networks:id:e</title>
<path fill="none" stroke="black" d="M403.153,-380.623C354.831,-401.869 440.11,-545 368.5,-545"/>
<polygon fill="black" stroke="black" points="409.63,-379.439 418.147,-381.541 413.565,-378.719 417.5,-378 417.5,-378 417.5,-378 413.565,-378.719 416.853,-374.459 409.63,-379.439 409.63,-379.439"/>
<ellipse fill="none" stroke="black" cx="406.483" cy="-380.014" rx="3.2" ry="3.2"/>
</g>
<!-- network_routers&#45;&gt;cloud_tenants -->
<g id="edge10" class="edge"><title>network_routers:cloud_tenant_id:w&#45;&gt;cloud_tenants:id:e</title>
<path fill="none" stroke="black" d="M402.957,-333.839C304.621,-331.69 255.571,-309.845 178,-378 134.867,-415.897 195.916,-501 138.5,-501"/>
<polygon fill="black" stroke="black" points="409.5,-333.911 417.46,-337.6 413.5,-333.956 417.5,-334 417.5,-334 417.5,-334 413.5,-333.956 417.54,-330.4 409.5,-333.911 409.5,-333.911"/>
<ellipse fill="none" stroke="black" cx="406.301" cy="-333.876" rx="3.2" ry="3.2"/>
</g>
<!-- network_routers&#45;&gt;network_groups -->
<g id="edge11" class="edge"><title>network_routers:network_group_id:w&#45;&gt;network_groups:id:e</title>
<path fill="none" stroke="black" d="M402.92,-268C386.293,-268 377.458,-268 355.5,-268"/>
<polygon fill="black" stroke="black" points="409.5,-268 417.5,-271.6 413.5,-268 417.5,-268 417.5,-268 417.5,-268 413.5,-268 417.5,-264.4 409.5,-268 409.5,-268"/>
<ellipse fill="none" stroke="black" cx="406.3" cy="-268" rx="3.2" ry="3.2"/>
</g>
<!-- floating_ips -->
<g id="node6" class="node"><title>floating_ips</title>
<g id="a_node6"><a xlink:href="../../tables/floating_ips.html" xlink:title="floating_ips" target="_top">
<polygon fill="#ffffff" stroke="none" points="758.5,-409 758.5,-643 898.5,-643 898.5,-409 758.5,-409"/>
<polygon fill="#f5f5f5" stroke="none" points="758.5,-621 758.5,-643 898.5,-643 898.5,-621 758.5,-621"/>
<polygon fill="none" stroke="black" points="758.5,-621 758.5,-643 898.5,-643 898.5,-621 758.5,-621"/>
<text text-anchor="start" x="763.5" y="-630.2" font-family="Helvetica,sans-Serif" font-weight="bold" font-size="11.00">floating_ips</text>
<text text-anchor="start" x="859.5" y="-629.2" font-family="Helvetica,sans-Serif" font-size="11.00">[table]</text>
<polygon fill="none" stroke="black" points="758.5,-599 758.5,-621 898.5,-621 898.5,-599 758.5,-599"/>
<image xlink:href="../../images/primaryKeys.png" width="11px" height="12px" preserveAspectRatio="xMinYMin meet" x="763.5" y="-616"/>
<text text-anchor="start" x="778.5" y="-607.2" font-family="Helvetica,sans-Serif" font-size="11.00">id</text>
<polygon fill="#ffffff" stroke="none" points="758.5,-577 758.5,-599 898.5,-599 898.5,-577 758.5,-577"/>
<polygon fill="none" stroke="black" points="758.5,-577 758.5,-599 898.5,-599 898.5,-577 758.5,-577"/>
<text text-anchor="start" x="778.5" y="-585.2" font-family="Helvetica,sans-Serif" font-size="11.00">type</text>
<polygon fill="#ffffff" stroke="none" points="758.5,-555 758.5,-577 898.5,-577 898.5,-555 758.5,-555"/>
<polygon fill="none" stroke="black" points="758.5,-555 758.5,-577 898.5,-577 898.5,-555 758.5,-555"/>
<text text-anchor="start" x="778.5" y="-563.2" font-family="Helvetica,sans-Serif" font-size="11.00">ems_id</text>
<polygon fill="none" stroke="black" points="758.5,-533 758.5,-555 898.5,-555 898.5,-533 758.5,-533"/>
<image xlink:href="../../images/foreignKeys.png" width="11px" height="12px" preserveAspectRatio="xMinYMin meet" x="763.5" y="-550"/>
<text text-anchor="start" x="778.5" y="-541.2" font-family="Helvetica,sans-Serif" font-size="11.00">vm_id</text>
<polygon fill="#ffffff" stroke="none" points="758.5,-511 758.5,-533 898.5,-533 898.5,-511 758.5,-511"/>
<polygon fill="none" stroke="black" points="758.5,-511 758.5,-533 898.5,-533 898.5,-511 758.5,-511"/>
<image xlink:href="../../images/foreignKeys.png" width="11px" height="12px" preserveAspectRatio="xMinYMin meet" x="763.5" y="-528"/>
<text text-anchor="start" x="778.5" y="-519.2" font-family="Helvetica,sans-Serif" font-size="11.00">cloud_tenant_id</text>
<polygon fill="#ffffff" stroke="none" points="758.5,-489 758.5,-511 898.5,-511 898.5,-489 758.5,-489"/>
<polygon fill="none" stroke="black" points="758.5,-489 758.5,-511 898.5,-511 898.5,-489 758.5,-489"/>
<image xlink:href="../../images/foreignKeys.png" width="11px" height="12px" preserveAspectRatio="xMinYMin meet" x="763.5" y="-506"/>
<text text-anchor="start" x="778.5" y="-497.2" font-family="Helvetica,sans-Serif" font-size="11.00">network_port_id</text>
<polygon fill="#ffffff" stroke="none" points="758.5,-467 758.5,-489 898.5,-489 898.5,-467 758.5,-467"/>
<polygon fill="none" stroke="black" points="758.5,-467 758.5,-489 898.5,-489 898.5,-467 758.5,-467"/>
<image xlink:href="../../images/foreignKeys.png" width="11px" height="12px" preserveAspectRatio="xMinYMin meet" x="763.5" y="-484"/>
<text text-anchor="start" x="778.5" y="-475.2" font-family="Helvetica,sans-Serif" font-size="11.00">cloud_network_id</text>
<polygon fill="#ffffff" stroke="none" points="758.5,-445 758.5,-467 898.5,-467 898.5,-445 758.5,-445"/>
<polygon fill="none" stroke="black" points="758.5,-445 758.5,-467 898.5,-467 898.5,-445 758.5,-445"/>
<image xlink:href="../../images/foreignKeys.png" width="11px" height="12px" preserveAspectRatio="xMinYMin meet" x="763.5" y="-462"/>
<text text-anchor="start" x="778.5" y="-453.2" font-family="Helvetica,sans-Serif" font-size="11.00">network_router_id</text>
<polygon fill="none" stroke="black" points="758.5,-427 758.5,-445 898.5,-445 898.5,-427 758.5,-427"/>
<text text-anchor="start" x="761.5" y="-433.2" font-family="Helvetica,sans-Serif" font-size="11.00">...</text>
<polygon fill="#ffffff" stroke="none" points="758.5,-409 758.5,-427 826.5,-427 826.5,-409 758.5,-409"/>
<polygon fill="none" stroke="black" points="758.5,-409 758.5,-427 826.5,-427 826.5,-409 758.5,-409"/>
<text text-anchor="start" x="761.5" y="-415.2" font-family="Helvetica,sans-Serif" font-size="11.00">&lt; 5</text>
<polygon fill="#ffffff" stroke="none" points="826.5,-409 826.5,-427 862.5,-427 862.5,-409 826.5,-409"/>
<polygon fill="none" stroke="black" points="826.5,-409 826.5,-427 862.5,-427 862.5,-409 826.5,-409"/>
<text text-anchor="start" x="852.5" y="-415.2" font-family="Helvetica,sans-Serif" font-size="11.00"> &#160;</text>
<polygon fill="#ffffff" stroke="none" points="862.5,-409 862.5,-427 898.5,-427 898.5,-409 862.5,-409"/>
<polygon fill="none" stroke="black" points="862.5,-409 862.5,-427 898.5,-427 898.5,-409 862.5,-409"/>
<text text-anchor="start" x="888.5" y="-415.2" font-family="Helvetica,sans-Serif" font-size="11.00"> &#160;</text>
</a>
</g>
</g>
<!-- floating_ips&#45;&gt;cloud_networks -->
<g id="edge6" class="edge"><title>floating_ips:cloud_network_id:w&#45;&gt;cloud_networks:id:e</title>
<path fill="none" stroke="black" d="M742.824,-480.164C710.202,-491.075 718.146,-540.183 677,-557 566.331,-602.232 526.258,-574.567 408,-557 389.851,-554.304 386.848,-545 368.5,-545"/>
<polygon fill="black" stroke="black" points="749.586,-479.167 758.025,-481.561 753.543,-478.584 757.5,-478 757.5,-478 757.5,-478 753.543,-478.584 756.975,-474.439 749.586,-479.167 749.586,-479.167"/>
<ellipse fill="none" stroke="black" cx="746.42" cy="-479.634" rx="3.2" ry="3.2"/>
</g>
<!-- floating_ips&#45;&gt;cloud_tenants -->
<g id="edge7" class="edge"><title>floating_ips:cloud_tenant_id:w&#45;&gt;cloud_tenants:id:e</title>
<path fill="none" stroke="black" d="M743.159,-523.876C714.158,-532.301 713.356,-566.766 677,-579 571.881,-614.374 271.109,-649.266 178,-589 142.01,-565.706 181.37,-501 138.5,-501"/>
<polygon fill="black" stroke="black" points="749.568,-523.038 757.967,-525.57 753.534,-522.519 757.5,-522 757.5,-522 757.5,-522 753.534,-522.519 757.033,-518.43 749.568,-523.038 749.568,-523.038"/>
<ellipse fill="none" stroke="black" cx="746.395" cy="-523.453" rx="3.2" ry="3.2"/>
</g>
<!-- floating_ips&#45;&gt;network_routers -->
<g id="edge8" class="edge"><title>floating_ips:network_router_id:w&#45;&gt;network_routers:id.type:e</title>
<path fill="none" stroke="black" d="M742.935,-457.458C713.578,-463.718 705.116,-488 668.5,-488"/>
<polygon fill="black" stroke="black" points="749.54,-456.797 757.859,-459.582 753.52,-456.398 757.5,-456 757.5,-456 757.5,-456 753.52,-456.398 757.141,-452.418 749.54,-456.797 749.54,-456.797"/>
<ellipse fill="none" stroke="black" cx="746.356" cy="-457.116" rx="3.2" ry="3.2"/>
</g>
<!-- security_groups -->
<g id="node7" class="node"><title>security_groups</title>
<g id="a_node7"><a xlink:href="../../tables/security_groups.html" xlink:title="security_groups" target="_top">
<polygon fill="#ffffff" stroke="none" points="988,-294 988,-572 1144,-572 1144,-294 988,-294"/>
<polygon fill="#f5f5f5" stroke="none" points="988,-550 988,-572 1144,-572 1144,-550 988,-550"/>
<polygon fill="none" stroke="black" points="988,-550 988,-572 1144,-572 1144,-550 988,-550"/>
<text text-anchor="start" x="993" y="-559.2" font-family="Helvetica,sans-Serif" font-weight="bold" font-size="11.00">security_groups</text>
<text text-anchor="start" x="1105" y="-558.2" font-family="Helvetica,sans-Serif" font-size="11.00">[table]</text>
<polygon fill="none" stroke="black" points="988,-528 988,-550 1144,-550 1144,-528 988,-528"/>
<image xlink:href="../../images/primaryKeys.png" width="11px" height="12px" preserveAspectRatio="xMinYMin meet" x="993" y="-545"/>
<text text-anchor="start" x="1008" y="-536.2" font-family="Helvetica,sans-Serif" font-size="11.00">id</text>
<polygon fill="#ffffff" stroke="none" points="988,-506 988,-528 1144,-528 1144,-506 988,-506"/>
<polygon fill="none" stroke="black" points="988,-506 988,-528 1144,-528 1144,-506 988,-506"/>
<text text-anchor="start" x="1008" y="-514.2" font-family="Helvetica,sans-Serif" font-size="11.00">type</text>
<polygon fill="#ffffff" stroke="none" points="988,-484 988,-506 1144,-506 1144,-484 988,-484"/>
<polygon fill="none" stroke="black" points="988,-484 988,-506 1144,-506 1144,-484 988,-484"/>
<text text-anchor="start" x="1008" y="-492.2" font-family="Helvetica,sans-Serif" font-size="11.00">ems_id</text>
<polygon fill="#ffffff" stroke="none" points="988,-462 988,-484 1144,-484 1144,-462 988,-462"/>
<polygon fill="none" stroke="black" points="988,-462 988,-484 1144,-484 1144,-462 988,-462"/>
<image xlink:href="../../images/foreignKeys.png" width="11px" height="12px" preserveAspectRatio="xMinYMin meet" x="993" y="-479"/>
<text text-anchor="start" x="1008" y="-470.2" font-family="Helvetica,sans-Serif" font-size="11.00">cloud_network_id</text>
<polygon fill="#ffffff" stroke="none" points="988,-440 988,-462 1144,-462 1144,-440 988,-440"/>
<polygon fill="none" stroke="black" points="988,-440 988,-462 1144,-462 1144,-440 988,-440"/>
<image xlink:href="../../images/foreignKeys.png" width="11px" height="12px" preserveAspectRatio="xMinYMin meet" x="993" y="-457"/>
<text text-anchor="start" x="1008" y="-448.2" font-family="Helvetica,sans-Serif" font-size="11.00">cloud_tenant_id</text>
<polygon fill="#ffffff" stroke="none" points="988,-418 988,-440 1144,-440 1144,-418 988,-418"/>
<polygon fill="none" stroke="black" points="988,-418 988,-440 1144,-440 1144,-418 988,-418"/>
<image xlink:href="../../images/foreignKeys.png" width="11px" height="12px" preserveAspectRatio="xMinYMin meet" x="993" y="-435"/>
<text text-anchor="start" x="1008" y="-426.2" font-family="Helvetica,sans-Serif" font-size="11.00">orchestration_stack_id</text>
<polygon fill="#ffffff" stroke="none" points="988,-396 988,-418 1144,-418 1144,-396 988,-396"/>
<polygon fill="none" stroke="black" points="988,-396 988,-418 1144,-418 1144,-396 988,-396"/>
<image xlink:href="../../images/foreignKeys.png" width="11px" height="12px" preserveAspectRatio="xMinYMin meet" x="993" y="-413"/>
<text text-anchor="start" x="1008" y="-404.2" font-family="Helvetica,sans-Serif" font-size="11.00">network_group_id</text>
<polygon fill="#ffffff" stroke="none" points="988,-374 988,-396 1144,-396 1144,-374 988,-374"/>
<polygon fill="none" stroke="black" points="988,-374 988,-396 1144,-396 1144,-374 988,-374"/>
<image xlink:href="../../images/foreignKeys.png" width="11px" height="12px" preserveAspectRatio="xMinYMin meet" x="993" y="-391"/>
<text text-anchor="start" x="1008" y="-382.2" font-family="Helvetica,sans-Serif" font-size="11.00">network_router_id</text>
<polygon fill="#ffffff" stroke="none" points="988,-352 988,-374 1144,-374 1144,-352 988,-352"/>
<polygon fill="none" stroke="black" points="988,-352 988,-374 1144,-374 1144,-352 988,-352"/>
<image xlink:href="../../images/foreignKeys.png" width="11px" height="12px" preserveAspectRatio="xMinYMin meet" x="993" y="-369"/>
<text text-anchor="start" x="1008" y="-360.2" font-family="Helvetica,sans-Serif" font-size="11.00">cloud_subnet_id</text>
<polygon fill="#ffffff" stroke="none" points="988,-330 988,-352 1144,-352 1144,-330 988,-330"/>
<polygon fill="none" stroke="black" points="988,-330 988,-352 1144,-352 1144,-330 988,-330"/>
<image xlink:href="../../images/foreignKeys.png" width="11px" height="12px" preserveAspectRatio="xMinYMin meet" x="993" y="-347"/>
<text text-anchor="start" x="1008" y="-338.2" font-family="Helvetica,sans-Serif" font-size="11.00">resource_group_id</text>
<polygon fill="none" stroke="black" points="988,-312 988,-330 1144,-330 1144,-312 988,-312"/>
<text text-anchor="start" x="991" y="-318.2" font-family="Helvetica,sans-Serif" font-size="11.00">...</text>
<polygon fill="#ffffff" stroke="none" points="988,-294 988,-312 1059,-312 1059,-294 988,-294"/>
<polygon fill="none" stroke="black" points="988,-294 988,-312 1059,-312 1059,-294 988,-294"/>
<text text-anchor="start" x="991" y="-300.2" font-family="Helvetica,sans-Serif" font-size="11.00">&lt; 7</text>
<polygon fill="#ffffff" stroke="none" points="1059,-294 1059,-312 1096,-312 1096,-294 1059,-294"/>
<polygon fill="none" stroke="black" points="1059,-294 1059,-312 1096,-312 1096,-294 1059,-294"/>
<text text-anchor="start" x="1086" y="-300.2" font-family="Helvetica,sans-Serif" font-size="11.00"> &#160;</text>
<polygon fill="#ffffff" stroke="none" points="1096,-294 1096,-312 1144,-312 1144,-294 1096,-294"/>
<polygon fill="none" stroke="black" points="1096,-294 1096,-312 1144,-312 1144,-294 1096,-294"/>
<text text-anchor="start" x="1124" y="-300.2" font-family="Helvetica,sans-Serif" font-size="11.00">4 &gt;</text>
</a>
</g>
</g>
<!-- security_groups&#45;&gt;cloud_networks -->
<g id="edge12" class="edge"><title>security_groups:cloud_network_id:w&#45;&gt;cloud_networks:id:e</title>
<path fill="none" stroke="black" d="M972.639,-474.748C918.393,-490.329 1006.84,-605.938 947,-654 864.874,-719.958 814.554,-666.788 710,-654 572.724,-637.209 530.858,-642.503 408,-579 387.423,-568.364 391.663,-545 368.5,-545"/>
<polygon fill="black" stroke="black" points="979.059,-473.967 987.435,-476.574 983.029,-473.483 987,-473 987,-473 987,-473 983.029,-473.483 986.565,-469.426 979.059,-473.967 979.059,-473.967"/>
<ellipse fill="none" stroke="black" cx="975.882" cy="-474.353" rx="3.2" ry="3.2"/>
</g>
<!-- security_groups&#45;&gt;cloud_tenants -->
<g id="edge14" class="edge"><title>security_groups:cloud_tenant_id:w&#45;&gt;cloud_tenants:id:e</title>
<path fill="none" stroke="black" d="M972.57,-452.539C909.225,-468.194 1013.73,-599.135 947,-654 837.929,-743.677 362.965,-757.139 178,-615 135.482,-582.327 192.122,-501 138.5,-501"/>
<polygon fill="black" stroke="black" points="979.045,-451.848 987.382,-454.58 983.023,-451.424 987,-451 987,-451 987,-451 983.023,-451.424 986.618,-447.42 979.045,-451.848 979.045,-451.848"/>
<ellipse fill="none" stroke="black" cx="975.863" cy="-452.188" rx="3.2" ry="3.2"/>
</g>
<!-- security_groups&#45;&gt;cloud_subnets -->
<g id="edge13" class="edge"><title>security_groups:cloud_subnet_id:w&#45;&gt;cloud_subnets:id:e</title>
<path fill="none" stroke="black" d="M972.967,-358.835C948.313,-339.565 984.645,-260 940.5,-260"/>
<polygon fill="black" stroke="black" points="979.331,-360.724 985.976,-366.451 983.165,-361.862 987,-363 987,-363 987,-363 983.165,-361.862 988.024,-359.549 979.331,-360.724 979.331,-360.724"/>
<ellipse fill="none" stroke="black" cx="976.263" cy="-359.813" rx="3.20001" ry="3.20001"/>
</g>
<!-- security_groups&#45;&gt;network_groups -->
<g id="edge15" class="edge"><title>security_groups:network_group_id:w&#45;&gt;network_groups:id:e</title>
<path fill="none" stroke="black" d="M973.19,-402.383C962.868,-393.026 964.711,-371.798 947,-361 854.411,-304.547 792.734,-373.105 710,-303 681.594,-278.93 708.083,-246.496 677,-226 577.19,-160.186 520.816,-186.426 408,-226 379.803,-235.891 385.381,-268 355.5,-268"/>
<polygon fill="black" stroke="black" points="979.413,-404.464 985.859,-410.414 983.206,-405.732 987,-407 987,-407 987,-407 983.206,-405.732 988.141,-403.586 979.413,-404.464 979.413,-404.464"/>
<ellipse fill="none" stroke="black" cx="976.378" cy="-403.449" rx="3.20001" ry="3.20001"/>
</g>
<!-- security_groups&#45;&gt;network_routers -->
<g id="edge16" class="edge"><title>security_groups:network_router_id:w&#45;&gt;network_routers:id.type:e</title>
<path fill="none" stroke="black" d="M972.531,-384.748C859.528,-380.807 808.163,-332.92 710,-399 673.795,-423.372 712.144,-488 668.5,-488"/>
<polygon fill="black" stroke="black" points="979.001,-384.86 986.937,-388.599 983.001,-384.93 987,-385 987,-385 987,-385 983.001,-384.93 987.063,-381.401 979.001,-384.86 979.001,-384.86"/>
<ellipse fill="none" stroke="black" cx="975.802" cy="-384.805" rx="3.2" ry="3.2"/>
</g>
</g>
</svg>
