<?xml version="1.0" encoding="UTF-8" standalone="no"?>
<!DOCTYPE svg PUBLIC "-//W3C//DTD SVG 1.1//EN"
 "http://www.w3.org/Graphics/SVG/1.1/DTD/svg11.dtd">
<!-- Generated by graphviz version 2.38.0 (20140413.2041)
 -->
<!-- Title: twoDegreesRelationshipsDiagram Pages: 1 -->
<svg width="691pt" height="326pt"
 viewBox="0.00 0.00 691.00 326.00" xmlns="http://www.w3.org/2000/svg" xmlns:xlink="http://www.w3.org/1999/xlink">
<g id="graph0" class="graph" transform="scale(1 1) rotate(0) translate(4 322)">
<title>twoDegreesRelationshipsDiagram</title>
<polygon fill="#ffffff" stroke="none" points="-4,4 -4,-322 687,-322 687,4 -4,4"/>
<text text-anchor="middle" x="74.5" y="-7.2" font-family="Helvetica,sans-Serif" font-size="11.00">Generated by SchemaSpy</text>
<!-- notification_recipients -->
<g id="node1" class="node"><title>notification_recipients</title>
<g id="a_node1"><a xlink:href="../../tables/notification_recipients.html" xlink:title="notification_recipients" target="_top">
<polygon fill="#ffffff" stroke="none" points="497,-138 497,-196 675,-196 675,-138 497,-138"/>
<polygon fill="#f5f5f5" stroke="none" points="497,-174 497,-196 675,-196 675,-174 497,-174"/>
<polygon fill="none" stroke="black" points="497,-174 497,-196 675,-196 675,-174 497,-174"/>
<text text-anchor="start" x="502" y="-183.2" font-family="Helvetica,sans-Serif" font-weight="bold" font-size="11.00">notification_recipients</text>
<text text-anchor="start" x="636" y="-182.2" font-family="Helvetica,sans-Serif" font-size="11.00">[table]</text>
<polygon fill="none" stroke="black" points="497,-156 497,-174 675,-174 675,-156 497,-156"/>
<text text-anchor="start" x="500" y="-162.2" font-family="Helvetica,sans-Serif" font-size="11.00">...</text>
<polygon fill="#ffffff" stroke="none" points="497,-138 497,-156 584,-156 584,-138 497,-138"/>
<polygon fill="none" stroke="black" points="497,-138 497,-156 584,-156 584,-138 497,-138"/>
<text text-anchor="start" x="500" y="-144.2" font-family="Helvetica,sans-Serif" font-size="11.00">&lt; 2</text>
<polygon fill="#ffffff" stroke="none" points="584,-138 584,-156 629,-156 629,-138 584,-138"/>
<polygon fill="none" stroke="black" points="584,-138 584,-156 629,-156 629,-138 584,-138"/>
<text text-anchor="start" x="619" y="-144.2" font-family="Helvetica,sans-Serif" font-size="11.00"> &#160;</text>
<polygon fill="#ffffff" stroke="none" points="629,-138 629,-156 675,-156 675,-138 629,-138"/>
<polygon fill="none" stroke="black" points="629,-138 629,-156 675,-156 675,-138 629,-138"/>
<text text-anchor="start" x="665" y="-144.2" font-family="Helvetica,sans-Serif" font-size="11.00"> &#160;</text>
</a>
</g>
</g>
<!-- notifications -->
<g id="node2" class="node"><title>notifications</title>
<g id="a_node2"><a xlink:href="../../tables/notifications.html" xlink:title="notifications" target="_top">
<polygon fill="#ffffff" stroke="none" points="310,-88 310,-300 448,-300 448,-88 310,-88"/>
<polygon fill="#f5f5f5" stroke="none" points="310,-278 310,-300 448,-300 448,-278 310,-278"/>
<polygon fill="none" stroke="black" points="310,-278 310,-300 448,-300 448,-278 310,-278"/>
<text text-anchor="start" x="315" y="-287.2" font-family="Helvetica,sans-Serif" font-weight="bold" font-size="11.00">notifications</text>
<text text-anchor="start" x="409" y="-286.2" font-family="Helvetica,sans-Serif" font-size="11.00">[table]</text>
<polygon fill="none" stroke="black" points="310,-256 310,-278 448,-278 448,-256 310,-256"/>
<image xlink:href="../../images/primaryKeys.png" width="11px" height="12px" preserveAspectRatio="xMinYMin meet" x="315" y="-273"/>
<text text-anchor="start" x="330" y="-264.2" font-family="Helvetica,sans-Serif" font-size="11.00">id</text>
<polygon fill="#ffffff" stroke="none" points="310,-234 310,-256 448,-256 448,-234 310,-234"/>
<polygon fill="none" stroke="black" points="310,-234 310,-256 448,-256 448,-234 310,-234"/>
<image xlink:href="../../images/foreignKeys.png" width="11px" height="12px" preserveAspectRatio="xMinYMin meet" x="315" y="-251"/>
<text text-anchor="start" x="330" y="-242.2" font-family="Helvetica,sans-Serif" font-size="11.00">notification_type_id</text>
<polygon fill="#ffffff" stroke="none" points="310,-212 310,-234 448,-234 448,-212 310,-212"/>
<polygon fill="none" stroke="black" points="310,-212 310,-234 448,-234 448,-212 310,-212"/>
<image xlink:href="../../images/foreignKeys.png" width="11px" height="12px" preserveAspectRatio="xMinYMin meet" x="315" y="-229"/>
<text text-anchor="start" x="330" y="-220.2" font-family="Helvetica,sans-Serif" font-size="11.00">user_id</text>
<polygon fill="#ffffff" stroke="none" points="310,-190 310,-212 448,-212 448,-190 310,-190"/>
<polygon fill="none" stroke="black" points="310,-190 310,-212 448,-212 448,-190 310,-190"/>
<text text-anchor="start" x="330" y="-198.2" font-family="Helvetica,sans-Serif" font-size="11.00">subject_type</text>
<polygon fill="#ffffff" stroke="none" points="310,-168 310,-190 448,-190 448,-168 310,-168"/>
<polygon fill="none" stroke="black" points="310,-168 310,-190 448,-190 448,-168 310,-168"/>
<text text-anchor="start" x="330" y="-176.2" font-family="Helvetica,sans-Serif" font-size="11.00">subject_id</text>
<polygon fill="#ffffff" stroke="none" points="310,-146 310,-168 448,-168 448,-146 310,-146"/>
<polygon fill="none" stroke="black" points="310,-146 310,-168 448,-168 448,-146 310,-146"/>
<text text-anchor="start" x="330" y="-154.2" font-family="Helvetica,sans-Serif" font-size="11.00">cause_type</text>
<polygon fill="#ffffff" stroke="none" points="310,-124 310,-146 448,-146 448,-124 310,-124"/>
<polygon fill="none" stroke="black" points="310,-124 310,-146 448,-146 448,-124 310,-124"/>
<text text-anchor="start" x="330" y="-132.2" font-family="Helvetica,sans-Serif" font-size="11.00">cause_id</text>
<polygon fill="none" stroke="black" points="310,-106 310,-124 448,-124 448,-106 310,-106"/>
<text text-anchor="start" x="313" y="-112.2" font-family="Helvetica,sans-Serif" font-size="11.00">...</text>
<polygon fill="#ffffff" stroke="none" points="310,-88 310,-106 372,-106 372,-88 310,-88"/>
<polygon fill="none" stroke="black" points="310,-88 310,-106 372,-106 372,-88 310,-88"/>
<text text-anchor="start" x="313" y="-94.2" font-family="Helvetica,sans-Serif" font-size="11.00">&lt; 2</text>
<polygon fill="#ffffff" stroke="none" points="372,-88 372,-106 405,-106 405,-88 372,-88"/>
<polygon fill="none" stroke="black" points="372,-88 372,-106 405,-106 405,-88 372,-88"/>
<text text-anchor="start" x="395" y="-94.2" font-family="Helvetica,sans-Serif" font-size="11.00"> &#160;</text>
<polygon fill="#ffffff" stroke="none" points="405,-88 405,-106 448,-106 448,-88 405,-88"/>
<polygon fill="none" stroke="black" points="405,-88 405,-106 448,-106 448,-88 405,-88"/>
<text text-anchor="start" x="428" y="-94.2" font-family="Helvetica,sans-Serif" font-size="11.00">1 &gt;</text>
</a>
</g>
</g>
<!-- notification_recipients&#45;&gt;notifications -->
<g id="edge1" class="edge"><title>notification_recipients:elipses:w&#45;&gt;notifications:id:e</title>
<path fill="none" stroke="black" d="M482.022,-169.125C457.373,-188.207 492.87,-267 449,-267"/>
<polygon fill="black" stroke="black" points="488.327,-167.264 497.019,-168.453 492.164,-166.132 496,-165 496,-165 496,-165 492.164,-166.132 494.981,-161.547 488.327,-167.264 488.327,-167.264"/>
<ellipse fill="none" stroke="black" cx="485.258" cy="-168.17" rx="3.20001" ry="3.20001"/>
</g>
<!-- users -->
<g id="node3" class="node"><title>users</title>
<g id="a_node3"><a xlink:href="../../tables/users.html" xlink:title="users" target="_top">
<polygon fill="#ffffff" stroke="none" points="95,-37 95,-95 174,-95 174,-37 95,-37"/>
<polygon fill="#f5f5f5" stroke="none" points="95.5,-73 95.5,-95 174.5,-95 174.5,-73 95.5,-73"/>
<polygon fill="none" stroke="black" points="95.5,-73 95.5,-95 174.5,-95 174.5,-73 95.5,-73"/>
<text text-anchor="start" x="100.5" y="-82.2" font-family="Helvetica,sans-Serif" font-weight="bold" font-size="11.00">users</text>
<text text-anchor="start" x="135.5" y="-81.2" font-family="Helvetica,sans-Serif" font-size="11.00">[table]</text>
<polygon fill="none" stroke="black" points="95.5,-55 95.5,-73 174.5,-73 174.5,-55 95.5,-55"/>
<text text-anchor="start" x="98.5" y="-61.2" font-family="Helvetica,sans-Serif" font-size="11.00">...</text>
<polygon fill="#ffffff" stroke="none" points="95.5,-37 95.5,-55 119.5,-55 119.5,-37 95.5,-37"/>
<polygon fill="none" stroke="black" points="95.5,-37 95.5,-55 119.5,-55 119.5,-37 95.5,-37"/>
<text text-anchor="start" x="98.5" y="-43.2" font-family="Helvetica,sans-Serif" font-size="11.00"> &#160;</text>
<polygon fill="#ffffff" stroke="none" points="119.5,-37 119.5,-55 138.5,-55 138.5,-37 119.5,-37"/>
<polygon fill="none" stroke="black" points="119.5,-37 119.5,-55 138.5,-55 138.5,-37 119.5,-37"/>
<text text-anchor="start" x="128.5" y="-43.2" font-family="Helvetica,sans-Serif" font-size="11.00"> &#160;</text>
<polygon fill="#ffffff" stroke="none" points="138.5,-37 138.5,-55 174.5,-55 174.5,-37 138.5,-37"/>
<polygon fill="none" stroke="black" points="138.5,-37 138.5,-55 174.5,-55 174.5,-37 138.5,-37"/>
<text text-anchor="start" x="147.5" y="-43.2" font-family="Helvetica,sans-Serif" font-size="11.00">15 &gt;</text>
</a>
</g>
</g>
<!-- notification_recipients&#45;&gt;users -->
<g id="edge2" class="edge"><title>notification_recipients:elipses:w&#45;&gt;users:elipses:e</title>
<path fill="none" stroke="black" d="M481.859,-161.161C463.056,-147.118 486.015,-98.3089 456,-78 352.619,-8.0509 300.322,-64 175.5,-64"/>
<polygon fill="black" stroke="black" points="488.279,-162.904 495.057,-168.474 492.14,-163.952 496,-165 496,-165 496,-165 492.14,-163.952 496.943,-161.526 488.279,-162.904 488.279,-162.904"/>
<ellipse fill="none" stroke="black" cx="485.191" cy="-162.065" rx="3.2" ry="3.2"/>
</g>
<!-- notifications&#45;&gt;users -->
<g id="edge4" class="edge"><title>notifications:user_id:w&#45;&gt;users:elipses:e</title>
<path fill="none" stroke="black" d="M294.549,-220.406C264.349,-206.719 301.967,-142.176 269,-106 238.316,-72.3285 221.056,-64 175.5,-64"/>
<polygon fill="black" stroke="black" points="301.126,-221.586 308.364,-226.543 305.063,-222.293 309,-223 309,-223 309,-223 305.063,-222.293 309.636,-219.457 301.126,-221.586 301.126,-221.586"/>
<ellipse fill="none" stroke="black" cx="297.976" cy="-221.021" rx="3.2" ry="3.2"/>
</g>
<!-- notification_types -->
<g id="node4" class="node"><title>notification_types</title>
<g id="a_node4"><a xlink:href="../../tables/notification_types.html" xlink:title="notification_types" target="_top">
<polygon fill="#ffffff" stroke="none" points="8,-116 8,-314 261,-314 261,-116 8,-116"/>
<polygon fill="#f5f5f5" stroke="none" points="10.5,-290 10.5,-312 259.5,-312 259.5,-290 10.5,-290"/>
<polygon fill="none" stroke="black" points="10.5,-290 10.5,-312 259.5,-312 259.5,-290 10.5,-290"/>
<text text-anchor="start" x="15.5" y="-299.2" font-family="Helvetica,sans-Serif" font-weight="bold" font-size="11.00">notification_types</text>
<text text-anchor="start" x="220.5" y="-298.2" font-family="Helvetica,sans-Serif" font-size="11.00">[table]</text>
<polygon fill="none" stroke="black" points="10.5,-268 10.5,-290 138.5,-290 138.5,-268 10.5,-268"/>
<image xlink:href="../../images/primaryKeys.png" width="11px" height="12px" preserveAspectRatio="xMinYMin meet" x="15.5" y="-285"/>
<text text-anchor="start" x="30.5" y="-276.2" font-family="Helvetica,sans-Serif" font-size="11.00">id</text>
<polygon fill="none" stroke="black" points="138.5,-268 138.5,-290 259.5,-290 259.5,-268 138.5,-268"/>
<text text-anchor="start" x="141.5" y="-276.2" font-family="Helvetica,sans-Serif" font-size="11.00">bigserial[19]</text>
<polygon fill="#ffffff" stroke="none" points="10.5,-246 10.5,-268 138.5,-268 138.5,-246 10.5,-246"/>
<polygon fill="none" stroke="black" points="10.5,-246 10.5,-268 138.5,-268 138.5,-246 10.5,-246"/>
<text text-anchor="start" x="30.5" y="-254.2" font-family="Helvetica,sans-Serif" font-size="11.00">name</text>
<polygon fill="none" stroke="black" points="138.5,-246 138.5,-268 259.5,-268 259.5,-246 138.5,-246"/>
<text text-anchor="start" x="141.5" y="-254.2" font-family="Helvetica,sans-Serif" font-size="11.00">varchar[2147483647]</text>
<polygon fill="none" stroke="black" points="10.5,-224 10.5,-246 138.5,-246 138.5,-224 10.5,-224"/>
<text text-anchor="start" x="30.5" y="-232.2" font-family="Helvetica,sans-Serif" font-size="11.00">level</text>
<polygon fill="none" stroke="black" points="138.5,-224 138.5,-246 259.5,-246 259.5,-224 138.5,-224"/>
<text text-anchor="start" x="141.5" y="-232.2" font-family="Helvetica,sans-Serif" font-size="11.00">varchar[2147483647]</text>
<polygon fill="none" stroke="black" points="10.5,-202 10.5,-224 138.5,-224 138.5,-202 10.5,-202"/>
<text text-anchor="start" x="30.5" y="-210.2" font-family="Helvetica,sans-Serif" font-size="11.00">audience</text>
<polygon fill="none" stroke="black" points="138.5,-202 138.5,-224 259.5,-224 259.5,-202 138.5,-202"/>
<text text-anchor="start" x="141.5" y="-210.2" font-family="Helvetica,sans-Serif" font-size="11.00">varchar[2147483647]</text>
<polygon fill="none" stroke="black" points="10.5,-180 10.5,-202 138.5,-202 138.5,-180 10.5,-180"/>
<text text-anchor="start" x="30.5" y="-188.2" font-family="Helvetica,sans-Serif" font-size="11.00">message</text>
<polygon fill="none" stroke="black" points="138.5,-180 138.5,-202 259.5,-202 259.5,-180 138.5,-180"/>
<text text-anchor="start" x="141.5" y="-188.2" font-family="Helvetica,sans-Serif" font-size="11.00">text[2147483647]</text>
<polygon fill="none" stroke="black" points="10.5,-158 10.5,-180 138.5,-180 138.5,-158 10.5,-158"/>
<text text-anchor="start" x="30.5" y="-166.2" font-family="Helvetica,sans-Serif" font-size="11.00">expires_in</text>
<polygon fill="none" stroke="black" points="138.5,-158 138.5,-180 259.5,-180 259.5,-158 138.5,-158"/>
<text text-anchor="start" x="141.5" y="-166.2" font-family="Helvetica,sans-Serif" font-size="11.00">int4[10]</text>
<polygon fill="none" stroke="black" points="10.5,-136 10.5,-158 138.5,-158 138.5,-136 10.5,-136"/>
<text text-anchor="start" x="30.5" y="-144.2" font-family="Helvetica,sans-Serif" font-size="11.00">link_to</text>
<polygon fill="none" stroke="black" points="138.5,-136 138.5,-158 259.5,-158 259.5,-136 138.5,-136"/>
<text text-anchor="start" x="141.5" y="-144.2" font-family="Helvetica,sans-Serif" font-size="11.00">varchar[2147483647]</text>
<polygon fill="#ffffff" stroke="none" points="10.5,-118 10.5,-136 79.5,-136 79.5,-118 10.5,-118"/>
<polygon fill="none" stroke="black" points="10.5,-118 10.5,-136 79.5,-136 79.5,-118 10.5,-118"/>
<text text-anchor="start" x="13.5" y="-124.2" font-family="Helvetica,sans-Serif" font-size="11.00">&lt; 0</text>
<polygon fill="#ffffff" stroke="none" points="79.5,-118 79.5,-136 138.5,-136 138.5,-118 79.5,-118"/>
<polygon fill="none" stroke="black" points="79.5,-118 79.5,-136 138.5,-136 138.5,-118 79.5,-118"/>
<text text-anchor="start" x="128.5" y="-124.2" font-family="Helvetica,sans-Serif" font-size="11.00"> &#160;</text>
<polygon fill="#ffffff" stroke="none" points="138.5,-118 138.5,-136 259.5,-136 259.5,-118 138.5,-118"/>
<polygon fill="none" stroke="black" points="138.5,-118 138.5,-136 259.5,-136 259.5,-118 138.5,-118"/>
<text text-anchor="start" x="239.5" y="-124.2" font-family="Helvetica,sans-Serif" font-size="11.00">1 &gt;</text>
<polygon fill="none" stroke="black" stroke-width="2" points="9,-117 9,-313 260,-313 260,-117 9,-117"/>
</a>
</g>
</g>
<!-- notifications&#45;&gt;notification_types -->
<g id="edge3" class="edge"><title>notifications:notification_type_id:w&#45;&gt;notification_types:id.type:e</title>
<path fill="none" stroke="black" d="M295.091,-249.445C282.991,-258.661 280.86,-279 260.5,-279"/>
<polygon fill="black" stroke="black" points="301.38,-247.435 310.096,-248.429 305.19,-246.218 309,-245 309,-245 309,-245 305.19,-246.218 307.904,-241.571 301.38,-247.435 301.38,-247.435"/>
<ellipse fill="none" stroke="black" cx="298.332" cy="-248.409" rx="3.20001" ry="3.20001"/>
</g>
</g>
</svg>
