<?xml version="1.0" encoding="UTF-8" standalone="no"?>
<!DOCTYPE svg PUBLIC "-//W3C//DTD SVG 1.1//EN"
 "http://www.w3.org/Graphics/SVG/1.1/DTD/svg11.dtd">
<!-- Generated by graphviz version 2.38.0 (20140413.2041)
 -->
<!-- Title: oneDegreeRelationshipsDiagram Pages: 1 -->
<svg width="639pt" height="297pt"
 viewBox="0.00 0.00 639.00 297.00" xmlns="http://www.w3.org/2000/svg" xmlns:xlink="http://www.w3.org/1999/xlink">
<g id="graph0" class="graph" transform="scale(1 1) rotate(0) translate(4 293)">
<title>oneDegreeRelationshipsDiagram</title>
<polygon fill="#ffffff" stroke="none" points="-4,4 -4,-293 635,-293 635,4 -4,4"/>
<text text-anchor="middle" x="74.5" y="-7.2" font-family="Helvetica,sans-Serif" font-size="11.00">Generated by SchemaSpy</text>
<!-- notification_recipients -->
<g id="node1" class="node"><title>notification_recipients</title>
<g id="a_node1"><a xlink:href="../../tables/notification_recipients.html" xlink:title="notification_recipients" target="_top">
<polygon fill="#ffffff" stroke="none" points="393,-86 393,-218 623,-218 623,-86 393,-86"/>
<polygon fill="#f5f5f5" stroke="none" points="395,-194 395,-216 621,-216 621,-194 395,-194"/>
<polygon fill="none" stroke="black" points="395,-194 395,-216 621,-216 621,-194 395,-194"/>
<text text-anchor="start" x="400" y="-203.2" font-family="Helvetica,sans-Serif" font-weight="bold" font-size="11.00">notification_recipients</text>
<text text-anchor="start" x="582" y="-202.2" font-family="Helvetica,sans-Serif" font-size="11.00">[table]</text>
<polygon fill="none" stroke="black" points="395,-172 395,-194 550,-194 550,-172 395,-172"/>
<image xlink:href="../../images/primaryKeys.png" width="11px" height="12px" preserveAspectRatio="xMinYMin meet" x="400" y="-189"/>
<text text-anchor="start" x="415" y="-180.2" font-family="Helvetica,sans-Serif" font-size="11.00">id</text>
<polygon fill="none" stroke="black" points="550,-172 550,-194 621,-194 621,-172 550,-172"/>
<text text-anchor="start" x="553" y="-180.2" font-family="Helvetica,sans-Serif" font-size="11.00">bigserial[19]</text>
<polygon fill="#ffffff" stroke="none" points="395,-150 395,-172 550,-172 550,-150 395,-150"/>
<polygon fill="none" stroke="black" points="395,-150 395,-172 550,-172 550,-150 395,-150"/>
<image xlink:href="../../images/foreignKeys.png" width="11px" height="12px" preserveAspectRatio="xMinYMin meet" x="400" y="-167"/>
<text text-anchor="start" x="415" y="-158.2" font-family="Helvetica,sans-Serif" font-size="11.00">notification_id</text>
<polygon fill="none" stroke="black" points="550,-150 550,-172 621,-172 621,-150 550,-150"/>
<text text-anchor="start" x="553" y="-158.2" font-family="Helvetica,sans-Serif" font-size="11.00">int8[19]</text>
<polygon fill="#ffffff" stroke="none" points="395,-128 395,-150 550,-150 550,-128 395,-128"/>
<polygon fill="none" stroke="black" points="395,-128 395,-150 550,-150 550,-128 395,-128"/>
<image xlink:href="../../images/foreignKeys.png" width="11px" height="12px" preserveAspectRatio="xMinYMin meet" x="400" y="-145"/>
<text text-anchor="start" x="415" y="-136.2" font-family="Helvetica,sans-Serif" font-size="11.00">user_id</text>
<polygon fill="none" stroke="black" points="550,-128 550,-150 621,-150 621,-128 550,-128"/>
<text text-anchor="start" x="553" y="-136.2" font-family="Helvetica,sans-Serif" font-size="11.00">int8[19]</text>
<polygon fill="none" stroke="black" points="395,-106 395,-128 550,-128 550,-106 395,-106"/>
<text text-anchor="start" x="415" y="-114.2" font-family="Helvetica,sans-Serif" font-size="11.00">seen</text>
<polygon fill="none" stroke="black" points="550,-106 550,-128 621,-128 621,-106 550,-106"/>
<text text-anchor="start" x="553" y="-114.2" font-family="Helvetica,sans-Serif" font-size="11.00">bool[1]</text>
<polygon fill="#ffffff" stroke="none" points="395,-88 395,-106 477,-106 477,-88 395,-88"/>
<polygon fill="none" stroke="black" points="395,-88 395,-106 477,-106 477,-88 395,-88"/>
<text text-anchor="start" x="398" y="-94.2" font-family="Helvetica,sans-Serif" font-size="11.00">&lt; 2</text>
<polygon fill="#ffffff" stroke="none" points="477,-88 477,-106 550,-106 550,-88 477,-88"/>
<polygon fill="none" stroke="black" points="477,-88 477,-106 550,-106 550,-88 477,-88"/>
<text text-anchor="start" x="540" y="-94.2" font-family="Helvetica,sans-Serif" font-size="11.00"> &#160;</text>
<polygon fill="#ffffff" stroke="none" points="550,-88 550,-106 621,-106 621,-88 550,-88"/>
<polygon fill="none" stroke="black" points="550,-88 550,-106 621,-106 621,-88 550,-88"/>
<text text-anchor="start" x="601" y="-94.2" font-family="Helvetica,sans-Serif" font-size="11.00">0 &gt;</text>
<polygon fill="none" stroke="black" stroke-width="2" points="394,-87 394,-217 622,-217 622,-87 394,-87"/>
</a>
</g>
</g>
<!-- notifications -->
<g id="node2" class="node"><title>notifications</title>
<g id="a_node2"><a xlink:href="../../tables/notifications.html" xlink:title="notifications" target="_top">
<polygon fill="#ffffff" stroke="none" points="206,-73 206,-285 344,-285 344,-73 206,-73"/>
<polygon fill="#f5f5f5" stroke="none" points="206,-263 206,-285 344,-285 344,-263 206,-263"/>
<polygon fill="none" stroke="black" points="206,-263 206,-285 344,-285 344,-263 206,-263"/>
<text text-anchor="start" x="211" y="-272.2" font-family="Helvetica,sans-Serif" font-weight="bold" font-size="11.00">notifications</text>
<text text-anchor="start" x="305" y="-271.2" font-family="Helvetica,sans-Serif" font-size="11.00">[table]</text>
<polygon fill="none" stroke="black" points="206,-241 206,-263 344,-263 344,-241 206,-241"/>
<image xlink:href="../../images/primaryKeys.png" width="11px" height="12px" preserveAspectRatio="xMinYMin meet" x="211" y="-258"/>
<text text-anchor="start" x="226" y="-249.2" font-family="Helvetica,sans-Serif" font-size="11.00">id</text>
<polygon fill="#ffffff" stroke="none" points="206,-219 206,-241 344,-241 344,-219 206,-219"/>
<polygon fill="none" stroke="black" points="206,-219 206,-241 344,-241 344,-219 206,-219"/>
<image xlink:href="../../images/foreignKeys.png" width="11px" height="12px" preserveAspectRatio="xMinYMin meet" x="211" y="-236"/>
<text text-anchor="start" x="226" y="-227.2" font-family="Helvetica,sans-Serif" font-size="11.00">notification_type_id</text>
<polygon fill="#ffffff" stroke="none" points="206,-197 206,-219 344,-219 344,-197 206,-197"/>
<polygon fill="none" stroke="black" points="206,-197 206,-219 344,-219 344,-197 206,-197"/>
<image xlink:href="../../images/foreignKeys.png" width="11px" height="12px" preserveAspectRatio="xMinYMin meet" x="211" y="-214"/>
<text text-anchor="start" x="226" y="-205.2" font-family="Helvetica,sans-Serif" font-size="11.00">user_id</text>
<polygon fill="#ffffff" stroke="none" points="206,-175 206,-197 344,-197 344,-175 206,-175"/>
<polygon fill="none" stroke="black" points="206,-175 206,-197 344,-197 344,-175 206,-175"/>
<text text-anchor="start" x="226" y="-183.2" font-family="Helvetica,sans-Serif" font-size="11.00">subject_type</text>
<polygon fill="#ffffff" stroke="none" points="206,-153 206,-175 344,-175 344,-153 206,-153"/>
<polygon fill="none" stroke="black" points="206,-153 206,-175 344,-175 344,-153 206,-153"/>
<text text-anchor="start" x="226" y="-161.2" font-family="Helvetica,sans-Serif" font-size="11.00">subject_id</text>
<polygon fill="#ffffff" stroke="none" points="206,-131 206,-153 344,-153 344,-131 206,-131"/>
<polygon fill="none" stroke="black" points="206,-131 206,-153 344,-153 344,-131 206,-131"/>
<text text-anchor="start" x="226" y="-139.2" font-family="Helvetica,sans-Serif" font-size="11.00">cause_type</text>
<polygon fill="#ffffff" stroke="none" points="206,-109 206,-131 344,-131 344,-109 206,-109"/>
<polygon fill="none" stroke="black" points="206,-109 206,-131 344,-131 344,-109 206,-109"/>
<text text-anchor="start" x="226" y="-117.2" font-family="Helvetica,sans-Serif" font-size="11.00">cause_id</text>
<polygon fill="none" stroke="black" points="206,-91 206,-109 344,-109 344,-91 206,-91"/>
<text text-anchor="start" x="209" y="-97.2" font-family="Helvetica,sans-Serif" font-size="11.00">...</text>
<polygon fill="#ffffff" stroke="none" points="206,-73 206,-91 268,-91 268,-73 206,-73"/>
<polygon fill="none" stroke="black" points="206,-73 206,-91 268,-91 268,-73 206,-73"/>
<text text-anchor="start" x="209" y="-79.2" font-family="Helvetica,sans-Serif" font-size="11.00">&lt; 2</text>
<polygon fill="#ffffff" stroke="none" points="268,-73 268,-91 301,-91 301,-73 268,-73"/>
<polygon fill="none" stroke="black" points="268,-73 268,-91 301,-91 301,-73 268,-73"/>
<text text-anchor="start" x="291" y="-79.2" font-family="Helvetica,sans-Serif" font-size="11.00"> &#160;</text>
<polygon fill="#ffffff" stroke="none" points="301,-73 301,-91 344,-91 344,-73 301,-73"/>
<polygon fill="none" stroke="black" points="301,-73 301,-91 344,-91 344,-73 301,-73"/>
<text text-anchor="start" x="324" y="-79.2" font-family="Helvetica,sans-Serif" font-size="11.00">1 &gt;</text>
</a>
</g>
</g>
<!-- notification_recipients&#45;&gt;notifications -->
<g id="edge1" class="edge"><title>notification_recipients:notification_id:w&#45;&gt;notifications:id:e</title>
<path fill="none" stroke="black" d="M379.981,-165.389C357.886,-183.567 384.834,-252 345,-252"/>
<polygon fill="black" stroke="black" points="386.365,-163.39 395.076,-164.436 390.183,-162.195 394,-161 394,-161 394,-161 390.183,-162.195 392.924,-157.564 386.365,-163.39 386.365,-163.39"/>
<ellipse fill="none" stroke="black" cx="383.312" cy="-164.346" rx="3.20001" ry="3.20001"/>
</g>
<!-- users -->
<g id="node3" class="node"><title>users</title>
<g id="a_node3"><a xlink:href="../../tables/users.html" xlink:title="users" target="_top">
<polygon fill="#ffffff" stroke="none" points="8,-37 8,-161 157,-161 157,-37 8,-37"/>
<polygon fill="#f5f5f5" stroke="none" points="8.5,-139 8.5,-161 157.5,-161 157.5,-139 8.5,-139"/>
<polygon fill="none" stroke="black" points="8.5,-139 8.5,-161 157.5,-161 157.5,-139 8.5,-139"/>
<text text-anchor="start" x="13.5" y="-148.2" font-family="Helvetica,sans-Serif" font-weight="bold" font-size="11.00">users</text>
<text text-anchor="start" x="118.5" y="-147.2" font-family="Helvetica,sans-Serif" font-size="11.00">[table]</text>
<polygon fill="none" stroke="black" points="8.5,-117 8.5,-139 157.5,-139 157.5,-117 8.5,-117"/>
<image xlink:href="../../images/primaryKeys.png" width="11px" height="12px" preserveAspectRatio="xMinYMin meet" x="13.5" y="-134"/>
<text text-anchor="start" x="28.5" y="-125.2" font-family="Helvetica,sans-Serif" font-size="11.00">id</text>
<polygon fill="#ffffff" stroke="none" points="8.5,-95 8.5,-117 157.5,-117 157.5,-95 8.5,-95"/>
<polygon fill="none" stroke="black" points="8.5,-95 8.5,-117 157.5,-117 157.5,-95 8.5,-95"/>
<text text-anchor="start" x="28.5" y="-103.2" font-family="Helvetica,sans-Serif" font-size="11.00">userid</text>
<polygon fill="#ffffff" stroke="none" points="8.5,-73 8.5,-95 157.5,-95 157.5,-73 8.5,-73"/>
<polygon fill="none" stroke="black" points="8.5,-73 8.5,-95 157.5,-95 157.5,-73 8.5,-73"/>
<text text-anchor="start" x="28.5" y="-81.2" font-family="Helvetica,sans-Serif" font-size="11.00">current_group_id</text>
<polygon fill="none" stroke="black" points="8.5,-55 8.5,-73 157.5,-73 157.5,-55 8.5,-55"/>
<text text-anchor="start" x="11.5" y="-61.2" font-family="Helvetica,sans-Serif" font-size="11.00">...</text>
<polygon fill="#ffffff" stroke="none" points="8.5,-37 8.5,-55 67.5,-55 67.5,-37 8.5,-37"/>
<polygon fill="none" stroke="black" points="8.5,-37 8.5,-55 67.5,-55 67.5,-37 8.5,-37"/>
<text text-anchor="start" x="11.5" y="-43.2" font-family="Helvetica,sans-Serif" font-size="11.00"> &#160;</text>
<polygon fill="#ffffff" stroke="none" points="67.5,-37 67.5,-55 103.5,-55 103.5,-37 67.5,-37"/>
<polygon fill="none" stroke="black" points="67.5,-37 67.5,-55 103.5,-55 103.5,-37 67.5,-37"/>
<text text-anchor="start" x="93.5" y="-43.2" font-family="Helvetica,sans-Serif" font-size="11.00"> &#160;</text>
<polygon fill="#ffffff" stroke="none" points="103.5,-37 103.5,-55 157.5,-55 157.5,-37 103.5,-37"/>
<polygon fill="none" stroke="black" points="103.5,-37 103.5,-55 157.5,-55 157.5,-37 103.5,-37"/>
<text text-anchor="start" x="130.5" y="-43.2" font-family="Helvetica,sans-Serif" font-size="11.00">15 &gt;</text>
</a>
</g>
</g>
<!-- notification_recipients&#45;&gt;users -->
<g id="edge2" class="edge"><title>notification_recipients:user_id:w&#45;&gt;users:id:e</title>
<path fill="none" stroke="black" d="M379.95,-134.858C363.499,-121.487 379.786,-79.3915 352,-63 293.049,-28.224 257.655,-29.4455 198,-63 168.536,-79.5726 192.305,-128 158.5,-128"/>
<polygon fill="black" stroke="black" points="386.327,-136.738 392.982,-142.453 390.163,-137.869 394,-139 394,-139 394,-139 390.163,-137.869 395.018,-135.547 386.327,-136.738 386.327,-136.738"/>
<ellipse fill="none" stroke="black" cx="383.257" cy="-135.833" rx="3.20001" ry="3.20001"/>
</g>
<!-- notifications&#45;&gt;users -->
<g id="edge3" class="edge"><title>notifications:user_id:w&#45;&gt;users:id:e</title>
<path fill="none" stroke="black" d="M191.265,-203.235C172.794,-186.013 193.521,-128 158.5,-128"/>
<polygon fill="black" stroke="black" points="197.442,-205.378 203.82,-211.401 201.221,-206.689 205,-208 205,-208 205,-208 201.221,-206.689 206.18,-204.599 197.442,-205.378 197.442,-205.378"/>
<ellipse fill="none" stroke="black" cx="194.419" cy="-204.329" rx="3.20001" ry="3.20001"/>
</g>
</g>
</svg>
