<?xml version="1.0" encoding="UTF-8" standalone="no"?>
<!DOCTYPE svg PUBLIC "-//W3C//DTD SVG 1.1//EN"
 "http://www.w3.org/Graphics/SVG/1.1/DTD/svg11.dtd">
<!-- Generated by graphviz version 2.38.0 (20140413.2041)
 -->
<!-- Title: oneDegreeRelationshipsDiagram Pages: 1 -->
<svg width="464pt" height="267pt"
 viewBox="0.00 0.00 464.00 267.00" xmlns="http://www.w3.org/2000/svg" xmlns:xlink="http://www.w3.org/1999/xlink">
<g id="graph0" class="graph" transform="scale(1 1) rotate(0) translate(4 263)">
<title>oneDegreeRelationshipsDiagram</title>
<polygon fill="#ffffff" stroke="none" points="-4,4 -4,-263 460,-263 460,4 -4,4"/>
<text text-anchor="middle" x="74.5" y="-7.2" font-family="Helvetica,sans-Serif" font-size="11.00">Generated by SchemaSpy</text>
<!-- notifications -->
<g id="node1" class="node"><title>notifications</title>
<g id="a_node1"><a xlink:href="../../tables/notifications.html" xlink:title="notifications" target="_top">
<polygon fill="#ffffff" stroke="none" points="310,-43 310,-255 448,-255 448,-43 310,-43"/>
<polygon fill="#f5f5f5" stroke="none" points="310,-233 310,-255 448,-255 448,-233 310,-233"/>
<polygon fill="none" stroke="black" points="310,-233 310,-255 448,-255 448,-233 310,-233"/>
<text text-anchor="start" x="315" y="-242.2" font-family="Helvetica,sans-Serif" font-weight="bold" font-size="11.00">notifications</text>
<text text-anchor="start" x="409" y="-241.2" font-family="Helvetica,sans-Serif" font-size="11.00">[table]</text>
<polygon fill="none" stroke="black" points="310,-211 310,-233 448,-233 448,-211 310,-211"/>
<image xlink:href="../../images/primaryKeys.png" width="11px" height="12px" preserveAspectRatio="xMinYMin meet" x="315" y="-228"/>
<text text-anchor="start" x="330" y="-219.2" font-family="Helvetica,sans-Serif" font-size="11.00">id</text>
<polygon fill="#ffffff" stroke="none" points="310,-189 310,-211 448,-211 448,-189 310,-189"/>
<polygon fill="none" stroke="black" points="310,-189 310,-211 448,-211 448,-189 310,-189"/>
<image xlink:href="../../images/foreignKeys.png" width="11px" height="12px" preserveAspectRatio="xMinYMin meet" x="315" y="-206"/>
<text text-anchor="start" x="330" y="-197.2" font-family="Helvetica,sans-Serif" font-size="11.00">notification_type_id</text>
<polygon fill="#ffffff" stroke="none" points="310,-167 310,-189 448,-189 448,-167 310,-167"/>
<polygon fill="none" stroke="black" points="310,-167 310,-189 448,-189 448,-167 310,-167"/>
<image xlink:href="../../images/foreignKeys.png" width="11px" height="12px" preserveAspectRatio="xMinYMin meet" x="315" y="-184"/>
<text text-anchor="start" x="330" y="-175.2" font-family="Helvetica,sans-Serif" font-size="11.00">user_id</text>
<polygon fill="#ffffff" stroke="none" points="310,-145 310,-167 448,-167 448,-145 310,-145"/>
<polygon fill="none" stroke="black" points="310,-145 310,-167 448,-167 448,-145 310,-145"/>
<text text-anchor="start" x="330" y="-153.2" font-family="Helvetica,sans-Serif" font-size="11.00">subject_type</text>
<polygon fill="#ffffff" stroke="none" points="310,-123 310,-145 448,-145 448,-123 310,-123"/>
<polygon fill="none" stroke="black" points="310,-123 310,-145 448,-145 448,-123 310,-123"/>
<text text-anchor="start" x="330" y="-131.2" font-family="Helvetica,sans-Serif" font-size="11.00">subject_id</text>
<polygon fill="#ffffff" stroke="none" points="310,-101 310,-123 448,-123 448,-101 310,-101"/>
<polygon fill="none" stroke="black" points="310,-101 310,-123 448,-123 448,-101 310,-101"/>
<text text-anchor="start" x="330" y="-109.2" font-family="Helvetica,sans-Serif" font-size="11.00">cause_type</text>
<polygon fill="#ffffff" stroke="none" points="310,-79 310,-101 448,-101 448,-79 310,-79"/>
<polygon fill="none" stroke="black" points="310,-79 310,-101 448,-101 448,-79 310,-79"/>
<text text-anchor="start" x="330" y="-87.2" font-family="Helvetica,sans-Serif" font-size="11.00">cause_id</text>
<polygon fill="none" stroke="black" points="310,-61 310,-79 448,-79 448,-61 310,-61"/>
<text text-anchor="start" x="313" y="-67.2" font-family="Helvetica,sans-Serif" font-size="11.00">...</text>
<polygon fill="#ffffff" stroke="none" points="310,-43 310,-61 372,-61 372,-43 310,-43"/>
<polygon fill="none" stroke="black" points="310,-43 310,-61 372,-61 372,-43 310,-43"/>
<text text-anchor="start" x="313" y="-49.2" font-family="Helvetica,sans-Serif" font-size="11.00">&lt; 2</text>
<polygon fill="#ffffff" stroke="none" points="372,-43 372,-61 405,-61 405,-43 372,-43"/>
<polygon fill="none" stroke="black" points="372,-43 372,-61 405,-61 405,-43 372,-43"/>
<text text-anchor="start" x="395" y="-49.2" font-family="Helvetica,sans-Serif" font-size="11.00"> &#160;</text>
<polygon fill="#ffffff" stroke="none" points="405,-43 405,-61 448,-61 448,-43 405,-43"/>
<polygon fill="none" stroke="black" points="405,-43 405,-61 448,-61 448,-43 405,-43"/>
<text text-anchor="start" x="428" y="-49.2" font-family="Helvetica,sans-Serif" font-size="11.00">1 &gt;</text>
</a>
</g>
</g>
<!-- notification_types -->
<g id="node2" class="node"><title>notification_types</title>
<g id="a_node2"><a xlink:href="../../tables/notification_types.html" xlink:title="notification_types" target="_top">
<polygon fill="#ffffff" stroke="none" points="8,-37 8,-235 261,-235 261,-37 8,-37"/>
<polygon fill="#f5f5f5" stroke="none" points="10.5,-211 10.5,-233 259.5,-233 259.5,-211 10.5,-211"/>
<polygon fill="none" stroke="black" points="10.5,-211 10.5,-233 259.5,-233 259.5,-211 10.5,-211"/>
<text text-anchor="start" x="15.5" y="-220.2" font-family="Helvetica,sans-Serif" font-weight="bold" font-size="11.00">notification_types</text>
<text text-anchor="start" x="220.5" y="-219.2" font-family="Helvetica,sans-Serif" font-size="11.00">[table]</text>
<polygon fill="none" stroke="black" points="10.5,-189 10.5,-211 138.5,-211 138.5,-189 10.5,-189"/>
<image xlink:href="../../images/primaryKeys.png" width="11px" height="12px" preserveAspectRatio="xMinYMin meet" x="15.5" y="-206"/>
<text text-anchor="start" x="30.5" y="-197.2" font-family="Helvetica,sans-Serif" font-size="11.00">id</text>
<polygon fill="none" stroke="black" points="138.5,-189 138.5,-211 259.5,-211 259.5,-189 138.5,-189"/>
<text text-anchor="start" x="141.5" y="-197.2" font-family="Helvetica,sans-Serif" font-size="11.00">bigserial[19]</text>
<polygon fill="#ffffff" stroke="none" points="10.5,-167 10.5,-189 138.5,-189 138.5,-167 10.5,-167"/>
<polygon fill="none" stroke="black" points="10.5,-167 10.5,-189 138.5,-189 138.5,-167 10.5,-167"/>
<text text-anchor="start" x="30.5" y="-175.2" font-family="Helvetica,sans-Serif" font-size="11.00">name</text>
<polygon fill="none" stroke="black" points="138.5,-167 138.5,-189 259.5,-189 259.5,-167 138.5,-167"/>
<text text-anchor="start" x="141.5" y="-175.2" font-family="Helvetica,sans-Serif" font-size="11.00">varchar[2147483647]</text>
<polygon fill="none" stroke="black" points="10.5,-145 10.5,-167 138.5,-167 138.5,-145 10.5,-145"/>
<text text-anchor="start" x="30.5" y="-153.2" font-family="Helvetica,sans-Serif" font-size="11.00">level</text>
<polygon fill="none" stroke="black" points="138.5,-145 138.5,-167 259.5,-167 259.5,-145 138.5,-145"/>
<text text-anchor="start" x="141.5" y="-153.2" font-family="Helvetica,sans-Serif" font-size="11.00">varchar[2147483647]</text>
<polygon fill="none" stroke="black" points="10.5,-123 10.5,-145 138.5,-145 138.5,-123 10.5,-123"/>
<text text-anchor="start" x="30.5" y="-131.2" font-family="Helvetica,sans-Serif" font-size="11.00">audience</text>
<polygon fill="none" stroke="black" points="138.5,-123 138.5,-145 259.5,-145 259.5,-123 138.5,-123"/>
<text text-anchor="start" x="141.5" y="-131.2" font-family="Helvetica,sans-Serif" font-size="11.00">varchar[2147483647]</text>
<polygon fill="none" stroke="black" points="10.5,-101 10.5,-123 138.5,-123 138.5,-101 10.5,-101"/>
<text text-anchor="start" x="30.5" y="-109.2" font-family="Helvetica,sans-Serif" font-size="11.00">message</text>
<polygon fill="none" stroke="black" points="138.5,-101 138.5,-123 259.5,-123 259.5,-101 138.5,-101"/>
<text text-anchor="start" x="141.5" y="-109.2" font-family="Helvetica,sans-Serif" font-size="11.00">text[2147483647]</text>
<polygon fill="none" stroke="black" points="10.5,-79 10.5,-101 138.5,-101 138.5,-79 10.5,-79"/>
<text text-anchor="start" x="30.5" y="-87.2" font-family="Helvetica,sans-Serif" font-size="11.00">expires_in</text>
<polygon fill="none" stroke="black" points="138.5,-79 138.5,-101 259.5,-101 259.5,-79 138.5,-79"/>
<text text-anchor="start" x="141.5" y="-87.2" font-family="Helvetica,sans-Serif" font-size="11.00">int4[10]</text>
<polygon fill="none" stroke="black" points="10.5,-57 10.5,-79 138.5,-79 138.5,-57 10.5,-57"/>
<text text-anchor="start" x="30.5" y="-65.2" font-family="Helvetica,sans-Serif" font-size="11.00">link_to</text>
<polygon fill="none" stroke="black" points="138.5,-57 138.5,-79 259.5,-79 259.5,-57 138.5,-57"/>
<text text-anchor="start" x="141.5" y="-65.2" font-family="Helvetica,sans-Serif" font-size="11.00">varchar[2147483647]</text>
<polygon fill="#ffffff" stroke="none" points="10.5,-39 10.5,-57 79.5,-57 79.5,-39 10.5,-39"/>
<polygon fill="none" stroke="black" points="10.5,-39 10.5,-57 79.5,-57 79.5,-39 10.5,-39"/>
<text text-anchor="start" x="13.5" y="-45.2" font-family="Helvetica,sans-Serif" font-size="11.00">&lt; 0</text>
<polygon fill="#ffffff" stroke="none" points="79.5,-39 79.5,-57 138.5,-57 138.5,-39 79.5,-39"/>
<polygon fill="none" stroke="black" points="79.5,-39 79.5,-57 138.5,-57 138.5,-39 79.5,-39"/>
<text text-anchor="start" x="128.5" y="-45.2" font-family="Helvetica,sans-Serif" font-size="11.00"> &#160;</text>
<polygon fill="#ffffff" stroke="none" points="138.5,-39 138.5,-57 259.5,-57 259.5,-39 138.5,-39"/>
<polygon fill="none" stroke="black" points="138.5,-39 138.5,-57 259.5,-57 259.5,-39 138.5,-39"/>
<text text-anchor="start" x="239.5" y="-45.2" font-family="Helvetica,sans-Serif" font-size="11.00">1 &gt;</text>
<polygon fill="none" stroke="black" stroke-width="2" points="9,-38 9,-234 260,-234 260,-38 9,-38"/>
</a>
</g>
</g>
<!-- notifications&#45;&gt;notification_types -->
<g id="edge1" class="edge"><title>notifications:notification_type_id:w&#45;&gt;notification_types:id.type:e</title>
<path fill="none" stroke="black" d="M294.283,-200C283.289,-200 276.161,-200 260.5,-200"/>
<polygon fill="black" stroke="black" points="301,-200 309,-203.6 305,-200 309,-200 309,-200 309,-200 305,-200 309,-196.4 301,-200 301,-200"/>
<ellipse fill="none" stroke="black" cx="297.8" cy="-200" rx="3.2" ry="3.2"/>
</g>
</g>
</svg>
