<?xml version="1.0" encoding="UTF-8" standalone="no"?>
<!DOCTYPE svg PUBLIC "-//W3C//DTD SVG 1.1//EN"
 "http://www.w3.org/Graphics/SVG/1.1/DTD/svg11.dtd">
<!-- Generated by graphviz version 2.38.0 (20140413.2041)
 -->
<!-- Title: oneDegreeRelationshipsDiagram Pages: 1 -->
<svg width="745pt" height="223pt"
 viewBox="0.00 0.00 745.00 223.00" xmlns="http://www.w3.org/2000/svg" xmlns:xlink="http://www.w3.org/1999/xlink">
<g id="graph0" class="graph" transform="scale(1 1) rotate(0) translate(4 219)">
<title>oneDegreeRelationshipsDiagram</title>
<polygon fill="#ffffff" stroke="none" points="-4,4 -4,-219 741,-219 741,4 -4,4"/>
<text text-anchor="middle" x="74.5" y="-7.2" font-family="Helvetica,sans-Serif" font-size="11.00">Generated by SchemaSpy</text>
<!-- openscap_results -->
<g id="node1" class="node"><title>openscap_results</title>
<g id="a_node1"><a xlink:href="../../tables/openscap_results.html" xlink:title="openscap_results" target="_top">
<polygon fill="#ffffff" stroke="none" points="245,-37 245,-191 506,-191 506,-37 245,-37"/>
<polygon fill="#f5f5f5" stroke="none" points="247.5,-167 247.5,-189 504.5,-189 504.5,-167 247.5,-167"/>
<polygon fill="none" stroke="black" points="247.5,-167 247.5,-189 504.5,-189 504.5,-167 247.5,-167"/>
<text text-anchor="start" x="252.5" y="-176.2" font-family="Helvetica,sans-Serif" font-weight="bold" font-size="11.00">openscap_results</text>
<text text-anchor="start" x="465.5" y="-175.2" font-family="Helvetica,sans-Serif" font-size="11.00">[table]</text>
<polygon fill="none" stroke="black" points="247.5,-145 247.5,-167 383.5,-167 383.5,-145 247.5,-145"/>
<image xlink:href="../../images/primaryKeys.png" width="11px" height="12px" preserveAspectRatio="xMinYMin meet" x="252.5" y="-162"/>
<text text-anchor="start" x="267.5" y="-153.2" font-family="Helvetica,sans-Serif" font-size="11.00">id</text>
<polygon fill="none" stroke="black" points="383.5,-145 383.5,-167 504.5,-167 504.5,-145 383.5,-145"/>
<text text-anchor="start" x="386.5" y="-153.2" font-family="Helvetica,sans-Serif" font-size="11.00">bigserial[19]</text>
<polygon fill="#ffffff" stroke="none" points="247.5,-123 247.5,-145 383.5,-145 383.5,-123 247.5,-123"/>
<polygon fill="none" stroke="black" points="247.5,-123 247.5,-145 383.5,-145 383.5,-123 247.5,-123"/>
<image xlink:href="../../images/foreignKeys.png" width="11px" height="12px" preserveAspectRatio="xMinYMin meet" x="252.5" y="-140"/>
<text text-anchor="start" x="267.5" y="-131.2" font-family="Helvetica,sans-Serif" font-size="11.00">container_image_id</text>
<polygon fill="none" stroke="black" points="383.5,-123 383.5,-145 504.5,-145 504.5,-123 383.5,-123"/>
<text text-anchor="start" x="386.5" y="-131.2" font-family="Helvetica,sans-Serif" font-size="11.00">int8[19]</text>
<polygon fill="none" stroke="black" points="247.5,-101 247.5,-123 383.5,-123 383.5,-101 247.5,-101"/>
<text text-anchor="start" x="267.5" y="-109.2" font-family="Helvetica,sans-Serif" font-size="11.00">created_at</text>
<polygon fill="none" stroke="black" points="383.5,-101 383.5,-123 504.5,-123 504.5,-101 383.5,-101"/>
<text text-anchor="start" x="386.5" y="-109.2" font-family="Helvetica,sans-Serif" font-size="11.00">timestamp[29,6]</text>
<polygon fill="none" stroke="black" points="247.5,-79 247.5,-101 383.5,-101 383.5,-79 247.5,-79"/>
<text text-anchor="start" x="267.5" y="-87.2" font-family="Helvetica,sans-Serif" font-size="11.00">resource_id</text>
<polygon fill="none" stroke="black" points="383.5,-79 383.5,-101 504.5,-101 504.5,-79 383.5,-79"/>
<text text-anchor="start" x="386.5" y="-87.2" font-family="Helvetica,sans-Serif" font-size="11.00">int8[19]</text>
<polygon fill="none" stroke="black" points="247.5,-57 247.5,-79 383.5,-79 383.5,-57 247.5,-57"/>
<text text-anchor="start" x="267.5" y="-65.2" font-family="Helvetica,sans-Serif" font-size="11.00">resource_type</text>
<polygon fill="none" stroke="black" points="383.5,-57 383.5,-79 504.5,-79 504.5,-57 383.5,-57"/>
<text text-anchor="start" x="386.5" y="-65.2" font-family="Helvetica,sans-Serif" font-size="11.00">varchar[2147483647]</text>
<polygon fill="#ffffff" stroke="none" points="247.5,-39 247.5,-57 320.5,-57 320.5,-39 247.5,-39"/>
<polygon fill="none" stroke="black" points="247.5,-39 247.5,-57 320.5,-57 320.5,-39 247.5,-39"/>
<text text-anchor="start" x="250.5" y="-45.2" font-family="Helvetica,sans-Serif" font-size="11.00">&lt; 1</text>
<polygon fill="#ffffff" stroke="none" points="320.5,-39 320.5,-57 383.5,-57 383.5,-39 320.5,-39"/>
<polygon fill="none" stroke="black" points="320.5,-39 320.5,-57 383.5,-57 383.5,-39 320.5,-39"/>
<text text-anchor="start" x="373.5" y="-45.2" font-family="Helvetica,sans-Serif" font-size="11.00"> &#160;</text>
<polygon fill="#ffffff" stroke="none" points="383.5,-39 383.5,-57 504.5,-57 504.5,-39 383.5,-39"/>
<polygon fill="none" stroke="black" points="383.5,-39 383.5,-57 504.5,-57 504.5,-39 383.5,-39"/>
<text text-anchor="start" x="484.5" y="-45.2" font-family="Helvetica,sans-Serif" font-size="11.00">1 &gt;</text>
<polygon fill="none" stroke="black" stroke-width="2" points="246,-38 246,-190 505,-190 505,-38 246,-38"/>
</a>
</g>
</g>
<!-- container_images -->
<g id="node2" class="node"><title>container_images</title>
<g id="a_node2"><a xlink:href="../../tables/container_images.html" xlink:title="container_images" target="_top">
<polygon fill="#ffffff" stroke="none" points="8,-43 8,-167 196,-167 196,-43 8,-43"/>
<polygon fill="#f5f5f5" stroke="none" points="8,-145 8,-167 196,-167 196,-145 8,-145"/>
<polygon fill="none" stroke="black" points="8,-145 8,-167 196,-167 196,-145 8,-145"/>
<text text-anchor="start" x="13" y="-154.2" font-family="Helvetica,sans-Serif" font-weight="bold" font-size="11.00">container_images</text>
<text text-anchor="start" x="157" y="-153.2" font-family="Helvetica,sans-Serif" font-size="11.00">[table]</text>
<polygon fill="none" stroke="black" points="8,-123 8,-145 196,-145 196,-123 8,-123"/>
<image xlink:href="../../images/primaryKeys.png" width="11px" height="12px" preserveAspectRatio="xMinYMin meet" x="13" y="-140"/>
<text text-anchor="start" x="28" y="-131.2" font-family="Helvetica,sans-Serif" font-size="11.00">id</text>
<polygon fill="none" stroke="black" points="8,-101 8,-123 196,-123 196,-101 8,-101"/>
<image xlink:href="../../images/foreignKeys.png" width="11px" height="12px" preserveAspectRatio="xMinYMin meet" x="13" y="-118"/>
<text text-anchor="start" x="28" y="-109.2" font-family="Helvetica,sans-Serif" font-size="11.00">container_image_registry_id</text>
<polygon fill="#ffffff" stroke="none" points="8,-79 8,-101 196,-101 196,-79 8,-79"/>
<polygon fill="none" stroke="black" points="8,-79 8,-101 196,-101 196,-79 8,-79"/>
<text text-anchor="start" x="28" y="-87.2" font-family="Helvetica,sans-Serif" font-size="11.00">deleted_on</text>
<polygon fill="none" stroke="black" points="8,-61 8,-79 196,-79 196,-61 8,-61"/>
<text text-anchor="start" x="11" y="-67.2" font-family="Helvetica,sans-Serif" font-size="11.00">...</text>
<polygon fill="#ffffff" stroke="none" points="8,-43 8,-61 95,-61 95,-43 8,-43"/>
<polygon fill="none" stroke="black" points="8,-43 8,-61 95,-61 95,-43 8,-43"/>
<text text-anchor="start" x="11" y="-49.2" font-family="Helvetica,sans-Serif" font-size="11.00">&lt; 1</text>
<polygon fill="#ffffff" stroke="none" points="95,-43 95,-61 140,-61 140,-43 95,-43"/>
<polygon fill="none" stroke="black" points="95,-43 95,-61 140,-61 140,-43 95,-43"/>
<text text-anchor="start" x="130" y="-49.2" font-family="Helvetica,sans-Serif" font-size="11.00"> &#160;</text>
<polygon fill="#ffffff" stroke="none" points="140,-43 140,-61 196,-61 196,-43 140,-43"/>
<polygon fill="none" stroke="black" points="140,-43 140,-61 196,-61 196,-43 140,-43"/>
<text text-anchor="start" x="176" y="-49.2" font-family="Helvetica,sans-Serif" font-size="11.00">3 &gt;</text>
</a>
</g>
</g>
<!-- openscap_results&#45;&gt;container_images -->
<g id="edge1" class="edge"><title>openscap_results:container_image_id:w&#45;&gt;container_images:id:e</title>
<path fill="none" stroke="black" d="M231.843,-134C220.414,-134 213.156,-134 197,-134"/>
<polygon fill="black" stroke="black" points="238.5,-134 246.5,-137.6 242.5,-134 246.5,-134 246.5,-134 246.5,-134 242.5,-134 246.5,-130.4 238.5,-134 238.5,-134"/>
<ellipse fill="none" stroke="black" cx="235.3" cy="-134" rx="3.2" ry="3.2"/>
</g>
<!-- openscap_rule_results -->
<g id="node3" class="node"><title>openscap_rule_results</title>
<g id="a_node3"><a xlink:href="../../tables/openscap_rule_results.html" xlink:title="openscap_rule_results" target="_top">
<polygon fill="#ffffff" stroke="none" points="555,-109 555,-211 729,-211 729,-109 555,-109"/>
<polygon fill="#f5f5f5" stroke="none" points="555,-189 555,-211 729,-211 729,-189 555,-189"/>
<polygon fill="none" stroke="black" points="555,-189 555,-211 729,-211 729,-189 555,-189"/>
<text text-anchor="start" x="560" y="-198.2" font-family="Helvetica,sans-Serif" font-weight="bold" font-size="11.00">openscap_rule_results</text>
<text text-anchor="start" x="690" y="-197.2" font-family="Helvetica,sans-Serif" font-size="11.00">[table]</text>
<polygon fill="none" stroke="black" points="555,-167 555,-189 729,-189 729,-167 555,-167"/>
<image xlink:href="../../images/primaryKeys.png" width="11px" height="12px" preserveAspectRatio="xMinYMin meet" x="560" y="-184"/>
<text text-anchor="start" x="586" y="-175.2" font-family="Helvetica,sans-Serif" font-size="11.00">id</text>
<polygon fill="#ffffff" stroke="none" points="555,-145 555,-167 729,-167 729,-145 555,-145"/>
<polygon fill="none" stroke="black" points="555,-145 555,-167 729,-167 729,-145 555,-145"/>
<image xlink:href="../../images/foreignKeys.png" width="11px" height="12px" preserveAspectRatio="xMinYMin meet" x="560" y="-162"/>
<text text-anchor="start" x="586" y="-153.2" font-family="Helvetica,sans-Serif" font-size="11.00">openscap_result_id</text>
<polygon fill="none" stroke="black" points="555,-127 555,-145 729,-145 729,-127 555,-127"/>
<text text-anchor="start" x="558" y="-133.2" font-family="Helvetica,sans-Serif" font-size="11.00">...</text>
<polygon fill="#ffffff" stroke="none" points="555,-109 555,-127 640,-127 640,-109 555,-109"/>
<polygon fill="none" stroke="black" points="555,-109 555,-127 640,-127 640,-109 555,-109"/>
<text text-anchor="start" x="558" y="-115.2" font-family="Helvetica,sans-Serif" font-size="11.00">&lt; 1</text>
<polygon fill="#ffffff" stroke="none" points="640,-109 640,-127 684,-127 684,-109 640,-109"/>
<polygon fill="none" stroke="black" points="640,-109 640,-127 684,-127 684,-109 640,-109"/>
<text text-anchor="start" x="674" y="-115.2" font-family="Helvetica,sans-Serif" font-size="11.00"> &#160;</text>
<polygon fill="#ffffff" stroke="none" points="684,-109 684,-127 729,-127 729,-109 684,-109"/>
<polygon fill="none" stroke="black" points="684,-109 684,-127 729,-127 729,-109 684,-109"/>
<text text-anchor="start" x="719" y="-115.2" font-family="Helvetica,sans-Serif" font-size="11.00"> &#160;</text>
</a>
</g>
</g>
<!-- openscap_rule_results&#45;&gt;openscap_results -->
<g id="edge2" class="edge"><title>openscap_rule_results:openscap_result_id:w&#45;&gt;openscap_results:id.type:e</title>
<path fill="none" stroke="black" d="M539.283,-156C528.289,-156 521.161,-156 505.5,-156"/>
<polygon fill="black" stroke="black" points="546,-156 554,-159.6 550,-156 554,-156 554,-156 554,-156 550,-156 554,-152.4 546,-156 546,-156"/>
<ellipse fill="none" stroke="black" cx="542.8" cy="-156" rx="3.2" ry="3.2"/>
</g>
</g>
</svg>
