<?xml version="1.0" encoding="UTF-8" standalone="no"?>
<!DOCTYPE svg PUBLIC "-//W3C//DTD SVG 1.1//EN"
 "http://www.w3.org/Graphics/SVG/1.1/DTD/svg11.dtd">
<!-- Generated by graphviz version 2.38.0 (20140413.2041)
 -->
<!-- Title: oneDegreeRelationshipsDiagram Pages: 1 -->
<svg width="707pt" height="806pt"
 viewBox="0.00 0.00 707.00 806.00" xmlns="http://www.w3.org/2000/svg" xmlns:xlink="http://www.w3.org/1999/xlink">
<g id="graph0" class="graph" transform="scale(1 1) rotate(0) translate(4 802)">
<title>oneDegreeRelationshipsDiagram</title>
<polygon fill="#ffffff" stroke="none" points="-4,4 -4,-802 703,-802 703,4 -4,4"/>
<text text-anchor="middle" x="74.5" y="-7.2" font-family="Helvetica,sans-Serif" font-size="11.00">Generated by SchemaSpy</text>
<!-- event_logs -->
<g id="node1" class="node"><title>event_logs</title>
<g id="a_node1"><a xlink:href="../../tables/event_logs.html" xlink:title="event_logs" target="_top">
<polygon fill="#ffffff" stroke="none" points="548,-670 548,-794 691,-794 691,-670 548,-670"/>
<polygon fill="#f5f5f5" stroke="none" points="548.5,-772 548.5,-794 691.5,-794 691.5,-772 548.5,-772"/>
<polygon fill="none" stroke="black" points="548.5,-772 548.5,-794 691.5,-794 691.5,-772 548.5,-772"/>
<text text-anchor="start" x="553.5" y="-781.2" font-family="Helvetica,sans-Serif" font-weight="bold" font-size="11.00">event_logs</text>
<text text-anchor="start" x="652.5" y="-780.2" font-family="Helvetica,sans-Serif" font-size="11.00">[table]</text>
<polygon fill="none" stroke="black" points="548.5,-750 548.5,-772 691.5,-772 691.5,-750 548.5,-750"/>
<image xlink:href="../../images/primaryKeys.png" width="11px" height="12px" preserveAspectRatio="xMinYMin meet" x="553.5" y="-767"/>
<text text-anchor="start" x="568.5" y="-758.2" font-family="Helvetica,sans-Serif" font-size="11.00">id</text>
<polygon fill="#ffffff" stroke="none" points="548.5,-728 548.5,-750 691.5,-750 691.5,-728 548.5,-728"/>
<polygon fill="none" stroke="black" points="548.5,-728 548.5,-750 691.5,-750 691.5,-728 548.5,-728"/>
<text text-anchor="start" x="568.5" y="-736.2" font-family="Helvetica,sans-Serif" font-size="11.00">event_id</text>
<polygon fill="#ffffff" stroke="none" points="548.5,-706 548.5,-728 691.5,-728 691.5,-706 548.5,-706"/>
<polygon fill="none" stroke="black" points="548.5,-706 548.5,-728 691.5,-728 691.5,-706 548.5,-706"/>
<image xlink:href="../../images/foreignKeys.png" width="11px" height="12px" preserveAspectRatio="xMinYMin meet" x="553.5" y="-723"/>
<text text-anchor="start" x="568.5" y="-714.2" font-family="Helvetica,sans-Serif" font-size="11.00">operating_system_id</text>
<polygon fill="none" stroke="black" points="548.5,-688 548.5,-706 691.5,-706 691.5,-688 548.5,-688"/>
<text text-anchor="start" x="551.5" y="-694.2" font-family="Helvetica,sans-Serif" font-size="11.00">...</text>
<polygon fill="#ffffff" stroke="none" points="548.5,-670 548.5,-688 618.5,-688 618.5,-670 548.5,-670"/>
<polygon fill="none" stroke="black" points="548.5,-670 548.5,-688 618.5,-688 618.5,-670 548.5,-670"/>
<text text-anchor="start" x="551.5" y="-676.2" font-family="Helvetica,sans-Serif" font-size="11.00">&lt; 1</text>
<polygon fill="#ffffff" stroke="none" points="618.5,-670 618.5,-688 654.5,-688 654.5,-670 618.5,-670"/>
<polygon fill="none" stroke="black" points="618.5,-670 618.5,-688 654.5,-688 654.5,-670 618.5,-670"/>
<text text-anchor="start" x="644.5" y="-676.2" font-family="Helvetica,sans-Serif" font-size="11.00"> &#160;</text>
<polygon fill="#ffffff" stroke="none" points="654.5,-670 654.5,-688 691.5,-688 691.5,-670 654.5,-670"/>
<polygon fill="none" stroke="black" points="654.5,-670 654.5,-688 691.5,-688 691.5,-670 654.5,-670"/>
<text text-anchor="start" x="681.5" y="-676.2" font-family="Helvetica,sans-Serif" font-size="11.00"> &#160;</text>
</a>
</g>
</g>
<!-- operating_systems -->
<g id="node2" class="node"><title>operating_systems</title>
<g id="a_node2"><a xlink:href="../../tables/operating_systems.html" xlink:title="operating_systems" target="_top">
<polygon fill="#ffffff" stroke="none" points="220,-75 220,-691 499,-691 499,-75 220,-75"/>
<polygon fill="#f5f5f5" stroke="none" points="222.5,-667 222.5,-689 497.5,-689 497.5,-667 222.5,-667"/>
<polygon fill="none" stroke="black" points="222.5,-667 222.5,-689 497.5,-689 497.5,-667 222.5,-667"/>
<text text-anchor="start" x="227.5" y="-676.2" font-family="Helvetica,sans-Serif" font-weight="bold" font-size="11.00">operating_systems</text>
<text text-anchor="start" x="458.5" y="-675.2" font-family="Helvetica,sans-Serif" font-size="11.00">[table]</text>
<polygon fill="none" stroke="black" points="222.5,-645 222.5,-667 376.5,-667 376.5,-645 222.5,-645"/>
<image xlink:href="../../images/primaryKeys.png" width="11px" height="12px" preserveAspectRatio="xMinYMin meet" x="227.5" y="-662"/>
<text text-anchor="start" x="242.5" y="-653.2" font-family="Helvetica,sans-Serif" font-size="11.00">id</text>
<polygon fill="none" stroke="black" points="376.5,-645 376.5,-667 497.5,-667 497.5,-645 376.5,-645"/>
<text text-anchor="start" x="379.5" y="-653.2" font-family="Helvetica,sans-Serif" font-size="11.00">bigserial[19]</text>
<polygon fill="none" stroke="black" points="222.5,-623 222.5,-645 376.5,-645 376.5,-623 222.5,-623"/>
<text text-anchor="start" x="242.5" y="-631.2" font-family="Helvetica,sans-Serif" font-size="11.00">name</text>
<polygon fill="none" stroke="black" points="376.5,-623 376.5,-645 497.5,-645 497.5,-623 376.5,-623"/>
<text text-anchor="start" x="379.5" y="-631.2" font-family="Helvetica,sans-Serif" font-size="11.00">varchar[2147483647]</text>
<polygon fill="none" stroke="black" points="222.5,-601 222.5,-623 376.5,-623 376.5,-601 222.5,-601"/>
<text text-anchor="start" x="242.5" y="-609.2" font-family="Helvetica,sans-Serif" font-size="11.00">product_name</text>
<polygon fill="none" stroke="black" points="376.5,-601 376.5,-623 497.5,-623 497.5,-601 376.5,-601"/>
<text text-anchor="start" x="379.5" y="-609.2" font-family="Helvetica,sans-Serif" font-size="11.00">varchar[2147483647]</text>
<polygon fill="none" stroke="black" points="222.5,-579 222.5,-601 376.5,-601 376.5,-579 222.5,-579"/>
<text text-anchor="start" x="242.5" y="-587.2" font-family="Helvetica,sans-Serif" font-size="11.00">version</text>
<polygon fill="none" stroke="black" points="376.5,-579 376.5,-601 497.5,-601 497.5,-579 376.5,-579"/>
<text text-anchor="start" x="379.5" y="-587.2" font-family="Helvetica,sans-Serif" font-size="11.00">varchar[2147483647]</text>
<polygon fill="none" stroke="black" points="222.5,-557 222.5,-579 376.5,-579 376.5,-557 222.5,-557"/>
<text text-anchor="start" x="242.5" y="-565.2" font-family="Helvetica,sans-Serif" font-size="11.00">build_number</text>
<polygon fill="none" stroke="black" points="376.5,-557 376.5,-579 497.5,-579 497.5,-557 376.5,-557"/>
<text text-anchor="start" x="379.5" y="-565.2" font-family="Helvetica,sans-Serif" font-size="11.00">varchar[2147483647]</text>
<polygon fill="none" stroke="black" points="222.5,-535 222.5,-557 376.5,-557 376.5,-535 222.5,-535"/>
<text text-anchor="start" x="242.5" y="-543.2" font-family="Helvetica,sans-Serif" font-size="11.00">system_root</text>
<polygon fill="none" stroke="black" points="376.5,-535 376.5,-557 497.5,-557 497.5,-535 376.5,-535"/>
<text text-anchor="start" x="379.5" y="-543.2" font-family="Helvetica,sans-Serif" font-size="11.00">varchar[2147483647]</text>
<polygon fill="none" stroke="black" points="222.5,-513 222.5,-535 376.5,-535 376.5,-513 222.5,-513"/>
<text text-anchor="start" x="242.5" y="-521.2" font-family="Helvetica,sans-Serif" font-size="11.00">distribution</text>
<polygon fill="none" stroke="black" points="376.5,-513 376.5,-535 497.5,-535 497.5,-513 376.5,-513"/>
<text text-anchor="start" x="379.5" y="-521.2" font-family="Helvetica,sans-Serif" font-size="11.00">varchar[2147483647]</text>
<polygon fill="none" stroke="black" points="222.5,-491 222.5,-513 376.5,-513 376.5,-491 222.5,-491"/>
<text text-anchor="start" x="242.5" y="-499.2" font-family="Helvetica,sans-Serif" font-size="11.00">product_type</text>
<polygon fill="none" stroke="black" points="376.5,-491 376.5,-513 497.5,-513 497.5,-491 376.5,-491"/>
<text text-anchor="start" x="379.5" y="-499.2" font-family="Helvetica,sans-Serif" font-size="11.00">varchar[2147483647]</text>
<polygon fill="none" stroke="black" points="222.5,-469 222.5,-491 376.5,-491 376.5,-469 222.5,-469"/>
<text text-anchor="start" x="242.5" y="-477.2" font-family="Helvetica,sans-Serif" font-size="11.00">service_pack</text>
<polygon fill="none" stroke="black" points="376.5,-469 376.5,-491 497.5,-491 497.5,-469 376.5,-469"/>
<text text-anchor="start" x="379.5" y="-477.2" font-family="Helvetica,sans-Serif" font-size="11.00">varchar[2147483647]</text>
<polygon fill="none" stroke="black" points="222.5,-447 222.5,-469 376.5,-469 376.5,-447 222.5,-447"/>
<text text-anchor="start" x="242.5" y="-455.2" font-family="Helvetica,sans-Serif" font-size="11.00">productid</text>
<polygon fill="none" stroke="black" points="376.5,-447 376.5,-469 497.5,-469 497.5,-447 376.5,-447"/>
<text text-anchor="start" x="379.5" y="-455.2" font-family="Helvetica,sans-Serif" font-size="11.00">varchar[2147483647]</text>
<polygon fill="#ffffff" stroke="none" points="222.5,-425 222.5,-447 376.5,-447 376.5,-425 222.5,-425"/>
<polygon fill="none" stroke="black" points="222.5,-425 222.5,-447 376.5,-447 376.5,-425 222.5,-425"/>
<text text-anchor="start" x="242.5" y="-433.2" font-family="Helvetica,sans-Serif" font-size="11.00">vm_or_template_id</text>
<polygon fill="none" stroke="black" points="376.5,-425 376.5,-447 497.5,-447 497.5,-425 376.5,-425"/>
<text text-anchor="start" x="379.5" y="-433.2" font-family="Helvetica,sans-Serif" font-size="11.00">int8[19]</text>
<polygon fill="#ffffff" stroke="none" points="222.5,-403 222.5,-425 376.5,-425 376.5,-403 222.5,-403"/>
<polygon fill="none" stroke="black" points="222.5,-403 222.5,-425 376.5,-425 376.5,-403 222.5,-403"/>
<image xlink:href="../../images/foreignKeys.png" width="11px" height="12px" preserveAspectRatio="xMinYMin meet" x="227.5" y="-420"/>
<text text-anchor="start" x="242.5" y="-411.2" font-family="Helvetica,sans-Serif" font-size="11.00">host_id</text>
<polygon fill="none" stroke="black" points="376.5,-403 376.5,-425 497.5,-425 497.5,-403 376.5,-403"/>
<text text-anchor="start" x="379.5" y="-411.2" font-family="Helvetica,sans-Serif" font-size="11.00">int8[19]</text>
<polygon fill="none" stroke="black" points="222.5,-381 222.5,-403 376.5,-403 376.5,-381 222.5,-381"/>
<text text-anchor="start" x="242.5" y="-389.2" font-family="Helvetica,sans-Serif" font-size="11.00">bitness</text>
<polygon fill="none" stroke="black" points="376.5,-381 376.5,-403 497.5,-403 497.5,-381 376.5,-381"/>
<text text-anchor="start" x="379.5" y="-389.2" font-family="Helvetica,sans-Serif" font-size="11.00">int4[10]</text>
<polygon fill="none" stroke="black" points="222.5,-359 222.5,-381 376.5,-381 376.5,-359 222.5,-359"/>
<text text-anchor="start" x="242.5" y="-367.2" font-family="Helvetica,sans-Serif" font-size="11.00">product_key</text>
<polygon fill="none" stroke="black" points="376.5,-359 376.5,-381 497.5,-381 497.5,-359 376.5,-359"/>
<text text-anchor="start" x="379.5" y="-367.2" font-family="Helvetica,sans-Serif" font-size="11.00">varchar[2147483647]</text>
<polygon fill="none" stroke="black" points="222.5,-337 222.5,-359 376.5,-359 376.5,-337 222.5,-337"/>
<text text-anchor="start" x="242.5" y="-345.2" font-family="Helvetica,sans-Serif" font-size="11.00">pw_hist</text>
<polygon fill="none" stroke="black" points="376.5,-337 376.5,-359 497.5,-359 497.5,-337 376.5,-337"/>
<text text-anchor="start" x="379.5" y="-345.2" font-family="Helvetica,sans-Serif" font-size="11.00">int4[10]</text>
<polygon fill="none" stroke="black" points="222.5,-315 222.5,-337 376.5,-337 376.5,-315 222.5,-315"/>
<text text-anchor="start" x="242.5" y="-323.2" font-family="Helvetica,sans-Serif" font-size="11.00">max_pw_age</text>
<polygon fill="none" stroke="black" points="376.5,-315 376.5,-337 497.5,-337 497.5,-315 376.5,-315"/>
<text text-anchor="start" x="379.5" y="-323.2" font-family="Helvetica,sans-Serif" font-size="11.00">int4[10]</text>
<polygon fill="none" stroke="black" points="222.5,-293 222.5,-315 376.5,-315 376.5,-293 222.5,-293"/>
<text text-anchor="start" x="242.5" y="-301.2" font-family="Helvetica,sans-Serif" font-size="11.00">min_pw_age</text>
<polygon fill="none" stroke="black" points="376.5,-293 376.5,-315 497.5,-315 497.5,-293 376.5,-293"/>
<text text-anchor="start" x="379.5" y="-301.2" font-family="Helvetica,sans-Serif" font-size="11.00">int4[10]</text>
<polygon fill="none" stroke="black" points="222.5,-271 222.5,-293 376.5,-293 376.5,-271 222.5,-271"/>
<text text-anchor="start" x="242.5" y="-279.2" font-family="Helvetica,sans-Serif" font-size="11.00">min_pw_len</text>
<polygon fill="none" stroke="black" points="376.5,-271 376.5,-293 497.5,-293 497.5,-271 376.5,-271"/>
<text text-anchor="start" x="379.5" y="-279.2" font-family="Helvetica,sans-Serif" font-size="11.00">int4[10]</text>
<polygon fill="none" stroke="black" points="222.5,-249 222.5,-271 376.5,-271 376.5,-249 222.5,-249"/>
<text text-anchor="start" x="242.5" y="-257.2" font-family="Helvetica,sans-Serif" font-size="11.00">pw_complex</text>
<polygon fill="none" stroke="black" points="376.5,-249 376.5,-271 497.5,-271 497.5,-249 376.5,-249"/>
<text text-anchor="start" x="379.5" y="-257.2" font-family="Helvetica,sans-Serif" font-size="11.00">bool[1]</text>
<polygon fill="none" stroke="black" points="222.5,-227 222.5,-249 376.5,-249 376.5,-227 222.5,-227"/>
<text text-anchor="start" x="242.5" y="-235.2" font-family="Helvetica,sans-Serif" font-size="11.00">pw_encrypt</text>
<polygon fill="none" stroke="black" points="376.5,-227 376.5,-249 497.5,-249 497.5,-227 376.5,-227"/>
<text text-anchor="start" x="379.5" y="-235.2" font-family="Helvetica,sans-Serif" font-size="11.00">bool[1]</text>
<polygon fill="none" stroke="black" points="222.5,-205 222.5,-227 376.5,-227 376.5,-205 222.5,-205"/>
<text text-anchor="start" x="242.5" y="-213.2" font-family="Helvetica,sans-Serif" font-size="11.00">lockout_threshold</text>
<polygon fill="none" stroke="black" points="376.5,-205 376.5,-227 497.5,-227 497.5,-205 376.5,-205"/>
<text text-anchor="start" x="379.5" y="-213.2" font-family="Helvetica,sans-Serif" font-size="11.00">int4[10]</text>
<polygon fill="none" stroke="black" points="222.5,-183 222.5,-205 376.5,-205 376.5,-183 222.5,-183"/>
<text text-anchor="start" x="242.5" y="-191.2" font-family="Helvetica,sans-Serif" font-size="11.00">lockout_duration</text>
<polygon fill="none" stroke="black" points="376.5,-183 376.5,-205 497.5,-205 497.5,-183 376.5,-183"/>
<text text-anchor="start" x="379.5" y="-191.2" font-family="Helvetica,sans-Serif" font-size="11.00">int8[19]</text>
<polygon fill="none" stroke="black" points="222.5,-161 222.5,-183 376.5,-183 376.5,-161 222.5,-161"/>
<text text-anchor="start" x="242.5" y="-169.2" font-family="Helvetica,sans-Serif" font-size="11.00">reset_lockout_counter</text>
<polygon fill="none" stroke="black" points="376.5,-161 376.5,-183 497.5,-183 497.5,-161 376.5,-161"/>
<text text-anchor="start" x="379.5" y="-169.2" font-family="Helvetica,sans-Serif" font-size="11.00">int4[10]</text>
<polygon fill="none" stroke="black" points="222.5,-139 222.5,-161 376.5,-161 376.5,-139 222.5,-139"/>
<text text-anchor="start" x="242.5" y="-147.2" font-family="Helvetica,sans-Serif" font-size="11.00">system_type</text>
<polygon fill="none" stroke="black" points="376.5,-139 376.5,-161 497.5,-161 497.5,-139 376.5,-139"/>
<text text-anchor="start" x="379.5" y="-147.2" font-family="Helvetica,sans-Serif" font-size="11.00">varchar[2147483647]</text>
<polygon fill="#ffffff" stroke="none" points="222.5,-117 222.5,-139 376.5,-139 376.5,-117 222.5,-117"/>
<polygon fill="none" stroke="black" points="222.5,-117 222.5,-139 376.5,-139 376.5,-117 222.5,-117"/>
<image xlink:href="../../images/foreignKeys.png" width="11px" height="12px" preserveAspectRatio="xMinYMin meet" x="227.5" y="-134"/>
<text text-anchor="start" x="242.5" y="-125.2" font-family="Helvetica,sans-Serif" font-size="11.00">computer_system_id</text>
<polygon fill="none" stroke="black" points="376.5,-117 376.5,-139 497.5,-139 497.5,-117 376.5,-117"/>
<text text-anchor="start" x="379.5" y="-125.2" font-family="Helvetica,sans-Serif" font-size="11.00">int8[19]</text>
<polygon fill="none" stroke="black" points="222.5,-95 222.5,-117 376.5,-117 376.5,-95 222.5,-95"/>
<text text-anchor="start" x="242.5" y="-103.2" font-family="Helvetica,sans-Serif" font-size="11.00">kernel_version</text>
<polygon fill="none" stroke="black" points="376.5,-95 376.5,-117 497.5,-117 497.5,-95 376.5,-95"/>
<text text-anchor="start" x="379.5" y="-103.2" font-family="Helvetica,sans-Serif" font-size="11.00">varchar[2147483647]</text>
<polygon fill="#ffffff" stroke="none" points="222.5,-77 222.5,-95 304.5,-95 304.5,-77 222.5,-77"/>
<polygon fill="none" stroke="black" points="222.5,-77 222.5,-95 304.5,-95 304.5,-77 222.5,-77"/>
<text text-anchor="start" x="225.5" y="-83.2" font-family="Helvetica,sans-Serif" font-size="11.00">&lt; 2</text>
<polygon fill="#ffffff" stroke="none" points="304.5,-77 304.5,-95 376.5,-95 376.5,-77 304.5,-77"/>
<polygon fill="none" stroke="black" points="304.5,-77 304.5,-95 376.5,-95 376.5,-77 304.5,-77"/>
<text text-anchor="start" x="366.5" y="-83.2" font-family="Helvetica,sans-Serif" font-size="11.00"> &#160;</text>
<polygon fill="#ffffff" stroke="none" points="376.5,-77 376.5,-95 497.5,-95 497.5,-77 376.5,-77"/>
<polygon fill="none" stroke="black" points="376.5,-77 376.5,-95 497.5,-95 497.5,-77 376.5,-77"/>
<text text-anchor="start" x="477.5" y="-83.2" font-family="Helvetica,sans-Serif" font-size="11.00">2 &gt;</text>
<polygon fill="none" stroke="black" stroke-width="2" points="221,-76 221,-690 498,-690 498,-76 221,-76"/>
</a>
</g>
</g>
<!-- event_logs&#45;&gt;operating_systems -->
<g id="edge1" class="edge"><title>event_logs:operating_system_id:w&#45;&gt;operating_systems:id.type:e</title>
<path fill="none" stroke="black" d="M533.91,-712.213C518.155,-697.833 527.298,-656 498.5,-656"/>
<polygon fill="black" stroke="black" points="539.954,-714.342 546.304,-720.396 543.727,-715.671 547.5,-717 547.5,-717 547.5,-717 543.727,-715.671 548.696,-713.604 539.954,-714.342 539.954,-714.342"/>
<ellipse fill="none" stroke="black" cx="536.936" cy="-713.279" rx="3.20001" ry="3.20001"/>
</g>
<!-- computer_systems -->
<g id="node3" class="node"><title>computer_systems</title>
<g id="a_node3"><a xlink:href="../../tables/computer_systems.html" xlink:title="computer_systems" target="_top">
<polygon fill="#ffffff" stroke="none" points="12,-37 12,-161 167,-161 167,-37 12,-37"/>
<polygon fill="#f5f5f5" stroke="none" points="12.5,-139 12.5,-161 167.5,-161 167.5,-139 12.5,-139"/>
<polygon fill="none" stroke="black" points="12.5,-139 12.5,-161 167.5,-161 167.5,-139 12.5,-139"/>
<text text-anchor="start" x="17.5" y="-148.2" font-family="Helvetica,sans-Serif" font-weight="bold" font-size="11.00">computer_systems</text>
<text text-anchor="start" x="128.5" y="-147.2" font-family="Helvetica,sans-Serif" font-size="11.00">[table]</text>
<polygon fill="none" stroke="black" points="12.5,-117 12.5,-139 167.5,-139 167.5,-117 12.5,-117"/>
<image xlink:href="../../images/primaryKeys.png" width="11px" height="12px" preserveAspectRatio="xMinYMin meet" x="17.5" y="-134"/>
<text text-anchor="start" x="35.5" y="-125.2" font-family="Helvetica,sans-Serif" font-size="11.00">id</text>
<polygon fill="#ffffff" stroke="none" points="12.5,-95 12.5,-117 167.5,-117 167.5,-95 12.5,-95"/>
<polygon fill="none" stroke="black" points="12.5,-95 12.5,-117 167.5,-117 167.5,-95 12.5,-95"/>
<text text-anchor="start" x="35.5" y="-103.2" font-family="Helvetica,sans-Serif" font-size="11.00">managed_entity_type</text>
<polygon fill="#ffffff" stroke="none" points="12.5,-73 12.5,-95 167.5,-95 167.5,-73 12.5,-73"/>
<polygon fill="none" stroke="black" points="12.5,-73 12.5,-95 167.5,-95 167.5,-73 12.5,-73"/>
<text text-anchor="start" x="35.5" y="-81.2" font-family="Helvetica,sans-Serif" font-size="11.00">managed_entity_id</text>
<polygon fill="none" stroke="black" points="12.5,-55 12.5,-73 167.5,-73 167.5,-55 12.5,-55"/>
<text text-anchor="start" x="15.5" y="-61.2" font-family="Helvetica,sans-Serif" font-size="11.00">...</text>
<polygon fill="#ffffff" stroke="none" points="12.5,-37 12.5,-55 78.5,-55 78.5,-37 12.5,-37"/>
<polygon fill="none" stroke="black" points="12.5,-37 12.5,-55 78.5,-55 78.5,-37 12.5,-37"/>
<text text-anchor="start" x="15.5" y="-43.2" font-family="Helvetica,sans-Serif" font-size="11.00"> &#160;</text>
<polygon fill="#ffffff" stroke="none" points="78.5,-37 78.5,-55 117.5,-55 117.5,-37 78.5,-37"/>
<polygon fill="none" stroke="black" points="78.5,-37 78.5,-55 117.5,-55 117.5,-37 78.5,-37"/>
<text text-anchor="start" x="107.5" y="-43.2" font-family="Helvetica,sans-Serif" font-size="11.00"> &#160;</text>
<polygon fill="#ffffff" stroke="none" points="117.5,-37 117.5,-55 167.5,-55 167.5,-37 117.5,-37"/>
<polygon fill="none" stroke="black" points="117.5,-37 117.5,-55 167.5,-55 167.5,-37 117.5,-37"/>
<text text-anchor="start" x="147.5" y="-43.2" font-family="Helvetica,sans-Serif" font-size="11.00">2 &gt;</text>
</a>
</g>
</g>
<!-- operating_systems&#45;&gt;computer_systems -->
<g id="edge2" class="edge"><title>operating_systems:computer_system_id:w&#45;&gt;computer_systems:id:e</title>
<path fill="none" stroke="black" d="M206.992,-128C194.056,-128 186.351,-128 168.5,-128"/>
<polygon fill="black" stroke="black" points="213.5,-128 221.5,-131.6 217.5,-128 221.5,-128 221.5,-128 221.5,-128 217.5,-128 221.5,-124.4 213.5,-128 213.5,-128"/>
<ellipse fill="none" stroke="black" cx="210.3" cy="-128" rx="3.2" ry="3.2"/>
</g>
<!-- hosts -->
<g id="node4" class="node"><title>hosts</title>
<g id="a_node4"><a xlink:href="../../tables/hosts.html" xlink:title="hosts" target="_top">
<polygon fill="#ffffff" stroke="none" points="8,-191 8,-447 171,-447 171,-191 8,-191"/>
<polygon fill="#f5f5f5" stroke="none" points="8.5,-425 8.5,-447 171.5,-447 171.5,-425 8.5,-425"/>
<polygon fill="none" stroke="black" points="8.5,-425 8.5,-447 171.5,-447 171.5,-425 8.5,-425"/>
<text text-anchor="start" x="13.5" y="-434.2" font-family="Helvetica,sans-Serif" font-weight="bold" font-size="11.00">hosts</text>
<text text-anchor="start" x="132.5" y="-433.2" font-family="Helvetica,sans-Serif" font-size="11.00">[table]</text>
<polygon fill="none" stroke="black" points="8.5,-403 8.5,-425 171.5,-425 171.5,-403 8.5,-403"/>
<image xlink:href="../../images/primaryKeys.png" width="11px" height="12px" preserveAspectRatio="xMinYMin meet" x="13.5" y="-420"/>
<text text-anchor="start" x="28.5" y="-411.2" font-family="Helvetica,sans-Serif" font-size="11.00">id</text>
<polygon fill="#ffffff" stroke="none" points="8.5,-381 8.5,-403 171.5,-403 171.5,-381 8.5,-381"/>
<polygon fill="none" stroke="black" points="8.5,-381 8.5,-403 171.5,-403 171.5,-381 8.5,-381"/>
<text text-anchor="start" x="28.5" y="-389.2" font-family="Helvetica,sans-Serif" font-size="11.00">hostname</text>
<polygon fill="#ffffff" stroke="none" points="8.5,-359 8.5,-381 171.5,-381 171.5,-359 8.5,-359"/>
<polygon fill="none" stroke="black" points="8.5,-359 8.5,-381 171.5,-381 171.5,-359 8.5,-359"/>
<text text-anchor="start" x="28.5" y="-367.2" font-family="Helvetica,sans-Serif" font-size="11.00">ipaddress</text>
<polygon fill="#ffffff" stroke="none" points="8.5,-337 8.5,-359 171.5,-359 171.5,-337 8.5,-337"/>
<polygon fill="none" stroke="black" points="8.5,-337 8.5,-359 171.5,-359 171.5,-337 8.5,-337"/>
<text text-anchor="start" x="28.5" y="-345.2" font-family="Helvetica,sans-Serif" font-size="11.00">guid</text>
<polygon fill="#ffffff" stroke="none" points="8.5,-315 8.5,-337 171.5,-337 171.5,-315 8.5,-315"/>
<polygon fill="none" stroke="black" points="8.5,-315 8.5,-337 171.5,-337 171.5,-315 8.5,-315"/>
<text text-anchor="start" x="28.5" y="-323.2" font-family="Helvetica,sans-Serif" font-size="11.00">ems_id</text>
<polygon fill="#ffffff" stroke="none" points="8.5,-293 8.5,-315 171.5,-315 171.5,-293 8.5,-293"/>
<polygon fill="none" stroke="black" points="8.5,-293 8.5,-315 171.5,-315 171.5,-293 8.5,-293"/>
<text text-anchor="start" x="28.5" y="-301.2" font-family="Helvetica,sans-Serif" font-size="11.00">type</text>
<polygon fill="none" stroke="black" points="8.5,-271 8.5,-293 171.5,-293 171.5,-271 8.5,-271"/>
<image xlink:href="../../images/foreignKeys.png" width="11px" height="12px" preserveAspectRatio="xMinYMin meet" x="13.5" y="-288"/>
<text text-anchor="start" x="28.5" y="-279.2" font-family="Helvetica,sans-Serif" font-size="11.00">ems_cluster_id</text>
<polygon fill="#ffffff" stroke="none" points="8.5,-249 8.5,-271 171.5,-271 171.5,-249 8.5,-249"/>
<polygon fill="none" stroke="black" points="8.5,-249 8.5,-271 171.5,-271 171.5,-249 8.5,-249"/>
<image xlink:href="../../images/foreignKeys.png" width="11px" height="12px" preserveAspectRatio="xMinYMin meet" x="13.5" y="-266"/>
<text text-anchor="start" x="28.5" y="-257.2" font-family="Helvetica,sans-Serif" font-size="11.00">availability_zone_id</text>
<polygon fill="none" stroke="black" points="8.5,-227 8.5,-249 171.5,-249 171.5,-227 8.5,-227"/>
<image xlink:href="../../images/foreignKeys.png" width="11px" height="12px" preserveAspectRatio="xMinYMin meet" x="13.5" y="-244"/>
<text text-anchor="start" x="28.5" y="-235.2" font-family="Helvetica,sans-Serif" font-size="11.00">physical_server_id</text>
<polygon fill="none" stroke="black" points="8.5,-209 8.5,-227 171.5,-227 171.5,-209 8.5,-209"/>
<text text-anchor="start" x="11.5" y="-215.2" font-family="Helvetica,sans-Serif" font-size="11.00">...</text>
<polygon fill="#ffffff" stroke="none" points="8.5,-191 8.5,-209 79.5,-209 79.5,-191 8.5,-191"/>
<polygon fill="none" stroke="black" points="8.5,-191 8.5,-209 79.5,-209 79.5,-191 8.5,-191"/>
<text text-anchor="start" x="11.5" y="-197.2" font-family="Helvetica,sans-Serif" font-size="11.00">&lt; 3</text>
<polygon fill="#ffffff" stroke="none" points="79.5,-191 79.5,-209 116.5,-209 116.5,-191 79.5,-191"/>
<polygon fill="none" stroke="black" points="79.5,-191 79.5,-209 116.5,-209 116.5,-191 79.5,-191"/>
<text text-anchor="start" x="106.5" y="-197.2" font-family="Helvetica,sans-Serif" font-size="11.00"> &#160;</text>
<polygon fill="#ffffff" stroke="none" points="116.5,-191 116.5,-209 171.5,-209 171.5,-191 116.5,-191"/>
<polygon fill="none" stroke="black" points="116.5,-191 116.5,-209 171.5,-209 171.5,-191 116.5,-191"/>
<text text-anchor="start" x="144.5" y="-197.2" font-family="Helvetica,sans-Serif" font-size="11.00">15 &gt;</text>
</a>
</g>
</g>
<!-- operating_systems&#45;&gt;hosts -->
<g id="edge3" class="edge"><title>operating_systems:host_id:w&#45;&gt;hosts:id:e</title>
<path fill="none" stroke="black" d="M206.991,-414C195.677,-414 188.493,-414 172.5,-414"/>
<polygon fill="black" stroke="black" points="213.5,-414 221.5,-417.6 217.5,-414 221.5,-414 221.5,-414 221.5,-414 217.5,-414 221.5,-410.4 213.5,-414 213.5,-414"/>
<ellipse fill="none" stroke="black" cx="210.3" cy="-414" rx="3.2" ry="3.2"/>
</g>
<!-- os_processes -->
<g id="node5" class="node"><title>os_processes</title>
<g id="a_node5"><a xlink:href="../../tables/os_processes.html" xlink:title="os_processes" target="_top">
<polygon fill="#ffffff" stroke="none" points="548,-547 548,-649 691,-649 691,-547 548,-547"/>
<polygon fill="#f5f5f5" stroke="none" points="548.5,-627 548.5,-649 691.5,-649 691.5,-627 548.5,-627"/>
<polygon fill="none" stroke="black" points="548.5,-627 548.5,-649 691.5,-649 691.5,-627 548.5,-627"/>
<text text-anchor="start" x="553.5" y="-636.2" font-family="Helvetica,sans-Serif" font-weight="bold" font-size="11.00">os_processes</text>
<text text-anchor="start" x="652.5" y="-635.2" font-family="Helvetica,sans-Serif" font-size="11.00">[table]</text>
<polygon fill="none" stroke="black" points="548.5,-605 548.5,-627 691.5,-627 691.5,-605 548.5,-605"/>
<image xlink:href="../../images/primaryKeys.png" width="11px" height="12px" preserveAspectRatio="xMinYMin meet" x="553.5" y="-622"/>
<text text-anchor="start" x="568.5" y="-613.2" font-family="Helvetica,sans-Serif" font-size="11.00">id</text>
<polygon fill="#ffffff" stroke="none" points="548.5,-583 548.5,-605 691.5,-605 691.5,-583 548.5,-583"/>
<polygon fill="none" stroke="black" points="548.5,-583 548.5,-605 691.5,-605 691.5,-583 548.5,-583"/>
<image xlink:href="../../images/foreignKeys.png" width="11px" height="12px" preserveAspectRatio="xMinYMin meet" x="553.5" y="-600"/>
<text text-anchor="start" x="568.5" y="-591.2" font-family="Helvetica,sans-Serif" font-size="11.00">operating_system_id</text>
<polygon fill="none" stroke="black" points="548.5,-565 548.5,-583 691.5,-583 691.5,-565 548.5,-565"/>
<text text-anchor="start" x="551.5" y="-571.2" font-family="Helvetica,sans-Serif" font-size="11.00">...</text>
<polygon fill="#ffffff" stroke="none" points="548.5,-547 548.5,-565 618.5,-565 618.5,-547 548.5,-547"/>
<polygon fill="none" stroke="black" points="548.5,-547 548.5,-565 618.5,-565 618.5,-547 548.5,-547"/>
<text text-anchor="start" x="551.5" y="-553.2" font-family="Helvetica,sans-Serif" font-size="11.00">&lt; 1</text>
<polygon fill="#ffffff" stroke="none" points="618.5,-547 618.5,-565 654.5,-565 654.5,-547 618.5,-547"/>
<polygon fill="none" stroke="black" points="618.5,-547 618.5,-565 654.5,-565 654.5,-547 618.5,-547"/>
<text text-anchor="start" x="644.5" y="-553.2" font-family="Helvetica,sans-Serif" font-size="11.00"> &#160;</text>
<polygon fill="#ffffff" stroke="none" points="654.5,-547 654.5,-565 691.5,-565 691.5,-547 654.5,-547"/>
<polygon fill="none" stroke="black" points="654.5,-547 654.5,-565 691.5,-565 691.5,-547 654.5,-547"/>
<text text-anchor="start" x="681.5" y="-553.2" font-family="Helvetica,sans-Serif" font-size="11.00"> &#160;</text>
</a>
</g>
</g>
<!-- os_processes&#45;&gt;operating_systems -->
<g id="edge4" class="edge"><title>os_processes:operating_system_id:w&#45;&gt;operating_systems:id.type:e</title>
<path fill="none" stroke="black" d="M533.813,-598.865C518.015,-613.481 527.586,-656 498.5,-656"/>
<polygon fill="black" stroke="black" points="539.962,-596.679 548.706,-597.392 543.731,-595.34 547.5,-594 547.5,-594 547.5,-594 543.731,-595.34 546.294,-590.608 539.962,-596.679 539.962,-596.679"/>
<ellipse fill="none" stroke="black" cx="536.947" cy="-597.751" rx="3.20001" ry="3.20001"/>
</g>
</g>
</svg>
