<?xml version="1.0" encoding="UTF-8" standalone="no"?>
<!DOCTYPE svg PUBLIC "-//W3C//DTD SVG 1.1//EN"
 "http://www.w3.org/Graphics/SVG/1.1/DTD/svg11.dtd">
<!-- Generated by graphviz version 2.38.0 (20140413.2041)
 -->
<!-- Title: oneDegreeRelationshipsDiagram Pages: 1 -->
<svg width="996pt" height="478pt"
 viewBox="0.00 0.00 996.00 478.00" xmlns="http://www.w3.org/2000/svg" xmlns:xlink="http://www.w3.org/1999/xlink">
<g id="graph0" class="graph" transform="scale(1 1) rotate(0) translate(4 474)">
<title>oneDegreeRelationshipsDiagram</title>
<polygon fill="#ffffff" stroke="none" points="-4,4 -4,-474 992,-474 992,4 -4,4"/>
<text text-anchor="middle" x="74.5" y="-7.2" font-family="Helvetica,sans-Serif" font-size="11.00">Generated by SchemaSpy</text>
<!-- configuration_profiles -->
<g id="node1" class="node"><title>configuration_profiles</title>
<g id="a_node1"><a xlink:href="../../tables/configuration_profiles.html" xlink:title="configuration_profiles" target="_top">
<polygon fill="#ffffff" stroke="none" points="387,-224 387,-458 643,-458 643,-224 387,-224"/>
<polygon fill="#f5f5f5" stroke="none" points="387,-436 387,-458 643,-458 643,-436 387,-436"/>
<polygon fill="none" stroke="black" points="387,-436 387,-458 643,-458 643,-436 387,-436"/>
<text text-anchor="start" x="392" y="-445.2" font-family="Helvetica,sans-Serif" font-weight="bold" font-size="11.00">configuration_profiles</text>
<text text-anchor="start" x="604" y="-444.2" font-family="Helvetica,sans-Serif" font-size="11.00">[table]</text>
<polygon fill="none" stroke="black" points="387,-414 387,-436 643,-436 643,-414 387,-414"/>
<image xlink:href="../../images/primaryKeys.png" width="11px" height="12px" preserveAspectRatio="xMinYMin meet" x="392" y="-431"/>
<text text-anchor="start" x="407" y="-422.2" font-family="Helvetica,sans-Serif" font-size="11.00">id</text>
<polygon fill="#ffffff" stroke="none" points="387,-392 387,-414 643,-414 643,-392 387,-392"/>
<polygon fill="none" stroke="black" points="387,-392 387,-414 643,-414 643,-392 387,-392"/>
<text text-anchor="start" x="407" y="-400.2" font-family="Helvetica,sans-Serif" font-size="11.00">type</text>
<polygon fill="#ffffff" stroke="none" points="387,-370 387,-392 643,-392 643,-370 387,-370"/>
<polygon fill="none" stroke="black" points="387,-370 387,-392 643,-392 643,-370 387,-370"/>
<text text-anchor="start" x="407" y="-378.2" font-family="Helvetica,sans-Serif" font-size="11.00">direct_operating_system_flavor_id</text>
<polygon fill="#ffffff" stroke="none" points="387,-348 387,-370 643,-370 643,-348 387,-348"/>
<polygon fill="none" stroke="black" points="387,-348 387,-370 643,-370 643,-348 387,-348"/>
<text text-anchor="start" x="407" y="-356.2" font-family="Helvetica,sans-Serif" font-size="11.00">manager_id</text>
<polygon fill="#ffffff" stroke="none" points="387,-326 387,-348 643,-348 643,-326 387,-326"/>
<polygon fill="none" stroke="black" points="387,-326 387,-348 643,-348 643,-326 387,-326"/>
<text text-anchor="start" x="407" y="-334.2" font-family="Helvetica,sans-Serif" font-size="11.00">direct_customization_script_ptable_id</text>
<polygon fill="#ffffff" stroke="none" points="387,-304 387,-326 643,-326 643,-304 387,-304"/>
<polygon fill="none" stroke="black" points="387,-304 387,-326 643,-326 643,-304 387,-304"/>
<text text-anchor="start" x="407" y="-312.2" font-family="Helvetica,sans-Serif" font-size="11.00">direct_customization_script_medium_id</text>
<polygon fill="#ffffff" stroke="none" points="387,-282 387,-304 643,-304 643,-282 387,-282"/>
<polygon fill="none" stroke="black" points="387,-282 387,-304 643,-304 643,-282 387,-282"/>
<text text-anchor="start" x="407" y="-290.2" font-family="Helvetica,sans-Serif" font-size="11.00">manager_ref</text>
<polygon fill="none" stroke="black" points="387,-260 387,-282 643,-282 643,-260 387,-260"/>
<image xlink:href="../../images/foreignKeys.png" width="11px" height="12px" preserveAspectRatio="xMinYMin meet" x="392" y="-277"/>
<text text-anchor="start" x="407" y="-268.2" font-family="Helvetica,sans-Serif" font-size="11.00">operating_system_flavor_id</text>
<polygon fill="none" stroke="black" points="387,-242 387,-260 643,-260 643,-242 387,-242"/>
<text text-anchor="start" x="390" y="-248.2" font-family="Helvetica,sans-Serif" font-size="11.00">...</text>
<polygon fill="#ffffff" stroke="none" points="387,-224 387,-242 508,-242 508,-224 387,-224"/>
<polygon fill="none" stroke="black" points="387,-224 387,-242 508,-242 508,-224 387,-224"/>
<text text-anchor="start" x="390" y="-230.2" font-family="Helvetica,sans-Serif" font-size="11.00">&lt; 1</text>
<polygon fill="#ffffff" stroke="none" points="508,-224 508,-242 570,-242 570,-224 508,-224"/>
<polygon fill="none" stroke="black" points="508,-224 508,-242 570,-242 570,-224 508,-224"/>
<text text-anchor="start" x="560" y="-230.2" font-family="Helvetica,sans-Serif" font-size="11.00"> &#160;</text>
<polygon fill="#ffffff" stroke="none" points="570,-224 570,-242 643,-242 643,-224 570,-224"/>
<polygon fill="none" stroke="black" points="570,-224 570,-242 643,-242 643,-224 570,-224"/>
<text text-anchor="start" x="623" y="-230.2" font-family="Helvetica,sans-Serif" font-size="11.00">5 &gt;</text>
</a>
</g>
</g>
<!-- operating_system_flavors -->
<g id="node2" class="node"><title>operating_system_flavors</title>
<g id="a_node2"><a xlink:href="../../tables/operating_system_flavors.html" xlink:title="operating_system_flavors" target="_top">
<polygon fill="#ffffff" stroke="none" points="8,-37 8,-235 306,-235 306,-37 8,-37"/>
<polygon fill="#f5f5f5" stroke="none" points="10,-211 10,-233 304,-233 304,-211 10,-211"/>
<polygon fill="none" stroke="black" points="10,-211 10,-233 304,-233 304,-211 10,-211"/>
<text text-anchor="start" x="15" y="-220.2" font-family="Helvetica,sans-Serif" font-weight="bold" font-size="11.00">operating_system_flavors</text>
<text text-anchor="start" x="265" y="-219.2" font-family="Helvetica,sans-Serif" font-size="11.00">[table]</text>
<polygon fill="none" stroke="black" points="10,-189 10,-211 183,-211 183,-189 10,-189"/>
<image xlink:href="../../images/primaryKeys.png" width="11px" height="12px" preserveAspectRatio="xMinYMin meet" x="15" y="-206"/>
<text text-anchor="start" x="30" y="-197.2" font-family="Helvetica,sans-Serif" font-size="11.00">id</text>
<polygon fill="none" stroke="black" points="183,-189 183,-211 304,-211 304,-189 183,-189"/>
<text text-anchor="start" x="186" y="-197.2" font-family="Helvetica,sans-Serif" font-size="11.00">bigserial[19]</text>
<polygon fill="none" stroke="black" points="10,-167 10,-189 183,-189 183,-167 10,-167"/>
<text text-anchor="start" x="30" y="-175.2" font-family="Helvetica,sans-Serif" font-size="11.00">name</text>
<polygon fill="none" stroke="black" points="183,-167 183,-189 304,-189 304,-167 183,-167"/>
<text text-anchor="start" x="186" y="-175.2" font-family="Helvetica,sans-Serif" font-size="11.00">varchar[2147483647]</text>
<polygon fill="none" stroke="black" points="10,-145 10,-167 183,-167 183,-145 10,-145"/>
<text text-anchor="start" x="30" y="-153.2" font-family="Helvetica,sans-Serif" font-size="11.00">description</text>
<polygon fill="none" stroke="black" points="183,-145 183,-167 304,-167 304,-145 183,-145"/>
<text text-anchor="start" x="186" y="-153.2" font-family="Helvetica,sans-Serif" font-size="11.00">varchar[2147483647]</text>
<polygon fill="#ffffff" stroke="none" points="10,-123 10,-145 183,-145 183,-123 10,-123"/>
<polygon fill="none" stroke="black" points="10,-123 10,-145 183,-145 183,-123 10,-123"/>
<text text-anchor="start" x="30" y="-131.2" font-family="Helvetica,sans-Serif" font-size="11.00">provisioning_manager_id</text>
<polygon fill="none" stroke="black" points="183,-123 183,-145 304,-145 304,-123 183,-123"/>
<text text-anchor="start" x="186" y="-131.2" font-family="Helvetica,sans-Serif" font-size="11.00">int8[19]</text>
<polygon fill="#ffffff" stroke="none" points="10,-101 10,-123 183,-123 183,-101 10,-101"/>
<polygon fill="none" stroke="black" points="10,-101 10,-123 183,-123 183,-101 10,-101"/>
<text text-anchor="start" x="30" y="-109.2" font-family="Helvetica,sans-Serif" font-size="11.00">manager_ref</text>
<polygon fill="none" stroke="black" points="183,-101 183,-123 304,-123 304,-101 183,-101"/>
<text text-anchor="start" x="186" y="-109.2" font-family="Helvetica,sans-Serif" font-size="11.00">varchar[2147483647]</text>
<polygon fill="none" stroke="black" points="10,-79 10,-101 183,-101 183,-79 10,-79"/>
<text text-anchor="start" x="30" y="-87.2" font-family="Helvetica,sans-Serif" font-size="11.00">created_at</text>
<polygon fill="none" stroke="black" points="183,-79 183,-101 304,-101 304,-79 183,-79"/>
<text text-anchor="start" x="186" y="-87.2" font-family="Helvetica,sans-Serif" font-size="11.00">timestamp[29,6]</text>
<polygon fill="none" stroke="black" points="10,-57 10,-79 183,-79 183,-57 10,-57"/>
<text text-anchor="start" x="30" y="-65.2" font-family="Helvetica,sans-Serif" font-size="11.00">updated_at</text>
<polygon fill="none" stroke="black" points="183,-57 183,-79 304,-79 304,-57 183,-57"/>
<text text-anchor="start" x="186" y="-65.2" font-family="Helvetica,sans-Serif" font-size="11.00">timestamp[29,6]</text>
<polygon fill="#ffffff" stroke="none" points="10,-39 10,-57 101,-57 101,-39 10,-39"/>
<polygon fill="none" stroke="black" points="10,-39 10,-57 101,-57 101,-39 10,-39"/>
<text text-anchor="start" x="13" y="-45.2" font-family="Helvetica,sans-Serif" font-size="11.00">&lt; 0</text>
<polygon fill="#ffffff" stroke="none" points="101,-39 101,-57 183,-57 183,-39 101,-39"/>
<polygon fill="none" stroke="black" points="101,-39 101,-57 183,-57 183,-39 101,-39"/>
<text text-anchor="start" x="173" y="-45.2" font-family="Helvetica,sans-Serif" font-size="11.00"> &#160;</text>
<polygon fill="#ffffff" stroke="none" points="183,-39 183,-57 304,-57 304,-39 183,-39"/>
<polygon fill="none" stroke="black" points="183,-39 183,-57 304,-57 304,-39 183,-39"/>
<text text-anchor="start" x="284" y="-45.2" font-family="Helvetica,sans-Serif" font-size="11.00">3 &gt;</text>
<polygon fill="none" stroke="black" stroke-width="2" points="9,-38 9,-234 305,-234 305,-38 9,-38"/>
</a>
</g>
</g>
<!-- configuration_profiles&#45;&gt;operating_system_flavors -->
<g id="edge1" class="edge"><title>configuration_profiles:operating_system_flavor_id:w&#45;&gt;operating_system_flavors:id.type:e</title>
<path fill="none" stroke="black" d="M371.548,-268.303C340.724,-255.334 347.262,-200 305,-200"/>
<polygon fill="black" stroke="black" points="378.136,-269.533 385.34,-274.539 382.068,-270.266 386,-271 386,-271 386,-271 382.068,-270.266 386.66,-267.461 378.136,-269.533 378.136,-269.533"/>
<ellipse fill="none" stroke="black" cx="374.99" cy="-268.946" rx="3.2" ry="3.2"/>
</g>
<!-- configured_systems -->
<g id="node3" class="node"><title>configured_systems</title>
<g id="a_node3"><a xlink:href="../../tables/configured_systems.html" xlink:title="configured_systems" target="_top">
<polygon fill="#ffffff" stroke="none" points="724,-144 724,-466 980,-466 980,-144 724,-144"/>
<polygon fill="#f5f5f5" stroke="none" points="724,-444 724,-466 980,-466 980,-444 724,-444"/>
<polygon fill="none" stroke="black" points="724,-444 724,-466 980,-466 980,-444 724,-444"/>
<text text-anchor="start" x="729" y="-453.2" font-family="Helvetica,sans-Serif" font-weight="bold" font-size="11.00">configured_systems</text>
<text text-anchor="start" x="941" y="-452.2" font-family="Helvetica,sans-Serif" font-size="11.00">[table]</text>
<polygon fill="none" stroke="black" points="724,-422 724,-444 980,-444 980,-422 724,-422"/>
<image xlink:href="../../images/primaryKeys.png" width="11px" height="12px" preserveAspectRatio="xMinYMin meet" x="729" y="-439"/>
<text text-anchor="start" x="744" y="-430.2" font-family="Helvetica,sans-Serif" font-size="11.00">id</text>
<polygon fill="#ffffff" stroke="none" points="724,-400 724,-422 980,-422 980,-400 724,-400"/>
<polygon fill="none" stroke="black" points="724,-400 724,-422 980,-422 980,-400 724,-400"/>
<text text-anchor="start" x="744" y="-408.2" font-family="Helvetica,sans-Serif" font-size="11.00">type</text>
<polygon fill="#ffffff" stroke="none" points="724,-378 724,-400 980,-400 980,-378 724,-378"/>
<polygon fill="none" stroke="black" points="724,-378 724,-400 980,-400 980,-378 724,-378"/>
<text text-anchor="start" x="744" y="-386.2" font-family="Helvetica,sans-Serif" font-size="11.00">direct_operating_system_flavor_id</text>
<polygon fill="none" stroke="black" points="724,-356 724,-378 980,-378 980,-356 724,-356"/>
<image xlink:href="../../images/foreignKeys.png" width="11px" height="12px" preserveAspectRatio="xMinYMin meet" x="729" y="-373"/>
<text text-anchor="start" x="744" y="-364.2" font-family="Helvetica,sans-Serif" font-size="11.00">configuration_profile_id</text>
<polygon fill="#ffffff" stroke="none" points="724,-334 724,-356 980,-356 980,-334 724,-334"/>
<polygon fill="none" stroke="black" points="724,-334 724,-356 980,-356 980,-334 724,-334"/>
<text text-anchor="start" x="744" y="-342.2" font-family="Helvetica,sans-Serif" font-size="11.00">manager_id</text>
<polygon fill="#ffffff" stroke="none" points="724,-312 724,-334 980,-334 980,-312 724,-312"/>
<polygon fill="none" stroke="black" points="724,-312 724,-334 980,-334 980,-312 724,-312"/>
<text text-anchor="start" x="744" y="-320.2" font-family="Helvetica,sans-Serif" font-size="11.00">manager_ref</text>
<polygon fill="none" stroke="black" points="724,-290 724,-312 980,-312 980,-290 724,-290"/>
<image xlink:href="../../images/foreignKeys.png" width="11px" height="12px" preserveAspectRatio="xMinYMin meet" x="729" y="-307"/>
<text text-anchor="start" x="744" y="-298.2" font-family="Helvetica,sans-Serif" font-size="11.00">configuration_location_id</text>
<polygon fill="none" stroke="black" points="724,-268 724,-290 980,-290 980,-268 724,-268"/>
<image xlink:href="../../images/foreignKeys.png" width="11px" height="12px" preserveAspectRatio="xMinYMin meet" x="729" y="-285"/>
<text text-anchor="start" x="744" y="-276.2" font-family="Helvetica,sans-Serif" font-size="11.00">configuration_organization_id</text>
<polygon fill="none" stroke="black" points="724,-246 724,-268 980,-268 980,-246 724,-246"/>
<image xlink:href="../../images/foreignKeys.png" width="11px" height="12px" preserveAspectRatio="xMinYMin meet" x="729" y="-263"/>
<text text-anchor="start" x="744" y="-254.2" font-family="Helvetica,sans-Serif" font-size="11.00">operating_system_flavor_id</text>
<polygon fill="#ffffff" stroke="none" points="724,-224 724,-246 980,-246 980,-224 724,-224"/>
<polygon fill="none" stroke="black" points="724,-224 724,-246 980,-246 980,-224 724,-224"/>
<text text-anchor="start" x="744" y="-232.2" font-family="Helvetica,sans-Serif" font-size="11.00">counterpart_type</text>
<polygon fill="#ffffff" stroke="none" points="724,-202 724,-224 980,-224 980,-202 724,-202"/>
<polygon fill="none" stroke="black" points="724,-202 724,-224 980,-224 980,-202 724,-202"/>
<text text-anchor="start" x="744" y="-210.2" font-family="Helvetica,sans-Serif" font-size="11.00">counterpart_id</text>
<polygon fill="#ffffff" stroke="none" points="724,-180 724,-202 980,-202 980,-180 724,-180"/>
<polygon fill="none" stroke="black" points="724,-180 724,-202 980,-202 980,-180 724,-180"/>
<image xlink:href="../../images/foreignKeys.png" width="11px" height="12px" preserveAspectRatio="xMinYMin meet" x="729" y="-197"/>
<text text-anchor="start" x="744" y="-188.2" font-family="Helvetica,sans-Serif" font-size="11.00">orchestration_stack_id</text>
<polygon fill="none" stroke="black" points="724,-162 724,-180 980,-180 980,-162 724,-162"/>
<text text-anchor="start" x="727" y="-168.2" font-family="Helvetica,sans-Serif" font-size="11.00">...</text>
<polygon fill="#ffffff" stroke="none" points="724,-144 724,-162 845,-162 845,-144 724,-144"/>
<polygon fill="none" stroke="black" points="724,-144 724,-162 845,-162 845,-144 724,-144"/>
<text text-anchor="start" x="727" y="-150.2" font-family="Helvetica,sans-Serif" font-size="11.00">&lt; 5</text>
<polygon fill="#ffffff" stroke="none" points="845,-144 845,-162 907,-162 907,-144 845,-144"/>
<polygon fill="none" stroke="black" points="845,-144 845,-162 907,-162 907,-144 845,-144"/>
<text text-anchor="start" x="897" y="-150.2" font-family="Helvetica,sans-Serif" font-size="11.00"> &#160;</text>
<polygon fill="#ffffff" stroke="none" points="907,-144 907,-162 980,-162 980,-144 907,-144"/>
<polygon fill="none" stroke="black" points="907,-144 907,-162 980,-162 980,-144 907,-144"/>
<text text-anchor="start" x="960" y="-150.2" font-family="Helvetica,sans-Serif" font-size="11.00">2 &gt;</text>
</a>
</g>
</g>
<!-- configured_systems&#45;&gt;configuration_profiles -->
<g id="edge2" class="edge"><title>configured_systems:configuration_profile_id:w&#45;&gt;configuration_profiles:id:e</title>
<path fill="none" stroke="black" d="M708.51,-369.643C680.676,-380.989 681.943,-425 644,-425"/>
<polygon fill="black" stroke="black" points="715.13,-368.435 723.646,-370.542 719.065,-367.718 723,-367 723,-367 723,-367 719.065,-367.718 722.354,-363.458 715.13,-368.435 715.13,-368.435"/>
<ellipse fill="none" stroke="black" cx="711.982" cy="-369.01" rx="3.2" ry="3.2"/>
</g>
<!-- configured_systems&#45;&gt;operating_system_flavors -->
<g id="edge3" class="edge"><title>configured_systems:operating_system_flavor_id:w&#45;&gt;operating_system_flavors:id.type:e</title>
<path fill="none" stroke="black" d="M709.372,-252.104C699.693,-242.682 700.985,-222.233 683,-214 606.569,-179.014 389.058,-200 305,-200"/>
<polygon fill="black" stroke="black" points="715.471,-254.295 721.783,-260.388 719.236,-255.648 723,-257 723,-257 723,-257 719.236,-255.648 724.217,-253.612 715.471,-254.295 715.471,-254.295"/>
<ellipse fill="none" stroke="black" cx="712.46" cy="-253.213" rx="3.20001" ry="3.20001"/>
</g>
<!-- customization_scripts_operating_system_flavors -->
<g id="node4" class="node"><title>customization_scripts_operating_system_flavors</title>
<g id="a_node4"><a xlink:href="../../tables/customization_scripts_operating_system_flavors.html" xlink:title="customization_scripts_operating_system_flavors" target="_top">
<polygon fill="#ffffff" stroke="none" points="355,-70 355,-176 675,-176 675,-70 355,-70"/>
<polygon fill="#f5f5f5" stroke="none" points="355,-154 355,-176 675,-176 675,-154 355,-154"/>
<polygon fill="none" stroke="black" points="355,-154 355,-176 675,-176 675,-154 355,-154"/>
<text text-anchor="start" x="360" y="-163.2" font-family="Helvetica,sans-Serif" font-weight="bold" font-size="11.00">customization_scripts_operating_system_flavors</text>
<text text-anchor="start" x="636" y="-162.2" font-family="Helvetica,sans-Serif" font-size="11.00">[table]</text>
<polygon fill="none" stroke="black" points="355,-132 355,-154 675,-154 675,-132 355,-132"/>
<image xlink:href="../../images/primaryKeys.png" width="11px" height="12px" preserveAspectRatio="xMinYMin meet" x="360" y="-149"/>
<text text-anchor="start" x="381" y="-140.2" font-family="Helvetica,sans-Serif" font-size="11.00">id</text>
<polygon fill="#ffffff" stroke="none" points="355,-110 355,-132 675,-132 675,-110 355,-110"/>
<polygon fill="none" stroke="black" points="355,-110 355,-132 675,-132 675,-110 355,-110"/>
<image xlink:href="../../images/foreignKeys.png" width="11px" height="12px" preserveAspectRatio="xMinYMin meet" x="360" y="-127"/>
<text text-anchor="start" x="381" y="-118.2" font-family="Helvetica,sans-Serif" font-size="11.00">customization_script_id</text>
<polygon fill="#ffffff" stroke="none" points="355,-88 355,-110 675,-110 675,-88 355,-88"/>
<polygon fill="none" stroke="black" points="355,-88 355,-110 675,-110 675,-88 355,-88"/>
<image xlink:href="../../images/foreignKeys.png" width="11px" height="12px" preserveAspectRatio="xMinYMin meet" x="360" y="-105"/>
<text text-anchor="start" x="381" y="-96.2" font-family="Helvetica,sans-Serif" font-size="11.00">operating_system_flavor_id</text>
<polygon fill="#ffffff" stroke="none" points="355,-70 355,-88 513,-88 513,-70 355,-70"/>
<polygon fill="none" stroke="black" points="355,-70 355,-88 513,-88 513,-70 355,-70"/>
<text text-anchor="start" x="358" y="-76.2" font-family="Helvetica,sans-Serif" font-size="11.00">&lt; 2</text>
<polygon fill="#ffffff" stroke="none" points="513,-70 513,-88 594,-88 594,-70 513,-70"/>
<polygon fill="none" stroke="black" points="513,-70 513,-88 594,-88 594,-70 513,-70"/>
<text text-anchor="start" x="584" y="-76.2" font-family="Helvetica,sans-Serif" font-size="11.00"> &#160;</text>
<polygon fill="#ffffff" stroke="none" points="594,-70 594,-88 675,-88 675,-70 594,-70"/>
<polygon fill="none" stroke="black" points="594,-70 594,-88 675,-88 675,-70 594,-70"/>
<text text-anchor="start" x="665" y="-76.2" font-family="Helvetica,sans-Serif" font-size="11.00"> &#160;</text>
</a>
</g>
</g>
<!-- customization_scripts_operating_system_flavors&#45;&gt;operating_system_flavors -->
<g id="edge4" class="edge"><title>customization_scripts_operating_system_flavors:operating_system_flavor_id:w&#45;&gt;operating_system_flavors:id.type:e</title>
<path fill="none" stroke="black" d="M339.946,-103.084C314.931,-121.98 348.851,-200 305,-200"/>
<polygon fill="black" stroke="black" points="346.318,-101.233 355.005,-102.457 350.159,-100.116 354,-99 354,-99 354,-99 350.159,-100.116 352.995,-95.543 346.318,-101.233 346.318,-101.233"/>
<ellipse fill="none" stroke="black" cx="343.245" cy="-102.126" rx="3.20001" ry="3.20001"/>
</g>
</g>
</svg>
