<?xml version="1.0" encoding="UTF-8" standalone="no"?>
<!DOCTYPE svg PUBLIC "-//W3C//DTD SVG 1.1//EN"
 "http://www.w3.org/Graphics/SVG/1.1/DTD/svg11.dtd">
<!-- Generated by graphviz version 2.38.0 (20140413.2041)
 -->
<!-- Title: twoDegreesRelationshipsDiagram Pages: 1 -->
<svg width="1085pt" height="1647pt"
 viewBox="0.00 0.00 1085.00 1647.48" xmlns="http://www.w3.org/2000/svg" xmlns:xlink="http://www.w3.org/1999/xlink">
<g id="graph0" class="graph" transform="scale(1 1) rotate(0) translate(4 1643.48)">
<title>twoDegreesRelationshipsDiagram</title>
<polygon fill="#ffffff" stroke="none" points="-4,4 -4,-1643.48 1081,-1643.48 1081,4 -4,4"/>
<text text-anchor="middle" x="74.5" y="-7.2" font-family="Helvetica,sans-Serif" font-size="11.00">Generated by SchemaSpy</text>
<!-- accounts -->
<g id="node1" class="node"><title>accounts</title>
<g id="a_node1"><a xlink:href="../../tables/accounts.html" xlink:title="accounts" target="_top">
<polygon fill="#ffffff" stroke="none" points="508.5,-1049.48 508.5,-1107.48 608.5,-1107.48 608.5,-1049.48 508.5,-1049.48"/>
<polygon fill="#f5f5f5" stroke="none" points="508.5,-1085.48 508.5,-1107.48 608.5,-1107.48 608.5,-1085.48 508.5,-1085.48"/>
<polygon fill="none" stroke="black" points="508.5,-1085.48 508.5,-1107.48 608.5,-1107.48 608.5,-1085.48 508.5,-1085.48"/>
<text text-anchor="start" x="513.5" y="-1094.68" font-family="Helvetica,sans-Serif" font-weight="bold" font-size="11.00">accounts</text>
<text text-anchor="start" x="569.5" y="-1093.68" font-family="Helvetica,sans-Serif" font-size="11.00">[table]</text>
<polygon fill="none" stroke="black" points="508.5,-1067.48 508.5,-1085.48 608.5,-1085.48 608.5,-1067.48 508.5,-1067.48"/>
<text text-anchor="start" x="511.5" y="-1073.68" font-family="Helvetica,sans-Serif" font-size="11.00">...</text>
<polygon fill="#ffffff" stroke="none" points="508.5,-1049.48 508.5,-1067.48 556.5,-1067.48 556.5,-1049.48 508.5,-1049.48"/>
<polygon fill="none" stroke="black" points="508.5,-1049.48 508.5,-1067.48 556.5,-1067.48 556.5,-1049.48 508.5,-1049.48"/>
<text text-anchor="start" x="511.5" y="-1055.68" font-family="Helvetica,sans-Serif" font-size="11.00">&lt; 1</text>
<polygon fill="#ffffff" stroke="none" points="556.5,-1049.48 556.5,-1067.48 582.5,-1067.48 582.5,-1049.48 556.5,-1049.48"/>
<polygon fill="none" stroke="black" points="556.5,-1049.48 556.5,-1067.48 582.5,-1067.48 582.5,-1049.48 556.5,-1049.48"/>
<text text-anchor="start" x="572.5" y="-1055.68" font-family="Helvetica,sans-Serif" font-size="11.00"> &#160;</text>
<polygon fill="#ffffff" stroke="none" points="582.5,-1049.48 582.5,-1067.48 608.5,-1067.48 608.5,-1049.48 582.5,-1049.48"/>
<polygon fill="none" stroke="black" points="582.5,-1049.48 582.5,-1067.48 608.5,-1067.48 608.5,-1049.48 582.5,-1049.48"/>
<text text-anchor="start" x="598.5" y="-1055.68" font-family="Helvetica,sans-Serif" font-size="11.00"> &#160;</text>
</a>
</g>
</g>
<!-- hosts -->
<g id="node2" class="node"><title>hosts</title>
<g id="a_node2"><a xlink:href="../../tables/hosts.html" xlink:title="hosts" target="_top">
<polygon fill="#ffffff" stroke="none" points="207,-971.485 207,-1227.48 370,-1227.48 370,-971.485 207,-971.485"/>
<polygon fill="#f5f5f5" stroke="none" points="207.5,-1205.48 207.5,-1227.48 370.5,-1227.48 370.5,-1205.48 207.5,-1205.48"/>
<polygon fill="none" stroke="black" points="207.5,-1205.48 207.5,-1227.48 370.5,-1227.48 370.5,-1205.48 207.5,-1205.48"/>
<text text-anchor="start" x="212.5" y="-1214.68" font-family="Helvetica,sans-Serif" font-weight="bold" font-size="11.00">hosts</text>
<text text-anchor="start" x="331.5" y="-1213.68" font-family="Helvetica,sans-Serif" font-size="11.00">[table]</text>
<polygon fill="none" stroke="black" points="207.5,-1183.48 207.5,-1205.48 370.5,-1205.48 370.5,-1183.48 207.5,-1183.48"/>
<image xlink:href="../../images/primaryKeys.png" width="11px" height="12px" preserveAspectRatio="xMinYMin meet" x="212.5" y="-1200.48"/>
<text text-anchor="start" x="227.5" y="-1191.68" font-family="Helvetica,sans-Serif" font-size="11.00">id</text>
<polygon fill="#ffffff" stroke="none" points="207.5,-1161.48 207.5,-1183.48 370.5,-1183.48 370.5,-1161.48 207.5,-1161.48"/>
<polygon fill="none" stroke="black" points="207.5,-1161.48 207.5,-1183.48 370.5,-1183.48 370.5,-1161.48 207.5,-1161.48"/>
<text text-anchor="start" x="227.5" y="-1169.68" font-family="Helvetica,sans-Serif" font-size="11.00">hostname</text>
<polygon fill="#ffffff" stroke="none" points="207.5,-1139.48 207.5,-1161.48 370.5,-1161.48 370.5,-1139.48 207.5,-1139.48"/>
<polygon fill="none" stroke="black" points="207.5,-1139.48 207.5,-1161.48 370.5,-1161.48 370.5,-1139.48 207.5,-1139.48"/>
<text text-anchor="start" x="227.5" y="-1147.68" font-family="Helvetica,sans-Serif" font-size="11.00">ipaddress</text>
<polygon fill="#ffffff" stroke="none" points="207.5,-1117.48 207.5,-1139.48 370.5,-1139.48 370.5,-1117.48 207.5,-1117.48"/>
<polygon fill="none" stroke="black" points="207.5,-1117.48 207.5,-1139.48 370.5,-1139.48 370.5,-1117.48 207.5,-1117.48"/>
<text text-anchor="start" x="227.5" y="-1125.68" font-family="Helvetica,sans-Serif" font-size="11.00">guid</text>
<polygon fill="#ffffff" stroke="none" points="207.5,-1095.48 207.5,-1117.48 370.5,-1117.48 370.5,-1095.48 207.5,-1095.48"/>
<polygon fill="none" stroke="black" points="207.5,-1095.48 207.5,-1117.48 370.5,-1117.48 370.5,-1095.48 207.5,-1095.48"/>
<text text-anchor="start" x="227.5" y="-1103.68" font-family="Helvetica,sans-Serif" font-size="11.00">ems_id</text>
<polygon fill="#ffffff" stroke="none" points="207.5,-1073.48 207.5,-1095.48 370.5,-1095.48 370.5,-1073.48 207.5,-1073.48"/>
<polygon fill="none" stroke="black" points="207.5,-1073.48 207.5,-1095.48 370.5,-1095.48 370.5,-1073.48 207.5,-1073.48"/>
<text text-anchor="start" x="227.5" y="-1081.68" font-family="Helvetica,sans-Serif" font-size="11.00">type</text>
<polygon fill="none" stroke="black" points="207.5,-1051.48 207.5,-1073.48 370.5,-1073.48 370.5,-1051.48 207.5,-1051.48"/>
<image xlink:href="../../images/foreignKeys.png" width="11px" height="12px" preserveAspectRatio="xMinYMin meet" x="212.5" y="-1068.48"/>
<text text-anchor="start" x="227.5" y="-1059.68" font-family="Helvetica,sans-Serif" font-size="11.00">ems_cluster_id</text>
<polygon fill="#ffffff" stroke="none" points="207.5,-1029.48 207.5,-1051.48 370.5,-1051.48 370.5,-1029.48 207.5,-1029.48"/>
<polygon fill="none" stroke="black" points="207.5,-1029.48 207.5,-1051.48 370.5,-1051.48 370.5,-1029.48 207.5,-1029.48"/>
<image xlink:href="../../images/foreignKeys.png" width="11px" height="12px" preserveAspectRatio="xMinYMin meet" x="212.5" y="-1046.48"/>
<text text-anchor="start" x="227.5" y="-1037.68" font-family="Helvetica,sans-Serif" font-size="11.00">availability_zone_id</text>
<polygon fill="none" stroke="black" points="207.5,-1007.48 207.5,-1029.48 370.5,-1029.48 370.5,-1007.48 207.5,-1007.48"/>
<image xlink:href="../../images/foreignKeys.png" width="11px" height="12px" preserveAspectRatio="xMinYMin meet" x="212.5" y="-1024.48"/>
<text text-anchor="start" x="227.5" y="-1015.68" font-family="Helvetica,sans-Serif" font-size="11.00">physical_server_id</text>
<polygon fill="none" stroke="black" points="207.5,-989.485 207.5,-1007.48 370.5,-1007.48 370.5,-989.485 207.5,-989.485"/>
<text text-anchor="start" x="210.5" y="-995.685" font-family="Helvetica,sans-Serif" font-size="11.00">...</text>
<polygon fill="#ffffff" stroke="none" points="207.5,-971.485 207.5,-989.485 278.5,-989.485 278.5,-971.485 207.5,-971.485"/>
<polygon fill="none" stroke="black" points="207.5,-971.485 207.5,-989.485 278.5,-989.485 278.5,-971.485 207.5,-971.485"/>
<text text-anchor="start" x="210.5" y="-977.685" font-family="Helvetica,sans-Serif" font-size="11.00">&lt; 3</text>
<polygon fill="#ffffff" stroke="none" points="278.5,-971.485 278.5,-989.485 315.5,-989.485 315.5,-971.485 278.5,-971.485"/>
<polygon fill="none" stroke="black" points="278.5,-971.485 278.5,-989.485 315.5,-989.485 315.5,-971.485 278.5,-971.485"/>
<text text-anchor="start" x="305.5" y="-977.685" font-family="Helvetica,sans-Serif" font-size="11.00"> &#160;</text>
<polygon fill="#ffffff" stroke="none" points="315.5,-971.485 315.5,-989.485 370.5,-989.485 370.5,-971.485 315.5,-971.485"/>
<polygon fill="none" stroke="black" points="315.5,-971.485 315.5,-989.485 370.5,-989.485 370.5,-971.485 315.5,-971.485"/>
<text text-anchor="start" x="343.5" y="-977.685" font-family="Helvetica,sans-Serif" font-size="11.00">15 &gt;</text>
</a>
</g>
</g>
<!-- accounts&#45;&gt;hosts -->
<g id="edge1" class="edge"><title>accounts:elipses:w&#45;&gt;hosts:id:e</title>
<path fill="none" stroke="black" d="M492.734,-1076.89C456.967,-1079.05 441.32,-1090.18 411,-1118.48 383.172,-1144.46 409.568,-1194.48 371.5,-1194.48"/>
<polygon fill="black" stroke="black" points="499.503,-1076.7 507.599,-1080.08 503.502,-1076.59 507.5,-1076.48 507.5,-1076.48 507.5,-1076.48 503.502,-1076.59 507.401,-1072.89 499.503,-1076.7 499.503,-1076.7"/>
<ellipse fill="none" stroke="black" cx="496.304" cy="-1076.79" rx="3.2" ry="3.2"/>
</g>
<!-- availability_zones -->
<g id="node4" class="node"><title>availability_zones</title>
<g id="a_node4"><a xlink:href="../../tables/availability_zones.html" xlink:title="availability_zones" target="_top">
<polygon fill="#ffffff" stroke="none" points="8,-919.485 8,-977.485 158,-977.485 158,-919.485 8,-919.485"/>
<polygon fill="#f5f5f5" stroke="none" points="8,-955.485 8,-977.485 158,-977.485 158,-955.485 8,-955.485"/>
<polygon fill="none" stroke="black" points="8,-955.485 8,-977.485 158,-977.485 158,-955.485 8,-955.485"/>
<text text-anchor="start" x="13" y="-964.685" font-family="Helvetica,sans-Serif" font-weight="bold" font-size="11.00">availability_zones</text>
<text text-anchor="start" x="119" y="-963.685" font-family="Helvetica,sans-Serif" font-size="11.00">[table]</text>
<polygon fill="none" stroke="black" points="8,-937.485 8,-955.485 158,-955.485 158,-937.485 8,-937.485"/>
<text text-anchor="start" x="11" y="-943.685" font-family="Helvetica,sans-Serif" font-size="11.00">...</text>
<polygon fill="#ffffff" stroke="none" points="8,-919.485 8,-937.485 71,-937.485 71,-919.485 8,-919.485"/>
<polygon fill="none" stroke="black" points="8,-919.485 8,-937.485 71,-937.485 71,-919.485 8,-919.485"/>
<text text-anchor="start" x="11" y="-925.685" font-family="Helvetica,sans-Serif" font-size="11.00"> &#160;</text>
<polygon fill="#ffffff" stroke="none" points="71,-919.485 71,-937.485 109,-937.485 109,-919.485 71,-919.485"/>
<polygon fill="none" stroke="black" points="71,-919.485 71,-937.485 109,-937.485 109,-919.485 71,-919.485"/>
<text text-anchor="start" x="99" y="-925.685" font-family="Helvetica,sans-Serif" font-size="11.00"> &#160;</text>
<polygon fill="#ffffff" stroke="none" points="109,-919.485 109,-937.485 158,-937.485 158,-919.485 109,-919.485"/>
<polygon fill="none" stroke="black" points="109,-919.485 109,-937.485 158,-937.485 158,-919.485 109,-919.485"/>
<text text-anchor="start" x="138" y="-925.685" font-family="Helvetica,sans-Serif" font-size="11.00">8 &gt;</text>
</a>
</g>
</g>
<!-- hosts&#45;&gt;availability_zones -->
<g id="edge19" class="edge"><title>hosts:availability_zone_id:w&#45;&gt;availability_zones:elipses:e</title>
<path fill="none" stroke="black" d="M192.632,-1036.2C170.037,-1017.81 199.775,-946.485 159,-946.485"/>
<polygon fill="black" stroke="black" points="198.856,-1038.12 205.438,-1043.92 202.678,-1039.3 206.5,-1040.48 206.5,-1040.48 206.5,-1040.48 202.678,-1039.3 207.562,-1037.05 198.856,-1038.12 198.856,-1038.12"/>
<ellipse fill="none" stroke="black" cx="195.799" cy="-1037.18" rx="3.20001" ry="3.20001"/>
</g>
<!-- ems_clusters -->
<g id="node9" class="node"><title>ems_clusters</title>
<g id="a_node9"><a xlink:href="../../tables/ems_clusters.html" xlink:title="ems_clusters" target="_top">
<polygon fill="#ffffff" stroke="none" points="22.5,-1370.48 22.5,-1428.48 143.5,-1428.48 143.5,-1370.48 22.5,-1370.48"/>
<polygon fill="#f5f5f5" stroke="none" points="23,-1406.48 23,-1428.48 144,-1428.48 144,-1406.48 23,-1406.48"/>
<polygon fill="none" stroke="black" points="23,-1406.48 23,-1428.48 144,-1428.48 144,-1406.48 23,-1406.48"/>
<text text-anchor="start" x="28" y="-1415.68" font-family="Helvetica,sans-Serif" font-weight="bold" font-size="11.00">ems_clusters</text>
<text text-anchor="start" x="105" y="-1414.68" font-family="Helvetica,sans-Serif" font-size="11.00">[table]</text>
<polygon fill="none" stroke="black" points="23,-1388.48 23,-1406.48 144,-1406.48 144,-1388.48 23,-1388.48"/>
<text text-anchor="start" x="26" y="-1394.68" font-family="Helvetica,sans-Serif" font-size="11.00">...</text>
<polygon fill="#ffffff" stroke="none" points="23,-1370.48 23,-1388.48 72,-1388.48 72,-1370.48 23,-1370.48"/>
<polygon fill="none" stroke="black" points="23,-1370.48 23,-1388.48 72,-1388.48 72,-1370.48 23,-1370.48"/>
<text text-anchor="start" x="26" y="-1376.68" font-family="Helvetica,sans-Serif" font-size="11.00"> &#160;</text>
<polygon fill="#ffffff" stroke="none" points="72,-1370.48 72,-1388.48 103,-1388.48 103,-1370.48 72,-1370.48"/>
<polygon fill="none" stroke="black" points="72,-1370.48 72,-1388.48 103,-1388.48 103,-1370.48 72,-1370.48"/>
<text text-anchor="start" x="93" y="-1376.68" font-family="Helvetica,sans-Serif" font-size="11.00"> &#160;</text>
<polygon fill="#ffffff" stroke="none" points="103,-1370.48 103,-1388.48 144,-1388.48 144,-1370.48 103,-1370.48"/>
<polygon fill="none" stroke="black" points="103,-1370.48 103,-1388.48 144,-1388.48 144,-1370.48 103,-1370.48"/>
<text text-anchor="start" x="124" y="-1376.68" font-family="Helvetica,sans-Serif" font-size="11.00">4 &gt;</text>
</a>
</g>
</g>
<!-- hosts&#45;&gt;ems_clusters -->
<g id="edge20" class="edge"><title>hosts:ems_cluster_id:w&#45;&gt;ems_clusters:elipses:e</title>
<path fill="none" stroke="black" d="M192.875,-1067.22C142.632,-1107.94 215.367,-1397.48 145,-1397.48"/>
<polygon fill="black" stroke="black" points="198.943,-1065.11 207.682,-1065.89 202.722,-1063.8 206.5,-1062.48 206.5,-1062.48 206.5,-1062.48 202.722,-1063.8 205.318,-1059.08 198.943,-1065.11 198.943,-1065.11"/>
<ellipse fill="none" stroke="black" cx="195.921" cy="-1066.16" rx="3.20001" ry="3.20001"/>
</g>
<!-- physical_servers -->
<g id="node10" class="node"><title>physical_servers</title>
<g id="a_node10"><a xlink:href="../../tables/physical_servers.html" xlink:title="physical_servers" target="_top">
<polygon fill="#ffffff" stroke="none" points="12,-1091.48 12,-1149.48 154,-1149.48 154,-1091.48 12,-1091.48"/>
<polygon fill="#f5f5f5" stroke="none" points="12,-1127.48 12,-1149.48 154,-1149.48 154,-1127.48 12,-1127.48"/>
<polygon fill="none" stroke="black" points="12,-1127.48 12,-1149.48 154,-1149.48 154,-1127.48 12,-1127.48"/>
<text text-anchor="start" x="17" y="-1136.68" font-family="Helvetica,sans-Serif" font-weight="bold" font-size="11.00">physical_servers</text>
<text text-anchor="start" x="115" y="-1135.68" font-family="Helvetica,sans-Serif" font-size="11.00">[table]</text>
<polygon fill="none" stroke="black" points="12,-1109.48 12,-1127.48 154,-1127.48 154,-1109.48 12,-1109.48"/>
<text text-anchor="start" x="15" y="-1115.68" font-family="Helvetica,sans-Serif" font-size="11.00">...</text>
<polygon fill="#ffffff" stroke="none" points="12,-1091.48 12,-1109.48 76,-1109.48 76,-1091.48 12,-1091.48"/>
<polygon fill="none" stroke="black" points="12,-1091.48 12,-1109.48 76,-1109.48 76,-1091.48 12,-1091.48"/>
<text text-anchor="start" x="15" y="-1097.68" font-family="Helvetica,sans-Serif" font-size="11.00">&lt; 1</text>
<polygon fill="#ffffff" stroke="none" points="76,-1091.48 76,-1109.48 110,-1109.48 110,-1091.48 76,-1091.48"/>
<polygon fill="none" stroke="black" points="76,-1091.48 76,-1109.48 110,-1109.48 110,-1091.48 76,-1091.48"/>
<text text-anchor="start" x="100" y="-1097.68" font-family="Helvetica,sans-Serif" font-size="11.00"> &#160;</text>
<polygon fill="#ffffff" stroke="none" points="110,-1091.48 110,-1109.48 154,-1109.48 154,-1091.48 110,-1091.48"/>
<polygon fill="none" stroke="black" points="110,-1091.48 110,-1109.48 154,-1109.48 154,-1091.48 110,-1091.48"/>
<text text-anchor="start" x="134" y="-1097.68" font-family="Helvetica,sans-Serif" font-size="11.00">2 &gt;</text>
</a>
</g>
</g>
<!-- hosts&#45;&gt;physical_servers -->
<g id="edge21" class="edge"><title>hosts:physical_server_id:w&#45;&gt;physical_servers:elipses:e</title>
<path fill="none" stroke="black" d="M192.321,-1022.53C166.806,-1041.24 198.938,-1118.48 155,-1118.48"/>
<polygon fill="black" stroke="black" points="198.807,-1020.68 207.487,-1021.95 202.653,-1019.58 206.5,-1018.48 206.5,-1018.48 206.5,-1018.48 202.653,-1019.58 205.513,-1015.02 198.807,-1020.68 198.807,-1020.68"/>
<ellipse fill="none" stroke="black" cx="195.73" cy="-1021.56" rx="3.20001" ry="3.20001"/>
</g>
<!-- cloud_services -->
<g id="node3" class="node"><title>cloud_services</title>
<g id="a_node3"><a xlink:href="../../tables/cloud_services.html" xlink:title="cloud_services" target="_top">
<polygon fill="#ffffff" stroke="none" points="939,-919.485 939,-977.485 1069,-977.485 1069,-919.485 939,-919.485"/>
<polygon fill="#f5f5f5" stroke="none" points="939,-955.485 939,-977.485 1069,-977.485 1069,-955.485 939,-955.485"/>
<polygon fill="none" stroke="black" points="939,-955.485 939,-977.485 1069,-977.485 1069,-955.485 939,-955.485"/>
<text text-anchor="start" x="944" y="-964.685" font-family="Helvetica,sans-Serif" font-weight="bold" font-size="11.00">cloud_services</text>
<text text-anchor="start" x="1030" y="-963.685" font-family="Helvetica,sans-Serif" font-size="11.00">[table]</text>
<polygon fill="none" stroke="black" points="939,-937.485 939,-955.485 1069,-955.485 1069,-937.485 939,-937.485"/>
<text text-anchor="start" x="942" y="-943.685" font-family="Helvetica,sans-Serif" font-size="11.00">...</text>
<polygon fill="#ffffff" stroke="none" points="939,-919.485 939,-937.485 1002,-937.485 1002,-919.485 939,-919.485"/>
<polygon fill="none" stroke="black" points="939,-919.485 939,-937.485 1002,-937.485 1002,-919.485 939,-919.485"/>
<text text-anchor="start" x="942" y="-925.685" font-family="Helvetica,sans-Serif" font-size="11.00">&lt; 3</text>
<polygon fill="#ffffff" stroke="none" points="1002,-919.485 1002,-937.485 1035,-937.485 1035,-919.485 1002,-919.485"/>
<polygon fill="none" stroke="black" points="1002,-919.485 1002,-937.485 1035,-937.485 1035,-919.485 1002,-919.485"/>
<text text-anchor="start" x="1025" y="-925.685" font-family="Helvetica,sans-Serif" font-size="11.00"> &#160;</text>
<polygon fill="#ffffff" stroke="none" points="1035,-919.485 1035,-937.485 1069,-937.485 1069,-919.485 1035,-919.485"/>
<polygon fill="none" stroke="black" points="1035,-919.485 1035,-937.485 1069,-937.485 1069,-919.485 1035,-919.485"/>
<text text-anchor="start" x="1059" y="-925.685" font-family="Helvetica,sans-Serif" font-size="11.00"> &#160;</text>
</a>
</g>
</g>
<!-- cloud_services&#45;&gt;hosts -->
<g id="edge3" class="edge"><title>cloud_services:elipses:w&#45;&gt;hosts:id:e</title>
<path fill="none" stroke="black" d="M923.505,-946.236C829.449,-943.76 452.55,-924.404 411,-960.485 371.182,-995.062 424.236,-1194.48 371.5,-1194.48"/>
<polygon fill="black" stroke="black" points="930.001,-946.347 937.938,-950.084 934.001,-946.416 938,-946.485 938,-946.485 938,-946.485 934.001,-946.416 938.062,-942.885 930.001,-946.347 930.001,-946.347"/>
<ellipse fill="none" stroke="black" cx="926.802" cy="-946.292" rx="3.2" ry="3.2"/>
</g>
<!-- cloud_services&#45;&gt;availability_zones -->
<g id="edge2" class="edge"><title>cloud_services:elipses:w&#45;&gt;availability_zones:elipses:e</title>
<path fill="none" stroke="black" d="M926.511,-937.232C894.505,-879.463 908.517,-569.439 898,-528.485 844.424,-319.853 885.97,-201.842 706,-83.4849 492.524,56.9072 290.358,-115.873 199,-354.485 175.427,-416.054 224.928,-946.485 159,-946.485"/>
<polygon fill="black" stroke="black" points="931.769,-941.467 935.742,-949.289 934.885,-943.976 938,-946.485 938,-946.485 938,-946.485 934.885,-943.976 940.258,-943.681 931.769,-941.467 931.769,-941.467"/>
<ellipse fill="none" stroke="black" cx="929.277" cy="-939.46" rx="3.20001" ry="3.20001"/>
</g>
<!-- system_services -->
<g id="node5" class="node"><title>system_services</title>
<g id="a_node5"><a xlink:href="../../tables/system_services.html" xlink:title="system_services" target="_top">
<polygon fill="#ffffff" stroke="none" points="749,-1289.48 749,-1347.48 888,-1347.48 888,-1289.48 749,-1289.48"/>
<polygon fill="#f5f5f5" stroke="none" points="749.5,-1325.48 749.5,-1347.48 888.5,-1347.48 888.5,-1325.48 749.5,-1325.48"/>
<polygon fill="none" stroke="black" points="749.5,-1325.48 749.5,-1347.48 888.5,-1347.48 888.5,-1325.48 749.5,-1325.48"/>
<text text-anchor="start" x="754.5" y="-1334.68" font-family="Helvetica,sans-Serif" font-weight="bold" font-size="11.00">system_services</text>
<text text-anchor="start" x="849.5" y="-1333.68" font-family="Helvetica,sans-Serif" font-size="11.00">[table]</text>
<polygon fill="none" stroke="black" points="749.5,-1307.48 749.5,-1325.48 888.5,-1325.48 888.5,-1307.48 749.5,-1307.48"/>
<text text-anchor="start" x="752.5" y="-1313.68" font-family="Helvetica,sans-Serif" font-size="11.00">...</text>
<polygon fill="#ffffff" stroke="none" points="749.5,-1289.48 749.5,-1307.48 812.5,-1307.48 812.5,-1289.48 749.5,-1289.48"/>
<polygon fill="none" stroke="black" points="749.5,-1289.48 749.5,-1307.48 812.5,-1307.48 812.5,-1289.48 749.5,-1289.48"/>
<text text-anchor="start" x="752.5" y="-1295.68" font-family="Helvetica,sans-Serif" font-size="11.00">&lt; 2</text>
<polygon fill="#ffffff" stroke="none" points="812.5,-1289.48 812.5,-1307.48 845.5,-1307.48 845.5,-1289.48 812.5,-1289.48"/>
<polygon fill="none" stroke="black" points="812.5,-1289.48 812.5,-1307.48 845.5,-1307.48 845.5,-1289.48 812.5,-1289.48"/>
<text text-anchor="start" x="835.5" y="-1295.68" font-family="Helvetica,sans-Serif" font-size="11.00"> &#160;</text>
<polygon fill="#ffffff" stroke="none" points="845.5,-1289.48 845.5,-1307.48 888.5,-1307.48 888.5,-1289.48 845.5,-1289.48"/>
<polygon fill="none" stroke="black" points="845.5,-1289.48 845.5,-1307.48 888.5,-1307.48 888.5,-1289.48 845.5,-1289.48"/>
<text text-anchor="start" x="868.5" y="-1295.68" font-family="Helvetica,sans-Serif" font-size="11.00">1 &gt;</text>
</a>
</g>
</g>
<!-- cloud_services&#45;&gt;system_services -->
<g id="edge4" class="edge"><title>cloud_services:elipses:w&#45;&gt;system_services:elipses:e</title>
<path fill="none" stroke="black" d="M924.012,-951.163C869.777,-993.994 966.919,-1316.48 889.5,-1316.48"/>
<polygon fill="black" stroke="black" points="930.413,-949.022 939.142,-949.899 934.207,-947.754 938,-946.485 938,-946.485 938,-946.485 934.207,-947.754 936.858,-943.071 930.413,-949.022 930.413,-949.022"/>
<ellipse fill="none" stroke="black" cx="927.378" cy="-950.037" rx="3.20001" ry="3.20001"/>
</g>
<!-- system_services&#45;&gt;hosts -->
<g id="edge29" class="edge"><title>system_services:elipses:w&#45;&gt;hosts:id:e</title>
<path fill="none" stroke="black" d="M734.044,-1316.72C650.219,-1319.09 468.141,-1338.17 411,-1296.48 371.726,-1267.83 420.114,-1194.48 371.5,-1194.48"/>
<polygon fill="black" stroke="black" points="740.501,-1316.61 748.558,-1320.08 744.501,-1316.55 748.5,-1316.48 748.5,-1316.48 748.5,-1316.48 744.501,-1316.55 748.442,-1312.89 740.501,-1316.61 740.501,-1316.61"/>
<ellipse fill="none" stroke="black" cx="737.301" cy="-1316.66" rx="3.2" ry="3.2"/>
</g>
<!-- host_service_groups -->
<g id="node16" class="node"><title>host_service_groups</title>
<g id="a_node16"><a xlink:href="../../tables/host_service_groups.html" xlink:title="host_service_groups" target="_top">
<polygon fill="#ffffff" stroke="none" points="478,-1340.48 478,-1398.48 639,-1398.48 639,-1340.48 478,-1340.48"/>
<polygon fill="#f5f5f5" stroke="none" points="478.5,-1376.48 478.5,-1398.48 639.5,-1398.48 639.5,-1376.48 478.5,-1376.48"/>
<polygon fill="none" stroke="black" points="478.5,-1376.48 478.5,-1398.48 639.5,-1398.48 639.5,-1376.48 478.5,-1376.48"/>
<text text-anchor="start" x="483.5" y="-1385.68" font-family="Helvetica,sans-Serif" font-weight="bold" font-size="11.00">host_service_groups</text>
<text text-anchor="start" x="600.5" y="-1384.68" font-family="Helvetica,sans-Serif" font-size="11.00">[table]</text>
<polygon fill="none" stroke="black" points="478.5,-1358.48 478.5,-1376.48 639.5,-1376.48 639.5,-1358.48 478.5,-1358.48"/>
<text text-anchor="start" x="481.5" y="-1364.68" font-family="Helvetica,sans-Serif" font-size="11.00">...</text>
<polygon fill="#ffffff" stroke="none" points="478.5,-1340.48 478.5,-1358.48 552.5,-1358.48 552.5,-1340.48 478.5,-1340.48"/>
<polygon fill="none" stroke="black" points="478.5,-1340.48 478.5,-1358.48 552.5,-1358.48 552.5,-1340.48 478.5,-1340.48"/>
<text text-anchor="start" x="481.5" y="-1346.68" font-family="Helvetica,sans-Serif" font-size="11.00">&lt; 1</text>
<polygon fill="#ffffff" stroke="none" points="552.5,-1340.48 552.5,-1358.48 590.5,-1358.48 590.5,-1340.48 552.5,-1340.48"/>
<polygon fill="none" stroke="black" points="552.5,-1340.48 552.5,-1358.48 590.5,-1358.48 590.5,-1340.48 552.5,-1340.48"/>
<text text-anchor="start" x="580.5" y="-1346.68" font-family="Helvetica,sans-Serif" font-size="11.00"> &#160;</text>
<polygon fill="#ffffff" stroke="none" points="590.5,-1340.48 590.5,-1358.48 639.5,-1358.48 639.5,-1340.48 590.5,-1340.48"/>
<polygon fill="none" stroke="black" points="590.5,-1340.48 590.5,-1358.48 639.5,-1358.48 639.5,-1340.48 590.5,-1340.48"/>
<text text-anchor="start" x="619.5" y="-1346.68" font-family="Helvetica,sans-Serif" font-size="11.00">2 &gt;</text>
</a>
</g>
</g>
<!-- system_services&#45;&gt;host_service_groups -->
<g id="edge30" class="edge"><title>system_services:elipses:w&#45;&gt;host_service_groups:elipses:e</title>
<path fill="none" stroke="black" d="M734.062,-1317.9C694.543,-1326.14 688.295,-1367.48 640.5,-1367.48"/>
<polygon fill="black" stroke="black" points="740.538,-1317.27 748.852,-1320.07 744.519,-1316.88 748.5,-1316.48 748.5,-1316.48 748.5,-1316.48 744.519,-1316.88 748.148,-1312.9 740.538,-1317.27 740.538,-1317.27"/>
<ellipse fill="none" stroke="black" cx="737.354" cy="-1317.58" rx="3.2" ry="3.2"/>
</g>
<!-- event_logs -->
<g id="node6" class="node"><title>event_logs</title>
<g id="a_node6"><a xlink:href="../../tables/event_logs.html" xlink:title="event_logs" target="_top">
<polygon fill="#ffffff" stroke="none" points="747,-539.485 747,-663.485 890,-663.485 890,-539.485 747,-539.485"/>
<polygon fill="#f5f5f5" stroke="none" points="747.5,-641.485 747.5,-663.485 890.5,-663.485 890.5,-641.485 747.5,-641.485"/>
<polygon fill="none" stroke="black" points="747.5,-641.485 747.5,-663.485 890.5,-663.485 890.5,-641.485 747.5,-641.485"/>
<text text-anchor="start" x="752.5" y="-650.685" font-family="Helvetica,sans-Serif" font-weight="bold" font-size="11.00">event_logs</text>
<text text-anchor="start" x="851.5" y="-649.685" font-family="Helvetica,sans-Serif" font-size="11.00">[table]</text>
<polygon fill="none" stroke="black" points="747.5,-619.485 747.5,-641.485 890.5,-641.485 890.5,-619.485 747.5,-619.485"/>
<image xlink:href="../../images/primaryKeys.png" width="11px" height="12px" preserveAspectRatio="xMinYMin meet" x="752.5" y="-636.485"/>
<text text-anchor="start" x="767.5" y="-627.685" font-family="Helvetica,sans-Serif" font-size="11.00">id</text>
<polygon fill="#ffffff" stroke="none" points="747.5,-597.485 747.5,-619.485 890.5,-619.485 890.5,-597.485 747.5,-597.485"/>
<polygon fill="none" stroke="black" points="747.5,-597.485 747.5,-619.485 890.5,-619.485 890.5,-597.485 747.5,-597.485"/>
<text text-anchor="start" x="767.5" y="-605.685" font-family="Helvetica,sans-Serif" font-size="11.00">event_id</text>
<polygon fill="#ffffff" stroke="none" points="747.5,-575.485 747.5,-597.485 890.5,-597.485 890.5,-575.485 747.5,-575.485"/>
<polygon fill="none" stroke="black" points="747.5,-575.485 747.5,-597.485 890.5,-597.485 890.5,-575.485 747.5,-575.485"/>
<image xlink:href="../../images/foreignKeys.png" width="11px" height="12px" preserveAspectRatio="xMinYMin meet" x="752.5" y="-592.485"/>
<text text-anchor="start" x="767.5" y="-583.685" font-family="Helvetica,sans-Serif" font-size="11.00">operating_system_id</text>
<polygon fill="none" stroke="black" points="747.5,-557.485 747.5,-575.485 890.5,-575.485 890.5,-557.485 747.5,-557.485"/>
<text text-anchor="start" x="750.5" y="-563.685" font-family="Helvetica,sans-Serif" font-size="11.00">...</text>
<polygon fill="#ffffff" stroke="none" points="747.5,-539.485 747.5,-557.485 817.5,-557.485 817.5,-539.485 747.5,-539.485"/>
<polygon fill="none" stroke="black" points="747.5,-539.485 747.5,-557.485 817.5,-557.485 817.5,-539.485 747.5,-539.485"/>
<text text-anchor="start" x="750.5" y="-545.685" font-family="Helvetica,sans-Serif" font-size="11.00">&lt; 1</text>
<polygon fill="#ffffff" stroke="none" points="817.5,-539.485 817.5,-557.485 853.5,-557.485 853.5,-539.485 817.5,-539.485"/>
<polygon fill="none" stroke="black" points="817.5,-539.485 817.5,-557.485 853.5,-557.485 853.5,-539.485 817.5,-539.485"/>
<text text-anchor="start" x="843.5" y="-545.685" font-family="Helvetica,sans-Serif" font-size="11.00"> &#160;</text>
<polygon fill="#ffffff" stroke="none" points="853.5,-539.485 853.5,-557.485 890.5,-557.485 890.5,-539.485 853.5,-539.485"/>
<polygon fill="none" stroke="black" points="853.5,-539.485 853.5,-557.485 890.5,-557.485 890.5,-539.485 853.5,-539.485"/>
<text text-anchor="start" x="880.5" y="-545.685" font-family="Helvetica,sans-Serif" font-size="11.00"> &#160;</text>
</a>
</g>
</g>
<!-- operating_systems -->
<g id="node7" class="node"><title>operating_systems</title>
<g id="a_node7"><a xlink:href="../../tables/operating_systems.html" xlink:title="operating_systems" target="_top">
<polygon fill="#ffffff" stroke="none" points="419,-94.4849 419,-710.485 698,-710.485 698,-94.4849 419,-94.4849"/>
<polygon fill="#f5f5f5" stroke="none" points="421.5,-686.485 421.5,-708.485 696.5,-708.485 696.5,-686.485 421.5,-686.485"/>
<polygon fill="none" stroke="black" points="421.5,-686.485 421.5,-708.485 696.5,-708.485 696.5,-686.485 421.5,-686.485"/>
<text text-anchor="start" x="426.5" y="-695.685" font-family="Helvetica,sans-Serif" font-weight="bold" font-size="11.00">operating_systems</text>
<text text-anchor="start" x="657.5" y="-694.685" font-family="Helvetica,sans-Serif" font-size="11.00">[table]</text>
<polygon fill="none" stroke="black" points="421.5,-664.485 421.5,-686.485 575.5,-686.485 575.5,-664.485 421.5,-664.485"/>
<image xlink:href="../../images/primaryKeys.png" width="11px" height="12px" preserveAspectRatio="xMinYMin meet" x="426.5" y="-681.485"/>
<text text-anchor="start" x="441.5" y="-672.685" font-family="Helvetica,sans-Serif" font-size="11.00">id</text>
<polygon fill="none" stroke="black" points="575.5,-664.485 575.5,-686.485 696.5,-686.485 696.5,-664.485 575.5,-664.485"/>
<text text-anchor="start" x="578.5" y="-672.685" font-family="Helvetica,sans-Serif" font-size="11.00">bigserial[19]</text>
<polygon fill="none" stroke="black" points="421.5,-642.485 421.5,-664.485 575.5,-664.485 575.5,-642.485 421.5,-642.485"/>
<text text-anchor="start" x="441.5" y="-650.685" font-family="Helvetica,sans-Serif" font-size="11.00">name</text>
<polygon fill="none" stroke="black" points="575.5,-642.485 575.5,-664.485 696.5,-664.485 696.5,-642.485 575.5,-642.485"/>
<text text-anchor="start" x="578.5" y="-650.685" font-family="Helvetica,sans-Serif" font-size="11.00">varchar[2147483647]</text>
<polygon fill="none" stroke="black" points="421.5,-620.485 421.5,-642.485 575.5,-642.485 575.5,-620.485 421.5,-620.485"/>
<text text-anchor="start" x="441.5" y="-628.685" font-family="Helvetica,sans-Serif" font-size="11.00">product_name</text>
<polygon fill="none" stroke="black" points="575.5,-620.485 575.5,-642.485 696.5,-642.485 696.5,-620.485 575.5,-620.485"/>
<text text-anchor="start" x="578.5" y="-628.685" font-family="Helvetica,sans-Serif" font-size="11.00">varchar[2147483647]</text>
<polygon fill="none" stroke="black" points="421.5,-598.485 421.5,-620.485 575.5,-620.485 575.5,-598.485 421.5,-598.485"/>
<text text-anchor="start" x="441.5" y="-606.685" font-family="Helvetica,sans-Serif" font-size="11.00">version</text>
<polygon fill="none" stroke="black" points="575.5,-598.485 575.5,-620.485 696.5,-620.485 696.5,-598.485 575.5,-598.485"/>
<text text-anchor="start" x="578.5" y="-606.685" font-family="Helvetica,sans-Serif" font-size="11.00">varchar[2147483647]</text>
<polygon fill="none" stroke="black" points="421.5,-576.485 421.5,-598.485 575.5,-598.485 575.5,-576.485 421.5,-576.485"/>
<text text-anchor="start" x="441.5" y="-584.685" font-family="Helvetica,sans-Serif" font-size="11.00">build_number</text>
<polygon fill="none" stroke="black" points="575.5,-576.485 575.5,-598.485 696.5,-598.485 696.5,-576.485 575.5,-576.485"/>
<text text-anchor="start" x="578.5" y="-584.685" font-family="Helvetica,sans-Serif" font-size="11.00">varchar[2147483647]</text>
<polygon fill="none" stroke="black" points="421.5,-554.485 421.5,-576.485 575.5,-576.485 575.5,-554.485 421.5,-554.485"/>
<text text-anchor="start" x="441.5" y="-562.685" font-family="Helvetica,sans-Serif" font-size="11.00">system_root</text>
<polygon fill="none" stroke="black" points="575.5,-554.485 575.5,-576.485 696.5,-576.485 696.5,-554.485 575.5,-554.485"/>
<text text-anchor="start" x="578.5" y="-562.685" font-family="Helvetica,sans-Serif" font-size="11.00">varchar[2147483647]</text>
<polygon fill="none" stroke="black" points="421.5,-532.485 421.5,-554.485 575.5,-554.485 575.5,-532.485 421.5,-532.485"/>
<text text-anchor="start" x="441.5" y="-540.685" font-family="Helvetica,sans-Serif" font-size="11.00">distribution</text>
<polygon fill="none" stroke="black" points="575.5,-532.485 575.5,-554.485 696.5,-554.485 696.5,-532.485 575.5,-532.485"/>
<text text-anchor="start" x="578.5" y="-540.685" font-family="Helvetica,sans-Serif" font-size="11.00">varchar[2147483647]</text>
<polygon fill="none" stroke="black" points="421.5,-510.485 421.5,-532.485 575.5,-532.485 575.5,-510.485 421.5,-510.485"/>
<text text-anchor="start" x="441.5" y="-518.685" font-family="Helvetica,sans-Serif" font-size="11.00">product_type</text>
<polygon fill="none" stroke="black" points="575.5,-510.485 575.5,-532.485 696.5,-532.485 696.5,-510.485 575.5,-510.485"/>
<text text-anchor="start" x="578.5" y="-518.685" font-family="Helvetica,sans-Serif" font-size="11.00">varchar[2147483647]</text>
<polygon fill="none" stroke="black" points="421.5,-488.485 421.5,-510.485 575.5,-510.485 575.5,-488.485 421.5,-488.485"/>
<text text-anchor="start" x="441.5" y="-496.685" font-family="Helvetica,sans-Serif" font-size="11.00">service_pack</text>
<polygon fill="none" stroke="black" points="575.5,-488.485 575.5,-510.485 696.5,-510.485 696.5,-488.485 575.5,-488.485"/>
<text text-anchor="start" x="578.5" y="-496.685" font-family="Helvetica,sans-Serif" font-size="11.00">varchar[2147483647]</text>
<polygon fill="none" stroke="black" points="421.5,-466.485 421.5,-488.485 575.5,-488.485 575.5,-466.485 421.5,-466.485"/>
<text text-anchor="start" x="441.5" y="-474.685" font-family="Helvetica,sans-Serif" font-size="11.00">productid</text>
<polygon fill="none" stroke="black" points="575.5,-466.485 575.5,-488.485 696.5,-488.485 696.5,-466.485 575.5,-466.485"/>
<text text-anchor="start" x="578.5" y="-474.685" font-family="Helvetica,sans-Serif" font-size="11.00">varchar[2147483647]</text>
<polygon fill="#ffffff" stroke="none" points="421.5,-444.485 421.5,-466.485 575.5,-466.485 575.5,-444.485 421.5,-444.485"/>
<polygon fill="none" stroke="black" points="421.5,-444.485 421.5,-466.485 575.5,-466.485 575.5,-444.485 421.5,-444.485"/>
<text text-anchor="start" x="441.5" y="-452.685" font-family="Helvetica,sans-Serif" font-size="11.00">vm_or_template_id</text>
<polygon fill="none" stroke="black" points="575.5,-444.485 575.5,-466.485 696.5,-466.485 696.5,-444.485 575.5,-444.485"/>
<text text-anchor="start" x="578.5" y="-452.685" font-family="Helvetica,sans-Serif" font-size="11.00">int8[19]</text>
<polygon fill="#ffffff" stroke="none" points="421.5,-422.485 421.5,-444.485 575.5,-444.485 575.5,-422.485 421.5,-422.485"/>
<polygon fill="none" stroke="black" points="421.5,-422.485 421.5,-444.485 575.5,-444.485 575.5,-422.485 421.5,-422.485"/>
<image xlink:href="../../images/foreignKeys.png" width="11px" height="12px" preserveAspectRatio="xMinYMin meet" x="426.5" y="-439.485"/>
<text text-anchor="start" x="441.5" y="-430.685" font-family="Helvetica,sans-Serif" font-size="11.00">host_id</text>
<polygon fill="none" stroke="black" points="575.5,-422.485 575.5,-444.485 696.5,-444.485 696.5,-422.485 575.5,-422.485"/>
<text text-anchor="start" x="578.5" y="-430.685" font-family="Helvetica,sans-Serif" font-size="11.00">int8[19]</text>
<polygon fill="none" stroke="black" points="421.5,-400.485 421.5,-422.485 575.5,-422.485 575.5,-400.485 421.5,-400.485"/>
<text text-anchor="start" x="441.5" y="-408.685" font-family="Helvetica,sans-Serif" font-size="11.00">bitness</text>
<polygon fill="none" stroke="black" points="575.5,-400.485 575.5,-422.485 696.5,-422.485 696.5,-400.485 575.5,-400.485"/>
<text text-anchor="start" x="578.5" y="-408.685" font-family="Helvetica,sans-Serif" font-size="11.00">int4[10]</text>
<polygon fill="none" stroke="black" points="421.5,-378.485 421.5,-400.485 575.5,-400.485 575.5,-378.485 421.5,-378.485"/>
<text text-anchor="start" x="441.5" y="-386.685" font-family="Helvetica,sans-Serif" font-size="11.00">product_key</text>
<polygon fill="none" stroke="black" points="575.5,-378.485 575.5,-400.485 696.5,-400.485 696.5,-378.485 575.5,-378.485"/>
<text text-anchor="start" x="578.5" y="-386.685" font-family="Helvetica,sans-Serif" font-size="11.00">varchar[2147483647]</text>
<polygon fill="none" stroke="black" points="421.5,-356.485 421.5,-378.485 575.5,-378.485 575.5,-356.485 421.5,-356.485"/>
<text text-anchor="start" x="441.5" y="-364.685" font-family="Helvetica,sans-Serif" font-size="11.00">pw_hist</text>
<polygon fill="none" stroke="black" points="575.5,-356.485 575.5,-378.485 696.5,-378.485 696.5,-356.485 575.5,-356.485"/>
<text text-anchor="start" x="578.5" y="-364.685" font-family="Helvetica,sans-Serif" font-size="11.00">int4[10]</text>
<polygon fill="none" stroke="black" points="421.5,-334.485 421.5,-356.485 575.5,-356.485 575.5,-334.485 421.5,-334.485"/>
<text text-anchor="start" x="441.5" y="-342.685" font-family="Helvetica,sans-Serif" font-size="11.00">max_pw_age</text>
<polygon fill="none" stroke="black" points="575.5,-334.485 575.5,-356.485 696.5,-356.485 696.5,-334.485 575.5,-334.485"/>
<text text-anchor="start" x="578.5" y="-342.685" font-family="Helvetica,sans-Serif" font-size="11.00">int4[10]</text>
<polygon fill="none" stroke="black" points="421.5,-312.485 421.5,-334.485 575.5,-334.485 575.5,-312.485 421.5,-312.485"/>
<text text-anchor="start" x="441.5" y="-320.685" font-family="Helvetica,sans-Serif" font-size="11.00">min_pw_age</text>
<polygon fill="none" stroke="black" points="575.5,-312.485 575.5,-334.485 696.5,-334.485 696.5,-312.485 575.5,-312.485"/>
<text text-anchor="start" x="578.5" y="-320.685" font-family="Helvetica,sans-Serif" font-size="11.00">int4[10]</text>
<polygon fill="none" stroke="black" points="421.5,-290.485 421.5,-312.485 575.5,-312.485 575.5,-290.485 421.5,-290.485"/>
<text text-anchor="start" x="441.5" y="-298.685" font-family="Helvetica,sans-Serif" font-size="11.00">min_pw_len</text>
<polygon fill="none" stroke="black" points="575.5,-290.485 575.5,-312.485 696.5,-312.485 696.5,-290.485 575.5,-290.485"/>
<text text-anchor="start" x="578.5" y="-298.685" font-family="Helvetica,sans-Serif" font-size="11.00">int4[10]</text>
<polygon fill="none" stroke="black" points="421.5,-268.485 421.5,-290.485 575.5,-290.485 575.5,-268.485 421.5,-268.485"/>
<text text-anchor="start" x="441.5" y="-276.685" font-family="Helvetica,sans-Serif" font-size="11.00">pw_complex</text>
<polygon fill="none" stroke="black" points="575.5,-268.485 575.5,-290.485 696.5,-290.485 696.5,-268.485 575.5,-268.485"/>
<text text-anchor="start" x="578.5" y="-276.685" font-family="Helvetica,sans-Serif" font-size="11.00">bool[1]</text>
<polygon fill="none" stroke="black" points="421.5,-246.485 421.5,-268.485 575.5,-268.485 575.5,-246.485 421.5,-246.485"/>
<text text-anchor="start" x="441.5" y="-254.685" font-family="Helvetica,sans-Serif" font-size="11.00">pw_encrypt</text>
<polygon fill="none" stroke="black" points="575.5,-246.485 575.5,-268.485 696.5,-268.485 696.5,-246.485 575.5,-246.485"/>
<text text-anchor="start" x="578.5" y="-254.685" font-family="Helvetica,sans-Serif" font-size="11.00">bool[1]</text>
<polygon fill="none" stroke="black" points="421.5,-224.485 421.5,-246.485 575.5,-246.485 575.5,-224.485 421.5,-224.485"/>
<text text-anchor="start" x="441.5" y="-232.685" font-family="Helvetica,sans-Serif" font-size="11.00">lockout_threshold</text>
<polygon fill="none" stroke="black" points="575.5,-224.485 575.5,-246.485 696.5,-246.485 696.5,-224.485 575.5,-224.485"/>
<text text-anchor="start" x="578.5" y="-232.685" font-family="Helvetica,sans-Serif" font-size="11.00">int4[10]</text>
<polygon fill="none" stroke="black" points="421.5,-202.485 421.5,-224.485 575.5,-224.485 575.5,-202.485 421.5,-202.485"/>
<text text-anchor="start" x="441.5" y="-210.685" font-family="Helvetica,sans-Serif" font-size="11.00">lockout_duration</text>
<polygon fill="none" stroke="black" points="575.5,-202.485 575.5,-224.485 696.5,-224.485 696.5,-202.485 575.5,-202.485"/>
<text text-anchor="start" x="578.5" y="-210.685" font-family="Helvetica,sans-Serif" font-size="11.00">int8[19]</text>
<polygon fill="none" stroke="black" points="421.5,-180.485 421.5,-202.485 575.5,-202.485 575.5,-180.485 421.5,-180.485"/>
<text text-anchor="start" x="441.5" y="-188.685" font-family="Helvetica,sans-Serif" font-size="11.00">reset_lockout_counter</text>
<polygon fill="none" stroke="black" points="575.5,-180.485 575.5,-202.485 696.5,-202.485 696.5,-180.485 575.5,-180.485"/>
<text text-anchor="start" x="578.5" y="-188.685" font-family="Helvetica,sans-Serif" font-size="11.00">int4[10]</text>
<polygon fill="none" stroke="black" points="421.5,-158.485 421.5,-180.485 575.5,-180.485 575.5,-158.485 421.5,-158.485"/>
<text text-anchor="start" x="441.5" y="-166.685" font-family="Helvetica,sans-Serif" font-size="11.00">system_type</text>
<polygon fill="none" stroke="black" points="575.5,-158.485 575.5,-180.485 696.5,-180.485 696.5,-158.485 575.5,-158.485"/>
<text text-anchor="start" x="578.5" y="-166.685" font-family="Helvetica,sans-Serif" font-size="11.00">varchar[2147483647]</text>
<polygon fill="#ffffff" stroke="none" points="421.5,-136.485 421.5,-158.485 575.5,-158.485 575.5,-136.485 421.5,-136.485"/>
<polygon fill="none" stroke="black" points="421.5,-136.485 421.5,-158.485 575.5,-158.485 575.5,-136.485 421.5,-136.485"/>
<image xlink:href="../../images/foreignKeys.png" width="11px" height="12px" preserveAspectRatio="xMinYMin meet" x="426.5" y="-153.485"/>
<text text-anchor="start" x="441.5" y="-144.685" font-family="Helvetica,sans-Serif" font-size="11.00">computer_system_id</text>
<polygon fill="none" stroke="black" points="575.5,-136.485 575.5,-158.485 696.5,-158.485 696.5,-136.485 575.5,-136.485"/>
<text text-anchor="start" x="578.5" y="-144.685" font-family="Helvetica,sans-Serif" font-size="11.00">int8[19]</text>
<polygon fill="none" stroke="black" points="421.5,-114.485 421.5,-136.485 575.5,-136.485 575.5,-114.485 421.5,-114.485"/>
<text text-anchor="start" x="441.5" y="-122.685" font-family="Helvetica,sans-Serif" font-size="11.00">kernel_version</text>
<polygon fill="none" stroke="black" points="575.5,-114.485 575.5,-136.485 696.5,-136.485 696.5,-114.485 575.5,-114.485"/>
<text text-anchor="start" x="578.5" y="-122.685" font-family="Helvetica,sans-Serif" font-size="11.00">varchar[2147483647]</text>
<polygon fill="#ffffff" stroke="none" points="421.5,-96.4849 421.5,-114.485 503.5,-114.485 503.5,-96.4849 421.5,-96.4849"/>
<polygon fill="none" stroke="black" points="421.5,-96.4849 421.5,-114.485 503.5,-114.485 503.5,-96.4849 421.5,-96.4849"/>
<text text-anchor="start" x="424.5" y="-102.685" font-family="Helvetica,sans-Serif" font-size="11.00">&lt; 2</text>
<polygon fill="#ffffff" stroke="none" points="503.5,-96.4849 503.5,-114.485 575.5,-114.485 575.5,-96.4849 503.5,-96.4849"/>
<polygon fill="none" stroke="black" points="503.5,-96.4849 503.5,-114.485 575.5,-114.485 575.5,-96.4849 503.5,-96.4849"/>
<text text-anchor="start" x="565.5" y="-102.685" font-family="Helvetica,sans-Serif" font-size="11.00"> &#160;</text>
<polygon fill="#ffffff" stroke="none" points="575.5,-96.4849 575.5,-114.485 696.5,-114.485 696.5,-96.4849 575.5,-96.4849"/>
<polygon fill="none" stroke="black" points="575.5,-96.4849 575.5,-114.485 696.5,-114.485 696.5,-96.4849 575.5,-96.4849"/>
<text text-anchor="start" x="676.5" y="-102.685" font-family="Helvetica,sans-Serif" font-size="11.00">2 &gt;</text>
<polygon fill="none" stroke="black" stroke-width="2" points="420,-95.4849 420,-709.485 697,-709.485 697,-95.4849 420,-95.4849"/>
</a>
</g>
</g>
<!-- event_logs&#45;&gt;operating_systems -->
<g id="edge5" class="edge"><title>event_logs:operating_system_id:w&#45;&gt;operating_systems:id.type:e</title>
<path fill="none" stroke="black" d="M732.679,-590.778C710.793,-608.556 736.657,-675.485 697.5,-675.485"/>
<polygon fill="black" stroke="black" points="738.86,-588.858 747.568,-589.923 742.68,-587.671 746.5,-586.485 746.5,-586.485 746.5,-586.485 742.68,-587.671 745.432,-583.047 738.86,-588.858 738.86,-588.858"/>
<ellipse fill="none" stroke="black" cx="735.804" cy="-589.807" rx="3.20001" ry="3.20001"/>
</g>
<!-- operating_systems&#45;&gt;hosts -->
<g id="edge23" class="edge"><title>operating_systems:host_id:w&#45;&gt;hosts:id:e</title>
<path fill="none" stroke="black" d="M407.637,-441.017C349.181,-520.052 451.266,-1194.48 371.5,-1194.48"/>
<polygon fill="black" stroke="black" points="413.596,-437.527 422.319,-436.592 417.048,-435.506 420.5,-433.485 420.5,-433.485 420.5,-433.485 417.048,-435.506 418.681,-430.378 413.596,-437.527 413.596,-437.527"/>
<ellipse fill="none" stroke="black" cx="410.835" cy="-439.144" rx="3.20001" ry="3.20001"/>
</g>
<!-- computer_systems -->
<g id="node13" class="node"><title>computer_systems</title>
<g id="a_node13"><a xlink:href="../../tables/computer_systems.html" xlink:title="computer_systems" target="_top">
<polygon fill="#ffffff" stroke="none" points="211,-365.485 211,-489.485 366,-489.485 366,-365.485 211,-365.485"/>
<polygon fill="#f5f5f5" stroke="none" points="211.5,-467.485 211.5,-489.485 366.5,-489.485 366.5,-467.485 211.5,-467.485"/>
<polygon fill="none" stroke="black" points="211.5,-467.485 211.5,-489.485 366.5,-489.485 366.5,-467.485 211.5,-467.485"/>
<text text-anchor="start" x="216.5" y="-476.685" font-family="Helvetica,sans-Serif" font-weight="bold" font-size="11.00">computer_systems</text>
<text text-anchor="start" x="327.5" y="-475.685" font-family="Helvetica,sans-Serif" font-size="11.00">[table]</text>
<polygon fill="none" stroke="black" points="211.5,-445.485 211.5,-467.485 366.5,-467.485 366.5,-445.485 211.5,-445.485"/>
<image xlink:href="../../images/primaryKeys.png" width="11px" height="12px" preserveAspectRatio="xMinYMin meet" x="216.5" y="-462.485"/>
<text text-anchor="start" x="234.5" y="-453.685" font-family="Helvetica,sans-Serif" font-size="11.00">id</text>
<polygon fill="#ffffff" stroke="none" points="211.5,-423.485 211.5,-445.485 366.5,-445.485 366.5,-423.485 211.5,-423.485"/>
<polygon fill="none" stroke="black" points="211.5,-423.485 211.5,-445.485 366.5,-445.485 366.5,-423.485 211.5,-423.485"/>
<text text-anchor="start" x="234.5" y="-431.685" font-family="Helvetica,sans-Serif" font-size="11.00">managed_entity_type</text>
<polygon fill="#ffffff" stroke="none" points="211.5,-401.485 211.5,-423.485 366.5,-423.485 366.5,-401.485 211.5,-401.485"/>
<polygon fill="none" stroke="black" points="211.5,-401.485 211.5,-423.485 366.5,-423.485 366.5,-401.485 211.5,-401.485"/>
<text text-anchor="start" x="234.5" y="-409.685" font-family="Helvetica,sans-Serif" font-size="11.00">managed_entity_id</text>
<polygon fill="none" stroke="black" points="211.5,-383.485 211.5,-401.485 366.5,-401.485 366.5,-383.485 211.5,-383.485"/>
<text text-anchor="start" x="214.5" y="-389.685" font-family="Helvetica,sans-Serif" font-size="11.00">...</text>
<polygon fill="#ffffff" stroke="none" points="211.5,-365.485 211.5,-383.485 277.5,-383.485 277.5,-365.485 211.5,-365.485"/>
<polygon fill="none" stroke="black" points="211.5,-365.485 211.5,-383.485 277.5,-383.485 277.5,-365.485 211.5,-365.485"/>
<text text-anchor="start" x="214.5" y="-371.685" font-family="Helvetica,sans-Serif" font-size="11.00"> &#160;</text>
<polygon fill="#ffffff" stroke="none" points="277.5,-365.485 277.5,-383.485 316.5,-383.485 316.5,-365.485 277.5,-365.485"/>
<polygon fill="none" stroke="black" points="277.5,-365.485 277.5,-383.485 316.5,-383.485 316.5,-365.485 277.5,-365.485"/>
<text text-anchor="start" x="306.5" y="-371.685" font-family="Helvetica,sans-Serif" font-size="11.00"> &#160;</text>
<polygon fill="#ffffff" stroke="none" points="316.5,-365.485 316.5,-383.485 366.5,-383.485 366.5,-365.485 316.5,-365.485"/>
<polygon fill="none" stroke="black" points="316.5,-365.485 316.5,-383.485 366.5,-383.485 366.5,-365.485 316.5,-365.485"/>
<text text-anchor="start" x="346.5" y="-371.685" font-family="Helvetica,sans-Serif" font-size="11.00">2 &gt;</text>
</a>
</g>
</g>
<!-- operating_systems&#45;&gt;computer_systems -->
<g id="edge22" class="edge"><title>operating_systems:computer_system_id:w&#45;&gt;computer_systems:id:e</title>
<path fill="none" stroke="black" d="M406.128,-148.795C297.822,-170.574 501.532,-456.485 367.5,-456.485"/>
<polygon fill="black" stroke="black" points="412.533,-148.211 420.827,-151.07 416.517,-147.848 420.5,-147.485 420.5,-147.485 420.5,-147.485 416.517,-147.848 420.173,-143.9 412.533,-148.211 412.533,-148.211"/>
<ellipse fill="none" stroke="black" cx="409.346" cy="-148.502" rx="3.2" ry="3.2"/>
</g>
<!-- event_streams -->
<g id="node8" class="node"><title>event_streams</title>
<g id="a_node8"><a xlink:href="../../tables/event_streams.html" xlink:title="event_streams" target="_top">
<polygon fill="#ffffff" stroke="none" points="492.5,-1498.48 492.5,-1556.48 624.5,-1556.48 624.5,-1498.48 492.5,-1498.48"/>
<polygon fill="#f5f5f5" stroke="none" points="492.5,-1534.48 492.5,-1556.48 624.5,-1556.48 624.5,-1534.48 492.5,-1534.48"/>
<polygon fill="none" stroke="black" points="492.5,-1534.48 492.5,-1556.48 624.5,-1556.48 624.5,-1534.48 492.5,-1534.48"/>
<text text-anchor="start" x="497.5" y="-1543.68" font-family="Helvetica,sans-Serif" font-weight="bold" font-size="11.00">event_streams</text>
<text text-anchor="start" x="585.5" y="-1542.68" font-family="Helvetica,sans-Serif" font-size="11.00">[table]</text>
<polygon fill="none" stroke="black" points="492.5,-1516.48 492.5,-1534.48 624.5,-1534.48 624.5,-1516.48 492.5,-1516.48"/>
<text text-anchor="start" x="495.5" y="-1522.68" font-family="Helvetica,sans-Serif" font-size="11.00">...</text>
<polygon fill="#ffffff" stroke="none" points="492.5,-1498.48 492.5,-1516.48 560.5,-1516.48 560.5,-1498.48 492.5,-1498.48"/>
<polygon fill="none" stroke="black" points="492.5,-1498.48 492.5,-1516.48 560.5,-1516.48 560.5,-1498.48 492.5,-1498.48"/>
<text text-anchor="start" x="495.5" y="-1504.68" font-family="Helvetica,sans-Serif" font-size="11.00">&lt; 11</text>
<polygon fill="#ffffff" stroke="none" points="560.5,-1498.48 560.5,-1516.48 592.5,-1516.48 592.5,-1498.48 560.5,-1498.48"/>
<polygon fill="none" stroke="black" points="560.5,-1498.48 560.5,-1516.48 592.5,-1516.48 592.5,-1498.48 560.5,-1498.48"/>
<text text-anchor="start" x="582.5" y="-1504.68" font-family="Helvetica,sans-Serif" font-size="11.00"> &#160;</text>
<polygon fill="#ffffff" stroke="none" points="592.5,-1498.48 592.5,-1516.48 624.5,-1516.48 624.5,-1498.48 592.5,-1498.48"/>
<polygon fill="none" stroke="black" points="592.5,-1498.48 592.5,-1516.48 624.5,-1516.48 624.5,-1498.48 592.5,-1498.48"/>
<text text-anchor="start" x="614.5" y="-1504.68" font-family="Helvetica,sans-Serif" font-size="11.00"> &#160;</text>
</a>
</g>
</g>
<!-- event_streams&#45;&gt;hosts -->
<g id="edge8" class="edge"><title>event_streams:elipses:w&#45;&gt;hosts:id:e</title>
<path fill="none" stroke="black" d="M476.893,-1525.15C447.319,-1523.6 431.303,-1515.94 411,-1488.48 371.804,-1435.48 437.42,-1194.48 371.5,-1194.48"/>
<polygon fill="black" stroke="black" points="483.502,-1525.3 491.418,-1529.08 487.501,-1525.39 491.5,-1525.48 491.5,-1525.48 491.5,-1525.48 487.501,-1525.39 491.582,-1521.89 483.502,-1525.3 483.502,-1525.3"/>
<ellipse fill="none" stroke="black" cx="480.303" cy="-1525.23" rx="3.2" ry="3.2"/>
</g>
<!-- event_streams&#45;&gt;availability_zones -->
<g id="edge6" class="edge"><title>event_streams:elipses:w&#45;&gt;availability_zones:elipses:e</title>
<path fill="none" stroke="black" d="M476.995,-1525.07C447.828,-1523.2 433.221,-1514.41 411,-1488.48 376.119,-1447.79 408.384,-1416.64 378,-1372.48 321.668,-1290.62 249.424,-1324.12 199,-1238.48 165.768,-1182.05 224.495,-946.485 159,-946.485"/>
<polygon fill="black" stroke="black" points="483.503,-1525.26 491.398,-1529.08 487.502,-1525.37 491.5,-1525.48 491.5,-1525.48 491.5,-1525.48 487.502,-1525.37 491.602,-1521.89 483.503,-1525.26 483.503,-1525.26"/>
<ellipse fill="none" stroke="black" cx="480.305" cy="-1525.17" rx="3.2" ry="3.2"/>
</g>
<!-- event_streams&#45;&gt;ems_clusters -->
<g id="edge7" class="edge"><title>event_streams:elipses:w&#45;&gt;ems_clusters:elipses:e</title>
<path fill="none" stroke="black" d="M476.964,-1525.46C354.357,-1525.01 310.714,-1517.81 199,-1453.48 169.037,-1436.23 179.575,-1397.48 145,-1397.48"/>
<polygon fill="black" stroke="black" points="483.5,-1525.47 491.494,-1529.08 487.5,-1525.48 491.5,-1525.48 491.5,-1525.48 491.5,-1525.48 487.5,-1525.48 491.506,-1521.88 483.5,-1525.47 483.5,-1525.47"/>
<ellipse fill="none" stroke="black" cx="480.3" cy="-1525.47" rx="3.2" ry="3.2"/>
</g>
<!-- event_streams&#45;&gt;physical_servers -->
<g id="edge9" class="edge"><title>event_streams:elipses:w&#45;&gt;physical_servers:elipses:e</title>
<path fill="none" stroke="black" d="M476.918,-1524.7C449.237,-1521.43 438.753,-1508.11 411,-1488.48 393.807,-1476.33 395.173,-1466.67 378,-1454.48 306.49,-1403.73 252.377,-1441.06 199,-1371.48 164.265,-1326.21 212.066,-1118.48 155,-1118.48"/>
<polygon fill="black" stroke="black" points="483.512,-1525.05 491.306,-1529.08 487.506,-1525.27 491.5,-1525.48 491.5,-1525.48 491.5,-1525.48 487.506,-1525.27 491.694,-1521.89 483.512,-1525.05 483.512,-1525.05"/>
<ellipse fill="none" stroke="black" cx="480.316" cy="-1524.88" rx="3.2" ry="3.2"/>
</g>
<!-- guest_applications -->
<g id="node11" class="node"><title>guest_applications</title>
<g id="a_node11"><a xlink:href="../../tables/guest_applications.html" xlink:title="guest_applications" target="_top">
<polygon fill="#ffffff" stroke="none" points="481.5,-970.485 481.5,-1028.48 635.5,-1028.48 635.5,-970.485 481.5,-970.485"/>
<polygon fill="#f5f5f5" stroke="none" points="481.5,-1006.48 481.5,-1028.48 635.5,-1028.48 635.5,-1006.48 481.5,-1006.48"/>
<polygon fill="none" stroke="black" points="481.5,-1006.48 481.5,-1028.48 635.5,-1028.48 635.5,-1006.48 481.5,-1006.48"/>
<text text-anchor="start" x="486.5" y="-1015.68" font-family="Helvetica,sans-Serif" font-weight="bold" font-size="11.00">guest_applications</text>
<text text-anchor="start" x="596.5" y="-1014.68" font-family="Helvetica,sans-Serif" font-size="11.00">[table]</text>
<polygon fill="none" stroke="black" points="481.5,-988.485 481.5,-1006.48 635.5,-1006.48 635.5,-988.485 481.5,-988.485"/>
<text text-anchor="start" x="484.5" y="-994.685" font-family="Helvetica,sans-Serif" font-size="11.00">...</text>
<polygon fill="#ffffff" stroke="none" points="481.5,-970.485 481.5,-988.485 556.5,-988.485 556.5,-970.485 481.5,-970.485"/>
<polygon fill="none" stroke="black" points="481.5,-970.485 481.5,-988.485 556.5,-988.485 556.5,-970.485 481.5,-970.485"/>
<text text-anchor="start" x="484.5" y="-976.685" font-family="Helvetica,sans-Serif" font-size="11.00">&lt; 2</text>
<polygon fill="#ffffff" stroke="none" points="556.5,-970.485 556.5,-988.485 595.5,-988.485 595.5,-970.485 556.5,-970.485"/>
<polygon fill="none" stroke="black" points="556.5,-970.485 556.5,-988.485 595.5,-988.485 595.5,-970.485 556.5,-970.485"/>
<text text-anchor="start" x="585.5" y="-976.685" font-family="Helvetica,sans-Serif" font-size="11.00"> &#160;</text>
<polygon fill="#ffffff" stroke="none" points="595.5,-970.485 595.5,-988.485 635.5,-988.485 635.5,-970.485 595.5,-970.485"/>
<polygon fill="none" stroke="black" points="595.5,-970.485 595.5,-988.485 635.5,-988.485 635.5,-970.485 595.5,-970.485"/>
<text text-anchor="start" x="625.5" y="-976.685" font-family="Helvetica,sans-Serif" font-size="11.00"> &#160;</text>
</a>
</g>
</g>
<!-- guest_applications&#45;&gt;hosts -->
<g id="edge10" class="edge"><title>guest_applications:elipses:w&#45;&gt;hosts:id:e</title>
<path fill="none" stroke="black" d="M465.917,-998.355C440.664,-1001.7 429.314,-1014.8 411,-1039.48 368.638,-1096.58 442.591,-1194.48 371.5,-1194.48"/>
<polygon fill="black" stroke="black" points="472.514,-997.961 480.714,-1001.08 476.507,-997.723 480.5,-997.485 480.5,-997.485 480.5,-997.485 476.507,-997.723 480.286,-993.891 472.514,-997.961 472.514,-997.961"/>
<ellipse fill="none" stroke="black" cx="469.32" cy="-998.152" rx="3.2" ry="3.2"/>
</g>
<!-- hardwares -->
<g id="node12" class="node"><title>hardwares</title>
<g id="a_node12"><a xlink:href="../../tables/hardwares.html" xlink:title="hardwares" target="_top">
<polygon fill="#ffffff" stroke="none" points="764,-864.485 764,-922.485 873,-922.485 873,-864.485 764,-864.485"/>
<polygon fill="#f5f5f5" stroke="none" points="764.5,-900.485 764.5,-922.485 873.5,-922.485 873.5,-900.485 764.5,-900.485"/>
<polygon fill="none" stroke="black" points="764.5,-900.485 764.5,-922.485 873.5,-922.485 873.5,-900.485 764.5,-900.485"/>
<text text-anchor="start" x="769.5" y="-909.685" font-family="Helvetica,sans-Serif" font-weight="bold" font-size="11.00">hardwares</text>
<text text-anchor="start" x="834.5" y="-908.685" font-family="Helvetica,sans-Serif" font-size="11.00">[table]</text>
<polygon fill="none" stroke="black" points="764.5,-882.485 764.5,-900.485 873.5,-900.485 873.5,-882.485 764.5,-882.485"/>
<text text-anchor="start" x="767.5" y="-888.685" font-family="Helvetica,sans-Serif" font-size="11.00">...</text>
<polygon fill="#ffffff" stroke="none" points="764.5,-864.485 764.5,-882.485 812.5,-882.485 812.5,-864.485 764.5,-864.485"/>
<polygon fill="none" stroke="black" points="764.5,-864.485 764.5,-882.485 812.5,-882.485 812.5,-864.485 764.5,-864.485"/>
<text text-anchor="start" x="767.5" y="-870.685" font-family="Helvetica,sans-Serif" font-size="11.00">&lt; 4</text>
<polygon fill="#ffffff" stroke="none" points="812.5,-864.485 812.5,-882.485 837.5,-882.485 837.5,-864.485 812.5,-864.485"/>
<polygon fill="none" stroke="black" points="812.5,-864.485 812.5,-882.485 837.5,-882.485 837.5,-864.485 812.5,-864.485"/>
<text text-anchor="start" x="827.5" y="-870.685" font-family="Helvetica,sans-Serif" font-size="11.00"> &#160;</text>
<polygon fill="#ffffff" stroke="none" points="837.5,-864.485 837.5,-882.485 873.5,-882.485 873.5,-864.485 837.5,-864.485"/>
<polygon fill="none" stroke="black" points="837.5,-864.485 837.5,-882.485 873.5,-882.485 873.5,-864.485 837.5,-864.485"/>
<text text-anchor="start" x="853.5" y="-870.685" font-family="Helvetica,sans-Serif" font-size="11.00">5 &gt;</text>
</a>
</g>
</g>
<!-- hardwares&#45;&gt;hosts -->
<g id="edge12" class="edge"><title>hardwares:elipses:w&#45;&gt;hosts:id:e</title>
<path fill="none" stroke="black" d="M748.786,-892.799C733.859,-895.729 726.306,-902.826 706,-906.485 641.151,-918.169 458.757,-891.084 411,-936.485 368.963,-976.448 429.501,-1194.48 371.5,-1194.48"/>
<polygon fill="black" stroke="black" points="755.532,-892.197 763.82,-895.071 759.516,-891.841 763.5,-891.485 763.5,-891.485 763.5,-891.485 759.516,-891.841 763.18,-887.899 755.532,-892.197 755.532,-892.197"/>
<ellipse fill="none" stroke="black" cx="752.344" cy="-892.481" rx="3.2" ry="3.2"/>
</g>
<!-- hardwares&#45;&gt;computer_systems -->
<g id="edge11" class="edge"><title>hardwares:elipses:w&#45;&gt;computer_systems:id:e</title>
<path fill="none" stroke="black" d="M749.216,-889.514C705.005,-875.146 756.442,-786.031 706,-748.485 653.194,-709.178 459.181,-766.342 411,-721.485 367.322,-680.821 427.177,-456.485 367.5,-456.485"/>
<polygon fill="black" stroke="black" points="755.575,-890.391 763.008,-895.051 759.538,-890.938 763.5,-891.485 763.5,-891.485 763.5,-891.485 759.538,-890.938 763.992,-887.919 755.575,-890.391 755.575,-890.391"/>
<ellipse fill="none" stroke="black" cx="752.405" cy="-889.954" rx="3.2" ry="3.2"/>
</g>
<!-- switches -->
<g id="node14" class="node"><title>switches</title>
<g id="a_node14"><a xlink:href="../../tables/switches.html" xlink:title="switches" target="_top">
<polygon fill="#ffffff" stroke="none" points="509.5,-1207.48 509.5,-1265.48 607.5,-1265.48 607.5,-1207.48 509.5,-1207.48"/>
<polygon fill="#f5f5f5" stroke="none" points="509.5,-1243.48 509.5,-1265.48 607.5,-1265.48 607.5,-1243.48 509.5,-1243.48"/>
<polygon fill="none" stroke="black" points="509.5,-1243.48 509.5,-1265.48 607.5,-1265.48 607.5,-1243.48 509.5,-1243.48"/>
<text text-anchor="start" x="514.5" y="-1252.68" font-family="Helvetica,sans-Serif" font-weight="bold" font-size="11.00">switches</text>
<text text-anchor="start" x="568.5" y="-1251.68" font-family="Helvetica,sans-Serif" font-size="11.00">[table]</text>
<polygon fill="none" stroke="black" points="509.5,-1225.48 509.5,-1243.48 607.5,-1243.48 607.5,-1225.48 509.5,-1225.48"/>
<text text-anchor="start" x="512.5" y="-1231.68" font-family="Helvetica,sans-Serif" font-size="11.00">...</text>
<polygon fill="#ffffff" stroke="none" points="509.5,-1207.48 509.5,-1225.48 551.5,-1225.48 551.5,-1207.48 509.5,-1207.48"/>
<polygon fill="none" stroke="black" points="509.5,-1207.48 509.5,-1225.48 551.5,-1225.48 551.5,-1207.48 509.5,-1207.48"/>
<text text-anchor="start" x="512.5" y="-1213.68" font-family="Helvetica,sans-Serif" font-size="11.00">&lt; 1</text>
<polygon fill="#ffffff" stroke="none" points="551.5,-1207.48 551.5,-1225.48 574.5,-1225.48 574.5,-1207.48 551.5,-1207.48"/>
<polygon fill="none" stroke="black" points="551.5,-1207.48 551.5,-1225.48 574.5,-1225.48 574.5,-1207.48 551.5,-1207.48"/>
<text text-anchor="start" x="564.5" y="-1213.68" font-family="Helvetica,sans-Serif" font-size="11.00"> &#160;</text>
<polygon fill="#ffffff" stroke="none" points="574.5,-1207.48 574.5,-1225.48 607.5,-1225.48 607.5,-1207.48 574.5,-1207.48"/>
<polygon fill="none" stroke="black" points="574.5,-1207.48 574.5,-1225.48 607.5,-1225.48 607.5,-1207.48 574.5,-1207.48"/>
<text text-anchor="start" x="587.5" y="-1213.68" font-family="Helvetica,sans-Serif" font-size="11.00">5 &gt;</text>
</a>
</g>
</g>
<!-- hardwares&#45;&gt;switches -->
<g id="edge13" class="edge"><title>hardwares:elipses:w&#45;&gt;switches:elipses:e</title>
<path fill="none" stroke="black" d="M748.998,-892.339C637.671,-906.575 791.438,-1095.41 706,-1197.48 676.251,-1233.03 654.849,-1234.48 608.5,-1234.48"/>
<polygon fill="black" stroke="black" points="755.514,-891.955 763.712,-895.079 759.507,-891.72 763.5,-891.485 763.5,-891.485 763.5,-891.485 759.507,-891.72 763.288,-887.891 755.514,-891.955 755.514,-891.955"/>
<ellipse fill="none" stroke="black" cx="752.319" cy="-892.143" rx="3.2" ry="3.2"/>
</g>
<!-- switches&#45;&gt;hosts -->
<g id="edge28" class="edge"><title>switches:elipses:w&#45;&gt;hosts:id:e</title>
<path fill="none" stroke="black" d="M493.907,-1233.72C443.047,-1228.19 429.728,-1194.48 371.5,-1194.48"/>
<polygon fill="black" stroke="black" points="500.511,-1234.07 508.312,-1238.08 504.505,-1234.28 508.5,-1234.48 508.5,-1234.48 508.5,-1234.48 504.505,-1234.28 508.688,-1230.89 500.511,-1234.07 500.511,-1234.07"/>
<ellipse fill="none" stroke="black" cx="497.315" cy="-1233.9" rx="3.2" ry="3.2"/>
</g>
<!-- host_aggregate_hosts -->
<g id="node15" class="node"><title>host_aggregate_hosts</title>
<g id="a_node15"><a xlink:href="../../tables/host_aggregate_hosts.html" xlink:title="host_aggregate_hosts" target="_top">
<polygon fill="#ffffff" stroke="none" points="474.5,-837.485 474.5,-895.485 642.5,-895.485 642.5,-837.485 474.5,-837.485"/>
<polygon fill="#f5f5f5" stroke="none" points="474.5,-873.485 474.5,-895.485 642.5,-895.485 642.5,-873.485 474.5,-873.485"/>
<polygon fill="none" stroke="black" points="474.5,-873.485 474.5,-895.485 642.5,-895.485 642.5,-873.485 474.5,-873.485"/>
<text text-anchor="start" x="479.5" y="-882.685" font-family="Helvetica,sans-Serif" font-weight="bold" font-size="11.00">host_aggregate_hosts</text>
<text text-anchor="start" x="603.5" y="-881.685" font-family="Helvetica,sans-Serif" font-size="11.00">[table]</text>
<polygon fill="none" stroke="black" points="474.5,-855.485 474.5,-873.485 642.5,-873.485 642.5,-855.485 474.5,-855.485"/>
<text text-anchor="start" x="477.5" y="-861.685" font-family="Helvetica,sans-Serif" font-size="11.00">...</text>
<polygon fill="#ffffff" stroke="none" points="474.5,-837.485 474.5,-855.485 556.5,-855.485 556.5,-837.485 474.5,-837.485"/>
<polygon fill="none" stroke="black" points="474.5,-837.485 474.5,-855.485 556.5,-855.485 556.5,-837.485 474.5,-837.485"/>
<text text-anchor="start" x="477.5" y="-843.685" font-family="Helvetica,sans-Serif" font-size="11.00">&lt; 2</text>
<polygon fill="#ffffff" stroke="none" points="556.5,-837.485 556.5,-855.485 599.5,-855.485 599.5,-837.485 556.5,-837.485"/>
<polygon fill="none" stroke="black" points="556.5,-837.485 556.5,-855.485 599.5,-855.485 599.5,-837.485 556.5,-837.485"/>
<text text-anchor="start" x="589.5" y="-843.685" font-family="Helvetica,sans-Serif" font-size="11.00"> &#160;</text>
<polygon fill="#ffffff" stroke="none" points="599.5,-837.485 599.5,-855.485 642.5,-855.485 642.5,-837.485 599.5,-837.485"/>
<polygon fill="none" stroke="black" points="599.5,-837.485 599.5,-855.485 642.5,-855.485 642.5,-837.485 599.5,-837.485"/>
<text text-anchor="start" x="632.5" y="-843.685" font-family="Helvetica,sans-Serif" font-size="11.00"> &#160;</text>
</a>
</g>
</g>
<!-- host_aggregate_hosts&#45;&gt;hosts -->
<g id="edge14" class="edge"><title>host_aggregate_hosts:elipses:w&#45;&gt;hosts:id:e</title>
<path fill="none" stroke="black" d="M459.068,-865.626C435.784,-869.718 425.904,-884.747 411,-909.485 378.004,-964.252 435.439,-1194.48 371.5,-1194.48"/>
<polygon fill="black" stroke="black" points="465.525,-865.115 473.784,-868.074 469.512,-864.8 473.5,-864.485 473.5,-864.485 473.5,-864.485 469.512,-864.8 473.216,-860.896 465.525,-865.115 465.525,-865.115"/>
<ellipse fill="none" stroke="black" cx="462.335" cy="-865.368" rx="3.2" ry="3.2"/>
</g>
<!-- host_service_groups&#45;&gt;hosts -->
<g id="edge15" class="edge"><title>host_service_groups:elipses:w&#45;&gt;hosts:id:e</title>
<path fill="none" stroke="black" d="M462.856,-1366.5C439.197,-1362.94 428.835,-1349.73 411,-1326.48 373.72,-1277.9 432.737,-1194.48 371.5,-1194.48"/>
<polygon fill="black" stroke="black" points="469.518,-1366.95 477.258,-1371.08 473.509,-1367.22 477.5,-1367.48 477.5,-1367.48 477.5,-1367.48 473.509,-1367.22 477.742,-1363.89 469.518,-1366.95 469.518,-1366.95"/>
<ellipse fill="none" stroke="black" cx="466.325" cy="-1366.73" rx="3.2" ry="3.2"/>
</g>
<!-- host_storages -->
<g id="node17" class="node"><title>host_storages</title>
<g id="a_node17"><a xlink:href="../../tables/host_storages.html" xlink:title="host_storages" target="_top">
<polygon fill="#ffffff" stroke="none" points="496,-1419.48 496,-1477.48 621,-1477.48 621,-1419.48 496,-1419.48"/>
<polygon fill="#f5f5f5" stroke="none" points="496.5,-1455.48 496.5,-1477.48 621.5,-1477.48 621.5,-1455.48 496.5,-1455.48"/>
<polygon fill="none" stroke="black" points="496.5,-1455.48 496.5,-1477.48 621.5,-1477.48 621.5,-1455.48 496.5,-1455.48"/>
<text text-anchor="start" x="501.5" y="-1464.68" font-family="Helvetica,sans-Serif" font-weight="bold" font-size="11.00">host_storages</text>
<text text-anchor="start" x="582.5" y="-1463.68" font-family="Helvetica,sans-Serif" font-size="11.00">[table]</text>
<polygon fill="none" stroke="black" points="496.5,-1437.48 496.5,-1455.48 621.5,-1455.48 621.5,-1437.48 496.5,-1437.48"/>
<text text-anchor="start" x="499.5" y="-1443.68" font-family="Helvetica,sans-Serif" font-size="11.00">...</text>
<polygon fill="#ffffff" stroke="none" points="496.5,-1419.48 496.5,-1437.48 557.5,-1437.48 557.5,-1419.48 496.5,-1419.48"/>
<polygon fill="none" stroke="black" points="496.5,-1419.48 496.5,-1437.48 557.5,-1437.48 557.5,-1419.48 496.5,-1419.48"/>
<text text-anchor="start" x="499.5" y="-1425.68" font-family="Helvetica,sans-Serif" font-size="11.00">&lt; 2</text>
<polygon fill="#ffffff" stroke="none" points="557.5,-1419.48 557.5,-1437.48 589.5,-1437.48 589.5,-1419.48 557.5,-1419.48"/>
<polygon fill="none" stroke="black" points="557.5,-1419.48 557.5,-1437.48 589.5,-1437.48 589.5,-1419.48 557.5,-1419.48"/>
<text text-anchor="start" x="579.5" y="-1425.68" font-family="Helvetica,sans-Serif" font-size="11.00"> &#160;</text>
<polygon fill="#ffffff" stroke="none" points="589.5,-1419.48 589.5,-1437.48 621.5,-1437.48 621.5,-1419.48 589.5,-1419.48"/>
<polygon fill="none" stroke="black" points="589.5,-1419.48 589.5,-1437.48 621.5,-1437.48 621.5,-1419.48 589.5,-1419.48"/>
<text text-anchor="start" x="611.5" y="-1425.68" font-family="Helvetica,sans-Serif" font-size="11.00"> &#160;</text>
</a>
</g>
</g>
<!-- host_storages&#45;&gt;hosts -->
<g id="edge16" class="edge"><title>host_storages:elipses:w&#45;&gt;hosts:id:e</title>
<path fill="none" stroke="black" d="M480.724,-1446.19C449.726,-1444.78 433.174,-1437.48 411,-1409.48 380.838,-1371.41 420.077,-1194.48 371.5,-1194.48"/>
<polygon fill="black" stroke="black" points="487.502,-1446.33 495.429,-1450.08 491.501,-1446.41 495.5,-1446.48 495.5,-1446.48 495.5,-1446.48 491.501,-1446.41 495.571,-1442.89 487.502,-1446.33 487.502,-1446.33"/>
<ellipse fill="none" stroke="black" cx="484.302" cy="-1446.26" rx="3.2" ry="3.2"/>
</g>
<!-- host_switches -->
<g id="node18" class="node"><title>host_switches</title>
<g id="a_node18"><a xlink:href="../../tables/host_switches.html" xlink:title="host_switches" target="_top">
<polygon fill="#ffffff" stroke="none" points="755,-1208.48 755,-1266.48 882,-1266.48 882,-1208.48 755,-1208.48"/>
<polygon fill="#f5f5f5" stroke="none" points="755.5,-1244.48 755.5,-1266.48 882.5,-1266.48 882.5,-1244.48 755.5,-1244.48"/>
<polygon fill="none" stroke="black" points="755.5,-1244.48 755.5,-1266.48 882.5,-1266.48 882.5,-1244.48 755.5,-1244.48"/>
<text text-anchor="start" x="760.5" y="-1253.68" font-family="Helvetica,sans-Serif" font-weight="bold" font-size="11.00">host_switches</text>
<text text-anchor="start" x="843.5" y="-1252.68" font-family="Helvetica,sans-Serif" font-size="11.00">[table]</text>
<polygon fill="none" stroke="black" points="755.5,-1226.48 755.5,-1244.48 882.5,-1244.48 882.5,-1226.48 755.5,-1226.48"/>
<text text-anchor="start" x="758.5" y="-1232.68" font-family="Helvetica,sans-Serif" font-size="11.00">...</text>
<polygon fill="#ffffff" stroke="none" points="755.5,-1208.48 755.5,-1226.48 817.5,-1226.48 817.5,-1208.48 755.5,-1208.48"/>
<polygon fill="none" stroke="black" points="755.5,-1208.48 755.5,-1226.48 817.5,-1226.48 817.5,-1208.48 755.5,-1208.48"/>
<text text-anchor="start" x="758.5" y="-1214.68" font-family="Helvetica,sans-Serif" font-size="11.00">&lt; 2</text>
<polygon fill="#ffffff" stroke="none" points="817.5,-1208.48 817.5,-1226.48 849.5,-1226.48 849.5,-1208.48 817.5,-1208.48"/>
<polygon fill="none" stroke="black" points="817.5,-1208.48 817.5,-1226.48 849.5,-1226.48 849.5,-1208.48 817.5,-1208.48"/>
<text text-anchor="start" x="839.5" y="-1214.68" font-family="Helvetica,sans-Serif" font-size="11.00"> &#160;</text>
<polygon fill="#ffffff" stroke="none" points="849.5,-1208.48 849.5,-1226.48 882.5,-1226.48 882.5,-1208.48 849.5,-1208.48"/>
<polygon fill="none" stroke="black" points="849.5,-1208.48 849.5,-1226.48 882.5,-1226.48 882.5,-1208.48 849.5,-1208.48"/>
<text text-anchor="start" x="872.5" y="-1214.68" font-family="Helvetica,sans-Serif" font-size="11.00"> &#160;</text>
</a>
</g>
</g>
<!-- host_switches&#45;&gt;hosts -->
<g id="edge17" class="edge"><title>host_switches:elipses:w&#45;&gt;hosts:id:e</title>
<path fill="none" stroke="black" d="M740.22,-1239.42C727.434,-1248.14 726.708,-1268.9 706,-1276.48 644.439,-1299.02 466.509,-1311.36 411,-1276.48 376.747,-1254.96 411.952,-1194.48 371.5,-1194.48"/>
<polygon fill="black" stroke="black" points="746.788,-1237.61 755.457,-1238.96 750.644,-1236.55 754.5,-1235.48 754.5,-1235.48 754.5,-1235.48 750.644,-1236.55 753.543,-1232.01 746.788,-1237.61 746.788,-1237.61"/>
<ellipse fill="none" stroke="black" cx="743.703" cy="-1238.46" rx="3.2" ry="3.2"/>
</g>
<!-- host_switches&#45;&gt;switches -->
<g id="edge18" class="edge"><title>host_switches:elipses:w&#45;&gt;switches:elipses:e</title>
<path fill="none" stroke="black" d="M739.797,-1235.47C686.7,-1235.33 668.194,-1234.48 608.5,-1234.48"/>
<polygon fill="black" stroke="black" points="746.5,-1235.47 754.496,-1239.08 750.5,-1235.48 754.5,-1235.48 754.5,-1235.48 754.5,-1235.48 750.5,-1235.48 754.504,-1231.88 746.5,-1235.47 746.5,-1235.47"/>
<ellipse fill="none" stroke="black" cx="743.3" cy="-1235.47" rx="3.2" ry="3.2"/>
</g>
<!-- os_processes -->
<g id="node19" class="node"><title>os_processes</title>
<g id="a_node19"><a xlink:href="../../tables/os_processes.html" xlink:title="os_processes" target="_top">
<polygon fill="#ffffff" stroke="none" points="747,-684.485 747,-786.485 890,-786.485 890,-684.485 747,-684.485"/>
<polygon fill="#f5f5f5" stroke="none" points="747.5,-764.485 747.5,-786.485 890.5,-786.485 890.5,-764.485 747.5,-764.485"/>
<polygon fill="none" stroke="black" points="747.5,-764.485 747.5,-786.485 890.5,-786.485 890.5,-764.485 747.5,-764.485"/>
<text text-anchor="start" x="752.5" y="-773.685" font-family="Helvetica,sans-Serif" font-weight="bold" font-size="11.00">os_processes</text>
<text text-anchor="start" x="851.5" y="-772.685" font-family="Helvetica,sans-Serif" font-size="11.00">[table]</text>
<polygon fill="none" stroke="black" points="747.5,-742.485 747.5,-764.485 890.5,-764.485 890.5,-742.485 747.5,-742.485"/>
<image xlink:href="../../images/primaryKeys.png" width="11px" height="12px" preserveAspectRatio="xMinYMin meet" x="752.5" y="-759.485"/>
<text text-anchor="start" x="767.5" y="-750.685" font-family="Helvetica,sans-Serif" font-size="11.00">id</text>
<polygon fill="#ffffff" stroke="none" points="747.5,-720.485 747.5,-742.485 890.5,-742.485 890.5,-720.485 747.5,-720.485"/>
<polygon fill="none" stroke="black" points="747.5,-720.485 747.5,-742.485 890.5,-742.485 890.5,-720.485 747.5,-720.485"/>
<image xlink:href="../../images/foreignKeys.png" width="11px" height="12px" preserveAspectRatio="xMinYMin meet" x="752.5" y="-737.485"/>
<text text-anchor="start" x="767.5" y="-728.685" font-family="Helvetica,sans-Serif" font-size="11.00">operating_system_id</text>
<polygon fill="none" stroke="black" points="747.5,-702.485 747.5,-720.485 890.5,-720.485 890.5,-702.485 747.5,-702.485"/>
<text text-anchor="start" x="750.5" y="-708.685" font-family="Helvetica,sans-Serif" font-size="11.00">...</text>
<polygon fill="#ffffff" stroke="none" points="747.5,-684.485 747.5,-702.485 817.5,-702.485 817.5,-684.485 747.5,-684.485"/>
<polygon fill="none" stroke="black" points="747.5,-684.485 747.5,-702.485 817.5,-702.485 817.5,-684.485 747.5,-684.485"/>
<text text-anchor="start" x="750.5" y="-690.685" font-family="Helvetica,sans-Serif" font-size="11.00">&lt; 1</text>
<polygon fill="#ffffff" stroke="none" points="817.5,-684.485 817.5,-702.485 853.5,-702.485 853.5,-684.485 817.5,-684.485"/>
<polygon fill="none" stroke="black" points="817.5,-684.485 817.5,-702.485 853.5,-702.485 853.5,-684.485 817.5,-684.485"/>
<text text-anchor="start" x="843.5" y="-690.685" font-family="Helvetica,sans-Serif" font-size="11.00"> &#160;</text>
<polygon fill="#ffffff" stroke="none" points="853.5,-684.485 853.5,-702.485 890.5,-702.485 890.5,-684.485 853.5,-684.485"/>
<polygon fill="none" stroke="black" points="853.5,-684.485 853.5,-702.485 890.5,-702.485 890.5,-684.485 853.5,-684.485"/>
<text text-anchor="start" x="880.5" y="-690.685" font-family="Helvetica,sans-Serif" font-size="11.00"> &#160;</text>
</a>
</g>
</g>
<!-- os_processes&#45;&gt;operating_systems -->
<g id="edge24" class="edge"><title>os_processes:operating_system_id:w&#45;&gt;operating_systems:id.type:e</title>
<path fill="none" stroke="black" d="M732.531,-726.317C718.092,-712.454 724.371,-675.485 697.5,-675.485"/>
<polygon fill="black" stroke="black" points="738.997,-728.709 745.251,-734.861 742.749,-730.097 746.5,-731.485 746.5,-731.485 746.5,-731.485 742.749,-730.097 747.749,-728.109 738.997,-728.709 738.997,-728.709"/>
<ellipse fill="none" stroke="black" cx="735.996" cy="-727.599" rx="3.20001" ry="3.20001"/>
</g>
<!-- patches -->
<g id="node20" class="node"><title>patches</title>
<g id="a_node20"><a xlink:href="../../tables/patches.html" xlink:title="patches" target="_top">
<polygon fill="#ffffff" stroke="none" points="511.5,-1128.48 511.5,-1186.48 605.5,-1186.48 605.5,-1128.48 511.5,-1128.48"/>
<polygon fill="#f5f5f5" stroke="none" points="511.5,-1164.48 511.5,-1186.48 605.5,-1186.48 605.5,-1164.48 511.5,-1164.48"/>
<polygon fill="none" stroke="black" points="511.5,-1164.48 511.5,-1186.48 605.5,-1186.48 605.5,-1164.48 511.5,-1164.48"/>
<text text-anchor="start" x="516.5" y="-1173.68" font-family="Helvetica,sans-Serif" font-weight="bold" font-size="11.00">patches</text>
<text text-anchor="start" x="566.5" y="-1172.68" font-family="Helvetica,sans-Serif" font-size="11.00">[table]</text>
<polygon fill="none" stroke="black" points="511.5,-1146.48 511.5,-1164.48 605.5,-1164.48 605.5,-1146.48 511.5,-1146.48"/>
<text text-anchor="start" x="514.5" y="-1152.68" font-family="Helvetica,sans-Serif" font-size="11.00">...</text>
<polygon fill="#ffffff" stroke="none" points="511.5,-1128.48 511.5,-1146.48 556.5,-1146.48 556.5,-1128.48 511.5,-1128.48"/>
<polygon fill="none" stroke="black" points="511.5,-1128.48 511.5,-1146.48 556.5,-1146.48 556.5,-1128.48 511.5,-1128.48"/>
<text text-anchor="start" x="514.5" y="-1134.68" font-family="Helvetica,sans-Serif" font-size="11.00">&lt; 1</text>
<polygon fill="#ffffff" stroke="none" points="556.5,-1128.48 556.5,-1146.48 580.5,-1146.48 580.5,-1128.48 556.5,-1128.48"/>
<polygon fill="none" stroke="black" points="556.5,-1128.48 556.5,-1146.48 580.5,-1146.48 580.5,-1128.48 556.5,-1128.48"/>
<text text-anchor="start" x="570.5" y="-1134.68" font-family="Helvetica,sans-Serif" font-size="11.00"> &#160;</text>
<polygon fill="#ffffff" stroke="none" points="580.5,-1128.48 580.5,-1146.48 605.5,-1146.48 605.5,-1128.48 580.5,-1128.48"/>
<polygon fill="none" stroke="black" points="580.5,-1128.48 580.5,-1146.48 605.5,-1146.48 605.5,-1128.48 580.5,-1128.48"/>
<text text-anchor="start" x="595.5" y="-1134.68" font-family="Helvetica,sans-Serif" font-size="11.00"> &#160;</text>
</a>
</g>
</g>
<!-- patches&#45;&gt;hosts -->
<g id="edge25" class="edge"><title>patches:elipses:w&#45;&gt;hosts:id:e</title>
<path fill="none" stroke="black" d="M496.06,-1156.2C444.284,-1161.48 430.525,-1194.48 371.5,-1194.48"/>
<polygon fill="black" stroke="black" points="502.51,-1155.88 510.677,-1159.08 506.505,-1155.68 510.5,-1155.48 510.5,-1155.48 510.5,-1155.48 506.505,-1155.68 510.323,-1151.89 502.51,-1155.88 502.51,-1155.88"/>
<ellipse fill="none" stroke="black" cx="499.314" cy="-1156.04" rx="3.2" ry="3.2"/>
</g>
<!-- policy_events -->
<g id="node21" class="node"><title>policy_events</title>
<g id="a_node21"><a xlink:href="../../tables/policy_events.html" xlink:title="policy_events" target="_top">
<polygon fill="#ffffff" stroke="none" points="495.5,-1577.48 495.5,-1635.48 621.5,-1635.48 621.5,-1577.48 495.5,-1577.48"/>
<polygon fill="#f5f5f5" stroke="none" points="495.5,-1613.48 495.5,-1635.48 621.5,-1635.48 621.5,-1613.48 495.5,-1613.48"/>
<polygon fill="none" stroke="black" points="495.5,-1613.48 495.5,-1635.48 621.5,-1635.48 621.5,-1613.48 495.5,-1613.48"/>
<text text-anchor="start" x="500.5" y="-1622.68" font-family="Helvetica,sans-Serif" font-weight="bold" font-size="11.00">policy_events</text>
<text text-anchor="start" x="582.5" y="-1621.68" font-family="Helvetica,sans-Serif" font-size="11.00">[table]</text>
<polygon fill="none" stroke="black" points="495.5,-1595.48 495.5,-1613.48 621.5,-1613.48 621.5,-1595.48 495.5,-1595.48"/>
<text text-anchor="start" x="498.5" y="-1601.68" font-family="Helvetica,sans-Serif" font-size="11.00">...</text>
<polygon fill="#ffffff" stroke="none" points="495.5,-1577.48 495.5,-1595.48 551.5,-1595.48 551.5,-1577.48 495.5,-1577.48"/>
<polygon fill="none" stroke="black" points="495.5,-1577.48 495.5,-1595.48 551.5,-1595.48 551.5,-1577.48 495.5,-1577.48"/>
<text text-anchor="start" x="498.5" y="-1583.68" font-family="Helvetica,sans-Serif" font-size="11.00">&lt; 4</text>
<polygon fill="#ffffff" stroke="none" points="551.5,-1577.48 551.5,-1595.48 581.5,-1595.48 581.5,-1577.48 551.5,-1577.48"/>
<polygon fill="none" stroke="black" points="551.5,-1577.48 551.5,-1595.48 581.5,-1595.48 581.5,-1577.48 551.5,-1577.48"/>
<text text-anchor="start" x="571.5" y="-1583.68" font-family="Helvetica,sans-Serif" font-size="11.00"> &#160;</text>
<polygon fill="#ffffff" stroke="none" points="581.5,-1577.48 581.5,-1595.48 621.5,-1595.48 621.5,-1577.48 581.5,-1577.48"/>
<polygon fill="none" stroke="black" points="581.5,-1577.48 581.5,-1595.48 621.5,-1595.48 621.5,-1577.48 581.5,-1577.48"/>
<text text-anchor="start" x="601.5" y="-1583.68" font-family="Helvetica,sans-Serif" font-size="11.00">1 &gt;</text>
</a>
</g>
</g>
<!-- policy_events&#45;&gt;hosts -->
<g id="edge27" class="edge"><title>policy_events:elipses:w&#45;&gt;hosts:id:e</title>
<path fill="none" stroke="black" d="M479.822,-1604.22C448.927,-1602.93 431.82,-1596.06 411,-1567.48 361.921,-1500.11 454.852,-1194.48 371.5,-1194.48"/>
<polygon fill="black" stroke="black" points="486.501,-1604.34 494.436,-1608.08 490.501,-1604.41 494.5,-1604.48 494.5,-1604.48 494.5,-1604.48 490.501,-1604.41 494.564,-1600.89 486.501,-1604.34 486.501,-1604.34"/>
<ellipse fill="none" stroke="black" cx="483.302" cy="-1604.29" rx="3.2" ry="3.2"/>
</g>
<!-- policy_events&#45;&gt;ems_clusters -->
<g id="edge26" class="edge"><title>policy_events:elipses:w&#45;&gt;ems_clusters:elipses:e</title>
<path fill="none" stroke="black" d="M480.08,-1604.42C351.105,-1603.21 301.232,-1584.52 199,-1496.48 161.021,-1463.78 195.12,-1397.48 145,-1397.48"/>
<polygon fill="black" stroke="black" points="486.5,-1604.45 494.484,-1608.08 490.5,-1604.47 494.5,-1604.48 494.5,-1604.48 494.5,-1604.48 490.5,-1604.47 494.516,-1600.88 486.5,-1604.45 486.5,-1604.45"/>
<ellipse fill="none" stroke="black" cx="483.3" cy="-1604.43" rx="3.2" ry="3.2"/>
</g>
<!-- vms -->
<g id="node22" class="node"><title>vms</title>
<g id="a_node22"><a xlink:href="../../tables/vms.html" xlink:title="vms" target="_top">
<polygon fill="#ffffff" stroke="none" points="522.5,-758.485 522.5,-816.485 594.5,-816.485 594.5,-758.485 522.5,-758.485"/>
<polygon fill="#f5f5f5" stroke="none" points="522.5,-794.485 522.5,-816.485 594.5,-816.485 594.5,-794.485 522.5,-794.485"/>
<polygon fill="none" stroke="black" points="522.5,-794.485 522.5,-816.485 594.5,-816.485 594.5,-794.485 522.5,-794.485"/>
<text text-anchor="start" x="527.5" y="-803.685" font-family="Helvetica,sans-Serif" font-weight="bold" font-size="11.00">vms</text>
<text text-anchor="start" x="555.5" y="-802.685" font-family="Helvetica,sans-Serif" font-size="11.00">[table]</text>
<polygon fill="none" stroke="black" points="522.5,-776.485 522.5,-794.485 594.5,-794.485 594.5,-776.485 522.5,-776.485"/>
<text text-anchor="start" x="525.5" y="-782.685" font-family="Helvetica,sans-Serif" font-size="11.00">...</text>
<polygon fill="#ffffff" stroke="none" points="522.5,-758.485 522.5,-776.485 555.5,-776.485 555.5,-758.485 522.5,-758.485"/>
<polygon fill="none" stroke="black" points="522.5,-758.485 522.5,-776.485 555.5,-776.485 555.5,-758.485 522.5,-758.485"/>
<text text-anchor="start" x="525.5" y="-764.685" font-family="Helvetica,sans-Serif" font-size="11.00">&lt; 14</text>
<polygon fill="#ffffff" stroke="none" points="555.5,-758.485 555.5,-776.485 569.5,-776.485 569.5,-758.485 555.5,-758.485"/>
<polygon fill="none" stroke="black" points="555.5,-758.485 555.5,-776.485 569.5,-776.485 569.5,-758.485 555.5,-758.485"/>
<text text-anchor="start" x="559.5" y="-764.685" font-family="Helvetica,sans-Serif" font-size="11.00"> &#160;</text>
<polygon fill="#ffffff" stroke="none" points="569.5,-758.485 569.5,-776.485 594.5,-776.485 594.5,-758.485 569.5,-758.485"/>
<polygon fill="none" stroke="black" points="569.5,-758.485 569.5,-776.485 594.5,-776.485 594.5,-758.485 569.5,-758.485"/>
<text text-anchor="start" x="574.5" y="-764.685" font-family="Helvetica,sans-Serif" font-size="11.00">7 &gt;</text>
</a>
</g>
</g>
<!-- vms&#45;&gt;hosts -->
<g id="edge33" class="edge"><title>vms:elipses:w&#45;&gt;hosts:id:e</title>
<path fill="none" stroke="black" d="M506.84,-785.535C463.851,-785.958 439.969,-789.957 411,-827.485 360.877,-892.416 453.527,-1194.48 371.5,-1194.48"/>
<polygon fill="black" stroke="black" points="513.5,-785.512 521.512,-789.085 517.5,-785.499 521.5,-785.485 521.5,-785.485 521.5,-785.485 517.5,-785.499 521.488,-781.885 513.5,-785.512 513.5,-785.512"/>
<ellipse fill="none" stroke="black" cx="510.3" cy="-785.523" rx="3.2" ry="3.2"/>
</g>
<!-- vms&#45;&gt;availability_zones -->
<g id="edge31" class="edge"><title>vms:elipses:w&#45;&gt;availability_zones:elipses:e</title>
<path fill="none" stroke="black" d="M507.08,-785.59C366.032,-787.702 322.052,-821.78 199,-903.485 177.255,-917.923 185.101,-946.485 159,-946.485"/>
<polygon fill="black" stroke="black" points="513.5,-785.543 521.526,-789.085 517.5,-785.514 521.5,-785.485 521.5,-785.485 521.5,-785.485 517.5,-785.514 521.474,-781.885 513.5,-785.543 513.5,-785.543"/>
<ellipse fill="none" stroke="black" cx="510.3" cy="-785.567" rx="3.2" ry="3.2"/>
</g>
<!-- vms&#45;&gt;ems_clusters -->
<g id="edge32" class="edge"><title>vms:elipses:w&#45;&gt;ems_clusters:elipses:e</title>
<path fill="none" stroke="black" d="M506.866,-785.862C465.788,-788.145 450.149,-800.929 411,-827.485 393.038,-839.669 395.082,-850.094 378,-863.485 306.621,-919.443 249.954,-886.452 199,-961.485 144.152,-1042.25 242.629,-1397.48 145,-1397.48"/>
<polygon fill="black" stroke="black" points="513.503,-785.691 521.593,-789.084 517.501,-785.588 521.5,-785.485 521.5,-785.485 521.5,-785.485 517.501,-785.588 521.407,-781.886 513.503,-785.691 513.503,-785.691"/>
<ellipse fill="none" stroke="black" cx="510.304" cy="-785.773" rx="3.2" ry="3.2"/>
</g>
</g>
</svg>
