<?xml version="1.0" encoding="UTF-8" standalone="no"?>
<!DOCTYPE svg PUBLIC "-//W3C//DTD SVG 1.1//EN"
 "http://www.w3.org/Graphics/SVG/1.1/DTD/svg11.dtd">
<!-- Generated by graphviz version 2.38.0 (20140413.2041)
 -->
<!-- Title: oneDegreeRelationshipsDiagram Pages: 1 -->
<svg width="556pt" height="421pt"
 viewBox="0.00 0.00 556.00 421.00" xmlns="http://www.w3.org/2000/svg" xmlns:xlink="http://www.w3.org/1999/xlink">
<g id="graph0" class="graph" transform="scale(1 1) rotate(0) translate(4 417)">
<title>oneDegreeRelationshipsDiagram</title>
<polygon fill="#ffffff" stroke="none" points="-4,4 -4,-417 552,-417 552,4 -4,4"/>
<text text-anchor="middle" x="74.5" y="-7.2" font-family="Helvetica,sans-Serif" font-size="11.00">Generated by SchemaSpy</text>
<!-- orchestration_stacks -->
<g id="node1" class="node"><title>orchestration_stacks</title>
<g id="a_node1"><a xlink:href="../../tables/orchestration_stacks.html" xlink:title="orchestration_stacks" target="_top">
<polygon fill="#ffffff" stroke="none" points="350,-175 350,-409 540,-409 540,-175 350,-175"/>
<polygon fill="#f5f5f5" stroke="none" points="350,-387 350,-409 540,-409 540,-387 350,-387"/>
<polygon fill="none" stroke="black" points="350,-387 350,-409 540,-409 540,-387 350,-387"/>
<text text-anchor="start" x="355" y="-396.2" font-family="Helvetica,sans-Serif" font-weight="bold" font-size="11.00">orchestration_stacks</text>
<text text-anchor="start" x="501" y="-395.2" font-family="Helvetica,sans-Serif" font-size="11.00">[table]</text>
<polygon fill="none" stroke="black" points="350,-365 350,-387 540,-387 540,-365 350,-365"/>
<image xlink:href="../../images/primaryKeys.png" width="11px" height="12px" preserveAspectRatio="xMinYMin meet" x="355" y="-382"/>
<text text-anchor="start" x="370" y="-373.2" font-family="Helvetica,sans-Serif" font-size="11.00">id</text>
<polygon fill="#ffffff" stroke="none" points="350,-343 350,-365 540,-365 540,-343 350,-343"/>
<polygon fill="none" stroke="black" points="350,-343 350,-365 540,-365 540,-343 350,-343"/>
<text text-anchor="start" x="370" y="-351.2" font-family="Helvetica,sans-Serif" font-size="11.00">type</text>
<polygon fill="#ffffff" stroke="none" points="350,-321 350,-343 540,-343 540,-321 350,-321"/>
<polygon fill="none" stroke="black" points="350,-321 350,-343 540,-343 540,-321 350,-321"/>
<text text-anchor="start" x="370" y="-329.2" font-family="Helvetica,sans-Serif" font-size="11.00">ancestry</text>
<polygon fill="#ffffff" stroke="none" points="350,-299 350,-321 540,-321 540,-299 350,-299"/>
<polygon fill="none" stroke="black" points="350,-299 350,-321 540,-321 540,-299 350,-299"/>
<image xlink:href="../../images/foreignKeys.png" width="11px" height="12px" preserveAspectRatio="xMinYMin meet" x="355" y="-316"/>
<text text-anchor="start" x="370" y="-307.2" font-family="Helvetica,sans-Serif" font-size="11.00">orchestration_template_id</text>
<polygon fill="none" stroke="black" points="350,-277 350,-299 540,-299 540,-277 350,-277"/>
<image xlink:href="../../images/foreignKeys.png" width="11px" height="12px" preserveAspectRatio="xMinYMin meet" x="355" y="-294"/>
<text text-anchor="start" x="370" y="-285.2" font-family="Helvetica,sans-Serif" font-size="11.00">cloud_tenant_id</text>
<polygon fill="#ffffff" stroke="none" points="350,-255 350,-277 540,-277 540,-255 350,-255"/>
<polygon fill="none" stroke="black" points="350,-255 350,-277 540,-277 540,-255 350,-255"/>
<text text-anchor="start" x="370" y="-263.2" font-family="Helvetica,sans-Serif" font-size="11.00">evm_owner_id</text>
<polygon fill="#ffffff" stroke="none" points="350,-233 350,-255 540,-255 540,-233 350,-233"/>
<polygon fill="none" stroke="black" points="350,-233 350,-255 540,-255 540,-233 350,-233"/>
<image xlink:href="../../images/foreignKeys.png" width="11px" height="12px" preserveAspectRatio="xMinYMin meet" x="355" y="-250"/>
<text text-anchor="start" x="370" y="-241.2" font-family="Helvetica,sans-Serif" font-size="11.00">miq_group_id</text>
<polygon fill="#ffffff" stroke="none" points="350,-211 350,-233 540,-233 540,-211 350,-211"/>
<polygon fill="none" stroke="black" points="350,-211 350,-233 540,-233 540,-211 350,-211"/>
<image xlink:href="../../images/foreignKeys.png" width="11px" height="12px" preserveAspectRatio="xMinYMin meet" x="355" y="-228"/>
<text text-anchor="start" x="370" y="-219.2" font-family="Helvetica,sans-Serif" font-size="11.00">tenant_id</text>
<polygon fill="none" stroke="black" points="350,-193 350,-211 540,-211 540,-193 350,-193"/>
<text text-anchor="start" x="353" y="-199.2" font-family="Helvetica,sans-Serif" font-size="11.00">...</text>
<polygon fill="#ffffff" stroke="none" points="350,-175 350,-193 438,-193 438,-175 350,-175"/>
<polygon fill="none" stroke="black" points="350,-175 350,-193 438,-193 438,-175 350,-175"/>
<text text-anchor="start" x="353" y="-181.2" font-family="Helvetica,sans-Serif" font-size="11.00">&lt; 4</text>
<polygon fill="#ffffff" stroke="none" points="438,-175 438,-193 484,-193 484,-175 438,-175"/>
<polygon fill="none" stroke="black" points="438,-175 438,-193 484,-193 484,-175 438,-175"/>
<text text-anchor="start" x="474" y="-181.2" font-family="Helvetica,sans-Serif" font-size="11.00"> &#160;</text>
<polygon fill="#ffffff" stroke="none" points="484,-175 484,-193 540,-193 540,-175 484,-175"/>
<polygon fill="none" stroke="black" points="484,-175 484,-193 540,-193 540,-175 484,-175"/>
<text text-anchor="start" x="520" y="-181.2" font-family="Helvetica,sans-Serif" font-size="11.00">6 &gt;</text>
</a>
</g>
</g>
<!-- orchestration_templates -->
<g id="node2" class="node"><title>orchestration_templates</title>
<g id="a_node2"><a xlink:href="../../tables/orchestration_templates.html" xlink:title="orchestration_templates" target="_top">
<polygon fill="#ffffff" stroke="none" points="8,-37 8,-345 301,-345 301,-37 8,-37"/>
<polygon fill="#f5f5f5" stroke="none" points="10.5,-321 10.5,-343 299.5,-343 299.5,-321 10.5,-321"/>
<polygon fill="none" stroke="black" points="10.5,-321 10.5,-343 299.5,-343 299.5,-321 10.5,-321"/>
<text text-anchor="start" x="15.5" y="-330.2" font-family="Helvetica,sans-Serif" font-weight="bold" font-size="11.00">orchestration_templates</text>
<text text-anchor="start" x="260.5" y="-329.2" font-family="Helvetica,sans-Serif" font-size="11.00">[table]</text>
<polygon fill="none" stroke="black" points="10.5,-299 10.5,-321 178.5,-321 178.5,-299 10.5,-299"/>
<image xlink:href="../../images/primaryKeys.png" width="11px" height="12px" preserveAspectRatio="xMinYMin meet" x="15.5" y="-316"/>
<text text-anchor="start" x="30.5" y="-307.2" font-family="Helvetica,sans-Serif" font-size="11.00">id</text>
<polygon fill="none" stroke="black" points="178.5,-299 178.5,-321 299.5,-321 299.5,-299 178.5,-299"/>
<text text-anchor="start" x="181.5" y="-307.2" font-family="Helvetica,sans-Serif" font-size="11.00">bigserial[19]</text>
<polygon fill="none" stroke="black" points="10.5,-277 10.5,-299 178.5,-299 178.5,-277 10.5,-277"/>
<text text-anchor="start" x="30.5" y="-285.2" font-family="Helvetica,sans-Serif" font-size="11.00">name</text>
<polygon fill="none" stroke="black" points="178.5,-277 178.5,-299 299.5,-299 299.5,-277 178.5,-277"/>
<text text-anchor="start" x="181.5" y="-285.2" font-family="Helvetica,sans-Serif" font-size="11.00">varchar[2147483647]</text>
<polygon fill="#ffffff" stroke="none" points="10.5,-255 10.5,-277 178.5,-277 178.5,-255 10.5,-255"/>
<polygon fill="none" stroke="black" points="10.5,-255 10.5,-277 178.5,-277 178.5,-255 10.5,-255"/>
<text text-anchor="start" x="30.5" y="-263.2" font-family="Helvetica,sans-Serif" font-size="11.00">type</text>
<polygon fill="none" stroke="black" points="178.5,-255 178.5,-277 299.5,-277 299.5,-255 178.5,-255"/>
<text text-anchor="start" x="181.5" y="-263.2" font-family="Helvetica,sans-Serif" font-size="11.00">varchar[2147483647]</text>
<polygon fill="none" stroke="black" points="10.5,-233 10.5,-255 178.5,-255 178.5,-233 10.5,-233"/>
<text text-anchor="start" x="30.5" y="-241.2" font-family="Helvetica,sans-Serif" font-size="11.00">description</text>
<polygon fill="none" stroke="black" points="178.5,-233 178.5,-255 299.5,-255 299.5,-233 178.5,-233"/>
<text text-anchor="start" x="181.5" y="-241.2" font-family="Helvetica,sans-Serif" font-size="11.00">text[2147483647]</text>
<polygon fill="none" stroke="black" points="10.5,-211 10.5,-233 178.5,-233 178.5,-211 10.5,-211"/>
<text text-anchor="start" x="30.5" y="-219.2" font-family="Helvetica,sans-Serif" font-size="11.00">content</text>
<polygon fill="none" stroke="black" points="178.5,-211 178.5,-233 299.5,-233 299.5,-211 178.5,-211"/>
<text text-anchor="start" x="181.5" y="-219.2" font-family="Helvetica,sans-Serif" font-size="11.00">text[2147483647]</text>
<polygon fill="#ffffff" stroke="none" points="10.5,-189 10.5,-211 178.5,-211 178.5,-189 10.5,-189"/>
<polygon fill="none" stroke="black" points="10.5,-189 10.5,-211 178.5,-211 178.5,-189 10.5,-189"/>
<text text-anchor="start" x="30.5" y="-197.2" font-family="Helvetica,sans-Serif" font-size="11.00">md5</text>
<polygon fill="none" stroke="black" points="178.5,-189 178.5,-211 299.5,-211 299.5,-189 178.5,-189"/>
<text text-anchor="start" x="181.5" y="-197.2" font-family="Helvetica,sans-Serif" font-size="11.00">varchar[2147483647]</text>
<polygon fill="none" stroke="black" points="10.5,-167 10.5,-189 178.5,-189 178.5,-167 10.5,-167"/>
<text text-anchor="start" x="30.5" y="-175.2" font-family="Helvetica,sans-Serif" font-size="11.00">created_at</text>
<polygon fill="none" stroke="black" points="178.5,-167 178.5,-189 299.5,-189 299.5,-167 178.5,-167"/>
<text text-anchor="start" x="181.5" y="-175.2" font-family="Helvetica,sans-Serif" font-size="11.00">timestamp[29,6]</text>
<polygon fill="none" stroke="black" points="10.5,-145 10.5,-167 178.5,-167 178.5,-145 10.5,-145"/>
<text text-anchor="start" x="30.5" y="-153.2" font-family="Helvetica,sans-Serif" font-size="11.00">updated_at</text>
<polygon fill="none" stroke="black" points="178.5,-145 178.5,-167 299.5,-167 299.5,-145 178.5,-145"/>
<text text-anchor="start" x="181.5" y="-153.2" font-family="Helvetica,sans-Serif" font-size="11.00">timestamp[29,6]</text>
<polygon fill="none" stroke="black" points="10.5,-123 10.5,-145 178.5,-145 178.5,-123 10.5,-123"/>
<text text-anchor="start" x="30.5" y="-131.2" font-family="Helvetica,sans-Serif" font-size="11.00">draft</text>
<polygon fill="none" stroke="black" points="178.5,-123 178.5,-145 299.5,-145 299.5,-123 178.5,-123"/>
<text text-anchor="start" x="181.5" y="-131.2" font-family="Helvetica,sans-Serif" font-size="11.00">bool[1]</text>
<polygon fill="none" stroke="black" points="10.5,-101 10.5,-123 178.5,-123 178.5,-101 10.5,-101"/>
<text text-anchor="start" x="30.5" y="-109.2" font-family="Helvetica,sans-Serif" font-size="11.00">orderable</text>
<polygon fill="none" stroke="black" points="178.5,-101 178.5,-123 299.5,-123 299.5,-101 178.5,-101"/>
<text text-anchor="start" x="181.5" y="-109.2" font-family="Helvetica,sans-Serif" font-size="11.00">bool[1]</text>
<polygon fill="none" stroke="black" points="10.5,-79 10.5,-101 178.5,-101 178.5,-79 10.5,-79"/>
<text text-anchor="start" x="30.5" y="-87.2" font-family="Helvetica,sans-Serif" font-size="11.00">ems_ref</text>
<polygon fill="none" stroke="black" points="178.5,-79 178.5,-101 299.5,-101 299.5,-79 178.5,-79"/>
<text text-anchor="start" x="181.5" y="-87.2" font-family="Helvetica,sans-Serif" font-size="11.00">varchar[2147483647]</text>
<polygon fill="#ffffff" stroke="none" points="10.5,-57 10.5,-79 178.5,-79 178.5,-57 10.5,-57"/>
<polygon fill="none" stroke="black" points="10.5,-57 10.5,-79 178.5,-79 178.5,-57 10.5,-57"/>
<text text-anchor="start" x="30.5" y="-65.2" font-family="Helvetica,sans-Serif" font-size="11.00">ems_id</text>
<polygon fill="none" stroke="black" points="178.5,-57 178.5,-79 299.5,-79 299.5,-57 178.5,-57"/>
<text text-anchor="start" x="181.5" y="-65.2" font-family="Helvetica,sans-Serif" font-size="11.00">int8[19]</text>
<polygon fill="#ffffff" stroke="none" points="10.5,-39 10.5,-57 99.5,-57 99.5,-39 10.5,-39"/>
<polygon fill="none" stroke="black" points="10.5,-39 10.5,-57 99.5,-57 99.5,-39 10.5,-39"/>
<text text-anchor="start" x="13.5" y="-45.2" font-family="Helvetica,sans-Serif" font-size="11.00">&lt; 0</text>
<polygon fill="#ffffff" stroke="none" points="99.5,-39 99.5,-57 178.5,-57 178.5,-39 99.5,-39"/>
<polygon fill="none" stroke="black" points="99.5,-39 99.5,-57 178.5,-57 178.5,-39 99.5,-39"/>
<text text-anchor="start" x="168.5" y="-45.2" font-family="Helvetica,sans-Serif" font-size="11.00"> &#160;</text>
<polygon fill="#ffffff" stroke="none" points="178.5,-39 178.5,-57 299.5,-57 299.5,-39 178.5,-39"/>
<polygon fill="none" stroke="black" points="178.5,-39 178.5,-57 299.5,-57 299.5,-39 178.5,-39"/>
<text text-anchor="start" x="279.5" y="-45.2" font-family="Helvetica,sans-Serif" font-size="11.00">1 &gt;</text>
<polygon fill="none" stroke="black" stroke-width="2" points="9,-38 9,-344 300,-344 300,-38 9,-38"/>
</a>
</g>
</g>
<!-- orchestration_stacks&#45;&gt;orchestration_templates -->
<g id="edge1" class="edge"><title>orchestration_stacks:orchestration_template_id:w&#45;&gt;orchestration_templates:id.type:e</title>
<path fill="none" stroke="black" d="M334.283,-310C323.289,-310 316.161,-310 300.5,-310"/>
<polygon fill="black" stroke="black" points="341,-310 349,-313.6 345,-310 349,-310 349,-310 349,-310 345,-310 349,-306.4 341,-310 341,-310"/>
<ellipse fill="none" stroke="black" cx="337.8" cy="-310" rx="3.2" ry="3.2"/>
</g>
</g>
</svg>
