<?xml version="1.0" encoding="UTF-8" standalone="no"?>
<!DOCTYPE svg PUBLIC "-//W3C//DTD SVG 1.1//EN"
 "http://www.w3.org/Graphics/SVG/1.1/DTD/svg11.dtd">
<!-- Generated by graphviz version 2.38.0 (20140413.2041)
 -->
<!-- Title: oneDegreeRelationshipsDiagram Pages: 1 -->
<svg width="646pt" height="445pt"
 viewBox="0.00 0.00 646.00 445.00" xmlns="http://www.w3.org/2000/svg" xmlns:xlink="http://www.w3.org/1999/xlink">
<g id="graph0" class="graph" transform="scale(1 1) rotate(0) translate(4 441)">
<title>oneDegreeRelationshipsDiagram</title>
<polygon fill="#ffffff" stroke="none" points="-4,4 -4,-441 642,-441 642,4 -4,4"/>
<text text-anchor="middle" x="74.5" y="-7.2" font-family="Helvetica,sans-Serif" font-size="11.00">Generated by SchemaSpy</text>
<!-- disks -->
<g id="node1" class="node"><title>disks</title>
<g id="a_node1"><a xlink:href="../../tables/disks.html" xlink:title="disks" target="_top">
<polygon fill="#ffffff" stroke="none" points="216,-222 216,-412 342,-412 342,-222 216,-222"/>
<polygon fill="#f5f5f5" stroke="none" points="216,-390 216,-412 342,-412 342,-390 216,-390"/>
<polygon fill="none" stroke="black" points="216,-390 216,-412 342,-412 342,-390 216,-390"/>
<text text-anchor="start" x="221" y="-399.2" font-family="Helvetica,sans-Serif" font-weight="bold" font-size="11.00">disks</text>
<text text-anchor="start" x="303" y="-398.2" font-family="Helvetica,sans-Serif" font-size="11.00">[table]</text>
<polygon fill="none" stroke="black" points="216,-368 216,-390 342,-390 342,-368 216,-368"/>
<image xlink:href="../../images/primaryKeys.png" width="11px" height="12px" preserveAspectRatio="xMinYMin meet" x="221" y="-385"/>
<text text-anchor="start" x="236" y="-376.2" font-family="Helvetica,sans-Serif" font-size="11.00">id</text>
<polygon fill="#ffffff" stroke="none" points="216,-346 216,-368 342,-368 342,-346 216,-346"/>
<polygon fill="none" stroke="black" points="216,-346 216,-368 342,-368 342,-346 216,-346"/>
<text text-anchor="start" x="236" y="-354.2" font-family="Helvetica,sans-Serif" font-size="11.00">device_name</text>
<polygon fill="#ffffff" stroke="none" points="216,-324 216,-346 342,-346 342,-324 216,-324"/>
<polygon fill="none" stroke="black" points="216,-324 216,-346 342,-346 342,-324 216,-324"/>
<text text-anchor="start" x="236" y="-332.2" font-family="Helvetica,sans-Serif" font-size="11.00">device_type</text>
<polygon fill="#ffffff" stroke="none" points="216,-302 216,-324 342,-324 342,-302 216,-302"/>
<polygon fill="none" stroke="black" points="216,-302 216,-324 342,-324 342,-302 216,-302"/>
<image xlink:href="../../images/foreignKeys.png" width="11px" height="12px" preserveAspectRatio="xMinYMin meet" x="221" y="-319"/>
<text text-anchor="start" x="236" y="-310.2" font-family="Helvetica,sans-Serif" font-size="11.00">hardware_id</text>
<polygon fill="#ffffff" stroke="none" points="216,-280 216,-302 342,-302 342,-280 216,-280"/>
<polygon fill="none" stroke="black" points="216,-280 216,-302 342,-302 342,-280 216,-280"/>
<image xlink:href="../../images/foreignKeys.png" width="11px" height="12px" preserveAspectRatio="xMinYMin meet" x="221" y="-297"/>
<text text-anchor="start" x="236" y="-288.2" font-family="Helvetica,sans-Serif" font-size="11.00">storage_id</text>
<polygon fill="none" stroke="black" points="216,-258 216,-280 342,-280 342,-258 216,-258"/>
<image xlink:href="../../images/foreignKeys.png" width="11px" height="12px" preserveAspectRatio="xMinYMin meet" x="221" y="-275"/>
<text text-anchor="start" x="236" y="-266.2" font-family="Helvetica,sans-Serif" font-size="11.00">storage_profile_id</text>
<polygon fill="none" stroke="black" points="216,-240 216,-258 342,-258 342,-240 216,-240"/>
<text text-anchor="start" x="219" y="-246.2" font-family="Helvetica,sans-Serif" font-size="11.00">...</text>
<polygon fill="#ffffff" stroke="none" points="216,-222 216,-240 272,-240 272,-222 216,-222"/>
<polygon fill="none" stroke="black" points="216,-222 216,-240 272,-240 272,-222 216,-222"/>
<text text-anchor="start" x="219" y="-228.2" font-family="Helvetica,sans-Serif" font-size="11.00">&lt; 3</text>
<polygon fill="#ffffff" stroke="none" points="272,-222 272,-240 302,-240 302,-222 272,-222"/>
<polygon fill="none" stroke="black" points="272,-222 272,-240 302,-240 302,-222 272,-222"/>
<text text-anchor="start" x="292" y="-228.2" font-family="Helvetica,sans-Serif" font-size="11.00"> &#160;</text>
<polygon fill="#ffffff" stroke="none" points="302,-222 302,-240 342,-240 342,-222 302,-222"/>
<polygon fill="none" stroke="black" points="302,-222 302,-240 342,-240 342,-222 302,-222"/>
<text text-anchor="start" x="322" y="-228.2" font-family="Helvetica,sans-Serif" font-size="11.00">1 &gt;</text>
</a>
</g>
</g>
<!-- hardwares -->
<g id="node2" class="node"><title>hardwares</title>
<g id="a_node2"><a xlink:href="../../tables/hardwares.html" xlink:title="hardwares" target="_top">
<polygon fill="#ffffff" stroke="none" points="8,-99 8,-289 167,-289 167,-99 8,-99"/>
<polygon fill="#f5f5f5" stroke="none" points="8.5,-267 8.5,-289 167.5,-289 167.5,-267 8.5,-267"/>
<polygon fill="none" stroke="black" points="8.5,-267 8.5,-289 167.5,-289 167.5,-267 8.5,-267"/>
<text text-anchor="start" x="13.5" y="-276.2" font-family="Helvetica,sans-Serif" font-weight="bold" font-size="11.00">hardwares</text>
<text text-anchor="start" x="128.5" y="-275.2" font-family="Helvetica,sans-Serif" font-size="11.00">[table]</text>
<polygon fill="none" stroke="black" points="8.5,-245 8.5,-267 167.5,-267 167.5,-245 8.5,-245"/>
<image xlink:href="../../images/primaryKeys.png" width="11px" height="12px" preserveAspectRatio="xMinYMin meet" x="13.5" y="-262"/>
<text text-anchor="start" x="28.5" y="-253.2" font-family="Helvetica,sans-Serif" font-size="11.00">id</text>
<polygon fill="#ffffff" stroke="none" points="8.5,-223 8.5,-245 167.5,-245 167.5,-223 8.5,-223"/>
<polygon fill="none" stroke="black" points="8.5,-223 8.5,-245 167.5,-245 167.5,-223 8.5,-223"/>
<text text-anchor="start" x="28.5" y="-231.2" font-family="Helvetica,sans-Serif" font-size="11.00">vm_or_template_id</text>
<polygon fill="#ffffff" stroke="none" points="8.5,-201 8.5,-223 167.5,-223 167.5,-201 8.5,-201"/>
<polygon fill="none" stroke="black" points="8.5,-201 8.5,-223 167.5,-223 167.5,-201 8.5,-201"/>
<image xlink:href="../../images/foreignKeys.png" width="11px" height="12px" preserveAspectRatio="xMinYMin meet" x="13.5" y="-218"/>
<text text-anchor="start" x="28.5" y="-209.2" font-family="Helvetica,sans-Serif" font-size="11.00">host_id</text>
<polygon fill="#ffffff" stroke="none" points="8.5,-179 8.5,-201 167.5,-201 167.5,-179 8.5,-179"/>
<polygon fill="none" stroke="black" points="8.5,-179 8.5,-201 167.5,-201 167.5,-179 8.5,-179"/>
<image xlink:href="../../images/foreignKeys.png" width="11px" height="12px" preserveAspectRatio="xMinYMin meet" x="13.5" y="-196"/>
<text text-anchor="start" x="28.5" y="-187.2" font-family="Helvetica,sans-Serif" font-size="11.00">computer_system_id</text>
<polygon fill="none" stroke="black" points="8.5,-157 8.5,-179 167.5,-179 167.5,-157 8.5,-157"/>
<image xlink:href="../../images/foreignKeys.png" width="11px" height="12px" preserveAspectRatio="xMinYMin meet" x="13.5" y="-174"/>
<text text-anchor="start" x="28.5" y="-165.2" font-family="Helvetica,sans-Serif" font-size="11.00">switch_id</text>
<polygon fill="none" stroke="black" points="8.5,-135 8.5,-157 167.5,-157 167.5,-135 8.5,-135"/>
<image xlink:href="../../images/foreignKeys.png" width="11px" height="12px" preserveAspectRatio="xMinYMin meet" x="13.5" y="-152"/>
<text text-anchor="start" x="28.5" y="-143.2" font-family="Helvetica,sans-Serif" font-size="11.00">canister_id</text>
<polygon fill="none" stroke="black" points="8.5,-117 8.5,-135 167.5,-135 167.5,-117 8.5,-117"/>
<text text-anchor="start" x="11.5" y="-123.2" font-family="Helvetica,sans-Serif" font-size="11.00">...</text>
<polygon fill="#ffffff" stroke="none" points="8.5,-99 8.5,-117 81.5,-117 81.5,-99 8.5,-99"/>
<polygon fill="none" stroke="black" points="8.5,-99 8.5,-117 81.5,-117 81.5,-99 8.5,-99"/>
<text text-anchor="start" x="11.5" y="-105.2" font-family="Helvetica,sans-Serif" font-size="11.00">&lt; 4</text>
<polygon fill="#ffffff" stroke="none" points="81.5,-99 81.5,-117 119.5,-117 119.5,-99 81.5,-99"/>
<polygon fill="none" stroke="black" points="81.5,-99 81.5,-117 119.5,-117 119.5,-99 81.5,-99"/>
<text text-anchor="start" x="109.5" y="-105.2" font-family="Helvetica,sans-Serif" font-size="11.00"> &#160;</text>
<polygon fill="#ffffff" stroke="none" points="119.5,-99 119.5,-117 167.5,-117 167.5,-99 119.5,-99"/>
<polygon fill="none" stroke="black" points="119.5,-99 119.5,-117 167.5,-117 167.5,-99 119.5,-99"/>
<text text-anchor="start" x="147.5" y="-105.2" font-family="Helvetica,sans-Serif" font-size="11.00">5 &gt;</text>
</a>
</g>
</g>
<!-- disks&#45;&gt;hardwares -->
<g id="edge1" class="edge"><title>disks:hardware_id:w&#45;&gt;hardwares:id:e</title>
<path fill="none" stroke="black" d="M201.37,-307.74C187.576,-293.629 195.064,-256 168.5,-256"/>
<polygon fill="black" stroke="black" points="207.537,-310.12 213.704,-316.359 211.268,-311.56 215,-313 215,-313 215,-313 211.268,-311.56 216.296,-309.641 207.537,-310.12 207.537,-310.12"/>
<ellipse fill="none" stroke="black" cx="204.551" cy="-308.967" rx="3.20001" ry="3.20001"/>
</g>
<!-- partitions -->
<g id="node3" class="node"><title>partitions</title>
<g id="a_node3"><a xlink:href="../../tables/partitions.html" xlink:title="partitions" target="_top">
<polygon fill="#ffffff" stroke="none" points="391,-37 391,-433 630,-433 630,-37 391,-37"/>
<polygon fill="#f5f5f5" stroke="none" points="393.5,-409 393.5,-431 628.5,-431 628.5,-409 393.5,-409"/>
<polygon fill="none" stroke="black" points="393.5,-409 393.5,-431 628.5,-431 628.5,-409 393.5,-409"/>
<text text-anchor="start" x="398.5" y="-418.2" font-family="Helvetica,sans-Serif" font-weight="bold" font-size="11.00">partitions</text>
<text text-anchor="start" x="589.5" y="-417.2" font-family="Helvetica,sans-Serif" font-size="11.00">[table]</text>
<polygon fill="none" stroke="black" points="393.5,-387 393.5,-409 507.5,-409 507.5,-387 393.5,-387"/>
<image xlink:href="../../images/primaryKeys.png" width="11px" height="12px" preserveAspectRatio="xMinYMin meet" x="398.5" y="-404"/>
<text text-anchor="start" x="413.5" y="-395.2" font-family="Helvetica,sans-Serif" font-size="11.00">id</text>
<polygon fill="none" stroke="black" points="507.5,-387 507.5,-409 628.5,-409 628.5,-387 507.5,-387"/>
<text text-anchor="start" x="510.5" y="-395.2" font-family="Helvetica,sans-Serif" font-size="11.00">bigserial[19]</text>
<polygon fill="#ffffff" stroke="none" points="393.5,-365 393.5,-387 507.5,-387 507.5,-365 393.5,-365"/>
<polygon fill="none" stroke="black" points="393.5,-365 393.5,-387 507.5,-387 507.5,-365 393.5,-365"/>
<image xlink:href="../../images/foreignKeys.png" width="11px" height="12px" preserveAspectRatio="xMinYMin meet" x="398.5" y="-382"/>
<text text-anchor="start" x="413.5" y="-373.2" font-family="Helvetica,sans-Serif" font-size="11.00">disk_id</text>
<polygon fill="none" stroke="black" points="507.5,-365 507.5,-387 628.5,-387 628.5,-365 507.5,-365"/>
<text text-anchor="start" x="510.5" y="-373.2" font-family="Helvetica,sans-Serif" font-size="11.00">int8[19]</text>
<polygon fill="none" stroke="black" points="393.5,-343 393.5,-365 507.5,-365 507.5,-343 393.5,-343"/>
<text text-anchor="start" x="413.5" y="-351.2" font-family="Helvetica,sans-Serif" font-size="11.00">name</text>
<polygon fill="none" stroke="black" points="507.5,-343 507.5,-365 628.5,-365 628.5,-343 507.5,-343"/>
<text text-anchor="start" x="510.5" y="-351.2" font-family="Helvetica,sans-Serif" font-size="11.00">varchar[2147483647]</text>
<polygon fill="none" stroke="black" points="393.5,-321 393.5,-343 507.5,-343 507.5,-321 393.5,-321"/>
<text text-anchor="start" x="413.5" y="-329.2" font-family="Helvetica,sans-Serif" font-size="11.00">size</text>
<polygon fill="none" stroke="black" points="507.5,-321 507.5,-343 628.5,-343 628.5,-321 507.5,-321"/>
<text text-anchor="start" x="510.5" y="-329.2" font-family="Helvetica,sans-Serif" font-size="11.00">int8[19]</text>
<polygon fill="none" stroke="black" points="393.5,-299 393.5,-321 507.5,-321 507.5,-299 393.5,-299"/>
<text text-anchor="start" x="413.5" y="-307.2" font-family="Helvetica,sans-Serif" font-size="11.00">free_space</text>
<polygon fill="none" stroke="black" points="507.5,-299 507.5,-321 628.5,-321 628.5,-299 507.5,-299"/>
<text text-anchor="start" x="510.5" y="-307.2" font-family="Helvetica,sans-Serif" font-size="11.00">int8[19]</text>
<polygon fill="none" stroke="black" points="393.5,-277 393.5,-299 507.5,-299 507.5,-277 393.5,-277"/>
<text text-anchor="start" x="413.5" y="-285.2" font-family="Helvetica,sans-Serif" font-size="11.00">used_space</text>
<polygon fill="none" stroke="black" points="507.5,-277 507.5,-299 628.5,-299 628.5,-277 507.5,-277"/>
<text text-anchor="start" x="510.5" y="-285.2" font-family="Helvetica,sans-Serif" font-size="11.00">int8[19]</text>
<polygon fill="none" stroke="black" points="393.5,-255 393.5,-277 507.5,-277 507.5,-255 393.5,-255"/>
<text text-anchor="start" x="413.5" y="-263.2" font-family="Helvetica,sans-Serif" font-size="11.00">created_on</text>
<polygon fill="none" stroke="black" points="507.5,-255 507.5,-277 628.5,-277 628.5,-255 507.5,-255"/>
<text text-anchor="start" x="510.5" y="-263.2" font-family="Helvetica,sans-Serif" font-size="11.00">timestamp[29,6]</text>
<polygon fill="none" stroke="black" points="393.5,-233 393.5,-255 507.5,-255 507.5,-233 393.5,-233"/>
<text text-anchor="start" x="413.5" y="-241.2" font-family="Helvetica,sans-Serif" font-size="11.00">updated_on</text>
<polygon fill="none" stroke="black" points="507.5,-233 507.5,-255 628.5,-255 628.5,-233 507.5,-233"/>
<text text-anchor="start" x="510.5" y="-241.2" font-family="Helvetica,sans-Serif" font-size="11.00">timestamp[29,6]</text>
<polygon fill="none" stroke="black" points="393.5,-211 393.5,-233 507.5,-233 507.5,-211 393.5,-211"/>
<text text-anchor="start" x="413.5" y="-219.2" font-family="Helvetica,sans-Serif" font-size="11.00">location</text>
<polygon fill="none" stroke="black" points="507.5,-211 507.5,-233 628.5,-233 628.5,-211 507.5,-211"/>
<text text-anchor="start" x="510.5" y="-219.2" font-family="Helvetica,sans-Serif" font-size="11.00">int4[10]</text>
<polygon fill="#ffffff" stroke="none" points="393.5,-189 393.5,-211 507.5,-211 507.5,-189 393.5,-189"/>
<polygon fill="none" stroke="black" points="393.5,-189 393.5,-211 507.5,-211 507.5,-189 393.5,-189"/>
<image xlink:href="../../images/foreignKeys.png" width="11px" height="12px" preserveAspectRatio="xMinYMin meet" x="398.5" y="-206"/>
<text text-anchor="start" x="413.5" y="-197.2" font-family="Helvetica,sans-Serif" font-size="11.00">hardware_id</text>
<polygon fill="none" stroke="black" points="507.5,-189 507.5,-211 628.5,-211 628.5,-189 507.5,-189"/>
<text text-anchor="start" x="510.5" y="-197.2" font-family="Helvetica,sans-Serif" font-size="11.00">int8[19]</text>
<polygon fill="#ffffff" stroke="none" points="393.5,-167 393.5,-189 507.5,-189 507.5,-167 393.5,-167"/>
<polygon fill="none" stroke="black" points="393.5,-167 393.5,-189 507.5,-189 507.5,-167 393.5,-167"/>
<text text-anchor="start" x="413.5" y="-175.2" font-family="Helvetica,sans-Serif" font-size="11.00">volume_group</text>
<polygon fill="none" stroke="black" points="507.5,-167 507.5,-189 628.5,-189 628.5,-167 507.5,-167"/>
<text text-anchor="start" x="510.5" y="-175.2" font-family="Helvetica,sans-Serif" font-size="11.00">varchar[2147483647]</text>
<polygon fill="none" stroke="black" points="393.5,-145 393.5,-167 507.5,-167 507.5,-145 393.5,-145"/>
<text text-anchor="start" x="413.5" y="-153.2" font-family="Helvetica,sans-Serif" font-size="11.00">partition_type</text>
<polygon fill="none" stroke="black" points="507.5,-145 507.5,-167 628.5,-167 628.5,-145 507.5,-145"/>
<text text-anchor="start" x="510.5" y="-153.2" font-family="Helvetica,sans-Serif" font-size="11.00">int4[10]</text>
<polygon fill="none" stroke="black" points="393.5,-123 393.5,-145 507.5,-145 507.5,-123 393.5,-123"/>
<text text-anchor="start" x="413.5" y="-131.2" font-family="Helvetica,sans-Serif" font-size="11.00">controller</text>
<polygon fill="none" stroke="black" points="507.5,-123 507.5,-145 628.5,-145 628.5,-123 507.5,-123"/>
<text text-anchor="start" x="510.5" y="-131.2" font-family="Helvetica,sans-Serif" font-size="11.00">varchar[2147483647]</text>
<polygon fill="none" stroke="black" points="393.5,-101 393.5,-123 507.5,-123 507.5,-101 393.5,-101"/>
<text text-anchor="start" x="413.5" y="-109.2" font-family="Helvetica,sans-Serif" font-size="11.00">virtual_disk_file</text>
<polygon fill="none" stroke="black" points="507.5,-101 507.5,-123 628.5,-123 628.5,-101 507.5,-101"/>
<text text-anchor="start" x="510.5" y="-109.2" font-family="Helvetica,sans-Serif" font-size="11.00">varchar[2147483647]</text>
<polygon fill="none" stroke="black" points="393.5,-79 393.5,-101 507.5,-101 507.5,-79 393.5,-79"/>
<text text-anchor="start" x="413.5" y="-87.2" font-family="Helvetica,sans-Serif" font-size="11.00">uid</text>
<polygon fill="none" stroke="black" points="507.5,-79 507.5,-101 628.5,-101 628.5,-79 507.5,-79"/>
<text text-anchor="start" x="510.5" y="-87.2" font-family="Helvetica,sans-Serif" font-size="11.00">varchar[2147483647]</text>
<polygon fill="none" stroke="black" points="393.5,-57 393.5,-79 507.5,-79 507.5,-57 393.5,-57"/>
<text text-anchor="start" x="413.5" y="-65.2" font-family="Helvetica,sans-Serif" font-size="11.00">start_address</text>
<polygon fill="none" stroke="black" points="507.5,-57 507.5,-79 628.5,-79 628.5,-57 507.5,-57"/>
<text text-anchor="start" x="510.5" y="-65.2" font-family="Helvetica,sans-Serif" font-size="11.00">int8[19]</text>
<polygon fill="#ffffff" stroke="none" points="393.5,-39 393.5,-57 455.5,-57 455.5,-39 393.5,-39"/>
<polygon fill="none" stroke="black" points="393.5,-39 393.5,-57 455.5,-57 455.5,-39 393.5,-39"/>
<text text-anchor="start" x="396.5" y="-45.2" font-family="Helvetica,sans-Serif" font-size="11.00">&lt; 2</text>
<polygon fill="#ffffff" stroke="none" points="455.5,-39 455.5,-57 507.5,-57 507.5,-39 455.5,-39"/>
<polygon fill="none" stroke="black" points="455.5,-39 455.5,-57 507.5,-57 507.5,-39 455.5,-39"/>
<text text-anchor="start" x="497.5" y="-45.2" font-family="Helvetica,sans-Serif" font-size="11.00"> &#160;</text>
<polygon fill="#ffffff" stroke="none" points="507.5,-39 507.5,-57 628.5,-57 628.5,-39 507.5,-39"/>
<polygon fill="none" stroke="black" points="507.5,-39 507.5,-57 628.5,-57 628.5,-39 507.5,-39"/>
<text text-anchor="start" x="608.5" y="-45.2" font-family="Helvetica,sans-Serif" font-size="11.00">0 &gt;</text>
<polygon fill="none" stroke="black" stroke-width="2" points="392,-38 392,-432 629,-432 629,-38 392,-38"/>
</a>
</g>
</g>
<!-- partitions&#45;&gt;disks -->
<g id="edge2" class="edge"><title>partitions:disk_id:w&#45;&gt;disks:id:e</title>
<path fill="none" stroke="black" d="M377.832,-376.523C366.408,-377.382 359.186,-379 343,-379"/>
<polygon fill="black" stroke="black" points="384.505,-376.285 392.628,-379.598 388.503,-376.142 392.5,-376 392.5,-376 392.5,-376 388.503,-376.142 392.372,-372.402 384.505,-376.285 384.505,-376.285"/>
<ellipse fill="none" stroke="black" cx="381.307" cy="-376.399" rx="3.2" ry="3.2"/>
</g>
<!-- partitions&#45;&gt;hardwares -->
<g id="edge3" class="edge"><title>partitions:hardware_id:w&#45;&gt;hardwares:id:e</title>
<path fill="none" stroke="black" d="M377.701,-199.727C306.607,-197.102 277.177,-177.158 208,-211 184.095,-222.694 195.112,-256 168.5,-256"/>
<polygon fill="black" stroke="black" points="384.501,-199.852 392.434,-203.599 388.501,-199.926 392.5,-200 392.5,-200 392.5,-200 388.501,-199.926 392.566,-196.401 384.501,-199.852 384.501,-199.852"/>
<ellipse fill="none" stroke="black" cx="381.302" cy="-199.793" rx="3.2" ry="3.2"/>
</g>
</g>
</svg>
