<?xml version="1.0" encoding="UTF-8" standalone="no"?>
<!DOCTYPE svg PUBLIC "-//W3C//DTD SVG 1.1//EN"
 "http://www.w3.org/Graphics/SVG/1.1/DTD/svg11.dtd">
<!-- Generated by graphviz version 2.38.0 (20140413.2041)
 -->
<!-- Title: twoDegreesRelationshipsDiagram Pages: 1 -->
<svg width="762pt" height="951pt"
 viewBox="0.00 0.00 762.00 951.00" xmlns="http://www.w3.org/2000/svg" xmlns:xlink="http://www.w3.org/1999/xlink">
<g id="graph0" class="graph" transform="scale(1 1) rotate(0) translate(4 947)">
<title>twoDegreesRelationshipsDiagram</title>
<polygon fill="#ffffff" stroke="none" points="-4,4 -4,-947 758,-947 758,4 -4,4"/>
<text text-anchor="middle" x="74.5" y="-7.2" font-family="Helvetica,sans-Serif" font-size="11.00">Generated by SchemaSpy</text>
<!-- container_builds -->
<g id="node1" class="node"><title>container_builds</title>
<g id="a_node1"><a xlink:href="../../tables/container_builds.html" xlink:title="container_builds" target="_top">
<polygon fill="#ffffff" stroke="none" points="290,-881 290,-939 434,-939 434,-881 290,-881"/>
<polygon fill="#f5f5f5" stroke="none" points="290,-917 290,-939 434,-939 434,-917 290,-917"/>
<polygon fill="none" stroke="black" points="290,-917 290,-939 434,-939 434,-917 290,-917"/>
<text text-anchor="start" x="295" y="-926.2" font-family="Helvetica,sans-Serif" font-weight="bold" font-size="11.00">container_builds</text>
<text text-anchor="start" x="395" y="-925.2" font-family="Helvetica,sans-Serif" font-size="11.00">[table]</text>
<polygon fill="none" stroke="black" points="290,-899 290,-917 434,-917 434,-899 290,-899"/>
<text text-anchor="start" x="293" y="-905.2" font-family="Helvetica,sans-Serif" font-size="11.00">...</text>
<polygon fill="#ffffff" stroke="none" points="290,-881 290,-899 355,-899 355,-881 290,-881"/>
<polygon fill="none" stroke="black" points="290,-881 290,-899 355,-899 355,-881 290,-881"/>
<text text-anchor="start" x="293" y="-887.2" font-family="Helvetica,sans-Serif" font-size="11.00">&lt; 1</text>
<polygon fill="#ffffff" stroke="none" points="355,-881 355,-899 389,-899 389,-881 355,-881"/>
<polygon fill="none" stroke="black" points="355,-881 355,-899 389,-899 389,-881 355,-881"/>
<text text-anchor="start" x="379" y="-887.2" font-family="Helvetica,sans-Serif" font-size="11.00"> &#160;</text>
<polygon fill="#ffffff" stroke="none" points="389,-881 389,-899 434,-899 434,-881 389,-881"/>
<polygon fill="none" stroke="black" points="389,-881 389,-899 434,-899 434,-881 389,-881"/>
<text text-anchor="start" x="414" y="-887.2" font-family="Helvetica,sans-Serif" font-size="11.00">1 &gt;</text>
</a>
</g>
</g>
<!-- container_projects -->
<g id="node2" class="node"><title>container_projects</title>
<g id="a_node2"><a xlink:href="../../tables/container_projects.html" xlink:title="container_projects" target="_top">
<polygon fill="#ffffff" stroke="none" points="8,-553 8,-677 163,-677 163,-553 8,-553"/>
<polygon fill="#f5f5f5" stroke="none" points="8.5,-655 8.5,-677 163.5,-677 163.5,-655 8.5,-655"/>
<polygon fill="none" stroke="black" points="8.5,-655 8.5,-677 163.5,-677 163.5,-655 8.5,-655"/>
<text text-anchor="start" x="13.5" y="-664.2" font-family="Helvetica,sans-Serif" font-weight="bold" font-size="11.00">container_projects</text>
<text text-anchor="start" x="124.5" y="-663.2" font-family="Helvetica,sans-Serif" font-size="11.00">[table]</text>
<polygon fill="none" stroke="black" points="8.5,-633 8.5,-655 163.5,-655 163.5,-633 8.5,-633"/>
<image xlink:href="../../images/primaryKeys.png" width="11px" height="12px" preserveAspectRatio="xMinYMin meet" x="13.5" y="-650"/>
<text text-anchor="start" x="40.5" y="-641.2" font-family="Helvetica,sans-Serif" font-size="11.00">id</text>
<polygon fill="#ffffff" stroke="none" points="8.5,-611 8.5,-633 163.5,-633 163.5,-611 8.5,-611"/>
<polygon fill="none" stroke="black" points="8.5,-611 8.5,-633 163.5,-633 163.5,-611 8.5,-611"/>
<text text-anchor="start" x="40.5" y="-619.2" font-family="Helvetica,sans-Serif" font-size="11.00">ems_id</text>
<polygon fill="#ffffff" stroke="none" points="8.5,-589 8.5,-611 163.5,-611 163.5,-589 8.5,-589"/>
<polygon fill="none" stroke="black" points="8.5,-589 8.5,-611 163.5,-611 163.5,-589 8.5,-589"/>
<text text-anchor="start" x="40.5" y="-597.2" font-family="Helvetica,sans-Serif" font-size="11.00">deleted_on</text>
<polygon fill="none" stroke="black" points="8.5,-571 8.5,-589 163.5,-589 163.5,-571 8.5,-571"/>
<text text-anchor="start" x="11.5" y="-577.2" font-family="Helvetica,sans-Serif" font-size="11.00">...</text>
<polygon fill="#ffffff" stroke="none" points="8.5,-553 8.5,-571 74.5,-571 74.5,-553 8.5,-553"/>
<polygon fill="none" stroke="black" points="8.5,-553 8.5,-571 74.5,-571 74.5,-553 8.5,-553"/>
<text text-anchor="start" x="11.5" y="-559.2" font-family="Helvetica,sans-Serif" font-size="11.00"> &#160;</text>
<polygon fill="#ffffff" stroke="none" points="74.5,-553 74.5,-571 113.5,-571 113.5,-553 74.5,-553"/>
<polygon fill="none" stroke="black" points="74.5,-553 74.5,-571 113.5,-571 113.5,-553 74.5,-553"/>
<text text-anchor="start" x="103.5" y="-559.2" font-family="Helvetica,sans-Serif" font-size="11.00"> &#160;</text>
<polygon fill="#ffffff" stroke="none" points="113.5,-553 113.5,-571 163.5,-571 163.5,-553 113.5,-553"/>
<polygon fill="none" stroke="black" points="113.5,-553 113.5,-571 163.5,-571 163.5,-553 113.5,-553"/>
<text text-anchor="start" x="143.5" y="-559.2" font-family="Helvetica,sans-Serif" font-size="11.00">9 &gt;</text>
</a>
</g>
</g>
<!-- container_builds&#45;&gt;container_projects -->
<g id="edge1" class="edge"><title>container_builds:elipses:w&#45;&gt;container_projects:id:e</title>
<path fill="none" stroke="black" d="M274.344,-907.61C242.506,-905.704 226.162,-896.253 204,-867 173.609,-826.885 214.827,-644 164.5,-644"/>
<polygon fill="black" stroke="black" points="281.003,-907.787 288.904,-911.599 285.001,-907.893 289,-908 289,-908 289,-908 285.001,-907.893 289.096,-904.401 281.003,-907.787 281.003,-907.787"/>
<ellipse fill="none" stroke="black" cx="277.804" cy="-907.702" rx="3.2" ry="3.2"/>
</g>
<!-- container_groups -->
<g id="node3" class="node"><title>container_groups</title>
<g id="a_node3"><a xlink:href="../../tables/container_groups.html" xlink:title="container_groups" target="_top">
<polygon fill="#ffffff" stroke="none" points="580,-802 580,-860 727,-860 727,-802 580,-802"/>
<polygon fill="#f5f5f5" stroke="none" points="580.5,-838 580.5,-860 727.5,-860 727.5,-838 580.5,-838"/>
<polygon fill="none" stroke="black" points="580.5,-838 580.5,-860 727.5,-860 727.5,-838 580.5,-838"/>
<text text-anchor="start" x="585.5" y="-847.2" font-family="Helvetica,sans-Serif" font-weight="bold" font-size="11.00">container_groups</text>
<text text-anchor="start" x="688.5" y="-846.2" font-family="Helvetica,sans-Serif" font-size="11.00">[table]</text>
<polygon fill="none" stroke="black" points="580.5,-820 580.5,-838 727.5,-838 727.5,-820 580.5,-820"/>
<text text-anchor="start" x="583.5" y="-826.2" font-family="Helvetica,sans-Serif" font-size="11.00">...</text>
<polygon fill="#ffffff" stroke="none" points="580.5,-802 580.5,-820 647.5,-820 647.5,-802 580.5,-802"/>
<polygon fill="none" stroke="black" points="580.5,-802 580.5,-820 647.5,-820 647.5,-802 580.5,-802"/>
<text text-anchor="start" x="583.5" y="-808.2" font-family="Helvetica,sans-Serif" font-size="11.00">&lt; 4</text>
<polygon fill="#ffffff" stroke="none" points="647.5,-802 647.5,-820 682.5,-820 682.5,-802 647.5,-802"/>
<polygon fill="none" stroke="black" points="647.5,-802 647.5,-820 682.5,-820 682.5,-802 647.5,-802"/>
<text text-anchor="start" x="672.5" y="-808.2" font-family="Helvetica,sans-Serif" font-size="11.00"> &#160;</text>
<polygon fill="#ffffff" stroke="none" points="682.5,-802 682.5,-820 727.5,-820 727.5,-802 682.5,-802"/>
<polygon fill="none" stroke="black" points="682.5,-802 682.5,-820 727.5,-820 727.5,-802 682.5,-802"/>
<text text-anchor="start" x="707.5" y="-808.2" font-family="Helvetica,sans-Serif" font-size="11.00">3 &gt;</text>
</a>
</g>
</g>
<!-- container_groups&#45;&gt;container_projects -->
<g id="edge2" class="edge"><title>container_groups:elipses:w&#45;&gt;container_projects:id:e</title>
<path fill="none" stroke="black" d="M564.78,-830.367C549.075,-833.543 541.355,-841.35 520,-844 450.312,-852.649 258.252,-888.585 204,-844 134,-786.473 255.106,-644 164.5,-644"/>
<polygon fill="black" stroke="black" points="571.534,-829.74 579.833,-832.585 575.517,-829.37 579.5,-829 579.5,-829 579.5,-829 575.517,-829.37 579.167,-825.415 571.534,-829.74 571.534,-829.74"/>
<ellipse fill="none" stroke="black" cx="568.348" cy="-830.036" rx="3.2" ry="3.2"/>
</g>
<!-- container_replicators -->
<g id="node4" class="node"><title>container_replicators</title>
<g id="a_node4"><a xlink:href="../../tables/container_replicators.html" xlink:title="container_replicators" target="_top">
<polygon fill="#ffffff" stroke="none" points="276.5,-775 276.5,-833 447.5,-833 447.5,-775 276.5,-775"/>
<polygon fill="#f5f5f5" stroke="none" points="277,-811 277,-833 448,-833 448,-811 277,-811"/>
<polygon fill="none" stroke="black" points="277,-811 277,-833 448,-833 448,-811 277,-811"/>
<text text-anchor="start" x="282" y="-820.2" font-family="Helvetica,sans-Serif" font-weight="bold" font-size="11.00">container_replicators</text>
<text text-anchor="start" x="409" y="-819.2" font-family="Helvetica,sans-Serif" font-size="11.00">[table]</text>
<polygon fill="none" stroke="black" points="277,-793 277,-811 448,-811 448,-793 277,-793"/>
<text text-anchor="start" x="280" y="-799.2" font-family="Helvetica,sans-Serif" font-size="11.00">...</text>
<polygon fill="#ffffff" stroke="none" points="277,-775 277,-793 356,-793 356,-775 277,-775"/>
<polygon fill="none" stroke="black" points="277,-775 277,-793 356,-793 356,-775 277,-775"/>
<text text-anchor="start" x="280" y="-781.2" font-family="Helvetica,sans-Serif" font-size="11.00">&lt; 1</text>
<polygon fill="#ffffff" stroke="none" points="356,-775 356,-793 397,-793 397,-775 356,-775"/>
<polygon fill="none" stroke="black" points="356,-775 356,-793 397,-793 397,-775 356,-775"/>
<text text-anchor="start" x="387" y="-781.2" font-family="Helvetica,sans-Serif" font-size="11.00"> &#160;</text>
<polygon fill="#ffffff" stroke="none" points="397,-775 397,-793 448,-793 448,-775 397,-775"/>
<polygon fill="none" stroke="black" points="397,-775 397,-793 448,-793 448,-775 397,-775"/>
<text text-anchor="start" x="428" y="-781.2" font-family="Helvetica,sans-Serif" font-size="11.00">2 &gt;</text>
</a>
</g>
</g>
<!-- container_groups&#45;&gt;container_replicators -->
<g id="edge3" class="edge"><title>container_groups:elipses:w&#45;&gt;container_replicators:elipses:e</title>
<path fill="none" stroke="black" d="M564.913,-828.411C517.79,-824.462 503.023,-802 449,-802"/>
<polygon fill="black" stroke="black" points="571.507,-828.677 579.355,-832.597 575.503,-828.839 579.5,-829 579.5,-829 579.5,-829 575.503,-828.839 579.645,-825.403 571.507,-828.677 571.507,-828.677"/>
<ellipse fill="none" stroke="black" cx="568.309" cy="-828.548" rx="3.2" ry="3.2"/>
</g>
<!-- container_replicators&#45;&gt;container_projects -->
<g id="edge6" class="edge"><title>container_replicators:elipses:w&#45;&gt;container_projects:id:e</title>
<path fill="none" stroke="black" d="M261.407,-801.338C236.022,-798.753 223.873,-788.318 204,-765 167.305,-721.945 221.071,-644 164.5,-644"/>
<polygon fill="black" stroke="black" points="268.008,-801.637 275.837,-805.596 272.004,-801.819 276,-802 276,-802 276,-802 272.004,-801.819 276.163,-798.404 268.008,-801.637 268.008,-801.637"/>
<ellipse fill="none" stroke="black" cx="264.812" cy="-801.492" rx="3.2" ry="3.2"/>
</g>
<!-- container_limits -->
<g id="node5" class="node"><title>container_limits</title>
<g id="a_node5"><a xlink:href="../../tables/container_limits.html" xlink:title="container_limits" target="_top">
<polygon fill="#ffffff" stroke="none" points="291,-696 291,-754 433,-754 433,-696 291,-696"/>
<polygon fill="#f5f5f5" stroke="none" points="291,-732 291,-754 433,-754 433,-732 291,-732"/>
<polygon fill="none" stroke="black" points="291,-732 291,-754 433,-754 433,-732 291,-732"/>
<text text-anchor="start" x="296" y="-741.2" font-family="Helvetica,sans-Serif" font-weight="bold" font-size="11.00">container_limits</text>
<text text-anchor="start" x="394" y="-740.2" font-family="Helvetica,sans-Serif" font-size="11.00">[table]</text>
<polygon fill="none" stroke="black" points="291,-714 291,-732 433,-732 433,-714 291,-714"/>
<text text-anchor="start" x="294" y="-720.2" font-family="Helvetica,sans-Serif" font-size="11.00">...</text>
<polygon fill="#ffffff" stroke="none" points="291,-696 291,-714 355,-714 355,-696 291,-696"/>
<polygon fill="none" stroke="black" points="291,-696 291,-714 355,-714 355,-696 291,-696"/>
<text text-anchor="start" x="294" y="-702.2" font-family="Helvetica,sans-Serif" font-size="11.00">&lt; 1</text>
<polygon fill="#ffffff" stroke="none" points="355,-696 355,-714 389,-714 389,-696 355,-696"/>
<polygon fill="none" stroke="black" points="355,-696 355,-714 389,-714 389,-696 355,-696"/>
<text text-anchor="start" x="379" y="-702.2" font-family="Helvetica,sans-Serif" font-size="11.00"> &#160;</text>
<polygon fill="#ffffff" stroke="none" points="389,-696 389,-714 433,-714 433,-696 389,-696"/>
<polygon fill="none" stroke="black" points="389,-696 389,-714 433,-714 433,-696 389,-696"/>
<text text-anchor="start" x="413" y="-702.2" font-family="Helvetica,sans-Serif" font-size="11.00">1 &gt;</text>
</a>
</g>
</g>
<!-- container_limits&#45;&gt;container_projects -->
<g id="edge4" class="edge"><title>container_limits:elipses:w&#45;&gt;container_projects:id:e</title>
<path fill="none" stroke="black" d="M275.351,-722.351C245.337,-719.438 233.684,-706.799 204,-686 183.014,-671.296 190.125,-644 164.5,-644"/>
<polygon fill="black" stroke="black" points="282.008,-722.646 289.841,-726.596 286.004,-722.823 290,-723 290,-723 290,-723 286.004,-722.823 290.159,-719.404 282.008,-722.646 282.008,-722.646"/>
<ellipse fill="none" stroke="black" cx="278.811" cy="-722.504" rx="3.2" ry="3.2"/>
</g>
<!-- container_quotas -->
<g id="node6" class="node"><title>container_quotas</title>
<g id="a_node6"><a xlink:href="../../tables/container_quotas.html" xlink:title="container_quotas" target="_top">
<polygon fill="#ffffff" stroke="none" points="288,-617 288,-675 436,-675 436,-617 288,-617"/>
<polygon fill="#f5f5f5" stroke="none" points="288,-653 288,-675 436,-675 436,-653 288,-653"/>
<polygon fill="none" stroke="black" points="288,-653 288,-675 436,-675 436,-653 288,-653"/>
<text text-anchor="start" x="293" y="-662.2" font-family="Helvetica,sans-Serif" font-weight="bold" font-size="11.00">container_quotas</text>
<text text-anchor="start" x="397" y="-661.2" font-family="Helvetica,sans-Serif" font-size="11.00">[table]</text>
<polygon fill="none" stroke="black" points="288,-635 288,-653 436,-653 436,-635 288,-635"/>
<text text-anchor="start" x="291" y="-641.2" font-family="Helvetica,sans-Serif" font-size="11.00">...</text>
<polygon fill="#ffffff" stroke="none" points="288,-617 288,-635 355,-635 355,-617 288,-617"/>
<polygon fill="none" stroke="black" points="288,-617 288,-635 355,-635 355,-617 288,-617"/>
<text text-anchor="start" x="291" y="-623.2" font-family="Helvetica,sans-Serif" font-size="11.00">&lt; 1</text>
<polygon fill="#ffffff" stroke="none" points="355,-617 355,-635 390,-635 390,-617 355,-617"/>
<polygon fill="none" stroke="black" points="355,-617 355,-635 390,-635 390,-617 355,-617"/>
<text text-anchor="start" x="380" y="-623.2" font-family="Helvetica,sans-Serif" font-size="11.00"> &#160;</text>
<polygon fill="#ffffff" stroke="none" points="390,-617 390,-635 436,-635 436,-617 390,-617"/>
<polygon fill="none" stroke="black" points="390,-617 390,-635 436,-635 436,-617 390,-617"/>
<text text-anchor="start" x="416" y="-623.2" font-family="Helvetica,sans-Serif" font-size="11.00">2 &gt;</text>
</a>
</g>
</g>
<!-- container_quotas&#45;&gt;container_projects -->
<g id="edge5" class="edge"><title>container_quotas:elipses:w&#45;&gt;container_projects:id:e</title>
<path fill="none" stroke="black" d="M272.419,-644C229.576,-644 213.734,-644 164.5,-644"/>
<polygon fill="black" stroke="black" points="279,-644 287,-647.6 283,-644 287,-644 287,-644 287,-644 283,-644 287,-640.4 279,-644 279,-644"/>
<ellipse fill="none" stroke="black" cx="275.8" cy="-644" rx="3.2" ry="3.2"/>
</g>
<!-- container_routes -->
<g id="node7" class="node"><title>container_routes</title>
<g id="a_node7"><a xlink:href="../../tables/container_routes.html" xlink:title="container_routes" target="_top">
<polygon fill="#ffffff" stroke="none" points="581,-538 581,-596 726,-596 726,-538 581,-538"/>
<polygon fill="#f5f5f5" stroke="none" points="581.5,-574 581.5,-596 726.5,-596 726.5,-574 581.5,-574"/>
<polygon fill="none" stroke="black" points="581.5,-574 581.5,-596 726.5,-596 726.5,-574 581.5,-574"/>
<text text-anchor="start" x="586.5" y="-583.2" font-family="Helvetica,sans-Serif" font-weight="bold" font-size="11.00">container_routes</text>
<text text-anchor="start" x="687.5" y="-582.2" font-family="Helvetica,sans-Serif" font-size="11.00">[table]</text>
<polygon fill="none" stroke="black" points="581.5,-556 581.5,-574 726.5,-574 726.5,-556 581.5,-556"/>
<text text-anchor="start" x="584.5" y="-562.2" font-family="Helvetica,sans-Serif" font-size="11.00">...</text>
<polygon fill="#ffffff" stroke="none" points="581.5,-538 581.5,-556 652.5,-556 652.5,-538 581.5,-538"/>
<polygon fill="none" stroke="black" points="581.5,-538 581.5,-556 652.5,-556 652.5,-538 581.5,-538"/>
<text text-anchor="start" x="584.5" y="-544.2" font-family="Helvetica,sans-Serif" font-size="11.00">&lt; 2</text>
<polygon fill="#ffffff" stroke="none" points="652.5,-538 652.5,-556 689.5,-556 689.5,-538 652.5,-538"/>
<polygon fill="none" stroke="black" points="652.5,-538 652.5,-556 689.5,-556 689.5,-538 652.5,-538"/>
<text text-anchor="start" x="679.5" y="-544.2" font-family="Helvetica,sans-Serif" font-size="11.00"> &#160;</text>
<polygon fill="#ffffff" stroke="none" points="689.5,-538 689.5,-556 726.5,-556 726.5,-538 689.5,-538"/>
<polygon fill="none" stroke="black" points="689.5,-538 689.5,-556 726.5,-556 726.5,-538 689.5,-538"/>
<text text-anchor="start" x="716.5" y="-544.2" font-family="Helvetica,sans-Serif" font-size="11.00"> &#160;</text>
</a>
</g>
</g>
<!-- container_routes&#45;&gt;container_projects -->
<g id="edge7" class="edge"><title>container_routes:elipses:w&#45;&gt;container_projects:id:e</title>
<path fill="none" stroke="black" d="M566.001,-566.159C549.674,-569.009 541.779,-576.393 520,-580 450.469,-591.516 268.382,-578.327 204,-607 182.026,-616.786 188.554,-644 164.5,-644"/>
<polygon fill="black" stroke="black" points="572.525,-565.637 580.787,-568.589 576.513,-565.319 580.5,-565 580.5,-565 580.5,-565 576.513,-565.319 580.213,-561.411 572.525,-565.637 572.525,-565.637"/>
<ellipse fill="none" stroke="black" cx="569.336" cy="-565.892" rx="3.2" ry="3.2"/>
</g>
<!-- container_services -->
<g id="node8" class="node"><title>container_services</title>
<g id="a_node8"><a xlink:href="../../tables/container_services.html" xlink:title="container_services" target="_top">
<polygon fill="#ffffff" stroke="none" points="285,-511 285,-569 439,-569 439,-511 285,-511"/>
<polygon fill="#f5f5f5" stroke="none" points="285,-547 285,-569 439,-569 439,-547 285,-547"/>
<polygon fill="none" stroke="black" points="285,-547 285,-569 439,-569 439,-547 285,-547"/>
<text text-anchor="start" x="290" y="-556.2" font-family="Helvetica,sans-Serif" font-weight="bold" font-size="11.00">container_services</text>
<text text-anchor="start" x="400" y="-555.2" font-family="Helvetica,sans-Serif" font-size="11.00">[table]</text>
<polygon fill="none" stroke="black" points="285,-529 285,-547 439,-547 439,-529 285,-529"/>
<text text-anchor="start" x="288" y="-535.2" font-family="Helvetica,sans-Serif" font-size="11.00">...</text>
<polygon fill="#ffffff" stroke="none" points="285,-511 285,-529 355,-529 355,-511 285,-511"/>
<polygon fill="none" stroke="black" points="285,-511 285,-529 355,-529 355,-511 285,-511"/>
<text text-anchor="start" x="288" y="-517.2" font-family="Helvetica,sans-Serif" font-size="11.00">&lt; 2</text>
<polygon fill="#ffffff" stroke="none" points="355,-511 355,-529 392,-529 392,-511 355,-511"/>
<polygon fill="none" stroke="black" points="355,-511 355,-529 392,-529 392,-511 355,-511"/>
<text text-anchor="start" x="382" y="-517.2" font-family="Helvetica,sans-Serif" font-size="11.00"> &#160;</text>
<polygon fill="#ffffff" stroke="none" points="392,-511 392,-529 439,-529 439,-511 392,-511"/>
<polygon fill="none" stroke="black" points="392,-511 392,-529 439,-529 439,-511 392,-511"/>
<text text-anchor="start" x="419" y="-517.2" font-family="Helvetica,sans-Serif" font-size="11.00">3 &gt;</text>
</a>
</g>
</g>
<!-- container_routes&#45;&gt;container_services -->
<g id="edge8" class="edge"><title>container_routes:elipses:w&#45;&gt;container_services:elipses:e</title>
<path fill="none" stroke="black" d="M565.811,-564.485C514.388,-560.752 498.371,-538 440,-538"/>
<polygon fill="black" stroke="black" points="572.505,-564.72 580.374,-568.598 576.502,-564.86 580.5,-565 580.5,-565 580.5,-565 576.502,-564.86 580.626,-561.402 572.505,-564.72 572.505,-564.72"/>
<ellipse fill="none" stroke="black" cx="569.307" cy="-564.607" rx="3.2" ry="3.2"/>
</g>
<!-- container_services&#45;&gt;container_projects -->
<g id="edge9" class="edge"><title>container_services:elipses:w&#45;&gt;container_projects:id:e</title>
<path fill="none" stroke="black" d="M269.282,-538.889C240.331,-542.725 229.781,-558.776 204,-583 180.462,-605.117 196.799,-644 164.5,-644"/>
<polygon fill="black" stroke="black" points="276.015,-538.482 284.217,-541.593 280.007,-538.241 284,-538 284,-538 284,-538 280.007,-538.241 283.783,-534.407 276.015,-538.482 276.015,-538.482"/>
<ellipse fill="none" stroke="black" cx="272.82" cy="-538.675" rx="3.2" ry="3.2"/>
</g>
<!-- container_templates -->
<g id="node9" class="node"><title>container_templates</title>
<g id="a_node9"><a xlink:href="../../tables/container_templates.html" xlink:title="container_templates" target="_top">
<polygon fill="#ffffff" stroke="none" points="278.5,-432 278.5,-490 445.5,-490 445.5,-432 278.5,-432"/>
<polygon fill="#f5f5f5" stroke="none" points="279,-468 279,-490 446,-490 446,-468 279,-468"/>
<polygon fill="none" stroke="black" points="279,-468 279,-490 446,-490 446,-468 279,-468"/>
<text text-anchor="start" x="284" y="-477.2" font-family="Helvetica,sans-Serif" font-weight="bold" font-size="11.00">container_templates</text>
<text text-anchor="start" x="407" y="-476.2" font-family="Helvetica,sans-Serif" font-size="11.00">[table]</text>
<polygon fill="none" stroke="black" points="279,-450 279,-468 446,-468 446,-450 279,-450"/>
<text text-anchor="start" x="282" y="-456.2" font-family="Helvetica,sans-Serif" font-size="11.00">...</text>
<polygon fill="#ffffff" stroke="none" points="279,-432 279,-450 356,-450 356,-432 279,-432"/>
<polygon fill="none" stroke="black" points="279,-432 279,-450 356,-450 356,-432 279,-432"/>
<text text-anchor="start" x="282" y="-438.2" font-family="Helvetica,sans-Serif" font-size="11.00">&lt; 1</text>
<polygon fill="#ffffff" stroke="none" points="356,-432 356,-450 396,-450 396,-432 356,-432"/>
<polygon fill="none" stroke="black" points="356,-432 356,-450 396,-450 396,-432 356,-432"/>
<text text-anchor="start" x="386" y="-438.2" font-family="Helvetica,sans-Serif" font-size="11.00"> &#160;</text>
<polygon fill="#ffffff" stroke="none" points="396,-432 396,-450 446,-450 446,-432 396,-432"/>
<polygon fill="none" stroke="black" points="396,-432 396,-450 446,-450 446,-432 396,-432"/>
<text text-anchor="start" x="426" y="-438.2" font-family="Helvetica,sans-Serif" font-size="11.00">1 &gt;</text>
</a>
</g>
</g>
<!-- container_templates&#45;&gt;container_projects -->
<g id="edge10" class="edge"><title>container_templates:elipses:w&#45;&gt;container_projects:id:e</title>
<path fill="none" stroke="black" d="M263.424,-459.737C236.341,-462.773 223.978,-475.367 204,-501 163.468,-553.006 230.436,-644 164.5,-644"/>
<polygon fill="black" stroke="black" points="270.01,-459.404 278.182,-462.595 274.005,-459.202 278,-459 278,-459 278,-459 274.005,-459.202 277.818,-455.405 270.01,-459.404 270.01,-459.404"/>
<ellipse fill="none" stroke="black" cx="266.814" cy="-459.566" rx="3.2" ry="3.2"/>
</g>
<!-- container_volumes -->
<g id="node10" class="node"><title>container_volumes</title>
<g id="a_node10"><a xlink:href="../../tables/container_volumes.html" xlink:title="container_volumes" target="_top">
<polygon fill="#ffffff" stroke="none" points="561,-329 561,-453 746,-453 746,-329 561,-329"/>
<polygon fill="#f5f5f5" stroke="none" points="561.5,-431 561.5,-453 746.5,-453 746.5,-431 561.5,-431"/>
<polygon fill="none" stroke="black" points="561.5,-431 561.5,-453 746.5,-453 746.5,-431 561.5,-431"/>
<text text-anchor="start" x="566.5" y="-440.2" font-family="Helvetica,sans-Serif" font-weight="bold" font-size="11.00">container_volumes</text>
<text text-anchor="start" x="707.5" y="-439.2" font-family="Helvetica,sans-Serif" font-size="11.00">[table]</text>
<polygon fill="none" stroke="black" points="561.5,-409 561.5,-431 746.5,-431 746.5,-409 561.5,-409"/>
<image xlink:href="../../images/primaryKeys.png" width="11px" height="12px" preserveAspectRatio="xMinYMin meet" x="566.5" y="-426"/>
<text text-anchor="start" x="581.5" y="-417.2" font-family="Helvetica,sans-Serif" font-size="11.00">id</text>
<polygon fill="#ffffff" stroke="none" points="561.5,-387 561.5,-409 746.5,-409 746.5,-387 561.5,-387"/>
<polygon fill="none" stroke="black" points="561.5,-387 561.5,-409 746.5,-409 746.5,-387 561.5,-387"/>
<text text-anchor="start" x="581.5" y="-395.2" font-family="Helvetica,sans-Serif" font-size="11.00">type</text>
<polygon fill="none" stroke="black" points="561.5,-365 561.5,-387 746.5,-387 746.5,-365 561.5,-365"/>
<image xlink:href="../../images/foreignKeys.png" width="11px" height="12px" preserveAspectRatio="xMinYMin meet" x="566.5" y="-382"/>
<text text-anchor="start" x="581.5" y="-373.2" font-family="Helvetica,sans-Serif" font-size="11.00">persistent_volume_claim_id</text>
<polygon fill="none" stroke="black" points="561.5,-347 561.5,-365 746.5,-365 746.5,-347 561.5,-347"/>
<text text-anchor="start" x="564.5" y="-353.2" font-family="Helvetica,sans-Serif" font-size="11.00">...</text>
<polygon fill="#ffffff" stroke="none" points="561.5,-329 561.5,-347 652.5,-347 652.5,-329 561.5,-329"/>
<polygon fill="none" stroke="black" points="561.5,-329 561.5,-347 652.5,-347 652.5,-329 561.5,-329"/>
<text text-anchor="start" x="564.5" y="-335.2" font-family="Helvetica,sans-Serif" font-size="11.00">&lt; 1</text>
<polygon fill="#ffffff" stroke="none" points="652.5,-329 652.5,-347 699.5,-347 699.5,-329 652.5,-329"/>
<polygon fill="none" stroke="black" points="652.5,-329 652.5,-347 699.5,-347 699.5,-329 652.5,-329"/>
<text text-anchor="start" x="689.5" y="-335.2" font-family="Helvetica,sans-Serif" font-size="11.00"> &#160;</text>
<polygon fill="#ffffff" stroke="none" points="699.5,-329 699.5,-347 746.5,-347 746.5,-329 699.5,-329"/>
<polygon fill="none" stroke="black" points="699.5,-329 699.5,-347 746.5,-347 746.5,-329 699.5,-329"/>
<text text-anchor="start" x="736.5" y="-335.2" font-family="Helvetica,sans-Serif" font-size="11.00"> &#160;</text>
</a>
</g>
</g>
<!-- persistent_volume_claims -->
<g id="node11" class="node"><title>persistent_volume_claims</title>
<g id="a_node11"><a xlink:href="../../tables/persistent_volume_claims.html" xlink:title="persistent_volume_claims" target="_top">
<polygon fill="#ffffff" stroke="none" points="212,-37 212,-411 512,-411 512,-37 212,-37"/>
<polygon fill="#f5f5f5" stroke="none" points="214,-387 214,-409 510,-409 510,-387 214,-387"/>
<polygon fill="none" stroke="black" points="214,-387 214,-409 510,-409 510,-387 214,-387"/>
<text text-anchor="start" x="219" y="-396.2" font-family="Helvetica,sans-Serif" font-weight="bold" font-size="11.00">persistent_volume_claims</text>
<text text-anchor="start" x="471" y="-395.2" font-family="Helvetica,sans-Serif" font-size="11.00">[table]</text>
<polygon fill="none" stroke="black" points="214,-365 214,-387 389,-387 389,-365 214,-365"/>
<image xlink:href="../../images/primaryKeys.png" width="11px" height="12px" preserveAspectRatio="xMinYMin meet" x="219" y="-382"/>
<text text-anchor="start" x="234" y="-373.2" font-family="Helvetica,sans-Serif" font-size="11.00">id</text>
<polygon fill="none" stroke="black" points="389,-365 389,-387 510,-387 510,-365 389,-365"/>
<text text-anchor="start" x="392" y="-373.2" font-family="Helvetica,sans-Serif" font-size="11.00">bigserial[19]</text>
<polygon fill="none" stroke="black" points="214,-343 214,-365 389,-365 389,-343 214,-343"/>
<text text-anchor="start" x="234" y="-351.2" font-family="Helvetica,sans-Serif" font-size="11.00">ems_id</text>
<polygon fill="none" stroke="black" points="389,-343 389,-365 510,-365 510,-343 389,-343"/>
<text text-anchor="start" x="392" y="-351.2" font-family="Helvetica,sans-Serif" font-size="11.00">int8[19]</text>
<polygon fill="none" stroke="black" points="214,-321 214,-343 389,-343 389,-321 214,-321"/>
<text text-anchor="start" x="234" y="-329.2" font-family="Helvetica,sans-Serif" font-size="11.00">ems_ref</text>
<polygon fill="none" stroke="black" points="389,-321 389,-343 510,-343 510,-321 389,-321"/>
<text text-anchor="start" x="392" y="-329.2" font-family="Helvetica,sans-Serif" font-size="11.00">varchar[2147483647]</text>
<polygon fill="none" stroke="black" points="214,-299 214,-321 389,-321 389,-299 214,-299"/>
<text text-anchor="start" x="234" y="-307.2" font-family="Helvetica,sans-Serif" font-size="11.00">name</text>
<polygon fill="none" stroke="black" points="389,-299 389,-321 510,-321 510,-299 389,-299"/>
<text text-anchor="start" x="392" y="-307.2" font-family="Helvetica,sans-Serif" font-size="11.00">varchar[2147483647]</text>
<polygon fill="none" stroke="black" points="214,-277 214,-299 389,-299 389,-277 214,-277"/>
<text text-anchor="start" x="234" y="-285.2" font-family="Helvetica,sans-Serif" font-size="11.00">ems_created_on</text>
<polygon fill="none" stroke="black" points="389,-277 389,-299 510,-299 510,-277 389,-277"/>
<text text-anchor="start" x="392" y="-285.2" font-family="Helvetica,sans-Serif" font-size="11.00">timestamp[29,6]</text>
<polygon fill="none" stroke="black" points="214,-255 214,-277 389,-277 389,-255 214,-255"/>
<text text-anchor="start" x="234" y="-263.2" font-family="Helvetica,sans-Serif" font-size="11.00">resource_version</text>
<polygon fill="none" stroke="black" points="389,-255 389,-277 510,-277 510,-255 389,-255"/>
<text text-anchor="start" x="392" y="-263.2" font-family="Helvetica,sans-Serif" font-size="11.00">varchar[2147483647]</text>
<polygon fill="none" stroke="black" points="214,-233 214,-255 389,-255 389,-233 214,-233"/>
<text text-anchor="start" x="234" y="-241.2" font-family="Helvetica,sans-Serif" font-size="11.00">desired_access_modes</text>
<polygon fill="none" stroke="black" points="389,-233 389,-255 510,-255 510,-233 389,-233"/>
<text text-anchor="start" x="392" y="-241.2" font-family="Helvetica,sans-Serif" font-size="11.00">_text[2147483647]</text>
<polygon fill="none" stroke="black" points="214,-211 214,-233 389,-233 389,-211 214,-211"/>
<text text-anchor="start" x="234" y="-219.2" font-family="Helvetica,sans-Serif" font-size="11.00">phase</text>
<polygon fill="none" stroke="black" points="389,-211 389,-233 510,-233 510,-211 389,-211"/>
<text text-anchor="start" x="392" y="-219.2" font-family="Helvetica,sans-Serif" font-size="11.00">varchar[2147483647]</text>
<polygon fill="none" stroke="black" points="214,-189 214,-211 389,-211 389,-189 214,-189"/>
<text text-anchor="start" x="234" y="-197.2" font-family="Helvetica,sans-Serif" font-size="11.00">actual_access_modes</text>
<polygon fill="none" stroke="black" points="389,-189 389,-211 510,-211 510,-189 389,-189"/>
<text text-anchor="start" x="392" y="-197.2" font-family="Helvetica,sans-Serif" font-size="11.00">_text[2147483647]</text>
<polygon fill="none" stroke="black" points="214,-167 214,-189 389,-189 389,-167 214,-167"/>
<text text-anchor="start" x="234" y="-175.2" font-family="Helvetica,sans-Serif" font-size="11.00">capacity</text>
<polygon fill="none" stroke="black" points="389,-167 389,-189 510,-189 510,-167 389,-167"/>
<text text-anchor="start" x="392" y="-175.2" font-family="Helvetica,sans-Serif" font-size="11.00">text[2147483647]</text>
<polygon fill="none" stroke="black" points="214,-145 214,-167 389,-167 389,-145 214,-145"/>
<text text-anchor="start" x="234" y="-153.2" font-family="Helvetica,sans-Serif" font-size="11.00">created_at</text>
<polygon fill="none" stroke="black" points="389,-145 389,-167 510,-167 510,-145 389,-145"/>
<text text-anchor="start" x="392" y="-153.2" font-family="Helvetica,sans-Serif" font-size="11.00">timestamp[29,6]</text>
<polygon fill="none" stroke="black" points="214,-123 214,-145 389,-145 389,-123 214,-123"/>
<text text-anchor="start" x="234" y="-131.2" font-family="Helvetica,sans-Serif" font-size="11.00">updated_at</text>
<polygon fill="none" stroke="black" points="389,-123 389,-145 510,-145 510,-123 389,-123"/>
<text text-anchor="start" x="392" y="-131.2" font-family="Helvetica,sans-Serif" font-size="11.00">timestamp[29,6]</text>
<polygon fill="none" stroke="black" points="214,-101 214,-123 389,-123 389,-101 214,-101"/>
<image xlink:href="../../images/foreignKeys.png" width="11px" height="12px" preserveAspectRatio="xMinYMin meet" x="219" y="-118"/>
<text text-anchor="start" x="234" y="-109.2" font-family="Helvetica,sans-Serif" font-size="11.00">container_project_id</text>
<polygon fill="none" stroke="black" points="389,-101 389,-123 510,-123 510,-101 389,-101"/>
<text text-anchor="start" x="392" y="-109.2" font-family="Helvetica,sans-Serif" font-size="11.00">int8[19]</text>
<polygon fill="none" stroke="black" points="214,-79 214,-101 389,-101 389,-79 214,-79"/>
<text text-anchor="start" x="234" y="-87.2" font-family="Helvetica,sans-Serif" font-size="11.00">requests</text>
<polygon fill="none" stroke="black" points="389,-79 389,-101 510,-101 510,-79 389,-79"/>
<text text-anchor="start" x="392" y="-87.2" font-family="Helvetica,sans-Serif" font-size="11.00">text[2147483647]</text>
<polygon fill="none" stroke="black" points="214,-57 214,-79 389,-79 389,-57 214,-57"/>
<text text-anchor="start" x="234" y="-65.2" font-family="Helvetica,sans-Serif" font-size="11.00">limits</text>
<polygon fill="none" stroke="black" points="389,-57 389,-79 510,-79 510,-57 389,-57"/>
<text text-anchor="start" x="392" y="-65.2" font-family="Helvetica,sans-Serif" font-size="11.00">text[2147483647]</text>
<polygon fill="#ffffff" stroke="none" points="214,-39 214,-57 306,-57 306,-39 214,-39"/>
<polygon fill="none" stroke="black" points="214,-39 214,-57 306,-57 306,-39 214,-39"/>
<text text-anchor="start" x="217" y="-45.2" font-family="Helvetica,sans-Serif" font-size="11.00">&lt; 1</text>
<polygon fill="#ffffff" stroke="none" points="306,-39 306,-57 389,-57 389,-39 306,-39"/>
<polygon fill="none" stroke="black" points="306,-39 306,-57 389,-57 389,-39 306,-39"/>
<text text-anchor="start" x="379" y="-45.2" font-family="Helvetica,sans-Serif" font-size="11.00"> &#160;</text>
<polygon fill="#ffffff" stroke="none" points="389,-39 389,-57 510,-57 510,-39 389,-39"/>
<polygon fill="none" stroke="black" points="389,-39 389,-57 510,-57 510,-39 389,-39"/>
<text text-anchor="start" x="490" y="-45.2" font-family="Helvetica,sans-Serif" font-size="11.00">1 &gt;</text>
<polygon fill="none" stroke="black" stroke-width="2" points="213,-38 213,-410 511,-410 511,-38 213,-38"/>
</a>
</g>
</g>
<!-- container_volumes&#45;&gt;persistent_volume_claims -->
<g id="edge11" class="edge"><title>container_volumes:persistent_volume_claim_id:w&#45;&gt;persistent_volume_claims:id.type:e</title>
<path fill="none" stroke="black" d="M545.843,-376C534.414,-376 527.156,-376 511,-376"/>
<polygon fill="black" stroke="black" points="552.5,-376 560.5,-379.6 556.5,-376 560.5,-376 560.5,-376 560.5,-376 556.5,-376 560.5,-372.4 552.5,-376 552.5,-376"/>
<ellipse fill="none" stroke="black" cx="549.3" cy="-376" rx="3.2" ry="3.2"/>
</g>
<!-- persistent_volume_claims&#45;&gt;container_projects -->
<g id="edge12" class="edge"><title>persistent_volume_claims:container_project_id:w&#45;&gt;container_projects:id:e</title>
<path fill="none" stroke="black" d="M201.577,-120.79C163.588,-189.96 219.335,-644 164.5,-644"/>
<polygon fill="black" stroke="black" points="206.66,-116.879 215.195,-114.853 209.83,-114.439 213,-112 213,-112 213,-112 209.83,-114.439 210.805,-109.147 206.66,-116.879 206.66,-116.879"/>
<ellipse fill="none" stroke="black" cx="204.124" cy="-118.83" rx="3.20001" ry="3.20001"/>
</g>
</g>
</svg>
