<?xml version="1.0" encoding="UTF-8" standalone="no"?>
<!DOCTYPE svg PUBLIC "-//W3C//DTD SVG 1.1//EN"
 "http://www.w3.org/Graphics/SVG/1.1/DTD/svg11.dtd">
<!-- Generated by graphviz version 2.38.0 (20140413.2041)
 -->
<!-- Title: oneDegreeRelationshipsDiagram Pages: 1 -->
<svg width="546pt" height="489pt"
 viewBox="0.00 0.00 546.00 489.00" xmlns="http://www.w3.org/2000/svg" xmlns:xlink="http://www.w3.org/1999/xlink">
<g id="graph0" class="graph" transform="scale(1 1) rotate(0) translate(4 485)">
<title>oneDegreeRelationshipsDiagram</title>
<polygon fill="#ffffff" stroke="none" points="-4,4 -4,-485 542,-485 542,4 -4,4"/>
<text text-anchor="middle" x="74.5" y="-7.2" font-family="Helvetica,sans-Serif" font-size="11.00">Generated by SchemaSpy</text>
<!-- physical_chassis -->
<g id="node1" class="node"><title>physical_chassis</title>
<g id="a_node1"><a xlink:href="../../tables/physical_chassis.html" xlink:title="physical_chassis" target="_top">
<polygon fill="#ffffff" stroke="none" points="187,-37 187,-477 530,-477 530,-37 187,-37"/>
<polygon fill="#f5f5f5" stroke="none" points="189.5,-453 189.5,-475 528.5,-475 528.5,-453 189.5,-453"/>
<polygon fill="none" stroke="black" points="189.5,-453 189.5,-475 528.5,-475 528.5,-453 189.5,-453"/>
<text text-anchor="start" x="194.5" y="-462.2" font-family="Helvetica,sans-Serif" font-weight="bold" font-size="11.00">physical_chassis</text>
<text text-anchor="start" x="489.5" y="-461.2" font-family="Helvetica,sans-Serif" font-size="11.00">[table]</text>
<polygon fill="none" stroke="black" points="189.5,-431 189.5,-453 407.5,-453 407.5,-431 189.5,-431"/>
<image xlink:href="../../images/primaryKeys.png" width="11px" height="12px" preserveAspectRatio="xMinYMin meet" x="194.5" y="-448"/>
<text text-anchor="start" x="209.5" y="-439.2" font-family="Helvetica,sans-Serif" font-size="11.00">id</text>
<polygon fill="none" stroke="black" points="407.5,-431 407.5,-453 528.5,-453 528.5,-431 407.5,-431"/>
<text text-anchor="start" x="410.5" y="-439.2" font-family="Helvetica,sans-Serif" font-size="11.00">bigserial[19]</text>
<polygon fill="none" stroke="black" points="189.5,-409 189.5,-431 407.5,-431 407.5,-409 189.5,-409"/>
<text text-anchor="start" x="209.5" y="-417.2" font-family="Helvetica,sans-Serif" font-size="11.00">ems_id</text>
<polygon fill="none" stroke="black" points="407.5,-409 407.5,-431 528.5,-431 528.5,-409 407.5,-409"/>
<text text-anchor="start" x="410.5" y="-417.2" font-family="Helvetica,sans-Serif" font-size="11.00">int8[19]</text>
<polygon fill="none" stroke="black" points="189.5,-387 189.5,-409 407.5,-409 407.5,-387 189.5,-387"/>
<text text-anchor="start" x="209.5" y="-395.2" font-family="Helvetica,sans-Serif" font-size="11.00">uid_ems</text>
<polygon fill="none" stroke="black" points="407.5,-387 407.5,-409 528.5,-409 528.5,-387 407.5,-387"/>
<text text-anchor="start" x="410.5" y="-395.2" font-family="Helvetica,sans-Serif" font-size="11.00">varchar[2147483647]</text>
<polygon fill="none" stroke="black" points="189.5,-365 189.5,-387 407.5,-387 407.5,-365 189.5,-365"/>
<text text-anchor="start" x="209.5" y="-373.2" font-family="Helvetica,sans-Serif" font-size="11.00">ems_ref</text>
<polygon fill="none" stroke="black" points="407.5,-365 407.5,-387 528.5,-387 528.5,-365 407.5,-365"/>
<text text-anchor="start" x="410.5" y="-373.2" font-family="Helvetica,sans-Serif" font-size="11.00">varchar[2147483647]</text>
<polygon fill="none" stroke="black" points="189.5,-343 189.5,-365 407.5,-365 407.5,-343 189.5,-343"/>
<image xlink:href="../../images/foreignKeys.png" width="11px" height="12px" preserveAspectRatio="xMinYMin meet" x="194.5" y="-360"/>
<text text-anchor="start" x="209.5" y="-351.2" font-family="Helvetica,sans-Serif" font-size="11.00">physical_rack_id</text>
<polygon fill="none" stroke="black" points="407.5,-343 407.5,-365 528.5,-365 528.5,-343 407.5,-343"/>
<text text-anchor="start" x="410.5" y="-351.2" font-family="Helvetica,sans-Serif" font-size="11.00">int8[19]</text>
<polygon fill="none" stroke="black" points="189.5,-321 189.5,-343 407.5,-343 407.5,-321 189.5,-321"/>
<text text-anchor="start" x="209.5" y="-329.2" font-family="Helvetica,sans-Serif" font-size="11.00">name</text>
<polygon fill="none" stroke="black" points="407.5,-321 407.5,-343 528.5,-343 528.5,-321 407.5,-321"/>
<text text-anchor="start" x="410.5" y="-329.2" font-family="Helvetica,sans-Serif" font-size="11.00">varchar[2147483647]</text>
<polygon fill="none" stroke="black" points="189.5,-299 189.5,-321 407.5,-321 407.5,-299 189.5,-299"/>
<text text-anchor="start" x="209.5" y="-307.2" font-family="Helvetica,sans-Serif" font-size="11.00">vendor</text>
<polygon fill="none" stroke="black" points="407.5,-299 407.5,-321 528.5,-321 528.5,-299 407.5,-299"/>
<text text-anchor="start" x="410.5" y="-307.2" font-family="Helvetica,sans-Serif" font-size="11.00">varchar[2147483647]</text>
<polygon fill="none" stroke="black" points="189.5,-277 189.5,-299 407.5,-299 407.5,-277 189.5,-277"/>
<text text-anchor="start" x="209.5" y="-285.2" font-family="Helvetica,sans-Serif" font-size="11.00">type</text>
<polygon fill="none" stroke="black" points="407.5,-277 407.5,-299 528.5,-299 528.5,-277 407.5,-277"/>
<text text-anchor="start" x="410.5" y="-285.2" font-family="Helvetica,sans-Serif" font-size="11.00">varchar[2147483647]</text>
<polygon fill="none" stroke="black" points="189.5,-255 189.5,-277 407.5,-277 407.5,-255 189.5,-255"/>
<text text-anchor="start" x="209.5" y="-263.2" font-family="Helvetica,sans-Serif" font-size="11.00">health_state</text>
<polygon fill="none" stroke="black" points="407.5,-255 407.5,-277 528.5,-277 528.5,-255 407.5,-255"/>
<text text-anchor="start" x="410.5" y="-263.2" font-family="Helvetica,sans-Serif" font-size="11.00">varchar[2147483647]</text>
<polygon fill="none" stroke="black" points="189.5,-233 189.5,-255 407.5,-255 407.5,-233 189.5,-233"/>
<text text-anchor="start" x="209.5" y="-241.2" font-family="Helvetica,sans-Serif" font-size="11.00">overall_health_state</text>
<polygon fill="none" stroke="black" points="407.5,-233 407.5,-255 528.5,-255 528.5,-233 407.5,-233"/>
<text text-anchor="start" x="410.5" y="-241.2" font-family="Helvetica,sans-Serif" font-size="11.00">varchar[2147483647]</text>
<polygon fill="none" stroke="black" points="189.5,-211 189.5,-233 407.5,-233 407.5,-211 189.5,-211"/>
<text text-anchor="start" x="209.5" y="-219.2" font-family="Helvetica,sans-Serif" font-size="11.00">management_module_slot_count</text>
<polygon fill="none" stroke="black" points="407.5,-211 407.5,-233 528.5,-233 528.5,-211 407.5,-211"/>
<text text-anchor="start" x="410.5" y="-219.2" font-family="Helvetica,sans-Serif" font-size="11.00">int4[10]</text>
<polygon fill="none" stroke="black" points="189.5,-189 189.5,-211 407.5,-211 407.5,-189 189.5,-189"/>
<text text-anchor="start" x="209.5" y="-197.2" font-family="Helvetica,sans-Serif" font-size="11.00">switch_slot_count</text>
<polygon fill="none" stroke="black" points="407.5,-189 407.5,-211 528.5,-211 528.5,-189 407.5,-189"/>
<text text-anchor="start" x="410.5" y="-197.2" font-family="Helvetica,sans-Serif" font-size="11.00">int4[10]</text>
<polygon fill="none" stroke="black" points="189.5,-167 189.5,-189 407.5,-189 407.5,-167 189.5,-167"/>
<text text-anchor="start" x="209.5" y="-175.2" font-family="Helvetica,sans-Serif" font-size="11.00">fan_slot_count</text>
<polygon fill="none" stroke="black" points="407.5,-167 407.5,-189 528.5,-189 528.5,-167 407.5,-167"/>
<text text-anchor="start" x="410.5" y="-175.2" font-family="Helvetica,sans-Serif" font-size="11.00">int4[10]</text>
<polygon fill="none" stroke="black" points="189.5,-145 189.5,-167 407.5,-167 407.5,-145 189.5,-145"/>
<text text-anchor="start" x="209.5" y="-153.2" font-family="Helvetica,sans-Serif" font-size="11.00">blade_slot_count</text>
<polygon fill="none" stroke="black" points="407.5,-145 407.5,-167 528.5,-167 528.5,-145 407.5,-145"/>
<text text-anchor="start" x="410.5" y="-153.2" font-family="Helvetica,sans-Serif" font-size="11.00">int4[10]</text>
<polygon fill="none" stroke="black" points="189.5,-123 189.5,-145 407.5,-145 407.5,-123 189.5,-123"/>
<text text-anchor="start" x="209.5" y="-131.2" font-family="Helvetica,sans-Serif" font-size="11.00">powersupply_slot_count</text>
<polygon fill="none" stroke="black" points="407.5,-123 407.5,-145 528.5,-145 528.5,-123 407.5,-123"/>
<text text-anchor="start" x="410.5" y="-131.2" font-family="Helvetica,sans-Serif" font-size="11.00">int4[10]</text>
<polygon fill="none" stroke="black" points="189.5,-101 189.5,-123 407.5,-123 407.5,-101 189.5,-101"/>
<text text-anchor="start" x="209.5" y="-109.2" font-family="Helvetica,sans-Serif" font-size="11.00">created_at</text>
<polygon fill="none" stroke="black" points="407.5,-101 407.5,-123 528.5,-123 528.5,-101 407.5,-101"/>
<text text-anchor="start" x="410.5" y="-109.2" font-family="Helvetica,sans-Serif" font-size="11.00">timestamp[29,6]</text>
<polygon fill="none" stroke="black" points="189.5,-79 189.5,-101 407.5,-101 407.5,-79 189.5,-79"/>
<text text-anchor="start" x="209.5" y="-87.2" font-family="Helvetica,sans-Serif" font-size="11.00">updated_at</text>
<polygon fill="none" stroke="black" points="407.5,-79 407.5,-101 528.5,-101 528.5,-79 407.5,-79"/>
<text text-anchor="start" x="410.5" y="-87.2" font-family="Helvetica,sans-Serif" font-size="11.00">timestamp[29,6]</text>
<polygon fill="none" stroke="black" points="189.5,-57 189.5,-79 407.5,-79 407.5,-57 189.5,-57"/>
<text text-anchor="start" x="209.5" y="-65.2" font-family="Helvetica,sans-Serif" font-size="11.00">parent_physical_chassis_id</text>
<polygon fill="none" stroke="black" points="407.5,-57 407.5,-79 528.5,-79 528.5,-57 407.5,-57"/>
<text text-anchor="start" x="410.5" y="-65.2" font-family="Helvetica,sans-Serif" font-size="11.00">int8[19]</text>
<polygon fill="#ffffff" stroke="none" points="189.5,-39 189.5,-57 303.5,-57 303.5,-39 189.5,-39"/>
<polygon fill="none" stroke="black" points="189.5,-39 189.5,-57 303.5,-57 303.5,-39 189.5,-39"/>
<text text-anchor="start" x="192.5" y="-45.2" font-family="Helvetica,sans-Serif" font-size="11.00">&lt; 1</text>
<polygon fill="#ffffff" stroke="none" points="303.5,-39 303.5,-57 407.5,-57 407.5,-39 303.5,-39"/>
<polygon fill="none" stroke="black" points="303.5,-39 303.5,-57 407.5,-57 407.5,-39 303.5,-39"/>
<text text-anchor="start" x="397.5" y="-45.2" font-family="Helvetica,sans-Serif" font-size="11.00"> &#160;</text>
<polygon fill="#ffffff" stroke="none" points="407.5,-39 407.5,-57 528.5,-57 528.5,-39 407.5,-39"/>
<polygon fill="none" stroke="black" points="407.5,-39 407.5,-57 528.5,-57 528.5,-39 407.5,-39"/>
<text text-anchor="start" x="508.5" y="-45.2" font-family="Helvetica,sans-Serif" font-size="11.00">0 &gt;</text>
<polygon fill="none" stroke="black" stroke-width="2" points="188,-38 188,-476 529,-476 529,-38 188,-38"/>
</a>
</g>
</g>
<!-- physical_racks -->
<g id="node2" class="node"><title>physical_racks</title>
<g id="a_node2"><a xlink:href="../../tables/physical_racks.html" xlink:title="physical_racks" target="_top">
<polygon fill="#ffffff" stroke="none" points="8,-307 8,-387 138,-387 138,-307 8,-307"/>
<polygon fill="#f5f5f5" stroke="none" points="8,-365 8,-387 138,-387 138,-365 8,-365"/>
<polygon fill="none" stroke="black" points="8,-365 8,-387 138,-387 138,-365 8,-365"/>
<text text-anchor="start" x="13" y="-374.2" font-family="Helvetica,sans-Serif" font-weight="bold" font-size="11.00">physical_racks</text>
<text text-anchor="start" x="99" y="-373.2" font-family="Helvetica,sans-Serif" font-size="11.00">[table]</text>
<polygon fill="none" stroke="black" points="8,-343 8,-365 138,-365 138,-343 8,-343"/>
<image xlink:href="../../images/primaryKeys.png" width="11px" height="12px" preserveAspectRatio="xMinYMin meet" x="13" y="-360"/>
<text text-anchor="start" x="40" y="-351.2" font-family="Helvetica,sans-Serif" font-size="11.00">id</text>
<polygon fill="none" stroke="black" points="8,-325 8,-343 138,-343 138,-325 8,-325"/>
<text text-anchor="start" x="11" y="-331.2" font-family="Helvetica,sans-Serif" font-size="11.00">...</text>
<polygon fill="#ffffff" stroke="none" points="8,-307 8,-325 61,-325 61,-307 8,-307"/>
<polygon fill="none" stroke="black" points="8,-307 8,-325 61,-325 61,-307 8,-307"/>
<text text-anchor="start" x="11" y="-313.2" font-family="Helvetica,sans-Serif" font-size="11.00"> &#160;</text>
<polygon fill="#ffffff" stroke="none" points="61,-307 61,-325 94,-325 94,-307 61,-307"/>
<polygon fill="none" stroke="black" points="61,-307 61,-325 94,-325 94,-307 61,-307"/>
<text text-anchor="start" x="84" y="-313.2" font-family="Helvetica,sans-Serif" font-size="11.00"> &#160;</text>
<polygon fill="#ffffff" stroke="none" points="94,-307 94,-325 138,-325 138,-307 94,-307"/>
<polygon fill="none" stroke="black" points="94,-307 94,-325 138,-325 138,-307 94,-307"/>
<text text-anchor="start" x="118" y="-313.2" font-family="Helvetica,sans-Serif" font-size="11.00">3 &gt;</text>
</a>
</g>
</g>
<!-- physical_chassis&#45;&gt;physical_racks -->
<g id="edge1" class="edge"><title>physical_chassis:physical_rack_id:w&#45;&gt;physical_racks:id:e</title>
<path fill="none" stroke="black" d="M173.843,-354C162.414,-354 155.156,-354 139,-354"/>
<polygon fill="black" stroke="black" points="180.5,-354 188.5,-357.6 184.5,-354 188.5,-354 188.5,-354 188.5,-354 184.5,-354 188.5,-350.4 180.5,-354 180.5,-354"/>
<ellipse fill="none" stroke="black" cx="177.3" cy="-354" rx="3.2" ry="3.2"/>
</g>
</g>
</svg>
