<?xml version="1.0" encoding="UTF-8" standalone="no"?>
<!DOCTYPE svg PUBLIC "-//W3C//DTD SVG 1.1//EN"
 "http://www.w3.org/Graphics/SVG/1.1/DTD/svg11.dtd">
<!-- Generated by graphviz version 2.38.0 (20140413.2041)
 -->
<!-- Title: twoDegreesRelationshipsDiagram Pages: 1 -->
<svg width="947pt" height="524pt"
 viewBox="0.00 0.00 947.00 524.00" xmlns="http://www.w3.org/2000/svg" xmlns:xlink="http://www.w3.org/1999/xlink">
<g id="graph0" class="graph" transform="scale(1 1) rotate(0) translate(4 520)">
<title>twoDegreesRelationshipsDiagram</title>
<polygon fill="#ffffff" stroke="none" points="-4,4 -4,-520 943,-520 943,4 -4,4"/>
<text text-anchor="middle" x="74.5" y="-7.2" font-family="Helvetica,sans-Serif" font-size="11.00">Generated by SchemaSpy</text>
<!-- canisters -->
<g id="node1" class="node"><title>canisters</title>
<g id="a_node1"><a xlink:href="../../tables/canisters.html" xlink:title="canisters" target="_top">
<polygon fill="#ffffff" stroke="none" points="616.5,-269 616.5,-327 716.5,-327 716.5,-269 616.5,-269"/>
<polygon fill="#f5f5f5" stroke="none" points="616.5,-305 616.5,-327 716.5,-327 716.5,-305 616.5,-305"/>
<polygon fill="none" stroke="black" points="616.5,-305 616.5,-327 716.5,-327 716.5,-305 616.5,-305"/>
<text text-anchor="start" x="621.5" y="-314.2" font-family="Helvetica,sans-Serif" font-weight="bold" font-size="11.00">canisters</text>
<text text-anchor="start" x="677.5" y="-313.2" font-family="Helvetica,sans-Serif" font-size="11.00">[table]</text>
<polygon fill="none" stroke="black" points="616.5,-287 616.5,-305 716.5,-305 716.5,-287 616.5,-287"/>
<text text-anchor="start" x="619.5" y="-293.2" font-family="Helvetica,sans-Serif" font-size="11.00">...</text>
<polygon fill="#ffffff" stroke="none" points="616.5,-269 616.5,-287 659.5,-287 659.5,-269 616.5,-269"/>
<polygon fill="none" stroke="black" points="616.5,-269 616.5,-287 659.5,-287 659.5,-269 616.5,-269"/>
<text text-anchor="start" x="619.5" y="-275.2" font-family="Helvetica,sans-Serif" font-size="11.00">&lt; 1</text>
<polygon fill="#ffffff" stroke="none" points="659.5,-269 659.5,-287 682.5,-287 682.5,-269 659.5,-269"/>
<polygon fill="none" stroke="black" points="659.5,-269 659.5,-287 682.5,-287 682.5,-269 659.5,-269"/>
<text text-anchor="start" x="672.5" y="-275.2" font-family="Helvetica,sans-Serif" font-size="11.00"> &#160;</text>
<polygon fill="#ffffff" stroke="none" points="682.5,-269 682.5,-287 716.5,-287 716.5,-269 682.5,-269"/>
<polygon fill="none" stroke="black" points="682.5,-269 682.5,-287 716.5,-287 716.5,-269 682.5,-269"/>
<text text-anchor="start" x="696.5" y="-275.2" font-family="Helvetica,sans-Serif" font-size="11.00">2 &gt;</text>
</a>
</g>
</g>
<!-- physical_storages -->
<g id="node2" class="node"><title>physical_storages</title>
<g id="a_node2"><a xlink:href="../../tables/physical_storages.html" xlink:title="physical_storages" target="_top">
<polygon fill="#ffffff" stroke="none" points="354,-205 354,-329 533,-329 533,-205 354,-205"/>
<polygon fill="#f5f5f5" stroke="none" points="354.5,-307 354.5,-329 533.5,-329 533.5,-307 354.5,-307"/>
<polygon fill="none" stroke="black" points="354.5,-307 354.5,-329 533.5,-329 533.5,-307 354.5,-307"/>
<text text-anchor="start" x="359.5" y="-316.2" font-family="Helvetica,sans-Serif" font-weight="bold" font-size="11.00">physical_storages</text>
<text text-anchor="start" x="494.5" y="-315.2" font-family="Helvetica,sans-Serif" font-size="11.00">[table]</text>
<polygon fill="none" stroke="black" points="354.5,-285 354.5,-307 533.5,-307 533.5,-285 354.5,-285"/>
<image xlink:href="../../images/primaryKeys.png" width="11px" height="12px" preserveAspectRatio="xMinYMin meet" x="359.5" y="-302"/>
<text text-anchor="start" x="374.5" y="-293.2" font-family="Helvetica,sans-Serif" font-size="11.00">id</text>
<polygon fill="none" stroke="black" points="354.5,-263 354.5,-285 533.5,-285 533.5,-263 354.5,-263"/>
<image xlink:href="../../images/foreignKeys.png" width="11px" height="12px" preserveAspectRatio="xMinYMin meet" x="359.5" y="-280"/>
<text text-anchor="start" x="374.5" y="-271.2" font-family="Helvetica,sans-Serif" font-size="11.00">physical_rack_id</text>
<polygon fill="#ffffff" stroke="none" points="354.5,-241 354.5,-263 533.5,-263 533.5,-241 354.5,-241"/>
<polygon fill="none" stroke="black" points="354.5,-241 354.5,-263 533.5,-263 533.5,-241 354.5,-241"/>
<image xlink:href="../../images/foreignKeys.png" width="11px" height="12px" preserveAspectRatio="xMinYMin meet" x="359.5" y="-258"/>
<text text-anchor="start" x="374.5" y="-249.2" font-family="Helvetica,sans-Serif" font-size="11.00">physical_storage_family_id</text>
<polygon fill="none" stroke="black" points="354.5,-223 354.5,-241 533.5,-241 533.5,-223 354.5,-223"/>
<text text-anchor="start" x="357.5" y="-229.2" font-family="Helvetica,sans-Serif" font-size="11.00">...</text>
<polygon fill="#ffffff" stroke="none" points="354.5,-205 354.5,-223 437.5,-223 437.5,-205 354.5,-205"/>
<polygon fill="none" stroke="black" points="354.5,-205 354.5,-223 437.5,-223 437.5,-205 354.5,-205"/>
<text text-anchor="start" x="357.5" y="-211.2" font-family="Helvetica,sans-Serif" font-size="11.00">&lt; 2</text>
<polygon fill="#ffffff" stroke="none" points="437.5,-205 437.5,-223 480.5,-223 480.5,-205 437.5,-205"/>
<polygon fill="none" stroke="black" points="437.5,-205 437.5,-223 480.5,-223 480.5,-205 437.5,-205"/>
<text text-anchor="start" x="470.5" y="-211.2" font-family="Helvetica,sans-Serif" font-size="11.00"> &#160;</text>
<polygon fill="#ffffff" stroke="none" points="480.5,-205 480.5,-223 533.5,-223 533.5,-205 480.5,-205"/>
<polygon fill="none" stroke="black" points="480.5,-205 480.5,-223 533.5,-223 533.5,-205 480.5,-205"/>
<text text-anchor="start" x="513.5" y="-211.2" font-family="Helvetica,sans-Serif" font-size="11.00">7 &gt;</text>
</a>
</g>
</g>
<!-- canisters&#45;&gt;physical_storages -->
<g id="edge1" class="edge"><title>canisters:elipses:w&#45;&gt;physical_storages:id:e</title>
<path fill="none" stroke="black" d="M601.077,-296C576.233,-296 565.156,-296 534.5,-296"/>
<polygon fill="black" stroke="black" points="607.5,-296 615.5,-299.6 611.5,-296 615.5,-296 615.5,-296 615.5,-296 611.5,-296 615.5,-292.4 607.5,-296 607.5,-296"/>
<ellipse fill="none" stroke="black" cx="604.3" cy="-296" rx="3.2" ry="3.2"/>
</g>
<!-- physical_racks -->
<g id="node7" class="node"><title>physical_racks</title>
<g id="a_node7"><a xlink:href="../../tables/physical_racks.html" xlink:title="physical_racks" target="_top">
<polygon fill="#ffffff" stroke="none" points="91.5,-278 91.5,-336 221.5,-336 221.5,-278 91.5,-278"/>
<polygon fill="#f5f5f5" stroke="none" points="91.5,-314 91.5,-336 221.5,-336 221.5,-314 91.5,-314"/>
<polygon fill="none" stroke="black" points="91.5,-314 91.5,-336 221.5,-336 221.5,-314 91.5,-314"/>
<text text-anchor="start" x="96.5" y="-323.2" font-family="Helvetica,sans-Serif" font-weight="bold" font-size="11.00">physical_racks</text>
<text text-anchor="start" x="182.5" y="-322.2" font-family="Helvetica,sans-Serif" font-size="11.00">[table]</text>
<polygon fill="none" stroke="black" points="91.5,-296 91.5,-314 221.5,-314 221.5,-296 91.5,-296"/>
<text text-anchor="start" x="94.5" y="-302.2" font-family="Helvetica,sans-Serif" font-size="11.00">...</text>
<polygon fill="#ffffff" stroke="none" points="91.5,-278 91.5,-296 144.5,-296 144.5,-278 91.5,-278"/>
<polygon fill="none" stroke="black" points="91.5,-278 91.5,-296 144.5,-296 144.5,-278 91.5,-278"/>
<text text-anchor="start" x="94.5" y="-284.2" font-family="Helvetica,sans-Serif" font-size="11.00"> &#160;</text>
<polygon fill="#ffffff" stroke="none" points="144.5,-278 144.5,-296 177.5,-296 177.5,-278 144.5,-278"/>
<polygon fill="none" stroke="black" points="144.5,-278 144.5,-296 177.5,-296 177.5,-278 144.5,-278"/>
<text text-anchor="start" x="167.5" y="-284.2" font-family="Helvetica,sans-Serif" font-size="11.00"> &#160;</text>
<polygon fill="#ffffff" stroke="none" points="177.5,-278 177.5,-296 221.5,-296 221.5,-278 177.5,-278"/>
<polygon fill="none" stroke="black" points="177.5,-278 177.5,-296 221.5,-296 221.5,-278 177.5,-278"/>
<text text-anchor="start" x="201.5" y="-284.2" font-family="Helvetica,sans-Serif" font-size="11.00">3 &gt;</text>
</a>
</g>
</g>
<!-- physical_storages&#45;&gt;physical_racks -->
<g id="edge8" class="edge"><title>physical_storages:physical_rack_id:w&#45;&gt;physical_racks:elipses:e</title>
<path fill="none" stroke="black" d="M339.088,-274.647C291.363,-279.099 277.189,-305 222.5,-305"/>
<polygon fill="black" stroke="black" points="345.508,-274.359 353.662,-277.596 349.504,-274.18 353.5,-274 353.5,-274 353.5,-274 349.504,-274.18 353.338,-270.404 345.508,-274.359 345.508,-274.359"/>
<ellipse fill="none" stroke="black" cx="342.311" cy="-274.503" rx="3.2" ry="3.2"/>
</g>
<!-- physical_storage_families -->
<g id="node8" class="node"><title>physical_storage_families</title>
<g id="a_node8"><a xlink:href="../../tables/physical_storage_families.html" xlink:title="physical_storage_families" target="_top">
<polygon fill="#ffffff" stroke="none" points="8,-37 8,-257 305,-257 305,-37 8,-37"/>
<polygon fill="#f5f5f5" stroke="none" points="10.5,-233 10.5,-255 303.5,-255 303.5,-233 10.5,-233"/>
<polygon fill="none" stroke="black" points="10.5,-233 10.5,-255 303.5,-255 303.5,-233 10.5,-233"/>
<text text-anchor="start" x="15.5" y="-242.2" font-family="Helvetica,sans-Serif" font-weight="bold" font-size="11.00">physical_storage_families</text>
<text text-anchor="start" x="264.5" y="-241.2" font-family="Helvetica,sans-Serif" font-size="11.00">[table]</text>
<polygon fill="none" stroke="black" points="10.5,-211 10.5,-233 182.5,-233 182.5,-211 10.5,-211"/>
<image xlink:href="../../images/primaryKeys.png" width="11px" height="12px" preserveAspectRatio="xMinYMin meet" x="15.5" y="-228"/>
<text text-anchor="start" x="30.5" y="-219.2" font-family="Helvetica,sans-Serif" font-size="11.00">id</text>
<polygon fill="none" stroke="black" points="182.5,-211 182.5,-233 303.5,-233 303.5,-211 182.5,-211"/>
<text text-anchor="start" x="185.5" y="-219.2" font-family="Helvetica,sans-Serif" font-size="11.00">bigserial[19]</text>
<polygon fill="none" stroke="black" points="10.5,-189 10.5,-211 182.5,-211 182.5,-189 10.5,-189"/>
<text text-anchor="start" x="30.5" y="-197.2" font-family="Helvetica,sans-Serif" font-size="11.00">name</text>
<polygon fill="none" stroke="black" points="182.5,-189 182.5,-211 303.5,-211 303.5,-189 182.5,-189"/>
<text text-anchor="start" x="185.5" y="-197.2" font-family="Helvetica,sans-Serif" font-size="11.00">varchar[2147483647]</text>
<polygon fill="none" stroke="black" points="10.5,-167 10.5,-189 182.5,-189 182.5,-167 10.5,-167"/>
<text text-anchor="start" x="30.5" y="-175.2" font-family="Helvetica,sans-Serif" font-size="11.00">version</text>
<polygon fill="none" stroke="black" points="182.5,-167 182.5,-189 303.5,-189 303.5,-167 182.5,-167"/>
<text text-anchor="start" x="185.5" y="-175.2" font-family="Helvetica,sans-Serif" font-size="11.00">varchar[2147483647]</text>
<polygon fill="#ffffff" stroke="none" points="10.5,-145 10.5,-167 182.5,-167 182.5,-145 10.5,-145"/>
<polygon fill="none" stroke="black" points="10.5,-145 10.5,-167 182.5,-167 182.5,-145 10.5,-145"/>
<text text-anchor="start" x="30.5" y="-153.2" font-family="Helvetica,sans-Serif" font-size="11.00">ems_id</text>
<polygon fill="none" stroke="black" points="182.5,-145 182.5,-167 303.5,-167 303.5,-145 182.5,-145"/>
<text text-anchor="start" x="185.5" y="-153.2" font-family="Helvetica,sans-Serif" font-size="11.00">int8[19]</text>
<polygon fill="none" stroke="black" points="10.5,-123 10.5,-145 182.5,-145 182.5,-123 10.5,-123"/>
<text text-anchor="start" x="30.5" y="-131.2" font-family="Helvetica,sans-Serif" font-size="11.00">ems_ref</text>
<polygon fill="none" stroke="black" points="182.5,-123 182.5,-145 303.5,-145 303.5,-123 182.5,-123"/>
<text text-anchor="start" x="185.5" y="-131.2" font-family="Helvetica,sans-Serif" font-size="11.00">varchar[2147483647]</text>
<polygon fill="none" stroke="black" points="10.5,-101 10.5,-123 182.5,-123 182.5,-101 10.5,-101"/>
<text text-anchor="start" x="30.5" y="-109.2" font-family="Helvetica,sans-Serif" font-size="11.00">created_at</text>
<polygon fill="none" stroke="black" points="182.5,-101 182.5,-123 303.5,-123 303.5,-101 182.5,-101"/>
<text text-anchor="start" x="185.5" y="-109.2" font-family="Helvetica,sans-Serif" font-size="11.00">timestamp[29,6]</text>
<polygon fill="none" stroke="black" points="10.5,-79 10.5,-101 182.5,-101 182.5,-79 10.5,-79"/>
<text text-anchor="start" x="30.5" y="-87.2" font-family="Helvetica,sans-Serif" font-size="11.00">updated_at</text>
<polygon fill="none" stroke="black" points="182.5,-79 182.5,-101 303.5,-101 303.5,-79 182.5,-79"/>
<text text-anchor="start" x="185.5" y="-87.2" font-family="Helvetica,sans-Serif" font-size="11.00">timestamp[29,6]</text>
<polygon fill="none" stroke="black" points="10.5,-57 10.5,-79 182.5,-79 182.5,-57 10.5,-57"/>
<text text-anchor="start" x="30.5" y="-65.2" font-family="Helvetica,sans-Serif" font-size="11.00">capabilities</text>
<polygon fill="none" stroke="black" points="182.5,-57 182.5,-79 303.5,-79 303.5,-57 182.5,-57"/>
<text text-anchor="start" x="185.5" y="-65.2" font-family="Helvetica,sans-Serif" font-size="11.00">jsonb[2147483647]</text>
<polygon fill="#ffffff" stroke="none" points="10.5,-39 10.5,-57 101.5,-57 101.5,-39 10.5,-39"/>
<polygon fill="none" stroke="black" points="10.5,-39 10.5,-57 101.5,-57 101.5,-39 10.5,-39"/>
<text text-anchor="start" x="13.5" y="-45.2" font-family="Helvetica,sans-Serif" font-size="11.00">&lt; 0</text>
<polygon fill="#ffffff" stroke="none" points="101.5,-39 101.5,-57 182.5,-57 182.5,-39 101.5,-39"/>
<polygon fill="none" stroke="black" points="101.5,-39 101.5,-57 182.5,-57 182.5,-39 101.5,-39"/>
<text text-anchor="start" x="172.5" y="-45.2" font-family="Helvetica,sans-Serif" font-size="11.00"> &#160;</text>
<polygon fill="#ffffff" stroke="none" points="182.5,-39 182.5,-57 303.5,-57 303.5,-39 182.5,-39"/>
<polygon fill="none" stroke="black" points="182.5,-39 182.5,-57 303.5,-57 303.5,-39 182.5,-39"/>
<text text-anchor="start" x="283.5" y="-45.2" font-family="Helvetica,sans-Serif" font-size="11.00">1 &gt;</text>
<polygon fill="none" stroke="black" stroke-width="2" points="9,-38 9,-256 304,-256 304,-38 9,-38"/>
</a>
</g>
</g>
<!-- physical_storages&#45;&gt;physical_storage_families -->
<g id="edge9" class="edge"><title>physical_storages:physical_storage_family_id:w&#45;&gt;physical_storage_families:id.type:e</title>
<path fill="none" stroke="black" d="M339.384,-247.829C327.419,-239.585 324.05,-222 304.5,-222"/>
<polygon fill="black" stroke="black" points="345.828,-249.733 352.48,-255.452 349.664,-250.866 353.5,-252 353.5,-252 353.5,-252 349.664,-250.866 354.52,-248.548 345.828,-249.733 345.828,-249.733"/>
<ellipse fill="none" stroke="black" cx="342.759" cy="-248.826" rx="3.20001" ry="3.20001"/>
</g>
<!-- event_streams -->
<g id="node3" class="node"><title>event_streams</title>
<g id="a_node3"><a xlink:href="../../tables/event_streams.html" xlink:title="event_streams" target="_top">
<polygon fill="#ffffff" stroke="none" points="600.5,-454 600.5,-512 732.5,-512 732.5,-454 600.5,-454"/>
<polygon fill="#f5f5f5" stroke="none" points="600.5,-490 600.5,-512 732.5,-512 732.5,-490 600.5,-490"/>
<polygon fill="none" stroke="black" points="600.5,-490 600.5,-512 732.5,-512 732.5,-490 600.5,-490"/>
<text text-anchor="start" x="605.5" y="-499.2" font-family="Helvetica,sans-Serif" font-weight="bold" font-size="11.00">event_streams</text>
<text text-anchor="start" x="693.5" y="-498.2" font-family="Helvetica,sans-Serif" font-size="11.00">[table]</text>
<polygon fill="none" stroke="black" points="600.5,-472 600.5,-490 732.5,-490 732.5,-472 600.5,-472"/>
<text text-anchor="start" x="603.5" y="-478.2" font-family="Helvetica,sans-Serif" font-size="11.00">...</text>
<polygon fill="#ffffff" stroke="none" points="600.5,-454 600.5,-472 668.5,-472 668.5,-454 600.5,-454"/>
<polygon fill="none" stroke="black" points="600.5,-454 600.5,-472 668.5,-472 668.5,-454 600.5,-454"/>
<text text-anchor="start" x="603.5" y="-460.2" font-family="Helvetica,sans-Serif" font-size="11.00">&lt; 11</text>
<polygon fill="#ffffff" stroke="none" points="668.5,-454 668.5,-472 700.5,-472 700.5,-454 668.5,-454"/>
<polygon fill="none" stroke="black" points="668.5,-454 668.5,-472 700.5,-472 700.5,-454 668.5,-454"/>
<text text-anchor="start" x="690.5" y="-460.2" font-family="Helvetica,sans-Serif" font-size="11.00"> &#160;</text>
<polygon fill="#ffffff" stroke="none" points="700.5,-454 700.5,-472 732.5,-472 732.5,-454 700.5,-454"/>
<polygon fill="none" stroke="black" points="700.5,-454 700.5,-472 732.5,-472 732.5,-454 700.5,-454"/>
<text text-anchor="start" x="722.5" y="-460.2" font-family="Helvetica,sans-Serif" font-size="11.00"> &#160;</text>
</a>
</g>
</g>
<!-- event_streams&#45;&gt;physical_storages -->
<g id="edge2" class="edge"><title>event_streams:elipses:w&#45;&gt;physical_storages:id:e</title>
<path fill="none" stroke="black" d="M584.992,-478.793C525.624,-457.921 616.033,-296 534.5,-296"/>
<polygon fill="black" stroke="black" points="591.591,-479.797 598.959,-484.559 595.545,-480.399 599.5,-481 599.5,-481 599.5,-481 595.545,-480.399 600.041,-477.441 591.591,-479.797 591.591,-479.797"/>
<ellipse fill="none" stroke="black" cx="588.427" cy="-479.316" rx="3.2" ry="3.2"/>
</g>
<!-- host_initiator_groups -->
<g id="node4" class="node"><title>host_initiator_groups</title>
<g id="a_node4"><a xlink:href="../../tables/host_initiator_groups.html" xlink:title="host_initiator_groups" target="_top">
<polygon fill="#ffffff" stroke="none" points="582,-348 582,-406 751,-406 751,-348 582,-348"/>
<polygon fill="#f5f5f5" stroke="none" points="582.5,-384 582.5,-406 751.5,-406 751.5,-384 582.5,-384"/>
<polygon fill="none" stroke="black" points="582.5,-384 582.5,-406 751.5,-406 751.5,-384 582.5,-384"/>
<text text-anchor="start" x="587.5" y="-393.2" font-family="Helvetica,sans-Serif" font-weight="bold" font-size="11.00">host_initiator_groups</text>
<text text-anchor="start" x="712.5" y="-392.2" font-family="Helvetica,sans-Serif" font-size="11.00">[table]</text>
<polygon fill="none" stroke="black" points="582.5,-366 582.5,-384 751.5,-384 751.5,-366 582.5,-366"/>
<text text-anchor="start" x="585.5" y="-372.2" font-family="Helvetica,sans-Serif" font-size="11.00">...</text>
<polygon fill="#ffffff" stroke="none" points="582.5,-348 582.5,-366 660.5,-366 660.5,-348 582.5,-348"/>
<polygon fill="none" stroke="black" points="582.5,-348 582.5,-366 660.5,-366 660.5,-348 582.5,-348"/>
<text text-anchor="start" x="585.5" y="-354.2" font-family="Helvetica,sans-Serif" font-size="11.00">&lt; 1</text>
<polygon fill="#ffffff" stroke="none" points="660.5,-348 660.5,-366 700.5,-366 700.5,-348 660.5,-348"/>
<polygon fill="none" stroke="black" points="660.5,-348 660.5,-366 700.5,-366 700.5,-348 660.5,-348"/>
<text text-anchor="start" x="690.5" y="-354.2" font-family="Helvetica,sans-Serif" font-size="11.00"> &#160;</text>
<polygon fill="#ffffff" stroke="none" points="700.5,-348 700.5,-366 751.5,-366 751.5,-348 700.5,-348"/>
<polygon fill="none" stroke="black" points="700.5,-348 700.5,-366 751.5,-366 751.5,-348 700.5,-348"/>
<text text-anchor="start" x="731.5" y="-354.2" font-family="Helvetica,sans-Serif" font-size="11.00">2 &gt;</text>
</a>
</g>
</g>
<!-- host_initiator_groups&#45;&gt;physical_storages -->
<g id="edge3" class="edge"><title>host_initiator_groups:elipses:w&#45;&gt;physical_storages:id:e</title>
<path fill="none" stroke="black" d="M567.807,-370.295C549.285,-353.288 569.291,-296 534.5,-296"/>
<polygon fill="black" stroke="black" points="573.934,-372.4 580.33,-378.405 577.717,-373.7 581.5,-375 581.5,-375 581.5,-375 577.717,-373.7 582.67,-371.595 573.934,-372.4 573.934,-372.4"/>
<ellipse fill="none" stroke="black" cx="570.908" cy="-371.36" rx="3.20001" ry="3.20001"/>
</g>
<!-- host_initiators -->
<g id="node5" class="node"><title>host_initiators</title>
<g id="a_node5"><a xlink:href="../../tables/host_initiators.html" xlink:title="host_initiators" target="_top">
<polygon fill="#ffffff" stroke="none" points="800,-360 800,-418 931,-418 931,-360 800,-360"/>
<polygon fill="#f5f5f5" stroke="none" points="800.5,-396 800.5,-418 931.5,-418 931.5,-396 800.5,-396"/>
<polygon fill="none" stroke="black" points="800.5,-396 800.5,-418 931.5,-418 931.5,-396 800.5,-396"/>
<text text-anchor="start" x="805.5" y="-405.2" font-family="Helvetica,sans-Serif" font-weight="bold" font-size="11.00">host_initiators</text>
<text text-anchor="start" x="892.5" y="-404.2" font-family="Helvetica,sans-Serif" font-size="11.00">[table]</text>
<polygon fill="none" stroke="black" points="800.5,-378 800.5,-396 931.5,-396 931.5,-378 800.5,-378"/>
<text text-anchor="start" x="803.5" y="-384.2" font-family="Helvetica,sans-Serif" font-size="11.00">...</text>
<polygon fill="#ffffff" stroke="none" points="800.5,-360 800.5,-378 859.5,-378 859.5,-360 800.5,-360"/>
<polygon fill="none" stroke="black" points="800.5,-360 800.5,-378 859.5,-378 859.5,-360 800.5,-360"/>
<text text-anchor="start" x="803.5" y="-366.2" font-family="Helvetica,sans-Serif" font-size="11.00">&lt; 2</text>
<polygon fill="#ffffff" stroke="none" points="859.5,-360 859.5,-378 890.5,-378 890.5,-360 859.5,-360"/>
<polygon fill="none" stroke="black" points="859.5,-360 859.5,-378 890.5,-378 890.5,-360 859.5,-360"/>
<text text-anchor="start" x="880.5" y="-366.2" font-family="Helvetica,sans-Serif" font-size="11.00"> &#160;</text>
<polygon fill="#ffffff" stroke="none" points="890.5,-360 890.5,-378 931.5,-378 931.5,-360 890.5,-360"/>
<polygon fill="none" stroke="black" points="890.5,-360 890.5,-378 931.5,-378 931.5,-360 890.5,-360"/>
<text text-anchor="start" x="911.5" y="-366.2" font-family="Helvetica,sans-Serif" font-size="11.00">1 &gt;</text>
</a>
</g>
</g>
<!-- host_initiators&#45;&gt;physical_storages -->
<g id="edge5" class="edge"><title>host_initiators:elipses:w&#45;&gt;physical_storages:id:e</title>
<path fill="none" stroke="black" d="M785.555,-391.587C776.95,-398.664 774.289,-411.954 759,-417 719.96,-429.884 607.276,-441.142 574,-417 528.21,-383.78 591.071,-296 534.5,-296"/>
<polygon fill="black" stroke="black" points="791.901,-389.5 800.625,-390.42 795.7,-388.25 799.5,-387 799.5,-387 799.5,-387 795.7,-388.25 798.375,-383.58 791.901,-389.5 791.901,-389.5"/>
<ellipse fill="none" stroke="black" cx="788.861" cy="-390.5" rx="3.20001" ry="3.20001"/>
</g>
<!-- host_initiators&#45;&gt;host_initiator_groups -->
<g id="edge4" class="edge"><title>host_initiators:elipses:w&#45;&gt;host_initiator_groups:elipses:e</title>
<path fill="none" stroke="black" d="M785.057,-384.799C774.496,-381.335 768.164,-375 752.5,-375"/>
<polygon fill="black" stroke="black" points="791.591,-385.795 798.958,-390.559 795.546,-386.397 799.5,-387 799.5,-387 799.5,-387 795.546,-386.397 800.042,-383.441 791.591,-385.795 791.591,-385.795"/>
<ellipse fill="none" stroke="black" cx="788.428" cy="-385.313" rx="3.2" ry="3.2"/>
</g>
<!-- physical_disks -->
<g id="node6" class="node"><title>physical_disks</title>
<g id="a_node6"><a xlink:href="../../tables/physical_disks.html" xlink:title="physical_disks" target="_top">
<polygon fill="#ffffff" stroke="none" points="801,-256 801,-314 930,-314 930,-256 801,-256"/>
<polygon fill="#f5f5f5" stroke="none" points="801.5,-292 801.5,-314 930.5,-314 930.5,-292 801.5,-292"/>
<polygon fill="none" stroke="black" points="801.5,-292 801.5,-314 930.5,-314 930.5,-292 801.5,-292"/>
<text text-anchor="start" x="806.5" y="-301.2" font-family="Helvetica,sans-Serif" font-weight="bold" font-size="11.00">physical_disks</text>
<text text-anchor="start" x="891.5" y="-300.2" font-family="Helvetica,sans-Serif" font-size="11.00">[table]</text>
<polygon fill="none" stroke="black" points="801.5,-274 801.5,-292 930.5,-292 930.5,-274 801.5,-274"/>
<text text-anchor="start" x="804.5" y="-280.2" font-family="Helvetica,sans-Serif" font-size="11.00">...</text>
<polygon fill="#ffffff" stroke="none" points="801.5,-256 801.5,-274 864.5,-274 864.5,-256 801.5,-256"/>
<polygon fill="none" stroke="black" points="801.5,-256 801.5,-274 864.5,-274 864.5,-256 801.5,-256"/>
<text text-anchor="start" x="804.5" y="-262.2" font-family="Helvetica,sans-Serif" font-size="11.00">&lt; 2</text>
<polygon fill="#ffffff" stroke="none" points="864.5,-256 864.5,-274 897.5,-274 897.5,-256 864.5,-256"/>
<polygon fill="none" stroke="black" points="864.5,-256 864.5,-274 897.5,-274 897.5,-256 864.5,-256"/>
<text text-anchor="start" x="887.5" y="-262.2" font-family="Helvetica,sans-Serif" font-size="11.00"> &#160;</text>
<polygon fill="#ffffff" stroke="none" points="897.5,-256 897.5,-274 930.5,-274 930.5,-256 897.5,-256"/>
<polygon fill="none" stroke="black" points="897.5,-256 897.5,-274 930.5,-274 930.5,-256 897.5,-256"/>
<text text-anchor="start" x="920.5" y="-262.2" font-family="Helvetica,sans-Serif" font-size="11.00"> &#160;</text>
</a>
</g>
</g>
<!-- physical_disks&#45;&gt;canisters -->
<g id="edge6" class="edge"><title>physical_disks:elipses:w&#45;&gt;canisters:elipses:e</title>
<path fill="none" stroke="black" d="M785.953,-283.736C760.149,-286.486 749.442,-296 717.5,-296"/>
<polygon fill="black" stroke="black" points="792.51,-283.404 800.682,-286.595 796.505,-283.202 800.5,-283 800.5,-283 800.5,-283 796.505,-283.202 800.318,-279.405 792.51,-283.404 792.51,-283.404"/>
<ellipse fill="none" stroke="black" cx="789.314" cy="-283.566" rx="3.2" ry="3.2"/>
</g>
<!-- physical_disks&#45;&gt;physical_storages -->
<g id="edge7" class="edge"><title>physical_disks:elipses:w&#45;&gt;physical_storages:id:e</title>
<path fill="none" stroke="black" d="M786.43,-279.127C777.664,-273.4 773.63,-262.926 759,-259 679.587,-237.691 650.467,-228.78 574,-259 551.629,-267.841 558.554,-296 534.5,-296"/>
<polygon fill="black" stroke="black" points="792.787,-280.877 799.545,-286.471 796.643,-281.938 800.5,-283 800.5,-283 800.5,-283 796.643,-281.938 801.455,-279.529 792.787,-280.877 792.787,-280.877"/>
<ellipse fill="none" stroke="black" cx="789.702" cy="-280.028" rx="3.20001" ry="3.20001"/>
</g>
<!-- storage_resources -->
<g id="node9" class="node"><title>storage_resources</title>
<g id="a_node9"><a xlink:href="../../tables/storage_resources.html" xlink:title="storage_resources" target="_top">
<polygon fill="#ffffff" stroke="none" points="591.5,-163 591.5,-221 741.5,-221 741.5,-163 591.5,-163"/>
<polygon fill="#f5f5f5" stroke="none" points="591.5,-199 591.5,-221 741.5,-221 741.5,-199 591.5,-199"/>
<polygon fill="none" stroke="black" points="591.5,-199 591.5,-221 741.5,-221 741.5,-199 591.5,-199"/>
<text text-anchor="start" x="596.5" y="-208.2" font-family="Helvetica,sans-Serif" font-weight="bold" font-size="11.00">storage_resources</text>
<text text-anchor="start" x="702.5" y="-207.2" font-family="Helvetica,sans-Serif" font-size="11.00">[table]</text>
<polygon fill="none" stroke="black" points="591.5,-181 591.5,-199 741.5,-199 741.5,-181 591.5,-181"/>
<text text-anchor="start" x="594.5" y="-187.2" font-family="Helvetica,sans-Serif" font-size="11.00">...</text>
<polygon fill="#ffffff" stroke="none" points="591.5,-163 591.5,-181 659.5,-181 659.5,-163 591.5,-163"/>
<polygon fill="none" stroke="black" points="591.5,-163 591.5,-181 659.5,-181 659.5,-163 591.5,-163"/>
<text text-anchor="start" x="594.5" y="-169.2" font-family="Helvetica,sans-Serif" font-size="11.00">&lt; 1</text>
<polygon fill="#ffffff" stroke="none" points="659.5,-163 659.5,-181 695.5,-181 695.5,-163 659.5,-163"/>
<polygon fill="none" stroke="black" points="659.5,-163 659.5,-181 695.5,-181 695.5,-163 659.5,-163"/>
<text text-anchor="start" x="685.5" y="-169.2" font-family="Helvetica,sans-Serif" font-size="11.00"> &#160;</text>
<polygon fill="#ffffff" stroke="none" points="695.5,-163 695.5,-181 741.5,-181 741.5,-163 695.5,-163"/>
<polygon fill="none" stroke="black" points="695.5,-163 695.5,-181 741.5,-181 741.5,-163 695.5,-163"/>
<text text-anchor="start" x="721.5" y="-169.2" font-family="Helvetica,sans-Serif" font-size="11.00">2 &gt;</text>
</a>
</g>
</g>
<!-- storage_resources&#45;&gt;physical_storages -->
<g id="edge10" class="edge"><title>storage_resources:elipses:w&#45;&gt;physical_storages:id:e</title>
<path fill="none" stroke="black" d="M576.472,-193.527C547.037,-211.919 581.954,-296 534.5,-296"/>
<polygon fill="black" stroke="black" points="582.741,-191.951 591.378,-193.491 586.621,-190.975 590.5,-190 590.5,-190 590.5,-190 586.621,-190.975 589.622,-186.509 582.741,-191.951 582.741,-191.951"/>
<ellipse fill="none" stroke="black" cx="579.638" cy="-192.731" rx="3.2" ry="3.2"/>
</g>
<!-- wwpn_candidates -->
<g id="node10" class="node"><title>wwpn_candidates</title>
<g id="a_node10"><a xlink:href="../../tables/wwpn_candidates.html" xlink:title="wwpn_candidates" target="_top">
<polygon fill="#ffffff" stroke="none" points="591,-84 591,-142 742,-142 742,-84 591,-84"/>
<polygon fill="#f5f5f5" stroke="none" points="591.5,-120 591.5,-142 742.5,-142 742.5,-120 591.5,-120"/>
<polygon fill="none" stroke="black" points="591.5,-120 591.5,-142 742.5,-142 742.5,-120 591.5,-120"/>
<text text-anchor="start" x="596.5" y="-129.2" font-family="Helvetica,sans-Serif" font-weight="bold" font-size="11.00">wwpn_candidates</text>
<text text-anchor="start" x="703.5" y="-128.2" font-family="Helvetica,sans-Serif" font-size="11.00">[table]</text>
<polygon fill="none" stroke="black" points="591.5,-102 591.5,-120 742.5,-120 742.5,-102 591.5,-102"/>
<text text-anchor="start" x="594.5" y="-108.2" font-family="Helvetica,sans-Serif" font-size="11.00">...</text>
<polygon fill="#ffffff" stroke="none" points="591.5,-84 591.5,-102 665.5,-102 665.5,-84 591.5,-84"/>
<polygon fill="none" stroke="black" points="591.5,-84 591.5,-102 665.5,-102 665.5,-84 591.5,-84"/>
<text text-anchor="start" x="594.5" y="-90.2" font-family="Helvetica,sans-Serif" font-size="11.00">&lt; 1</text>
<polygon fill="#ffffff" stroke="none" points="665.5,-84 665.5,-102 703.5,-102 703.5,-84 665.5,-84"/>
<polygon fill="none" stroke="black" points="665.5,-84 665.5,-102 703.5,-102 703.5,-84 665.5,-84"/>
<text text-anchor="start" x="693.5" y="-90.2" font-family="Helvetica,sans-Serif" font-size="11.00"> &#160;</text>
<polygon fill="#ffffff" stroke="none" points="703.5,-84 703.5,-102 742.5,-102 742.5,-84 703.5,-84"/>
<polygon fill="none" stroke="black" points="703.5,-84 703.5,-102 742.5,-102 742.5,-84 703.5,-84"/>
<text text-anchor="start" x="732.5" y="-90.2" font-family="Helvetica,sans-Serif" font-size="11.00"> &#160;</text>
</a>
</g>
</g>
<!-- wwpn_candidates&#45;&gt;physical_storages -->
<g id="edge11" class="edge"><title>wwpn_candidates:elipses:w&#45;&gt;physical_storages:id:e</title>
<path fill="none" stroke="black" d="M575.936,-113.339C519.085,-134.755 614.702,-296 534.5,-296"/>
<polygon fill="black" stroke="black" points="582.601,-112.269 591.071,-114.554 586.551,-111.634 590.5,-111 590.5,-111 590.5,-111 586.551,-111.634 589.929,-107.446 582.601,-112.269 582.601,-112.269"/>
<ellipse fill="none" stroke="black" cx="579.442" cy="-112.776" rx="3.2" ry="3.2"/>
</g>
</g>
</svg>
