<?xml version="1.0" encoding="UTF-8" standalone="no"?>
<!DOCTYPE svg PUBLIC "-//W3C//DTD SVG 1.1//EN"
 "http://www.w3.org/Graphics/SVG/1.1/DTD/svg11.dtd">
<!-- Generated by graphviz version 2.38.0 (20140413.2041)
 -->
<!-- Title: oneDegreeRelationshipsDiagram Pages: 1 -->
<svg width="1025pt" height="1208pt"
 viewBox="0.00 0.00 1025.00 1208.00" xmlns="http://www.w3.org/2000/svg" xmlns:xlink="http://www.w3.org/1999/xlink">
<g id="graph0" class="graph" transform="scale(1 1) rotate(0) translate(4 1204)">
<title>oneDegreeRelationshipsDiagram</title>
<polygon fill="#ffffff" stroke="none" points="-4,4 -4,-1204 1021,-1204 1021,4 -4,4"/>
<text text-anchor="middle" x="74.5" y="-7.2" font-family="Helvetica,sans-Serif" font-size="11.00">Generated by SchemaSpy</text>
<!-- canisters -->
<g id="node1" class="node"><title>canisters</title>
<g id="a_node1"><a xlink:href="../../tables/canisters.html" xlink:title="canisters" target="_top">
<polygon fill="#ffffff" stroke="none" points="603,-354 603,-456 802,-456 802,-354 603,-354"/>
<polygon fill="#f5f5f5" stroke="none" points="603.5,-434 603.5,-456 802.5,-456 802.5,-434 603.5,-434"/>
<polygon fill="none" stroke="black" points="603.5,-434 603.5,-456 802.5,-456 802.5,-434 603.5,-434"/>
<text text-anchor="start" x="608.5" y="-443.2" font-family="Helvetica,sans-Serif" font-weight="bold" font-size="11.00">canisters</text>
<text text-anchor="start" x="763.5" y="-442.2" font-family="Helvetica,sans-Serif" font-size="11.00">[table]</text>
<polygon fill="none" stroke="black" points="603.5,-412 603.5,-434 802.5,-434 802.5,-412 603.5,-412"/>
<image xlink:href="../../images/primaryKeys.png" width="11px" height="12px" preserveAspectRatio="xMinYMin meet" x="608.5" y="-429"/>
<text text-anchor="start" x="623.5" y="-420.2" font-family="Helvetica,sans-Serif" font-size="11.00">id</text>
<polygon fill="none" stroke="black" points="603.5,-390 603.5,-412 802.5,-412 802.5,-390 603.5,-390"/>
<image xlink:href="../../images/foreignKeys.png" width="11px" height="12px" preserveAspectRatio="xMinYMin meet" x="608.5" y="-407"/>
<text text-anchor="start" x="623.5" y="-398.2" font-family="Helvetica,sans-Serif" font-size="11.00">physical_storage_id</text>
<polygon fill="none" stroke="black" points="603.5,-372 603.5,-390 802.5,-390 802.5,-372 603.5,-372"/>
<text text-anchor="start" x="606.5" y="-378.2" font-family="Helvetica,sans-Serif" font-size="11.00">...</text>
<polygon fill="#ffffff" stroke="none" points="603.5,-354 603.5,-372 696.5,-372 696.5,-354 603.5,-354"/>
<polygon fill="none" stroke="black" points="603.5,-354 603.5,-372 696.5,-372 696.5,-354 603.5,-354"/>
<text text-anchor="start" x="606.5" y="-360.2" font-family="Helvetica,sans-Serif" font-size="11.00">&lt; 1</text>
<polygon fill="#ffffff" stroke="none" points="696.5,-354 696.5,-372 744.5,-372 744.5,-354 696.5,-354"/>
<polygon fill="none" stroke="black" points="696.5,-354 696.5,-372 744.5,-372 744.5,-354 696.5,-354"/>
<text text-anchor="start" x="734.5" y="-360.2" font-family="Helvetica,sans-Serif" font-size="11.00"> &#160;</text>
<polygon fill="#ffffff" stroke="none" points="744.5,-354 744.5,-372 802.5,-372 802.5,-354 744.5,-354"/>
<polygon fill="none" stroke="black" points="744.5,-354 744.5,-372 802.5,-372 802.5,-354 744.5,-354"/>
<text text-anchor="start" x="782.5" y="-360.2" font-family="Helvetica,sans-Serif" font-size="11.00">2 &gt;</text>
</a>
</g>
</g>
<!-- physical_storages -->
<g id="node2" class="node"><title>physical_storages</title>
<g id="a_node2"><a xlink:href="../../tables/physical_storages.html" xlink:title="physical_storages" target="_top">
<polygon fill="#ffffff" stroke="none" points="250,-53 250,-515 554,-515 554,-53 250,-53"/>
<polygon fill="#f5f5f5" stroke="none" points="252,-491 252,-513 552,-513 552,-491 252,-491"/>
<polygon fill="none" stroke="black" points="252,-491 252,-513 552,-513 552,-491 252,-491"/>
<text text-anchor="start" x="257" y="-500.2" font-family="Helvetica,sans-Serif" font-weight="bold" font-size="11.00">physical_storages</text>
<text text-anchor="start" x="513" y="-499.2" font-family="Helvetica,sans-Serif" font-size="11.00">[table]</text>
<polygon fill="none" stroke="black" points="252,-469 252,-491 431,-491 431,-469 252,-469"/>
<image xlink:href="../../images/primaryKeys.png" width="11px" height="12px" preserveAspectRatio="xMinYMin meet" x="257" y="-486"/>
<text text-anchor="start" x="272" y="-477.2" font-family="Helvetica,sans-Serif" font-size="11.00">id</text>
<polygon fill="none" stroke="black" points="431,-469 431,-491 552,-491 552,-469 431,-469"/>
<text text-anchor="start" x="434" y="-477.2" font-family="Helvetica,sans-Serif" font-size="11.00">bigserial[19]</text>
<polygon fill="none" stroke="black" points="252,-447 252,-469 431,-469 431,-447 252,-447"/>
<text text-anchor="start" x="272" y="-455.2" font-family="Helvetica,sans-Serif" font-size="11.00">ems_ref</text>
<polygon fill="none" stroke="black" points="431,-447 431,-469 552,-469 552,-447 431,-447"/>
<text text-anchor="start" x="434" y="-455.2" font-family="Helvetica,sans-Serif" font-size="11.00">varchar[2147483647]</text>
<polygon fill="none" stroke="black" points="252,-425 252,-447 431,-447 431,-425 252,-425"/>
<text text-anchor="start" x="272" y="-433.2" font-family="Helvetica,sans-Serif" font-size="11.00">uid_ems</text>
<polygon fill="none" stroke="black" points="431,-425 431,-447 552,-447 552,-425 431,-425"/>
<text text-anchor="start" x="434" y="-433.2" font-family="Helvetica,sans-Serif" font-size="11.00">varchar[2147483647]</text>
<polygon fill="none" stroke="black" points="252,-403 252,-425 431,-425 431,-403 252,-403"/>
<text text-anchor="start" x="272" y="-411.2" font-family="Helvetica,sans-Serif" font-size="11.00">name</text>
<polygon fill="none" stroke="black" points="431,-403 431,-425 552,-425 552,-403 431,-403"/>
<text text-anchor="start" x="434" y="-411.2" font-family="Helvetica,sans-Serif" font-size="11.00">varchar[2147483647]</text>
<polygon fill="none" stroke="black" points="252,-381 252,-403 431,-403 431,-381 252,-381"/>
<text text-anchor="start" x="272" y="-389.2" font-family="Helvetica,sans-Serif" font-size="11.00">type</text>
<polygon fill="none" stroke="black" points="431,-381 431,-403 552,-403 552,-381 431,-381"/>
<text text-anchor="start" x="434" y="-389.2" font-family="Helvetica,sans-Serif" font-size="11.00">varchar[2147483647]</text>
<polygon fill="none" stroke="black" points="252,-359 252,-381 431,-381 431,-359 252,-359"/>
<text text-anchor="start" x="272" y="-367.2" font-family="Helvetica,sans-Serif" font-size="11.00">access_state</text>
<polygon fill="none" stroke="black" points="431,-359 431,-381 552,-381 552,-359 431,-359"/>
<text text-anchor="start" x="434" y="-367.2" font-family="Helvetica,sans-Serif" font-size="11.00">varchar[2147483647]</text>
<polygon fill="none" stroke="black" points="252,-337 252,-359 431,-359 431,-337 252,-337"/>
<text text-anchor="start" x="272" y="-345.2" font-family="Helvetica,sans-Serif" font-size="11.00">health_state</text>
<polygon fill="none" stroke="black" points="431,-337 431,-359 552,-359 552,-337 431,-337"/>
<text text-anchor="start" x="434" y="-345.2" font-family="Helvetica,sans-Serif" font-size="11.00">varchar[2147483647]</text>
<polygon fill="none" stroke="black" points="252,-315 252,-337 431,-337 431,-315 252,-315"/>
<text text-anchor="start" x="272" y="-323.2" font-family="Helvetica,sans-Serif" font-size="11.00">overall_health_state</text>
<polygon fill="none" stroke="black" points="431,-315 431,-337 552,-337 552,-315 431,-315"/>
<text text-anchor="start" x="434" y="-323.2" font-family="Helvetica,sans-Serif" font-size="11.00">varchar[2147483647]</text>
<polygon fill="none" stroke="black" points="252,-293 252,-315 431,-315 431,-293 252,-293"/>
<text text-anchor="start" x="272" y="-301.2" font-family="Helvetica,sans-Serif" font-size="11.00">ems_id</text>
<polygon fill="none" stroke="black" points="431,-293 431,-315 552,-315 552,-293 431,-293"/>
<text text-anchor="start" x="434" y="-301.2" font-family="Helvetica,sans-Serif" font-size="11.00">int8[19]</text>
<polygon fill="none" stroke="black" points="252,-271 252,-293 431,-293 431,-271 252,-271"/>
<image xlink:href="../../images/foreignKeys.png" width="11px" height="12px" preserveAspectRatio="xMinYMin meet" x="257" y="-288"/>
<text text-anchor="start" x="272" y="-279.2" font-family="Helvetica,sans-Serif" font-size="11.00">physical_rack_id</text>
<polygon fill="none" stroke="black" points="431,-271 431,-293 552,-293 552,-271 431,-271"/>
<text text-anchor="start" x="434" y="-279.2" font-family="Helvetica,sans-Serif" font-size="11.00">int8[19]</text>
<polygon fill="none" stroke="black" points="252,-249 252,-271 431,-271 431,-249 252,-249"/>
<text text-anchor="start" x="272" y="-257.2" font-family="Helvetica,sans-Serif" font-size="11.00">drive_bays</text>
<polygon fill="none" stroke="black" points="431,-249 431,-271 552,-271 552,-249 431,-249"/>
<text text-anchor="start" x="434" y="-257.2" font-family="Helvetica,sans-Serif" font-size="11.00">int4[10]</text>
<polygon fill="none" stroke="black" points="252,-227 252,-249 431,-249 431,-227 252,-227"/>
<text text-anchor="start" x="272" y="-235.2" font-family="Helvetica,sans-Serif" font-size="11.00">enclosures</text>
<polygon fill="none" stroke="black" points="431,-227 431,-249 552,-249 552,-227 431,-227"/>
<text text-anchor="start" x="434" y="-235.2" font-family="Helvetica,sans-Serif" font-size="11.00">int4[10]</text>
<polygon fill="none" stroke="black" points="252,-205 252,-227 431,-227 431,-205 252,-205"/>
<text text-anchor="start" x="272" y="-213.2" font-family="Helvetica,sans-Serif" font-size="11.00">canister_slots</text>
<polygon fill="none" stroke="black" points="431,-205 431,-227 552,-227 552,-205 431,-205"/>
<text text-anchor="start" x="434" y="-213.2" font-family="Helvetica,sans-Serif" font-size="11.00">int4[10]</text>
<polygon fill="none" stroke="black" points="252,-183 252,-205 431,-205 431,-183 252,-183"/>
<text text-anchor="start" x="272" y="-191.2" font-family="Helvetica,sans-Serif" font-size="11.00">created_at</text>
<polygon fill="none" stroke="black" points="431,-183 431,-205 552,-205 552,-183 431,-183"/>
<text text-anchor="start" x="434" y="-191.2" font-family="Helvetica,sans-Serif" font-size="11.00">timestamp[29,6]</text>
<polygon fill="none" stroke="black" points="252,-161 252,-183 431,-183 431,-161 252,-161"/>
<text text-anchor="start" x="272" y="-169.2" font-family="Helvetica,sans-Serif" font-size="11.00">updated_at</text>
<polygon fill="none" stroke="black" points="431,-161 431,-183 552,-183 552,-161 431,-161"/>
<text text-anchor="start" x="434" y="-169.2" font-family="Helvetica,sans-Serif" font-size="11.00">timestamp[29,6]</text>
<polygon fill="none" stroke="black" points="252,-139 252,-161 431,-161 431,-139 252,-139"/>
<text text-anchor="start" x="272" y="-147.2" font-family="Helvetica,sans-Serif" font-size="11.00">physical_chassis_id</text>
<polygon fill="none" stroke="black" points="431,-139 431,-161 552,-161 552,-139 431,-139"/>
<text text-anchor="start" x="434" y="-147.2" font-family="Helvetica,sans-Serif" font-size="11.00">int8[19]</text>
<polygon fill="none" stroke="black" points="252,-117 252,-139 431,-139 431,-117 252,-117"/>
<text text-anchor="start" x="272" y="-125.2" font-family="Helvetica,sans-Serif" font-size="11.00">total_space</text>
<polygon fill="none" stroke="black" points="431,-117 431,-139 552,-139 552,-117 431,-117"/>
<text text-anchor="start" x="434" y="-125.2" font-family="Helvetica,sans-Serif" font-size="11.00">int8[19]</text>
<polygon fill="#ffffff" stroke="none" points="252,-95 252,-117 431,-117 431,-95 252,-95"/>
<polygon fill="none" stroke="black" points="252,-95 252,-117 431,-117 431,-95 252,-95"/>
<image xlink:href="../../images/foreignKeys.png" width="11px" height="12px" preserveAspectRatio="xMinYMin meet" x="257" y="-112"/>
<text text-anchor="start" x="272" y="-103.2" font-family="Helvetica,sans-Serif" font-size="11.00">physical_storage_family_id</text>
<polygon fill="none" stroke="black" points="431,-95 431,-117 552,-117 552,-95 431,-95"/>
<text text-anchor="start" x="434" y="-103.2" font-family="Helvetica,sans-Serif" font-size="11.00">int8[19]</text>
<polygon fill="none" stroke="black" points="252,-73 252,-95 431,-95 431,-73 252,-73"/>
<text text-anchor="start" x="272" y="-81.2" font-family="Helvetica,sans-Serif" font-size="11.00">capabilities</text>
<polygon fill="none" stroke="black" points="431,-73 431,-95 552,-95 552,-73 431,-73"/>
<text text-anchor="start" x="434" y="-81.2" font-family="Helvetica,sans-Serif" font-size="11.00">jsonb[2147483647]</text>
<polygon fill="#ffffff" stroke="none" points="252,-55 252,-73 346,-73 346,-55 252,-55"/>
<polygon fill="none" stroke="black" points="252,-55 252,-73 346,-73 346,-55 252,-55"/>
<text text-anchor="start" x="255" y="-61.2" font-family="Helvetica,sans-Serif" font-size="11.00">&lt; 2</text>
<polygon fill="#ffffff" stroke="none" points="346,-55 346,-73 431,-73 431,-55 346,-55"/>
<polygon fill="none" stroke="black" points="346,-55 346,-73 431,-73 431,-55 346,-55"/>
<text text-anchor="start" x="421" y="-61.2" font-family="Helvetica,sans-Serif" font-size="11.00"> &#160;</text>
<polygon fill="#ffffff" stroke="none" points="431,-55 431,-73 552,-73 552,-55 431,-55"/>
<polygon fill="none" stroke="black" points="431,-55 431,-73 552,-73 552,-55 431,-55"/>
<text text-anchor="start" x="532" y="-61.2" font-family="Helvetica,sans-Serif" font-size="11.00">7 &gt;</text>
<polygon fill="none" stroke="black" stroke-width="2" points="251,-54 251,-514 553,-514 553,-54 251,-54"/>
</a>
</g>
</g>
<!-- canisters&#45;&gt;physical_storages -->
<g id="edge1" class="edge"><title>canisters:physical_storage_id:w&#45;&gt;physical_storages:id.type:e</title>
<path fill="none" stroke="black" d="M588.77,-405.474C569.149,-422.186 588.446,-480 553,-480"/>
<polygon fill="black" stroke="black" points="594.894,-403.479 603.615,-404.423 598.697,-402.239 602.5,-401 602.5,-401 602.5,-401 598.697,-402.239 601.385,-397.577 594.894,-403.479 594.894,-403.479"/>
<ellipse fill="none" stroke="black" cx="591.851" cy="-404.47" rx="3.20001" ry="3.20001"/>
</g>
<!-- physical_racks -->
<g id="node7" class="node"><title>physical_racks</title>
<g id="a_node7"><a xlink:href="../../tables/physical_racks.html" xlink:title="physical_racks" target="_top">
<polygon fill="#ffffff" stroke="none" points="39.5,-235 39.5,-315 169.5,-315 169.5,-235 39.5,-235"/>
<polygon fill="#f5f5f5" stroke="none" points="39.5,-293 39.5,-315 169.5,-315 169.5,-293 39.5,-293"/>
<polygon fill="none" stroke="black" points="39.5,-293 39.5,-315 169.5,-315 169.5,-293 39.5,-293"/>
<text text-anchor="start" x="44.5" y="-302.2" font-family="Helvetica,sans-Serif" font-weight="bold" font-size="11.00">physical_racks</text>
<text text-anchor="start" x="130.5" y="-301.2" font-family="Helvetica,sans-Serif" font-size="11.00">[table]</text>
<polygon fill="none" stroke="black" points="39.5,-271 39.5,-293 169.5,-293 169.5,-271 39.5,-271"/>
<image xlink:href="../../images/primaryKeys.png" width="11px" height="12px" preserveAspectRatio="xMinYMin meet" x="44.5" y="-288"/>
<text text-anchor="start" x="71.5" y="-279.2" font-family="Helvetica,sans-Serif" font-size="11.00">id</text>
<polygon fill="none" stroke="black" points="39.5,-253 39.5,-271 169.5,-271 169.5,-253 39.5,-253"/>
<text text-anchor="start" x="42.5" y="-259.2" font-family="Helvetica,sans-Serif" font-size="11.00">...</text>
<polygon fill="#ffffff" stroke="none" points="39.5,-235 39.5,-253 92.5,-253 92.5,-235 39.5,-235"/>
<polygon fill="none" stroke="black" points="39.5,-235 39.5,-253 92.5,-253 92.5,-235 39.5,-235"/>
<text text-anchor="start" x="42.5" y="-241.2" font-family="Helvetica,sans-Serif" font-size="11.00"> &#160;</text>
<polygon fill="#ffffff" stroke="none" points="92.5,-235 92.5,-253 125.5,-253 125.5,-235 92.5,-235"/>
<polygon fill="none" stroke="black" points="92.5,-235 92.5,-253 125.5,-253 125.5,-235 92.5,-235"/>
<text text-anchor="start" x="115.5" y="-241.2" font-family="Helvetica,sans-Serif" font-size="11.00"> &#160;</text>
<polygon fill="#ffffff" stroke="none" points="125.5,-235 125.5,-253 169.5,-253 169.5,-235 125.5,-235"/>
<polygon fill="none" stroke="black" points="125.5,-235 125.5,-253 169.5,-253 169.5,-235 125.5,-235"/>
<text text-anchor="start" x="149.5" y="-241.2" font-family="Helvetica,sans-Serif" font-size="11.00">3 &gt;</text>
</a>
</g>
</g>
<!-- physical_storages&#45;&gt;physical_racks -->
<g id="edge8" class="edge"><title>physical_storages:physical_rack_id:w&#45;&gt;physical_racks:id:e</title>
<path fill="none" stroke="black" d="M236.327,-282C211.874,-282 200.827,-282 170.5,-282"/>
<polygon fill="black" stroke="black" points="243,-282 251,-285.6 247,-282 251,-282 251,-282 251,-282 247,-282 251,-278.4 243,-282 243,-282"/>
<ellipse fill="none" stroke="black" cx="239.8" cy="-282" rx="3.2" ry="3.2"/>
</g>
<!-- physical_storage_families -->
<g id="node8" class="node"><title>physical_storage_families</title>
<g id="a_node8"><a xlink:href="../../tables/physical_storage_families.html" xlink:title="physical_storage_families" target="_top">
<polygon fill="#ffffff" stroke="none" points="8,-37 8,-139 201,-139 201,-37 8,-37"/>
<polygon fill="#f5f5f5" stroke="none" points="8.5,-117 8.5,-139 201.5,-139 201.5,-117 8.5,-117"/>
<polygon fill="none" stroke="black" points="8.5,-117 8.5,-139 201.5,-139 201.5,-117 8.5,-117"/>
<text text-anchor="start" x="13.5" y="-126.2" font-family="Helvetica,sans-Serif" font-weight="bold" font-size="11.00">physical_storage_families</text>
<text text-anchor="start" x="162.5" y="-125.2" font-family="Helvetica,sans-Serif" font-size="11.00">[table]</text>
<polygon fill="none" stroke="black" points="8.5,-95 8.5,-117 201.5,-117 201.5,-95 8.5,-95"/>
<image xlink:href="../../images/primaryKeys.png" width="11px" height="12px" preserveAspectRatio="xMinYMin meet" x="13.5" y="-112"/>
<text text-anchor="start" x="39.5" y="-103.2" font-family="Helvetica,sans-Serif" font-size="11.00">id</text>
<polygon fill="#ffffff" stroke="none" points="8.5,-73 8.5,-95 201.5,-95 201.5,-73 8.5,-73"/>
<polygon fill="none" stroke="black" points="8.5,-73 8.5,-95 201.5,-95 201.5,-73 8.5,-73"/>
<text text-anchor="start" x="39.5" y="-81.2" font-family="Helvetica,sans-Serif" font-size="11.00">ems_id</text>
<polygon fill="none" stroke="black" points="8.5,-55 8.5,-73 201.5,-73 201.5,-55 8.5,-55"/>
<text text-anchor="start" x="11.5" y="-61.2" font-family="Helvetica,sans-Serif" font-size="11.00">...</text>
<polygon fill="#ffffff" stroke="none" points="8.5,-37 8.5,-55 93.5,-55 93.5,-37 8.5,-37"/>
<polygon fill="none" stroke="black" points="8.5,-37 8.5,-55 93.5,-55 93.5,-37 8.5,-37"/>
<text text-anchor="start" x="11.5" y="-43.2" font-family="Helvetica,sans-Serif" font-size="11.00"> &#160;</text>
<polygon fill="#ffffff" stroke="none" points="93.5,-37 93.5,-55 142.5,-55 142.5,-37 93.5,-37"/>
<polygon fill="none" stroke="black" points="93.5,-37 93.5,-55 142.5,-55 142.5,-37 93.5,-37"/>
<text text-anchor="start" x="132.5" y="-43.2" font-family="Helvetica,sans-Serif" font-size="11.00"> &#160;</text>
<polygon fill="#ffffff" stroke="none" points="142.5,-37 142.5,-55 201.5,-55 201.5,-37 142.5,-37"/>
<polygon fill="none" stroke="black" points="142.5,-37 142.5,-55 201.5,-55 201.5,-37 142.5,-37"/>
<text text-anchor="start" x="181.5" y="-43.2" font-family="Helvetica,sans-Serif" font-size="11.00">1 &gt;</text>
</a>
</g>
</g>
<!-- physical_storages&#45;&gt;physical_storage_families -->
<g id="edge9" class="edge"><title>physical_storages:physical_storage_family_id:w&#45;&gt;physical_storage_families:id:e</title>
<path fill="none" stroke="black" d="M236.283,-106C225.289,-106 218.161,-106 202.5,-106"/>
<polygon fill="black" stroke="black" points="243,-106 251,-109.6 247,-106 251,-106 251,-106 251,-106 247,-106 251,-102.4 243,-106 243,-106"/>
<ellipse fill="none" stroke="black" cx="239.8" cy="-106" rx="3.2" ry="3.2"/>
</g>
<!-- event_streams -->
<g id="node3" class="node"><title>event_streams</title>
<g id="a_node3"><a xlink:href="../../tables/event_streams.html" xlink:title="event_streams" target="_top">
<polygon fill="#ffffff" stroke="none" points="612,-676 612,-1196 793,-1196 793,-676 612,-676"/>
<polygon fill="#f5f5f5" stroke="none" points="612.5,-1174 612.5,-1196 793.5,-1196 793.5,-1174 612.5,-1174"/>
<polygon fill="none" stroke="black" points="612.5,-1174 612.5,-1196 793.5,-1196 793.5,-1174 612.5,-1174"/>
<text text-anchor="start" x="617.5" y="-1183.2" font-family="Helvetica,sans-Serif" font-weight="bold" font-size="11.00">event_streams</text>
<text text-anchor="start" x="754.5" y="-1182.2" font-family="Helvetica,sans-Serif" font-size="11.00">[table]</text>
<polygon fill="none" stroke="black" points="612.5,-1152 612.5,-1174 793.5,-1174 793.5,-1152 612.5,-1152"/>
<image xlink:href="../../images/primaryKeys.png" width="11px" height="12px" preserveAspectRatio="xMinYMin meet" x="617.5" y="-1169"/>
<text text-anchor="start" x="632.5" y="-1160.2" font-family="Helvetica,sans-Serif" font-size="11.00">id</text>
<polygon fill="#ffffff" stroke="none" points="612.5,-1130 612.5,-1152 793.5,-1152 793.5,-1130 612.5,-1130"/>
<polygon fill="none" stroke="black" points="612.5,-1130 612.5,-1152 793.5,-1152 793.5,-1130 612.5,-1130"/>
<text text-anchor="start" x="632.5" y="-1138.2" font-family="Helvetica,sans-Serif" font-size="11.00">event_type</text>
<polygon fill="#ffffff" stroke="none" points="612.5,-1108 612.5,-1130 793.5,-1130 793.5,-1108 612.5,-1108"/>
<polygon fill="none" stroke="black" points="612.5,-1108 612.5,-1130 793.5,-1130 793.5,-1108 612.5,-1108"/>
<text text-anchor="start" x="632.5" y="-1116.2" font-family="Helvetica,sans-Serif" font-size="11.00">timestamp</text>
<polygon fill="#ffffff" stroke="none" points="612.5,-1086 612.5,-1108 793.5,-1108 793.5,-1086 612.5,-1086"/>
<polygon fill="none" stroke="black" points="612.5,-1086 612.5,-1108 793.5,-1108 793.5,-1086 612.5,-1086"/>
<image xlink:href="../../images/foreignKeys.png" width="11px" height="12px" preserveAspectRatio="xMinYMin meet" x="617.5" y="-1103"/>
<text text-anchor="start" x="632.5" y="-1094.2" font-family="Helvetica,sans-Serif" font-size="11.00">host_id</text>
<polygon fill="#ffffff" stroke="none" points="612.5,-1064 612.5,-1086 793.5,-1086 793.5,-1064 612.5,-1064"/>
<polygon fill="none" stroke="black" points="612.5,-1064 612.5,-1086 793.5,-1086 793.5,-1064 612.5,-1064"/>
<text text-anchor="start" x="632.5" y="-1072.2" font-family="Helvetica,sans-Serif" font-size="11.00">vm_or_template_id</text>
<polygon fill="#ffffff" stroke="none" points="612.5,-1042 612.5,-1064 793.5,-1064 793.5,-1042 612.5,-1042"/>
<polygon fill="none" stroke="black" points="612.5,-1042 612.5,-1064 793.5,-1064 793.5,-1042 612.5,-1042"/>
<text text-anchor="start" x="632.5" y="-1050.2" font-family="Helvetica,sans-Serif" font-size="11.00">dest_host_id</text>
<polygon fill="#ffffff" stroke="none" points="612.5,-1020 612.5,-1042 793.5,-1042 793.5,-1020 612.5,-1020"/>
<polygon fill="none" stroke="black" points="612.5,-1020 612.5,-1042 793.5,-1042 793.5,-1020 612.5,-1020"/>
<text text-anchor="start" x="632.5" y="-1028.2" font-family="Helvetica,sans-Serif" font-size="11.00">dest_vm_or_template_id</text>
<polygon fill="#ffffff" stroke="none" points="612.5,-998 612.5,-1020 793.5,-1020 793.5,-998 612.5,-998"/>
<polygon fill="none" stroke="black" points="612.5,-998 612.5,-1020 793.5,-1020 793.5,-998 612.5,-998"/>
<text text-anchor="start" x="632.5" y="-1006.2" font-family="Helvetica,sans-Serif" font-size="11.00">chain_id</text>
<polygon fill="#ffffff" stroke="none" points="612.5,-976 612.5,-998 793.5,-998 793.5,-976 612.5,-976"/>
<polygon fill="none" stroke="black" points="612.5,-976 612.5,-998 793.5,-998 793.5,-976 612.5,-976"/>
<text text-anchor="start" x="632.5" y="-984.2" font-family="Helvetica,sans-Serif" font-size="11.00">ems_id</text>
<polygon fill="#ffffff" stroke="none" points="612.5,-954 612.5,-976 793.5,-976 793.5,-954 612.5,-954"/>
<polygon fill="none" stroke="black" points="612.5,-954 612.5,-976 793.5,-976 793.5,-954 612.5,-954"/>
<image xlink:href="../../images/foreignKeys.png" width="11px" height="12px" preserveAspectRatio="xMinYMin meet" x="617.5" y="-971"/>
<text text-anchor="start" x="632.5" y="-962.2" font-family="Helvetica,sans-Serif" font-size="11.00">ems_cluster_id</text>
<polygon fill="#ffffff" stroke="none" points="612.5,-932 612.5,-954 793.5,-954 793.5,-932 612.5,-932"/>
<polygon fill="none" stroke="black" points="612.5,-932 612.5,-954 793.5,-954 793.5,-932 612.5,-932"/>
<image xlink:href="../../images/foreignKeys.png" width="11px" height="12px" preserveAspectRatio="xMinYMin meet" x="617.5" y="-949"/>
<text text-anchor="start" x="632.5" y="-940.2" font-family="Helvetica,sans-Serif" font-size="11.00">availability_zone_id</text>
<polygon fill="none" stroke="black" points="612.5,-910 612.5,-932 793.5,-932 793.5,-910 612.5,-910"/>
<image xlink:href="../../images/foreignKeys.png" width="11px" height="12px" preserveAspectRatio="xMinYMin meet" x="617.5" y="-927"/>
<text text-anchor="start" x="632.5" y="-918.2" font-family="Helvetica,sans-Serif" font-size="11.00">container_node_id</text>
<polygon fill="none" stroke="black" points="612.5,-888 612.5,-910 793.5,-910 793.5,-888 612.5,-888"/>
<image xlink:href="../../images/foreignKeys.png" width="11px" height="12px" preserveAspectRatio="xMinYMin meet" x="617.5" y="-905"/>
<text text-anchor="start" x="632.5" y="-896.2" font-family="Helvetica,sans-Serif" font-size="11.00">container_group_id</text>
<polygon fill="#ffffff" stroke="none" points="612.5,-866 612.5,-888 793.5,-888 793.5,-866 612.5,-866"/>
<polygon fill="none" stroke="black" points="612.5,-866 612.5,-888 793.5,-888 793.5,-866 612.5,-866"/>
<text text-anchor="start" x="632.5" y="-874.2" font-family="Helvetica,sans-Serif" font-size="11.00">type</text>
<polygon fill="none" stroke="black" points="612.5,-844 612.5,-866 793.5,-866 793.5,-844 612.5,-844"/>
<image xlink:href="../../images/foreignKeys.png" width="11px" height="12px" preserveAspectRatio="xMinYMin meet" x="617.5" y="-861"/>
<text text-anchor="start" x="632.5" y="-852.2" font-family="Helvetica,sans-Serif" font-size="11.00">container_id</text>
<polygon fill="none" stroke="black" points="612.5,-822 612.5,-844 793.5,-844 793.5,-822 612.5,-822"/>
<image xlink:href="../../images/foreignKeys.png" width="11px" height="12px" preserveAspectRatio="xMinYMin meet" x="617.5" y="-839"/>
<text text-anchor="start" x="632.5" y="-830.2" font-family="Helvetica,sans-Serif" font-size="11.00">container_replicator_id</text>
<polygon fill="#ffffff" stroke="none" points="612.5,-800 612.5,-822 793.5,-822 793.5,-800 612.5,-800"/>
<polygon fill="none" stroke="black" points="612.5,-800 612.5,-822 793.5,-822 793.5,-800 612.5,-800"/>
<text text-anchor="start" x="632.5" y="-808.2" font-family="Helvetica,sans-Serif" font-size="11.00">generating_ems_id</text>
<polygon fill="none" stroke="black" points="612.5,-778 612.5,-800 793.5,-800 793.5,-778 612.5,-778"/>
<image xlink:href="../../images/foreignKeys.png" width="11px" height="12px" preserveAspectRatio="xMinYMin meet" x="617.5" y="-795"/>
<text text-anchor="start" x="632.5" y="-786.2" font-family="Helvetica,sans-Serif" font-size="11.00">physical_server_id</text>
<polygon fill="none" stroke="black" points="612.5,-756 612.5,-778 793.5,-778 793.5,-756 612.5,-756"/>
<image xlink:href="../../images/foreignKeys.png" width="11px" height="12px" preserveAspectRatio="xMinYMin meet" x="617.5" y="-773"/>
<text text-anchor="start" x="632.5" y="-764.2" font-family="Helvetica,sans-Serif" font-size="11.00">user_id</text>
<polygon fill="none" stroke="black" points="612.5,-734 612.5,-756 793.5,-756 793.5,-734 612.5,-734"/>
<image xlink:href="../../images/foreignKeys.png" width="11px" height="12px" preserveAspectRatio="xMinYMin meet" x="617.5" y="-751"/>
<text text-anchor="start" x="632.5" y="-742.2" font-family="Helvetica,sans-Serif" font-size="11.00">tenant_id</text>
<polygon fill="none" stroke="black" points="612.5,-712 612.5,-734 793.5,-734 793.5,-712 612.5,-712"/>
<image xlink:href="../../images/foreignKeys.png" width="11px" height="12px" preserveAspectRatio="xMinYMin meet" x="617.5" y="-729"/>
<text text-anchor="start" x="632.5" y="-720.2" font-family="Helvetica,sans-Serif" font-size="11.00">physical_storage_id</text>
<polygon fill="none" stroke="black" points="612.5,-694 612.5,-712 793.5,-712 793.5,-694 612.5,-694"/>
<text text-anchor="start" x="615.5" y="-700.2" font-family="Helvetica,sans-Serif" font-size="11.00">...</text>
<polygon fill="#ffffff" stroke="none" points="612.5,-676 612.5,-694 704.5,-694 704.5,-676 612.5,-676"/>
<polygon fill="none" stroke="black" points="612.5,-676 612.5,-694 704.5,-694 704.5,-676 612.5,-676"/>
<text text-anchor="start" x="615.5" y="-682.2" font-family="Helvetica,sans-Serif" font-size="11.00">&lt; 11</text>
<polygon fill="#ffffff" stroke="none" points="704.5,-676 704.5,-694 748.5,-694 748.5,-676 704.5,-676"/>
<polygon fill="none" stroke="black" points="704.5,-676 704.5,-694 748.5,-694 748.5,-676 704.5,-676"/>
<text text-anchor="start" x="738.5" y="-682.2" font-family="Helvetica,sans-Serif" font-size="11.00"> &#160;</text>
<polygon fill="#ffffff" stroke="none" points="748.5,-676 748.5,-694 793.5,-694 793.5,-676 748.5,-676"/>
<polygon fill="none" stroke="black" points="748.5,-676 748.5,-694 793.5,-694 793.5,-676 748.5,-676"/>
<text text-anchor="start" x="783.5" y="-682.2" font-family="Helvetica,sans-Serif" font-size="11.00"> &#160;</text>
</a>
</g>
</g>
<!-- event_streams&#45;&gt;physical_storages -->
<g id="edge2" class="edge"><title>event_streams:physical_storage_id:w&#45;&gt;physical_storages:id.type:e</title>
<path fill="none" stroke="black" d="M597.129,-721.319C515.743,-699.849 658.661,-480 553,-480"/>
<polygon fill="black" stroke="black" points="603.554,-722.07 611.082,-726.576 607.527,-722.535 611.5,-723 611.5,-723 611.5,-723 607.527,-722.535 611.918,-719.424 603.554,-722.07 603.554,-722.07"/>
<ellipse fill="none" stroke="black" cx="600.376" cy="-721.698" rx="3.2" ry="3.2"/>
</g>
<!-- host_initiator_groups -->
<g id="node4" class="node"><title>host_initiator_groups</title>
<g id="a_node4"><a xlink:href="../../tables/host_initiator_groups.html" xlink:title="host_initiator_groups" target="_top">
<polygon fill="#ffffff" stroke="none" points="618,-504 618,-628 787,-628 787,-504 618,-504"/>
<polygon fill="#f5f5f5" stroke="none" points="618.5,-606 618.5,-628 787.5,-628 787.5,-606 618.5,-606"/>
<polygon fill="none" stroke="black" points="618.5,-606 618.5,-628 787.5,-628 787.5,-606 618.5,-606"/>
<text text-anchor="start" x="623.5" y="-615.2" font-family="Helvetica,sans-Serif" font-weight="bold" font-size="11.00">host_initiator_groups</text>
<text text-anchor="start" x="748.5" y="-614.2" font-family="Helvetica,sans-Serif" font-size="11.00">[table]</text>
<polygon fill="none" stroke="black" points="618.5,-584 618.5,-606 787.5,-606 787.5,-584 618.5,-584"/>
<image xlink:href="../../images/primaryKeys.png" width="11px" height="12px" preserveAspectRatio="xMinYMin meet" x="623.5" y="-601"/>
<text text-anchor="start" x="649.5" y="-592.2" font-family="Helvetica,sans-Serif" font-size="11.00">id</text>
<polygon fill="#ffffff" stroke="none" points="618.5,-562 618.5,-584 787.5,-584 787.5,-562 618.5,-562"/>
<polygon fill="none" stroke="black" points="618.5,-562 618.5,-584 787.5,-584 787.5,-562 618.5,-562"/>
<text text-anchor="start" x="649.5" y="-570.2" font-family="Helvetica,sans-Serif" font-size="11.00">ems_id</text>
<polygon fill="#ffffff" stroke="none" points="618.5,-540 618.5,-562 787.5,-562 787.5,-540 618.5,-540"/>
<polygon fill="none" stroke="black" points="618.5,-540 618.5,-562 787.5,-562 787.5,-540 618.5,-540"/>
<image xlink:href="../../images/foreignKeys.png" width="11px" height="12px" preserveAspectRatio="xMinYMin meet" x="623.5" y="-557"/>
<text text-anchor="start" x="649.5" y="-548.2" font-family="Helvetica,sans-Serif" font-size="11.00">physical_storage_id</text>
<polygon fill="none" stroke="black" points="618.5,-522 618.5,-540 787.5,-540 787.5,-522 618.5,-522"/>
<text text-anchor="start" x="621.5" y="-528.2" font-family="Helvetica,sans-Serif" font-size="11.00">...</text>
<polygon fill="#ffffff" stroke="none" points="618.5,-504 618.5,-522 696.5,-522 696.5,-504 618.5,-504"/>
<polygon fill="none" stroke="black" points="618.5,-504 618.5,-522 696.5,-522 696.5,-504 618.5,-504"/>
<text text-anchor="start" x="621.5" y="-510.2" font-family="Helvetica,sans-Serif" font-size="11.00">&lt; 1</text>
<polygon fill="#ffffff" stroke="none" points="696.5,-504 696.5,-522 736.5,-522 736.5,-504 696.5,-504"/>
<polygon fill="none" stroke="black" points="696.5,-504 696.5,-522 736.5,-522 736.5,-504 696.5,-504"/>
<text text-anchor="start" x="726.5" y="-510.2" font-family="Helvetica,sans-Serif" font-size="11.00"> &#160;</text>
<polygon fill="#ffffff" stroke="none" points="736.5,-504 736.5,-522 787.5,-522 787.5,-504 736.5,-504"/>
<polygon fill="none" stroke="black" points="736.5,-504 736.5,-522 787.5,-522 787.5,-504 736.5,-504"/>
<text text-anchor="start" x="767.5" y="-510.2" font-family="Helvetica,sans-Serif" font-size="11.00">2 &gt;</text>
</a>
</g>
</g>
<!-- host_initiator_groups&#45;&gt;physical_storages -->
<g id="edge3" class="edge"><title>host_initiator_groups:physical_storage_id:w&#45;&gt;physical_storages:id.type:e</title>
<path fill="none" stroke="black" d="M603.245,-547.381C579.36,-532.913 589.804,-480 553,-480"/>
<polygon fill="black" stroke="black" points="609.746,-549.032 616.614,-554.489 613.623,-550.016 617.5,-551 617.5,-551 617.5,-551 613.623,-550.016 618.386,-547.511 609.746,-549.032 609.746,-549.032"/>
<ellipse fill="none" stroke="black" cx="606.644" cy="-548.244" rx="3.2" ry="3.2"/>
</g>
<!-- host_initiators -->
<g id="node5" class="node"><title>host_initiators</title>
<g id="a_node5"><a xlink:href="../../tables/host_initiators.html" xlink:title="host_initiators" target="_top">
<polygon fill="#ffffff" stroke="none" points="851,-564 851,-710 1009,-710 1009,-564 851,-564"/>
<polygon fill="#f5f5f5" stroke="none" points="851,-688 851,-710 1009,-710 1009,-688 851,-688"/>
<polygon fill="none" stroke="black" points="851,-688 851,-710 1009,-710 1009,-688 851,-688"/>
<text text-anchor="start" x="856" y="-697.2" font-family="Helvetica,sans-Serif" font-weight="bold" font-size="11.00">host_initiators</text>
<text text-anchor="start" x="970" y="-696.2" font-family="Helvetica,sans-Serif" font-size="11.00">[table]</text>
<polygon fill="none" stroke="black" points="851,-666 851,-688 1009,-688 1009,-666 851,-666"/>
<image xlink:href="../../images/primaryKeys.png" width="11px" height="12px" preserveAspectRatio="xMinYMin meet" x="856" y="-683"/>
<text text-anchor="start" x="871" y="-674.2" font-family="Helvetica,sans-Serif" font-size="11.00">id</text>
<polygon fill="#ffffff" stroke="none" points="851,-644 851,-666 1009,-666 1009,-644 851,-644"/>
<polygon fill="none" stroke="black" points="851,-644 851,-666 1009,-666 1009,-644 851,-644"/>
<text text-anchor="start" x="871" y="-652.2" font-family="Helvetica,sans-Serif" font-size="11.00">ems_id</text>
<polygon fill="#ffffff" stroke="none" points="851,-622 851,-644 1009,-644 1009,-622 851,-622"/>
<polygon fill="none" stroke="black" points="851,-622 851,-644 1009,-644 1009,-622 851,-622"/>
<image xlink:href="../../images/foreignKeys.png" width="11px" height="12px" preserveAspectRatio="xMinYMin meet" x="856" y="-639"/>
<text text-anchor="start" x="871" y="-630.2" font-family="Helvetica,sans-Serif" font-size="11.00">physical_storage_id</text>
<polygon fill="#ffffff" stroke="none" points="851,-600 851,-622 1009,-622 1009,-600 851,-600"/>
<polygon fill="none" stroke="black" points="851,-600 851,-622 1009,-622 1009,-600 851,-600"/>
<image xlink:href="../../images/foreignKeys.png" width="11px" height="12px" preserveAspectRatio="xMinYMin meet" x="856" y="-617"/>
<text text-anchor="start" x="871" y="-608.2" font-family="Helvetica,sans-Serif" font-size="11.00">host_initiator_group_id</text>
<polygon fill="none" stroke="black" points="851,-582 851,-600 1009,-600 1009,-582 851,-582"/>
<text text-anchor="start" x="854" y="-588.2" font-family="Helvetica,sans-Serif" font-size="11.00">...</text>
<polygon fill="#ffffff" stroke="none" points="851,-564 851,-582 923,-582 923,-564 851,-564"/>
<polygon fill="none" stroke="black" points="851,-564 851,-582 923,-582 923,-564 851,-564"/>
<text text-anchor="start" x="854" y="-570.2" font-family="Helvetica,sans-Serif" font-size="11.00">&lt; 2</text>
<polygon fill="#ffffff" stroke="none" points="923,-564 923,-582 961,-582 961,-564 923,-564"/>
<polygon fill="none" stroke="black" points="923,-564 923,-582 961,-582 961,-564 923,-564"/>
<text text-anchor="start" x="951" y="-570.2" font-family="Helvetica,sans-Serif" font-size="11.00"> &#160;</text>
<polygon fill="#ffffff" stroke="none" points="961,-564 961,-582 1009,-582 1009,-564 961,-564"/>
<polygon fill="none" stroke="black" points="961,-564 961,-582 1009,-582 1009,-564 961,-564"/>
<text text-anchor="start" x="989" y="-570.2" font-family="Helvetica,sans-Serif" font-size="11.00">1 &gt;</text>
</a>
</g>
</g>
<!-- host_initiators&#45;&gt;physical_storages -->
<g id="edge5" class="edge"><title>host_initiators:physical_storage_id:w&#45;&gt;physical_storages:id.type:e</title>
<path fill="none" stroke="black" d="M835.532,-634.276C827.71,-635.758 821.905,-638.112 810,-639 762.355,-642.554 632.853,-668.152 595,-639 537.092,-594.403 626.091,-480 553,-480"/>
<polygon fill="black" stroke="black" points="842.031,-633.703 850.316,-636.586 846.015,-633.351 850,-633 850,-633 850,-633 846.015,-633.351 849.684,-629.414 842.031,-633.703 842.031,-633.703"/>
<ellipse fill="none" stroke="black" cx="838.843" cy="-633.984" rx="3.2" ry="3.2"/>
</g>
<!-- host_initiators&#45;&gt;host_initiator_groups -->
<g id="edge4" class="edge"><title>host_initiators:host_initiator_group_id:w&#45;&gt;host_initiator_groups:id:e</title>
<path fill="none" stroke="black" d="M835.275,-609.288C818.762,-605.16 811.006,-595 788.5,-595"/>
<polygon fill="black" stroke="black" points="842.054,-610.076 849.584,-614.576 846.027,-610.538 850,-611 850,-611 850,-611 846.027,-610.538 850.416,-607.424 842.054,-610.076 842.054,-610.076"/>
<ellipse fill="none" stroke="black" cx="838.875" cy="-609.706" rx="3.2" ry="3.2"/>
</g>
<!-- physical_disks -->
<g id="node6" class="node"><title>physical_disks</title>
<g id="a_node6"><a xlink:href="../../tables/physical_disks.html" xlink:title="physical_disks" target="_top">
<polygon fill="#ffffff" stroke="none" points="862,-395 862,-541 998,-541 998,-395 862,-395"/>
<polygon fill="#f5f5f5" stroke="none" points="862,-519 862,-541 998,-541 998,-519 862,-519"/>
<polygon fill="none" stroke="black" points="862,-519 862,-541 998,-541 998,-519 862,-519"/>
<text text-anchor="start" x="867" y="-528.2" font-family="Helvetica,sans-Serif" font-weight="bold" font-size="11.00">physical_disks</text>
<text text-anchor="start" x="959" y="-527.2" font-family="Helvetica,sans-Serif" font-size="11.00">[table]</text>
<polygon fill="none" stroke="black" points="862,-497 862,-519 998,-519 998,-497 862,-497"/>
<image xlink:href="../../images/primaryKeys.png" width="11px" height="12px" preserveAspectRatio="xMinYMin meet" x="867" y="-514"/>
<text text-anchor="start" x="882" y="-505.2" font-family="Helvetica,sans-Serif" font-size="11.00">id</text>
<polygon fill="#ffffff" stroke="none" points="862,-475 862,-497 998,-497 998,-475 862,-475"/>
<polygon fill="none" stroke="black" points="862,-475 862,-497 998,-497 998,-475 862,-475"/>
<text text-anchor="start" x="882" y="-483.2" font-family="Helvetica,sans-Serif" font-size="11.00">location</text>
<polygon fill="#ffffff" stroke="none" points="862,-453 862,-475 998,-475 998,-453 862,-453"/>
<polygon fill="none" stroke="black" points="862,-453 862,-475 998,-475 998,-453 862,-453"/>
<image xlink:href="../../images/foreignKeys.png" width="11px" height="12px" preserveAspectRatio="xMinYMin meet" x="867" y="-470"/>
<text text-anchor="start" x="882" y="-461.2" font-family="Helvetica,sans-Serif" font-size="11.00">physical_storage_id</text>
<polygon fill="#ffffff" stroke="none" points="862,-431 862,-453 998,-453 998,-431 862,-431"/>
<polygon fill="none" stroke="black" points="862,-431 862,-453 998,-453 998,-431 862,-431"/>
<image xlink:href="../../images/foreignKeys.png" width="11px" height="12px" preserveAspectRatio="xMinYMin meet" x="867" y="-448"/>
<text text-anchor="start" x="882" y="-439.2" font-family="Helvetica,sans-Serif" font-size="11.00">canister_id</text>
<polygon fill="none" stroke="black" points="862,-413 862,-431 998,-431 998,-413 862,-413"/>
<text text-anchor="start" x="865" y="-419.2" font-family="Helvetica,sans-Serif" font-size="11.00">...</text>
<polygon fill="#ffffff" stroke="none" points="862,-395 862,-413 928,-413 928,-395 862,-395"/>
<polygon fill="none" stroke="black" points="862,-395 862,-413 928,-413 928,-395 862,-395"/>
<text text-anchor="start" x="865" y="-401.2" font-family="Helvetica,sans-Serif" font-size="11.00">&lt; 2</text>
<polygon fill="#ffffff" stroke="none" points="928,-395 928,-413 963,-413 963,-395 928,-395"/>
<polygon fill="none" stroke="black" points="928,-395 928,-413 963,-413 963,-395 928,-395"/>
<text text-anchor="start" x="953" y="-401.2" font-family="Helvetica,sans-Serif" font-size="11.00"> &#160;</text>
<polygon fill="#ffffff" stroke="none" points="963,-395 963,-413 998,-413 998,-395 963,-395"/>
<polygon fill="none" stroke="black" points="963,-395 963,-413 998,-413 998,-395 963,-395"/>
<text text-anchor="start" x="988" y="-401.2" font-family="Helvetica,sans-Serif" font-size="11.00"> &#160;</text>
</a>
</g>
</g>
<!-- physical_disks&#45;&gt;canisters -->
<g id="edge6" class="edge"><title>physical_disks:canister_id:w&#45;&gt;canisters:id:e</title>
<path fill="none" stroke="black" d="M846.634,-439.82C831.503,-434.83 824.737,-423 803.5,-423"/>
<polygon fill="black" stroke="black" points="853.091,-440.8 860.46,-445.559 857.045,-441.4 861,-442 861,-442 861,-442 857.045,-441.4 861.54,-438.441 853.091,-440.8 853.091,-440.8"/>
<ellipse fill="none" stroke="black" cx="849.927" cy="-440.32" rx="3.2" ry="3.2"/>
</g>
<!-- physical_disks&#45;&gt;physical_storages -->
<g id="edge7" class="edge"><title>physical_disks:physical_storage_id:w&#45;&gt;physical_storages:id.type:e</title>
<path fill="none" stroke="black" d="M846.26,-464.312C834.262,-464.873 826.827,-466.08 810,-467 695.802,-473.247 667.368,-480 553,-480"/>
<polygon fill="black" stroke="black" points="853.002,-464.169 861.076,-467.599 857.001,-464.085 861,-464 861,-464 861,-464 857.001,-464.085 860.924,-460.401 853.002,-464.169 853.002,-464.169"/>
<ellipse fill="none" stroke="black" cx="849.803" cy="-464.237" rx="3.2" ry="3.2"/>
</g>
<!-- storage_resources -->
<g id="node9" class="node"><title>storage_resources</title>
<g id="a_node9"><a xlink:href="../../tables/storage_resources.html" xlink:title="storage_resources" target="_top">
<polygon fill="#ffffff" stroke="none" points="627.5,-209 627.5,-333 777.5,-333 777.5,-209 627.5,-209"/>
<polygon fill="#f5f5f5" stroke="none" points="627.5,-311 627.5,-333 777.5,-333 777.5,-311 627.5,-311"/>
<polygon fill="none" stroke="black" points="627.5,-311 627.5,-333 777.5,-333 777.5,-311 627.5,-311"/>
<text text-anchor="start" x="632.5" y="-320.2" font-family="Helvetica,sans-Serif" font-weight="bold" font-size="11.00">storage_resources</text>
<text text-anchor="start" x="738.5" y="-319.2" font-family="Helvetica,sans-Serif" font-size="11.00">[table]</text>
<polygon fill="none" stroke="black" points="627.5,-289 627.5,-311 777.5,-311 777.5,-289 627.5,-289"/>
<image xlink:href="../../images/primaryKeys.png" width="11px" height="12px" preserveAspectRatio="xMinYMin meet" x="632.5" y="-306"/>
<text text-anchor="start" x="654.5" y="-297.2" font-family="Helvetica,sans-Serif" font-size="11.00">id</text>
<polygon fill="#ffffff" stroke="none" points="627.5,-267 627.5,-289 777.5,-289 777.5,-267 627.5,-267"/>
<polygon fill="none" stroke="black" points="627.5,-267 627.5,-289 777.5,-289 777.5,-267 627.5,-267"/>
<text text-anchor="start" x="654.5" y="-275.2" font-family="Helvetica,sans-Serif" font-size="11.00">ems_id</text>
<polygon fill="#ffffff" stroke="none" points="627.5,-245 627.5,-267 777.5,-267 777.5,-245 627.5,-245"/>
<polygon fill="none" stroke="black" points="627.5,-245 627.5,-267 777.5,-267 777.5,-245 627.5,-245"/>
<image xlink:href="../../images/foreignKeys.png" width="11px" height="12px" preserveAspectRatio="xMinYMin meet" x="632.5" y="-262"/>
<text text-anchor="start" x="654.5" y="-253.2" font-family="Helvetica,sans-Serif" font-size="11.00">physical_storage_id</text>
<polygon fill="none" stroke="black" points="627.5,-227 627.5,-245 777.5,-245 777.5,-227 627.5,-227"/>
<text text-anchor="start" x="630.5" y="-233.2" font-family="Helvetica,sans-Serif" font-size="11.00">...</text>
<polygon fill="#ffffff" stroke="none" points="627.5,-209 627.5,-227 695.5,-227 695.5,-209 627.5,-209"/>
<polygon fill="none" stroke="black" points="627.5,-209 627.5,-227 695.5,-227 695.5,-209 627.5,-209"/>
<text text-anchor="start" x="630.5" y="-215.2" font-family="Helvetica,sans-Serif" font-size="11.00">&lt; 1</text>
<polygon fill="#ffffff" stroke="none" points="695.5,-209 695.5,-227 731.5,-227 731.5,-209 695.5,-209"/>
<polygon fill="none" stroke="black" points="695.5,-209 695.5,-227 731.5,-227 731.5,-209 695.5,-209"/>
<text text-anchor="start" x="721.5" y="-215.2" font-family="Helvetica,sans-Serif" font-size="11.00"> &#160;</text>
<polygon fill="#ffffff" stroke="none" points="731.5,-209 731.5,-227 777.5,-227 777.5,-209 731.5,-209"/>
<polygon fill="none" stroke="black" points="731.5,-209 731.5,-227 777.5,-227 777.5,-209 731.5,-209"/>
<text text-anchor="start" x="757.5" y="-215.2" font-family="Helvetica,sans-Serif" font-size="11.00">2 &gt;</text>
</a>
</g>
</g>
<!-- storage_resources&#45;&gt;physical_storages -->
<g id="edge10" class="edge"><title>storage_resources:physical_storage_id:w&#45;&gt;physical_storages:id.type:e</title>
<path fill="none" stroke="black" d="M613.39,-261.991C579.422,-297.614 600.273,-480 553,-480"/>
<polygon fill="black" stroke="black" points="619.224,-259.325 627.996,-259.274 622.862,-257.663 626.5,-256 626.5,-256 626.5,-256 622.862,-257.663 625.004,-252.726 619.224,-259.325 619.224,-259.325"/>
<ellipse fill="none" stroke="black" cx="616.313" cy="-260.655" rx="3.20001" ry="3.20001"/>
</g>
<!-- wwpn_candidates -->
<g id="node10" class="node"><title>wwpn_candidates</title>
<g id="a_node10"><a xlink:href="../../tables/wwpn_candidates.html" xlink:title="wwpn_candidates" target="_top">
<polygon fill="#ffffff" stroke="none" points="627,-64 627,-188 778,-188 778,-64 627,-64"/>
<polygon fill="#f5f5f5" stroke="none" points="627.5,-166 627.5,-188 778.5,-188 778.5,-166 627.5,-166"/>
<polygon fill="none" stroke="black" points="627.5,-166 627.5,-188 778.5,-188 778.5,-166 627.5,-166"/>
<text text-anchor="start" x="632.5" y="-175.2" font-family="Helvetica,sans-Serif" font-weight="bold" font-size="11.00">wwpn_candidates</text>
<text text-anchor="start" x="739.5" y="-174.2" font-family="Helvetica,sans-Serif" font-size="11.00">[table]</text>
<polygon fill="none" stroke="black" points="627.5,-144 627.5,-166 778.5,-166 778.5,-144 627.5,-144"/>
<image xlink:href="../../images/primaryKeys.png" width="11px" height="12px" preserveAspectRatio="xMinYMin meet" x="632.5" y="-161"/>
<text text-anchor="start" x="655.5" y="-152.2" font-family="Helvetica,sans-Serif" font-size="11.00">id</text>
<polygon fill="#ffffff" stroke="none" points="627.5,-122 627.5,-144 778.5,-144 778.5,-122 627.5,-122"/>
<polygon fill="none" stroke="black" points="627.5,-122 627.5,-144 778.5,-144 778.5,-122 627.5,-122"/>
<text text-anchor="start" x="655.5" y="-130.2" font-family="Helvetica,sans-Serif" font-size="11.00">ems_id</text>
<polygon fill="#ffffff" stroke="none" points="627.5,-100 627.5,-122 778.5,-122 778.5,-100 627.5,-100"/>
<polygon fill="none" stroke="black" points="627.5,-100 627.5,-122 778.5,-122 778.5,-100 627.5,-100"/>
<image xlink:href="../../images/foreignKeys.png" width="11px" height="12px" preserveAspectRatio="xMinYMin meet" x="632.5" y="-117"/>
<text text-anchor="start" x="655.5" y="-108.2" font-family="Helvetica,sans-Serif" font-size="11.00">physical_storage_id</text>
<polygon fill="none" stroke="black" points="627.5,-82 627.5,-100 778.5,-100 778.5,-82 627.5,-82"/>
<text text-anchor="start" x="630.5" y="-88.2" font-family="Helvetica,sans-Serif" font-size="11.00">...</text>
<polygon fill="#ffffff" stroke="none" points="627.5,-64 627.5,-82 701.5,-82 701.5,-64 627.5,-64"/>
<polygon fill="none" stroke="black" points="627.5,-64 627.5,-82 701.5,-82 701.5,-64 627.5,-64"/>
<text text-anchor="start" x="630.5" y="-70.2" font-family="Helvetica,sans-Serif" font-size="11.00">&lt; 1</text>
<polygon fill="#ffffff" stroke="none" points="701.5,-64 701.5,-82 739.5,-82 739.5,-64 701.5,-64"/>
<polygon fill="none" stroke="black" points="701.5,-64 701.5,-82 739.5,-82 739.5,-64 701.5,-64"/>
<text text-anchor="start" x="729.5" y="-70.2" font-family="Helvetica,sans-Serif" font-size="11.00"> &#160;</text>
<polygon fill="#ffffff" stroke="none" points="739.5,-64 739.5,-82 778.5,-82 778.5,-64 739.5,-64"/>
<polygon fill="none" stroke="black" points="739.5,-64 739.5,-82 778.5,-82 778.5,-64 739.5,-64"/>
<text text-anchor="start" x="768.5" y="-70.2" font-family="Helvetica,sans-Serif" font-size="11.00"> &#160;</text>
</a>
</g>
</g>
<!-- wwpn_candidates&#45;&gt;physical_storages -->
<g id="edge11" class="edge"><title>wwpn_candidates:physical_storage_id:w&#45;&gt;physical_storages:id.type:e</title>
<path fill="none" stroke="black" d="M612.448,-115.401C554.234,-157.034 631.222,-480 553,-480"/>
<polygon fill="black" stroke="black" points="618.866,-113.391 627.576,-114.435 622.683,-112.196 626.5,-111 626.5,-111 626.5,-111 622.683,-112.196 625.424,-107.565 618.866,-113.391 618.866,-113.391"/>
<ellipse fill="none" stroke="black" cx="615.812" cy="-114.348" rx="3.20001" ry="3.20001"/>
</g>
</g>
</svg>
