<?xml version="1.0" encoding="UTF-8" standalone="no"?>
<!DOCTYPE svg PUBLIC "-//W3C//DTD SVG 1.1//EN"
 "http://www.w3.org/Graphics/SVG/1.1/DTD/svg11.dtd">
<!-- Generated by graphviz version 2.38.0 (20140413.2041)
 -->
<!-- Title: twoDegreesRelationshipsDiagram Pages: 1 -->
<svg width="922pt" height="538pt"
 viewBox="0.00 0.00 922.00 538.00" xmlns="http://www.w3.org/2000/svg" xmlns:xlink="http://www.w3.org/1999/xlink">
<g id="graph0" class="graph" transform="scale(1 1) rotate(0) translate(4 534)">
<title>twoDegreesRelationshipsDiagram</title>
<polygon fill="#ffffff" stroke="none" points="-4,4 -4,-534 918,-534 918,4 -4,4"/>
<text text-anchor="middle" x="74.5" y="-7.2" font-family="Helvetica,sans-Serif" font-size="11.00">Generated by SchemaSpy</text>
<!-- canisters -->
<g id="node1" class="node"><title>canisters</title>
<g id="a_node1"><a xlink:href="../../tables/canisters.html" xlink:title="canisters" target="_top">
<polygon fill="#ffffff" stroke="none" points="590.5,-222 590.5,-280 690.5,-280 690.5,-222 590.5,-222"/>
<polygon fill="#f5f5f5" stroke="none" points="590.5,-258 590.5,-280 690.5,-280 690.5,-258 590.5,-258"/>
<polygon fill="none" stroke="black" points="590.5,-258 590.5,-280 690.5,-280 690.5,-258 590.5,-258"/>
<text text-anchor="start" x="595.5" y="-267.2" font-family="Helvetica,sans-Serif" font-weight="bold" font-size="11.00">canisters</text>
<text text-anchor="start" x="651.5" y="-266.2" font-family="Helvetica,sans-Serif" font-size="11.00">[table]</text>
<polygon fill="none" stroke="black" points="590.5,-240 590.5,-258 690.5,-258 690.5,-240 590.5,-240"/>
<text text-anchor="start" x="593.5" y="-246.2" font-family="Helvetica,sans-Serif" font-size="11.00">...</text>
<polygon fill="#ffffff" stroke="none" points="590.5,-222 590.5,-240 633.5,-240 633.5,-222 590.5,-222"/>
<polygon fill="none" stroke="black" points="590.5,-222 590.5,-240 633.5,-240 633.5,-222 590.5,-222"/>
<text text-anchor="start" x="593.5" y="-228.2" font-family="Helvetica,sans-Serif" font-size="11.00">&lt; 1</text>
<polygon fill="#ffffff" stroke="none" points="633.5,-222 633.5,-240 656.5,-240 656.5,-222 633.5,-222"/>
<polygon fill="none" stroke="black" points="633.5,-222 633.5,-240 656.5,-240 656.5,-222 633.5,-222"/>
<text text-anchor="start" x="646.5" y="-228.2" font-family="Helvetica,sans-Serif" font-size="11.00"> &#160;</text>
<polygon fill="#ffffff" stroke="none" points="656.5,-222 656.5,-240 690.5,-240 690.5,-222 656.5,-222"/>
<polygon fill="none" stroke="black" points="656.5,-222 656.5,-240 690.5,-240 690.5,-222 656.5,-222"/>
<text text-anchor="start" x="670.5" y="-228.2" font-family="Helvetica,sans-Serif" font-size="11.00">2 &gt;</text>
</a>
</g>
</g>
<!-- physical_storages -->
<g id="node2" class="node"><title>physical_storages</title>
<g id="a_node2"><a xlink:href="../../tables/physical_storages.html" xlink:title="physical_storages" target="_top">
<polygon fill="#ffffff" stroke="none" points="308.5,-156 308.5,-280 487.5,-280 487.5,-156 308.5,-156"/>
<polygon fill="#f5f5f5" stroke="none" points="309,-258 309,-280 488,-280 488,-258 309,-258"/>
<polygon fill="none" stroke="black" points="309,-258 309,-280 488,-280 488,-258 309,-258"/>
<text text-anchor="start" x="314" y="-267.2" font-family="Helvetica,sans-Serif" font-weight="bold" font-size="11.00">physical_storages</text>
<text text-anchor="start" x="449" y="-266.2" font-family="Helvetica,sans-Serif" font-size="11.00">[table]</text>
<polygon fill="none" stroke="black" points="309,-236 309,-258 488,-258 488,-236 309,-236"/>
<image xlink:href="../../images/primaryKeys.png" width="11px" height="12px" preserveAspectRatio="xMinYMin meet" x="314" y="-253"/>
<text text-anchor="start" x="329" y="-244.2" font-family="Helvetica,sans-Serif" font-size="11.00">id</text>
<polygon fill="none" stroke="black" points="309,-214 309,-236 488,-236 488,-214 309,-214"/>
<image xlink:href="../../images/foreignKeys.png" width="11px" height="12px" preserveAspectRatio="xMinYMin meet" x="314" y="-231"/>
<text text-anchor="start" x="329" y="-222.2" font-family="Helvetica,sans-Serif" font-size="11.00">physical_rack_id</text>
<polygon fill="#ffffff" stroke="none" points="309,-192 309,-214 488,-214 488,-192 309,-192"/>
<polygon fill="none" stroke="black" points="309,-192 309,-214 488,-214 488,-192 309,-192"/>
<image xlink:href="../../images/foreignKeys.png" width="11px" height="12px" preserveAspectRatio="xMinYMin meet" x="314" y="-209"/>
<text text-anchor="start" x="329" y="-200.2" font-family="Helvetica,sans-Serif" font-size="11.00">physical_storage_family_id</text>
<polygon fill="none" stroke="black" points="309,-174 309,-192 488,-192 488,-174 309,-174"/>
<text text-anchor="start" x="312" y="-180.2" font-family="Helvetica,sans-Serif" font-size="11.00">...</text>
<polygon fill="#ffffff" stroke="none" points="309,-156 309,-174 392,-174 392,-156 309,-156"/>
<polygon fill="none" stroke="black" points="309,-156 309,-174 392,-174 392,-156 309,-156"/>
<text text-anchor="start" x="312" y="-162.2" font-family="Helvetica,sans-Serif" font-size="11.00">&lt; 2</text>
<polygon fill="#ffffff" stroke="none" points="392,-156 392,-174 435,-174 435,-156 392,-156"/>
<polygon fill="none" stroke="black" points="392,-156 392,-174 435,-174 435,-156 392,-156"/>
<text text-anchor="start" x="425" y="-162.2" font-family="Helvetica,sans-Serif" font-size="11.00"> &#160;</text>
<polygon fill="#ffffff" stroke="none" points="435,-156 435,-174 488,-174 488,-156 435,-156"/>
<polygon fill="none" stroke="black" points="435,-156 435,-174 488,-174 488,-156 435,-156"/>
<text text-anchor="start" x="468" y="-162.2" font-family="Helvetica,sans-Serif" font-size="11.00">7 &gt;</text>
</a>
</g>
</g>
<!-- canisters&#45;&gt;physical_storages -->
<g id="edge1" class="edge"><title>canisters:elipses:w&#45;&gt;physical_storages:id:e</title>
<path fill="none" stroke="black" d="M575.067,-248.924C541.751,-248.559 528.44,-247 489,-247"/>
<polygon fill="black" stroke="black" points="581.5,-248.958 589.481,-252.6 585.5,-248.979 589.5,-249 589.5,-249 589.5,-249 585.5,-248.979 589.519,-245.4 581.5,-248.958 581.5,-248.958"/>
<ellipse fill="none" stroke="black" cx="578.3" cy="-248.941" rx="3.2" ry="3.2"/>
</g>
<!-- physical_racks -->
<g id="node9" class="node"><title>physical_racks</title>
<g id="a_node9"><a xlink:href="../../tables/physical_racks.html" xlink:title="physical_racks" target="_top">
<polygon fill="#ffffff" stroke="none" points="8,-220 8,-418 240,-418 240,-220 8,-220"/>
<polygon fill="#f5f5f5" stroke="none" points="10,-394 10,-416 238,-416 238,-394 10,-394"/>
<polygon fill="none" stroke="black" points="10,-394 10,-416 238,-416 238,-394 10,-394"/>
<text text-anchor="start" x="15" y="-403.2" font-family="Helvetica,sans-Serif" font-weight="bold" font-size="11.00">physical_racks</text>
<text text-anchor="start" x="199" y="-402.2" font-family="Helvetica,sans-Serif" font-size="11.00">[table]</text>
<polygon fill="none" stroke="black" points="10,-372 10,-394 117,-394 117,-372 10,-372"/>
<image xlink:href="../../images/primaryKeys.png" width="11px" height="12px" preserveAspectRatio="xMinYMin meet" x="15" y="-389"/>
<text text-anchor="start" x="30" y="-380.2" font-family="Helvetica,sans-Serif" font-size="11.00">id</text>
<polygon fill="none" stroke="black" points="117,-372 117,-394 238,-394 238,-372 117,-372"/>
<text text-anchor="start" x="120" y="-380.2" font-family="Helvetica,sans-Serif" font-size="11.00">bigserial[19]</text>
<polygon fill="none" stroke="black" points="10,-350 10,-372 117,-372 117,-350 10,-350"/>
<text text-anchor="start" x="30" y="-358.2" font-family="Helvetica,sans-Serif" font-size="11.00">ems_id</text>
<polygon fill="none" stroke="black" points="117,-350 117,-372 238,-372 238,-350 117,-350"/>
<text text-anchor="start" x="120" y="-358.2" font-family="Helvetica,sans-Serif" font-size="11.00">int8[19]</text>
<polygon fill="none" stroke="black" points="10,-328 10,-350 117,-350 117,-328 10,-328"/>
<text text-anchor="start" x="30" y="-336.2" font-family="Helvetica,sans-Serif" font-size="11.00">uid_ems</text>
<polygon fill="none" stroke="black" points="117,-328 117,-350 238,-350 238,-328 117,-328"/>
<text text-anchor="start" x="120" y="-336.2" font-family="Helvetica,sans-Serif" font-size="11.00">varchar[2147483647]</text>
<polygon fill="none" stroke="black" points="10,-306 10,-328 117,-328 117,-306 10,-306"/>
<text text-anchor="start" x="30" y="-314.2" font-family="Helvetica,sans-Serif" font-size="11.00">name</text>
<polygon fill="none" stroke="black" points="117,-306 117,-328 238,-328 238,-306 117,-306"/>
<text text-anchor="start" x="120" y="-314.2" font-family="Helvetica,sans-Serif" font-size="11.00">varchar[2147483647]</text>
<polygon fill="none" stroke="black" points="10,-284 10,-306 117,-306 117,-284 10,-284"/>
<text text-anchor="start" x="30" y="-292.2" font-family="Helvetica,sans-Serif" font-size="11.00">created_at</text>
<polygon fill="none" stroke="black" points="117,-284 117,-306 238,-306 238,-284 117,-284"/>
<text text-anchor="start" x="120" y="-292.2" font-family="Helvetica,sans-Serif" font-size="11.00">timestamp[29,6]</text>
<polygon fill="none" stroke="black" points="10,-262 10,-284 117,-284 117,-262 10,-262"/>
<text text-anchor="start" x="30" y="-270.2" font-family="Helvetica,sans-Serif" font-size="11.00">updated_at</text>
<polygon fill="none" stroke="black" points="117,-262 117,-284 238,-284 238,-262 117,-262"/>
<text text-anchor="start" x="120" y="-270.2" font-family="Helvetica,sans-Serif" font-size="11.00">timestamp[29,6]</text>
<polygon fill="none" stroke="black" points="10,-240 10,-262 117,-262 117,-240 10,-240"/>
<text text-anchor="start" x="30" y="-248.2" font-family="Helvetica,sans-Serif" font-size="11.00">ems_ref</text>
<polygon fill="none" stroke="black" points="117,-240 117,-262 238,-262 238,-240 117,-240"/>
<text text-anchor="start" x="120" y="-248.2" font-family="Helvetica,sans-Serif" font-size="11.00">varchar[2147483647]</text>
<polygon fill="#ffffff" stroke="none" points="10,-222 10,-240 68,-240 68,-222 10,-222"/>
<polygon fill="none" stroke="black" points="10,-222 10,-240 68,-240 68,-222 10,-222"/>
<text text-anchor="start" x="13" y="-228.2" font-family="Helvetica,sans-Serif" font-size="11.00">&lt; 0</text>
<polygon fill="#ffffff" stroke="none" points="68,-222 68,-240 117,-240 117,-222 68,-222"/>
<polygon fill="none" stroke="black" points="68,-222 68,-240 117,-240 117,-222 68,-222"/>
<text text-anchor="start" x="107" y="-228.2" font-family="Helvetica,sans-Serif" font-size="11.00"> &#160;</text>
<polygon fill="#ffffff" stroke="none" points="117,-222 117,-240 238,-240 238,-222 117,-222"/>
<polygon fill="none" stroke="black" points="117,-222 117,-240 238,-240 238,-222 117,-222"/>
<text text-anchor="start" x="218" y="-228.2" font-family="Helvetica,sans-Serif" font-size="11.00">3 &gt;</text>
<polygon fill="none" stroke="black" stroke-width="2" points="9,-221 9,-417 239,-417 239,-221 9,-221"/>
</a>
</g>
</g>
<!-- physical_storages&#45;&gt;physical_racks -->
<g id="edge13" class="edge"><title>physical_storages:physical_rack_id:w&#45;&gt;physical_racks:id.type:e</title>
<path fill="none" stroke="black" d="M293.787,-227.356C242.711,-247.011 310.089,-383 239,-383"/>
<polygon fill="black" stroke="black" points="300.108,-226.308 308.589,-228.552 304.054,-225.654 308,-225 308,-225 308,-225 304.054,-225.654 307.411,-221.448 300.108,-226.308 300.108,-226.308"/>
<ellipse fill="none" stroke="black" cx="296.951" cy="-226.832" rx="3.2" ry="3.2"/>
</g>
<!-- physical_storage_families -->
<g id="node11" class="node"><title>physical_storage_families</title>
<g id="a_node11"><a xlink:href="../../tables/physical_storage_families.html" xlink:title="physical_storage_families" target="_top">
<polygon fill="#ffffff" stroke="none" points="27.5,-141 27.5,-199 220.5,-199 220.5,-141 27.5,-141"/>
<polygon fill="#f5f5f5" stroke="none" points="28,-177 28,-199 221,-199 221,-177 28,-177"/>
<polygon fill="none" stroke="black" points="28,-177 28,-199 221,-199 221,-177 28,-177"/>
<text text-anchor="start" x="33" y="-186.2" font-family="Helvetica,sans-Serif" font-weight="bold" font-size="11.00">physical_storage_families</text>
<text text-anchor="start" x="182" y="-185.2" font-family="Helvetica,sans-Serif" font-size="11.00">[table]</text>
<polygon fill="none" stroke="black" points="28,-159 28,-177 221,-177 221,-159 28,-159"/>
<text text-anchor="start" x="31" y="-165.2" font-family="Helvetica,sans-Serif" font-size="11.00">...</text>
<polygon fill="#ffffff" stroke="none" points="28,-141 28,-159 113,-159 113,-141 28,-141"/>
<polygon fill="none" stroke="black" points="28,-141 28,-159 113,-159 113,-141 28,-141"/>
<text text-anchor="start" x="31" y="-147.2" font-family="Helvetica,sans-Serif" font-size="11.00"> &#160;</text>
<polygon fill="#ffffff" stroke="none" points="113,-141 113,-159 162,-159 162,-141 113,-141"/>
<polygon fill="none" stroke="black" points="113,-141 113,-159 162,-159 162,-141 113,-141"/>
<text text-anchor="start" x="152" y="-147.2" font-family="Helvetica,sans-Serif" font-size="11.00"> &#160;</text>
<polygon fill="#ffffff" stroke="none" points="162,-141 162,-159 221,-159 221,-141 162,-141"/>
<polygon fill="none" stroke="black" points="162,-141 162,-159 221,-159 221,-141 162,-141"/>
<text text-anchor="start" x="201" y="-147.2" font-family="Helvetica,sans-Serif" font-size="11.00">1 &gt;</text>
</a>
</g>
</g>
<!-- physical_storages&#45;&gt;physical_storage_families -->
<g id="edge14" class="edge"><title>physical_storages:physical_storage_family_id:w&#45;&gt;physical_storage_families:elipses:e</title>
<path fill="none" stroke="black" d="M293.381,-201.312C265.146,-194.32 257.786,-168 222,-168"/>
<polygon fill="black" stroke="black" points="300.053,-202.082 307.587,-206.576 304.026,-202.541 308,-203 308,-203 308,-203 304.026,-202.541 308.413,-199.424 300.053,-202.082 300.053,-202.082"/>
<ellipse fill="none" stroke="black" cx="296.874" cy="-201.715" rx="3.2" ry="3.2"/>
</g>
<!-- event_streams -->
<g id="node3" class="node"><title>event_streams</title>
<g id="a_node3"><a xlink:href="../../tables/event_streams.html" xlink:title="event_streams" target="_top">
<polygon fill="#ffffff" stroke="none" points="774,-415 774,-473 906,-473 906,-415 774,-415"/>
<polygon fill="#f5f5f5" stroke="none" points="774,-451 774,-473 906,-473 906,-451 774,-451"/>
<polygon fill="none" stroke="black" points="774,-451 774,-473 906,-473 906,-451 774,-451"/>
<text text-anchor="start" x="779" y="-460.2" font-family="Helvetica,sans-Serif" font-weight="bold" font-size="11.00">event_streams</text>
<text text-anchor="start" x="867" y="-459.2" font-family="Helvetica,sans-Serif" font-size="11.00">[table]</text>
<polygon fill="none" stroke="black" points="774,-433 774,-451 906,-451 906,-433 774,-433"/>
<text text-anchor="start" x="777" y="-439.2" font-family="Helvetica,sans-Serif" font-size="11.00">...</text>
<polygon fill="#ffffff" stroke="none" points="774,-415 774,-433 842,-433 842,-415 774,-415"/>
<polygon fill="none" stroke="black" points="774,-415 774,-433 842,-433 842,-415 774,-415"/>
<text text-anchor="start" x="777" y="-421.2" font-family="Helvetica,sans-Serif" font-size="11.00">&lt; 11</text>
<polygon fill="#ffffff" stroke="none" points="842,-415 842,-433 874,-433 874,-415 842,-415"/>
<polygon fill="none" stroke="black" points="842,-415 842,-433 874,-433 874,-415 842,-415"/>
<text text-anchor="start" x="864" y="-421.2" font-family="Helvetica,sans-Serif" font-size="11.00"> &#160;</text>
<polygon fill="#ffffff" stroke="none" points="874,-415 874,-433 906,-433 906,-415 874,-415"/>
<polygon fill="none" stroke="black" points="874,-415 874,-433 906,-433 906,-415 874,-415"/>
<text text-anchor="start" x="896" y="-421.2" font-family="Helvetica,sans-Serif" font-size="11.00"> &#160;</text>
</a>
</g>
</g>
<!-- event_streams&#45;&gt;physical_storages -->
<g id="edge4" class="edge"><title>event_streams:elipses:w&#45;&gt;physical_storages:id:e</title>
<path fill="none" stroke="black" d="M758.483,-439.455C709.152,-429.922 552.055,-396.674 548,-393 496.136,-346.007 558.987,-247 489,-247"/>
<polygon fill="black" stroke="black" points="765.12,-440.619 772.378,-445.546 769.06,-441.309 773,-442 773,-442 773,-442 769.06,-441.309 773.622,-438.454 765.12,-440.619 765.12,-440.619"/>
<ellipse fill="none" stroke="black" cx="761.968" cy="-440.066" rx="3.2" ry="3.2"/>
</g>
<!-- hosts -->
<g id="node4" class="node"><title>hosts</title>
<g id="a_node4"><a xlink:href="../../tables/hosts.html" xlink:title="hosts" target="_top">
<polygon fill="#ffffff" stroke="none" points="601,-466 601,-524 680,-524 680,-466 601,-466"/>
<polygon fill="#f5f5f5" stroke="none" points="601.5,-502 601.5,-524 680.5,-524 680.5,-502 601.5,-502"/>
<polygon fill="none" stroke="black" points="601.5,-502 601.5,-524 680.5,-524 680.5,-502 601.5,-502"/>
<text text-anchor="start" x="606.5" y="-511.2" font-family="Helvetica,sans-Serif" font-weight="bold" font-size="11.00">hosts</text>
<text text-anchor="start" x="641.5" y="-510.2" font-family="Helvetica,sans-Serif" font-size="11.00">[table]</text>
<polygon fill="none" stroke="black" points="601.5,-484 601.5,-502 680.5,-502 680.5,-484 601.5,-484"/>
<text text-anchor="start" x="604.5" y="-490.2" font-family="Helvetica,sans-Serif" font-size="11.00">...</text>
<polygon fill="#ffffff" stroke="none" points="601.5,-466 601.5,-484 630.5,-484 630.5,-466 601.5,-466"/>
<polygon fill="none" stroke="black" points="601.5,-466 601.5,-484 630.5,-484 630.5,-466 601.5,-466"/>
<text text-anchor="start" x="604.5" y="-472.2" font-family="Helvetica,sans-Serif" font-size="11.00">&lt; 3</text>
<polygon fill="#ffffff" stroke="none" points="630.5,-466 630.5,-484 646.5,-484 646.5,-466 630.5,-466"/>
<polygon fill="none" stroke="black" points="630.5,-466 630.5,-484 646.5,-484 646.5,-466 630.5,-466"/>
<text text-anchor="start" x="636.5" y="-472.2" font-family="Helvetica,sans-Serif" font-size="11.00"> &#160;</text>
<polygon fill="#ffffff" stroke="none" points="646.5,-466 646.5,-484 680.5,-484 680.5,-466 646.5,-466"/>
<polygon fill="none" stroke="black" points="646.5,-466 646.5,-484 680.5,-484 680.5,-466 646.5,-466"/>
<text text-anchor="start" x="653.5" y="-472.2" font-family="Helvetica,sans-Serif" font-size="11.00">15 &gt;</text>
</a>
</g>
</g>
<!-- event_streams&#45;&gt;hosts -->
<g id="edge2" class="edge"><title>event_streams:elipses:w&#45;&gt;hosts:elipses:e</title>
<path fill="none" stroke="black" d="M758.462,-443.937C726.16,-453.253 722.601,-493 681.5,-493"/>
<polygon fill="black" stroke="black" points="765.07,-443.057 773.475,-445.568 769.035,-442.528 773,-442 773,-442 773,-442 769.035,-442.528 772.525,-438.432 765.07,-443.057 765.07,-443.057"/>
<ellipse fill="none" stroke="black" cx="761.898" cy="-443.479" rx="3.2" ry="3.2"/>
</g>
<!-- physical_servers -->
<g id="node5" class="node"><title>physical_servers</title>
<g id="a_node5"><a xlink:href="../../tables/physical_servers.html" xlink:title="physical_servers" target="_top">
<polygon fill="#ffffff" stroke="none" points="317.5,-424 317.5,-526 478.5,-526 478.5,-424 317.5,-424"/>
<polygon fill="#f5f5f5" stroke="none" points="318,-504 318,-526 479,-526 479,-504 318,-504"/>
<polygon fill="none" stroke="black" points="318,-504 318,-526 479,-526 479,-504 318,-504"/>
<text text-anchor="start" x="323" y="-513.2" font-family="Helvetica,sans-Serif" font-weight="bold" font-size="11.00">physical_servers</text>
<text text-anchor="start" x="440" y="-512.2" font-family="Helvetica,sans-Serif" font-size="11.00">[table]</text>
<polygon fill="none" stroke="black" points="318,-482 318,-504 479,-504 479,-482 318,-482"/>
<image xlink:href="../../images/primaryKeys.png" width="11px" height="12px" preserveAspectRatio="xMinYMin meet" x="323" y="-499"/>
<text text-anchor="start" x="338" y="-490.2" font-family="Helvetica,sans-Serif" font-size="11.00">id</text>
<polygon fill="none" stroke="black" points="318,-460 318,-482 479,-482 479,-460 318,-460"/>
<image xlink:href="../../images/foreignKeys.png" width="11px" height="12px" preserveAspectRatio="xMinYMin meet" x="323" y="-477"/>
<text text-anchor="start" x="338" y="-468.2" font-family="Helvetica,sans-Serif" font-size="11.00">physical_rack_id</text>
<polygon fill="none" stroke="black" points="318,-442 318,-460 479,-460 479,-442 318,-442"/>
<text text-anchor="start" x="321" y="-448.2" font-family="Helvetica,sans-Serif" font-size="11.00">...</text>
<polygon fill="#ffffff" stroke="none" points="318,-424 318,-442 392,-442 392,-424 318,-424"/>
<polygon fill="none" stroke="black" points="318,-424 318,-442 392,-442 392,-424 318,-424"/>
<text text-anchor="start" x="321" y="-430.2" font-family="Helvetica,sans-Serif" font-size="11.00">&lt; 1</text>
<polygon fill="#ffffff" stroke="none" points="392,-424 392,-442 430,-442 430,-424 392,-424"/>
<polygon fill="none" stroke="black" points="392,-424 392,-442 430,-442 430,-424 392,-424"/>
<text text-anchor="start" x="420" y="-430.2" font-family="Helvetica,sans-Serif" font-size="11.00"> &#160;</text>
<polygon fill="#ffffff" stroke="none" points="430,-424 430,-442 479,-442 479,-424 430,-424"/>
<polygon fill="none" stroke="black" points="430,-424 430,-442 479,-442 479,-424 430,-424"/>
<text text-anchor="start" x="459" y="-430.2" font-family="Helvetica,sans-Serif" font-size="11.00">2 &gt;</text>
</a>
</g>
</g>
<!-- event_streams&#45;&gt;physical_servers -->
<g id="edge3" class="edge"><title>event_streams:elipses:w&#45;&gt;physical_servers:id:e</title>
<path fill="none" stroke="black" d="M758.546,-441.905C669.798,-440.737 639.49,-429.669 548,-456 514.936,-465.516 514.406,-493 480,-493"/>
<polygon fill="black" stroke="black" points="765,-441.947 772.976,-445.6 769,-441.974 773,-442 773,-442 773,-442 769,-441.974 773.024,-438.4 765,-441.947 765,-441.947"/>
<ellipse fill="none" stroke="black" cx="761.8" cy="-441.926" rx="3.2" ry="3.2"/>
</g>
<!-- hosts&#45;&gt;physical_servers -->
<g id="edge8" class="edge"><title>hosts:elipses:w&#45;&gt;physical_servers:id:e</title>
<path fill="none" stroke="black" d="M585.884,-493C543.946,-493 528.326,-493 480,-493"/>
<polygon fill="black" stroke="black" points="592.5,-493 600.5,-496.6 596.5,-493 600.5,-493 600.5,-493 600.5,-493 596.5,-493 600.5,-489.4 592.5,-493 592.5,-493"/>
<ellipse fill="none" stroke="black" cx="589.3" cy="-493" rx="3.2" ry="3.2"/>
</g>
<!-- physical_servers&#45;&gt;physical_racks -->
<g id="edge12" class="edge"><title>physical_servers:physical_rack_id:w&#45;&gt;physical_racks:id.type:e</title>
<path fill="none" stroke="black" d="M302.473,-468.072C269.597,-452.803 285.547,-383 239,-383"/>
<polygon fill="black" stroke="black" points="309.158,-469.419 316.289,-474.529 313.079,-470.21 317,-471 317,-471 317,-471 313.079,-470.21 317.711,-467.471 309.158,-469.419 309.158,-469.419"/>
<ellipse fill="none" stroke="black" cx="306.021" cy="-468.787" rx="3.2" ry="3.2"/>
</g>
<!-- host_initiator_groups -->
<g id="node6" class="node"><title>host_initiator_groups</title>
<g id="a_node6"><a xlink:href="../../tables/host_initiator_groups.html" xlink:title="host_initiator_groups" target="_top">
<polygon fill="#ffffff" stroke="none" points="556,-301 556,-359 725,-359 725,-301 556,-301"/>
<polygon fill="#f5f5f5" stroke="none" points="556.5,-337 556.5,-359 725.5,-359 725.5,-337 556.5,-337"/>
<polygon fill="none" stroke="black" points="556.5,-337 556.5,-359 725.5,-359 725.5,-337 556.5,-337"/>
<text text-anchor="start" x="561.5" y="-346.2" font-family="Helvetica,sans-Serif" font-weight="bold" font-size="11.00">host_initiator_groups</text>
<text text-anchor="start" x="686.5" y="-345.2" font-family="Helvetica,sans-Serif" font-size="11.00">[table]</text>
<polygon fill="none" stroke="black" points="556.5,-319 556.5,-337 725.5,-337 725.5,-319 556.5,-319"/>
<text text-anchor="start" x="559.5" y="-325.2" font-family="Helvetica,sans-Serif" font-size="11.00">...</text>
<polygon fill="#ffffff" stroke="none" points="556.5,-301 556.5,-319 634.5,-319 634.5,-301 556.5,-301"/>
<polygon fill="none" stroke="black" points="556.5,-301 556.5,-319 634.5,-319 634.5,-301 556.5,-301"/>
<text text-anchor="start" x="559.5" y="-307.2" font-family="Helvetica,sans-Serif" font-size="11.00">&lt; 1</text>
<polygon fill="#ffffff" stroke="none" points="634.5,-301 634.5,-319 674.5,-319 674.5,-301 634.5,-301"/>
<polygon fill="none" stroke="black" points="634.5,-301 634.5,-319 674.5,-319 674.5,-301 634.5,-301"/>
<text text-anchor="start" x="664.5" y="-307.2" font-family="Helvetica,sans-Serif" font-size="11.00"> &#160;</text>
<polygon fill="#ffffff" stroke="none" points="674.5,-301 674.5,-319 725.5,-319 725.5,-301 674.5,-301"/>
<polygon fill="none" stroke="black" points="674.5,-301 674.5,-319 725.5,-319 725.5,-301 674.5,-301"/>
<text text-anchor="start" x="705.5" y="-307.2" font-family="Helvetica,sans-Serif" font-size="11.00">2 &gt;</text>
</a>
</g>
</g>
<!-- host_initiator_groups&#45;&gt;physical_storages -->
<g id="edge5" class="edge"><title>host_initiator_groups:elipses:w&#45;&gt;physical_storages:id:e</title>
<path fill="none" stroke="black" d="M541.18,-324.52C514.442,-309.016 529.756,-247 489,-247"/>
<polygon fill="black" stroke="black" points="547.726,-326.111 554.65,-331.498 551.613,-327.055 555.5,-328 555.5,-328 555.5,-328 551.613,-327.055 556.35,-324.502 547.726,-326.111 547.726,-326.111"/>
<ellipse fill="none" stroke="black" cx="544.617" cy="-325.355" rx="3.2" ry="3.2"/>
</g>
<!-- host_initiators -->
<g id="node7" class="node"><title>host_initiators</title>
<g id="a_node7"><a xlink:href="../../tables/host_initiators.html" xlink:title="host_initiators" target="_top">
<polygon fill="#ffffff" stroke="none" points="774.5,-313 774.5,-371 905.5,-371 905.5,-313 774.5,-313"/>
<polygon fill="#f5f5f5" stroke="none" points="775,-349 775,-371 906,-371 906,-349 775,-349"/>
<polygon fill="none" stroke="black" points="775,-349 775,-371 906,-371 906,-349 775,-349"/>
<text text-anchor="start" x="780" y="-358.2" font-family="Helvetica,sans-Serif" font-weight="bold" font-size="11.00">host_initiators</text>
<text text-anchor="start" x="867" y="-357.2" font-family="Helvetica,sans-Serif" font-size="11.00">[table]</text>
<polygon fill="none" stroke="black" points="775,-331 775,-349 906,-349 906,-331 775,-331"/>
<text text-anchor="start" x="778" y="-337.2" font-family="Helvetica,sans-Serif" font-size="11.00">...</text>
<polygon fill="#ffffff" stroke="none" points="775,-313 775,-331 834,-331 834,-313 775,-313"/>
<polygon fill="none" stroke="black" points="775,-313 775,-331 834,-331 834,-313 775,-313"/>
<text text-anchor="start" x="778" y="-319.2" font-family="Helvetica,sans-Serif" font-size="11.00">&lt; 2</text>
<polygon fill="#ffffff" stroke="none" points="834,-313 834,-331 865,-331 865,-313 834,-313"/>
<polygon fill="none" stroke="black" points="834,-313 834,-331 865,-331 865,-313 834,-313"/>
<text text-anchor="start" x="855" y="-319.2" font-family="Helvetica,sans-Serif" font-size="11.00"> &#160;</text>
<polygon fill="#ffffff" stroke="none" points="865,-313 865,-331 906,-331 906,-313 865,-313"/>
<polygon fill="none" stroke="black" points="865,-313 865,-331 906,-331 906,-313 865,-313"/>
<text text-anchor="start" x="886" y="-319.2" font-family="Helvetica,sans-Serif" font-size="11.00">1 &gt;</text>
</a>
</g>
</g>
<!-- host_initiators&#45;&gt;physical_storages -->
<g id="edge7" class="edge"><title>host_initiators:elipses:w&#45;&gt;physical_storages:id:e</title>
<path fill="none" stroke="black" d="M760.2,-344.359C751.252,-351.376 748.594,-364.904 733,-370 654.845,-395.54 616.434,-415.578 548,-370 497.537,-336.391 549.63,-247 489,-247"/>
<polygon fill="black" stroke="black" points="766.372,-342.41 775.084,-343.433 770.186,-341.205 774,-340 774,-340 774,-340 770.186,-341.205 772.916,-336.567 766.372,-342.41 766.372,-342.41"/>
<ellipse fill="none" stroke="black" cx="763.32" cy="-343.374" rx="3.20001" ry="3.20001"/>
</g>
<!-- host_initiators&#45;&gt;host_initiator_groups -->
<g id="edge6" class="edge"><title>host_initiators:elipses:w&#45;&gt;host_initiator_groups:elipses:e</title>
<path fill="none" stroke="black" d="M759.407,-337.799C748.732,-334.335 742.32,-328 726.5,-328"/>
<polygon fill="black" stroke="black" points="766.089,-338.807 773.463,-343.56 770.045,-339.403 774,-340 774,-340 774,-340 770.045,-339.403 774.537,-336.44 766.089,-338.807 766.089,-338.807"/>
<ellipse fill="none" stroke="black" cx="762.925" cy="-338.33" rx="3.2" ry="3.2"/>
</g>
<!-- physical_chassis -->
<g id="node8" class="node"><title>physical_chassis</title>
<g id="a_node8"><a xlink:href="../../tables/physical_chassis.html" xlink:title="physical_chassis" target="_top">
<polygon fill="#ffffff" stroke="none" points="289,-301 289,-403 507,-403 507,-301 289,-301"/>
<polygon fill="#f5f5f5" stroke="none" points="289,-381 289,-403 507,-403 507,-381 289,-381"/>
<polygon fill="none" stroke="black" points="289,-381 289,-403 507,-403 507,-381 289,-381"/>
<text text-anchor="start" x="294" y="-390.2" font-family="Helvetica,sans-Serif" font-weight="bold" font-size="11.00">physical_chassis</text>
<text text-anchor="start" x="468" y="-389.2" font-family="Helvetica,sans-Serif" font-size="11.00">[table]</text>
<polygon fill="none" stroke="black" points="289,-359 289,-381 507,-381 507,-359 289,-359"/>
<image xlink:href="../../images/primaryKeys.png" width="11px" height="12px" preserveAspectRatio="xMinYMin meet" x="294" y="-376"/>
<text text-anchor="start" x="309" y="-367.2" font-family="Helvetica,sans-Serif" font-size="11.00">id</text>
<polygon fill="none" stroke="black" points="289,-337 289,-359 507,-359 507,-337 289,-337"/>
<image xlink:href="../../images/foreignKeys.png" width="11px" height="12px" preserveAspectRatio="xMinYMin meet" x="294" y="-354"/>
<text text-anchor="start" x="309" y="-345.2" font-family="Helvetica,sans-Serif" font-size="11.00">physical_rack_id</text>
<polygon fill="none" stroke="black" points="289,-319 289,-337 507,-337 507,-319 289,-319"/>
<text text-anchor="start" x="292" y="-325.2" font-family="Helvetica,sans-Serif" font-size="11.00">...</text>
<polygon fill="#ffffff" stroke="none" points="289,-301 289,-319 396,-319 396,-301 289,-301"/>
<polygon fill="none" stroke="black" points="289,-301 289,-319 396,-319 396,-301 289,-301"/>
<text text-anchor="start" x="292" y="-307.2" font-family="Helvetica,sans-Serif" font-size="11.00">&lt; 1</text>
<polygon fill="#ffffff" stroke="none" points="396,-301 396,-319 451,-319 451,-301 396,-301"/>
<polygon fill="none" stroke="black" points="396,-301 396,-319 451,-319 451,-301 396,-301"/>
<text text-anchor="start" x="441" y="-307.2" font-family="Helvetica,sans-Serif" font-size="11.00"> &#160;</text>
<polygon fill="#ffffff" stroke="none" points="451,-301 451,-319 507,-319 507,-301 451,-301"/>
<polygon fill="none" stroke="black" points="451,-301 451,-319 507,-319 507,-301 451,-301"/>
<text text-anchor="start" x="497" y="-307.2" font-family="Helvetica,sans-Serif" font-size="11.00"> &#160;</text>
</a>
</g>
</g>
<!-- physical_chassis&#45;&gt;physical_racks -->
<g id="edge9" class="edge"><title>physical_chassis:physical_rack_id:w&#45;&gt;physical_racks:id.type:e</title>
<path fill="none" stroke="black" d="M273.9,-352.576C261.682,-362.063 259.699,-383 239,-383"/>
<polygon fill="black" stroke="black" points="280.391,-350.469 289.111,-351.424 284.195,-349.235 288,-348 288,-348 288,-348 284.195,-349.235 286.889,-344.576 280.391,-350.469 280.391,-350.469"/>
<ellipse fill="none" stroke="black" cx="277.347" cy="-351.457" rx="3.20001" ry="3.20001"/>
</g>
<!-- physical_disks -->
<g id="node10" class="node"><title>physical_disks</title>
<g id="a_node10"><a xlink:href="../../tables/physical_disks.html" xlink:title="physical_disks" target="_top">
<polygon fill="#ffffff" stroke="none" points="775.5,-209 775.5,-267 904.5,-267 904.5,-209 775.5,-209"/>
<polygon fill="#f5f5f5" stroke="none" points="776,-245 776,-267 905,-267 905,-245 776,-245"/>
<polygon fill="none" stroke="black" points="776,-245 776,-267 905,-267 905,-245 776,-245"/>
<text text-anchor="start" x="781" y="-254.2" font-family="Helvetica,sans-Serif" font-weight="bold" font-size="11.00">physical_disks</text>
<text text-anchor="start" x="866" y="-253.2" font-family="Helvetica,sans-Serif" font-size="11.00">[table]</text>
<polygon fill="none" stroke="black" points="776,-227 776,-245 905,-245 905,-227 776,-227"/>
<text text-anchor="start" x="779" y="-233.2" font-family="Helvetica,sans-Serif" font-size="11.00">...</text>
<polygon fill="#ffffff" stroke="none" points="776,-209 776,-227 839,-227 839,-209 776,-209"/>
<polygon fill="none" stroke="black" points="776,-209 776,-227 839,-227 839,-209 776,-209"/>
<text text-anchor="start" x="779" y="-215.2" font-family="Helvetica,sans-Serif" font-size="11.00">&lt; 2</text>
<polygon fill="#ffffff" stroke="none" points="839,-209 839,-227 872,-227 872,-209 839,-209"/>
<polygon fill="none" stroke="black" points="839,-209 839,-227 872,-227 872,-209 839,-209"/>
<text text-anchor="start" x="862" y="-215.2" font-family="Helvetica,sans-Serif" font-size="11.00"> &#160;</text>
<polygon fill="#ffffff" stroke="none" points="872,-209 872,-227 905,-227 905,-209 872,-209"/>
<polygon fill="none" stroke="black" points="872,-209 872,-227 905,-227 905,-209 872,-209"/>
<text text-anchor="start" x="895" y="-215.2" font-family="Helvetica,sans-Serif" font-size="11.00"> &#160;</text>
</a>
</g>
</g>
<!-- physical_disks&#45;&gt;canisters -->
<g id="edge10" class="edge"><title>physical_disks:elipses:w&#45;&gt;canisters:elipses:e</title>
<path fill="none" stroke="black" d="M760.367,-236.736C734.409,-239.486 723.63,-249 691.5,-249"/>
<polygon fill="black" stroke="black" points="767.01,-236.402 775.181,-239.595 771.005,-236.201 775,-236 775,-236 775,-236 771.005,-236.201 774.819,-232.405 767.01,-236.402 767.01,-236.402"/>
<ellipse fill="none" stroke="black" cx="763.814" cy="-236.563" rx="3.2" ry="3.2"/>
</g>
<!-- physical_disks&#45;&gt;physical_storages -->
<g id="edge11" class="edge"><title>physical_disks:elipses:w&#45;&gt;physical_storages:id:e</title>
<path fill="none" stroke="black" d="M761.075,-232.314C751.992,-226.629 747.935,-215.966 733,-212 653.532,-190.896 627.293,-190.25 548,-212 518.597,-220.065 519.489,-247 489,-247"/>
<polygon fill="black" stroke="black" points="767.266,-233.953 774.079,-239.48 771.133,-234.976 775,-236 775,-236 775,-236 771.133,-234.976 775.921,-232.52 767.266,-233.953 767.266,-233.953"/>
<ellipse fill="none" stroke="black" cx="764.173" cy="-233.134" rx="3.2" ry="3.2"/>
</g>
<!-- storage_resources -->
<g id="node12" class="node"><title>storage_resources</title>
<g id="a_node12"><a xlink:href="../../tables/storage_resources.html" xlink:title="storage_resources" target="_top">
<polygon fill="#ffffff" stroke="none" points="565.5,-116 565.5,-174 715.5,-174 715.5,-116 565.5,-116"/>
<polygon fill="#f5f5f5" stroke="none" points="565.5,-152 565.5,-174 715.5,-174 715.5,-152 565.5,-152"/>
<polygon fill="none" stroke="black" points="565.5,-152 565.5,-174 715.5,-174 715.5,-152 565.5,-152"/>
<text text-anchor="start" x="570.5" y="-161.2" font-family="Helvetica,sans-Serif" font-weight="bold" font-size="11.00">storage_resources</text>
<text text-anchor="start" x="676.5" y="-160.2" font-family="Helvetica,sans-Serif" font-size="11.00">[table]</text>
<polygon fill="none" stroke="black" points="565.5,-134 565.5,-152 715.5,-152 715.5,-134 565.5,-134"/>
<text text-anchor="start" x="568.5" y="-140.2" font-family="Helvetica,sans-Serif" font-size="11.00">...</text>
<polygon fill="#ffffff" stroke="none" points="565.5,-116 565.5,-134 633.5,-134 633.5,-116 565.5,-116"/>
<polygon fill="none" stroke="black" points="565.5,-116 565.5,-134 633.5,-134 633.5,-116 565.5,-116"/>
<text text-anchor="start" x="568.5" y="-122.2" font-family="Helvetica,sans-Serif" font-size="11.00">&lt; 1</text>
<polygon fill="#ffffff" stroke="none" points="633.5,-116 633.5,-134 669.5,-134 669.5,-116 633.5,-116"/>
<polygon fill="none" stroke="black" points="633.5,-116 633.5,-134 669.5,-134 669.5,-116 633.5,-116"/>
<text text-anchor="start" x="659.5" y="-122.2" font-family="Helvetica,sans-Serif" font-size="11.00"> &#160;</text>
<polygon fill="#ffffff" stroke="none" points="669.5,-116 669.5,-134 715.5,-134 715.5,-116 669.5,-116"/>
<polygon fill="none" stroke="black" points="669.5,-116 669.5,-134 715.5,-134 715.5,-116 669.5,-116"/>
<text text-anchor="start" x="695.5" y="-122.2" font-family="Helvetica,sans-Serif" font-size="11.00">2 &gt;</text>
</a>
</g>
</g>
<!-- storage_resources&#45;&gt;physical_storages -->
<g id="edge15" class="edge"><title>storage_resources:elipses:w&#45;&gt;physical_storages:id:e</title>
<path fill="none" stroke="black" d="M550.33,-145.782C514.033,-162.321 540.54,-247 489,-247"/>
<polygon fill="black" stroke="black" points="556.65,-144.541 565.194,-146.533 560.575,-143.771 564.5,-143 564.5,-143 564.5,-143 560.575,-143.771 563.806,-139.467 556.65,-144.541 556.65,-144.541"/>
<ellipse fill="none" stroke="black" cx="553.51" cy="-145.158" rx="3.2" ry="3.2"/>
</g>
<!-- wwpn_candidates -->
<g id="node13" class="node"><title>wwpn_candidates</title>
<g id="a_node13"><a xlink:href="../../tables/wwpn_candidates.html" xlink:title="wwpn_candidates" target="_top">
<polygon fill="#ffffff" stroke="none" points="565,-37 565,-95 716,-95 716,-37 565,-37"/>
<polygon fill="#f5f5f5" stroke="none" points="565.5,-73 565.5,-95 716.5,-95 716.5,-73 565.5,-73"/>
<polygon fill="none" stroke="black" points="565.5,-73 565.5,-95 716.5,-95 716.5,-73 565.5,-73"/>
<text text-anchor="start" x="570.5" y="-82.2" font-family="Helvetica,sans-Serif" font-weight="bold" font-size="11.00">wwpn_candidates</text>
<text text-anchor="start" x="677.5" y="-81.2" font-family="Helvetica,sans-Serif" font-size="11.00">[table]</text>
<polygon fill="none" stroke="black" points="565.5,-55 565.5,-73 716.5,-73 716.5,-55 565.5,-55"/>
<text text-anchor="start" x="568.5" y="-61.2" font-family="Helvetica,sans-Serif" font-size="11.00">...</text>
<polygon fill="#ffffff" stroke="none" points="565.5,-37 565.5,-55 639.5,-55 639.5,-37 565.5,-37"/>
<polygon fill="none" stroke="black" points="565.5,-37 565.5,-55 639.5,-55 639.5,-37 565.5,-37"/>
<text text-anchor="start" x="568.5" y="-43.2" font-family="Helvetica,sans-Serif" font-size="11.00">&lt; 1</text>
<polygon fill="#ffffff" stroke="none" points="639.5,-37 639.5,-55 677.5,-55 677.5,-37 639.5,-37"/>
<polygon fill="none" stroke="black" points="639.5,-37 639.5,-55 677.5,-55 677.5,-37 639.5,-37"/>
<text text-anchor="start" x="667.5" y="-43.2" font-family="Helvetica,sans-Serif" font-size="11.00"> &#160;</text>
<polygon fill="#ffffff" stroke="none" points="677.5,-37 677.5,-55 716.5,-55 716.5,-37 677.5,-37"/>
<polygon fill="none" stroke="black" points="677.5,-37 677.5,-55 716.5,-55 716.5,-37 677.5,-37"/>
<text text-anchor="start" x="706.5" y="-43.2" font-family="Helvetica,sans-Serif" font-size="11.00"> &#160;</text>
</a>
</g>
</g>
<!-- wwpn_candidates&#45;&gt;physical_storages -->
<g id="edge16" class="edge"><title>wwpn_candidates:elipses:w&#45;&gt;physical_storages:id:e</title>
<path fill="none" stroke="black" d="M550.119,-66.0552C488.339,-86.1602 571.484,-247 489,-247"/>
<polygon fill="black" stroke="black" points="556.58,-65.1319 565.009,-67.5638 560.54,-64.5659 564.5,-64 564.5,-64 564.5,-64 560.54,-64.5659 563.991,-60.4362 556.58,-65.1319 556.58,-65.1319"/>
<ellipse fill="none" stroke="black" cx="553.413" cy="-65.5846" rx="3.2" ry="3.2"/>
</g>
</g>
</svg>
