<?xml version="1.0" encoding="UTF-8" standalone="no"?>
<!DOCTYPE svg PUBLIC "-//W3C//DTD SVG 1.1//EN"
 "http://www.w3.org/Graphics/SVG/1.1/DTD/svg11.dtd">
<!-- Generated by graphviz version 2.38.0 (20140413.2041)
 -->
<!-- Title: oneDegreeRelationshipsDiagram Pages: 1 -->
<svg width="549pt" height="311pt"
 viewBox="0.00 0.00 549.00 311.00" xmlns="http://www.w3.org/2000/svg" xmlns:xlink="http://www.w3.org/1999/xlink">
<g id="graph0" class="graph" transform="scale(1 1) rotate(0) translate(4 307)">
<title>oneDegreeRelationshipsDiagram</title>
<polygon fill="#ffffff" stroke="none" points="-4,4 -4,-307 545,-307 545,4 -4,4"/>
<text text-anchor="middle" x="74.5" y="-7.2" font-family="Helvetica,sans-Serif" font-size="11.00">Generated by SchemaSpy</text>
<!-- physical_storages -->
<g id="node1" class="node"><title>physical_storages</title>
<g id="a_node1"><a xlink:href="../../tables/physical_storages.html" xlink:title="physical_storages" target="_top">
<polygon fill="#ffffff" stroke="none" points="354,-175 354,-299 533,-299 533,-175 354,-175"/>
<polygon fill="#f5f5f5" stroke="none" points="354.5,-277 354.5,-299 533.5,-299 533.5,-277 354.5,-277"/>
<polygon fill="none" stroke="black" points="354.5,-277 354.5,-299 533.5,-299 533.5,-277 354.5,-277"/>
<text text-anchor="start" x="359.5" y="-286.2" font-family="Helvetica,sans-Serif" font-weight="bold" font-size="11.00">physical_storages</text>
<text text-anchor="start" x="494.5" y="-285.2" font-family="Helvetica,sans-Serif" font-size="11.00">[table]</text>
<polygon fill="none" stroke="black" points="354.5,-255 354.5,-277 533.5,-277 533.5,-255 354.5,-255"/>
<image xlink:href="../../images/primaryKeys.png" width="11px" height="12px" preserveAspectRatio="xMinYMin meet" x="359.5" y="-272"/>
<text text-anchor="start" x="374.5" y="-263.2" font-family="Helvetica,sans-Serif" font-size="11.00">id</text>
<polygon fill="none" stroke="black" points="354.5,-233 354.5,-255 533.5,-255 533.5,-233 354.5,-233"/>
<image xlink:href="../../images/foreignKeys.png" width="11px" height="12px" preserveAspectRatio="xMinYMin meet" x="359.5" y="-250"/>
<text text-anchor="start" x="374.5" y="-241.2" font-family="Helvetica,sans-Serif" font-size="11.00">physical_rack_id</text>
<polygon fill="#ffffff" stroke="none" points="354.5,-211 354.5,-233 533.5,-233 533.5,-211 354.5,-211"/>
<polygon fill="none" stroke="black" points="354.5,-211 354.5,-233 533.5,-233 533.5,-211 354.5,-211"/>
<image xlink:href="../../images/foreignKeys.png" width="11px" height="12px" preserveAspectRatio="xMinYMin meet" x="359.5" y="-228"/>
<text text-anchor="start" x="374.5" y="-219.2" font-family="Helvetica,sans-Serif" font-size="11.00">physical_storage_family_id</text>
<polygon fill="none" stroke="black" points="354.5,-193 354.5,-211 533.5,-211 533.5,-193 354.5,-193"/>
<text text-anchor="start" x="357.5" y="-199.2" font-family="Helvetica,sans-Serif" font-size="11.00">...</text>
<polygon fill="#ffffff" stroke="none" points="354.5,-175 354.5,-193 437.5,-193 437.5,-175 354.5,-175"/>
<polygon fill="none" stroke="black" points="354.5,-175 354.5,-193 437.5,-193 437.5,-175 354.5,-175"/>
<text text-anchor="start" x="357.5" y="-181.2" font-family="Helvetica,sans-Serif" font-size="11.00">&lt; 2</text>
<polygon fill="#ffffff" stroke="none" points="437.5,-175 437.5,-193 480.5,-193 480.5,-175 437.5,-175"/>
<polygon fill="none" stroke="black" points="437.5,-175 437.5,-193 480.5,-193 480.5,-175 437.5,-175"/>
<text text-anchor="start" x="470.5" y="-181.2" font-family="Helvetica,sans-Serif" font-size="11.00"> &#160;</text>
<polygon fill="#ffffff" stroke="none" points="480.5,-175 480.5,-193 533.5,-193 533.5,-175 480.5,-175"/>
<polygon fill="none" stroke="black" points="480.5,-175 480.5,-193 533.5,-193 533.5,-175 480.5,-175"/>
<text text-anchor="start" x="513.5" y="-181.2" font-family="Helvetica,sans-Serif" font-size="11.00">7 &gt;</text>
</a>
</g>
</g>
<!-- physical_storage_families -->
<g id="node2" class="node"><title>physical_storage_families</title>
<g id="a_node2"><a xlink:href="../../tables/physical_storage_families.html" xlink:title="physical_storage_families" target="_top">
<polygon fill="#ffffff" stroke="none" points="8,-37 8,-257 305,-257 305,-37 8,-37"/>
<polygon fill="#f5f5f5" stroke="none" points="10.5,-233 10.5,-255 303.5,-255 303.5,-233 10.5,-233"/>
<polygon fill="none" stroke="black" points="10.5,-233 10.5,-255 303.5,-255 303.5,-233 10.5,-233"/>
<text text-anchor="start" x="15.5" y="-242.2" font-family="Helvetica,sans-Serif" font-weight="bold" font-size="11.00">physical_storage_families</text>
<text text-anchor="start" x="264.5" y="-241.2" font-family="Helvetica,sans-Serif" font-size="11.00">[table]</text>
<polygon fill="none" stroke="black" points="10.5,-211 10.5,-233 182.5,-233 182.5,-211 10.5,-211"/>
<image xlink:href="../../images/primaryKeys.png" width="11px" height="12px" preserveAspectRatio="xMinYMin meet" x="15.5" y="-228"/>
<text text-anchor="start" x="30.5" y="-219.2" font-family="Helvetica,sans-Serif" font-size="11.00">id</text>
<polygon fill="none" stroke="black" points="182.5,-211 182.5,-233 303.5,-233 303.5,-211 182.5,-211"/>
<text text-anchor="start" x="185.5" y="-219.2" font-family="Helvetica,sans-Serif" font-size="11.00">bigserial[19]</text>
<polygon fill="none" stroke="black" points="10.5,-189 10.5,-211 182.5,-211 182.5,-189 10.5,-189"/>
<text text-anchor="start" x="30.5" y="-197.2" font-family="Helvetica,sans-Serif" font-size="11.00">name</text>
<polygon fill="none" stroke="black" points="182.5,-189 182.5,-211 303.5,-211 303.5,-189 182.5,-189"/>
<text text-anchor="start" x="185.5" y="-197.2" font-family="Helvetica,sans-Serif" font-size="11.00">varchar[2147483647]</text>
<polygon fill="none" stroke="black" points="10.5,-167 10.5,-189 182.5,-189 182.5,-167 10.5,-167"/>
<text text-anchor="start" x="30.5" y="-175.2" font-family="Helvetica,sans-Serif" font-size="11.00">version</text>
<polygon fill="none" stroke="black" points="182.5,-167 182.5,-189 303.5,-189 303.5,-167 182.5,-167"/>
<text text-anchor="start" x="185.5" y="-175.2" font-family="Helvetica,sans-Serif" font-size="11.00">varchar[2147483647]</text>
<polygon fill="#ffffff" stroke="none" points="10.5,-145 10.5,-167 182.5,-167 182.5,-145 10.5,-145"/>
<polygon fill="none" stroke="black" points="10.5,-145 10.5,-167 182.5,-167 182.5,-145 10.5,-145"/>
<text text-anchor="start" x="30.5" y="-153.2" font-family="Helvetica,sans-Serif" font-size="11.00">ems_id</text>
<polygon fill="none" stroke="black" points="182.5,-145 182.5,-167 303.5,-167 303.5,-145 182.5,-145"/>
<text text-anchor="start" x="185.5" y="-153.2" font-family="Helvetica,sans-Serif" font-size="11.00">int8[19]</text>
<polygon fill="none" stroke="black" points="10.5,-123 10.5,-145 182.5,-145 182.5,-123 10.5,-123"/>
<text text-anchor="start" x="30.5" y="-131.2" font-family="Helvetica,sans-Serif" font-size="11.00">ems_ref</text>
<polygon fill="none" stroke="black" points="182.5,-123 182.5,-145 303.5,-145 303.5,-123 182.5,-123"/>
<text text-anchor="start" x="185.5" y="-131.2" font-family="Helvetica,sans-Serif" font-size="11.00">varchar[2147483647]</text>
<polygon fill="none" stroke="black" points="10.5,-101 10.5,-123 182.5,-123 182.5,-101 10.5,-101"/>
<text text-anchor="start" x="30.5" y="-109.2" font-family="Helvetica,sans-Serif" font-size="11.00">created_at</text>
<polygon fill="none" stroke="black" points="182.5,-101 182.5,-123 303.5,-123 303.5,-101 182.5,-101"/>
<text text-anchor="start" x="185.5" y="-109.2" font-family="Helvetica,sans-Serif" font-size="11.00">timestamp[29,6]</text>
<polygon fill="none" stroke="black" points="10.5,-79 10.5,-101 182.5,-101 182.5,-79 10.5,-79"/>
<text text-anchor="start" x="30.5" y="-87.2" font-family="Helvetica,sans-Serif" font-size="11.00">updated_at</text>
<polygon fill="none" stroke="black" points="182.5,-79 182.5,-101 303.5,-101 303.5,-79 182.5,-79"/>
<text text-anchor="start" x="185.5" y="-87.2" font-family="Helvetica,sans-Serif" font-size="11.00">timestamp[29,6]</text>
<polygon fill="none" stroke="black" points="10.5,-57 10.5,-79 182.5,-79 182.5,-57 10.5,-57"/>
<text text-anchor="start" x="30.5" y="-65.2" font-family="Helvetica,sans-Serif" font-size="11.00">capabilities</text>
<polygon fill="none" stroke="black" points="182.5,-57 182.5,-79 303.5,-79 303.5,-57 182.5,-57"/>
<text text-anchor="start" x="185.5" y="-65.2" font-family="Helvetica,sans-Serif" font-size="11.00">jsonb[2147483647]</text>
<polygon fill="#ffffff" stroke="none" points="10.5,-39 10.5,-57 101.5,-57 101.5,-39 10.5,-39"/>
<polygon fill="none" stroke="black" points="10.5,-39 10.5,-57 101.5,-57 101.5,-39 10.5,-39"/>
<text text-anchor="start" x="13.5" y="-45.2" font-family="Helvetica,sans-Serif" font-size="11.00">&lt; 0</text>
<polygon fill="#ffffff" stroke="none" points="101.5,-39 101.5,-57 182.5,-57 182.5,-39 101.5,-39"/>
<polygon fill="none" stroke="black" points="101.5,-39 101.5,-57 182.5,-57 182.5,-39 101.5,-39"/>
<text text-anchor="start" x="172.5" y="-45.2" font-family="Helvetica,sans-Serif" font-size="11.00"> &#160;</text>
<polygon fill="#ffffff" stroke="none" points="182.5,-39 182.5,-57 303.5,-57 303.5,-39 182.5,-39"/>
<polygon fill="none" stroke="black" points="182.5,-39 182.5,-57 303.5,-57 303.5,-39 182.5,-39"/>
<text text-anchor="start" x="283.5" y="-45.2" font-family="Helvetica,sans-Serif" font-size="11.00">1 &gt;</text>
<polygon fill="none" stroke="black" stroke-width="2" points="9,-38 9,-256 304,-256 304,-38 9,-38"/>
</a>
</g>
</g>
<!-- physical_storages&#45;&gt;physical_storage_families -->
<g id="edge1" class="edge"><title>physical_storages:physical_storage_family_id:w&#45;&gt;physical_storage_families:id.type:e</title>
<path fill="none" stroke="black" d="M338.991,-222C327.677,-222 320.493,-222 304.5,-222"/>
<polygon fill="black" stroke="black" points="345.5,-222 353.5,-225.6 349.5,-222 353.5,-222 353.5,-222 353.5,-222 349.5,-222 353.5,-218.4 345.5,-222 345.5,-222"/>
<ellipse fill="none" stroke="black" cx="342.3" cy="-222" rx="3.2" ry="3.2"/>
</g>
</g>
</svg>
