<?xml version="1.0" encoding="UTF-8" standalone="no"?>
<!DOCTYPE svg PUBLIC "-//W3C//DTD SVG 1.1//EN"
 "http://www.w3.org/Graphics/SVG/1.1/DTD/svg11.dtd">
<!-- Generated by graphviz version 2.38.0 (20140413.2041)
 -->
<!-- Title: oneDegreeRelationshipsDiagram Pages: 1 -->
<svg width="765pt" height="722pt"
 viewBox="0.00 0.00 765.00 722.00" xmlns="http://www.w3.org/2000/svg" xmlns:xlink="http://www.w3.org/1999/xlink">
<g id="graph0" class="graph" transform="scale(1 1) rotate(0) translate(4 718)">
<title>oneDegreeRelationshipsDiagram</title>
<polygon fill="#ffffff" stroke="none" points="-4,4 -4,-718 761,-718 761,4 -4,4"/>
<text text-anchor="middle" x="74.5" y="-7.2" font-family="Helvetica,sans-Serif" font-size="11.00">Generated by SchemaSpy</text>
<!-- placement_groups -->
<g id="node1" class="node"><title>placement_groups</title>
<g id="a_node1"><a xlink:href="../../tables/placement_groups.html" xlink:title="placement_groups" target="_top">
<polygon fill="#ffffff" stroke="none" points="248,-37 248,-301 509,-301 509,-37 248,-37"/>
<polygon fill="#f5f5f5" stroke="none" points="250.5,-277 250.5,-299 507.5,-299 507.5,-277 250.5,-277"/>
<polygon fill="none" stroke="black" points="250.5,-277 250.5,-299 507.5,-299 507.5,-277 250.5,-277"/>
<text text-anchor="start" x="255.5" y="-286.2" font-family="Helvetica,sans-Serif" font-weight="bold" font-size="11.00">placement_groups</text>
<text text-anchor="start" x="468.5" y="-285.2" font-family="Helvetica,sans-Serif" font-size="11.00">[table]</text>
<polygon fill="none" stroke="black" points="250.5,-255 250.5,-277 386.5,-277 386.5,-255 250.5,-255"/>
<image xlink:href="../../images/primaryKeys.png" width="11px" height="12px" preserveAspectRatio="xMinYMin meet" x="255.5" y="-272"/>
<text text-anchor="start" x="270.5" y="-263.2" font-family="Helvetica,sans-Serif" font-size="11.00">id</text>
<polygon fill="none" stroke="black" points="386.5,-255 386.5,-277 507.5,-277 507.5,-255 386.5,-255"/>
<text text-anchor="start" x="389.5" y="-263.2" font-family="Helvetica,sans-Serif" font-size="11.00">bigserial[19]</text>
<polygon fill="none" stroke="black" points="250.5,-233 250.5,-255 386.5,-255 386.5,-233 250.5,-233"/>
<text text-anchor="start" x="270.5" y="-241.2" font-family="Helvetica,sans-Serif" font-size="11.00">name</text>
<polygon fill="none" stroke="black" points="386.5,-233 386.5,-255 507.5,-255 507.5,-233 386.5,-233"/>
<text text-anchor="start" x="389.5" y="-241.2" font-family="Helvetica,sans-Serif" font-size="11.00">varchar[2147483647]</text>
<polygon fill="none" stroke="black" points="250.5,-211 250.5,-233 386.5,-233 386.5,-211 250.5,-211"/>
<text text-anchor="start" x="270.5" y="-219.2" font-family="Helvetica,sans-Serif" font-size="11.00">policy</text>
<polygon fill="none" stroke="black" points="386.5,-211 386.5,-233 507.5,-233 507.5,-211 386.5,-211"/>
<text text-anchor="start" x="389.5" y="-219.2" font-family="Helvetica,sans-Serif" font-size="11.00">varchar[2147483647]</text>
<polygon fill="none" stroke="black" points="250.5,-189 250.5,-211 386.5,-211 386.5,-189 250.5,-189"/>
<text text-anchor="start" x="270.5" y="-197.2" font-family="Helvetica,sans-Serif" font-size="11.00">ems_ref</text>
<polygon fill="none" stroke="black" points="386.5,-189 386.5,-211 507.5,-211 507.5,-189 386.5,-189"/>
<text text-anchor="start" x="389.5" y="-197.2" font-family="Helvetica,sans-Serif" font-size="11.00">varchar[2147483647]</text>
<polygon fill="#ffffff" stroke="none" points="250.5,-167 250.5,-189 386.5,-189 386.5,-167 250.5,-167"/>
<polygon fill="none" stroke="black" points="250.5,-167 250.5,-189 386.5,-189 386.5,-167 250.5,-167"/>
<text text-anchor="start" x="270.5" y="-175.2" font-family="Helvetica,sans-Serif" font-size="11.00">type</text>
<polygon fill="none" stroke="black" points="386.5,-167 386.5,-189 507.5,-189 507.5,-167 386.5,-167"/>
<text text-anchor="start" x="389.5" y="-175.2" font-family="Helvetica,sans-Serif" font-size="11.00">varchar[2147483647]</text>
<polygon fill="#ffffff" stroke="none" points="250.5,-145 250.5,-167 386.5,-167 386.5,-145 250.5,-145"/>
<polygon fill="none" stroke="black" points="250.5,-145 250.5,-167 386.5,-167 386.5,-145 250.5,-145"/>
<image xlink:href="../../images/foreignKeys.png" width="11px" height="12px" preserveAspectRatio="xMinYMin meet" x="255.5" y="-162"/>
<text text-anchor="start" x="270.5" y="-153.2" font-family="Helvetica,sans-Serif" font-size="11.00">availability_zone_id</text>
<polygon fill="none" stroke="black" points="386.5,-145 386.5,-167 507.5,-167 507.5,-145 386.5,-145"/>
<text text-anchor="start" x="389.5" y="-153.2" font-family="Helvetica,sans-Serif" font-size="11.00">int8[19]</text>
<polygon fill="#ffffff" stroke="none" points="250.5,-123 250.5,-145 386.5,-145 386.5,-123 250.5,-123"/>
<polygon fill="none" stroke="black" points="250.5,-123 250.5,-145 386.5,-145 386.5,-123 250.5,-123"/>
<image xlink:href="../../images/foreignKeys.png" width="11px" height="12px" preserveAspectRatio="xMinYMin meet" x="255.5" y="-140"/>
<text text-anchor="start" x="270.5" y="-131.2" font-family="Helvetica,sans-Serif" font-size="11.00">cloud_tenant_id</text>
<polygon fill="none" stroke="black" points="386.5,-123 386.5,-145 507.5,-145 507.5,-123 386.5,-123"/>
<text text-anchor="start" x="389.5" y="-131.2" font-family="Helvetica,sans-Serif" font-size="11.00">int8[19]</text>
<polygon fill="#ffffff" stroke="none" points="250.5,-101 250.5,-123 386.5,-123 386.5,-101 250.5,-101"/>
<polygon fill="none" stroke="black" points="250.5,-101 250.5,-123 386.5,-123 386.5,-101 250.5,-101"/>
<text text-anchor="start" x="270.5" y="-109.2" font-family="Helvetica,sans-Serif" font-size="11.00">ems_id</text>
<polygon fill="none" stroke="black" points="386.5,-101 386.5,-123 507.5,-123 507.5,-101 386.5,-101"/>
<text text-anchor="start" x="389.5" y="-109.2" font-family="Helvetica,sans-Serif" font-size="11.00">int8[19]</text>
<polygon fill="none" stroke="black" points="250.5,-79 250.5,-101 386.5,-101 386.5,-79 250.5,-79"/>
<text text-anchor="start" x="270.5" y="-87.2" font-family="Helvetica,sans-Serif" font-size="11.00">created_at</text>
<polygon fill="none" stroke="black" points="386.5,-79 386.5,-101 507.5,-101 507.5,-79 386.5,-79"/>
<text text-anchor="start" x="389.5" y="-87.2" font-family="Helvetica,sans-Serif" font-size="11.00">timestamp[29,6]</text>
<polygon fill="none" stroke="black" points="250.5,-57 250.5,-79 386.5,-79 386.5,-57 250.5,-57"/>
<text text-anchor="start" x="270.5" y="-65.2" font-family="Helvetica,sans-Serif" font-size="11.00">updated_at</text>
<polygon fill="none" stroke="black" points="386.5,-57 386.5,-79 507.5,-79 507.5,-57 386.5,-57"/>
<text text-anchor="start" x="389.5" y="-65.2" font-family="Helvetica,sans-Serif" font-size="11.00">timestamp[29,6]</text>
<polygon fill="#ffffff" stroke="none" points="250.5,-39 250.5,-57 323.5,-57 323.5,-39 250.5,-39"/>
<polygon fill="none" stroke="black" points="250.5,-39 250.5,-57 323.5,-57 323.5,-39 250.5,-39"/>
<text text-anchor="start" x="253.5" y="-45.2" font-family="Helvetica,sans-Serif" font-size="11.00">&lt; 2</text>
<polygon fill="#ffffff" stroke="none" points="323.5,-39 323.5,-57 386.5,-57 386.5,-39 323.5,-39"/>
<polygon fill="none" stroke="black" points="323.5,-39 323.5,-57 386.5,-57 386.5,-39 323.5,-39"/>
<text text-anchor="start" x="376.5" y="-45.2" font-family="Helvetica,sans-Serif" font-size="11.00"> &#160;</text>
<polygon fill="#ffffff" stroke="none" points="386.5,-39 386.5,-57 507.5,-57 507.5,-39 386.5,-39"/>
<polygon fill="none" stroke="black" points="386.5,-39 386.5,-57 507.5,-57 507.5,-39 386.5,-39"/>
<text text-anchor="start" x="487.5" y="-45.2" font-family="Helvetica,sans-Serif" font-size="11.00">1 &gt;</text>
<polygon fill="none" stroke="black" stroke-width="2" points="249,-38 249,-300 508,-300 508,-38 249,-38"/>
</a>
</g>
</g>
<!-- availability_zones -->
<g id="node2" class="node"><title>availability_zones</title>
<g id="a_node2"><a xlink:href="../../tables/availability_zones.html" xlink:title="availability_zones" target="_top">
<polygon fill="#ffffff" stroke="none" points="8,-258 8,-382 199,-382 199,-258 8,-258"/>
<polygon fill="#f5f5f5" stroke="none" points="8.5,-360 8.5,-382 199.5,-382 199.5,-360 8.5,-360"/>
<polygon fill="none" stroke="black" points="8.5,-360 8.5,-382 199.5,-382 199.5,-360 8.5,-360"/>
<text text-anchor="start" x="13.5" y="-369.2" font-family="Helvetica,sans-Serif" font-weight="bold" font-size="11.00">availability_zones</text>
<text text-anchor="start" x="160.5" y="-368.2" font-family="Helvetica,sans-Serif" font-size="11.00">[table]</text>
<polygon fill="none" stroke="black" points="8.5,-338 8.5,-360 199.5,-360 199.5,-338 8.5,-338"/>
<image xlink:href="../../images/primaryKeys.png" width="11px" height="12px" preserveAspectRatio="xMinYMin meet" x="13.5" y="-355"/>
<text text-anchor="start" x="28.5" y="-346.2" font-family="Helvetica,sans-Serif" font-size="11.00">id</text>
<polygon fill="#ffffff" stroke="none" points="8.5,-316 8.5,-338 199.5,-338 199.5,-316 8.5,-316"/>
<polygon fill="none" stroke="black" points="8.5,-316 8.5,-338 199.5,-338 199.5,-316 8.5,-316"/>
<text text-anchor="start" x="28.5" y="-324.2" font-family="Helvetica,sans-Serif" font-size="11.00">ems_id</text>
<polygon fill="#ffffff" stroke="none" points="8.5,-294 8.5,-316 199.5,-316 199.5,-294 8.5,-294"/>
<polygon fill="none" stroke="black" points="8.5,-294 8.5,-316 199.5,-316 199.5,-294 8.5,-294"/>
<text text-anchor="start" x="28.5" y="-302.2" font-family="Helvetica,sans-Serif" font-size="11.00">type</text>
<polygon fill="none" stroke="black" points="8.5,-276 8.5,-294 199.5,-294 199.5,-276 8.5,-276"/>
<text text-anchor="start" x="11.5" y="-282.2" font-family="Helvetica,sans-Serif" font-size="11.00">...</text>
<polygon fill="#ffffff" stroke="none" points="8.5,-258 8.5,-276 92.5,-276 92.5,-258 8.5,-258"/>
<polygon fill="none" stroke="black" points="8.5,-258 8.5,-276 92.5,-276 92.5,-258 8.5,-258"/>
<text text-anchor="start" x="11.5" y="-264.2" font-family="Helvetica,sans-Serif" font-size="11.00"> &#160;</text>
<polygon fill="#ffffff" stroke="none" points="92.5,-258 92.5,-276 140.5,-276 140.5,-258 92.5,-258"/>
<polygon fill="none" stroke="black" points="92.5,-258 92.5,-276 140.5,-276 140.5,-258 92.5,-258"/>
<text text-anchor="start" x="130.5" y="-264.2" font-family="Helvetica,sans-Serif" font-size="11.00"> &#160;</text>
<polygon fill="#ffffff" stroke="none" points="140.5,-258 140.5,-276 199.5,-276 199.5,-258 140.5,-258"/>
<polygon fill="none" stroke="black" points="140.5,-258 140.5,-276 199.5,-276 199.5,-258 140.5,-258"/>
<text text-anchor="start" x="179.5" y="-264.2" font-family="Helvetica,sans-Serif" font-size="11.00">8 &gt;</text>
</a>
</g>
</g>
<!-- placement_groups&#45;&gt;availability_zones -->
<g id="edge1" class="edge"><title>placement_groups:availability_zone_id:w&#45;&gt;availability_zones:id:e</title>
<path fill="none" stroke="black" d="M234.97,-158.302C176.601,-180.077 283.295,-349 200.5,-349"/>
<polygon fill="black" stroke="black" points="241.599,-157.252 250.063,-159.556 245.549,-156.626 249.5,-156 249.5,-156 249.5,-156 245.549,-156.626 248.937,-152.444 241.599,-157.252 241.599,-157.252"/>
<ellipse fill="none" stroke="black" cx="238.438" cy="-157.753" rx="3.2" ry="3.2"/>
</g>
<!-- cloud_tenants -->
<g id="node3" class="node"><title>cloud_tenants</title>
<g id="a_node3"><a xlink:href="../../tables/cloud_tenants.html" xlink:title="cloud_tenants" target="_top">
<polygon fill="#ffffff" stroke="none" points="39,-79 39,-181 168,-181 168,-79 39,-79"/>
<polygon fill="#f5f5f5" stroke="none" points="39.5,-159 39.5,-181 168.5,-181 168.5,-159 39.5,-159"/>
<polygon fill="none" stroke="black" points="39.5,-159 39.5,-181 168.5,-181 168.5,-159 39.5,-159"/>
<text text-anchor="start" x="44.5" y="-168.2" font-family="Helvetica,sans-Serif" font-weight="bold" font-size="11.00">cloud_tenants</text>
<text text-anchor="start" x="129.5" y="-167.2" font-family="Helvetica,sans-Serif" font-size="11.00">[table]</text>
<polygon fill="none" stroke="black" points="39.5,-137 39.5,-159 168.5,-159 168.5,-137 39.5,-137"/>
<image xlink:href="../../images/primaryKeys.png" width="11px" height="12px" preserveAspectRatio="xMinYMin meet" x="44.5" y="-154"/>
<text text-anchor="start" x="71.5" y="-145.2" font-family="Helvetica,sans-Serif" font-size="11.00">id</text>
<polygon fill="#ffffff" stroke="none" points="39.5,-115 39.5,-137 168.5,-137 168.5,-115 39.5,-115"/>
<polygon fill="none" stroke="black" points="39.5,-115 39.5,-137 168.5,-137 168.5,-115 39.5,-115"/>
<text text-anchor="start" x="71.5" y="-123.2" font-family="Helvetica,sans-Serif" font-size="11.00">type</text>
<polygon fill="none" stroke="black" points="39.5,-97 39.5,-115 168.5,-115 168.5,-97 39.5,-97"/>
<text text-anchor="start" x="42.5" y="-103.2" font-family="Helvetica,sans-Serif" font-size="11.00">...</text>
<polygon fill="#ffffff" stroke="none" points="39.5,-79 39.5,-97 88.5,-97 88.5,-79 39.5,-79"/>
<polygon fill="none" stroke="black" points="39.5,-79 39.5,-97 88.5,-97 88.5,-79 39.5,-79"/>
<text text-anchor="start" x="42.5" y="-85.2" font-family="Helvetica,sans-Serif" font-size="11.00"> &#160;</text>
<polygon fill="#ffffff" stroke="none" points="88.5,-79 88.5,-97 119.5,-97 119.5,-79 88.5,-79"/>
<polygon fill="none" stroke="black" points="88.5,-79 88.5,-97 119.5,-97 119.5,-79 88.5,-79"/>
<text text-anchor="start" x="109.5" y="-85.2" font-family="Helvetica,sans-Serif" font-size="11.00"> &#160;</text>
<polygon fill="#ffffff" stroke="none" points="119.5,-79 119.5,-97 168.5,-97 168.5,-79 119.5,-79"/>
<polygon fill="none" stroke="black" points="119.5,-79 119.5,-97 168.5,-97 168.5,-79 119.5,-79"/>
<text text-anchor="start" x="141.5" y="-85.2" font-family="Helvetica,sans-Serif" font-size="11.00">25 &gt;</text>
</a>
</g>
</g>
<!-- placement_groups&#45;&gt;cloud_tenants -->
<g id="edge2" class="edge"><title>placement_groups:cloud_tenant_id:w&#45;&gt;cloud_tenants:id:e</title>
<path fill="none" stroke="black" d="M235.111,-134.834C210.463,-137.848 200.238,-148 169.5,-148"/>
<polygon fill="black" stroke="black" points="241.513,-134.463 249.708,-137.594 245.507,-134.231 249.5,-134 249.5,-134 249.5,-134 245.507,-134.231 249.292,-130.406 241.513,-134.463 241.513,-134.463"/>
<ellipse fill="none" stroke="black" cx="238.319" cy="-134.648" rx="3.2" ry="3.2"/>
</g>
<!-- vms -->
<g id="node4" class="node"><title>vms</title>
<g id="a_node4"><a xlink:href="../../tables/vms.html" xlink:title="vms" target="_top">
<polygon fill="#ffffff" stroke="none" points="558,-146 558,-710 749,-710 749,-146 558,-146"/>
<polygon fill="#f5f5f5" stroke="none" points="558.5,-688 558.5,-710 749.5,-710 749.5,-688 558.5,-688"/>
<polygon fill="none" stroke="black" points="558.5,-688 558.5,-710 749.5,-710 749.5,-688 558.5,-688"/>
<text text-anchor="start" x="563.5" y="-697.2" font-family="Helvetica,sans-Serif" font-weight="bold" font-size="11.00">vms</text>
<text text-anchor="start" x="710.5" y="-696.2" font-family="Helvetica,sans-Serif" font-size="11.00">[table]</text>
<polygon fill="none" stroke="black" points="558.5,-666 558.5,-688 749.5,-688 749.5,-666 558.5,-666"/>
<image xlink:href="../../images/primaryKeys.png" width="11px" height="12px" preserveAspectRatio="xMinYMin meet" x="563.5" y="-683"/>
<text text-anchor="start" x="578.5" y="-674.2" font-family="Helvetica,sans-Serif" font-size="11.00">id</text>
<polygon fill="#ffffff" stroke="none" points="558.5,-644 558.5,-666 749.5,-666 749.5,-644 558.5,-644"/>
<polygon fill="none" stroke="black" points="558.5,-644 558.5,-666 749.5,-666 749.5,-644 558.5,-644"/>
<text text-anchor="start" x="578.5" y="-652.2" font-family="Helvetica,sans-Serif" font-size="11.00">name</text>
<polygon fill="#ffffff" stroke="none" points="558.5,-622 558.5,-644 749.5,-644 749.5,-622 558.5,-622"/>
<polygon fill="none" stroke="black" points="558.5,-622 558.5,-644 749.5,-644 749.5,-622 558.5,-622"/>
<text text-anchor="start" x="578.5" y="-630.2" font-family="Helvetica,sans-Serif" font-size="11.00">location</text>
<polygon fill="#ffffff" stroke="none" points="558.5,-600 558.5,-622 749.5,-622 749.5,-600 558.5,-600"/>
<polygon fill="none" stroke="black" points="558.5,-600 558.5,-622 749.5,-622 749.5,-600 558.5,-600"/>
<image xlink:href="../../images/foreignKeys.png" width="11px" height="12px" preserveAspectRatio="xMinYMin meet" x="563.5" y="-617"/>
<text text-anchor="start" x="578.5" y="-608.2" font-family="Helvetica,sans-Serif" font-size="11.00">host_id</text>
<polygon fill="#ffffff" stroke="none" points="558.5,-578 558.5,-600 749.5,-600 749.5,-578 558.5,-578"/>
<polygon fill="none" stroke="black" points="558.5,-578 558.5,-600 749.5,-600 749.5,-578 558.5,-578"/>
<image xlink:href="../../images/foreignKeys.png" width="11px" height="12px" preserveAspectRatio="xMinYMin meet" x="563.5" y="-595"/>
<text text-anchor="start" x="578.5" y="-586.2" font-family="Helvetica,sans-Serif" font-size="11.00">storage_id</text>
<polygon fill="#ffffff" stroke="none" points="558.5,-556 558.5,-578 749.5,-578 749.5,-556 558.5,-556"/>
<polygon fill="none" stroke="black" points="558.5,-556 558.5,-578 749.5,-578 749.5,-556 558.5,-556"/>
<text text-anchor="start" x="578.5" y="-564.2" font-family="Helvetica,sans-Serif" font-size="11.00">guid</text>
<polygon fill="#ffffff" stroke="none" points="558.5,-534 558.5,-556 749.5,-556 749.5,-534 558.5,-534"/>
<polygon fill="none" stroke="black" points="558.5,-534 558.5,-556 749.5,-556 749.5,-534 558.5,-534"/>
<text text-anchor="start" x="578.5" y="-542.2" font-family="Helvetica,sans-Serif" font-size="11.00">ems_id</text>
<polygon fill="#ffffff" stroke="none" points="558.5,-512 558.5,-534 749.5,-534 749.5,-512 558.5,-512"/>
<polygon fill="none" stroke="black" points="558.5,-512 558.5,-534 749.5,-534 749.5,-512 558.5,-512"/>
<text text-anchor="start" x="578.5" y="-520.2" font-family="Helvetica,sans-Serif" font-size="11.00">uid_ems</text>
<polygon fill="#ffffff" stroke="none" points="558.5,-490 558.5,-512 749.5,-512 749.5,-490 558.5,-490"/>
<polygon fill="none" stroke="black" points="558.5,-490 558.5,-512 749.5,-512 749.5,-490 558.5,-490"/>
<text text-anchor="start" x="578.5" y="-498.2" font-family="Helvetica,sans-Serif" font-size="11.00">evm_owner_id</text>
<polygon fill="#ffffff" stroke="none" points="558.5,-468 558.5,-490 749.5,-490 749.5,-468 558.5,-468"/>
<polygon fill="none" stroke="black" points="558.5,-468 558.5,-490 749.5,-490 749.5,-468 558.5,-468"/>
<image xlink:href="../../images/foreignKeys.png" width="11px" height="12px" preserveAspectRatio="xMinYMin meet" x="563.5" y="-485"/>
<text text-anchor="start" x="578.5" y="-476.2" font-family="Helvetica,sans-Serif" font-size="11.00">miq_group_id</text>
<polygon fill="#ffffff" stroke="none" points="558.5,-446 558.5,-468 749.5,-468 749.5,-446 558.5,-446"/>
<polygon fill="none" stroke="black" points="558.5,-446 558.5,-468 749.5,-468 749.5,-446 558.5,-446"/>
<text text-anchor="start" x="578.5" y="-454.2" font-family="Helvetica,sans-Serif" font-size="11.00">type</text>
<polygon fill="none" stroke="black" points="558.5,-424 558.5,-446 749.5,-446 749.5,-424 558.5,-424"/>
<image xlink:href="../../images/foreignKeys.png" width="11px" height="12px" preserveAspectRatio="xMinYMin meet" x="563.5" y="-441"/>
<text text-anchor="start" x="578.5" y="-432.2" font-family="Helvetica,sans-Serif" font-size="11.00">ems_cluster_id</text>
<polygon fill="#ffffff" stroke="none" points="558.5,-402 558.5,-424 749.5,-424 749.5,-402 558.5,-402"/>
<polygon fill="none" stroke="black" points="558.5,-402 558.5,-424 749.5,-424 749.5,-402 558.5,-402"/>
<image xlink:href="../../images/foreignKeys.png" width="11px" height="12px" preserveAspectRatio="xMinYMin meet" x="563.5" y="-419"/>
<text text-anchor="start" x="578.5" y="-410.2" font-family="Helvetica,sans-Serif" font-size="11.00">flavor_id</text>
<polygon fill="#ffffff" stroke="none" points="558.5,-380 558.5,-402 749.5,-402 749.5,-380 558.5,-380"/>
<polygon fill="none" stroke="black" points="558.5,-380 558.5,-402 749.5,-402 749.5,-380 558.5,-380"/>
<image xlink:href="../../images/foreignKeys.png" width="11px" height="12px" preserveAspectRatio="xMinYMin meet" x="563.5" y="-397"/>
<text text-anchor="start" x="578.5" y="-388.2" font-family="Helvetica,sans-Serif" font-size="11.00">availability_zone_id</text>
<polygon fill="none" stroke="black" points="558.5,-358 558.5,-380 749.5,-380 749.5,-358 558.5,-358"/>
<image xlink:href="../../images/foreignKeys.png" width="11px" height="12px" preserveAspectRatio="xMinYMin meet" x="563.5" y="-375"/>
<text text-anchor="start" x="578.5" y="-366.2" font-family="Helvetica,sans-Serif" font-size="11.00">cloud_network_id</text>
<polygon fill="none" stroke="black" points="558.5,-336 558.5,-358 749.5,-358 749.5,-336 558.5,-336"/>
<image xlink:href="../../images/foreignKeys.png" width="11px" height="12px" preserveAspectRatio="xMinYMin meet" x="563.5" y="-353"/>
<text text-anchor="start" x="578.5" y="-344.2" font-family="Helvetica,sans-Serif" font-size="11.00">cloud_subnet_id</text>
<polygon fill="none" stroke="black" points="558.5,-314 558.5,-336 749.5,-336 749.5,-314 558.5,-314"/>
<image xlink:href="../../images/foreignKeys.png" width="11px" height="12px" preserveAspectRatio="xMinYMin meet" x="563.5" y="-331"/>
<text text-anchor="start" x="578.5" y="-322.2" font-family="Helvetica,sans-Serif" font-size="11.00">cloud_tenant_id</text>
<polygon fill="none" stroke="black" points="558.5,-292 558.5,-314 749.5,-314 749.5,-292 558.5,-292"/>
<image xlink:href="../../images/foreignKeys.png" width="11px" height="12px" preserveAspectRatio="xMinYMin meet" x="563.5" y="-309"/>
<text text-anchor="start" x="578.5" y="-300.2" font-family="Helvetica,sans-Serif" font-size="11.00">orchestration_stack_id</text>
<polygon fill="#ffffff" stroke="none" points="558.5,-270 558.5,-292 749.5,-292 749.5,-270 558.5,-270"/>
<polygon fill="none" stroke="black" points="558.5,-270 558.5,-292 749.5,-292 749.5,-270 558.5,-270"/>
<image xlink:href="../../images/foreignKeys.png" width="11px" height="12px" preserveAspectRatio="xMinYMin meet" x="563.5" y="-287"/>
<text text-anchor="start" x="578.5" y="-278.2" font-family="Helvetica,sans-Serif" font-size="11.00">tenant_id</text>
<polygon fill="none" stroke="black" points="558.5,-248 558.5,-270 749.5,-270 749.5,-248 558.5,-248"/>
<image xlink:href="../../images/foreignKeys.png" width="11px" height="12px" preserveAspectRatio="xMinYMin meet" x="563.5" y="-265"/>
<text text-anchor="start" x="578.5" y="-256.2" font-family="Helvetica,sans-Serif" font-size="11.00">resource_group_id</text>
<polygon fill="none" stroke="black" points="558.5,-226 558.5,-248 749.5,-248 749.5,-226 558.5,-226"/>
<image xlink:href="../../images/foreignKeys.png" width="11px" height="12px" preserveAspectRatio="xMinYMin meet" x="563.5" y="-243"/>
<text text-anchor="start" x="578.5" y="-234.2" font-family="Helvetica,sans-Serif" font-size="11.00">storage_profile_id</text>
<polygon fill="#ffffff" stroke="none" points="558.5,-204 558.5,-226 749.5,-226 749.5,-204 558.5,-204"/>
<polygon fill="none" stroke="black" points="558.5,-204 558.5,-226 749.5,-226 749.5,-204 558.5,-204"/>
<text text-anchor="start" x="578.5" y="-212.2" font-family="Helvetica,sans-Serif" font-size="11.00">ancestry</text>
<polygon fill="#ffffff" stroke="none" points="558.5,-182 558.5,-204 749.5,-204 749.5,-182 558.5,-182"/>
<polygon fill="none" stroke="black" points="558.5,-182 558.5,-204 749.5,-204 749.5,-182 558.5,-182"/>
<image xlink:href="../../images/foreignKeys.png" width="11px" height="12px" preserveAspectRatio="xMinYMin meet" x="563.5" y="-199"/>
<text text-anchor="start" x="578.5" y="-190.2" font-family="Helvetica,sans-Serif" font-size="11.00">placement_group_id</text>
<polygon fill="none" stroke="black" points="558.5,-164 558.5,-182 749.5,-182 749.5,-164 558.5,-164"/>
<text text-anchor="start" x="561.5" y="-170.2" font-family="Helvetica,sans-Serif" font-size="11.00">...</text>
<polygon fill="#ffffff" stroke="none" points="558.5,-146 558.5,-164 650.5,-164 650.5,-146 558.5,-146"/>
<polygon fill="none" stroke="black" points="558.5,-146 558.5,-164 650.5,-164 650.5,-146 558.5,-146"/>
<text text-anchor="start" x="561.5" y="-152.2" font-family="Helvetica,sans-Serif" font-size="11.00">&lt; 14</text>
<polygon fill="#ffffff" stroke="none" points="650.5,-146 650.5,-164 694.5,-164 694.5,-146 650.5,-146"/>
<polygon fill="none" stroke="black" points="650.5,-146 650.5,-164 694.5,-164 694.5,-146 650.5,-146"/>
<text text-anchor="start" x="684.5" y="-152.2" font-family="Helvetica,sans-Serif" font-size="11.00"> &#160;</text>
<polygon fill="#ffffff" stroke="none" points="694.5,-146 694.5,-164 749.5,-164 749.5,-146 694.5,-146"/>
<polygon fill="none" stroke="black" points="694.5,-146 694.5,-164 749.5,-164 749.5,-146 694.5,-146"/>
<text text-anchor="start" x="729.5" y="-152.2" font-family="Helvetica,sans-Serif" font-size="11.00">7 &gt;</text>
</a>
</g>
</g>
<!-- vms&#45;&gt;placement_groups -->
<g id="edge5" class="edge"><title>vms:placement_group_id:w&#45;&gt;placement_groups:id.type:e</title>
<path fill="none" stroke="black" d="M543.66,-197.79C525.868,-214.03 541.47,-266 508.5,-266"/>
<polygon fill="black" stroke="black" points="549.94,-195.616 558.677,-196.402 553.72,-194.308 557.5,-193 557.5,-193 557.5,-193 553.72,-194.308 556.323,-189.598 549.94,-195.616 549.94,-195.616"/>
<ellipse fill="none" stroke="black" cx="546.916" cy="-196.663" rx="3.20001" ry="3.20001"/>
</g>
<!-- vms&#45;&gt;availability_zones -->
<g id="edge3" class="edge"><title>vms:availability_zone_id:w&#45;&gt;availability_zones:id:e</title>
<path fill="none" stroke="black" d="M542.873,-390.88C395.277,-388.416 355.268,-349 200.5,-349"/>
<polygon fill="black" stroke="black" points="549.5,-390.934 557.47,-394.6 553.5,-390.967 557.5,-391 557.5,-391 557.5,-391 553.5,-390.967 557.53,-387.4 549.5,-390.934 549.5,-390.934"/>
<ellipse fill="none" stroke="black" cx="546.3" cy="-390.908" rx="3.2" ry="3.2"/>
</g>
<!-- vms&#45;&gt;cloud_tenants -->
<g id="edge4" class="edge"><title>vms:cloud_tenant_id:w&#45;&gt;cloud_tenants:id:e</title>
<path fill="none" stroke="black" d="M542.935,-325.283C463.796,-328 294.521,-348.566 240,-311 175.004,-266.217 248.43,-148 169.5,-148"/>
<polygon fill="black" stroke="black" points="549.502,-325.155 557.57,-328.599 553.501,-325.078 557.5,-325 557.5,-325 557.5,-325 553.501,-325.078 557.43,-321.401 549.502,-325.155 549.502,-325.155"/>
<ellipse fill="none" stroke="black" cx="546.302" cy="-325.218" rx="3.2" ry="3.2"/>
</g>
</g>
</svg>
