<?xml version="1.0" encoding="UTF-8" standalone="no"?>
<!DOCTYPE svg PUBLIC "-//W3C//DTD SVG 1.1//EN"
 "http://www.w3.org/Graphics/SVG/1.1/DTD/svg11.dtd">
<!-- Generated by graphviz version 2.38.0 (20140413.2041)
 -->
<!-- Title: oneDegreeRelationshipsDiagram Pages: 1 -->
<svg width="1032pt" height="668pt"
 viewBox="0.00 0.00 1032.00 668.00" xmlns="http://www.w3.org/2000/svg" xmlns:xlink="http://www.w3.org/1999/xlink">
<g id="graph0" class="graph" transform="scale(1 1) rotate(0) translate(4 664)">
<title>oneDegreeRelationshipsDiagram</title>
<polygon fill="#ffffff" stroke="none" points="-4,4 -4,-664 1028,-664 1028,4 -4,4"/>
<text text-anchor="middle" x="74.5" y="-7.2" font-family="Helvetica,sans-Serif" font-size="11.00">Generated by SchemaSpy</text>
<!-- hosts -->
<g id="node1" class="node"><title>hosts</title>
<g id="a_node1"><a xlink:href="../../tables/hosts.html" xlink:title="hosts" target="_top">
<polygon fill="#ffffff" stroke="none" points="230,-117 230,-373 393,-373 393,-117 230,-117"/>
<polygon fill="#f5f5f5" stroke="none" points="230.5,-351 230.5,-373 393.5,-373 393.5,-351 230.5,-351"/>
<polygon fill="none" stroke="black" points="230.5,-351 230.5,-373 393.5,-373 393.5,-351 230.5,-351"/>
<text text-anchor="start" x="235.5" y="-360.2" font-family="Helvetica,sans-Serif" font-weight="bold" font-size="11.00">hosts</text>
<text text-anchor="start" x="354.5" y="-359.2" font-family="Helvetica,sans-Serif" font-size="11.00">[table]</text>
<polygon fill="none" stroke="black" points="230.5,-329 230.5,-351 393.5,-351 393.5,-329 230.5,-329"/>
<image xlink:href="../../images/primaryKeys.png" width="11px" height="12px" preserveAspectRatio="xMinYMin meet" x="235.5" y="-346"/>
<text text-anchor="start" x="250.5" y="-337.2" font-family="Helvetica,sans-Serif" font-size="11.00">id</text>
<polygon fill="#ffffff" stroke="none" points="230.5,-307 230.5,-329 393.5,-329 393.5,-307 230.5,-307"/>
<polygon fill="none" stroke="black" points="230.5,-307 230.5,-329 393.5,-329 393.5,-307 230.5,-307"/>
<text text-anchor="start" x="250.5" y="-315.2" font-family="Helvetica,sans-Serif" font-size="11.00">hostname</text>
<polygon fill="#ffffff" stroke="none" points="230.5,-285 230.5,-307 393.5,-307 393.5,-285 230.5,-285"/>
<polygon fill="none" stroke="black" points="230.5,-285 230.5,-307 393.5,-307 393.5,-285 230.5,-285"/>
<text text-anchor="start" x="250.5" y="-293.2" font-family="Helvetica,sans-Serif" font-size="11.00">ipaddress</text>
<polygon fill="#ffffff" stroke="none" points="230.5,-263 230.5,-285 393.5,-285 393.5,-263 230.5,-263"/>
<polygon fill="none" stroke="black" points="230.5,-263 230.5,-285 393.5,-285 393.5,-263 230.5,-263"/>
<text text-anchor="start" x="250.5" y="-271.2" font-family="Helvetica,sans-Serif" font-size="11.00">guid</text>
<polygon fill="#ffffff" stroke="none" points="230.5,-241 230.5,-263 393.5,-263 393.5,-241 230.5,-241"/>
<polygon fill="none" stroke="black" points="230.5,-241 230.5,-263 393.5,-263 393.5,-241 230.5,-241"/>
<text text-anchor="start" x="250.5" y="-249.2" font-family="Helvetica,sans-Serif" font-size="11.00">ems_id</text>
<polygon fill="#ffffff" stroke="none" points="230.5,-219 230.5,-241 393.5,-241 393.5,-219 230.5,-219"/>
<polygon fill="none" stroke="black" points="230.5,-219 230.5,-241 393.5,-241 393.5,-219 230.5,-219"/>
<text text-anchor="start" x="250.5" y="-227.2" font-family="Helvetica,sans-Serif" font-size="11.00">type</text>
<polygon fill="none" stroke="black" points="230.5,-197 230.5,-219 393.5,-219 393.5,-197 230.5,-197"/>
<image xlink:href="../../images/foreignKeys.png" width="11px" height="12px" preserveAspectRatio="xMinYMin meet" x="235.5" y="-214"/>
<text text-anchor="start" x="250.5" y="-205.2" font-family="Helvetica,sans-Serif" font-size="11.00">ems_cluster_id</text>
<polygon fill="#ffffff" stroke="none" points="230.5,-175 230.5,-197 393.5,-197 393.5,-175 230.5,-175"/>
<polygon fill="none" stroke="black" points="230.5,-175 230.5,-197 393.5,-197 393.5,-175 230.5,-175"/>
<image xlink:href="../../images/foreignKeys.png" width="11px" height="12px" preserveAspectRatio="xMinYMin meet" x="235.5" y="-192"/>
<text text-anchor="start" x="250.5" y="-183.2" font-family="Helvetica,sans-Serif" font-size="11.00">availability_zone_id</text>
<polygon fill="none" stroke="black" points="230.5,-153 230.5,-175 393.5,-175 393.5,-153 230.5,-153"/>
<image xlink:href="../../images/foreignKeys.png" width="11px" height="12px" preserveAspectRatio="xMinYMin meet" x="235.5" y="-170"/>
<text text-anchor="start" x="250.5" y="-161.2" font-family="Helvetica,sans-Serif" font-size="11.00">physical_server_id</text>
<polygon fill="none" stroke="black" points="230.5,-135 230.5,-153 393.5,-153 393.5,-135 230.5,-135"/>
<text text-anchor="start" x="233.5" y="-141.2" font-family="Helvetica,sans-Serif" font-size="11.00">...</text>
<polygon fill="#ffffff" stroke="none" points="230.5,-117 230.5,-135 301.5,-135 301.5,-117 230.5,-117"/>
<polygon fill="none" stroke="black" points="230.5,-117 230.5,-135 301.5,-135 301.5,-117 230.5,-117"/>
<text text-anchor="start" x="233.5" y="-123.2" font-family="Helvetica,sans-Serif" font-size="11.00">&lt; 3</text>
<polygon fill="#ffffff" stroke="none" points="301.5,-117 301.5,-135 338.5,-135 338.5,-117 301.5,-117"/>
<polygon fill="none" stroke="black" points="301.5,-117 301.5,-135 338.5,-135 338.5,-117 301.5,-117"/>
<text text-anchor="start" x="328.5" y="-123.2" font-family="Helvetica,sans-Serif" font-size="11.00"> &#160;</text>
<polygon fill="#ffffff" stroke="none" points="338.5,-117 338.5,-135 393.5,-135 393.5,-117 338.5,-117"/>
<polygon fill="none" stroke="black" points="338.5,-117 338.5,-135 393.5,-135 393.5,-117 338.5,-117"/>
<text text-anchor="start" x="366.5" y="-123.2" font-family="Helvetica,sans-Serif" font-size="11.00">15 &gt;</text>
</a>
</g>
</g>
<!-- ems_clusters -->
<g id="node2" class="node"><title>ems_clusters</title>
<g id="a_node2"><a xlink:href="../../tables/ems_clusters.html" xlink:title="ems_clusters" target="_top">
<polygon fill="#ffffff" stroke="none" points="8,-37 8,-183 175,-183 175,-37 8,-37"/>
<polygon fill="#f5f5f5" stroke="none" points="8.5,-161 8.5,-183 175.5,-183 175.5,-161 8.5,-161"/>
<polygon fill="none" stroke="black" points="8.5,-161 8.5,-183 175.5,-183 175.5,-161 8.5,-161"/>
<text text-anchor="start" x="13.5" y="-170.2" font-family="Helvetica,sans-Serif" font-weight="bold" font-size="11.00">ems_clusters</text>
<text text-anchor="start" x="136.5" y="-169.2" font-family="Helvetica,sans-Serif" font-size="11.00">[table]</text>
<polygon fill="none" stroke="black" points="8.5,-139 8.5,-161 175.5,-161 175.5,-139 8.5,-139"/>
<image xlink:href="../../images/primaryKeys.png" width="11px" height="12px" preserveAspectRatio="xMinYMin meet" x="13.5" y="-156"/>
<text text-anchor="start" x="28.5" y="-147.2" font-family="Helvetica,sans-Serif" font-size="11.00">id</text>
<polygon fill="#ffffff" stroke="none" points="8.5,-117 8.5,-139 175.5,-139 175.5,-117 8.5,-117"/>
<polygon fill="none" stroke="black" points="8.5,-117 8.5,-139 175.5,-139 175.5,-117 8.5,-117"/>
<text text-anchor="start" x="28.5" y="-125.2" font-family="Helvetica,sans-Serif" font-size="11.00">ems_id</text>
<polygon fill="#ffffff" stroke="none" points="8.5,-95 8.5,-117 175.5,-117 175.5,-95 8.5,-95"/>
<polygon fill="none" stroke="black" points="8.5,-95 8.5,-117 175.5,-117 175.5,-95 8.5,-95"/>
<text text-anchor="start" x="28.5" y="-103.2" font-family="Helvetica,sans-Serif" font-size="11.00">uid_ems</text>
<polygon fill="#ffffff" stroke="none" points="8.5,-73 8.5,-95 175.5,-95 175.5,-73 8.5,-73"/>
<polygon fill="none" stroke="black" points="8.5,-73 8.5,-95 175.5,-95 175.5,-73 8.5,-73"/>
<text text-anchor="start" x="28.5" y="-81.2" font-family="Helvetica,sans-Serif" font-size="11.00">type</text>
<polygon fill="none" stroke="black" points="8.5,-55 8.5,-73 175.5,-73 175.5,-55 8.5,-55"/>
<text text-anchor="start" x="11.5" y="-61.2" font-family="Helvetica,sans-Serif" font-size="11.00">...</text>
<polygon fill="#ffffff" stroke="none" points="8.5,-37 8.5,-55 80.5,-55 80.5,-37 8.5,-37"/>
<polygon fill="none" stroke="black" points="8.5,-37 8.5,-55 80.5,-55 80.5,-37 8.5,-37"/>
<text text-anchor="start" x="11.5" y="-43.2" font-family="Helvetica,sans-Serif" font-size="11.00"> &#160;</text>
<polygon fill="#ffffff" stroke="none" points="80.5,-37 80.5,-55 122.5,-55 122.5,-37 80.5,-37"/>
<polygon fill="none" stroke="black" points="80.5,-37 80.5,-55 122.5,-55 122.5,-37 80.5,-37"/>
<text text-anchor="start" x="112.5" y="-43.2" font-family="Helvetica,sans-Serif" font-size="11.00"> &#160;</text>
<polygon fill="#ffffff" stroke="none" points="122.5,-37 122.5,-55 175.5,-55 175.5,-37 122.5,-37"/>
<polygon fill="none" stroke="black" points="122.5,-37 122.5,-55 175.5,-55 175.5,-37 122.5,-37"/>
<text text-anchor="start" x="155.5" y="-43.2" font-family="Helvetica,sans-Serif" font-size="11.00">4 &gt;</text>
</a>
</g>
</g>
<!-- hosts&#45;&gt;ems_clusters -->
<g id="edge1" class="edge"><title>hosts:ems_cluster_id:w&#45;&gt;ems_clusters:id:e</title>
<path fill="none" stroke="black" d="M215.556,-203.449C198.84,-189.776 205.418,-150 176.5,-150"/>
<polygon fill="black" stroke="black" points="221.895,-205.518 228.383,-211.422 225.697,-206.759 229.5,-208 229.5,-208 229.5,-208 225.697,-206.759 230.617,-204.578 221.895,-205.518 221.895,-205.518"/>
<ellipse fill="none" stroke="black" cx="218.853" cy="-204.525" rx="3.20001" ry="3.20001"/>
</g>
<!-- policy_event_contents -->
<g id="node3" class="node"><title>policy_event_contents</title>
<g id="a_node3"><a xlink:href="../../tables/policy_event_contents.html" xlink:title="policy_event_contents" target="_top">
<polygon fill="#ffffff" stroke="none" points="841,-510 841,-656 1016,-656 1016,-510 841,-510"/>
<polygon fill="#f5f5f5" stroke="none" points="841.5,-634 841.5,-656 1016.5,-656 1016.5,-634 841.5,-634"/>
<polygon fill="none" stroke="black" points="841.5,-634 841.5,-656 1016.5,-656 1016.5,-634 841.5,-634"/>
<text text-anchor="start" x="846.5" y="-643.2" font-family="Helvetica,sans-Serif" font-weight="bold" font-size="11.00">policy_event_contents</text>
<text text-anchor="start" x="977.5" y="-642.2" font-family="Helvetica,sans-Serif" font-size="11.00">[table]</text>
<polygon fill="none" stroke="black" points="841.5,-612 841.5,-634 1016.5,-634 1016.5,-612 841.5,-612"/>
<image xlink:href="../../images/primaryKeys.png" width="11px" height="12px" preserveAspectRatio="xMinYMin meet" x="846.5" y="-629"/>
<text text-anchor="start" x="872.5" y="-620.2" font-family="Helvetica,sans-Serif" font-size="11.00">id</text>
<polygon fill="#ffffff" stroke="none" points="841.5,-590 841.5,-612 1016.5,-612 1016.5,-590 841.5,-590"/>
<polygon fill="none" stroke="black" points="841.5,-590 841.5,-612 1016.5,-612 1016.5,-590 841.5,-590"/>
<image xlink:href="../../images/foreignKeys.png" width="11px" height="12px" preserveAspectRatio="xMinYMin meet" x="846.5" y="-607"/>
<text text-anchor="start" x="872.5" y="-598.2" font-family="Helvetica,sans-Serif" font-size="11.00">policy_event_id</text>
<polygon fill="#ffffff" stroke="none" points="841.5,-568 841.5,-590 1016.5,-590 1016.5,-568 841.5,-568"/>
<polygon fill="none" stroke="black" points="841.5,-568 841.5,-590 1016.5,-590 1016.5,-568 841.5,-568"/>
<text text-anchor="start" x="872.5" y="-576.2" font-family="Helvetica,sans-Serif" font-size="11.00">resource_id</text>
<polygon fill="#ffffff" stroke="none" points="841.5,-546 841.5,-568 1016.5,-568 1016.5,-546 841.5,-546"/>
<polygon fill="none" stroke="black" points="841.5,-546 841.5,-568 1016.5,-568 1016.5,-546 841.5,-546"/>
<text text-anchor="start" x="872.5" y="-554.2" font-family="Helvetica,sans-Serif" font-size="11.00">resource_type</text>
<polygon fill="none" stroke="black" points="841.5,-528 841.5,-546 1016.5,-546 1016.5,-528 841.5,-528"/>
<text text-anchor="start" x="844.5" y="-534.2" font-family="Helvetica,sans-Serif" font-size="11.00">...</text>
<polygon fill="#ffffff" stroke="none" points="841.5,-510 841.5,-528 927.5,-528 927.5,-510 841.5,-510"/>
<polygon fill="none" stroke="black" points="841.5,-510 841.5,-528 927.5,-528 927.5,-510 841.5,-510"/>
<text text-anchor="start" x="844.5" y="-516.2" font-family="Helvetica,sans-Serif" font-size="11.00">&lt; 1</text>
<polygon fill="#ffffff" stroke="none" points="927.5,-510 927.5,-528 971.5,-528 971.5,-510 927.5,-510"/>
<polygon fill="none" stroke="black" points="927.5,-510 927.5,-528 971.5,-528 971.5,-510 927.5,-510"/>
<text text-anchor="start" x="961.5" y="-516.2" font-family="Helvetica,sans-Serif" font-size="11.00"> &#160;</text>
<polygon fill="#ffffff" stroke="none" points="971.5,-510 971.5,-528 1016.5,-528 1016.5,-510 971.5,-510"/>
<polygon fill="none" stroke="black" points="971.5,-510 971.5,-528 1016.5,-528 1016.5,-510 971.5,-510"/>
<text text-anchor="start" x="1006.5" y="-516.2" font-family="Helvetica,sans-Serif" font-size="11.00"> &#160;</text>
</a>
</g>
</g>
<!-- policy_events -->
<g id="node4" class="node"><title>policy_events</title>
<g id="a_node4"><a xlink:href="../../tables/policy_events.html" xlink:title="policy_events" target="_top">
<polygon fill="#ffffff" stroke="none" points="448,-240 448,-636 792,-636 792,-240 448,-240"/>
<polygon fill="#f5f5f5" stroke="none" points="450,-612 450,-634 790,-634 790,-612 450,-612"/>
<polygon fill="none" stroke="black" points="450,-612 450,-634 790,-634 790,-612 450,-612"/>
<text text-anchor="start" x="455" y="-621.2" font-family="Helvetica,sans-Serif" font-weight="bold" font-size="11.00">policy_events</text>
<text text-anchor="start" x="751" y="-620.2" font-family="Helvetica,sans-Serif" font-size="11.00">[table]</text>
<polygon fill="none" stroke="black" points="450,-590 450,-612 669,-612 669,-590 450,-590"/>
<image xlink:href="../../images/primaryKeys.png" width="11px" height="12px" preserveAspectRatio="xMinYMin meet" x="455" y="-607"/>
<text text-anchor="start" x="470" y="-598.2" font-family="Helvetica,sans-Serif" font-size="11.00">id</text>
<polygon fill="none" stroke="black" points="669,-590 669,-612 790,-612 790,-590 669,-590"/>
<text text-anchor="start" x="672" y="-598.2" font-family="Helvetica,sans-Serif" font-size="11.00">bigserial[19]</text>
<polygon fill="#ffffff" stroke="none" points="450,-568 450,-590 669,-590 669,-568 450,-568"/>
<polygon fill="none" stroke="black" points="450,-568 450,-590 669,-590 669,-568 450,-568"/>
<image xlink:href="../../images/foreignKeys.png" width="11px" height="12px" preserveAspectRatio="xMinYMin meet" x="455" y="-585"/>
<text text-anchor="start" x="470" y="-576.2" font-family="Helvetica,sans-Serif" font-size="11.00">miq_event_definition_id</text>
<polygon fill="none" stroke="black" points="669,-568 669,-590 790,-590 790,-568 669,-568"/>
<text text-anchor="start" x="672" y="-576.2" font-family="Helvetica,sans-Serif" font-size="11.00">int8[19]</text>
<polygon fill="none" stroke="black" points="450,-546 450,-568 669,-568 669,-546 450,-546"/>
<text text-anchor="start" x="470" y="-554.2" font-family="Helvetica,sans-Serif" font-size="11.00">event_type</text>
<polygon fill="none" stroke="black" points="669,-546 669,-568 790,-568 790,-546 669,-546"/>
<text text-anchor="start" x="672" y="-554.2" font-family="Helvetica,sans-Serif" font-size="11.00">varchar[2147483647]</text>
<polygon fill="none" stroke="black" points="450,-524 450,-546 669,-546 669,-524 450,-524"/>
<text text-anchor="start" x="470" y="-532.2" font-family="Helvetica,sans-Serif" font-size="11.00">miq_event_definition_description</text>
<polygon fill="none" stroke="black" points="669,-524 669,-546 790,-546 790,-524 669,-524"/>
<text text-anchor="start" x="672" y="-532.2" font-family="Helvetica,sans-Serif" font-size="11.00">varchar[2147483647]</text>
<polygon fill="#ffffff" stroke="none" points="450,-502 450,-524 669,-524 669,-502 450,-502"/>
<polygon fill="none" stroke="black" points="450,-502 450,-524 669,-524 669,-502 450,-502"/>
<image xlink:href="../../images/foreignKeys.png" width="11px" height="12px" preserveAspectRatio="xMinYMin meet" x="455" y="-519"/>
<text text-anchor="start" x="470" y="-510.2" font-family="Helvetica,sans-Serif" font-size="11.00">miq_policy_id</text>
<polygon fill="none" stroke="black" points="669,-502 669,-524 790,-524 790,-502 669,-502"/>
<text text-anchor="start" x="672" y="-510.2" font-family="Helvetica,sans-Serif" font-size="11.00">int8[19]</text>
<polygon fill="none" stroke="black" points="450,-480 450,-502 669,-502 669,-480 450,-480"/>
<text text-anchor="start" x="470" y="-488.2" font-family="Helvetica,sans-Serif" font-size="11.00">miq_policy_description</text>
<polygon fill="none" stroke="black" points="669,-480 669,-502 790,-502 790,-480 669,-480"/>
<text text-anchor="start" x="672" y="-488.2" font-family="Helvetica,sans-Serif" font-size="11.00">varchar[2147483647]</text>
<polygon fill="none" stroke="black" points="450,-458 450,-480 669,-480 669,-458 450,-458"/>
<text text-anchor="start" x="470" y="-466.2" font-family="Helvetica,sans-Serif" font-size="11.00">result</text>
<polygon fill="none" stroke="black" points="669,-458 669,-480 790,-480 790,-458 669,-458"/>
<text text-anchor="start" x="672" y="-466.2" font-family="Helvetica,sans-Serif" font-size="11.00">varchar[2147483647]</text>
<polygon fill="none" stroke="black" points="450,-436 450,-458 669,-458 669,-436 450,-436"/>
<text text-anchor="start" x="470" y="-444.2" font-family="Helvetica,sans-Serif" font-size="11.00">timestamp</text>
<polygon fill="none" stroke="black" points="669,-436 669,-458 790,-458 790,-436 669,-436"/>
<text text-anchor="start" x="672" y="-444.2" font-family="Helvetica,sans-Serif" font-size="11.00">timestamp[29,6]</text>
<polygon fill="#ffffff" stroke="none" points="450,-414 450,-436 669,-436 669,-414 450,-414"/>
<polygon fill="none" stroke="black" points="450,-414 450,-436 669,-436 669,-414 450,-414"/>
<text text-anchor="start" x="470" y="-422.2" font-family="Helvetica,sans-Serif" font-size="11.00">target_id</text>
<polygon fill="none" stroke="black" points="669,-414 669,-436 790,-436 790,-414 669,-414"/>
<text text-anchor="start" x="672" y="-422.2" font-family="Helvetica,sans-Serif" font-size="11.00">int8[19]</text>
<polygon fill="#ffffff" stroke="none" points="450,-392 450,-414 669,-414 669,-392 450,-392"/>
<polygon fill="none" stroke="black" points="450,-392 450,-414 669,-414 669,-392 450,-392"/>
<text text-anchor="start" x="470" y="-400.2" font-family="Helvetica,sans-Serif" font-size="11.00">target_class</text>
<polygon fill="none" stroke="black" points="669,-392 669,-414 790,-414 790,-392 669,-392"/>
<text text-anchor="start" x="672" y="-400.2" font-family="Helvetica,sans-Serif" font-size="11.00">varchar[2147483647]</text>
<polygon fill="none" stroke="black" points="450,-370 450,-392 669,-392 669,-370 450,-370"/>
<text text-anchor="start" x="470" y="-378.2" font-family="Helvetica,sans-Serif" font-size="11.00">target_name</text>
<polygon fill="none" stroke="black" points="669,-370 669,-392 790,-392 790,-370 669,-370"/>
<text text-anchor="start" x="672" y="-378.2" font-family="Helvetica,sans-Serif" font-size="11.00">varchar[2147483647]</text>
<polygon fill="#ffffff" stroke="none" points="450,-348 450,-370 669,-370 669,-348 450,-348"/>
<polygon fill="none" stroke="black" points="450,-348 450,-370 669,-370 669,-348 450,-348"/>
<text text-anchor="start" x="470" y="-356.2" font-family="Helvetica,sans-Serif" font-size="11.00">chain_id</text>
<polygon fill="none" stroke="black" points="669,-348 669,-370 790,-370 790,-348 669,-348"/>
<text text-anchor="start" x="672" y="-356.2" font-family="Helvetica,sans-Serif" font-size="11.00">int8[19]</text>
<polygon fill="none" stroke="black" points="450,-326 450,-348 669,-348 669,-326 450,-326"/>
<text text-anchor="start" x="470" y="-334.2" font-family="Helvetica,sans-Serif" font-size="11.00">username</text>
<polygon fill="none" stroke="black" points="669,-326 669,-348 790,-348 790,-326 669,-326"/>
<text text-anchor="start" x="672" y="-334.2" font-family="Helvetica,sans-Serif" font-size="11.00">varchar[2147483647]</text>
<polygon fill="#ffffff" stroke="none" points="450,-304 450,-326 669,-326 669,-304 450,-304"/>
<polygon fill="none" stroke="black" points="450,-304 450,-326 669,-326 669,-304 450,-304"/>
<image xlink:href="../../images/foreignKeys.png" width="11px" height="12px" preserveAspectRatio="xMinYMin meet" x="455" y="-321"/>
<text text-anchor="start" x="470" y="-312.2" font-family="Helvetica,sans-Serif" font-size="11.00">host_id</text>
<polygon fill="none" stroke="black" points="669,-304 669,-326 790,-326 790,-304 669,-304"/>
<text text-anchor="start" x="672" y="-312.2" font-family="Helvetica,sans-Serif" font-size="11.00">int8[19]</text>
<polygon fill="#ffffff" stroke="none" points="450,-282 450,-304 669,-304 669,-282 450,-282"/>
<polygon fill="none" stroke="black" points="450,-282 450,-304 669,-304 669,-282 450,-282"/>
<image xlink:href="../../images/foreignKeys.png" width="11px" height="12px" preserveAspectRatio="xMinYMin meet" x="455" y="-299"/>
<text text-anchor="start" x="470" y="-290.2" font-family="Helvetica,sans-Serif" font-size="11.00">ems_cluster_id</text>
<polygon fill="none" stroke="black" points="669,-282 669,-304 790,-304 790,-282 669,-282"/>
<text text-anchor="start" x="672" y="-290.2" font-family="Helvetica,sans-Serif" font-size="11.00">int8[19]</text>
<polygon fill="#ffffff" stroke="none" points="450,-260 450,-282 669,-282 669,-260 450,-260"/>
<polygon fill="none" stroke="black" points="450,-260 450,-282 669,-282 669,-260 450,-260"/>
<text text-anchor="start" x="470" y="-268.2" font-family="Helvetica,sans-Serif" font-size="11.00">ems_id</text>
<polygon fill="none" stroke="black" points="669,-260 669,-282 790,-282 790,-260 669,-260"/>
<text text-anchor="start" x="672" y="-268.2" font-family="Helvetica,sans-Serif" font-size="11.00">int8[19]</text>
<polygon fill="#ffffff" stroke="none" points="450,-242 450,-260 564,-260 564,-242 450,-242"/>
<polygon fill="none" stroke="black" points="450,-242 450,-260 564,-260 564,-242 450,-242"/>
<text text-anchor="start" x="453" y="-248.2" font-family="Helvetica,sans-Serif" font-size="11.00">&lt; 4</text>
<polygon fill="#ffffff" stroke="none" points="564,-242 564,-260 669,-260 669,-242 564,-242"/>
<polygon fill="none" stroke="black" points="564,-242 564,-260 669,-260 669,-242 564,-242"/>
<text text-anchor="start" x="659" y="-248.2" font-family="Helvetica,sans-Serif" font-size="11.00"> &#160;</text>
<polygon fill="#ffffff" stroke="none" points="669,-242 669,-260 790,-260 790,-242 669,-242"/>
<polygon fill="none" stroke="black" points="669,-242 669,-260 790,-260 790,-242 669,-242"/>
<text text-anchor="start" x="770" y="-248.2" font-family="Helvetica,sans-Serif" font-size="11.00">1 &gt;</text>
<polygon fill="none" stroke="black" stroke-width="2" points="449,-241 449,-635 791,-635 791,-241 449,-241"/>
</a>
</g>
</g>
<!-- policy_event_contents&#45;&gt;policy_events -->
<g id="edge2" class="edge"><title>policy_event_contents:policy_event_id:w&#45;&gt;policy_events:id.type:e</title>
<path fill="none" stroke="black" d="M825.843,-601C814.414,-601 807.156,-601 791,-601"/>
<polygon fill="black" stroke="black" points="832.5,-601 840.5,-604.6 836.5,-601 840.5,-601 840.5,-601 840.5,-601 836.5,-601 840.5,-597.4 832.5,-601 832.5,-601"/>
<ellipse fill="none" stroke="black" cx="829.3" cy="-601" rx="3.2" ry="3.2"/>
</g>
<!-- policy_events&#45;&gt;hosts -->
<g id="edge4" class="edge"><title>policy_events:host_id:w&#45;&gt;hosts:id:e</title>
<path fill="none" stroke="black" d="M434.632,-318.065C420.607,-324.741 415.32,-340 394.5,-340"/>
<polygon fill="black" stroke="black" points="441.176,-316.669 449.751,-318.521 445.088,-315.835 449,-315 449,-315 449,-315 445.088,-315.835 448.249,-311.479 441.176,-316.669 441.176,-316.669"/>
<ellipse fill="none" stroke="black" cx="438.047" cy="-317.337" rx="3.2" ry="3.2"/>
</g>
<!-- policy_events&#45;&gt;ems_clusters -->
<g id="edge3" class="edge"><title>policy_events:ems_cluster_id:w&#45;&gt;ems_clusters:id:e</title>
<path fill="none" stroke="black" d="M434.5,-291.293C377.609,-275.588 469.089,-155.691 407,-106 340.723,-52.9577 293.524,-71.4152 216,-106 192,-116.707 202.78,-150 176.5,-150"/>
<polygon fill="black" stroke="black" points="441.055,-292.065 448.579,-296.575 445.027,-292.532 449,-293 449,-293 449,-293 445.027,-292.532 449.421,-289.425 441.055,-292.065 441.055,-292.065"/>
<ellipse fill="none" stroke="black" cx="437.877" cy="-291.691" rx="3.2" ry="3.2"/>
</g>
<!-- miq_event_definitions -->
<g id="node5" class="node"><title>miq_event_definitions</title>
<g id="a_node5"><a xlink:href="../../tables/miq_event_definitions.html" xlink:title="miq_event_definitions" target="_top">
<polygon fill="#ffffff" stroke="none" points="224,-543 224,-645 399,-645 399,-543 224,-543"/>
<polygon fill="#f5f5f5" stroke="none" points="224.5,-623 224.5,-645 399.5,-645 399.5,-623 224.5,-623"/>
<polygon fill="none" stroke="black" points="224.5,-623 224.5,-645 399.5,-645 399.5,-623 224.5,-623"/>
<text text-anchor="start" x="229.5" y="-632.2" font-family="Helvetica,sans-Serif" font-weight="bold" font-size="11.00">miq_event_definitions</text>
<text text-anchor="start" x="360.5" y="-631.2" font-family="Helvetica,sans-Serif" font-size="11.00">[table]</text>
<polygon fill="none" stroke="black" points="224.5,-601 224.5,-623 399.5,-623 399.5,-601 224.5,-601"/>
<image xlink:href="../../images/primaryKeys.png" width="11px" height="12px" preserveAspectRatio="xMinYMin meet" x="229.5" y="-618"/>
<text text-anchor="start" x="256.5" y="-609.2" font-family="Helvetica,sans-Serif" font-size="11.00">id</text>
<polygon fill="#ffffff" stroke="none" points="224.5,-579 224.5,-601 399.5,-601 399.5,-579 224.5,-579"/>
<polygon fill="none" stroke="black" points="224.5,-579 224.5,-601 399.5,-601 399.5,-579 224.5,-579"/>
<text text-anchor="start" x="256.5" y="-587.2" font-family="Helvetica,sans-Serif" font-size="11.00">guid</text>
<polygon fill="none" stroke="black" points="224.5,-561 224.5,-579 399.5,-579 399.5,-561 224.5,-561"/>
<text text-anchor="start" x="227.5" y="-567.2" font-family="Helvetica,sans-Serif" font-size="11.00">...</text>
<polygon fill="#ffffff" stroke="none" points="224.5,-543 224.5,-561 300.5,-561 300.5,-543 224.5,-543"/>
<polygon fill="none" stroke="black" points="224.5,-543 224.5,-561 300.5,-561 300.5,-543 224.5,-543"/>
<text text-anchor="start" x="227.5" y="-549.2" font-family="Helvetica,sans-Serif" font-size="11.00"> &#160;</text>
<polygon fill="#ffffff" stroke="none" points="300.5,-543 300.5,-561 344.5,-561 344.5,-543 300.5,-543"/>
<polygon fill="none" stroke="black" points="300.5,-543 300.5,-561 344.5,-561 344.5,-543 300.5,-543"/>
<text text-anchor="start" x="334.5" y="-549.2" font-family="Helvetica,sans-Serif" font-size="11.00"> &#160;</text>
<polygon fill="#ffffff" stroke="none" points="344.5,-543 344.5,-561 399.5,-561 399.5,-543 344.5,-543"/>
<polygon fill="none" stroke="black" points="344.5,-543 344.5,-561 399.5,-561 399.5,-543 344.5,-543"/>
<text text-anchor="start" x="379.5" y="-549.2" font-family="Helvetica,sans-Serif" font-size="11.00">2 &gt;</text>
</a>
</g>
</g>
<!-- policy_events&#45;&gt;miq_event_definitions -->
<g id="edge5" class="edge"><title>policy_events:miq_event_definition_id:w&#45;&gt;miq_event_definitions:id:e</title>
<path fill="none" stroke="black" d="M435.164,-583.314C423.054,-592.259 420.665,-612 400.5,-612"/>
<polygon fill="black" stroke="black" points="441.363,-581.381 450.072,-582.437 445.181,-580.191 449,-579 449,-579 449,-579 445.181,-580.191 447.928,-575.563 441.363,-581.381 441.363,-581.381"/>
<ellipse fill="none" stroke="black" cx="438.308" cy="-582.334" rx="3.20001" ry="3.20001"/>
</g>
<!-- miq_policies -->
<g id="node6" class="node"><title>miq_policies</title>
<g id="a_node6"><a xlink:href="../../tables/miq_policies.html" xlink:title="miq_policies" target="_top">
<polygon fill="#ffffff" stroke="none" points="252,-442 252,-522 371,-522 371,-442 252,-442"/>
<polygon fill="#f5f5f5" stroke="none" points="252.5,-500 252.5,-522 371.5,-522 371.5,-500 252.5,-500"/>
<polygon fill="none" stroke="black" points="252.5,-500 252.5,-522 371.5,-522 371.5,-500 252.5,-500"/>
<text text-anchor="start" x="257.5" y="-509.2" font-family="Helvetica,sans-Serif" font-weight="bold" font-size="11.00">miq_policies</text>
<text text-anchor="start" x="332.5" y="-508.2" font-family="Helvetica,sans-Serif" font-size="11.00">[table]</text>
<polygon fill="none" stroke="black" points="252.5,-478 252.5,-500 371.5,-500 371.5,-478 252.5,-478"/>
<image xlink:href="../../images/primaryKeys.png" width="11px" height="12px" preserveAspectRatio="xMinYMin meet" x="257.5" y="-495"/>
<text text-anchor="start" x="285.5" y="-486.2" font-family="Helvetica,sans-Serif" font-size="11.00">id</text>
<polygon fill="none" stroke="black" points="252.5,-460 252.5,-478 371.5,-478 371.5,-460 252.5,-460"/>
<text text-anchor="start" x="255.5" y="-466.2" font-family="Helvetica,sans-Serif" font-size="11.00">...</text>
<polygon fill="#ffffff" stroke="none" points="252.5,-442 252.5,-460 300.5,-460 300.5,-442 252.5,-442"/>
<polygon fill="none" stroke="black" points="252.5,-442 252.5,-460 300.5,-460 300.5,-442 252.5,-442"/>
<text text-anchor="start" x="255.5" y="-448.2" font-family="Helvetica,sans-Serif" font-size="11.00"> &#160;</text>
<polygon fill="#ffffff" stroke="none" points="300.5,-442 300.5,-460 330.5,-460 330.5,-442 300.5,-442"/>
<polygon fill="none" stroke="black" points="300.5,-442 300.5,-460 330.5,-460 330.5,-442 300.5,-442"/>
<text text-anchor="start" x="320.5" y="-448.2" font-family="Helvetica,sans-Serif" font-size="11.00"> &#160;</text>
<polygon fill="#ffffff" stroke="none" points="330.5,-442 330.5,-460 371.5,-460 371.5,-442 330.5,-442"/>
<polygon fill="none" stroke="black" points="330.5,-442 330.5,-460 371.5,-460 371.5,-442 330.5,-442"/>
<text text-anchor="start" x="351.5" y="-448.2" font-family="Helvetica,sans-Serif" font-size="11.00">5 &gt;</text>
</a>
</g>
</g>
<!-- policy_events&#45;&gt;miq_policies -->
<g id="edge6" class="edge"><title>policy_events:miq_policy_id:w&#45;&gt;miq_policies:id:e</title>
<path fill="none" stroke="black" d="M434.616,-511.499C411.066,-506.245 402.705,-489 372.5,-489"/>
<polygon fill="black" stroke="black" points="441.043,-512.169 448.626,-516.581 445.022,-512.585 449,-513 449,-513 449,-513 445.022,-512.585 449.374,-509.419 441.043,-512.169 441.043,-512.169"/>
<ellipse fill="none" stroke="black" cx="437.861" cy="-511.837" rx="3.2" ry="3.2"/>
</g>
</g>
</svg>
