<?xml version="1.0" encoding="UTF-8" standalone="no"?>
<!DOCTYPE svg PUBLIC "-//W3C//DTD SVG 1.1//EN"
 "http://www.w3.org/Graphics/SVG/1.1/DTD/svg11.dtd">
<!-- Generated by graphviz version 2.38.0 (20140413.2041)
 -->
<!-- Title: oneDegreeRelationshipsDiagram Pages: 1 -->
<svg width="570pt" height="329pt"
 viewBox="0.00 0.00 570.00 329.00" xmlns="http://www.w3.org/2000/svg" xmlns:xlink="http://www.w3.org/1999/xlink">
<g id="graph0" class="graph" transform="scale(1 1) rotate(0) translate(4 325)">
<title>oneDegreeRelationshipsDiagram</title>
<polygon fill="#ffffff" stroke="none" points="-4,4 -4,-325 566,-325 566,4 -4,4"/>
<text text-anchor="middle" x="74.5" y="-7.2" font-family="Helvetica,sans-Serif" font-size="11.00">Generated by SchemaSpy</text>
<!-- policy_event_contents -->
<g id="node1" class="node"><title>policy_event_contents</title>
<g id="a_node1"><a xlink:href="../../tables/policy_event_contents.html" xlink:title="policy_event_contents" target="_top">
<polygon fill="#ffffff" stroke="none" points="276,-163 276,-317 554,-317 554,-163 276,-163"/>
<polygon fill="#f5f5f5" stroke="none" points="278,-293 278,-315 552,-315 552,-293 278,-293"/>
<polygon fill="none" stroke="black" points="278,-293 278,-315 552,-315 552,-293 278,-293"/>
<text text-anchor="start" x="283" y="-302.2" font-family="Helvetica,sans-Serif" font-weight="bold" font-size="11.00">policy_event_contents</text>
<text text-anchor="start" x="513" y="-301.2" font-family="Helvetica,sans-Serif" font-size="11.00">[table]</text>
<polygon fill="none" stroke="black" points="278,-271 278,-293 431,-293 431,-271 278,-271"/>
<image xlink:href="../../images/primaryKeys.png" width="11px" height="12px" preserveAspectRatio="xMinYMin meet" x="283" y="-288"/>
<text text-anchor="start" x="298" y="-279.2" font-family="Helvetica,sans-Serif" font-size="11.00">id</text>
<polygon fill="none" stroke="black" points="431,-271 431,-293 552,-293 552,-271 431,-271"/>
<text text-anchor="start" x="434" y="-279.2" font-family="Helvetica,sans-Serif" font-size="11.00">bigserial[19]</text>
<polygon fill="#ffffff" stroke="none" points="278,-249 278,-271 431,-271 431,-249 278,-249"/>
<polygon fill="none" stroke="black" points="278,-249 278,-271 431,-271 431,-249 278,-249"/>
<image xlink:href="../../images/foreignKeys.png" width="11px" height="12px" preserveAspectRatio="xMinYMin meet" x="283" y="-266"/>
<text text-anchor="start" x="298" y="-257.2" font-family="Helvetica,sans-Serif" font-size="11.00">policy_event_id</text>
<polygon fill="none" stroke="black" points="431,-249 431,-271 552,-271 552,-249 431,-249"/>
<text text-anchor="start" x="434" y="-257.2" font-family="Helvetica,sans-Serif" font-size="11.00">int8[19]</text>
<polygon fill="#ffffff" stroke="none" points="278,-227 278,-249 431,-249 431,-227 278,-227"/>
<polygon fill="none" stroke="black" points="278,-227 278,-249 431,-249 431,-227 278,-227"/>
<text text-anchor="start" x="298" y="-235.2" font-family="Helvetica,sans-Serif" font-size="11.00">resource_id</text>
<polygon fill="none" stroke="black" points="431,-227 431,-249 552,-249 552,-227 431,-227"/>
<text text-anchor="start" x="434" y="-235.2" font-family="Helvetica,sans-Serif" font-size="11.00">int8[19]</text>
<polygon fill="#ffffff" stroke="none" points="278,-205 278,-227 431,-227 431,-205 278,-205"/>
<polygon fill="none" stroke="black" points="278,-205 278,-227 431,-227 431,-205 278,-205"/>
<text text-anchor="start" x="298" y="-213.2" font-family="Helvetica,sans-Serif" font-size="11.00">resource_type</text>
<polygon fill="none" stroke="black" points="431,-205 431,-227 552,-227 552,-205 431,-205"/>
<text text-anchor="start" x="434" y="-213.2" font-family="Helvetica,sans-Serif" font-size="11.00">varchar[2147483647]</text>
<polygon fill="none" stroke="black" points="278,-183 278,-205 431,-205 431,-183 278,-183"/>
<text text-anchor="start" x="298" y="-191.2" font-family="Helvetica,sans-Serif" font-size="11.00">resource_description</text>
<polygon fill="none" stroke="black" points="431,-183 431,-205 552,-205 552,-183 431,-183"/>
<text text-anchor="start" x="434" y="-191.2" font-family="Helvetica,sans-Serif" font-size="11.00">varchar[2147483647]</text>
<polygon fill="#ffffff" stroke="none" points="278,-165 278,-183 359,-183 359,-165 278,-165"/>
<polygon fill="none" stroke="black" points="278,-165 278,-183 359,-183 359,-165 278,-165"/>
<text text-anchor="start" x="281" y="-171.2" font-family="Helvetica,sans-Serif" font-size="11.00">&lt; 1</text>
<polygon fill="#ffffff" stroke="none" points="359,-165 359,-183 431,-183 431,-165 359,-165"/>
<polygon fill="none" stroke="black" points="359,-165 359,-183 431,-183 431,-165 359,-165"/>
<text text-anchor="start" x="421" y="-171.2" font-family="Helvetica,sans-Serif" font-size="11.00"> &#160;</text>
<polygon fill="#ffffff" stroke="none" points="431,-165 431,-183 552,-183 552,-165 431,-165"/>
<polygon fill="none" stroke="black" points="431,-165 431,-183 552,-183 552,-165 431,-165"/>
<text text-anchor="start" x="532" y="-171.2" font-family="Helvetica,sans-Serif" font-size="11.00">0 &gt;</text>
<polygon fill="none" stroke="black" stroke-width="2" points="277,-164 277,-316 553,-316 553,-164 277,-164"/>
</a>
</g>
</g>
<!-- policy_events -->
<g id="node2" class="node"><title>policy_events</title>
<g id="a_node2"><a xlink:href="../../tables/policy_events.html" xlink:title="policy_events" target="_top">
<polygon fill="#ffffff" stroke="none" points="8,-37 8,-293 227,-293 227,-37 8,-37"/>
<polygon fill="#f5f5f5" stroke="none" points="8.5,-271 8.5,-293 227.5,-293 227.5,-271 8.5,-271"/>
<polygon fill="none" stroke="black" points="8.5,-271 8.5,-293 227.5,-293 227.5,-271 8.5,-271"/>
<text text-anchor="start" x="13.5" y="-280.2" font-family="Helvetica,sans-Serif" font-weight="bold" font-size="11.00">policy_events</text>
<text text-anchor="start" x="188.5" y="-279.2" font-family="Helvetica,sans-Serif" font-size="11.00">[table]</text>
<polygon fill="none" stroke="black" points="8.5,-249 8.5,-271 227.5,-271 227.5,-249 8.5,-249"/>
<image xlink:href="../../images/primaryKeys.png" width="11px" height="12px" preserveAspectRatio="xMinYMin meet" x="13.5" y="-266"/>
<text text-anchor="start" x="28.5" y="-257.2" font-family="Helvetica,sans-Serif" font-size="11.00">id</text>
<polygon fill="#ffffff" stroke="none" points="8.5,-227 8.5,-249 227.5,-249 227.5,-227 8.5,-227"/>
<polygon fill="none" stroke="black" points="8.5,-227 8.5,-249 227.5,-249 227.5,-227 8.5,-227"/>
<image xlink:href="../../images/foreignKeys.png" width="11px" height="12px" preserveAspectRatio="xMinYMin meet" x="13.5" y="-244"/>
<text text-anchor="start" x="28.5" y="-235.2" font-family="Helvetica,sans-Serif" font-size="11.00">miq_event_definition_id</text>
<polygon fill="#ffffff" stroke="none" points="8.5,-205 8.5,-227 227.5,-227 227.5,-205 8.5,-205"/>
<polygon fill="none" stroke="black" points="8.5,-205 8.5,-227 227.5,-227 227.5,-205 8.5,-205"/>
<image xlink:href="../../images/foreignKeys.png" width="11px" height="12px" preserveAspectRatio="xMinYMin meet" x="13.5" y="-222"/>
<text text-anchor="start" x="28.5" y="-213.2" font-family="Helvetica,sans-Serif" font-size="11.00">miq_policy_id</text>
<polygon fill="#ffffff" stroke="none" points="8.5,-183 8.5,-205 227.5,-205 227.5,-183 8.5,-183"/>
<polygon fill="none" stroke="black" points="8.5,-183 8.5,-205 227.5,-205 227.5,-183 8.5,-183"/>
<text text-anchor="start" x="28.5" y="-191.2" font-family="Helvetica,sans-Serif" font-size="11.00">target_id</text>
<polygon fill="#ffffff" stroke="none" points="8.5,-161 8.5,-183 227.5,-183 227.5,-161 8.5,-161"/>
<polygon fill="none" stroke="black" points="8.5,-161 8.5,-183 227.5,-183 227.5,-161 8.5,-161"/>
<text text-anchor="start" x="28.5" y="-169.2" font-family="Helvetica,sans-Serif" font-size="11.00">target_class</text>
<polygon fill="#ffffff" stroke="none" points="8.5,-139 8.5,-161 227.5,-161 227.5,-139 8.5,-139"/>
<polygon fill="none" stroke="black" points="8.5,-139 8.5,-161 227.5,-161 227.5,-139 8.5,-139"/>
<text text-anchor="start" x="28.5" y="-147.2" font-family="Helvetica,sans-Serif" font-size="11.00">chain_id</text>
<polygon fill="#ffffff" stroke="none" points="8.5,-117 8.5,-139 227.5,-139 227.5,-117 8.5,-117"/>
<polygon fill="none" stroke="black" points="8.5,-117 8.5,-139 227.5,-139 227.5,-117 8.5,-117"/>
<image xlink:href="../../images/foreignKeys.png" width="11px" height="12px" preserveAspectRatio="xMinYMin meet" x="13.5" y="-134"/>
<text text-anchor="start" x="28.5" y="-125.2" font-family="Helvetica,sans-Serif" font-size="11.00">host_id</text>
<polygon fill="#ffffff" stroke="none" points="8.5,-95 8.5,-117 227.5,-117 227.5,-95 8.5,-95"/>
<polygon fill="none" stroke="black" points="8.5,-95 8.5,-117 227.5,-117 227.5,-95 8.5,-95"/>
<image xlink:href="../../images/foreignKeys.png" width="11px" height="12px" preserveAspectRatio="xMinYMin meet" x="13.5" y="-112"/>
<text text-anchor="start" x="28.5" y="-103.2" font-family="Helvetica,sans-Serif" font-size="11.00">ems_cluster_id</text>
<polygon fill="#ffffff" stroke="none" points="8.5,-73 8.5,-95 227.5,-95 227.5,-73 8.5,-73"/>
<polygon fill="none" stroke="black" points="8.5,-73 8.5,-95 227.5,-95 227.5,-73 8.5,-73"/>
<text text-anchor="start" x="28.5" y="-81.2" font-family="Helvetica,sans-Serif" font-size="11.00">ems_id</text>
<polygon fill="none" stroke="black" points="8.5,-55 8.5,-73 227.5,-73 227.5,-55 8.5,-55"/>
<text text-anchor="start" x="11.5" y="-61.2" font-family="Helvetica,sans-Serif" font-size="11.00">...</text>
<polygon fill="#ffffff" stroke="none" points="8.5,-37 8.5,-55 111.5,-55 111.5,-37 8.5,-37"/>
<polygon fill="none" stroke="black" points="8.5,-37 8.5,-55 111.5,-55 111.5,-37 8.5,-37"/>
<text text-anchor="start" x="11.5" y="-43.2" font-family="Helvetica,sans-Serif" font-size="11.00">&lt; 4</text>
<polygon fill="#ffffff" stroke="none" points="111.5,-37 111.5,-55 164.5,-55 164.5,-37 111.5,-37"/>
<polygon fill="none" stroke="black" points="111.5,-37 111.5,-55 164.5,-55 164.5,-37 111.5,-37"/>
<text text-anchor="start" x="154.5" y="-43.2" font-family="Helvetica,sans-Serif" font-size="11.00"> &#160;</text>
<polygon fill="#ffffff" stroke="none" points="164.5,-37 164.5,-55 227.5,-55 227.5,-37 164.5,-37"/>
<polygon fill="none" stroke="black" points="164.5,-37 164.5,-55 227.5,-55 227.5,-37 164.5,-37"/>
<text text-anchor="start" x="207.5" y="-43.2" font-family="Helvetica,sans-Serif" font-size="11.00">1 &gt;</text>
</a>
</g>
</g>
<!-- policy_event_contents&#45;&gt;policy_events -->
<g id="edge1" class="edge"><title>policy_event_contents:policy_event_id:w&#45;&gt;policy_events:id:e</title>
<path fill="none" stroke="black" d="M262.283,-260C251.289,-260 244.161,-260 228.5,-260"/>
<polygon fill="black" stroke="black" points="269,-260 277,-263.6 273,-260 277,-260 277,-260 277,-260 273,-260 277,-256.4 269,-260 269,-260"/>
<ellipse fill="none" stroke="black" cx="265.8" cy="-260" rx="3.2" ry="3.2"/>
</g>
</g>
</svg>
