<?xml version="1.0" encoding="UTF-8" standalone="no"?>
<!DOCTYPE svg PUBLIC "-//W3C//DTD SVG 1.1//EN"
 "http://www.w3.org/Graphics/SVG/1.1/DTD/svg11.dtd">
<!-- Generated by graphviz version 2.38.0 (20140413.2041)
 -->
<!-- Title: oneDegreeRelationshipsDiagram Pages: 1 -->
<svg width="705pt" height="519pt"
 viewBox="0.00 0.00 705.00 519.00" xmlns="http://www.w3.org/2000/svg" xmlns:xlink="http://www.w3.org/1999/xlink">
<g id="graph0" class="graph" transform="scale(1 1) rotate(0) translate(4 515)">
<title>oneDegreeRelationshipsDiagram</title>
<polygon fill="#ffffff" stroke="none" points="-4,4 -4,-515 701,-515 701,4 -4,4"/>
<text text-anchor="middle" x="74.5" y="-7.2" font-family="Helvetica,sans-Serif" font-size="11.00">Generated by SchemaSpy</text>
<!-- ext_management_systems -->
<g id="node1" class="node"><title>ext_management_systems</title>
<g id="a_node1"><a xlink:href="../../tables/ext_management_systems.html" xlink:title="ext_management_systems" target="_top">
<polygon fill="#ffffff" stroke="none" points="491,-273 491,-507 689,-507 689,-273 491,-273"/>
<polygon fill="#f5f5f5" stroke="none" points="491,-485 491,-507 689,-507 689,-485 491,-485"/>
<polygon fill="none" stroke="black" points="491,-485 491,-507 689,-507 689,-485 491,-485"/>
<text text-anchor="start" x="496" y="-494.2" font-family="Helvetica,sans-Serif" font-weight="bold" font-size="11.00">ext_management_systems</text>
<text text-anchor="start" x="650" y="-493.2" font-family="Helvetica,sans-Serif" font-size="11.00">[table]</text>
<polygon fill="none" stroke="black" points="491,-463 491,-485 689,-485 689,-463 491,-463"/>
<image xlink:href="../../images/primaryKeys.png" width="11px" height="12px" preserveAspectRatio="xMinYMin meet" x="496" y="-480"/>
<text text-anchor="start" x="517" y="-471.2" font-family="Helvetica,sans-Serif" font-size="11.00">id</text>
<polygon fill="#ffffff" stroke="none" points="491,-441 491,-463 689,-463 689,-441 491,-441"/>
<polygon fill="none" stroke="black" points="491,-441 491,-463 689,-463 689,-441 491,-441"/>
<text text-anchor="start" x="517" y="-449.2" font-family="Helvetica,sans-Serif" font-size="11.00">guid</text>
<polygon fill="none" stroke="black" points="491,-419 491,-441 689,-441 689,-419 491,-419"/>
<image xlink:href="../../images/foreignKeys.png" width="11px" height="12px" preserveAspectRatio="xMinYMin meet" x="496" y="-436"/>
<text text-anchor="start" x="517" y="-427.2" font-family="Helvetica,sans-Serif" font-size="11.00">zone_id</text>
<polygon fill="#ffffff" stroke="none" points="491,-397 491,-419 689,-419 689,-397 491,-397"/>
<polygon fill="none" stroke="black" points="491,-397 491,-419 689,-419 689,-397 491,-397"/>
<text text-anchor="start" x="517" y="-405.2" font-family="Helvetica,sans-Serif" font-size="11.00">type</text>
<polygon fill="none" stroke="black" points="491,-375 491,-397 689,-397 689,-375 491,-375"/>
<image xlink:href="../../images/foreignKeys.png" width="11px" height="12px" preserveAspectRatio="xMinYMin meet" x="496" y="-392"/>
<text text-anchor="start" x="517" y="-383.2" font-family="Helvetica,sans-Serif" font-size="11.00">provider_id</text>
<polygon fill="none" stroke="black" points="491,-353 491,-375 689,-375 689,-353 491,-353"/>
<image xlink:href="../../images/foreignKeys.png" width="11px" height="12px" preserveAspectRatio="xMinYMin meet" x="496" y="-370"/>
<text text-anchor="start" x="517" y="-361.2" font-family="Helvetica,sans-Serif" font-size="11.00">tenant_id</text>
<polygon fill="#ffffff" stroke="none" points="491,-331 491,-353 689,-353 689,-331 491,-331"/>
<polygon fill="none" stroke="black" points="491,-331 491,-353 689,-353 689,-331 491,-331"/>
<text text-anchor="start" x="517" y="-339.2" font-family="Helvetica,sans-Serif" font-size="11.00">parent_ems_id</text>
<polygon fill="#ffffff" stroke="none" points="491,-309 491,-331 689,-331 689,-309 491,-309"/>
<polygon fill="none" stroke="black" points="491,-309 491,-331 689,-331 689,-309 491,-309"/>
<text text-anchor="start" x="517" y="-317.2" font-family="Helvetica,sans-Serif" font-size="11.00">zone_before_pause_id</text>
<polygon fill="none" stroke="black" points="491,-291 491,-309 689,-309 689,-291 491,-291"/>
<text text-anchor="start" x="494" y="-297.2" font-family="Helvetica,sans-Serif" font-size="11.00">...</text>
<polygon fill="#ffffff" stroke="none" points="491,-273 491,-291 588,-291 588,-273 491,-273"/>
<polygon fill="none" stroke="black" points="491,-273 491,-291 588,-291 588,-273 491,-273"/>
<text text-anchor="start" x="494" y="-279.2" font-family="Helvetica,sans-Serif" font-size="11.00">&lt; 3</text>
<polygon fill="#ffffff" stroke="none" points="588,-273 588,-291 638,-291 638,-273 588,-273"/>
<polygon fill="none" stroke="black" points="588,-273 588,-291 638,-291 638,-273 588,-273"/>
<text text-anchor="start" x="628" y="-279.2" font-family="Helvetica,sans-Serif" font-size="11.00"> &#160;</text>
<polygon fill="#ffffff" stroke="none" points="638,-273 638,-291 689,-291 689,-273 638,-273"/>
<polygon fill="none" stroke="black" points="638,-273 638,-291 689,-291 689,-273 638,-273"/>
<text text-anchor="start" x="679" y="-279.2" font-family="Helvetica,sans-Serif" font-size="11.00"> &#160;</text>
</a>
</g>
</g>
<!-- providers -->
<g id="node2" class="node"><title>providers</title>
<g id="a_node2"><a xlink:href="../../tables/providers.html" xlink:title="providers" target="_top">
<polygon fill="#ffffff" stroke="none" points="228,-179 228,-421 442,-421 442,-179 228,-179"/>
<polygon fill="#f5f5f5" stroke="none" points="230,-397 230,-419 440,-419 440,-397 230,-397"/>
<polygon fill="none" stroke="black" points="230,-397 230,-419 440,-419 440,-397 230,-397"/>
<text text-anchor="start" x="235" y="-406.2" font-family="Helvetica,sans-Serif" font-weight="bold" font-size="11.00">providers</text>
<text text-anchor="start" x="401" y="-405.2" font-family="Helvetica,sans-Serif" font-size="11.00">[table]</text>
<polygon fill="none" stroke="black" points="230,-375 230,-397 319,-397 319,-375 230,-375"/>
<image xlink:href="../../images/primaryKeys.png" width="11px" height="12px" preserveAspectRatio="xMinYMin meet" x="235" y="-392"/>
<text text-anchor="start" x="250" y="-383.2" font-family="Helvetica,sans-Serif" font-size="11.00">id</text>
<polygon fill="none" stroke="black" points="319,-375 319,-397 440,-397 440,-375 319,-375"/>
<text text-anchor="start" x="322" y="-383.2" font-family="Helvetica,sans-Serif" font-size="11.00">bigserial[19]</text>
<polygon fill="#ffffff" stroke="none" points="230,-353 230,-375 319,-375 319,-353 230,-353"/>
<polygon fill="none" stroke="black" points="230,-353 230,-375 319,-375 319,-353 230,-353"/>
<text text-anchor="start" x="250" y="-361.2" font-family="Helvetica,sans-Serif" font-size="11.00">type</text>
<polygon fill="none" stroke="black" points="319,-353 319,-375 440,-375 440,-353 319,-353"/>
<text text-anchor="start" x="322" y="-361.2" font-family="Helvetica,sans-Serif" font-size="11.00">varchar[2147483647]</text>
<polygon fill="none" stroke="black" points="230,-331 230,-353 319,-353 319,-331 230,-331"/>
<text text-anchor="start" x="250" y="-339.2" font-family="Helvetica,sans-Serif" font-size="11.00">name</text>
<polygon fill="none" stroke="black" points="319,-331 319,-353 440,-353 440,-331 319,-331"/>
<text text-anchor="start" x="322" y="-339.2" font-family="Helvetica,sans-Serif" font-size="11.00">varchar[2147483647]</text>
<polygon fill="none" stroke="black" points="230,-309 230,-331 319,-331 319,-309 230,-309"/>
<text text-anchor="start" x="250" y="-317.2" font-family="Helvetica,sans-Serif" font-size="11.00">guid</text>
<polygon fill="none" stroke="black" points="319,-309 319,-331 440,-331 440,-309 319,-309"/>
<text text-anchor="start" x="322" y="-317.2" font-family="Helvetica,sans-Serif" font-size="11.00">varchar[2147483647]</text>
<polygon fill="none" stroke="black" points="230,-287 230,-309 319,-309 319,-287 230,-287"/>
<image xlink:href="../../images/foreignKeys.png" width="11px" height="12px" preserveAspectRatio="xMinYMin meet" x="235" y="-304"/>
<text text-anchor="start" x="250" y="-295.2" font-family="Helvetica,sans-Serif" font-size="11.00">zone_id</text>
<polygon fill="none" stroke="black" points="319,-287 319,-309 440,-309 440,-287 319,-287"/>
<text text-anchor="start" x="322" y="-295.2" font-family="Helvetica,sans-Serif" font-size="11.00">int8[19]</text>
<polygon fill="none" stroke="black" points="230,-265 230,-287 319,-287 319,-265 230,-265"/>
<text text-anchor="start" x="250" y="-273.2" font-family="Helvetica,sans-Serif" font-size="11.00">created_at</text>
<polygon fill="none" stroke="black" points="319,-265 319,-287 440,-287 440,-265 319,-265"/>
<text text-anchor="start" x="322" y="-273.2" font-family="Helvetica,sans-Serif" font-size="11.00">timestamp[29,6]</text>
<polygon fill="none" stroke="black" points="230,-243 230,-265 319,-265 319,-243 230,-243"/>
<text text-anchor="start" x="250" y="-251.2" font-family="Helvetica,sans-Serif" font-size="11.00">updated_at</text>
<polygon fill="none" stroke="black" points="319,-243 319,-265 440,-265 440,-243 319,-243"/>
<text text-anchor="start" x="322" y="-251.2" font-family="Helvetica,sans-Serif" font-size="11.00">timestamp[29,6]</text>
<polygon fill="none" stroke="black" points="230,-221 230,-243 319,-243 319,-221 230,-221"/>
<image xlink:href="../../images/foreignKeys.png" width="11px" height="12px" preserveAspectRatio="xMinYMin meet" x="235" y="-238"/>
<text text-anchor="start" x="250" y="-229.2" font-family="Helvetica,sans-Serif" font-size="11.00">tenant_id</text>
<polygon fill="none" stroke="black" points="319,-221 319,-243 440,-243 440,-221 319,-221"/>
<text text-anchor="start" x="322" y="-229.2" font-family="Helvetica,sans-Serif" font-size="11.00">int8[19]</text>
<polygon fill="none" stroke="black" points="230,-199 230,-221 319,-221 319,-199 230,-199"/>
<text text-anchor="start" x="250" y="-207.2" font-family="Helvetica,sans-Serif" font-size="11.00">capabilities</text>
<polygon fill="none" stroke="black" points="319,-199 319,-221 440,-221 440,-199 319,-199"/>
<text text-anchor="start" x="322" y="-207.2" font-family="Helvetica,sans-Serif" font-size="11.00">jsonb[2147483647]</text>
<polygon fill="#ffffff" stroke="none" points="230,-181 230,-199 279,-199 279,-181 230,-181"/>
<polygon fill="none" stroke="black" points="230,-181 230,-199 279,-199 279,-181 230,-181"/>
<text text-anchor="start" x="233" y="-187.2" font-family="Helvetica,sans-Serif" font-size="11.00">&lt; 2</text>
<polygon fill="#ffffff" stroke="none" points="279,-181 279,-199 319,-199 319,-181 279,-181"/>
<polygon fill="none" stroke="black" points="279,-181 279,-199 319,-199 319,-181 279,-181"/>
<text text-anchor="start" x="309" y="-187.2" font-family="Helvetica,sans-Serif" font-size="11.00"> &#160;</text>
<polygon fill="#ffffff" stroke="none" points="319,-181 319,-199 440,-199 440,-181 319,-181"/>
<polygon fill="none" stroke="black" points="319,-181 319,-199 440,-199 440,-181 319,-181"/>
<text text-anchor="start" x="420" y="-187.2" font-family="Helvetica,sans-Serif" font-size="11.00">1 &gt;</text>
<polygon fill="none" stroke="black" stroke-width="2" points="229,-180 229,-420 441,-420 441,-180 229,-180"/>
</a>
</g>
</g>
<!-- ext_management_systems&#45;&gt;providers -->
<g id="edge1" class="edge"><title>ext_management_systems:provider_id:w&#45;&gt;providers:id.type:e</title>
<path fill="none" stroke="black" d="M475.491,-386C464.177,-386 456.993,-386 441,-386"/>
<polygon fill="black" stroke="black" points="482,-386 490,-389.6 486,-386 490,-386 490,-386 490,-386 486,-386 490,-382.4 482,-386 482,-386"/>
<ellipse fill="none" stroke="black" cx="478.8" cy="-386" rx="3.2" ry="3.2"/>
</g>
<!-- tenants -->
<g id="node3" class="node"><title>tenants</title>
<g id="a_node3"><a xlink:href="../../tables/tenants.html" xlink:title="tenants" target="_top">
<polygon fill="#ffffff" stroke="none" points="8,-37 8,-227 179,-227 179,-37 8,-37"/>
<polygon fill="#f5f5f5" stroke="none" points="8.5,-205 8.5,-227 179.5,-227 179.5,-205 8.5,-205"/>
<polygon fill="none" stroke="black" points="8.5,-205 8.5,-227 179.5,-227 179.5,-205 8.5,-205"/>
<text text-anchor="start" x="13.5" y="-214.2" font-family="Helvetica,sans-Serif" font-weight="bold" font-size="11.00">tenants</text>
<text text-anchor="start" x="140.5" y="-213.2" font-family="Helvetica,sans-Serif" font-size="11.00">[table]</text>
<polygon fill="none" stroke="black" points="8.5,-183 8.5,-205 179.5,-205 179.5,-183 8.5,-183"/>
<image xlink:href="../../images/primaryKeys.png" width="11px" height="12px" preserveAspectRatio="xMinYMin meet" x="13.5" y="-200"/>
<text text-anchor="start" x="28.5" y="-191.2" font-family="Helvetica,sans-Serif" font-size="11.00">id</text>
<polygon fill="#ffffff" stroke="none" points="8.5,-161 8.5,-183 179.5,-183 179.5,-161 8.5,-161"/>
<polygon fill="none" stroke="black" points="8.5,-161 8.5,-183 179.5,-183 179.5,-161 8.5,-161"/>
<text text-anchor="start" x="28.5" y="-169.2" font-family="Helvetica,sans-Serif" font-size="11.00">domain</text>
<polygon fill="#ffffff" stroke="none" points="8.5,-139 8.5,-161 179.5,-161 179.5,-139 8.5,-139"/>
<polygon fill="none" stroke="black" points="8.5,-139 8.5,-161 179.5,-161 179.5,-139 8.5,-139"/>
<text text-anchor="start" x="28.5" y="-147.2" font-family="Helvetica,sans-Serif" font-size="11.00">subdomain</text>
<polygon fill="#ffffff" stroke="none" points="8.5,-117 8.5,-139 179.5,-139 179.5,-117 8.5,-117"/>
<polygon fill="none" stroke="black" points="8.5,-117 8.5,-139 179.5,-139 179.5,-117 8.5,-117"/>
<text text-anchor="start" x="28.5" y="-125.2" font-family="Helvetica,sans-Serif" font-size="11.00">ancestry</text>
<polygon fill="#ffffff" stroke="none" points="8.5,-95 8.5,-117 179.5,-117 179.5,-95 8.5,-95"/>
<polygon fill="none" stroke="black" points="8.5,-95 8.5,-117 179.5,-117 179.5,-95 8.5,-95"/>
<text text-anchor="start" x="28.5" y="-103.2" font-family="Helvetica,sans-Serif" font-size="11.00">source_type</text>
<polygon fill="#ffffff" stroke="none" points="8.5,-73 8.5,-95 179.5,-95 179.5,-73 8.5,-73"/>
<polygon fill="none" stroke="black" points="8.5,-73 8.5,-95 179.5,-95 179.5,-73 8.5,-73"/>
<text text-anchor="start" x="28.5" y="-81.2" font-family="Helvetica,sans-Serif" font-size="11.00">source_id</text>
<polygon fill="none" stroke="black" points="8.5,-55 8.5,-73 179.5,-73 179.5,-55 8.5,-55"/>
<text text-anchor="start" x="11.5" y="-61.2" font-family="Helvetica,sans-Serif" font-size="11.00">...</text>
<polygon fill="#ffffff" stroke="none" points="8.5,-37 8.5,-55 78.5,-55 78.5,-37 8.5,-37"/>
<polygon fill="none" stroke="black" points="8.5,-37 8.5,-55 78.5,-55 78.5,-37 8.5,-37"/>
<text text-anchor="start" x="11.5" y="-43.2" font-family="Helvetica,sans-Serif" font-size="11.00"> &#160;</text>
<polygon fill="#ffffff" stroke="none" points="78.5,-37 78.5,-55 120.5,-55 120.5,-37 78.5,-37"/>
<polygon fill="none" stroke="black" points="78.5,-37 78.5,-55 120.5,-55 120.5,-37 78.5,-37"/>
<text text-anchor="start" x="110.5" y="-43.2" font-family="Helvetica,sans-Serif" font-size="11.00"> &#160;</text>
<polygon fill="#ffffff" stroke="none" points="120.5,-37 120.5,-55 179.5,-55 179.5,-37 120.5,-37"/>
<polygon fill="none" stroke="black" points="120.5,-37 120.5,-55 179.5,-55 179.5,-37 120.5,-37"/>
<text text-anchor="start" x="152.5" y="-43.2" font-family="Helvetica,sans-Serif" font-size="11.00">20 &gt;</text>
</a>
</g>
</g>
<!-- ext_management_systems&#45;&gt;tenants -->
<g id="edge2" class="edge"><title>ext_management_systems:tenant_id:w&#45;&gt;tenants:id:e</title>
<path fill="none" stroke="black" d="M475.35,-362.326C415.843,-346.417 514.138,-221.317 450,-169 370.788,-104.387 318.181,-140.541 220,-169 200.045,-174.784 201.276,-194 180.5,-194"/>
<polygon fill="black" stroke="black" points="482.052,-363.092 489.591,-367.577 486.026,-363.546 490,-364 490,-364 490,-364 486.026,-363.546 490.409,-360.423 482.052,-363.092 482.052,-363.092"/>
<ellipse fill="none" stroke="black" cx="478.872" cy="-362.729" rx="3.2" ry="3.2"/>
</g>
<!-- zones -->
<g id="node4" class="node"><title>zones</title>
<g id="a_node4"><a xlink:href="../../tables/zones.html" xlink:title="zones" target="_top">
<polygon fill="#ffffff" stroke="none" points="34.5,-304 34.5,-384 152.5,-384 152.5,-304 34.5,-304"/>
<polygon fill="#f5f5f5" stroke="none" points="34.5,-362 34.5,-384 152.5,-384 152.5,-362 34.5,-362"/>
<polygon fill="none" stroke="black" points="34.5,-362 34.5,-384 152.5,-384 152.5,-362 34.5,-362"/>
<text text-anchor="start" x="39.5" y="-371.2" font-family="Helvetica,sans-Serif" font-weight="bold" font-size="11.00">zones</text>
<text text-anchor="start" x="113.5" y="-370.2" font-family="Helvetica,sans-Serif" font-size="11.00">[table]</text>
<polygon fill="none" stroke="black" points="34.5,-340 34.5,-362 152.5,-362 152.5,-340 34.5,-340"/>
<image xlink:href="../../images/primaryKeys.png" width="11px" height="12px" preserveAspectRatio="xMinYMin meet" x="39.5" y="-357"/>
<text text-anchor="start" x="54.5" y="-348.2" font-family="Helvetica,sans-Serif" font-size="11.00">id</text>
<polygon fill="none" stroke="black" points="34.5,-322 34.5,-340 152.5,-340 152.5,-322 34.5,-322"/>
<text text-anchor="start" x="37.5" y="-328.2" font-family="Helvetica,sans-Serif" font-size="11.00">...</text>
<polygon fill="#ffffff" stroke="none" points="34.5,-304 34.5,-322 81.5,-322 81.5,-304 34.5,-304"/>
<polygon fill="none" stroke="black" points="34.5,-304 34.5,-322 81.5,-322 81.5,-304 34.5,-304"/>
<text text-anchor="start" x="37.5" y="-310.2" font-family="Helvetica,sans-Serif" font-size="11.00"> &#160;</text>
<polygon fill="#ffffff" stroke="none" points="81.5,-304 81.5,-322 111.5,-322 111.5,-304 81.5,-304"/>
<polygon fill="none" stroke="black" points="81.5,-304 81.5,-322 111.5,-322 111.5,-304 81.5,-304"/>
<text text-anchor="start" x="101.5" y="-310.2" font-family="Helvetica,sans-Serif" font-size="11.00"> &#160;</text>
<polygon fill="#ffffff" stroke="none" points="111.5,-304 111.5,-322 152.5,-322 152.5,-304 111.5,-304"/>
<polygon fill="none" stroke="black" points="111.5,-304 111.5,-322 152.5,-322 152.5,-304 111.5,-304"/>
<text text-anchor="start" x="132.5" y="-310.2" font-family="Helvetica,sans-Serif" font-size="11.00">5 &gt;</text>
</a>
</g>
</g>
<!-- ext_management_systems&#45;&gt;zones -->
<g id="edge3" class="edge"><title>ext_management_systems:zone_id:w&#45;&gt;zones:id:e</title>
<path fill="none" stroke="black" d="M475.287,-430.27C366.392,-434.292 323.931,-481.144 220,-432 177.892,-412.089 200.078,-351 153.5,-351"/>
<polygon fill="black" stroke="black" points="482.001,-430.147 490.066,-433.599 486.001,-430.073 490,-430 490,-430 490,-430 486.001,-430.073 489.934,-426.401 482.001,-430.147 482.001,-430.147"/>
<ellipse fill="none" stroke="black" cx="478.802" cy="-430.206" rx="3.2" ry="3.2"/>
</g>
<!-- providers&#45;&gt;tenants -->
<g id="edge4" class="edge"><title>providers:tenant_id:w&#45;&gt;tenants:id:e</title>
<path fill="none" stroke="black" d="M215.156,-227.34C202.748,-217.193 201.894,-194 180.5,-194"/>
<polygon fill="black" stroke="black" points="221.418,-229.448 227.852,-235.412 225.209,-230.724 229,-232 229,-232 229,-232 225.209,-230.724 230.148,-228.588 221.418,-229.448 221.418,-229.448"/>
<ellipse fill="none" stroke="black" cx="218.385" cy="-228.427" rx="3.20001" ry="3.20001"/>
</g>
<!-- providers&#45;&gt;zones -->
<g id="edge5" class="edge"><title>providers:zone_id:w&#45;&gt;zones:id:e</title>
<path fill="none" stroke="black" d="M214.605,-300.701C188.89,-311.502 188.893,-351 153.5,-351"/>
<polygon fill="black" stroke="black" points="221.137,-299.475 229.664,-301.538 225.069,-298.738 229,-298 229,-298 229,-298 225.069,-298.738 228.336,-294.462 221.137,-299.475 221.137,-299.475"/>
<ellipse fill="none" stroke="black" cx="217.992" cy="-300.066" rx="3.2" ry="3.2"/>
</g>
</g>
</svg>
