<?xml version="1.0" encoding="UTF-8" standalone="no"?>
<!DOCTYPE svg PUBLIC "-//W3C//DTD SVG 1.1//EN"
 "http://www.w3.org/Graphics/SVG/1.1/DTD/svg11.dtd">
<!-- Generated by graphviz version 2.38.0 (20140413.2041)
 -->
<!-- Title: oneDegreeRelationshipsDiagram Pages: 1 -->
<svg width="715pt" height="438pt"
 viewBox="0.00 0.00 715.00 438.00" xmlns="http://www.w3.org/2000/svg" xmlns:xlink="http://www.w3.org/1999/xlink">
<g id="graph0" class="graph" transform="scale(1 1) rotate(0) translate(4 434)">
<title>oneDegreeRelationshipsDiagram</title>
<polygon fill="#ffffff" stroke="none" points="-4,4 -4,-434 711,-434 711,4 -4,4"/>
<text text-anchor="middle" x="74.5" y="-7.2" font-family="Helvetica,sans-Serif" font-size="11.00">Generated by SchemaSpy</text>
<!-- pxe_images -->
<g id="node1" class="node"><title>pxe_images</title>
<g id="a_node1"><a xlink:href="../../tables/pxe_images.html" xlink:title="pxe_images" target="_top">
<polygon fill="#ffffff" stroke="none" points="555,-258 555,-426 699,-426 699,-258 555,-258"/>
<polygon fill="#f5f5f5" stroke="none" points="555,-404 555,-426 699,-426 699,-404 555,-404"/>
<polygon fill="none" stroke="black" points="555,-404 555,-426 699,-426 699,-404 555,-404"/>
<text text-anchor="start" x="560" y="-413.2" font-family="Helvetica,sans-Serif" font-weight="bold" font-size="11.00">pxe_images</text>
<text text-anchor="start" x="660" y="-412.2" font-family="Helvetica,sans-Serif" font-size="11.00">[table]</text>
<polygon fill="none" stroke="black" points="555,-382 555,-404 699,-404 699,-382 555,-382"/>
<image xlink:href="../../images/primaryKeys.png" width="11px" height="12px" preserveAspectRatio="xMinYMin meet" x="560" y="-399"/>
<text text-anchor="start" x="575" y="-390.2" font-family="Helvetica,sans-Serif" font-size="11.00">id</text>
<polygon fill="#ffffff" stroke="none" points="555,-360 555,-382 699,-382 699,-360 555,-360"/>
<polygon fill="none" stroke="black" points="555,-360 555,-382 699,-382 699,-360 555,-360"/>
<image xlink:href="../../images/foreignKeys.png" width="11px" height="12px" preserveAspectRatio="xMinYMin meet" x="560" y="-377"/>
<text text-anchor="start" x="575" y="-368.2" font-family="Helvetica,sans-Serif" font-size="11.00">pxe_server_id</text>
<polygon fill="none" stroke="black" points="555,-338 555,-360 699,-360 699,-338 555,-338"/>
<image xlink:href="../../images/foreignKeys.png" width="11px" height="12px" preserveAspectRatio="xMinYMin meet" x="560" y="-355"/>
<text text-anchor="start" x="575" y="-346.2" font-family="Helvetica,sans-Serif" font-size="11.00">pxe_menu_id</text>
<polygon fill="#ffffff" stroke="none" points="555,-316 555,-338 699,-338 699,-316 555,-316"/>
<polygon fill="none" stroke="black" points="555,-316 555,-338 699,-338 699,-316 555,-316"/>
<text text-anchor="start" x="575" y="-324.2" font-family="Helvetica,sans-Serif" font-size="11.00">type</text>
<polygon fill="none" stroke="black" points="555,-294 555,-316 699,-316 699,-294 555,-294"/>
<image xlink:href="../../images/foreignKeys.png" width="11px" height="12px" preserveAspectRatio="xMinYMin meet" x="560" y="-311"/>
<text text-anchor="start" x="575" y="-302.2" font-family="Helvetica,sans-Serif" font-size="11.00">pxe_image_type_id</text>
<polygon fill="none" stroke="black" points="555,-276 555,-294 699,-294 699,-276 555,-276"/>
<text text-anchor="start" x="558" y="-282.2" font-family="Helvetica,sans-Serif" font-size="11.00">...</text>
<polygon fill="#ffffff" stroke="none" points="555,-258 555,-276 625,-276 625,-258 555,-258"/>
<polygon fill="none" stroke="black" points="555,-258 555,-276 625,-276 625,-258 555,-258"/>
<text text-anchor="start" x="558" y="-264.2" font-family="Helvetica,sans-Serif" font-size="11.00">&lt; 3</text>
<polygon fill="#ffffff" stroke="none" points="625,-258 625,-276 662,-276 662,-258 625,-258"/>
<polygon fill="none" stroke="black" points="625,-258 625,-276 662,-276 662,-258 625,-258"/>
<text text-anchor="start" x="652" y="-264.2" font-family="Helvetica,sans-Serif" font-size="11.00"> &#160;</text>
<polygon fill="#ffffff" stroke="none" points="662,-258 662,-276 699,-276 699,-258 662,-258"/>
<polygon fill="none" stroke="black" points="662,-258 662,-276 699,-276 699,-258 662,-258"/>
<text text-anchor="start" x="689" y="-264.2" font-family="Helvetica,sans-Serif" font-size="11.00"> &#160;</text>
</a>
</g>
</g>
<!-- pxe_menus -->
<g id="node2" class="node"><title>pxe_menus</title>
<g id="a_node2"><a xlink:href="../../tables/pxe_menus.html" xlink:title="pxe_menus" target="_top">
<polygon fill="#ffffff" stroke="none" points="378.5,-241 378.5,-365 490.5,-365 490.5,-241 378.5,-241"/>
<polygon fill="#f5f5f5" stroke="none" points="378.5,-343 378.5,-365 490.5,-365 490.5,-343 378.5,-343"/>
<polygon fill="none" stroke="black" points="378.5,-343 378.5,-365 490.5,-365 490.5,-343 378.5,-343"/>
<text text-anchor="start" x="383.5" y="-352.2" font-family="Helvetica,sans-Serif" font-weight="bold" font-size="11.00">pxe_menus</text>
<text text-anchor="start" x="451.5" y="-351.2" font-family="Helvetica,sans-Serif" font-size="11.00">[table]</text>
<polygon fill="none" stroke="black" points="378.5,-321 378.5,-343 490.5,-343 490.5,-321 378.5,-321"/>
<image xlink:href="../../images/primaryKeys.png" width="11px" height="12px" preserveAspectRatio="xMinYMin meet" x="383.5" y="-338"/>
<text text-anchor="start" x="404.5" y="-329.2" font-family="Helvetica,sans-Serif" font-size="11.00">id</text>
<polygon fill="none" stroke="black" points="378.5,-299 378.5,-321 490.5,-321 490.5,-299 378.5,-299"/>
<image xlink:href="../../images/foreignKeys.png" width="11px" height="12px" preserveAspectRatio="xMinYMin meet" x="383.5" y="-316"/>
<text text-anchor="start" x="404.5" y="-307.2" font-family="Helvetica,sans-Serif" font-size="11.00">pxe_server_id</text>
<polygon fill="#ffffff" stroke="none" points="378.5,-277 378.5,-299 490.5,-299 490.5,-277 378.5,-277"/>
<polygon fill="none" stroke="black" points="378.5,-277 378.5,-299 490.5,-299 490.5,-277 378.5,-277"/>
<text text-anchor="start" x="404.5" y="-285.2" font-family="Helvetica,sans-Serif" font-size="11.00">type</text>
<polygon fill="none" stroke="black" points="378.5,-259 378.5,-277 490.5,-277 490.5,-259 378.5,-259"/>
<text text-anchor="start" x="381.5" y="-265.2" font-family="Helvetica,sans-Serif" font-size="11.00">...</text>
<polygon fill="#ffffff" stroke="none" points="378.5,-241 378.5,-259 427.5,-259 427.5,-241 378.5,-241"/>
<polygon fill="none" stroke="black" points="378.5,-241 378.5,-259 427.5,-259 427.5,-241 378.5,-241"/>
<text text-anchor="start" x="381.5" y="-247.2" font-family="Helvetica,sans-Serif" font-size="11.00">&lt; 1</text>
<polygon fill="#ffffff" stroke="none" points="427.5,-241 427.5,-259 453.5,-259 453.5,-241 427.5,-241"/>
<polygon fill="none" stroke="black" points="427.5,-241 427.5,-259 453.5,-259 453.5,-241 427.5,-241"/>
<text text-anchor="start" x="443.5" y="-247.2" font-family="Helvetica,sans-Serif" font-size="11.00"> &#160;</text>
<polygon fill="#ffffff" stroke="none" points="453.5,-241 453.5,-259 490.5,-259 490.5,-241 453.5,-241"/>
<polygon fill="none" stroke="black" points="453.5,-241 453.5,-259 490.5,-259 490.5,-241 453.5,-241"/>
<text text-anchor="start" x="470.5" y="-247.2" font-family="Helvetica,sans-Serif" font-size="11.00">1 &gt;</text>
</a>
</g>
</g>
<!-- pxe_images&#45;&gt;pxe_menus -->
<g id="edge1" class="edge"><title>pxe_images:pxe_menu_id:w&#45;&gt;pxe_menus:id:e</title>
<path fill="none" stroke="black" d="M539.508,-347.308C522.379,-343.008 514.665,-332 491.5,-332"/>
<polygon fill="black" stroke="black" points="546.054,-348.072 553.582,-352.576 550.027,-348.536 554,-349 554,-349 554,-349 550.027,-348.536 554.418,-345.424 546.054,-348.072 546.054,-348.072"/>
<ellipse fill="none" stroke="black" cx="542.876" cy="-347.701" rx="3.2" ry="3.2"/>
</g>
<!-- pxe_servers -->
<g id="node3" class="node"><title>pxe_servers</title>
<g id="a_node3"><a xlink:href="../../tables/pxe_servers.html" xlink:title="pxe_servers" target="_top">
<polygon fill="#ffffff" stroke="none" points="8,-37 8,-345 314,-345 314,-37 8,-37"/>
<polygon fill="#f5f5f5" stroke="none" points="10,-321 10,-343 312,-343 312,-321 10,-321"/>
<polygon fill="none" stroke="black" points="10,-321 10,-343 312,-343 312,-321 10,-321"/>
<text text-anchor="start" x="15" y="-330.2" font-family="Helvetica,sans-Serif" font-weight="bold" font-size="11.00">pxe_servers</text>
<text text-anchor="start" x="273" y="-329.2" font-family="Helvetica,sans-Serif" font-size="11.00">[table]</text>
<polygon fill="none" stroke="black" points="10,-299 10,-321 191,-321 191,-299 10,-299"/>
<image xlink:href="../../images/primaryKeys.png" width="11px" height="12px" preserveAspectRatio="xMinYMin meet" x="15" y="-316"/>
<text text-anchor="start" x="30" y="-307.2" font-family="Helvetica,sans-Serif" font-size="11.00">id</text>
<polygon fill="none" stroke="black" points="191,-299 191,-321 312,-321 312,-299 191,-299"/>
<text text-anchor="start" x="194" y="-307.2" font-family="Helvetica,sans-Serif" font-size="11.00">bigserial[19]</text>
<polygon fill="none" stroke="black" points="10,-277 10,-299 191,-299 191,-277 10,-277"/>
<text text-anchor="start" x="30" y="-285.2" font-family="Helvetica,sans-Serif" font-size="11.00">name</text>
<polygon fill="none" stroke="black" points="191,-277 191,-299 312,-299 312,-277 191,-277"/>
<text text-anchor="start" x="194" y="-285.2" font-family="Helvetica,sans-Serif" font-size="11.00">varchar[2147483647]</text>
<polygon fill="none" stroke="black" points="10,-255 10,-277 191,-277 191,-255 10,-255"/>
<text text-anchor="start" x="30" y="-263.2" font-family="Helvetica,sans-Serif" font-size="11.00">uri_prefix</text>
<polygon fill="none" stroke="black" points="191,-255 191,-277 312,-277 312,-255 191,-255"/>
<text text-anchor="start" x="194" y="-263.2" font-family="Helvetica,sans-Serif" font-size="11.00">varchar[2147483647]</text>
<polygon fill="none" stroke="black" points="10,-233 10,-255 191,-255 191,-233 10,-233"/>
<text text-anchor="start" x="30" y="-241.2" font-family="Helvetica,sans-Serif" font-size="11.00">uri</text>
<polygon fill="none" stroke="black" points="191,-233 191,-255 312,-255 312,-233 191,-233"/>
<text text-anchor="start" x="194" y="-241.2" font-family="Helvetica,sans-Serif" font-size="11.00">varchar[2147483647]</text>
<polygon fill="none" stroke="black" points="10,-211 10,-233 191,-233 191,-211 10,-211"/>
<text text-anchor="start" x="30" y="-219.2" font-family="Helvetica,sans-Serif" font-size="11.00">created_at</text>
<polygon fill="none" stroke="black" points="191,-211 191,-233 312,-233 312,-211 191,-211"/>
<text text-anchor="start" x="194" y="-219.2" font-family="Helvetica,sans-Serif" font-size="11.00">timestamp[29,6]</text>
<polygon fill="none" stroke="black" points="10,-189 10,-211 191,-211 191,-189 10,-189"/>
<text text-anchor="start" x="30" y="-197.2" font-family="Helvetica,sans-Serif" font-size="11.00">updated_at</text>
<polygon fill="none" stroke="black" points="191,-189 191,-211 312,-211 312,-189 191,-189"/>
<text text-anchor="start" x="194" y="-197.2" font-family="Helvetica,sans-Serif" font-size="11.00">timestamp[29,6]</text>
<polygon fill="none" stroke="black" points="10,-167 10,-189 191,-189 191,-167 10,-167"/>
<text text-anchor="start" x="30" y="-175.2" font-family="Helvetica,sans-Serif" font-size="11.00">last_refresh_on</text>
<polygon fill="none" stroke="black" points="191,-167 191,-189 312,-189 312,-167 191,-167"/>
<text text-anchor="start" x="194" y="-175.2" font-family="Helvetica,sans-Serif" font-size="11.00">timestamp[29,6]</text>
<polygon fill="none" stroke="black" points="10,-145 10,-167 191,-167 191,-145 10,-145"/>
<text text-anchor="start" x="30" y="-153.2" font-family="Helvetica,sans-Serif" font-size="11.00">visibility</text>
<polygon fill="none" stroke="black" points="191,-145 191,-167 312,-167 312,-145 191,-145"/>
<text text-anchor="start" x="194" y="-153.2" font-family="Helvetica,sans-Serif" font-size="11.00">text[2147483647]</text>
<polygon fill="none" stroke="black" points="10,-123 10,-145 191,-145 191,-123 10,-123"/>
<text text-anchor="start" x="30" y="-131.2" font-family="Helvetica,sans-Serif" font-size="11.00">access_url</text>
<polygon fill="none" stroke="black" points="191,-123 191,-145 312,-145 312,-123 191,-123"/>
<text text-anchor="start" x="194" y="-131.2" font-family="Helvetica,sans-Serif" font-size="11.00">varchar[2147483647]</text>
<polygon fill="none" stroke="black" points="10,-101 10,-123 191,-123 191,-101 10,-101"/>
<text text-anchor="start" x="30" y="-109.2" font-family="Helvetica,sans-Serif" font-size="11.00">pxe_directory</text>
<polygon fill="none" stroke="black" points="191,-101 191,-123 312,-123 312,-101 191,-101"/>
<text text-anchor="start" x="194" y="-109.2" font-family="Helvetica,sans-Serif" font-size="11.00">varchar[2147483647]</text>
<polygon fill="none" stroke="black" points="10,-79 10,-101 191,-101 191,-79 10,-79"/>
<text text-anchor="start" x="30" y="-87.2" font-family="Helvetica,sans-Serif" font-size="11.00">customization_directory</text>
<polygon fill="none" stroke="black" points="191,-79 191,-101 312,-101 312,-79 191,-79"/>
<text text-anchor="start" x="194" y="-87.2" font-family="Helvetica,sans-Serif" font-size="11.00">varchar[2147483647]</text>
<polygon fill="none" stroke="black" points="10,-57 10,-79 191,-79 191,-57 10,-57"/>
<text text-anchor="start" x="30" y="-65.2" font-family="Helvetica,sans-Serif" font-size="11.00">windows_images_directory</text>
<polygon fill="none" stroke="black" points="191,-57 191,-79 312,-79 312,-57 191,-57"/>
<text text-anchor="start" x="194" y="-65.2" font-family="Helvetica,sans-Serif" font-size="11.00">varchar[2147483647]</text>
<polygon fill="#ffffff" stroke="none" points="10,-39 10,-57 105,-57 105,-39 10,-39"/>
<polygon fill="none" stroke="black" points="10,-39 10,-57 105,-57 105,-39 10,-39"/>
<text text-anchor="start" x="13" y="-45.2" font-family="Helvetica,sans-Serif" font-size="11.00">&lt; 0</text>
<polygon fill="#ffffff" stroke="none" points="105,-39 105,-57 191,-57 191,-39 105,-39"/>
<polygon fill="none" stroke="black" points="105,-39 105,-57 191,-57 191,-39 105,-39"/>
<text text-anchor="start" x="181" y="-45.2" font-family="Helvetica,sans-Serif" font-size="11.00"> &#160;</text>
<polygon fill="#ffffff" stroke="none" points="191,-39 191,-57 312,-57 312,-39 191,-39"/>
<polygon fill="none" stroke="black" points="191,-39 191,-57 312,-57 312,-39 191,-39"/>
<text text-anchor="start" x="292" y="-45.2" font-family="Helvetica,sans-Serif" font-size="11.00">3 &gt;</text>
<polygon fill="none" stroke="black" stroke-width="2" points="9,-38 9,-344 313,-344 313,-38 9,-38"/>
</a>
</g>
</g>
<!-- pxe_images&#45;&gt;pxe_servers -->
<g id="edge2" class="edge"><title>pxe_images:pxe_server_id:w&#45;&gt;pxe_servers:id.type:e</title>
<path fill="none" stroke="black" d="M539.548,-372.063C531.717,-373.298 525.874,-375.261 514,-376 443.47,-380.391 416.947,-410.005 355,-376 324.521,-359.269 347.769,-310 313,-310"/>
<polygon fill="black" stroke="black" points="546.022,-371.587 554.264,-374.59 550.011,-371.294 554,-371 554,-371 554,-371 550.011,-371.294 553.736,-367.41 546.022,-371.587 546.022,-371.587"/>
<ellipse fill="none" stroke="black" cx="542.83" cy="-371.822" rx="3.2" ry="3.2"/>
</g>
<!-- pxe_menus&#45;&gt;pxe_servers -->
<g id="edge3" class="edge"><title>pxe_menus:pxe_server_id:w&#45;&gt;pxe_servers:id.type:e</title>
<path fill="none" stroke="black" d="M362.843,-310C345.214,-310 336.068,-310 313,-310"/>
<polygon fill="black" stroke="black" points="369.5,-310 377.5,-313.6 373.5,-310 377.5,-310 377.5,-310 377.5,-310 373.5,-310 377.5,-306.4 369.5,-310 369.5,-310"/>
<ellipse fill="none" stroke="black" cx="366.3" cy="-310" rx="3.2" ry="3.2"/>
</g>
<!-- windows_images -->
<g id="node4" class="node"><title>windows_images</title>
<g id="a_node4"><a xlink:href="../../tables/windows_images.html" xlink:title="windows_images" target="_top">
<polygon fill="#ffffff" stroke="none" points="363,-96 363,-220 506,-220 506,-96 363,-96"/>
<polygon fill="#f5f5f5" stroke="none" points="363.5,-198 363.5,-220 506.5,-220 506.5,-198 363.5,-198"/>
<polygon fill="none" stroke="black" points="363.5,-198 363.5,-220 506.5,-220 506.5,-198 363.5,-198"/>
<text text-anchor="start" x="368.5" y="-207.2" font-family="Helvetica,sans-Serif" font-weight="bold" font-size="11.00">windows_images</text>
<text text-anchor="start" x="467.5" y="-206.2" font-family="Helvetica,sans-Serif" font-size="11.00">[table]</text>
<polygon fill="none" stroke="black" points="363.5,-176 363.5,-198 506.5,-198 506.5,-176 363.5,-176"/>
<image xlink:href="../../images/primaryKeys.png" width="11px" height="12px" preserveAspectRatio="xMinYMin meet" x="368.5" y="-193"/>
<text text-anchor="start" x="389.5" y="-184.2" font-family="Helvetica,sans-Serif" font-size="11.00">id</text>
<polygon fill="none" stroke="black" points="363.5,-154 363.5,-176 506.5,-176 506.5,-154 363.5,-154"/>
<image xlink:href="../../images/foreignKeys.png" width="11px" height="12px" preserveAspectRatio="xMinYMin meet" x="368.5" y="-171"/>
<text text-anchor="start" x="389.5" y="-162.2" font-family="Helvetica,sans-Serif" font-size="11.00">pxe_server_id</text>
<polygon fill="none" stroke="black" points="363.5,-132 363.5,-154 506.5,-154 506.5,-132 363.5,-132"/>
<image xlink:href="../../images/foreignKeys.png" width="11px" height="12px" preserveAspectRatio="xMinYMin meet" x="368.5" y="-149"/>
<text text-anchor="start" x="389.5" y="-140.2" font-family="Helvetica,sans-Serif" font-size="11.00">pxe_image_type_id</text>
<polygon fill="none" stroke="black" points="363.5,-114 363.5,-132 506.5,-132 506.5,-114 363.5,-114"/>
<text text-anchor="start" x="366.5" y="-120.2" font-family="Helvetica,sans-Serif" font-size="11.00">...</text>
<polygon fill="#ffffff" stroke="none" points="363.5,-96 363.5,-114 433.5,-114 433.5,-96 363.5,-96"/>
<polygon fill="none" stroke="black" points="363.5,-96 363.5,-114 433.5,-114 433.5,-96 363.5,-96"/>
<text text-anchor="start" x="366.5" y="-102.2" font-family="Helvetica,sans-Serif" font-size="11.00">&lt; 2</text>
<polygon fill="#ffffff" stroke="none" points="433.5,-96 433.5,-114 469.5,-114 469.5,-96 433.5,-96"/>
<polygon fill="none" stroke="black" points="433.5,-96 433.5,-114 469.5,-114 469.5,-96 433.5,-96"/>
<text text-anchor="start" x="459.5" y="-102.2" font-family="Helvetica,sans-Serif" font-size="11.00"> &#160;</text>
<polygon fill="#ffffff" stroke="none" points="469.5,-96 469.5,-114 506.5,-114 506.5,-96 469.5,-96"/>
<polygon fill="none" stroke="black" points="469.5,-96 469.5,-114 506.5,-114 506.5,-96 469.5,-96"/>
<text text-anchor="start" x="496.5" y="-102.2" font-family="Helvetica,sans-Serif" font-size="11.00"> &#160;</text>
</a>
</g>
</g>
<!-- windows_images&#45;&gt;pxe_servers -->
<g id="edge4" class="edge"><title>windows_images:pxe_server_id:w&#45;&gt;pxe_servers:id.type:e</title>
<path fill="none" stroke="black" d="M348.177,-168.029C308.161,-188.851 375.244,-310 313,-310"/>
<polygon fill="black" stroke="black" points="354.673,-166.655 363.245,-168.522 358.587,-165.828 362.5,-165 362.5,-165 362.5,-165 358.587,-165.828 361.755,-161.478 354.673,-166.655 354.673,-166.655"/>
<ellipse fill="none" stroke="black" cx="351.542" cy="-167.317" rx="3.2" ry="3.2"/>
</g>
</g>
</svg>
