<?xml version="1.0" encoding="UTF-8" standalone="no"?>
<!DOCTYPE svg PUBLIC "-//W3C//DTD SVG 1.1//EN"
 "http://www.w3.org/Graphics/SVG/1.1/DTD/svg11.dtd">
<!-- Generated by graphviz version 2.38.0 (20140413.2041)
 -->
<!-- Title: oneDegreeRelationshipsDiagram Pages: 1 -->
<svg width="717pt" height="401pt"
 viewBox="0.00 0.00 717.00 401.00" xmlns="http://www.w3.org/2000/svg" xmlns:xlink="http://www.w3.org/1999/xlink">
<g id="graph0" class="graph" transform="scale(1 1) rotate(0) translate(4 397)">
<title>oneDegreeRelationshipsDiagram</title>
<polygon fill="#ffffff" stroke="none" points="-4,4 -4,-397 713,-397 713,4 -4,4"/>
<text text-anchor="middle" x="74.5" y="-7.2" font-family="Helvetica,sans-Serif" font-size="11.00">Generated by SchemaSpy</text>
<!-- pxe_images -->
<g id="node1" class="node"><title>pxe_images</title>
<g id="a_node1"><a xlink:href="../../tables/pxe_images.html" xlink:title="pxe_images" target="_top">
<polygon fill="#ffffff" stroke="none" points="432,-37 432,-389 701,-389 701,-37 432,-37"/>
<polygon fill="#f5f5f5" stroke="none" points="434.5,-365 434.5,-387 699.5,-387 699.5,-365 434.5,-365"/>
<polygon fill="none" stroke="black" points="434.5,-365 434.5,-387 699.5,-387 699.5,-365 434.5,-365"/>
<text text-anchor="start" x="439.5" y="-374.2" font-family="Helvetica,sans-Serif" font-weight="bold" font-size="11.00">pxe_images</text>
<text text-anchor="start" x="660.5" y="-373.2" font-family="Helvetica,sans-Serif" font-size="11.00">[table]</text>
<polygon fill="none" stroke="black" points="434.5,-343 434.5,-365 578.5,-365 578.5,-343 434.5,-343"/>
<image xlink:href="../../images/primaryKeys.png" width="11px" height="12px" preserveAspectRatio="xMinYMin meet" x="439.5" y="-360"/>
<text text-anchor="start" x="454.5" y="-351.2" font-family="Helvetica,sans-Serif" font-size="11.00">id</text>
<polygon fill="none" stroke="black" points="578.5,-343 578.5,-365 699.5,-365 699.5,-343 578.5,-343"/>
<text text-anchor="start" x="581.5" y="-351.2" font-family="Helvetica,sans-Serif" font-size="11.00">bigserial[19]</text>
<polygon fill="none" stroke="black" points="434.5,-321 434.5,-343 578.5,-343 578.5,-321 434.5,-321"/>
<text text-anchor="start" x="454.5" y="-329.2" font-family="Helvetica,sans-Serif" font-size="11.00">name</text>
<polygon fill="none" stroke="black" points="578.5,-321 578.5,-343 699.5,-343 699.5,-321 578.5,-321"/>
<text text-anchor="start" x="581.5" y="-329.2" font-family="Helvetica,sans-Serif" font-size="11.00">varchar[2147483647]</text>
<polygon fill="none" stroke="black" points="434.5,-299 434.5,-321 578.5,-321 578.5,-299 434.5,-299"/>
<text text-anchor="start" x="454.5" y="-307.2" font-family="Helvetica,sans-Serif" font-size="11.00">description</text>
<polygon fill="none" stroke="black" points="578.5,-299 578.5,-321 699.5,-321 699.5,-299 578.5,-299"/>
<text text-anchor="start" x="581.5" y="-307.2" font-family="Helvetica,sans-Serif" font-size="11.00">varchar[2147483647]</text>
<polygon fill="#ffffff" stroke="none" points="434.5,-277 434.5,-299 578.5,-299 578.5,-277 434.5,-277"/>
<polygon fill="none" stroke="black" points="434.5,-277 434.5,-299 578.5,-299 578.5,-277 434.5,-277"/>
<image xlink:href="../../images/foreignKeys.png" width="11px" height="12px" preserveAspectRatio="xMinYMin meet" x="439.5" y="-294"/>
<text text-anchor="start" x="454.5" y="-285.2" font-family="Helvetica,sans-Serif" font-size="11.00">pxe_server_id</text>
<polygon fill="none" stroke="black" points="578.5,-277 578.5,-299 699.5,-299 699.5,-277 578.5,-277"/>
<text text-anchor="start" x="581.5" y="-285.2" font-family="Helvetica,sans-Serif" font-size="11.00">int8[19]</text>
<polygon fill="none" stroke="black" points="434.5,-255 434.5,-277 578.5,-277 578.5,-255 434.5,-255"/>
<text text-anchor="start" x="454.5" y="-263.2" font-family="Helvetica,sans-Serif" font-size="11.00">created_at</text>
<polygon fill="none" stroke="black" points="578.5,-255 578.5,-277 699.5,-277 699.5,-255 578.5,-255"/>
<text text-anchor="start" x="581.5" y="-263.2" font-family="Helvetica,sans-Serif" font-size="11.00">timestamp[29,6]</text>
<polygon fill="none" stroke="black" points="434.5,-233 434.5,-255 578.5,-255 578.5,-233 434.5,-233"/>
<text text-anchor="start" x="454.5" y="-241.2" font-family="Helvetica,sans-Serif" font-size="11.00">updated_at</text>
<polygon fill="none" stroke="black" points="578.5,-233 578.5,-255 699.5,-255 699.5,-233 578.5,-233"/>
<text text-anchor="start" x="581.5" y="-241.2" font-family="Helvetica,sans-Serif" font-size="11.00">timestamp[29,6]</text>
<polygon fill="none" stroke="black" points="434.5,-211 434.5,-233 578.5,-233 578.5,-211 434.5,-211"/>
<image xlink:href="../../images/foreignKeys.png" width="11px" height="12px" preserveAspectRatio="xMinYMin meet" x="439.5" y="-228"/>
<text text-anchor="start" x="454.5" y="-219.2" font-family="Helvetica,sans-Serif" font-size="11.00">pxe_menu_id</text>
<polygon fill="none" stroke="black" points="578.5,-211 578.5,-233 699.5,-233 699.5,-211 578.5,-211"/>
<text text-anchor="start" x="581.5" y="-219.2" font-family="Helvetica,sans-Serif" font-size="11.00">int8[19]</text>
<polygon fill="#ffffff" stroke="none" points="434.5,-189 434.5,-211 578.5,-211 578.5,-189 434.5,-189"/>
<polygon fill="none" stroke="black" points="434.5,-189 434.5,-211 578.5,-211 578.5,-189 434.5,-189"/>
<text text-anchor="start" x="454.5" y="-197.2" font-family="Helvetica,sans-Serif" font-size="11.00">type</text>
<polygon fill="none" stroke="black" points="578.5,-189 578.5,-211 699.5,-211 699.5,-189 578.5,-189"/>
<text text-anchor="start" x="581.5" y="-197.2" font-family="Helvetica,sans-Serif" font-size="11.00">varchar[2147483647]</text>
<polygon fill="none" stroke="black" points="434.5,-167 434.5,-189 578.5,-189 578.5,-167 434.5,-167"/>
<image xlink:href="../../images/foreignKeys.png" width="11px" height="12px" preserveAspectRatio="xMinYMin meet" x="439.5" y="-184"/>
<text text-anchor="start" x="454.5" y="-175.2" font-family="Helvetica,sans-Serif" font-size="11.00">pxe_image_type_id</text>
<polygon fill="none" stroke="black" points="578.5,-167 578.5,-189 699.5,-189 699.5,-167 578.5,-167"/>
<text text-anchor="start" x="581.5" y="-175.2" font-family="Helvetica,sans-Serif" font-size="11.00">int8[19]</text>
<polygon fill="none" stroke="black" points="434.5,-145 434.5,-167 578.5,-167 578.5,-145 434.5,-145"/>
<text text-anchor="start" x="454.5" y="-153.2" font-family="Helvetica,sans-Serif" font-size="11.00">kernel</text>
<polygon fill="none" stroke="black" points="578.5,-145 578.5,-167 699.5,-167 699.5,-145 578.5,-145"/>
<text text-anchor="start" x="581.5" y="-153.2" font-family="Helvetica,sans-Serif" font-size="11.00">varchar[2147483647]</text>
<polygon fill="none" stroke="black" points="434.5,-123 434.5,-145 578.5,-145 578.5,-123 434.5,-123"/>
<text text-anchor="start" x="454.5" y="-131.2" font-family="Helvetica,sans-Serif" font-size="11.00">kernel_options</text>
<polygon fill="none" stroke="black" points="578.5,-123 578.5,-145 699.5,-145 699.5,-123 578.5,-123"/>
<text text-anchor="start" x="581.5" y="-131.2" font-family="Helvetica,sans-Serif" font-size="11.00">varchar[2147483647]</text>
<polygon fill="none" stroke="black" points="434.5,-101 434.5,-123 578.5,-123 578.5,-101 434.5,-101"/>
<text text-anchor="start" x="454.5" y="-109.2" font-family="Helvetica,sans-Serif" font-size="11.00">initrd</text>
<polygon fill="none" stroke="black" points="578.5,-101 578.5,-123 699.5,-123 699.5,-101 578.5,-101"/>
<text text-anchor="start" x="581.5" y="-109.2" font-family="Helvetica,sans-Serif" font-size="11.00">varchar[2147483647]</text>
<polygon fill="none" stroke="black" points="434.5,-79 434.5,-101 578.5,-101 578.5,-79 434.5,-79"/>
<text text-anchor="start" x="454.5" y="-87.2" font-family="Helvetica,sans-Serif" font-size="11.00">default_for_windows</text>
<polygon fill="none" stroke="black" points="578.5,-79 578.5,-101 699.5,-101 699.5,-79 578.5,-79"/>
<text text-anchor="start" x="581.5" y="-87.2" font-family="Helvetica,sans-Serif" font-size="11.00">bool[1]</text>
<polygon fill="none" stroke="black" points="434.5,-57 434.5,-79 578.5,-79 578.5,-57 434.5,-57"/>
<text text-anchor="start" x="454.5" y="-65.2" font-family="Helvetica,sans-Serif" font-size="11.00">path</text>
<polygon fill="none" stroke="black" points="578.5,-57 578.5,-79 699.5,-79 699.5,-57 578.5,-57"/>
<text text-anchor="start" x="581.5" y="-65.2" font-family="Helvetica,sans-Serif" font-size="11.00">varchar[2147483647]</text>
<polygon fill="#ffffff" stroke="none" points="434.5,-39 434.5,-57 511.5,-57 511.5,-39 434.5,-39"/>
<polygon fill="none" stroke="black" points="434.5,-39 434.5,-57 511.5,-57 511.5,-39 434.5,-39"/>
<text text-anchor="start" x="437.5" y="-45.2" font-family="Helvetica,sans-Serif" font-size="11.00">&lt; 3</text>
<polygon fill="#ffffff" stroke="none" points="511.5,-39 511.5,-57 578.5,-57 578.5,-39 511.5,-39"/>
<polygon fill="none" stroke="black" points="511.5,-39 511.5,-57 578.5,-57 578.5,-39 511.5,-39"/>
<text text-anchor="start" x="568.5" y="-45.2" font-family="Helvetica,sans-Serif" font-size="11.00"> &#160;</text>
<polygon fill="#ffffff" stroke="none" points="578.5,-39 578.5,-57 699.5,-57 699.5,-39 578.5,-39"/>
<polygon fill="none" stroke="black" points="578.5,-39 578.5,-57 699.5,-57 699.5,-39 578.5,-39"/>
<text text-anchor="start" x="679.5" y="-45.2" font-family="Helvetica,sans-Serif" font-size="11.00">0 &gt;</text>
<polygon fill="none" stroke="black" stroke-width="2" points="433,-38 433,-388 700,-388 700,-38 433,-38"/>
</a>
</g>
</g>
<!-- pxe_image_types -->
<g id="node2" class="node"><title>pxe_image_types</title>
<g id="a_node2"><a xlink:href="../../tables/pxe_image_types.html" xlink:title="pxe_image_types" target="_top">
<polygon fill="#ffffff" stroke="none" points="238,-39 238,-119 383,-119 383,-39 238,-39"/>
<polygon fill="#f5f5f5" stroke="none" points="238.5,-97 238.5,-119 383.5,-119 383.5,-97 238.5,-97"/>
<polygon fill="none" stroke="black" points="238.5,-97 238.5,-119 383.5,-119 383.5,-97 238.5,-97"/>
<text text-anchor="start" x="243.5" y="-106.2" font-family="Helvetica,sans-Serif" font-weight="bold" font-size="11.00">pxe_image_types</text>
<text text-anchor="start" x="344.5" y="-105.2" font-family="Helvetica,sans-Serif" font-size="11.00">[table]</text>
<polygon fill="none" stroke="black" points="238.5,-75 238.5,-97 383.5,-97 383.5,-75 238.5,-75"/>
<image xlink:href="../../images/primaryKeys.png" width="11px" height="12px" preserveAspectRatio="xMinYMin meet" x="243.5" y="-92"/>
<text text-anchor="start" x="270.5" y="-83.2" font-family="Helvetica,sans-Serif" font-size="11.00">id</text>
<polygon fill="none" stroke="black" points="238.5,-57 238.5,-75 383.5,-75 383.5,-57 238.5,-57"/>
<text text-anchor="start" x="241.5" y="-63.2" font-family="Helvetica,sans-Serif" font-size="11.00">...</text>
<polygon fill="#ffffff" stroke="none" points="238.5,-39 238.5,-57 299.5,-57 299.5,-39 238.5,-39"/>
<polygon fill="none" stroke="black" points="238.5,-39 238.5,-57 299.5,-57 299.5,-39 238.5,-39"/>
<text text-anchor="start" x="241.5" y="-45.2" font-family="Helvetica,sans-Serif" font-size="11.00"> &#160;</text>
<polygon fill="#ffffff" stroke="none" points="299.5,-39 299.5,-57 336.5,-57 336.5,-39 299.5,-39"/>
<polygon fill="none" stroke="black" points="299.5,-39 299.5,-57 336.5,-57 336.5,-39 299.5,-39"/>
<text text-anchor="start" x="326.5" y="-45.2" font-family="Helvetica,sans-Serif" font-size="11.00"> &#160;</text>
<polygon fill="#ffffff" stroke="none" points="336.5,-39 336.5,-57 383.5,-57 383.5,-39 336.5,-39"/>
<polygon fill="none" stroke="black" points="336.5,-39 336.5,-57 383.5,-57 383.5,-39 336.5,-39"/>
<text text-anchor="start" x="363.5" y="-45.2" font-family="Helvetica,sans-Serif" font-size="11.00">4 &gt;</text>
</a>
</g>
</g>
<!-- pxe_images&#45;&gt;pxe_image_types -->
<g id="edge1" class="edge"><title>pxe_images:pxe_image_type_id:w&#45;&gt;pxe_image_types:id:e</title>
<path fill="none" stroke="black" d="M419.685,-173.808C396.932,-155.81 424.855,-86 384.5,-86"/>
<polygon fill="black" stroke="black" points="425.845,-175.677 432.455,-181.445 429.672,-176.839 433.5,-178 433.5,-178 433.5,-178 429.672,-176.839 434.545,-174.555 425.845,-175.677 425.845,-175.677"/>
<ellipse fill="none" stroke="black" cx="422.783" cy="-174.748" rx="3.20001" ry="3.20001"/>
</g>
<!-- pxe_menus -->
<g id="node3" class="node"><title>pxe_menus</title>
<g id="a_node3"><a xlink:href="../../tables/pxe_menus.html" xlink:title="pxe_menus" target="_top">
<polygon fill="#ffffff" stroke="none" points="254.5,-140 254.5,-264 366.5,-264 366.5,-140 254.5,-140"/>
<polygon fill="#f5f5f5" stroke="none" points="254.5,-242 254.5,-264 366.5,-264 366.5,-242 254.5,-242"/>
<polygon fill="none" stroke="black" points="254.5,-242 254.5,-264 366.5,-264 366.5,-242 254.5,-242"/>
<text text-anchor="start" x="259.5" y="-251.2" font-family="Helvetica,sans-Serif" font-weight="bold" font-size="11.00">pxe_menus</text>
<text text-anchor="start" x="327.5" y="-250.2" font-family="Helvetica,sans-Serif" font-size="11.00">[table]</text>
<polygon fill="none" stroke="black" points="254.5,-220 254.5,-242 366.5,-242 366.5,-220 254.5,-220"/>
<image xlink:href="../../images/primaryKeys.png" width="11px" height="12px" preserveAspectRatio="xMinYMin meet" x="259.5" y="-237"/>
<text text-anchor="start" x="280.5" y="-228.2" font-family="Helvetica,sans-Serif" font-size="11.00">id</text>
<polygon fill="none" stroke="black" points="254.5,-198 254.5,-220 366.5,-220 366.5,-198 254.5,-198"/>
<image xlink:href="../../images/foreignKeys.png" width="11px" height="12px" preserveAspectRatio="xMinYMin meet" x="259.5" y="-215"/>
<text text-anchor="start" x="280.5" y="-206.2" font-family="Helvetica,sans-Serif" font-size="11.00">pxe_server_id</text>
<polygon fill="#ffffff" stroke="none" points="254.5,-176 254.5,-198 366.5,-198 366.5,-176 254.5,-176"/>
<polygon fill="none" stroke="black" points="254.5,-176 254.5,-198 366.5,-198 366.5,-176 254.5,-176"/>
<text text-anchor="start" x="280.5" y="-184.2" font-family="Helvetica,sans-Serif" font-size="11.00">type</text>
<polygon fill="none" stroke="black" points="254.5,-158 254.5,-176 366.5,-176 366.5,-158 254.5,-158"/>
<text text-anchor="start" x="257.5" y="-164.2" font-family="Helvetica,sans-Serif" font-size="11.00">...</text>
<polygon fill="#ffffff" stroke="none" points="254.5,-140 254.5,-158 303.5,-158 303.5,-140 254.5,-140"/>
<polygon fill="none" stroke="black" points="254.5,-140 254.5,-158 303.5,-158 303.5,-140 254.5,-140"/>
<text text-anchor="start" x="257.5" y="-146.2" font-family="Helvetica,sans-Serif" font-size="11.00">&lt; 1</text>
<polygon fill="#ffffff" stroke="none" points="303.5,-140 303.5,-158 329.5,-158 329.5,-140 303.5,-140"/>
<polygon fill="none" stroke="black" points="303.5,-140 303.5,-158 329.5,-158 329.5,-140 303.5,-140"/>
<text text-anchor="start" x="319.5" y="-146.2" font-family="Helvetica,sans-Serif" font-size="11.00"> &#160;</text>
<polygon fill="#ffffff" stroke="none" points="329.5,-140 329.5,-158 366.5,-158 366.5,-140 329.5,-140"/>
<polygon fill="none" stroke="black" points="329.5,-140 329.5,-158 366.5,-158 366.5,-140 329.5,-140"/>
<text text-anchor="start" x="346.5" y="-146.2" font-family="Helvetica,sans-Serif" font-size="11.00">1 &gt;</text>
</a>
</g>
</g>
<!-- pxe_images&#45;&gt;pxe_menus -->
<g id="edge2" class="edge"><title>pxe_images:pxe_menu_id:w&#45;&gt;pxe_menus:id:e</title>
<path fill="none" stroke="black" d="M418.953,-222.831C400.547,-225.059 391.554,-231 367.5,-231"/>
<polygon fill="black" stroke="black" points="425.513,-222.456 433.705,-225.594 429.507,-222.228 433.5,-222 433.5,-222 433.5,-222 429.507,-222.228 433.295,-218.406 425.513,-222.456 425.513,-222.456"/>
<ellipse fill="none" stroke="black" cx="422.318" cy="-222.638" rx="3.2" ry="3.2"/>
</g>
<!-- pxe_servers -->
<g id="node4" class="node"><title>pxe_servers</title>
<g id="a_node4"><a xlink:href="../../tables/pxe_servers.html" xlink:title="pxe_servers" target="_top">
<polygon fill="#ffffff" stroke="none" points="8,-201 8,-281 189,-281 189,-201 8,-201"/>
<polygon fill="#f5f5f5" stroke="none" points="8.5,-259 8.5,-281 189.5,-281 189.5,-259 8.5,-259"/>
<polygon fill="none" stroke="black" points="8.5,-259 8.5,-281 189.5,-281 189.5,-259 8.5,-259"/>
<text text-anchor="start" x="13.5" y="-268.2" font-family="Helvetica,sans-Serif" font-weight="bold" font-size="11.00">pxe_servers</text>
<text text-anchor="start" x="150.5" y="-267.2" font-family="Helvetica,sans-Serif" font-size="11.00">[table]</text>
<polygon fill="none" stroke="black" points="8.5,-237 8.5,-259 189.5,-259 189.5,-237 8.5,-237"/>
<image xlink:href="../../images/primaryKeys.png" width="11px" height="12px" preserveAspectRatio="xMinYMin meet" x="13.5" y="-254"/>
<text text-anchor="start" x="28.5" y="-245.2" font-family="Helvetica,sans-Serif" font-size="11.00">id</text>
<polygon fill="none" stroke="black" points="8.5,-219 8.5,-237 189.5,-237 189.5,-219 8.5,-219"/>
<text text-anchor="start" x="11.5" y="-225.2" font-family="Helvetica,sans-Serif" font-size="11.00">...</text>
<polygon fill="#ffffff" stroke="none" points="8.5,-201 8.5,-219 87.5,-219 87.5,-201 8.5,-201"/>
<polygon fill="none" stroke="black" points="8.5,-201 8.5,-219 87.5,-219 87.5,-201 8.5,-201"/>
<text text-anchor="start" x="11.5" y="-207.2" font-family="Helvetica,sans-Serif" font-size="11.00"> &#160;</text>
<polygon fill="#ffffff" stroke="none" points="87.5,-201 87.5,-219 133.5,-219 133.5,-201 87.5,-201"/>
<polygon fill="none" stroke="black" points="87.5,-201 87.5,-219 133.5,-219 133.5,-201 87.5,-201"/>
<text text-anchor="start" x="123.5" y="-207.2" font-family="Helvetica,sans-Serif" font-size="11.00"> &#160;</text>
<polygon fill="#ffffff" stroke="none" points="133.5,-201 133.5,-219 189.5,-219 189.5,-201 133.5,-201"/>
<polygon fill="none" stroke="black" points="133.5,-201 133.5,-219 189.5,-219 189.5,-201 133.5,-201"/>
<text text-anchor="start" x="169.5" y="-207.2" font-family="Helvetica,sans-Serif" font-size="11.00">3 &gt;</text>
</a>
</g>
</g>
<!-- pxe_images&#45;&gt;pxe_servers -->
<g id="edge3" class="edge"><title>pxe_images:pxe_server_id:w&#45;&gt;pxe_servers:id:e</title>
<path fill="none" stroke="black" d="M418.689,-288.148C339.604,-289.723 310.835,-302.841 230,-275 209.894,-268.075 211.765,-248 190.5,-248"/>
<polygon fill="black" stroke="black" points="425.5,-288.08 433.536,-291.6 429.5,-288.04 433.5,-288 433.5,-288 433.5,-288 429.5,-288.04 433.464,-284.4 425.5,-288.08 425.5,-288.08"/>
<ellipse fill="none" stroke="black" cx="422.301" cy="-288.112" rx="3.2" ry="3.2"/>
</g>
<!-- pxe_menus&#45;&gt;pxe_servers -->
<g id="edge4" class="edge"><title>pxe_menus:pxe_server_id:w&#45;&gt;pxe_servers:id:e</title>
<path fill="none" stroke="black" d="M239.329,-212.06C220.495,-221.254 217.771,-248 190.5,-248"/>
<polygon fill="black" stroke="black" points="245.68,-210.689 254.26,-212.519 249.59,-209.844 253.5,-209 253.5,-209 253.5,-209 249.59,-209.844 252.74,-205.481 245.68,-210.689 245.68,-210.689"/>
<ellipse fill="none" stroke="black" cx="242.552" cy="-211.364" rx="3.2" ry="3.2"/>
</g>
</g>
</svg>
