<?xml version="1.0" encoding="UTF-8" standalone="no"?>
<!DOCTYPE svg PUBLIC "-//W3C//DTD SVG 1.1//EN"
 "http://www.w3.org/Graphics/SVG/1.1/DTD/svg11.dtd">
<!-- Generated by graphviz version 2.38.0 (20140413.2041)
 -->
<!-- Title: oneDegreeRelationshipsDiagram Pages: 1 -->
<svg width="673pt" height="307pt"
 viewBox="0.00 0.00 673.00 307.00" xmlns="http://www.w3.org/2000/svg" xmlns:xlink="http://www.w3.org/1999/xlink">
<g id="graph0" class="graph" transform="scale(1 1) rotate(0) translate(4 303)">
<title>oneDegreeRelationshipsDiagram</title>
<polygon fill="#ffffff" stroke="none" points="-4,4 -4,-303 669,-303 669,4 -4,4"/>
<text text-anchor="middle" x="74.5" y="-7.2" font-family="Helvetica,sans-Serif" font-size="11.00">Generated by SchemaSpy</text>
<!-- pxe_images -->
<g id="node1" class="node"><title>pxe_images</title>
<g id="a_node1"><a xlink:href="../../tables/pxe_images.html" xlink:title="pxe_images" target="_top">
<polygon fill="#ffffff" stroke="none" points="513,-127 513,-295 657,-295 657,-127 513,-127"/>
<polygon fill="#f5f5f5" stroke="none" points="513,-273 513,-295 657,-295 657,-273 513,-273"/>
<polygon fill="none" stroke="black" points="513,-273 513,-295 657,-295 657,-273 513,-273"/>
<text text-anchor="start" x="518" y="-282.2" font-family="Helvetica,sans-Serif" font-weight="bold" font-size="11.00">pxe_images</text>
<text text-anchor="start" x="618" y="-281.2" font-family="Helvetica,sans-Serif" font-size="11.00">[table]</text>
<polygon fill="none" stroke="black" points="513,-251 513,-273 657,-273 657,-251 513,-251"/>
<image xlink:href="../../images/primaryKeys.png" width="11px" height="12px" preserveAspectRatio="xMinYMin meet" x="518" y="-268"/>
<text text-anchor="start" x="533" y="-259.2" font-family="Helvetica,sans-Serif" font-size="11.00">id</text>
<polygon fill="#ffffff" stroke="none" points="513,-229 513,-251 657,-251 657,-229 513,-229"/>
<polygon fill="none" stroke="black" points="513,-229 513,-251 657,-251 657,-229 513,-229"/>
<image xlink:href="../../images/foreignKeys.png" width="11px" height="12px" preserveAspectRatio="xMinYMin meet" x="518" y="-246"/>
<text text-anchor="start" x="533" y="-237.2" font-family="Helvetica,sans-Serif" font-size="11.00">pxe_server_id</text>
<polygon fill="none" stroke="black" points="513,-207 513,-229 657,-229 657,-207 513,-207"/>
<image xlink:href="../../images/foreignKeys.png" width="11px" height="12px" preserveAspectRatio="xMinYMin meet" x="518" y="-224"/>
<text text-anchor="start" x="533" y="-215.2" font-family="Helvetica,sans-Serif" font-size="11.00">pxe_menu_id</text>
<polygon fill="#ffffff" stroke="none" points="513,-185 513,-207 657,-207 657,-185 513,-185"/>
<polygon fill="none" stroke="black" points="513,-185 513,-207 657,-207 657,-185 513,-185"/>
<text text-anchor="start" x="533" y="-193.2" font-family="Helvetica,sans-Serif" font-size="11.00">type</text>
<polygon fill="none" stroke="black" points="513,-163 513,-185 657,-185 657,-163 513,-163"/>
<image xlink:href="../../images/foreignKeys.png" width="11px" height="12px" preserveAspectRatio="xMinYMin meet" x="518" y="-180"/>
<text text-anchor="start" x="533" y="-171.2" font-family="Helvetica,sans-Serif" font-size="11.00">pxe_image_type_id</text>
<polygon fill="none" stroke="black" points="513,-145 513,-163 657,-163 657,-145 513,-145"/>
<text text-anchor="start" x="516" y="-151.2" font-family="Helvetica,sans-Serif" font-size="11.00">...</text>
<polygon fill="#ffffff" stroke="none" points="513,-127 513,-145 583,-145 583,-127 513,-127"/>
<polygon fill="none" stroke="black" points="513,-127 513,-145 583,-145 583,-127 513,-127"/>
<text text-anchor="start" x="516" y="-133.2" font-family="Helvetica,sans-Serif" font-size="11.00">&lt; 3</text>
<polygon fill="#ffffff" stroke="none" points="583,-127 583,-145 620,-145 620,-127 583,-127"/>
<polygon fill="none" stroke="black" points="583,-127 583,-145 620,-145 620,-127 583,-127"/>
<text text-anchor="start" x="610" y="-133.2" font-family="Helvetica,sans-Serif" font-size="11.00"> &#160;</text>
<polygon fill="#ffffff" stroke="none" points="620,-127 620,-145 657,-145 657,-127 620,-127"/>
<polygon fill="none" stroke="black" points="620,-127 620,-145 657,-145 657,-127 620,-127"/>
<text text-anchor="start" x="647" y="-133.2" font-family="Helvetica,sans-Serif" font-size="11.00"> &#160;</text>
</a>
</g>
</g>
<!-- pxe_menus -->
<g id="node2" class="node"><title>pxe_menus</title>
<g id="a_node2"><a xlink:href="../../tables/pxe_menus.html" xlink:title="pxe_menus" target="_top">
<polygon fill="#ffffff" stroke="none" points="238,-37 238,-235 464,-235 464,-37 238,-37"/>
<polygon fill="#f5f5f5" stroke="none" points="240,-211 240,-233 462,-233 462,-211 240,-211"/>
<polygon fill="none" stroke="black" points="240,-211 240,-233 462,-233 462,-211 240,-211"/>
<text text-anchor="start" x="245" y="-220.2" font-family="Helvetica,sans-Serif" font-weight="bold" font-size="11.00">pxe_menus</text>
<text text-anchor="start" x="423" y="-219.2" font-family="Helvetica,sans-Serif" font-size="11.00">[table]</text>
<polygon fill="none" stroke="black" points="240,-189 240,-211 341,-211 341,-189 240,-189"/>
<image xlink:href="../../images/primaryKeys.png" width="11px" height="12px" preserveAspectRatio="xMinYMin meet" x="245" y="-206"/>
<text text-anchor="start" x="260" y="-197.2" font-family="Helvetica,sans-Serif" font-size="11.00">id</text>
<polygon fill="none" stroke="black" points="341,-189 341,-211 462,-211 462,-189 341,-189"/>
<text text-anchor="start" x="344" y="-197.2" font-family="Helvetica,sans-Serif" font-size="11.00">bigserial[19]</text>
<polygon fill="none" stroke="black" points="240,-167 240,-189 341,-189 341,-167 240,-167"/>
<text text-anchor="start" x="260" y="-175.2" font-family="Helvetica,sans-Serif" font-size="11.00">file_name</text>
<polygon fill="none" stroke="black" points="341,-167 341,-189 462,-189 462,-167 341,-167"/>
<text text-anchor="start" x="344" y="-175.2" font-family="Helvetica,sans-Serif" font-size="11.00">varchar[2147483647]</text>
<polygon fill="none" stroke="black" points="240,-145 240,-167 341,-167 341,-145 240,-145"/>
<text text-anchor="start" x="260" y="-153.2" font-family="Helvetica,sans-Serif" font-size="11.00">contents</text>
<polygon fill="none" stroke="black" points="341,-145 341,-167 462,-167 462,-145 341,-145"/>
<text text-anchor="start" x="344" y="-153.2" font-family="Helvetica,sans-Serif" font-size="11.00">text[2147483647]</text>
<polygon fill="none" stroke="black" points="240,-123 240,-145 341,-145 341,-123 240,-123"/>
<image xlink:href="../../images/foreignKeys.png" width="11px" height="12px" preserveAspectRatio="xMinYMin meet" x="245" y="-140"/>
<text text-anchor="start" x="260" y="-131.2" font-family="Helvetica,sans-Serif" font-size="11.00">pxe_server_id</text>
<polygon fill="none" stroke="black" points="341,-123 341,-145 462,-145 462,-123 341,-123"/>
<text text-anchor="start" x="344" y="-131.2" font-family="Helvetica,sans-Serif" font-size="11.00">int8[19]</text>
<polygon fill="none" stroke="black" points="240,-101 240,-123 341,-123 341,-101 240,-101"/>
<text text-anchor="start" x="260" y="-109.2" font-family="Helvetica,sans-Serif" font-size="11.00">created_at</text>
<polygon fill="none" stroke="black" points="341,-101 341,-123 462,-123 462,-101 341,-101"/>
<text text-anchor="start" x="344" y="-109.2" font-family="Helvetica,sans-Serif" font-size="11.00">timestamp[29,6]</text>
<polygon fill="none" stroke="black" points="240,-79 240,-101 341,-101 341,-79 240,-79"/>
<text text-anchor="start" x="260" y="-87.2" font-family="Helvetica,sans-Serif" font-size="11.00">updated_at</text>
<polygon fill="none" stroke="black" points="341,-79 341,-101 462,-101 462,-79 341,-79"/>
<text text-anchor="start" x="344" y="-87.2" font-family="Helvetica,sans-Serif" font-size="11.00">timestamp[29,6]</text>
<polygon fill="#ffffff" stroke="none" points="240,-57 240,-79 341,-79 341,-57 240,-57"/>
<polygon fill="none" stroke="black" points="240,-57 240,-79 341,-79 341,-57 240,-57"/>
<text text-anchor="start" x="260" y="-65.2" font-family="Helvetica,sans-Serif" font-size="11.00">type</text>
<polygon fill="none" stroke="black" points="341,-57 341,-79 462,-79 462,-57 341,-57"/>
<text text-anchor="start" x="344" y="-65.2" font-family="Helvetica,sans-Serif" font-size="11.00">varchar[2147483647]</text>
<polygon fill="#ffffff" stroke="none" points="240,-39 240,-57 295,-57 295,-39 240,-39"/>
<polygon fill="none" stroke="black" points="240,-39 240,-57 295,-57 295,-39 240,-39"/>
<text text-anchor="start" x="243" y="-45.2" font-family="Helvetica,sans-Serif" font-size="11.00">&lt; 1</text>
<polygon fill="#ffffff" stroke="none" points="295,-39 295,-57 341,-57 341,-39 295,-39"/>
<polygon fill="none" stroke="black" points="295,-39 295,-57 341,-57 341,-39 295,-39"/>
<text text-anchor="start" x="331" y="-45.2" font-family="Helvetica,sans-Serif" font-size="11.00"> &#160;</text>
<polygon fill="#ffffff" stroke="none" points="341,-39 341,-57 462,-57 462,-39 341,-39"/>
<polygon fill="none" stroke="black" points="341,-39 341,-57 462,-57 462,-39 341,-39"/>
<text text-anchor="start" x="442" y="-45.2" font-family="Helvetica,sans-Serif" font-size="11.00">1 &gt;</text>
<polygon fill="none" stroke="black" stroke-width="2" points="239,-38 239,-234 463,-234 463,-38 239,-38"/>
</a>
</g>
</g>
<!-- pxe_images&#45;&gt;pxe_menus -->
<g id="edge1" class="edge"><title>pxe_images:pxe_menu_id:w&#45;&gt;pxe_menus:id.type:e</title>
<path fill="none" stroke="black" d="M497.819,-215.188C486.212,-210.125 480.401,-200 463,-200"/>
<polygon fill="black" stroke="black" points="504.153,-216.444 511.3,-221.531 508.076,-217.222 512,-218 512,-218 512,-218 508.076,-217.222 512.7,-214.469 504.153,-216.444 504.153,-216.444"/>
<ellipse fill="none" stroke="black" cx="501.014" cy="-215.821" rx="3.2" ry="3.2"/>
</g>
<!-- pxe_servers -->
<g id="node3" class="node"><title>pxe_servers</title>
<g id="a_node3"><a xlink:href="../../tables/pxe_servers.html" xlink:title="pxe_servers" target="_top">
<polygon fill="#ffffff" stroke="none" points="8,-149 8,-229 189,-229 189,-149 8,-149"/>
<polygon fill="#f5f5f5" stroke="none" points="8.5,-207 8.5,-229 189.5,-229 189.5,-207 8.5,-207"/>
<polygon fill="none" stroke="black" points="8.5,-207 8.5,-229 189.5,-229 189.5,-207 8.5,-207"/>
<text text-anchor="start" x="13.5" y="-216.2" font-family="Helvetica,sans-Serif" font-weight="bold" font-size="11.00">pxe_servers</text>
<text text-anchor="start" x="150.5" y="-215.2" font-family="Helvetica,sans-Serif" font-size="11.00">[table]</text>
<polygon fill="none" stroke="black" points="8.5,-185 8.5,-207 189.5,-207 189.5,-185 8.5,-185"/>
<image xlink:href="../../images/primaryKeys.png" width="11px" height="12px" preserveAspectRatio="xMinYMin meet" x="13.5" y="-202"/>
<text text-anchor="start" x="28.5" y="-193.2" font-family="Helvetica,sans-Serif" font-size="11.00">id</text>
<polygon fill="none" stroke="black" points="8.5,-167 8.5,-185 189.5,-185 189.5,-167 8.5,-167"/>
<text text-anchor="start" x="11.5" y="-173.2" font-family="Helvetica,sans-Serif" font-size="11.00">...</text>
<polygon fill="#ffffff" stroke="none" points="8.5,-149 8.5,-167 87.5,-167 87.5,-149 8.5,-149"/>
<polygon fill="none" stroke="black" points="8.5,-149 8.5,-167 87.5,-167 87.5,-149 8.5,-149"/>
<text text-anchor="start" x="11.5" y="-155.2" font-family="Helvetica,sans-Serif" font-size="11.00"> &#160;</text>
<polygon fill="#ffffff" stroke="none" points="87.5,-149 87.5,-167 133.5,-167 133.5,-149 87.5,-149"/>
<polygon fill="none" stroke="black" points="87.5,-149 87.5,-167 133.5,-167 133.5,-149 87.5,-149"/>
<text text-anchor="start" x="123.5" y="-155.2" font-family="Helvetica,sans-Serif" font-size="11.00"> &#160;</text>
<polygon fill="#ffffff" stroke="none" points="133.5,-149 133.5,-167 189.5,-167 189.5,-149 133.5,-149"/>
<polygon fill="none" stroke="black" points="133.5,-149 133.5,-167 189.5,-167 189.5,-149 133.5,-149"/>
<text text-anchor="start" x="169.5" y="-155.2" font-family="Helvetica,sans-Serif" font-size="11.00">3 &gt;</text>
</a>
</g>
</g>
<!-- pxe_images&#45;&gt;pxe_servers -->
<g id="edge2" class="edge"><title>pxe_images:pxe_server_id:w&#45;&gt;pxe_servers:id:e</title>
<path fill="none" stroke="black" d="M497.548,-241.063C489.717,-242.298 483.874,-244.261 472,-245 364.652,-251.683 327.027,-291.411 230,-245 204.766,-232.93 218.473,-196 190.5,-196"/>
<polygon fill="black" stroke="black" points="504.022,-240.587 512.264,-243.59 508.011,-240.294 512,-240 512,-240 512,-240 508.011,-240.294 511.736,-236.41 504.022,-240.587 504.022,-240.587"/>
<ellipse fill="none" stroke="black" cx="500.83" cy="-240.822" rx="3.2" ry="3.2"/>
</g>
<!-- pxe_menus&#45;&gt;pxe_servers -->
<g id="edge3" class="edge"><title>pxe_menus:pxe_server_id:w&#45;&gt;pxe_servers:id:e</title>
<path fill="none" stroke="black" d="M225.391,-138.865C209.728,-153.481 219.472,-196 190.5,-196"/>
<polygon fill="black" stroke="black" points="231.467,-136.693 240.212,-137.39 235.233,-135.346 239,-134 239,-134 239,-134 235.233,-135.346 237.788,-130.61 231.467,-136.693 231.467,-136.693"/>
<ellipse fill="none" stroke="black" cx="228.454" cy="-137.77" rx="3.20001" ry="3.20001"/>
</g>
</g>
</svg>
