<?xml version="1.0" encoding="UTF-8" standalone="no"?>
<!DOCTYPE svg PUBLIC "-//W3C//DTD SVG 1.1//EN"
 "http://www.w3.org/Graphics/SVG/1.1/DTD/svg11.dtd">
<!-- Generated by graphviz version 2.38.0 (20140413.2041)
 -->
<!-- Title: oneDegreeRelationshipsDiagram Pages: 1 -->
<svg width="512pt" height="652pt"
 viewBox="0.00 0.00 512.00 652.00" xmlns="http://www.w3.org/2000/svg" xmlns:xlink="http://www.w3.org/1999/xlink">
<g id="graph0" class="graph" transform="scale(1 1) rotate(0) translate(4 648)">
<title>oneDegreeRelationshipsDiagram</title>
<polygon fill="#ffffff" stroke="none" points="-4,4 -4,-648 508,-648 508,4 -4,4"/>
<text text-anchor="middle" x="74.5" y="-7.2" font-family="Helvetica,sans-Serif" font-size="11.00">Generated by SchemaSpy</text>
<!-- customization_templates -->
<g id="node1" class="node"><title>customization_templates</title>
<g id="a_node1"><a xlink:href="../../tables/customization_templates.html" xlink:title="customization_templates" target="_top">
<polygon fill="#ffffff" stroke="none" points="303,-516 303,-640 496,-640 496,-516 303,-516"/>
<polygon fill="#f5f5f5" stroke="none" points="303.5,-618 303.5,-640 496.5,-640 496.5,-618 303.5,-618"/>
<polygon fill="none" stroke="black" points="303.5,-618 303.5,-640 496.5,-640 496.5,-618 303.5,-618"/>
<text text-anchor="start" x="308.5" y="-627.2" font-family="Helvetica,sans-Serif" font-weight="bold" font-size="11.00">customization_templates</text>
<text text-anchor="start" x="457.5" y="-626.2" font-family="Helvetica,sans-Serif" font-size="11.00">[table]</text>
<polygon fill="none" stroke="black" points="303.5,-596 303.5,-618 496.5,-618 496.5,-596 303.5,-596"/>
<image xlink:href="../../images/primaryKeys.png" width="11px" height="12px" preserveAspectRatio="xMinYMin meet" x="308.5" y="-613"/>
<text text-anchor="start" x="334.5" y="-604.2" font-family="Helvetica,sans-Serif" font-size="11.00">id</text>
<polygon fill="none" stroke="black" points="303.5,-574 303.5,-596 496.5,-596 496.5,-574 303.5,-574"/>
<image xlink:href="../../images/foreignKeys.png" width="11px" height="12px" preserveAspectRatio="xMinYMin meet" x="308.5" y="-591"/>
<text text-anchor="start" x="334.5" y="-582.2" font-family="Helvetica,sans-Serif" font-size="11.00">pxe_image_type_id</text>
<polygon fill="#ffffff" stroke="none" points="303.5,-552 303.5,-574 496.5,-574 496.5,-552 303.5,-552"/>
<polygon fill="none" stroke="black" points="303.5,-552 303.5,-574 496.5,-574 496.5,-552 303.5,-552"/>
<text text-anchor="start" x="334.5" y="-560.2" font-family="Helvetica,sans-Serif" font-size="11.00">type</text>
<polygon fill="none" stroke="black" points="303.5,-534 303.5,-552 496.5,-552 496.5,-534 303.5,-534"/>
<text text-anchor="start" x="306.5" y="-540.2" font-family="Helvetica,sans-Serif" font-size="11.00">...</text>
<polygon fill="#ffffff" stroke="none" points="303.5,-516 303.5,-534 398.5,-534 398.5,-516 303.5,-516"/>
<polygon fill="none" stroke="black" points="303.5,-516 303.5,-534 398.5,-534 398.5,-516 303.5,-516"/>
<text text-anchor="start" x="306.5" y="-522.2" font-family="Helvetica,sans-Serif" font-size="11.00">&lt; 1</text>
<polygon fill="#ffffff" stroke="none" points="398.5,-516 398.5,-534 447.5,-534 447.5,-516 398.5,-516"/>
<polygon fill="none" stroke="black" points="398.5,-516 398.5,-534 447.5,-534 447.5,-516 398.5,-516"/>
<text text-anchor="start" x="437.5" y="-522.2" font-family="Helvetica,sans-Serif" font-size="11.00"> &#160;</text>
<polygon fill="#ffffff" stroke="none" points="447.5,-516 447.5,-534 496.5,-534 496.5,-516 447.5,-516"/>
<polygon fill="none" stroke="black" points="447.5,-516 447.5,-534 496.5,-534 496.5,-516 447.5,-516"/>
<text text-anchor="start" x="486.5" y="-522.2" font-family="Helvetica,sans-Serif" font-size="11.00"> &#160;</text>
</a>
</g>
</g>
<!-- pxe_image_types -->
<g id="node2" class="node"><title>pxe_image_types</title>
<g id="a_node2"><a xlink:href="../../tables/pxe_image_types.html" xlink:title="pxe_image_types" target="_top">
<polygon fill="#ffffff" stroke="none" points="8,-259 8,-369 254,-369 254,-259 8,-259"/>
<polygon fill="#f5f5f5" stroke="none" points="10,-345 10,-367 252,-367 252,-345 10,-345"/>
<polygon fill="none" stroke="black" points="10,-345 10,-367 252,-367 252,-345 10,-345"/>
<text text-anchor="start" x="15" y="-354.2" font-family="Helvetica,sans-Serif" font-weight="bold" font-size="11.00">pxe_image_types</text>
<text text-anchor="start" x="213" y="-353.2" font-family="Helvetica,sans-Serif" font-size="11.00">[table]</text>
<polygon fill="none" stroke="black" points="10,-323 10,-345 131,-345 131,-323 10,-323"/>
<image xlink:href="../../images/primaryKeys.png" width="11px" height="12px" preserveAspectRatio="xMinYMin meet" x="15" y="-340"/>
<text text-anchor="start" x="30" y="-331.2" font-family="Helvetica,sans-Serif" font-size="11.00">id</text>
<polygon fill="none" stroke="black" points="131,-323 131,-345 252,-345 252,-323 131,-323"/>
<text text-anchor="start" x="134" y="-331.2" font-family="Helvetica,sans-Serif" font-size="11.00">bigserial[19]</text>
<polygon fill="none" stroke="black" points="10,-301 10,-323 131,-323 131,-301 10,-301"/>
<text text-anchor="start" x="30" y="-309.2" font-family="Helvetica,sans-Serif" font-size="11.00">name</text>
<polygon fill="none" stroke="black" points="131,-301 131,-323 252,-323 252,-301 131,-301"/>
<text text-anchor="start" x="134" y="-309.2" font-family="Helvetica,sans-Serif" font-size="11.00">varchar[2147483647]</text>
<polygon fill="none" stroke="black" points="10,-279 10,-301 131,-301 131,-279 10,-279"/>
<text text-anchor="start" x="30" y="-287.2" font-family="Helvetica,sans-Serif" font-size="11.00">provision_type</text>
<polygon fill="none" stroke="black" points="131,-279 131,-301 252,-301 252,-279 131,-279"/>
<text text-anchor="start" x="134" y="-287.2" font-family="Helvetica,sans-Serif" font-size="11.00">varchar[2147483647]</text>
<polygon fill="#ffffff" stroke="none" points="10,-261 10,-279 75,-279 75,-261 10,-261"/>
<polygon fill="none" stroke="black" points="10,-261 10,-279 75,-279 75,-261 10,-261"/>
<text text-anchor="start" x="13" y="-267.2" font-family="Helvetica,sans-Serif" font-size="11.00">&lt; 0</text>
<polygon fill="#ffffff" stroke="none" points="75,-261 75,-279 131,-279 131,-261 75,-261"/>
<polygon fill="none" stroke="black" points="75,-261 75,-279 131,-279 131,-261 75,-261"/>
<text text-anchor="start" x="121" y="-267.2" font-family="Helvetica,sans-Serif" font-size="11.00"> &#160;</text>
<polygon fill="#ffffff" stroke="none" points="131,-261 131,-279 252,-279 252,-261 131,-261"/>
<polygon fill="none" stroke="black" points="131,-261 131,-279 252,-279 252,-261 131,-261"/>
<text text-anchor="start" x="232" y="-267.2" font-family="Helvetica,sans-Serif" font-size="11.00">4 &gt;</text>
<polygon fill="none" stroke="black" stroke-width="2" points="9,-260 9,-368 253,-368 253,-260 9,-260"/>
</a>
</g>
</g>
<!-- customization_templates&#45;&gt;pxe_image_types -->
<g id="edge1" class="edge"><title>customization_templates:pxe_image_type_id:w&#45;&gt;pxe_image_types:id.type:e</title>
<path fill="none" stroke="black" d="M288.117,-583.331C205.154,-561.553 361.263,-334 253,-334"/>
<polygon fill="black" stroke="black" points="294.553,-584.078 302.085,-588.576 298.527,-584.539 302.5,-585 302.5,-585 302.5,-585 298.527,-584.539 302.915,-581.424 294.553,-584.078 294.553,-584.078"/>
<ellipse fill="none" stroke="black" cx="291.375" cy="-583.709" rx="3.2" ry="3.2"/>
</g>
<!-- iso_images -->
<g id="node3" class="node"><title>iso_images</title>
<g id="a_node3"><a xlink:href="../../tables/iso_images.html" xlink:title="iso_images" target="_top">
<polygon fill="#ffffff" stroke="none" points="334,-371 334,-495 465,-495 465,-371 334,-371"/>
<polygon fill="#f5f5f5" stroke="none" points="334.5,-473 334.5,-495 465.5,-495 465.5,-473 334.5,-473"/>
<polygon fill="none" stroke="black" points="334.5,-473 334.5,-495 465.5,-495 465.5,-473 334.5,-473"/>
<text text-anchor="start" x="339.5" y="-482.2" font-family="Helvetica,sans-Serif" font-weight="bold" font-size="11.00">iso_images</text>
<text text-anchor="start" x="426.5" y="-481.2" font-family="Helvetica,sans-Serif" font-size="11.00">[table]</text>
<polygon fill="none" stroke="black" points="334.5,-451 334.5,-473 465.5,-473 465.5,-451 334.5,-451"/>
<image xlink:href="../../images/primaryKeys.png" width="11px" height="12px" preserveAspectRatio="xMinYMin meet" x="339.5" y="-468"/>
<text text-anchor="start" x="354.5" y="-459.2" font-family="Helvetica,sans-Serif" font-size="11.00">id</text>
<polygon fill="none" stroke="black" points="334.5,-429 334.5,-451 465.5,-451 465.5,-429 334.5,-429"/>
<image xlink:href="../../images/foreignKeys.png" width="11px" height="12px" preserveAspectRatio="xMinYMin meet" x="339.5" y="-446"/>
<text text-anchor="start" x="354.5" y="-437.2" font-family="Helvetica,sans-Serif" font-size="11.00">pxe_image_type_id</text>
<polygon fill="#ffffff" stroke="none" points="334.5,-407 334.5,-429 465.5,-429 465.5,-407 334.5,-407"/>
<polygon fill="none" stroke="black" points="334.5,-407 334.5,-429 465.5,-429 465.5,-407 334.5,-407"/>
<image xlink:href="../../images/foreignKeys.png" width="11px" height="12px" preserveAspectRatio="xMinYMin meet" x="339.5" y="-424"/>
<text text-anchor="start" x="354.5" y="-415.2" font-family="Helvetica,sans-Serif" font-size="11.00">storage_id</text>
<polygon fill="none" stroke="black" points="334.5,-389 334.5,-407 465.5,-407 465.5,-389 334.5,-389"/>
<text text-anchor="start" x="337.5" y="-395.2" font-family="Helvetica,sans-Serif" font-size="11.00">...</text>
<polygon fill="#ffffff" stroke="none" points="334.5,-371 334.5,-389 398.5,-389 398.5,-371 334.5,-371"/>
<polygon fill="none" stroke="black" points="334.5,-371 334.5,-389 398.5,-389 398.5,-371 334.5,-371"/>
<text text-anchor="start" x="337.5" y="-377.2" font-family="Helvetica,sans-Serif" font-size="11.00">&lt; 2</text>
<polygon fill="#ffffff" stroke="none" points="398.5,-371 398.5,-389 431.5,-389 431.5,-371 398.5,-371"/>
<polygon fill="none" stroke="black" points="398.5,-371 398.5,-389 431.5,-389 431.5,-371 398.5,-371"/>
<text text-anchor="start" x="421.5" y="-377.2" font-family="Helvetica,sans-Serif" font-size="11.00"> &#160;</text>
<polygon fill="#ffffff" stroke="none" points="431.5,-371 431.5,-389 465.5,-389 465.5,-371 431.5,-371"/>
<polygon fill="none" stroke="black" points="431.5,-371 431.5,-389 465.5,-389 465.5,-371 431.5,-371"/>
<text text-anchor="start" x="455.5" y="-377.2" font-family="Helvetica,sans-Serif" font-size="11.00"> &#160;</text>
</a>
</g>
</g>
<!-- iso_images&#45;&gt;pxe_image_types -->
<g id="edge2" class="edge"><title>iso_images:pxe_image_type_id:w&#45;&gt;pxe_image_types:id.type:e</title>
<path fill="none" stroke="black" d="M319.259,-437.38C280.581,-421.057 306.611,-334 253,-334"/>
<polygon fill="black" stroke="black" points="325.632,-438.552 332.849,-443.541 329.566,-439.276 333.5,-440 333.5,-440 333.5,-440 329.566,-439.276 334.151,-436.459 325.632,-438.552 325.632,-438.552"/>
<ellipse fill="none" stroke="black" cx="322.485" cy="-437.973" rx="3.2" ry="3.2"/>
</g>
<!-- pxe_images -->
<g id="node4" class="node"><title>pxe_images</title>
<g id="a_node4"><a xlink:href="../../tables/pxe_images.html" xlink:title="pxe_images" target="_top">
<polygon fill="#ffffff" stroke="none" points="327.5,-182 327.5,-350 471.5,-350 471.5,-182 327.5,-182"/>
<polygon fill="#f5f5f5" stroke="none" points="327.5,-328 327.5,-350 471.5,-350 471.5,-328 327.5,-328"/>
<polygon fill="none" stroke="black" points="327.5,-328 327.5,-350 471.5,-350 471.5,-328 327.5,-328"/>
<text text-anchor="start" x="332.5" y="-337.2" font-family="Helvetica,sans-Serif" font-weight="bold" font-size="11.00">pxe_images</text>
<text text-anchor="start" x="432.5" y="-336.2" font-family="Helvetica,sans-Serif" font-size="11.00">[table]</text>
<polygon fill="none" stroke="black" points="327.5,-306 327.5,-328 471.5,-328 471.5,-306 327.5,-306"/>
<image xlink:href="../../images/primaryKeys.png" width="11px" height="12px" preserveAspectRatio="xMinYMin meet" x="332.5" y="-323"/>
<text text-anchor="start" x="347.5" y="-314.2" font-family="Helvetica,sans-Serif" font-size="11.00">id</text>
<polygon fill="#ffffff" stroke="none" points="327.5,-284 327.5,-306 471.5,-306 471.5,-284 327.5,-284"/>
<polygon fill="none" stroke="black" points="327.5,-284 327.5,-306 471.5,-306 471.5,-284 327.5,-284"/>
<image xlink:href="../../images/foreignKeys.png" width="11px" height="12px" preserveAspectRatio="xMinYMin meet" x="332.5" y="-301"/>
<text text-anchor="start" x="347.5" y="-292.2" font-family="Helvetica,sans-Serif" font-size="11.00">pxe_server_id</text>
<polygon fill="none" stroke="black" points="327.5,-262 327.5,-284 471.5,-284 471.5,-262 327.5,-262"/>
<image xlink:href="../../images/foreignKeys.png" width="11px" height="12px" preserveAspectRatio="xMinYMin meet" x="332.5" y="-279"/>
<text text-anchor="start" x="347.5" y="-270.2" font-family="Helvetica,sans-Serif" font-size="11.00">pxe_menu_id</text>
<polygon fill="#ffffff" stroke="none" points="327.5,-240 327.5,-262 471.5,-262 471.5,-240 327.5,-240"/>
<polygon fill="none" stroke="black" points="327.5,-240 327.5,-262 471.5,-262 471.5,-240 327.5,-240"/>
<text text-anchor="start" x="347.5" y="-248.2" font-family="Helvetica,sans-Serif" font-size="11.00">type</text>
<polygon fill="none" stroke="black" points="327.5,-218 327.5,-240 471.5,-240 471.5,-218 327.5,-218"/>
<image xlink:href="../../images/foreignKeys.png" width="11px" height="12px" preserveAspectRatio="xMinYMin meet" x="332.5" y="-235"/>
<text text-anchor="start" x="347.5" y="-226.2" font-family="Helvetica,sans-Serif" font-size="11.00">pxe_image_type_id</text>
<polygon fill="none" stroke="black" points="327.5,-200 327.5,-218 471.5,-218 471.5,-200 327.5,-200"/>
<text text-anchor="start" x="330.5" y="-206.2" font-family="Helvetica,sans-Serif" font-size="11.00">...</text>
<polygon fill="#ffffff" stroke="none" points="327.5,-182 327.5,-200 397.5,-200 397.5,-182 327.5,-182"/>
<polygon fill="none" stroke="black" points="327.5,-182 327.5,-200 397.5,-200 397.5,-182 327.5,-182"/>
<text text-anchor="start" x="330.5" y="-188.2" font-family="Helvetica,sans-Serif" font-size="11.00">&lt; 3</text>
<polygon fill="#ffffff" stroke="none" points="397.5,-182 397.5,-200 434.5,-200 434.5,-182 397.5,-182"/>
<polygon fill="none" stroke="black" points="397.5,-182 397.5,-200 434.5,-200 434.5,-182 397.5,-182"/>
<text text-anchor="start" x="424.5" y="-188.2" font-family="Helvetica,sans-Serif" font-size="11.00"> &#160;</text>
<polygon fill="#ffffff" stroke="none" points="434.5,-182 434.5,-200 471.5,-200 471.5,-182 434.5,-182"/>
<polygon fill="none" stroke="black" points="434.5,-182 434.5,-200 471.5,-200 471.5,-182 434.5,-182"/>
<text text-anchor="start" x="461.5" y="-188.2" font-family="Helvetica,sans-Serif" font-size="11.00"> &#160;</text>
</a>
</g>
</g>
<!-- pxe_images&#45;&gt;pxe_image_types -->
<g id="edge3" class="edge"><title>pxe_images:pxe_image_type_id:w&#45;&gt;pxe_image_types:id.type:e</title>
<path fill="none" stroke="black" d="M311.954,-232.029C276.743,-249.245 304.179,-334 253,-334"/>
<polygon fill="black" stroke="black" points="318.668,-230.631 327.234,-232.524 322.584,-229.816 326.5,-229 326.5,-229 326.5,-229 322.584,-229.816 325.766,-225.476 318.668,-230.631 318.668,-230.631"/>
<ellipse fill="none" stroke="black" cx="315.535" cy="-231.283" rx="3.2" ry="3.2"/>
</g>
<!-- windows_images -->
<g id="node5" class="node"><title>windows_images</title>
<g id="a_node5"><a xlink:href="../../tables/windows_images.html" xlink:title="windows_images" target="_top">
<polygon fill="#ffffff" stroke="none" points="328,-37 328,-161 471,-161 471,-37 328,-37"/>
<polygon fill="#f5f5f5" stroke="none" points="328.5,-139 328.5,-161 471.5,-161 471.5,-139 328.5,-139"/>
<polygon fill="none" stroke="black" points="328.5,-139 328.5,-161 471.5,-161 471.5,-139 328.5,-139"/>
<text text-anchor="start" x="333.5" y="-148.2" font-family="Helvetica,sans-Serif" font-weight="bold" font-size="11.00">windows_images</text>
<text text-anchor="start" x="432.5" y="-147.2" font-family="Helvetica,sans-Serif" font-size="11.00">[table]</text>
<polygon fill="none" stroke="black" points="328.5,-117 328.5,-139 471.5,-139 471.5,-117 328.5,-117"/>
<image xlink:href="../../images/primaryKeys.png" width="11px" height="12px" preserveAspectRatio="xMinYMin meet" x="333.5" y="-134"/>
<text text-anchor="start" x="354.5" y="-125.2" font-family="Helvetica,sans-Serif" font-size="11.00">id</text>
<polygon fill="none" stroke="black" points="328.5,-95 328.5,-117 471.5,-117 471.5,-95 328.5,-95"/>
<image xlink:href="../../images/foreignKeys.png" width="11px" height="12px" preserveAspectRatio="xMinYMin meet" x="333.5" y="-112"/>
<text text-anchor="start" x="354.5" y="-103.2" font-family="Helvetica,sans-Serif" font-size="11.00">pxe_server_id</text>
<polygon fill="none" stroke="black" points="328.5,-73 328.5,-95 471.5,-95 471.5,-73 328.5,-73"/>
<image xlink:href="../../images/foreignKeys.png" width="11px" height="12px" preserveAspectRatio="xMinYMin meet" x="333.5" y="-90"/>
<text text-anchor="start" x="354.5" y="-81.2" font-family="Helvetica,sans-Serif" font-size="11.00">pxe_image_type_id</text>
<polygon fill="none" stroke="black" points="328.5,-55 328.5,-73 471.5,-73 471.5,-55 328.5,-55"/>
<text text-anchor="start" x="331.5" y="-61.2" font-family="Helvetica,sans-Serif" font-size="11.00">...</text>
<polygon fill="#ffffff" stroke="none" points="328.5,-37 328.5,-55 398.5,-55 398.5,-37 328.5,-37"/>
<polygon fill="none" stroke="black" points="328.5,-37 328.5,-55 398.5,-55 398.5,-37 328.5,-37"/>
<text text-anchor="start" x="331.5" y="-43.2" font-family="Helvetica,sans-Serif" font-size="11.00">&lt; 2</text>
<polygon fill="#ffffff" stroke="none" points="398.5,-37 398.5,-55 434.5,-55 434.5,-37 398.5,-37"/>
<polygon fill="none" stroke="black" points="398.5,-37 398.5,-55 434.5,-55 434.5,-37 398.5,-37"/>
<text text-anchor="start" x="424.5" y="-43.2" font-family="Helvetica,sans-Serif" font-size="11.00"> &#160;</text>
<polygon fill="#ffffff" stroke="none" points="434.5,-37 434.5,-55 471.5,-55 471.5,-37 434.5,-37"/>
<polygon fill="none" stroke="black" points="434.5,-37 434.5,-55 471.5,-55 471.5,-37 434.5,-37"/>
<text text-anchor="start" x="461.5" y="-43.2" font-family="Helvetica,sans-Serif" font-size="11.00"> &#160;</text>
</a>
</g>
</g>
<!-- windows_images&#45;&gt;pxe_image_types -->
<g id="edge4" class="edge"><title>windows_images:pxe_image_type_id:w&#45;&gt;pxe_image_types:id.type:e</title>
<path fill="none" stroke="black" d="M314.138,-89.6913C276.174,-126.904 305.762,-334 253,-334"/>
<polygon fill="black" stroke="black" points="320.14,-87.1351 328.911,-87.3121 323.82,-85.5675 327.5,-84 327.5,-84 327.5,-84 323.82,-85.5675 326.089,-80.6879 320.14,-87.1351 320.14,-87.1351"/>
<ellipse fill="none" stroke="black" cx="317.196" cy="-88.3891" rx="3.20001" ry="3.20001"/>
</g>
</g>
</svg>
