<?xml version="1.0" encoding="UTF-8" standalone="no"?>
<!DOCTYPE svg PUBLIC "-//W3C//DTD SVG 1.1//EN"
 "http://www.w3.org/Graphics/SVG/1.1/DTD/svg11.dtd">
<!-- Generated by graphviz version 2.38.0 (20140413.2041)
 -->
<!-- Title: oneDegreeRelationshipsDiagram Pages: 1 -->
<svg width="1048pt" height="632pt"
 viewBox="0.00 0.00 1048.00 632.00" xmlns="http://www.w3.org/2000/svg" xmlns:xlink="http://www.w3.org/1999/xlink">
<g id="graph0" class="graph" transform="scale(1 1) rotate(0) translate(4 628)">
<title>oneDegreeRelationshipsDiagram</title>
<polygon fill="#ffffff" stroke="none" points="-4,4 -4,-628 1044,-628 1044,4 -4,4"/>
<text text-anchor="middle" x="74.5" y="-7.2" font-family="Helvetica,sans-Serif" font-size="11.00">Generated by SchemaSpy</text>
<!-- security_policies -->
<g id="node1" class="node"><title>security_policies</title>
<g id="a_node1"><a xlink:href="../../tables/security_policies.html" xlink:title="security_policies" target="_top">
<polygon fill="#ffffff" stroke="none" points="186,-136 186,-282 329,-282 329,-136 186,-136"/>
<polygon fill="#f5f5f5" stroke="none" points="186.5,-260 186.5,-282 329.5,-282 329.5,-260 186.5,-260"/>
<polygon fill="none" stroke="black" points="186.5,-260 186.5,-282 329.5,-282 329.5,-260 186.5,-260"/>
<text text-anchor="start" x="191.5" y="-269.2" font-family="Helvetica,sans-Serif" font-weight="bold" font-size="11.00">security_policies</text>
<text text-anchor="start" x="290.5" y="-268.2" font-family="Helvetica,sans-Serif" font-size="11.00">[table]</text>
<polygon fill="none" stroke="black" points="186.5,-238 186.5,-260 329.5,-260 329.5,-238 186.5,-238"/>
<image xlink:href="../../images/primaryKeys.png" width="11px" height="12px" preserveAspectRatio="xMinYMin meet" x="191.5" y="-255"/>
<text text-anchor="start" x="213.5" y="-246.2" font-family="Helvetica,sans-Serif" font-size="11.00">id</text>
<polygon fill="#ffffff" stroke="none" points="186.5,-216 186.5,-238 329.5,-238 329.5,-216 186.5,-216"/>
<polygon fill="none" stroke="black" points="186.5,-216 186.5,-238 329.5,-238 329.5,-216 186.5,-216"/>
<text text-anchor="start" x="213.5" y="-224.2" font-family="Helvetica,sans-Serif" font-size="11.00">type</text>
<polygon fill="#ffffff" stroke="none" points="186.5,-194 186.5,-216 329.5,-216 329.5,-194 186.5,-194"/>
<polygon fill="none" stroke="black" points="186.5,-194 186.5,-216 329.5,-216 329.5,-194 186.5,-194"/>
<text text-anchor="start" x="213.5" y="-202.2" font-family="Helvetica,sans-Serif" font-size="11.00">ems_id</text>
<polygon fill="#ffffff" stroke="none" points="186.5,-172 186.5,-194 329.5,-194 329.5,-172 186.5,-172"/>
<polygon fill="none" stroke="black" points="186.5,-172 186.5,-194 329.5,-194 329.5,-172 186.5,-172"/>
<image xlink:href="../../images/foreignKeys.png" width="11px" height="12px" preserveAspectRatio="xMinYMin meet" x="191.5" y="-189"/>
<text text-anchor="start" x="213.5" y="-180.2" font-family="Helvetica,sans-Serif" font-size="11.00">cloud_tenant_id</text>
<polygon fill="none" stroke="black" points="186.5,-154 186.5,-172 329.5,-172 329.5,-154 186.5,-154"/>
<text text-anchor="start" x="189.5" y="-160.2" font-family="Helvetica,sans-Serif" font-size="11.00">...</text>
<polygon fill="#ffffff" stroke="none" points="186.5,-136 186.5,-154 251.5,-154 251.5,-136 186.5,-136"/>
<polygon fill="none" stroke="black" points="186.5,-136 186.5,-154 251.5,-154 251.5,-136 186.5,-136"/>
<text text-anchor="start" x="189.5" y="-142.2" font-family="Helvetica,sans-Serif" font-size="11.00">&lt; 1</text>
<polygon fill="#ffffff" stroke="none" points="251.5,-136 251.5,-154 285.5,-154 285.5,-136 251.5,-136"/>
<polygon fill="none" stroke="black" points="251.5,-136 251.5,-154 285.5,-154 285.5,-136 251.5,-136"/>
<text text-anchor="start" x="275.5" y="-142.2" font-family="Helvetica,sans-Serif" font-size="11.00"> &#160;</text>
<polygon fill="#ffffff" stroke="none" points="285.5,-136 285.5,-154 329.5,-154 329.5,-136 285.5,-136"/>
<polygon fill="none" stroke="black" points="285.5,-136 285.5,-154 329.5,-154 329.5,-136 285.5,-136"/>
<text text-anchor="start" x="309.5" y="-142.2" font-family="Helvetica,sans-Serif" font-size="11.00">1 &gt;</text>
</a>
</g>
</g>
<!-- cloud_tenants -->
<g id="node2" class="node"><title>cloud_tenants</title>
<g id="a_node2"><a xlink:href="../../tables/cloud_tenants.html" xlink:title="cloud_tenants" target="_top">
<polygon fill="#ffffff" stroke="none" points="8,-175 8,-277 137,-277 137,-175 8,-175"/>
<polygon fill="#f5f5f5" stroke="none" points="8.5,-255 8.5,-277 137.5,-277 137.5,-255 8.5,-255"/>
<polygon fill="none" stroke="black" points="8.5,-255 8.5,-277 137.5,-277 137.5,-255 8.5,-255"/>
<text text-anchor="start" x="13.5" y="-264.2" font-family="Helvetica,sans-Serif" font-weight="bold" font-size="11.00">cloud_tenants</text>
<text text-anchor="start" x="98.5" y="-263.2" font-family="Helvetica,sans-Serif" font-size="11.00">[table]</text>
<polygon fill="none" stroke="black" points="8.5,-233 8.5,-255 137.5,-255 137.5,-233 8.5,-233"/>
<image xlink:href="../../images/primaryKeys.png" width="11px" height="12px" preserveAspectRatio="xMinYMin meet" x="13.5" y="-250"/>
<text text-anchor="start" x="40.5" y="-241.2" font-family="Helvetica,sans-Serif" font-size="11.00">id</text>
<polygon fill="#ffffff" stroke="none" points="8.5,-211 8.5,-233 137.5,-233 137.5,-211 8.5,-211"/>
<polygon fill="none" stroke="black" points="8.5,-211 8.5,-233 137.5,-233 137.5,-211 8.5,-211"/>
<text text-anchor="start" x="40.5" y="-219.2" font-family="Helvetica,sans-Serif" font-size="11.00">type</text>
<polygon fill="none" stroke="black" points="8.5,-193 8.5,-211 137.5,-211 137.5,-193 8.5,-193"/>
<text text-anchor="start" x="11.5" y="-199.2" font-family="Helvetica,sans-Serif" font-size="11.00">...</text>
<polygon fill="#ffffff" stroke="none" points="8.5,-175 8.5,-193 57.5,-193 57.5,-175 8.5,-175"/>
<polygon fill="none" stroke="black" points="8.5,-175 8.5,-193 57.5,-193 57.5,-175 8.5,-175"/>
<text text-anchor="start" x="11.5" y="-181.2" font-family="Helvetica,sans-Serif" font-size="11.00"> &#160;</text>
<polygon fill="#ffffff" stroke="none" points="57.5,-175 57.5,-193 88.5,-193 88.5,-175 57.5,-175"/>
<polygon fill="none" stroke="black" points="57.5,-175 57.5,-193 88.5,-193 88.5,-175 57.5,-175"/>
<text text-anchor="start" x="78.5" y="-181.2" font-family="Helvetica,sans-Serif" font-size="11.00"> &#160;</text>
<polygon fill="#ffffff" stroke="none" points="88.5,-175 88.5,-193 137.5,-193 137.5,-175 88.5,-175"/>
<polygon fill="none" stroke="black" points="88.5,-175 88.5,-193 137.5,-193 137.5,-175 88.5,-175"/>
<text text-anchor="start" x="110.5" y="-181.2" font-family="Helvetica,sans-Serif" font-size="11.00">25 &gt;</text>
</a>
</g>
</g>
<!-- security_policies&#45;&gt;cloud_tenants -->
<g id="edge1" class="edge"><title>security_policies:cloud_tenant_id:w&#45;&gt;cloud_tenants:id:e</title>
<path fill="none" stroke="black" d="M171.797,-188.201C157.186,-202.952 166.575,-244 138.5,-244"/>
<polygon fill="black" stroke="black" points="178.021,-185.839 186.777,-186.366 181.76,-184.419 185.5,-183 185.5,-183 185.5,-183 181.76,-184.419 184.223,-179.634 178.021,-185.839 178.021,-185.839"/>
<ellipse fill="none" stroke="black" cx="175.029" cy="-186.974" rx="3.20001" ry="3.20001"/>
</g>
<!-- security_policy_rule_destination_security_groups -->
<g id="node3" class="node"><title>security_policy_rule_destination_security_groups</title>
<g id="a_node3"><a xlink:href="../../tables/security_policy_rule_destination_security_groups.html" xlink:title="security_policy_rule_destination_security_groups" target="_top">
<polygon fill="#ffffff" stroke="none" points="706,-496 706,-620 1032,-620 1032,-496 706,-496"/>
<polygon fill="#f5f5f5" stroke="none" points="706,-598 706,-620 1032,-620 1032,-598 706,-598"/>
<polygon fill="none" stroke="black" points="706,-598 706,-620 1032,-620 1032,-598 706,-598"/>
<text text-anchor="start" x="711" y="-607.2" font-family="Helvetica,sans-Serif" font-weight="bold" font-size="11.00">security_policy_rule_destination_security_groups</text>
<text text-anchor="start" x="993" y="-606.2" font-family="Helvetica,sans-Serif" font-size="11.00">[table]</text>
<polygon fill="none" stroke="black" points="706,-576 706,-598 1032,-598 1032,-576 706,-576"/>
<image xlink:href="../../images/primaryKeys.png" width="11px" height="12px" preserveAspectRatio="xMinYMin meet" x="711" y="-593"/>
<text text-anchor="start" x="734" y="-584.2" font-family="Helvetica,sans-Serif" font-size="11.00">id</text>
<polygon fill="#ffffff" stroke="none" points="706,-554 706,-576 1032,-576 1032,-554 706,-554"/>
<polygon fill="none" stroke="black" points="706,-554 706,-576 1032,-576 1032,-554 706,-554"/>
<image xlink:href="../../images/foreignKeys.png" width="11px" height="12px" preserveAspectRatio="xMinYMin meet" x="711" y="-571"/>
<text text-anchor="start" x="734" y="-562.2" font-family="Helvetica,sans-Serif" font-size="11.00">security_policy_rule_id</text>
<polygon fill="#ffffff" stroke="none" points="706,-532 706,-554 1032,-554 1032,-532 706,-532"/>
<polygon fill="none" stroke="black" points="706,-532 706,-554 1032,-554 1032,-532 706,-532"/>
<image xlink:href="../../images/foreignKeys.png" width="11px" height="12px" preserveAspectRatio="xMinYMin meet" x="711" y="-549"/>
<text text-anchor="start" x="734" y="-540.2" font-family="Helvetica,sans-Serif" font-size="11.00">security_group_id</text>
<polygon fill="none" stroke="black" points="706,-514 706,-532 1032,-532 1032,-514 706,-514"/>
<text text-anchor="start" x="709" y="-520.2" font-family="Helvetica,sans-Serif" font-size="11.00">...</text>
<polygon fill="#ffffff" stroke="none" points="706,-496 706,-514 867,-514 867,-496 706,-496"/>
<polygon fill="none" stroke="black" points="706,-496 706,-514 867,-514 867,-496 706,-496"/>
<text text-anchor="start" x="709" y="-502.2" font-family="Helvetica,sans-Serif" font-size="11.00">&lt; 2</text>
<polygon fill="#ffffff" stroke="none" points="867,-496 867,-514 949,-514 949,-496 867,-496"/>
<polygon fill="none" stroke="black" points="867,-496 867,-514 949,-514 949,-496 867,-496"/>
<text text-anchor="start" x="939" y="-502.2" font-family="Helvetica,sans-Serif" font-size="11.00"> &#160;</text>
<polygon fill="#ffffff" stroke="none" points="949,-496 949,-514 1032,-514 1032,-496 949,-496"/>
<polygon fill="none" stroke="black" points="949,-496 949,-514 1032,-514 1032,-496 949,-496"/>
<text text-anchor="start" x="1022" y="-502.2" font-family="Helvetica,sans-Serif" font-size="11.00"> &#160;</text>
</a>
</g>
</g>
<!-- security_policy_rules -->
<g id="node4" class="node"><title>security_policy_rules</title>
<g id="a_node4"><a xlink:href="../../tables/security_policy_rules.html" xlink:title="security_policy_rules" target="_top">
<polygon fill="#ffffff" stroke="none" points="378,-37 378,-455 657,-455 657,-37 378,-37"/>
<polygon fill="#f5f5f5" stroke="none" points="380.5,-431 380.5,-453 655.5,-453 655.5,-431 380.5,-431"/>
<polygon fill="none" stroke="black" points="380.5,-431 380.5,-453 655.5,-453 655.5,-431 380.5,-431"/>
<text text-anchor="start" x="385.5" y="-440.2" font-family="Helvetica,sans-Serif" font-weight="bold" font-size="11.00">security_policy_rules</text>
<text text-anchor="start" x="616.5" y="-439.2" font-family="Helvetica,sans-Serif" font-size="11.00">[table]</text>
<polygon fill="none" stroke="black" points="380.5,-409 380.5,-431 534.5,-431 534.5,-409 380.5,-409"/>
<image xlink:href="../../images/primaryKeys.png" width="11px" height="12px" preserveAspectRatio="xMinYMin meet" x="385.5" y="-426"/>
<text text-anchor="start" x="400.5" y="-417.2" font-family="Helvetica,sans-Serif" font-size="11.00">id</text>
<polygon fill="none" stroke="black" points="534.5,-409 534.5,-431 655.5,-431 655.5,-409 534.5,-409"/>
<text text-anchor="start" x="537.5" y="-417.2" font-family="Helvetica,sans-Serif" font-size="11.00">bigserial[19]</text>
<polygon fill="#ffffff" stroke="none" points="380.5,-387 380.5,-409 534.5,-409 534.5,-387 380.5,-387"/>
<polygon fill="none" stroke="black" points="380.5,-387 380.5,-409 534.5,-409 534.5,-387 380.5,-387"/>
<text text-anchor="start" x="400.5" y="-395.2" font-family="Helvetica,sans-Serif" font-size="11.00">type</text>
<polygon fill="none" stroke="black" points="534.5,-387 534.5,-409 655.5,-409 655.5,-387 534.5,-387"/>
<text text-anchor="start" x="537.5" y="-395.2" font-family="Helvetica,sans-Serif" font-size="11.00">varchar[2147483647]</text>
<polygon fill="none" stroke="black" points="380.5,-365 380.5,-387 534.5,-387 534.5,-365 380.5,-365"/>
<text text-anchor="start" x="400.5" y="-373.2" font-family="Helvetica,sans-Serif" font-size="11.00">name</text>
<polygon fill="none" stroke="black" points="534.5,-365 534.5,-387 655.5,-387 655.5,-365 534.5,-365"/>
<text text-anchor="start" x="537.5" y="-373.2" font-family="Helvetica,sans-Serif" font-size="11.00">varchar[2147483647]</text>
<polygon fill="none" stroke="black" points="380.5,-343 380.5,-365 534.5,-365 534.5,-343 380.5,-343"/>
<text text-anchor="start" x="400.5" y="-351.2" font-family="Helvetica,sans-Serif" font-size="11.00">description</text>
<polygon fill="none" stroke="black" points="534.5,-343 534.5,-365 655.5,-365 655.5,-343 534.5,-343"/>
<text text-anchor="start" x="537.5" y="-351.2" font-family="Helvetica,sans-Serif" font-size="11.00">varchar[2147483647]</text>
<polygon fill="none" stroke="black" points="380.5,-321 380.5,-343 534.5,-343 534.5,-321 380.5,-321"/>
<text text-anchor="start" x="400.5" y="-329.2" font-family="Helvetica,sans-Serif" font-size="11.00">ems_ref</text>
<polygon fill="none" stroke="black" points="534.5,-321 534.5,-343 655.5,-343 655.5,-321 534.5,-321"/>
<text text-anchor="start" x="537.5" y="-329.2" font-family="Helvetica,sans-Serif" font-size="11.00">varchar[2147483647]</text>
<polygon fill="#ffffff" stroke="none" points="380.5,-299 380.5,-321 534.5,-321 534.5,-299 380.5,-299"/>
<polygon fill="none" stroke="black" points="380.5,-299 380.5,-321 534.5,-321 534.5,-299 380.5,-299"/>
<text text-anchor="start" x="400.5" y="-307.2" font-family="Helvetica,sans-Serif" font-size="11.00">ems_id</text>
<polygon fill="none" stroke="black" points="534.5,-299 534.5,-321 655.5,-321 655.5,-299 534.5,-299"/>
<text text-anchor="start" x="537.5" y="-307.2" font-family="Helvetica,sans-Serif" font-size="11.00">int8[19]</text>
<polygon fill="#ffffff" stroke="none" points="380.5,-277 380.5,-299 534.5,-299 534.5,-277 380.5,-277"/>
<polygon fill="none" stroke="black" points="380.5,-277 380.5,-299 534.5,-299 534.5,-277 380.5,-277"/>
<image xlink:href="../../images/foreignKeys.png" width="11px" height="12px" preserveAspectRatio="xMinYMin meet" x="385.5" y="-294"/>
<text text-anchor="start" x="400.5" y="-285.2" font-family="Helvetica,sans-Serif" font-size="11.00">cloud_tenant_id</text>
<polygon fill="none" stroke="black" points="534.5,-277 534.5,-299 655.5,-299 655.5,-277 534.5,-277"/>
<text text-anchor="start" x="537.5" y="-285.2" font-family="Helvetica,sans-Serif" font-size="11.00">int8[19]</text>
<polygon fill="#ffffff" stroke="none" points="380.5,-255 380.5,-277 534.5,-277 534.5,-255 380.5,-255"/>
<polygon fill="none" stroke="black" points="380.5,-255 380.5,-277 534.5,-277 534.5,-255 380.5,-255"/>
<image xlink:href="../../images/foreignKeys.png" width="11px" height="12px" preserveAspectRatio="xMinYMin meet" x="385.5" y="-272"/>
<text text-anchor="start" x="400.5" y="-263.2" font-family="Helvetica,sans-Serif" font-size="11.00">security_policy_id</text>
<polygon fill="none" stroke="black" points="534.5,-255 534.5,-277 655.5,-277 655.5,-255 534.5,-255"/>
<text text-anchor="start" x="537.5" y="-263.2" font-family="Helvetica,sans-Serif" font-size="11.00">int8[19]</text>
<polygon fill="none" stroke="black" points="380.5,-233 380.5,-255 534.5,-255 534.5,-233 380.5,-233"/>
<text text-anchor="start" x="400.5" y="-241.2" font-family="Helvetica,sans-Serif" font-size="11.00">sequence_number</text>
<polygon fill="none" stroke="black" points="534.5,-233 534.5,-255 655.5,-255 655.5,-233 534.5,-233"/>
<text text-anchor="start" x="537.5" y="-241.2" font-family="Helvetica,sans-Serif" font-size="11.00">int4[10]</text>
<polygon fill="none" stroke="black" points="380.5,-211 380.5,-233 534.5,-233 534.5,-211 380.5,-211"/>
<text text-anchor="start" x="400.5" y="-219.2" font-family="Helvetica,sans-Serif" font-size="11.00">status</text>
<polygon fill="none" stroke="black" points="534.5,-211 534.5,-233 655.5,-233 655.5,-211 534.5,-211"/>
<text text-anchor="start" x="537.5" y="-219.2" font-family="Helvetica,sans-Serif" font-size="11.00">varchar[2147483647]</text>
<polygon fill="none" stroke="black" points="380.5,-189 380.5,-211 534.5,-211 534.5,-189 380.5,-189"/>
<text text-anchor="start" x="400.5" y="-197.2" font-family="Helvetica,sans-Serif" font-size="11.00">action</text>
<polygon fill="none" stroke="black" points="534.5,-189 534.5,-211 655.5,-211 655.5,-189 534.5,-189"/>
<text text-anchor="start" x="537.5" y="-197.2" font-family="Helvetica,sans-Serif" font-size="11.00">varchar[2147483647]</text>
<polygon fill="none" stroke="black" points="380.5,-167 380.5,-189 534.5,-189 534.5,-167 380.5,-167"/>
<text text-anchor="start" x="400.5" y="-175.2" font-family="Helvetica,sans-Serif" font-size="11.00">direction</text>
<polygon fill="none" stroke="black" points="534.5,-167 534.5,-189 655.5,-189 655.5,-167 534.5,-167"/>
<text text-anchor="start" x="537.5" y="-175.2" font-family="Helvetica,sans-Serif" font-size="11.00">varchar[2147483647]</text>
<polygon fill="none" stroke="black" points="380.5,-145 380.5,-167 534.5,-167 534.5,-145 380.5,-145"/>
<text text-anchor="start" x="400.5" y="-153.2" font-family="Helvetica,sans-Serif" font-size="11.00">ip_protocol</text>
<polygon fill="none" stroke="black" points="534.5,-145 534.5,-167 655.5,-167 655.5,-145 534.5,-145"/>
<text text-anchor="start" x="537.5" y="-153.2" font-family="Helvetica,sans-Serif" font-size="11.00">varchar[2147483647]</text>
<polygon fill="none" stroke="black" points="380.5,-123 380.5,-145 534.5,-145 534.5,-123 380.5,-123"/>
<text text-anchor="start" x="400.5" y="-131.2" font-family="Helvetica,sans-Serif" font-size="11.00">created_at</text>
<polygon fill="none" stroke="black" points="534.5,-123 534.5,-145 655.5,-145 655.5,-123 534.5,-123"/>
<text text-anchor="start" x="537.5" y="-131.2" font-family="Helvetica,sans-Serif" font-size="11.00">timestamp[29,6]</text>
<polygon fill="none" stroke="black" points="380.5,-101 380.5,-123 534.5,-123 534.5,-101 380.5,-101"/>
<text text-anchor="start" x="400.5" y="-109.2" font-family="Helvetica,sans-Serif" font-size="11.00">updated_at</text>
<polygon fill="none" stroke="black" points="534.5,-101 534.5,-123 655.5,-123 655.5,-101 534.5,-101"/>
<text text-anchor="start" x="537.5" y="-109.2" font-family="Helvetica,sans-Serif" font-size="11.00">timestamp[29,6]</text>
<polygon fill="none" stroke="black" points="380.5,-79 380.5,-101 534.5,-101 534.5,-79 380.5,-79"/>
<text text-anchor="start" x="400.5" y="-87.2" font-family="Helvetica,sans-Serif" font-size="11.00">sources_excluded</text>
<polygon fill="none" stroke="black" points="534.5,-79 534.5,-101 655.5,-101 655.5,-79 534.5,-79"/>
<text text-anchor="start" x="537.5" y="-87.2" font-family="Helvetica,sans-Serif" font-size="11.00">bool[1]</text>
<polygon fill="none" stroke="black" points="380.5,-57 380.5,-79 534.5,-79 534.5,-57 380.5,-57"/>
<text text-anchor="start" x="400.5" y="-65.2" font-family="Helvetica,sans-Serif" font-size="11.00">destinations_excluded</text>
<polygon fill="none" stroke="black" points="534.5,-57 534.5,-79 655.5,-79 655.5,-57 534.5,-57"/>
<text text-anchor="start" x="537.5" y="-65.2" font-family="Helvetica,sans-Serif" font-size="11.00">bool[1]</text>
<polygon fill="#ffffff" stroke="none" points="380.5,-39 380.5,-57 462.5,-57 462.5,-39 380.5,-39"/>
<polygon fill="none" stroke="black" points="380.5,-39 380.5,-57 462.5,-57 462.5,-39 380.5,-39"/>
<text text-anchor="start" x="383.5" y="-45.2" font-family="Helvetica,sans-Serif" font-size="11.00">&lt; 2</text>
<polygon fill="#ffffff" stroke="none" points="462.5,-39 462.5,-57 534.5,-57 534.5,-39 462.5,-39"/>
<polygon fill="none" stroke="black" points="462.5,-39 462.5,-57 534.5,-57 534.5,-39 462.5,-39"/>
<text text-anchor="start" x="524.5" y="-45.2" font-family="Helvetica,sans-Serif" font-size="11.00"> &#160;</text>
<polygon fill="#ffffff" stroke="none" points="534.5,-39 534.5,-57 655.5,-57 655.5,-39 534.5,-39"/>
<polygon fill="none" stroke="black" points="534.5,-39 534.5,-57 655.5,-57 655.5,-39 534.5,-39"/>
<text text-anchor="start" x="635.5" y="-45.2" font-family="Helvetica,sans-Serif" font-size="11.00">3 &gt;</text>
<polygon fill="none" stroke="black" stroke-width="2" points="379,-38 379,-454 656,-454 656,-38 379,-38"/>
</a>
</g>
</g>
<!-- security_policy_rule_destination_security_groups&#45;&gt;security_policy_rules -->
<g id="edge2" class="edge"><title>security_policy_rule_destination_security_groups:security_policy_rule_id:w&#45;&gt;security_policy_rules:id.type:e</title>
<path fill="none" stroke="black" d="M690.726,-561.971C650.922,-541.149 718.614,-420 656.5,-420"/>
<polygon fill="black" stroke="black" points="697.174,-563.34 704.253,-568.522 701.087,-564.17 705,-565 705,-565 705,-565 701.087,-564.17 705.747,-561.478 697.174,-563.34 697.174,-563.34"/>
<ellipse fill="none" stroke="black" cx="694.044" cy="-562.675" rx="3.2" ry="3.2"/>
</g>
<!-- security_policy_rules&#45;&gt;security_policies -->
<g id="edge6" class="edge"><title>security_policy_rules:security_policy_id:w&#45;&gt;security_policies:id:e</title>
<path fill="none" stroke="black" d="M364.999,-263.193C353.615,-258.364 347.608,-249 330.5,-249"/>
<polygon fill="black" stroke="black" points="371.646,-264.479 378.816,-269.534 375.573,-265.24 379.5,-266 379.5,-266 379.5,-266 375.573,-265.24 380.184,-262.466 371.646,-264.479 371.646,-264.479"/>
<ellipse fill="none" stroke="black" cx="368.504" cy="-263.871" rx="3.2" ry="3.2"/>
</g>
<!-- security_policy_rules&#45;&gt;cloud_tenants -->
<g id="edge5" class="edge"><title>security_policy_rules:cloud_tenant_id:w&#45;&gt;cloud_tenants:id:e</title>
<path fill="none" stroke="black" d="M365.039,-288.935C356.257,-290.158 350.053,-292.235 337,-293 266.454,-297.135 241.749,-323.493 178,-293 152.766,-280.93 166.473,-244 138.5,-244"/>
<polygon fill="black" stroke="black" points="371.517,-288.517 379.732,-291.592 375.508,-288.258 379.5,-288 379.5,-288 379.5,-288 375.508,-288.258 379.268,-284.408 371.517,-288.517 371.517,-288.517"/>
<ellipse fill="none" stroke="black" cx="368.323" cy="-288.723" rx="3.2" ry="3.2"/>
</g>
<!-- security_policy_rule_network_services -->
<g id="node5" class="node"><title>security_policy_rule_network_services</title>
<g id="a_node5"><a xlink:href="../../tables/security_policy_rule_network_services.html" xlink:title="security_policy_rule_network_services" target="_top">
<polygon fill="#ffffff" stroke="none" points="736.5,-351 736.5,-475 1001.5,-475 1001.5,-351 736.5,-351"/>
<polygon fill="#f5f5f5" stroke="none" points="737,-453 737,-475 1002,-475 1002,-453 737,-453"/>
<polygon fill="none" stroke="black" points="737,-453 737,-475 1002,-475 1002,-453 737,-453"/>
<text text-anchor="start" x="742" y="-462.2" font-family="Helvetica,sans-Serif" font-weight="bold" font-size="11.00">security_policy_rule_network_services</text>
<text text-anchor="start" x="963" y="-461.2" font-family="Helvetica,sans-Serif" font-size="11.00">[table]</text>
<polygon fill="none" stroke="black" points="737,-431 737,-453 1002,-453 1002,-431 737,-431"/>
<image xlink:href="../../images/primaryKeys.png" width="11px" height="12px" preserveAspectRatio="xMinYMin meet" x="742" y="-448"/>
<text text-anchor="start" x="766" y="-439.2" font-family="Helvetica,sans-Serif" font-size="11.00">id</text>
<polygon fill="#ffffff" stroke="none" points="737,-409 737,-431 1002,-431 1002,-409 737,-409"/>
<polygon fill="none" stroke="black" points="737,-409 737,-431 1002,-431 1002,-409 737,-409"/>
<image xlink:href="../../images/foreignKeys.png" width="11px" height="12px" preserveAspectRatio="xMinYMin meet" x="742" y="-426"/>
<text text-anchor="start" x="766" y="-417.2" font-family="Helvetica,sans-Serif" font-size="11.00">security_policy_rule_id</text>
<polygon fill="#ffffff" stroke="none" points="737,-387 737,-409 1002,-409 1002,-387 737,-387"/>
<polygon fill="none" stroke="black" points="737,-387 737,-409 1002,-409 1002,-387 737,-387"/>
<image xlink:href="../../images/foreignKeys.png" width="11px" height="12px" preserveAspectRatio="xMinYMin meet" x="742" y="-404"/>
<text text-anchor="start" x="766" y="-395.2" font-family="Helvetica,sans-Serif" font-size="11.00">network_service_id</text>
<polygon fill="none" stroke="black" points="737,-369 737,-387 1002,-387 1002,-369 737,-369"/>
<text text-anchor="start" x="740" y="-375.2" font-family="Helvetica,sans-Serif" font-size="11.00">...</text>
<polygon fill="#ffffff" stroke="none" points="737,-351 737,-369 868,-369 868,-351 737,-351"/>
<polygon fill="none" stroke="black" points="737,-351 737,-369 868,-369 868,-351 737,-351"/>
<text text-anchor="start" x="740" y="-357.2" font-family="Helvetica,sans-Serif" font-size="11.00">&lt; 2</text>
<polygon fill="#ffffff" stroke="none" points="868,-351 868,-369 935,-369 935,-351 868,-351"/>
<polygon fill="none" stroke="black" points="868,-351 868,-369 935,-369 935,-351 868,-351"/>
<text text-anchor="start" x="925" y="-357.2" font-family="Helvetica,sans-Serif" font-size="11.00"> &#160;</text>
<polygon fill="#ffffff" stroke="none" points="935,-351 935,-369 1002,-369 1002,-351 935,-351"/>
<polygon fill="none" stroke="black" points="935,-351 935,-369 1002,-369 1002,-351 935,-351"/>
<text text-anchor="start" x="992" y="-357.2" font-family="Helvetica,sans-Serif" font-size="11.00"> &#160;</text>
</a>
</g>
</g>
<!-- security_policy_rule_network_services&#45;&gt;security_policy_rules -->
<g id="edge3" class="edge"><title>security_policy_rule_network_services:security_policy_rule_id:w&#45;&gt;security_policy_rules:id.type:e</title>
<path fill="none" stroke="black" d="M721.509,-420C697.36,-420 686.451,-420 656.5,-420"/>
<polygon fill="black" stroke="black" points="728,-420 736,-423.6 732,-420 736,-420 736,-420 736,-420 732,-420 736,-416.4 728,-420 728,-420"/>
<ellipse fill="none" stroke="black" cx="724.8" cy="-420" rx="3.2" ry="3.2"/>
</g>
<!-- security_policy_rule_source_security_groups -->
<g id="node6" class="node"><title>security_policy_rule_source_security_groups</title>
<g id="a_node6"><a xlink:href="../../tables/security_policy_rule_source_security_groups.html" xlink:title="security_policy_rule_source_security_groups" target="_top">
<polygon fill="#ffffff" stroke="none" points="720,-206 720,-330 1018,-330 1018,-206 720,-206"/>
<polygon fill="#f5f5f5" stroke="none" points="720,-308 720,-330 1018,-330 1018,-308 720,-308"/>
<polygon fill="none" stroke="black" points="720,-308 720,-330 1018,-330 1018,-308 720,-308"/>
<text text-anchor="start" x="725" y="-317.2" font-family="Helvetica,sans-Serif" font-weight="bold" font-size="11.00">security_policy_rule_source_security_groups</text>
<text text-anchor="start" x="979" y="-316.2" font-family="Helvetica,sans-Serif" font-size="11.00">[table]</text>
<polygon fill="none" stroke="black" points="720,-286 720,-308 1018,-308 1018,-286 720,-286"/>
<image xlink:href="../../images/primaryKeys.png" width="11px" height="12px" preserveAspectRatio="xMinYMin meet" x="725" y="-303"/>
<text text-anchor="start" x="748" y="-294.2" font-family="Helvetica,sans-Serif" font-size="11.00">id</text>
<polygon fill="#ffffff" stroke="none" points="720,-264 720,-286 1018,-286 1018,-264 720,-264"/>
<polygon fill="none" stroke="black" points="720,-264 720,-286 1018,-286 1018,-264 720,-264"/>
<image xlink:href="../../images/foreignKeys.png" width="11px" height="12px" preserveAspectRatio="xMinYMin meet" x="725" y="-281"/>
<text text-anchor="start" x="748" y="-272.2" font-family="Helvetica,sans-Serif" font-size="11.00">security_policy_rule_id</text>
<polygon fill="#ffffff" stroke="none" points="720,-242 720,-264 1018,-264 1018,-242 720,-242"/>
<polygon fill="none" stroke="black" points="720,-242 720,-264 1018,-264 1018,-242 720,-242"/>
<image xlink:href="../../images/foreignKeys.png" width="11px" height="12px" preserveAspectRatio="xMinYMin meet" x="725" y="-259"/>
<text text-anchor="start" x="748" y="-250.2" font-family="Helvetica,sans-Serif" font-size="11.00">security_group_id</text>
<polygon fill="none" stroke="black" points="720,-224 720,-242 1018,-242 1018,-224 720,-224"/>
<text text-anchor="start" x="723" y="-230.2" font-family="Helvetica,sans-Serif" font-size="11.00">...</text>
<polygon fill="#ffffff" stroke="none" points="720,-206 720,-224 867,-224 867,-206 720,-206"/>
<polygon fill="none" stroke="black" points="720,-206 720,-224 867,-224 867,-206 720,-206"/>
<text text-anchor="start" x="723" y="-212.2" font-family="Helvetica,sans-Serif" font-size="11.00">&lt; 2</text>
<polygon fill="#ffffff" stroke="none" points="867,-206 867,-224 942,-224 942,-206 867,-206"/>
<polygon fill="none" stroke="black" points="867,-206 867,-224 942,-224 942,-206 867,-206"/>
<text text-anchor="start" x="932" y="-212.2" font-family="Helvetica,sans-Serif" font-size="11.00"> &#160;</text>
<polygon fill="#ffffff" stroke="none" points="942,-206 942,-224 1018,-224 1018,-206 942,-206"/>
<polygon fill="none" stroke="black" points="942,-206 942,-224 1018,-224 1018,-206 942,-206"/>
<text text-anchor="start" x="1008" y="-212.2" font-family="Helvetica,sans-Serif" font-size="11.00"> &#160;</text>
</a>
</g>
</g>
<!-- security_policy_rule_source_security_groups&#45;&gt;security_policy_rules -->
<g id="edge4" class="edge"><title>security_policy_rule_source_security_groups:security_policy_rule_id:w&#45;&gt;security_policy_rules:id.type:e</title>
<path fill="none" stroke="black" d="M704.837,-277.641C660.343,-297.293 721.057,-420 656.5,-420"/>
<polygon fill="black" stroke="black" points="711.136,-276.466 719.66,-278.539 715.068,-275.733 719,-275 719,-275 719,-275 715.068,-275.733 718.34,-271.461 711.136,-276.466 711.136,-276.466"/>
<ellipse fill="none" stroke="black" cx="707.99" cy="-277.053" rx="3.2" ry="3.2"/>
</g>
</g>
</svg>
