<?xml version="1.0" encoding="UTF-8" standalone="no"?>
<!DOCTYPE svg PUBLIC "-//W3C//DTD SVG 1.1//EN"
 "http://www.w3.org/Graphics/SVG/1.1/DTD/svg11.dtd">
<!-- Generated by graphviz version 2.38.0 (20140413.2041)
 -->
<!-- Title: oneDegreeRelationshipsDiagram Pages: 1 -->
<svg width="751pt" height="418pt"
 viewBox="0.00 0.00 751.00 418.00" xmlns="http://www.w3.org/2000/svg" xmlns:xlink="http://www.w3.org/1999/xlink">
<g id="graph0" class="graph" transform="scale(1 1) rotate(0) translate(4 414)">
<title>oneDegreeRelationshipsDiagram</title>
<polygon fill="#ffffff" stroke="none" points="-4,4 -4,-414 747,-414 747,4 -4,4"/>
<text text-anchor="middle" x="74.5" y="-7.2" font-family="Helvetica,sans-Serif" font-size="11.00">Generated by SchemaSpy</text>
<!-- service_template_tenants -->
<g id="node1" class="node"><title>service_template_tenants</title>
<g id="a_node1"><a xlink:href="../../tables/service_template_tenants.html" xlink:title="service_template_tenants" target="_top">
<polygon fill="#ffffff" stroke="none" points="464,-163 464,-317 735,-317 735,-163 464,-163"/>
<polygon fill="#f5f5f5" stroke="none" points="466.5,-293 466.5,-315 733.5,-315 733.5,-293 466.5,-293"/>
<polygon fill="none" stroke="black" points="466.5,-293 466.5,-315 733.5,-315 733.5,-293 466.5,-293"/>
<text text-anchor="start" x="471.5" y="-302.2" font-family="Helvetica,sans-Serif" font-weight="bold" font-size="11.00">service_template_tenants</text>
<text text-anchor="start" x="694.5" y="-301.2" font-family="Helvetica,sans-Serif" font-size="11.00">[table]</text>
<polygon fill="none" stroke="black" points="466.5,-271 466.5,-293 640.5,-293 640.5,-271 466.5,-271"/>
<image xlink:href="../../images/primaryKeys.png" width="11px" height="12px" preserveAspectRatio="xMinYMin meet" x="471.5" y="-288"/>
<text text-anchor="start" x="486.5" y="-279.2" font-family="Helvetica,sans-Serif" font-size="11.00">id</text>
<polygon fill="none" stroke="black" points="640.5,-271 640.5,-293 733.5,-293 733.5,-271 640.5,-271"/>
<text text-anchor="start" x="643.5" y="-279.2" font-family="Helvetica,sans-Serif" font-size="11.00">bigserial[19]</text>
<polygon fill="#ffffff" stroke="none" points="466.5,-249 466.5,-271 640.5,-271 640.5,-249 466.5,-249"/>
<polygon fill="none" stroke="black" points="466.5,-249 466.5,-271 640.5,-271 640.5,-249 466.5,-249"/>
<image xlink:href="../../images/foreignKeys.png" width="11px" height="12px" preserveAspectRatio="xMinYMin meet" x="471.5" y="-266"/>
<text text-anchor="start" x="486.5" y="-257.2" font-family="Helvetica,sans-Serif" font-size="11.00">service_template_id</text>
<polygon fill="none" stroke="black" points="640.5,-249 640.5,-271 733.5,-271 733.5,-249 640.5,-249"/>
<text text-anchor="start" x="643.5" y="-257.2" font-family="Helvetica,sans-Serif" font-size="11.00">int8[19]</text>
<polygon fill="#ffffff" stroke="none" points="466.5,-227 466.5,-249 640.5,-249 640.5,-227 466.5,-227"/>
<polygon fill="none" stroke="black" points="466.5,-227 466.5,-249 640.5,-249 640.5,-227 466.5,-227"/>
<image xlink:href="../../images/foreignKeys.png" width="11px" height="12px" preserveAspectRatio="xMinYMin meet" x="471.5" y="-244"/>
<text text-anchor="start" x="486.5" y="-235.2" font-family="Helvetica,sans-Serif" font-size="11.00">tenant_id</text>
<polygon fill="none" stroke="black" points="640.5,-227 640.5,-249 733.5,-249 733.5,-227 640.5,-227"/>
<text text-anchor="start" x="643.5" y="-235.2" font-family="Helvetica,sans-Serif" font-size="11.00">int8[19]</text>
<polygon fill="none" stroke="black" points="466.5,-205 466.5,-227 640.5,-227 640.5,-205 466.5,-205"/>
<text text-anchor="start" x="486.5" y="-213.2" font-family="Helvetica,sans-Serif" font-size="11.00">created_at</text>
<polygon fill="none" stroke="black" points="640.5,-205 640.5,-227 733.5,-227 733.5,-205 640.5,-205"/>
<text text-anchor="start" x="643.5" y="-213.2" font-family="Helvetica,sans-Serif" font-size="11.00">timestamp[29,6]</text>
<polygon fill="none" stroke="black" points="466.5,-183 466.5,-205 640.5,-205 640.5,-183 466.5,-183"/>
<text text-anchor="start" x="486.5" y="-191.2" font-family="Helvetica,sans-Serif" font-size="11.00">updated_at</text>
<polygon fill="none" stroke="black" points="640.5,-183 640.5,-205 733.5,-205 733.5,-183 640.5,-183"/>
<text text-anchor="start" x="643.5" y="-191.2" font-family="Helvetica,sans-Serif" font-size="11.00">timestamp[29,6]</text>
<polygon fill="#ffffff" stroke="none" points="466.5,-165 466.5,-183 558.5,-183 558.5,-165 466.5,-165"/>
<polygon fill="none" stroke="black" points="466.5,-165 466.5,-183 558.5,-183 558.5,-165 466.5,-165"/>
<text text-anchor="start" x="469.5" y="-171.2" font-family="Helvetica,sans-Serif" font-size="11.00">&lt; 2</text>
<polygon fill="#ffffff" stroke="none" points="558.5,-165 558.5,-183 640.5,-183 640.5,-165 558.5,-165"/>
<polygon fill="none" stroke="black" points="558.5,-165 558.5,-183 640.5,-183 640.5,-165 558.5,-165"/>
<text text-anchor="start" x="630.5" y="-171.2" font-family="Helvetica,sans-Serif" font-size="11.00"> &#160;</text>
<polygon fill="#ffffff" stroke="none" points="640.5,-165 640.5,-183 733.5,-183 733.5,-165 640.5,-165"/>
<polygon fill="none" stroke="black" points="640.5,-165 640.5,-183 733.5,-183 733.5,-165 640.5,-165"/>
<text text-anchor="start" x="713.5" y="-171.2" font-family="Helvetica,sans-Serif" font-size="11.00">0 &gt;</text>
<polygon fill="none" stroke="black" stroke-width="2" points="465,-164 465,-316 734,-316 734,-164 465,-164"/>
</a>
</g>
</g>
<!-- service_templates -->
<g id="node2" class="node"><title>service_templates</title>
<g id="a_node2"><a xlink:href="../../tables/service_templates.html" xlink:title="service_templates" target="_top">
<polygon fill="#ffffff" stroke="none" points="228,-150 228,-406 415,-406 415,-150 228,-150"/>
<polygon fill="#f5f5f5" stroke="none" points="228.5,-384 228.5,-406 415.5,-406 415.5,-384 228.5,-384"/>
<polygon fill="none" stroke="black" points="228.5,-384 228.5,-406 415.5,-406 415.5,-384 228.5,-384"/>
<text text-anchor="start" x="233.5" y="-393.2" font-family="Helvetica,sans-Serif" font-weight="bold" font-size="11.00">service_templates</text>
<text text-anchor="start" x="376.5" y="-392.2" font-family="Helvetica,sans-Serif" font-size="11.00">[table]</text>
<polygon fill="none" stroke="black" points="228.5,-362 228.5,-384 415.5,-384 415.5,-362 228.5,-362"/>
<image xlink:href="../../images/primaryKeys.png" width="11px" height="12px" preserveAspectRatio="xMinYMin meet" x="233.5" y="-379"/>
<text text-anchor="start" x="248.5" y="-370.2" font-family="Helvetica,sans-Serif" font-size="11.00">id</text>
<polygon fill="#ffffff" stroke="none" points="228.5,-340 228.5,-362 415.5,-362 415.5,-340 228.5,-340"/>
<polygon fill="none" stroke="black" points="228.5,-340 228.5,-362 415.5,-362 415.5,-340 228.5,-340"/>
<text text-anchor="start" x="248.5" y="-348.2" font-family="Helvetica,sans-Serif" font-size="11.00">type</text>
<polygon fill="none" stroke="black" points="228.5,-318 228.5,-340 415.5,-340 415.5,-318 228.5,-318"/>
<image xlink:href="../../images/foreignKeys.png" width="11px" height="12px" preserveAspectRatio="xMinYMin meet" x="233.5" y="-335"/>
<text text-anchor="start" x="248.5" y="-326.2" font-family="Helvetica,sans-Serif" font-size="11.00">service_template_id</text>
<polygon fill="none" stroke="black" points="228.5,-296 228.5,-318 415.5,-318 415.5,-296 228.5,-296"/>
<image xlink:href="../../images/foreignKeys.png" width="11px" height="12px" preserveAspectRatio="xMinYMin meet" x="233.5" y="-313"/>
<text text-anchor="start" x="248.5" y="-304.2" font-family="Helvetica,sans-Serif" font-size="11.00">miq_group_id</text>
<polygon fill="none" stroke="black" points="228.5,-274 228.5,-296 415.5,-296 415.5,-274 228.5,-274"/>
<image xlink:href="../../images/foreignKeys.png" width="11px" height="12px" preserveAspectRatio="xMinYMin meet" x="233.5" y="-291"/>
<text text-anchor="start" x="248.5" y="-282.2" font-family="Helvetica,sans-Serif" font-size="11.00">service_template_catalog_id</text>
<polygon fill="none" stroke="black" points="228.5,-252 228.5,-274 415.5,-274 415.5,-252 228.5,-252"/>
<image xlink:href="../../images/foreignKeys.png" width="11px" height="12px" preserveAspectRatio="xMinYMin meet" x="233.5" y="-269"/>
<text text-anchor="start" x="248.5" y="-260.2" font-family="Helvetica,sans-Serif" font-size="11.00">tenant_id</text>
<polygon fill="#ffffff" stroke="none" points="228.5,-230 228.5,-252 415.5,-252 415.5,-230 228.5,-230"/>
<polygon fill="none" stroke="black" points="228.5,-230 228.5,-252 415.5,-252 415.5,-230 228.5,-230"/>
<text text-anchor="start" x="248.5" y="-238.2" font-family="Helvetica,sans-Serif" font-size="11.00">generic_subtype</text>
<polygon fill="none" stroke="black" points="228.5,-208 228.5,-230 415.5,-230 415.5,-208 228.5,-208"/>
<image xlink:href="../../images/foreignKeys.png" width="11px" height="12px" preserveAspectRatio="xMinYMin meet" x="233.5" y="-225"/>
<text text-anchor="start" x="248.5" y="-216.2" font-family="Helvetica,sans-Serif" font-size="11.00">zone_id</text>
<polygon fill="#ffffff" stroke="none" points="228.5,-186 228.5,-208 415.5,-208 415.5,-186 228.5,-186"/>
<polygon fill="none" stroke="black" points="228.5,-186 228.5,-208 415.5,-208 415.5,-186 228.5,-186"/>
<image xlink:href="../../images/foreignKeys.png" width="11px" height="12px" preserveAspectRatio="xMinYMin meet" x="233.5" y="-203"/>
<text text-anchor="start" x="248.5" y="-194.2" font-family="Helvetica,sans-Serif" font-size="11.00">currency_id</text>
<polygon fill="none" stroke="black" points="228.5,-168 228.5,-186 415.5,-186 415.5,-168 228.5,-168"/>
<text text-anchor="start" x="231.5" y="-174.2" font-family="Helvetica,sans-Serif" font-size="11.00">...</text>
<polygon fill="#ffffff" stroke="none" points="228.5,-150 228.5,-168 315.5,-168 315.5,-150 228.5,-150"/>
<polygon fill="none" stroke="black" points="228.5,-150 228.5,-168 315.5,-168 315.5,-150 228.5,-150"/>
<text text-anchor="start" x="231.5" y="-156.2" font-family="Helvetica,sans-Serif" font-size="11.00">&lt; 6</text>
<polygon fill="#ffffff" stroke="none" points="315.5,-150 315.5,-168 360.5,-168 360.5,-150 315.5,-150"/>
<polygon fill="none" stroke="black" points="315.5,-150 315.5,-168 360.5,-168 360.5,-150 315.5,-150"/>
<text text-anchor="start" x="350.5" y="-156.2" font-family="Helvetica,sans-Serif" font-size="11.00"> &#160;</text>
<polygon fill="#ffffff" stroke="none" points="360.5,-150 360.5,-168 415.5,-168 415.5,-150 360.5,-150"/>
<polygon fill="none" stroke="black" points="360.5,-150 360.5,-168 415.5,-168 415.5,-150 360.5,-150"/>
<text text-anchor="start" x="395.5" y="-156.2" font-family="Helvetica,sans-Serif" font-size="11.00">4 &gt;</text>
</a>
</g>
</g>
<!-- service_template_tenants&#45;&gt;service_templates -->
<g id="edge1" class="edge"><title>service_template_tenants:service_template_id:w&#45;&gt;service_templates:id:e</title>
<path fill="none" stroke="black" d="M451.372,-263.76C422.611,-283.367 465.253,-373 416.5,-373"/>
<polygon fill="black" stroke="black" points="457.769,-262.057 466.426,-263.479 461.635,-261.029 465.5,-260 465.5,-260 465.5,-260 461.635,-261.029 464.574,-256.521 457.769,-262.057 457.769,-262.057"/>
<ellipse fill="none" stroke="black" cx="454.677" cy="-262.88" rx="3.2" ry="3.2"/>
</g>
<!-- tenants -->
<g id="node3" class="node"><title>tenants</title>
<g id="a_node3"><a xlink:href="../../tables/tenants.html" xlink:title="tenants" target="_top">
<polygon fill="#ffffff" stroke="none" points="8,-37 8,-227 179,-227 179,-37 8,-37"/>
<polygon fill="#f5f5f5" stroke="none" points="8.5,-205 8.5,-227 179.5,-227 179.5,-205 8.5,-205"/>
<polygon fill="none" stroke="black" points="8.5,-205 8.5,-227 179.5,-227 179.5,-205 8.5,-205"/>
<text text-anchor="start" x="13.5" y="-214.2" font-family="Helvetica,sans-Serif" font-weight="bold" font-size="11.00">tenants</text>
<text text-anchor="start" x="140.5" y="-213.2" font-family="Helvetica,sans-Serif" font-size="11.00">[table]</text>
<polygon fill="none" stroke="black" points="8.5,-183 8.5,-205 179.5,-205 179.5,-183 8.5,-183"/>
<image xlink:href="../../images/primaryKeys.png" width="11px" height="12px" preserveAspectRatio="xMinYMin meet" x="13.5" y="-200"/>
<text text-anchor="start" x="28.5" y="-191.2" font-family="Helvetica,sans-Serif" font-size="11.00">id</text>
<polygon fill="#ffffff" stroke="none" points="8.5,-161 8.5,-183 179.5,-183 179.5,-161 8.5,-161"/>
<polygon fill="none" stroke="black" points="8.5,-161 8.5,-183 179.5,-183 179.5,-161 8.5,-161"/>
<text text-anchor="start" x="28.5" y="-169.2" font-family="Helvetica,sans-Serif" font-size="11.00">domain</text>
<polygon fill="#ffffff" stroke="none" points="8.5,-139 8.5,-161 179.5,-161 179.5,-139 8.5,-139"/>
<polygon fill="none" stroke="black" points="8.5,-139 8.5,-161 179.5,-161 179.5,-139 8.5,-139"/>
<text text-anchor="start" x="28.5" y="-147.2" font-family="Helvetica,sans-Serif" font-size="11.00">subdomain</text>
<polygon fill="#ffffff" stroke="none" points="8.5,-117 8.5,-139 179.5,-139 179.5,-117 8.5,-117"/>
<polygon fill="none" stroke="black" points="8.5,-117 8.5,-139 179.5,-139 179.5,-117 8.5,-117"/>
<text text-anchor="start" x="28.5" y="-125.2" font-family="Helvetica,sans-Serif" font-size="11.00">ancestry</text>
<polygon fill="#ffffff" stroke="none" points="8.5,-95 8.5,-117 179.5,-117 179.5,-95 8.5,-95"/>
<polygon fill="none" stroke="black" points="8.5,-95 8.5,-117 179.5,-117 179.5,-95 8.5,-95"/>
<text text-anchor="start" x="28.5" y="-103.2" font-family="Helvetica,sans-Serif" font-size="11.00">source_type</text>
<polygon fill="#ffffff" stroke="none" points="8.5,-73 8.5,-95 179.5,-95 179.5,-73 8.5,-73"/>
<polygon fill="none" stroke="black" points="8.5,-73 8.5,-95 179.5,-95 179.5,-73 8.5,-73"/>
<text text-anchor="start" x="28.5" y="-81.2" font-family="Helvetica,sans-Serif" font-size="11.00">source_id</text>
<polygon fill="none" stroke="black" points="8.5,-55 8.5,-73 179.5,-73 179.5,-55 8.5,-55"/>
<text text-anchor="start" x="11.5" y="-61.2" font-family="Helvetica,sans-Serif" font-size="11.00">...</text>
<polygon fill="#ffffff" stroke="none" points="8.5,-37 8.5,-55 78.5,-55 78.5,-37 8.5,-37"/>
<polygon fill="none" stroke="black" points="8.5,-37 8.5,-55 78.5,-55 78.5,-37 8.5,-37"/>
<text text-anchor="start" x="11.5" y="-43.2" font-family="Helvetica,sans-Serif" font-size="11.00"> &#160;</text>
<polygon fill="#ffffff" stroke="none" points="78.5,-37 78.5,-55 120.5,-55 120.5,-37 78.5,-37"/>
<polygon fill="none" stroke="black" points="78.5,-37 78.5,-55 120.5,-55 120.5,-37 78.5,-37"/>
<text text-anchor="start" x="110.5" y="-43.2" font-family="Helvetica,sans-Serif" font-size="11.00"> &#160;</text>
<polygon fill="#ffffff" stroke="none" points="120.5,-37 120.5,-55 179.5,-55 179.5,-37 120.5,-37"/>
<polygon fill="none" stroke="black" points="120.5,-37 120.5,-55 179.5,-55 179.5,-37 120.5,-37"/>
<text text-anchor="start" x="152.5" y="-43.2" font-family="Helvetica,sans-Serif" font-size="11.00">20 &gt;</text>
</a>
</g>
</g>
<!-- service_template_tenants&#45;&gt;tenants -->
<g id="edge2" class="edge"><title>service_template_tenants:tenant_id:w&#45;&gt;tenants:id:e</title>
<path fill="none" stroke="black" d="M451.356,-234.666C428.139,-220.213 457.574,-162.691 423,-140 347.572,-90.4956 300.455,-99.1696 220,-140 193.484,-153.457 210.235,-194 180.5,-194"/>
<polygon fill="black" stroke="black" points="457.713,-236.164 464.674,-241.504 461.607,-237.082 465.5,-238 465.5,-238 465.5,-238 461.607,-237.082 466.326,-234.496 457.713,-236.164 457.713,-236.164"/>
<ellipse fill="none" stroke="black" cx="454.599" cy="-235.43" rx="3.2" ry="3.2"/>
</g>
<!-- service_templates&#45;&gt;tenants -->
<g id="edge3" class="edge"><title>service_templates:tenant_id:w&#45;&gt;tenants:id:e</title>
<path fill="none" stroke="black" d="M213.863,-258.038C197.592,-242.217 211.518,-194 180.5,-194"/>
<polygon fill="black" stroke="black" points="219.982,-260.264 226.269,-266.383 223.741,-261.632 227.5,-263 227.5,-263 227.5,-263 223.741,-261.632 228.731,-259.617 219.982,-260.264 219.982,-260.264"/>
<ellipse fill="none" stroke="black" cx="216.975" cy="-259.17" rx="3.20001" ry="3.20001"/>
</g>
</g>
</svg>
