<?xml version="1.0" encoding="UTF-8" standalone="no"?>
<!DOCTYPE svg PUBLIC "-//W3C//DTD SVG 1.1//EN"
 "http://www.w3.org/Graphics/SVG/1.1/DTD/svg11.dtd">
<!-- Generated by graphviz version 2.38.0 (20140413.2041)
 -->
<!-- Title: oneDegreeRelationshipsDiagram Pages: 1 -->
<svg width="1245pt" height="878pt"
 viewBox="0.00 0.00 1245.00 878.00" xmlns="http://www.w3.org/2000/svg" xmlns:xlink="http://www.w3.org/1999/xlink">
<g id="graph0" class="graph" transform="scale(1 1) rotate(0) translate(4 874)">
<title>oneDegreeRelationshipsDiagram</title>
<polygon fill="#ffffff" stroke="none" points="-4,4 -4,-874 1241,-874 1241,4 -4,4"/>
<text text-anchor="middle" x="74.5" y="-7.2" font-family="Helvetica,sans-Serif" font-size="11.00">Generated by SchemaSpy</text>
<!-- miq_groups -->
<g id="node1" class="node"><title>miq_groups</title>
<g id="a_node1"><a xlink:href="../../tables/miq_groups.html" xlink:title="miq_groups" target="_top">
<polygon fill="#ffffff" stroke="none" points="256,-460 256,-562 398,-562 398,-460 256,-460"/>
<polygon fill="#f5f5f5" stroke="none" points="256,-540 256,-562 398,-562 398,-540 256,-540"/>
<polygon fill="none" stroke="black" points="256,-540 256,-562 398,-562 398,-540 256,-540"/>
<text text-anchor="start" x="261" y="-549.2" font-family="Helvetica,sans-Serif" font-weight="bold" font-size="11.00">miq_groups</text>
<text text-anchor="start" x="359" y="-548.2" font-family="Helvetica,sans-Serif" font-size="11.00">[table]</text>
<polygon fill="none" stroke="black" points="256,-518 256,-540 398,-540 398,-518 256,-518"/>
<image xlink:href="../../images/primaryKeys.png" width="11px" height="12px" preserveAspectRatio="xMinYMin meet" x="261" y="-535"/>
<text text-anchor="start" x="276" y="-526.2" font-family="Helvetica,sans-Serif" font-size="11.00">id</text>
<polygon fill="none" stroke="black" points="256,-496 256,-518 398,-518 398,-496 256,-496"/>
<image xlink:href="../../images/foreignKeys.png" width="11px" height="12px" preserveAspectRatio="xMinYMin meet" x="261" y="-513"/>
<text text-anchor="start" x="276" y="-504.2" font-family="Helvetica,sans-Serif" font-size="11.00">tenant_id</text>
<polygon fill="none" stroke="black" points="256,-478 256,-496 398,-496 398,-478 256,-478"/>
<text text-anchor="start" x="259" y="-484.2" font-family="Helvetica,sans-Serif" font-size="11.00">...</text>
<polygon fill="#ffffff" stroke="none" points="256,-460 256,-478 317,-478 317,-460 256,-460"/>
<polygon fill="none" stroke="black" points="256,-460 256,-478 317,-478 317,-460 256,-460"/>
<text text-anchor="start" x="259" y="-466.2" font-family="Helvetica,sans-Serif" font-size="11.00">&lt; 1</text>
<polygon fill="#ffffff" stroke="none" points="317,-460 317,-478 349,-478 349,-460 317,-460"/>
<polygon fill="none" stroke="black" points="317,-460 317,-478 349,-478 349,-460 317,-460"/>
<text text-anchor="start" x="339" y="-466.2" font-family="Helvetica,sans-Serif" font-size="11.00"> &#160;</text>
<polygon fill="#ffffff" stroke="none" points="349,-460 349,-478 398,-478 398,-460 349,-460"/>
<polygon fill="none" stroke="black" points="349,-460 349,-478 398,-478 398,-460 349,-460"/>
<text text-anchor="start" x="371" y="-466.2" font-family="Helvetica,sans-Serif" font-size="11.00">10 &gt;</text>
</a>
</g>
</g>
<!-- tenants -->
<g id="node2" class="node"><title>tenants</title>
<g id="a_node2"><a xlink:href="../../tables/tenants.html" xlink:title="tenants" target="_top">
<polygon fill="#ffffff" stroke="none" points="8,-227 8,-417 179,-417 179,-227 8,-227"/>
<polygon fill="#f5f5f5" stroke="none" points="8.5,-395 8.5,-417 179.5,-417 179.5,-395 8.5,-395"/>
<polygon fill="none" stroke="black" points="8.5,-395 8.5,-417 179.5,-417 179.5,-395 8.5,-395"/>
<text text-anchor="start" x="13.5" y="-404.2" font-family="Helvetica,sans-Serif" font-weight="bold" font-size="11.00">tenants</text>
<text text-anchor="start" x="140.5" y="-403.2" font-family="Helvetica,sans-Serif" font-size="11.00">[table]</text>
<polygon fill="none" stroke="black" points="8.5,-373 8.5,-395 179.5,-395 179.5,-373 8.5,-373"/>
<image xlink:href="../../images/primaryKeys.png" width="11px" height="12px" preserveAspectRatio="xMinYMin meet" x="13.5" y="-390"/>
<text text-anchor="start" x="28.5" y="-381.2" font-family="Helvetica,sans-Serif" font-size="11.00">id</text>
<polygon fill="#ffffff" stroke="none" points="8.5,-351 8.5,-373 179.5,-373 179.5,-351 8.5,-351"/>
<polygon fill="none" stroke="black" points="8.5,-351 8.5,-373 179.5,-373 179.5,-351 8.5,-351"/>
<text text-anchor="start" x="28.5" y="-359.2" font-family="Helvetica,sans-Serif" font-size="11.00">domain</text>
<polygon fill="#ffffff" stroke="none" points="8.5,-329 8.5,-351 179.5,-351 179.5,-329 8.5,-329"/>
<polygon fill="none" stroke="black" points="8.5,-329 8.5,-351 179.5,-351 179.5,-329 8.5,-329"/>
<text text-anchor="start" x="28.5" y="-337.2" font-family="Helvetica,sans-Serif" font-size="11.00">subdomain</text>
<polygon fill="#ffffff" stroke="none" points="8.5,-307 8.5,-329 179.5,-329 179.5,-307 8.5,-307"/>
<polygon fill="none" stroke="black" points="8.5,-307 8.5,-329 179.5,-329 179.5,-307 8.5,-307"/>
<text text-anchor="start" x="28.5" y="-315.2" font-family="Helvetica,sans-Serif" font-size="11.00">ancestry</text>
<polygon fill="#ffffff" stroke="none" points="8.5,-285 8.5,-307 179.5,-307 179.5,-285 8.5,-285"/>
<polygon fill="none" stroke="black" points="8.5,-285 8.5,-307 179.5,-307 179.5,-285 8.5,-285"/>
<text text-anchor="start" x="28.5" y="-293.2" font-family="Helvetica,sans-Serif" font-size="11.00">source_type</text>
<polygon fill="#ffffff" stroke="none" points="8.5,-263 8.5,-285 179.5,-285 179.5,-263 8.5,-263"/>
<polygon fill="none" stroke="black" points="8.5,-263 8.5,-285 179.5,-285 179.5,-263 8.5,-263"/>
<text text-anchor="start" x="28.5" y="-271.2" font-family="Helvetica,sans-Serif" font-size="11.00">source_id</text>
<polygon fill="none" stroke="black" points="8.5,-245 8.5,-263 179.5,-263 179.5,-245 8.5,-245"/>
<text text-anchor="start" x="11.5" y="-251.2" font-family="Helvetica,sans-Serif" font-size="11.00">...</text>
<polygon fill="#ffffff" stroke="none" points="8.5,-227 8.5,-245 78.5,-245 78.5,-227 8.5,-227"/>
<polygon fill="none" stroke="black" points="8.5,-227 8.5,-245 78.5,-245 78.5,-227 8.5,-227"/>
<text text-anchor="start" x="11.5" y="-233.2" font-family="Helvetica,sans-Serif" font-size="11.00"> &#160;</text>
<polygon fill="#ffffff" stroke="none" points="78.5,-227 78.5,-245 120.5,-245 120.5,-227 78.5,-227"/>
<polygon fill="none" stroke="black" points="78.5,-227 78.5,-245 120.5,-245 120.5,-227 78.5,-227"/>
<text text-anchor="start" x="110.5" y="-233.2" font-family="Helvetica,sans-Serif" font-size="11.00"> &#160;</text>
<polygon fill="#ffffff" stroke="none" points="120.5,-227 120.5,-245 179.5,-245 179.5,-227 120.5,-227"/>
<polygon fill="none" stroke="black" points="120.5,-227 120.5,-245 179.5,-245 179.5,-227 120.5,-227"/>
<text text-anchor="start" x="152.5" y="-233.2" font-family="Helvetica,sans-Serif" font-size="11.00">20 &gt;</text>
</a>
</g>
</g>
<!-- miq_groups&#45;&gt;tenants -->
<g id="edge1" class="edge"><title>miq_groups:tenant_id:w&#45;&gt;tenants:id:e</title>
<path fill="none" stroke="black" d="M240.706,-504.317C199.555,-486.329 238.795,-384 180.5,-384"/>
<polygon fill="black" stroke="black" points="247.137,-505.524 254.336,-510.538 251.069,-506.262 255,-507 255,-507 255,-507 251.069,-506.262 255.664,-503.462 247.137,-505.524 247.137,-505.524"/>
<ellipse fill="none" stroke="black" cx="243.992" cy="-504.933" rx="3.2" ry="3.2"/>
</g>
<!-- service_resources -->
<g id="node3" class="node"><title>service_resources</title>
<g id="a_node3"><a xlink:href="../../tables/service_resources.html" xlink:title="service_resources" target="_top">
<polygon fill="#ffffff" stroke="none" points="1081,-615 1081,-739 1229,-739 1229,-615 1081,-615"/>
<polygon fill="#f5f5f5" stroke="none" points="1081,-717 1081,-739 1229,-739 1229,-717 1081,-717"/>
<polygon fill="none" stroke="black" points="1081,-717 1081,-739 1229,-739 1229,-717 1081,-717"/>
<text text-anchor="start" x="1086" y="-726.2" font-family="Helvetica,sans-Serif" font-weight="bold" font-size="11.00">service_resources</text>
<text text-anchor="start" x="1190" y="-725.2" font-family="Helvetica,sans-Serif" font-size="11.00">[table]</text>
<polygon fill="none" stroke="black" points="1081,-695 1081,-717 1229,-717 1229,-695 1081,-695"/>
<image xlink:href="../../images/primaryKeys.png" width="11px" height="12px" preserveAspectRatio="xMinYMin meet" x="1086" y="-712"/>
<text text-anchor="start" x="1106" y="-703.2" font-family="Helvetica,sans-Serif" font-size="11.00">id</text>
<polygon fill="none" stroke="black" points="1081,-673 1081,-695 1229,-695 1229,-673 1081,-673"/>
<image xlink:href="../../images/foreignKeys.png" width="11px" height="12px" preserveAspectRatio="xMinYMin meet" x="1086" y="-690"/>
<text text-anchor="start" x="1106" y="-681.2" font-family="Helvetica,sans-Serif" font-size="11.00">service_template_id</text>
<polygon fill="none" stroke="black" points="1081,-651 1081,-673 1229,-673 1229,-651 1081,-651"/>
<image xlink:href="../../images/foreignKeys.png" width="11px" height="12px" preserveAspectRatio="xMinYMin meet" x="1086" y="-668"/>
<text text-anchor="start" x="1106" y="-659.2" font-family="Helvetica,sans-Serif" font-size="11.00">service_id</text>
<polygon fill="none" stroke="black" points="1081,-633 1081,-651 1229,-651 1229,-633 1081,-633"/>
<text text-anchor="start" x="1084" y="-639.2" font-family="Helvetica,sans-Serif" font-size="11.00">...</text>
<polygon fill="#ffffff" stroke="none" points="1081,-615 1081,-633 1153,-633 1153,-615 1081,-615"/>
<polygon fill="none" stroke="black" points="1081,-615 1081,-633 1153,-633 1153,-615 1081,-615"/>
<text text-anchor="start" x="1084" y="-621.2" font-family="Helvetica,sans-Serif" font-size="11.00">&lt; 2</text>
<polygon fill="#ffffff" stroke="none" points="1153,-615 1153,-633 1191,-633 1191,-615 1153,-615"/>
<polygon fill="none" stroke="black" points="1153,-615 1153,-633 1191,-633 1191,-615 1153,-615"/>
<text text-anchor="start" x="1181" y="-621.2" font-family="Helvetica,sans-Serif" font-size="11.00"> &#160;</text>
<polygon fill="#ffffff" stroke="none" points="1191,-615 1191,-633 1229,-633 1229,-615 1191,-615"/>
<polygon fill="none" stroke="black" points="1191,-615 1191,-633 1229,-633 1229,-615 1191,-615"/>
<text text-anchor="start" x="1219" y="-621.2" font-family="Helvetica,sans-Serif" font-size="11.00"> &#160;</text>
</a>
</g>
</g>
<!-- services -->
<g id="node4" class="node"><title>services</title>
<g id="a_node4"><a xlink:href="../../tables/services.html" xlink:title="services" target="_top">
<polygon fill="#ffffff" stroke="none" points="859,-466 859,-678 1009,-678 1009,-466 859,-466"/>
<polygon fill="#f5f5f5" stroke="none" points="859,-656 859,-678 1009,-678 1009,-656 859,-656"/>
<polygon fill="none" stroke="black" points="859,-656 859,-678 1009,-678 1009,-656 859,-656"/>
<text text-anchor="start" x="864" y="-665.2" font-family="Helvetica,sans-Serif" font-weight="bold" font-size="11.00">services</text>
<text text-anchor="start" x="970" y="-664.2" font-family="Helvetica,sans-Serif" font-size="11.00">[table]</text>
<polygon fill="none" stroke="black" points="859,-634 859,-656 1009,-656 1009,-634 859,-634"/>
<image xlink:href="../../images/primaryKeys.png" width="11px" height="12px" preserveAspectRatio="xMinYMin meet" x="864" y="-651"/>
<text text-anchor="start" x="879" y="-642.2" font-family="Helvetica,sans-Serif" font-size="11.00">id</text>
<polygon fill="#ffffff" stroke="none" points="859,-612 859,-634 1009,-634 1009,-612 859,-612"/>
<polygon fill="none" stroke="black" points="859,-612 859,-634 1009,-634 1009,-612 859,-612"/>
<text text-anchor="start" x="879" y="-620.2" font-family="Helvetica,sans-Serif" font-size="11.00">type</text>
<polygon fill="none" stroke="black" points="859,-590 859,-612 1009,-612 1009,-590 859,-590"/>
<image xlink:href="../../images/foreignKeys.png" width="11px" height="12px" preserveAspectRatio="xMinYMin meet" x="864" y="-607"/>
<text text-anchor="start" x="879" y="-598.2" font-family="Helvetica,sans-Serif" font-size="11.00">service_template_id</text>
<polygon fill="none" stroke="black" points="859,-568 859,-590 1009,-590 1009,-568 859,-568"/>
<image xlink:href="../../images/foreignKeys.png" width="11px" height="12px" preserveAspectRatio="xMinYMin meet" x="864" y="-585"/>
<text text-anchor="start" x="879" y="-576.2" font-family="Helvetica,sans-Serif" font-size="11.00">miq_group_id</text>
<polygon fill="none" stroke="black" points="859,-546 859,-568 1009,-568 1009,-546 859,-546"/>
<image xlink:href="../../images/foreignKeys.png" width="11px" height="12px" preserveAspectRatio="xMinYMin meet" x="864" y="-563"/>
<text text-anchor="start" x="879" y="-554.2" font-family="Helvetica,sans-Serif" font-size="11.00">tenant_id</text>
<polygon fill="#ffffff" stroke="none" points="859,-524 859,-546 1009,-546 1009,-524 859,-524"/>
<polygon fill="none" stroke="black" points="859,-524 859,-546 1009,-546 1009,-524 859,-524"/>
<text text-anchor="start" x="879" y="-532.2" font-family="Helvetica,sans-Serif" font-size="11.00">ancestry</text>
<polygon fill="#ffffff" stroke="none" points="859,-502 859,-524 1009,-524 1009,-502 859,-502"/>
<polygon fill="none" stroke="black" points="859,-502 859,-524 1009,-524 1009,-502 859,-502"/>
<image xlink:href="../../images/foreignKeys.png" width="11px" height="12px" preserveAspectRatio="xMinYMin meet" x="864" y="-519"/>
<text text-anchor="start" x="879" y="-510.2" font-family="Helvetica,sans-Serif" font-size="11.00">currency_id</text>
<polygon fill="none" stroke="black" points="859,-484 859,-502 1009,-502 1009,-484 859,-484"/>
<text text-anchor="start" x="862" y="-490.2" font-family="Helvetica,sans-Serif" font-size="11.00">...</text>
<polygon fill="#ffffff" stroke="none" points="859,-466 859,-484 927,-484 927,-466 859,-466"/>
<polygon fill="none" stroke="black" points="859,-466 859,-484 927,-484 927,-466 859,-466"/>
<text text-anchor="start" x="862" y="-472.2" font-family="Helvetica,sans-Serif" font-size="11.00">&lt; 4</text>
<polygon fill="#ffffff" stroke="none" points="927,-466 927,-484 963,-484 963,-466 927,-466"/>
<polygon fill="none" stroke="black" points="927,-466 927,-484 963,-484 963,-466 927,-466"/>
<text text-anchor="start" x="953" y="-472.2" font-family="Helvetica,sans-Serif" font-size="11.00"> &#160;</text>
<polygon fill="#ffffff" stroke="none" points="963,-466 963,-484 1009,-484 1009,-466 963,-466"/>
<polygon fill="none" stroke="black" points="963,-466 963,-484 1009,-484 1009,-466 963,-466"/>
<text text-anchor="start" x="989" y="-472.2" font-family="Helvetica,sans-Serif" font-size="11.00">1 &gt;</text>
</a>
</g>
</g>
<!-- service_resources&#45;&gt;services -->
<g id="edge2" class="edge"><title>service_resources:service_id:w&#45;&gt;services:id:e</title>
<path fill="none" stroke="black" d="M1065.54,-660.666C1045.16,-656.658 1036.51,-645 1010,-645"/>
<polygon fill="black" stroke="black" points="1072.03,-661.265 1079.67,-665.585 1076.02,-661.633 1080,-662 1080,-662 1080,-662 1076.02,-661.633 1080.33,-658.415 1072.03,-661.265 1072.03,-661.265"/>
<ellipse fill="none" stroke="black" cx="1068.85" cy="-660.971" rx="3.2" ry="3.2"/>
</g>
<!-- service_templates -->
<g id="node5" class="node"><title>service_templates</title>
<g id="a_node5"><a xlink:href="../../tables/service_templates.html" xlink:title="service_templates" target="_top">
<polygon fill="#ffffff" stroke="none" points="475,-165 475,-737 787,-737 787,-165 475,-165"/>
<polygon fill="#f5f5f5" stroke="none" points="477,-713 477,-735 785,-735 785,-713 477,-713"/>
<polygon fill="none" stroke="black" points="477,-713 477,-735 785,-735 785,-713 477,-713"/>
<text text-anchor="start" x="482" y="-722.2" font-family="Helvetica,sans-Serif" font-weight="bold" font-size="11.00">service_templates</text>
<text text-anchor="start" x="746" y="-721.2" font-family="Helvetica,sans-Serif" font-size="11.00">[table]</text>
<polygon fill="none" stroke="black" points="477,-691 477,-713 664,-713 664,-691 477,-691"/>
<image xlink:href="../../images/primaryKeys.png" width="11px" height="12px" preserveAspectRatio="xMinYMin meet" x="482" y="-708"/>
<text text-anchor="start" x="497" y="-699.2" font-family="Helvetica,sans-Serif" font-size="11.00">id</text>
<polygon fill="none" stroke="black" points="664,-691 664,-713 785,-713 785,-691 664,-691"/>
<text text-anchor="start" x="667" y="-699.2" font-family="Helvetica,sans-Serif" font-size="11.00">bigserial[19]</text>
<polygon fill="none" stroke="black" points="477,-669 477,-691 664,-691 664,-669 477,-669"/>
<text text-anchor="start" x="497" y="-677.2" font-family="Helvetica,sans-Serif" font-size="11.00">name</text>
<polygon fill="none" stroke="black" points="664,-669 664,-691 785,-691 785,-669 664,-669"/>
<text text-anchor="start" x="667" y="-677.2" font-family="Helvetica,sans-Serif" font-size="11.00">varchar[2147483647]</text>
<polygon fill="none" stroke="black" points="477,-647 477,-669 664,-669 664,-647 477,-647"/>
<text text-anchor="start" x="497" y="-655.2" font-family="Helvetica,sans-Serif" font-size="11.00">description</text>
<polygon fill="none" stroke="black" points="664,-647 664,-669 785,-669 785,-647 664,-647"/>
<text text-anchor="start" x="667" y="-655.2" font-family="Helvetica,sans-Serif" font-size="11.00">varchar[2147483647]</text>
<polygon fill="none" stroke="black" points="477,-625 477,-647 664,-647 664,-625 477,-625"/>
<text text-anchor="start" x="497" y="-633.2" font-family="Helvetica,sans-Serif" font-size="11.00">guid</text>
<polygon fill="none" stroke="black" points="664,-625 664,-647 785,-647 785,-625 664,-625"/>
<text text-anchor="start" x="667" y="-633.2" font-family="Helvetica,sans-Serif" font-size="11.00">varchar[2147483647]</text>
<polygon fill="#ffffff" stroke="none" points="477,-603 477,-625 664,-625 664,-603 477,-603"/>
<polygon fill="none" stroke="black" points="477,-603 477,-625 664,-625 664,-603 477,-603"/>
<text text-anchor="start" x="497" y="-611.2" font-family="Helvetica,sans-Serif" font-size="11.00">type</text>
<polygon fill="none" stroke="black" points="664,-603 664,-625 785,-625 785,-603 664,-603"/>
<text text-anchor="start" x="667" y="-611.2" font-family="Helvetica,sans-Serif" font-size="11.00">varchar[2147483647]</text>
<polygon fill="none" stroke="black" points="477,-581 477,-603 664,-603 664,-581 477,-581"/>
<image xlink:href="../../images/foreignKeys.png" width="11px" height="12px" preserveAspectRatio="xMinYMin meet" x="482" y="-598"/>
<text text-anchor="start" x="497" y="-589.2" font-family="Helvetica,sans-Serif" font-size="11.00">service_template_id</text>
<polygon fill="none" stroke="black" points="664,-581 664,-603 785,-603 785,-581 664,-581"/>
<text text-anchor="start" x="667" y="-589.2" font-family="Helvetica,sans-Serif" font-size="11.00">int8[19]</text>
<polygon fill="none" stroke="black" points="477,-559 477,-581 664,-581 664,-559 477,-559"/>
<text text-anchor="start" x="497" y="-567.2" font-family="Helvetica,sans-Serif" font-size="11.00">options</text>
<polygon fill="none" stroke="black" points="664,-559 664,-581 785,-581 785,-559 664,-559"/>
<text text-anchor="start" x="667" y="-567.2" font-family="Helvetica,sans-Serif" font-size="11.00">text[2147483647]</text>
<polygon fill="none" stroke="black" points="477,-537 477,-559 664,-559 664,-537 477,-537"/>
<text text-anchor="start" x="497" y="-545.2" font-family="Helvetica,sans-Serif" font-size="11.00">created_at</text>
<polygon fill="none" stroke="black" points="664,-537 664,-559 785,-559 785,-537 664,-537"/>
<text text-anchor="start" x="667" y="-545.2" font-family="Helvetica,sans-Serif" font-size="11.00">timestamp[29,6]</text>
<polygon fill="none" stroke="black" points="477,-515 477,-537 664,-537 664,-515 477,-515"/>
<text text-anchor="start" x="497" y="-523.2" font-family="Helvetica,sans-Serif" font-size="11.00">updated_at</text>
<polygon fill="none" stroke="black" points="664,-515 664,-537 785,-537 785,-515 664,-515"/>
<text text-anchor="start" x="667" y="-523.2" font-family="Helvetica,sans-Serif" font-size="11.00">timestamp[29,6]</text>
<polygon fill="none" stroke="black" points="477,-493 477,-515 664,-515 664,-493 477,-493"/>
<text text-anchor="start" x="497" y="-501.2" font-family="Helvetica,sans-Serif" font-size="11.00">display</text>
<polygon fill="none" stroke="black" points="664,-493 664,-515 785,-515 785,-493 664,-493"/>
<text text-anchor="start" x="667" y="-501.2" font-family="Helvetica,sans-Serif" font-size="11.00">bool[1]</text>
<polygon fill="none" stroke="black" points="477,-471 477,-493 664,-493 664,-471 477,-471"/>
<text text-anchor="start" x="497" y="-479.2" font-family="Helvetica,sans-Serif" font-size="11.00">evm_owner_id</text>
<polygon fill="none" stroke="black" points="664,-471 664,-493 785,-493 785,-471 664,-471"/>
<text text-anchor="start" x="667" y="-479.2" font-family="Helvetica,sans-Serif" font-size="11.00">int8[19]</text>
<polygon fill="none" stroke="black" points="477,-449 477,-471 664,-471 664,-449 477,-449"/>
<image xlink:href="../../images/foreignKeys.png" width="11px" height="12px" preserveAspectRatio="xMinYMin meet" x="482" y="-466"/>
<text text-anchor="start" x="497" y="-457.2" font-family="Helvetica,sans-Serif" font-size="11.00">miq_group_id</text>
<polygon fill="none" stroke="black" points="664,-449 664,-471 785,-471 785,-449 664,-449"/>
<text text-anchor="start" x="667" y="-457.2" font-family="Helvetica,sans-Serif" font-size="11.00">int8[19]</text>
<polygon fill="none" stroke="black" points="477,-427 477,-449 664,-449 664,-427 477,-427"/>
<text text-anchor="start" x="497" y="-435.2" font-family="Helvetica,sans-Serif" font-size="11.00">service_type</text>
<polygon fill="none" stroke="black" points="664,-427 664,-449 785,-449 785,-427 664,-427"/>
<text text-anchor="start" x="667" y="-435.2" font-family="Helvetica,sans-Serif" font-size="11.00">varchar[2147483647]</text>
<polygon fill="none" stroke="black" points="477,-405 477,-427 664,-427 664,-405 477,-405"/>
<text text-anchor="start" x="497" y="-413.2" font-family="Helvetica,sans-Serif" font-size="11.00">prov_type</text>
<polygon fill="none" stroke="black" points="664,-405 664,-427 785,-427 785,-405 664,-405"/>
<text text-anchor="start" x="667" y="-413.2" font-family="Helvetica,sans-Serif" font-size="11.00">varchar[2147483647]</text>
<polygon fill="none" stroke="black" points="477,-383 477,-405 664,-405 664,-383 477,-383"/>
<text text-anchor="start" x="497" y="-391.2" font-family="Helvetica,sans-Serif" font-size="11.00">provision_cost</text>
<polygon fill="none" stroke="black" points="664,-383 664,-405 785,-405 785,-383 664,-383"/>
<text text-anchor="start" x="667" y="-391.2" font-family="Helvetica,sans-Serif" font-size="11.00">float8[17,17]</text>
<polygon fill="none" stroke="black" points="477,-361 477,-383 664,-383 664,-361 477,-361"/>
<image xlink:href="../../images/foreignKeys.png" width="11px" height="12px" preserveAspectRatio="xMinYMin meet" x="482" y="-378"/>
<text text-anchor="start" x="497" y="-369.2" font-family="Helvetica,sans-Serif" font-size="11.00">service_template_catalog_id</text>
<polygon fill="none" stroke="black" points="664,-361 664,-383 785,-383 785,-361 664,-361"/>
<text text-anchor="start" x="667" y="-369.2" font-family="Helvetica,sans-Serif" font-size="11.00">int8[19]</text>
<polygon fill="none" stroke="black" points="477,-339 477,-361 664,-361 664,-339 477,-339"/>
<text text-anchor="start" x="497" y="-347.2" font-family="Helvetica,sans-Serif" font-size="11.00">long_description</text>
<polygon fill="none" stroke="black" points="664,-339 664,-361 785,-361 785,-339 664,-339"/>
<text text-anchor="start" x="667" y="-347.2" font-family="Helvetica,sans-Serif" font-size="11.00">text[2147483647]</text>
<polygon fill="none" stroke="black" points="477,-317 477,-339 664,-339 664,-317 477,-317"/>
<image xlink:href="../../images/foreignKeys.png" width="11px" height="12px" preserveAspectRatio="xMinYMin meet" x="482" y="-334"/>
<text text-anchor="start" x="497" y="-325.2" font-family="Helvetica,sans-Serif" font-size="11.00">tenant_id</text>
<polygon fill="none" stroke="black" points="664,-317 664,-339 785,-339 785,-317 664,-317"/>
<text text-anchor="start" x="667" y="-325.2" font-family="Helvetica,sans-Serif" font-size="11.00">int8[19]</text>
<polygon fill="#ffffff" stroke="none" points="477,-295 477,-317 664,-317 664,-295 477,-295"/>
<polygon fill="none" stroke="black" points="477,-295 477,-317 664,-317 664,-295 477,-295"/>
<text text-anchor="start" x="497" y="-303.2" font-family="Helvetica,sans-Serif" font-size="11.00">generic_subtype</text>
<polygon fill="none" stroke="black" points="664,-295 664,-317 785,-317 785,-295 664,-295"/>
<text text-anchor="start" x="667" y="-303.2" font-family="Helvetica,sans-Serif" font-size="11.00">varchar[2147483647]</text>
<polygon fill="none" stroke="black" points="477,-273 477,-295 664,-295 664,-273 477,-273"/>
<text text-anchor="start" x="497" y="-281.2" font-family="Helvetica,sans-Serif" font-size="11.00">deleted_on</text>
<polygon fill="none" stroke="black" points="664,-273 664,-295 785,-295 785,-273 664,-273"/>
<text text-anchor="start" x="667" y="-281.2" font-family="Helvetica,sans-Serif" font-size="11.00">timestamp[29,6]</text>
<polygon fill="none" stroke="black" points="477,-251 477,-273 664,-273 664,-251 477,-251"/>
<text text-anchor="start" x="497" y="-259.2" font-family="Helvetica,sans-Serif" font-size="11.00">internal</text>
<polygon fill="none" stroke="black" points="664,-251 664,-273 785,-273 785,-251 664,-251"/>
<text text-anchor="start" x="667" y="-259.2" font-family="Helvetica,sans-Serif" font-size="11.00">bool[1]</text>
<polygon fill="none" stroke="black" points="477,-229 477,-251 664,-251 664,-229 477,-229"/>
<image xlink:href="../../images/foreignKeys.png" width="11px" height="12px" preserveAspectRatio="xMinYMin meet" x="482" y="-246"/>
<text text-anchor="start" x="497" y="-237.2" font-family="Helvetica,sans-Serif" font-size="11.00">zone_id</text>
<polygon fill="none" stroke="black" points="664,-229 664,-251 785,-251 785,-229 664,-229"/>
<text text-anchor="start" x="667" y="-237.2" font-family="Helvetica,sans-Serif" font-size="11.00">int8[19]</text>
<polygon fill="#ffffff" stroke="none" points="477,-207 477,-229 664,-229 664,-207 477,-207"/>
<polygon fill="none" stroke="black" points="477,-207 477,-229 664,-229 664,-207 477,-207"/>
<image xlink:href="../../images/foreignKeys.png" width="11px" height="12px" preserveAspectRatio="xMinYMin meet" x="482" y="-224"/>
<text text-anchor="start" x="497" y="-215.2" font-family="Helvetica,sans-Serif" font-size="11.00">currency_id</text>
<polygon fill="none" stroke="black" points="664,-207 664,-229 785,-229 785,-207 664,-207"/>
<text text-anchor="start" x="667" y="-215.2" font-family="Helvetica,sans-Serif" font-size="11.00">int8[19]</text>
<polygon fill="none" stroke="black" points="477,-185 477,-207 664,-207 664,-185 477,-185"/>
<text text-anchor="start" x="497" y="-193.2" font-family="Helvetica,sans-Serif" font-size="11.00">price</text>
<polygon fill="none" stroke="black" points="664,-185 664,-207 785,-207 785,-185 664,-185"/>
<text text-anchor="start" x="667" y="-193.2" font-family="Helvetica,sans-Serif" font-size="11.00">float8[17,17]</text>
<polygon fill="#ffffff" stroke="none" points="477,-167 477,-185 575,-185 575,-167 477,-167"/>
<polygon fill="none" stroke="black" points="477,-167 477,-185 575,-185 575,-167 477,-167"/>
<text text-anchor="start" x="480" y="-173.2" font-family="Helvetica,sans-Serif" font-size="11.00">&lt; 6</text>
<polygon fill="#ffffff" stroke="none" points="575,-167 575,-185 664,-185 664,-167 575,-167"/>
<polygon fill="none" stroke="black" points="575,-167 575,-185 664,-185 664,-167 575,-167"/>
<text text-anchor="start" x="654" y="-173.2" font-family="Helvetica,sans-Serif" font-size="11.00"> &#160;</text>
<polygon fill="#ffffff" stroke="none" points="664,-167 664,-185 785,-185 785,-167 664,-167"/>
<polygon fill="none" stroke="black" points="664,-167 664,-185 785,-185 785,-167 664,-167"/>
<text text-anchor="start" x="765" y="-173.2" font-family="Helvetica,sans-Serif" font-size="11.00">4 &gt;</text>
<polygon fill="none" stroke="black" stroke-width="2" points="476,-166 476,-736 786,-736 786,-166 476,-166"/>
</a>
</g>
</g>
<!-- service_resources&#45;&gt;service_templates -->
<g id="edge3" class="edge"><title>service_resources:service_template_id:w&#45;&gt;service_templates:id.type:e</title>
<path fill="none" stroke="black" d="M1065.56,-684.74C1057.71,-685.62 1051.83,-687.083 1040,-688 927.278,-696.738 899.06,-702 786,-702"/>
<polygon fill="black" stroke="black" points="1072.01,-684.41 1080.18,-687.595 1076.01,-684.205 1080,-684 1080,-684 1080,-684 1076.01,-684.205 1079.82,-680.405 1072.01,-684.41 1072.01,-684.41"/>
<ellipse fill="none" stroke="black" cx="1068.81" cy="-684.573" rx="3.2" ry="3.2"/>
</g>
<!-- services&#45;&gt;miq_groups -->
<g id="edge14" class="edge"><title>services:miq_group_id:w&#45;&gt;miq_groups:id:e</title>
<path fill="none" stroke="black" d="M843.305,-580.625C782.303,-596.07 861.357,-717.416 795,-765 765.383,-786.238 496.12,-786.914 467,-765 379.782,-699.364 508.156,-529 399,-529"/>
<polygon fill="black" stroke="black" points="850.048,-579.88 858.396,-582.578 854.024,-579.44 858,-579 858,-579 858,-579 854.024,-579.44 857.604,-575.422 850.048,-579.88 850.048,-579.88"/>
<ellipse fill="none" stroke="black" cx="846.868" cy="-580.231" rx="3.2" ry="3.2"/>
</g>
<!-- services&#45;&gt;tenants -->
<g id="edge16" class="edge"><title>services:tenant_id:w&#45;&gt;tenants:id:e</title>
<path fill="none" stroke="black" d="M843.923,-553.583C778.099,-517.659 859.831,-209.484 795,-154 746.403,-112.41 267.007,-138.62 220,-182 152.773,-244.039 271.978,-384 180.5,-384"/>
<polygon fill="black" stroke="black" points="850.226,-555.113 857.151,-560.498 854.113,-556.056 858,-557 858,-557 858,-557 854.113,-556.056 858.849,-553.502 850.226,-555.113 850.226,-555.113"/>
<ellipse fill="none" stroke="black" cx="847.116" cy="-554.358" rx="3.2" ry="3.2"/>
</g>
<!-- services&#45;&gt;service_templates -->
<g id="edge15" class="edge"><title>services:service_template_id:w&#45;&gt;service_templates:id.type:e</title>
<path fill="none" stroke="black" d="M843.897,-603.914C809.68,-620.474 835.528,-702 786,-702"/>
<polygon fill="black" stroke="black" points="850.165,-602.619 858.728,-604.526 854.083,-601.809 858,-601 858,-601 858,-601 854.083,-601.809 857.272,-597.474 850.165,-602.619 850.165,-602.619"/>
<ellipse fill="none" stroke="black" cx="847.032" cy="-603.266" rx="3.2" ry="3.2"/>
</g>
<!-- currencies -->
<g id="node8" class="node"><title>currencies</title>
<g id="a_node8"><a xlink:href="../../tables/currencies.html" xlink:title="currencies" target="_top">
<polygon fill="#ffffff" stroke="none" points="272.5,-37 272.5,-117 381.5,-117 381.5,-37 272.5,-37"/>
<polygon fill="#f5f5f5" stroke="none" points="273,-95 273,-117 382,-117 382,-95 273,-95"/>
<polygon fill="none" stroke="black" points="273,-95 273,-117 382,-117 382,-95 273,-95"/>
<text text-anchor="start" x="278" y="-104.2" font-family="Helvetica,sans-Serif" font-weight="bold" font-size="11.00">currencies</text>
<text text-anchor="start" x="343" y="-103.2" font-family="Helvetica,sans-Serif" font-size="11.00">[table]</text>
<polygon fill="none" stroke="black" points="273,-73 273,-95 382,-95 382,-73 273,-73"/>
<image xlink:href="../../images/primaryKeys.png" width="11px" height="12px" preserveAspectRatio="xMinYMin meet" x="278" y="-90"/>
<text text-anchor="start" x="300" y="-81.2" font-family="Helvetica,sans-Serif" font-size="11.00">id</text>
<polygon fill="none" stroke="black" points="273,-55 273,-73 382,-73 382,-55 273,-55"/>
<text text-anchor="start" x="276" y="-61.2" font-family="Helvetica,sans-Serif" font-size="11.00">...</text>
<polygon fill="#ffffff" stroke="none" points="273,-37 273,-55 316,-55 316,-37 273,-37"/>
<polygon fill="none" stroke="black" points="273,-37 273,-55 316,-55 316,-37 273,-37"/>
<text text-anchor="start" x="276" y="-43.2" font-family="Helvetica,sans-Serif" font-size="11.00"> &#160;</text>
<polygon fill="#ffffff" stroke="none" points="316,-37 316,-55 344,-55 344,-37 316,-37"/>
<polygon fill="none" stroke="black" points="316,-37 316,-55 344,-55 344,-37 316,-37"/>
<text text-anchor="start" x="334" y="-43.2" font-family="Helvetica,sans-Serif" font-size="11.00"> &#160;</text>
<polygon fill="#ffffff" stroke="none" points="344,-37 344,-55 382,-55 382,-37 344,-37"/>
<polygon fill="none" stroke="black" points="344,-37 344,-55 382,-55 382,-37 344,-37"/>
<text text-anchor="start" x="362" y="-43.2" font-family="Helvetica,sans-Serif" font-size="11.00">2 &gt;</text>
</a>
</g>
</g>
<!-- services&#45;&gt;currencies -->
<g id="edge13" class="edge"><title>services:currency_id:w&#45;&gt;currencies:id:e</title>
<path fill="none" stroke="black" d="M843.799,-509.361C782.059,-473.692 853.438,-186.595 795,-131 661.473,-3.97036 567.299,-84 383,-84"/>
<polygon fill="black" stroke="black" points="850.25,-511.014 857.106,-516.487 854.125,-512.007 858,-513 858,-513 858,-513 854.125,-512.007 858.894,-509.513 850.25,-511.014 850.25,-511.014"/>
<ellipse fill="none" stroke="black" cx="847.15" cy="-510.22" rx="3.2" ry="3.2"/>
</g>
<!-- service_templates&#45;&gt;miq_groups -->
<g id="edge8" class="edge"><title>service_templates:miq_group_id:w&#45;&gt;miq_groups:id:e</title>
<path fill="none" stroke="black" d="M461.767,-462.79C432.765,-475.699 439.388,-529 399,-529"/>
<polygon fill="black" stroke="black" points="468.149,-461.539 476.693,-463.533 472.075,-460.77 476,-460 476,-460 476,-460 472.075,-460.77 475.307,-456.467 468.149,-461.539 468.149,-461.539"/>
<ellipse fill="none" stroke="black" cx="465.009" cy="-462.155" rx="3.2" ry="3.2"/>
</g>
<!-- service_templates&#45;&gt;tenants -->
<g id="edge11" class="edge"><title>service_templates:tenant_id:w&#45;&gt;tenants:id:e</title>
<path fill="none" stroke="black" d="M461.406,-327.694C358.445,-323.358 316.162,-275.145 220,-326 192.43,-340.58 211.688,-384 180.5,-384"/>
<polygon fill="black" stroke="black" points="468.002,-327.832 475.925,-331.599 472.001,-327.916 476,-328 476,-328 476,-328 472.001,-327.916 476.075,-324.401 468.002,-327.832 468.002,-327.832"/>
<ellipse fill="none" stroke="black" cx="464.802" cy="-327.765" rx="3.2" ry="3.2"/>
</g>
<!-- service_templates&#45;&gt;service_templates -->
<g id="edge10" class="edge"><title>service_templates:service_template_id:w&#45;&gt;service_templates:id.type:e</title>
<path fill="none" stroke="black" d="M468.507,-603.652C401.85,-697.673 410.465,-754 631,-754 860.5,-754 860.5,-745.333 785,-702"/>
<polygon fill="black" stroke="black" points="472.288,-598.465 479.909,-594.121 474.644,-595.232 477,-592 477,-592 477,-592 474.644,-595.232 474.091,-589.879 472.288,-598.465 472.288,-598.465"/>
<ellipse fill="none" stroke="black" cx="470.403" cy="-601.051" rx="3.20001" ry="3.20001"/>
</g>
<!-- service_template_catalogs -->
<g id="node6" class="node"><title>service_template_catalogs</title>
<g id="a_node6"><a xlink:href="../../tables/service_template_catalogs.html" xlink:title="service_template_catalogs" target="_top">
<polygon fill="#ffffff" stroke="none" points="228,-337 228,-439 426,-439 426,-337 228,-337"/>
<polygon fill="#f5f5f5" stroke="none" points="228,-417 228,-439 426,-439 426,-417 228,-417"/>
<polygon fill="none" stroke="black" points="228,-417 228,-439 426,-439 426,-417 228,-417"/>
<text text-anchor="start" x="233" y="-426.2" font-family="Helvetica,sans-Serif" font-weight="bold" font-size="11.00">service_template_catalogs</text>
<text text-anchor="start" x="387" y="-425.2" font-family="Helvetica,sans-Serif" font-size="11.00">[table]</text>
<polygon fill="none" stroke="black" points="228,-395 228,-417 426,-417 426,-395 228,-395"/>
<image xlink:href="../../images/primaryKeys.png" width="11px" height="12px" preserveAspectRatio="xMinYMin meet" x="233" y="-412"/>
<text text-anchor="start" x="259" y="-403.2" font-family="Helvetica,sans-Serif" font-size="11.00">id</text>
<polygon fill="none" stroke="black" points="228,-373 228,-395 426,-395 426,-373 228,-373"/>
<image xlink:href="../../images/foreignKeys.png" width="11px" height="12px" preserveAspectRatio="xMinYMin meet" x="233" y="-390"/>
<text text-anchor="start" x="259" y="-381.2" font-family="Helvetica,sans-Serif" font-size="11.00">tenant_id</text>
<polygon fill="none" stroke="black" points="228,-355 228,-373 426,-373 426,-355 228,-355"/>
<text text-anchor="start" x="231" y="-361.2" font-family="Helvetica,sans-Serif" font-size="11.00">...</text>
<polygon fill="#ffffff" stroke="none" points="228,-337 228,-355 320,-355 320,-337 228,-337"/>
<polygon fill="none" stroke="black" points="228,-337 228,-355 320,-355 320,-337 228,-337"/>
<text text-anchor="start" x="231" y="-343.2" font-family="Helvetica,sans-Serif" font-size="11.00">&lt; 1</text>
<polygon fill="#ffffff" stroke="none" points="320,-337 320,-355 368,-355 368,-337 320,-337"/>
<polygon fill="none" stroke="black" points="320,-337 320,-355 368,-355 368,-337 320,-337"/>
<text text-anchor="start" x="358" y="-343.2" font-family="Helvetica,sans-Serif" font-size="11.00"> &#160;</text>
<polygon fill="#ffffff" stroke="none" points="368,-337 368,-355 426,-355 426,-337 368,-337"/>
<polygon fill="none" stroke="black" points="368,-337 368,-355 426,-355 426,-337 368,-337"/>
<text text-anchor="start" x="406" y="-343.2" font-family="Helvetica,sans-Serif" font-size="11.00">1 &gt;</text>
</a>
</g>
</g>
<!-- service_templates&#45;&gt;service_template_catalogs -->
<g id="edge9" class="edge"><title>service_templates:service_template_catalog_id:w&#45;&gt;service_template_catalogs:id:e</title>
<path fill="none" stroke="black" d="M461.974,-376.445C449.745,-385.661 447.501,-406 427,-406"/>
<polygon fill="black" stroke="black" points="468.374,-374.417 477.088,-375.432 472.187,-373.208 476,-372 476,-372 476,-372 472.187,-373.208 474.912,-368.568 468.374,-374.417 468.374,-374.417"/>
<ellipse fill="none" stroke="black" cx="465.323" cy="-375.383" rx="3.20001" ry="3.20001"/>
</g>
<!-- service_templates&#45;&gt;currencies -->
<g id="edge7" class="edge"><title>service_templates:currency_id:w&#45;&gt;currencies:id:e</title>
<path fill="none" stroke="black" d="M461.491,-215.786C410.704,-198.363 449.972,-84 383,-84"/>
<polygon fill="black" stroke="black" points="468.092,-216.793 475.457,-221.559 472.046,-217.397 476,-218 476,-218 476,-218 472.046,-217.397 476.543,-214.441 468.092,-216.793 468.092,-216.793"/>
<ellipse fill="none" stroke="black" cx="464.928" cy="-216.31" rx="3.2" ry="3.2"/>
</g>
<!-- zones -->
<g id="node9" class="node"><title>zones</title>
<g id="a_node9"><a xlink:href="../../tables/zones.html" xlink:title="zones" target="_top">
<polygon fill="#ffffff" stroke="none" points="268,-193 268,-273 386,-273 386,-193 268,-193"/>
<polygon fill="#f5f5f5" stroke="none" points="268,-251 268,-273 386,-273 386,-251 268,-251"/>
<polygon fill="none" stroke="black" points="268,-251 268,-273 386,-273 386,-251 268,-251"/>
<text text-anchor="start" x="273" y="-260.2" font-family="Helvetica,sans-Serif" font-weight="bold" font-size="11.00">zones</text>
<text text-anchor="start" x="347" y="-259.2" font-family="Helvetica,sans-Serif" font-size="11.00">[table]</text>
<polygon fill="none" stroke="black" points="268,-229 268,-251 386,-251 386,-229 268,-229"/>
<image xlink:href="../../images/primaryKeys.png" width="11px" height="12px" preserveAspectRatio="xMinYMin meet" x="273" y="-246"/>
<text text-anchor="start" x="288" y="-237.2" font-family="Helvetica,sans-Serif" font-size="11.00">id</text>
<polygon fill="none" stroke="black" points="268,-211 268,-229 386,-229 386,-211 268,-211"/>
<text text-anchor="start" x="271" y="-217.2" font-family="Helvetica,sans-Serif" font-size="11.00">...</text>
<polygon fill="#ffffff" stroke="none" points="268,-193 268,-211 315,-211 315,-193 268,-193"/>
<polygon fill="none" stroke="black" points="268,-193 268,-211 315,-211 315,-193 268,-193"/>
<text text-anchor="start" x="271" y="-199.2" font-family="Helvetica,sans-Serif" font-size="11.00"> &#160;</text>
<polygon fill="#ffffff" stroke="none" points="315,-193 315,-211 345,-211 345,-193 315,-193"/>
<polygon fill="none" stroke="black" points="315,-193 315,-211 345,-211 345,-193 315,-193"/>
<text text-anchor="start" x="335" y="-199.2" font-family="Helvetica,sans-Serif" font-size="11.00"> &#160;</text>
<polygon fill="#ffffff" stroke="none" points="345,-193 345,-211 386,-211 386,-193 345,-193"/>
<polygon fill="none" stroke="black" points="345,-193 345,-211 386,-211 386,-193 345,-193"/>
<text text-anchor="start" x="366" y="-199.2" font-family="Helvetica,sans-Serif" font-size="11.00">5 &gt;</text>
</a>
</g>
</g>
<!-- service_templates&#45;&gt;zones -->
<g id="edge12" class="edge"><title>service_templates:zone_id:w&#45;&gt;zones:id:e</title>
<path fill="none" stroke="black" d="M461.288,-240C433.186,-240 421.148,-240 387,-240"/>
<polygon fill="black" stroke="black" points="468,-240 476,-243.6 472,-240 476,-240 476,-240 476,-240 472,-240 476,-236.4 468,-240 468,-240"/>
<ellipse fill="none" stroke="black" cx="464.8" cy="-240" rx="3.2" ry="3.2"/>
</g>
<!-- service_template_catalogs&#45;&gt;tenants -->
<g id="edge4" class="edge"><title>service_template_catalogs:tenant_id:w&#45;&gt;tenants:id:e</title>
<path fill="none" stroke="black" d="M212.551,-384C202.201,-384 195.354,-384 180.5,-384"/>
<polygon fill="black" stroke="black" points="219,-384 227,-387.6 223,-384 227,-384 227,-384 227,-384 223,-384 227,-380.4 219,-384 219,-384"/>
<ellipse fill="none" stroke="black" cx="215.8" cy="-384" rx="3.2" ry="3.2"/>
</g>
<!-- service_template_tenants -->
<g id="node7" class="node"><title>service_template_tenants</title>
<g id="a_node7"><a xlink:href="../../tables/service_template_tenants.html" xlink:title="service_template_tenants" target="_top">
<polygon fill="#ffffff" stroke="none" points="836,-742 836,-866 1032,-866 1032,-742 836,-742"/>
<polygon fill="#f5f5f5" stroke="none" points="836,-844 836,-866 1032,-866 1032,-844 836,-844"/>
<polygon fill="none" stroke="black" points="836,-844 836,-866 1032,-866 1032,-844 836,-844"/>
<text text-anchor="start" x="841" y="-853.2" font-family="Helvetica,sans-Serif" font-weight="bold" font-size="11.00">service_template_tenants</text>
<text text-anchor="start" x="993" y="-852.2" font-family="Helvetica,sans-Serif" font-size="11.00">[table]</text>
<polygon fill="none" stroke="black" points="836,-822 836,-844 1032,-844 1032,-822 836,-822"/>
<image xlink:href="../../images/primaryKeys.png" width="11px" height="12px" preserveAspectRatio="xMinYMin meet" x="841" y="-839"/>
<text text-anchor="start" x="867" y="-830.2" font-family="Helvetica,sans-Serif" font-size="11.00">id</text>
<polygon fill="#ffffff" stroke="none" points="836,-800 836,-822 1032,-822 1032,-800 836,-800"/>
<polygon fill="none" stroke="black" points="836,-800 836,-822 1032,-822 1032,-800 836,-800"/>
<image xlink:href="../../images/foreignKeys.png" width="11px" height="12px" preserveAspectRatio="xMinYMin meet" x="841" y="-817"/>
<text text-anchor="start" x="867" y="-808.2" font-family="Helvetica,sans-Serif" font-size="11.00">service_template_id</text>
<polygon fill="#ffffff" stroke="none" points="836,-778 836,-800 1032,-800 1032,-778 836,-778"/>
<polygon fill="none" stroke="black" points="836,-778 836,-800 1032,-800 1032,-778 836,-778"/>
<image xlink:href="../../images/foreignKeys.png" width="11px" height="12px" preserveAspectRatio="xMinYMin meet" x="841" y="-795"/>
<text text-anchor="start" x="867" y="-786.2" font-family="Helvetica,sans-Serif" font-size="11.00">tenant_id</text>
<polygon fill="none" stroke="black" points="836,-760 836,-778 1032,-778 1032,-760 836,-760"/>
<text text-anchor="start" x="839" y="-766.2" font-family="Helvetica,sans-Serif" font-size="11.00">...</text>
<polygon fill="#ffffff" stroke="none" points="836,-742 836,-760 932,-760 932,-742 836,-742"/>
<polygon fill="none" stroke="black" points="836,-742 836,-760 932,-760 932,-742 836,-742"/>
<text text-anchor="start" x="839" y="-748.2" font-family="Helvetica,sans-Serif" font-size="11.00">&lt; 2</text>
<polygon fill="#ffffff" stroke="none" points="932,-742 932,-760 982,-760 982,-742 932,-742"/>
<polygon fill="none" stroke="black" points="932,-742 932,-760 982,-760 982,-742 932,-742"/>
<text text-anchor="start" x="972" y="-748.2" font-family="Helvetica,sans-Serif" font-size="11.00"> &#160;</text>
<polygon fill="#ffffff" stroke="none" points="982,-742 982,-760 1032,-760 1032,-742 982,-742"/>
<polygon fill="none" stroke="black" points="982,-742 982,-760 1032,-760 1032,-742 982,-742"/>
<text text-anchor="start" x="1022" y="-748.2" font-family="Helvetica,sans-Serif" font-size="11.00"> &#160;</text>
</a>
</g>
</g>
<!-- service_template_tenants&#45;&gt;tenants -->
<g id="edge6" class="edge"><title>service_template_tenants:tenant_id:w&#45;&gt;tenants:id:e</title>
<path fill="none" stroke="black" d="M820.447,-789.141C668.223,-792.098 615.37,-840.091 467,-784 331.679,-732.842 293.671,-696.505 220,-572 176.521,-498.52 265.88,-384 180.5,-384"/>
<polygon fill="black" stroke="black" points="827,-789.077 835.035,-792.6 831,-789.039 835,-789 835,-789 835,-789 831,-789.039 834.965,-785.4 827,-789.077 827,-789.077"/>
<ellipse fill="none" stroke="black" cx="823.801" cy="-789.108" rx="3.2" ry="3.2"/>
</g>
<!-- service_template_tenants&#45;&gt;service_templates -->
<g id="edge5" class="edge"><title>service_template_tenants:service_template_id:w&#45;&gt;service_templates:id.type:e</title>
<path fill="none" stroke="black" d="M820.877,-807.121C793.436,-787.703 833.098,-702 786,-702"/>
<polygon fill="black" stroke="black" points="827.286,-808.881 834.046,-814.471 831.143,-809.941 835,-811 835,-811 835,-811 831.143,-809.941 835.954,-807.529 827.286,-808.881 827.286,-808.881"/>
<ellipse fill="none" stroke="black" cx="824.2" cy="-808.033" rx="3.20001" ry="3.20001"/>
</g>
</g>
</svg>
