<?xml version="1.0" encoding="UTF-8" standalone="no"?>
<!DOCTYPE svg PUBLIC "-//W3C//DTD SVG 1.1//EN"
 "http://www.w3.org/Graphics/SVG/1.1/DTD/svg11.dtd">
<!-- Generated by graphviz version 2.38.0 (20140413.2041)
 -->
<!-- Title: twoDegreesRelationshipsDiagram Pages: 1 -->
<svg width="490pt" height="348pt"
 viewBox="0.00 0.00 490.00 348.00" xmlns="http://www.w3.org/2000/svg" xmlns:xlink="http://www.w3.org/1999/xlink">
<g id="graph0" class="graph" transform="scale(1 1) rotate(0) translate(4 344)">
<title>twoDegreesRelationshipsDiagram</title>
<polygon fill="#ffffff" stroke="none" points="-4,4 -4,-344 486,-344 486,4 -4,4"/>
<text text-anchor="middle" x="74.5" y="-7.2" font-family="Helvetica,sans-Serif" font-size="11.00">Generated by SchemaSpy</text>
<!-- assigned_server_roles -->
<g id="node1" class="node"><title>assigned_server_roles</title>
<g id="a_node1"><a xlink:href="../../tables/assigned_server_roles.html" xlink:title="assigned_server_roles" target="_top">
<polygon fill="#ffffff" stroke="none" points="304,-205 304,-329 474,-329 474,-205 304,-205"/>
<polygon fill="#f5f5f5" stroke="none" points="304,-307 304,-329 474,-329 474,-307 304,-307"/>
<polygon fill="none" stroke="black" points="304,-307 304,-329 474,-329 474,-307 304,-307"/>
<text text-anchor="start" x="309" y="-316.2" font-family="Helvetica,sans-Serif" font-weight="bold" font-size="11.00">assigned_server_roles</text>
<text text-anchor="start" x="435" y="-315.2" font-family="Helvetica,sans-Serif" font-size="11.00">[table]</text>
<polygon fill="none" stroke="black" points="304,-285 304,-307 474,-307 474,-285 304,-285"/>
<image xlink:href="../../images/primaryKeys.png" width="11px" height="12px" preserveAspectRatio="xMinYMin meet" x="309" y="-302"/>
<text text-anchor="start" x="334" y="-293.2" font-family="Helvetica,sans-Serif" font-size="11.00">id</text>
<polygon fill="#ffffff" stroke="none" points="304,-263 304,-285 474,-285 474,-263 304,-263"/>
<polygon fill="none" stroke="black" points="304,-263 304,-285 474,-285 474,-263 304,-263"/>
<image xlink:href="../../images/foreignKeys.png" width="11px" height="12px" preserveAspectRatio="xMinYMin meet" x="309" y="-280"/>
<text text-anchor="start" x="334" y="-271.2" font-family="Helvetica,sans-Serif" font-size="11.00">miq_server_id</text>
<polygon fill="#ffffff" stroke="none" points="304,-241 304,-263 474,-263 474,-241 304,-241"/>
<polygon fill="none" stroke="black" points="304,-241 304,-263 474,-263 474,-241 304,-241"/>
<image xlink:href="../../images/foreignKeys.png" width="11px" height="12px" preserveAspectRatio="xMinYMin meet" x="309" y="-258"/>
<text text-anchor="start" x="334" y="-249.2" font-family="Helvetica,sans-Serif" font-size="11.00">server_role_id</text>
<polygon fill="none" stroke="black" points="304,-223 304,-241 474,-241 474,-223 304,-223"/>
<text text-anchor="start" x="307" y="-229.2" font-family="Helvetica,sans-Serif" font-size="11.00">...</text>
<polygon fill="#ffffff" stroke="none" points="304,-205 304,-223 387,-223 387,-205 304,-205"/>
<polygon fill="none" stroke="black" points="304,-205 304,-223 387,-223 387,-205 304,-205"/>
<text text-anchor="start" x="307" y="-211.2" font-family="Helvetica,sans-Serif" font-size="11.00">&lt; 2</text>
<polygon fill="#ffffff" stroke="none" points="387,-205 387,-223 430,-223 430,-205 387,-205"/>
<polygon fill="none" stroke="black" points="387,-205 387,-223 430,-223 430,-205 387,-205"/>
<text text-anchor="start" x="420" y="-211.2" font-family="Helvetica,sans-Serif" font-size="11.00"> &#160;</text>
<polygon fill="#ffffff" stroke="none" points="430,-205 430,-223 474,-223 474,-205 430,-205"/>
<polygon fill="none" stroke="black" points="430,-205 430,-223 474,-223 474,-205 430,-205"/>
<text text-anchor="start" x="464" y="-211.2" font-family="Helvetica,sans-Serif" font-size="11.00"> &#160;</text>
</a>
</g>
</g>
<!-- miq_servers -->
<g id="node2" class="node"><title>miq_servers</title>
<g id="a_node2"><a xlink:href="../../tables/miq_servers.html" xlink:title="miq_servers" target="_top">
<polygon fill="#ffffff" stroke="none" points="73,-278 73,-336 190,-336 190,-278 73,-278"/>
<polygon fill="#f5f5f5" stroke="none" points="73.5,-314 73.5,-336 190.5,-336 190.5,-314 73.5,-314"/>
<polygon fill="none" stroke="black" points="73.5,-314 73.5,-336 190.5,-336 190.5,-314 73.5,-314"/>
<text text-anchor="start" x="78.5" y="-323.2" font-family="Helvetica,sans-Serif" font-weight="bold" font-size="11.00">miq_servers</text>
<text text-anchor="start" x="151.5" y="-322.2" font-family="Helvetica,sans-Serif" font-size="11.00">[table]</text>
<polygon fill="none" stroke="black" points="73.5,-296 73.5,-314 190.5,-314 190.5,-296 73.5,-296"/>
<text text-anchor="start" x="76.5" y="-302.2" font-family="Helvetica,sans-Serif" font-size="11.00">...</text>
<polygon fill="#ffffff" stroke="none" points="73.5,-278 73.5,-296 125.5,-296 125.5,-278 73.5,-278"/>
<polygon fill="none" stroke="black" points="73.5,-278 73.5,-296 125.5,-296 125.5,-278 73.5,-278"/>
<text text-anchor="start" x="76.5" y="-284.2" font-family="Helvetica,sans-Serif" font-size="11.00">&lt; 2</text>
<polygon fill="#ffffff" stroke="none" points="125.5,-278 125.5,-296 152.5,-296 152.5,-278 125.5,-278"/>
<polygon fill="none" stroke="black" points="125.5,-278 125.5,-296 152.5,-296 152.5,-278 125.5,-278"/>
<text text-anchor="start" x="142.5" y="-284.2" font-family="Helvetica,sans-Serif" font-size="11.00"> &#160;</text>
<polygon fill="#ffffff" stroke="none" points="152.5,-278 152.5,-296 190.5,-296 190.5,-278 152.5,-278"/>
<polygon fill="none" stroke="black" points="152.5,-278 152.5,-296 190.5,-296 190.5,-278 152.5,-278"/>
<text text-anchor="start" x="170.5" y="-284.2" font-family="Helvetica,sans-Serif" font-size="11.00">4 &gt;</text>
</a>
</g>
</g>
<!-- assigned_server_roles&#45;&gt;miq_servers -->
<g id="edge1" class="edge"><title>assigned_server_roles:miq_server_id:w&#45;&gt;miq_servers:elipses:e</title>
<path fill="none" stroke="black" d="M288.563,-274.894C249.37,-279.977 237.711,-305 191.5,-305"/>
<polygon fill="black" stroke="black" points="295.015,-274.495 303.223,-277.593 299.008,-274.247 303,-274 303,-274 303,-274 299.008,-274.247 302.777,-270.407 295.015,-274.495 295.015,-274.495"/>
<ellipse fill="none" stroke="black" cx="291.821" cy="-274.693" rx="3.2" ry="3.2"/>
</g>
<!-- server_roles -->
<g id="node3" class="node"><title>server_roles</title>
<g id="a_node3"><a xlink:href="../../tables/server_roles.html" xlink:title="server_roles" target="_top">
<polygon fill="#ffffff" stroke="none" points="8,-37 8,-257 255,-257 255,-37 8,-37"/>
<polygon fill="#f5f5f5" stroke="none" points="10.5,-233 10.5,-255 253.5,-255 253.5,-233 10.5,-233"/>
<polygon fill="none" stroke="black" points="10.5,-233 10.5,-255 253.5,-255 253.5,-233 10.5,-233"/>
<text text-anchor="start" x="15.5" y="-242.2" font-family="Helvetica,sans-Serif" font-weight="bold" font-size="11.00">server_roles</text>
<text text-anchor="start" x="214.5" y="-241.2" font-family="Helvetica,sans-Serif" font-size="11.00">[table]</text>
<polygon fill="none" stroke="black" points="10.5,-211 10.5,-233 132.5,-233 132.5,-211 10.5,-211"/>
<image xlink:href="../../images/primaryKeys.png" width="11px" height="12px" preserveAspectRatio="xMinYMin meet" x="15.5" y="-228"/>
<text text-anchor="start" x="30.5" y="-219.2" font-family="Helvetica,sans-Serif" font-size="11.00">id</text>
<polygon fill="none" stroke="black" points="132.5,-211 132.5,-233 253.5,-233 253.5,-211 132.5,-211"/>
<text text-anchor="start" x="135.5" y="-219.2" font-family="Helvetica,sans-Serif" font-size="11.00">bigserial[19]</text>
<polygon fill="none" stroke="black" points="10.5,-189 10.5,-211 132.5,-211 132.5,-189 10.5,-189"/>
<text text-anchor="start" x="30.5" y="-197.2" font-family="Helvetica,sans-Serif" font-size="11.00">name</text>
<polygon fill="none" stroke="black" points="132.5,-189 132.5,-211 253.5,-211 253.5,-189 132.5,-189"/>
<text text-anchor="start" x="135.5" y="-197.2" font-family="Helvetica,sans-Serif" font-size="11.00">varchar[2147483647]</text>
<polygon fill="none" stroke="black" points="10.5,-167 10.5,-189 132.5,-189 132.5,-167 10.5,-167"/>
<text text-anchor="start" x="30.5" y="-175.2" font-family="Helvetica,sans-Serif" font-size="11.00">description</text>
<polygon fill="none" stroke="black" points="132.5,-167 132.5,-189 253.5,-189 253.5,-167 132.5,-167"/>
<text text-anchor="start" x="135.5" y="-175.2" font-family="Helvetica,sans-Serif" font-size="11.00">varchar[2147483647]</text>
<polygon fill="none" stroke="black" points="10.5,-145 10.5,-167 132.5,-167 132.5,-145 10.5,-145"/>
<text text-anchor="start" x="30.5" y="-153.2" font-family="Helvetica,sans-Serif" font-size="11.00">created_on</text>
<polygon fill="none" stroke="black" points="132.5,-145 132.5,-167 253.5,-167 253.5,-145 132.5,-145"/>
<text text-anchor="start" x="135.5" y="-153.2" font-family="Helvetica,sans-Serif" font-size="11.00">timestamp[29,6]</text>
<polygon fill="none" stroke="black" points="10.5,-123 10.5,-145 132.5,-145 132.5,-123 10.5,-123"/>
<text text-anchor="start" x="30.5" y="-131.2" font-family="Helvetica,sans-Serif" font-size="11.00">updated_on</text>
<polygon fill="none" stroke="black" points="132.5,-123 132.5,-145 253.5,-145 253.5,-123 132.5,-123"/>
<text text-anchor="start" x="135.5" y="-131.2" font-family="Helvetica,sans-Serif" font-size="11.00">timestamp[29,6]</text>
<polygon fill="none" stroke="black" points="10.5,-101 10.5,-123 132.5,-123 132.5,-101 10.5,-101"/>
<text text-anchor="start" x="30.5" y="-109.2" font-family="Helvetica,sans-Serif" font-size="11.00">max_concurrent</text>
<polygon fill="none" stroke="black" points="132.5,-101 132.5,-123 253.5,-123 253.5,-101 132.5,-101"/>
<text text-anchor="start" x="135.5" y="-109.2" font-family="Helvetica,sans-Serif" font-size="11.00">int4[10]</text>
<polygon fill="none" stroke="black" points="10.5,-79 10.5,-101 132.5,-101 132.5,-79 10.5,-79"/>
<text text-anchor="start" x="30.5" y="-87.2" font-family="Helvetica,sans-Serif" font-size="11.00">external_failover</text>
<polygon fill="none" stroke="black" points="132.5,-79 132.5,-101 253.5,-101 253.5,-79 132.5,-79"/>
<text text-anchor="start" x="135.5" y="-87.2" font-family="Helvetica,sans-Serif" font-size="11.00">bool[1]</text>
<polygon fill="none" stroke="black" points="10.5,-57 10.5,-79 132.5,-79 132.5,-57 10.5,-57"/>
<text text-anchor="start" x="30.5" y="-65.2" font-family="Helvetica,sans-Serif" font-size="11.00">role_scope</text>
<polygon fill="none" stroke="black" points="132.5,-57 132.5,-79 253.5,-79 253.5,-57 132.5,-57"/>
<text text-anchor="start" x="135.5" y="-65.2" font-family="Helvetica,sans-Serif" font-size="11.00">varchar[2147483647]</text>
<polygon fill="#ffffff" stroke="none" points="10.5,-39 10.5,-57 76.5,-57 76.5,-39 10.5,-39"/>
<polygon fill="none" stroke="black" points="10.5,-39 10.5,-57 76.5,-57 76.5,-39 10.5,-39"/>
<text text-anchor="start" x="13.5" y="-45.2" font-family="Helvetica,sans-Serif" font-size="11.00">&lt; 0</text>
<polygon fill="#ffffff" stroke="none" points="76.5,-39 76.5,-57 132.5,-57 132.5,-39 76.5,-39"/>
<polygon fill="none" stroke="black" points="76.5,-39 76.5,-57 132.5,-57 132.5,-39 76.5,-39"/>
<text text-anchor="start" x="122.5" y="-45.2" font-family="Helvetica,sans-Serif" font-size="11.00"> &#160;</text>
<polygon fill="#ffffff" stroke="none" points="132.5,-39 132.5,-57 253.5,-57 253.5,-39 132.5,-39"/>
<polygon fill="none" stroke="black" points="132.5,-39 132.5,-57 253.5,-57 253.5,-39 132.5,-39"/>
<text text-anchor="start" x="233.5" y="-45.2" font-family="Helvetica,sans-Serif" font-size="11.00">1 &gt;</text>
<polygon fill="none" stroke="black" stroke-width="2" points="9,-38 9,-256 254,-256 254,-38 9,-38"/>
</a>
</g>
</g>
<!-- assigned_server_roles&#45;&gt;server_roles -->
<g id="edge2" class="edge"><title>assigned_server_roles:server_role_id:w&#45;&gt;server_roles:id.type:e</title>
<path fill="none" stroke="black" d="M289.008,-247.829C277.169,-239.585 273.906,-222 254.5,-222"/>
<polygon fill="black" stroke="black" points="295.333,-249.714 301.971,-255.45 299.167,-250.857 303,-252 303,-252 303,-252 299.167,-250.857 304.029,-248.55 295.333,-249.714 295.333,-249.714"/>
<ellipse fill="none" stroke="black" cx="292.267" cy="-248.8" rx="3.20001" ry="3.20001"/>
</g>
</g>
</svg>
