<?xml version="1.0" encoding="UTF-8" standalone="no"?>
<!DOCTYPE svg PUBLIC "-//W3C//DTD SVG 1.1//EN"
 "http://www.w3.org/Graphics/SVG/1.1/DTD/svg11.dtd">
<!-- Generated by graphviz version 2.38.0 (20140413.2041)
 -->
<!-- Title: oneDegreeRelationshipsDiagram Pages: 1 -->
<svg width="732pt" height="387pt"
 viewBox="0.00 0.00 732.00 387.00" xmlns="http://www.w3.org/2000/svg" xmlns:xlink="http://www.w3.org/1999/xlink">
<g id="graph0" class="graph" transform="scale(1 1) rotate(0) translate(4 383)">
<title>oneDegreeRelationshipsDiagram</title>
<polygon fill="#ffffff" stroke="none" points="-4,4 -4,-383 728,-383 728,4 -4,4"/>
<text text-anchor="middle" x="74.5" y="-7.2" font-family="Helvetica,sans-Serif" font-size="11.00">Generated by SchemaSpy</text>
<!-- service_instances -->
<g id="node1" class="node"><title>service_instances</title>
<g id="a_node1"><a xlink:href="../../tables/service_instances.html" xlink:title="service_instances" target="_top">
<polygon fill="#ffffff" stroke="none" points="539,-207 539,-375 716,-375 716,-207 539,-207"/>
<polygon fill="#f5f5f5" stroke="none" points="539.5,-353 539.5,-375 716.5,-375 716.5,-353 539.5,-353"/>
<polygon fill="none" stroke="black" points="539.5,-353 539.5,-375 716.5,-375 716.5,-353 539.5,-353"/>
<text text-anchor="start" x="544.5" y="-362.2" font-family="Helvetica,sans-Serif" font-weight="bold" font-size="11.00">service_instances</text>
<text text-anchor="start" x="677.5" y="-361.2" font-family="Helvetica,sans-Serif" font-size="11.00">[table]</text>
<polygon fill="none" stroke="black" points="539.5,-331 539.5,-353 716.5,-353 716.5,-331 539.5,-331"/>
<image xlink:href="../../images/primaryKeys.png" width="11px" height="12px" preserveAspectRatio="xMinYMin meet" x="544.5" y="-348"/>
<text text-anchor="start" x="559.5" y="-339.2" font-family="Helvetica,sans-Serif" font-size="11.00">id</text>
<polygon fill="#ffffff" stroke="none" points="539.5,-309 539.5,-331 716.5,-331 716.5,-309 539.5,-309"/>
<polygon fill="none" stroke="black" points="539.5,-309 539.5,-331 716.5,-331 716.5,-309 539.5,-309"/>
<text text-anchor="start" x="559.5" y="-317.2" font-family="Helvetica,sans-Serif" font-size="11.00">ems_id</text>
<polygon fill="#ffffff" stroke="none" points="539.5,-287 539.5,-309 716.5,-309 716.5,-287 539.5,-287"/>
<polygon fill="none" stroke="black" points="539.5,-287 539.5,-309 716.5,-309 716.5,-287 539.5,-287"/>
<image xlink:href="../../images/foreignKeys.png" width="11px" height="12px" preserveAspectRatio="xMinYMin meet" x="544.5" y="-304"/>
<text text-anchor="start" x="559.5" y="-295.2" font-family="Helvetica,sans-Serif" font-size="11.00">service_offering_id</text>
<polygon fill="#ffffff" stroke="none" points="539.5,-265 539.5,-287 716.5,-287 716.5,-265 539.5,-265"/>
<polygon fill="none" stroke="black" points="539.5,-265 539.5,-287 716.5,-287 716.5,-265 539.5,-265"/>
<image xlink:href="../../images/foreignKeys.png" width="11px" height="12px" preserveAspectRatio="xMinYMin meet" x="544.5" y="-282"/>
<text text-anchor="start" x="559.5" y="-273.2" font-family="Helvetica,sans-Serif" font-size="11.00">service_parameters_set_id</text>
<polygon fill="#ffffff" stroke="none" points="539.5,-243 539.5,-265 716.5,-265 716.5,-243 539.5,-243"/>
<polygon fill="none" stroke="black" points="539.5,-243 539.5,-265 716.5,-265 716.5,-243 539.5,-243"/>
<text text-anchor="start" x="559.5" y="-251.2" font-family="Helvetica,sans-Serif" font-size="11.00">deleted_on</text>
<polygon fill="none" stroke="black" points="539.5,-225 539.5,-243 716.5,-243 716.5,-225 539.5,-225"/>
<text text-anchor="start" x="542.5" y="-231.2" font-family="Helvetica,sans-Serif" font-size="11.00">...</text>
<polygon fill="#ffffff" stroke="none" points="539.5,-207 539.5,-225 626.5,-225 626.5,-207 539.5,-207"/>
<polygon fill="none" stroke="black" points="539.5,-207 539.5,-225 626.5,-225 626.5,-207 539.5,-207"/>
<text text-anchor="start" x="542.5" y="-213.2" font-family="Helvetica,sans-Serif" font-size="11.00">&lt; 2</text>
<polygon fill="#ffffff" stroke="none" points="626.5,-207 626.5,-225 671.5,-225 671.5,-207 626.5,-207"/>
<polygon fill="none" stroke="black" points="626.5,-207 626.5,-225 671.5,-225 671.5,-207 626.5,-207"/>
<text text-anchor="start" x="661.5" y="-213.2" font-family="Helvetica,sans-Serif" font-size="11.00"> &#160;</text>
<polygon fill="#ffffff" stroke="none" points="671.5,-207 671.5,-225 716.5,-225 716.5,-207 671.5,-207"/>
<polygon fill="none" stroke="black" points="671.5,-207 671.5,-225 716.5,-225 716.5,-207 671.5,-207"/>
<text text-anchor="start" x="706.5" y="-213.2" font-family="Helvetica,sans-Serif" font-size="11.00"> &#160;</text>
</a>
</g>
</g>
<!-- service_offerings -->
<g id="node2" class="node"><title>service_offerings</title>
<g id="a_node2"><a xlink:href="../../tables/service_offerings.html" xlink:title="service_offerings" target="_top">
<polygon fill="#ffffff" stroke="none" points="8,-37 8,-301 254,-301 254,-37 8,-37"/>
<polygon fill="#f5f5f5" stroke="none" points="10,-277 10,-299 252,-299 252,-277 10,-277"/>
<polygon fill="none" stroke="black" points="10,-277 10,-299 252,-299 252,-277 10,-277"/>
<text text-anchor="start" x="15" y="-286.2" font-family="Helvetica,sans-Serif" font-weight="bold" font-size="11.00">service_offerings</text>
<text text-anchor="start" x="213" y="-285.2" font-family="Helvetica,sans-Serif" font-size="11.00">[table]</text>
<polygon fill="none" stroke="black" points="10,-255 10,-277 131,-277 131,-255 10,-255"/>
<image xlink:href="../../images/primaryKeys.png" width="11px" height="12px" preserveAspectRatio="xMinYMin meet" x="15" y="-272"/>
<text text-anchor="start" x="30" y="-263.2" font-family="Helvetica,sans-Serif" font-size="11.00">id</text>
<polygon fill="none" stroke="black" points="131,-255 131,-277 252,-277 252,-255 131,-255"/>
<text text-anchor="start" x="134" y="-263.2" font-family="Helvetica,sans-Serif" font-size="11.00">bigserial[19]</text>
<polygon fill="none" stroke="black" points="10,-233 10,-255 131,-255 131,-233 10,-233"/>
<text text-anchor="start" x="30" y="-241.2" font-family="Helvetica,sans-Serif" font-size="11.00">name</text>
<polygon fill="none" stroke="black" points="131,-233 131,-255 252,-255 252,-233 131,-233"/>
<text text-anchor="start" x="134" y="-241.2" font-family="Helvetica,sans-Serif" font-size="11.00">varchar[2147483647]</text>
<polygon fill="none" stroke="black" points="10,-211 10,-233 131,-233 131,-211 10,-211"/>
<text text-anchor="start" x="30" y="-219.2" font-family="Helvetica,sans-Serif" font-size="11.00">ems_ref</text>
<polygon fill="none" stroke="black" points="131,-211 131,-233 252,-233 252,-211 131,-211"/>
<text text-anchor="start" x="134" y="-219.2" font-family="Helvetica,sans-Serif" font-size="11.00">varchar[2147483647]</text>
<polygon fill="none" stroke="black" points="10,-189 10,-211 131,-211 131,-189 10,-189"/>
<text text-anchor="start" x="30" y="-197.2" font-family="Helvetica,sans-Serif" font-size="11.00">type</text>
<polygon fill="none" stroke="black" points="131,-189 131,-211 252,-211 252,-189 131,-189"/>
<text text-anchor="start" x="134" y="-197.2" font-family="Helvetica,sans-Serif" font-size="11.00">varchar[2147483647]</text>
<polygon fill="none" stroke="black" points="10,-167 10,-189 131,-189 131,-167 10,-167"/>
<text text-anchor="start" x="30" y="-175.2" font-family="Helvetica,sans-Serif" font-size="11.00">description</text>
<polygon fill="none" stroke="black" points="131,-167 131,-189 252,-189 252,-167 131,-167"/>
<text text-anchor="start" x="134" y="-175.2" font-family="Helvetica,sans-Serif" font-size="11.00">text[2147483647]</text>
<polygon fill="#ffffff" stroke="none" points="10,-145 10,-167 131,-167 131,-145 10,-145"/>
<polygon fill="none" stroke="black" points="10,-145 10,-167 131,-167 131,-145 10,-145"/>
<text text-anchor="start" x="30" y="-153.2" font-family="Helvetica,sans-Serif" font-size="11.00">ems_id</text>
<polygon fill="none" stroke="black" points="131,-145 131,-167 252,-167 252,-145 131,-145"/>
<text text-anchor="start" x="134" y="-153.2" font-family="Helvetica,sans-Serif" font-size="11.00">int8[19]</text>
<polygon fill="none" stroke="black" points="10,-123 10,-145 131,-145 131,-123 10,-123"/>
<text text-anchor="start" x="30" y="-131.2" font-family="Helvetica,sans-Serif" font-size="11.00">extra</text>
<polygon fill="none" stroke="black" points="131,-123 131,-145 252,-145 252,-123 131,-123"/>
<text text-anchor="start" x="134" y="-131.2" font-family="Helvetica,sans-Serif" font-size="11.00">jsonb[2147483647]</text>
<polygon fill="#ffffff" stroke="none" points="10,-101 10,-123 131,-123 131,-101 10,-101"/>
<polygon fill="none" stroke="black" points="10,-101 10,-123 131,-123 131,-101 10,-101"/>
<text text-anchor="start" x="30" y="-109.2" font-family="Helvetica,sans-Serif" font-size="11.00">deleted_on</text>
<polygon fill="none" stroke="black" points="131,-101 131,-123 252,-123 252,-101 131,-101"/>
<text text-anchor="start" x="134" y="-109.2" font-family="Helvetica,sans-Serif" font-size="11.00">timestamp[29,6]</text>
<polygon fill="none" stroke="black" points="10,-79 10,-101 131,-101 131,-79 10,-79"/>
<text text-anchor="start" x="30" y="-87.2" font-family="Helvetica,sans-Serif" font-size="11.00">created_at</text>
<polygon fill="none" stroke="black" points="131,-79 131,-101 252,-101 252,-79 131,-79"/>
<text text-anchor="start" x="134" y="-87.2" font-family="Helvetica,sans-Serif" font-size="11.00">timestamp[29,6]</text>
<polygon fill="none" stroke="black" points="10,-57 10,-79 131,-79 131,-57 10,-57"/>
<text text-anchor="start" x="30" y="-65.2" font-family="Helvetica,sans-Serif" font-size="11.00">updated_at</text>
<polygon fill="none" stroke="black" points="131,-57 131,-79 252,-79 252,-57 131,-57"/>
<text text-anchor="start" x="134" y="-65.2" font-family="Helvetica,sans-Serif" font-size="11.00">timestamp[29,6]</text>
<polygon fill="#ffffff" stroke="none" points="10,-39 10,-57 75,-57 75,-39 10,-39"/>
<polygon fill="none" stroke="black" points="10,-39 10,-57 75,-57 75,-39 10,-39"/>
<text text-anchor="start" x="13" y="-45.2" font-family="Helvetica,sans-Serif" font-size="11.00">&lt; 0</text>
<polygon fill="#ffffff" stroke="none" points="75,-39 75,-57 131,-57 131,-39 75,-39"/>
<polygon fill="none" stroke="black" points="75,-39 75,-57 131,-57 131,-39 75,-39"/>
<text text-anchor="start" x="121" y="-45.2" font-family="Helvetica,sans-Serif" font-size="11.00"> &#160;</text>
<polygon fill="#ffffff" stroke="none" points="131,-39 131,-57 252,-57 252,-39 131,-39"/>
<polygon fill="none" stroke="black" points="131,-39 131,-57 252,-57 252,-39 131,-39"/>
<text text-anchor="start" x="232" y="-45.2" font-family="Helvetica,sans-Serif" font-size="11.00">2 &gt;</text>
<polygon fill="none" stroke="black" stroke-width="2" points="9,-38 9,-300 253,-300 253,-38 9,-38"/>
</a>
</g>
</g>
<!-- service_instances&#45;&gt;service_offerings -->
<g id="edge1" class="edge"><title>service_instances:service_offering_id:w&#45;&gt;service_offerings:id.type:e</title>
<path fill="none" stroke="black" d="M523.869,-299.063C515.938,-300.298 510.021,-302.261 498,-303 407.948,-308.538 379.404,-334.875 295,-303 271.727,-294.211 277.877,-266 253,-266"/>
<polygon fill="black" stroke="black" points="530.521,-298.58 538.761,-301.591 534.511,-298.29 538.5,-298 538.5,-298 538.5,-298 534.511,-298.29 538.239,-294.409 530.521,-298.58 530.521,-298.58"/>
<ellipse fill="none" stroke="black" cx="527.329" cy="-298.812" rx="3.2" ry="3.2"/>
</g>
<!-- service_parameters_sets -->
<g id="node3" class="node"><title>service_parameters_sets</title>
<g id="a_node3"><a xlink:href="../../tables/service_parameters_sets.html" xlink:title="service_parameters_sets" target="_top">
<polygon fill="#ffffff" stroke="none" points="303,-146 303,-292 490,-292 490,-146 303,-146"/>
<polygon fill="#f5f5f5" stroke="none" points="303.5,-270 303.5,-292 490.5,-292 490.5,-270 303.5,-270"/>
<polygon fill="none" stroke="black" points="303.5,-270 303.5,-292 490.5,-292 490.5,-270 303.5,-270"/>
<text text-anchor="start" x="308.5" y="-279.2" font-family="Helvetica,sans-Serif" font-weight="bold" font-size="11.00">service_parameters_sets</text>
<text text-anchor="start" x="451.5" y="-278.2" font-family="Helvetica,sans-Serif" font-size="11.00">[table]</text>
<polygon fill="none" stroke="black" points="303.5,-248 303.5,-270 490.5,-270 490.5,-248 303.5,-248"/>
<image xlink:href="../../images/primaryKeys.png" width="11px" height="12px" preserveAspectRatio="xMinYMin meet" x="308.5" y="-265"/>
<text text-anchor="start" x="333.5" y="-256.2" font-family="Helvetica,sans-Serif" font-size="11.00">id</text>
<polygon fill="#ffffff" stroke="none" points="303.5,-226 303.5,-248 490.5,-248 490.5,-226 303.5,-226"/>
<polygon fill="none" stroke="black" points="303.5,-226 303.5,-248 490.5,-248 490.5,-226 303.5,-226"/>
<text text-anchor="start" x="333.5" y="-234.2" font-family="Helvetica,sans-Serif" font-size="11.00">ems_id</text>
<polygon fill="#ffffff" stroke="none" points="303.5,-204 303.5,-226 490.5,-226 490.5,-204 303.5,-204"/>
<polygon fill="none" stroke="black" points="303.5,-204 303.5,-226 490.5,-226 490.5,-204 303.5,-204"/>
<image xlink:href="../../images/foreignKeys.png" width="11px" height="12px" preserveAspectRatio="xMinYMin meet" x="308.5" y="-221"/>
<text text-anchor="start" x="333.5" y="-212.2" font-family="Helvetica,sans-Serif" font-size="11.00">service_offering_id</text>
<polygon fill="#ffffff" stroke="none" points="303.5,-182 303.5,-204 490.5,-204 490.5,-182 303.5,-182"/>
<polygon fill="none" stroke="black" points="303.5,-182 303.5,-204 490.5,-204 490.5,-182 303.5,-182"/>
<text text-anchor="start" x="333.5" y="-190.2" font-family="Helvetica,sans-Serif" font-size="11.00">deleted_on</text>
<polygon fill="none" stroke="black" points="303.5,-164 303.5,-182 490.5,-182 490.5,-164 303.5,-164"/>
<text text-anchor="start" x="306.5" y="-170.2" font-family="Helvetica,sans-Serif" font-size="11.00">...</text>
<polygon fill="#ffffff" stroke="none" points="303.5,-146 303.5,-164 390.5,-164 390.5,-146 303.5,-146"/>
<polygon fill="none" stroke="black" points="303.5,-146 303.5,-164 390.5,-164 390.5,-146 303.5,-146"/>
<text text-anchor="start" x="306.5" y="-152.2" font-family="Helvetica,sans-Serif" font-size="11.00">&lt; 1</text>
<polygon fill="#ffffff" stroke="none" points="390.5,-146 390.5,-164 435.5,-164 435.5,-146 390.5,-146"/>
<polygon fill="none" stroke="black" points="390.5,-146 390.5,-164 435.5,-164 435.5,-146 390.5,-146"/>
<text text-anchor="start" x="425.5" y="-152.2" font-family="Helvetica,sans-Serif" font-size="11.00"> &#160;</text>
<polygon fill="#ffffff" stroke="none" points="435.5,-146 435.5,-164 490.5,-164 490.5,-146 435.5,-146"/>
<polygon fill="none" stroke="black" points="435.5,-146 435.5,-164 490.5,-164 490.5,-146 435.5,-146"/>
<text text-anchor="start" x="470.5" y="-152.2" font-family="Helvetica,sans-Serif" font-size="11.00">1 &gt;</text>
</a>
</g>
</g>
<!-- service_instances&#45;&gt;service_parameters_sets -->
<g id="edge2" class="edge"><title>service_instances:service_parameters_set_id:w&#45;&gt;service_parameters_sets:id:e</title>
<path fill="none" stroke="black" d="M524.22,-273.039C513.534,-268.168 507.813,-259 491.5,-259"/>
<polygon fill="black" stroke="black" points="530.667,-274.376 537.769,-279.525 534.583,-275.188 538.5,-276 538.5,-276 538.5,-276 534.583,-275.188 539.231,-272.475 530.667,-274.376 530.667,-274.376"/>
<ellipse fill="none" stroke="black" cx="527.533" cy="-273.726" rx="3.2" ry="3.2"/>
</g>
<!-- service_parameters_sets&#45;&gt;service_offerings -->
<g id="edge3" class="edge"><title>service_parameters_sets:service_offering_id:w&#45;&gt;service_offerings:id.type:e</title>
<path fill="none" stroke="black" d="M288.497,-220.077C274.528,-232.976 278.418,-266 253,-266"/>
<polygon fill="black" stroke="black" points="294.979,-217.727 303.727,-218.384 298.739,-216.363 302.5,-215 302.5,-215 302.5,-215 298.739,-216.363 301.273,-211.616 294.979,-217.727 294.979,-217.727"/>
<ellipse fill="none" stroke="black" cx="291.971" cy="-218.817" rx="3.20001" ry="3.20001"/>
</g>
</g>
</svg>
