<?xml version="1.0" encoding="UTF-8" standalone="no"?>
<!DOCTYPE svg PUBLIC "-//W3C//DTD SVG 1.1//EN"
 "http://www.w3.org/Graphics/SVG/1.1/DTD/svg11.dtd">
<!-- Generated by graphviz version 2.38.0 (20140413.2041)
 -->
<!-- Title: oneDegreeRelationshipsDiagram Pages: 1 -->
<svg width="658pt" height="541pt"
 viewBox="0.00 0.00 658.00 541.00" xmlns="http://www.w3.org/2000/svg" xmlns:xlink="http://www.w3.org/1999/xlink">
<g id="graph0" class="graph" transform="scale(1 1) rotate(0) translate(4 537)">
<title>oneDegreeRelationshipsDiagram</title>
<polygon fill="#ffffff" stroke="none" points="-4,4 -4,-537 654,-537 654,4 -4,4"/>
<text text-anchor="middle" x="74.5" y="-7.2" font-family="Helvetica,sans-Serif" font-size="11.00">Generated by SchemaSpy</text>
<!-- miq_requests -->
<g id="node1" class="node"><title>miq_requests</title>
<g id="a_node1"><a xlink:href="../../tables/miq_requests.html" xlink:title="miq_requests" target="_top">
<polygon fill="#ffffff" stroke="none" points="509,-229 509,-529 642,-529 642,-229 509,-229"/>
<polygon fill="#f5f5f5" stroke="none" points="509.5,-507 509.5,-529 642.5,-529 642.5,-507 509.5,-507"/>
<polygon fill="none" stroke="black" points="509.5,-507 509.5,-529 642.5,-529 642.5,-507 509.5,-507"/>
<text text-anchor="start" x="514.5" y="-516.2" font-family="Helvetica,sans-Serif" font-weight="bold" font-size="11.00">miq_requests</text>
<text text-anchor="start" x="603.5" y="-515.2" font-family="Helvetica,sans-Serif" font-size="11.00">[table]</text>
<polygon fill="none" stroke="black" points="509.5,-485 509.5,-507 642.5,-507 642.5,-485 509.5,-485"/>
<image xlink:href="../../images/primaryKeys.png" width="11px" height="12px" preserveAspectRatio="xMinYMin meet" x="514.5" y="-502"/>
<text text-anchor="start" x="529.5" y="-493.2" font-family="Helvetica,sans-Serif" font-size="11.00">id</text>
<polygon fill="#ffffff" stroke="none" points="509.5,-463 509.5,-485 642.5,-485 642.5,-463 509.5,-463"/>
<polygon fill="none" stroke="black" points="509.5,-463 509.5,-485 642.5,-485 642.5,-463 509.5,-463"/>
<text text-anchor="start" x="529.5" y="-471.2" font-family="Helvetica,sans-Serif" font-size="11.00">approval_state</text>
<polygon fill="#ffffff" stroke="none" points="509.5,-441 509.5,-463 642.5,-463 642.5,-441 509.5,-441"/>
<polygon fill="none" stroke="black" points="509.5,-441 509.5,-463 642.5,-463 642.5,-441 509.5,-441"/>
<text text-anchor="start" x="529.5" y="-449.2" font-family="Helvetica,sans-Serif" font-size="11.00">type</text>
<polygon fill="#ffffff" stroke="none" points="509.5,-419 509.5,-441 642.5,-441 642.5,-419 509.5,-419"/>
<polygon fill="none" stroke="black" points="509.5,-419 509.5,-441 642.5,-441 642.5,-419 509.5,-419"/>
<text text-anchor="start" x="529.5" y="-427.2" font-family="Helvetica,sans-Serif" font-size="11.00">requester_id</text>
<polygon fill="#ffffff" stroke="none" points="509.5,-397 509.5,-419 642.5,-419 642.5,-397 509.5,-397"/>
<polygon fill="none" stroke="black" points="509.5,-397 509.5,-419 642.5,-419 642.5,-397 509.5,-397"/>
<text text-anchor="start" x="529.5" y="-405.2" font-family="Helvetica,sans-Serif" font-size="11.00">source_id</text>
<polygon fill="#ffffff" stroke="none" points="509.5,-375 509.5,-397 642.5,-397 642.5,-375 509.5,-375"/>
<polygon fill="none" stroke="black" points="509.5,-375 509.5,-397 642.5,-397 642.5,-375 509.5,-375"/>
<text text-anchor="start" x="529.5" y="-383.2" font-family="Helvetica,sans-Serif" font-size="11.00">source_type</text>
<polygon fill="#ffffff" stroke="none" points="509.5,-353 509.5,-375 642.5,-375 642.5,-353 509.5,-353"/>
<polygon fill="none" stroke="black" points="509.5,-353 509.5,-375 642.5,-375 642.5,-353 509.5,-353"/>
<text text-anchor="start" x="529.5" y="-361.2" font-family="Helvetica,sans-Serif" font-size="11.00">destination_id</text>
<polygon fill="#ffffff" stroke="none" points="509.5,-331 509.5,-353 642.5,-353 642.5,-331 509.5,-331"/>
<polygon fill="none" stroke="black" points="509.5,-331 509.5,-353 642.5,-353 642.5,-331 509.5,-331"/>
<text text-anchor="start" x="529.5" y="-339.2" font-family="Helvetica,sans-Serif" font-size="11.00">destination_type</text>
<polygon fill="#ffffff" stroke="none" points="509.5,-309 509.5,-331 642.5,-331 642.5,-309 509.5,-309"/>
<polygon fill="none" stroke="black" points="509.5,-309 509.5,-331 642.5,-331 642.5,-309 509.5,-309"/>
<image xlink:href="../../images/foreignKeys.png" width="11px" height="12px" preserveAspectRatio="xMinYMin meet" x="514.5" y="-326"/>
<text text-anchor="start" x="529.5" y="-317.2" font-family="Helvetica,sans-Serif" font-size="11.00">tenant_id</text>
<polygon fill="none" stroke="black" points="509.5,-287 509.5,-309 642.5,-309 642.5,-287 509.5,-287"/>
<image xlink:href="../../images/foreignKeys.png" width="11px" height="12px" preserveAspectRatio="xMinYMin meet" x="514.5" y="-304"/>
<text text-anchor="start" x="529.5" y="-295.2" font-family="Helvetica,sans-Serif" font-size="11.00">service_order_id</text>
<polygon fill="#ffffff" stroke="none" points="509.5,-265 509.5,-287 642.5,-287 642.5,-265 509.5,-265"/>
<polygon fill="none" stroke="black" points="509.5,-265 509.5,-287 642.5,-287 642.5,-265 509.5,-265"/>
<text text-anchor="start" x="529.5" y="-273.2" font-family="Helvetica,sans-Serif" font-size="11.00">parent_id</text>
<polygon fill="none" stroke="black" points="509.5,-247 509.5,-265 642.5,-265 642.5,-247 509.5,-247"/>
<text text-anchor="start" x="512.5" y="-253.2" font-family="Helvetica,sans-Serif" font-size="11.00">...</text>
<polygon fill="#ffffff" stroke="none" points="509.5,-229 509.5,-247 569.5,-247 569.5,-229 509.5,-229"/>
<polygon fill="none" stroke="black" points="509.5,-229 509.5,-247 569.5,-247 569.5,-229 509.5,-229"/>
<text text-anchor="start" x="512.5" y="-235.2" font-family="Helvetica,sans-Serif" font-size="11.00">&lt; 2</text>
<polygon fill="#ffffff" stroke="none" points="569.5,-229 569.5,-247 600.5,-247 600.5,-229 569.5,-229"/>
<polygon fill="none" stroke="black" points="569.5,-229 569.5,-247 600.5,-247 600.5,-229 569.5,-229"/>
<text text-anchor="start" x="590.5" y="-235.2" font-family="Helvetica,sans-Serif" font-size="11.00"> &#160;</text>
<polygon fill="#ffffff" stroke="none" points="600.5,-229 600.5,-247 642.5,-247 642.5,-229 600.5,-229"/>
<polygon fill="none" stroke="black" points="600.5,-229 600.5,-247 642.5,-247 642.5,-229 600.5,-229"/>
<text text-anchor="start" x="622.5" y="-235.2" font-family="Helvetica,sans-Serif" font-size="11.00">2 &gt;</text>
</a>
</g>
</g>
<!-- service_orders -->
<g id="node2" class="node"><title>service_orders</title>
<g id="a_node2"><a xlink:href="../../tables/service_orders.html" xlink:title="service_orders" target="_top">
<polygon fill="#ffffff" stroke="none" points="228,-51 228,-315 460,-315 460,-51 228,-51"/>
<polygon fill="#f5f5f5" stroke="none" points="230,-291 230,-313 458,-313 458,-291 230,-291"/>
<polygon fill="none" stroke="black" points="230,-291 230,-313 458,-313 458,-291 230,-291"/>
<text text-anchor="start" x="235" y="-300.2" font-family="Helvetica,sans-Serif" font-weight="bold" font-size="11.00">service_orders</text>
<text text-anchor="start" x="419" y="-299.2" font-family="Helvetica,sans-Serif" font-size="11.00">[table]</text>
<polygon fill="none" stroke="black" points="230,-269 230,-291 337,-291 337,-269 230,-269"/>
<image xlink:href="../../images/primaryKeys.png" width="11px" height="12px" preserveAspectRatio="xMinYMin meet" x="235" y="-286"/>
<text text-anchor="start" x="250" y="-277.2" font-family="Helvetica,sans-Serif" font-size="11.00">id</text>
<polygon fill="none" stroke="black" points="337,-269 337,-291 458,-291 458,-269 337,-269"/>
<text text-anchor="start" x="340" y="-277.2" font-family="Helvetica,sans-Serif" font-size="11.00">bigserial[19]</text>
<polygon fill="none" stroke="black" points="230,-247 230,-269 337,-269 337,-247 230,-247"/>
<text text-anchor="start" x="250" y="-255.2" font-family="Helvetica,sans-Serif" font-size="11.00">name</text>
<polygon fill="none" stroke="black" points="337,-247 337,-269 458,-269 458,-247 337,-247"/>
<text text-anchor="start" x="340" y="-255.2" font-family="Helvetica,sans-Serif" font-size="11.00">varchar[2147483647]</text>
<polygon fill="none" stroke="black" points="230,-225 230,-247 337,-247 337,-225 230,-225"/>
<image xlink:href="../../images/foreignKeys.png" width="11px" height="12px" preserveAspectRatio="xMinYMin meet" x="235" y="-242"/>
<text text-anchor="start" x="250" y="-233.2" font-family="Helvetica,sans-Serif" font-size="11.00">tenant_id</text>
<polygon fill="none" stroke="black" points="337,-225 337,-247 458,-247 458,-225 337,-225"/>
<text text-anchor="start" x="340" y="-233.2" font-family="Helvetica,sans-Serif" font-size="11.00">int8[19]</text>
<polygon fill="none" stroke="black" points="230,-203 230,-225 337,-225 337,-203 230,-203"/>
<image xlink:href="../../images/foreignKeys.png" width="11px" height="12px" preserveAspectRatio="xMinYMin meet" x="235" y="-220"/>
<text text-anchor="start" x="250" y="-211.2" font-family="Helvetica,sans-Serif" font-size="11.00">user_id</text>
<polygon fill="none" stroke="black" points="337,-203 337,-225 458,-225 458,-203 337,-203"/>
<text text-anchor="start" x="340" y="-211.2" font-family="Helvetica,sans-Serif" font-size="11.00">int8[19]</text>
<polygon fill="none" stroke="black" points="230,-181 230,-203 337,-203 337,-181 230,-181"/>
<text text-anchor="start" x="250" y="-189.2" font-family="Helvetica,sans-Serif" font-size="11.00">user_name</text>
<polygon fill="none" stroke="black" points="337,-181 337,-203 458,-203 458,-181 337,-181"/>
<text text-anchor="start" x="340" y="-189.2" font-family="Helvetica,sans-Serif" font-size="11.00">varchar[2147483647]</text>
<polygon fill="none" stroke="black" points="230,-159 230,-181 337,-181 337,-159 230,-159"/>
<text text-anchor="start" x="250" y="-167.2" font-family="Helvetica,sans-Serif" font-size="11.00">state</text>
<polygon fill="none" stroke="black" points="337,-159 337,-181 458,-181 458,-159 337,-159"/>
<text text-anchor="start" x="340" y="-167.2" font-family="Helvetica,sans-Serif" font-size="11.00">varchar[2147483647]</text>
<polygon fill="none" stroke="black" points="230,-137 230,-159 337,-159 337,-137 230,-137"/>
<text text-anchor="start" x="250" y="-145.2" font-family="Helvetica,sans-Serif" font-size="11.00">created_at</text>
<polygon fill="none" stroke="black" points="337,-137 337,-159 458,-159 458,-137 337,-137"/>
<text text-anchor="start" x="340" y="-145.2" font-family="Helvetica,sans-Serif" font-size="11.00">timestamp[29,6]</text>
<polygon fill="none" stroke="black" points="230,-115 230,-137 337,-137 337,-115 230,-115"/>
<text text-anchor="start" x="250" y="-123.2" font-family="Helvetica,sans-Serif" font-size="11.00">updated_at</text>
<polygon fill="none" stroke="black" points="337,-115 337,-137 458,-137 458,-115 337,-115"/>
<text text-anchor="start" x="340" y="-123.2" font-family="Helvetica,sans-Serif" font-size="11.00">timestamp[29,6]</text>
<polygon fill="none" stroke="black" points="230,-93 230,-115 337,-115 337,-93 230,-93"/>
<text text-anchor="start" x="250" y="-101.2" font-family="Helvetica,sans-Serif" font-size="11.00">placed_at</text>
<polygon fill="none" stroke="black" points="337,-93 337,-115 458,-115 458,-93 337,-93"/>
<text text-anchor="start" x="340" y="-101.2" font-family="Helvetica,sans-Serif" font-size="11.00">timestamp[29,6]</text>
<polygon fill="none" stroke="black" points="230,-71 230,-93 337,-93 337,-71 230,-71"/>
<text text-anchor="start" x="250" y="-79.2" font-family="Helvetica,sans-Serif" font-size="11.00">type</text>
<polygon fill="none" stroke="black" points="337,-71 337,-93 458,-93 458,-71 337,-71"/>
<text text-anchor="start" x="340" y="-79.2" font-family="Helvetica,sans-Serif" font-size="11.00">varchar[2147483647]</text>
<polygon fill="#ffffff" stroke="none" points="230,-53 230,-71 288,-71 288,-53 230,-53"/>
<polygon fill="none" stroke="black" points="230,-53 230,-71 288,-71 288,-53 230,-53"/>
<text text-anchor="start" x="233" y="-59.2" font-family="Helvetica,sans-Serif" font-size="11.00">&lt; 2</text>
<polygon fill="#ffffff" stroke="none" points="288,-53 288,-71 337,-71 337,-53 288,-53"/>
<polygon fill="none" stroke="black" points="288,-53 288,-71 337,-71 337,-53 288,-53"/>
<text text-anchor="start" x="327" y="-59.2" font-family="Helvetica,sans-Serif" font-size="11.00"> &#160;</text>
<polygon fill="#ffffff" stroke="none" points="337,-53 337,-71 458,-71 458,-53 337,-53"/>
<polygon fill="none" stroke="black" points="337,-53 337,-71 458,-71 458,-53 337,-53"/>
<text text-anchor="start" x="438" y="-59.2" font-family="Helvetica,sans-Serif" font-size="11.00">1 &gt;</text>
<polygon fill="none" stroke="black" stroke-width="2" points="229,-52 229,-314 459,-314 459,-52 229,-52"/>
</a>
</g>
</g>
<!-- miq_requests&#45;&gt;service_orders -->
<g id="edge1" class="edge"><title>miq_requests:service_order_id:w&#45;&gt;service_orders:id.type:e</title>
<path fill="none" stroke="black" d="M494.182,-295.188C482.454,-290.125 476.557,-280 459,-280"/>
<polygon fill="black" stroke="black" points="500.65,-296.458 507.806,-301.532 504.575,-297.229 508.5,-298 508.5,-298 508.5,-298 504.575,-297.229 509.194,-294.468 500.65,-296.458 500.65,-296.458"/>
<ellipse fill="none" stroke="black" cx="497.51" cy="-295.841" rx="3.2" ry="3.2"/>
</g>
<!-- tenants -->
<g id="node3" class="node"><title>tenants</title>
<g id="a_node3"><a xlink:href="../../tables/tenants.html" xlink:title="tenants" target="_top">
<polygon fill="#ffffff" stroke="none" points="8,-182 8,-372 179,-372 179,-182 8,-182"/>
<polygon fill="#f5f5f5" stroke="none" points="8.5,-350 8.5,-372 179.5,-372 179.5,-350 8.5,-350"/>
<polygon fill="none" stroke="black" points="8.5,-350 8.5,-372 179.5,-372 179.5,-350 8.5,-350"/>
<text text-anchor="start" x="13.5" y="-359.2" font-family="Helvetica,sans-Serif" font-weight="bold" font-size="11.00">tenants</text>
<text text-anchor="start" x="140.5" y="-358.2" font-family="Helvetica,sans-Serif" font-size="11.00">[table]</text>
<polygon fill="none" stroke="black" points="8.5,-328 8.5,-350 179.5,-350 179.5,-328 8.5,-328"/>
<image xlink:href="../../images/primaryKeys.png" width="11px" height="12px" preserveAspectRatio="xMinYMin meet" x="13.5" y="-345"/>
<text text-anchor="start" x="28.5" y="-336.2" font-family="Helvetica,sans-Serif" font-size="11.00">id</text>
<polygon fill="#ffffff" stroke="none" points="8.5,-306 8.5,-328 179.5,-328 179.5,-306 8.5,-306"/>
<polygon fill="none" stroke="black" points="8.5,-306 8.5,-328 179.5,-328 179.5,-306 8.5,-306"/>
<text text-anchor="start" x="28.5" y="-314.2" font-family="Helvetica,sans-Serif" font-size="11.00">domain</text>
<polygon fill="#ffffff" stroke="none" points="8.5,-284 8.5,-306 179.5,-306 179.5,-284 8.5,-284"/>
<polygon fill="none" stroke="black" points="8.5,-284 8.5,-306 179.5,-306 179.5,-284 8.5,-284"/>
<text text-anchor="start" x="28.5" y="-292.2" font-family="Helvetica,sans-Serif" font-size="11.00">subdomain</text>
<polygon fill="#ffffff" stroke="none" points="8.5,-262 8.5,-284 179.5,-284 179.5,-262 8.5,-262"/>
<polygon fill="none" stroke="black" points="8.5,-262 8.5,-284 179.5,-284 179.5,-262 8.5,-262"/>
<text text-anchor="start" x="28.5" y="-270.2" font-family="Helvetica,sans-Serif" font-size="11.00">ancestry</text>
<polygon fill="#ffffff" stroke="none" points="8.5,-240 8.5,-262 179.5,-262 179.5,-240 8.5,-240"/>
<polygon fill="none" stroke="black" points="8.5,-240 8.5,-262 179.5,-262 179.5,-240 8.5,-240"/>
<text text-anchor="start" x="28.5" y="-248.2" font-family="Helvetica,sans-Serif" font-size="11.00">source_type</text>
<polygon fill="#ffffff" stroke="none" points="8.5,-218 8.5,-240 179.5,-240 179.5,-218 8.5,-218"/>
<polygon fill="none" stroke="black" points="8.5,-218 8.5,-240 179.5,-240 179.5,-218 8.5,-218"/>
<text text-anchor="start" x="28.5" y="-226.2" font-family="Helvetica,sans-Serif" font-size="11.00">source_id</text>
<polygon fill="none" stroke="black" points="8.5,-200 8.5,-218 179.5,-218 179.5,-200 8.5,-200"/>
<text text-anchor="start" x="11.5" y="-206.2" font-family="Helvetica,sans-Serif" font-size="11.00">...</text>
<polygon fill="#ffffff" stroke="none" points="8.5,-182 8.5,-200 78.5,-200 78.5,-182 8.5,-182"/>
<polygon fill="none" stroke="black" points="8.5,-182 8.5,-200 78.5,-200 78.5,-182 8.5,-182"/>
<text text-anchor="start" x="11.5" y="-188.2" font-family="Helvetica,sans-Serif" font-size="11.00"> &#160;</text>
<polygon fill="#ffffff" stroke="none" points="78.5,-182 78.5,-200 120.5,-200 120.5,-182 78.5,-182"/>
<polygon fill="none" stroke="black" points="78.5,-182 78.5,-200 120.5,-200 120.5,-182 78.5,-182"/>
<text text-anchor="start" x="110.5" y="-188.2" font-family="Helvetica,sans-Serif" font-size="11.00"> &#160;</text>
<polygon fill="#ffffff" stroke="none" points="120.5,-182 120.5,-200 179.5,-200 179.5,-182 120.5,-182"/>
<polygon fill="none" stroke="black" points="120.5,-182 120.5,-200 179.5,-200 179.5,-182 120.5,-182"/>
<text text-anchor="start" x="152.5" y="-188.2" font-family="Helvetica,sans-Serif" font-size="11.00">20 &gt;</text>
</a>
</g>
</g>
<!-- miq_requests&#45;&gt;tenants -->
<g id="edge2" class="edge"><title>miq_requests:tenant_id:w&#45;&gt;tenants:id:e</title>
<path fill="none" stroke="black" d="M493.861,-320.964C485.924,-322.102 480,-323.969 468,-325 340.541,-335.956 308.429,-339 180.5,-339"/>
<polygon fill="black" stroke="black" points="500.517,-320.526 508.737,-323.592 504.509,-320.263 508.5,-320 508.5,-320 508.5,-320 504.509,-320.263 508.263,-316.408 500.517,-320.526 500.517,-320.526"/>
<ellipse fill="none" stroke="black" cx="497.324" cy="-320.736" rx="3.2" ry="3.2"/>
</g>
<!-- service_orders&#45;&gt;tenants -->
<g id="edge3" class="edge"><title>service_orders:tenant_id:w&#45;&gt;tenants:id:e</title>
<path fill="none" stroke="black" d="M215.135,-239.912C189.334,-258.726 225.169,-339 180.5,-339"/>
<polygon fill="black" stroke="black" points="221.301,-238.172 229.978,-239.465 225.15,-237.086 229,-236 229,-236 229,-236 225.15,-237.086 228.022,-232.535 221.301,-238.172 221.301,-238.172"/>
<ellipse fill="none" stroke="black" cx="218.221" cy="-239.041" rx="3.20001" ry="3.20001"/>
</g>
<!-- users -->
<g id="node4" class="node"><title>users</title>
<g id="a_node4"><a xlink:href="../../tables/users.html" xlink:title="users" target="_top">
<polygon fill="#ffffff" stroke="none" points="19,-37 19,-161 168,-161 168,-37 19,-37"/>
<polygon fill="#f5f5f5" stroke="none" points="19.5,-139 19.5,-161 168.5,-161 168.5,-139 19.5,-139"/>
<polygon fill="none" stroke="black" points="19.5,-139 19.5,-161 168.5,-161 168.5,-139 19.5,-139"/>
<text text-anchor="start" x="24.5" y="-148.2" font-family="Helvetica,sans-Serif" font-weight="bold" font-size="11.00">users</text>
<text text-anchor="start" x="129.5" y="-147.2" font-family="Helvetica,sans-Serif" font-size="11.00">[table]</text>
<polygon fill="none" stroke="black" points="19.5,-117 19.5,-139 168.5,-139 168.5,-117 19.5,-117"/>
<image xlink:href="../../images/primaryKeys.png" width="11px" height="12px" preserveAspectRatio="xMinYMin meet" x="24.5" y="-134"/>
<text text-anchor="start" x="39.5" y="-125.2" font-family="Helvetica,sans-Serif" font-size="11.00">id</text>
<polygon fill="#ffffff" stroke="none" points="19.5,-95 19.5,-117 168.5,-117 168.5,-95 19.5,-95"/>
<polygon fill="none" stroke="black" points="19.5,-95 19.5,-117 168.5,-117 168.5,-95 19.5,-95"/>
<text text-anchor="start" x="39.5" y="-103.2" font-family="Helvetica,sans-Serif" font-size="11.00">userid</text>
<polygon fill="#ffffff" stroke="none" points="19.5,-73 19.5,-95 168.5,-95 168.5,-73 19.5,-73"/>
<polygon fill="none" stroke="black" points="19.5,-73 19.5,-95 168.5,-95 168.5,-73 19.5,-73"/>
<text text-anchor="start" x="39.5" y="-81.2" font-family="Helvetica,sans-Serif" font-size="11.00">current_group_id</text>
<polygon fill="none" stroke="black" points="19.5,-55 19.5,-73 168.5,-73 168.5,-55 19.5,-55"/>
<text text-anchor="start" x="22.5" y="-61.2" font-family="Helvetica,sans-Serif" font-size="11.00">...</text>
<polygon fill="#ffffff" stroke="none" points="19.5,-37 19.5,-55 78.5,-55 78.5,-37 19.5,-37"/>
<polygon fill="none" stroke="black" points="19.5,-37 19.5,-55 78.5,-55 78.5,-37 19.5,-37"/>
<text text-anchor="start" x="22.5" y="-43.2" font-family="Helvetica,sans-Serif" font-size="11.00"> &#160;</text>
<polygon fill="#ffffff" stroke="none" points="78.5,-37 78.5,-55 114.5,-55 114.5,-37 78.5,-37"/>
<polygon fill="none" stroke="black" points="78.5,-37 78.5,-55 114.5,-55 114.5,-37 78.5,-37"/>
<text text-anchor="start" x="104.5" y="-43.2" font-family="Helvetica,sans-Serif" font-size="11.00"> &#160;</text>
<polygon fill="#ffffff" stroke="none" points="114.5,-37 114.5,-55 168.5,-55 168.5,-37 114.5,-37"/>
<polygon fill="none" stroke="black" points="114.5,-37 114.5,-55 168.5,-55 168.5,-37 114.5,-37"/>
<text text-anchor="start" x="141.5" y="-43.2" font-family="Helvetica,sans-Serif" font-size="11.00">15 &gt;</text>
</a>
</g>
</g>
<!-- service_orders&#45;&gt;users -->
<g id="edge4" class="edge"><title>service_orders:user_id:w&#45;&gt;users:id:e</title>
<path fill="none" stroke="black" d="M215.005,-210.305C189.637,-193.844 210.169,-128 169.5,-128"/>
<polygon fill="black" stroke="black" points="221.265,-211.958 228.081,-217.481 225.133,-212.979 229,-214 229,-214 229,-214 225.133,-212.979 229.919,-210.519 221.265,-211.958 221.265,-211.958"/>
<ellipse fill="none" stroke="black" cx="218.171" cy="-211.141" rx="3.2" ry="3.2"/>
</g>
</g>
</svg>
