<?xml version="1.0" encoding="UTF-8" standalone="no"?>
<!DOCTYPE svg PUBLIC "-//W3C//DTD SVG 1.1//EN"
 "http://www.w3.org/Graphics/SVG/1.1/DTD/svg11.dtd">
<!-- Generated by graphviz version 2.38.0 (20140413.2041)
 -->
<!-- Title: oneDegreeRelationshipsDiagram Pages: 1 -->
<svg width="735pt" height="417pt"
 viewBox="0.00 0.00 735.00 417.00" xmlns="http://www.w3.org/2000/svg" xmlns:xlink="http://www.w3.org/1999/xlink">
<g id="graph0" class="graph" transform="scale(1 1) rotate(0) translate(4 413)">
<title>oneDegreeRelationshipsDiagram</title>
<polygon fill="#ffffff" stroke="none" points="-4,4 -4,-413 731,-413 731,4 -4,4"/>
<text text-anchor="middle" x="74.5" y="-7.2" font-family="Helvetica,sans-Serif" font-size="11.00">Generated by SchemaSpy</text>
<!-- service_instances -->
<g id="node1" class="node"><title>service_instances</title>
<g id="a_node1"><a xlink:href="../../tables/service_instances.html" xlink:title="service_instances" target="_top">
<polygon fill="#ffffff" stroke="none" points="542,-237 542,-405 719,-405 719,-237 542,-237"/>
<polygon fill="#f5f5f5" stroke="none" points="542.5,-383 542.5,-405 719.5,-405 719.5,-383 542.5,-383"/>
<polygon fill="none" stroke="black" points="542.5,-383 542.5,-405 719.5,-405 719.5,-383 542.5,-383"/>
<text text-anchor="start" x="547.5" y="-392.2" font-family="Helvetica,sans-Serif" font-weight="bold" font-size="11.00">service_instances</text>
<text text-anchor="start" x="680.5" y="-391.2" font-family="Helvetica,sans-Serif" font-size="11.00">[table]</text>
<polygon fill="none" stroke="black" points="542.5,-361 542.5,-383 719.5,-383 719.5,-361 542.5,-361"/>
<image xlink:href="../../images/primaryKeys.png" width="11px" height="12px" preserveAspectRatio="xMinYMin meet" x="547.5" y="-378"/>
<text text-anchor="start" x="562.5" y="-369.2" font-family="Helvetica,sans-Serif" font-size="11.00">id</text>
<polygon fill="#ffffff" stroke="none" points="542.5,-339 542.5,-361 719.5,-361 719.5,-339 542.5,-339"/>
<polygon fill="none" stroke="black" points="542.5,-339 542.5,-361 719.5,-361 719.5,-339 542.5,-339"/>
<text text-anchor="start" x="562.5" y="-347.2" font-family="Helvetica,sans-Serif" font-size="11.00">ems_id</text>
<polygon fill="#ffffff" stroke="none" points="542.5,-317 542.5,-339 719.5,-339 719.5,-317 542.5,-317"/>
<polygon fill="none" stroke="black" points="542.5,-317 542.5,-339 719.5,-339 719.5,-317 542.5,-317"/>
<image xlink:href="../../images/foreignKeys.png" width="11px" height="12px" preserveAspectRatio="xMinYMin meet" x="547.5" y="-334"/>
<text text-anchor="start" x="562.5" y="-325.2" font-family="Helvetica,sans-Serif" font-size="11.00">service_offering_id</text>
<polygon fill="#ffffff" stroke="none" points="542.5,-295 542.5,-317 719.5,-317 719.5,-295 542.5,-295"/>
<polygon fill="none" stroke="black" points="542.5,-295 542.5,-317 719.5,-317 719.5,-295 542.5,-295"/>
<image xlink:href="../../images/foreignKeys.png" width="11px" height="12px" preserveAspectRatio="xMinYMin meet" x="547.5" y="-312"/>
<text text-anchor="start" x="562.5" y="-303.2" font-family="Helvetica,sans-Serif" font-size="11.00">service_parameters_set_id</text>
<polygon fill="#ffffff" stroke="none" points="542.5,-273 542.5,-295 719.5,-295 719.5,-273 542.5,-273"/>
<polygon fill="none" stroke="black" points="542.5,-273 542.5,-295 719.5,-295 719.5,-273 542.5,-273"/>
<text text-anchor="start" x="562.5" y="-281.2" font-family="Helvetica,sans-Serif" font-size="11.00">deleted_on</text>
<polygon fill="none" stroke="black" points="542.5,-255 542.5,-273 719.5,-273 719.5,-255 542.5,-255"/>
<text text-anchor="start" x="545.5" y="-261.2" font-family="Helvetica,sans-Serif" font-size="11.00">...</text>
<polygon fill="#ffffff" stroke="none" points="542.5,-237 542.5,-255 629.5,-255 629.5,-237 542.5,-237"/>
<polygon fill="none" stroke="black" points="542.5,-237 542.5,-255 629.5,-255 629.5,-237 542.5,-237"/>
<text text-anchor="start" x="545.5" y="-243.2" font-family="Helvetica,sans-Serif" font-size="11.00">&lt; 2</text>
<polygon fill="#ffffff" stroke="none" points="629.5,-237 629.5,-255 674.5,-255 674.5,-237 629.5,-237"/>
<polygon fill="none" stroke="black" points="629.5,-237 629.5,-255 674.5,-255 674.5,-237 629.5,-237"/>
<text text-anchor="start" x="664.5" y="-243.2" font-family="Helvetica,sans-Serif" font-size="11.00"> &#160;</text>
<polygon fill="#ffffff" stroke="none" points="674.5,-237 674.5,-255 719.5,-255 719.5,-237 674.5,-237"/>
<polygon fill="none" stroke="black" points="674.5,-237 674.5,-255 719.5,-255 719.5,-237 674.5,-237"/>
<text text-anchor="start" x="709.5" y="-243.2" font-family="Helvetica,sans-Serif" font-size="11.00"> &#160;</text>
</a>
</g>
</g>
<!-- service_offerings -->
<g id="node2" class="node"><title>service_offerings</title>
<g id="a_node2"><a xlink:href="../../tables/service_offerings.html" xlink:title="service_offerings" target="_top">
<polygon fill="#ffffff" stroke="none" points="8,-160 8,-284 152,-284 152,-160 8,-160"/>
<polygon fill="#f5f5f5" stroke="none" points="8,-262 8,-284 152,-284 152,-262 8,-262"/>
<polygon fill="none" stroke="black" points="8,-262 8,-284 152,-284 152,-262 8,-262"/>
<text text-anchor="start" x="13" y="-271.2" font-family="Helvetica,sans-Serif" font-weight="bold" font-size="11.00">service_offerings</text>
<text text-anchor="start" x="113" y="-270.2" font-family="Helvetica,sans-Serif" font-size="11.00">[table]</text>
<polygon fill="none" stroke="black" points="8,-240 8,-262 152,-262 152,-240 8,-240"/>
<image xlink:href="../../images/primaryKeys.png" width="11px" height="12px" preserveAspectRatio="xMinYMin meet" x="13" y="-257"/>
<text text-anchor="start" x="40" y="-248.2" font-family="Helvetica,sans-Serif" font-size="11.00">id</text>
<polygon fill="#ffffff" stroke="none" points="8,-218 8,-240 152,-240 152,-218 8,-218"/>
<polygon fill="none" stroke="black" points="8,-218 8,-240 152,-240 152,-218 8,-218"/>
<text text-anchor="start" x="40" y="-226.2" font-family="Helvetica,sans-Serif" font-size="11.00">ems_id</text>
<polygon fill="#ffffff" stroke="none" points="8,-196 8,-218 152,-218 152,-196 8,-196"/>
<polygon fill="none" stroke="black" points="8,-196 8,-218 152,-218 152,-196 8,-196"/>
<text text-anchor="start" x="40" y="-204.2" font-family="Helvetica,sans-Serif" font-size="11.00">deleted_on</text>
<polygon fill="none" stroke="black" points="8,-178 8,-196 152,-196 152,-178 8,-178"/>
<text text-anchor="start" x="11" y="-184.2" font-family="Helvetica,sans-Serif" font-size="11.00">...</text>
<polygon fill="#ffffff" stroke="none" points="8,-160 8,-178 68,-178 68,-160 8,-160"/>
<polygon fill="none" stroke="black" points="8,-160 8,-178 68,-178 68,-160 8,-160"/>
<text text-anchor="start" x="11" y="-166.2" font-family="Helvetica,sans-Serif" font-size="11.00"> &#160;</text>
<polygon fill="#ffffff" stroke="none" points="68,-160 68,-178 105,-178 105,-160 68,-160"/>
<polygon fill="none" stroke="black" points="68,-160 68,-178 105,-178 105,-160 68,-160"/>
<text text-anchor="start" x="95" y="-166.2" font-family="Helvetica,sans-Serif" font-size="11.00"> &#160;</text>
<polygon fill="#ffffff" stroke="none" points="105,-160 105,-178 152,-178 152,-160 105,-160"/>
<polygon fill="none" stroke="black" points="105,-160 105,-178 152,-178 152,-160 105,-160"/>
<text text-anchor="start" x="132" y="-166.2" font-family="Helvetica,sans-Serif" font-size="11.00">2 &gt;</text>
</a>
</g>
</g>
<!-- service_instances&#45;&gt;service_offerings -->
<g id="edge1" class="edge"><title>service_instances:service_offering_id:w&#45;&gt;service_offerings:id:e</title>
<path fill="none" stroke="black" d="M527.133,-329.224C519.07,-330.702 513.193,-333.102 501,-334 364.481,-344.058 308.918,-406.813 193,-334 158.324,-312.219 193.949,-251 153,-251"/>
<polygon fill="black" stroke="black" points="533.529,-328.679 541.806,-331.587 537.514,-328.34 541.5,-328 541.5,-328 541.5,-328 537.514,-328.34 541.194,-324.413 533.529,-328.679 533.529,-328.679"/>
<ellipse fill="none" stroke="black" cx="530.34" cy="-328.951" rx="3.2" ry="3.2"/>
</g>
<!-- service_parameters_sets -->
<g id="node3" class="node"><title>service_parameters_sets</title>
<g id="a_node3"><a xlink:href="../../tables/service_parameters_sets.html" xlink:title="service_parameters_sets" target="_top">
<polygon fill="#ffffff" stroke="none" points="201,-37 201,-323 493,-323 493,-37 201,-37"/>
<polygon fill="#f5f5f5" stroke="none" points="203,-299 203,-321 491,-321 491,-299 203,-299"/>
<polygon fill="none" stroke="black" points="203,-299 203,-321 491,-321 491,-299 203,-299"/>
<text text-anchor="start" x="208" y="-308.2" font-family="Helvetica,sans-Serif" font-weight="bold" font-size="11.00">service_parameters_sets</text>
<text text-anchor="start" x="452" y="-307.2" font-family="Helvetica,sans-Serif" font-size="11.00">[table]</text>
<polygon fill="none" stroke="black" points="203,-277 203,-299 370,-299 370,-277 203,-277"/>
<image xlink:href="../../images/primaryKeys.png" width="11px" height="12px" preserveAspectRatio="xMinYMin meet" x="208" y="-294"/>
<text text-anchor="start" x="223" y="-285.2" font-family="Helvetica,sans-Serif" font-size="11.00">id</text>
<polygon fill="none" stroke="black" points="370,-277 370,-299 491,-299 491,-277 370,-277"/>
<text text-anchor="start" x="373" y="-285.2" font-family="Helvetica,sans-Serif" font-size="11.00">bigserial[19]</text>
<polygon fill="none" stroke="black" points="203,-255 203,-277 370,-277 370,-255 203,-255"/>
<text text-anchor="start" x="223" y="-263.2" font-family="Helvetica,sans-Serif" font-size="11.00">name</text>
<polygon fill="none" stroke="black" points="370,-255 370,-277 491,-277 491,-255 370,-255"/>
<text text-anchor="start" x="373" y="-263.2" font-family="Helvetica,sans-Serif" font-size="11.00">varchar[2147483647]</text>
<polygon fill="none" stroke="black" points="203,-233 203,-255 370,-255 370,-233 203,-233"/>
<text text-anchor="start" x="223" y="-241.2" font-family="Helvetica,sans-Serif" font-size="11.00">ems_ref</text>
<polygon fill="none" stroke="black" points="370,-233 370,-255 491,-255 491,-233 370,-233"/>
<text text-anchor="start" x="373" y="-241.2" font-family="Helvetica,sans-Serif" font-size="11.00">varchar[2147483647]</text>
<polygon fill="none" stroke="black" points="203,-211 203,-233 370,-233 370,-211 203,-211"/>
<text text-anchor="start" x="223" y="-219.2" font-family="Helvetica,sans-Serif" font-size="11.00">type</text>
<polygon fill="none" stroke="black" points="370,-211 370,-233 491,-233 491,-211 370,-211"/>
<text text-anchor="start" x="373" y="-219.2" font-family="Helvetica,sans-Serif" font-size="11.00">varchar[2147483647]</text>
<polygon fill="none" stroke="black" points="203,-189 203,-211 370,-211 370,-189 203,-189"/>
<text text-anchor="start" x="223" y="-197.2" font-family="Helvetica,sans-Serif" font-size="11.00">description</text>
<polygon fill="none" stroke="black" points="370,-189 370,-211 491,-211 491,-189 370,-189"/>
<text text-anchor="start" x="373" y="-197.2" font-family="Helvetica,sans-Serif" font-size="11.00">text[2147483647]</text>
<polygon fill="#ffffff" stroke="none" points="203,-167 203,-189 370,-189 370,-167 203,-167"/>
<polygon fill="none" stroke="black" points="203,-167 203,-189 370,-189 370,-167 203,-167"/>
<text text-anchor="start" x="223" y="-175.2" font-family="Helvetica,sans-Serif" font-size="11.00">ems_id</text>
<polygon fill="none" stroke="black" points="370,-167 370,-189 491,-189 491,-167 370,-167"/>
<text text-anchor="start" x="373" y="-175.2" font-family="Helvetica,sans-Serif" font-size="11.00">int8[19]</text>
<polygon fill="#ffffff" stroke="none" points="203,-145 203,-167 370,-167 370,-145 203,-145"/>
<polygon fill="none" stroke="black" points="203,-145 203,-167 370,-167 370,-145 203,-145"/>
<image xlink:href="../../images/foreignKeys.png" width="11px" height="12px" preserveAspectRatio="xMinYMin meet" x="208" y="-162"/>
<text text-anchor="start" x="223" y="-153.2" font-family="Helvetica,sans-Serif" font-size="11.00">service_offering_id</text>
<polygon fill="none" stroke="black" points="370,-145 370,-167 491,-167 491,-145 370,-145"/>
<text text-anchor="start" x="373" y="-153.2" font-family="Helvetica,sans-Serif" font-size="11.00">int8[19]</text>
<polygon fill="none" stroke="black" points="203,-123 203,-145 370,-145 370,-123 203,-123"/>
<text text-anchor="start" x="223" y="-131.2" font-family="Helvetica,sans-Serif" font-size="11.00">extra</text>
<polygon fill="none" stroke="black" points="370,-123 370,-145 491,-145 491,-123 370,-123"/>
<text text-anchor="start" x="373" y="-131.2" font-family="Helvetica,sans-Serif" font-size="11.00">jsonb[2147483647]</text>
<polygon fill="#ffffff" stroke="none" points="203,-101 203,-123 370,-123 370,-101 203,-101"/>
<polygon fill="none" stroke="black" points="203,-101 203,-123 370,-123 370,-101 203,-101"/>
<text text-anchor="start" x="223" y="-109.2" font-family="Helvetica,sans-Serif" font-size="11.00">deleted_on</text>
<polygon fill="none" stroke="black" points="370,-101 370,-123 491,-123 491,-101 370,-101"/>
<text text-anchor="start" x="373" y="-109.2" font-family="Helvetica,sans-Serif" font-size="11.00">timestamp[29,6]</text>
<polygon fill="none" stroke="black" points="203,-79 203,-101 370,-101 370,-79 203,-79"/>
<text text-anchor="start" x="223" y="-87.2" font-family="Helvetica,sans-Serif" font-size="11.00">created_at</text>
<polygon fill="none" stroke="black" points="370,-79 370,-101 491,-101 491,-79 370,-79"/>
<text text-anchor="start" x="373" y="-87.2" font-family="Helvetica,sans-Serif" font-size="11.00">timestamp[29,6]</text>
<polygon fill="none" stroke="black" points="203,-57 203,-79 370,-79 370,-57 203,-57"/>
<text text-anchor="start" x="223" y="-65.2" font-family="Helvetica,sans-Serif" font-size="11.00">updated_at</text>
<polygon fill="none" stroke="black" points="370,-57 370,-79 491,-79 491,-57 370,-57"/>
<text text-anchor="start" x="373" y="-65.2" font-family="Helvetica,sans-Serif" font-size="11.00">timestamp[29,6]</text>
<polygon fill="#ffffff" stroke="none" points="203,-39 203,-57 291,-57 291,-39 203,-39"/>
<polygon fill="none" stroke="black" points="203,-39 203,-57 291,-57 291,-39 203,-39"/>
<text text-anchor="start" x="206" y="-45.2" font-family="Helvetica,sans-Serif" font-size="11.00">&lt; 1</text>
<polygon fill="#ffffff" stroke="none" points="291,-39 291,-57 370,-57 370,-39 291,-39"/>
<polygon fill="none" stroke="black" points="291,-39 291,-57 370,-57 370,-39 291,-39"/>
<text text-anchor="start" x="360" y="-45.2" font-family="Helvetica,sans-Serif" font-size="11.00"> &#160;</text>
<polygon fill="#ffffff" stroke="none" points="370,-39 370,-57 491,-57 491,-39 370,-39"/>
<polygon fill="none" stroke="black" points="370,-39 370,-57 491,-57 491,-39 370,-39"/>
<text text-anchor="start" x="471" y="-45.2" font-family="Helvetica,sans-Serif" font-size="11.00">1 &gt;</text>
<polygon fill="none" stroke="black" stroke-width="2" points="202,-38 202,-322 492,-322 492,-38 202,-38"/>
</a>
</g>
</g>
<!-- service_instances&#45;&gt;service_parameters_sets -->
<g id="edge2" class="edge"><title>service_instances:service_parameters_set_id:w&#45;&gt;service_parameters_sets:id.type:e</title>
<path fill="none" stroke="black" d="M527.182,-303.188C515.454,-298.125 509.557,-288 492,-288"/>
<polygon fill="black" stroke="black" points="533.65,-304.458 540.806,-309.532 537.575,-305.229 541.5,-306 541.5,-306 541.5,-306 537.575,-305.229 542.194,-302.468 533.65,-304.458 533.65,-304.458"/>
<ellipse fill="none" stroke="black" cx="530.51" cy="-303.841" rx="3.2" ry="3.2"/>
</g>
<!-- service_parameters_sets&#45;&gt;service_offerings -->
<g id="edge3" class="edge"><title>service_parameters_sets:service_offering_id:w&#45;&gt;service_offerings:id:e</title>
<path fill="none" stroke="black" d="M187.889,-160.329C164.802,-178.914 194.384,-251 153,-251"/>
<polygon fill="black" stroke="black" points="194.352,-158.346 203.056,-159.442 198.176,-157.173 202,-156 202,-156 202,-156 198.176,-157.173 200.944,-152.558 194.352,-158.346 194.352,-158.346"/>
<ellipse fill="none" stroke="black" cx="191.293" cy="-159.285" rx="3.20001" ry="3.20001"/>
</g>
</g>
</svg>
