<?xml version="1.0" encoding="UTF-8" standalone="no"?>
<!DOCTYPE svg PUBLIC "-//W3C//DTD SVG 1.1//EN"
 "http://www.w3.org/Graphics/SVG/1.1/DTD/svg11.dtd">
<!-- Generated by graphviz version 2.38.0 (20140413.2041)
 -->
<!-- Title: oneDegreeRelationshipsDiagram Pages: 1 -->
<svg width="723pt" height="533pt"
 viewBox="0.00 0.00 723.00 533.00" xmlns="http://www.w3.org/2000/svg" xmlns:xlink="http://www.w3.org/1999/xlink">
<g id="graph0" class="graph" transform="scale(1 1) rotate(0) translate(4 529)">
<title>oneDegreeRelationshipsDiagram</title>
<polygon fill="#ffffff" stroke="none" points="-4,4 -4,-529 719,-529 719,4 -4,4"/>
<text text-anchor="middle" x="74.5" y="-7.2" font-family="Helvetica,sans-Serif" font-size="11.00">Generated by SchemaSpy</text>
<!-- service_resources -->
<g id="node1" class="node"><title>service_resources</title>
<g id="a_node1"><a xlink:href="../../tables/service_resources.html" xlink:title="service_resources" target="_top">
<polygon fill="#ffffff" stroke="none" points="443,-37 443,-521 707,-521 707,-37 443,-37"/>
<polygon fill="#f5f5f5" stroke="none" points="445,-497 445,-519 705,-519 705,-497 445,-497"/>
<polygon fill="none" stroke="black" points="445,-497 445,-519 705,-519 705,-497 445,-497"/>
<text text-anchor="start" x="450" y="-506.2" font-family="Helvetica,sans-Serif" font-weight="bold" font-size="11.00">service_resources</text>
<text text-anchor="start" x="666" y="-505.2" font-family="Helvetica,sans-Serif" font-size="11.00">[table]</text>
<polygon fill="none" stroke="black" points="445,-475 445,-497 584,-497 584,-475 445,-475"/>
<image xlink:href="../../images/primaryKeys.png" width="11px" height="12px" preserveAspectRatio="xMinYMin meet" x="450" y="-492"/>
<text text-anchor="start" x="465" y="-483.2" font-family="Helvetica,sans-Serif" font-size="11.00">id</text>
<polygon fill="none" stroke="black" points="584,-475 584,-497 705,-497 705,-475 584,-475"/>
<text text-anchor="start" x="587" y="-483.2" font-family="Helvetica,sans-Serif" font-size="11.00">bigserial[19]</text>
<polygon fill="none" stroke="black" points="445,-453 445,-475 584,-475 584,-453 445,-453"/>
<image xlink:href="../../images/foreignKeys.png" width="11px" height="12px" preserveAspectRatio="xMinYMin meet" x="450" y="-470"/>
<text text-anchor="start" x="465" y="-461.2" font-family="Helvetica,sans-Serif" font-size="11.00">service_template_id</text>
<polygon fill="none" stroke="black" points="584,-453 584,-475 705,-475 705,-453 584,-453"/>
<text text-anchor="start" x="587" y="-461.2" font-family="Helvetica,sans-Serif" font-size="11.00">int8[19]</text>
<polygon fill="none" stroke="black" points="445,-431 445,-453 584,-453 584,-431 445,-431"/>
<text text-anchor="start" x="465" y="-439.2" font-family="Helvetica,sans-Serif" font-size="11.00">resource_id</text>
<polygon fill="none" stroke="black" points="584,-431 584,-453 705,-453 705,-431 584,-431"/>
<text text-anchor="start" x="587" y="-439.2" font-family="Helvetica,sans-Serif" font-size="11.00">int8[19]</text>
<polygon fill="none" stroke="black" points="445,-409 445,-431 584,-431 584,-409 445,-409"/>
<text text-anchor="start" x="465" y="-417.2" font-family="Helvetica,sans-Serif" font-size="11.00">resource_type</text>
<polygon fill="none" stroke="black" points="584,-409 584,-431 705,-431 705,-409 584,-409"/>
<text text-anchor="start" x="587" y="-417.2" font-family="Helvetica,sans-Serif" font-size="11.00">varchar[2147483647]</text>
<polygon fill="none" stroke="black" points="445,-387 445,-409 584,-409 584,-387 445,-387"/>
<text text-anchor="start" x="465" y="-395.2" font-family="Helvetica,sans-Serif" font-size="11.00">group_idx</text>
<polygon fill="none" stroke="black" points="584,-387 584,-409 705,-409 705,-387 584,-387"/>
<text text-anchor="start" x="587" y="-395.2" font-family="Helvetica,sans-Serif" font-size="11.00">int4[10]</text>
<polygon fill="none" stroke="black" points="445,-365 445,-387 584,-387 584,-365 445,-365"/>
<text text-anchor="start" x="465" y="-373.2" font-family="Helvetica,sans-Serif" font-size="11.00">scaling_min</text>
<polygon fill="none" stroke="black" points="584,-365 584,-387 705,-387 705,-365 584,-365"/>
<text text-anchor="start" x="587" y="-373.2" font-family="Helvetica,sans-Serif" font-size="11.00">int4[10]</text>
<polygon fill="none" stroke="black" points="445,-343 445,-365 584,-365 584,-343 445,-343"/>
<text text-anchor="start" x="465" y="-351.2" font-family="Helvetica,sans-Serif" font-size="11.00">scaling_max</text>
<polygon fill="none" stroke="black" points="584,-343 584,-365 705,-365 705,-343 584,-343"/>
<text text-anchor="start" x="587" y="-351.2" font-family="Helvetica,sans-Serif" font-size="11.00">int4[10]</text>
<polygon fill="none" stroke="black" points="445,-321 445,-343 584,-343 584,-321 445,-321"/>
<text text-anchor="start" x="465" y="-329.2" font-family="Helvetica,sans-Serif" font-size="11.00">start_action</text>
<polygon fill="none" stroke="black" points="584,-321 584,-343 705,-343 705,-321 584,-321"/>
<text text-anchor="start" x="587" y="-329.2" font-family="Helvetica,sans-Serif" font-size="11.00">varchar[2147483647]</text>
<polygon fill="none" stroke="black" points="445,-299 445,-321 584,-321 584,-299 445,-299"/>
<text text-anchor="start" x="465" y="-307.2" font-family="Helvetica,sans-Serif" font-size="11.00">start_delay</text>
<polygon fill="none" stroke="black" points="584,-299 584,-321 705,-321 705,-299 584,-299"/>
<text text-anchor="start" x="587" y="-307.2" font-family="Helvetica,sans-Serif" font-size="11.00">int4[10]</text>
<polygon fill="none" stroke="black" points="445,-277 445,-299 584,-299 584,-277 445,-277"/>
<text text-anchor="start" x="465" y="-285.2" font-family="Helvetica,sans-Serif" font-size="11.00">stop_action</text>
<polygon fill="none" stroke="black" points="584,-277 584,-299 705,-299 705,-277 584,-277"/>
<text text-anchor="start" x="587" y="-285.2" font-family="Helvetica,sans-Serif" font-size="11.00">varchar[2147483647]</text>
<polygon fill="none" stroke="black" points="445,-255 445,-277 584,-277 584,-255 445,-255"/>
<text text-anchor="start" x="465" y="-263.2" font-family="Helvetica,sans-Serif" font-size="11.00">stop_delay</text>
<polygon fill="none" stroke="black" points="584,-255 584,-277 705,-277 705,-255 584,-255"/>
<text text-anchor="start" x="587" y="-263.2" font-family="Helvetica,sans-Serif" font-size="11.00">int4[10]</text>
<polygon fill="none" stroke="black" points="445,-233 445,-255 584,-255 584,-233 445,-233"/>
<text text-anchor="start" x="465" y="-241.2" font-family="Helvetica,sans-Serif" font-size="11.00">created_at</text>
<polygon fill="none" stroke="black" points="584,-233 584,-255 705,-255 705,-233 584,-233"/>
<text text-anchor="start" x="587" y="-241.2" font-family="Helvetica,sans-Serif" font-size="11.00">timestamp[29,6]</text>
<polygon fill="none" stroke="black" points="445,-211 445,-233 584,-233 584,-211 445,-211"/>
<text text-anchor="start" x="465" y="-219.2" font-family="Helvetica,sans-Serif" font-size="11.00">updated_at</text>
<polygon fill="none" stroke="black" points="584,-211 584,-233 705,-233 705,-211 584,-211"/>
<text text-anchor="start" x="587" y="-219.2" font-family="Helvetica,sans-Serif" font-size="11.00">timestamp[29,6]</text>
<polygon fill="none" stroke="black" points="445,-189 445,-211 584,-211 584,-189 445,-189"/>
<text text-anchor="start" x="465" y="-197.2" font-family="Helvetica,sans-Serif" font-size="11.00">name</text>
<polygon fill="none" stroke="black" points="584,-189 584,-211 705,-211 705,-189 584,-189"/>
<text text-anchor="start" x="587" y="-197.2" font-family="Helvetica,sans-Serif" font-size="11.00">varchar[2147483647]</text>
<polygon fill="none" stroke="black" points="445,-167 445,-189 584,-189 584,-167 445,-167"/>
<image xlink:href="../../images/foreignKeys.png" width="11px" height="12px" preserveAspectRatio="xMinYMin meet" x="450" y="-184"/>
<text text-anchor="start" x="465" y="-175.2" font-family="Helvetica,sans-Serif" font-size="11.00">service_id</text>
<polygon fill="none" stroke="black" points="584,-167 584,-189 705,-189 705,-167 584,-167"/>
<text text-anchor="start" x="587" y="-175.2" font-family="Helvetica,sans-Serif" font-size="11.00">int8[19]</text>
<polygon fill="none" stroke="black" points="445,-145 445,-167 584,-167 584,-145 445,-145"/>
<text text-anchor="start" x="465" y="-153.2" font-family="Helvetica,sans-Serif" font-size="11.00">source_id</text>
<polygon fill="none" stroke="black" points="584,-145 584,-167 705,-167 705,-145 584,-145"/>
<text text-anchor="start" x="587" y="-153.2" font-family="Helvetica,sans-Serif" font-size="11.00">int8[19]</text>
<polygon fill="none" stroke="black" points="445,-123 445,-145 584,-145 584,-123 445,-123"/>
<text text-anchor="start" x="465" y="-131.2" font-family="Helvetica,sans-Serif" font-size="11.00">source_type</text>
<polygon fill="none" stroke="black" points="584,-123 584,-145 705,-145 705,-123 584,-123"/>
<text text-anchor="start" x="587" y="-131.2" font-family="Helvetica,sans-Serif" font-size="11.00">varchar[2147483647]</text>
<polygon fill="none" stroke="black" points="445,-101 445,-123 584,-123 584,-101 445,-101"/>
<text text-anchor="start" x="465" y="-109.2" font-family="Helvetica,sans-Serif" font-size="11.00">provision_index</text>
<polygon fill="none" stroke="black" points="584,-101 584,-123 705,-123 705,-101 584,-101"/>
<text text-anchor="start" x="587" y="-109.2" font-family="Helvetica,sans-Serif" font-size="11.00">int4[10]</text>
<polygon fill="none" stroke="black" points="445,-79 445,-101 584,-101 584,-79 445,-79"/>
<text text-anchor="start" x="465" y="-87.2" font-family="Helvetica,sans-Serif" font-size="11.00">options</text>
<polygon fill="none" stroke="black" points="584,-79 584,-101 705,-101 705,-79 584,-79"/>
<text text-anchor="start" x="587" y="-87.2" font-family="Helvetica,sans-Serif" font-size="11.00">jsonb[2147483647]</text>
<polygon fill="none" stroke="black" points="445,-57 445,-79 584,-79 584,-57 445,-57"/>
<text text-anchor="start" x="465" y="-65.2" font-family="Helvetica,sans-Serif" font-size="11.00">status</text>
<polygon fill="none" stroke="black" points="584,-57 584,-79 705,-79 705,-57 584,-57"/>
<text text-anchor="start" x="587" y="-65.2" font-family="Helvetica,sans-Serif" font-size="11.00">varchar[2147483647]</text>
<polygon fill="#ffffff" stroke="none" points="445,-39 445,-57 519,-57 519,-39 445,-39"/>
<polygon fill="none" stroke="black" points="445,-39 445,-57 519,-57 519,-39 445,-39"/>
<text text-anchor="start" x="448" y="-45.2" font-family="Helvetica,sans-Serif" font-size="11.00">&lt; 2</text>
<polygon fill="#ffffff" stroke="none" points="519,-39 519,-57 584,-57 584,-39 519,-39"/>
<polygon fill="none" stroke="black" points="519,-39 519,-57 584,-57 584,-39 519,-39"/>
<text text-anchor="start" x="574" y="-45.2" font-family="Helvetica,sans-Serif" font-size="11.00"> &#160;</text>
<polygon fill="#ffffff" stroke="none" points="584,-39 584,-57 705,-57 705,-39 584,-39"/>
<polygon fill="none" stroke="black" points="584,-39 584,-57 705,-57 705,-39 584,-39"/>
<text text-anchor="start" x="685" y="-45.2" font-family="Helvetica,sans-Serif" font-size="11.00">0 &gt;</text>
<polygon fill="none" stroke="black" stroke-width="2" points="444,-38 444,-520 706,-520 706,-38 444,-38"/>
</a>
</g>
</g>
<!-- services -->
<g id="node2" class="node"><title>services</title>
<g id="a_node2"><a xlink:href="../../tables/services.html" xlink:title="services" target="_top">
<polygon fill="#ffffff" stroke="none" points="244,-57 244,-269 394,-269 394,-57 244,-57"/>
<polygon fill="#f5f5f5" stroke="none" points="244,-247 244,-269 394,-269 394,-247 244,-247"/>
<polygon fill="none" stroke="black" points="244,-247 244,-269 394,-269 394,-247 244,-247"/>
<text text-anchor="start" x="249" y="-256.2" font-family="Helvetica,sans-Serif" font-weight="bold" font-size="11.00">services</text>
<text text-anchor="start" x="355" y="-255.2" font-family="Helvetica,sans-Serif" font-size="11.00">[table]</text>
<polygon fill="none" stroke="black" points="244,-225 244,-247 394,-247 394,-225 244,-225"/>
<image xlink:href="../../images/primaryKeys.png" width="11px" height="12px" preserveAspectRatio="xMinYMin meet" x="249" y="-242"/>
<text text-anchor="start" x="264" y="-233.2" font-family="Helvetica,sans-Serif" font-size="11.00">id</text>
<polygon fill="#ffffff" stroke="none" points="244,-203 244,-225 394,-225 394,-203 244,-203"/>
<polygon fill="none" stroke="black" points="244,-203 244,-225 394,-225 394,-203 244,-203"/>
<text text-anchor="start" x="264" y="-211.2" font-family="Helvetica,sans-Serif" font-size="11.00">type</text>
<polygon fill="none" stroke="black" points="244,-181 244,-203 394,-203 394,-181 244,-181"/>
<image xlink:href="../../images/foreignKeys.png" width="11px" height="12px" preserveAspectRatio="xMinYMin meet" x="249" y="-198"/>
<text text-anchor="start" x="264" y="-189.2" font-family="Helvetica,sans-Serif" font-size="11.00">service_template_id</text>
<polygon fill="none" stroke="black" points="244,-159 244,-181 394,-181 394,-159 244,-159"/>
<image xlink:href="../../images/foreignKeys.png" width="11px" height="12px" preserveAspectRatio="xMinYMin meet" x="249" y="-176"/>
<text text-anchor="start" x="264" y="-167.2" font-family="Helvetica,sans-Serif" font-size="11.00">miq_group_id</text>
<polygon fill="none" stroke="black" points="244,-137 244,-159 394,-159 394,-137 244,-137"/>
<image xlink:href="../../images/foreignKeys.png" width="11px" height="12px" preserveAspectRatio="xMinYMin meet" x="249" y="-154"/>
<text text-anchor="start" x="264" y="-145.2" font-family="Helvetica,sans-Serif" font-size="11.00">tenant_id</text>
<polygon fill="#ffffff" stroke="none" points="244,-115 244,-137 394,-137 394,-115 244,-115"/>
<polygon fill="none" stroke="black" points="244,-115 244,-137 394,-137 394,-115 244,-115"/>
<text text-anchor="start" x="264" y="-123.2" font-family="Helvetica,sans-Serif" font-size="11.00">ancestry</text>
<polygon fill="#ffffff" stroke="none" points="244,-93 244,-115 394,-115 394,-93 244,-93"/>
<polygon fill="none" stroke="black" points="244,-93 244,-115 394,-115 394,-93 244,-93"/>
<image xlink:href="../../images/foreignKeys.png" width="11px" height="12px" preserveAspectRatio="xMinYMin meet" x="249" y="-110"/>
<text text-anchor="start" x="264" y="-101.2" font-family="Helvetica,sans-Serif" font-size="11.00">currency_id</text>
<polygon fill="none" stroke="black" points="244,-75 244,-93 394,-93 394,-75 244,-75"/>
<text text-anchor="start" x="247" y="-81.2" font-family="Helvetica,sans-Serif" font-size="11.00">...</text>
<polygon fill="#ffffff" stroke="none" points="244,-57 244,-75 312,-75 312,-57 244,-57"/>
<polygon fill="none" stroke="black" points="244,-57 244,-75 312,-75 312,-57 244,-57"/>
<text text-anchor="start" x="247" y="-63.2" font-family="Helvetica,sans-Serif" font-size="11.00">&lt; 4</text>
<polygon fill="#ffffff" stroke="none" points="312,-57 312,-75 348,-75 348,-57 312,-57"/>
<polygon fill="none" stroke="black" points="312,-57 312,-75 348,-75 348,-57 312,-57"/>
<text text-anchor="start" x="338" y="-63.2" font-family="Helvetica,sans-Serif" font-size="11.00"> &#160;</text>
<polygon fill="#ffffff" stroke="none" points="348,-57 348,-75 394,-75 394,-57 348,-57"/>
<polygon fill="none" stroke="black" points="348,-57 348,-75 394,-75 394,-57 348,-57"/>
<text text-anchor="start" x="374" y="-63.2" font-family="Helvetica,sans-Serif" font-size="11.00">1 &gt;</text>
</a>
</g>
</g>
<!-- service_resources&#45;&gt;services -->
<g id="edge1" class="edge"><title>service_resources:service_id:w&#45;&gt;services:id:e</title>
<path fill="none" stroke="black" d="M430.263,-182.945C415.213,-196.971 422.682,-236 395,-236"/>
<polygon fill="black" stroke="black" points="436.473,-180.71 445.219,-181.387 440.236,-179.355 444,-178 444,-178 444,-178 440.236,-179.355 442.781,-174.613 436.473,-180.71 436.473,-180.71"/>
<ellipse fill="none" stroke="black" cx="433.462" cy="-181.793" rx="3.20001" ry="3.20001"/>
</g>
<!-- service_templates -->
<g id="node3" class="node"><title>service_templates</title>
<g id="a_node3"><a xlink:href="../../tables/service_templates.html" xlink:title="service_templates" target="_top">
<polygon fill="#ffffff" stroke="none" points="8,-134 8,-390 195,-390 195,-134 8,-134"/>
<polygon fill="#f5f5f5" stroke="none" points="8.5,-368 8.5,-390 195.5,-390 195.5,-368 8.5,-368"/>
<polygon fill="none" stroke="black" points="8.5,-368 8.5,-390 195.5,-390 195.5,-368 8.5,-368"/>
<text text-anchor="start" x="13.5" y="-377.2" font-family="Helvetica,sans-Serif" font-weight="bold" font-size="11.00">service_templates</text>
<text text-anchor="start" x="156.5" y="-376.2" font-family="Helvetica,sans-Serif" font-size="11.00">[table]</text>
<polygon fill="none" stroke="black" points="8.5,-346 8.5,-368 195.5,-368 195.5,-346 8.5,-346"/>
<image xlink:href="../../images/primaryKeys.png" width="11px" height="12px" preserveAspectRatio="xMinYMin meet" x="13.5" y="-363"/>
<text text-anchor="start" x="28.5" y="-354.2" font-family="Helvetica,sans-Serif" font-size="11.00">id</text>
<polygon fill="#ffffff" stroke="none" points="8.5,-324 8.5,-346 195.5,-346 195.5,-324 8.5,-324"/>
<polygon fill="none" stroke="black" points="8.5,-324 8.5,-346 195.5,-346 195.5,-324 8.5,-324"/>
<text text-anchor="start" x="28.5" y="-332.2" font-family="Helvetica,sans-Serif" font-size="11.00">type</text>
<polygon fill="none" stroke="black" points="8.5,-302 8.5,-324 195.5,-324 195.5,-302 8.5,-302"/>
<image xlink:href="../../images/foreignKeys.png" width="11px" height="12px" preserveAspectRatio="xMinYMin meet" x="13.5" y="-319"/>
<text text-anchor="start" x="28.5" y="-310.2" font-family="Helvetica,sans-Serif" font-size="11.00">service_template_id</text>
<polygon fill="none" stroke="black" points="8.5,-280 8.5,-302 195.5,-302 195.5,-280 8.5,-280"/>
<image xlink:href="../../images/foreignKeys.png" width="11px" height="12px" preserveAspectRatio="xMinYMin meet" x="13.5" y="-297"/>
<text text-anchor="start" x="28.5" y="-288.2" font-family="Helvetica,sans-Serif" font-size="11.00">miq_group_id</text>
<polygon fill="none" stroke="black" points="8.5,-258 8.5,-280 195.5,-280 195.5,-258 8.5,-258"/>
<image xlink:href="../../images/foreignKeys.png" width="11px" height="12px" preserveAspectRatio="xMinYMin meet" x="13.5" y="-275"/>
<text text-anchor="start" x="28.5" y="-266.2" font-family="Helvetica,sans-Serif" font-size="11.00">service_template_catalog_id</text>
<polygon fill="none" stroke="black" points="8.5,-236 8.5,-258 195.5,-258 195.5,-236 8.5,-236"/>
<image xlink:href="../../images/foreignKeys.png" width="11px" height="12px" preserveAspectRatio="xMinYMin meet" x="13.5" y="-253"/>
<text text-anchor="start" x="28.5" y="-244.2" font-family="Helvetica,sans-Serif" font-size="11.00">tenant_id</text>
<polygon fill="#ffffff" stroke="none" points="8.5,-214 8.5,-236 195.5,-236 195.5,-214 8.5,-214"/>
<polygon fill="none" stroke="black" points="8.5,-214 8.5,-236 195.5,-236 195.5,-214 8.5,-214"/>
<text text-anchor="start" x="28.5" y="-222.2" font-family="Helvetica,sans-Serif" font-size="11.00">generic_subtype</text>
<polygon fill="none" stroke="black" points="8.5,-192 8.5,-214 195.5,-214 195.5,-192 8.5,-192"/>
<image xlink:href="../../images/foreignKeys.png" width="11px" height="12px" preserveAspectRatio="xMinYMin meet" x="13.5" y="-209"/>
<text text-anchor="start" x="28.5" y="-200.2" font-family="Helvetica,sans-Serif" font-size="11.00">zone_id</text>
<polygon fill="#ffffff" stroke="none" points="8.5,-170 8.5,-192 195.5,-192 195.5,-170 8.5,-170"/>
<polygon fill="none" stroke="black" points="8.5,-170 8.5,-192 195.5,-192 195.5,-170 8.5,-170"/>
<image xlink:href="../../images/foreignKeys.png" width="11px" height="12px" preserveAspectRatio="xMinYMin meet" x="13.5" y="-187"/>
<text text-anchor="start" x="28.5" y="-178.2" font-family="Helvetica,sans-Serif" font-size="11.00">currency_id</text>
<polygon fill="none" stroke="black" points="8.5,-152 8.5,-170 195.5,-170 195.5,-152 8.5,-152"/>
<text text-anchor="start" x="11.5" y="-158.2" font-family="Helvetica,sans-Serif" font-size="11.00">...</text>
<polygon fill="#ffffff" stroke="none" points="8.5,-134 8.5,-152 95.5,-152 95.5,-134 8.5,-134"/>
<polygon fill="none" stroke="black" points="8.5,-134 8.5,-152 95.5,-152 95.5,-134 8.5,-134"/>
<text text-anchor="start" x="11.5" y="-140.2" font-family="Helvetica,sans-Serif" font-size="11.00">&lt; 6</text>
<polygon fill="#ffffff" stroke="none" points="95.5,-134 95.5,-152 140.5,-152 140.5,-134 95.5,-134"/>
<polygon fill="none" stroke="black" points="95.5,-134 95.5,-152 140.5,-152 140.5,-134 95.5,-134"/>
<text text-anchor="start" x="130.5" y="-140.2" font-family="Helvetica,sans-Serif" font-size="11.00"> &#160;</text>
<polygon fill="#ffffff" stroke="none" points="140.5,-134 140.5,-152 195.5,-152 195.5,-134 140.5,-134"/>
<polygon fill="none" stroke="black" points="140.5,-134 140.5,-152 195.5,-152 195.5,-134 140.5,-134"/>
<text text-anchor="start" x="175.5" y="-140.2" font-family="Helvetica,sans-Serif" font-size="11.00">4 &gt;</text>
</a>
</g>
</g>
<!-- service_resources&#45;&gt;service_templates -->
<g id="edge2" class="edge"><title>service_resources:service_template_id:w&#45;&gt;service_templates:id:e</title>
<path fill="none" stroke="black" d="M429.479,-463.45C323.306,-455.202 311.307,-357 196.5,-357"/>
<polygon fill="black" stroke="black" points="436.006,-463.697 443.864,-467.597 440.003,-463.849 444,-464 444,-464 444,-464 440.003,-463.849 444.136,-460.403 436.006,-463.697 436.006,-463.697"/>
<ellipse fill="none" stroke="black" cx="432.808" cy="-463.576" rx="3.2" ry="3.2"/>
</g>
<!-- services&#45;&gt;service_templates -->
<g id="edge3" class="edge"><title>services:service_template_id:w&#45;&gt;service_templates:id:e</title>
<path fill="none" stroke="black" d="M228.598,-194.726C181.884,-216.179 266.886,-357 196.5,-357"/>
<polygon fill="black" stroke="black" points="235.14,-193.488 243.67,-195.537 239.07,-192.744 243,-192 243,-192 243,-192 239.07,-192.744 242.33,-188.463 235.14,-193.488 235.14,-193.488"/>
<ellipse fill="none" stroke="black" cx="231.995" cy="-194.083" rx="3.2" ry="3.2"/>
</g>
</g>
</svg>
