<?xml version="1.0" encoding="UTF-8" standalone="no"?>
<!DOCTYPE svg PUBLIC "-//W3C//DTD SVG 1.1//EN"
 "http://www.w3.org/Graphics/SVG/1.1/DTD/svg11.dtd">
<!-- Generated by graphviz version 2.38.0 (20140413.2041)
 -->
<!-- Title: twoDegreesRelationshipsDiagram Pages: 1 -->
<svg width="662pt" height="1223pt"
 viewBox="0.00 0.00 662.00 1223.00" xmlns="http://www.w3.org/2000/svg" xmlns:xlink="http://www.w3.org/1999/xlink">
<g id="graph0" class="graph" transform="scale(1 1) rotate(0) translate(4 1219)">
<title>twoDegreesRelationshipsDiagram</title>
<polygon fill="#ffffff" stroke="none" points="-4,4 -4,-1219 658,-1219 658,4 -4,4"/>
<text text-anchor="middle" x="74.5" y="-7.2" font-family="Helvetica,sans-Serif" font-size="11.00">Generated by SchemaSpy</text>
<!-- automate_workspaces -->
<g id="node1" class="node"><title>automate_workspaces</title>
<g id="a_node1"><a xlink:href="../../tables/automate_workspaces.html" xlink:title="automate_workspaces" target="_top">
<polygon fill="#ffffff" stroke="none" points="225,-1153 225,-1211 400,-1211 400,-1153 225,-1153"/>
<polygon fill="#f5f5f5" stroke="none" points="225.5,-1189 225.5,-1211 400.5,-1211 400.5,-1189 225.5,-1189"/>
<polygon fill="none" stroke="black" points="225.5,-1189 225.5,-1211 400.5,-1211 400.5,-1189 225.5,-1189"/>
<text text-anchor="start" x="230.5" y="-1198.2" font-family="Helvetica,sans-Serif" font-weight="bold" font-size="11.00">automate_workspaces</text>
<text text-anchor="start" x="361.5" y="-1197.2" font-family="Helvetica,sans-Serif" font-size="11.00">[table]</text>
<polygon fill="none" stroke="black" points="225.5,-1171 225.5,-1189 400.5,-1189 400.5,-1171 225.5,-1171"/>
<text text-anchor="start" x="228.5" y="-1177.2" font-family="Helvetica,sans-Serif" font-size="11.00">...</text>
<polygon fill="#ffffff" stroke="none" points="225.5,-1153 225.5,-1171 311.5,-1171 311.5,-1153 225.5,-1153"/>
<polygon fill="none" stroke="black" points="225.5,-1153 225.5,-1171 311.5,-1171 311.5,-1153 225.5,-1153"/>
<text text-anchor="start" x="228.5" y="-1159.2" font-family="Helvetica,sans-Serif" font-size="11.00">&lt; 2</text>
<polygon fill="#ffffff" stroke="none" points="311.5,-1153 311.5,-1171 355.5,-1171 355.5,-1153 311.5,-1153"/>
<polygon fill="none" stroke="black" points="311.5,-1153 311.5,-1171 355.5,-1171 355.5,-1153 311.5,-1153"/>
<text text-anchor="start" x="345.5" y="-1159.2" font-family="Helvetica,sans-Serif" font-size="11.00"> &#160;</text>
<polygon fill="#ffffff" stroke="none" points="355.5,-1153 355.5,-1171 400.5,-1171 400.5,-1153 355.5,-1153"/>
<polygon fill="none" stroke="black" points="355.5,-1153 355.5,-1171 400.5,-1171 400.5,-1153 355.5,-1153"/>
<text text-anchor="start" x="390.5" y="-1159.2" font-family="Helvetica,sans-Serif" font-size="11.00"> &#160;</text>
</a>
</g>
</g>
<!-- users -->
<g id="node2" class="node"><title>users</title>
<g id="a_node2"><a xlink:href="../../tables/users.html" xlink:title="users" target="_top">
<polygon fill="#ffffff" stroke="none" points="8,-564 8,-688 157,-688 157,-564 8,-564"/>
<polygon fill="#f5f5f5" stroke="none" points="8.5,-666 8.5,-688 157.5,-688 157.5,-666 8.5,-666"/>
<polygon fill="none" stroke="black" points="8.5,-666 8.5,-688 157.5,-688 157.5,-666 8.5,-666"/>
<text text-anchor="start" x="13.5" y="-675.2" font-family="Helvetica,sans-Serif" font-weight="bold" font-size="11.00">users</text>
<text text-anchor="start" x="118.5" y="-674.2" font-family="Helvetica,sans-Serif" font-size="11.00">[table]</text>
<polygon fill="none" stroke="black" points="8.5,-644 8.5,-666 157.5,-666 157.5,-644 8.5,-644"/>
<image xlink:href="../../images/primaryKeys.png" width="11px" height="12px" preserveAspectRatio="xMinYMin meet" x="13.5" y="-661"/>
<text text-anchor="start" x="28.5" y="-652.2" font-family="Helvetica,sans-Serif" font-size="11.00">id</text>
<polygon fill="#ffffff" stroke="none" points="8.5,-622 8.5,-644 157.5,-644 157.5,-622 8.5,-622"/>
<polygon fill="none" stroke="black" points="8.5,-622 8.5,-644 157.5,-644 157.5,-622 8.5,-622"/>
<text text-anchor="start" x="28.5" y="-630.2" font-family="Helvetica,sans-Serif" font-size="11.00">userid</text>
<polygon fill="#ffffff" stroke="none" points="8.5,-600 8.5,-622 157.5,-622 157.5,-600 8.5,-600"/>
<polygon fill="none" stroke="black" points="8.5,-600 8.5,-622 157.5,-622 157.5,-600 8.5,-600"/>
<text text-anchor="start" x="28.5" y="-608.2" font-family="Helvetica,sans-Serif" font-size="11.00">current_group_id</text>
<polygon fill="none" stroke="black" points="8.5,-582 8.5,-600 157.5,-600 157.5,-582 8.5,-582"/>
<text text-anchor="start" x="11.5" y="-588.2" font-family="Helvetica,sans-Serif" font-size="11.00">...</text>
<polygon fill="#ffffff" stroke="none" points="8.5,-564 8.5,-582 67.5,-582 67.5,-564 8.5,-564"/>
<polygon fill="none" stroke="black" points="8.5,-564 8.5,-582 67.5,-582 67.5,-564 8.5,-564"/>
<text text-anchor="start" x="11.5" y="-570.2" font-family="Helvetica,sans-Serif" font-size="11.00"> &#160;</text>
<polygon fill="#ffffff" stroke="none" points="67.5,-564 67.5,-582 103.5,-582 103.5,-564 67.5,-564"/>
<polygon fill="none" stroke="black" points="67.5,-564 67.5,-582 103.5,-582 103.5,-564 67.5,-564"/>
<text text-anchor="start" x="93.5" y="-570.2" font-family="Helvetica,sans-Serif" font-size="11.00"> &#160;</text>
<polygon fill="#ffffff" stroke="none" points="103.5,-564 103.5,-582 157.5,-582 157.5,-564 103.5,-564"/>
<polygon fill="none" stroke="black" points="103.5,-564 103.5,-582 157.5,-582 157.5,-564 103.5,-564"/>
<text text-anchor="start" x="130.5" y="-570.2" font-family="Helvetica,sans-Serif" font-size="11.00">15 &gt;</text>
</a>
</g>
</g>
<!-- automate_workspaces&#45;&gt;users -->
<g id="edge1" class="edge"><title>automate_workspaces:elipses:w&#45;&gt;users:id:e</title>
<path fill="none" stroke="black" d="M210.792,-1175.24C203.955,-1168.65 202.783,-1156.06 198,-1143 179.288,-1091.92 212.9,-655 158.5,-655"/>
<polygon fill="black" stroke="black" points="216.942,-1177.38 223.32,-1183.4 220.721,-1178.69 224.5,-1180 224.5,-1180 224.5,-1180 220.721,-1178.69 225.68,-1176.6 216.942,-1177.38 216.942,-1177.38"/>
<ellipse fill="none" stroke="black" cx="213.919" cy="-1176.33" rx="3.20001" ry="3.20001"/>
</g>
<!-- event_streams -->
<g id="node3" class="node"><title>event_streams</title>
<g id="a_node3"><a xlink:href="../../tables/event_streams.html" xlink:title="event_streams" target="_top">
<polygon fill="#ffffff" stroke="none" points="246.5,-1074 246.5,-1132 378.5,-1132 378.5,-1074 246.5,-1074"/>
<polygon fill="#f5f5f5" stroke="none" points="246.5,-1110 246.5,-1132 378.5,-1132 378.5,-1110 246.5,-1110"/>
<polygon fill="none" stroke="black" points="246.5,-1110 246.5,-1132 378.5,-1132 378.5,-1110 246.5,-1110"/>
<text text-anchor="start" x="251.5" y="-1119.2" font-family="Helvetica,sans-Serif" font-weight="bold" font-size="11.00">event_streams</text>
<text text-anchor="start" x="339.5" y="-1118.2" font-family="Helvetica,sans-Serif" font-size="11.00">[table]</text>
<polygon fill="none" stroke="black" points="246.5,-1092 246.5,-1110 378.5,-1110 378.5,-1092 246.5,-1092"/>
<text text-anchor="start" x="249.5" y="-1098.2" font-family="Helvetica,sans-Serif" font-size="11.00">...</text>
<polygon fill="#ffffff" stroke="none" points="246.5,-1074 246.5,-1092 314.5,-1092 314.5,-1074 246.5,-1074"/>
<polygon fill="none" stroke="black" points="246.5,-1074 246.5,-1092 314.5,-1092 314.5,-1074 246.5,-1074"/>
<text text-anchor="start" x="249.5" y="-1080.2" font-family="Helvetica,sans-Serif" font-size="11.00">&lt; 11</text>
<polygon fill="#ffffff" stroke="none" points="314.5,-1074 314.5,-1092 346.5,-1092 346.5,-1074 314.5,-1074"/>
<polygon fill="none" stroke="black" points="314.5,-1074 314.5,-1092 346.5,-1092 346.5,-1074 314.5,-1074"/>
<text text-anchor="start" x="336.5" y="-1080.2" font-family="Helvetica,sans-Serif" font-size="11.00"> &#160;</text>
<polygon fill="#ffffff" stroke="none" points="346.5,-1074 346.5,-1092 378.5,-1092 378.5,-1074 346.5,-1074"/>
<polygon fill="none" stroke="black" points="346.5,-1074 346.5,-1092 378.5,-1092 378.5,-1074 346.5,-1074"/>
<text text-anchor="start" x="368.5" y="-1080.2" font-family="Helvetica,sans-Serif" font-size="11.00"> &#160;</text>
</a>
</g>
</g>
<!-- event_streams&#45;&gt;users -->
<g id="edge2" class="edge"><title>event_streams:elipses:w&#45;&gt;users:id:e</title>
<path fill="none" stroke="black" d="M230.865,-1099.23C215.205,-1094.84 208.172,-1082.5 198,-1064 176.005,-1023.99 204.156,-655 158.5,-655"/>
<polygon fill="black" stroke="black" points="237.558,-1100.04 245.067,-1104.57 241.529,-1100.52 245.5,-1101 245.5,-1101 245.5,-1101 241.529,-1100.52 245.933,-1097.43 237.558,-1100.04 237.558,-1100.04"/>
<ellipse fill="none" stroke="black" cx="234.381" cy="-1099.65" rx="3.2" ry="3.2"/>
</g>
<!-- external_urls -->
<g id="node4" class="node"><title>external_urls</title>
<g id="a_node4"><a xlink:href="../../tables/external_urls.html" xlink:title="external_urls" target="_top">
<polygon fill="#ffffff" stroke="none" points="250.5,-995 250.5,-1053 374.5,-1053 374.5,-995 250.5,-995"/>
<polygon fill="#f5f5f5" stroke="none" points="250.5,-1031 250.5,-1053 374.5,-1053 374.5,-1031 250.5,-1031"/>
<polygon fill="none" stroke="black" points="250.5,-1031 250.5,-1053 374.5,-1053 374.5,-1031 250.5,-1031"/>
<text text-anchor="start" x="255.5" y="-1040.2" font-family="Helvetica,sans-Serif" font-weight="bold" font-size="11.00">external_urls</text>
<text text-anchor="start" x="335.5" y="-1039.2" font-family="Helvetica,sans-Serif" font-size="11.00">[table]</text>
<polygon fill="none" stroke="black" points="250.5,-1013 250.5,-1031 374.5,-1031 374.5,-1013 250.5,-1013"/>
<text text-anchor="start" x="253.5" y="-1019.2" font-family="Helvetica,sans-Serif" font-size="11.00">...</text>
<polygon fill="#ffffff" stroke="none" points="250.5,-995 250.5,-1013 310.5,-1013 310.5,-995 250.5,-995"/>
<polygon fill="none" stroke="black" points="250.5,-995 250.5,-1013 310.5,-1013 310.5,-995 250.5,-995"/>
<text text-anchor="start" x="253.5" y="-1001.2" font-family="Helvetica,sans-Serif" font-size="11.00">&lt; 1</text>
<polygon fill="#ffffff" stroke="none" points="310.5,-995 310.5,-1013 342.5,-1013 342.5,-995 310.5,-995"/>
<polygon fill="none" stroke="black" points="310.5,-995 310.5,-1013 342.5,-1013 342.5,-995 310.5,-995"/>
<text text-anchor="start" x="332.5" y="-1001.2" font-family="Helvetica,sans-Serif" font-size="11.00"> &#160;</text>
<polygon fill="#ffffff" stroke="none" points="342.5,-995 342.5,-1013 374.5,-1013 374.5,-995 342.5,-995"/>
<polygon fill="none" stroke="black" points="342.5,-995 342.5,-1013 374.5,-1013 374.5,-995 342.5,-995"/>
<text text-anchor="start" x="364.5" y="-1001.2" font-family="Helvetica,sans-Serif" font-size="11.00"> &#160;</text>
</a>
</g>
</g>
<!-- external_urls&#45;&gt;users -->
<g id="edge3" class="edge"><title>external_urls:elipses:w&#45;&gt;users:id:e</title>
<path fill="none" stroke="black" d="M235,-1020.55C217.603,-1016.59 209.533,-1004.53 198,-985 160.442,-921.406 232.357,-655 158.5,-655"/>
<polygon fill="black" stroke="black" points="241.54,-1021.2 249.142,-1025.58 245.52,-1021.6 249.5,-1022 249.5,-1022 249.5,-1022 245.52,-1021.6 249.858,-1018.42 241.54,-1021.2 241.54,-1021.2"/>
<ellipse fill="none" stroke="black" cx="238.355" cy="-1020.89" rx="3.2" ry="3.2"/>
</g>
<!-- miq_alert_status_actions -->
<g id="node5" class="node"><title>miq_alert_status_actions</title>
<g id="a_node5"><a xlink:href="../../tables/miq_alert_status_actions.html" xlink:title="miq_alert_status_actions" target="_top">
<polygon fill="#ffffff" stroke="none" points="218,-916 218,-974 407,-974 407,-916 218,-916"/>
<polygon fill="#f5f5f5" stroke="none" points="218.5,-952 218.5,-974 407.5,-974 407.5,-952 218.5,-952"/>
<polygon fill="none" stroke="black" points="218.5,-952 218.5,-974 407.5,-974 407.5,-952 218.5,-952"/>
<text text-anchor="start" x="223.5" y="-961.2" font-family="Helvetica,sans-Serif" font-weight="bold" font-size="11.00">miq_alert_status_actions</text>
<text text-anchor="start" x="368.5" y="-960.2" font-family="Helvetica,sans-Serif" font-size="11.00">[table]</text>
<polygon fill="none" stroke="black" points="218.5,-934 218.5,-952 407.5,-952 407.5,-934 218.5,-934"/>
<text text-anchor="start" x="221.5" y="-940.2" font-family="Helvetica,sans-Serif" font-size="11.00">...</text>
<polygon fill="#ffffff" stroke="none" points="218.5,-916 218.5,-934 311.5,-934 311.5,-916 218.5,-916"/>
<polygon fill="none" stroke="black" points="218.5,-916 218.5,-934 311.5,-934 311.5,-916 218.5,-916"/>
<text text-anchor="start" x="221.5" y="-922.2" font-family="Helvetica,sans-Serif" font-size="11.00">&lt; 2</text>
<polygon fill="#ffffff" stroke="none" points="311.5,-916 311.5,-934 359.5,-934 359.5,-916 311.5,-916"/>
<polygon fill="none" stroke="black" points="311.5,-916 311.5,-934 359.5,-934 359.5,-916 311.5,-916"/>
<text text-anchor="start" x="349.5" y="-922.2" font-family="Helvetica,sans-Serif" font-size="11.00"> &#160;</text>
<polygon fill="#ffffff" stroke="none" points="359.5,-916 359.5,-934 407.5,-934 407.5,-916 359.5,-916"/>
<polygon fill="none" stroke="black" points="359.5,-916 359.5,-934 407.5,-934 407.5,-916 359.5,-916"/>
<text text-anchor="start" x="397.5" y="-922.2" font-family="Helvetica,sans-Serif" font-size="11.00"> &#160;</text>
</a>
</g>
</g>
<!-- miq_alert_status_actions&#45;&gt;users -->
<g id="edge4" class="edge"><title>miq_alert_status_actions:elipses:w&#45;&gt;users:id:e</title>
<path fill="none" stroke="black" d="M204.037,-937.504C163.005,-897.688 218.47,-655 158.5,-655"/>
<polygon fill="black" stroke="black" points="210.093,-939.976 216.139,-946.333 213.797,-941.488 217.5,-943 217.5,-943 217.5,-943 213.797,-941.488 218.861,-939.667 210.093,-939.976 210.093,-939.976"/>
<ellipse fill="none" stroke="black" cx="207.131" cy="-938.767" rx="3.20001" ry="3.20001"/>
</g>
<!-- miq_groups_users -->
<g id="node6" class="node"><title>miq_groups_users</title>
<g id="a_node6"><a xlink:href="../../tables/miq_groups_users.html" xlink:title="miq_groups_users" target="_top">
<polygon fill="#ffffff" stroke="none" points="238.5,-837 238.5,-895 386.5,-895 386.5,-837 238.5,-837"/>
<polygon fill="#f5f5f5" stroke="none" points="238.5,-873 238.5,-895 386.5,-895 386.5,-873 238.5,-873"/>
<polygon fill="none" stroke="black" points="238.5,-873 238.5,-895 386.5,-895 386.5,-873 238.5,-873"/>
<text text-anchor="start" x="243.5" y="-882.2" font-family="Helvetica,sans-Serif" font-weight="bold" font-size="11.00">miq_groups_users</text>
<text text-anchor="start" x="347.5" y="-881.2" font-family="Helvetica,sans-Serif" font-size="11.00">[table]</text>
<polygon fill="none" stroke="black" points="238.5,-855 238.5,-873 386.5,-873 386.5,-855 238.5,-855"/>
<text text-anchor="start" x="241.5" y="-861.2" font-family="Helvetica,sans-Serif" font-size="11.00">...</text>
<polygon fill="#ffffff" stroke="none" points="238.5,-837 238.5,-855 310.5,-855 310.5,-837 238.5,-837"/>
<polygon fill="none" stroke="black" points="238.5,-837 238.5,-855 310.5,-855 310.5,-837 238.5,-837"/>
<text text-anchor="start" x="241.5" y="-843.2" font-family="Helvetica,sans-Serif" font-size="11.00">&lt; 2</text>
<polygon fill="#ffffff" stroke="none" points="310.5,-837 310.5,-855 348.5,-855 348.5,-837 310.5,-837"/>
<polygon fill="none" stroke="black" points="310.5,-837 310.5,-855 348.5,-855 348.5,-837 310.5,-837"/>
<text text-anchor="start" x="338.5" y="-843.2" font-family="Helvetica,sans-Serif" font-size="11.00"> &#160;</text>
<polygon fill="#ffffff" stroke="none" points="348.5,-837 348.5,-855 386.5,-855 386.5,-837 348.5,-837"/>
<polygon fill="none" stroke="black" points="348.5,-837 348.5,-855 386.5,-855 386.5,-837 348.5,-837"/>
<text text-anchor="start" x="376.5" y="-843.2" font-family="Helvetica,sans-Serif" font-size="11.00"> &#160;</text>
</a>
</g>
</g>
<!-- miq_groups_users&#45;&gt;users -->
<g id="edge5" class="edge"><title>miq_groups_users:elipses:w&#45;&gt;users:id:e</title>
<path fill="none" stroke="black" d="M223.234,-861.321C211.272,-855.902 207.088,-842.802 198,-827 158.898,-759.007 236.934,-655 158.5,-655"/>
<polygon fill="black" stroke="black" points="229.637,-862.524 236.836,-867.538 233.569,-863.262 237.5,-864 237.5,-864 237.5,-864 233.569,-863.262 238.164,-860.462 229.637,-862.524 229.637,-862.524"/>
<ellipse fill="none" stroke="black" cx="226.492" cy="-861.933" rx="3.2" ry="3.2"/>
</g>
<!-- miq_queue -->
<g id="node7" class="node"><title>miq_queue</title>
<g id="a_node7"><a xlink:href="../../tables/miq_queue.html" xlink:title="miq_queue" target="_top">
<polygon fill="#ffffff" stroke="none" points="256.5,-758 256.5,-816 368.5,-816 368.5,-758 256.5,-758"/>
<polygon fill="#f5f5f5" stroke="none" points="256.5,-794 256.5,-816 368.5,-816 368.5,-794 256.5,-794"/>
<polygon fill="none" stroke="black" points="256.5,-794 256.5,-816 368.5,-816 368.5,-794 256.5,-794"/>
<text text-anchor="start" x="261.5" y="-803.2" font-family="Helvetica,sans-Serif" font-weight="bold" font-size="11.00">miq_queue</text>
<text text-anchor="start" x="329.5" y="-802.2" font-family="Helvetica,sans-Serif" font-size="11.00">[table]</text>
<polygon fill="none" stroke="black" points="256.5,-776 256.5,-794 368.5,-794 368.5,-776 256.5,-776"/>
<text text-anchor="start" x="259.5" y="-782.2" font-family="Helvetica,sans-Serif" font-size="11.00">...</text>
<polygon fill="#ffffff" stroke="none" points="256.5,-758 256.5,-776 310.5,-776 310.5,-758 256.5,-758"/>
<polygon fill="none" stroke="black" points="256.5,-758 256.5,-776 310.5,-776 310.5,-758 256.5,-758"/>
<text text-anchor="start" x="259.5" y="-764.2" font-family="Helvetica,sans-Serif" font-size="11.00">&lt; 3</text>
<polygon fill="#ffffff" stroke="none" points="310.5,-758 310.5,-776 339.5,-776 339.5,-758 310.5,-758"/>
<polygon fill="none" stroke="black" points="310.5,-758 310.5,-776 339.5,-776 339.5,-758 310.5,-758"/>
<text text-anchor="start" x="329.5" y="-764.2" font-family="Helvetica,sans-Serif" font-size="11.00"> &#160;</text>
<polygon fill="#ffffff" stroke="none" points="339.5,-758 339.5,-776 368.5,-776 368.5,-758 339.5,-758"/>
<polygon fill="none" stroke="black" points="339.5,-758 339.5,-776 368.5,-776 368.5,-758 339.5,-758"/>
<text text-anchor="start" x="358.5" y="-764.2" font-family="Helvetica,sans-Serif" font-size="11.00"> &#160;</text>
</a>
</g>
</g>
<!-- miq_queue&#45;&gt;users -->
<g id="edge6" class="edge"><title>miq_queue:elipses:w&#45;&gt;users:id:e</title>
<path fill="none" stroke="black" d="M241.13,-783.692C222.017,-779.748 214.066,-767.061 198,-748 169.059,-713.663 203.407,-655 158.5,-655"/>
<polygon fill="black" stroke="black" points="247.533,-784.275 255.174,-788.585 251.516,-784.637 255.5,-785 255.5,-785 255.5,-785 251.516,-784.637 255.826,-781.415 247.533,-784.275 247.533,-784.275"/>
<ellipse fill="none" stroke="black" cx="244.346" cy="-783.984" rx="3.2" ry="3.2"/>
</g>
<!-- miq_reports -->
<g id="node8" class="node"><title>miq_reports</title>
<g id="a_node8"><a xlink:href="../../tables/miq_reports.html" xlink:title="miq_reports" target="_top">
<polygon fill="#ffffff" stroke="none" points="253.5,-679 253.5,-737 371.5,-737 371.5,-679 253.5,-679"/>
<polygon fill="#f5f5f5" stroke="none" points="253.5,-715 253.5,-737 371.5,-737 371.5,-715 253.5,-715"/>
<polygon fill="none" stroke="black" points="253.5,-715 253.5,-737 371.5,-737 371.5,-715 253.5,-715"/>
<text text-anchor="start" x="258.5" y="-724.2" font-family="Helvetica,sans-Serif" font-weight="bold" font-size="11.00">miq_reports</text>
<text text-anchor="start" x="332.5" y="-723.2" font-family="Helvetica,sans-Serif" font-size="11.00">[table]</text>
<polygon fill="none" stroke="black" points="253.5,-697 253.5,-715 371.5,-715 371.5,-697 253.5,-697"/>
<text text-anchor="start" x="256.5" y="-703.2" font-family="Helvetica,sans-Serif" font-size="11.00">...</text>
<polygon fill="#ffffff" stroke="none" points="253.5,-679 253.5,-697 305.5,-697 305.5,-679 253.5,-679"/>
<polygon fill="none" stroke="black" points="253.5,-679 253.5,-697 305.5,-697 305.5,-679 253.5,-679"/>
<text text-anchor="start" x="256.5" y="-685.2" font-family="Helvetica,sans-Serif" font-size="11.00">&lt; 3</text>
<polygon fill="#ffffff" stroke="none" points="305.5,-679 305.5,-697 333.5,-697 333.5,-679 305.5,-679"/>
<polygon fill="none" stroke="black" points="305.5,-679 305.5,-697 333.5,-697 333.5,-679 305.5,-679"/>
<text text-anchor="start" x="323.5" y="-685.2" font-family="Helvetica,sans-Serif" font-size="11.00"> &#160;</text>
<polygon fill="#ffffff" stroke="none" points="333.5,-679 333.5,-697 371.5,-697 371.5,-679 333.5,-679"/>
<polygon fill="none" stroke="black" points="333.5,-679 333.5,-697 371.5,-697 371.5,-679 333.5,-679"/>
<text text-anchor="start" x="351.5" y="-685.2" font-family="Helvetica,sans-Serif" font-size="11.00">1 &gt;</text>
</a>
</g>
</g>
<!-- miq_reports&#45;&gt;users -->
<g id="edge7" class="edge"><title>miq_reports:elipses:w&#45;&gt;users:id:e</title>
<path fill="none" stroke="black" d="M238.076,-704.185C204.586,-695.1 200.646,-655 158.5,-655"/>
<polygon fill="black" stroke="black" points="244.563,-705.001 252.05,-709.572 248.531,-705.501 252.5,-706 252.5,-706 252.5,-706 248.531,-705.501 252.95,-702.428 244.563,-705.001 244.563,-705.001"/>
<ellipse fill="none" stroke="black" cx="241.388" cy="-704.602" rx="3.2" ry="3.2"/>
</g>
<!-- miq_widget_contents -->
<g id="node9" class="node"><title>miq_widget_contents</title>
<g id="a_node9"><a xlink:href="../../tables/miq_widget_contents.html" xlink:title="miq_widget_contents" target="_top">
<polygon fill="#ffffff" stroke="none" points="472.5,-593 472.5,-651 641.5,-651 641.5,-593 472.5,-593"/>
<polygon fill="#f5f5f5" stroke="none" points="473,-629 473,-651 642,-651 642,-629 473,-629"/>
<polygon fill="none" stroke="black" points="473,-629 473,-651 642,-651 642,-629 473,-629"/>
<text text-anchor="start" x="478" y="-638.2" font-family="Helvetica,sans-Serif" font-weight="bold" font-size="11.00">miq_widget_contents</text>
<text text-anchor="start" x="603" y="-637.2" font-family="Helvetica,sans-Serif" font-size="11.00">[table]</text>
<polygon fill="none" stroke="black" points="473,-611 473,-629 642,-629 642,-611 473,-611"/>
<text text-anchor="start" x="476" y="-617.2" font-family="Helvetica,sans-Serif" font-size="11.00">...</text>
<polygon fill="#ffffff" stroke="none" points="473,-593 473,-611 556,-611 556,-593 473,-593"/>
<polygon fill="none" stroke="black" points="473,-593 473,-611 556,-611 556,-593 473,-593"/>
<text text-anchor="start" x="476" y="-599.2" font-family="Helvetica,sans-Serif" font-size="11.00">&lt; 4</text>
<polygon fill="#ffffff" stroke="none" points="556,-593 556,-611 599,-611 599,-593 556,-593"/>
<polygon fill="none" stroke="black" points="556,-593 556,-611 599,-611 599,-593 556,-593"/>
<text text-anchor="start" x="589" y="-599.2" font-family="Helvetica,sans-Serif" font-size="11.00"> &#160;</text>
<polygon fill="#ffffff" stroke="none" points="599,-593 599,-611 642,-611 642,-593 599,-593"/>
<polygon fill="none" stroke="black" points="599,-593 599,-611 642,-611 642,-593 599,-593"/>
<text text-anchor="start" x="632" y="-599.2" font-family="Helvetica,sans-Serif" font-size="11.00"> &#160;</text>
</a>
</g>
</g>
<!-- miq_widget_contents&#45;&gt;users -->
<g id="edge9" class="edge"><title>miq_widget_contents:elipses:w&#45;&gt;users:id:e</title>
<path fill="none" stroke="black" d="M457.62,-623.132C447.57,-628.185 442.666,-637.974 427,-642 311.287,-671.737 277.973,-655 158.5,-655"/>
<polygon fill="black" stroke="black" points="464.183,-621.703 472.766,-623.518 468.092,-620.851 472,-620 472,-620 472,-620 468.092,-620.851 471.234,-616.482 464.183,-621.703 464.183,-621.703"/>
<ellipse fill="none" stroke="black" cx="461.057" cy="-622.384" rx="3.2" ry="3.2"/>
</g>
<!-- miq_widgets -->
<g id="node10" class="node"><title>miq_widgets</title>
<g id="a_node10"><a xlink:href="../../tables/miq_widgets.html" xlink:title="miq_widgets" target="_top">
<polygon fill="#ffffff" stroke="none" points="252.5,-573 252.5,-631 372.5,-631 372.5,-573 252.5,-573"/>
<polygon fill="#f5f5f5" stroke="none" points="252.5,-609 252.5,-631 372.5,-631 372.5,-609 252.5,-609"/>
<polygon fill="none" stroke="black" points="252.5,-609 252.5,-631 372.5,-631 372.5,-609 252.5,-609"/>
<text text-anchor="start" x="257.5" y="-618.2" font-family="Helvetica,sans-Serif" font-weight="bold" font-size="11.00">miq_widgets</text>
<text text-anchor="start" x="333.5" y="-617.2" font-family="Helvetica,sans-Serif" font-size="11.00">[table]</text>
<polygon fill="none" stroke="black" points="252.5,-591 252.5,-609 372.5,-609 372.5,-591 252.5,-591"/>
<text text-anchor="start" x="255.5" y="-597.2" font-family="Helvetica,sans-Serif" font-size="11.00">...</text>
<polygon fill="#ffffff" stroke="none" points="252.5,-573 252.5,-591 305.5,-591 305.5,-573 252.5,-573"/>
<polygon fill="none" stroke="black" points="252.5,-573 252.5,-591 305.5,-591 305.5,-573 252.5,-573"/>
<text text-anchor="start" x="255.5" y="-579.2" font-family="Helvetica,sans-Serif" font-size="11.00">&lt; 3</text>
<polygon fill="#ffffff" stroke="none" points="305.5,-573 305.5,-591 333.5,-591 333.5,-573 305.5,-573"/>
<polygon fill="none" stroke="black" points="305.5,-573 305.5,-591 333.5,-591 333.5,-573 305.5,-573"/>
<text text-anchor="start" x="323.5" y="-579.2" font-family="Helvetica,sans-Serif" font-size="11.00"> &#160;</text>
<polygon fill="#ffffff" stroke="none" points="333.5,-573 333.5,-591 372.5,-591 372.5,-573 333.5,-573"/>
<polygon fill="none" stroke="black" points="333.5,-573 333.5,-591 372.5,-591 372.5,-573 333.5,-573"/>
<text text-anchor="start" x="352.5" y="-579.2" font-family="Helvetica,sans-Serif" font-size="11.00">2 &gt;</text>
</a>
</g>
</g>
<!-- miq_widget_contents&#45;&gt;miq_widgets -->
<g id="edge8" class="edge"><title>miq_widget_contents:elipses:w&#45;&gt;miq_widgets:elipses:e</title>
<path fill="none" stroke="black" d="M457.208,-619.191C424.59,-615.45 412.762,-600 373.5,-600"/>
<polygon fill="black" stroke="black" points="464.012,-619.563 471.803,-623.595 468.006,-619.782 472,-620 472,-620 472,-620 468.006,-619.782 472.197,-616.405 464.012,-619.563 464.012,-619.563"/>
<ellipse fill="none" stroke="black" cx="460.817" cy="-619.388" rx="3.2" ry="3.2"/>
</g>
<!-- miq_widgets&#45;&gt;users -->
<g id="edge10" class="edge"><title>miq_widgets:elipses:w&#45;&gt;users:id:e</title>
<path fill="none" stroke="black" d="M236.998,-601.957C203.513,-611.755 201.081,-655 158.5,-655"/>
<polygon fill="black" stroke="black" points="243.572,-601.07 251.982,-603.568 247.536,-600.535 251.5,-600 251.5,-600 251.5,-600 247.536,-600.535 251.018,-596.432 243.572,-601.07 243.572,-601.07"/>
<ellipse fill="none" stroke="black" cx="240.401" cy="-601.498" rx="3.2" ry="3.2"/>
</g>
<!-- notification_recipients -->
<g id="node11" class="node"><title>notification_recipients</title>
<g id="a_node11"><a xlink:href="../../tables/notification_recipients.html" xlink:title="notification_recipients" target="_top">
<polygon fill="#ffffff" stroke="none" points="468,-501 468,-559 646,-559 646,-501 468,-501"/>
<polygon fill="#f5f5f5" stroke="none" points="468,-537 468,-559 646,-559 646,-537 468,-537"/>
<polygon fill="none" stroke="black" points="468,-537 468,-559 646,-559 646,-537 468,-537"/>
<text text-anchor="start" x="473" y="-546.2" font-family="Helvetica,sans-Serif" font-weight="bold" font-size="11.00">notification_recipients</text>
<text text-anchor="start" x="607" y="-545.2" font-family="Helvetica,sans-Serif" font-size="11.00">[table]</text>
<polygon fill="none" stroke="black" points="468,-519 468,-537 646,-537 646,-519 468,-519"/>
<text text-anchor="start" x="471" y="-525.2" font-family="Helvetica,sans-Serif" font-size="11.00">...</text>
<polygon fill="#ffffff" stroke="none" points="468,-501 468,-519 555,-519 555,-501 468,-501"/>
<polygon fill="none" stroke="black" points="468,-501 468,-519 555,-519 555,-501 468,-501"/>
<text text-anchor="start" x="471" y="-507.2" font-family="Helvetica,sans-Serif" font-size="11.00">&lt; 2</text>
<polygon fill="#ffffff" stroke="none" points="555,-501 555,-519 600,-519 600,-501 555,-501"/>
<polygon fill="none" stroke="black" points="555,-501 555,-519 600,-519 600,-501 555,-501"/>
<text text-anchor="start" x="590" y="-507.2" font-family="Helvetica,sans-Serif" font-size="11.00"> &#160;</text>
<polygon fill="#ffffff" stroke="none" points="600,-501 600,-519 646,-519 646,-501 600,-501"/>
<polygon fill="none" stroke="black" points="600,-501 600,-519 646,-519 646,-501 600,-501"/>
<text text-anchor="start" x="636" y="-507.2" font-family="Helvetica,sans-Serif" font-size="11.00"> &#160;</text>
</a>
</g>
</g>
<!-- notification_recipients&#45;&gt;users -->
<g id="edge12" class="edge"><title>notification_recipients:elipses:w&#45;&gt;users:id:e</title>
<path fill="none" stroke="black" d="M452.459,-529.463C444.633,-531.204 438.891,-534.113 427,-536 376.392,-544.031 239.061,-532.345 198,-563 162.343,-589.621 202.998,-655 158.5,-655"/>
<polygon fill="black" stroke="black" points="459.04,-528.801 467.36,-531.582 463.02,-528.4 467,-528 467,-528 467,-528 463.02,-528.4 466.64,-524.418 459.04,-528.801 459.04,-528.801"/>
<ellipse fill="none" stroke="black" cx="455.856" cy="-529.121" rx="3.2" ry="3.2"/>
</g>
<!-- notifications -->
<g id="node12" class="node"><title>notifications</title>
<g id="a_node12"><a xlink:href="../../tables/notifications.html" xlink:title="notifications" target="_top">
<polygon fill="#ffffff" stroke="none" points="252,-467 252,-525 373,-525 373,-467 252,-467"/>
<polygon fill="#f5f5f5" stroke="none" points="252.5,-503 252.5,-525 373.5,-525 373.5,-503 252.5,-503"/>
<polygon fill="none" stroke="black" points="252.5,-503 252.5,-525 373.5,-525 373.5,-503 252.5,-503"/>
<text text-anchor="start" x="257.5" y="-512.2" font-family="Helvetica,sans-Serif" font-weight="bold" font-size="11.00">notifications</text>
<text text-anchor="start" x="334.5" y="-511.2" font-family="Helvetica,sans-Serif" font-size="11.00">[table]</text>
<polygon fill="none" stroke="black" points="252.5,-485 252.5,-503 373.5,-503 373.5,-485 252.5,-485"/>
<text text-anchor="start" x="255.5" y="-491.2" font-family="Helvetica,sans-Serif" font-size="11.00">...</text>
<polygon fill="#ffffff" stroke="none" points="252.5,-467 252.5,-485 306.5,-485 306.5,-467 252.5,-467"/>
<polygon fill="none" stroke="black" points="252.5,-467 252.5,-485 306.5,-485 306.5,-467 252.5,-467"/>
<text text-anchor="start" x="255.5" y="-473.2" font-family="Helvetica,sans-Serif" font-size="11.00">&lt; 2</text>
<polygon fill="#ffffff" stroke="none" points="306.5,-467 306.5,-485 334.5,-485 334.5,-467 306.5,-467"/>
<polygon fill="none" stroke="black" points="306.5,-467 306.5,-485 334.5,-485 334.5,-467 306.5,-467"/>
<text text-anchor="start" x="324.5" y="-473.2" font-family="Helvetica,sans-Serif" font-size="11.00"> &#160;</text>
<polygon fill="#ffffff" stroke="none" points="334.5,-467 334.5,-485 373.5,-485 373.5,-467 334.5,-467"/>
<polygon fill="none" stroke="black" points="334.5,-467 334.5,-485 373.5,-485 373.5,-467 334.5,-467"/>
<text text-anchor="start" x="353.5" y="-473.2" font-family="Helvetica,sans-Serif" font-size="11.00">1 &gt;</text>
</a>
</g>
</g>
<!-- notification_recipients&#45;&gt;notifications -->
<g id="edge11" class="edge"><title>notification_recipients:elipses:w&#45;&gt;notifications:elipses:e</title>
<path fill="none" stroke="black" d="M452.661,-526.625C421.443,-520.264 412.996,-494 374.5,-494"/>
<polygon fill="black" stroke="black" points="459.037,-527.236 466.656,-531.584 463.018,-527.618 467,-528 467,-528 467,-528 463.018,-527.618 467.344,-524.416 459.037,-527.236 459.037,-527.236"/>
<ellipse fill="none" stroke="black" cx="455.851" cy="-526.931" rx="3.2" ry="3.2"/>
</g>
<!-- notifications&#45;&gt;users -->
<g id="edge13" class="edge"><title>notifications:elipses:w&#45;&gt;users:id:e</title>
<path fill="none" stroke="black" d="M237.062,-495.799C218.264,-501.158 212.388,-517.962 198,-539 167.255,-583.955 212.963,-655 158.5,-655"/>
<polygon fill="black" stroke="black" points="243.561,-494.989 251.945,-497.572 247.531,-494.495 251.5,-494 251.5,-494 251.5,-494 247.531,-494.495 251.055,-490.428 243.561,-494.989 243.561,-494.989"/>
<ellipse fill="none" stroke="black" cx="240.386" cy="-495.385" rx="3.2" ry="3.2"/>
</g>
<!-- service_orders -->
<g id="node13" class="node"><title>service_orders</title>
<g id="a_node13"><a xlink:href="../../tables/service_orders.html" xlink:title="service_orders" target="_top">
<polygon fill="#ffffff" stroke="none" points="247.5,-388 247.5,-446 377.5,-446 377.5,-388 247.5,-388"/>
<polygon fill="#f5f5f5" stroke="none" points="247.5,-424 247.5,-446 377.5,-446 377.5,-424 247.5,-424"/>
<polygon fill="none" stroke="black" points="247.5,-424 247.5,-446 377.5,-446 377.5,-424 247.5,-424"/>
<text text-anchor="start" x="252.5" y="-433.2" font-family="Helvetica,sans-Serif" font-weight="bold" font-size="11.00">service_orders</text>
<text text-anchor="start" x="338.5" y="-432.2" font-family="Helvetica,sans-Serif" font-size="11.00">[table]</text>
<polygon fill="none" stroke="black" points="247.5,-406 247.5,-424 377.5,-424 377.5,-406 247.5,-406"/>
<text text-anchor="start" x="250.5" y="-412.2" font-family="Helvetica,sans-Serif" font-size="11.00">...</text>
<polygon fill="#ffffff" stroke="none" points="247.5,-388 247.5,-406 305.5,-406 305.5,-388 247.5,-388"/>
<polygon fill="none" stroke="black" points="247.5,-388 247.5,-406 305.5,-406 305.5,-388 247.5,-388"/>
<text text-anchor="start" x="250.5" y="-394.2" font-family="Helvetica,sans-Serif" font-size="11.00">&lt; 2</text>
<polygon fill="#ffffff" stroke="none" points="305.5,-388 305.5,-406 336.5,-406 336.5,-388 305.5,-388"/>
<polygon fill="none" stroke="black" points="305.5,-388 305.5,-406 336.5,-406 336.5,-388 305.5,-388"/>
<text text-anchor="start" x="326.5" y="-394.2" font-family="Helvetica,sans-Serif" font-size="11.00"> &#160;</text>
<polygon fill="#ffffff" stroke="none" points="336.5,-388 336.5,-406 377.5,-406 377.5,-388 336.5,-388"/>
<polygon fill="none" stroke="black" points="336.5,-388 336.5,-406 377.5,-406 377.5,-388 336.5,-388"/>
<text text-anchor="start" x="357.5" y="-394.2" font-family="Helvetica,sans-Serif" font-size="11.00">1 &gt;</text>
</a>
</g>
</g>
<!-- service_orders&#45;&gt;users -->
<g id="edge14" class="edge"><title>service_orders:elipses:w&#45;&gt;users:id:e</title>
<path fill="none" stroke="black" d="M231.801,-416.989C215.513,-422.092 209.419,-436.622 198,-456 175.112,-494.843 203.585,-655 158.5,-655"/>
<polygon fill="black" stroke="black" points="238.572,-416.073 246.983,-418.567 242.536,-415.536 246.5,-415 246.5,-415 246.5,-415 242.536,-415.536 246.017,-411.433 238.572,-416.073 238.572,-416.073"/>
<ellipse fill="none" stroke="black" cx="235.401" cy="-416.502" rx="3.2" ry="3.2"/>
</g>
<!-- sessions -->
<g id="node14" class="node"><title>sessions</title>
<g id="a_node14"><a xlink:href="../../tables/sessions.html" xlink:title="sessions" target="_top">
<polygon fill="#ffffff" stroke="none" points="206,-195 206,-349 419,-349 419,-195 206,-195"/>
<polygon fill="#f5f5f5" stroke="none" points="208.5,-325 208.5,-347 417.5,-347 417.5,-325 208.5,-325"/>
<polygon fill="none" stroke="black" points="208.5,-325 208.5,-347 417.5,-347 417.5,-325 208.5,-325"/>
<text text-anchor="start" x="213.5" y="-334.2" font-family="Helvetica,sans-Serif" font-weight="bold" font-size="11.00">sessions</text>
<text text-anchor="start" x="378.5" y="-333.2" font-family="Helvetica,sans-Serif" font-size="11.00">[table]</text>
<polygon fill="none" stroke="black" points="208.5,-303 208.5,-325 296.5,-325 296.5,-303 208.5,-303"/>
<image xlink:href="../../images/primaryKeys.png" width="11px" height="12px" preserveAspectRatio="xMinYMin meet" x="213.5" y="-320"/>
<text text-anchor="start" x="228.5" y="-311.2" font-family="Helvetica,sans-Serif" font-size="11.00">id</text>
<polygon fill="none" stroke="black" points="296.5,-303 296.5,-325 417.5,-325 417.5,-303 296.5,-303"/>
<text text-anchor="start" x="299.5" y="-311.2" font-family="Helvetica,sans-Serif" font-size="11.00">bigserial[19]</text>
<polygon fill="#ffffff" stroke="none" points="208.5,-281 208.5,-303 296.5,-303 296.5,-281 208.5,-281"/>
<polygon fill="none" stroke="black" points="208.5,-281 208.5,-303 296.5,-303 296.5,-281 208.5,-281"/>
<image xlink:href="../../images/foreignKeys.png" width="11px" height="12px" preserveAspectRatio="xMinYMin meet" x="213.5" y="-298"/>
<text text-anchor="start" x="228.5" y="-289.2" font-family="Helvetica,sans-Serif" font-size="11.00">session_id</text>
<polygon fill="none" stroke="black" points="296.5,-281 296.5,-303 417.5,-303 417.5,-281 296.5,-281"/>
<text text-anchor="start" x="299.5" y="-289.2" font-family="Helvetica,sans-Serif" font-size="11.00">varchar[2147483647]</text>
<polygon fill="none" stroke="black" points="208.5,-259 208.5,-281 296.5,-281 296.5,-259 208.5,-259"/>
<text text-anchor="start" x="228.5" y="-267.2" font-family="Helvetica,sans-Serif" font-size="11.00">data</text>
<polygon fill="none" stroke="black" points="296.5,-259 296.5,-281 417.5,-281 417.5,-259 296.5,-259"/>
<text text-anchor="start" x="299.5" y="-267.2" font-family="Helvetica,sans-Serif" font-size="11.00">text[2147483647]</text>
<polygon fill="#ffffff" stroke="none" points="208.5,-237 208.5,-259 296.5,-259 296.5,-237 208.5,-237"/>
<polygon fill="none" stroke="black" points="208.5,-237 208.5,-259 296.5,-259 296.5,-237 208.5,-237"/>
<text text-anchor="start" x="228.5" y="-245.2" font-family="Helvetica,sans-Serif" font-size="11.00">updated_at</text>
<polygon fill="none" stroke="black" points="296.5,-237 296.5,-259 417.5,-259 417.5,-237 296.5,-237"/>
<text text-anchor="start" x="299.5" y="-245.2" font-family="Helvetica,sans-Serif" font-size="11.00">timestamp[29,6]</text>
<polygon fill="#ffffff" stroke="none" points="208.5,-215 208.5,-237 296.5,-237 296.5,-215 208.5,-215"/>
<polygon fill="none" stroke="black" points="208.5,-215 208.5,-237 296.5,-237 296.5,-215 208.5,-215"/>
<image xlink:href="../../images/foreignKeys.png" width="11px" height="12px" preserveAspectRatio="xMinYMin meet" x="213.5" y="-232"/>
<text text-anchor="start" x="228.5" y="-223.2" font-family="Helvetica,sans-Serif" font-size="11.00">user_id</text>
<polygon fill="none" stroke="black" points="296.5,-215 296.5,-237 417.5,-237 417.5,-215 296.5,-215"/>
<text text-anchor="start" x="299.5" y="-223.2" font-family="Helvetica,sans-Serif" font-size="11.00">int8[19]</text>
<polygon fill="#ffffff" stroke="none" points="208.5,-197 208.5,-215 257.5,-215 257.5,-197 208.5,-197"/>
<polygon fill="none" stroke="black" points="208.5,-197 208.5,-215 257.5,-215 257.5,-197 208.5,-197"/>
<text text-anchor="start" x="211.5" y="-203.2" font-family="Helvetica,sans-Serif" font-size="11.00">&lt; 2</text>
<polygon fill="#ffffff" stroke="none" points="257.5,-197 257.5,-215 296.5,-215 296.5,-197 257.5,-197"/>
<polygon fill="none" stroke="black" points="257.5,-197 257.5,-215 296.5,-215 296.5,-197 257.5,-197"/>
<text text-anchor="start" x="286.5" y="-203.2" font-family="Helvetica,sans-Serif" font-size="11.00"> &#160;</text>
<polygon fill="#ffffff" stroke="none" points="296.5,-197 296.5,-215 417.5,-215 417.5,-197 296.5,-197"/>
<polygon fill="none" stroke="black" points="296.5,-197 296.5,-215 417.5,-215 417.5,-197 296.5,-197"/>
<text text-anchor="start" x="397.5" y="-203.2" font-family="Helvetica,sans-Serif" font-size="11.00">1 &gt;</text>
<polygon fill="none" stroke="black" stroke-width="2" points="207,-196 207,-348 418,-348 418,-196 207,-196"/>
</a>
</g>
</g>
<!-- sessions&#45;&gt;users -->
<g id="edge16" class="edge"><title>sessions:user_id:w&#45;&gt;users:id:e</title>
<path fill="none" stroke="black" d="M193.408,-229.973C126.969,-273.221 249.018,-655 158.5,-655"/>
<polygon fill="black" stroke="black" points="199.8,-228.171 208.477,-229.465 203.65,-227.085 207.5,-226 207.5,-226 207.5,-226 203.65,-227.085 206.523,-222.535 199.8,-228.171 199.8,-228.171"/>
<ellipse fill="none" stroke="black" cx="196.72" cy="-229.039" rx="3.20001" ry="3.20001"/>
</g>
<!-- sessions&#45;&gt;sessions -->
<g id="edge15" class="edge"><title>sessions:session_id:w&#45;&gt;sessions:id.type:e</title>
<path fill="none" stroke="black" d="M196.126,-299.526C151.989,-329.74 163.656,-366 313,-366 475,-366 475,-345.333 417.5,-314"/>
<polygon fill="black" stroke="black" points="201.665,-296.157 210.371,-295.076 205.082,-294.079 208.5,-292 208.5,-292 208.5,-292 205.082,-294.079 206.629,-288.924 201.665,-296.157 201.665,-296.157"/>
<ellipse fill="none" stroke="black" cx="198.931" cy="-297.82" rx="3.20001" ry="3.20001"/>
</g>
<!-- shares -->
<g id="node15" class="node"><title>shares</title>
<g id="a_node15"><a xlink:href="../../tables/shares.html" xlink:title="shares" target="_top">
<polygon fill="#ffffff" stroke="none" points="270,-116 270,-174 355,-174 355,-116 270,-116"/>
<polygon fill="#f5f5f5" stroke="none" points="270.5,-152 270.5,-174 355.5,-174 355.5,-152 270.5,-152"/>
<polygon fill="none" stroke="black" points="270.5,-152 270.5,-174 355.5,-174 355.5,-152 270.5,-152"/>
<text text-anchor="start" x="275.5" y="-161.2" font-family="Helvetica,sans-Serif" font-weight="bold" font-size="11.00">shares</text>
<text text-anchor="start" x="316.5" y="-160.2" font-family="Helvetica,sans-Serif" font-size="11.00">[table]</text>
<polygon fill="none" stroke="black" points="270.5,-134 270.5,-152 355.5,-152 355.5,-134 270.5,-134"/>
<text text-anchor="start" x="273.5" y="-140.2" font-family="Helvetica,sans-Serif" font-size="11.00">...</text>
<polygon fill="#ffffff" stroke="none" points="270.5,-116 270.5,-134 306.5,-134 306.5,-116 270.5,-116"/>
<polygon fill="none" stroke="black" points="270.5,-116 270.5,-134 306.5,-134 306.5,-116 270.5,-116"/>
<text text-anchor="start" x="273.5" y="-122.2" font-family="Helvetica,sans-Serif" font-size="11.00">&lt; 2</text>
<polygon fill="#ffffff" stroke="none" points="306.5,-116 306.5,-134 325.5,-134 325.5,-116 306.5,-116"/>
<polygon fill="none" stroke="black" points="306.5,-116 306.5,-134 325.5,-134 325.5,-116 306.5,-116"/>
<text text-anchor="start" x="315.5" y="-122.2" font-family="Helvetica,sans-Serif" font-size="11.00"> &#160;</text>
<polygon fill="#ffffff" stroke="none" points="325.5,-116 325.5,-134 355.5,-134 355.5,-116 325.5,-116"/>
<polygon fill="none" stroke="black" points="325.5,-116 325.5,-134 355.5,-134 355.5,-116 325.5,-116"/>
<text text-anchor="start" x="335.5" y="-122.2" font-family="Helvetica,sans-Serif" font-size="11.00">1 &gt;</text>
</a>
</g>
</g>
<!-- shares&#45;&gt;users -->
<g id="edge17" class="edge"><title>shares:elipses:w&#45;&gt;users:id:e</title>
<path fill="none" stroke="black" d="M254.882,-143.665C228.382,-146.354 214.829,-157.565 198,-184 169.797,-228.302 211.017,-655 158.5,-655"/>
<polygon fill="black" stroke="black" points="261.508,-143.364 269.664,-146.596 265.504,-143.182 269.5,-143 269.5,-143 269.5,-143 265.504,-143.182 269.336,-139.404 261.508,-143.364 261.508,-143.364"/>
<ellipse fill="none" stroke="black" cx="258.312" cy="-143.509" rx="3.2" ry="3.2"/>
</g>
<!-- system_consoles -->
<g id="node16" class="node"><title>system_consoles</title>
<g id="a_node16"><a xlink:href="../../tables/system_consoles.html" xlink:title="system_consoles" target="_top">
<polygon fill="#ffffff" stroke="none" points="241.5,-37 241.5,-95 383.5,-95 383.5,-37 241.5,-37"/>
<polygon fill="#f5f5f5" stroke="none" points="241.5,-73 241.5,-95 383.5,-95 383.5,-73 241.5,-73"/>
<polygon fill="none" stroke="black" points="241.5,-73 241.5,-95 383.5,-95 383.5,-73 241.5,-73"/>
<text text-anchor="start" x="246.5" y="-82.2" font-family="Helvetica,sans-Serif" font-weight="bold" font-size="11.00">system_consoles</text>
<text text-anchor="start" x="344.5" y="-81.2" font-family="Helvetica,sans-Serif" font-size="11.00">[table]</text>
<polygon fill="none" stroke="black" points="241.5,-55 241.5,-73 383.5,-73 383.5,-55 241.5,-55"/>
<text text-anchor="start" x="244.5" y="-61.2" font-family="Helvetica,sans-Serif" font-size="11.00">...</text>
<polygon fill="#ffffff" stroke="none" points="241.5,-37 241.5,-55 310.5,-55 310.5,-37 241.5,-37"/>
<polygon fill="none" stroke="black" points="241.5,-37 241.5,-55 310.5,-55 310.5,-37 241.5,-37"/>
<text text-anchor="start" x="244.5" y="-43.2" font-family="Helvetica,sans-Serif" font-size="11.00">&lt; 2</text>
<polygon fill="#ffffff" stroke="none" points="310.5,-37 310.5,-55 346.5,-55 346.5,-37 310.5,-37"/>
<polygon fill="none" stroke="black" points="310.5,-37 310.5,-55 346.5,-55 346.5,-37 310.5,-37"/>
<text text-anchor="start" x="336.5" y="-43.2" font-family="Helvetica,sans-Serif" font-size="11.00"> &#160;</text>
<polygon fill="#ffffff" stroke="none" points="346.5,-37 346.5,-55 383.5,-55 383.5,-37 346.5,-37"/>
<polygon fill="none" stroke="black" points="346.5,-37 346.5,-55 383.5,-55 383.5,-37 346.5,-37"/>
<text text-anchor="start" x="373.5" y="-43.2" font-family="Helvetica,sans-Serif" font-size="11.00"> &#160;</text>
</a>
</g>
</g>
<!-- system_consoles&#45;&gt;users -->
<g id="edge18" class="edge"><title>system_consoles:elipses:w&#45;&gt;users:id:e</title>
<path fill="none" stroke="black" d="M226.023,-66.3612C211.722,-71.8499 206.688,-86.427 198,-105 172.04,-160.497 219.769,-655 158.5,-655"/>
<polygon fill="black" stroke="black" points="232.604,-65.2878 241.08,-67.5531 236.552,-64.6439 240.5,-64 240.5,-64 240.5,-64 236.552,-64.6439 239.92,-60.4469 232.604,-65.2878 232.604,-65.2878"/>
<ellipse fill="none" stroke="black" cx="229.446" cy="-65.803" rx="3.2" ry="3.2"/>
</g>
</g>
</svg>
