<?xml version="1.0" encoding="UTF-8" standalone="no"?>
<!DOCTYPE svg PUBLIC "-//W3C//DTD SVG 1.1//EN"
 "http://www.w3.org/Graphics/SVG/1.1/DTD/svg11.dtd">
<!-- Generated by graphviz version 2.38.0 (20140413.2041)
 -->
<!-- Title: oneDegreeRelationshipsDiagram Pages: 1 -->
<svg width="554pt" height="335pt"
 viewBox="0.00 0.00 554.00 335.00" xmlns="http://www.w3.org/2000/svg" xmlns:xlink="http://www.w3.org/1999/xlink">
<g id="graph0" class="graph" transform="scale(1 1) rotate(0) translate(4 331)">
<title>oneDegreeRelationshipsDiagram</title>
<polygon fill="#ffffff" stroke="none" points="-4,4 -4,-331 550,-331 550,4 -4,4"/>
<text text-anchor="middle" x="74.5" y="-7.2" font-family="Helvetica,sans-Serif" font-size="11.00">Generated by SchemaSpy</text>
<!-- showback_data_views -->
<g id="node1" class="node"><title>showback_data_views</title>
<g id="a_node1"><a xlink:href="../../tables/showback_data_views.html" xlink:title="showback_data_views" target="_top">
<polygon fill="#ffffff" stroke="none" points="243,-37 243,-323 538,-323 538,-37 243,-37"/>
<polygon fill="#f5f5f5" stroke="none" points="245.5,-299 245.5,-321 536.5,-321 536.5,-299 245.5,-299"/>
<polygon fill="none" stroke="black" points="245.5,-299 245.5,-321 536.5,-321 536.5,-299 245.5,-299"/>
<text text-anchor="start" x="250.5" y="-308.2" font-family="Helvetica,sans-Serif" font-weight="bold" font-size="11.00">showback_data_views</text>
<text text-anchor="start" x="497.5" y="-307.2" font-family="Helvetica,sans-Serif" font-size="11.00">[table]</text>
<polygon fill="none" stroke="black" points="245.5,-277 245.5,-299 415.5,-299 415.5,-277 245.5,-277"/>
<image xlink:href="../../images/primaryKeys.png" width="11px" height="12px" preserveAspectRatio="xMinYMin meet" x="250.5" y="-294"/>
<text text-anchor="start" x="265.5" y="-285.2" font-family="Helvetica,sans-Serif" font-size="11.00">id</text>
<polygon fill="none" stroke="black" points="415.5,-277 415.5,-299 536.5,-299 536.5,-277 415.5,-277"/>
<text text-anchor="start" x="418.5" y="-285.2" font-family="Helvetica,sans-Serif" font-size="11.00">bigserial[19]</text>
<polygon fill="none" stroke="black" points="245.5,-255 245.5,-277 415.5,-277 415.5,-255 245.5,-255"/>
<text text-anchor="start" x="265.5" y="-263.2" font-family="Helvetica,sans-Serif" font-size="11.00">cost_subunits</text>
<polygon fill="none" stroke="black" points="415.5,-255 415.5,-277 536.5,-277 536.5,-255 415.5,-255"/>
<text text-anchor="start" x="418.5" y="-263.2" font-family="Helvetica,sans-Serif" font-size="11.00">int8[19]</text>
<polygon fill="none" stroke="black" points="245.5,-233 245.5,-255 415.5,-255 415.5,-233 245.5,-233"/>
<text text-anchor="start" x="265.5" y="-241.2" font-family="Helvetica,sans-Serif" font-size="11.00">cost_currency</text>
<polygon fill="none" stroke="black" points="415.5,-233 415.5,-255 536.5,-255 536.5,-233 415.5,-233"/>
<text text-anchor="start" x="418.5" y="-241.2" font-family="Helvetica,sans-Serif" font-size="11.00">varchar[2147483647]</text>
<polygon fill="#ffffff" stroke="none" points="245.5,-211 245.5,-233 415.5,-233 415.5,-211 245.5,-211"/>
<polygon fill="none" stroke="black" points="245.5,-211 245.5,-233 415.5,-233 415.5,-211 245.5,-211"/>
<image xlink:href="../../images/foreignKeys.png" width="11px" height="12px" preserveAspectRatio="xMinYMin meet" x="250.5" y="-228"/>
<text text-anchor="start" x="265.5" y="-219.2" font-family="Helvetica,sans-Serif" font-size="11.00">showback_envelope_id</text>
<polygon fill="none" stroke="black" points="415.5,-211 415.5,-233 536.5,-233 536.5,-211 415.5,-211"/>
<text text-anchor="start" x="418.5" y="-219.2" font-family="Helvetica,sans-Serif" font-size="11.00">int8[19]</text>
<polygon fill="#ffffff" stroke="none" points="245.5,-189 245.5,-211 415.5,-211 415.5,-189 245.5,-189"/>
<polygon fill="none" stroke="black" points="245.5,-189 245.5,-211 415.5,-211 415.5,-189 245.5,-189"/>
<image xlink:href="../../images/foreignKeys.png" width="11px" height="12px" preserveAspectRatio="xMinYMin meet" x="250.5" y="-206"/>
<text text-anchor="start" x="265.5" y="-197.2" font-family="Helvetica,sans-Serif" font-size="11.00">showback_data_rollup_id</text>
<polygon fill="none" stroke="black" points="415.5,-189 415.5,-211 536.5,-211 536.5,-189 415.5,-189"/>
<text text-anchor="start" x="418.5" y="-197.2" font-family="Helvetica,sans-Serif" font-size="11.00">int8[19]</text>
<polygon fill="none" stroke="black" points="245.5,-167 245.5,-189 415.5,-189 415.5,-167 245.5,-167"/>
<text text-anchor="start" x="265.5" y="-175.2" font-family="Helvetica,sans-Serif" font-size="11.00">created_at</text>
<polygon fill="none" stroke="black" points="415.5,-167 415.5,-189 536.5,-189 536.5,-167 415.5,-167"/>
<text text-anchor="start" x="418.5" y="-175.2" font-family="Helvetica,sans-Serif" font-size="11.00">timestamp[29,6]</text>
<polygon fill="none" stroke="black" points="245.5,-145 245.5,-167 415.5,-167 415.5,-145 245.5,-145"/>
<text text-anchor="start" x="265.5" y="-153.2" font-family="Helvetica,sans-Serif" font-size="11.00">updated_at</text>
<polygon fill="none" stroke="black" points="415.5,-145 415.5,-167 536.5,-167 536.5,-145 415.5,-145"/>
<text text-anchor="start" x="418.5" y="-153.2" font-family="Helvetica,sans-Serif" font-size="11.00">timestamp[29,6]</text>
<polygon fill="none" stroke="black" points="245.5,-123 245.5,-145 415.5,-145 415.5,-123 245.5,-123"/>
<text text-anchor="start" x="265.5" y="-131.2" font-family="Helvetica,sans-Serif" font-size="11.00">data_snapshot</text>
<polygon fill="none" stroke="black" points="415.5,-123 415.5,-145 536.5,-145 536.5,-123 415.5,-123"/>
<text text-anchor="start" x="418.5" y="-131.2" font-family="Helvetica,sans-Serif" font-size="11.00">jsonb[2147483647]</text>
<polygon fill="none" stroke="black" points="245.5,-101 245.5,-123 415.5,-123 415.5,-101 245.5,-101"/>
<text text-anchor="start" x="265.5" y="-109.2" font-family="Helvetica,sans-Serif" font-size="11.00">context_snapshot</text>
<polygon fill="none" stroke="black" points="415.5,-101 415.5,-123 536.5,-123 536.5,-101 415.5,-101"/>
<text text-anchor="start" x="418.5" y="-109.2" font-family="Helvetica,sans-Serif" font-size="11.00">jsonb[2147483647]</text>
<polygon fill="none" stroke="black" points="245.5,-79 245.5,-101 415.5,-101 415.5,-79 245.5,-79"/>
<text text-anchor="start" x="265.5" y="-87.2" font-family="Helvetica,sans-Serif" font-size="11.00">start_time</text>
<polygon fill="none" stroke="black" points="415.5,-79 415.5,-101 536.5,-101 536.5,-79 415.5,-79"/>
<text text-anchor="start" x="418.5" y="-87.2" font-family="Helvetica,sans-Serif" font-size="11.00">timestamp[29,6]</text>
<polygon fill="none" stroke="black" points="245.5,-57 245.5,-79 415.5,-79 415.5,-57 245.5,-57"/>
<text text-anchor="start" x="265.5" y="-65.2" font-family="Helvetica,sans-Serif" font-size="11.00">end_time</text>
<polygon fill="none" stroke="black" points="415.5,-57 415.5,-79 536.5,-79 536.5,-57 415.5,-57"/>
<text text-anchor="start" x="418.5" y="-65.2" font-family="Helvetica,sans-Serif" font-size="11.00">timestamp[29,6]</text>
<polygon fill="#ffffff" stroke="none" points="245.5,-39 245.5,-57 335.5,-57 335.5,-39 245.5,-39"/>
<polygon fill="none" stroke="black" points="245.5,-39 245.5,-57 335.5,-57 335.5,-39 245.5,-39"/>
<text text-anchor="start" x="248.5" y="-45.2" font-family="Helvetica,sans-Serif" font-size="11.00">&lt; 2</text>
<polygon fill="#ffffff" stroke="none" points="335.5,-39 335.5,-57 415.5,-57 415.5,-39 335.5,-39"/>
<polygon fill="none" stroke="black" points="335.5,-39 335.5,-57 415.5,-57 415.5,-39 335.5,-39"/>
<text text-anchor="start" x="405.5" y="-45.2" font-family="Helvetica,sans-Serif" font-size="11.00"> &#160;</text>
<polygon fill="#ffffff" stroke="none" points="415.5,-39 415.5,-57 536.5,-57 536.5,-39 415.5,-39"/>
<polygon fill="none" stroke="black" points="415.5,-39 415.5,-57 536.5,-57 536.5,-39 415.5,-39"/>
<text text-anchor="start" x="516.5" y="-45.2" font-family="Helvetica,sans-Serif" font-size="11.00">0 &gt;</text>
<polygon fill="none" stroke="black" stroke-width="2" points="244,-38 244,-322 537,-322 537,-38 244,-38"/>
</a>
</g>
</g>
<!-- showback_data_rollups -->
<g id="node2" class="node"><title>showback_data_rollups</title>
<g id="a_node2"><a xlink:href="../../tables/showback_data_rollups.html" xlink:title="showback_data_rollups" target="_top">
<polygon fill="#ffffff" stroke="none" points="11,-48 11,-172 191,-172 191,-48 11,-48"/>
<polygon fill="#f5f5f5" stroke="none" points="11,-150 11,-172 191,-172 191,-150 11,-150"/>
<polygon fill="none" stroke="black" points="11,-150 11,-172 191,-172 191,-150 11,-150"/>
<text text-anchor="start" x="16" y="-159.2" font-family="Helvetica,sans-Serif" font-weight="bold" font-size="11.00">showback_data_rollups</text>
<text text-anchor="start" x="152" y="-158.2" font-family="Helvetica,sans-Serif" font-size="11.00">[table]</text>
<polygon fill="none" stroke="black" points="11,-128 11,-150 191,-150 191,-128 11,-128"/>
<image xlink:href="../../images/primaryKeys.png" width="11px" height="12px" preserveAspectRatio="xMinYMin meet" x="16" y="-145"/>
<text text-anchor="start" x="42" y="-136.2" font-family="Helvetica,sans-Serif" font-size="11.00">id</text>
<polygon fill="#ffffff" stroke="none" points="11,-106 11,-128 191,-128 191,-106 11,-106"/>
<polygon fill="none" stroke="black" points="11,-106 11,-128 191,-128 191,-106 11,-106"/>
<text text-anchor="start" x="42" y="-114.2" font-family="Helvetica,sans-Serif" font-size="11.00">resource_type</text>
<polygon fill="#ffffff" stroke="none" points="11,-84 11,-106 191,-106 191,-84 11,-84"/>
<polygon fill="none" stroke="black" points="11,-84 11,-106 191,-106 191,-84 11,-84"/>
<text text-anchor="start" x="42" y="-92.2" font-family="Helvetica,sans-Serif" font-size="11.00">resource_id</text>
<polygon fill="none" stroke="black" points="11,-66 11,-84 191,-84 191,-66 11,-66"/>
<text text-anchor="start" x="14" y="-72.2" font-family="Helvetica,sans-Serif" font-size="11.00">...</text>
<polygon fill="#ffffff" stroke="none" points="11,-48 11,-66 89,-66 89,-48 11,-48"/>
<polygon fill="none" stroke="black" points="11,-48 11,-66 89,-66 89,-48 11,-48"/>
<text text-anchor="start" x="14" y="-54.2" font-family="Helvetica,sans-Serif" font-size="11.00"> &#160;</text>
<polygon fill="#ffffff" stroke="none" points="89,-48 89,-66 135,-66 135,-48 89,-48"/>
<polygon fill="none" stroke="black" points="89,-48 89,-66 135,-66 135,-48 89,-48"/>
<text text-anchor="start" x="125" y="-54.2" font-family="Helvetica,sans-Serif" font-size="11.00"> &#160;</text>
<polygon fill="#ffffff" stroke="none" points="135,-48 135,-66 191,-66 191,-48 135,-48"/>
<polygon fill="none" stroke="black" points="135,-48 135,-66 191,-66 191,-48 135,-48"/>
<text text-anchor="start" x="171" y="-54.2" font-family="Helvetica,sans-Serif" font-size="11.00">1 &gt;</text>
</a>
</g>
</g>
<!-- showback_data_views&#45;&gt;showback_data_rollups -->
<g id="edge1" class="edge"><title>showback_data_views:showback_data_rollup_id:w&#45;&gt;showback_data_rollups:id:e</title>
<path fill="none" stroke="black" d="M230.357,-195.213C213.656,-180.833 221.622,-139 192,-139"/>
<polygon fill="black" stroke="black" points="236.922,-197.435 243.346,-203.41 240.711,-198.718 244.5,-200 244.5,-200 244.5,-200 240.711,-198.718 245.654,-196.59 236.922,-197.435 236.922,-197.435"/>
<ellipse fill="none" stroke="black" cx="233.891" cy="-196.409" rx="3.20001" ry="3.20001"/>
</g>
<!-- showback_envelopes -->
<g id="node3" class="node"><title>showback_envelopes</title>
<g id="a_node3"><a xlink:href="../../tables/showback_envelopes.html" xlink:title="showback_envelopes" target="_top">
<polygon fill="#ffffff" stroke="none" points="8,-193 8,-317 194,-317 194,-193 8,-193"/>
<polygon fill="#f5f5f5" stroke="none" points="8,-295 8,-317 194,-317 194,-295 8,-295"/>
<polygon fill="none" stroke="black" points="8,-295 8,-317 194,-317 194,-295 8,-295"/>
<text text-anchor="start" x="13" y="-304.2" font-family="Helvetica,sans-Serif" font-weight="bold" font-size="11.00">showback_envelopes</text>
<text text-anchor="start" x="155" y="-303.2" font-family="Helvetica,sans-Serif" font-size="11.00">[table]</text>
<polygon fill="none" stroke="black" points="8,-273 8,-295 194,-295 194,-273 8,-273"/>
<image xlink:href="../../images/primaryKeys.png" width="11px" height="12px" preserveAspectRatio="xMinYMin meet" x="13" y="-290"/>
<text text-anchor="start" x="28" y="-281.2" font-family="Helvetica,sans-Serif" font-size="11.00">id</text>
<polygon fill="#ffffff" stroke="none" points="8,-251 8,-273 194,-273 194,-251 8,-251"/>
<polygon fill="none" stroke="black" points="8,-251 8,-273 194,-273 194,-251 8,-251"/>
<text text-anchor="start" x="28" y="-259.2" font-family="Helvetica,sans-Serif" font-size="11.00">resource_type</text>
<polygon fill="#ffffff" stroke="none" points="8,-229 8,-251 194,-251 194,-229 8,-229"/>
<polygon fill="none" stroke="black" points="8,-229 8,-251 194,-251 194,-229 8,-229"/>
<text text-anchor="start" x="28" y="-237.2" font-family="Helvetica,sans-Serif" font-size="11.00">resource_id</text>
<polygon fill="none" stroke="black" points="8,-211 8,-229 194,-229 194,-211 8,-211"/>
<text text-anchor="start" x="11" y="-217.2" font-family="Helvetica,sans-Serif" font-size="11.00">...</text>
<polygon fill="#ffffff" stroke="none" points="8,-193 8,-211 89,-211 89,-193 8,-193"/>
<polygon fill="none" stroke="black" points="8,-193 8,-211 89,-211 89,-193 8,-193"/>
<text text-anchor="start" x="11" y="-199.2" font-family="Helvetica,sans-Serif" font-size="11.00"> &#160;</text>
<polygon fill="#ffffff" stroke="none" points="89,-193 89,-211 136,-211 136,-193 89,-193"/>
<polygon fill="none" stroke="black" points="89,-193 89,-211 136,-211 136,-193 89,-193"/>
<text text-anchor="start" x="126" y="-199.2" font-family="Helvetica,sans-Serif" font-size="11.00"> &#160;</text>
<polygon fill="#ffffff" stroke="none" points="136,-193 136,-211 194,-211 194,-193 136,-193"/>
<polygon fill="none" stroke="black" points="136,-193 136,-211 194,-211 194,-193 136,-193"/>
<text text-anchor="start" x="174" y="-199.2" font-family="Helvetica,sans-Serif" font-size="11.00">1 &gt;</text>
</a>
</g>
</g>
<!-- showback_data_views&#45;&gt;showback_envelopes -->
<g id="edge2" class="edge"><title>showback_data_views:showback_envelope_id:w&#45;&gt;showback_envelopes:id:e</title>
<path fill="none" stroke="black" d="M230.735,-226.865C214.803,-241.481 224.2,-284 195,-284"/>
<polygon fill="black" stroke="black" points="236.957,-224.666 245.7,-225.394 240.729,-223.333 244.5,-222 244.5,-222 244.5,-222 240.729,-223.333 243.3,-218.606 236.957,-224.666 236.957,-224.666"/>
<ellipse fill="none" stroke="black" cx="233.94" cy="-225.732" rx="3.20001" ry="3.20001"/>
</g>
</g>
</svg>
