<?xml version="1.0" encoding="UTF-8" standalone="no"?>
<!DOCTYPE svg PUBLIC "-//W3C//DTD SVG 1.1//EN"
 "http://www.w3.org/Graphics/SVG/1.1/DTD/svg11.dtd">
<!-- Generated by graphviz version 2.38.0 (20140413.2041)
 -->
<!-- Title: twoDegreesRelationshipsDiagram Pages: 1 -->
<svg width="529pt" height="370pt"
 viewBox="0.00 0.00 529.00 370.00" xmlns="http://www.w3.org/2000/svg" xmlns:xlink="http://www.w3.org/1999/xlink">
<g id="graph0" class="graph" transform="scale(1 1) rotate(0) translate(4 366)">
<title>twoDegreesRelationshipsDiagram</title>
<polygon fill="#ffffff" stroke="none" points="-4,4 -4,-366 525,-366 525,4 -4,4"/>
<text text-anchor="middle" x="74.5" y="-7.2" font-family="Helvetica,sans-Serif" font-size="11.00">Generated by SchemaSpy</text>
<!-- showback_data_views -->
<g id="node1" class="node"><title>showback_data_views</title>
<g id="a_node1"><a xlink:href="../../tables/showback_data_views.html" xlink:title="showback_data_views" target="_top">
<polygon fill="#ffffff" stroke="none" points="341,-227 341,-351 513,-351 513,-227 341,-227"/>
<polygon fill="#f5f5f5" stroke="none" points="341,-329 341,-351 513,-351 513,-329 341,-329"/>
<polygon fill="none" stroke="black" points="341,-329 341,-351 513,-351 513,-329 341,-329"/>
<text text-anchor="start" x="346" y="-338.2" font-family="Helvetica,sans-Serif" font-weight="bold" font-size="11.00">showback_data_views</text>
<text text-anchor="start" x="474" y="-337.2" font-family="Helvetica,sans-Serif" font-size="11.00">[table]</text>
<polygon fill="none" stroke="black" points="341,-307 341,-329 513,-329 513,-307 341,-307"/>
<image xlink:href="../../images/primaryKeys.png" width="11px" height="12px" preserveAspectRatio="xMinYMin meet" x="346" y="-324"/>
<text text-anchor="start" x="362" y="-315.2" font-family="Helvetica,sans-Serif" font-size="11.00">id</text>
<polygon fill="#ffffff" stroke="none" points="341,-285 341,-307 513,-307 513,-285 341,-285"/>
<polygon fill="none" stroke="black" points="341,-285 341,-307 513,-307 513,-285 341,-285"/>
<image xlink:href="../../images/foreignKeys.png" width="11px" height="12px" preserveAspectRatio="xMinYMin meet" x="346" y="-302"/>
<text text-anchor="start" x="362" y="-293.2" font-family="Helvetica,sans-Serif" font-size="11.00">showback_envelope_id</text>
<polygon fill="#ffffff" stroke="none" points="341,-263 341,-285 513,-285 513,-263 341,-263"/>
<polygon fill="none" stroke="black" points="341,-263 341,-285 513,-285 513,-263 341,-263"/>
<image xlink:href="../../images/foreignKeys.png" width="11px" height="12px" preserveAspectRatio="xMinYMin meet" x="346" y="-280"/>
<text text-anchor="start" x="362" y="-271.2" font-family="Helvetica,sans-Serif" font-size="11.00">showback_data_rollup_id</text>
<polygon fill="none" stroke="black" points="341,-245 341,-263 513,-263 513,-245 341,-245"/>
<text text-anchor="start" x="344" y="-251.2" font-family="Helvetica,sans-Serif" font-size="11.00">...</text>
<polygon fill="#ffffff" stroke="none" points="341,-227 341,-245 425,-245 425,-227 341,-227"/>
<polygon fill="none" stroke="black" points="341,-227 341,-245 425,-245 425,-227 341,-227"/>
<text text-anchor="start" x="344" y="-233.2" font-family="Helvetica,sans-Serif" font-size="11.00">&lt; 2</text>
<polygon fill="#ffffff" stroke="none" points="425,-227 425,-245 469,-245 469,-227 425,-227"/>
<polygon fill="none" stroke="black" points="425,-227 425,-245 469,-245 469,-227 425,-227"/>
<text text-anchor="start" x="459" y="-233.2" font-family="Helvetica,sans-Serif" font-size="11.00"> &#160;</text>
<polygon fill="#ffffff" stroke="none" points="469,-227 469,-245 513,-245 513,-227 469,-227"/>
<polygon fill="none" stroke="black" points="469,-227 469,-245 513,-245 513,-227 469,-227"/>
<text text-anchor="start" x="503" y="-233.2" font-family="Helvetica,sans-Serif" font-size="11.00"> &#160;</text>
</a>
</g>
</g>
<!-- showback_data_rollups -->
<g id="node2" class="node"><title>showback_data_rollups</title>
<g id="a_node2"><a xlink:href="../../tables/showback_data_rollups.html" xlink:title="showback_data_rollups" target="_top">
<polygon fill="#ffffff" stroke="none" points="8,-37 8,-279 292,-279 292,-37 8,-37"/>
<polygon fill="#f5f5f5" stroke="none" points="10,-255 10,-277 290,-277 290,-255 10,-255"/>
<polygon fill="none" stroke="black" points="10,-255 10,-277 290,-277 290,-255 10,-255"/>
<text text-anchor="start" x="15" y="-264.2" font-family="Helvetica,sans-Serif" font-weight="bold" font-size="11.00">showback_data_rollups</text>
<text text-anchor="start" x="251" y="-263.2" font-family="Helvetica,sans-Serif" font-size="11.00">[table]</text>
<polygon fill="none" stroke="black" points="10,-233 10,-255 169,-255 169,-233 10,-233"/>
<image xlink:href="../../images/primaryKeys.png" width="11px" height="12px" preserveAspectRatio="xMinYMin meet" x="15" y="-250"/>
<text text-anchor="start" x="30" y="-241.2" font-family="Helvetica,sans-Serif" font-size="11.00">id</text>
<polygon fill="none" stroke="black" points="169,-233 169,-255 290,-255 290,-233 169,-233"/>
<text text-anchor="start" x="172" y="-241.2" font-family="Helvetica,sans-Serif" font-size="11.00">bigserial[19]</text>
<polygon fill="none" stroke="black" points="10,-211 10,-233 169,-233 169,-211 10,-211"/>
<text text-anchor="start" x="30" y="-219.2" font-family="Helvetica,sans-Serif" font-size="11.00">data</text>
<polygon fill="none" stroke="black" points="169,-211 169,-233 290,-233 290,-211 169,-211"/>
<text text-anchor="start" x="172" y="-219.2" font-family="Helvetica,sans-Serif" font-size="11.00">jsonb[2147483647]</text>
<polygon fill="none" stroke="black" points="10,-189 10,-211 169,-211 169,-189 10,-189"/>
<text text-anchor="start" x="30" y="-197.2" font-family="Helvetica,sans-Serif" font-size="11.00">start_time</text>
<polygon fill="none" stroke="black" points="169,-189 169,-211 290,-211 290,-189 169,-189"/>
<text text-anchor="start" x="172" y="-197.2" font-family="Helvetica,sans-Serif" font-size="11.00">timestamp[29,6]</text>
<polygon fill="none" stroke="black" points="10,-167 10,-189 169,-189 169,-167 10,-167"/>
<text text-anchor="start" x="30" y="-175.2" font-family="Helvetica,sans-Serif" font-size="11.00">end_time</text>
<polygon fill="none" stroke="black" points="169,-167 169,-189 290,-189 290,-167 169,-167"/>
<text text-anchor="start" x="172" y="-175.2" font-family="Helvetica,sans-Serif" font-size="11.00">timestamp[29,6]</text>
<polygon fill="#ffffff" stroke="none" points="10,-145 10,-167 169,-167 169,-145 10,-145"/>
<polygon fill="none" stroke="black" points="10,-145 10,-167 169,-167 169,-145 10,-145"/>
<text text-anchor="start" x="30" y="-153.2" font-family="Helvetica,sans-Serif" font-size="11.00">resource_type</text>
<polygon fill="none" stroke="black" points="169,-145 169,-167 290,-167 290,-145 169,-145"/>
<text text-anchor="start" x="172" y="-153.2" font-family="Helvetica,sans-Serif" font-size="11.00">varchar[2147483647]</text>
<polygon fill="#ffffff" stroke="none" points="10,-123 10,-145 169,-145 169,-123 10,-123"/>
<polygon fill="none" stroke="black" points="10,-123 10,-145 169,-145 169,-123 10,-123"/>
<text text-anchor="start" x="30" y="-131.2" font-family="Helvetica,sans-Serif" font-size="11.00">resource_id</text>
<polygon fill="none" stroke="black" points="169,-123 169,-145 290,-145 290,-123 169,-123"/>
<text text-anchor="start" x="172" y="-131.2" font-family="Helvetica,sans-Serif" font-size="11.00">int8[19]</text>
<polygon fill="none" stroke="black" points="10,-101 10,-123 169,-123 169,-101 10,-101"/>
<text text-anchor="start" x="30" y="-109.2" font-family="Helvetica,sans-Serif" font-size="11.00">context</text>
<polygon fill="none" stroke="black" points="169,-101 169,-123 290,-123 290,-101 169,-101"/>
<text text-anchor="start" x="172" y="-109.2" font-family="Helvetica,sans-Serif" font-size="11.00">jsonb[2147483647]</text>
<polygon fill="none" stroke="black" points="10,-79 10,-101 169,-101 169,-79 10,-79"/>
<text text-anchor="start" x="30" y="-87.2" font-family="Helvetica,sans-Serif" font-size="11.00">created_at</text>
<polygon fill="none" stroke="black" points="169,-79 169,-101 290,-101 290,-79 169,-79"/>
<text text-anchor="start" x="172" y="-87.2" font-family="Helvetica,sans-Serif" font-size="11.00">timestamp[29,6]</text>
<polygon fill="none" stroke="black" points="10,-57 10,-79 169,-79 169,-57 10,-57"/>
<text text-anchor="start" x="30" y="-65.2" font-family="Helvetica,sans-Serif" font-size="11.00">updated_at</text>
<polygon fill="none" stroke="black" points="169,-57 169,-79 290,-79 290,-57 169,-57"/>
<text text-anchor="start" x="172" y="-65.2" font-family="Helvetica,sans-Serif" font-size="11.00">timestamp[29,6]</text>
<polygon fill="#ffffff" stroke="none" points="10,-39 10,-57 94,-57 94,-39 10,-39"/>
<polygon fill="none" stroke="black" points="10,-39 10,-57 94,-57 94,-39 10,-39"/>
<text text-anchor="start" x="13" y="-45.2" font-family="Helvetica,sans-Serif" font-size="11.00">&lt; 0</text>
<polygon fill="#ffffff" stroke="none" points="94,-39 94,-57 169,-57 169,-39 94,-39"/>
<polygon fill="none" stroke="black" points="94,-39 94,-57 169,-57 169,-39 94,-39"/>
<text text-anchor="start" x="159" y="-45.2" font-family="Helvetica,sans-Serif" font-size="11.00"> &#160;</text>
<polygon fill="#ffffff" stroke="none" points="169,-39 169,-57 290,-57 290,-39 169,-39"/>
<polygon fill="none" stroke="black" points="169,-39 169,-57 290,-57 290,-39 169,-39"/>
<text text-anchor="start" x="270" y="-45.2" font-family="Helvetica,sans-Serif" font-size="11.00">1 &gt;</text>
<polygon fill="none" stroke="black" stroke-width="2" points="9,-38 9,-278 291,-278 291,-38 9,-38"/>
</a>
</g>
</g>
<!-- showback_data_views&#45;&gt;showback_data_rollups -->
<g id="edge1" class="edge"><title>showback_data_views:showback_data_rollup_id:w&#45;&gt;showback_data_rollups:id.type:e</title>
<path fill="none" stroke="black" d="M325.884,-269.829C313.919,-261.585 310.55,-244 291,-244"/>
<polygon fill="black" stroke="black" points="332.328,-271.733 338.98,-277.452 336.164,-272.866 340,-274 340,-274 340,-274 336.164,-272.866 341.02,-270.548 332.328,-271.733 332.328,-271.733"/>
<ellipse fill="none" stroke="black" cx="329.259" cy="-270.826" rx="3.20001" ry="3.20001"/>
</g>
<!-- showback_envelopes -->
<g id="node3" class="node"><title>showback_envelopes</title>
<g id="a_node3"><a xlink:href="../../tables/showback_envelopes.html" xlink:title="showback_envelopes" target="_top">
<polygon fill="#ffffff" stroke="none" points="66.5,-300 66.5,-358 233.5,-358 233.5,-300 66.5,-300"/>
<polygon fill="#f5f5f5" stroke="none" points="67,-336 67,-358 234,-358 234,-336 67,-336"/>
<polygon fill="none" stroke="black" points="67,-336 67,-358 234,-358 234,-336 67,-336"/>
<text text-anchor="start" x="72" y="-345.2" font-family="Helvetica,sans-Serif" font-weight="bold" font-size="11.00">showback_envelopes</text>
<text text-anchor="start" x="195" y="-344.2" font-family="Helvetica,sans-Serif" font-size="11.00">[table]</text>
<polygon fill="none" stroke="black" points="67,-318 67,-336 234,-336 234,-318 67,-318"/>
<text text-anchor="start" x="70" y="-324.2" font-family="Helvetica,sans-Serif" font-size="11.00">...</text>
<polygon fill="#ffffff" stroke="none" points="67,-300 67,-318 139,-318 139,-300 67,-300"/>
<polygon fill="none" stroke="black" points="67,-300 67,-318 139,-318 139,-300 67,-300"/>
<text text-anchor="start" x="70" y="-306.2" font-family="Helvetica,sans-Serif" font-size="11.00"> &#160;</text>
<polygon fill="#ffffff" stroke="none" points="139,-300 139,-318 181,-318 181,-300 139,-300"/>
<polygon fill="none" stroke="black" points="139,-300 139,-318 181,-318 181,-300 139,-300"/>
<text text-anchor="start" x="171" y="-306.2" font-family="Helvetica,sans-Serif" font-size="11.00"> &#160;</text>
<polygon fill="#ffffff" stroke="none" points="181,-300 181,-318 234,-318 234,-300 181,-300"/>
<polygon fill="none" stroke="black" points="181,-300 181,-318 234,-318 234,-300 181,-300"/>
<text text-anchor="start" x="214" y="-306.2" font-family="Helvetica,sans-Serif" font-size="11.00">1 &gt;</text>
</a>
</g>
</g>
<!-- showback_data_views&#45;&gt;showback_envelopes -->
<g id="edge2" class="edge"><title>showback_data_views:showback_envelope_id:w&#45;&gt;showback_envelopes:elipses:e</title>
<path fill="none" stroke="black" d="M325.397,-297.031C289.171,-302.41 278.336,-327 235,-327"/>
<polygon fill="black" stroke="black" points="332.02,-296.564 340.254,-299.591 336.01,-296.282 340,-296 340,-296 340,-296 336.01,-296.282 339.746,-292.409 332.02,-296.564 332.02,-296.564"/>
<ellipse fill="none" stroke="black" cx="328.828" cy="-296.789" rx="3.2" ry="3.2"/>
</g>
</g>
</svg>
