<?xml version="1.0" encoding="UTF-8" standalone="no"?>
<!DOCTYPE svg PUBLIC "-//W3C//DTD SVG 1.1//EN"
 "http://www.w3.org/Graphics/SVG/1.1/DTD/svg11.dtd">
<!-- Generated by graphviz version 2.38.0 (20140413.2041)
 -->
<!-- Title: oneDegreeRelationshipsDiagram Pages: 1 -->
<svg width="505pt" height="951pt"
 viewBox="0.00 0.00 505.00 951.00" xmlns="http://www.w3.org/2000/svg" xmlns:xlink="http://www.w3.org/1999/xlink">
<g id="graph0" class="graph" transform="scale(1 1) rotate(0) translate(4 947)">
<title>oneDegreeRelationshipsDiagram</title>
<polygon fill="#ffffff" stroke="none" points="-4,4 -4,-947 501,-947 501,4 -4,4"/>
<text text-anchor="middle" x="74.5" y="-7.2" font-family="Helvetica,sans-Serif" font-size="11.00">Generated by SchemaSpy</text>
<!-- disks -->
<g id="node1" class="node"><title>disks</title>
<g id="a_node1"><a xlink:href="../../tables/disks.html" xlink:title="disks" target="_top">
<polygon fill="#ffffff" stroke="none" points="330.5,-749 330.5,-939 456.5,-939 456.5,-749 330.5,-749"/>
<polygon fill="#f5f5f5" stroke="none" points="330.5,-917 330.5,-939 456.5,-939 456.5,-917 330.5,-917"/>
<polygon fill="none" stroke="black" points="330.5,-917 330.5,-939 456.5,-939 456.5,-917 330.5,-917"/>
<text text-anchor="start" x="335.5" y="-926.2" font-family="Helvetica,sans-Serif" font-weight="bold" font-size="11.00">disks</text>
<text text-anchor="start" x="417.5" y="-925.2" font-family="Helvetica,sans-Serif" font-size="11.00">[table]</text>
<polygon fill="none" stroke="black" points="330.5,-895 330.5,-917 456.5,-917 456.5,-895 330.5,-895"/>
<image xlink:href="../../images/primaryKeys.png" width="11px" height="12px" preserveAspectRatio="xMinYMin meet" x="335.5" y="-912"/>
<text text-anchor="start" x="350.5" y="-903.2" font-family="Helvetica,sans-Serif" font-size="11.00">id</text>
<polygon fill="#ffffff" stroke="none" points="330.5,-873 330.5,-895 456.5,-895 456.5,-873 330.5,-873"/>
<polygon fill="none" stroke="black" points="330.5,-873 330.5,-895 456.5,-895 456.5,-873 330.5,-873"/>
<text text-anchor="start" x="350.5" y="-881.2" font-family="Helvetica,sans-Serif" font-size="11.00">device_name</text>
<polygon fill="#ffffff" stroke="none" points="330.5,-851 330.5,-873 456.5,-873 456.5,-851 330.5,-851"/>
<polygon fill="none" stroke="black" points="330.5,-851 330.5,-873 456.5,-873 456.5,-851 330.5,-851"/>
<text text-anchor="start" x="350.5" y="-859.2" font-family="Helvetica,sans-Serif" font-size="11.00">device_type</text>
<polygon fill="#ffffff" stroke="none" points="330.5,-829 330.5,-851 456.5,-851 456.5,-829 330.5,-829"/>
<polygon fill="none" stroke="black" points="330.5,-829 330.5,-851 456.5,-851 456.5,-829 330.5,-829"/>
<image xlink:href="../../images/foreignKeys.png" width="11px" height="12px" preserveAspectRatio="xMinYMin meet" x="335.5" y="-846"/>
<text text-anchor="start" x="350.5" y="-837.2" font-family="Helvetica,sans-Serif" font-size="11.00">hardware_id</text>
<polygon fill="#ffffff" stroke="none" points="330.5,-807 330.5,-829 456.5,-829 456.5,-807 330.5,-807"/>
<polygon fill="none" stroke="black" points="330.5,-807 330.5,-829 456.5,-829 456.5,-807 330.5,-807"/>
<image xlink:href="../../images/foreignKeys.png" width="11px" height="12px" preserveAspectRatio="xMinYMin meet" x="335.5" y="-824"/>
<text text-anchor="start" x="350.5" y="-815.2" font-family="Helvetica,sans-Serif" font-size="11.00">storage_id</text>
<polygon fill="none" stroke="black" points="330.5,-785 330.5,-807 456.5,-807 456.5,-785 330.5,-785"/>
<image xlink:href="../../images/foreignKeys.png" width="11px" height="12px" preserveAspectRatio="xMinYMin meet" x="335.5" y="-802"/>
<text text-anchor="start" x="350.5" y="-793.2" font-family="Helvetica,sans-Serif" font-size="11.00">storage_profile_id</text>
<polygon fill="none" stroke="black" points="330.5,-767 330.5,-785 456.5,-785 456.5,-767 330.5,-767"/>
<text text-anchor="start" x="333.5" y="-773.2" font-family="Helvetica,sans-Serif" font-size="11.00">...</text>
<polygon fill="#ffffff" stroke="none" points="330.5,-749 330.5,-767 386.5,-767 386.5,-749 330.5,-749"/>
<polygon fill="none" stroke="black" points="330.5,-749 330.5,-767 386.5,-767 386.5,-749 330.5,-749"/>
<text text-anchor="start" x="333.5" y="-755.2" font-family="Helvetica,sans-Serif" font-size="11.00">&lt; 3</text>
<polygon fill="#ffffff" stroke="none" points="386.5,-749 386.5,-767 416.5,-767 416.5,-749 386.5,-749"/>
<polygon fill="none" stroke="black" points="386.5,-749 386.5,-767 416.5,-767 416.5,-749 386.5,-749"/>
<text text-anchor="start" x="406.5" y="-755.2" font-family="Helvetica,sans-Serif" font-size="11.00"> &#160;</text>
<polygon fill="#ffffff" stroke="none" points="416.5,-749 416.5,-767 456.5,-767 456.5,-749 416.5,-749"/>
<polygon fill="none" stroke="black" points="416.5,-749 416.5,-767 456.5,-767 456.5,-749 416.5,-749"/>
<text text-anchor="start" x="436.5" y="-755.2" font-family="Helvetica,sans-Serif" font-size="11.00">1 &gt;</text>
</a>
</g>
</g>
<!-- storage_profiles -->
<g id="node2" class="node"><title>storage_profiles</title>
<g id="a_node2"><a xlink:href="../../tables/storage_profiles.html" xlink:title="storage_profiles" target="_top">
<polygon fill="#ffffff" stroke="none" points="8,-510 8,-708 249,-708 249,-510 8,-510"/>
<polygon fill="#f5f5f5" stroke="none" points="10.5,-684 10.5,-706 247.5,-706 247.5,-684 10.5,-684"/>
<polygon fill="none" stroke="black" points="10.5,-684 10.5,-706 247.5,-706 247.5,-684 10.5,-684"/>
<text text-anchor="start" x="15.5" y="-693.2" font-family="Helvetica,sans-Serif" font-weight="bold" font-size="11.00">storage_profiles</text>
<text text-anchor="start" x="208.5" y="-692.2" font-family="Helvetica,sans-Serif" font-size="11.00">[table]</text>
<polygon fill="none" stroke="black" points="10.5,-662 10.5,-684 126.5,-684 126.5,-662 10.5,-662"/>
<image xlink:href="../../images/primaryKeys.png" width="11px" height="12px" preserveAspectRatio="xMinYMin meet" x="15.5" y="-679"/>
<text text-anchor="start" x="30.5" y="-670.2" font-family="Helvetica,sans-Serif" font-size="11.00">id</text>
<polygon fill="none" stroke="black" points="126.5,-662 126.5,-684 247.5,-684 247.5,-662 126.5,-662"/>
<text text-anchor="start" x="129.5" y="-670.2" font-family="Helvetica,sans-Serif" font-size="11.00">bigserial[19]</text>
<polygon fill="none" stroke="black" points="10.5,-640 10.5,-662 126.5,-662 126.5,-640 10.5,-640"/>
<text text-anchor="start" x="30.5" y="-648.2" font-family="Helvetica,sans-Serif" font-size="11.00">ems_id</text>
<polygon fill="none" stroke="black" points="126.5,-640 126.5,-662 247.5,-662 247.5,-640 126.5,-640"/>
<text text-anchor="start" x="129.5" y="-648.2" font-family="Helvetica,sans-Serif" font-size="11.00">int8[19]</text>
<polygon fill="none" stroke="black" points="10.5,-618 10.5,-640 126.5,-640 126.5,-618 10.5,-618"/>
<text text-anchor="start" x="30.5" y="-626.2" font-family="Helvetica,sans-Serif" font-size="11.00">name</text>
<polygon fill="none" stroke="black" points="126.5,-618 126.5,-640 247.5,-640 247.5,-618 126.5,-618"/>
<text text-anchor="start" x="129.5" y="-626.2" font-family="Helvetica,sans-Serif" font-size="11.00">varchar[2147483647]</text>
<polygon fill="none" stroke="black" points="10.5,-596 10.5,-618 126.5,-618 126.5,-596 10.5,-596"/>
<text text-anchor="start" x="30.5" y="-604.2" font-family="Helvetica,sans-Serif" font-size="11.00">ems_ref</text>
<polygon fill="none" stroke="black" points="126.5,-596 126.5,-618 247.5,-618 247.5,-596 126.5,-596"/>
<text text-anchor="start" x="129.5" y="-604.2" font-family="Helvetica,sans-Serif" font-size="11.00">varchar[2147483647]</text>
<polygon fill="none" stroke="black" points="10.5,-574 10.5,-596 126.5,-596 126.5,-574 10.5,-574"/>
<text text-anchor="start" x="30.5" y="-582.2" font-family="Helvetica,sans-Serif" font-size="11.00">profile_type</text>
<polygon fill="none" stroke="black" points="126.5,-574 126.5,-596 247.5,-596 247.5,-574 126.5,-574"/>
<text text-anchor="start" x="129.5" y="-582.2" font-family="Helvetica,sans-Serif" font-size="11.00">varchar[2147483647]</text>
<polygon fill="none" stroke="black" points="10.5,-552 10.5,-574 126.5,-574 126.5,-552 10.5,-552"/>
<text text-anchor="start" x="30.5" y="-560.2" font-family="Helvetica,sans-Serif" font-size="11.00">created_at</text>
<polygon fill="none" stroke="black" points="126.5,-552 126.5,-574 247.5,-574 247.5,-552 126.5,-552"/>
<text text-anchor="start" x="129.5" y="-560.2" font-family="Helvetica,sans-Serif" font-size="11.00">timestamp[29,6]</text>
<polygon fill="none" stroke="black" points="10.5,-530 10.5,-552 126.5,-552 126.5,-530 10.5,-530"/>
<text text-anchor="start" x="30.5" y="-538.2" font-family="Helvetica,sans-Serif" font-size="11.00">updated_at</text>
<polygon fill="none" stroke="black" points="126.5,-530 126.5,-552 247.5,-552 247.5,-530 126.5,-530"/>
<text text-anchor="start" x="129.5" y="-538.2" font-family="Helvetica,sans-Serif" font-size="11.00">timestamp[29,6]</text>
<polygon fill="#ffffff" stroke="none" points="10.5,-512 10.5,-530 73.5,-530 73.5,-512 10.5,-512"/>
<polygon fill="none" stroke="black" points="10.5,-512 10.5,-530 73.5,-530 73.5,-512 10.5,-512"/>
<text text-anchor="start" x="13.5" y="-518.2" font-family="Helvetica,sans-Serif" font-size="11.00">&lt; 0</text>
<polygon fill="#ffffff" stroke="none" points="73.5,-512 73.5,-530 126.5,-530 126.5,-512 73.5,-512"/>
<polygon fill="none" stroke="black" points="73.5,-512 73.5,-530 126.5,-530 126.5,-512 73.5,-512"/>
<text text-anchor="start" x="116.5" y="-518.2" font-family="Helvetica,sans-Serif" font-size="11.00"> &#160;</text>
<polygon fill="#ffffff" stroke="none" points="126.5,-512 126.5,-530 247.5,-530 247.5,-512 126.5,-512"/>
<polygon fill="none" stroke="black" points="126.5,-512 126.5,-530 247.5,-530 247.5,-512 126.5,-512"/>
<text text-anchor="start" x="227.5" y="-518.2" font-family="Helvetica,sans-Serif" font-size="11.00">3 &gt;</text>
<polygon fill="none" stroke="black" stroke-width="2" points="9,-511 9,-707 248,-707 248,-511 9,-511"/>
</a>
</g>
</g>
<!-- disks&#45;&gt;storage_profiles -->
<g id="edge1" class="edge"><title>disks:storage_profile_id:w&#45;&gt;storage_profiles:id.type:e</title>
<path fill="none" stroke="black" d="M315.034,-793.431C271.771,-775.768 308.331,-673 248.5,-673"/>
<polygon fill="black" stroke="black" points="321.623,-794.601 328.87,-799.545 325.562,-795.301 329.5,-796 329.5,-796 329.5,-796 325.562,-795.301 330.13,-792.455 321.623,-794.601 321.623,-794.601"/>
<ellipse fill="none" stroke="black" cx="318.473" cy="-794.042" rx="3.2" ry="3.2"/>
</g>
<!-- storage_profile_storages -->
<g id="node3" class="node"><title>storage_profile_storages</title>
<g id="a_node3"><a xlink:href="../../tables/storage_profile_storages.html" xlink:title="storage_profile_storages" target="_top">
<polygon fill="#ffffff" stroke="none" points="301.5,-622 301.5,-728 485.5,-728 485.5,-622 301.5,-622"/>
<polygon fill="#f5f5f5" stroke="none" points="301.5,-706 301.5,-728 485.5,-728 485.5,-706 301.5,-706"/>
<polygon fill="none" stroke="black" points="301.5,-706 301.5,-728 485.5,-728 485.5,-706 301.5,-706"/>
<text text-anchor="start" x="306.5" y="-715.2" font-family="Helvetica,sans-Serif" font-weight="bold" font-size="11.00">storage_profile_storages</text>
<text text-anchor="start" x="446.5" y="-714.2" font-family="Helvetica,sans-Serif" font-size="11.00">[table]</text>
<polygon fill="none" stroke="black" points="301.5,-684 301.5,-706 485.5,-706 485.5,-684 301.5,-684"/>
<image xlink:href="../../images/primaryKeys.png" width="11px" height="12px" preserveAspectRatio="xMinYMin meet" x="306.5" y="-701"/>
<text text-anchor="start" x="330.5" y="-692.2" font-family="Helvetica,sans-Serif" font-size="11.00">id</text>
<polygon fill="#ffffff" stroke="none" points="301.5,-662 301.5,-684 485.5,-684 485.5,-662 301.5,-662"/>
<polygon fill="none" stroke="black" points="301.5,-662 301.5,-684 485.5,-684 485.5,-662 301.5,-662"/>
<image xlink:href="../../images/foreignKeys.png" width="11px" height="12px" preserveAspectRatio="xMinYMin meet" x="306.5" y="-679"/>
<text text-anchor="start" x="330.5" y="-670.2" font-family="Helvetica,sans-Serif" font-size="11.00">storage_profile_id</text>
<polygon fill="#ffffff" stroke="none" points="301.5,-640 301.5,-662 485.5,-662 485.5,-640 301.5,-640"/>
<polygon fill="none" stroke="black" points="301.5,-640 301.5,-662 485.5,-662 485.5,-640 301.5,-640"/>
<image xlink:href="../../images/foreignKeys.png" width="11px" height="12px" preserveAspectRatio="xMinYMin meet" x="306.5" y="-657"/>
<text text-anchor="start" x="330.5" y="-648.2" font-family="Helvetica,sans-Serif" font-size="11.00">storage_id</text>
<polygon fill="#ffffff" stroke="none" points="301.5,-622 301.5,-640 391.5,-640 391.5,-622 301.5,-622"/>
<polygon fill="none" stroke="black" points="301.5,-622 301.5,-640 391.5,-640 391.5,-622 301.5,-622"/>
<text text-anchor="start" x="304.5" y="-628.2" font-family="Helvetica,sans-Serif" font-size="11.00">&lt; 2</text>
<polygon fill="#ffffff" stroke="none" points="391.5,-622 391.5,-640 438.5,-640 438.5,-622 391.5,-622"/>
<polygon fill="none" stroke="black" points="391.5,-622 391.5,-640 438.5,-640 438.5,-622 391.5,-622"/>
<text text-anchor="start" x="428.5" y="-628.2" font-family="Helvetica,sans-Serif" font-size="11.00"> &#160;</text>
<polygon fill="#ffffff" stroke="none" points="438.5,-622 438.5,-640 485.5,-640 485.5,-622 438.5,-622"/>
<polygon fill="none" stroke="black" points="438.5,-622 438.5,-640 485.5,-640 485.5,-622 438.5,-622"/>
<text text-anchor="start" x="475.5" y="-628.2" font-family="Helvetica,sans-Serif" font-size="11.00"> &#160;</text>
</a>
</g>
</g>
<!-- storage_profile_storages&#45;&gt;storage_profiles -->
<g id="edge2" class="edge"><title>storage_profile_storages:storage_profile_id:w&#45;&gt;storage_profiles:id.type:e</title>
<path fill="none" stroke="black" d="M285.875,-673C273.417,-673 265.833,-673 248.5,-673"/>
<polygon fill="black" stroke="black" points="292.5,-673 300.5,-676.6 296.5,-673 300.5,-673 300.5,-673 300.5,-673 296.5,-673 300.5,-669.4 292.5,-673 292.5,-673"/>
<ellipse fill="none" stroke="black" cx="289.3" cy="-673" rx="3.2" ry="3.2"/>
</g>
<!-- vms -->
<g id="node4" class="node"><title>vms</title>
<g id="a_node4"><a xlink:href="../../tables/vms.html" xlink:title="vms" target="_top">
<polygon fill="#ffffff" stroke="none" points="298,-37 298,-601 489,-601 489,-37 298,-37"/>
<polygon fill="#f5f5f5" stroke="none" points="298.5,-579 298.5,-601 489.5,-601 489.5,-579 298.5,-579"/>
<polygon fill="none" stroke="black" points="298.5,-579 298.5,-601 489.5,-601 489.5,-579 298.5,-579"/>
<text text-anchor="start" x="303.5" y="-588.2" font-family="Helvetica,sans-Serif" font-weight="bold" font-size="11.00">vms</text>
<text text-anchor="start" x="450.5" y="-587.2" font-family="Helvetica,sans-Serif" font-size="11.00">[table]</text>
<polygon fill="none" stroke="black" points="298.5,-557 298.5,-579 489.5,-579 489.5,-557 298.5,-557"/>
<image xlink:href="../../images/primaryKeys.png" width="11px" height="12px" preserveAspectRatio="xMinYMin meet" x="303.5" y="-574"/>
<text text-anchor="start" x="318.5" y="-565.2" font-family="Helvetica,sans-Serif" font-size="11.00">id</text>
<polygon fill="#ffffff" stroke="none" points="298.5,-535 298.5,-557 489.5,-557 489.5,-535 298.5,-535"/>
<polygon fill="none" stroke="black" points="298.5,-535 298.5,-557 489.5,-557 489.5,-535 298.5,-535"/>
<text text-anchor="start" x="318.5" y="-543.2" font-family="Helvetica,sans-Serif" font-size="11.00">name</text>
<polygon fill="#ffffff" stroke="none" points="298.5,-513 298.5,-535 489.5,-535 489.5,-513 298.5,-513"/>
<polygon fill="none" stroke="black" points="298.5,-513 298.5,-535 489.5,-535 489.5,-513 298.5,-513"/>
<text text-anchor="start" x="318.5" y="-521.2" font-family="Helvetica,sans-Serif" font-size="11.00">location</text>
<polygon fill="#ffffff" stroke="none" points="298.5,-491 298.5,-513 489.5,-513 489.5,-491 298.5,-491"/>
<polygon fill="none" stroke="black" points="298.5,-491 298.5,-513 489.5,-513 489.5,-491 298.5,-491"/>
<image xlink:href="../../images/foreignKeys.png" width="11px" height="12px" preserveAspectRatio="xMinYMin meet" x="303.5" y="-508"/>
<text text-anchor="start" x="318.5" y="-499.2" font-family="Helvetica,sans-Serif" font-size="11.00">host_id</text>
<polygon fill="#ffffff" stroke="none" points="298.5,-469 298.5,-491 489.5,-491 489.5,-469 298.5,-469"/>
<polygon fill="none" stroke="black" points="298.5,-469 298.5,-491 489.5,-491 489.5,-469 298.5,-469"/>
<image xlink:href="../../images/foreignKeys.png" width="11px" height="12px" preserveAspectRatio="xMinYMin meet" x="303.5" y="-486"/>
<text text-anchor="start" x="318.5" y="-477.2" font-family="Helvetica,sans-Serif" font-size="11.00">storage_id</text>
<polygon fill="#ffffff" stroke="none" points="298.5,-447 298.5,-469 489.5,-469 489.5,-447 298.5,-447"/>
<polygon fill="none" stroke="black" points="298.5,-447 298.5,-469 489.5,-469 489.5,-447 298.5,-447"/>
<text text-anchor="start" x="318.5" y="-455.2" font-family="Helvetica,sans-Serif" font-size="11.00">guid</text>
<polygon fill="#ffffff" stroke="none" points="298.5,-425 298.5,-447 489.5,-447 489.5,-425 298.5,-425"/>
<polygon fill="none" stroke="black" points="298.5,-425 298.5,-447 489.5,-447 489.5,-425 298.5,-425"/>
<text text-anchor="start" x="318.5" y="-433.2" font-family="Helvetica,sans-Serif" font-size="11.00">ems_id</text>
<polygon fill="#ffffff" stroke="none" points="298.5,-403 298.5,-425 489.5,-425 489.5,-403 298.5,-403"/>
<polygon fill="none" stroke="black" points="298.5,-403 298.5,-425 489.5,-425 489.5,-403 298.5,-403"/>
<text text-anchor="start" x="318.5" y="-411.2" font-family="Helvetica,sans-Serif" font-size="11.00">uid_ems</text>
<polygon fill="#ffffff" stroke="none" points="298.5,-381 298.5,-403 489.5,-403 489.5,-381 298.5,-381"/>
<polygon fill="none" stroke="black" points="298.5,-381 298.5,-403 489.5,-403 489.5,-381 298.5,-381"/>
<text text-anchor="start" x="318.5" y="-389.2" font-family="Helvetica,sans-Serif" font-size="11.00">evm_owner_id</text>
<polygon fill="#ffffff" stroke="none" points="298.5,-359 298.5,-381 489.5,-381 489.5,-359 298.5,-359"/>
<polygon fill="none" stroke="black" points="298.5,-359 298.5,-381 489.5,-381 489.5,-359 298.5,-359"/>
<image xlink:href="../../images/foreignKeys.png" width="11px" height="12px" preserveAspectRatio="xMinYMin meet" x="303.5" y="-376"/>
<text text-anchor="start" x="318.5" y="-367.2" font-family="Helvetica,sans-Serif" font-size="11.00">miq_group_id</text>
<polygon fill="#ffffff" stroke="none" points="298.5,-337 298.5,-359 489.5,-359 489.5,-337 298.5,-337"/>
<polygon fill="none" stroke="black" points="298.5,-337 298.5,-359 489.5,-359 489.5,-337 298.5,-337"/>
<text text-anchor="start" x="318.5" y="-345.2" font-family="Helvetica,sans-Serif" font-size="11.00">type</text>
<polygon fill="none" stroke="black" points="298.5,-315 298.5,-337 489.5,-337 489.5,-315 298.5,-315"/>
<image xlink:href="../../images/foreignKeys.png" width="11px" height="12px" preserveAspectRatio="xMinYMin meet" x="303.5" y="-332"/>
<text text-anchor="start" x="318.5" y="-323.2" font-family="Helvetica,sans-Serif" font-size="11.00">ems_cluster_id</text>
<polygon fill="#ffffff" stroke="none" points="298.5,-293 298.5,-315 489.5,-315 489.5,-293 298.5,-293"/>
<polygon fill="none" stroke="black" points="298.5,-293 298.5,-315 489.5,-315 489.5,-293 298.5,-293"/>
<image xlink:href="../../images/foreignKeys.png" width="11px" height="12px" preserveAspectRatio="xMinYMin meet" x="303.5" y="-310"/>
<text text-anchor="start" x="318.5" y="-301.2" font-family="Helvetica,sans-Serif" font-size="11.00">flavor_id</text>
<polygon fill="#ffffff" stroke="none" points="298.5,-271 298.5,-293 489.5,-293 489.5,-271 298.5,-271"/>
<polygon fill="none" stroke="black" points="298.5,-271 298.5,-293 489.5,-293 489.5,-271 298.5,-271"/>
<image xlink:href="../../images/foreignKeys.png" width="11px" height="12px" preserveAspectRatio="xMinYMin meet" x="303.5" y="-288"/>
<text text-anchor="start" x="318.5" y="-279.2" font-family="Helvetica,sans-Serif" font-size="11.00">availability_zone_id</text>
<polygon fill="none" stroke="black" points="298.5,-249 298.5,-271 489.5,-271 489.5,-249 298.5,-249"/>
<image xlink:href="../../images/foreignKeys.png" width="11px" height="12px" preserveAspectRatio="xMinYMin meet" x="303.5" y="-266"/>
<text text-anchor="start" x="318.5" y="-257.2" font-family="Helvetica,sans-Serif" font-size="11.00">cloud_network_id</text>
<polygon fill="none" stroke="black" points="298.5,-227 298.5,-249 489.5,-249 489.5,-227 298.5,-227"/>
<image xlink:href="../../images/foreignKeys.png" width="11px" height="12px" preserveAspectRatio="xMinYMin meet" x="303.5" y="-244"/>
<text text-anchor="start" x="318.5" y="-235.2" font-family="Helvetica,sans-Serif" font-size="11.00">cloud_subnet_id</text>
<polygon fill="none" stroke="black" points="298.5,-205 298.5,-227 489.5,-227 489.5,-205 298.5,-205"/>
<image xlink:href="../../images/foreignKeys.png" width="11px" height="12px" preserveAspectRatio="xMinYMin meet" x="303.5" y="-222"/>
<text text-anchor="start" x="318.5" y="-213.2" font-family="Helvetica,sans-Serif" font-size="11.00">cloud_tenant_id</text>
<polygon fill="none" stroke="black" points="298.5,-183 298.5,-205 489.5,-205 489.5,-183 298.5,-183"/>
<image xlink:href="../../images/foreignKeys.png" width="11px" height="12px" preserveAspectRatio="xMinYMin meet" x="303.5" y="-200"/>
<text text-anchor="start" x="318.5" y="-191.2" font-family="Helvetica,sans-Serif" font-size="11.00">orchestration_stack_id</text>
<polygon fill="#ffffff" stroke="none" points="298.5,-161 298.5,-183 489.5,-183 489.5,-161 298.5,-161"/>
<polygon fill="none" stroke="black" points="298.5,-161 298.5,-183 489.5,-183 489.5,-161 298.5,-161"/>
<image xlink:href="../../images/foreignKeys.png" width="11px" height="12px" preserveAspectRatio="xMinYMin meet" x="303.5" y="-178"/>
<text text-anchor="start" x="318.5" y="-169.2" font-family="Helvetica,sans-Serif" font-size="11.00">tenant_id</text>
<polygon fill="none" stroke="black" points="298.5,-139 298.5,-161 489.5,-161 489.5,-139 298.5,-139"/>
<image xlink:href="../../images/foreignKeys.png" width="11px" height="12px" preserveAspectRatio="xMinYMin meet" x="303.5" y="-156"/>
<text text-anchor="start" x="318.5" y="-147.2" font-family="Helvetica,sans-Serif" font-size="11.00">resource_group_id</text>
<polygon fill="none" stroke="black" points="298.5,-117 298.5,-139 489.5,-139 489.5,-117 298.5,-117"/>
<image xlink:href="../../images/foreignKeys.png" width="11px" height="12px" preserveAspectRatio="xMinYMin meet" x="303.5" y="-134"/>
<text text-anchor="start" x="318.5" y="-125.2" font-family="Helvetica,sans-Serif" font-size="11.00">storage_profile_id</text>
<polygon fill="#ffffff" stroke="none" points="298.5,-95 298.5,-117 489.5,-117 489.5,-95 298.5,-95"/>
<polygon fill="none" stroke="black" points="298.5,-95 298.5,-117 489.5,-117 489.5,-95 298.5,-95"/>
<text text-anchor="start" x="318.5" y="-103.2" font-family="Helvetica,sans-Serif" font-size="11.00">ancestry</text>
<polygon fill="#ffffff" stroke="none" points="298.5,-73 298.5,-95 489.5,-95 489.5,-73 298.5,-73"/>
<polygon fill="none" stroke="black" points="298.5,-73 298.5,-95 489.5,-95 489.5,-73 298.5,-73"/>
<image xlink:href="../../images/foreignKeys.png" width="11px" height="12px" preserveAspectRatio="xMinYMin meet" x="303.5" y="-90"/>
<text text-anchor="start" x="318.5" y="-81.2" font-family="Helvetica,sans-Serif" font-size="11.00">placement_group_id</text>
<polygon fill="none" stroke="black" points="298.5,-55 298.5,-73 489.5,-73 489.5,-55 298.5,-55"/>
<text text-anchor="start" x="301.5" y="-61.2" font-family="Helvetica,sans-Serif" font-size="11.00">...</text>
<polygon fill="#ffffff" stroke="none" points="298.5,-37 298.5,-55 390.5,-55 390.5,-37 298.5,-37"/>
<polygon fill="none" stroke="black" points="298.5,-37 298.5,-55 390.5,-55 390.5,-37 298.5,-37"/>
<text text-anchor="start" x="301.5" y="-43.2" font-family="Helvetica,sans-Serif" font-size="11.00">&lt; 14</text>
<polygon fill="#ffffff" stroke="none" points="390.5,-37 390.5,-55 434.5,-55 434.5,-37 390.5,-37"/>
<polygon fill="none" stroke="black" points="390.5,-37 390.5,-55 434.5,-55 434.5,-37 390.5,-37"/>
<text text-anchor="start" x="424.5" y="-43.2" font-family="Helvetica,sans-Serif" font-size="11.00"> &#160;</text>
<polygon fill="#ffffff" stroke="none" points="434.5,-37 434.5,-55 489.5,-55 489.5,-37 434.5,-37"/>
<polygon fill="none" stroke="black" points="434.5,-37 434.5,-55 489.5,-55 489.5,-37 434.5,-37"/>
<text text-anchor="start" x="469.5" y="-43.2" font-family="Helvetica,sans-Serif" font-size="11.00">7 &gt;</text>
</a>
</g>
</g>
<!-- vms&#45;&gt;storage_profiles -->
<g id="edge3" class="edge"><title>vms:storage_profile_id:w&#45;&gt;storage_profiles:id.type:e</title>
<path fill="none" stroke="black" d="M283.245,-131.065C192.359,-174.848 364.756,-673 248.5,-673"/>
<polygon fill="black" stroke="black" points="289.679,-129.682 298.257,-131.52 293.589,-128.841 297.5,-128 297.5,-128 297.5,-128 293.589,-128.841 296.743,-124.48 289.679,-129.682 289.679,-129.682"/>
<ellipse fill="none" stroke="black" cx="286.55" cy="-130.354" rx="3.2" ry="3.2"/>
</g>
</g>
</svg>
