<?xml version="1.0" encoding="UTF-8" standalone="no"?>
<!DOCTYPE svg PUBLIC "-//W3C//DTD SVG 1.1//EN"
 "http://www.w3.org/Graphics/SVG/1.1/DTD/svg11.dtd">
<!-- Generated by graphviz version 2.38.0 (20140413.2041)
 -->
<!-- Title: oneDegreeRelationshipsDiagram Pages: 1 -->
<svg width="600pt" height="296pt"
 viewBox="0.00 0.00 600.00 296.00" xmlns="http://www.w3.org/2000/svg" xmlns:xlink="http://www.w3.org/1999/xlink">
<g id="graph0" class="graph" transform="scale(1 1) rotate(0) translate(4 292)">
<title>oneDegreeRelationshipsDiagram</title>
<polygon fill="#ffffff" stroke="none" points="-4,4 -4,-292 596,-292 596,4 -4,4"/>
<text text-anchor="middle" x="74.5" y="-7.2" font-family="Helvetica,sans-Serif" font-size="11.00">Generated by SchemaSpy</text>
<!-- storage_service_resource_attachments -->
<g id="node1" class="node"><title>storage_service_resource_attachments</title>
<g id="a_node1"><a xlink:href="../../tables/storage_service_resource_attachments.html" xlink:title="storage_service_resource_attachments" target="_top">
<polygon fill="#ffffff" stroke="none" points="207,-59 207,-257 584,-257 584,-59 207,-59"/>
<polygon fill="#f5f5f5" stroke="none" points="209.5,-233 209.5,-255 582.5,-255 582.5,-233 209.5,-233"/>
<polygon fill="none" stroke="black" points="209.5,-233 209.5,-255 582.5,-255 582.5,-233 209.5,-233"/>
<text text-anchor="start" x="214.5" y="-242.2" font-family="Helvetica,sans-Serif" font-weight="bold" font-size="11.00">storage_service_resource_attachments</text>
<text text-anchor="start" x="543.5" y="-241.2" font-family="Helvetica,sans-Serif" font-size="11.00">[table]</text>
<polygon fill="none" stroke="black" points="209.5,-211 209.5,-233 461.5,-233 461.5,-211 209.5,-211"/>
<image xlink:href="../../images/primaryKeys.png" width="11px" height="12px" preserveAspectRatio="xMinYMin meet" x="214.5" y="-228"/>
<text text-anchor="start" x="229.5" y="-219.2" font-family="Helvetica,sans-Serif" font-size="11.00">id</text>
<polygon fill="none" stroke="black" points="461.5,-211 461.5,-233 582.5,-233 582.5,-211 461.5,-211"/>
<text text-anchor="start" x="464.5" y="-219.2" font-family="Helvetica,sans-Serif" font-size="11.00">bigserial[19]</text>
<polygon fill="#ffffff" stroke="none" points="209.5,-189 209.5,-211 461.5,-211 461.5,-189 209.5,-189"/>
<polygon fill="none" stroke="black" points="209.5,-189 209.5,-211 461.5,-211 461.5,-189 209.5,-189"/>
<image xlink:href="../../images/foreignKeys.png" width="11px" height="12px" preserveAspectRatio="xMinYMin meet" x="214.5" y="-206"/>
<text text-anchor="start" x="229.5" y="-197.2" font-family="Helvetica,sans-Serif" font-size="11.00">storage_service_id</text>
<polygon fill="none" stroke="black" points="461.5,-189 461.5,-211 582.5,-211 582.5,-189 461.5,-189"/>
<text text-anchor="start" x="464.5" y="-197.2" font-family="Helvetica,sans-Serif" font-size="11.00">int8[19]</text>
<polygon fill="#ffffff" stroke="none" points="209.5,-167 209.5,-189 461.5,-189 461.5,-167 209.5,-167"/>
<polygon fill="none" stroke="black" points="209.5,-167 209.5,-189 461.5,-189 461.5,-167 209.5,-167"/>
<image xlink:href="../../images/foreignKeys.png" width="11px" height="12px" preserveAspectRatio="xMinYMin meet" x="214.5" y="-184"/>
<text text-anchor="start" x="229.5" y="-175.2" font-family="Helvetica,sans-Serif" font-size="11.00">storage_resource_id</text>
<polygon fill="none" stroke="black" points="461.5,-167 461.5,-189 582.5,-189 582.5,-167 461.5,-167"/>
<text text-anchor="start" x="464.5" y="-175.2" font-family="Helvetica,sans-Serif" font-size="11.00">int8[19]</text>
<polygon fill="#ffffff" stroke="none" points="209.5,-145 209.5,-167 461.5,-167 461.5,-145 209.5,-145"/>
<polygon fill="none" stroke="black" points="209.5,-145 209.5,-167 461.5,-167 461.5,-145 209.5,-145"/>
<text text-anchor="start" x="229.5" y="-153.2" font-family="Helvetica,sans-Serif" font-size="11.00">ems_id</text>
<polygon fill="none" stroke="black" points="461.5,-145 461.5,-167 582.5,-167 582.5,-145 461.5,-145"/>
<text text-anchor="start" x="464.5" y="-153.2" font-family="Helvetica,sans-Serif" font-size="11.00">int8[19]</text>
<polygon fill="none" stroke="black" points="209.5,-123 209.5,-145 461.5,-145 461.5,-123 209.5,-123"/>
<text text-anchor="start" x="229.5" y="-131.2" font-family="Helvetica,sans-Serif" font-size="11.00">ems_ref</text>
<polygon fill="none" stroke="black" points="461.5,-123 461.5,-145 582.5,-145 582.5,-123 461.5,-123"/>
<text text-anchor="start" x="464.5" y="-131.2" font-family="Helvetica,sans-Serif" font-size="11.00">varchar[2147483647]</text>
<polygon fill="none" stroke="black" points="209.5,-101 209.5,-123 461.5,-123 461.5,-101 209.5,-101"/>
<text text-anchor="start" x="229.5" y="-109.2" font-family="Helvetica,sans-Serif" font-size="11.00">created_at</text>
<polygon fill="none" stroke="black" points="461.5,-101 461.5,-123 582.5,-123 582.5,-101 461.5,-101"/>
<text text-anchor="start" x="464.5" y="-109.2" font-family="Helvetica,sans-Serif" font-size="11.00">timestamp[29,6]</text>
<polygon fill="none" stroke="black" points="209.5,-79 209.5,-101 461.5,-101 461.5,-79 209.5,-79"/>
<text text-anchor="start" x="229.5" y="-87.2" font-family="Helvetica,sans-Serif" font-size="11.00">updated_at</text>
<polygon fill="none" stroke="black" points="461.5,-79 461.5,-101 582.5,-101 582.5,-79 461.5,-79"/>
<text text-anchor="start" x="464.5" y="-87.2" font-family="Helvetica,sans-Serif" font-size="11.00">timestamp[29,6]</text>
<polygon fill="#ffffff" stroke="none" points="209.5,-61 209.5,-79 340.5,-79 340.5,-61 209.5,-61"/>
<polygon fill="none" stroke="black" points="209.5,-61 209.5,-79 340.5,-79 340.5,-61 209.5,-61"/>
<text text-anchor="start" x="212.5" y="-67.2" font-family="Helvetica,sans-Serif" font-size="11.00">&lt; 2</text>
<polygon fill="#ffffff" stroke="none" points="340.5,-61 340.5,-79 461.5,-79 461.5,-61 340.5,-61"/>
<polygon fill="none" stroke="black" points="340.5,-61 340.5,-79 461.5,-79 461.5,-61 340.5,-61"/>
<text text-anchor="start" x="451.5" y="-67.2" font-family="Helvetica,sans-Serif" font-size="11.00"> &#160;</text>
<polygon fill="#ffffff" stroke="none" points="461.5,-61 461.5,-79 582.5,-79 582.5,-61 461.5,-61"/>
<polygon fill="none" stroke="black" points="461.5,-61 461.5,-79 582.5,-79 582.5,-61 461.5,-61"/>
<text text-anchor="start" x="562.5" y="-67.2" font-family="Helvetica,sans-Serif" font-size="11.00">0 &gt;</text>
<polygon fill="none" stroke="black" stroke-width="2" points="208,-60 208,-256 583,-256 583,-60 208,-60"/>
</a>
</g>
</g>
<!-- storage_resources -->
<g id="node2" class="node"><title>storage_resources</title>
<g id="a_node2"><a xlink:href="../../tables/storage_resources.html" xlink:title="storage_resources" target="_top">
<polygon fill="#ffffff" stroke="none" points="8,-37 8,-161 158,-161 158,-37 8,-37"/>
<polygon fill="#f5f5f5" stroke="none" points="8,-139 8,-161 158,-161 158,-139 8,-139"/>
<polygon fill="none" stroke="black" points="8,-139 8,-161 158,-161 158,-139 8,-139"/>
<text text-anchor="start" x="13" y="-148.2" font-family="Helvetica,sans-Serif" font-weight="bold" font-size="11.00">storage_resources</text>
<text text-anchor="start" x="119" y="-147.2" font-family="Helvetica,sans-Serif" font-size="11.00">[table]</text>
<polygon fill="none" stroke="black" points="8,-117 8,-139 158,-139 158,-117 8,-117"/>
<image xlink:href="../../images/primaryKeys.png" width="11px" height="12px" preserveAspectRatio="xMinYMin meet" x="13" y="-134"/>
<text text-anchor="start" x="35" y="-125.2" font-family="Helvetica,sans-Serif" font-size="11.00">id</text>
<polygon fill="#ffffff" stroke="none" points="8,-95 8,-117 158,-117 158,-95 8,-95"/>
<polygon fill="none" stroke="black" points="8,-95 8,-117 158,-117 158,-95 8,-95"/>
<text text-anchor="start" x="35" y="-103.2" font-family="Helvetica,sans-Serif" font-size="11.00">ems_id</text>
<polygon fill="#ffffff" stroke="none" points="8,-73 8,-95 158,-95 158,-73 8,-73"/>
<polygon fill="none" stroke="black" points="8,-73 8,-95 158,-95 158,-73 8,-73"/>
<image xlink:href="../../images/foreignKeys.png" width="11px" height="12px" preserveAspectRatio="xMinYMin meet" x="13" y="-90"/>
<text text-anchor="start" x="35" y="-81.2" font-family="Helvetica,sans-Serif" font-size="11.00">physical_storage_id</text>
<polygon fill="none" stroke="black" points="8,-55 8,-73 158,-73 158,-55 8,-55"/>
<text text-anchor="start" x="11" y="-61.2" font-family="Helvetica,sans-Serif" font-size="11.00">...</text>
<polygon fill="#ffffff" stroke="none" points="8,-37 8,-55 76,-55 76,-37 8,-37"/>
<polygon fill="none" stroke="black" points="8,-37 8,-55 76,-55 76,-37 8,-37"/>
<text text-anchor="start" x="11" y="-43.2" font-family="Helvetica,sans-Serif" font-size="11.00">&lt; 1</text>
<polygon fill="#ffffff" stroke="none" points="76,-37 76,-55 112,-55 112,-37 76,-37"/>
<polygon fill="none" stroke="black" points="76,-37 76,-55 112,-55 112,-37 76,-37"/>
<text text-anchor="start" x="102" y="-43.2" font-family="Helvetica,sans-Serif" font-size="11.00"> &#160;</text>
<polygon fill="#ffffff" stroke="none" points="112,-37 112,-55 158,-55 158,-37 112,-37"/>
<polygon fill="none" stroke="black" points="112,-37 112,-55 158,-55 158,-37 112,-37"/>
<text text-anchor="start" x="138" y="-43.2" font-family="Helvetica,sans-Serif" font-size="11.00">2 &gt;</text>
</a>
</g>
</g>
<!-- storage_service_resource_attachments&#45;&gt;storage_resources -->
<g id="edge1" class="edge"><title>storage_service_resource_attachments:storage_resource_id:w&#45;&gt;storage_resources:id:e</title>
<path fill="none" stroke="black" d="M194.588,-173.023C180.633,-160.376 184.163,-128 159,-128"/>
<polygon fill="black" stroke="black" points="200.968,-175.305 207.287,-181.39 204.734,-176.653 208.5,-178 208.5,-178 208.5,-178 204.734,-176.653 209.713,-174.61 200.968,-175.305 200.968,-175.305"/>
<ellipse fill="none" stroke="black" cx="197.955" cy="-174.227" rx="3.20001" ry="3.20001"/>
</g>
<!-- storage_services -->
<g id="node3" class="node"><title>storage_services</title>
<g id="a_node3"><a xlink:href="../../tables/storage_services.html" xlink:title="storage_services" target="_top">
<polygon fill="#ffffff" stroke="none" points="12.5,-182 12.5,-284 153.5,-284 153.5,-182 12.5,-182"/>
<polygon fill="#f5f5f5" stroke="none" points="13,-262 13,-284 154,-284 154,-262 13,-262"/>
<polygon fill="none" stroke="black" points="13,-262 13,-284 154,-284 154,-262 13,-262"/>
<text text-anchor="start" x="18" y="-271.2" font-family="Helvetica,sans-Serif" font-weight="bold" font-size="11.00">storage_services</text>
<text text-anchor="start" x="115" y="-270.2" font-family="Helvetica,sans-Serif" font-size="11.00">[table]</text>
<polygon fill="none" stroke="black" points="13,-240 13,-262 154,-262 154,-240 13,-240"/>
<image xlink:href="../../images/primaryKeys.png" width="11px" height="12px" preserveAspectRatio="xMinYMin meet" x="18" y="-257"/>
<text text-anchor="start" x="44" y="-248.2" font-family="Helvetica,sans-Serif" font-size="11.00">id</text>
<polygon fill="#ffffff" stroke="none" points="13,-218 13,-240 154,-240 154,-218 13,-218"/>
<polygon fill="none" stroke="black" points="13,-218 13,-240 154,-240 154,-218 13,-218"/>
<text text-anchor="start" x="44" y="-226.2" font-family="Helvetica,sans-Serif" font-size="11.00">ems_id</text>
<polygon fill="none" stroke="black" points="13,-200 13,-218 154,-218 154,-200 13,-200"/>
<text text-anchor="start" x="16" y="-206.2" font-family="Helvetica,sans-Serif" font-size="11.00">...</text>
<polygon fill="#ffffff" stroke="none" points="13,-182 13,-200 72,-200 72,-182 13,-182"/>
<polygon fill="none" stroke="black" points="13,-182 13,-200 72,-200 72,-182 13,-182"/>
<text text-anchor="start" x="16" y="-188.2" font-family="Helvetica,sans-Serif" font-size="11.00"> &#160;</text>
<polygon fill="#ffffff" stroke="none" points="72,-182 72,-200 108,-200 108,-182 72,-182"/>
<polygon fill="none" stroke="black" points="72,-182 72,-200 108,-200 108,-182 72,-182"/>
<text text-anchor="start" x="98" y="-188.2" font-family="Helvetica,sans-Serif" font-size="11.00"> &#160;</text>
<polygon fill="#ffffff" stroke="none" points="108,-182 108,-200 154,-200 154,-182 108,-182"/>
<polygon fill="none" stroke="black" points="108,-182 108,-200 154,-200 154,-182 108,-182"/>
<text text-anchor="start" x="134" y="-188.2" font-family="Helvetica,sans-Serif" font-size="11.00">2 &gt;</text>
</a>
</g>
</g>
<!-- storage_service_resource_attachments&#45;&gt;storage_services -->
<g id="edge2" class="edge"><title>storage_service_resource_attachments:storage_service_id:w&#45;&gt;storage_services:id:e</title>
<path fill="none" stroke="black" d="M194.633,-204.348C178.58,-216.681 181.948,-251 155,-251"/>
<polygon fill="black" stroke="black" points="200.866,-202.394 209.577,-203.435 204.683,-201.197 208.5,-200 208.5,-200 208.5,-200 204.683,-201.197 207.423,-196.565 200.866,-202.394 200.866,-202.394"/>
<ellipse fill="none" stroke="black" cx="197.813" cy="-203.351" rx="3.20001" ry="3.20001"/>
</g>
</g>
</svg>
