<?xml version="1.0" encoding="UTF-8" standalone="no"?>
<!DOCTYPE svg PUBLIC "-//W3C//DTD SVG 1.1//EN"
 "http://www.w3.org/Graphics/SVG/1.1/DTD/svg11.dtd">
<!-- Generated by graphviz version 2.38.0 (20140413.2041)
 -->
<!-- Title: twoDegreesRelationshipsDiagram Pages: 1 -->
<svg width="614pt" height="309pt"
 viewBox="0.00 0.00 614.00 309.00" xmlns="http://www.w3.org/2000/svg" xmlns:xlink="http://www.w3.org/1999/xlink">
<g id="graph0" class="graph" transform="scale(1 1) rotate(0) translate(4 305)">
<title>twoDegreesRelationshipsDiagram</title>
<polygon fill="#ffffff" stroke="none" points="-4,4 -4,-305 610,-305 610,4 -4,4"/>
<text text-anchor="middle" x="74.5" y="-7.2" font-family="Helvetica,sans-Serif" font-size="11.00">Generated by SchemaSpy</text>
<!-- guest_devices -->
<g id="node1" class="node"><title>guest_devices</title>
<g id="a_node1"><a xlink:href="../../tables/guest_devices.html" xlink:title="guest_devices" target="_top">
<polygon fill="#ffffff" stroke="none" points="438,-37 438,-95 565,-95 565,-37 438,-37"/>
<polygon fill="#f5f5f5" stroke="none" points="438.5,-73 438.5,-95 565.5,-95 565.5,-73 438.5,-73"/>
<polygon fill="none" stroke="black" points="438.5,-73 438.5,-95 565.5,-95 565.5,-73 438.5,-73"/>
<text text-anchor="start" x="443.5" y="-82.2" font-family="Helvetica,sans-Serif" font-weight="bold" font-size="11.00">guest_devices</text>
<text text-anchor="start" x="526.5" y="-81.2" font-family="Helvetica,sans-Serif" font-size="11.00">[table]</text>
<polygon fill="none" stroke="black" points="438.5,-55 438.5,-73 565.5,-73 565.5,-55 438.5,-55"/>
<text text-anchor="start" x="441.5" y="-61.2" font-family="Helvetica,sans-Serif" font-size="11.00">...</text>
<polygon fill="#ffffff" stroke="none" points="438.5,-37 438.5,-55 495.5,-55 495.5,-37 438.5,-37"/>
<polygon fill="none" stroke="black" points="438.5,-37 438.5,-55 495.5,-55 495.5,-37 438.5,-37"/>
<text text-anchor="start" x="441.5" y="-43.2" font-family="Helvetica,sans-Serif" font-size="11.00">&lt; 3</text>
<polygon fill="#ffffff" stroke="none" points="495.5,-37 495.5,-55 525.5,-55 525.5,-37 495.5,-37"/>
<polygon fill="none" stroke="black" points="495.5,-37 495.5,-55 525.5,-55 525.5,-37 495.5,-37"/>
<text text-anchor="start" x="515.5" y="-43.2" font-family="Helvetica,sans-Serif" font-size="11.00"> &#160;</text>
<polygon fill="#ffffff" stroke="none" points="525.5,-37 525.5,-55 565.5,-55 565.5,-37 525.5,-37"/>
<polygon fill="none" stroke="black" points="525.5,-37 525.5,-55 565.5,-55 565.5,-37 525.5,-37"/>
<text text-anchor="start" x="545.5" y="-43.2" font-family="Helvetica,sans-Serif" font-size="11.00">3 &gt;</text>
</a>
</g>
</g>
<!-- lans -->
<g id="node2" class="node"><title>lans</title>
<g id="a_node2"><a xlink:href="../../tables/lans.html" xlink:title="lans" target="_top">
<polygon fill="#ffffff" stroke="none" points="155,-83 155,-185 356,-185 356,-83 155,-83"/>
<polygon fill="#f5f5f5" stroke="none" points="155.5,-163 155.5,-185 356.5,-185 356.5,-163 155.5,-163"/>
<polygon fill="none" stroke="black" points="155.5,-163 155.5,-185 356.5,-185 356.5,-163 155.5,-163"/>
<text text-anchor="start" x="160.5" y="-172.2" font-family="Helvetica,sans-Serif" font-weight="bold" font-size="11.00">lans</text>
<text text-anchor="start" x="317.5" y="-171.2" font-family="Helvetica,sans-Serif" font-size="11.00">[table]</text>
<polygon fill="none" stroke="black" points="155.5,-141 155.5,-163 356.5,-163 356.5,-141 155.5,-141"/>
<image xlink:href="../../images/primaryKeys.png" width="11px" height="12px" preserveAspectRatio="xMinYMin meet" x="160.5" y="-158"/>
<text text-anchor="start" x="175.5" y="-149.2" font-family="Helvetica,sans-Serif" font-size="11.00">id</text>
<polygon fill="#ffffff" stroke="none" points="155.5,-119 155.5,-141 356.5,-141 356.5,-119 155.5,-119"/>
<polygon fill="none" stroke="black" points="155.5,-119 155.5,-141 356.5,-141 356.5,-119 155.5,-119"/>
<image xlink:href="../../images/foreignKeys.png" width="11px" height="12px" preserveAspectRatio="xMinYMin meet" x="160.5" y="-136"/>
<text text-anchor="start" x="175.5" y="-127.2" font-family="Helvetica,sans-Serif" font-size="11.00">switch_id</text>
<polygon fill="none" stroke="black" points="155.5,-101 155.5,-119 356.5,-119 356.5,-101 155.5,-101"/>
<text text-anchor="start" x="158.5" y="-107.2" font-family="Helvetica,sans-Serif" font-size="11.00">...</text>
<polygon fill="#ffffff" stroke="none" points="155.5,-83 155.5,-101 249.5,-101 249.5,-83 155.5,-83"/>
<polygon fill="none" stroke="black" points="155.5,-83 155.5,-101 249.5,-101 249.5,-83 155.5,-83"/>
<text text-anchor="start" x="158.5" y="-89.2" font-family="Helvetica,sans-Serif" font-size="11.00">&lt; 1</text>
<polygon fill="#ffffff" stroke="none" points="249.5,-83 249.5,-101 297.5,-101 297.5,-83 249.5,-83"/>
<polygon fill="none" stroke="black" points="249.5,-83 249.5,-101 297.5,-101 297.5,-83 249.5,-83"/>
<text text-anchor="start" x="287.5" y="-89.2" font-family="Helvetica,sans-Serif" font-size="11.00"> &#160;</text>
<polygon fill="#ffffff" stroke="none" points="297.5,-83 297.5,-101 356.5,-101 356.5,-83 297.5,-83"/>
<polygon fill="none" stroke="black" points="297.5,-83 297.5,-101 356.5,-101 356.5,-83 297.5,-83"/>
<text text-anchor="start" x="336.5" y="-89.2" font-family="Helvetica,sans-Serif" font-size="11.00">2 &gt;</text>
</a>
</g>
</g>
<!-- guest_devices&#45;&gt;lans -->
<g id="edge1" class="edge"><title>guest_devices:elipses:w&#45;&gt;lans:id:e</title>
<path fill="none" stroke="black" d="M423.213,-66.7302C389.193,-81.5836 404.782,-152 357.5,-152"/>
<polygon fill="black" stroke="black" points="429.642,-65.5017 438.176,-67.536 433.571,-64.7508 437.5,-64 437.5,-64 437.5,-64 433.571,-64.7508 436.824,-60.464 429.642,-65.5017 429.642,-65.5017"/>
<ellipse fill="none" stroke="black" cx="426.499" cy="-66.1023" rx="3.2" ry="3.2"/>
</g>
<!-- switches -->
<g id="node3" class="node"><title>switches</title>
<g id="a_node3"><a xlink:href="../../tables/switches.html" xlink:title="switches" target="_top">
<polygon fill="#ffffff" stroke="none" points="8,-67 8,-125 106,-125 106,-67 8,-67"/>
<polygon fill="#f5f5f5" stroke="none" points="8,-103 8,-125 106,-125 106,-103 8,-103"/>
<polygon fill="none" stroke="black" points="8,-103 8,-125 106,-125 106,-103 8,-103"/>
<text text-anchor="start" x="13" y="-112.2" font-family="Helvetica,sans-Serif" font-weight="bold" font-size="11.00">switches</text>
<text text-anchor="start" x="67" y="-111.2" font-family="Helvetica,sans-Serif" font-size="11.00">[table]</text>
<polygon fill="none" stroke="black" points="8,-85 8,-103 106,-103 106,-85 8,-85"/>
<text text-anchor="start" x="11" y="-91.2" font-family="Helvetica,sans-Serif" font-size="11.00">...</text>
<polygon fill="#ffffff" stroke="none" points="8,-67 8,-85 50,-85 50,-67 8,-67"/>
<polygon fill="none" stroke="black" points="8,-67 8,-85 50,-85 50,-67 8,-67"/>
<text text-anchor="start" x="11" y="-73.2" font-family="Helvetica,sans-Serif" font-size="11.00">&lt; 1</text>
<polygon fill="#ffffff" stroke="none" points="50,-67 50,-85 73,-85 73,-67 50,-67"/>
<polygon fill="none" stroke="black" points="50,-67 50,-85 73,-85 73,-67 50,-67"/>
<text text-anchor="start" x="63" y="-73.2" font-family="Helvetica,sans-Serif" font-size="11.00"> &#160;</text>
<polygon fill="#ffffff" stroke="none" points="73,-67 73,-85 106,-85 106,-67 73,-67"/>
<polygon fill="none" stroke="black" points="73,-67 73,-85 106,-85 106,-67 73,-67"/>
<text text-anchor="start" x="86" y="-73.2" font-family="Helvetica,sans-Serif" font-size="11.00">5 &gt;</text>
</a>
</g>
</g>
<!-- guest_devices&#45;&gt;switches -->
<g id="edge2" class="edge"><title>guest_devices:elipses:w&#45;&gt;switches:elipses:e</title>
<path fill="none" stroke="black" d="M422.776,-63.8956C305.348,-62.2225 267.044,-41.4242 147,-73 127.582,-78.1077 127.079,-94 107,-94"/>
<polygon fill="black" stroke="black" points="429.5,-63.9432 437.474,-67.5999 433.5,-63.9716 437.5,-64 437.5,-64 437.5,-64 433.5,-63.9716 437.526,-60.4001 429.5,-63.9432 429.5,-63.9432"/>
<ellipse fill="none" stroke="black" cx="426.3" cy="-63.9205" rx="3.2" ry="3.2"/>
</g>
<!-- lans&#45;&gt;switches -->
<g id="edge3" class="edge"><title>lans:switch_id:w&#45;&gt;switches:elipses:e</title>
<path fill="none" stroke="black" d="M140.675,-125.294C128.852,-115.535 127.488,-94 107,-94"/>
<polygon fill="black" stroke="black" points="146.927,-127.422 153.34,-133.408 150.713,-128.711 154.5,-130 154.5,-130 154.5,-130 150.713,-128.711 155.66,-126.592 146.927,-127.422 146.927,-127.422"/>
<ellipse fill="none" stroke="black" cx="143.897" cy="-126.391" rx="3.20001" ry="3.20001"/>
</g>
<!-- subnets -->
<g id="node4" class="node"><title>subnets</title>
<g id="a_node4"><a xlink:href="../../tables/subnets.html" xlink:title="subnets" target="_top">
<polygon fill="#ffffff" stroke="none" points="405,-121 405,-297 598,-297 598,-121 405,-121"/>
<polygon fill="#f5f5f5" stroke="none" points="407.5,-273 407.5,-295 596.5,-295 596.5,-273 407.5,-273"/>
<polygon fill="none" stroke="black" points="407.5,-273 407.5,-295 596.5,-295 596.5,-273 407.5,-273"/>
<text text-anchor="start" x="412.5" y="-282.2" font-family="Helvetica,sans-Serif" font-weight="bold" font-size="11.00">subnets</text>
<text text-anchor="start" x="557.5" y="-281.2" font-family="Helvetica,sans-Serif" font-size="11.00">[table]</text>
<polygon fill="none" stroke="black" points="407.5,-251 407.5,-273 475.5,-273 475.5,-251 407.5,-251"/>
<image xlink:href="../../images/primaryKeys.png" width="11px" height="12px" preserveAspectRatio="xMinYMin meet" x="412.5" y="-268"/>
<text text-anchor="start" x="427.5" y="-259.2" font-family="Helvetica,sans-Serif" font-size="11.00">id</text>
<polygon fill="none" stroke="black" points="475.5,-251 475.5,-273 596.5,-273 596.5,-251 475.5,-251"/>
<text text-anchor="start" x="478.5" y="-259.2" font-family="Helvetica,sans-Serif" font-size="11.00">bigserial[19]</text>
<polygon fill="none" stroke="black" points="407.5,-229 407.5,-251 475.5,-251 475.5,-229 407.5,-229"/>
<text text-anchor="start" x="427.5" y="-237.2" font-family="Helvetica,sans-Serif" font-size="11.00">ems_ref</text>
<polygon fill="none" stroke="black" points="475.5,-229 475.5,-251 596.5,-251 596.5,-229 475.5,-229"/>
<text text-anchor="start" x="478.5" y="-237.2" font-family="Helvetica,sans-Serif" font-size="11.00">varchar[2147483647]</text>
<polygon fill="none" stroke="black" points="407.5,-207 407.5,-229 475.5,-229 475.5,-207 407.5,-207"/>
<text text-anchor="start" x="427.5" y="-215.2" font-family="Helvetica,sans-Serif" font-size="11.00">name</text>
<polygon fill="none" stroke="black" points="475.5,-207 475.5,-229 596.5,-229 596.5,-207 475.5,-207"/>
<text text-anchor="start" x="478.5" y="-215.2" font-family="Helvetica,sans-Serif" font-size="11.00">varchar[2147483647]</text>
<polygon fill="none" stroke="black" points="407.5,-185 407.5,-207 475.5,-207 475.5,-185 407.5,-185"/>
<text text-anchor="start" x="427.5" y="-193.2" font-family="Helvetica,sans-Serif" font-size="11.00">cidr</text>
<polygon fill="none" stroke="black" points="475.5,-185 475.5,-207 596.5,-207 596.5,-185 475.5,-185"/>
<text text-anchor="start" x="478.5" y="-193.2" font-family="Helvetica,sans-Serif" font-size="11.00">varchar[2147483647]</text>
<polygon fill="none" stroke="black" points="407.5,-163 407.5,-185 475.5,-185 475.5,-163 407.5,-163"/>
<text text-anchor="start" x="427.5" y="-171.2" font-family="Helvetica,sans-Serif" font-size="11.00">type</text>
<polygon fill="none" stroke="black" points="475.5,-163 475.5,-185 596.5,-185 596.5,-163 475.5,-163"/>
<text text-anchor="start" x="478.5" y="-171.2" font-family="Helvetica,sans-Serif" font-size="11.00">varchar[2147483647]</text>
<polygon fill="none" stroke="black" points="407.5,-141 407.5,-163 475.5,-163 475.5,-141 407.5,-141"/>
<image xlink:href="../../images/foreignKeys.png" width="11px" height="12px" preserveAspectRatio="xMinYMin meet" x="412.5" y="-158"/>
<text text-anchor="start" x="427.5" y="-149.2" font-family="Helvetica,sans-Serif" font-size="11.00">lan_id</text>
<polygon fill="none" stroke="black" points="475.5,-141 475.5,-163 596.5,-163 596.5,-141 475.5,-141"/>
<text text-anchor="start" x="478.5" y="-149.2" font-family="Helvetica,sans-Serif" font-size="11.00">int8[19]</text>
<polygon fill="#ffffff" stroke="none" points="407.5,-123 407.5,-141 446.5,-141 446.5,-123 407.5,-123"/>
<polygon fill="none" stroke="black" points="407.5,-123 407.5,-141 446.5,-141 446.5,-123 407.5,-123"/>
<text text-anchor="start" x="410.5" y="-129.2" font-family="Helvetica,sans-Serif" font-size="11.00">&lt; 1</text>
<polygon fill="#ffffff" stroke="none" points="446.5,-123 446.5,-141 475.5,-141 475.5,-123 446.5,-123"/>
<polygon fill="none" stroke="black" points="446.5,-123 446.5,-141 475.5,-141 475.5,-123 446.5,-123"/>
<text text-anchor="start" x="465.5" y="-129.2" font-family="Helvetica,sans-Serif" font-size="11.00"> &#160;</text>
<polygon fill="#ffffff" stroke="none" points="475.5,-123 475.5,-141 596.5,-141 596.5,-123 475.5,-123"/>
<polygon fill="none" stroke="black" points="475.5,-123 475.5,-141 596.5,-141 596.5,-123 475.5,-123"/>
<text text-anchor="start" x="576.5" y="-129.2" font-family="Helvetica,sans-Serif" font-size="11.00">0 &gt;</text>
<polygon fill="none" stroke="black" stroke-width="2" points="406,-122 406,-296 597,-296 597,-122 406,-122"/>
</a>
</g>
</g>
<!-- subnets&#45;&gt;lans -->
<g id="edge4" class="edge"><title>subnets:lan_id:w&#45;&gt;lans:id:e</title>
<path fill="none" stroke="black" d="M391.991,-152C380.677,-152 373.493,-152 357.5,-152"/>
<polygon fill="black" stroke="black" points="398.5,-152 406.5,-155.6 402.5,-152 406.5,-152 406.5,-152 406.5,-152 402.5,-152 406.5,-148.4 398.5,-152 398.5,-152"/>
<ellipse fill="none" stroke="black" cx="395.3" cy="-152" rx="3.2" ry="3.2"/>
</g>
</g>
</svg>
