<?xml version="1.0" encoding="UTF-8" standalone="no"?>
<!DOCTYPE svg PUBLIC "-//W3C//DTD SVG 1.1//EN"
 "http://www.w3.org/Graphics/SVG/1.1/DTD/svg11.dtd">
<!-- Generated by graphviz version 2.38.0 (20140413.2041)
 -->
<!-- Title: oneDegreeRelationshipsDiagram Pages: 1 -->
<svg width="467pt" height="263pt"
 viewBox="0.00 0.00 467.00 263.00" xmlns="http://www.w3.org/2000/svg" xmlns:xlink="http://www.w3.org/1999/xlink">
<g id="graph0" class="graph" transform="scale(1 1) rotate(0) translate(4 259)">
<title>oneDegreeRelationshipsDiagram</title>
<polygon fill="#ffffff" stroke="none" points="-4,4 -4,-259 463,-259 463,4 -4,4"/>
<text text-anchor="middle" x="74.5" y="-7.2" font-family="Helvetica,sans-Serif" font-size="11.00">Generated by SchemaSpy</text>
<!-- subnets -->
<g id="node1" class="node"><title>subnets</title>
<g id="a_node1"><a xlink:href="../../tables/subnets.html" xlink:title="subnets" target="_top">
<polygon fill="#ffffff" stroke="none" points="258,-75 258,-251 451,-251 451,-75 258,-75"/>
<polygon fill="#f5f5f5" stroke="none" points="260.5,-227 260.5,-249 449.5,-249 449.5,-227 260.5,-227"/>
<polygon fill="none" stroke="black" points="260.5,-227 260.5,-249 449.5,-249 449.5,-227 260.5,-227"/>
<text text-anchor="start" x="265.5" y="-236.2" font-family="Helvetica,sans-Serif" font-weight="bold" font-size="11.00">subnets</text>
<text text-anchor="start" x="410.5" y="-235.2" font-family="Helvetica,sans-Serif" font-size="11.00">[table]</text>
<polygon fill="none" stroke="black" points="260.5,-205 260.5,-227 328.5,-227 328.5,-205 260.5,-205"/>
<image xlink:href="../../images/primaryKeys.png" width="11px" height="12px" preserveAspectRatio="xMinYMin meet" x="265.5" y="-222"/>
<text text-anchor="start" x="280.5" y="-213.2" font-family="Helvetica,sans-Serif" font-size="11.00">id</text>
<polygon fill="none" stroke="black" points="328.5,-205 328.5,-227 449.5,-227 449.5,-205 328.5,-205"/>
<text text-anchor="start" x="331.5" y="-213.2" font-family="Helvetica,sans-Serif" font-size="11.00">bigserial[19]</text>
<polygon fill="none" stroke="black" points="260.5,-183 260.5,-205 328.5,-205 328.5,-183 260.5,-183"/>
<text text-anchor="start" x="280.5" y="-191.2" font-family="Helvetica,sans-Serif" font-size="11.00">ems_ref</text>
<polygon fill="none" stroke="black" points="328.5,-183 328.5,-205 449.5,-205 449.5,-183 328.5,-183"/>
<text text-anchor="start" x="331.5" y="-191.2" font-family="Helvetica,sans-Serif" font-size="11.00">varchar[2147483647]</text>
<polygon fill="none" stroke="black" points="260.5,-161 260.5,-183 328.5,-183 328.5,-161 260.5,-161"/>
<text text-anchor="start" x="280.5" y="-169.2" font-family="Helvetica,sans-Serif" font-size="11.00">name</text>
<polygon fill="none" stroke="black" points="328.5,-161 328.5,-183 449.5,-183 449.5,-161 328.5,-161"/>
<text text-anchor="start" x="331.5" y="-169.2" font-family="Helvetica,sans-Serif" font-size="11.00">varchar[2147483647]</text>
<polygon fill="none" stroke="black" points="260.5,-139 260.5,-161 328.5,-161 328.5,-139 260.5,-139"/>
<text text-anchor="start" x="280.5" y="-147.2" font-family="Helvetica,sans-Serif" font-size="11.00">cidr</text>
<polygon fill="none" stroke="black" points="328.5,-139 328.5,-161 449.5,-161 449.5,-139 328.5,-139"/>
<text text-anchor="start" x="331.5" y="-147.2" font-family="Helvetica,sans-Serif" font-size="11.00">varchar[2147483647]</text>
<polygon fill="none" stroke="black" points="260.5,-117 260.5,-139 328.5,-139 328.5,-117 260.5,-117"/>
<text text-anchor="start" x="280.5" y="-125.2" font-family="Helvetica,sans-Serif" font-size="11.00">type</text>
<polygon fill="none" stroke="black" points="328.5,-117 328.5,-139 449.5,-139 449.5,-117 328.5,-117"/>
<text text-anchor="start" x="331.5" y="-125.2" font-family="Helvetica,sans-Serif" font-size="11.00">varchar[2147483647]</text>
<polygon fill="none" stroke="black" points="260.5,-95 260.5,-117 328.5,-117 328.5,-95 260.5,-95"/>
<image xlink:href="../../images/foreignKeys.png" width="11px" height="12px" preserveAspectRatio="xMinYMin meet" x="265.5" y="-112"/>
<text text-anchor="start" x="280.5" y="-103.2" font-family="Helvetica,sans-Serif" font-size="11.00">lan_id</text>
<polygon fill="none" stroke="black" points="328.5,-95 328.5,-117 449.5,-117 449.5,-95 328.5,-95"/>
<text text-anchor="start" x="331.5" y="-103.2" font-family="Helvetica,sans-Serif" font-size="11.00">int8[19]</text>
<polygon fill="#ffffff" stroke="none" points="260.5,-77 260.5,-95 299.5,-95 299.5,-77 260.5,-77"/>
<polygon fill="none" stroke="black" points="260.5,-77 260.5,-95 299.5,-95 299.5,-77 260.5,-77"/>
<text text-anchor="start" x="263.5" y="-83.2" font-family="Helvetica,sans-Serif" font-size="11.00">&lt; 1</text>
<polygon fill="#ffffff" stroke="none" points="299.5,-77 299.5,-95 328.5,-95 328.5,-77 299.5,-77"/>
<polygon fill="none" stroke="black" points="299.5,-77 299.5,-95 328.5,-95 328.5,-77 299.5,-77"/>
<text text-anchor="start" x="318.5" y="-83.2" font-family="Helvetica,sans-Serif" font-size="11.00"> &#160;</text>
<polygon fill="#ffffff" stroke="none" points="328.5,-77 328.5,-95 449.5,-95 449.5,-77 328.5,-77"/>
<polygon fill="none" stroke="black" points="328.5,-77 328.5,-95 449.5,-95 449.5,-77 328.5,-77"/>
<text text-anchor="start" x="429.5" y="-83.2" font-family="Helvetica,sans-Serif" font-size="11.00">0 &gt;</text>
<polygon fill="none" stroke="black" stroke-width="2" points="259,-76 259,-250 450,-250 450,-76 259,-76"/>
</a>
</g>
</g>
<!-- lans -->
<g id="node2" class="node"><title>lans</title>
<g id="a_node2"><a xlink:href="../../tables/lans.html" xlink:title="lans" target="_top">
<polygon fill="#ffffff" stroke="none" points="8,-37 8,-139 209,-139 209,-37 8,-37"/>
<polygon fill="#f5f5f5" stroke="none" points="8.5,-117 8.5,-139 209.5,-139 209.5,-117 8.5,-117"/>
<polygon fill="none" stroke="black" points="8.5,-117 8.5,-139 209.5,-139 209.5,-117 8.5,-117"/>
<text text-anchor="start" x="13.5" y="-126.2" font-family="Helvetica,sans-Serif" font-weight="bold" font-size="11.00">lans</text>
<text text-anchor="start" x="170.5" y="-125.2" font-family="Helvetica,sans-Serif" font-size="11.00">[table]</text>
<polygon fill="none" stroke="black" points="8.5,-95 8.5,-117 209.5,-117 209.5,-95 8.5,-95"/>
<image xlink:href="../../images/primaryKeys.png" width="11px" height="12px" preserveAspectRatio="xMinYMin meet" x="13.5" y="-112"/>
<text text-anchor="start" x="28.5" y="-103.2" font-family="Helvetica,sans-Serif" font-size="11.00">id</text>
<polygon fill="#ffffff" stroke="none" points="8.5,-73 8.5,-95 209.5,-95 209.5,-73 8.5,-73"/>
<polygon fill="none" stroke="black" points="8.5,-73 8.5,-95 209.5,-95 209.5,-73 8.5,-73"/>
<image xlink:href="../../images/foreignKeys.png" width="11px" height="12px" preserveAspectRatio="xMinYMin meet" x="13.5" y="-90"/>
<text text-anchor="start" x="28.5" y="-81.2" font-family="Helvetica,sans-Serif" font-size="11.00">switch_id</text>
<polygon fill="none" stroke="black" points="8.5,-55 8.5,-73 209.5,-73 209.5,-55 8.5,-55"/>
<text text-anchor="start" x="11.5" y="-61.2" font-family="Helvetica,sans-Serif" font-size="11.00">...</text>
<polygon fill="#ffffff" stroke="none" points="8.5,-37 8.5,-55 102.5,-55 102.5,-37 8.5,-37"/>
<polygon fill="none" stroke="black" points="8.5,-37 8.5,-55 102.5,-55 102.5,-37 8.5,-37"/>
<text text-anchor="start" x="11.5" y="-43.2" font-family="Helvetica,sans-Serif" font-size="11.00">&lt; 1</text>
<polygon fill="#ffffff" stroke="none" points="102.5,-37 102.5,-55 150.5,-55 150.5,-37 102.5,-37"/>
<polygon fill="none" stroke="black" points="102.5,-37 102.5,-55 150.5,-55 150.5,-37 102.5,-37"/>
<text text-anchor="start" x="140.5" y="-43.2" font-family="Helvetica,sans-Serif" font-size="11.00"> &#160;</text>
<polygon fill="#ffffff" stroke="none" points="150.5,-37 150.5,-55 209.5,-55 209.5,-37 150.5,-37"/>
<polygon fill="none" stroke="black" points="150.5,-37 150.5,-55 209.5,-55 209.5,-37 150.5,-37"/>
<text text-anchor="start" x="189.5" y="-43.2" font-family="Helvetica,sans-Serif" font-size="11.00">2 &gt;</text>
</a>
</g>
</g>
<!-- subnets&#45;&gt;lans -->
<g id="edge1" class="edge"><title>subnets:lan_id:w&#45;&gt;lans:id:e</title>
<path fill="none" stroke="black" d="M244.991,-106C233.677,-106 226.493,-106 210.5,-106"/>
<polygon fill="black" stroke="black" points="251.5,-106 259.5,-109.6 255.5,-106 259.5,-106 259.5,-106 259.5,-106 255.5,-106 259.5,-102.4 251.5,-106 251.5,-106"/>
<ellipse fill="none" stroke="black" cx="248.3" cy="-106" rx="3.2" ry="3.2"/>
</g>
</g>
</svg>
