<?xml version="1.0" encoding="UTF-8" standalone="no"?>
<!DOCTYPE svg PUBLIC "-//W3C//DTD SVG 1.1//EN"
 "http://www.w3.org/Graphics/SVG/1.1/DTD/svg11.dtd">
<!-- Generated by graphviz version 2.38.0 (20140413.2041)
 -->
<!-- Title: oneDegreeRelationshipsDiagram Pages: 1 -->
<svg width="956pt" height="697pt"
 viewBox="0.00 0.00 956.00 697.00" xmlns="http://www.w3.org/2000/svg" xmlns:xlink="http://www.w3.org/1999/xlink">
<g id="graph0" class="graph" transform="scale(1 1) rotate(0) translate(4 693)">
<title>oneDegreeRelationshipsDiagram</title>
<polygon fill="#ffffff" stroke="none" points="-4,4 -4,-693 952,-693 952,4 -4,4"/>
<text text-anchor="middle" x="74.5" y="-7.2" font-family="Helvetica,sans-Serif" font-size="11.00">Generated by SchemaSpy</text>
<!-- cloud_services -->
<g id="node1" class="node"><title>cloud_services</title>
<g id="a_node1"><a xlink:href="../../tables/cloud_services.html" xlink:title="cloud_services" target="_top">
<polygon fill="#ffffff" stroke="none" points="754,-517 754,-685 940,-685 940,-517 754,-517"/>
<polygon fill="#f5f5f5" stroke="none" points="754,-663 754,-685 940,-685 940,-663 754,-663"/>
<polygon fill="none" stroke="black" points="754,-663 754,-685 940,-685 940,-663 754,-663"/>
<text text-anchor="start" x="759" y="-672.2" font-family="Helvetica,sans-Serif" font-weight="bold" font-size="11.00">cloud_services</text>
<text text-anchor="start" x="901" y="-671.2" font-family="Helvetica,sans-Serif" font-size="11.00">[table]</text>
<polygon fill="none" stroke="black" points="754,-641 754,-663 940,-663 940,-641 754,-641"/>
<image xlink:href="../../images/primaryKeys.png" width="11px" height="12px" preserveAspectRatio="xMinYMin meet" x="759" y="-658"/>
<text text-anchor="start" x="774" y="-649.2" font-family="Helvetica,sans-Serif" font-size="11.00">id</text>
<polygon fill="#ffffff" stroke="none" points="754,-619 754,-641 940,-641 940,-619 754,-619"/>
<polygon fill="none" stroke="black" points="754,-619 754,-641 940,-641 940,-619 754,-619"/>
<text text-anchor="start" x="774" y="-627.2" font-family="Helvetica,sans-Serif" font-size="11.00">ems_id</text>
<polygon fill="#ffffff" stroke="none" points="754,-597 754,-619 940,-619 940,-597 754,-597"/>
<polygon fill="none" stroke="black" points="754,-597 754,-619 940,-619 940,-597 754,-597"/>
<image xlink:href="../../images/foreignKeys.png" width="11px" height="12px" preserveAspectRatio="xMinYMin meet" x="759" y="-614"/>
<text text-anchor="start" x="774" y="-605.2" font-family="Helvetica,sans-Serif" font-size="11.00">host_id</text>
<polygon fill="#ffffff" stroke="none" points="754,-575 754,-597 940,-597 940,-575 754,-575"/>
<polygon fill="none" stroke="black" points="754,-575 754,-597 940,-597 940,-575 754,-575"/>
<image xlink:href="../../images/foreignKeys.png" width="11px" height="12px" preserveAspectRatio="xMinYMin meet" x="759" y="-592"/>
<text text-anchor="start" x="774" y="-583.2" font-family="Helvetica,sans-Serif" font-size="11.00">system_service_id</text>
<polygon fill="#ffffff" stroke="none" points="754,-553 754,-575 940,-575 940,-553 754,-553"/>
<polygon fill="none" stroke="black" points="754,-553 754,-575 940,-575 940,-553 754,-553"/>
<image xlink:href="../../images/foreignKeys.png" width="11px" height="12px" preserveAspectRatio="xMinYMin meet" x="759" y="-570"/>
<text text-anchor="start" x="774" y="-561.2" font-family="Helvetica,sans-Serif" font-size="11.00">availability_zone_id</text>
<polygon fill="none" stroke="black" points="754,-535 754,-553 940,-553 940,-535 754,-535"/>
<text text-anchor="start" x="757" y="-541.2" font-family="Helvetica,sans-Serif" font-size="11.00">...</text>
<polygon fill="#ffffff" stroke="none" points="754,-517 754,-535 845,-535 845,-517 754,-517"/>
<polygon fill="none" stroke="black" points="754,-517 754,-535 845,-535 845,-517 754,-517"/>
<text text-anchor="start" x="757" y="-523.2" font-family="Helvetica,sans-Serif" font-size="11.00">&lt; 3</text>
<polygon fill="#ffffff" stroke="none" points="845,-517 845,-535 892,-535 892,-517 845,-517"/>
<polygon fill="none" stroke="black" points="845,-517 845,-535 892,-535 892,-517 845,-517"/>
<text text-anchor="start" x="882" y="-523.2" font-family="Helvetica,sans-Serif" font-size="11.00"> &#160;</text>
<polygon fill="#ffffff" stroke="none" points="892,-517 892,-535 940,-535 940,-517 892,-517"/>
<polygon fill="none" stroke="black" points="892,-517 892,-535 940,-535 940,-517 892,-517"/>
<text text-anchor="start" x="930" y="-523.2" font-family="Helvetica,sans-Serif" font-size="11.00"> &#160;</text>
</a>
</g>
</g>
<!-- hosts -->
<g id="node2" class="node"><title>hosts</title>
<g id="a_node2"><a xlink:href="../../tables/hosts.html" xlink:title="hosts" target="_top">
<polygon fill="#ffffff" stroke="none" points="8,-37 8,-293 171,-293 171,-37 8,-37"/>
<polygon fill="#f5f5f5" stroke="none" points="8.5,-271 8.5,-293 171.5,-293 171.5,-271 8.5,-271"/>
<polygon fill="none" stroke="black" points="8.5,-271 8.5,-293 171.5,-293 171.5,-271 8.5,-271"/>
<text text-anchor="start" x="13.5" y="-280.2" font-family="Helvetica,sans-Serif" font-weight="bold" font-size="11.00">hosts</text>
<text text-anchor="start" x="132.5" y="-279.2" font-family="Helvetica,sans-Serif" font-size="11.00">[table]</text>
<polygon fill="none" stroke="black" points="8.5,-249 8.5,-271 171.5,-271 171.5,-249 8.5,-249"/>
<image xlink:href="../../images/primaryKeys.png" width="11px" height="12px" preserveAspectRatio="xMinYMin meet" x="13.5" y="-266"/>
<text text-anchor="start" x="28.5" y="-257.2" font-family="Helvetica,sans-Serif" font-size="11.00">id</text>
<polygon fill="#ffffff" stroke="none" points="8.5,-227 8.5,-249 171.5,-249 171.5,-227 8.5,-227"/>
<polygon fill="none" stroke="black" points="8.5,-227 8.5,-249 171.5,-249 171.5,-227 8.5,-227"/>
<text text-anchor="start" x="28.5" y="-235.2" font-family="Helvetica,sans-Serif" font-size="11.00">hostname</text>
<polygon fill="#ffffff" stroke="none" points="8.5,-205 8.5,-227 171.5,-227 171.5,-205 8.5,-205"/>
<polygon fill="none" stroke="black" points="8.5,-205 8.5,-227 171.5,-227 171.5,-205 8.5,-205"/>
<text text-anchor="start" x="28.5" y="-213.2" font-family="Helvetica,sans-Serif" font-size="11.00">ipaddress</text>
<polygon fill="#ffffff" stroke="none" points="8.5,-183 8.5,-205 171.5,-205 171.5,-183 8.5,-183"/>
<polygon fill="none" stroke="black" points="8.5,-183 8.5,-205 171.5,-205 171.5,-183 8.5,-183"/>
<text text-anchor="start" x="28.5" y="-191.2" font-family="Helvetica,sans-Serif" font-size="11.00">guid</text>
<polygon fill="#ffffff" stroke="none" points="8.5,-161 8.5,-183 171.5,-183 171.5,-161 8.5,-161"/>
<polygon fill="none" stroke="black" points="8.5,-161 8.5,-183 171.5,-183 171.5,-161 8.5,-161"/>
<text text-anchor="start" x="28.5" y="-169.2" font-family="Helvetica,sans-Serif" font-size="11.00">ems_id</text>
<polygon fill="#ffffff" stroke="none" points="8.5,-139 8.5,-161 171.5,-161 171.5,-139 8.5,-139"/>
<polygon fill="none" stroke="black" points="8.5,-139 8.5,-161 171.5,-161 171.5,-139 8.5,-139"/>
<text text-anchor="start" x="28.5" y="-147.2" font-family="Helvetica,sans-Serif" font-size="11.00">type</text>
<polygon fill="none" stroke="black" points="8.5,-117 8.5,-139 171.5,-139 171.5,-117 8.5,-117"/>
<image xlink:href="../../images/foreignKeys.png" width="11px" height="12px" preserveAspectRatio="xMinYMin meet" x="13.5" y="-134"/>
<text text-anchor="start" x="28.5" y="-125.2" font-family="Helvetica,sans-Serif" font-size="11.00">ems_cluster_id</text>
<polygon fill="#ffffff" stroke="none" points="8.5,-95 8.5,-117 171.5,-117 171.5,-95 8.5,-95"/>
<polygon fill="none" stroke="black" points="8.5,-95 8.5,-117 171.5,-117 171.5,-95 8.5,-95"/>
<image xlink:href="../../images/foreignKeys.png" width="11px" height="12px" preserveAspectRatio="xMinYMin meet" x="13.5" y="-112"/>
<text text-anchor="start" x="28.5" y="-103.2" font-family="Helvetica,sans-Serif" font-size="11.00">availability_zone_id</text>
<polygon fill="none" stroke="black" points="8.5,-73 8.5,-95 171.5,-95 171.5,-73 8.5,-73"/>
<image xlink:href="../../images/foreignKeys.png" width="11px" height="12px" preserveAspectRatio="xMinYMin meet" x="13.5" y="-90"/>
<text text-anchor="start" x="28.5" y="-81.2" font-family="Helvetica,sans-Serif" font-size="11.00">physical_server_id</text>
<polygon fill="none" stroke="black" points="8.5,-55 8.5,-73 171.5,-73 171.5,-55 8.5,-55"/>
<text text-anchor="start" x="11.5" y="-61.2" font-family="Helvetica,sans-Serif" font-size="11.00">...</text>
<polygon fill="#ffffff" stroke="none" points="8.5,-37 8.5,-55 79.5,-55 79.5,-37 8.5,-37"/>
<polygon fill="none" stroke="black" points="8.5,-37 8.5,-55 79.5,-55 79.5,-37 8.5,-37"/>
<text text-anchor="start" x="11.5" y="-43.2" font-family="Helvetica,sans-Serif" font-size="11.00">&lt; 3</text>
<polygon fill="#ffffff" stroke="none" points="79.5,-37 79.5,-55 116.5,-55 116.5,-37 79.5,-37"/>
<polygon fill="none" stroke="black" points="79.5,-37 79.5,-55 116.5,-55 116.5,-37 79.5,-37"/>
<text text-anchor="start" x="106.5" y="-43.2" font-family="Helvetica,sans-Serif" font-size="11.00"> &#160;</text>
<polygon fill="#ffffff" stroke="none" points="116.5,-37 116.5,-55 171.5,-55 171.5,-37 116.5,-37"/>
<polygon fill="none" stroke="black" points="116.5,-37 116.5,-55 171.5,-55 171.5,-37 116.5,-37"/>
<text text-anchor="start" x="144.5" y="-43.2" font-family="Helvetica,sans-Serif" font-size="11.00">15 &gt;</text>
</a>
</g>
</g>
<!-- cloud_services&#45;&gt;hosts -->
<g id="edge1" class="edge"><title>cloud_services:host_id:w&#45;&gt;hosts:id:e</title>
<path fill="none" stroke="black" d="M738.532,-609.276C730.71,-610.758 724.905,-613.112 713,-614 584.025,-623.619 536.812,-673.543 422,-614 336.564,-569.692 268.742,-260 172.5,-260"/>
<polygon fill="black" stroke="black" points="745.031,-608.703 753.316,-611.586 749.015,-608.351 753,-608 753,-608 753,-608 749.015,-608.351 752.684,-604.414 745.031,-608.703 745.031,-608.703"/>
<ellipse fill="none" stroke="black" cx="741.843" cy="-608.984" rx="3.2" ry="3.2"/>
</g>
<!-- system_services -->
<g id="node3" class="node"><title>system_services</title>
<g id="a_node3"><a xlink:href="../../tables/system_services.html" xlink:title="system_services" target="_top">
<polygon fill="#ffffff" stroke="none" points="430,-97 430,-603 705,-603 705,-97 430,-97"/>
<polygon fill="#f5f5f5" stroke="none" points="432.5,-579 432.5,-601 703.5,-601 703.5,-579 432.5,-579"/>
<polygon fill="none" stroke="black" points="432.5,-579 432.5,-601 703.5,-601 703.5,-579 432.5,-579"/>
<text text-anchor="start" x="437.5" y="-588.2" font-family="Helvetica,sans-Serif" font-weight="bold" font-size="11.00">system_services</text>
<text text-anchor="start" x="664.5" y="-587.2" font-family="Helvetica,sans-Serif" font-size="11.00">[table]</text>
<polygon fill="none" stroke="black" points="432.5,-557 432.5,-579 582.5,-579 582.5,-557 432.5,-557"/>
<image xlink:href="../../images/primaryKeys.png" width="11px" height="12px" preserveAspectRatio="xMinYMin meet" x="437.5" y="-574"/>
<text text-anchor="start" x="452.5" y="-565.2" font-family="Helvetica,sans-Serif" font-size="11.00">id</text>
<polygon fill="none" stroke="black" points="582.5,-557 582.5,-579 703.5,-579 703.5,-557 582.5,-557"/>
<text text-anchor="start" x="585.5" y="-565.2" font-family="Helvetica,sans-Serif" font-size="11.00">bigserial[19]</text>
<polygon fill="none" stroke="black" points="432.5,-535 432.5,-557 582.5,-557 582.5,-535 432.5,-535"/>
<text text-anchor="start" x="452.5" y="-543.2" font-family="Helvetica,sans-Serif" font-size="11.00">name</text>
<polygon fill="none" stroke="black" points="582.5,-535 582.5,-557 703.5,-557 703.5,-535 582.5,-535"/>
<text text-anchor="start" x="585.5" y="-543.2" font-family="Helvetica,sans-Serif" font-size="11.00">varchar[2147483647]</text>
<polygon fill="none" stroke="black" points="432.5,-513 432.5,-535 582.5,-535 582.5,-513 432.5,-513"/>
<text text-anchor="start" x="452.5" y="-521.2" font-family="Helvetica,sans-Serif" font-size="11.00">svc_type</text>
<polygon fill="none" stroke="black" points="582.5,-513 582.5,-535 703.5,-535 703.5,-513 582.5,-513"/>
<text text-anchor="start" x="585.5" y="-521.2" font-family="Helvetica,sans-Serif" font-size="11.00">varchar[2147483647]</text>
<polygon fill="#ffffff" stroke="none" points="432.5,-491 432.5,-513 582.5,-513 582.5,-491 432.5,-491"/>
<polygon fill="none" stroke="black" points="432.5,-491 432.5,-513 582.5,-513 582.5,-491 432.5,-491"/>
<text text-anchor="start" x="452.5" y="-499.2" font-family="Helvetica,sans-Serif" font-size="11.00">typename</text>
<polygon fill="none" stroke="black" points="582.5,-491 582.5,-513 703.5,-513 703.5,-491 582.5,-491"/>
<text text-anchor="start" x="585.5" y="-499.2" font-family="Helvetica,sans-Serif" font-size="11.00">varchar[2147483647]</text>
<polygon fill="none" stroke="black" points="432.5,-469 432.5,-491 582.5,-491 582.5,-469 432.5,-469"/>
<text text-anchor="start" x="452.5" y="-477.2" font-family="Helvetica,sans-Serif" font-size="11.00">start</text>
<polygon fill="none" stroke="black" points="582.5,-469 582.5,-491 703.5,-491 703.5,-469 582.5,-469"/>
<text text-anchor="start" x="585.5" y="-477.2" font-family="Helvetica,sans-Serif" font-size="11.00">varchar[2147483647]</text>
<polygon fill="none" stroke="black" points="432.5,-447 432.5,-469 582.5,-469 582.5,-447 432.5,-447"/>
<text text-anchor="start" x="452.5" y="-455.2" font-family="Helvetica,sans-Serif" font-size="11.00">image_path</text>
<polygon fill="none" stroke="black" points="582.5,-447 582.5,-469 703.5,-469 703.5,-447 582.5,-447"/>
<text text-anchor="start" x="585.5" y="-455.2" font-family="Helvetica,sans-Serif" font-size="11.00">text[2147483647]</text>
<polygon fill="none" stroke="black" points="432.5,-425 432.5,-447 582.5,-447 582.5,-425 432.5,-425"/>
<text text-anchor="start" x="452.5" y="-433.2" font-family="Helvetica,sans-Serif" font-size="11.00">display_name</text>
<polygon fill="none" stroke="black" points="582.5,-425 582.5,-447 703.5,-447 703.5,-425 582.5,-425"/>
<text text-anchor="start" x="585.5" y="-433.2" font-family="Helvetica,sans-Serif" font-size="11.00">varchar[2147483647]</text>
<polygon fill="none" stroke="black" points="432.5,-403 432.5,-425 582.5,-425 582.5,-403 432.5,-403"/>
<text text-anchor="start" x="452.5" y="-411.2" font-family="Helvetica,sans-Serif" font-size="11.00">depend_on_service</text>
<polygon fill="none" stroke="black" points="582.5,-403 582.5,-425 703.5,-425 703.5,-403 582.5,-403"/>
<text text-anchor="start" x="585.5" y="-411.2" font-family="Helvetica,sans-Serif" font-size="11.00">varchar[2147483647]</text>
<polygon fill="none" stroke="black" points="432.5,-381 432.5,-403 582.5,-403 582.5,-381 432.5,-381"/>
<text text-anchor="start" x="452.5" y="-389.2" font-family="Helvetica,sans-Serif" font-size="11.00">depend_on_group</text>
<polygon fill="none" stroke="black" points="582.5,-381 582.5,-403 703.5,-403 703.5,-381 582.5,-381"/>
<text text-anchor="start" x="585.5" y="-389.2" font-family="Helvetica,sans-Serif" font-size="11.00">varchar[2147483647]</text>
<polygon fill="none" stroke="black" points="432.5,-359 432.5,-381 582.5,-381 582.5,-359 432.5,-359"/>
<text text-anchor="start" x="452.5" y="-367.2" font-family="Helvetica,sans-Serif" font-size="11.00">object_name</text>
<polygon fill="none" stroke="black" points="582.5,-359 582.5,-381 703.5,-381 703.5,-359 582.5,-359"/>
<text text-anchor="start" x="585.5" y="-367.2" font-family="Helvetica,sans-Serif" font-size="11.00">varchar[2147483647]</text>
<polygon fill="none" stroke="black" points="432.5,-337 432.5,-359 582.5,-359 582.5,-337 432.5,-337"/>
<text text-anchor="start" x="452.5" y="-345.2" font-family="Helvetica,sans-Serif" font-size="11.00">description</text>
<polygon fill="none" stroke="black" points="582.5,-337 582.5,-359 703.5,-359 703.5,-337 582.5,-337"/>
<text text-anchor="start" x="585.5" y="-345.2" font-family="Helvetica,sans-Serif" font-size="11.00">text[2147483647]</text>
<polygon fill="#ffffff" stroke="none" points="432.5,-315 432.5,-337 582.5,-337 582.5,-315 432.5,-315"/>
<polygon fill="none" stroke="black" points="432.5,-315 432.5,-337 582.5,-337 582.5,-315 432.5,-315"/>
<text text-anchor="start" x="452.5" y="-323.2" font-family="Helvetica,sans-Serif" font-size="11.00">vm_or_template_id</text>
<polygon fill="none" stroke="black" points="582.5,-315 582.5,-337 703.5,-337 703.5,-315 582.5,-315"/>
<text text-anchor="start" x="585.5" y="-323.2" font-family="Helvetica,sans-Serif" font-size="11.00">int8[19]</text>
<polygon fill="none" stroke="black" points="432.5,-293 432.5,-315 582.5,-315 582.5,-293 432.5,-293"/>
<text text-anchor="start" x="452.5" y="-301.2" font-family="Helvetica,sans-Serif" font-size="11.00">enable_run_levels</text>
<polygon fill="none" stroke="black" points="582.5,-293 582.5,-315 703.5,-315 703.5,-293 582.5,-293"/>
<text text-anchor="start" x="585.5" y="-301.2" font-family="Helvetica,sans-Serif" font-size="11.00">varchar[2147483647]</text>
<polygon fill="none" stroke="black" points="432.5,-271 432.5,-293 582.5,-293 582.5,-271 432.5,-271"/>
<text text-anchor="start" x="452.5" y="-279.2" font-family="Helvetica,sans-Serif" font-size="11.00">disable_run_levels</text>
<polygon fill="none" stroke="black" points="582.5,-271 582.5,-293 703.5,-293 703.5,-271 582.5,-271"/>
<text text-anchor="start" x="585.5" y="-279.2" font-family="Helvetica,sans-Serif" font-size="11.00">varchar[2147483647]</text>
<polygon fill="#ffffff" stroke="none" points="432.5,-249 432.5,-271 582.5,-271 582.5,-249 432.5,-249"/>
<polygon fill="none" stroke="black" points="432.5,-249 432.5,-271 582.5,-271 582.5,-249 432.5,-249"/>
<image xlink:href="../../images/foreignKeys.png" width="11px" height="12px" preserveAspectRatio="xMinYMin meet" x="437.5" y="-266"/>
<text text-anchor="start" x="452.5" y="-257.2" font-family="Helvetica,sans-Serif" font-size="11.00">host_id</text>
<polygon fill="none" stroke="black" points="582.5,-249 582.5,-271 703.5,-271 703.5,-249 582.5,-249"/>
<text text-anchor="start" x="585.5" y="-257.2" font-family="Helvetica,sans-Serif" font-size="11.00">int8[19]</text>
<polygon fill="none" stroke="black" points="432.5,-227 432.5,-249 582.5,-249 582.5,-227 432.5,-227"/>
<text text-anchor="start" x="452.5" y="-235.2" font-family="Helvetica,sans-Serif" font-size="11.00">running</text>
<polygon fill="none" stroke="black" points="582.5,-227 582.5,-249 703.5,-249 703.5,-227 582.5,-227"/>
<text text-anchor="start" x="585.5" y="-235.2" font-family="Helvetica,sans-Serif" font-size="11.00">bool[1]</text>
<polygon fill="none" stroke="black" points="432.5,-205 432.5,-227 582.5,-227 582.5,-205 432.5,-205"/>
<text text-anchor="start" x="452.5" y="-213.2" font-family="Helvetica,sans-Serif" font-size="11.00">dependencies</text>
<polygon fill="none" stroke="black" points="582.5,-205 582.5,-227 703.5,-227 703.5,-205 582.5,-205"/>
<text text-anchor="start" x="585.5" y="-213.2" font-family="Helvetica,sans-Serif" font-size="11.00">text[2147483647]</text>
<polygon fill="none" stroke="black" points="432.5,-183 432.5,-205 582.5,-205 582.5,-183 432.5,-183"/>
<text text-anchor="start" x="452.5" y="-191.2" font-family="Helvetica,sans-Serif" font-size="11.00">systemd_load</text>
<polygon fill="none" stroke="black" points="582.5,-183 582.5,-205 703.5,-205 703.5,-183 582.5,-183"/>
<text text-anchor="start" x="585.5" y="-191.2" font-family="Helvetica,sans-Serif" font-size="11.00">varchar[2147483647]</text>
<polygon fill="none" stroke="black" points="432.5,-161 432.5,-183 582.5,-183 582.5,-161 432.5,-161"/>
<text text-anchor="start" x="452.5" y="-169.2" font-family="Helvetica,sans-Serif" font-size="11.00">systemd_active</text>
<polygon fill="none" stroke="black" points="582.5,-161 582.5,-183 703.5,-183 703.5,-161 582.5,-161"/>
<text text-anchor="start" x="585.5" y="-169.2" font-family="Helvetica,sans-Serif" font-size="11.00">varchar[2147483647]</text>
<polygon fill="none" stroke="black" points="432.5,-139 432.5,-161 582.5,-161 582.5,-139 432.5,-139"/>
<text text-anchor="start" x="452.5" y="-147.2" font-family="Helvetica,sans-Serif" font-size="11.00">systemd_sub</text>
<polygon fill="none" stroke="black" points="582.5,-139 582.5,-161 703.5,-161 703.5,-139 582.5,-139"/>
<text text-anchor="start" x="585.5" y="-147.2" font-family="Helvetica,sans-Serif" font-size="11.00">varchar[2147483647]</text>
<polygon fill="#ffffff" stroke="none" points="432.5,-117 432.5,-139 582.5,-139 582.5,-117 432.5,-117"/>
<polygon fill="none" stroke="black" points="432.5,-117 432.5,-139 582.5,-139 582.5,-117 432.5,-117"/>
<image xlink:href="../../images/foreignKeys.png" width="11px" height="12px" preserveAspectRatio="xMinYMin meet" x="437.5" y="-134"/>
<text text-anchor="start" x="452.5" y="-125.2" font-family="Helvetica,sans-Serif" font-size="11.00">host_service_group_id</text>
<polygon fill="none" stroke="black" points="582.5,-117 582.5,-139 703.5,-139 703.5,-117 582.5,-117"/>
<text text-anchor="start" x="585.5" y="-125.2" font-family="Helvetica,sans-Serif" font-size="11.00">int8[19]</text>
<polygon fill="#ffffff" stroke="none" points="432.5,-99 432.5,-117 512.5,-117 512.5,-99 432.5,-99"/>
<polygon fill="none" stroke="black" points="432.5,-99 432.5,-117 512.5,-117 512.5,-99 432.5,-99"/>
<text text-anchor="start" x="435.5" y="-105.2" font-family="Helvetica,sans-Serif" font-size="11.00">&lt; 2</text>
<polygon fill="#ffffff" stroke="none" points="512.5,-99 512.5,-117 582.5,-117 582.5,-99 512.5,-99"/>
<polygon fill="none" stroke="black" points="512.5,-99 512.5,-117 582.5,-117 582.5,-99 512.5,-99"/>
<text text-anchor="start" x="572.5" y="-105.2" font-family="Helvetica,sans-Serif" font-size="11.00"> &#160;</text>
<polygon fill="#ffffff" stroke="none" points="582.5,-99 582.5,-117 703.5,-117 703.5,-99 582.5,-99"/>
<polygon fill="none" stroke="black" points="582.5,-99 582.5,-117 703.5,-117 703.5,-99 582.5,-99"/>
<text text-anchor="start" x="683.5" y="-105.2" font-family="Helvetica,sans-Serif" font-size="11.00">1 &gt;</text>
<polygon fill="none" stroke="black" stroke-width="2" points="431,-98 431,-602 704,-602 704,-98 431,-98"/>
</a>
</g>
</g>
<!-- cloud_services&#45;&gt;system_services -->
<g id="edge2" class="edge"><title>cloud_services:system_service_id:w&#45;&gt;system_services:id.type:e</title>
<path fill="none" stroke="black" d="M738.598,-583.028C727.35,-577.915 721.565,-568 704.5,-568"/>
<polygon fill="black" stroke="black" points="745.165,-584.383 752.272,-589.526 749.083,-585.191 753,-586 753,-586 753,-586 749.083,-585.191 753.728,-582.474 745.165,-584.383 745.165,-584.383"/>
<ellipse fill="none" stroke="black" cx="742.031" cy="-583.736" rx="3.2" ry="3.2"/>
</g>
<!-- system_services&#45;&gt;hosts -->
<g id="edge4" class="edge"><title>system_services:host_id:w&#45;&gt;hosts:id:e</title>
<path fill="none" stroke="black" d="M416.81,-260C313.693,-260 282.553,-260 172.5,-260"/>
<polygon fill="black" stroke="black" points="423.5,-260 431.5,-263.6 427.5,-260 431.5,-260 431.5,-260 431.5,-260 427.5,-260 431.5,-256.4 423.5,-260 423.5,-260"/>
<ellipse fill="none" stroke="black" cx="420.3" cy="-260" rx="3.2" ry="3.2"/>
</g>
<!-- host_service_groups -->
<g id="node4" class="node"><title>host_service_groups</title>
<g id="a_node4"><a xlink:href="../../tables/host_service_groups.html" xlink:title="host_service_groups" target="_top">
<polygon fill="#ffffff" stroke="none" points="220,-75 220,-199 381,-199 381,-75 220,-75"/>
<polygon fill="#f5f5f5" stroke="none" points="220.5,-177 220.5,-199 381.5,-199 381.5,-177 220.5,-177"/>
<polygon fill="none" stroke="black" points="220.5,-177 220.5,-199 381.5,-199 381.5,-177 220.5,-177"/>
<text text-anchor="start" x="225.5" y="-186.2" font-family="Helvetica,sans-Serif" font-weight="bold" font-size="11.00">host_service_groups</text>
<text text-anchor="start" x="342.5" y="-185.2" font-family="Helvetica,sans-Serif" font-size="11.00">[table]</text>
<polygon fill="none" stroke="black" points="220.5,-155 220.5,-177 381.5,-177 381.5,-155 220.5,-155"/>
<image xlink:href="../../images/primaryKeys.png" width="11px" height="12px" preserveAspectRatio="xMinYMin meet" x="225.5" y="-172"/>
<text text-anchor="start" x="251.5" y="-163.2" font-family="Helvetica,sans-Serif" font-size="11.00">id</text>
<polygon fill="#ffffff" stroke="none" points="220.5,-133 220.5,-155 381.5,-155 381.5,-133 220.5,-133"/>
<polygon fill="none" stroke="black" points="220.5,-133 220.5,-155 381.5,-155 381.5,-133 220.5,-133"/>
<text text-anchor="start" x="251.5" y="-141.2" font-family="Helvetica,sans-Serif" font-size="11.00">type</text>
<polygon fill="none" stroke="black" points="220.5,-111 220.5,-133 381.5,-133 381.5,-111 220.5,-111"/>
<image xlink:href="../../images/foreignKeys.png" width="11px" height="12px" preserveAspectRatio="xMinYMin meet" x="225.5" y="-128"/>
<text text-anchor="start" x="251.5" y="-119.2" font-family="Helvetica,sans-Serif" font-size="11.00">host_id</text>
<polygon fill="none" stroke="black" points="220.5,-93 220.5,-111 381.5,-111 381.5,-93 220.5,-93"/>
<text text-anchor="start" x="223.5" y="-99.2" font-family="Helvetica,sans-Serif" font-size="11.00">...</text>
<polygon fill="#ffffff" stroke="none" points="220.5,-75 220.5,-93 294.5,-93 294.5,-75 220.5,-75"/>
<polygon fill="none" stroke="black" points="220.5,-75 220.5,-93 294.5,-93 294.5,-75 220.5,-75"/>
<text text-anchor="start" x="223.5" y="-81.2" font-family="Helvetica,sans-Serif" font-size="11.00">&lt; 1</text>
<polygon fill="#ffffff" stroke="none" points="294.5,-75 294.5,-93 332.5,-93 332.5,-75 294.5,-75"/>
<polygon fill="none" stroke="black" points="294.5,-75 294.5,-93 332.5,-93 332.5,-75 294.5,-75"/>
<text text-anchor="start" x="322.5" y="-81.2" font-family="Helvetica,sans-Serif" font-size="11.00"> &#160;</text>
<polygon fill="#ffffff" stroke="none" points="332.5,-75 332.5,-93 381.5,-93 381.5,-75 332.5,-75"/>
<polygon fill="none" stroke="black" points="332.5,-75 332.5,-93 381.5,-93 381.5,-75 332.5,-75"/>
<text text-anchor="start" x="361.5" y="-81.2" font-family="Helvetica,sans-Serif" font-size="11.00">2 &gt;</text>
</a>
</g>
</g>
<!-- system_services&#45;&gt;host_service_groups -->
<g id="edge5" class="edge"><title>system_services:host_service_group_id:w&#45;&gt;host_service_groups:id:e</title>
<path fill="none" stroke="black" d="M417.544,-132.66C405.006,-142.807 404.031,-166 382.5,-166"/>
<polygon fill="black" stroke="black" points="423.912,-130.534 432.64,-131.415 427.706,-129.267 431.5,-128 431.5,-128 431.5,-128 427.706,-129.267 430.36,-124.585 423.912,-130.534 423.912,-130.534"/>
<ellipse fill="none" stroke="black" cx="420.876" cy="-131.547" rx="3.20001" ry="3.20001"/>
</g>
<!-- host_service_groups&#45;&gt;hosts -->
<g id="edge3" class="edge"><title>host_service_groups:host_id:w&#45;&gt;hosts:id:e</title>
<path fill="none" stroke="black" d="M205.391,-125.142C168.357,-145.683 231.472,-260 172.5,-260"/>
<polygon fill="black" stroke="black" points="211.691,-123.739 220.282,-125.514 215.596,-122.869 219.5,-122 219.5,-122 219.5,-122 215.596,-122.869 218.718,-118.486 211.691,-123.739 211.691,-123.739"/>
<ellipse fill="none" stroke="black" cx="208.568" cy="-124.434" rx="3.2" ry="3.2"/>
</g>
</g>
</svg>
