<?xml version="1.0" encoding="UTF-8" standalone="no"?>
<!DOCTYPE svg PUBLIC "-//W3C//DTD SVG 1.1//EN"
 "http://www.w3.org/Graphics/SVG/1.1/DTD/svg11.dtd">
<!-- Generated by graphviz version 2.38.0 (20140413.2041)
 -->
<!-- Title: oneDegreeRelationshipsDiagram Pages: 1 -->
<svg width="374pt" height="181pt"
 viewBox="0.00 0.00 374.00 181.00" xmlns="http://www.w3.org/2000/svg" xmlns:xlink="http://www.w3.org/1999/xlink">
<g id="graph0" class="graph" transform="scale(1 1) rotate(0) translate(4 177)">
<title>oneDegreeRelationshipsDiagram</title>
<polygon fill="#ffffff" stroke="none" points="-4,4 -4,-177 370,-177 370,4 -4,4"/>
<text text-anchor="middle" x="74.5" y="-7.2" font-family="Helvetica,sans-Serif" font-size="11.00">Generated by SchemaSpy</text>
<!-- taggings -->
<g id="node1" class="node"><title>taggings</title>
<g id="a_node1"><a xlink:href="../../tables/taggings.html" xlink:title="taggings" target="_top">
<polygon fill="#ffffff" stroke="none" points="129,-37 129,-169 358,-169 358,-37 129,-37"/>
<polygon fill="#f5f5f5" stroke="none" points="131.5,-145 131.5,-167 356.5,-167 356.5,-145 131.5,-145"/>
<polygon fill="none" stroke="black" points="131.5,-145 131.5,-167 356.5,-167 356.5,-145 131.5,-145"/>
<text text-anchor="start" x="136.5" y="-154.2" font-family="Helvetica,sans-Serif" font-weight="bold" font-size="11.00">taggings</text>
<text text-anchor="start" x="317.5" y="-153.2" font-family="Helvetica,sans-Serif" font-size="11.00">[table]</text>
<polygon fill="none" stroke="black" points="131.5,-123 131.5,-145 235.5,-145 235.5,-123 131.5,-123"/>
<image xlink:href="../../images/primaryKeys.png" width="11px" height="12px" preserveAspectRatio="xMinYMin meet" x="136.5" y="-140"/>
<text text-anchor="start" x="151.5" y="-131.2" font-family="Helvetica,sans-Serif" font-size="11.00">id</text>
<polygon fill="none" stroke="black" points="235.5,-123 235.5,-145 356.5,-145 356.5,-123 235.5,-123"/>
<text text-anchor="start" x="238.5" y="-131.2" font-family="Helvetica,sans-Serif" font-size="11.00">bigserial[19]</text>
<polygon fill="#ffffff" stroke="none" points="131.5,-101 131.5,-123 235.5,-123 235.5,-101 131.5,-101"/>
<polygon fill="none" stroke="black" points="131.5,-101 131.5,-123 235.5,-123 235.5,-101 131.5,-101"/>
<text text-anchor="start" x="151.5" y="-109.2" font-family="Helvetica,sans-Serif" font-size="11.00">taggable_id</text>
<polygon fill="none" stroke="black" points="235.5,-101 235.5,-123 356.5,-123 356.5,-101 235.5,-101"/>
<text text-anchor="start" x="238.5" y="-109.2" font-family="Helvetica,sans-Serif" font-size="11.00">int8[19]</text>
<polygon fill="#ffffff" stroke="none" points="131.5,-79 131.5,-101 235.5,-101 235.5,-79 131.5,-79"/>
<polygon fill="none" stroke="black" points="131.5,-79 131.5,-101 235.5,-101 235.5,-79 131.5,-79"/>
<image xlink:href="../../images/foreignKeys.png" width="11px" height="12px" preserveAspectRatio="xMinYMin meet" x="136.5" y="-96"/>
<text text-anchor="start" x="151.5" y="-87.2" font-family="Helvetica,sans-Serif" font-size="11.00">tag_id</text>
<polygon fill="none" stroke="black" points="235.5,-79 235.5,-101 356.5,-101 356.5,-79 235.5,-79"/>
<text text-anchor="start" x="238.5" y="-87.2" font-family="Helvetica,sans-Serif" font-size="11.00">int8[19]</text>
<polygon fill="#ffffff" stroke="none" points="131.5,-57 131.5,-79 235.5,-79 235.5,-57 131.5,-57"/>
<polygon fill="none" stroke="black" points="131.5,-57 131.5,-79 235.5,-79 235.5,-57 131.5,-57"/>
<text text-anchor="start" x="151.5" y="-65.2" font-family="Helvetica,sans-Serif" font-size="11.00">taggable_type</text>
<polygon fill="none" stroke="black" points="235.5,-57 235.5,-79 356.5,-79 356.5,-57 235.5,-57"/>
<text text-anchor="start" x="238.5" y="-65.2" font-family="Helvetica,sans-Serif" font-size="11.00">varchar[2147483647]</text>
<polygon fill="#ffffff" stroke="none" points="131.5,-39 131.5,-57 188.5,-57 188.5,-39 131.5,-39"/>
<polygon fill="none" stroke="black" points="131.5,-39 131.5,-57 188.5,-57 188.5,-39 131.5,-39"/>
<text text-anchor="start" x="134.5" y="-45.2" font-family="Helvetica,sans-Serif" font-size="11.00">&lt; 1</text>
<polygon fill="#ffffff" stroke="none" points="188.5,-39 188.5,-57 235.5,-57 235.5,-39 188.5,-39"/>
<polygon fill="none" stroke="black" points="188.5,-39 188.5,-57 235.5,-57 235.5,-39 188.5,-39"/>
<text text-anchor="start" x="225.5" y="-45.2" font-family="Helvetica,sans-Serif" font-size="11.00"> &#160;</text>
<polygon fill="#ffffff" stroke="none" points="235.5,-39 235.5,-57 356.5,-57 356.5,-39 235.5,-39"/>
<polygon fill="none" stroke="black" points="235.5,-39 235.5,-57 356.5,-57 356.5,-39 235.5,-39"/>
<text text-anchor="start" x="336.5" y="-45.2" font-family="Helvetica,sans-Serif" font-size="11.00">0 &gt;</text>
<polygon fill="none" stroke="black" stroke-width="2" points="130,-38 130,-168 357,-168 357,-38 130,-38"/>
</a>
</g>
</g>
<!-- tags -->
<g id="node2" class="node"><title>tags</title>
<g id="a_node2"><a xlink:href="../../tables/tags.html" xlink:title="tags" target="_top">
<polygon fill="#ffffff" stroke="none" points="8,-43 8,-123 80,-123 80,-43 8,-43"/>
<polygon fill="#f5f5f5" stroke="none" points="8,-101 8,-123 80,-123 80,-101 8,-101"/>
<polygon fill="none" stroke="black" points="8,-101 8,-123 80,-123 80,-101 8,-101"/>
<text text-anchor="start" x="13" y="-110.2" font-family="Helvetica,sans-Serif" font-weight="bold" font-size="11.00">tags</text>
<text text-anchor="start" x="41" y="-109.2" font-family="Helvetica,sans-Serif" font-size="11.00">[table]</text>
<polygon fill="none" stroke="black" points="8,-79 8,-101 80,-101 80,-79 8,-79"/>
<image xlink:href="../../images/primaryKeys.png" width="11px" height="12px" preserveAspectRatio="xMinYMin meet" x="13" y="-96"/>
<text text-anchor="start" x="37" y="-87.2" font-family="Helvetica,sans-Serif" font-size="11.00">id</text>
<polygon fill="none" stroke="black" points="8,-61 8,-79 80,-79 80,-61 8,-61"/>
<text text-anchor="start" x="11" y="-67.2" font-family="Helvetica,sans-Serif" font-size="11.00">...</text>
<polygon fill="#ffffff" stroke="none" points="8,-43 8,-61 32,-61 32,-43 8,-43"/>
<polygon fill="none" stroke="black" points="8,-43 8,-61 32,-61 32,-43 8,-43"/>
<text text-anchor="start" x="11" y="-49.2" font-family="Helvetica,sans-Serif" font-size="11.00"> &#160;</text>
<polygon fill="#ffffff" stroke="none" points="32,-43 32,-61 51,-61 51,-43 32,-43"/>
<polygon fill="none" stroke="black" points="32,-43 32,-61 51,-61 51,-43 32,-43"/>
<text text-anchor="start" x="41" y="-49.2" font-family="Helvetica,sans-Serif" font-size="11.00"> &#160;</text>
<polygon fill="#ffffff" stroke="none" points="51,-43 51,-61 80,-61 80,-43 51,-43"/>
<polygon fill="none" stroke="black" points="51,-43 51,-61 80,-61 80,-43 51,-43"/>
<text text-anchor="start" x="60" y="-49.2" font-family="Helvetica,sans-Serif" font-size="11.00">3 &gt;</text>
</a>
</g>
</g>
<!-- taggings&#45;&gt;tags -->
<g id="edge1" class="edge"><title>taggings:tag_id:w&#45;&gt;tags:id:e</title>
<path fill="none" stroke="black" d="M115.843,-90C104.414,-90 97.1562,-90 81,-90"/>
<polygon fill="black" stroke="black" points="122.5,-90.0001 130.5,-93.6 126.5,-90 130.5,-90 130.5,-90 130.5,-90 126.5,-90 130.5,-86.4 122.5,-90.0001 122.5,-90.0001"/>
<ellipse fill="none" stroke="black" cx="119.3" cy="-90.0001" rx="3.2" ry="3.2"/>
</g>
</g>
</svg>
