<?xml version="1.0" encoding="UTF-8" standalone="no"?>
<!DOCTYPE svg PUBLIC "-//W3C//DTD SVG 1.1//EN"
 "http://www.w3.org/Graphics/SVG/1.1/DTD/svg11.dtd">
<!-- Generated by graphviz version 2.38.0 (20140413.2041)
 -->
<!-- Title: oneDegreeRelationshipsDiagram Pages: 1 -->
<svg width="476pt" height="269pt"
 viewBox="0.00 0.00 476.00 269.00" xmlns="http://www.w3.org/2000/svg" xmlns:xlink="http://www.w3.org/1999/xlink">
<g id="graph0" class="graph" transform="scale(1 1) rotate(0) translate(4 265)">
<title>oneDegreeRelationshipsDiagram</title>
<polygon fill="#ffffff" stroke="none" points="-4,4 -4,-265 472,-265 472,4 -4,4"/>
<text text-anchor="middle" x="74.5" y="-7.2" font-family="Helvetica,sans-Serif" font-size="11.00">Generated by SchemaSpy</text>
<!-- tenant_quotas -->
<g id="node1" class="node"><title>tenant_quotas</title>
<g id="a_node1"><a xlink:href="../../tables/tenant_quotas.html" xlink:title="tenant_quotas" target="_top">
<polygon fill="#ffffff" stroke="none" points="228,-37 228,-257 460,-257 460,-37 228,-37"/>
<polygon fill="#f5f5f5" stroke="none" points="230,-233 230,-255 458,-255 458,-233 230,-233"/>
<polygon fill="none" stroke="black" points="230,-233 230,-255 458,-255 458,-233 230,-233"/>
<text text-anchor="start" x="235" y="-242.2" font-family="Helvetica,sans-Serif" font-weight="bold" font-size="11.00">tenant_quotas</text>
<text text-anchor="start" x="419" y="-241.2" font-family="Helvetica,sans-Serif" font-size="11.00">[table]</text>
<polygon fill="none" stroke="black" points="230,-211 230,-233 337,-233 337,-211 230,-211"/>
<image xlink:href="../../images/primaryKeys.png" width="11px" height="12px" preserveAspectRatio="xMinYMin meet" x="235" y="-228"/>
<text text-anchor="start" x="250" y="-219.2" font-family="Helvetica,sans-Serif" font-size="11.00">id</text>
<polygon fill="none" stroke="black" points="337,-211 337,-233 458,-233 458,-211 337,-211"/>
<text text-anchor="start" x="340" y="-219.2" font-family="Helvetica,sans-Serif" font-size="11.00">bigserial[19]</text>
<polygon fill="none" stroke="black" points="230,-189 230,-211 337,-211 337,-189 230,-189"/>
<image xlink:href="../../images/foreignKeys.png" width="11px" height="12px" preserveAspectRatio="xMinYMin meet" x="235" y="-206"/>
<text text-anchor="start" x="250" y="-197.2" font-family="Helvetica,sans-Serif" font-size="11.00">tenant_id</text>
<polygon fill="none" stroke="black" points="337,-189 337,-211 458,-211 458,-189 337,-189"/>
<text text-anchor="start" x="340" y="-197.2" font-family="Helvetica,sans-Serif" font-size="11.00">int8[19]</text>
<polygon fill="none" stroke="black" points="230,-167 230,-189 337,-189 337,-167 230,-167"/>
<text text-anchor="start" x="250" y="-175.2" font-family="Helvetica,sans-Serif" font-size="11.00">name</text>
<polygon fill="none" stroke="black" points="337,-167 337,-189 458,-189 458,-167 337,-167"/>
<text text-anchor="start" x="340" y="-175.2" font-family="Helvetica,sans-Serif" font-size="11.00">varchar[2147483647]</text>
<polygon fill="none" stroke="black" points="230,-145 230,-167 337,-167 337,-145 230,-145"/>
<text text-anchor="start" x="250" y="-153.2" font-family="Helvetica,sans-Serif" font-size="11.00">unit</text>
<polygon fill="none" stroke="black" points="337,-145 337,-167 458,-167 458,-145 337,-145"/>
<text text-anchor="start" x="340" y="-153.2" font-family="Helvetica,sans-Serif" font-size="11.00">varchar[2147483647]</text>
<polygon fill="none" stroke="black" points="230,-123 230,-145 337,-145 337,-123 230,-123"/>
<text text-anchor="start" x="250" y="-131.2" font-family="Helvetica,sans-Serif" font-size="11.00">value</text>
<polygon fill="none" stroke="black" points="337,-123 337,-145 458,-145 458,-123 337,-123"/>
<text text-anchor="start" x="340" y="-131.2" font-family="Helvetica,sans-Serif" font-size="11.00">float8[17,17]</text>
<polygon fill="none" stroke="black" points="230,-101 230,-123 337,-123 337,-101 230,-101"/>
<text text-anchor="start" x="250" y="-109.2" font-family="Helvetica,sans-Serif" font-size="11.00">created_at</text>
<polygon fill="none" stroke="black" points="337,-101 337,-123 458,-123 458,-101 337,-101"/>
<text text-anchor="start" x="340" y="-109.2" font-family="Helvetica,sans-Serif" font-size="11.00">timestamp[29,6]</text>
<polygon fill="none" stroke="black" points="230,-79 230,-101 337,-101 337,-79 230,-79"/>
<text text-anchor="start" x="250" y="-87.2" font-family="Helvetica,sans-Serif" font-size="11.00">updated_at</text>
<polygon fill="none" stroke="black" points="337,-79 337,-101 458,-101 458,-79 337,-79"/>
<text text-anchor="start" x="340" y="-87.2" font-family="Helvetica,sans-Serif" font-size="11.00">timestamp[29,6]</text>
<polygon fill="none" stroke="black" points="230,-57 230,-79 337,-79 337,-57 230,-57"/>
<text text-anchor="start" x="250" y="-65.2" font-family="Helvetica,sans-Serif" font-size="11.00">warn_value</text>
<polygon fill="none" stroke="black" points="337,-57 337,-79 458,-79 458,-57 337,-57"/>
<text text-anchor="start" x="340" y="-65.2" font-family="Helvetica,sans-Serif" font-size="11.00">float8[17,17]</text>
<polygon fill="#ffffff" stroke="none" points="230,-39 230,-57 288,-57 288,-39 230,-39"/>
<polygon fill="none" stroke="black" points="230,-39 230,-57 288,-57 288,-39 230,-39"/>
<text text-anchor="start" x="233" y="-45.2" font-family="Helvetica,sans-Serif" font-size="11.00">&lt; 1</text>
<polygon fill="#ffffff" stroke="none" points="288,-39 288,-57 337,-57 337,-39 288,-39"/>
<polygon fill="none" stroke="black" points="288,-39 288,-57 337,-57 337,-39 288,-39"/>
<text text-anchor="start" x="327" y="-45.2" font-family="Helvetica,sans-Serif" font-size="11.00"> &#160;</text>
<polygon fill="#ffffff" stroke="none" points="337,-39 337,-57 458,-57 458,-39 337,-39"/>
<polygon fill="none" stroke="black" points="337,-39 337,-57 458,-57 458,-39 337,-39"/>
<text text-anchor="start" x="438" y="-45.2" font-family="Helvetica,sans-Serif" font-size="11.00">0 &gt;</text>
<polygon fill="none" stroke="black" stroke-width="2" points="229,-38 229,-256 459,-256 459,-38 229,-38"/>
</a>
</g>
</g>
<!-- tenants -->
<g id="node2" class="node"><title>tenants</title>
<g id="a_node2"><a xlink:href="../../tables/tenants.html" xlink:title="tenants" target="_top">
<polygon fill="#ffffff" stroke="none" points="8,-43 8,-233 179,-233 179,-43 8,-43"/>
<polygon fill="#f5f5f5" stroke="none" points="8.5,-211 8.5,-233 179.5,-233 179.5,-211 8.5,-211"/>
<polygon fill="none" stroke="black" points="8.5,-211 8.5,-233 179.5,-233 179.5,-211 8.5,-211"/>
<text text-anchor="start" x="13.5" y="-220.2" font-family="Helvetica,sans-Serif" font-weight="bold" font-size="11.00">tenants</text>
<text text-anchor="start" x="140.5" y="-219.2" font-family="Helvetica,sans-Serif" font-size="11.00">[table]</text>
<polygon fill="none" stroke="black" points="8.5,-189 8.5,-211 179.5,-211 179.5,-189 8.5,-189"/>
<image xlink:href="../../images/primaryKeys.png" width="11px" height="12px" preserveAspectRatio="xMinYMin meet" x="13.5" y="-206"/>
<text text-anchor="start" x="28.5" y="-197.2" font-family="Helvetica,sans-Serif" font-size="11.00">id</text>
<polygon fill="#ffffff" stroke="none" points="8.5,-167 8.5,-189 179.5,-189 179.5,-167 8.5,-167"/>
<polygon fill="none" stroke="black" points="8.5,-167 8.5,-189 179.5,-189 179.5,-167 8.5,-167"/>
<text text-anchor="start" x="28.5" y="-175.2" font-family="Helvetica,sans-Serif" font-size="11.00">domain</text>
<polygon fill="#ffffff" stroke="none" points="8.5,-145 8.5,-167 179.5,-167 179.5,-145 8.5,-145"/>
<polygon fill="none" stroke="black" points="8.5,-145 8.5,-167 179.5,-167 179.5,-145 8.5,-145"/>
<text text-anchor="start" x="28.5" y="-153.2" font-family="Helvetica,sans-Serif" font-size="11.00">subdomain</text>
<polygon fill="#ffffff" stroke="none" points="8.5,-123 8.5,-145 179.5,-145 179.5,-123 8.5,-123"/>
<polygon fill="none" stroke="black" points="8.5,-123 8.5,-145 179.5,-145 179.5,-123 8.5,-123"/>
<text text-anchor="start" x="28.5" y="-131.2" font-family="Helvetica,sans-Serif" font-size="11.00">ancestry</text>
<polygon fill="#ffffff" stroke="none" points="8.5,-101 8.5,-123 179.5,-123 179.5,-101 8.5,-101"/>
<polygon fill="none" stroke="black" points="8.5,-101 8.5,-123 179.5,-123 179.5,-101 8.5,-101"/>
<text text-anchor="start" x="28.5" y="-109.2" font-family="Helvetica,sans-Serif" font-size="11.00">source_type</text>
<polygon fill="#ffffff" stroke="none" points="8.5,-79 8.5,-101 179.5,-101 179.5,-79 8.5,-79"/>
<polygon fill="none" stroke="black" points="8.5,-79 8.5,-101 179.5,-101 179.5,-79 8.5,-79"/>
<text text-anchor="start" x="28.5" y="-87.2" font-family="Helvetica,sans-Serif" font-size="11.00">source_id</text>
<polygon fill="none" stroke="black" points="8.5,-61 8.5,-79 179.5,-79 179.5,-61 8.5,-61"/>
<text text-anchor="start" x="11.5" y="-67.2" font-family="Helvetica,sans-Serif" font-size="11.00">...</text>
<polygon fill="#ffffff" stroke="none" points="8.5,-43 8.5,-61 78.5,-61 78.5,-43 8.5,-43"/>
<polygon fill="none" stroke="black" points="8.5,-43 8.5,-61 78.5,-61 78.5,-43 8.5,-43"/>
<text text-anchor="start" x="11.5" y="-49.2" font-family="Helvetica,sans-Serif" font-size="11.00"> &#160;</text>
<polygon fill="#ffffff" stroke="none" points="78.5,-43 78.5,-61 120.5,-61 120.5,-43 78.5,-43"/>
<polygon fill="none" stroke="black" points="78.5,-43 78.5,-61 120.5,-61 120.5,-43 78.5,-43"/>
<text text-anchor="start" x="110.5" y="-49.2" font-family="Helvetica,sans-Serif" font-size="11.00"> &#160;</text>
<polygon fill="#ffffff" stroke="none" points="120.5,-43 120.5,-61 179.5,-61 179.5,-43 120.5,-43"/>
<polygon fill="none" stroke="black" points="120.5,-43 120.5,-61 179.5,-61 179.5,-43 120.5,-43"/>
<text text-anchor="start" x="152.5" y="-49.2" font-family="Helvetica,sans-Serif" font-size="11.00">20 &gt;</text>
</a>
</g>
</g>
<!-- tenant_quotas&#45;&gt;tenants -->
<g id="edge1" class="edge"><title>tenant_quotas:tenant_id:w&#45;&gt;tenants:id:e</title>
<path fill="none" stroke="black" d="M214.283,-200C203.289,-200 196.161,-200 180.5,-200"/>
<polygon fill="black" stroke="black" points="221,-200 229,-203.6 225,-200 229,-200 229,-200 229,-200 225,-200 229,-196.4 221,-200 221,-200"/>
<ellipse fill="none" stroke="black" cx="217.8" cy="-200" rx="3.2" ry="3.2"/>
</g>
</g>
</svg>
