<?xml version="1.0" encoding="UTF-8" standalone="no"?>
<!DOCTYPE svg PUBLIC "-//W3C//DTD SVG 1.1//EN"
 "http://www.w3.org/Graphics/SVG/1.1/DTD/svg11.dtd">
<!-- Generated by graphviz version 2.38.0 (20140413.2041)
 -->
<!-- Title: oneDegreeRelationshipsDiagram Pages: 1 -->
<svg width="572pt" height="269pt"
 viewBox="0.00 0.00 572.00 269.00" xmlns="http://www.w3.org/2000/svg" xmlns:xlink="http://www.w3.org/1999/xlink">
<g id="graph0" class="graph" transform="scale(1 1) rotate(0) translate(4 265)">
<title>oneDegreeRelationshipsDiagram</title>
<polygon fill="#ffffff" stroke="none" points="-4,4 -4,-265 568,-265 568,4 -4,4"/>
<text text-anchor="middle" x="74.5" y="-7.2" font-family="Helvetica,sans-Serif" font-size="11.00">Generated by SchemaSpy</text>
<!-- vim_performance_operating_ranges -->
<g id="node1" class="node"><title>vim_performance_operating_ranges</title>
<g id="a_node1"><a xlink:href="../../tables/vim_performance_operating_ranges.html" xlink:title="vim_performance_operating_ranges" target="_top">
<polygon fill="#ffffff" stroke="none" points="197,-37 197,-257 556,-257 556,-37 197,-37"/>
<polygon fill="#f5f5f5" stroke="none" points="199.5,-233 199.5,-255 554.5,-255 554.5,-233 199.5,-233"/>
<polygon fill="none" stroke="black" points="199.5,-233 199.5,-255 554.5,-255 554.5,-233 199.5,-233"/>
<text text-anchor="start" x="204.5" y="-242.2" font-family="Helvetica,sans-Serif" font-weight="bold" font-size="11.00">vim_performance_operating_ranges</text>
<text text-anchor="start" x="515.5" y="-241.2" font-family="Helvetica,sans-Serif" font-size="11.00">[table]</text>
<polygon fill="none" stroke="black" points="199.5,-211 199.5,-233 433.5,-233 433.5,-211 199.5,-211"/>
<image xlink:href="../../images/primaryKeys.png" width="11px" height="12px" preserveAspectRatio="xMinYMin meet" x="204.5" y="-228"/>
<text text-anchor="start" x="219.5" y="-219.2" font-family="Helvetica,sans-Serif" font-size="11.00">id</text>
<polygon fill="none" stroke="black" points="433.5,-211 433.5,-233 554.5,-233 554.5,-211 433.5,-211"/>
<text text-anchor="start" x="436.5" y="-219.2" font-family="Helvetica,sans-Serif" font-size="11.00">bigserial[19]</text>
<polygon fill="#ffffff" stroke="none" points="199.5,-189 199.5,-211 433.5,-211 433.5,-189 199.5,-189"/>
<polygon fill="none" stroke="black" points="199.5,-189 199.5,-211 433.5,-211 433.5,-189 199.5,-189"/>
<text text-anchor="start" x="219.5" y="-197.2" font-family="Helvetica,sans-Serif" font-size="11.00">resource_id</text>
<polygon fill="none" stroke="black" points="433.5,-189 433.5,-211 554.5,-211 554.5,-189 433.5,-189"/>
<text text-anchor="start" x="436.5" y="-197.2" font-family="Helvetica,sans-Serif" font-size="11.00">int8[19]</text>
<polygon fill="#ffffff" stroke="none" points="199.5,-167 199.5,-189 433.5,-189 433.5,-167 199.5,-167"/>
<polygon fill="none" stroke="black" points="199.5,-167 199.5,-189 433.5,-189 433.5,-167 199.5,-167"/>
<text text-anchor="start" x="219.5" y="-175.2" font-family="Helvetica,sans-Serif" font-size="11.00">resource_type</text>
<polygon fill="none" stroke="black" points="433.5,-167 433.5,-189 554.5,-189 554.5,-167 433.5,-167"/>
<text text-anchor="start" x="436.5" y="-175.2" font-family="Helvetica,sans-Serif" font-size="11.00">varchar[2147483647]</text>
<polygon fill="#ffffff" stroke="none" points="199.5,-145 199.5,-167 433.5,-167 433.5,-145 199.5,-145"/>
<polygon fill="none" stroke="black" points="199.5,-145 199.5,-167 433.5,-167 433.5,-145 199.5,-145"/>
<image xlink:href="../../images/foreignKeys.png" width="11px" height="12px" preserveAspectRatio="xMinYMin meet" x="204.5" y="-162"/>
<text text-anchor="start" x="219.5" y="-153.2" font-family="Helvetica,sans-Serif" font-size="11.00">time_profile_id</text>
<polygon fill="none" stroke="black" points="433.5,-145 433.5,-167 554.5,-167 554.5,-145 433.5,-145"/>
<text text-anchor="start" x="436.5" y="-153.2" font-family="Helvetica,sans-Serif" font-size="11.00">int8[19]</text>
<polygon fill="none" stroke="black" points="199.5,-123 199.5,-145 433.5,-145 433.5,-123 199.5,-123"/>
<text text-anchor="start" x="219.5" y="-131.2" font-family="Helvetica,sans-Serif" font-size="11.00">created_at</text>
<polygon fill="none" stroke="black" points="433.5,-123 433.5,-145 554.5,-145 554.5,-123 433.5,-123"/>
<text text-anchor="start" x="436.5" y="-131.2" font-family="Helvetica,sans-Serif" font-size="11.00">timestamp[29,6]</text>
<polygon fill="none" stroke="black" points="199.5,-101 199.5,-123 433.5,-123 433.5,-101 199.5,-101"/>
<text text-anchor="start" x="219.5" y="-109.2" font-family="Helvetica,sans-Serif" font-size="11.00">updated_at</text>
<polygon fill="none" stroke="black" points="433.5,-101 433.5,-123 554.5,-123 554.5,-101 433.5,-101"/>
<text text-anchor="start" x="436.5" y="-109.2" font-family="Helvetica,sans-Serif" font-size="11.00">timestamp[29,6]</text>
<polygon fill="none" stroke="black" points="199.5,-79 199.5,-101 433.5,-101 433.5,-79 199.5,-79"/>
<text text-anchor="start" x="219.5" y="-87.2" font-family="Helvetica,sans-Serif" font-size="11.00">values</text>
<polygon fill="none" stroke="black" points="433.5,-79 433.5,-101 554.5,-101 554.5,-79 433.5,-79"/>
<text text-anchor="start" x="436.5" y="-87.2" font-family="Helvetica,sans-Serif" font-size="11.00">text[2147483647]</text>
<polygon fill="none" stroke="black" points="199.5,-57 199.5,-79 433.5,-79 433.5,-57 199.5,-57"/>
<text text-anchor="start" x="219.5" y="-65.2" font-family="Helvetica,sans-Serif" font-size="11.00">days</text>
<polygon fill="none" stroke="black" points="433.5,-57 433.5,-79 554.5,-79 554.5,-57 433.5,-57"/>
<text text-anchor="start" x="436.5" y="-65.2" font-family="Helvetica,sans-Serif" font-size="11.00">int4[10]</text>
<polygon fill="#ffffff" stroke="none" points="199.5,-39 199.5,-57 321.5,-57 321.5,-39 199.5,-39"/>
<polygon fill="none" stroke="black" points="199.5,-39 199.5,-57 321.5,-57 321.5,-39 199.5,-39"/>
<text text-anchor="start" x="202.5" y="-45.2" font-family="Helvetica,sans-Serif" font-size="11.00">&lt; 1</text>
<polygon fill="#ffffff" stroke="none" points="321.5,-39 321.5,-57 433.5,-57 433.5,-39 321.5,-39"/>
<polygon fill="none" stroke="black" points="321.5,-39 321.5,-57 433.5,-57 433.5,-39 321.5,-39"/>
<text text-anchor="start" x="423.5" y="-45.2" font-family="Helvetica,sans-Serif" font-size="11.00"> &#160;</text>
<polygon fill="#ffffff" stroke="none" points="433.5,-39 433.5,-57 554.5,-57 554.5,-39 433.5,-39"/>
<polygon fill="none" stroke="black" points="433.5,-39 433.5,-57 554.5,-57 554.5,-39 433.5,-39"/>
<text text-anchor="start" x="534.5" y="-45.2" font-family="Helvetica,sans-Serif" font-size="11.00">0 &gt;</text>
<polygon fill="none" stroke="black" stroke-width="2" points="198,-38 198,-256 555,-256 555,-38 198,-38"/>
</a>
</g>
</g>
<!-- time_profiles -->
<g id="node2" class="node"><title>time_profiles</title>
<g id="a_node2"><a xlink:href="../../tables/time_profiles.html" xlink:title="time_profiles" target="_top">
<polygon fill="#ffffff" stroke="none" points="8,-109 8,-189 148,-189 148,-109 8,-109"/>
<polygon fill="#f5f5f5" stroke="none" points="8,-167 8,-189 148,-189 148,-167 8,-167"/>
<polygon fill="none" stroke="black" points="8,-167 8,-189 148,-189 148,-167 8,-167"/>
<text text-anchor="start" x="13" y="-176.2" font-family="Helvetica,sans-Serif" font-weight="bold" font-size="11.00">time_profiles</text>
<text text-anchor="start" x="109" y="-175.2" font-family="Helvetica,sans-Serif" font-size="11.00">[table]</text>
<polygon fill="none" stroke="black" points="8,-145 8,-167 148,-167 148,-145 8,-145"/>
<image xlink:href="../../images/primaryKeys.png" width="11px" height="12px" preserveAspectRatio="xMinYMin meet" x="13" y="-162"/>
<text text-anchor="start" x="28" y="-153.2" font-family="Helvetica,sans-Serif" font-size="11.00">id</text>
<polygon fill="none" stroke="black" points="8,-127 8,-145 148,-145 148,-127 8,-127"/>
<text text-anchor="start" x="11" y="-133.2" font-family="Helvetica,sans-Serif" font-size="11.00">...</text>
<polygon fill="#ffffff" stroke="none" points="8,-109 8,-127 63,-127 63,-109 8,-109"/>
<polygon fill="none" stroke="black" points="8,-109 8,-127 63,-127 63,-109 8,-109"/>
<text text-anchor="start" x="11" y="-115.2" font-family="Helvetica,sans-Serif" font-size="11.00"> &#160;</text>
<polygon fill="#ffffff" stroke="none" points="63,-109 63,-127 97,-127 97,-109 63,-109"/>
<polygon fill="none" stroke="black" points="63,-109 63,-127 97,-127 97,-109 63,-109"/>
<text text-anchor="start" x="87" y="-115.2" font-family="Helvetica,sans-Serif" font-size="11.00"> &#160;</text>
<polygon fill="#ffffff" stroke="none" points="97,-109 97,-127 148,-127 148,-109 97,-109"/>
<polygon fill="none" stroke="black" points="97,-109 97,-127 148,-127 148,-109 97,-109"/>
<text text-anchor="start" x="121" y="-115.2" font-family="Helvetica,sans-Serif" font-size="11.00">40 &gt;</text>
</a>
</g>
</g>
<!-- vim_performance_operating_ranges&#45;&gt;time_profiles -->
<g id="edge1" class="edge"><title>vim_performance_operating_ranges:time_profile_id:w&#45;&gt;time_profiles:id:e</title>
<path fill="none" stroke="black" d="M183.843,-156C172.414,-156 165.156,-156 149,-156"/>
<polygon fill="black" stroke="black" points="190.5,-156 198.5,-159.6 194.5,-156 198.5,-156 198.5,-156 198.5,-156 194.5,-156 198.5,-152.4 190.5,-156 190.5,-156"/>
<ellipse fill="none" stroke="black" cx="187.3" cy="-156" rx="3.2" ry="3.2"/>
</g>
</g>
</svg>
