<?xml version="1.0" encoding="UTF-8" standalone="no"?>
<!DOCTYPE svg PUBLIC "-//W3C//DTD SVG 1.1//EN"
 "http://www.w3.org/Graphics/SVG/1.1/DTD/svg11.dtd">
<!-- Generated by graphviz version 2.38.0 (20140413.2041)
 -->
<!-- Title: oneDegreeRelationshipsDiagram Pages: 1 -->
<svg width="462pt" height="373pt"
 viewBox="0.00 0.00 462.00 373.00" xmlns="http://www.w3.org/2000/svg" xmlns:xlink="http://www.w3.org/1999/xlink">
<g id="graph0" class="graph" transform="scale(1 1) rotate(0) translate(4 369)">
<title>oneDegreeRelationshipsDiagram</title>
<polygon fill="#ffffff" stroke="none" points="-4,4 -4,-369 458,-369 458,4 -4,4"/>
<text text-anchor="middle" x="74.5" y="-7.2" font-family="Helvetica,sans-Serif" font-size="11.00">Generated by SchemaSpy</text>
<!-- volumes -->
<g id="node1" class="node"><title>volumes</title>
<g id="a_node1"><a xlink:href="../../tables/volumes.html" xlink:title="volumes" target="_top">
<polygon fill="#ffffff" stroke="none" points="216,-53 216,-361 446,-361 446,-53 216,-53"/>
<polygon fill="#f5f5f5" stroke="none" points="218,-337 218,-359 444,-359 444,-337 218,-337"/>
<polygon fill="none" stroke="black" points="218,-337 218,-359 444,-359 444,-337 218,-337"/>
<text text-anchor="start" x="223" y="-346.2" font-family="Helvetica,sans-Serif" font-weight="bold" font-size="11.00">volumes</text>
<text text-anchor="start" x="405" y="-345.2" font-family="Helvetica,sans-Serif" font-size="11.00">[table]</text>
<polygon fill="none" stroke="black" points="218,-315 218,-337 323,-337 323,-315 218,-315"/>
<image xlink:href="../../images/primaryKeys.png" width="11px" height="12px" preserveAspectRatio="xMinYMin meet" x="223" y="-332"/>
<text text-anchor="start" x="238" y="-323.2" font-family="Helvetica,sans-Serif" font-size="11.00">id</text>
<polygon fill="none" stroke="black" points="323,-315 323,-337 444,-337 444,-315 323,-315"/>
<text text-anchor="start" x="326" y="-323.2" font-family="Helvetica,sans-Serif" font-size="11.00">bigserial[19]</text>
<polygon fill="none" stroke="black" points="218,-293 218,-315 323,-315 323,-293 218,-293"/>
<text text-anchor="start" x="238" y="-301.2" font-family="Helvetica,sans-Serif" font-size="11.00">name</text>
<polygon fill="none" stroke="black" points="323,-293 323,-315 444,-315 444,-293 323,-293"/>
<text text-anchor="start" x="326" y="-301.2" font-family="Helvetica,sans-Serif" font-size="11.00">varchar[2147483647]</text>
<polygon fill="none" stroke="black" points="218,-271 218,-293 323,-293 323,-271 218,-271"/>
<text text-anchor="start" x="238" y="-279.2" font-family="Helvetica,sans-Serif" font-size="11.00">typ</text>
<polygon fill="none" stroke="black" points="323,-271 323,-293 444,-293 444,-271 323,-271"/>
<text text-anchor="start" x="326" y="-279.2" font-family="Helvetica,sans-Serif" font-size="11.00">varchar[2147483647]</text>
<polygon fill="none" stroke="black" points="218,-249 218,-271 323,-271 323,-249 218,-249"/>
<text text-anchor="start" x="238" y="-257.2" font-family="Helvetica,sans-Serif" font-size="11.00">filesystem</text>
<polygon fill="none" stroke="black" points="323,-249 323,-271 444,-271 444,-249 323,-249"/>
<text text-anchor="start" x="326" y="-257.2" font-family="Helvetica,sans-Serif" font-size="11.00">varchar[2147483647]</text>
<polygon fill="none" stroke="black" points="218,-227 218,-249 323,-249 323,-227 218,-227"/>
<text text-anchor="start" x="238" y="-235.2" font-family="Helvetica,sans-Serif" font-size="11.00">created_on</text>
<polygon fill="none" stroke="black" points="323,-227 323,-249 444,-249 444,-227 323,-227"/>
<text text-anchor="start" x="326" y="-235.2" font-family="Helvetica,sans-Serif" font-size="11.00">timestamp[29,6]</text>
<polygon fill="none" stroke="black" points="218,-205 218,-227 323,-227 323,-205 218,-205"/>
<text text-anchor="start" x="238" y="-213.2" font-family="Helvetica,sans-Serif" font-size="11.00">updated_on</text>
<polygon fill="none" stroke="black" points="323,-205 323,-227 444,-227 444,-205 323,-205"/>
<text text-anchor="start" x="326" y="-213.2" font-family="Helvetica,sans-Serif" font-size="11.00">timestamp[29,6]</text>
<polygon fill="#ffffff" stroke="none" points="218,-183 218,-205 323,-205 323,-183 218,-183"/>
<polygon fill="none" stroke="black" points="218,-183 218,-205 323,-205 323,-183 218,-183"/>
<image xlink:href="../../images/foreignKeys.png" width="11px" height="12px" preserveAspectRatio="xMinYMin meet" x="223" y="-200"/>
<text text-anchor="start" x="238" y="-191.2" font-family="Helvetica,sans-Serif" font-size="11.00">hardware_id</text>
<polygon fill="none" stroke="black" points="323,-183 323,-205 444,-205 444,-183 323,-183"/>
<text text-anchor="start" x="326" y="-191.2" font-family="Helvetica,sans-Serif" font-size="11.00">int8[19]</text>
<polygon fill="#ffffff" stroke="none" points="218,-161 218,-183 323,-183 323,-161 218,-161"/>
<polygon fill="none" stroke="black" points="218,-161 218,-183 323,-183 323,-161 218,-161"/>
<text text-anchor="start" x="238" y="-169.2" font-family="Helvetica,sans-Serif" font-size="11.00">volume_group</text>
<polygon fill="none" stroke="black" points="323,-161 323,-183 444,-183 444,-161 323,-161"/>
<text text-anchor="start" x="326" y="-169.2" font-family="Helvetica,sans-Serif" font-size="11.00">varchar[2147483647]</text>
<polygon fill="none" stroke="black" points="218,-139 218,-161 323,-161 323,-139 218,-139"/>
<text text-anchor="start" x="238" y="-147.2" font-family="Helvetica,sans-Serif" font-size="11.00">uid</text>
<polygon fill="none" stroke="black" points="323,-139 323,-161 444,-161 444,-139 323,-139"/>
<text text-anchor="start" x="326" y="-147.2" font-family="Helvetica,sans-Serif" font-size="11.00">varchar[2147483647]</text>
<polygon fill="none" stroke="black" points="218,-117 218,-139 323,-139 323,-117 218,-117"/>
<text text-anchor="start" x="238" y="-125.2" font-family="Helvetica,sans-Serif" font-size="11.00">size</text>
<polygon fill="none" stroke="black" points="323,-117 323,-139 444,-139 444,-117 323,-117"/>
<text text-anchor="start" x="326" y="-125.2" font-family="Helvetica,sans-Serif" font-size="11.00">int8[19]</text>
<polygon fill="none" stroke="black" points="218,-95 218,-117 323,-117 323,-95 218,-95"/>
<text text-anchor="start" x="238" y="-103.2" font-family="Helvetica,sans-Serif" font-size="11.00">free_space</text>
<polygon fill="none" stroke="black" points="323,-95 323,-117 444,-117 444,-95 323,-95"/>
<text text-anchor="start" x="326" y="-103.2" font-family="Helvetica,sans-Serif" font-size="11.00">int8[19]</text>
<polygon fill="none" stroke="black" points="218,-73 218,-95 323,-95 323,-73 218,-73"/>
<text text-anchor="start" x="238" y="-81.2" font-family="Helvetica,sans-Serif" font-size="11.00">used_space</text>
<polygon fill="none" stroke="black" points="323,-73 323,-95 444,-95 444,-73 323,-73"/>
<text text-anchor="start" x="326" y="-81.2" font-family="Helvetica,sans-Serif" font-size="11.00">int8[19]</text>
<polygon fill="#ffffff" stroke="none" points="218,-55 218,-73 275,-73 275,-55 218,-55"/>
<polygon fill="none" stroke="black" points="218,-55 218,-73 275,-73 275,-55 218,-55"/>
<text text-anchor="start" x="221" y="-61.2" font-family="Helvetica,sans-Serif" font-size="11.00">&lt; 1</text>
<polygon fill="#ffffff" stroke="none" points="275,-55 275,-73 323,-73 323,-55 275,-55"/>
<polygon fill="none" stroke="black" points="275,-55 275,-73 323,-73 323,-55 275,-55"/>
<text text-anchor="start" x="313" y="-61.2" font-family="Helvetica,sans-Serif" font-size="11.00"> &#160;</text>
<polygon fill="#ffffff" stroke="none" points="323,-55 323,-73 444,-73 444,-55 323,-55"/>
<polygon fill="none" stroke="black" points="323,-55 323,-73 444,-73 444,-55 323,-55"/>
<text text-anchor="start" x="424" y="-61.2" font-family="Helvetica,sans-Serif" font-size="11.00">0 &gt;</text>
<polygon fill="none" stroke="black" stroke-width="2" points="217,-54 217,-360 445,-360 445,-54 217,-54"/>
</a>
</g>
</g>
<!-- hardwares -->
<g id="node2" class="node"><title>hardwares</title>
<g id="a_node2"><a xlink:href="../../tables/hardwares.html" xlink:title="hardwares" target="_top">
<polygon fill="#ffffff" stroke="none" points="8,-37 8,-227 167,-227 167,-37 8,-37"/>
<polygon fill="#f5f5f5" stroke="none" points="8.5,-205 8.5,-227 167.5,-227 167.5,-205 8.5,-205"/>
<polygon fill="none" stroke="black" points="8.5,-205 8.5,-227 167.5,-227 167.5,-205 8.5,-205"/>
<text text-anchor="start" x="13.5" y="-214.2" font-family="Helvetica,sans-Serif" font-weight="bold" font-size="11.00">hardwares</text>
<text text-anchor="start" x="128.5" y="-213.2" font-family="Helvetica,sans-Serif" font-size="11.00">[table]</text>
<polygon fill="none" stroke="black" points="8.5,-183 8.5,-205 167.5,-205 167.5,-183 8.5,-183"/>
<image xlink:href="../../images/primaryKeys.png" width="11px" height="12px" preserveAspectRatio="xMinYMin meet" x="13.5" y="-200"/>
<text text-anchor="start" x="28.5" y="-191.2" font-family="Helvetica,sans-Serif" font-size="11.00">id</text>
<polygon fill="#ffffff" stroke="none" points="8.5,-161 8.5,-183 167.5,-183 167.5,-161 8.5,-161"/>
<polygon fill="none" stroke="black" points="8.5,-161 8.5,-183 167.5,-183 167.5,-161 8.5,-161"/>
<text text-anchor="start" x="28.5" y="-169.2" font-family="Helvetica,sans-Serif" font-size="11.00">vm_or_template_id</text>
<polygon fill="#ffffff" stroke="none" points="8.5,-139 8.5,-161 167.5,-161 167.5,-139 8.5,-139"/>
<polygon fill="none" stroke="black" points="8.5,-139 8.5,-161 167.5,-161 167.5,-139 8.5,-139"/>
<image xlink:href="../../images/foreignKeys.png" width="11px" height="12px" preserveAspectRatio="xMinYMin meet" x="13.5" y="-156"/>
<text text-anchor="start" x="28.5" y="-147.2" font-family="Helvetica,sans-Serif" font-size="11.00">host_id</text>
<polygon fill="#ffffff" stroke="none" points="8.5,-117 8.5,-139 167.5,-139 167.5,-117 8.5,-117"/>
<polygon fill="none" stroke="black" points="8.5,-117 8.5,-139 167.5,-139 167.5,-117 8.5,-117"/>
<image xlink:href="../../images/foreignKeys.png" width="11px" height="12px" preserveAspectRatio="xMinYMin meet" x="13.5" y="-134"/>
<text text-anchor="start" x="28.5" y="-125.2" font-family="Helvetica,sans-Serif" font-size="11.00">computer_system_id</text>
<polygon fill="none" stroke="black" points="8.5,-95 8.5,-117 167.5,-117 167.5,-95 8.5,-95"/>
<image xlink:href="../../images/foreignKeys.png" width="11px" height="12px" preserveAspectRatio="xMinYMin meet" x="13.5" y="-112"/>
<text text-anchor="start" x="28.5" y="-103.2" font-family="Helvetica,sans-Serif" font-size="11.00">switch_id</text>
<polygon fill="none" stroke="black" points="8.5,-73 8.5,-95 167.5,-95 167.5,-73 8.5,-73"/>
<image xlink:href="../../images/foreignKeys.png" width="11px" height="12px" preserveAspectRatio="xMinYMin meet" x="13.5" y="-90"/>
<text text-anchor="start" x="28.5" y="-81.2" font-family="Helvetica,sans-Serif" font-size="11.00">canister_id</text>
<polygon fill="none" stroke="black" points="8.5,-55 8.5,-73 167.5,-73 167.5,-55 8.5,-55"/>
<text text-anchor="start" x="11.5" y="-61.2" font-family="Helvetica,sans-Serif" font-size="11.00">...</text>
<polygon fill="#ffffff" stroke="none" points="8.5,-37 8.5,-55 81.5,-55 81.5,-37 8.5,-37"/>
<polygon fill="none" stroke="black" points="8.5,-37 8.5,-55 81.5,-55 81.5,-37 8.5,-37"/>
<text text-anchor="start" x="11.5" y="-43.2" font-family="Helvetica,sans-Serif" font-size="11.00">&lt; 4</text>
<polygon fill="#ffffff" stroke="none" points="81.5,-37 81.5,-55 119.5,-55 119.5,-37 81.5,-37"/>
<polygon fill="none" stroke="black" points="81.5,-37 81.5,-55 119.5,-55 119.5,-37 81.5,-37"/>
<text text-anchor="start" x="109.5" y="-43.2" font-family="Helvetica,sans-Serif" font-size="11.00"> &#160;</text>
<polygon fill="#ffffff" stroke="none" points="119.5,-37 119.5,-55 167.5,-55 167.5,-37 119.5,-37"/>
<polygon fill="none" stroke="black" points="119.5,-37 119.5,-55 167.5,-55 167.5,-37 119.5,-37"/>
<text text-anchor="start" x="147.5" y="-43.2" font-family="Helvetica,sans-Serif" font-size="11.00">5 &gt;</text>
</a>
</g>
</g>
<!-- volumes&#45;&gt;hardwares -->
<g id="edge1" class="edge"><title>volumes:hardware_id:w&#45;&gt;hardwares:id:e</title>
<path fill="none" stroke="black" d="M202.283,-194C191.289,-194 184.161,-194 168.5,-194"/>
<polygon fill="black" stroke="black" points="209,-194 217,-197.6 213,-194 217,-194 217,-194 217,-194 213,-194 217,-190.4 209,-194 209,-194"/>
<ellipse fill="none" stroke="black" cx="205.8" cy="-194" rx="3.2" ry="3.2"/>
</g>
</g>
</svg>
