<?xml version="1.0" encoding="UTF-8" standalone="no"?>
<!DOCTYPE svg PUBLIC "-//W3C//DTD SVG 1.1//EN"
 "http://www.w3.org/Graphics/SVG/1.1/DTD/svg11.dtd">
<!-- Generated by graphviz version 2.38.0 (20140413.2041)
 -->
<!-- Title: twoDegreesRelationshipsDiagram Pages: 1 -->
<svg width="704pt" height="484pt"
 viewBox="0.00 0.00 704.00 484.00" xmlns="http://www.w3.org/2000/svg" xmlns:xlink="http://www.w3.org/1999/xlink">
<g id="graph0" class="graph" transform="scale(1 1) rotate(0) translate(4 480)">
<title>twoDegreesRelationshipsDiagram</title>
<polygon fill="#ffffff" stroke="none" points="-4,4 -4,-480 700,-480 700,4 -4,4"/>
<text text-anchor="middle" x="74.5" y="-7.2" font-family="Helvetica,sans-Serif" font-size="11.00">Generated by SchemaSpy</text>
<!-- customization_templates -->
<g id="node1" class="node"><title>customization_templates</title>
<g id="a_node1"><a xlink:href="../../tables/customization_templates.html" xlink:title="customization_templates" target="_top">
<polygon fill="#ffffff" stroke="none" points="463.5,-195 463.5,-253 656.5,-253 656.5,-195 463.5,-195"/>
<polygon fill="#f5f5f5" stroke="none" points="464,-231 464,-253 657,-253 657,-231 464,-231"/>
<polygon fill="none" stroke="black" points="464,-231 464,-253 657,-253 657,-231 464,-231"/>
<text text-anchor="start" x="469" y="-240.2" font-family="Helvetica,sans-Serif" font-weight="bold" font-size="11.00">customization_templates</text>
<text text-anchor="start" x="618" y="-239.2" font-family="Helvetica,sans-Serif" font-size="11.00">[table]</text>
<polygon fill="none" stroke="black" points="464,-213 464,-231 657,-231 657,-213 464,-213"/>
<text text-anchor="start" x="467" y="-219.2" font-family="Helvetica,sans-Serif" font-size="11.00">...</text>
<polygon fill="#ffffff" stroke="none" points="464,-195 464,-213 559,-213 559,-195 464,-195"/>
<polygon fill="none" stroke="black" points="464,-195 464,-213 559,-213 559,-195 464,-195"/>
<text text-anchor="start" x="467" y="-201.2" font-family="Helvetica,sans-Serif" font-size="11.00">&lt; 1</text>
<polygon fill="#ffffff" stroke="none" points="559,-195 559,-213 608,-213 608,-195 559,-195"/>
<polygon fill="none" stroke="black" points="559,-195 559,-213 608,-213 608,-195 559,-195"/>
<text text-anchor="start" x="598" y="-201.2" font-family="Helvetica,sans-Serif" font-size="11.00"> &#160;</text>
<polygon fill="#ffffff" stroke="none" points="608,-195 608,-213 657,-213 657,-195 608,-195"/>
<polygon fill="none" stroke="black" points="608,-195 608,-213 657,-213 657,-195 608,-195"/>
<text text-anchor="start" x="647" y="-201.2" font-family="Helvetica,sans-Serif" font-size="11.00"> &#160;</text>
</a>
</g>
</g>
<!-- pxe_image_types -->
<g id="node2" class="node"><title>pxe_image_types</title>
<g id="a_node2"><a xlink:href="../../tables/pxe_image_types.html" xlink:title="pxe_image_types" target="_top">
<polygon fill="#ffffff" stroke="none" points="238,-171 238,-251 383,-251 383,-171 238,-171"/>
<polygon fill="#f5f5f5" stroke="none" points="238.5,-229 238.5,-251 383.5,-251 383.5,-229 238.5,-229"/>
<polygon fill="none" stroke="black" points="238.5,-229 238.5,-251 383.5,-251 383.5,-229 238.5,-229"/>
<text text-anchor="start" x="243.5" y="-238.2" font-family="Helvetica,sans-Serif" font-weight="bold" font-size="11.00">pxe_image_types</text>
<text text-anchor="start" x="344.5" y="-237.2" font-family="Helvetica,sans-Serif" font-size="11.00">[table]</text>
<polygon fill="none" stroke="black" points="238.5,-207 238.5,-229 383.5,-229 383.5,-207 238.5,-207"/>
<image xlink:href="../../images/primaryKeys.png" width="11px" height="12px" preserveAspectRatio="xMinYMin meet" x="243.5" y="-224"/>
<text text-anchor="start" x="270.5" y="-215.2" font-family="Helvetica,sans-Serif" font-size="11.00">id</text>
<polygon fill="none" stroke="black" points="238.5,-189 238.5,-207 383.5,-207 383.5,-189 238.5,-189"/>
<text text-anchor="start" x="241.5" y="-195.2" font-family="Helvetica,sans-Serif" font-size="11.00">...</text>
<polygon fill="#ffffff" stroke="none" points="238.5,-171 238.5,-189 299.5,-189 299.5,-171 238.5,-171"/>
<polygon fill="none" stroke="black" points="238.5,-171 238.5,-189 299.5,-189 299.5,-171 238.5,-171"/>
<text text-anchor="start" x="241.5" y="-177.2" font-family="Helvetica,sans-Serif" font-size="11.00"> &#160;</text>
<polygon fill="#ffffff" stroke="none" points="299.5,-171 299.5,-189 336.5,-189 336.5,-171 299.5,-171"/>
<polygon fill="none" stroke="black" points="299.5,-171 299.5,-189 336.5,-189 336.5,-171 299.5,-171"/>
<text text-anchor="start" x="326.5" y="-177.2" font-family="Helvetica,sans-Serif" font-size="11.00"> &#160;</text>
<polygon fill="#ffffff" stroke="none" points="336.5,-171 336.5,-189 383.5,-189 383.5,-171 336.5,-171"/>
<polygon fill="none" stroke="black" points="336.5,-171 336.5,-189 383.5,-189 383.5,-171 336.5,-171"/>
<text text-anchor="start" x="363.5" y="-177.2" font-family="Helvetica,sans-Serif" font-size="11.00">4 &gt;</text>
</a>
</g>
</g>
<!-- customization_templates&#45;&gt;pxe_image_types -->
<g id="edge1" class="edge"><title>customization_templates:elipses:w&#45;&gt;pxe_image_types:id:e</title>
<path fill="none" stroke="black" d="M448.35,-221.738C424.726,-220.848 413.976,-218 384.5,-218"/>
<polygon fill="black" stroke="black" points="455.001,-221.857 462.935,-225.599 459.001,-221.928 463,-222 463,-222 463,-222 459.001,-221.928 463.065,-218.401 455.001,-221.857 455.001,-221.857"/>
<ellipse fill="none" stroke="black" cx="451.802" cy="-221.799" rx="3.2" ry="3.2"/>
</g>
<!-- iso_images -->
<g id="node3" class="node"><title>iso_images</title>
<g id="a_node3"><a xlink:href="../../tables/iso_images.html" xlink:title="iso_images" target="_top">
<polygon fill="#ffffff" stroke="none" points="505.5,-116 505.5,-174 614.5,-174 614.5,-116 505.5,-116"/>
<polygon fill="#f5f5f5" stroke="none" points="506,-152 506,-174 615,-174 615,-152 506,-152"/>
<polygon fill="none" stroke="black" points="506,-152 506,-174 615,-174 615,-152 506,-152"/>
<text text-anchor="start" x="511" y="-161.2" font-family="Helvetica,sans-Serif" font-weight="bold" font-size="11.00">iso_images</text>
<text text-anchor="start" x="576" y="-160.2" font-family="Helvetica,sans-Serif" font-size="11.00">[table]</text>
<polygon fill="none" stroke="black" points="506,-134 506,-152 615,-152 615,-134 506,-134"/>
<text text-anchor="start" x="509" y="-140.2" font-family="Helvetica,sans-Serif" font-size="11.00">...</text>
<polygon fill="#ffffff" stroke="none" points="506,-116 506,-134 559,-134 559,-116 506,-116"/>
<polygon fill="none" stroke="black" points="506,-116 506,-134 559,-134 559,-116 506,-116"/>
<text text-anchor="start" x="509" y="-122.2" font-family="Helvetica,sans-Serif" font-size="11.00">&lt; 2</text>
<polygon fill="#ffffff" stroke="none" points="559,-116 559,-134 587,-134 587,-116 559,-116"/>
<polygon fill="none" stroke="black" points="559,-116 559,-134 587,-134 587,-116 559,-116"/>
<text text-anchor="start" x="577" y="-122.2" font-family="Helvetica,sans-Serif" font-size="11.00"> &#160;</text>
<polygon fill="#ffffff" stroke="none" points="587,-116 587,-134 615,-134 615,-116 587,-116"/>
<polygon fill="none" stroke="black" points="587,-116 587,-134 615,-134 615,-116 587,-116"/>
<text text-anchor="start" x="605" y="-122.2" font-family="Helvetica,sans-Serif" font-size="11.00"> &#160;</text>
</a>
</g>
</g>
<!-- iso_images&#45;&gt;pxe_image_types -->
<g id="edge2" class="edge"><title>iso_images:elipses:w&#45;&gt;pxe_image_types:id:e</title>
<path fill="none" stroke="black" d="M490.492,-143.995C462.194,-148.24 453.276,-165.518 424,-185 404.955,-197.673 407.376,-218 384.5,-218"/>
<polygon fill="black" stroke="black" points="497.019,-143.547 505.246,-146.592 501.009,-143.274 505,-143 505,-143 505,-143 501.009,-143.274 504.754,-139.408 497.019,-143.547 497.019,-143.547"/>
<ellipse fill="none" stroke="black" cx="493.826" cy="-143.766" rx="3.2" ry="3.2"/>
</g>
<!-- pxe_images -->
<g id="node4" class="node"><title>pxe_images</title>
<g id="a_node4"><a xlink:href="../../tables/pxe_images.html" xlink:title="pxe_images" target="_top">
<polygon fill="#ffffff" stroke="none" points="503,-37 503,-95 617,-95 617,-37 503,-37"/>
<polygon fill="#f5f5f5" stroke="none" points="503,-73 503,-95 617,-95 617,-73 503,-73"/>
<polygon fill="none" stroke="black" points="503,-73 503,-95 617,-95 617,-73 503,-73"/>
<text text-anchor="start" x="508" y="-82.2" font-family="Helvetica,sans-Serif" font-weight="bold" font-size="11.00">pxe_images</text>
<text text-anchor="start" x="578" y="-81.2" font-family="Helvetica,sans-Serif" font-size="11.00">[table]</text>
<polygon fill="none" stroke="black" points="503,-55 503,-73 617,-73 617,-55 503,-55"/>
<text text-anchor="start" x="506" y="-61.2" font-family="Helvetica,sans-Serif" font-size="11.00">...</text>
<polygon fill="#ffffff" stroke="none" points="503,-37 503,-55 558,-55 558,-37 503,-37"/>
<polygon fill="none" stroke="black" points="503,-37 503,-55 558,-55 558,-37 503,-37"/>
<text text-anchor="start" x="506" y="-43.2" font-family="Helvetica,sans-Serif" font-size="11.00">&lt; 3</text>
<polygon fill="#ffffff" stroke="none" points="558,-37 558,-55 587,-55 587,-37 558,-37"/>
<polygon fill="none" stroke="black" points="558,-37 558,-55 587,-55 587,-37 558,-37"/>
<text text-anchor="start" x="577" y="-43.2" font-family="Helvetica,sans-Serif" font-size="11.00"> &#160;</text>
<polygon fill="#ffffff" stroke="none" points="587,-37 587,-55 617,-55 617,-37 587,-37"/>
<polygon fill="none" stroke="black" points="587,-37 587,-55 617,-55 617,-37 587,-37"/>
<text text-anchor="start" x="607" y="-43.2" font-family="Helvetica,sans-Serif" font-size="11.00"> &#160;</text>
</a>
</g>
</g>
<!-- pxe_images&#45;&gt;pxe_image_types -->
<g id="edge3" class="edge"><title>pxe_images:elipses:w&#45;&gt;pxe_image_types:id:e</title>
<path fill="none" stroke="black" d="M487.229,-64.6925C458.831,-67.6387 446.103,-80.1782 424,-106 389.676,-146.099 437.283,-218 384.5,-218"/>
<polygon fill="black" stroke="black" points="494.009,-64.3747 502.169,-67.596 498.004,-64.1874 502,-64 502,-64 502,-64 498.004,-64.1874 501.831,-60.404 494.009,-64.3747 494.009,-64.3747"/>
<ellipse fill="none" stroke="black" cx="490.812" cy="-64.5246" rx="3.2" ry="3.2"/>
</g>
<!-- pxe_menus -->
<g id="node5" class="node"><title>pxe_menus</title>
<g id="a_node5"><a xlink:href="../../tables/pxe_menus.html" xlink:title="pxe_menus" target="_top">
<polygon fill="#ffffff" stroke="none" points="254.5,-88 254.5,-146 366.5,-146 366.5,-88 254.5,-88"/>
<polygon fill="#f5f5f5" stroke="none" points="254.5,-124 254.5,-146 366.5,-146 366.5,-124 254.5,-124"/>
<polygon fill="none" stroke="black" points="254.5,-124 254.5,-146 366.5,-146 366.5,-124 254.5,-124"/>
<text text-anchor="start" x="259.5" y="-133.2" font-family="Helvetica,sans-Serif" font-weight="bold" font-size="11.00">pxe_menus</text>
<text text-anchor="start" x="327.5" y="-132.2" font-family="Helvetica,sans-Serif" font-size="11.00">[table]</text>
<polygon fill="none" stroke="black" points="254.5,-106 254.5,-124 366.5,-124 366.5,-106 254.5,-106"/>
<text text-anchor="start" x="257.5" y="-112.2" font-family="Helvetica,sans-Serif" font-size="11.00">...</text>
<polygon fill="#ffffff" stroke="none" points="254.5,-88 254.5,-106 303.5,-106 303.5,-88 254.5,-88"/>
<polygon fill="none" stroke="black" points="254.5,-88 254.5,-106 303.5,-106 303.5,-88 254.5,-88"/>
<text text-anchor="start" x="257.5" y="-94.2" font-family="Helvetica,sans-Serif" font-size="11.00">&lt; 1</text>
<polygon fill="#ffffff" stroke="none" points="303.5,-88 303.5,-106 329.5,-106 329.5,-88 303.5,-88"/>
<polygon fill="none" stroke="black" points="303.5,-88 303.5,-106 329.5,-106 329.5,-88 303.5,-88"/>
<text text-anchor="start" x="319.5" y="-94.2" font-family="Helvetica,sans-Serif" font-size="11.00"> &#160;</text>
<polygon fill="#ffffff" stroke="none" points="329.5,-88 329.5,-106 366.5,-106 366.5,-88 329.5,-88"/>
<polygon fill="none" stroke="black" points="329.5,-88 329.5,-106 366.5,-106 366.5,-88 329.5,-88"/>
<text text-anchor="start" x="346.5" y="-94.2" font-family="Helvetica,sans-Serif" font-size="11.00">1 &gt;</text>
</a>
</g>
</g>
<!-- pxe_images&#45;&gt;pxe_menus -->
<g id="edge4" class="edge"><title>pxe_images:elipses:w&#45;&gt;pxe_menus:elipses:e</title>
<path fill="none" stroke="black" d="M487.36,-64.9733C436.594,-72.024 426.187,-115 367.5,-115"/>
<polygon fill="black" stroke="black" points="494.018,-64.5307 502.239,-67.5921 498.009,-64.2654 502,-64 502,-64 502,-64 498.009,-64.2654 501.761,-60.4079 494.018,-64.5307 494.018,-64.5307"/>
<ellipse fill="none" stroke="black" cx="490.825" cy="-64.743" rx="3.2" ry="3.2"/>
</g>
<!-- pxe_servers -->
<g id="node6" class="node"><title>pxe_servers</title>
<g id="a_node6"><a xlink:href="../../tables/pxe_servers.html" xlink:title="pxe_servers" target="_top">
<polygon fill="#ffffff" stroke="none" points="8,-68 8,-148 189,-148 189,-68 8,-68"/>
<polygon fill="#f5f5f5" stroke="none" points="8.5,-126 8.5,-148 189.5,-148 189.5,-126 8.5,-126"/>
<polygon fill="none" stroke="black" points="8.5,-126 8.5,-148 189.5,-148 189.5,-126 8.5,-126"/>
<text text-anchor="start" x="13.5" y="-135.2" font-family="Helvetica,sans-Serif" font-weight="bold" font-size="11.00">pxe_servers</text>
<text text-anchor="start" x="150.5" y="-134.2" font-family="Helvetica,sans-Serif" font-size="11.00">[table]</text>
<polygon fill="none" stroke="black" points="8.5,-104 8.5,-126 189.5,-126 189.5,-104 8.5,-104"/>
<image xlink:href="../../images/primaryKeys.png" width="11px" height="12px" preserveAspectRatio="xMinYMin meet" x="13.5" y="-121"/>
<text text-anchor="start" x="28.5" y="-112.2" font-family="Helvetica,sans-Serif" font-size="11.00">id</text>
<polygon fill="none" stroke="black" points="8.5,-86 8.5,-104 189.5,-104 189.5,-86 8.5,-86"/>
<text text-anchor="start" x="11.5" y="-92.2" font-family="Helvetica,sans-Serif" font-size="11.00">...</text>
<polygon fill="#ffffff" stroke="none" points="8.5,-68 8.5,-86 87.5,-86 87.5,-68 8.5,-68"/>
<polygon fill="none" stroke="black" points="8.5,-68 8.5,-86 87.5,-86 87.5,-68 8.5,-68"/>
<text text-anchor="start" x="11.5" y="-74.2" font-family="Helvetica,sans-Serif" font-size="11.00"> &#160;</text>
<polygon fill="#ffffff" stroke="none" points="87.5,-68 87.5,-86 133.5,-86 133.5,-68 87.5,-68"/>
<polygon fill="none" stroke="black" points="87.5,-68 87.5,-86 133.5,-86 133.5,-68 87.5,-68"/>
<text text-anchor="start" x="123.5" y="-74.2" font-family="Helvetica,sans-Serif" font-size="11.00"> &#160;</text>
<polygon fill="#ffffff" stroke="none" points="133.5,-68 133.5,-86 189.5,-86 189.5,-68 133.5,-68"/>
<polygon fill="none" stroke="black" points="133.5,-68 133.5,-86 189.5,-86 189.5,-68 133.5,-68"/>
<text text-anchor="start" x="169.5" y="-74.2" font-family="Helvetica,sans-Serif" font-size="11.00">3 &gt;</text>
</a>
</g>
</g>
<!-- pxe_images&#45;&gt;pxe_servers -->
<g id="edge5" class="edge"><title>pxe_images:elipses:w&#45;&gt;pxe_servers:id:e</title>
<path fill="none" stroke="black" d="M487.507,-63.832C377.586,-61.2765 336.587,-31.0663 230,-77 207.629,-86.641 214.86,-115 190.5,-115"/>
<polygon fill="black" stroke="black" points="494.001,-63.9072 501.958,-67.5998 498,-63.9536 502,-64 502,-64 502,-64 498,-63.9536 502.042,-60.4002 494.001,-63.9072 494.001,-63.9072"/>
<ellipse fill="none" stroke="black" cx="490.801" cy="-63.8701" rx="3.2" ry="3.2"/>
</g>
<!-- pxe_menus&#45;&gt;pxe_servers -->
<g id="edge6" class="edge"><title>pxe_menus:elipses:w&#45;&gt;pxe_servers:id:e</title>
<path fill="none" stroke="black" d="M238.685,-115C221.79,-115 212.812,-115 190.5,-115"/>
<polygon fill="black" stroke="black" points="245.5,-115 253.5,-118.6 249.5,-115 253.5,-115 253.5,-115 253.5,-115 249.5,-115 253.5,-111.4 245.5,-115 245.5,-115"/>
<ellipse fill="none" stroke="black" cx="242.3" cy="-115" rx="3.2" ry="3.2"/>
</g>
<!-- windows_images -->
<g id="node7" class="node"><title>windows_images</title>
<g id="a_node7"><a xlink:href="../../tables/windows_images.html" xlink:title="windows_images" target="_top">
<polygon fill="#ffffff" stroke="none" points="432,-274 432,-472 688,-472 688,-274 432,-274"/>
<polygon fill="#f5f5f5" stroke="none" points="434,-448 434,-470 686,-470 686,-448 434,-448"/>
<polygon fill="none" stroke="black" points="434,-448 434,-470 686,-470 686,-448 434,-448"/>
<text text-anchor="start" x="439" y="-457.2" font-family="Helvetica,sans-Serif" font-weight="bold" font-size="11.00">windows_images</text>
<text text-anchor="start" x="647" y="-456.2" font-family="Helvetica,sans-Serif" font-size="11.00">[table]</text>
<polygon fill="none" stroke="black" points="434,-426 434,-448 565,-448 565,-426 434,-426"/>
<image xlink:href="../../images/primaryKeys.png" width="11px" height="12px" preserveAspectRatio="xMinYMin meet" x="439" y="-443"/>
<text text-anchor="start" x="454" y="-434.2" font-family="Helvetica,sans-Serif" font-size="11.00">id</text>
<polygon fill="none" stroke="black" points="565,-426 565,-448 686,-448 686,-426 565,-426"/>
<text text-anchor="start" x="568" y="-434.2" font-family="Helvetica,sans-Serif" font-size="11.00">bigserial[19]</text>
<polygon fill="none" stroke="black" points="434,-404 434,-426 565,-426 565,-404 434,-404"/>
<text text-anchor="start" x="454" y="-412.2" font-family="Helvetica,sans-Serif" font-size="11.00">name</text>
<polygon fill="none" stroke="black" points="565,-404 565,-426 686,-426 686,-404 565,-404"/>
<text text-anchor="start" x="568" y="-412.2" font-family="Helvetica,sans-Serif" font-size="11.00">varchar[2147483647]</text>
<polygon fill="none" stroke="black" points="434,-382 434,-404 565,-404 565,-382 434,-382"/>
<text text-anchor="start" x="454" y="-390.2" font-family="Helvetica,sans-Serif" font-size="11.00">description</text>
<polygon fill="none" stroke="black" points="565,-382 565,-404 686,-404 686,-382 565,-382"/>
<text text-anchor="start" x="568" y="-390.2" font-family="Helvetica,sans-Serif" font-size="11.00">varchar[2147483647]</text>
<polygon fill="none" stroke="black" points="434,-360 434,-382 565,-382 565,-360 434,-360"/>
<text text-anchor="start" x="454" y="-368.2" font-family="Helvetica,sans-Serif" font-size="11.00">path</text>
<polygon fill="none" stroke="black" points="565,-360 565,-382 686,-382 686,-360 565,-360"/>
<text text-anchor="start" x="568" y="-368.2" font-family="Helvetica,sans-Serif" font-size="11.00">varchar[2147483647]</text>
<polygon fill="none" stroke="black" points="434,-338 434,-360 565,-360 565,-338 434,-338"/>
<text text-anchor="start" x="454" y="-346.2" font-family="Helvetica,sans-Serif" font-size="11.00">index</text>
<polygon fill="none" stroke="black" points="565,-338 565,-360 686,-360 686,-338 565,-338"/>
<text text-anchor="start" x="568" y="-346.2" font-family="Helvetica,sans-Serif" font-size="11.00">int4[10]</text>
<polygon fill="none" stroke="black" points="434,-316 434,-338 565,-338 565,-316 434,-316"/>
<image xlink:href="../../images/foreignKeys.png" width="11px" height="12px" preserveAspectRatio="xMinYMin meet" x="439" y="-333"/>
<text text-anchor="start" x="454" y="-324.2" font-family="Helvetica,sans-Serif" font-size="11.00">pxe_server_id</text>
<polygon fill="none" stroke="black" points="565,-316 565,-338 686,-338 686,-316 565,-316"/>
<text text-anchor="start" x="568" y="-324.2" font-family="Helvetica,sans-Serif" font-size="11.00">int8[19]</text>
<polygon fill="none" stroke="black" points="434,-294 434,-316 565,-316 565,-294 434,-294"/>
<image xlink:href="../../images/foreignKeys.png" width="11px" height="12px" preserveAspectRatio="xMinYMin meet" x="439" y="-311"/>
<text text-anchor="start" x="454" y="-302.2" font-family="Helvetica,sans-Serif" font-size="11.00">pxe_image_type_id</text>
<polygon fill="none" stroke="black" points="565,-294 565,-316 686,-316 686,-294 565,-294"/>
<text text-anchor="start" x="568" y="-302.2" font-family="Helvetica,sans-Serif" font-size="11.00">int8[19]</text>
<polygon fill="#ffffff" stroke="none" points="434,-276 434,-294 504,-294 504,-276 434,-276"/>
<polygon fill="none" stroke="black" points="434,-276 434,-294 504,-294 504,-276 434,-276"/>
<text text-anchor="start" x="437" y="-282.2" font-family="Helvetica,sans-Serif" font-size="11.00">&lt; 2</text>
<polygon fill="#ffffff" stroke="none" points="504,-276 504,-294 565,-294 565,-276 504,-276"/>
<polygon fill="none" stroke="black" points="504,-276 504,-294 565,-294 565,-276 504,-276"/>
<text text-anchor="start" x="555" y="-282.2" font-family="Helvetica,sans-Serif" font-size="11.00"> &#160;</text>
<polygon fill="#ffffff" stroke="none" points="565,-276 565,-294 686,-294 686,-276 565,-276"/>
<polygon fill="none" stroke="black" points="565,-276 565,-294 686,-294 686,-276 565,-276"/>
<text text-anchor="start" x="666" y="-282.2" font-family="Helvetica,sans-Serif" font-size="11.00">0 &gt;</text>
<polygon fill="none" stroke="black" stroke-width="2" points="433,-275 433,-471 687,-471 687,-275 433,-275"/>
</a>
</g>
</g>
<!-- windows_images&#45;&gt;pxe_image_types -->
<g id="edge7" class="edge"><title>windows_images:pxe_image_type_id:w&#45;&gt;pxe_image_types:id:e</title>
<path fill="none" stroke="black" d="M419.139,-300.566C398.103,-282.837 422.717,-218 384.5,-218"/>
<polygon fill="black" stroke="black" points="425.38,-302.562 431.903,-308.429 429.19,-303.781 433,-305 433,-305 433,-305 429.19,-303.781 434.097,-301.571 425.38,-302.562 425.38,-302.562"/>
<ellipse fill="none" stroke="black" cx="422.333" cy="-301.587" rx="3.20001" ry="3.20001"/>
</g>
<!-- windows_images&#45;&gt;pxe_servers -->
<g id="edge8" class="edge"><title>windows_images:pxe_server_id:w&#45;&gt;pxe_servers:id:e</title>
<path fill="none" stroke="black" d="M418.434,-327.019C333.68,-327.174 291.934,-326.94 230,-262 183.31,-213.044 258.151,-115 190.5,-115"/>
<polygon fill="black" stroke="black" points="425,-327.01 433.005,-330.6 429,-327.005 433,-327 433,-327 433,-327 429,-327.005 432.995,-323.4 425,-327.01 425,-327.01"/>
<ellipse fill="none" stroke="black" cx="421.8" cy="-327.014" rx="3.2" ry="3.2"/>
</g>
</g>
</svg>
