<?xml version="1.0" encoding="UTF-8" standalone="no"?>
<!DOCTYPE svg PUBLIC "-//W3C//DTD SVG 1.1//EN"
 "http://www.w3.org/Graphics/SVG/1.1/DTD/svg11.dtd">
<!-- Generated by graphviz version 2.38.0 (20140413.2041)
 -->
<!-- Title: oneDegreeRelationshipsDiagram Pages: 1 -->
<svg width="750pt" height="922pt"
 viewBox="0.00 0.00 750.00 922.00" xmlns="http://www.w3.org/2000/svg" xmlns:xlink="http://www.w3.org/1999/xlink">
<g id="graph0" class="graph" transform="scale(1 1) rotate(0) translate(4 918)">
<title>oneDegreeRelationshipsDiagram</title>
<polygon fill="#ffffff" stroke="none" points="-4,4 -4,-918 746,-918 746,4 -4,4"/>
<text text-anchor="middle" x="74.5" y="-7.2" font-family="Helvetica,sans-Serif" font-size="11.00">Generated by SchemaSpy</text>
<!-- ext_management_systems -->
<g id="node1" class="node"><title>ext_management_systems</title>
<g id="a_node1"><a xlink:href="../../tables/ext_management_systems.html" xlink:title="ext_management_systems" target="_top">
<polygon fill="#ffffff" stroke="none" points="536,-676 536,-910 734,-910 734,-676 536,-676"/>
<polygon fill="#f5f5f5" stroke="none" points="536,-888 536,-910 734,-910 734,-888 536,-888"/>
<polygon fill="none" stroke="black" points="536,-888 536,-910 734,-910 734,-888 536,-888"/>
<text text-anchor="start" x="541" y="-897.2" font-family="Helvetica,sans-Serif" font-weight="bold" font-size="11.00">ext_management_systems</text>
<text text-anchor="start" x="695" y="-896.2" font-family="Helvetica,sans-Serif" font-size="11.00">[table]</text>
<polygon fill="none" stroke="black" points="536,-866 536,-888 734,-888 734,-866 536,-866"/>
<image xlink:href="../../images/primaryKeys.png" width="11px" height="12px" preserveAspectRatio="xMinYMin meet" x="541" y="-883"/>
<text text-anchor="start" x="562" y="-874.2" font-family="Helvetica,sans-Serif" font-size="11.00">id</text>
<polygon fill="#ffffff" stroke="none" points="536,-844 536,-866 734,-866 734,-844 536,-844"/>
<polygon fill="none" stroke="black" points="536,-844 536,-866 734,-866 734,-844 536,-844"/>
<text text-anchor="start" x="562" y="-852.2" font-family="Helvetica,sans-Serif" font-size="11.00">guid</text>
<polygon fill="none" stroke="black" points="536,-822 536,-844 734,-844 734,-822 536,-822"/>
<image xlink:href="../../images/foreignKeys.png" width="11px" height="12px" preserveAspectRatio="xMinYMin meet" x="541" y="-839"/>
<text text-anchor="start" x="562" y="-830.2" font-family="Helvetica,sans-Serif" font-size="11.00">zone_id</text>
<polygon fill="#ffffff" stroke="none" points="536,-800 536,-822 734,-822 734,-800 536,-800"/>
<polygon fill="none" stroke="black" points="536,-800 536,-822 734,-822 734,-800 536,-800"/>
<text text-anchor="start" x="562" y="-808.2" font-family="Helvetica,sans-Serif" font-size="11.00">type</text>
<polygon fill="none" stroke="black" points="536,-778 536,-800 734,-800 734,-778 536,-778"/>
<image xlink:href="../../images/foreignKeys.png" width="11px" height="12px" preserveAspectRatio="xMinYMin meet" x="541" y="-795"/>
<text text-anchor="start" x="562" y="-786.2" font-family="Helvetica,sans-Serif" font-size="11.00">provider_id</text>
<polygon fill="none" stroke="black" points="536,-756 536,-778 734,-778 734,-756 536,-756"/>
<image xlink:href="../../images/foreignKeys.png" width="11px" height="12px" preserveAspectRatio="xMinYMin meet" x="541" y="-773"/>
<text text-anchor="start" x="562" y="-764.2" font-family="Helvetica,sans-Serif" font-size="11.00">tenant_id</text>
<polygon fill="#ffffff" stroke="none" points="536,-734 536,-756 734,-756 734,-734 536,-734"/>
<polygon fill="none" stroke="black" points="536,-734 536,-756 734,-756 734,-734 536,-734"/>
<text text-anchor="start" x="562" y="-742.2" font-family="Helvetica,sans-Serif" font-size="11.00">parent_ems_id</text>
<polygon fill="#ffffff" stroke="none" points="536,-712 536,-734 734,-734 734,-712 536,-712"/>
<polygon fill="none" stroke="black" points="536,-712 536,-734 734,-734 734,-712 536,-712"/>
<text text-anchor="start" x="562" y="-720.2" font-family="Helvetica,sans-Serif" font-size="11.00">zone_before_pause_id</text>
<polygon fill="none" stroke="black" points="536,-694 536,-712 734,-712 734,-694 536,-694"/>
<text text-anchor="start" x="539" y="-700.2" font-family="Helvetica,sans-Serif" font-size="11.00">...</text>
<polygon fill="#ffffff" stroke="none" points="536,-676 536,-694 633,-694 633,-676 536,-676"/>
<polygon fill="none" stroke="black" points="536,-676 536,-694 633,-694 633,-676 536,-676"/>
<text text-anchor="start" x="539" y="-682.2" font-family="Helvetica,sans-Serif" font-size="11.00">&lt; 3</text>
<polygon fill="#ffffff" stroke="none" points="633,-676 633,-694 683,-694 683,-676 633,-676"/>
<polygon fill="none" stroke="black" points="633,-676 633,-694 683,-694 683,-676 633,-676"/>
<text text-anchor="start" x="673" y="-682.2" font-family="Helvetica,sans-Serif" font-size="11.00"> &#160;</text>
<polygon fill="#ffffff" stroke="none" points="683,-676 683,-694 734,-694 734,-676 683,-676"/>
<polygon fill="none" stroke="black" points="683,-676 683,-694 734,-694 734,-676 683,-676"/>
<text text-anchor="start" x="724" y="-682.2" font-family="Helvetica,sans-Serif" font-size="11.00"> &#160;</text>
</a>
</g>
</g>
<!-- providers -->
<g id="node2" class="node"><title>providers</title>
<g id="a_node2"><a xlink:href="../../tables/providers.html" xlink:title="providers" target="_top">
<polygon fill="#ffffff" stroke="none" points="342,-670 342,-816 445,-816 445,-670 342,-670"/>
<polygon fill="#f5f5f5" stroke="none" points="342.5,-794 342.5,-816 445.5,-816 445.5,-794 342.5,-794"/>
<polygon fill="none" stroke="black" points="342.5,-794 342.5,-816 445.5,-816 445.5,-794 342.5,-794"/>
<text text-anchor="start" x="347.5" y="-803.2" font-family="Helvetica,sans-Serif" font-weight="bold" font-size="11.00">providers</text>
<text text-anchor="start" x="406.5" y="-802.2" font-family="Helvetica,sans-Serif" font-size="11.00">[table]</text>
<polygon fill="none" stroke="black" points="342.5,-772 342.5,-794 445.5,-794 445.5,-772 342.5,-772"/>
<image xlink:href="../../images/primaryKeys.png" width="11px" height="12px" preserveAspectRatio="xMinYMin meet" x="347.5" y="-789"/>
<text text-anchor="start" x="369.5" y="-780.2" font-family="Helvetica,sans-Serif" font-size="11.00">id</text>
<polygon fill="#ffffff" stroke="none" points="342.5,-750 342.5,-772 445.5,-772 445.5,-750 342.5,-750"/>
<polygon fill="none" stroke="black" points="342.5,-750 342.5,-772 445.5,-772 445.5,-750 342.5,-750"/>
<text text-anchor="start" x="369.5" y="-758.2" font-family="Helvetica,sans-Serif" font-size="11.00">type</text>
<polygon fill="none" stroke="black" points="342.5,-728 342.5,-750 445.5,-750 445.5,-728 342.5,-728"/>
<image xlink:href="../../images/foreignKeys.png" width="11px" height="12px" preserveAspectRatio="xMinYMin meet" x="347.5" y="-745"/>
<text text-anchor="start" x="369.5" y="-736.2" font-family="Helvetica,sans-Serif" font-size="11.00">zone_id</text>
<polygon fill="none" stroke="black" points="342.5,-706 342.5,-728 445.5,-728 445.5,-706 342.5,-706"/>
<image xlink:href="../../images/foreignKeys.png" width="11px" height="12px" preserveAspectRatio="xMinYMin meet" x="347.5" y="-723"/>
<text text-anchor="start" x="369.5" y="-714.2" font-family="Helvetica,sans-Serif" font-size="11.00">tenant_id</text>
<polygon fill="none" stroke="black" points="342.5,-688 342.5,-706 445.5,-706 445.5,-688 342.5,-688"/>
<text text-anchor="start" x="345.5" y="-694.2" font-family="Helvetica,sans-Serif" font-size="11.00">...</text>
<polygon fill="#ffffff" stroke="none" points="342.5,-670 342.5,-688 387.5,-688 387.5,-670 342.5,-670"/>
<polygon fill="none" stroke="black" points="342.5,-670 342.5,-688 387.5,-688 387.5,-670 342.5,-670"/>
<text text-anchor="start" x="345.5" y="-676.2" font-family="Helvetica,sans-Serif" font-size="11.00">&lt; 2</text>
<polygon fill="#ffffff" stroke="none" points="387.5,-670 387.5,-688 411.5,-688 411.5,-670 387.5,-670"/>
<polygon fill="none" stroke="black" points="387.5,-670 387.5,-688 411.5,-688 411.5,-670 387.5,-670"/>
<text text-anchor="start" x="401.5" y="-676.2" font-family="Helvetica,sans-Serif" font-size="11.00"> &#160;</text>
<polygon fill="#ffffff" stroke="none" points="411.5,-670 411.5,-688 445.5,-688 445.5,-670 411.5,-670"/>
<polygon fill="none" stroke="black" points="411.5,-670 411.5,-688 445.5,-688 445.5,-670 411.5,-670"/>
<text text-anchor="start" x="425.5" y="-676.2" font-family="Helvetica,sans-Serif" font-size="11.00">1 &gt;</text>
</a>
</g>
</g>
<!-- ext_management_systems&#45;&gt;providers -->
<g id="edge1" class="edge"><title>ext_management_systems:provider_id:w&#45;&gt;providers:id:e</title>
<path fill="none" stroke="black" d="M520.347,-788.694C492.38,-787.472 480.534,-783 446.5,-783"/>
<polygon fill="black" stroke="black" points="527.002,-788.833 534.925,-792.599 531.001,-788.917 535,-789 535,-789 535,-789 531.001,-788.917 535.075,-785.401 527.002,-788.833 527.002,-788.833"/>
<ellipse fill="none" stroke="black" cx="523.802" cy="-788.766" rx="3.2" ry="3.2"/>
</g>
<!-- zones -->
<g id="node3" class="node"><title>zones</title>
<g id="a_node3"><a xlink:href="../../tables/zones.html" xlink:title="zones" target="_top">
<polygon fill="#ffffff" stroke="none" points="8,-365 8,-585 251,-585 251,-365 8,-365"/>
<polygon fill="#f5f5f5" stroke="none" points="10.5,-561 10.5,-583 249.5,-583 249.5,-561 10.5,-561"/>
<polygon fill="none" stroke="black" points="10.5,-561 10.5,-583 249.5,-583 249.5,-561 10.5,-561"/>
<text text-anchor="start" x="15.5" y="-570.2" font-family="Helvetica,sans-Serif" font-weight="bold" font-size="11.00">zones</text>
<text text-anchor="start" x="210.5" y="-569.2" font-family="Helvetica,sans-Serif" font-size="11.00">[table]</text>
<polygon fill="none" stroke="black" points="10.5,-539 10.5,-561 128.5,-561 128.5,-539 10.5,-539"/>
<image xlink:href="../../images/primaryKeys.png" width="11px" height="12px" preserveAspectRatio="xMinYMin meet" x="15.5" y="-556"/>
<text text-anchor="start" x="30.5" y="-547.2" font-family="Helvetica,sans-Serif" font-size="11.00">id</text>
<polygon fill="none" stroke="black" points="128.5,-539 128.5,-561 249.5,-561 249.5,-539 128.5,-539"/>
<text text-anchor="start" x="131.5" y="-547.2" font-family="Helvetica,sans-Serif" font-size="11.00">bigserial[19]</text>
<polygon fill="none" stroke="black" points="10.5,-517 10.5,-539 128.5,-539 128.5,-517 10.5,-517"/>
<text text-anchor="start" x="30.5" y="-525.2" font-family="Helvetica,sans-Serif" font-size="11.00">name</text>
<polygon fill="none" stroke="black" points="128.5,-517 128.5,-539 249.5,-539 249.5,-517 128.5,-517"/>
<text text-anchor="start" x="131.5" y="-525.2" font-family="Helvetica,sans-Serif" font-size="11.00">varchar[2147483647]</text>
<polygon fill="none" stroke="black" points="10.5,-495 10.5,-517 128.5,-517 128.5,-495 10.5,-495"/>
<text text-anchor="start" x="30.5" y="-503.2" font-family="Helvetica,sans-Serif" font-size="11.00">description</text>
<polygon fill="none" stroke="black" points="128.5,-495 128.5,-517 249.5,-517 249.5,-495 128.5,-495"/>
<text text-anchor="start" x="131.5" y="-503.2" font-family="Helvetica,sans-Serif" font-size="11.00">varchar[2147483647]</text>
<polygon fill="none" stroke="black" points="10.5,-473 10.5,-495 128.5,-495 128.5,-473 10.5,-473"/>
<text text-anchor="start" x="30.5" y="-481.2" font-family="Helvetica,sans-Serif" font-size="11.00">created_on</text>
<polygon fill="none" stroke="black" points="128.5,-473 128.5,-495 249.5,-495 249.5,-473 128.5,-473"/>
<text text-anchor="start" x="131.5" y="-481.2" font-family="Helvetica,sans-Serif" font-size="11.00">timestamp[29,6]</text>
<polygon fill="none" stroke="black" points="10.5,-451 10.5,-473 128.5,-473 128.5,-451 10.5,-451"/>
<text text-anchor="start" x="30.5" y="-459.2" font-family="Helvetica,sans-Serif" font-size="11.00">updated_on</text>
<polygon fill="none" stroke="black" points="128.5,-451 128.5,-473 249.5,-473 249.5,-451 128.5,-451"/>
<text text-anchor="start" x="131.5" y="-459.2" font-family="Helvetica,sans-Serif" font-size="11.00">timestamp[29,6]</text>
<polygon fill="none" stroke="black" points="10.5,-429 10.5,-451 128.5,-451 128.5,-429 10.5,-429"/>
<text text-anchor="start" x="30.5" y="-437.2" font-family="Helvetica,sans-Serif" font-size="11.00">settings</text>
<polygon fill="none" stroke="black" points="128.5,-429 128.5,-451 249.5,-451 249.5,-429 128.5,-429"/>
<text text-anchor="start" x="131.5" y="-437.2" font-family="Helvetica,sans-Serif" font-size="11.00">text[2147483647]</text>
<polygon fill="none" stroke="black" points="10.5,-407 10.5,-429 128.5,-429 128.5,-407 10.5,-407"/>
<text text-anchor="start" x="30.5" y="-415.2" font-family="Helvetica,sans-Serif" font-size="11.00">log_file_depot_id</text>
<polygon fill="none" stroke="black" points="128.5,-407 128.5,-429 249.5,-429 249.5,-407 128.5,-407"/>
<text text-anchor="start" x="131.5" y="-415.2" font-family="Helvetica,sans-Serif" font-size="11.00">int8[19]</text>
<polygon fill="none" stroke="black" points="10.5,-385 10.5,-407 128.5,-407 128.5,-385 10.5,-385"/>
<text text-anchor="start" x="30.5" y="-393.2" font-family="Helvetica,sans-Serif" font-size="11.00">visible</text>
<polygon fill="none" stroke="black" points="128.5,-385 128.5,-407 249.5,-407 249.5,-385 128.5,-385"/>
<text text-anchor="start" x="131.5" y="-393.2" font-family="Helvetica,sans-Serif" font-size="11.00">bool[1]</text>
<polygon fill="#ffffff" stroke="none" points="10.5,-367 10.5,-385 74.5,-385 74.5,-367 10.5,-367"/>
<polygon fill="none" stroke="black" points="10.5,-367 10.5,-385 74.5,-385 74.5,-367 10.5,-367"/>
<text text-anchor="start" x="13.5" y="-373.2" font-family="Helvetica,sans-Serif" font-size="11.00">&lt; 0</text>
<polygon fill="#ffffff" stroke="none" points="74.5,-367 74.5,-385 128.5,-385 128.5,-367 74.5,-367"/>
<polygon fill="none" stroke="black" points="74.5,-367 74.5,-385 128.5,-385 128.5,-367 74.5,-367"/>
<text text-anchor="start" x="118.5" y="-373.2" font-family="Helvetica,sans-Serif" font-size="11.00"> &#160;</text>
<polygon fill="#ffffff" stroke="none" points="128.5,-367 128.5,-385 249.5,-385 249.5,-367 128.5,-367"/>
<polygon fill="none" stroke="black" points="128.5,-367 128.5,-385 249.5,-385 249.5,-367 128.5,-367"/>
<text text-anchor="start" x="229.5" y="-373.2" font-family="Helvetica,sans-Serif" font-size="11.00">5 &gt;</text>
<polygon fill="none" stroke="black" stroke-width="2" points="9,-366 9,-584 250,-584 250,-366 9,-366"/>
</a>
</g>
</g>
<!-- ext_management_systems&#45;&gt;zones -->
<g id="edge2" class="edge"><title>ext_management_systems:zone_id:w&#45;&gt;zones:id.type:e</title>
<path fill="none" stroke="black" d="M520.458,-833.394C421.954,-838.725 369.261,-895.228 292,-827 245.345,-785.8 312.743,-550 250.5,-550"/>
<polygon fill="black" stroke="black" points="527.003,-833.217 535.098,-836.599 531.001,-833.108 535,-833 535,-833 535,-833 531.001,-833.108 534.902,-829.401 527.003,-833.217 527.003,-833.217"/>
<ellipse fill="none" stroke="black" cx="523.804" cy="-833.304" rx="3.2" ry="3.2"/>
</g>
<!-- providers&#45;&gt;zones -->
<g id="edge5" class="edge"><title>providers:zone_id:w&#45;&gt;zones:id.type:e</title>
<path fill="none" stroke="black" d="M327.093,-736.737C302.102,-727.469 307.99,-691.36 292,-659 269.036,-612.527 302.337,-550 250.5,-550"/>
<polygon fill="black" stroke="black" points="333.597,-737.759 340.941,-742.556 337.548,-738.379 341.5,-739 341.5,-739 341.5,-739 337.548,-738.379 342.059,-735.444 333.597,-737.759 333.597,-737.759"/>
<ellipse fill="none" stroke="black" cx="330.436" cy="-737.262" rx="3.2" ry="3.2"/>
</g>
<!-- miq_schedules -->
<g id="node4" class="node"><title>miq_schedules</title>
<g id="a_node4"><a xlink:href="../../tables/miq_schedules.html" xlink:title="miq_schedules" target="_top">
<polygon fill="#ffffff" stroke="none" points="327.5,-481 327.5,-649 459.5,-649 459.5,-481 327.5,-481"/>
<polygon fill="#f5f5f5" stroke="none" points="327.5,-627 327.5,-649 459.5,-649 459.5,-627 327.5,-627"/>
<polygon fill="none" stroke="black" points="327.5,-627 327.5,-649 459.5,-649 459.5,-627 327.5,-627"/>
<text text-anchor="start" x="332.5" y="-636.2" font-family="Helvetica,sans-Serif" font-weight="bold" font-size="11.00">miq_schedules</text>
<text text-anchor="start" x="420.5" y="-635.2" font-family="Helvetica,sans-Serif" font-size="11.00">[table]</text>
<polygon fill="none" stroke="black" points="327.5,-605 327.5,-627 459.5,-627 459.5,-605 327.5,-605"/>
<image xlink:href="../../images/primaryKeys.png" width="11px" height="12px" preserveAspectRatio="xMinYMin meet" x="332.5" y="-622"/>
<text text-anchor="start" x="359.5" y="-613.2" font-family="Helvetica,sans-Serif" font-size="11.00">id</text>
<polygon fill="#ffffff" stroke="none" points="327.5,-583 327.5,-605 459.5,-605 459.5,-583 327.5,-583"/>
<polygon fill="none" stroke="black" points="327.5,-583 327.5,-605 459.5,-605 459.5,-583 327.5,-583"/>
<text text-anchor="start" x="359.5" y="-591.2" font-family="Helvetica,sans-Serif" font-size="11.00">updated_at</text>
<polygon fill="#ffffff" stroke="none" points="327.5,-561 327.5,-583 459.5,-583 459.5,-561 327.5,-561"/>
<polygon fill="none" stroke="black" points="327.5,-561 327.5,-583 459.5,-583 459.5,-561 327.5,-561"/>
<image xlink:href="../../images/foreignKeys.png" width="11px" height="12px" preserveAspectRatio="xMinYMin meet" x="332.5" y="-578"/>
<text text-anchor="start" x="359.5" y="-569.2" font-family="Helvetica,sans-Serif" font-size="11.00">miq_search_id</text>
<polygon fill="#ffffff" stroke="none" points="327.5,-539 327.5,-561 459.5,-561 459.5,-539 327.5,-539"/>
<polygon fill="none" stroke="black" points="327.5,-539 327.5,-561 459.5,-561 459.5,-539 327.5,-539"/>
<image xlink:href="../../images/foreignKeys.png" width="11px" height="12px" preserveAspectRatio="xMinYMin meet" x="332.5" y="-556"/>
<text text-anchor="start" x="359.5" y="-547.2" font-family="Helvetica,sans-Serif" font-size="11.00">zone_id</text>
<polygon fill="none" stroke="black" points="327.5,-517 327.5,-539 459.5,-539 459.5,-517 327.5,-517"/>
<image xlink:href="../../images/foreignKeys.png" width="11px" height="12px" preserveAspectRatio="xMinYMin meet" x="332.5" y="-534"/>
<text text-anchor="start" x="359.5" y="-525.2" font-family="Helvetica,sans-Serif" font-size="11.00">file_depot_id</text>
<polygon fill="none" stroke="black" points="327.5,-499 327.5,-517 459.5,-517 459.5,-499 327.5,-499"/>
<text text-anchor="start" x="330.5" y="-505.2" font-family="Helvetica,sans-Serif" font-size="11.00">...</text>
<polygon fill="#ffffff" stroke="none" points="327.5,-481 327.5,-499 386.5,-499 386.5,-481 327.5,-481"/>
<polygon fill="none" stroke="black" points="327.5,-481 327.5,-499 386.5,-499 386.5,-481 327.5,-481"/>
<text text-anchor="start" x="330.5" y="-487.2" font-family="Helvetica,sans-Serif" font-size="11.00">&lt; 3</text>
<polygon fill="#ffffff" stroke="none" points="386.5,-481 386.5,-499 417.5,-499 417.5,-481 386.5,-481"/>
<polygon fill="none" stroke="black" points="386.5,-481 386.5,-499 417.5,-499 417.5,-481 386.5,-481"/>
<text text-anchor="start" x="407.5" y="-487.2" font-family="Helvetica,sans-Serif" font-size="11.00"> &#160;</text>
<polygon fill="#ffffff" stroke="none" points="417.5,-481 417.5,-499 459.5,-499 459.5,-481 417.5,-481"/>
<polygon fill="none" stroke="black" points="417.5,-481 417.5,-499 459.5,-499 459.5,-481 417.5,-481"/>
<text text-anchor="start" x="439.5" y="-487.2" font-family="Helvetica,sans-Serif" font-size="11.00">1 &gt;</text>
</a>
</g>
</g>
<!-- miq_schedules&#45;&gt;zones -->
<g id="edge3" class="edge"><title>miq_schedules:zone_id:w&#45;&gt;zones:id.type:e</title>
<path fill="none" stroke="black" d="M312.012,-550C289.368,-550 278.868,-550 250.5,-550"/>
<polygon fill="black" stroke="black" points="318.5,-550 326.5,-553.6 322.5,-550 326.5,-550 326.5,-550 326.5,-550 322.5,-550 326.5,-546.4 318.5,-550 318.5,-550"/>
<ellipse fill="none" stroke="black" cx="315.3" cy="-550" rx="3.2" ry="3.2"/>
</g>
<!-- miq_servers -->
<g id="node5" class="node"><title>miq_servers</title>
<g id="a_node5"><a xlink:href="../../tables/miq_servers.html" xlink:title="miq_servers" target="_top">
<polygon fill="#ffffff" stroke="none" points="302.5,-314 302.5,-460 484.5,-460 484.5,-314 302.5,-314"/>
<polygon fill="#f5f5f5" stroke="none" points="302.5,-438 302.5,-460 484.5,-460 484.5,-438 302.5,-438"/>
<polygon fill="none" stroke="black" points="302.5,-438 302.5,-460 484.5,-460 484.5,-438 302.5,-438"/>
<text text-anchor="start" x="307.5" y="-447.2" font-family="Helvetica,sans-Serif" font-weight="bold" font-size="11.00">miq_servers</text>
<text text-anchor="start" x="445.5" y="-446.2" font-family="Helvetica,sans-Serif" font-size="11.00">[table]</text>
<polygon fill="none" stroke="black" points="302.5,-416 302.5,-438 484.5,-438 484.5,-416 302.5,-416"/>
<image xlink:href="../../images/primaryKeys.png" width="11px" height="12px" preserveAspectRatio="xMinYMin meet" x="307.5" y="-433"/>
<text text-anchor="start" x="322.5" y="-424.2" font-family="Helvetica,sans-Serif" font-size="11.00">id</text>
<polygon fill="#ffffff" stroke="none" points="302.5,-394 302.5,-416 484.5,-416 484.5,-394 302.5,-394"/>
<polygon fill="none" stroke="black" points="302.5,-394 302.5,-416 484.5,-416 484.5,-394 302.5,-394"/>
<text text-anchor="start" x="322.5" y="-402.2" font-family="Helvetica,sans-Serif" font-size="11.00">guid</text>
<polygon fill="#ffffff" stroke="none" points="302.5,-372 302.5,-394 484.5,-394 484.5,-372 302.5,-372"/>
<polygon fill="none" stroke="black" points="302.5,-372 302.5,-394 484.5,-394 484.5,-372 302.5,-372"/>
<image xlink:href="../../images/foreignKeys.png" width="11px" height="12px" preserveAspectRatio="xMinYMin meet" x="307.5" y="-389"/>
<text text-anchor="start" x="322.5" y="-380.2" font-family="Helvetica,sans-Serif" font-size="11.00">zone_id</text>
<polygon fill="#ffffff" stroke="none" points="302.5,-350 302.5,-372 484.5,-372 484.5,-350 302.5,-350"/>
<polygon fill="none" stroke="black" points="302.5,-350 302.5,-372 484.5,-372 484.5,-350 302.5,-350"/>
<image xlink:href="../../images/foreignKeys.png" width="11px" height="12px" preserveAspectRatio="xMinYMin meet" x="307.5" y="-367"/>
<text text-anchor="start" x="322.5" y="-358.2" font-family="Helvetica,sans-Serif" font-size="11.00">vm_id</text>
<polygon fill="none" stroke="black" points="302.5,-332 302.5,-350 484.5,-350 484.5,-332 302.5,-332"/>
<text text-anchor="start" x="305.5" y="-338.2" font-family="Helvetica,sans-Serif" font-size="11.00">...</text>
<polygon fill="#ffffff" stroke="none" points="302.5,-314 302.5,-332 386.5,-332 386.5,-314 302.5,-314"/>
<polygon fill="none" stroke="black" points="302.5,-314 302.5,-332 386.5,-332 386.5,-314 302.5,-314"/>
<text text-anchor="start" x="305.5" y="-320.2" font-family="Helvetica,sans-Serif" font-size="11.00">&lt; 2</text>
<polygon fill="#ffffff" stroke="none" points="386.5,-314 386.5,-332 430.5,-332 430.5,-314 386.5,-314"/>
<polygon fill="none" stroke="black" points="386.5,-314 386.5,-332 430.5,-332 430.5,-314 386.5,-314"/>
<text text-anchor="start" x="420.5" y="-320.2" font-family="Helvetica,sans-Serif" font-size="11.00"> &#160;</text>
<polygon fill="#ffffff" stroke="none" points="430.5,-314 430.5,-332 484.5,-332 484.5,-314 430.5,-314"/>
<polygon fill="none" stroke="black" points="430.5,-314 430.5,-332 484.5,-332 484.5,-314 430.5,-314"/>
<text text-anchor="start" x="464.5" y="-320.2" font-family="Helvetica,sans-Serif" font-size="11.00">4 &gt;</text>
</a>
</g>
</g>
<!-- miq_servers&#45;&gt;zones -->
<g id="edge4" class="edge"><title>miq_servers:zone_id:w&#45;&gt;zones:id.type:e</title>
<path fill="none" stroke="black" d="M287.076,-385.623C238.361,-406.869 322.346,-550 250.5,-550"/>
<polygon fill="black" stroke="black" points="293.629,-384.432 302.144,-386.542 297.565,-383.716 301.5,-383 301.5,-383 301.5,-383 297.565,-383.716 300.856,-379.458 293.629,-384.432 293.629,-384.432"/>
<ellipse fill="none" stroke="black" cx="290.481" cy="-385.004" rx="3.2" ry="3.2"/>
</g>
<!-- service_templates -->
<g id="node6" class="node"><title>service_templates</title>
<g id="a_node6"><a xlink:href="../../tables/service_templates.html" xlink:title="service_templates" target="_top">
<polygon fill="#ffffff" stroke="none" points="300,-37 300,-293 487,-293 487,-37 300,-37"/>
<polygon fill="#f5f5f5" stroke="none" points="300.5,-271 300.5,-293 487.5,-293 487.5,-271 300.5,-271"/>
<polygon fill="none" stroke="black" points="300.5,-271 300.5,-293 487.5,-293 487.5,-271 300.5,-271"/>
<text text-anchor="start" x="305.5" y="-280.2" font-family="Helvetica,sans-Serif" font-weight="bold" font-size="11.00">service_templates</text>
<text text-anchor="start" x="448.5" y="-279.2" font-family="Helvetica,sans-Serif" font-size="11.00">[table]</text>
<polygon fill="none" stroke="black" points="300.5,-249 300.5,-271 487.5,-271 487.5,-249 300.5,-249"/>
<image xlink:href="../../images/primaryKeys.png" width="11px" height="12px" preserveAspectRatio="xMinYMin meet" x="305.5" y="-266"/>
<text text-anchor="start" x="320.5" y="-257.2" font-family="Helvetica,sans-Serif" font-size="11.00">id</text>
<polygon fill="#ffffff" stroke="none" points="300.5,-227 300.5,-249 487.5,-249 487.5,-227 300.5,-227"/>
<polygon fill="none" stroke="black" points="300.5,-227 300.5,-249 487.5,-249 487.5,-227 300.5,-227"/>
<text text-anchor="start" x="320.5" y="-235.2" font-family="Helvetica,sans-Serif" font-size="11.00">type</text>
<polygon fill="none" stroke="black" points="300.5,-205 300.5,-227 487.5,-227 487.5,-205 300.5,-205"/>
<image xlink:href="../../images/foreignKeys.png" width="11px" height="12px" preserveAspectRatio="xMinYMin meet" x="305.5" y="-222"/>
<text text-anchor="start" x="320.5" y="-213.2" font-family="Helvetica,sans-Serif" font-size="11.00">service_template_id</text>
<polygon fill="none" stroke="black" points="300.5,-183 300.5,-205 487.5,-205 487.5,-183 300.5,-183"/>
<image xlink:href="../../images/foreignKeys.png" width="11px" height="12px" preserveAspectRatio="xMinYMin meet" x="305.5" y="-200"/>
<text text-anchor="start" x="320.5" y="-191.2" font-family="Helvetica,sans-Serif" font-size="11.00">miq_group_id</text>
<polygon fill="none" stroke="black" points="300.5,-161 300.5,-183 487.5,-183 487.5,-161 300.5,-161"/>
<image xlink:href="../../images/foreignKeys.png" width="11px" height="12px" preserveAspectRatio="xMinYMin meet" x="305.5" y="-178"/>
<text text-anchor="start" x="320.5" y="-169.2" font-family="Helvetica,sans-Serif" font-size="11.00">service_template_catalog_id</text>
<polygon fill="none" stroke="black" points="300.5,-139 300.5,-161 487.5,-161 487.5,-139 300.5,-139"/>
<image xlink:href="../../images/foreignKeys.png" width="11px" height="12px" preserveAspectRatio="xMinYMin meet" x="305.5" y="-156"/>
<text text-anchor="start" x="320.5" y="-147.2" font-family="Helvetica,sans-Serif" font-size="11.00">tenant_id</text>
<polygon fill="#ffffff" stroke="none" points="300.5,-117 300.5,-139 487.5,-139 487.5,-117 300.5,-117"/>
<polygon fill="none" stroke="black" points="300.5,-117 300.5,-139 487.5,-139 487.5,-117 300.5,-117"/>
<text text-anchor="start" x="320.5" y="-125.2" font-family="Helvetica,sans-Serif" font-size="11.00">generic_subtype</text>
<polygon fill="none" stroke="black" points="300.5,-95 300.5,-117 487.5,-117 487.5,-95 300.5,-95"/>
<image xlink:href="../../images/foreignKeys.png" width="11px" height="12px" preserveAspectRatio="xMinYMin meet" x="305.5" y="-112"/>
<text text-anchor="start" x="320.5" y="-103.2" font-family="Helvetica,sans-Serif" font-size="11.00">zone_id</text>
<polygon fill="#ffffff" stroke="none" points="300.5,-73 300.5,-95 487.5,-95 487.5,-73 300.5,-73"/>
<polygon fill="none" stroke="black" points="300.5,-73 300.5,-95 487.5,-95 487.5,-73 300.5,-73"/>
<image xlink:href="../../images/foreignKeys.png" width="11px" height="12px" preserveAspectRatio="xMinYMin meet" x="305.5" y="-90"/>
<text text-anchor="start" x="320.5" y="-81.2" font-family="Helvetica,sans-Serif" font-size="11.00">currency_id</text>
<polygon fill="none" stroke="black" points="300.5,-55 300.5,-73 487.5,-73 487.5,-55 300.5,-55"/>
<text text-anchor="start" x="303.5" y="-61.2" font-family="Helvetica,sans-Serif" font-size="11.00">...</text>
<polygon fill="#ffffff" stroke="none" points="300.5,-37 300.5,-55 387.5,-55 387.5,-37 300.5,-37"/>
<polygon fill="none" stroke="black" points="300.5,-37 300.5,-55 387.5,-55 387.5,-37 300.5,-37"/>
<text text-anchor="start" x="303.5" y="-43.2" font-family="Helvetica,sans-Serif" font-size="11.00">&lt; 6</text>
<polygon fill="#ffffff" stroke="none" points="387.5,-37 387.5,-55 432.5,-55 432.5,-37 387.5,-37"/>
<polygon fill="none" stroke="black" points="387.5,-37 387.5,-55 432.5,-55 432.5,-37 387.5,-37"/>
<text text-anchor="start" x="422.5" y="-43.2" font-family="Helvetica,sans-Serif" font-size="11.00"> &#160;</text>
<polygon fill="#ffffff" stroke="none" points="432.5,-37 432.5,-55 487.5,-55 487.5,-37 432.5,-37"/>
<polygon fill="none" stroke="black" points="432.5,-37 432.5,-55 487.5,-55 487.5,-37 432.5,-37"/>
<text text-anchor="start" x="467.5" y="-43.2" font-family="Helvetica,sans-Serif" font-size="11.00">4 &gt;</text>
</a>
</g>
</g>
<!-- service_templates&#45;&gt;zones -->
<g id="edge6" class="edge"><title>service_templates:zone_id:w&#45;&gt;zones:id.type:e</title>
<path fill="none" stroke="black" d="M285.365,-109.838C215.845,-153.235 344.337,-550 250.5,-550"/>
<polygon fill="black" stroke="black" points="291.78,-108.097 300.443,-109.474 295.64,-107.048 299.5,-106 299.5,-106 299.5,-106 295.64,-107.048 298.557,-102.526 291.78,-108.097 291.78,-108.097"/>
<ellipse fill="none" stroke="black" cx="288.691" cy="-108.935" rx="3.2" ry="3.2"/>
</g>
</g>
</svg>
